# RoastEngine club level
mtllib club.mtl
v 0.0430 0.1100 0.0000
v 0.0430 0.3300 0.0000
v 0.0372 0.1100 0.0215
v 0.0372 0.3300 0.0215
v 0.0215 0.1100 0.0372
v 0.0215 0.3300 0.0372
v 0.0000 0.1100 0.0430
v 0.0000 0.3300 0.0430
v -0.0215 0.1100 0.0372
v -0.0215 0.3300 0.0372
v -0.0372 0.1100 0.0215
v -0.0372 0.3300 0.0215
v -0.0430 0.1100 0.0000
v -0.0430 0.3300 0.0000
v -0.0372 0.1100 -0.0215
v -0.0372 0.3300 -0.0215
v -0.0215 0.1100 -0.0372
v -0.0215 0.3300 -0.0372
v -0.0000 0.1100 -0.0430
v -0.0000 0.3300 -0.0430
v 0.0215 0.1100 -0.0372
v 0.0215 0.3300 -0.0372
v 0.0372 0.1100 -0.0215
v 0.0372 0.3300 -0.0215
v 0.0000 0.3300 0.0000
v 0.0000 0.1100 0.0000
v 0.0300 0.2400 0.0000
v 0.0300 0.3000 0.0000
v 0.0260 0.2400 0.0150
v 0.0260 0.3000 0.0150
v 0.0150 0.2400 0.0260
v 0.0150 0.3000 0.0260
v 0.0000 0.2400 0.0300
v 0.0000 0.3000 0.0300
v -0.0150 0.2400 0.0260
v -0.0150 0.3000 0.0260
v -0.0260 0.2400 0.0150
v -0.0260 0.3000 0.0150
v -0.0300 0.2400 0.0000
v -0.0300 0.3000 0.0000
v -0.0260 0.2400 -0.0150
v -0.0260 0.3000 -0.0150
v -0.0150 0.2400 -0.0260
v -0.0150 0.3000 -0.0260
v -0.0000 0.2400 -0.0300
v -0.0000 0.3000 -0.0300
v 0.0150 0.2400 -0.0260
v 0.0150 0.3000 -0.0260
v 0.0260 0.2400 -0.0150
v 0.0260 0.3000 -0.0150
v 0.0000 0.3000 0.0000
v 0.0000 0.2400 0.0000
v 0.0180 0.3100 0.0000
v 0.0180 0.4000 0.0000
v 0.0156 0.3100 0.0090
v 0.0156 0.4000 0.0090
v 0.0090 0.3100 0.0156
v 0.0090 0.4000 0.0156
v 0.0000 0.3100 0.0180
v 0.0000 0.4000 0.0180
v -0.0090 0.3100 0.0156
v -0.0090 0.4000 0.0156
v -0.0156 0.3100 0.0090
v -0.0156 0.4000 0.0090
v -0.0180 0.3100 0.0000
v -0.0180 0.4000 0.0000
v -0.0156 0.3100 -0.0090
v -0.0156 0.4000 -0.0090
v -0.0090 0.3100 -0.0156
v -0.0090 0.4000 -0.0156
v -0.0000 0.3100 -0.0180
v -0.0000 0.4000 -0.0180
v 0.0090 0.3100 -0.0156
v 0.0090 0.4000 -0.0156
v 0.0156 0.3100 -0.0090
v 0.0156 0.4000 -0.0090
v 0.0000 0.4000 0.0000
v 0.0000 0.3100 0.0000
v 0.0200 0.3600 0.0000
v 0.0200 0.3800 0.0000
v 0.0173 0.3600 0.0100
v 0.0173 0.3800 0.0100
v 0.0100 0.3600 0.0173
v 0.0100 0.3800 0.0173
v 0.0000 0.3600 0.0200
v 0.0000 0.3800 0.0200
v -0.0100 0.3600 0.0173
v -0.0100 0.3800 0.0173
v -0.0173 0.3600 0.0100
v -0.0173 0.3800 0.0100
v -0.0200 0.3600 0.0000
v -0.0200 0.3800 0.0000
v -0.0173 0.3600 -0.0100
v -0.0173 0.3800 -0.0100
v -0.0100 0.3600 -0.0173
v -0.0100 0.3800 -0.0173
v -0.0000 0.3600 -0.0200
v -0.0000 0.3800 -0.0200
v 0.0100 0.3600 -0.0173
v 0.0100 0.3800 -0.0173
v 0.0173 0.3600 -0.0100
v 0.0173 0.3800 -0.0100
v 0.0000 0.3800 0.0000
v 0.0000 0.3600 0.0000
usemtl bottle_a
f 1 3 4 2
f 3 5 6 4
f 5 7 8 6
f 7 9 10 8
f 9 11 12 10
f 11 13 14 12
f 13 15 16 14
f 15 17 18 16
f 17 19 20 18
f 19 21 22 20
f 21 23 24 22
f 23 1 2 24
f 25 2 4
f 26 3 1
f 25 4 6
f 26 5 3
f 25 6 8
f 26 7 5
f 25 8 10
f 26 9 7
f 25 10 12
f 26 11 9
f 25 12 14
f 26 13 11
f 25 14 16
f 26 15 13
f 25 16 18
f 26 17 15
f 25 18 20
f 26 19 17
f 25 20 22
f 26 21 19
f 25 22 24
f 26 23 21
f 25 24 2
f 26 1 23
f 27 29 30 28
f 29 31 32 30
f 31 33 34 32
f 33 35 36 34
f 35 37 38 36
f 37 39 40 38
f 39 41 42 40
f 41 43 44 42
f 43 45 46 44
f 45 47 48 46
f 47 49 50 48
f 49 27 28 50
f 51 28 30
f 52 29 27
f 51 30 32
f 52 31 29
f 51 32 34
f 52 33 31
f 51 34 36
f 52 35 33
f 51 36 38
f 52 37 35
f 51 38 40
f 52 39 37
f 51 40 42
f 52 41 39
f 51 42 44
f 52 43 41
f 51 44 46
f 52 45 43
f 51 46 48
f 52 47 45
f 51 48 50
f 52 49 47
f 51 50 28
f 52 27 49
f 53 55 56 54
f 55 57 58 56
f 57 59 60 58
f 59 61 62 60
f 61 63 64 62
f 63 65 66 64
f 65 67 68 66
f 67 69 70 68
f 69 71 72 70
f 71 73 74 72
f 73 75 76 74
f 75 53 54 76
f 77 54 56
f 78 55 53
f 77 56 58
f 78 57 55
f 77 58 60
f 78 59 57
f 77 60 62
f 78 61 59
f 77 62 64
f 78 63 61
f 77 64 66
f 78 65 63
f 77 66 68
f 78 67 65
f 77 68 70
f 78 69 67
f 77 70 72
f 78 71 69
f 77 72 74
f 78 73 71
f 77 74 76
f 78 75 73
f 77 76 54
f 78 53 75
usemtl trim
f 79 81 82 80
f 81 83 84 82
f 83 85 86 84
f 85 87 88 86
f 87 89 90 88
f 89 91 92 90
f 91 93 94 92
f 93 95 96 94
f 95 97 98 96
f 97 99 100 98
f 99 101 102 100
f 101 79 80 102
f 103 80 82
f 104 81 79
f 103 82 84
f 104 83 81
f 103 84 86
f 104 85 83
f 103 86 88
f 104 87 85
f 103 88 90
f 104 89 87
f 103 90 92
f 104 91 89
f 103 92 94
f 104 93 91
f 103 94 96
f 104 95 93
f 103 96 98
f 104 97 95
f 103 98 100
f 104 99 97
f 103 100 102
f 104 101 99
f 103 102 80
f 104 79 101
