# RoastEngine club level
mtllib club.mtl
v -8.0000 -0.2000 -18.0000
v 8.0000 -0.2000 -18.0000
v 8.0000 -0.2000 2.0000
v -8.0000 -0.2000 2.0000
v -8.0000 0.0000 -18.0000
v 8.0000 0.0000 -18.0000
v 8.0000 0.0000 2.0000
v -8.0000 0.0000 2.0000
v -8.0000 3.9000 -18.0000
v 8.0000 3.9000 -18.0000
v 8.0000 3.9000 2.0000
v -8.0000 3.9000 2.0000
v -8.0000 4.1000 -18.0000
v 8.0000 4.1000 -18.0000
v 8.0000 4.1000 2.0000
v -8.0000 4.1000 2.0000
v -8.2000 0.0000 -18.0000
v -8.0000 0.0000 -18.0000
v -8.0000 0.0000 2.0000
v -8.2000 0.0000 2.0000
v -8.2000 4.0000 -18.0000
v -8.0000 4.0000 -18.0000
v -8.0000 4.0000 2.0000
v -8.2000 4.0000 2.0000
v 8.0000 0.0000 -18.0000
v 8.2000 0.0000 -18.0000
v 8.2000 0.0000 2.0000
v 8.0000 0.0000 2.0000
v 8.0000 4.0000 -18.0000
v 8.2000 4.0000 -18.0000
v 8.2000 4.0000 2.0000
v 8.0000 4.0000 2.0000
v -8.0000 0.0000 -18.2000
v 8.0000 0.0000 -18.2000
v 8.0000 0.0000 -18.0000
v -8.0000 0.0000 -18.0000
v -8.0000 4.0000 -18.2000
v 8.0000 4.0000 -18.2000
v 8.0000 4.0000 -18.0000
v -8.0000 4.0000 -18.0000
v -8.0000 0.0000 1.8000
v -2.0000 0.0000 1.8000
v -2.0000 0.0000 2.0000
v -8.0000 0.0000 2.0000
v -8.0000 4.0000 1.8000
v -2.0000 4.0000 1.8000
v -2.0000 4.0000 2.0000
v -8.0000 4.0000 2.0000
v 2.0000 0.0000 1.8000
v 8.0000 0.0000 1.8000
v 8.0000 0.0000 2.0000
v 2.0000 0.0000 2.0000
v 2.0000 4.0000 1.8000
v 8.0000 4.0000 1.8000
v 8.0000 4.0000 2.0000
v 2.0000 4.0000 2.0000
v -2.0000 3.0000 1.8000
v 2.0000 3.0000 1.8000
v 2.0000 3.0000 2.0000
v -2.0000 3.0000 2.0000
v -2.0000 4.0000 1.8000
v 2.0000 4.0000 1.8000
v 2.0000 4.0000 2.0000
v -2.0000 4.0000 2.0000
v -7.9300 2.4000 -15.1000
v -7.8700 2.4000 -15.1000
v -7.8700 2.4000 -12.9000
v -7.9300 2.4000 -12.9000
v -7.9300 2.8000 -15.1000
v -7.8700 2.8000 -15.1000
v -7.8700 2.8000 -12.9000
v -7.9300 2.8000 -12.9000
v -7.9300 2.4000 -11.1000
v -7.8700 2.4000 -11.1000
v -7.8700 2.4000 -8.9000
v -7.9300 2.4000 -8.9000
v -7.9300 2.8000 -11.1000
v -7.8700 2.8000 -11.1000
v -7.8700 2.8000 -8.9000
v -7.9300 2.8000 -8.9000
v -7.9300 2.4000 -7.1000
v -7.8700 2.4000 -7.1000
v -7.8700 2.4000 -4.9000
v -7.9300 2.4000 -4.9000
v -7.9300 2.8000 -7.1000
v -7.8700 2.8000 -7.1000
v -7.8700 2.8000 -4.9000
v -7.9300 2.8000 -4.9000
v -7.9300 2.4000 -3.1000
v -7.8700 2.4000 -3.1000
v -7.8700 2.4000 -0.9000
v -7.9300 2.4000 -0.9000
v -7.9300 2.8000 -3.1000
v -7.8700 2.8000 -3.1000
v -7.8700 2.8000 -0.9000
v -7.9300 2.8000 -0.9000
v 7.8700 2.4000 -15.1000
v 7.9300 2.4000 -15.1000
v 7.9300 2.4000 -12.9000
v 7.8700 2.4000 -12.9000
v 7.8700 2.8000 -15.1000
v 7.9300 2.8000 -15.1000
v 7.9300 2.8000 -12.9000
v 7.8700 2.8000 -12.9000
v 7.8700 2.4000 -11.1000
v 7.9300 2.4000 -11.1000
v 7.9300 2.4000 -8.9000
v 7.8700 2.4000 -8.9000
v 7.8700 2.8000 -11.1000
v 7.9300 2.8000 -11.1000
v 7.9300 2.8000 -8.9000
v 7.8700 2.8000 -8.9000
v 7.8700 2.4000 -7.1000
v 7.9300 2.4000 -7.1000
v 7.9300 2.4000 -4.9000
v 7.8700 2.4000 -4.9000
v 7.8700 2.8000 -7.1000
v 7.9300 2.8000 -7.1000
v 7.9300 2.8000 -4.9000
v 7.8700 2.8000 -4.9000
v 7.8700 2.4000 -3.1000
v 7.9300 2.4000 -3.1000
v 7.9300 2.4000 -0.9000
v 7.8700 2.4000 -0.9000
v 7.8700 2.8000 -3.1000
v 7.9300 2.8000 -3.1000
v 7.9300 2.8000 -0.9000
v 7.8700 2.8000 -0.9000
v -6.7000 0.0000 -13.0000
v -5.3000 0.0000 -13.0000
v -5.3000 0.0000 -3.0000
v -6.7000 0.0000 -3.0000
v -6.7000 1.1000 -13.0000
v -5.3000 1.1000 -13.0000
v -5.3000 1.1000 -3.0000
v -6.7000 1.1000 -3.0000
v -6.9000 1.1000 -13.2000
v -5.1000 1.1000 -13.2000
v -5.1000 1.1000 -2.8000
v -6.9000 1.1000 -2.8000
v -6.9000 1.2000 -13.2000
v -5.1000 1.2000 -13.2000
v -5.1000 1.2000 -2.8000
v -6.9000 1.2000 -2.8000
v -7.9500 1.3500 -12.5000
v -7.4500 1.3500 -12.5000
v -7.4500 1.3500 -3.5000
v -7.9500 1.3500 -3.5000
v -7.9500 1.4500 -12.5000
v -7.4500 1.4500 -12.5000
v -7.4500 1.4500 -3.5000
v -7.9500 1.4500 -3.5000
v -7.9500 1.9500 -12.5000
v -7.4500 1.9500 -12.5000
v -7.4500 1.9500 -3.5000
v -7.9500 1.9500 -3.5000
v -7.9500 2.0500 -12.5000
v -7.4500 2.0500 -12.5000
v -7.4500 2.0500 -3.5000
v -7.9500 2.0500 -3.5000
v -7.6300 1.4500 -12.0000
v -7.6300 1.8000 -12.0000
v -7.6394 1.4500 -11.9650
v -7.6394 1.8000 -11.9650
v -7.6650 1.4500 -11.9394
v -7.6650 1.8000 -11.9394
v -7.7000 1.4500 -11.9300
v -7.7000 1.8000 -11.9300
v -7.7350 1.4500 -11.9394
v -7.7350 1.8000 -11.9394
v -7.7606 1.4500 -11.9650
v -7.7606 1.8000 -11.9650
v -7.7700 1.4500 -12.0000
v -7.7700 1.8000 -12.0000
v -7.7606 1.4500 -12.0350
v -7.7606 1.8000 -12.0350
v -7.7350 1.4500 -12.0606
v -7.7350 1.8000 -12.0606
v -7.7000 1.4500 -12.0700
v -7.7000 1.8000 -12.0700
v -7.6650 1.4500 -12.0606
v -7.6650 1.8000 -12.0606
v -7.6394 1.4500 -12.0350
v -7.6394 1.8000 -12.0350
v -7.7000 1.8000 -12.0000
v -7.7000 1.4500 -12.0000
v -7.6300 2.0500 -12.0000
v -7.6300 2.3500 -12.0000
v -7.6394 2.0500 -11.9650
v -7.6394 2.3500 -11.9650
v -7.6650 2.0500 -11.9394
v -7.6650 2.3500 -11.9394
v -7.7000 2.0500 -11.9300
v -7.7000 2.3500 -11.9300
v -7.7350 2.0500 -11.9394
v -7.7350 2.3500 -11.9394
v -7.7606 2.0500 -11.9650
v -7.7606 2.3500 -11.9650
v -7.7700 2.0500 -12.0000
v -7.7700 2.3500 -12.0000
v -7.7606 2.0500 -12.0350
v -7.7606 2.3500 -12.0350
v -7.7350 2.0500 -12.0606
v -7.7350 2.3500 -12.0606
v -7.7000 2.0500 -12.0700
v -7.7000 2.3500 -12.0700
v -7.6650 2.0500 -12.0606
v -7.6650 2.3500 -12.0606
v -7.6394 2.0500 -12.0350
v -7.6394 2.3500 -12.0350
v -7.7000 2.3500 -12.0000
v -7.7000 2.0500 -12.0000
v -7.6300 1.4500 -11.2000
v -7.6300 1.8000 -11.2000
v -7.6394 1.4500 -11.1650
v -7.6394 1.8000 -11.1650
v -7.6650 1.4500 -11.1394
v -7.6650 1.8000 -11.1394
v -7.7000 1.4500 -11.1300
v -7.7000 1.8000 -11.1300
v -7.7350 1.4500 -11.1394
v -7.7350 1.8000 -11.1394
v -7.7606 1.4500 -11.1650
v -7.7606 1.8000 -11.1650
v -7.7700 1.4500 -11.2000
v -7.7700 1.8000 -11.2000
v -7.7606 1.4500 -11.2350
v -7.7606 1.8000 -11.2350
v -7.7350 1.4500 -11.2606
v -7.7350 1.8000 -11.2606
v -7.7000 1.4500 -11.2700
v -7.7000 1.8000 -11.2700
v -7.6650 1.4500 -11.2606
v -7.6650 1.8000 -11.2606
v -7.6394 1.4500 -11.2350
v -7.6394 1.8000 -11.2350
v -7.7000 1.8000 -11.2000
v -7.7000 1.4500 -11.2000
v -7.6300 2.0500 -11.2000
v -7.6300 2.3500 -11.2000
v -7.6394 2.0500 -11.1650
v -7.6394 2.3500 -11.1650
v -7.6650 2.0500 -11.1394
v -7.6650 2.3500 -11.1394
v -7.7000 2.0500 -11.1300
v -7.7000 2.3500 -11.1300
v -7.7350 2.0500 -11.1394
v -7.7350 2.3500 -11.1394
v -7.7606 2.0500 -11.1650
v -7.7606 2.3500 -11.1650
v -7.7700 2.0500 -11.2000
v -7.7700 2.3500 -11.2000
v -7.7606 2.0500 -11.2350
v -7.7606 2.3500 -11.2350
v -7.7350 2.0500 -11.2606
v -7.7350 2.3500 -11.2606
v -7.7000 2.0500 -11.2700
v -7.7000 2.3500 -11.2700
v -7.6650 2.0500 -11.2606
v -7.6650 2.3500 -11.2606
v -7.6394 2.0500 -11.2350
v -7.6394 2.3500 -11.2350
v -7.7000 2.3500 -11.2000
v -7.7000 2.0500 -11.2000
v -7.6300 1.4500 -10.4000
v -7.6300 1.8000 -10.4000
v -7.6394 1.4500 -10.3650
v -7.6394 1.8000 -10.3650
v -7.6650 1.4500 -10.3394
v -7.6650 1.8000 -10.3394
v -7.7000 1.4500 -10.3300
v -7.7000 1.8000 -10.3300
v -7.7350 1.4500 -10.3394
v -7.7350 1.8000 -10.3394
v -7.7606 1.4500 -10.3650
v -7.7606 1.8000 -10.3650
v -7.7700 1.4500 -10.4000
v -7.7700 1.8000 -10.4000
v -7.7606 1.4500 -10.4350
v -7.7606 1.8000 -10.4350
v -7.7350 1.4500 -10.4606
v -7.7350 1.8000 -10.4606
v -7.7000 1.4500 -10.4700
v -7.7000 1.8000 -10.4700
v -7.6650 1.4500 -10.4606
v -7.6650 1.8000 -10.4606
v -7.6394 1.4500 -10.4350
v -7.6394 1.8000 -10.4350
v -7.7000 1.8000 -10.4000
v -7.7000 1.4500 -10.4000
v -7.6300 2.0500 -10.4000
v -7.6300 2.3500 -10.4000
v -7.6394 2.0500 -10.3650
v -7.6394 2.3500 -10.3650
v -7.6650 2.0500 -10.3394
v -7.6650 2.3500 -10.3394
v -7.7000 2.0500 -10.3300
v -7.7000 2.3500 -10.3300
v -7.7350 2.0500 -10.3394
v -7.7350 2.3500 -10.3394
v -7.7606 2.0500 -10.3650
v -7.7606 2.3500 -10.3650
v -7.7700 2.0500 -10.4000
v -7.7700 2.3500 -10.4000
v -7.7606 2.0500 -10.4350
v -7.7606 2.3500 -10.4350
v -7.7350 2.0500 -10.4606
v -7.7350 2.3500 -10.4606
v -7.7000 2.0500 -10.4700
v -7.7000 2.3500 -10.4700
v -7.6650 2.0500 -10.4606
v -7.6650 2.3500 -10.4606
v -7.6394 2.0500 -10.4350
v -7.6394 2.3500 -10.4350
v -7.7000 2.3500 -10.4000
v -7.7000 2.0500 -10.4000
v -7.6300 1.4500 -9.6000
v -7.6300 1.8000 -9.6000
v -7.6394 1.4500 -9.5650
v -7.6394 1.8000 -9.5650
v -7.6650 1.4500 -9.5394
v -7.6650 1.8000 -9.5394
v -7.7000 1.4500 -9.5300
v -7.7000 1.8000 -9.5300
v -7.7350 1.4500 -9.5394
v -7.7350 1.8000 -9.5394
v -7.7606 1.4500 -9.5650
v -7.7606 1.8000 -9.5650
v -7.7700 1.4500 -9.6000
v -7.7700 1.8000 -9.6000
v -7.7606 1.4500 -9.6350
v -7.7606 1.8000 -9.6350
v -7.7350 1.4500 -9.6606
v -7.7350 1.8000 -9.6606
v -7.7000 1.4500 -9.6700
v -7.7000 1.8000 -9.6700
v -7.6650 1.4500 -9.6606
v -7.6650 1.8000 -9.6606
v -7.6394 1.4500 -9.6350
v -7.6394 1.8000 -9.6350
v -7.7000 1.8000 -9.6000
v -7.7000 1.4500 -9.6000
v -7.6300 2.0500 -9.6000
v -7.6300 2.3500 -9.6000
v -7.6394 2.0500 -9.5650
v -7.6394 2.3500 -9.5650
v -7.6650 2.0500 -9.5394
v -7.6650 2.3500 -9.5394
v -7.7000 2.0500 -9.5300
v -7.7000 2.3500 -9.5300
v -7.7350 2.0500 -9.5394
v -7.7350 2.3500 -9.5394
v -7.7606 2.0500 -9.5650
v -7.7606 2.3500 -9.5650
v -7.7700 2.0500 -9.6000
v -7.7700 2.3500 -9.6000
v -7.7606 2.0500 -9.6350
v -7.7606 2.3500 -9.6350
v -7.7350 2.0500 -9.6606
v -7.7350 2.3500 -9.6606
v -7.7000 2.0500 -9.6700
v -7.7000 2.3500 -9.6700
v -7.6650 2.0500 -9.6606
v -7.6650 2.3500 -9.6606
v -7.6394 2.0500 -9.6350
v -7.6394 2.3500 -9.6350
v -7.7000 2.3500 -9.6000
v -7.7000 2.0500 -9.6000
v -7.6300 1.4500 -8.8000
v -7.6300 1.8000 -8.8000
v -7.6394 1.4500 -8.7650
v -7.6394 1.8000 -8.7650
v -7.6650 1.4500 -8.7394
v -7.6650 1.8000 -8.7394
v -7.7000 1.4500 -8.7300
v -7.7000 1.8000 -8.7300
v -7.7350 1.4500 -8.7394
v -7.7350 1.8000 -8.7394
v -7.7606 1.4500 -8.7650
v -7.7606 1.8000 -8.7650
v -7.7700 1.4500 -8.8000
v -7.7700 1.8000 -8.8000
v -7.7606 1.4500 -8.8350
v -7.7606 1.8000 -8.8350
v -7.7350 1.4500 -8.8606
v -7.7350 1.8000 -8.8606
v -7.7000 1.4500 -8.8700
v -7.7000 1.8000 -8.8700
v -7.6650 1.4500 -8.8606
v -7.6650 1.8000 -8.8606
v -7.6394 1.4500 -8.8350
v -7.6394 1.8000 -8.8350
v -7.7000 1.8000 -8.8000
v -7.7000 1.4500 -8.8000
v -7.6300 2.0500 -8.8000
v -7.6300 2.3500 -8.8000
v -7.6394 2.0500 -8.7650
v -7.6394 2.3500 -8.7650
v -7.6650 2.0500 -8.7394
v -7.6650 2.3500 -8.7394
v -7.7000 2.0500 -8.7300
v -7.7000 2.3500 -8.7300
v -7.7350 2.0500 -8.7394
v -7.7350 2.3500 -8.7394
v -7.7606 2.0500 -8.7650
v -7.7606 2.3500 -8.7650
v -7.7700 2.0500 -8.8000
v -7.7700 2.3500 -8.8000
v -7.7606 2.0500 -8.8350
v -7.7606 2.3500 -8.8350
v -7.7350 2.0500 -8.8606
v -7.7350 2.3500 -8.8606
v -7.7000 2.0500 -8.8700
v -7.7000 2.3500 -8.8700
v -7.6650 2.0500 -8.8606
v -7.6650 2.3500 -8.8606
v -7.6394 2.0500 -8.8350
v -7.6394 2.3500 -8.8350
v -7.7000 2.3500 -8.8000
v -7.7000 2.0500 -8.8000
v -7.6300 1.4500 -8.0000
v -7.6300 1.8000 -8.0000
v -7.6394 1.4500 -7.9650
v -7.6394 1.8000 -7.9650
v -7.6650 1.4500 -7.9394
v -7.6650 1.8000 -7.9394
v -7.7000 1.4500 -7.9300
v -7.7000 1.8000 -7.9300
v -7.7350 1.4500 -7.9394
v -7.7350 1.8000 -7.9394
v -7.7606 1.4500 -7.9650
v -7.7606 1.8000 -7.9650
v -7.7700 1.4500 -8.0000
v -7.7700 1.8000 -8.0000
v -7.7606 1.4500 -8.0350
v -7.7606 1.8000 -8.0350
v -7.7350 1.4500 -8.0606
v -7.7350 1.8000 -8.0606
v -7.7000 1.4500 -8.0700
v -7.7000 1.8000 -8.0700
v -7.6650 1.4500 -8.0606
v -7.6650 1.8000 -8.0606
v -7.6394 1.4500 -8.0350
v -7.6394 1.8000 -8.0350
v -7.7000 1.8000 -8.0000
v -7.7000 1.4500 -8.0000
v -7.6300 2.0500 -8.0000
v -7.6300 2.3500 -8.0000
v -7.6394 2.0500 -7.9650
v -7.6394 2.3500 -7.9650
v -7.6650 2.0500 -7.9394
v -7.6650 2.3500 -7.9394
v -7.7000 2.0500 -7.9300
v -7.7000 2.3500 -7.9300
v -7.7350 2.0500 -7.9394
v -7.7350 2.3500 -7.9394
v -7.7606 2.0500 -7.9650
v -7.7606 2.3500 -7.9650
v -7.7700 2.0500 -8.0000
v -7.7700 2.3500 -8.0000
v -7.7606 2.0500 -8.0350
v -7.7606 2.3500 -8.0350
v -7.7350 2.0500 -8.0606
v -7.7350 2.3500 -8.0606
v -7.7000 2.0500 -8.0700
v -7.7000 2.3500 -8.0700
v -7.6650 2.0500 -8.0606
v -7.6650 2.3500 -8.0606
v -7.6394 2.0500 -8.0350
v -7.6394 2.3500 -8.0350
v -7.7000 2.3500 -8.0000
v -7.7000 2.0500 -8.0000
v -7.6300 1.4500 -7.2000
v -7.6300 1.8000 -7.2000
v -7.6394 1.4500 -7.1650
v -7.6394 1.8000 -7.1650
v -7.6650 1.4500 -7.1394
v -7.6650 1.8000 -7.1394
v -7.7000 1.4500 -7.1300
v -7.7000 1.8000 -7.1300
v -7.7350 1.4500 -7.1394
v -7.7350 1.8000 -7.1394
v -7.7606 1.4500 -7.1650
v -7.7606 1.8000 -7.1650
v -7.7700 1.4500 -7.2000
v -7.7700 1.8000 -7.2000
v -7.7606 1.4500 -7.2350
v -7.7606 1.8000 -7.2350
v -7.7350 1.4500 -7.2606
v -7.7350 1.8000 -7.2606
v -7.7000 1.4500 -7.2700
v -7.7000 1.8000 -7.2700
v -7.6650 1.4500 -7.2606
v -7.6650 1.8000 -7.2606
v -7.6394 1.4500 -7.2350
v -7.6394 1.8000 -7.2350
v -7.7000 1.8000 -7.2000
v -7.7000 1.4500 -7.2000
v -7.6300 2.0500 -7.2000
v -7.6300 2.3500 -7.2000
v -7.6394 2.0500 -7.1650
v -7.6394 2.3500 -7.1650
v -7.6650 2.0500 -7.1394
v -7.6650 2.3500 -7.1394
v -7.7000 2.0500 -7.1300
v -7.7000 2.3500 -7.1300
v -7.7350 2.0500 -7.1394
v -7.7350 2.3500 -7.1394
v -7.7606 2.0500 -7.1650
v -7.7606 2.3500 -7.1650
v -7.7700 2.0500 -7.2000
v -7.7700 2.3500 -7.2000
v -7.7606 2.0500 -7.2350
v -7.7606 2.3500 -7.2350
v -7.7350 2.0500 -7.2606
v -7.7350 2.3500 -7.2606
v -7.7000 2.0500 -7.2700
v -7.7000 2.3500 -7.2700
v -7.6650 2.0500 -7.2606
v -7.6650 2.3500 -7.2606
v -7.6394 2.0500 -7.2350
v -7.6394 2.3500 -7.2350
v -7.7000 2.3500 -7.2000
v -7.7000 2.0500 -7.2000
v -7.6300 1.4500 -6.4000
v -7.6300 1.8000 -6.4000
v -7.6394 1.4500 -6.3650
v -7.6394 1.8000 -6.3650
v -7.6650 1.4500 -6.3394
v -7.6650 1.8000 -6.3394
v -7.7000 1.4500 -6.3300
v -7.7000 1.8000 -6.3300
v -7.7350 1.4500 -6.3394
v -7.7350 1.8000 -6.3394
v -7.7606 1.4500 -6.3650
v -7.7606 1.8000 -6.3650
v -7.7700 1.4500 -6.4000
v -7.7700 1.8000 -6.4000
v -7.7606 1.4500 -6.4350
v -7.7606 1.8000 -6.4350
v -7.7350 1.4500 -6.4606
v -7.7350 1.8000 -6.4606
v -7.7000 1.4500 -6.4700
v -7.7000 1.8000 -6.4700
v -7.6650 1.4500 -6.4606
v -7.6650 1.8000 -6.4606
v -7.6394 1.4500 -6.4350
v -7.6394 1.8000 -6.4350
v -7.7000 1.8000 -6.4000
v -7.7000 1.4500 -6.4000
v -7.6300 2.0500 -6.4000
v -7.6300 2.3500 -6.4000
v -7.6394 2.0500 -6.3650
v -7.6394 2.3500 -6.3650
v -7.6650 2.0500 -6.3394
v -7.6650 2.3500 -6.3394
v -7.7000 2.0500 -6.3300
v -7.7000 2.3500 -6.3300
v -7.7350 2.0500 -6.3394
v -7.7350 2.3500 -6.3394
v -7.7606 2.0500 -6.3650
v -7.7606 2.3500 -6.3650
v -7.7700 2.0500 -6.4000
v -7.7700 2.3500 -6.4000
v -7.7606 2.0500 -6.4350
v -7.7606 2.3500 -6.4350
v -7.7350 2.0500 -6.4606
v -7.7350 2.3500 -6.4606
v -7.7000 2.0500 -6.4700
v -7.7000 2.3500 -6.4700
v -7.6650 2.0500 -6.4606
v -7.6650 2.3500 -6.4606
v -7.6394 2.0500 -6.4350
v -7.6394 2.3500 -6.4350
v -7.7000 2.3500 -6.4000
v -7.7000 2.0500 -6.4000
v -7.6300 1.4500 -5.6000
v -7.6300 1.8000 -5.6000
v -7.6394 1.4500 -5.5650
v -7.6394 1.8000 -5.5650
v -7.6650 1.4500 -5.5394
v -7.6650 1.8000 -5.5394
v -7.7000 1.4500 -5.5300
v -7.7000 1.8000 -5.5300
v -7.7350 1.4500 -5.5394
v -7.7350 1.8000 -5.5394
v -7.7606 1.4500 -5.5650
v -7.7606 1.8000 -5.5650
v -7.7700 1.4500 -5.6000
v -7.7700 1.8000 -5.6000
v -7.7606 1.4500 -5.6350
v -7.7606 1.8000 -5.6350
v -7.7350 1.4500 -5.6606
v -7.7350 1.8000 -5.6606
v -7.7000 1.4500 -5.6700
v -7.7000 1.8000 -5.6700
v -7.6650 1.4500 -5.6606
v -7.6650 1.8000 -5.6606
v -7.6394 1.4500 -5.6350
v -7.6394 1.8000 -5.6350
v -7.7000 1.8000 -5.6000
v -7.7000 1.4500 -5.6000
v -7.6300 2.0500 -5.6000
v -7.6300 2.3500 -5.6000
v -7.6394 2.0500 -5.5650
v -7.6394 2.3500 -5.5650
v -7.6650 2.0500 -5.5394
v -7.6650 2.3500 -5.5394
v -7.7000 2.0500 -5.5300
v -7.7000 2.3500 -5.5300
v -7.7350 2.0500 -5.5394
v -7.7350 2.3500 -5.5394
v -7.7606 2.0500 -5.5650
v -7.7606 2.3500 -5.5650
v -7.7700 2.0500 -5.6000
v -7.7700 2.3500 -5.6000
v -7.7606 2.0500 -5.6350
v -7.7606 2.3500 -5.6350
v -7.7350 2.0500 -5.6606
v -7.7350 2.3500 -5.6606
v -7.7000 2.0500 -5.6700
v -7.7000 2.3500 -5.6700
v -7.6650 2.0500 -5.6606
v -7.6650 2.3500 -5.6606
v -7.6394 2.0500 -5.6350
v -7.6394 2.3500 -5.6350
v -7.7000 2.3500 -5.6000
v -7.7000 2.0500 -5.6000
v -7.6300 1.4500 -4.8000
v -7.6300 1.8000 -4.8000
v -7.6394 1.4500 -4.7650
v -7.6394 1.8000 -4.7650
v -7.6650 1.4500 -4.7394
v -7.6650 1.8000 -4.7394
v -7.7000 1.4500 -4.7300
v -7.7000 1.8000 -4.7300
v -7.7350 1.4500 -4.7394
v -7.7350 1.8000 -4.7394
v -7.7606 1.4500 -4.7650
v -7.7606 1.8000 -4.7650
v -7.7700 1.4500 -4.8000
v -7.7700 1.8000 -4.8000
v -7.7606 1.4500 -4.8350
v -7.7606 1.8000 -4.8350
v -7.7350 1.4500 -4.8606
v -7.7350 1.8000 -4.8606
v -7.7000 1.4500 -4.8700
v -7.7000 1.8000 -4.8700
v -7.6650 1.4500 -4.8606
v -7.6650 1.8000 -4.8606
v -7.6394 1.4500 -4.8350
v -7.6394 1.8000 -4.8350
v -7.7000 1.8000 -4.8000
v -7.7000 1.4500 -4.8000
v -7.6300 2.0500 -4.8000
v -7.6300 2.3500 -4.8000
v -7.6394 2.0500 -4.7650
v -7.6394 2.3500 -4.7650
v -7.6650 2.0500 -4.7394
v -7.6650 2.3500 -4.7394
v -7.7000 2.0500 -4.7300
v -7.7000 2.3500 -4.7300
v -7.7350 2.0500 -4.7394
v -7.7350 2.3500 -4.7394
v -7.7606 2.0500 -4.7650
v -7.7606 2.3500 -4.7650
v -7.7700 2.0500 -4.8000
v -7.7700 2.3500 -4.8000
v -7.7606 2.0500 -4.8350
v -7.7606 2.3500 -4.8350
v -7.7350 2.0500 -4.8606
v -7.7350 2.3500 -4.8606
v -7.7000 2.0500 -4.8700
v -7.7000 2.3500 -4.8700
v -7.6650 2.0500 -4.8606
v -7.6650 2.3500 -4.8606
v -7.6394 2.0500 -4.8350
v -7.6394 2.3500 -4.8350
v -7.7000 2.3500 -4.8000
v -7.7000 2.0500 -4.8000
v -7.6300 1.4500 -4.0000
v -7.6300 1.8000 -4.0000
v -7.6394 1.4500 -3.9650
v -7.6394 1.8000 -3.9650
v -7.6650 1.4500 -3.9394
v -7.6650 1.8000 -3.9394
v -7.7000 1.4500 -3.9300
v -7.7000 1.8000 -3.9300
v -7.7350 1.4500 -3.9394
v -7.7350 1.8000 -3.9394
v -7.7606 1.4500 -3.9650
v -7.7606 1.8000 -3.9650
v -7.7700 1.4500 -4.0000
v -7.7700 1.8000 -4.0000
v -7.7606 1.4500 -4.0350
v -7.7606 1.8000 -4.0350
v -7.7350 1.4500 -4.0606
v -7.7350 1.8000 -4.0606
v -7.7000 1.4500 -4.0700
v -7.7000 1.8000 -4.0700
v -7.6650 1.4500 -4.0606
v -7.6650 1.8000 -4.0606
v -7.6394 1.4500 -4.0350
v -7.6394 1.8000 -4.0350
v -7.7000 1.8000 -4.0000
v -7.7000 1.4500 -4.0000
v -7.6300 2.0500 -4.0000
v -7.6300 2.3500 -4.0000
v -7.6394 2.0500 -3.9650
v -7.6394 2.3500 -3.9650
v -7.6650 2.0500 -3.9394
v -7.6650 2.3500 -3.9394
v -7.7000 2.0500 -3.9300
v -7.7000 2.3500 -3.9300
v -7.7350 2.0500 -3.9394
v -7.7350 2.3500 -3.9394
v -7.7606 2.0500 -3.9650
v -7.7606 2.3500 -3.9650
v -7.7700 2.0500 -4.0000
v -7.7700 2.3500 -4.0000
v -7.7606 2.0500 -4.0350
v -7.7606 2.3500 -4.0350
v -7.7350 2.0500 -4.0606
v -7.7350 2.3500 -4.0606
v -7.7000 2.0500 -4.0700
v -7.7000 2.3500 -4.0700
v -7.6650 2.0500 -4.0606
v -7.6650 2.3500 -4.0606
v -7.6394 2.0500 -4.0350
v -7.6394 2.3500 -4.0350
v -7.7000 2.3500 -4.0000
v -7.7000 2.0500 -4.0000
v -7.6300 1.4500 -3.2000
v -7.6300 1.8000 -3.2000
v -7.6394 1.4500 -3.1650
v -7.6394 1.8000 -3.1650
v -7.6650 1.4500 -3.1394
v -7.6650 1.8000 -3.1394
v -7.7000 1.4500 -3.1300
v -7.7000 1.8000 -3.1300
v -7.7350 1.4500 -3.1394
v -7.7350 1.8000 -3.1394
v -7.7606 1.4500 -3.1650
v -7.7606 1.8000 -3.1650
v -7.7700 1.4500 -3.2000
v -7.7700 1.8000 -3.2000
v -7.7606 1.4500 -3.2350
v -7.7606 1.8000 -3.2350
v -7.7350 1.4500 -3.2606
v -7.7350 1.8000 -3.2606
v -7.7000 1.4500 -3.2700
v -7.7000 1.8000 -3.2700
v -7.6650 1.4500 -3.2606
v -7.6650 1.8000 -3.2606
v -7.6394 1.4500 -3.2350
v -7.6394 1.8000 -3.2350
v -7.7000 1.8000 -3.2000
v -7.7000 1.4500 -3.2000
v -7.6300 2.0500 -3.2000
v -7.6300 2.3500 -3.2000
v -7.6394 2.0500 -3.1650
v -7.6394 2.3500 -3.1650
v -7.6650 2.0500 -3.1394
v -7.6650 2.3500 -3.1394
v -7.7000 2.0500 -3.1300
v -7.7000 2.3500 -3.1300
v -7.7350 2.0500 -3.1394
v -7.7350 2.3500 -3.1394
v -7.7606 2.0500 -3.1650
v -7.7606 2.3500 -3.1650
v -7.7700 2.0500 -3.2000
v -7.7700 2.3500 -3.2000
v -7.7606 2.0500 -3.2350
v -7.7606 2.3500 -3.2350
v -7.7350 2.0500 -3.2606
v -7.7350 2.3500 -3.2606
v -7.7000 2.0500 -3.2700
v -7.7000 2.3500 -3.2700
v -7.6650 2.0500 -3.2606
v -7.6650 2.3500 -3.2606
v -7.6394 2.0500 -3.2350
v -7.6394 2.3500 -3.2350
v -7.7000 2.3500 -3.2000
v -7.7000 2.0500 -3.2000
v -4.4400 0.0000 -11.5000
v -4.4400 0.7000 -11.5000
v -4.4614 0.0000 -11.4200
v -4.4614 0.7000 -11.4200
v -4.5200 0.0000 -11.3614
v -4.5200 0.7000 -11.3614
v -4.6000 0.0000 -11.3400
v -4.6000 0.7000 -11.3400
v -4.6800 0.0000 -11.3614
v -4.6800 0.7000 -11.3614
v -4.7386 0.0000 -11.4200
v -4.7386 0.7000 -11.4200
v -4.7600 0.0000 -11.5000
v -4.7600 0.7000 -11.5000
v -4.7386 0.0000 -11.5800
v -4.7386 0.7000 -11.5800
v -4.6800 0.0000 -11.6386
v -4.6800 0.7000 -11.6386
v -4.6000 0.0000 -11.6600
v -4.6000 0.7000 -11.6600
v -4.5200 0.0000 -11.6386
v -4.5200 0.7000 -11.6386
v -4.4614 0.0000 -11.5800
v -4.4614 0.7000 -11.5800
v -4.6000 0.7000 -11.5000
v -4.6000 0.0000 -11.5000
v -4.3200 0.7000 -11.5000
v -4.3200 0.7800 -11.5000
v -4.3575 0.7000 -11.3600
v -4.3575 0.7800 -11.3600
v -4.4600 0.7000 -11.2575
v -4.4600 0.7800 -11.2575
v -4.6000 0.7000 -11.2200
v -4.6000 0.7800 -11.2200
v -4.7400 0.7000 -11.2575
v -4.7400 0.7800 -11.2575
v -4.8425 0.7000 -11.3600
v -4.8425 0.7800 -11.3600
v -4.8800 0.7000 -11.5000
v -4.8800 0.7800 -11.5000
v -4.8425 0.7000 -11.6400
v -4.8425 0.7800 -11.6400
v -4.7400 0.7000 -11.7425
v -4.7400 0.7800 -11.7425
v -4.6000 0.7000 -11.7800
v -4.6000 0.7800 -11.7800
v -4.4600 0.7000 -11.7425
v -4.4600 0.7800 -11.7425
v -4.3575 0.7000 -11.6400
v -4.3575 0.7800 -11.6400
v -4.6000 0.7800 -11.5000
v -4.6000 0.7000 -11.5000
v -4.4400 0.0000 -9.5000
v -4.4400 0.7000 -9.5000
v -4.4614 0.0000 -9.4200
v -4.4614 0.7000 -9.4200
v -4.5200 0.0000 -9.3614
v -4.5200 0.7000 -9.3614
v -4.6000 0.0000 -9.3400
v -4.6000 0.7000 -9.3400
v -4.6800 0.0000 -9.3614
v -4.6800 0.7000 -9.3614
v -4.7386 0.0000 -9.4200
v -4.7386 0.7000 -9.4200
v -4.7600 0.0000 -9.5000
v -4.7600 0.7000 -9.5000
v -4.7386 0.0000 -9.5800
v -4.7386 0.7000 -9.5800
v -4.6800 0.0000 -9.6386
v -4.6800 0.7000 -9.6386
v -4.6000 0.0000 -9.6600
v -4.6000 0.7000 -9.6600
v -4.5200 0.0000 -9.6386
v -4.5200 0.7000 -9.6386
v -4.4614 0.0000 -9.5800
v -4.4614 0.7000 -9.5800
v -4.6000 0.7000 -9.5000
v -4.6000 0.0000 -9.5000
v -4.3200 0.7000 -9.5000
v -4.3200 0.7800 -9.5000
v -4.3575 0.7000 -9.3600
v -4.3575 0.7800 -9.3600
v -4.4600 0.7000 -9.2575
v -4.4600 0.7800 -9.2575
v -4.6000 0.7000 -9.2200
v -4.6000 0.7800 -9.2200
v -4.7400 0.7000 -9.2575
v -4.7400 0.7800 -9.2575
v -4.8425 0.7000 -9.3600
v -4.8425 0.7800 -9.3600
v -4.8800 0.7000 -9.5000
v -4.8800 0.7800 -9.5000
v -4.8425 0.7000 -9.6400
v -4.8425 0.7800 -9.6400
v -4.7400 0.7000 -9.7425
v -4.7400 0.7800 -9.7425
v -4.6000 0.7000 -9.7800
v -4.6000 0.7800 -9.7800
v -4.4600 0.7000 -9.7425
v -4.4600 0.7800 -9.7425
v -4.3575 0.7000 -9.6400
v -4.3575 0.7800 -9.6400
v -4.6000 0.7800 -9.5000
v -4.6000 0.7000 -9.5000
v -4.4400 0.0000 -7.5000
v -4.4400 0.7000 -7.5000
v -4.4614 0.0000 -7.4200
v -4.4614 0.7000 -7.4200
v -4.5200 0.0000 -7.3614
v -4.5200 0.7000 -7.3614
v -4.6000 0.0000 -7.3400
v -4.6000 0.7000 -7.3400
v -4.6800 0.0000 -7.3614
v -4.6800 0.7000 -7.3614
v -4.7386 0.0000 -7.4200
v -4.7386 0.7000 -7.4200
v -4.7600 0.0000 -7.5000
v -4.7600 0.7000 -7.5000
v -4.7386 0.0000 -7.5800
v -4.7386 0.7000 -7.5800
v -4.6800 0.0000 -7.6386
v -4.6800 0.7000 -7.6386
v -4.6000 0.0000 -7.6600
v -4.6000 0.7000 -7.6600
v -4.5200 0.0000 -7.6386
v -4.5200 0.7000 -7.6386
v -4.4614 0.0000 -7.5800
v -4.4614 0.7000 -7.5800
v -4.6000 0.7000 -7.5000
v -4.6000 0.0000 -7.5000
v -4.3200 0.7000 -7.5000
v -4.3200 0.7800 -7.5000
v -4.3575 0.7000 -7.3600
v -4.3575 0.7800 -7.3600
v -4.4600 0.7000 -7.2575
v -4.4600 0.7800 -7.2575
v -4.6000 0.7000 -7.2200
v -4.6000 0.7800 -7.2200
v -4.7400 0.7000 -7.2575
v -4.7400 0.7800 -7.2575
v -4.8425 0.7000 -7.3600
v -4.8425 0.7800 -7.3600
v -4.8800 0.7000 -7.5000
v -4.8800 0.7800 -7.5000
v -4.8425 0.7000 -7.6400
v -4.8425 0.7800 -7.6400
v -4.7400 0.7000 -7.7425
v -4.7400 0.7800 -7.7425
v -4.6000 0.7000 -7.7800
v -4.6000 0.7800 -7.7800
v -4.4600 0.7000 -7.7425
v -4.4600 0.7800 -7.7425
v -4.3575 0.7000 -7.6400
v -4.3575 0.7800 -7.6400
v -4.6000 0.7800 -7.5000
v -4.6000 0.7000 -7.5000
v -4.4400 0.0000 -5.5000
v -4.4400 0.7000 -5.5000
v -4.4614 0.0000 -5.4200
v -4.4614 0.7000 -5.4200
v -4.5200 0.0000 -5.3614
v -4.5200 0.7000 -5.3614
v -4.6000 0.0000 -5.3400
v -4.6000 0.7000 -5.3400
v -4.6800 0.0000 -5.3614
v -4.6800 0.7000 -5.3614
v -4.7386 0.0000 -5.4200
v -4.7386 0.7000 -5.4200
v -4.7600 0.0000 -5.5000
v -4.7600 0.7000 -5.5000
v -4.7386 0.0000 -5.5800
v -4.7386 0.7000 -5.5800
v -4.6800 0.0000 -5.6386
v -4.6800 0.7000 -5.6386
v -4.6000 0.0000 -5.6600
v -4.6000 0.7000 -5.6600
v -4.5200 0.0000 -5.6386
v -4.5200 0.7000 -5.6386
v -4.4614 0.0000 -5.5800
v -4.4614 0.7000 -5.5800
v -4.6000 0.7000 -5.5000
v -4.6000 0.0000 -5.5000
v -4.3200 0.7000 -5.5000
v -4.3200 0.7800 -5.5000
v -4.3575 0.7000 -5.3600
v -4.3575 0.7800 -5.3600
v -4.4600 0.7000 -5.2575
v -4.4600 0.7800 -5.2575
v -4.6000 0.7000 -5.2200
v -4.6000 0.7800 -5.2200
v -4.7400 0.7000 -5.2575
v -4.7400 0.7800 -5.2575
v -4.8425 0.7000 -5.3600
v -4.8425 0.7800 -5.3600
v -4.8800 0.7000 -5.5000
v -4.8800 0.7800 -5.5000
v -4.8425 0.7000 -5.6400
v -4.8425 0.7800 -5.6400
v -4.7400 0.7000 -5.7425
v -4.7400 0.7800 -5.7425
v -4.6000 0.7000 -5.7800
v -4.6000 0.7800 -5.7800
v -4.4600 0.7000 -5.7425
v -4.4600 0.7800 -5.7425
v -4.3575 0.7000 -5.6400
v -4.3575 0.7800 -5.6400
v -4.6000 0.7800 -5.5000
v -4.6000 0.7000 -5.5000
v -4.4400 0.0000 -3.5000
v -4.4400 0.7000 -3.5000
v -4.4614 0.0000 -3.4200
v -4.4614 0.7000 -3.4200
v -4.5200 0.0000 -3.3614
v -4.5200 0.7000 -3.3614
v -4.6000 0.0000 -3.3400
v -4.6000 0.7000 -3.3400
v -4.6800 0.0000 -3.3614
v -4.6800 0.7000 -3.3614
v -4.7386 0.0000 -3.4200
v -4.7386 0.7000 -3.4200
v -4.7600 0.0000 -3.5000
v -4.7600 0.7000 -3.5000
v -4.7386 0.0000 -3.5800
v -4.7386 0.7000 -3.5800
v -4.6800 0.0000 -3.6386
v -4.6800 0.7000 -3.6386
v -4.6000 0.0000 -3.6600
v -4.6000 0.7000 -3.6600
v -4.5200 0.0000 -3.6386
v -4.5200 0.7000 -3.6386
v -4.4614 0.0000 -3.5800
v -4.4614 0.7000 -3.5800
v -4.6000 0.7000 -3.5000
v -4.6000 0.0000 -3.5000
v -4.3200 0.7000 -3.5000
v -4.3200 0.7800 -3.5000
v -4.3575 0.7000 -3.3600
v -4.3575 0.7800 -3.3600
v -4.4600 0.7000 -3.2575
v -4.4600 0.7800 -3.2575
v -4.6000 0.7000 -3.2200
v -4.6000 0.7800 -3.2200
v -4.7400 0.7000 -3.2575
v -4.7400 0.7800 -3.2575
v -4.8425 0.7000 -3.3600
v -4.8425 0.7800 -3.3600
v -4.8800 0.7000 -3.5000
v -4.8800 0.7800 -3.5000
v -4.8425 0.7000 -3.6400
v -4.8425 0.7800 -3.6400
v -4.7400 0.7000 -3.7425
v -4.7400 0.7800 -3.7425
v -4.6000 0.7000 -3.7800
v -4.6000 0.7800 -3.7800
v -4.4600 0.7000 -3.7425
v -4.4600 0.7800 -3.7425
v -4.3575 0.7000 -3.6400
v -4.3575 0.7800 -3.6400
v -4.6000 0.7800 -3.5000
v -4.6000 0.7000 -3.5000
v 3.1200 0.0000 -4.0000
v 3.1200 0.9500 -4.0000
v 3.1039 0.0000 -3.9400
v 3.1039 0.9500 -3.9400
v 3.0600 0.0000 -3.8961
v 3.0600 0.9500 -3.8961
v 3.0000 0.0000 -3.8800
v 3.0000 0.9500 -3.8800
v 2.9400 0.0000 -3.8961
v 2.9400 0.9500 -3.8961
v 2.8961 0.0000 -3.9400
v 2.8961 0.9500 -3.9400
v 2.8800 0.0000 -4.0000
v 2.8800 0.9500 -4.0000
v 2.8961 0.0000 -4.0600
v 2.8961 0.9500 -4.0600
v 2.9400 0.0000 -4.1039
v 2.9400 0.9500 -4.1039
v 3.0000 0.0000 -4.1200
v 3.0000 0.9500 -4.1200
v 3.0600 0.0000 -4.1039
v 3.0600 0.9500 -4.1039
v 3.1039 0.0000 -4.0600
v 3.1039 0.9500 -4.0600
v 3.0000 0.9500 -4.0000
v 3.0000 0.0000 -4.0000
v 3.6000 0.9500 -4.0000
v 3.6000 1.0300 -4.0000
v 3.5196 0.9500 -3.7000
v 3.5196 1.0300 -3.7000
v 3.3000 0.9500 -3.4804
v 3.3000 1.0300 -3.4804
v 3.0000 0.9500 -3.4000
v 3.0000 1.0300 -3.4000
v 2.7000 0.9500 -3.4804
v 2.7000 1.0300 -3.4804
v 2.4804 0.9500 -3.7000
v 2.4804 1.0300 -3.7000
v 2.4000 0.9500 -4.0000
v 2.4000 1.0300 -4.0000
v 2.4804 0.9500 -4.3000
v 2.4804 1.0300 -4.3000
v 2.7000 0.9500 -4.5196
v 2.7000 1.0300 -4.5196
v 3.0000 0.9500 -4.6000
v 3.0000 1.0300 -4.6000
v 3.3000 0.9500 -4.5196
v 3.3000 1.0300 -4.5196
v 3.5196 0.9500 -4.3000
v 3.5196 1.0300 -4.3000
v 3.0000 1.0300 -4.0000
v 3.0000 0.9500 -4.0000
v 5.6200 0.0000 -9.0000
v 5.6200 0.9500 -9.0000
v 5.6039 0.0000 -8.9400
v 5.6039 0.9500 -8.9400
v 5.5600 0.0000 -8.8961
v 5.5600 0.9500 -8.8961
v 5.5000 0.0000 -8.8800
v 5.5000 0.9500 -8.8800
v 5.4400 0.0000 -8.8961
v 5.4400 0.9500 -8.8961
v 5.3961 0.0000 -8.9400
v 5.3961 0.9500 -8.9400
v 5.3800 0.0000 -9.0000
v 5.3800 0.9500 -9.0000
v 5.3961 0.0000 -9.0600
v 5.3961 0.9500 -9.0600
v 5.4400 0.0000 -9.1039
v 5.4400 0.9500 -9.1039
v 5.5000 0.0000 -9.1200
v 5.5000 0.9500 -9.1200
v 5.5600 0.0000 -9.1039
v 5.5600 0.9500 -9.1039
v 5.6039 0.0000 -9.0600
v 5.6039 0.9500 -9.0600
v 5.5000 0.9500 -9.0000
v 5.5000 0.0000 -9.0000
v 6.1000 0.9500 -9.0000
v 6.1000 1.0300 -9.0000
v 6.0196 0.9500 -8.7000
v 6.0196 1.0300 -8.7000
v 5.8000 0.9500 -8.4804
v 5.8000 1.0300 -8.4804
v 5.5000 0.9500 -8.4000
v 5.5000 1.0300 -8.4000
v 5.2000 0.9500 -8.4804
v 5.2000 1.0300 -8.4804
v 4.9804 0.9500 -8.7000
v 4.9804 1.0300 -8.7000
v 4.9000 0.9500 -9.0000
v 4.9000 1.0300 -9.0000
v 4.9804 0.9500 -9.3000
v 4.9804 1.0300 -9.3000
v 5.2000 0.9500 -9.5196
v 5.2000 1.0300 -9.5196
v 5.5000 0.9500 -9.6000
v 5.5000 1.0300 -9.6000
v 5.8000 0.9500 -9.5196
v 5.8000 1.0300 -9.5196
v 6.0196 0.9500 -9.3000
v 6.0196 1.0300 -9.3000
v 5.5000 1.0300 -9.0000
v 5.5000 0.9500 -9.0000
v 2.6200 0.0000 -13.0000
v 2.6200 0.9500 -13.0000
v 2.6039 0.0000 -12.9400
v 2.6039 0.9500 -12.9400
v 2.5600 0.0000 -12.8961
v 2.5600 0.9500 -12.8961
v 2.5000 0.0000 -12.8800
v 2.5000 0.9500 -12.8800
v 2.4400 0.0000 -12.8961
v 2.4400 0.9500 -12.8961
v 2.3961 0.0000 -12.9400
v 2.3961 0.9500 -12.9400
v 2.3800 0.0000 -13.0000
v 2.3800 0.9500 -13.0000
v 2.3961 0.0000 -13.0600
v 2.3961 0.9500 -13.0600
v 2.4400 0.0000 -13.1039
v 2.4400 0.9500 -13.1039
v 2.5000 0.0000 -13.1200
v 2.5000 0.9500 -13.1200
v 2.5600 0.0000 -13.1039
v 2.5600 0.9500 -13.1039
v 2.6039 0.0000 -13.0600
v 2.6039 0.9500 -13.0600
v 2.5000 0.9500 -13.0000
v 2.5000 0.0000 -13.0000
v 3.1000 0.9500 -13.0000
v 3.1000 1.0300 -13.0000
v 3.0196 0.9500 -12.7000
v 3.0196 1.0300 -12.7000
v 2.8000 0.9500 -12.4804
v 2.8000 1.0300 -12.4804
v 2.5000 0.9500 -12.4000
v 2.5000 1.0300 -12.4000
v 2.2000 0.9500 -12.4804
v 2.2000 1.0300 -12.4804
v 1.9804 0.9500 -12.7000
v 1.9804 1.0300 -12.7000
v 1.9000 0.9500 -13.0000
v 1.9000 1.0300 -13.0000
v 1.9804 0.9500 -13.3000
v 1.9804 1.0300 -13.3000
v 2.2000 0.9500 -13.5196
v 2.2000 1.0300 -13.5196
v 2.5000 0.9500 -13.6000
v 2.5000 1.0300 -13.6000
v 2.8000 0.9500 -13.5196
v 2.8000 1.0300 -13.5196
v 3.0196 0.9500 -13.3000
v 3.0196 1.0300 -13.3000
v 2.5000 1.0300 -13.0000
v 2.5000 0.9500 -13.0000
usemtl floor
f 1 4 3 2
f 5 6 7 8
f 1 2 6 5
f 3 4 8 7
f 2 3 7 6
f 4 1 5 8
usemtl ceiling
f 9 12 11 10
f 13 14 15 16
f 9 10 14 13
f 11 12 16 15
f 10 11 15 14
f 12 9 13 16
usemtl wall
f 17 20 19 18
f 21 22 23 24
f 17 18 22 21
f 19 20 24 23
f 18 19 23 22
f 20 17 21 24
f 25 28 27 26
f 29 30 31 32
f 25 26 30 29
f 27 28 32 31
f 26 27 31 30
f 28 25 29 32
f 33 36 35 34
f 37 38 39 40
f 33 34 38 37
f 35 36 40 39
f 34 35 39 38
f 36 33 37 40
f 41 44 43 42
f 45 46 47 48
f 41 42 46 45
f 43 44 48 47
f 42 43 47 46
f 44 41 45 48
f 49 52 51 50
f 53 54 55 56
f 49 50 54 53
f 51 52 56 55
f 50 51 55 54
f 52 49 53 56
f 57 60 59 58
f 61 62 63 64
f 57 58 62 61
f 59 60 64 63
f 58 59 63 62
f 60 57 61 64
usemtl wall_neon
f 65 68 67 66
f 69 70 71 72
f 65 66 70 69
f 67 68 72 71
f 66 67 71 70
f 68 65 69 72
f 73 76 75 74
f 77 78 79 80
f 73 74 78 77
f 75 76 80 79
f 74 75 79 78
f 76 73 77 80
f 81 84 83 82
f 85 86 87 88
f 81 82 86 85
f 83 84 88 87
f 82 83 87 86
f 84 81 85 88
f 89 92 91 90
f 93 94 95 96
f 89 90 94 93
f 91 92 96 95
f 90 91 95 94
f 92 89 93 96
f 97 100 99 98
f 101 102 103 104
f 97 98 102 101
f 99 100 104 103
f 98 99 103 102
f 100 97 101 104
f 105 108 107 106
f 109 110 111 112
f 105 106 110 109
f 107 108 112 111
f 106 107 111 110
f 108 105 109 112
f 113 116 115 114
f 117 118 119 120
f 113 114 118 117
f 115 116 120 119
f 114 115 119 118
f 116 113 117 120
f 121 124 123 122
f 125 126 127 128
f 121 122 126 125
f 123 124 128 127
f 122 123 127 126
f 124 121 125 128
usemtl bar_front
f 129 132 131 130
f 133 134 135 136
f 129 130 134 133
f 131 132 136 135
f 130 131 135 134
f 132 129 133 136
usemtl bar_top
f 137 140 139 138
f 141 142 143 144
f 137 138 142 141
f 139 140 144 143
f 138 139 143 142
f 140 137 141 144
usemtl shelf
f 145 148 147 146
f 149 150 151 152
f 145 146 150 149
f 147 148 152 151
f 146 147 151 150
f 148 145 149 152
f 153 156 155 154
f 157 158 159 160
f 153 154 158 157
f 155 156 160 159
f 154 155 159 158
f 156 153 157 160
usemtl bottle_a
f 161 163 164 162
f 163 165 166 164
f 165 167 168 166
f 167 169 170 168
f 169 171 172 170
f 171 173 174 172
f 173 175 176 174
f 175 177 178 176
f 177 179 180 178
f 179 181 182 180
f 181 183 184 182
f 183 161 162 184
f 185 162 164
f 186 163 161
f 185 164 166
f 186 165 163
f 185 166 168
f 186 167 165
f 185 168 170
f 186 169 167
f 185 170 172
f 186 171 169
f 185 172 174
f 186 173 171
f 185 174 176
f 186 175 173
f 185 176 178
f 186 177 175
f 185 178 180
f 186 179 177
f 185 180 182
f 186 181 179
f 185 182 184
f 186 183 181
f 185 184 162
f 186 161 183
f 187 189 190 188
f 189 191 192 190
f 191 193 194 192
f 193 195 196 194
f 195 197 198 196
f 197 199 200 198
f 199 201 202 200
f 201 203 204 202
f 203 205 206 204
f 205 207 208 206
f 207 209 210 208
f 209 187 188 210
f 211 188 190
f 212 189 187
f 211 190 192
f 212 191 189
f 211 192 194
f 212 193 191
f 211 194 196
f 212 195 193
f 211 196 198
f 212 197 195
f 211 198 200
f 212 199 197
f 211 200 202
f 212 201 199
f 211 202 204
f 212 203 201
f 211 204 206
f 212 205 203
f 211 206 208
f 212 207 205
f 211 208 210
f 212 209 207
f 211 210 188
f 212 187 209
usemtl bottle_b
f 213 215 216 214
f 215 217 218 216
f 217 219 220 218
f 219 221 222 220
f 221 223 224 222
f 223 225 226 224
f 225 227 228 226
f 227 229 230 228
f 229 231 232 230
f 231 233 234 232
f 233 235 236 234
f 235 213 214 236
f 237 214 216
f 238 215 213
f 237 216 218
f 238 217 215
f 237 218 220
f 238 219 217
f 237 220 222
f 238 221 219
f 237 222 224
f 238 223 221
f 237 224 226
f 238 225 223
f 237 226 228
f 238 227 225
f 237 228 230
f 238 229 227
f 237 230 232
f 238 231 229
f 237 232 234
f 238 233 231
f 237 234 236
f 238 235 233
f 237 236 214
f 238 213 235
f 239 241 242 240
f 241 243 244 242
f 243 245 246 244
f 245 247 248 246
f 247 249 250 248
f 249 251 252 250
f 251 253 254 252
f 253 255 256 254
f 255 257 258 256
f 257 259 260 258
f 259 261 262 260
f 261 239 240 262
f 263 240 242
f 264 241 239
f 263 242 244
f 264 243 241
f 263 244 246
f 264 245 243
f 263 246 248
f 264 247 245
f 263 248 250
f 264 249 247
f 263 250 252
f 264 251 249
f 263 252 254
f 264 253 251
f 263 254 256
f 264 255 253
f 263 256 258
f 264 257 255
f 263 258 260
f 264 259 257
f 263 260 262
f 264 261 259
f 263 262 240
f 264 239 261
usemtl bottle_a
f 265 267 268 266
f 267 269 270 268
f 269 271 272 270
f 271 273 274 272
f 273 275 276 274
f 275 277 278 276
f 277 279 280 278
f 279 281 282 280
f 281 283 284 282
f 283 285 286 284
f 285 287 288 286
f 287 265 266 288
f 289 266 268
f 290 267 265
f 289 268 270
f 290 269 267
f 289 270 272
f 290 271 269
f 289 272 274
f 290 273 271
f 289 274 276
f 290 275 273
f 289 276 278
f 290 277 275
f 289 278 280
f 290 279 277
f 289 280 282
f 290 281 279
f 289 282 284
f 290 283 281
f 289 284 286
f 290 285 283
f 289 286 288
f 290 287 285
f 289 288 266
f 290 265 287
f 291 293 294 292
f 293 295 296 294
f 295 297 298 296
f 297 299 300 298
f 299 301 302 300
f 301 303 304 302
f 303 305 306 304
f 305 307 308 306
f 307 309 310 308
f 309 311 312 310
f 311 313 314 312
f 313 291 292 314
f 315 292 294
f 316 293 291
f 315 294 296
f 316 295 293
f 315 296 298
f 316 297 295
f 315 298 300
f 316 299 297
f 315 300 302
f 316 301 299
f 315 302 304
f 316 303 301
f 315 304 306
f 316 305 303
f 315 306 308
f 316 307 305
f 315 308 310
f 316 309 307
f 315 310 312
f 316 311 309
f 315 312 314
f 316 313 311
f 315 314 292
f 316 291 313
usemtl bottle_b
f 317 319 320 318
f 319 321 322 320
f 321 323 324 322
f 323 325 326 324
f 325 327 328 326
f 327 329 330 328
f 329 331 332 330
f 331 333 334 332
f 333 335 336 334
f 335 337 338 336
f 337 339 340 338
f 339 317 318 340
f 341 318 320
f 342 319 317
f 341 320 322
f 342 321 319
f 341 322 324
f 342 323 321
f 341 324 326
f 342 325 323
f 341 326 328
f 342 327 325
f 341 328 330
f 342 329 327
f 341 330 332
f 342 331 329
f 341 332 334
f 342 333 331
f 341 334 336
f 342 335 333
f 341 336 338
f 342 337 335
f 341 338 340
f 342 339 337
f 341 340 318
f 342 317 339
f 343 345 346 344
f 345 347 348 346
f 347 349 350 348
f 349 351 352 350
f 351 353 354 352
f 353 355 356 354
f 355 357 358 356
f 357 359 360 358
f 359 361 362 360
f 361 363 364 362
f 363 365 366 364
f 365 343 344 366
f 367 344 346
f 368 345 343
f 367 346 348
f 368 347 345
f 367 348 350
f 368 349 347
f 367 350 352
f 368 351 349
f 367 352 354
f 368 353 351
f 367 354 356
f 368 355 353
f 367 356 358
f 368 357 355
f 367 358 360
f 368 359 357
f 367 360 362
f 368 361 359
f 367 362 364
f 368 363 361
f 367 364 366
f 368 365 363
f 367 366 344
f 368 343 365
usemtl bottle_a
f 369 371 372 370
f 371 373 374 372
f 373 375 376 374
f 375 377 378 376
f 377 379 380 378
f 379 381 382 380
f 381 383 384 382
f 383 385 386 384
f 385 387 388 386
f 387 389 390 388
f 389 391 392 390
f 391 369 370 392
f 393 370 372
f 394 371 369
f 393 372 374
f 394 373 371
f 393 374 376
f 394 375 373
f 393 376 378
f 394 377 375
f 393 378 380
f 394 379 377
f 393 380 382
f 394 381 379
f 393 382 384
f 394 383 381
f 393 384 386
f 394 385 383
f 393 386 388
f 394 387 385
f 393 388 390
f 394 389 387
f 393 390 392
f 394 391 389
f 393 392 370
f 394 369 391
f 395 397 398 396
f 397 399 400 398
f 399 401 402 400
f 401 403 404 402
f 403 405 406 404
f 405 407 408 406
f 407 409 410 408
f 409 411 412 410
f 411 413 414 412
f 413 415 416 414
f 415 417 418 416
f 417 395 396 418
f 419 396 398
f 420 397 395
f 419 398 400
f 420 399 397
f 419 400 402
f 420 401 399
f 419 402 404
f 420 403 401
f 419 404 406
f 420 405 403
f 419 406 408
f 420 407 405
f 419 408 410
f 420 409 407
f 419 410 412
f 420 411 409
f 419 412 414
f 420 413 411
f 419 414 416
f 420 415 413
f 419 416 418
f 420 417 415
f 419 418 396
f 420 395 417
usemtl bottle_b
f 421 423 424 422
f 423 425 426 424
f 425 427 428 426
f 427 429 430 428
f 429 431 432 430
f 431 433 434 432
f 433 435 436 434
f 435 437 438 436
f 437 439 440 438
f 439 441 442 440
f 441 443 444 442
f 443 421 422 444
f 445 422 424
f 446 423 421
f 445 424 426
f 446 425 423
f 445 426 428
f 446 427 425
f 445 428 430
f 446 429 427
f 445 430 432
f 446 431 429
f 445 432 434
f 446 433 431
f 445 434 436
f 446 435 433
f 445 436 438
f 446 437 435
f 445 438 440
f 446 439 437
f 445 440 442
f 446 441 439
f 445 442 444
f 446 443 441
f 445 444 422
f 446 421 443
f 447 449 450 448
f 449 451 452 450
f 451 453 454 452
f 453 455 456 454
f 455 457 458 456
f 457 459 460 458
f 459 461 462 460
f 461 463 464 462
f 463 465 466 464
f 465 467 468 466
f 467 469 470 468
f 469 447 448 470
f 471 448 450
f 472 449 447
f 471 450 452
f 472 451 449
f 471 452 454
f 472 453 451
f 471 454 456
f 472 455 453
f 471 456 458
f 472 457 455
f 471 458 460
f 472 459 457
f 471 460 462
f 472 461 459
f 471 462 464
f 472 463 461
f 471 464 466
f 472 465 463
f 471 466 468
f 472 467 465
f 471 468 470
f 472 469 467
f 471 470 448
f 472 447 469
usemtl bottle_a
f 473 475 476 474
f 475 477 478 476
f 477 479 480 478
f 479 481 482 480
f 481 483 484 482
f 483 485 486 484
f 485 487 488 486
f 487 489 490 488
f 489 491 492 490
f 491 493 494 492
f 493 495 496 494
f 495 473 474 496
f 497 474 476
f 498 475 473
f 497 476 478
f 498 477 475
f 497 478 480
f 498 479 477
f 497 480 482
f 498 481 479
f 497 482 484
f 498 483 481
f 497 484 486
f 498 485 483
f 497 486 488
f 498 487 485
f 497 488 490
f 498 489 487
f 497 490 492
f 498 491 489
f 497 492 494
f 498 493 491
f 497 494 496
f 498 495 493
f 497 496 474
f 498 473 495
f 499 501 502 500
f 501 503 504 502
f 503 505 506 504
f 505 507 508 506
f 507 509 510 508
f 509 511 512 510
f 511 513 514 512
f 513 515 516 514
f 515 517 518 516
f 517 519 520 518
f 519 521 522 520
f 521 499 500 522
f 523 500 502
f 524 501 499
f 523 502 504
f 524 503 501
f 523 504 506
f 524 505 503
f 523 506 508
f 524 507 505
f 523 508 510
f 524 509 507
f 523 510 512
f 524 511 509
f 523 512 514
f 524 513 511
f 523 514 516
f 524 515 513
f 523 516 518
f 524 517 515
f 523 518 520
f 524 519 517
f 523 520 522
f 524 521 519
f 523 522 500
f 524 499 521
usemtl bottle_b
f 525 527 528 526
f 527 529 530 528
f 529 531 532 530
f 531 533 534 532
f 533 535 536 534
f 535 537 538 536
f 537 539 540 538
f 539 541 542 540
f 541 543 544 542
f 543 545 546 544
f 545 547 548 546
f 547 525 526 548
f 549 526 528
f 550 527 525
f 549 528 530
f 550 529 527
f 549 530 532
f 550 531 529
f 549 532 534
f 550 533 531
f 549 534 536
f 550 535 533
f 549 536 538
f 550 537 535
f 549 538 540
f 550 539 537
f 549 540 542
f 550 541 539
f 549 542 544
f 550 543 541
f 549 544 546
f 550 545 543
f 549 546 548
f 550 547 545
f 549 548 526
f 550 525 547
f 551 553 554 552
f 553 555 556 554
f 555 557 558 556
f 557 559 560 558
f 559 561 562 560
f 561 563 564 562
f 563 565 566 564
f 565 567 568 566
f 567 569 570 568
f 569 571 572 570
f 571 573 574 572
f 573 551 552 574
f 575 552 554
f 576 553 551
f 575 554 556
f 576 555 553
f 575 556 558
f 576 557 555
f 575 558 560
f 576 559 557
f 575 560 562
f 576 561 559
f 575 562 564
f 576 563 561
f 575 564 566
f 576 565 563
f 575 566 568
f 576 567 565
f 575 568 570
f 576 569 567
f 575 570 572
f 576 571 569
f 575 572 574
f 576 573 571
f 575 574 552
f 576 551 573
usemtl bottle_a
f 577 579 580 578
f 579 581 582 580
f 581 583 584 582
f 583 585 586 584
f 585 587 588 586
f 587 589 590 588
f 589 591 592 590
f 591 593 594 592
f 593 595 596 594
f 595 597 598 596
f 597 599 600 598
f 599 577 578 600
f 601 578 580
f 602 579 577
f 601 580 582
f 602 581 579
f 601 582 584
f 602 583 581
f 601 584 586
f 602 585 583
f 601 586 588
f 602 587 585
f 601 588 590
f 602 589 587
f 601 590 592
f 602 591 589
f 601 592 594
f 602 593 591
f 601 594 596
f 602 595 593
f 601 596 598
f 602 597 595
f 601 598 600
f 602 599 597
f 601 600 578
f 602 577 599
f 603 605 606 604
f 605 607 608 606
f 607 609 610 608
f 609 611 612 610
f 611 613 614 612
f 613 615 616 614
f 615 617 618 616
f 617 619 620 618
f 619 621 622 620
f 621 623 624 622
f 623 625 626 624
f 625 603 604 626
f 627 604 606
f 628 605 603
f 627 606 608
f 628 607 605
f 627 608 610
f 628 609 607
f 627 610 612
f 628 611 609
f 627 612 614
f 628 613 611
f 627 614 616
f 628 615 613
f 627 616 618
f 628 617 615
f 627 618 620
f 628 619 617
f 627 620 622
f 628 621 619
f 627 622 624
f 628 623 621
f 627 624 626
f 628 625 623
f 627 626 604
f 628 603 625
usemtl bottle_b
f 629 631 632 630
f 631 633 634 632
f 633 635 636 634
f 635 637 638 636
f 637 639 640 638
f 639 641 642 640
f 641 643 644 642
f 643 645 646 644
f 645 647 648 646
f 647 649 650 648
f 649 651 652 650
f 651 629 630 652
f 653 630 632
f 654 631 629
f 653 632 634
f 654 633 631
f 653 634 636
f 654 635 633
f 653 636 638
f 654 637 635
f 653 638 640
f 654 639 637
f 653 640 642
f 654 641 639
f 653 642 644
f 654 643 641
f 653 644 646
f 654 645 643
f 653 646 648
f 654 647 645
f 653 648 650
f 654 649 647
f 653 650 652
f 654 651 649
f 653 652 630
f 654 629 651
f 655 657 658 656
f 657 659 660 658
f 659 661 662 660
f 661 663 664 662
f 663 665 666 664
f 665 667 668 666
f 667 669 670 668
f 669 671 672 670
f 671 673 674 672
f 673 675 676 674
f 675 677 678 676
f 677 655 656 678
f 679 656 658
f 680 657 655
f 679 658 660
f 680 659 657
f 679 660 662
f 680 661 659
f 679 662 664
f 680 663 661
f 679 664 666
f 680 665 663
f 679 666 668
f 680 667 665
f 679 668 670
f 680 669 667
f 679 670 672
f 680 671 669
f 679 672 674
f 680 673 671
f 679 674 676
f 680 675 673
f 679 676 678
f 680 677 675
f 679 678 656
f 680 655 677
usemtl bottle_a
f 681 683 684 682
f 683 685 686 684
f 685 687 688 686
f 687 689 690 688
f 689 691 692 690
f 691 693 694 692
f 693 695 696 694
f 695 697 698 696
f 697 699 700 698
f 699 701 702 700
f 701 703 704 702
f 703 681 682 704
f 705 682 684
f 706 683 681
f 705 684 686
f 706 685 683
f 705 686 688
f 706 687 685
f 705 688 690
f 706 689 687
f 705 690 692
f 706 691 689
f 705 692 694
f 706 693 691
f 705 694 696
f 706 695 693
f 705 696 698
f 706 697 695
f 705 698 700
f 706 699 697
f 705 700 702
f 706 701 699
f 705 702 704
f 706 703 701
f 705 704 682
f 706 681 703
f 707 709 710 708
f 709 711 712 710
f 711 713 714 712
f 713 715 716 714
f 715 717 718 716
f 717 719 720 718
f 719 721 722 720
f 721 723 724 722
f 723 725 726 724
f 725 727 728 726
f 727 729 730 728
f 729 707 708 730
f 731 708 710
f 732 709 707
f 731 710 712
f 732 711 709
f 731 712 714
f 732 713 711
f 731 714 716
f 732 715 713
f 731 716 718
f 732 717 715
f 731 718 720
f 732 719 717
f 731 720 722
f 732 721 719
f 731 722 724
f 732 723 721
f 731 724 726
f 732 725 723
f 731 726 728
f 732 727 725
f 731 728 730
f 732 729 727
f 731 730 708
f 732 707 729
usemtl bottle_b
f 733 735 736 734
f 735 737 738 736
f 737 739 740 738
f 739 741 742 740
f 741 743 744 742
f 743 745 746 744
f 745 747 748 746
f 747 749 750 748
f 749 751 752 750
f 751 753 754 752
f 753 755 756 754
f 755 733 734 756
f 757 734 736
f 758 735 733
f 757 736 738
f 758 737 735
f 757 738 740
f 758 739 737
f 757 740 742
f 758 741 739
f 757 742 744
f 758 743 741
f 757 744 746
f 758 745 743
f 757 746 748
f 758 747 745
f 757 748 750
f 758 749 747
f 757 750 752
f 758 751 749
f 757 752 754
f 758 753 751
f 757 754 756
f 758 755 753
f 757 756 734
f 758 733 755
f 759 761 762 760
f 761 763 764 762
f 763 765 766 764
f 765 767 768 766
f 767 769 770 768
f 769 771 772 770
f 771 773 774 772
f 773 775 776 774
f 775 777 778 776
f 777 779 780 778
f 779 781 782 780
f 781 759 760 782
f 783 760 762
f 784 761 759
f 783 762 764
f 784 763 761
f 783 764 766
f 784 765 763
f 783 766 768
f 784 767 765
f 783 768 770
f 784 769 767
f 783 770 772
f 784 771 769
f 783 772 774
f 784 773 771
f 783 774 776
f 784 775 773
f 783 776 778
f 784 777 775
f 783 778 780
f 784 779 777
f 783 780 782
f 784 781 779
f 783 782 760
f 784 759 781
usemtl stool
f 785 787 788 786
f 787 789 790 788
f 789 791 792 790
f 791 793 794 792
f 793 795 796 794
f 795 797 798 796
f 797 799 800 798
f 799 801 802 800
f 801 803 804 802
f 803 805 806 804
f 805 807 808 806
f 807 785 786 808
f 809 786 788
f 810 787 785
f 809 788 790
f 810 789 787
f 809 790 792
f 810 791 789
f 809 792 794
f 810 793 791
f 809 794 796
f 810 795 793
f 809 796 798
f 810 797 795
f 809 798 800
f 810 799 797
f 809 800 802
f 810 801 799
f 809 802 804
f 810 803 801
f 809 804 806
f 810 805 803
f 809 806 808
f 810 807 805
f 809 808 786
f 810 785 807
f 811 813 814 812
f 813 815 816 814
f 815 817 818 816
f 817 819 820 818
f 819 821 822 820
f 821 823 824 822
f 823 825 826 824
f 825 827 828 826
f 827 829 830 828
f 829 831 832 830
f 831 833 834 832
f 833 811 812 834
f 835 812 814
f 836 813 811
f 835 814 816
f 836 815 813
f 835 816 818
f 836 817 815
f 835 818 820
f 836 819 817
f 835 820 822
f 836 821 819
f 835 822 824
f 836 823 821
f 835 824 826
f 836 825 823
f 835 826 828
f 836 827 825
f 835 828 830
f 836 829 827
f 835 830 832
f 836 831 829
f 835 832 834
f 836 833 831
f 835 834 812
f 836 811 833
f 837 839 840 838
f 839 841 842 840
f 841 843 844 842
f 843 845 846 844
f 845 847 848 846
f 847 849 850 848
f 849 851 852 850
f 851 853 854 852
f 853 855 856 854
f 855 857 858 856
f 857 859 860 858
f 859 837 838 860
f 861 838 840
f 862 839 837
f 861 840 842
f 862 841 839
f 861 842 844
f 862 843 841
f 861 844 846
f 862 845 843
f 861 846 848
f 862 847 845
f 861 848 850
f 862 849 847
f 861 850 852
f 862 851 849
f 861 852 854
f 862 853 851
f 861 854 856
f 862 855 853
f 861 856 858
f 862 857 855
f 861 858 860
f 862 859 857
f 861 860 838
f 862 837 859
f 863 865 866 864
f 865 867 868 866
f 867 869 870 868
f 869 871 872 870
f 871 873 874 872
f 873 875 876 874
f 875 877 878 876
f 877 879 880 878
f 879 881 882 880
f 881 883 884 882
f 883 885 886 884
f 885 863 864 886
f 887 864 866
f 888 865 863
f 887 866 868
f 888 867 865
f 887 868 870
f 888 869 867
f 887 870 872
f 888 871 869
f 887 872 874
f 888 873 871
f 887 874 876
f 888 875 873
f 887 876 878
f 888 877 875
f 887 878 880
f 888 879 877
f 887 880 882
f 888 881 879
f 887 882 884
f 888 883 881
f 887 884 886
f 888 885 883
f 887 886 864
f 888 863 885
f 889 891 892 890
f 891 893 894 892
f 893 895 896 894
f 895 897 898 896
f 897 899 900 898
f 899 901 902 900
f 901 903 904 902
f 903 905 906 904
f 905 907 908 906
f 907 909 910 908
f 909 911 912 910
f 911 889 890 912
f 913 890 892
f 914 891 889
f 913 892 894
f 914 893 891
f 913 894 896
f 914 895 893
f 913 896 898
f 914 897 895
f 913 898 900
f 914 899 897
f 913 900 902
f 914 901 899
f 913 902 904
f 914 903 901
f 913 904 906
f 914 905 903
f 913 906 908
f 914 907 905
f 913 908 910
f 914 909 907
f 913 910 912
f 914 911 909
f 913 912 890
f 914 889 911
f 915 917 918 916
f 917 919 920 918
f 919 921 922 920
f 921 923 924 922
f 923 925 926 924
f 925 927 928 926
f 927 929 930 928
f 929 931 932 930
f 931 933 934 932
f 933 935 936 934
f 935 937 938 936
f 937 915 916 938
f 939 916 918
f 940 917 915
f 939 918 920
f 940 919 917
f 939 920 922
f 940 921 919
f 939 922 924
f 940 923 921
f 939 924 926
f 940 925 923
f 939 926 928
f 940 927 925
f 939 928 930
f 940 929 927
f 939 930 932
f 940 931 929
f 939 932 934
f 940 933 931
f 939 934 936
f 940 935 933
f 939 936 938
f 940 937 935
f 939 938 916
f 940 915 937
f 941 943 944 942
f 943 945 946 944
f 945 947 948 946
f 947 949 950 948
f 949 951 952 950
f 951 953 954 952
f 953 955 956 954
f 955 957 958 956
f 957 959 960 958
f 959 961 962 960
f 961 963 964 962
f 963 941 942 964
f 965 942 944
f 966 943 941
f 965 944 946
f 966 945 943
f 965 946 948
f 966 947 945
f 965 948 950
f 966 949 947
f 965 950 952
f 966 951 949
f 965 952 954
f 966 953 951
f 965 954 956
f 966 955 953
f 965 956 958
f 966 957 955
f 965 958 960
f 966 959 957
f 965 960 962
f 966 961 959
f 965 962 964
f 966 963 961
f 965 964 942
f 966 941 963
f 967 969 970 968
f 969 971 972 970
f 971 973 974 972
f 973 975 976 974
f 975 977 978 976
f 977 979 980 978
f 979 981 982 980
f 981 983 984 982
f 983 985 986 984
f 985 987 988 986
f 987 989 990 988
f 989 967 968 990
f 991 968 970
f 992 969 967
f 991 970 972
f 992 971 969
f 991 972 974
f 992 973 971
f 991 974 976
f 992 975 973
f 991 976 978
f 992 977 975
f 991 978 980
f 992 979 977
f 991 980 982
f 992 981 979
f 991 982 984
f 992 983 981
f 991 984 986
f 992 985 983
f 991 986 988
f 992 987 985
f 991 988 990
f 992 989 987
f 991 990 968
f 992 967 989
f 993 995 996 994
f 995 997 998 996
f 997 999 1000 998
f 999 1001 1002 1000
f 1001 1003 1004 1002
f 1003 1005 1006 1004
f 1005 1007 1008 1006
f 1007 1009 1010 1008
f 1009 1011 1012 1010
f 1011 1013 1014 1012
f 1013 1015 1016 1014
f 1015 993 994 1016
f 1017 994 996
f 1018 995 993
f 1017 996 998
f 1018 997 995
f 1017 998 1000
f 1018 999 997
f 1017 1000 1002
f 1018 1001 999
f 1017 1002 1004
f 1018 1003 1001
f 1017 1004 1006
f 1018 1005 1003
f 1017 1006 1008
f 1018 1007 1005
f 1017 1008 1010
f 1018 1009 1007
f 1017 1010 1012
f 1018 1011 1009
f 1017 1012 1014
f 1018 1013 1011
f 1017 1014 1016
f 1018 1015 1013
f 1017 1016 994
f 1018 993 1015
f 1019 1021 1022 1020
f 1021 1023 1024 1022
f 1023 1025 1026 1024
f 1025 1027 1028 1026
f 1027 1029 1030 1028
f 1029 1031 1032 1030
f 1031 1033 1034 1032
f 1033 1035 1036 1034
f 1035 1037 1038 1036
f 1037 1039 1040 1038
f 1039 1041 1042 1040
f 1041 1019 1020 1042
f 1043 1020 1022
f 1044 1021 1019
f 1043 1022 1024
f 1044 1023 1021
f 1043 1024 1026
f 1044 1025 1023
f 1043 1026 1028
f 1044 1027 1025
f 1043 1028 1030
f 1044 1029 1027
f 1043 1030 1032
f 1044 1031 1029
f 1043 1032 1034
f 1044 1033 1031
f 1043 1034 1036
f 1044 1035 1033
f 1043 1036 1038
f 1044 1037 1035
f 1043 1038 1040
f 1044 1039 1037
f 1043 1040 1042
f 1044 1041 1039
f 1043 1042 1020
f 1044 1019 1041
usemtl table
f 1045 1047 1048 1046
f 1047 1049 1050 1048
f 1049 1051 1052 1050
f 1051 1053 1054 1052
f 1053 1055 1056 1054
f 1055 1057 1058 1056
f 1057 1059 1060 1058
f 1059 1061 1062 1060
f 1061 1063 1064 1062
f 1063 1065 1066 1064
f 1065 1067 1068 1066
f 1067 1045 1046 1068
f 1069 1046 1048
f 1070 1047 1045
f 1069 1048 1050
f 1070 1049 1047
f 1069 1050 1052
f 1070 1051 1049
f 1069 1052 1054
f 1070 1053 1051
f 1069 1054 1056
f 1070 1055 1053
f 1069 1056 1058
f 1070 1057 1055
f 1069 1058 1060
f 1070 1059 1057
f 1069 1060 1062
f 1070 1061 1059
f 1069 1062 1064
f 1070 1063 1061
f 1069 1064 1066
f 1070 1065 1063
f 1069 1066 1068
f 1070 1067 1065
f 1069 1068 1046
f 1070 1045 1067
f 1071 1073 1074 1072
f 1073 1075 1076 1074
f 1075 1077 1078 1076
f 1077 1079 1080 1078
f 1079 1081 1082 1080
f 1081 1083 1084 1082
f 1083 1085 1086 1084
f 1085 1087 1088 1086
f 1087 1089 1090 1088
f 1089 1091 1092 1090
f 1091 1093 1094 1092
f 1093 1071 1072 1094
f 1095 1072 1074
f 1096 1073 1071
f 1095 1074 1076
f 1096 1075 1073
f 1095 1076 1078
f 1096 1077 1075
f 1095 1078 1080
f 1096 1079 1077
f 1095 1080 1082
f 1096 1081 1079
f 1095 1082 1084
f 1096 1083 1081
f 1095 1084 1086
f 1096 1085 1083
f 1095 1086 1088
f 1096 1087 1085
f 1095 1088 1090
f 1096 1089 1087
f 1095 1090 1092
f 1096 1091 1089
f 1095 1092 1094
f 1096 1093 1091
f 1095 1094 1072
f 1096 1071 1093
f 1097 1099 1100 1098
f 1099 1101 1102 1100
f 1101 1103 1104 1102
f 1103 1105 1106 1104
f 1105 1107 1108 1106
f 1107 1109 1110 1108
f 1109 1111 1112 1110
f 1111 1113 1114 1112
f 1113 1115 1116 1114
f 1115 1117 1118 1116
f 1117 1119 1120 1118
f 1119 1097 1098 1120
f 1121 1098 1100
f 1122 1099 1097
f 1121 1100 1102
f 1122 1101 1099
f 1121 1102 1104
f 1122 1103 1101
f 1121 1104 1106
f 1122 1105 1103
f 1121 1106 1108
f 1122 1107 1105
f 1121 1108 1110
f 1122 1109 1107
f 1121 1110 1112
f 1122 1111 1109
f 1121 1112 1114
f 1122 1113 1111
f 1121 1114 1116
f 1122 1115 1113
f 1121 1116 1118
f 1122 1117 1115
f 1121 1118 1120
f 1122 1119 1117
f 1121 1120 1098
f 1122 1097 1119
f 1123 1125 1126 1124
f 1125 1127 1128 1126
f 1127 1129 1130 1128
f 1129 1131 1132 1130
f 1131 1133 1134 1132
f 1133 1135 1136 1134
f 1135 1137 1138 1136
f 1137 1139 1140 1138
f 1139 1141 1142 1140
f 1141 1143 1144 1142
f 1143 1145 1146 1144
f 1145 1123 1124 1146
f 1147 1124 1126
f 1148 1125 1123
f 1147 1126 1128
f 1148 1127 1125
f 1147 1128 1130
f 1148 1129 1127
f 1147 1130 1132
f 1148 1131 1129
f 1147 1132 1134
f 1148 1133 1131
f 1147 1134 1136
f 1148 1135 1133
f 1147 1136 1138
f 1148 1137 1135
f 1147 1138 1140
f 1148 1139 1137
f 1147 1140 1142
f 1148 1141 1139
f 1147 1142 1144
f 1148 1143 1141
f 1147 1144 1146
f 1148 1145 1143
f 1147 1146 1124
f 1148 1123 1145
f 1149 1151 1152 1150
f 1151 1153 1154 1152
f 1153 1155 1156 1154
f 1155 1157 1158 1156
f 1157 1159 1160 1158
f 1159 1161 1162 1160
f 1161 1163 1164 1162
f 1163 1165 1166 1164
f 1165 1167 1168 1166
f 1167 1169 1170 1168
f 1169 1171 1172 1170
f 1171 1149 1150 1172
f 1173 1150 1152
f 1174 1151 1149
f 1173 1152 1154
f 1174 1153 1151
f 1173 1154 1156
f 1174 1155 1153
f 1173 1156 1158
f 1174 1157 1155
f 1173 1158 1160
f 1174 1159 1157
f 1173 1160 1162
f 1174 1161 1159
f 1173 1162 1164
f 1174 1163 1161
f 1173 1164 1166
f 1174 1165 1163
f 1173 1166 1168
f 1174 1167 1165
f 1173 1168 1170
f 1174 1169 1167
f 1173 1170 1172
f 1174 1171 1169
f 1173 1172 1150
f 1174 1149 1171
f 1175 1177 1178 1176
f 1177 1179 1180 1178
f 1179 1181 1182 1180
f 1181 1183 1184 1182
f 1183 1185 1186 1184
f 1185 1187 1188 1186
f 1187 1189 1190 1188
f 1189 1191 1192 1190
f 1191 1193 1194 1192
f 1193 1195 1196 1194
f 1195 1197 1198 1196
f 1197 1175 1176 1198
f 1199 1176 1178
f 1200 1177 1175
f 1199 1178 1180
f 1200 1179 1177
f 1199 1180 1182
f 1200 1181 1179
f 1199 1182 1184
f 1200 1183 1181
f 1199 1184 1186
f 1200 1185 1183
f 1199 1186 1188
f 1200 1187 1185
f 1199 1188 1190
f 1200 1189 1187
f 1199 1190 1192
f 1200 1191 1189
f 1199 1192 1194
f 1200 1193 1191
f 1199 1194 1196
f 1200 1195 1193
f 1199 1196 1198
f 1200 1197 1195
f 1199 1198 1176
f 1200 1175 1197
