# RoastEngine club level
mtllib club.mtl
v -0.0300 0.0000 -0.0300
v 0.0300 0.0000 -0.0300
v 0.0300 0.0000 0.0300
v -0.0300 0.0000 0.0300
v -0.0300 1.2000 -0.0300
v 0.0300 1.2000 -0.0300
v 0.0300 1.2000 0.0300
v -0.0300 1.2000 0.0300
v -0.4500 1.1000 -0.0250
v 0.4500 1.1000 -0.0250
v 0.4500 1.1000 0.0250
v -0.4500 1.1000 0.0250
v -0.4500 1.6000 -0.0250
v 0.4500 1.6000 -0.0250
v 0.4500 1.6000 0.0250
v -0.4500 1.6000 0.0250
v -0.4700 1.5950 -0.0350
v 0.4700 1.5950 -0.0350
v 0.4700 1.5950 0.0350
v -0.4700 1.5950 0.0350
v -0.4700 1.6450 -0.0350
v 0.4700 1.6450 -0.0350
v 0.4700 1.6450 0.0350
v -0.4700 1.6450 0.0350
usemtl trim
f 1 4 3 2
f 5 6 7 8
f 1 2 6 5
f 3 4 8 7
f 2 3 7 6
f 4 1 5 8
usemtl sign
f 9 12 11 10
f 13 14 15 16
f 9 10 14 13
f 11 12 16 15
f 10 11 15 14
f 12 9 13 16
usemtl sign_neon
f 17 20 19 18
f 21 22 23 24
f 17 18 22 21
f 19 20 24 23
f 18 19 23 22
f 20 17 21 24
