# RoastEngine Backrooms level
mtllib backrooms.mtl
v -0.0250 0.0000 0.0000
v -0.0250 0.8600 0.0000
v -0.0412 0.0000 0.0500
v -0.0412 0.8600 0.0500
v -0.0837 0.0000 0.0808
v -0.0837 0.8600 0.0808
v -0.1363 0.0000 0.0808
v -0.1363 0.8600 0.0808
v -0.1788 0.0000 0.0500
v -0.1788 0.8600 0.0500
v -0.1950 0.0000 0.0000
v -0.1950 0.8600 0.0000
v -0.1788 0.0000 -0.0500
v -0.1788 0.8600 -0.0500
v -0.1363 0.0000 -0.0808
v -0.1363 0.8600 -0.0808
v -0.0837 0.0000 -0.0808
v -0.0837 0.8600 -0.0808
v -0.0412 0.0000 -0.0500
v -0.0412 0.8600 -0.0500
v -0.1100 0.8600 0.0000
v -0.1100 0.0000 0.0000
v 0.1950 0.0000 0.0000
v 0.1950 0.8600 0.0000
v 0.1788 0.0000 0.0500
v 0.1788 0.8600 0.0500
v 0.1363 0.0000 0.0808
v 0.1363 0.8600 0.0808
v 0.0837 0.0000 0.0808
v 0.0837 0.8600 0.0808
v 0.0412 0.0000 0.0500
v 0.0412 0.8600 0.0500
v 0.0250 0.0000 0.0000
v 0.0250 0.8600 0.0000
v 0.0412 0.0000 -0.0500
v 0.0412 0.8600 -0.0500
v 0.0837 0.0000 -0.0808
v 0.0837 0.8600 -0.0808
v 0.1363 0.0000 -0.0808
v 0.1363 0.8600 -0.0808
v 0.1788 0.0000 -0.0500
v 0.1788 0.8600 -0.0500
v 0.1100 0.8600 0.0000
v 0.1100 0.0000 0.0000
v -0.2000 0.8400 -0.1150
v 0.2000 0.8400 -0.1150
v 0.2000 0.8400 0.1150
v -0.2000 0.8400 0.1150
v -0.2000 1.6000 -0.1150
v 0.2000 1.6000 -0.1150
v 0.2000 1.6000 0.1150
v -0.2000 1.6000 0.1150
v -0.2500 1.5100 -0.1200
v 0.2500 1.5100 -0.1200
v 0.2500 1.5100 0.1200
v -0.2500 1.5100 0.1200
v -0.2500 1.6100 -0.1200
v 0.2500 1.6100 -0.1200
v 0.2500 1.6100 0.1200
v -0.2500 1.6100 0.1200
v -0.1980 0.7200 0.0000
v -0.1980 1.5600 0.0000
v -0.2162 0.7200 0.0438
v -0.2162 1.5600 0.0438
v -0.2600 0.7200 0.0620
v -0.2600 1.5600 0.0620
v -0.3038 0.7200 0.0438
v -0.3038 1.5600 0.0438
v -0.3220 0.7200 0.0000
v -0.3220 1.5600 0.0000
v -0.3038 0.7200 -0.0438
v -0.3038 1.5600 -0.0438
v -0.2600 0.7200 -0.0620
v -0.2600 1.5600 -0.0620
v -0.2162 0.7200 -0.0438
v -0.2162 1.5600 -0.0438
v -0.2600 1.5600 0.0000
v -0.2600 0.7200 0.0000
v 0.3220 0.7200 0.0000
v 0.3220 1.5600 0.0000
v 0.3038 0.7200 0.0438
v 0.3038 1.5600 0.0438
v 0.2600 0.7200 0.0620
v 0.2600 1.5600 0.0620
v 0.2162 0.7200 0.0438
v 0.2162 1.5600 0.0438
v 0.1980 0.7200 0.0000
v 0.1980 1.5600 0.0000
v 0.2162 0.7200 -0.0438
v 0.2162 1.5600 -0.0438
v 0.2600 0.7200 -0.0620
v 0.2600 1.5600 -0.0620
v 0.3038 0.7200 -0.0438
v 0.3038 1.5600 -0.0438
v 0.2600 1.5600 0.0000
v 0.2600 0.7200 0.0000
v -0.2050 0.4800 0.0000
v -0.2050 0.7300 0.0000
v -0.2211 0.4800 0.0389
v -0.2211 0.7300 0.0389
v -0.2600 0.4800 0.0550
v -0.2600 0.7300 0.0550
v -0.2989 0.4800 0.0389
v -0.2989 0.7300 0.0389
v -0.3150 0.4800 0.0000
v -0.3150 0.7300 0.0000
v -0.2989 0.4800 -0.0389
v -0.2989 0.7300 -0.0389
v -0.2600 0.4800 -0.0550
v -0.2600 0.7300 -0.0550
v -0.2211 0.4800 -0.0389
v -0.2211 0.7300 -0.0389
v -0.2600 0.7300 0.0000
v -0.2600 0.4800 0.0000
v 0.3150 0.4800 0.0000
v 0.3150 0.7300 0.0000
v 0.2989 0.4800 0.0389
v 0.2989 0.7300 0.0389
v 0.2600 0.4800 0.0550
v 0.2600 0.7300 0.0550
v 0.2211 0.4800 0.0389
v 0.2211 0.7300 0.0389
v 0.2050 0.4800 0.0000
v 0.2050 0.7300 0.0000
v 0.2211 0.4800 -0.0389
v 0.2211 0.7300 -0.0389
v 0.2600 0.4800 -0.0550
v 0.2600 0.7300 -0.0550
v 0.2989 0.4800 -0.0389
v 0.2989 0.7300 -0.0389
v 0.2600 0.7300 0.0000
v 0.2600 0.4800 0.0000
v 0.0550 1.6100 0.0000
v 0.0550 1.7100 0.0000
v 0.0389 1.6100 0.0389
v 0.0389 1.7100 0.0389
v 0.0000 1.6100 0.0550
v 0.0000 1.7100 0.0550
v -0.0389 1.6100 0.0389
v -0.0389 1.7100 0.0389
v -0.0550 1.6100 0.0000
v -0.0550 1.7100 0.0000
v -0.0389 1.6100 -0.0389
v -0.0389 1.7100 -0.0389
v -0.0000 1.6100 -0.0550
v -0.0000 1.7100 -0.0550
v 0.0389 1.6100 -0.0389
v 0.0389 1.7100 -0.0389
v 0.0000 1.7100 0.0000
v 0.0000 1.6100 0.0000
v -0.1050 1.7050 -0.1050
v 0.1050 1.7050 -0.1050
v 0.1050 1.7050 0.1050
v -0.1050 1.7050 0.1050
v -0.1050 1.9950 -0.1050
v 0.1050 1.9950 -0.1050
v 0.1050 1.9950 0.1050
v -0.1050 1.9950 0.1050
usemtl faceling_suit
f 1 3 4 2
f 3 5 6 4
f 5 7 8 6
f 7 9 10 8
f 9 11 12 10
f 11 13 14 12
f 13 15 16 14
f 15 17 18 16
f 17 19 20 18
f 19 1 2 20
f 21 2 4
f 22 3 1
f 21 4 6
f 22 5 3
f 21 6 8
f 22 7 5
f 21 8 10
f 22 9 7
f 21 10 12
f 22 11 9
f 21 12 14
f 22 13 11
f 21 14 16
f 22 15 13
f 21 16 18
f 22 17 15
f 21 18 20
f 22 19 17
f 21 20 2
f 22 1 19
f 23 25 26 24
f 25 27 28 26
f 27 29 30 28
f 29 31 32 30
f 31 33 34 32
f 33 35 36 34
f 35 37 38 36
f 37 39 40 38
f 39 41 42 40
f 41 23 24 42
f 43 24 26
f 44 25 23
f 43 26 28
f 44 27 25
f 43 28 30
f 44 29 27
f 43 30 32
f 44 31 29
f 43 32 34
f 44 33 31
f 43 34 36
f 44 35 33
f 43 36 38
f 44 37 35
f 43 38 40
f 44 39 37
f 43 40 42
f 44 41 39
f 43 42 24
f 44 23 41
f 45 48 47 46
f 49 50 51 52
f 45 46 50 49
f 47 48 52 51
f 46 47 51 50
f 48 45 49 52
f 53 56 55 54
f 57 58 59 60
f 53 54 58 57
f 55 56 60 59
f 54 55 59 58
f 56 53 57 60
f 61 63 64 62
f 63 65 66 64
f 65 67 68 66
f 67 69 70 68
f 69 71 72 70
f 71 73 74 72
f 73 75 76 74
f 75 61 62 76
f 77 62 64
f 78 63 61
f 77 64 66
f 78 65 63
f 77 66 68
f 78 67 65
f 77 68 70
f 78 69 67
f 77 70 72
f 78 71 69
f 77 72 74
f 78 73 71
f 77 74 76
f 78 75 73
f 77 76 62
f 78 61 75
f 79 81 82 80
f 81 83 84 82
f 83 85 86 84
f 85 87 88 86
f 87 89 90 88
f 89 91 92 90
f 91 93 94 92
f 93 79 80 94
f 95 80 82
f 96 81 79
f 95 82 84
f 96 83 81
f 95 84 86
f 96 85 83
f 95 86 88
f 96 87 85
f 95 88 90
f 96 89 87
f 95 90 92
f 96 91 89
f 95 92 94
f 96 93 91
f 95 94 80
f 96 79 93
usemtl faceling_skin
f 97 99 100 98
f 99 101 102 100
f 101 103 104 102
f 103 105 106 104
f 105 107 108 106
f 107 109 110 108
f 109 111 112 110
f 111 97 98 112
f 113 98 100
f 114 99 97
f 113 100 102
f 114 101 99
f 113 102 104
f 114 103 101
f 113 104 106
f 114 105 103
f 113 106 108
f 114 107 105
f 113 108 110
f 114 109 107
f 113 110 112
f 114 111 109
f 113 112 98
f 114 97 111
f 115 117 118 116
f 117 119 120 118
f 119 121 122 120
f 121 123 124 122
f 123 125 126 124
f 125 127 128 126
f 127 129 130 128
f 129 115 116 130
f 131 116 118
f 132 117 115
f 131 118 120
f 132 119 117
f 131 120 122
f 132 121 119
f 131 122 124
f 132 123 121
f 131 124 126
f 132 125 123
f 131 126 128
f 132 127 125
f 131 128 130
f 132 129 127
f 131 130 116
f 132 115 129
f 133 135 136 134
f 135 137 138 136
f 137 139 140 138
f 139 141 142 140
f 141 143 144 142
f 143 145 146 144
f 145 147 148 146
f 147 133 134 148
f 149 134 136
f 150 135 133
f 149 136 138
f 150 137 135
f 149 138 140
f 150 139 137
f 149 140 142
f 150 141 139
f 149 142 144
f 150 143 141
f 149 144 146
f 150 145 143
f 149 146 148
f 150 147 145
f 149 148 134
f 150 133 147
f 151 154 153 152
f 155 156 157 158
f 151 152 156 155
f 153 154 158 157
f 152 153 157 156
f 154 151 155 158
