# RoastEngine Backrooms level
mtllib backrooms.mtl
v -54.4250 0.0000 -19.4250
v -54.4250 0.0000 -15.5750
v -50.5750 0.0000 -15.5750
v -50.5750 0.0000 -19.4250
v -54.4250 4.0000 -19.4250
v -50.5750 4.0000 -19.4250
v -50.5750 4.0000 -15.5750
v -54.4250 4.0000 -15.5750
v -54.4250 0.0000 -19.4250
v -50.5750 0.0000 -19.4250
v -50.5750 4.0000 -19.4250
v -54.4250 4.0000 -19.4250
v -50.5750 0.0000 -15.5750
v -54.4250 0.0000 -15.5750
v -54.4250 4.0000 -15.5750
v -50.5750 4.0000 -15.5750
v -50.5750 0.0000 -19.4250
v -50.5750 0.0000 -15.5750
v -50.5750 4.0000 -15.5750
v -50.5750 4.0000 -19.4250
v -54.4250 0.0000 -15.5750
v -54.4250 0.0000 -19.4250
v -54.4250 4.0000 -19.4250
v -54.4250 4.0000 -15.5750
v -47.4250 0.0000 -19.4250
v -47.4250 0.0000 -15.5750
v -43.5750 0.0000 -15.5750
v -43.5750 0.0000 -19.4250
v -47.4250 4.0000 -19.4250
v -43.5750 4.0000 -19.4250
v -43.5750 4.0000 -15.5750
v -47.4250 4.0000 -15.5750
v -47.4250 0.0000 -19.4250
v -43.5750 0.0000 -19.4250
v -43.5750 4.0000 -19.4250
v -47.4250 4.0000 -19.4250
v -43.5750 0.0000 -15.5750
v -47.4250 0.0000 -15.5750
v -47.4250 4.0000 -15.5750
v -43.5750 4.0000 -15.5750
v -43.5750 0.0000 -19.4250
v -43.5750 0.0000 -15.5750
v -43.5750 4.0000 -15.5750
v -43.5750 4.0000 -19.4250
v -47.4250 0.0000 -15.5750
v -47.4250 0.0000 -19.4250
v -47.4250 4.0000 -19.4250
v -47.4250 4.0000 -15.5750
v -40.4250 0.0000 -19.4250
v -40.4250 0.0000 -15.5750
v -36.5750 0.0000 -15.5750
v -36.5750 0.0000 -19.4250
v -40.4250 4.0000 -19.4250
v -36.5750 4.0000 -19.4250
v -36.5750 4.0000 -15.5750
v -40.4250 4.0000 -15.5750
v -40.4250 0.0000 -19.4250
v -36.5750 0.0000 -19.4250
v -36.5750 4.0000 -19.4250
v -40.4250 4.0000 -19.4250
v -36.5750 0.0000 -15.5750
v -40.4250 0.0000 -15.5750
v -40.4250 4.0000 -15.5750
v -36.5750 4.0000 -15.5750
v -36.5750 0.0000 -19.4250
v -36.5750 0.0000 -15.5750
v -36.5750 4.0000 -15.5750
v -36.5750 4.0000 -19.4250
v -40.4250 0.0000 -15.5750
v -40.4250 0.0000 -19.4250
v -40.4250 4.0000 -19.4250
v -40.4250 4.0000 -15.5750
v -33.4250 0.0000 -19.4250
v -33.4250 0.0000 -15.5750
v -29.5750 0.0000 -15.5750
v -29.5750 0.0000 -19.4250
v -33.4250 4.0000 -19.4250
v -29.5750 4.0000 -19.4250
v -29.5750 4.0000 -15.5750
v -33.4250 4.0000 -15.5750
v -33.4250 0.0000 -19.4250
v -29.5750 0.0000 -19.4250
v -29.5750 4.0000 -19.4250
v -33.4250 4.0000 -19.4250
v -29.5750 0.0000 -15.5750
v -33.4250 0.0000 -15.5750
v -33.4250 4.0000 -15.5750
v -29.5750 4.0000 -15.5750
v -29.5750 0.0000 -19.4250
v -29.5750 0.0000 -15.5750
v -29.5750 4.0000 -15.5750
v -29.5750 4.0000 -19.4250
v -33.4250 0.0000 -15.5750
v -33.4250 0.0000 -19.4250
v -33.4250 4.0000 -19.4250
v -33.4250 4.0000 -15.5750
v -26.4250 0.0000 -19.4250
v -26.4250 0.0000 -15.5750
v -22.5750 0.0000 -15.5750
v -22.5750 0.0000 -19.4250
v -26.4250 4.0000 -19.4250
v -22.5750 4.0000 -19.4250
v -22.5750 4.0000 -15.5750
v -26.4250 4.0000 -15.5750
v -26.4250 0.0000 -19.4250
v -22.5750 0.0000 -19.4250
v -22.5750 4.0000 -19.4250
v -26.4250 4.0000 -19.4250
v -22.5750 0.0000 -15.5750
v -26.4250 0.0000 -15.5750
v -26.4250 4.0000 -15.5750
v -22.5750 4.0000 -15.5750
v -22.5750 0.0000 -19.4250
v -22.5750 0.0000 -15.5750
v -22.5750 4.0000 -15.5750
v -22.5750 4.0000 -19.4250
v -26.4250 0.0000 -15.5750
v -26.4250 0.0000 -19.4250
v -26.4250 4.0000 -19.4250
v -26.4250 4.0000 -15.5750
v -33.4250 0.0000 -15.9250
v -33.4250 0.0000 -12.0750
v -29.5750 0.0000 -12.0750
v -29.5750 0.0000 -15.9250
v -33.4250 4.0000 -15.9250
v -29.5750 4.0000 -15.9250
v -29.5750 4.0000 -12.0750
v -33.4250 4.0000 -12.0750
v -33.4250 0.0000 -15.9250
v -29.5750 0.0000 -15.9250
v -29.5750 4.0000 -15.9250
v -33.4250 4.0000 -15.9250
v -29.5750 0.0000 -12.0750
v -33.4250 0.0000 -12.0750
v -33.4250 4.0000 -12.0750
v -29.5750 4.0000 -12.0750
v -29.5750 0.0000 -15.9250
v -29.5750 0.0000 -12.0750
v -29.5750 4.0000 -12.0750
v -29.5750 4.0000 -15.9250
v -33.4250 0.0000 -12.0750
v -33.4250 0.0000 -15.9250
v -33.4250 4.0000 -15.9250
v -33.4250 4.0000 -12.0750
v -54.4250 0.0000 -12.4250
v -54.4250 0.0000 -8.5750
v -50.5750 0.0000 -8.5750
v -50.5750 0.0000 -12.4250
v -54.4250 4.0000 -12.4250
v -50.5750 4.0000 -12.4250
v -50.5750 4.0000 -8.5750
v -54.4250 4.0000 -8.5750
v -54.4250 0.0000 -12.4250
v -50.5750 0.0000 -12.4250
v -50.5750 4.0000 -12.4250
v -54.4250 4.0000 -12.4250
v -50.5750 0.0000 -8.5750
v -54.4250 0.0000 -8.5750
v -54.4250 4.0000 -8.5750
v -50.5750 4.0000 -8.5750
v -50.5750 0.0000 -12.4250
v -50.5750 0.0000 -8.5750
v -50.5750 4.0000 -8.5750
v -50.5750 4.0000 -12.4250
v -54.4250 0.0000 -8.5750
v -54.4250 0.0000 -12.4250
v -54.4250 4.0000 -12.4250
v -54.4250 4.0000 -8.5750
v -47.4250 0.0000 -12.4250
v -47.4250 0.0000 -8.5750
v -43.5750 0.0000 -8.5750
v -43.5750 0.0000 -12.4250
v -47.4250 4.0000 -12.4250
v -43.5750 4.0000 -12.4250
v -43.5750 4.0000 -8.5750
v -47.4250 4.0000 -8.5750
v -47.4250 0.0000 -12.4250
v -43.5750 0.0000 -12.4250
v -43.5750 4.0000 -12.4250
v -47.4250 4.0000 -12.4250
v -43.5750 0.0000 -8.5750
v -47.4250 0.0000 -8.5750
v -47.4250 4.0000 -8.5750
v -43.5750 4.0000 -8.5750
v -43.5750 0.0000 -12.4250
v -43.5750 0.0000 -8.5750
v -43.5750 4.0000 -8.5750
v -43.5750 4.0000 -12.4250
v -47.4250 0.0000 -8.5750
v -47.4250 0.0000 -12.4250
v -47.4250 4.0000 -12.4250
v -47.4250 4.0000 -8.5750
v -40.4250 0.0000 -12.4250
v -40.4250 0.0000 -8.5750
v -36.5750 0.0000 -8.5750
v -36.5750 0.0000 -12.4250
v -40.4250 4.0000 -12.4250
v -36.5750 4.0000 -12.4250
v -36.5750 4.0000 -8.5750
v -40.4250 4.0000 -8.5750
v -40.4250 0.0000 -12.4250
v -36.5750 0.0000 -12.4250
v -36.5750 4.0000 -12.4250
v -40.4250 4.0000 -12.4250
v -36.5750 0.0000 -8.5750
v -40.4250 0.0000 -8.5750
v -40.4250 4.0000 -8.5750
v -36.5750 4.0000 -8.5750
v -36.5750 0.0000 -12.4250
v -36.5750 0.0000 -8.5750
v -36.5750 4.0000 -8.5750
v -36.5750 4.0000 -12.4250
v -40.4250 0.0000 -8.5750
v -40.4250 0.0000 -12.4250
v -40.4250 4.0000 -12.4250
v -40.4250 4.0000 -8.5750
v -33.4250 0.0000 -12.4250
v -33.4250 0.0000 -8.5750
v -29.5750 0.0000 -8.5750
v -29.5750 0.0000 -12.4250
v -33.4250 4.0000 -12.4250
v -29.5750 4.0000 -12.4250
v -29.5750 4.0000 -8.5750
v -33.4250 4.0000 -8.5750
v -33.4250 0.0000 -12.4250
v -29.5750 0.0000 -12.4250
v -29.5750 4.0000 -12.4250
v -33.4250 4.0000 -12.4250
v -29.5750 0.0000 -8.5750
v -33.4250 0.0000 -8.5750
v -33.4250 4.0000 -8.5750
v -29.5750 4.0000 -8.5750
v -29.5750 0.0000 -12.4250
v -29.5750 0.0000 -8.5750
v -29.5750 4.0000 -8.5750
v -29.5750 4.0000 -12.4250
v -33.4250 0.0000 -8.5750
v -33.4250 0.0000 -12.4250
v -33.4250 4.0000 -12.4250
v -33.4250 4.0000 -8.5750
v -26.4250 0.0000 -12.4250
v -26.4250 0.0000 -8.5750
v -22.5750 0.0000 -8.5750
v -22.5750 0.0000 -12.4250
v -26.4250 4.0000 -12.4250
v -22.5750 4.0000 -12.4250
v -22.5750 4.0000 -8.5750
v -26.4250 4.0000 -8.5750
v -26.4250 0.0000 -12.4250
v -22.5750 0.0000 -12.4250
v -22.5750 4.0000 -12.4250
v -26.4250 4.0000 -12.4250
v -22.5750 0.0000 -8.5750
v -26.4250 0.0000 -8.5750
v -26.4250 4.0000 -8.5750
v -22.5750 4.0000 -8.5750
v -22.5750 0.0000 -12.4250
v -22.5750 0.0000 -8.5750
v -22.5750 4.0000 -8.5750
v -22.5750 4.0000 -12.4250
v -26.4250 0.0000 -8.5750
v -26.4250 0.0000 -12.4250
v -26.4250 4.0000 -12.4250
v -26.4250 4.0000 -8.5750
v -47.4250 0.0000 -8.9250
v -47.4250 0.0000 -5.0750
v -43.5750 0.0000 -5.0750
v -43.5750 0.0000 -8.9250
v -47.4250 4.0000 -8.9250
v -43.5750 4.0000 -8.9250
v -43.5750 4.0000 -5.0750
v -47.4250 4.0000 -5.0750
v -47.4250 0.0000 -8.9250
v -43.5750 0.0000 -8.9250
v -43.5750 4.0000 -8.9250
v -47.4250 4.0000 -8.9250
v -43.5750 0.0000 -5.0750
v -47.4250 0.0000 -5.0750
v -47.4250 4.0000 -5.0750
v -43.5750 4.0000 -5.0750
v -43.5750 0.0000 -8.9250
v -43.5750 0.0000 -5.0750
v -43.5750 4.0000 -5.0750
v -43.5750 4.0000 -8.9250
v -47.4250 0.0000 -5.0750
v -47.4250 0.0000 -8.9250
v -47.4250 4.0000 -8.9250
v -47.4250 4.0000 -5.0750
v -40.4250 0.0000 -8.9250
v -40.4250 0.0000 -5.0750
v -36.5750 0.0000 -5.0750
v -36.5750 0.0000 -8.9250
v -40.4250 4.0000 -8.9250
v -36.5750 4.0000 -8.9250
v -36.5750 4.0000 -5.0750
v -40.4250 4.0000 -5.0750
v -40.4250 0.0000 -8.9250
v -36.5750 0.0000 -8.9250
v -36.5750 4.0000 -8.9250
v -40.4250 4.0000 -8.9250
v -36.5750 0.0000 -5.0750
v -40.4250 0.0000 -5.0750
v -40.4250 4.0000 -5.0750
v -36.5750 4.0000 -5.0750
v -36.5750 0.0000 -8.9250
v -36.5750 0.0000 -5.0750
v -36.5750 4.0000 -5.0750
v -36.5750 4.0000 -8.9250
v -40.4250 0.0000 -5.0750
v -40.4250 0.0000 -8.9250
v -40.4250 4.0000 -8.9250
v -40.4250 4.0000 -5.0750
v -33.4250 0.0000 -8.9250
v -33.4250 0.0000 -5.0750
v -29.5750 0.0000 -5.0750
v -29.5750 0.0000 -8.9250
v -33.4250 4.0000 -8.9250
v -29.5750 4.0000 -8.9250
v -29.5750 4.0000 -5.0750
v -33.4250 4.0000 -5.0750
v -33.4250 0.0000 -8.9250
v -29.5750 0.0000 -8.9250
v -29.5750 4.0000 -8.9250
v -33.4250 4.0000 -8.9250
v -29.5750 0.0000 -5.0750
v -33.4250 0.0000 -5.0750
v -33.4250 4.0000 -5.0750
v -29.5750 4.0000 -5.0750
v -29.5750 0.0000 -8.9250
v -29.5750 0.0000 -5.0750
v -29.5750 4.0000 -5.0750
v -29.5750 4.0000 -8.9250
v -33.4250 0.0000 -5.0750
v -33.4250 0.0000 -8.9250
v -33.4250 4.0000 -8.9250
v -33.4250 4.0000 -5.0750
v -54.4250 0.0000 -5.4250
v -54.4250 0.0000 -1.5750
v -50.5750 0.0000 -1.5750
v -50.5750 0.0000 -5.4250
v -54.4250 4.0000 -5.4250
v -50.5750 4.0000 -5.4250
v -50.5750 4.0000 -1.5750
v -54.4250 4.0000 -1.5750
v -54.4250 0.0000 -5.4250
v -50.5750 0.0000 -5.4250
v -50.5750 4.0000 -5.4250
v -54.4250 4.0000 -5.4250
v -50.5750 0.0000 -1.5750
v -54.4250 0.0000 -1.5750
v -54.4250 4.0000 -1.5750
v -50.5750 4.0000 -1.5750
v -50.5750 0.0000 -5.4250
v -50.5750 0.0000 -1.5750
v -50.5750 4.0000 -1.5750
v -50.5750 4.0000 -5.4250
v -54.4250 0.0000 -1.5750
v -54.4250 0.0000 -5.4250
v -54.4250 4.0000 -5.4250
v -54.4250 4.0000 -1.5750
v -47.4250 0.0000 -5.4250
v -47.4250 0.0000 -1.5750
v -43.5750 0.0000 -1.5750
v -43.5750 0.0000 -5.4250
v -47.4250 4.0000 -5.4250
v -43.5750 4.0000 -5.4250
v -43.5750 4.0000 -1.5750
v -47.4250 4.0000 -1.5750
v -47.4250 0.0000 -5.4250
v -43.5750 0.0000 -5.4250
v -43.5750 4.0000 -5.4250
v -47.4250 4.0000 -5.4250
v -43.5750 0.0000 -1.5750
v -47.4250 0.0000 -1.5750
v -47.4250 4.0000 -1.5750
v -43.5750 4.0000 -1.5750
v -43.5750 0.0000 -5.4250
v -43.5750 0.0000 -1.5750
v -43.5750 4.0000 -1.5750
v -43.5750 4.0000 -5.4250
v -47.4250 0.0000 -1.5750
v -47.4250 0.0000 -5.4250
v -47.4250 4.0000 -5.4250
v -47.4250 4.0000 -1.5750
v -40.4250 0.0000 -5.4250
v -40.4250 0.0000 -1.5750
v -36.5750 0.0000 -1.5750
v -36.5750 0.0000 -5.4250
v -40.4250 4.0000 -5.4250
v -36.5750 4.0000 -5.4250
v -36.5750 4.0000 -1.5750
v -40.4250 4.0000 -1.5750
v -40.4250 0.0000 -5.4250
v -36.5750 0.0000 -5.4250
v -36.5750 4.0000 -5.4250
v -40.4250 4.0000 -5.4250
v -36.5750 0.0000 -1.5750
v -40.4250 0.0000 -1.5750
v -40.4250 4.0000 -1.5750
v -36.5750 4.0000 -1.5750
v -36.5750 0.0000 -5.4250
v -36.5750 0.0000 -1.5750
v -36.5750 4.0000 -1.5750
v -36.5750 4.0000 -5.4250
v -40.4250 0.0000 -1.5750
v -40.4250 0.0000 -5.4250
v -40.4250 4.0000 -5.4250
v -40.4250 4.0000 -1.5750
v -33.4250 0.0000 -5.4250
v -33.4250 0.0000 -1.5750
v -29.5750 0.0000 -1.5750
v -29.5750 0.0000 -5.4250
v -33.4250 4.0000 -5.4250
v -29.5750 4.0000 -5.4250
v -29.5750 4.0000 -1.5750
v -33.4250 4.0000 -1.5750
v -33.4250 0.0000 -5.4250
v -29.5750 0.0000 -5.4250
v -29.5750 4.0000 -5.4250
v -33.4250 4.0000 -5.4250
v -29.5750 0.0000 -1.5750
v -33.4250 0.0000 -1.5750
v -33.4250 4.0000 -1.5750
v -29.5750 4.0000 -1.5750
v -29.5750 0.0000 -5.4250
v -29.5750 0.0000 -1.5750
v -29.5750 4.0000 -1.5750
v -29.5750 4.0000 -5.4250
v -33.4250 0.0000 -1.5750
v -33.4250 0.0000 -5.4250
v -33.4250 4.0000 -5.4250
v -33.4250 4.0000 -1.5750
v -26.4250 0.0000 -5.4250
v -26.4250 0.0000 -1.5750
v -22.5750 0.0000 -1.5750
v -22.5750 0.0000 -5.4250
v -26.4250 4.0000 -5.4250
v -22.5750 4.0000 -5.4250
v -22.5750 4.0000 -1.5750
v -26.4250 4.0000 -1.5750
v -26.4250 0.0000 -5.4250
v -22.5750 0.0000 -5.4250
v -22.5750 4.0000 -5.4250
v -26.4250 4.0000 -5.4250
v -22.5750 0.0000 -1.5750
v -26.4250 0.0000 -1.5750
v -26.4250 4.0000 -1.5750
v -22.5750 4.0000 -1.5750
v -22.5750 0.0000 -5.4250
v -22.5750 0.0000 -1.5750
v -22.5750 4.0000 -1.5750
v -22.5750 4.0000 -5.4250
v -26.4250 0.0000 -1.5750
v -26.4250 0.0000 -5.4250
v -26.4250 4.0000 -5.4250
v -26.4250 4.0000 -1.5750
v -54.4250 0.0000 -1.9250
v -54.4250 0.0000 1.9250
v -50.5750 0.0000 1.9250
v -50.5750 0.0000 -1.9250
v -54.4250 4.0000 -1.9250
v -50.5750 4.0000 -1.9250
v -50.5750 4.0000 1.9250
v -54.4250 4.0000 1.9250
v -54.4250 0.0000 -1.9250
v -50.5750 0.0000 -1.9250
v -50.5750 4.0000 -1.9250
v -54.4250 4.0000 -1.9250
v -50.5750 0.0000 1.9250
v -54.4250 0.0000 1.9250
v -54.4250 4.0000 1.9250
v -50.5750 4.0000 1.9250
v -50.5750 0.0000 -1.9250
v -50.5750 0.0000 1.9250
v -50.5750 4.0000 1.9250
v -50.5750 4.0000 -1.9250
v -54.4250 0.0000 1.9250
v -54.4250 0.0000 -1.9250
v -54.4250 4.0000 -1.9250
v -54.4250 4.0000 1.9250
v -33.4250 0.0000 -1.9250
v -33.4250 0.0000 1.9250
v -29.5750 0.0000 1.9250
v -29.5750 0.0000 -1.9250
v -33.4250 4.0000 -1.9250
v -29.5750 4.0000 -1.9250
v -29.5750 4.0000 1.9250
v -33.4250 4.0000 1.9250
v -33.4250 0.0000 -1.9250
v -29.5750 0.0000 -1.9250
v -29.5750 4.0000 -1.9250
v -33.4250 4.0000 -1.9250
v -29.5750 0.0000 1.9250
v -33.4250 0.0000 1.9250
v -33.4250 4.0000 1.9250
v -29.5750 4.0000 1.9250
v -29.5750 0.0000 -1.9250
v -29.5750 0.0000 1.9250
v -29.5750 4.0000 1.9250
v -29.5750 4.0000 -1.9250
v -33.4250 0.0000 1.9250
v -33.4250 0.0000 -1.9250
v -33.4250 4.0000 -1.9250
v -33.4250 4.0000 1.9250
v -26.4250 0.0000 -1.9250
v -26.4250 0.0000 1.9250
v -22.5750 0.0000 1.9250
v -22.5750 0.0000 -1.9250
v -26.4250 4.0000 -1.9250
v -22.5750 4.0000 -1.9250
v -22.5750 4.0000 1.9250
v -26.4250 4.0000 1.9250
v -26.4250 0.0000 -1.9250
v -22.5750 0.0000 -1.9250
v -22.5750 4.0000 -1.9250
v -26.4250 4.0000 -1.9250
v -22.5750 0.0000 1.9250
v -26.4250 0.0000 1.9250
v -26.4250 4.0000 1.9250
v -22.5750 4.0000 1.9250
v -22.5750 0.0000 -1.9250
v -22.5750 0.0000 1.9250
v -22.5750 4.0000 1.9250
v -22.5750 4.0000 -1.9250
v -26.4250 0.0000 1.9250
v -26.4250 0.0000 -1.9250
v -26.4250 4.0000 -1.9250
v -26.4250 4.0000 1.9250
v -54.4250 0.0000 1.5750
v -54.4250 0.0000 5.4250
v -50.5750 0.0000 5.4250
v -50.5750 0.0000 1.5750
v -54.4250 4.0000 1.5750
v -50.5750 4.0000 1.5750
v -50.5750 4.0000 5.4250
v -54.4250 4.0000 5.4250
v -54.4250 0.0000 1.5750
v -50.5750 0.0000 1.5750
v -50.5750 4.0000 1.5750
v -54.4250 4.0000 1.5750
v -50.5750 0.0000 5.4250
v -54.4250 0.0000 5.4250
v -54.4250 4.0000 5.4250
v -50.5750 4.0000 5.4250
v -50.5750 0.0000 1.5750
v -50.5750 0.0000 5.4250
v -50.5750 4.0000 5.4250
v -50.5750 4.0000 1.5750
v -54.4250 0.0000 5.4250
v -54.4250 0.0000 1.5750
v -54.4250 4.0000 1.5750
v -54.4250 4.0000 5.4250
v -47.4250 0.0000 1.5750
v -47.4250 0.0000 5.4250
v -43.5750 0.0000 5.4250
v -43.5750 0.0000 1.5750
v -47.4250 4.0000 1.5750
v -43.5750 4.0000 1.5750
v -43.5750 4.0000 5.4250
v -47.4250 4.0000 5.4250
v -47.4250 0.0000 1.5750
v -43.5750 0.0000 1.5750
v -43.5750 4.0000 1.5750
v -47.4250 4.0000 1.5750
v -43.5750 0.0000 5.4250
v -47.4250 0.0000 5.4250
v -47.4250 4.0000 5.4250
v -43.5750 4.0000 5.4250
v -43.5750 0.0000 1.5750
v -43.5750 0.0000 5.4250
v -43.5750 4.0000 5.4250
v -43.5750 4.0000 1.5750
v -47.4250 0.0000 5.4250
v -47.4250 0.0000 1.5750
v -47.4250 4.0000 1.5750
v -47.4250 4.0000 5.4250
v -40.4250 0.0000 1.5750
v -40.4250 0.0000 5.4250
v -36.5750 0.0000 5.4250
v -36.5750 0.0000 1.5750
v -40.4250 4.0000 1.5750
v -36.5750 4.0000 1.5750
v -36.5750 4.0000 5.4250
v -40.4250 4.0000 5.4250
v -40.4250 0.0000 1.5750
v -36.5750 0.0000 1.5750
v -36.5750 4.0000 1.5750
v -40.4250 4.0000 1.5750
v -36.5750 0.0000 5.4250
v -40.4250 0.0000 5.4250
v -40.4250 4.0000 5.4250
v -36.5750 4.0000 5.4250
v -36.5750 0.0000 1.5750
v -36.5750 0.0000 5.4250
v -36.5750 4.0000 5.4250
v -36.5750 4.0000 1.5750
v -40.4250 0.0000 5.4250
v -40.4250 0.0000 1.5750
v -40.4250 4.0000 1.5750
v -40.4250 4.0000 5.4250
v -36.9250 0.0000 1.5750
v -36.9250 0.0000 5.4250
v -33.0750 0.0000 5.4250
v -33.0750 0.0000 1.5750
v -36.9250 4.0000 1.5750
v -33.0750 4.0000 1.5750
v -33.0750 4.0000 5.4250
v -36.9250 4.0000 5.4250
v -36.9250 0.0000 1.5750
v -33.0750 0.0000 1.5750
v -33.0750 4.0000 1.5750
v -36.9250 4.0000 1.5750
v -33.0750 0.0000 5.4250
v -36.9250 0.0000 5.4250
v -36.9250 4.0000 5.4250
v -33.0750 4.0000 5.4250
v -33.0750 0.0000 1.5750
v -33.0750 0.0000 5.4250
v -33.0750 4.0000 5.4250
v -33.0750 4.0000 1.5750
v -36.9250 0.0000 5.4250
v -36.9250 0.0000 1.5750
v -36.9250 4.0000 1.5750
v -36.9250 4.0000 5.4250
v -33.4250 0.0000 1.5750
v -33.4250 0.0000 5.4250
v -29.5750 0.0000 5.4250
v -29.5750 0.0000 1.5750
v -33.4250 4.0000 1.5750
v -29.5750 4.0000 1.5750
v -29.5750 4.0000 5.4250
v -33.4250 4.0000 5.4250
v -33.4250 0.0000 1.5750
v -29.5750 0.0000 1.5750
v -29.5750 4.0000 1.5750
v -33.4250 4.0000 1.5750
v -29.5750 0.0000 5.4250
v -33.4250 0.0000 5.4250
v -33.4250 4.0000 5.4250
v -29.5750 4.0000 5.4250
v -29.5750 0.0000 1.5750
v -29.5750 0.0000 5.4250
v -29.5750 4.0000 5.4250
v -29.5750 4.0000 1.5750
v -33.4250 0.0000 5.4250
v -33.4250 0.0000 1.5750
v -33.4250 4.0000 1.5750
v -33.4250 4.0000 5.4250
v -26.4250 0.0000 1.5750
v -26.4250 0.0000 5.4250
v -22.5750 0.0000 5.4250
v -22.5750 0.0000 1.5750
v -26.4250 4.0000 1.5750
v -22.5750 4.0000 1.5750
v -22.5750 4.0000 5.4250
v -26.4250 4.0000 5.4250
v -26.4250 0.0000 1.5750
v -22.5750 0.0000 1.5750
v -22.5750 4.0000 1.5750
v -26.4250 4.0000 1.5750
v -22.5750 0.0000 5.4250
v -26.4250 0.0000 5.4250
v -26.4250 4.0000 5.4250
v -22.5750 4.0000 5.4250
v -22.5750 0.0000 1.5750
v -22.5750 0.0000 5.4250
v -22.5750 4.0000 5.4250
v -22.5750 4.0000 1.5750
v -26.4250 0.0000 5.4250
v -26.4250 0.0000 1.5750
v -26.4250 4.0000 1.5750
v -26.4250 4.0000 5.4250
v -33.4250 0.0000 5.0750
v -33.4250 0.0000 8.9250
v -29.5750 0.0000 8.9250
v -29.5750 0.0000 5.0750
v -33.4250 4.0000 5.0750
v -29.5750 4.0000 5.0750
v -29.5750 4.0000 8.9250
v -33.4250 4.0000 8.9250
v -33.4250 0.0000 5.0750
v -29.5750 0.0000 5.0750
v -29.5750 4.0000 5.0750
v -33.4250 4.0000 5.0750
v -29.5750 0.0000 8.9250
v -33.4250 0.0000 8.9250
v -33.4250 4.0000 8.9250
v -29.5750 4.0000 8.9250
v -29.5750 0.0000 5.0750
v -29.5750 0.0000 8.9250
v -29.5750 4.0000 8.9250
v -29.5750 4.0000 5.0750
v -33.4250 0.0000 8.9250
v -33.4250 0.0000 5.0750
v -33.4250 4.0000 5.0750
v -33.4250 4.0000 8.9250
v -54.4250 0.0000 8.5750
v -54.4250 0.0000 12.4250
v -50.5750 0.0000 12.4250
v -50.5750 0.0000 8.5750
v -54.4250 4.0000 8.5750
v -50.5750 4.0000 8.5750
v -50.5750 4.0000 12.4250
v -54.4250 4.0000 12.4250
v -54.4250 0.0000 8.5750
v -50.5750 0.0000 8.5750
v -50.5750 4.0000 8.5750
v -54.4250 4.0000 8.5750
v -50.5750 0.0000 12.4250
v -54.4250 0.0000 12.4250
v -54.4250 4.0000 12.4250
v -50.5750 4.0000 12.4250
v -50.5750 0.0000 8.5750
v -50.5750 0.0000 12.4250
v -50.5750 4.0000 12.4250
v -50.5750 4.0000 8.5750
v -54.4250 0.0000 12.4250
v -54.4250 0.0000 8.5750
v -54.4250 4.0000 8.5750
v -54.4250 4.0000 12.4250
v -47.4250 0.0000 8.5750
v -47.4250 0.0000 12.4250
v -43.5750 0.0000 12.4250
v -43.5750 0.0000 8.5750
v -47.4250 4.0000 8.5750
v -43.5750 4.0000 8.5750
v -43.5750 4.0000 12.4250
v -47.4250 4.0000 12.4250
v -47.4250 0.0000 8.5750
v -43.5750 0.0000 8.5750
v -43.5750 4.0000 8.5750
v -47.4250 4.0000 8.5750
v -43.5750 0.0000 12.4250
v -47.4250 0.0000 12.4250
v -47.4250 4.0000 12.4250
v -43.5750 4.0000 12.4250
v -43.5750 0.0000 8.5750
v -43.5750 0.0000 12.4250
v -43.5750 4.0000 12.4250
v -43.5750 4.0000 8.5750
v -47.4250 0.0000 12.4250
v -47.4250 0.0000 8.5750
v -47.4250 4.0000 8.5750
v -47.4250 4.0000 12.4250
v -40.4250 0.0000 8.5750
v -40.4250 0.0000 12.4250
v -36.5750 0.0000 12.4250
v -36.5750 0.0000 8.5750
v -40.4250 4.0000 8.5750
v -36.5750 4.0000 8.5750
v -36.5750 4.0000 12.4250
v -40.4250 4.0000 12.4250
v -40.4250 0.0000 8.5750
v -36.5750 0.0000 8.5750
v -36.5750 4.0000 8.5750
v -40.4250 4.0000 8.5750
v -36.5750 0.0000 12.4250
v -40.4250 0.0000 12.4250
v -40.4250 4.0000 12.4250
v -36.5750 4.0000 12.4250
v -36.5750 0.0000 8.5750
v -36.5750 0.0000 12.4250
v -36.5750 4.0000 12.4250
v -36.5750 4.0000 8.5750
v -40.4250 0.0000 12.4250
v -40.4250 0.0000 8.5750
v -40.4250 4.0000 8.5750
v -40.4250 4.0000 12.4250
v -33.4250 0.0000 8.5750
v -33.4250 0.0000 12.4250
v -29.5750 0.0000 12.4250
v -29.5750 0.0000 8.5750
v -33.4250 4.0000 8.5750
v -29.5750 4.0000 8.5750
v -29.5750 4.0000 12.4250
v -33.4250 4.0000 12.4250
v -33.4250 0.0000 8.5750
v -29.5750 0.0000 8.5750
v -29.5750 4.0000 8.5750
v -33.4250 4.0000 8.5750
v -29.5750 0.0000 12.4250
v -33.4250 0.0000 12.4250
v -33.4250 4.0000 12.4250
v -29.5750 4.0000 12.4250
v -29.5750 0.0000 8.5750
v -29.5750 0.0000 12.4250
v -29.5750 4.0000 12.4250
v -29.5750 4.0000 8.5750
v -33.4250 0.0000 12.4250
v -33.4250 0.0000 8.5750
v -33.4250 4.0000 8.5750
v -33.4250 4.0000 12.4250
v -26.4250 0.0000 8.5750
v -26.4250 0.0000 12.4250
v -22.5750 0.0000 12.4250
v -22.5750 0.0000 8.5750
v -26.4250 4.0000 8.5750
v -22.5750 4.0000 8.5750
v -22.5750 4.0000 12.4250
v -26.4250 4.0000 12.4250
v -26.4250 0.0000 8.5750
v -22.5750 0.0000 8.5750
v -22.5750 4.0000 8.5750
v -26.4250 4.0000 8.5750
v -22.5750 0.0000 12.4250
v -26.4250 0.0000 12.4250
v -26.4250 4.0000 12.4250
v -22.5750 4.0000 12.4250
v -22.5750 0.0000 8.5750
v -22.5750 0.0000 12.4250
v -22.5750 4.0000 12.4250
v -22.5750 4.0000 8.5750
v -26.4250 0.0000 12.4250
v -26.4250 0.0000 8.5750
v -26.4250 4.0000 8.5750
v -26.4250 4.0000 12.4250
v -40.4250 0.0000 12.0750
v -40.4250 0.0000 15.9250
v -36.5750 0.0000 15.9250
v -36.5750 0.0000 12.0750
v -40.4250 4.0000 12.0750
v -36.5750 4.0000 12.0750
v -36.5750 4.0000 15.9250
v -40.4250 4.0000 15.9250
v -40.4250 0.0000 12.0750
v -36.5750 0.0000 12.0750
v -36.5750 4.0000 12.0750
v -40.4250 4.0000 12.0750
v -36.5750 0.0000 15.9250
v -40.4250 0.0000 15.9250
v -40.4250 4.0000 15.9250
v -36.5750 4.0000 15.9250
v -36.5750 0.0000 12.0750
v -36.5750 0.0000 15.9250
v -36.5750 4.0000 15.9250
v -36.5750 4.0000 12.0750
v -40.4250 0.0000 15.9250
v -40.4250 0.0000 12.0750
v -40.4250 4.0000 12.0750
v -40.4250 4.0000 15.9250
v -33.4250 0.0000 12.0750
v -33.4250 0.0000 15.9250
v -29.5750 0.0000 15.9250
v -29.5750 0.0000 12.0750
v -33.4250 4.0000 12.0750
v -29.5750 4.0000 12.0750
v -29.5750 4.0000 15.9250
v -33.4250 4.0000 15.9250
v -33.4250 0.0000 12.0750
v -29.5750 0.0000 12.0750
v -29.5750 4.0000 12.0750
v -33.4250 4.0000 12.0750
v -29.5750 0.0000 15.9250
v -33.4250 0.0000 15.9250
v -33.4250 4.0000 15.9250
v -29.5750 4.0000 15.9250
v -29.5750 0.0000 12.0750
v -29.5750 0.0000 15.9250
v -29.5750 4.0000 15.9250
v -29.5750 4.0000 12.0750
v -33.4250 0.0000 15.9250
v -33.4250 0.0000 12.0750
v -33.4250 4.0000 12.0750
v -33.4250 4.0000 15.9250
v -54.4250 0.0000 15.5750
v -54.4250 0.0000 19.4250
v -50.5750 0.0000 19.4250
v -50.5750 0.0000 15.5750
v -54.4250 4.0000 15.5750
v -50.5750 4.0000 15.5750
v -50.5750 4.0000 19.4250
v -54.4250 4.0000 19.4250
v -54.4250 0.0000 15.5750
v -50.5750 0.0000 15.5750
v -50.5750 4.0000 15.5750
v -54.4250 4.0000 15.5750
v -50.5750 0.0000 19.4250
v -54.4250 0.0000 19.4250
v -54.4250 4.0000 19.4250
v -50.5750 4.0000 19.4250
v -50.5750 0.0000 15.5750
v -50.5750 0.0000 19.4250
v -50.5750 4.0000 19.4250
v -50.5750 4.0000 15.5750
v -54.4250 0.0000 19.4250
v -54.4250 0.0000 15.5750
v -54.4250 4.0000 15.5750
v -54.4250 4.0000 19.4250
v -47.4250 0.0000 15.5750
v -47.4250 0.0000 19.4250
v -43.5750 0.0000 19.4250
v -43.5750 0.0000 15.5750
v -47.4250 4.0000 15.5750
v -43.5750 4.0000 15.5750
v -43.5750 4.0000 19.4250
v -47.4250 4.0000 19.4250
v -47.4250 0.0000 15.5750
v -43.5750 0.0000 15.5750
v -43.5750 4.0000 15.5750
v -47.4250 4.0000 15.5750
v -43.5750 0.0000 19.4250
v -47.4250 0.0000 19.4250
v -47.4250 4.0000 19.4250
v -43.5750 4.0000 19.4250
v -43.5750 0.0000 15.5750
v -43.5750 0.0000 19.4250
v -43.5750 4.0000 19.4250
v -43.5750 4.0000 15.5750
v -47.4250 0.0000 19.4250
v -47.4250 0.0000 15.5750
v -47.4250 4.0000 15.5750
v -47.4250 4.0000 19.4250
v -43.9250 0.0000 15.5750
v -43.9250 0.0000 19.4250
v -40.0750 0.0000 19.4250
v -40.0750 0.0000 15.5750
v -43.9250 4.0000 15.5750
v -40.0750 4.0000 15.5750
v -40.0750 4.0000 19.4250
v -43.9250 4.0000 19.4250
v -43.9250 0.0000 15.5750
v -40.0750 0.0000 15.5750
v -40.0750 4.0000 15.5750
v -43.9250 4.0000 15.5750
v -40.0750 0.0000 19.4250
v -43.9250 0.0000 19.4250
v -43.9250 4.0000 19.4250
v -40.0750 4.0000 19.4250
v -40.0750 0.0000 15.5750
v -40.0750 0.0000 19.4250
v -40.0750 4.0000 19.4250
v -40.0750 4.0000 15.5750
v -43.9250 0.0000 19.4250
v -43.9250 0.0000 15.5750
v -43.9250 4.0000 15.5750
v -43.9250 4.0000 19.4250
v -40.4250 0.0000 15.5750
v -40.4250 0.0000 19.4250
v -36.5750 0.0000 19.4250
v -36.5750 0.0000 15.5750
v -40.4250 4.0000 15.5750
v -36.5750 4.0000 15.5750
v -36.5750 4.0000 19.4250
v -40.4250 4.0000 19.4250
v -40.4250 0.0000 15.5750
v -36.5750 0.0000 15.5750
v -36.5750 4.0000 15.5750
v -40.4250 4.0000 15.5750
v -36.5750 0.0000 19.4250
v -40.4250 0.0000 19.4250
v -40.4250 4.0000 19.4250
v -36.5750 4.0000 19.4250
v -36.5750 0.0000 15.5750
v -36.5750 0.0000 19.4250
v -36.5750 4.0000 19.4250
v -36.5750 4.0000 15.5750
v -40.4250 0.0000 19.4250
v -40.4250 0.0000 15.5750
v -40.4250 4.0000 15.5750
v -40.4250 4.0000 19.4250
v -33.4250 0.0000 15.5750
v -33.4250 0.0000 19.4250
v -29.5750 0.0000 19.4250
v -29.5750 0.0000 15.5750
v -33.4250 4.0000 15.5750
v -29.5750 4.0000 15.5750
v -29.5750 4.0000 19.4250
v -33.4250 4.0000 19.4250
v -33.4250 0.0000 15.5750
v -29.5750 0.0000 15.5750
v -29.5750 4.0000 15.5750
v -33.4250 4.0000 15.5750
v -29.5750 0.0000 19.4250
v -33.4250 0.0000 19.4250
v -33.4250 4.0000 19.4250
v -29.5750 4.0000 19.4250
v -29.5750 0.0000 15.5750
v -29.5750 0.0000 19.4250
v -29.5750 4.0000 19.4250
v -29.5750 4.0000 15.5750
v -33.4250 0.0000 19.4250
v -33.4250 0.0000 15.5750
v -33.4250 4.0000 15.5750
v -33.4250 4.0000 19.4250
v -26.4250 0.0000 15.5750
v -26.4250 0.0000 19.4250
v -22.5750 0.0000 19.4250
v -22.5750 0.0000 15.5750
v -26.4250 4.0000 15.5750
v -22.5750 4.0000 15.5750
v -22.5750 4.0000 19.4250
v -26.4250 4.0000 19.4250
v -26.4250 0.0000 15.5750
v -22.5750 0.0000 15.5750
v -22.5750 4.0000 15.5750
v -26.4250 4.0000 15.5750
v -22.5750 0.0000 19.4250
v -26.4250 0.0000 19.4250
v -26.4250 4.0000 19.4250
v -22.5750 4.0000 19.4250
v -22.5750 0.0000 15.5750
v -22.5750 0.0000 19.4250
v -22.5750 4.0000 19.4250
v -22.5750 4.0000 15.5750
v -26.4250 0.0000 19.4250
v -26.4250 0.0000 15.5750
v -26.4250 4.0000 15.5750
v -26.4250 4.0000 19.4250
v -42.8000 3.8300 -14.1750
v -41.2000 3.8300 -14.1750
v -41.2000 3.8300 -13.8250
v -42.8000 3.8300 -13.8250
v -42.8000 3.9300 -14.1750
v -41.2000 3.9300 -14.1750
v -41.2000 3.9300 -13.8250
v -42.8000 3.9300 -13.8250
v -42.9500 3.9100 -14.3000
v -42.9500 3.9100 -13.7000
v -41.0500 3.9100 -13.7000
v -41.0500 3.9100 -14.3000
v -42.9500 3.9900 -14.3000
v -41.0500 3.9900 -14.3000
v -41.0500 3.9900 -13.7000
v -42.9500 3.9900 -13.7000
v -42.9500 3.9100 -14.3000
v -41.0500 3.9100 -14.3000
v -41.0500 3.9900 -14.3000
v -42.9500 3.9900 -14.3000
v -41.0500 3.9100 -13.7000
v -42.9500 3.9100 -13.7000
v -42.9500 3.9900 -13.7000
v -41.0500 3.9900 -13.7000
v -41.0500 3.9100 -14.3000
v -41.0500 3.9100 -13.7000
v -41.0500 3.9900 -13.7000
v -41.0500 3.9900 -14.3000
v -42.9500 3.9100 -13.7000
v -42.9500 3.9100 -14.3000
v -42.9500 3.9900 -14.3000
v -42.9500 3.9900 -13.7000
v -28.8000 3.8300 -14.1750
v -27.2000 3.8300 -14.1750
v -27.2000 3.8300 -13.8250
v -28.8000 3.8300 -13.8250
v -28.8000 3.9300 -14.1750
v -27.2000 3.9300 -14.1750
v -27.2000 3.9300 -13.8250
v -28.8000 3.9300 -13.8250
v -28.9500 3.9100 -14.3000
v -28.9500 3.9100 -13.7000
v -27.0500 3.9100 -13.7000
v -27.0500 3.9100 -14.3000
v -28.9500 3.9900 -14.3000
v -27.0500 3.9900 -14.3000
v -27.0500 3.9900 -13.7000
v -28.9500 3.9900 -13.7000
v -28.9500 3.9100 -14.3000
v -27.0500 3.9100 -14.3000
v -27.0500 3.9900 -14.3000
v -28.9500 3.9900 -14.3000
v -27.0500 3.9100 -13.7000
v -28.9500 3.9100 -13.7000
v -28.9500 3.9900 -13.7000
v -27.0500 3.9900 -13.7000
v -27.0500 3.9100 -14.3000
v -27.0500 3.9100 -13.7000
v -27.0500 3.9900 -13.7000
v -27.0500 3.9900 -14.3000
v -28.9500 3.9100 -13.7000
v -28.9500 3.9100 -14.3000
v -28.9500 3.9900 -14.3000
v -28.9500 3.9900 -13.7000
v -56.8000 3.8300 -7.1750
v -55.2000 3.8300 -7.1750
v -55.2000 3.8300 -6.8250
v -56.8000 3.8300 -6.8250
v -56.8000 3.9300 -7.1750
v -55.2000 3.9300 -7.1750
v -55.2000 3.9300 -6.8250
v -56.8000 3.9300 -6.8250
v -56.9500 3.9100 -7.3000
v -56.9500 3.9100 -6.7000
v -55.0500 3.9100 -6.7000
v -55.0500 3.9100 -7.3000
v -56.9500 3.9900 -7.3000
v -55.0500 3.9900 -7.3000
v -55.0500 3.9900 -6.7000
v -56.9500 3.9900 -6.7000
v -56.9500 3.9100 -7.3000
v -55.0500 3.9100 -7.3000
v -55.0500 3.9900 -7.3000
v -56.9500 3.9900 -7.3000
v -55.0500 3.9100 -6.7000
v -56.9500 3.9100 -6.7000
v -56.9500 3.9900 -6.7000
v -55.0500 3.9900 -6.7000
v -55.0500 3.9100 -7.3000
v -55.0500 3.9100 -6.7000
v -55.0500 3.9900 -6.7000
v -55.0500 3.9900 -7.3000
v -56.9500 3.9100 -6.7000
v -56.9500 3.9100 -7.3000
v -56.9500 3.9900 -7.3000
v -56.9500 3.9900 -6.7000
v -28.8000 3.8300 -7.1750
v -27.2000 3.8300 -7.1750
v -27.2000 3.8300 -6.8250
v -28.8000 3.8300 -6.8250
v -28.8000 3.9300 -7.1750
v -27.2000 3.9300 -7.1750
v -27.2000 3.9300 -6.8250
v -28.8000 3.9300 -6.8250
v -28.9500 3.9100 -7.3000
v -28.9500 3.9100 -6.7000
v -27.0500 3.9100 -6.7000
v -27.0500 3.9100 -7.3000
v -28.9500 3.9900 -7.3000
v -27.0500 3.9900 -7.3000
v -27.0500 3.9900 -6.7000
v -28.9500 3.9900 -6.7000
v -28.9500 3.9100 -7.3000
v -27.0500 3.9100 -7.3000
v -27.0500 3.9900 -7.3000
v -28.9500 3.9900 -7.3000
v -27.0500 3.9100 -6.7000
v -28.9500 3.9100 -6.7000
v -28.9500 3.9900 -6.7000
v -27.0500 3.9900 -6.7000
v -27.0500 3.9100 -7.3000
v -27.0500 3.9100 -6.7000
v -27.0500 3.9900 -6.7000
v -27.0500 3.9900 -7.3000
v -28.9500 3.9100 -6.7000
v -28.9500 3.9100 -7.3000
v -28.9500 3.9900 -7.3000
v -28.9500 3.9900 -6.7000
v -21.8000 3.8300 -7.1750
v -20.2000 3.8300 -7.1750
v -20.2000 3.8300 -6.8250
v -21.8000 3.8300 -6.8250
v -21.8000 3.9300 -7.1750
v -20.2000 3.9300 -7.1750
v -20.2000 3.9300 -6.8250
v -21.8000 3.9300 -6.8250
v -21.9500 3.9100 -7.3000
v -21.9500 3.9100 -6.7000
v -20.0500 3.9100 -6.7000
v -20.0500 3.9100 -7.3000
v -21.9500 3.9900 -7.3000
v -20.0500 3.9900 -7.3000
v -20.0500 3.9900 -6.7000
v -21.9500 3.9900 -6.7000
v -21.9500 3.9100 -7.3000
v -20.0500 3.9100 -7.3000
v -20.0500 3.9900 -7.3000
v -21.9500 3.9900 -7.3000
v -20.0500 3.9100 -6.7000
v -21.9500 3.9100 -6.7000
v -21.9500 3.9900 -6.7000
v -20.0500 3.9900 -6.7000
v -20.0500 3.9100 -7.3000
v -20.0500 3.9100 -6.7000
v -20.0500 3.9900 -6.7000
v -20.0500 3.9900 -7.3000
v -21.9500 3.9100 -6.7000
v -21.9500 3.9100 -7.3000
v -21.9500 3.9900 -7.3000
v -21.9500 3.9900 -6.7000
v -35.8000 3.8300 13.8250
v -34.2000 3.8300 13.8250
v -34.2000 3.8300 14.1750
v -35.8000 3.8300 14.1750
v -35.8000 3.9300 13.8250
v -34.2000 3.9300 13.8250
v -34.2000 3.9300 14.1750
v -35.8000 3.9300 14.1750
v -35.9500 3.9100 13.7000
v -35.9500 3.9100 14.3000
v -34.0500 3.9100 14.3000
v -34.0500 3.9100 13.7000
v -35.9500 3.9900 13.7000
v -34.0500 3.9900 13.7000
v -34.0500 3.9900 14.3000
v -35.9500 3.9900 14.3000
v -35.9500 3.9100 13.7000
v -34.0500 3.9100 13.7000
v -34.0500 3.9900 13.7000
v -35.9500 3.9900 13.7000
v -34.0500 3.9100 14.3000
v -35.9500 3.9100 14.3000
v -35.9500 3.9900 14.3000
v -34.0500 3.9900 14.3000
v -34.0500 3.9100 13.7000
v -34.0500 3.9100 14.3000
v -34.0500 3.9900 14.3000
v -34.0500 3.9900 13.7000
v -35.9500 3.9100 14.3000
v -35.9500 3.9100 13.7000
v -35.9500 3.9900 13.7000
v -35.9500 3.9900 14.3000
v -42.8000 3.8300 20.8250
v -41.2000 3.8300 20.8250
v -41.2000 3.8300 21.1750
v -42.8000 3.8300 21.1750
v -42.8000 3.9300 20.8250
v -41.2000 3.9300 20.8250
v -41.2000 3.9300 21.1750
v -42.8000 3.9300 21.1750
v -42.9500 3.9100 20.7000
v -42.9500 3.9100 21.3000
v -41.0500 3.9100 21.3000
v -41.0500 3.9100 20.7000
v -42.9500 3.9900 20.7000
v -41.0500 3.9900 20.7000
v -41.0500 3.9900 21.3000
v -42.9500 3.9900 21.3000
v -42.9500 3.9100 20.7000
v -41.0500 3.9100 20.7000
v -41.0500 3.9900 20.7000
v -42.9500 3.9900 20.7000
v -41.0500 3.9100 21.3000
v -42.9500 3.9100 21.3000
v -42.9500 3.9900 21.3000
v -41.0500 3.9900 21.3000
v -41.0500 3.9100 20.7000
v -41.0500 3.9100 21.3000
v -41.0500 3.9900 21.3000
v -41.0500 3.9900 20.7000
v -42.9500 3.9100 21.3000
v -42.9500 3.9100 20.7000
v -42.9500 3.9900 20.7000
v -42.9500 3.9900 21.3000
v -35.8000 3.8300 20.8250
v -34.2000 3.8300 20.8250
v -34.2000 3.8300 21.1750
v -35.8000 3.8300 21.1750
v -35.8000 3.9300 20.8250
v -34.2000 3.9300 20.8250
v -34.2000 3.9300 21.1750
v -35.8000 3.9300 21.1750
v -35.9500 3.9100 20.7000
v -35.9500 3.9100 21.3000
v -34.0500 3.9100 21.3000
v -34.0500 3.9100 20.7000
v -35.9500 3.9900 20.7000
v -34.0500 3.9900 20.7000
v -34.0500 3.9900 21.3000
v -35.9500 3.9900 21.3000
v -35.9500 3.9100 20.7000
v -34.0500 3.9100 20.7000
v -34.0500 3.9900 20.7000
v -35.9500 3.9900 20.7000
v -34.0500 3.9100 21.3000
v -35.9500 3.9100 21.3000
v -35.9500 3.9900 21.3000
v -34.0500 3.9900 21.3000
v -34.0500 3.9100 20.7000
v -34.0500 3.9100 21.3000
v -34.0500 3.9900 21.3000
v -34.0500 3.9900 20.7000
v -35.9500 3.9100 21.3000
v -35.9500 3.9100 20.7000
v -35.9500 3.9900 20.7000
v -35.9500 3.9900 21.3000
v -28.8000 3.8300 20.8250
v -27.2000 3.8300 20.8250
v -27.2000 3.8300 21.1750
v -28.8000 3.8300 21.1750
v -28.8000 3.9300 20.8250
v -27.2000 3.9300 20.8250
v -27.2000 3.9300 21.1750
v -28.8000 3.9300 21.1750
v -28.9500 3.9100 20.7000
v -28.9500 3.9100 21.3000
v -27.0500 3.9100 21.3000
v -27.0500 3.9100 20.7000
v -28.9500 3.9900 20.7000
v -27.0500 3.9900 20.7000
v -27.0500 3.9900 21.3000
v -28.9500 3.9900 21.3000
v -28.9500 3.9100 20.7000
v -27.0500 3.9100 20.7000
v -27.0500 3.9900 20.7000
v -28.9500 3.9900 20.7000
v -27.0500 3.9100 21.3000
v -28.9500 3.9100 21.3000
v -28.9500 3.9900 21.3000
v -27.0500 3.9900 21.3000
v -27.0500 3.9100 20.7000
v -27.0500 3.9100 21.3000
v -27.0500 3.9900 21.3000
v -27.0500 3.9900 20.7000
v -28.9500 3.9100 21.3000
v -28.9500 3.9100 20.7000
v -28.9500 3.9900 20.7000
v -28.9500 3.9900 21.3000
vt -21.7700 -7.7700
vt -21.7700 -6.2300
vt -20.2300 -6.2300
vt -20.2300 -7.7700
vt -21.7700 -7.7700
vt -20.2300 -7.7700
vt -20.2300 -6.2300
vt -21.7700 -6.2300
vt -21.7700 0.0000
vt -20.2300 0.0000
vt -20.2300 1.6000
vt -21.7700 1.6000
vt -20.2300 0.0000
vt -21.7700 0.0000
vt -21.7700 1.6000
vt -20.2300 1.6000
vt -7.7700 0.0000
vt -6.2300 0.0000
vt -6.2300 1.6000
vt -7.7700 1.6000
vt -6.2300 0.0000
vt -7.7700 0.0000
vt -7.7700 1.6000
vt -6.2300 1.6000
vt -18.9700 -7.7700
vt -18.9700 -6.2300
vt -17.4300 -6.2300
vt -17.4300 -7.7700
vt -18.9700 -7.7700
vt -17.4300 -7.7700
vt -17.4300 -6.2300
vt -18.9700 -6.2300
vt -18.9700 0.0000
vt -17.4300 0.0000
vt -17.4300 1.6000
vt -18.9700 1.6000
vt -17.4300 0.0000
vt -18.9700 0.0000
vt -18.9700 1.6000
vt -17.4300 1.6000
vt -7.7700 0.0000
vt -6.2300 0.0000
vt -6.2300 1.6000
vt -7.7700 1.6000
vt -6.2300 0.0000
vt -7.7700 0.0000
vt -7.7700 1.6000
vt -6.2300 1.6000
vt -16.1700 -7.7700
vt -16.1700 -6.2300
vt -14.6300 -6.2300
vt -14.6300 -7.7700
vt -16.1700 -7.7700
vt -14.6300 -7.7700
vt -14.6300 -6.2300
vt -16.1700 -6.2300
vt -16.1700 0.0000
vt -14.6300 0.0000
vt -14.6300 1.6000
vt -16.1700 1.6000
vt -14.6300 0.0000
vt -16.1700 0.0000
vt -16.1700 1.6000
vt -14.6300 1.6000
vt -7.7700 0.0000
vt -6.2300 0.0000
vt -6.2300 1.6000
vt -7.7700 1.6000
vt -6.2300 0.0000
vt -7.7700 0.0000
vt -7.7700 1.6000
vt -6.2300 1.6000
vt -13.3700 -7.7700
vt -13.3700 -6.2300
vt -11.8300 -6.2300
vt -11.8300 -7.7700
vt -13.3700 -7.7700
vt -11.8300 -7.7700
vt -11.8300 -6.2300
vt -13.3700 -6.2300
vt -13.3700 0.0000
vt -11.8300 0.0000
vt -11.8300 1.6000
vt -13.3700 1.6000
vt -11.8300 0.0000
vt -13.3700 0.0000
vt -13.3700 1.6000
vt -11.8300 1.6000
vt -7.7700 0.0000
vt -6.2300 0.0000
vt -6.2300 1.6000
vt -7.7700 1.6000
vt -6.2300 0.0000
vt -7.7700 0.0000
vt -7.7700 1.6000
vt -6.2300 1.6000
vt -10.5700 -7.7700
vt -10.5700 -6.2300
vt -9.0300 -6.2300
vt -9.0300 -7.7700
vt -10.5700 -7.7700
vt -9.0300 -7.7700
vt -9.0300 -6.2300
vt -10.5700 -6.2300
vt -10.5700 0.0000
vt -9.0300 0.0000
vt -9.0300 1.6000
vt -10.5700 1.6000
vt -9.0300 0.0000
vt -10.5700 0.0000
vt -10.5700 1.6000
vt -9.0300 1.6000
vt -7.7700 0.0000
vt -6.2300 0.0000
vt -6.2300 1.6000
vt -7.7700 1.6000
vt -6.2300 0.0000
vt -7.7700 0.0000
vt -7.7700 1.6000
vt -6.2300 1.6000
vt -13.3700 -6.3700
vt -13.3700 -4.8300
vt -11.8300 -4.8300
vt -11.8300 -6.3700
vt -13.3700 -6.3700
vt -11.8300 -6.3700
vt -11.8300 -4.8300
vt -13.3700 -4.8300
vt -13.3700 0.0000
vt -11.8300 0.0000
vt -11.8300 1.6000
vt -13.3700 1.6000
vt -11.8300 0.0000
vt -13.3700 0.0000
vt -13.3700 1.6000
vt -11.8300 1.6000
vt -6.3700 0.0000
vt -4.8300 0.0000
vt -4.8300 1.6000
vt -6.3700 1.6000
vt -4.8300 0.0000
vt -6.3700 0.0000
vt -6.3700 1.6000
vt -4.8300 1.6000
vt -21.7700 -4.9700
vt -21.7700 -3.4300
vt -20.2300 -3.4300
vt -20.2300 -4.9700
vt -21.7700 -4.9700
vt -20.2300 -4.9700
vt -20.2300 -3.4300
vt -21.7700 -3.4300
vt -21.7700 0.0000
vt -20.2300 0.0000
vt -20.2300 1.6000
vt -21.7700 1.6000
vt -20.2300 0.0000
vt -21.7700 0.0000
vt -21.7700 1.6000
vt -20.2300 1.6000
vt -4.9700 0.0000
vt -3.4300 0.0000
vt -3.4300 1.6000
vt -4.9700 1.6000
vt -3.4300 0.0000
vt -4.9700 0.0000
vt -4.9700 1.6000
vt -3.4300 1.6000
vt -18.9700 -4.9700
vt -18.9700 -3.4300
vt -17.4300 -3.4300
vt -17.4300 -4.9700
vt -18.9700 -4.9700
vt -17.4300 -4.9700
vt -17.4300 -3.4300
vt -18.9700 -3.4300
vt -18.9700 0.0000
vt -17.4300 0.0000
vt -17.4300 1.6000
vt -18.9700 1.6000
vt -17.4300 0.0000
vt -18.9700 0.0000
vt -18.9700 1.6000
vt -17.4300 1.6000
vt -4.9700 0.0000
vt -3.4300 0.0000
vt -3.4300 1.6000
vt -4.9700 1.6000
vt -3.4300 0.0000
vt -4.9700 0.0000
vt -4.9700 1.6000
vt -3.4300 1.6000
vt -16.1700 -4.9700
vt -16.1700 -3.4300
vt -14.6300 -3.4300
vt -14.6300 -4.9700
vt -16.1700 -4.9700
vt -14.6300 -4.9700
vt -14.6300 -3.4300
vt -16.1700 -3.4300
vt -16.1700 0.0000
vt -14.6300 0.0000
vt -14.6300 1.6000
vt -16.1700 1.6000
vt -14.6300 0.0000
vt -16.1700 0.0000
vt -16.1700 1.6000
vt -14.6300 1.6000
vt -4.9700 0.0000
vt -3.4300 0.0000
vt -3.4300 1.6000
vt -4.9700 1.6000
vt -3.4300 0.0000
vt -4.9700 0.0000
vt -4.9700 1.6000
vt -3.4300 1.6000
vt -13.3700 -4.9700
vt -13.3700 -3.4300
vt -11.8300 -3.4300
vt -11.8300 -4.9700
vt -13.3700 -4.9700
vt -11.8300 -4.9700
vt -11.8300 -3.4300
vt -13.3700 -3.4300
vt -13.3700 0.0000
vt -11.8300 0.0000
vt -11.8300 1.6000
vt -13.3700 1.6000
vt -11.8300 0.0000
vt -13.3700 0.0000
vt -13.3700 1.6000
vt -11.8300 1.6000
vt -4.9700 0.0000
vt -3.4300 0.0000
vt -3.4300 1.6000
vt -4.9700 1.6000
vt -3.4300 0.0000
vt -4.9700 0.0000
vt -4.9700 1.6000
vt -3.4300 1.6000
vt -10.5700 -4.9700
vt -10.5700 -3.4300
vt -9.0300 -3.4300
vt -9.0300 -4.9700
vt -10.5700 -4.9700
vt -9.0300 -4.9700
vt -9.0300 -3.4300
vt -10.5700 -3.4300
vt -10.5700 0.0000
vt -9.0300 0.0000
vt -9.0300 1.6000
vt -10.5700 1.6000
vt -9.0300 0.0000
vt -10.5700 0.0000
vt -10.5700 1.6000
vt -9.0300 1.6000
vt -4.9700 0.0000
vt -3.4300 0.0000
vt -3.4300 1.6000
vt -4.9700 1.6000
vt -3.4300 0.0000
vt -4.9700 0.0000
vt -4.9700 1.6000
vt -3.4300 1.6000
vt -18.9700 -3.5700
vt -18.9700 -2.0300
vt -17.4300 -2.0300
vt -17.4300 -3.5700
vt -18.9700 -3.5700
vt -17.4300 -3.5700
vt -17.4300 -2.0300
vt -18.9700 -2.0300
vt -18.9700 0.0000
vt -17.4300 0.0000
vt -17.4300 1.6000
vt -18.9700 1.6000
vt -17.4300 0.0000
vt -18.9700 0.0000
vt -18.9700 1.6000
vt -17.4300 1.6000
vt -3.5700 0.0000
vt -2.0300 0.0000
vt -2.0300 1.6000
vt -3.5700 1.6000
vt -2.0300 0.0000
vt -3.5700 0.0000
vt -3.5700 1.6000
vt -2.0300 1.6000
vt -16.1700 -3.5700
vt -16.1700 -2.0300
vt -14.6300 -2.0300
vt -14.6300 -3.5700
vt -16.1700 -3.5700
vt -14.6300 -3.5700
vt -14.6300 -2.0300
vt -16.1700 -2.0300
vt -16.1700 0.0000
vt -14.6300 0.0000
vt -14.6300 1.6000
vt -16.1700 1.6000
vt -14.6300 0.0000
vt -16.1700 0.0000
vt -16.1700 1.6000
vt -14.6300 1.6000
vt -3.5700 0.0000
vt -2.0300 0.0000
vt -2.0300 1.6000
vt -3.5700 1.6000
vt -2.0300 0.0000
vt -3.5700 0.0000
vt -3.5700 1.6000
vt -2.0300 1.6000
vt -13.3700 -3.5700
vt -13.3700 -2.0300
vt -11.8300 -2.0300
vt -11.8300 -3.5700
vt -13.3700 -3.5700
vt -11.8300 -3.5700
vt -11.8300 -2.0300
vt -13.3700 -2.0300
vt -13.3700 0.0000
vt -11.8300 0.0000
vt -11.8300 1.6000
vt -13.3700 1.6000
vt -11.8300 0.0000
vt -13.3700 0.0000
vt -13.3700 1.6000
vt -11.8300 1.6000
vt -3.5700 0.0000
vt -2.0300 0.0000
vt -2.0300 1.6000
vt -3.5700 1.6000
vt -2.0300 0.0000
vt -3.5700 0.0000
vt -3.5700 1.6000
vt -2.0300 1.6000
vt -21.7700 -2.1700
vt -21.7700 -0.6300
vt -20.2300 -0.6300
vt -20.2300 -2.1700
vt -21.7700 -2.1700
vt -20.2300 -2.1700
vt -20.2300 -0.6300
vt -21.7700 -0.6300
vt -21.7700 0.0000
vt -20.2300 0.0000
vt -20.2300 1.6000
vt -21.7700 1.6000
vt -20.2300 0.0000
vt -21.7700 0.0000
vt -21.7700 1.6000
vt -20.2300 1.6000
vt -2.1700 0.0000
vt -0.6300 0.0000
vt -0.6300 1.6000
vt -2.1700 1.6000
vt -0.6300 0.0000
vt -2.1700 0.0000
vt -2.1700 1.6000
vt -0.6300 1.6000
vt -18.9700 -2.1700
vt -18.9700 -0.6300
vt -17.4300 -0.6300
vt -17.4300 -2.1700
vt -18.9700 -2.1700
vt -17.4300 -2.1700
vt -17.4300 -0.6300
vt -18.9700 -0.6300
vt -18.9700 0.0000
vt -17.4300 0.0000
vt -17.4300 1.6000
vt -18.9700 1.6000
vt -17.4300 0.0000
vt -18.9700 0.0000
vt -18.9700 1.6000
vt -17.4300 1.6000
vt -2.1700 0.0000
vt -0.6300 0.0000
vt -0.6300 1.6000
vt -2.1700 1.6000
vt -0.6300 0.0000
vt -2.1700 0.0000
vt -2.1700 1.6000
vt -0.6300 1.6000
vt -16.1700 -2.1700
vt -16.1700 -0.6300
vt -14.6300 -0.6300
vt -14.6300 -2.1700
vt -16.1700 -2.1700
vt -14.6300 -2.1700
vt -14.6300 -0.6300
vt -16.1700 -0.6300
vt -16.1700 0.0000
vt -14.6300 0.0000
vt -14.6300 1.6000
vt -16.1700 1.6000
vt -14.6300 0.0000
vt -16.1700 0.0000
vt -16.1700 1.6000
vt -14.6300 1.6000
vt -2.1700 0.0000
vt -0.6300 0.0000
vt -0.6300 1.6000
vt -2.1700 1.6000
vt -0.6300 0.0000
vt -2.1700 0.0000
vt -2.1700 1.6000
vt -0.6300 1.6000
vt -13.3700 -2.1700
vt -13.3700 -0.6300
vt -11.8300 -0.6300
vt -11.8300 -2.1700
vt -13.3700 -2.1700
vt -11.8300 -2.1700
vt -11.8300 -0.6300
vt -13.3700 -0.6300
vt -13.3700 0.0000
vt -11.8300 0.0000
vt -11.8300 1.6000
vt -13.3700 1.6000
vt -11.8300 0.0000
vt -13.3700 0.0000
vt -13.3700 1.6000
vt -11.8300 1.6000
vt -2.1700 0.0000
vt -0.6300 0.0000
vt -0.6300 1.6000
vt -2.1700 1.6000
vt -0.6300 0.0000
vt -2.1700 0.0000
vt -2.1700 1.6000
vt -0.6300 1.6000
vt -10.5700 -2.1700
vt -10.5700 -0.6300
vt -9.0300 -0.6300
vt -9.0300 -2.1700
vt -10.5700 -2.1700
vt -9.0300 -2.1700
vt -9.0300 -0.6300
vt -10.5700 -0.6300
vt -10.5700 0.0000
vt -9.0300 0.0000
vt -9.0300 1.6000
vt -10.5700 1.6000
vt -9.0300 0.0000
vt -10.5700 0.0000
vt -10.5700 1.6000
vt -9.0300 1.6000
vt -2.1700 0.0000
vt -0.6300 0.0000
vt -0.6300 1.6000
vt -2.1700 1.6000
vt -0.6300 0.0000
vt -2.1700 0.0000
vt -2.1700 1.6000
vt -0.6300 1.6000
vt -21.7700 -0.7700
vt -21.7700 0.7700
vt -20.2300 0.7700
vt -20.2300 -0.7700
vt -21.7700 -0.7700
vt -20.2300 -0.7700
vt -20.2300 0.7700
vt -21.7700 0.7700
vt -21.7700 0.0000
vt -20.2300 0.0000
vt -20.2300 1.6000
vt -21.7700 1.6000
vt -20.2300 0.0000
vt -21.7700 0.0000
vt -21.7700 1.6000
vt -20.2300 1.6000
vt -0.7700 0.0000
vt 0.7700 0.0000
vt 0.7700 1.6000
vt -0.7700 1.6000
vt 0.7700 0.0000
vt -0.7700 0.0000
vt -0.7700 1.6000
vt 0.7700 1.6000
vt -13.3700 -0.7700
vt -13.3700 0.7700
vt -11.8300 0.7700
vt -11.8300 -0.7700
vt -13.3700 -0.7700
vt -11.8300 -0.7700
vt -11.8300 0.7700
vt -13.3700 0.7700
vt -13.3700 0.0000
vt -11.8300 0.0000
vt -11.8300 1.6000
vt -13.3700 1.6000
vt -11.8300 0.0000
vt -13.3700 0.0000
vt -13.3700 1.6000
vt -11.8300 1.6000
vt -0.7700 0.0000
vt 0.7700 0.0000
vt 0.7700 1.6000
vt -0.7700 1.6000
vt 0.7700 0.0000
vt -0.7700 0.0000
vt -0.7700 1.6000
vt 0.7700 1.6000
vt -10.5700 -0.7700
vt -10.5700 0.7700
vt -9.0300 0.7700
vt -9.0300 -0.7700
vt -10.5700 -0.7700
vt -9.0300 -0.7700
vt -9.0300 0.7700
vt -10.5700 0.7700
vt -10.5700 0.0000
vt -9.0300 0.0000
vt -9.0300 1.6000
vt -10.5700 1.6000
vt -9.0300 0.0000
vt -10.5700 0.0000
vt -10.5700 1.6000
vt -9.0300 1.6000
vt -0.7700 0.0000
vt 0.7700 0.0000
vt 0.7700 1.6000
vt -0.7700 1.6000
vt 0.7700 0.0000
vt -0.7700 0.0000
vt -0.7700 1.6000
vt 0.7700 1.6000
vt -21.7700 0.6300
vt -21.7700 2.1700
vt -20.2300 2.1700
vt -20.2300 0.6300
vt -21.7700 0.6300
vt -20.2300 0.6300
vt -20.2300 2.1700
vt -21.7700 2.1700
vt -21.7700 0.0000
vt -20.2300 0.0000
vt -20.2300 1.6000
vt -21.7700 1.6000
vt -20.2300 0.0000
vt -21.7700 0.0000
vt -21.7700 1.6000
vt -20.2300 1.6000
vt 0.6300 0.0000
vt 2.1700 0.0000
vt 2.1700 1.6000
vt 0.6300 1.6000
vt 2.1700 0.0000
vt 0.6300 0.0000
vt 0.6300 1.6000
vt 2.1700 1.6000
vt -18.9700 0.6300
vt -18.9700 2.1700
vt -17.4300 2.1700
vt -17.4300 0.6300
vt -18.9700 0.6300
vt -17.4300 0.6300
vt -17.4300 2.1700
vt -18.9700 2.1700
vt -18.9700 0.0000
vt -17.4300 0.0000
vt -17.4300 1.6000
vt -18.9700 1.6000
vt -17.4300 0.0000
vt -18.9700 0.0000
vt -18.9700 1.6000
vt -17.4300 1.6000
vt 0.6300 0.0000
vt 2.1700 0.0000
vt 2.1700 1.6000
vt 0.6300 1.6000
vt 2.1700 0.0000
vt 0.6300 0.0000
vt 0.6300 1.6000
vt 2.1700 1.6000
vt -16.1700 0.6300
vt -16.1700 2.1700
vt -14.6300 2.1700
vt -14.6300 0.6300
vt -16.1700 0.6300
vt -14.6300 0.6300
vt -14.6300 2.1700
vt -16.1700 2.1700
vt -16.1700 0.0000
vt -14.6300 0.0000
vt -14.6300 1.6000
vt -16.1700 1.6000
vt -14.6300 0.0000
vt -16.1700 0.0000
vt -16.1700 1.6000
vt -14.6300 1.6000
vt 0.6300 0.0000
vt 2.1700 0.0000
vt 2.1700 1.6000
vt 0.6300 1.6000
vt 2.1700 0.0000
vt 0.6300 0.0000
vt 0.6300 1.6000
vt 2.1700 1.6000
vt -14.7700 0.6300
vt -14.7700 2.1700
vt -13.2300 2.1700
vt -13.2300 0.6300
vt -14.7700 0.6300
vt -13.2300 0.6300
vt -13.2300 2.1700
vt -14.7700 2.1700
vt -14.7700 0.0000
vt -13.2300 0.0000
vt -13.2300 1.6000
vt -14.7700 1.6000
vt -13.2300 0.0000
vt -14.7700 0.0000
vt -14.7700 1.6000
vt -13.2300 1.6000
vt 0.6300 0.0000
vt 2.1700 0.0000
vt 2.1700 1.6000
vt 0.6300 1.6000
vt 2.1700 0.0000
vt 0.6300 0.0000
vt 0.6300 1.6000
vt 2.1700 1.6000
vt -13.3700 0.6300
vt -13.3700 2.1700
vt -11.8300 2.1700
vt -11.8300 0.6300
vt -13.3700 0.6300
vt -11.8300 0.6300
vt -11.8300 2.1700
vt -13.3700 2.1700
vt -13.3700 0.0000
vt -11.8300 0.0000
vt -11.8300 1.6000
vt -13.3700 1.6000
vt -11.8300 0.0000
vt -13.3700 0.0000
vt -13.3700 1.6000
vt -11.8300 1.6000
vt 0.6300 0.0000
vt 2.1700 0.0000
vt 2.1700 1.6000
vt 0.6300 1.6000
vt 2.1700 0.0000
vt 0.6300 0.0000
vt 0.6300 1.6000
vt 2.1700 1.6000
vt -10.5700 0.6300
vt -10.5700 2.1700
vt -9.0300 2.1700
vt -9.0300 0.6300
vt -10.5700 0.6300
vt -9.0300 0.6300
vt -9.0300 2.1700
vt -10.5700 2.1700
vt -10.5700 0.0000
vt -9.0300 0.0000
vt -9.0300 1.6000
vt -10.5700 1.6000
vt -9.0300 0.0000
vt -10.5700 0.0000
vt -10.5700 1.6000
vt -9.0300 1.6000
vt 0.6300 0.0000
vt 2.1700 0.0000
vt 2.1700 1.6000
vt 0.6300 1.6000
vt 2.1700 0.0000
vt 0.6300 0.0000
vt 0.6300 1.6000
vt 2.1700 1.6000
vt -13.3700 2.0300
vt -13.3700 3.5700
vt -11.8300 3.5700
vt -11.8300 2.0300
vt -13.3700 2.0300
vt -11.8300 2.0300
vt -11.8300 3.5700
vt -13.3700 3.5700
vt -13.3700 0.0000
vt -11.8300 0.0000
vt -11.8300 1.6000
vt -13.3700 1.6000
vt -11.8300 0.0000
vt -13.3700 0.0000
vt -13.3700 1.6000
vt -11.8300 1.6000
vt 2.0300 0.0000
vt 3.5700 0.0000
vt 3.5700 1.6000
vt 2.0300 1.6000
vt 3.5700 0.0000
vt 2.0300 0.0000
vt 2.0300 1.6000
vt 3.5700 1.6000
vt -21.7700 3.4300
vt -21.7700 4.9700
vt -20.2300 4.9700
vt -20.2300 3.4300
vt -21.7700 3.4300
vt -20.2300 3.4300
vt -20.2300 4.9700
vt -21.7700 4.9700
vt -21.7700 0.0000
vt -20.2300 0.0000
vt -20.2300 1.6000
vt -21.7700 1.6000
vt -20.2300 0.0000
vt -21.7700 0.0000
vt -21.7700 1.6000
vt -20.2300 1.6000
vt 3.4300 0.0000
vt 4.9700 0.0000
vt 4.9700 1.6000
vt 3.4300 1.6000
vt 4.9700 0.0000
vt 3.4300 0.0000
vt 3.4300 1.6000
vt 4.9700 1.6000
vt -18.9700 3.4300
vt -18.9700 4.9700
vt -17.4300 4.9700
vt -17.4300 3.4300
vt -18.9700 3.4300
vt -17.4300 3.4300
vt -17.4300 4.9700
vt -18.9700 4.9700
vt -18.9700 0.0000
vt -17.4300 0.0000
vt -17.4300 1.6000
vt -18.9700 1.6000
vt -17.4300 0.0000
vt -18.9700 0.0000
vt -18.9700 1.6000
vt -17.4300 1.6000
vt 3.4300 0.0000
vt 4.9700 0.0000
vt 4.9700 1.6000
vt 3.4300 1.6000
vt 4.9700 0.0000
vt 3.4300 0.0000
vt 3.4300 1.6000
vt 4.9700 1.6000
vt -16.1700 3.4300
vt -16.1700 4.9700
vt -14.6300 4.9700
vt -14.6300 3.4300
vt -16.1700 3.4300
vt -14.6300 3.4300
vt -14.6300 4.9700
vt -16.1700 4.9700
vt -16.1700 0.0000
vt -14.6300 0.0000
vt -14.6300 1.6000
vt -16.1700 1.6000
vt -14.6300 0.0000
vt -16.1700 0.0000
vt -16.1700 1.6000
vt -14.6300 1.6000
vt 3.4300 0.0000
vt 4.9700 0.0000
vt 4.9700 1.6000
vt 3.4300 1.6000
vt 4.9700 0.0000
vt 3.4300 0.0000
vt 3.4300 1.6000
vt 4.9700 1.6000
vt -13.3700 3.4300
vt -13.3700 4.9700
vt -11.8300 4.9700
vt -11.8300 3.4300
vt -13.3700 3.4300
vt -11.8300 3.4300
vt -11.8300 4.9700
vt -13.3700 4.9700
vt -13.3700 0.0000
vt -11.8300 0.0000
vt -11.8300 1.6000
vt -13.3700 1.6000
vt -11.8300 0.0000
vt -13.3700 0.0000
vt -13.3700 1.6000
vt -11.8300 1.6000
vt 3.4300 0.0000
vt 4.9700 0.0000
vt 4.9700 1.6000
vt 3.4300 1.6000
vt 4.9700 0.0000
vt 3.4300 0.0000
vt 3.4300 1.6000
vt 4.9700 1.6000
vt -10.5700 3.4300
vt -10.5700 4.9700
vt -9.0300 4.9700
vt -9.0300 3.4300
vt -10.5700 3.4300
vt -9.0300 3.4300
vt -9.0300 4.9700
vt -10.5700 4.9700
vt -10.5700 0.0000
vt -9.0300 0.0000
vt -9.0300 1.6000
vt -10.5700 1.6000
vt -9.0300 0.0000
vt -10.5700 0.0000
vt -10.5700 1.6000
vt -9.0300 1.6000
vt 3.4300 0.0000
vt 4.9700 0.0000
vt 4.9700 1.6000
vt 3.4300 1.6000
vt 4.9700 0.0000
vt 3.4300 0.0000
vt 3.4300 1.6000
vt 4.9700 1.6000
vt -16.1700 4.8300
vt -16.1700 6.3700
vt -14.6300 6.3700
vt -14.6300 4.8300
vt -16.1700 4.8300
vt -14.6300 4.8300
vt -14.6300 6.3700
vt -16.1700 6.3700
vt -16.1700 0.0000
vt -14.6300 0.0000
vt -14.6300 1.6000
vt -16.1700 1.6000
vt -14.6300 0.0000
vt -16.1700 0.0000
vt -16.1700 1.6000
vt -14.6300 1.6000
vt 4.8300 0.0000
vt 6.3700 0.0000
vt 6.3700 1.6000
vt 4.8300 1.6000
vt 6.3700 0.0000
vt 4.8300 0.0000
vt 4.8300 1.6000
vt 6.3700 1.6000
vt -13.3700 4.8300
vt -13.3700 6.3700
vt -11.8300 6.3700
vt -11.8300 4.8300
vt -13.3700 4.8300
vt -11.8300 4.8300
vt -11.8300 6.3700
vt -13.3700 6.3700
vt -13.3700 0.0000
vt -11.8300 0.0000
vt -11.8300 1.6000
vt -13.3700 1.6000
vt -11.8300 0.0000
vt -13.3700 0.0000
vt -13.3700 1.6000
vt -11.8300 1.6000
vt 4.8300 0.0000
vt 6.3700 0.0000
vt 6.3700 1.6000
vt 4.8300 1.6000
vt 6.3700 0.0000
vt 4.8300 0.0000
vt 4.8300 1.6000
vt 6.3700 1.6000
vt -21.7700 6.2300
vt -21.7700 7.7700
vt -20.2300 7.7700
vt -20.2300 6.2300
vt -21.7700 6.2300
vt -20.2300 6.2300
vt -20.2300 7.7700
vt -21.7700 7.7700
vt -21.7700 0.0000
vt -20.2300 0.0000
vt -20.2300 1.6000
vt -21.7700 1.6000
vt -20.2300 0.0000
vt -21.7700 0.0000
vt -21.7700 1.6000
vt -20.2300 1.6000
vt 6.2300 0.0000
vt 7.7700 0.0000
vt 7.7700 1.6000
vt 6.2300 1.6000
vt 7.7700 0.0000
vt 6.2300 0.0000
vt 6.2300 1.6000
vt 7.7700 1.6000
vt -18.9700 6.2300
vt -18.9700 7.7700
vt -17.4300 7.7700
vt -17.4300 6.2300
vt -18.9700 6.2300
vt -17.4300 6.2300
vt -17.4300 7.7700
vt -18.9700 7.7700
vt -18.9700 0.0000
vt -17.4300 0.0000
vt -17.4300 1.6000
vt -18.9700 1.6000
vt -17.4300 0.0000
vt -18.9700 0.0000
vt -18.9700 1.6000
vt -17.4300 1.6000
vt 6.2300 0.0000
vt 7.7700 0.0000
vt 7.7700 1.6000
vt 6.2300 1.6000
vt 7.7700 0.0000
vt 6.2300 0.0000
vt 6.2300 1.6000
vt 7.7700 1.6000
vt -17.5700 6.2300
vt -17.5700 7.7700
vt -16.0300 7.7700
vt -16.0300 6.2300
vt -17.5700 6.2300
vt -16.0300 6.2300
vt -16.0300 7.7700
vt -17.5700 7.7700
vt -17.5700 0.0000
vt -16.0300 0.0000
vt -16.0300 1.6000
vt -17.5700 1.6000
vt -16.0300 0.0000
vt -17.5700 0.0000
vt -17.5700 1.6000
vt -16.0300 1.6000
vt 6.2300 0.0000
vt 7.7700 0.0000
vt 7.7700 1.6000
vt 6.2300 1.6000
vt 7.7700 0.0000
vt 6.2300 0.0000
vt 6.2300 1.6000
vt 7.7700 1.6000
vt -16.1700 6.2300
vt -16.1700 7.7700
vt -14.6300 7.7700
vt -14.6300 6.2300
vt -16.1700 6.2300
vt -14.6300 6.2300
vt -14.6300 7.7700
vt -16.1700 7.7700
vt -16.1700 0.0000
vt -14.6300 0.0000
vt -14.6300 1.6000
vt -16.1700 1.6000
vt -14.6300 0.0000
vt -16.1700 0.0000
vt -16.1700 1.6000
vt -14.6300 1.6000
vt 6.2300 0.0000
vt 7.7700 0.0000
vt 7.7700 1.6000
vt 6.2300 1.6000
vt 7.7700 0.0000
vt 6.2300 0.0000
vt 6.2300 1.6000
vt 7.7700 1.6000
vt -13.3700 6.2300
vt -13.3700 7.7700
vt -11.8300 7.7700
vt -11.8300 6.2300
vt -13.3700 6.2300
vt -11.8300 6.2300
vt -11.8300 7.7700
vt -13.3700 7.7700
vt -13.3700 0.0000
vt -11.8300 0.0000
vt -11.8300 1.6000
vt -13.3700 1.6000
vt -11.8300 0.0000
vt -13.3700 0.0000
vt -13.3700 1.6000
vt -11.8300 1.6000
vt 6.2300 0.0000
vt 7.7700 0.0000
vt 7.7700 1.6000
vt 6.2300 1.6000
vt 7.7700 0.0000
vt 6.2300 0.0000
vt 6.2300 1.6000
vt 7.7700 1.6000
vt -10.5700 6.2300
vt -10.5700 7.7700
vt -9.0300 7.7700
vt -9.0300 6.2300
vt -10.5700 6.2300
vt -9.0300 6.2300
vt -9.0300 7.7700
vt -10.5700 7.7700
vt -10.5700 0.0000
vt -9.0300 0.0000
vt -9.0300 1.6000
vt -10.5700 1.6000
vt -9.0300 0.0000
vt -10.5700 0.0000
vt -10.5700 1.6000
vt -9.0300 1.6000
vt 6.2300 0.0000
vt 7.7700 0.0000
vt 7.7700 1.6000
vt 6.2300 1.6000
vt 7.7700 0.0000
vt 6.2300 0.0000
vt 6.2300 1.6000
vt 7.7700 1.6000
vt -17.1800 -5.7200
vt -17.1800 -5.4800
vt -16.4200 -5.4800
vt -16.4200 -5.7200
vt -17.1800 -5.7200
vt -16.4200 -5.7200
vt -16.4200 -5.4800
vt -17.1800 -5.4800
vt -17.1800 1.5640
vt -16.4200 1.5640
vt -16.4200 1.5960
vt -17.1800 1.5960
vt -16.4200 1.5640
vt -17.1800 1.5640
vt -17.1800 1.5960
vt -16.4200 1.5960
vt -5.7200 1.5640
vt -5.4800 1.5640
vt -5.4800 1.5960
vt -5.7200 1.5960
vt -5.4800 1.5640
vt -5.7200 1.5640
vt -5.7200 1.5960
vt -5.4800 1.5960
vt -11.5800 -5.7200
vt -11.5800 -5.4800
vt -10.8200 -5.4800
vt -10.8200 -5.7200
vt -11.5800 -5.7200
vt -10.8200 -5.7200
vt -10.8200 -5.4800
vt -11.5800 -5.4800
vt -11.5800 1.5640
vt -10.8200 1.5640
vt -10.8200 1.5960
vt -11.5800 1.5960
vt -10.8200 1.5640
vt -11.5800 1.5640
vt -11.5800 1.5960
vt -10.8200 1.5960
vt -5.7200 1.5640
vt -5.4800 1.5640
vt -5.4800 1.5960
vt -5.7200 1.5960
vt -5.4800 1.5640
vt -5.7200 1.5640
vt -5.7200 1.5960
vt -5.4800 1.5960
vt -22.7800 -2.9200
vt -22.7800 -2.6800
vt -22.0200 -2.6800
vt -22.0200 -2.9200
vt -22.7800 -2.9200
vt -22.0200 -2.9200
vt -22.0200 -2.6800
vt -22.7800 -2.6800
vt -22.7800 1.5640
vt -22.0200 1.5640
vt -22.0200 1.5960
vt -22.7800 1.5960
vt -22.0200 1.5640
vt -22.7800 1.5640
vt -22.7800 1.5960
vt -22.0200 1.5960
vt -2.9200 1.5640
vt -2.6800 1.5640
vt -2.6800 1.5960
vt -2.9200 1.5960
vt -2.6800 1.5640
vt -2.9200 1.5640
vt -2.9200 1.5960
vt -2.6800 1.5960
vt -11.5800 -2.9200
vt -11.5800 -2.6800
vt -10.8200 -2.6800
vt -10.8200 -2.9200
vt -11.5800 -2.9200
vt -10.8200 -2.9200
vt -10.8200 -2.6800
vt -11.5800 -2.6800
vt -11.5800 1.5640
vt -10.8200 1.5640
vt -10.8200 1.5960
vt -11.5800 1.5960
vt -10.8200 1.5640
vt -11.5800 1.5640
vt -11.5800 1.5960
vt -10.8200 1.5960
vt -2.9200 1.5640
vt -2.6800 1.5640
vt -2.6800 1.5960
vt -2.9200 1.5960
vt -2.6800 1.5640
vt -2.9200 1.5640
vt -2.9200 1.5960
vt -2.6800 1.5960
vt -8.7800 -2.9200
vt -8.7800 -2.6800
vt -8.0200 -2.6800
vt -8.0200 -2.9200
vt -8.7800 -2.9200
vt -8.0200 -2.9200
vt -8.0200 -2.6800
vt -8.7800 -2.6800
vt -8.7800 1.5640
vt -8.0200 1.5640
vt -8.0200 1.5960
vt -8.7800 1.5960
vt -8.0200 1.5640
vt -8.7800 1.5640
vt -8.7800 1.5960
vt -8.0200 1.5960
vt -2.9200 1.5640
vt -2.6800 1.5640
vt -2.6800 1.5960
vt -2.9200 1.5960
vt -2.6800 1.5640
vt -2.9200 1.5640
vt -2.9200 1.5960
vt -2.6800 1.5960
vt -14.3800 5.4800
vt -14.3800 5.7200
vt -13.6200 5.7200
vt -13.6200 5.4800
vt -14.3800 5.4800
vt -13.6200 5.4800
vt -13.6200 5.7200
vt -14.3800 5.7200
vt -14.3800 1.5640
vt -13.6200 1.5640
vt -13.6200 1.5960
vt -14.3800 1.5960
vt -13.6200 1.5640
vt -14.3800 1.5640
vt -14.3800 1.5960
vt -13.6200 1.5960
vt 5.4800 1.5640
vt 5.7200 1.5640
vt 5.7200 1.5960
vt 5.4800 1.5960
vt 5.7200 1.5640
vt 5.4800 1.5640
vt 5.4800 1.5960
vt 5.7200 1.5960
vt -17.1800 8.2800
vt -17.1800 8.5200
vt -16.4200 8.5200
vt -16.4200 8.2800
vt -17.1800 8.2800
vt -16.4200 8.2800
vt -16.4200 8.5200
vt -17.1800 8.5200
vt -17.1800 1.5640
vt -16.4200 1.5640
vt -16.4200 1.5960
vt -17.1800 1.5960
vt -16.4200 1.5640
vt -17.1800 1.5640
vt -17.1800 1.5960
vt -16.4200 1.5960
vt 8.2800 1.5640
vt 8.5200 1.5640
vt 8.5200 1.5960
vt 8.2800 1.5960
vt 8.5200 1.5640
vt 8.2800 1.5640
vt 8.2800 1.5960
vt 8.5200 1.5960
vt -14.3800 8.2800
vt -14.3800 8.5200
vt -13.6200 8.5200
vt -13.6200 8.2800
vt -14.3800 8.2800
vt -13.6200 8.2800
vt -13.6200 8.5200
vt -14.3800 8.5200
vt -14.3800 1.5640
vt -13.6200 1.5640
vt -13.6200 1.5960
vt -14.3800 1.5960
vt -13.6200 1.5640
vt -14.3800 1.5640
vt -14.3800 1.5960
vt -13.6200 1.5960
vt 8.2800 1.5640
vt 8.5200 1.5640
vt 8.5200 1.5960
vt 8.2800 1.5960
vt 8.5200 1.5640
vt 8.2800 1.5640
vt 8.2800 1.5960
vt 8.5200 1.5960
vt -11.5800 8.2800
vt -11.5800 8.5200
vt -10.8200 8.5200
vt -10.8200 8.2800
vt -11.5800 8.2800
vt -10.8200 8.2800
vt -10.8200 8.5200
vt -11.5800 8.5200
vt -11.5800 1.5640
vt -10.8200 1.5640
vt -10.8200 1.5960
vt -11.5800 1.5960
vt -10.8200 1.5640
vt -11.5800 1.5640
vt -11.5800 1.5960
vt -10.8200 1.5960
vt 8.2800 1.5640
vt 8.5200 1.5640
vt 8.5200 1.5960
vt 8.2800 1.5960
vt 8.5200 1.5640
vt 8.2800 1.5640
vt 8.2800 1.5960
vt 8.5200 1.5960
usemtl lamp_cold
f 1009 1012 1011 1010
f 1013 1014 1015 1016
f 1009 1010 1014 1013
f 1011 1012 1016 1015
f 1010 1011 1015 1014
f 1012 1009 1013 1016
f 1041 1044 1043 1042
f 1045 1046 1047 1048
f 1041 1042 1046 1045
f 1043 1044 1048 1047
f 1042 1043 1047 1046
f 1044 1041 1045 1048
f 1073 1076 1075 1074
f 1077 1078 1079 1080
f 1073 1074 1078 1077
f 1075 1076 1080 1079
f 1074 1075 1079 1078
f 1076 1073 1077 1080
f 1105 1108 1107 1106
f 1109 1110 1111 1112
f 1105 1106 1110 1109
f 1107 1108 1112 1111
f 1106 1107 1111 1110
f 1108 1105 1109 1112
f 1137 1140 1139 1138
f 1141 1142 1143 1144
f 1137 1138 1142 1141
f 1139 1140 1144 1143
f 1138 1139 1143 1142
f 1140 1137 1141 1144
f 1169 1172 1171 1170
f 1173 1174 1175 1176
f 1169 1170 1174 1173
f 1171 1172 1176 1175
f 1170 1171 1175 1174
f 1172 1169 1173 1176
f 1201 1204 1203 1202
f 1205 1206 1207 1208
f 1201 1202 1206 1205
f 1203 1204 1208 1207
f 1202 1203 1207 1206
f 1204 1201 1205 1208
f 1233 1236 1235 1234
f 1237 1238 1239 1240
f 1233 1234 1238 1237
f 1235 1236 1240 1239
f 1234 1235 1239 1238
f 1236 1233 1237 1240
f 1265 1268 1267 1266
f 1269 1270 1271 1272
f 1265 1266 1270 1269
f 1267 1268 1272 1271
f 1266 1267 1271 1270
f 1268 1265 1269 1272
usemtl concrete_dark
f 1/1 2/2 3/3 4/4
f 5/5 6/6 7/7 8/8
f 9/9 10/10 11/11 12/12
f 13/13 14/14 15/15 16/16
f 17/17 18/18 19/19 20/20
f 21/21 22/22 23/23 24/24
usemtl concrete
f 25/25 26/26 27/27 28/28
f 29/29 30/30 31/31 32/32
f 33/33 34/34 35/35 36/36
f 37/37 38/38 39/39 40/40
f 41/41 42/42 43/43 44/44
f 45/45 46/46 47/47 48/48
usemtl concrete_dark
f 49/49 50/50 51/51 52/52
f 53/53 54/54 55/55 56/56
f 57/57 58/58 59/59 60/60
f 61/61 62/62 63/63 64/64
f 65/65 66/66 67/67 68/68
f 69/69 70/70 71/71 72/72
f 73/73 74/74 75/75 76/76
f 77/77 78/78 79/79 80/80
f 81/81 82/82 83/83 84/84
f 85/85 86/86 87/87 88/88
f 89/89 90/90 91/91 92/92
f 93/93 94/94 95/95 96/96
usemtl concrete
f 97/97 98/98 99/99 100/100
f 101/101 102/102 103/103 104/104
f 105/105 106/106 107/107 108/108
f 109/109 110/110 111/111 112/112
f 113/113 114/114 115/115 116/116
f 117/117 118/118 119/119 120/120
f 121/121 122/122 123/123 124/124
f 125/125 126/126 127/127 128/128
f 129/129 130/130 131/131 132/132
f 133/133 134/134 135/135 136/136
f 137/137 138/138 139/139 140/140
f 141/141 142/142 143/143 144/144
f 145/145 146/146 147/147 148/148
f 149/149 150/150 151/151 152/152
f 153/153 154/154 155/155 156/156
f 157/157 158/158 159/159 160/160
f 161/161 162/162 163/163 164/164
f 165/165 166/166 167/167 168/168
f 169/169 170/170 171/171 172/172
f 173/173 174/174 175/175 176/176
f 177/177 178/178 179/179 180/180
f 181/181 182/182 183/183 184/184
f 185/185 186/186 187/187 188/188
f 189/189 190/190 191/191 192/192
f 193/193 194/194 195/195 196/196
f 197/197 198/198 199/199 200/200
f 201/201 202/202 203/203 204/204
f 205/205 206/206 207/207 208/208
f 209/209 210/210 211/211 212/212
f 213/213 214/214 215/215 216/216
f 217/217 218/218 219/219 220/220
f 221/221 222/222 223/223 224/224
f 225/225 226/226 227/227 228/228
f 229/229 230/230 231/231 232/232
f 233/233 234/234 235/235 236/236
f 237/237 238/238 239/239 240/240
f 241/241 242/242 243/243 244/244
f 245/245 246/246 247/247 248/248
f 249/249 250/250 251/251 252/252
f 253/253 254/254 255/255 256/256
f 257/257 258/258 259/259 260/260
f 261/261 262/262 263/263 264/264
f 265/265 266/266 267/267 268/268
f 269/269 270/270 271/271 272/272
f 273/273 274/274 275/275 276/276
f 277/277 278/278 279/279 280/280
f 281/281 282/282 283/283 284/284
f 285/285 286/286 287/287 288/288
f 289/289 290/290 291/291 292/292
f 293/293 294/294 295/295 296/296
f 297/297 298/298 299/299 300/300
f 301/301 302/302 303/303 304/304
f 305/305 306/306 307/307 308/308
f 309/309 310/310 311/311 312/312
usemtl concrete_dark
f 313/313 314/314 315/315 316/316
f 317/317 318/318 319/319 320/320
f 321/321 322/322 323/323 324/324
f 325/325 326/326 327/327 328/328
f 329/329 330/330 331/331 332/332
f 333/333 334/334 335/335 336/336
usemtl concrete
f 337/337 338/338 339/339 340/340
f 341/341 342/342 343/343 344/344
f 345/345 346/346 347/347 348/348
f 349/349 350/350 351/351 352/352
f 353/353 354/354 355/355 356/356
f 357/357 358/358 359/359 360/360
f 361/361 362/362 363/363 364/364
f 365/365 366/366 367/367 368/368
f 369/369 370/370 371/371 372/372
f 373/373 374/374 375/375 376/376
f 377/377 378/378 379/379 380/380
f 381/381 382/382 383/383 384/384
f 385/385 386/386 387/387 388/388
f 389/389 390/390 391/391 392/392
f 393/393 394/394 395/395 396/396
f 397/397 398/398 399/399 400/400
f 401/401 402/402 403/403 404/404
f 405/405 406/406 407/407 408/408
f 409/409 410/410 411/411 412/412
f 413/413 414/414 415/415 416/416
f 417/417 418/418 419/419 420/420
f 421/421 422/422 423/423 424/424
f 425/425 426/426 427/427 428/428
f 429/429 430/430 431/431 432/432
f 433/433 434/434 435/435 436/436
f 437/437 438/438 439/439 440/440
f 441/441 442/442 443/443 444/444
f 445/445 446/446 447/447 448/448
f 449/449 450/450 451/451 452/452
f 453/453 454/454 455/455 456/456
f 457/457 458/458 459/459 460/460
f 461/461 462/462 463/463 464/464
f 465/465 466/466 467/467 468/468
f 469/469 470/470 471/471 472/472
f 473/473 474/474 475/475 476/476
f 477/477 478/478 479/479 480/480
f 481/481 482/482 483/483 484/484
f 485/485 486/486 487/487 488/488
f 489/489 490/490 491/491 492/492
f 493/493 494/494 495/495 496/496
f 497/497 498/498 499/499 500/500
f 501/501 502/502 503/503 504/504
f 505/505 506/506 507/507 508/508
f 509/509 510/510 511/511 512/512
f 513/513 514/514 515/515 516/516
f 517/517 518/518 519/519 520/520
f 521/521 522/522 523/523 524/524
f 525/525 526/526 527/527 528/528
f 529/529 530/530 531/531 532/532
f 533/533 534/534 535/535 536/536
f 537/537 538/538 539/539 540/540
f 541/541 542/542 543/543 544/544
f 545/545 546/546 547/547 548/548
f 549/549 550/550 551/551 552/552
f 553/553 554/554 555/555 556/556
f 557/557 558/558 559/559 560/560
f 561/561 562/562 563/563 564/564
f 565/565 566/566 567/567 568/568
f 569/569 570/570 571/571 572/572
f 573/573 574/574 575/575 576/576
f 577/577 578/578 579/579 580/580
f 581/581 582/582 583/583 584/584
f 585/585 586/586 587/587 588/588
f 589/589 590/590 591/591 592/592
f 593/593 594/594 595/595 596/596
f 597/597 598/598 599/599 600/600
f 601/601 602/602 603/603 604/604
f 605/605 606/606 607/607 608/608
f 609/609 610/610 611/611 612/612
f 613/613 614/614 615/615 616/616
f 617/617 618/618 619/619 620/620
f 621/621 622/622 623/623 624/624
usemtl concrete_dark
f 625/625 626/626 627/627 628/628
f 629/629 630/630 631/631 632/632
f 633/633 634/634 635/635 636/636
f 637/637 638/638 639/639 640/640
f 641/641 642/642 643/643 644/644
f 645/645 646/646 647/647 648/648
usemtl concrete
f 649/649 650/650 651/651 652/652
f 653/653 654/654 655/655 656/656
f 657/657 658/658 659/659 660/660
f 661/661 662/662 663/663 664/664
f 665/665 666/666 667/667 668/668
f 669/669 670/670 671/671 672/672
f 673/673 674/674 675/675 676/676
f 677/677 678/678 679/679 680/680
f 681/681 682/682 683/683 684/684
f 685/685 686/686 687/687 688/688
f 689/689 690/690 691/691 692/692
f 693/693 694/694 695/695 696/696
f 697/697 698/698 699/699 700/700
f 701/701 702/702 703/703 704/704
f 705/705 706/706 707/707 708/708
f 709/709 710/710 711/711 712/712
f 713/713 714/714 715/715 716/716
f 717/717 718/718 719/719 720/720
usemtl concrete_dark
f 721/721 722/722 723/723 724/724
f 725/725 726/726 727/727 728/728
f 729/729 730/730 731/731 732/732
f 733/733 734/734 735/735 736/736
f 737/737 738/738 739/739 740/740
f 741/741 742/742 743/743 744/744
f 745/745 746/746 747/747 748/748
f 749/749 750/750 751/751 752/752
f 753/753 754/754 755/755 756/756
f 757/757 758/758 759/759 760/760
f 761/761 762/762 763/763 764/764
f 765/765 766/766 767/767 768/768
usemtl concrete
f 769/769 770/770 771/771 772/772
f 773/773 774/774 775/775 776/776
f 777/777 778/778 779/779 780/780
f 781/781 782/782 783/783 784/784
f 785/785 786/786 787/787 788/788
f 789/789 790/790 791/791 792/792
f 793/793 794/794 795/795 796/796
f 797/797 798/798 799/799 800/800
f 801/801 802/802 803/803 804/804
f 805/805 806/806 807/807 808/808
f 809/809 810/810 811/811 812/812
f 813/813 814/814 815/815 816/816
usemtl concrete_dark
f 817/817 818/818 819/819 820/820
f 821/821 822/822 823/823 824/824
f 825/825 826/826 827/827 828/828
f 829/829 830/830 831/831 832/832
f 833/833 834/834 835/835 836/836
f 837/837 838/838 839/839 840/840
usemtl concrete
f 841/841 842/842 843/843 844/844
f 845/845 846/846 847/847 848/848
f 849/849 850/850 851/851 852/852
f 853/853 854/854 855/855 856/856
f 857/857 858/858 859/859 860/860
f 861/861 862/862 863/863 864/864
f 865/865 866/866 867/867 868/868
f 869/869 870/870 871/871 872/872
f 873/873 874/874 875/875 876/876
f 877/877 878/878 879/879 880/880
f 881/881 882/882 883/883 884/884
f 885/885 886/886 887/887 888/888
f 889/889 890/890 891/891 892/892
f 893/893 894/894 895/895 896/896
f 897/897 898/898 899/899 900/900
f 901/901 902/902 903/903 904/904
f 905/905 906/906 907/907 908/908
f 909/909 910/910 911/911 912/912
f 913/913 914/914 915/915 916/916
f 917/917 918/918 919/919 920/920
f 921/921 922/922 923/923 924/924
f 925/925 926/926 927/927 928/928
f 929/929 930/930 931/931 932/932
f 933/933 934/934 935/935 936/936
f 937/937 938/938 939/939 940/940
f 941/941 942/942 943/943 944/944
f 945/945 946/946 947/947 948/948
f 949/949 950/950 951/951 952/952
f 953/953 954/954 955/955 956/956
f 957/957 958/958 959/959 960/960
f 961/961 962/962 963/963 964/964
f 965/965 966/966 967/967 968/968
f 969/969 970/970 971/971 972/972
f 973/973 974/974 975/975 976/976
f 977/977 978/978 979/979 980/980
f 981/981 982/982 983/983 984/984
f 985/985 986/986 987/987 988/988
f 989/989 990/990 991/991 992/992
f 993/993 994/994 995/995 996/996
f 997/997 998/998 999/999 1000/1000
f 1001/1001 1002/1002 1003/1003 1004/1004
f 1005/1005 1006/1006 1007/1007 1008/1008
usemtl concrete_dark
f 1017/1009 1018/1010 1019/1011 1020/1012
f 1021/1013 1022/1014 1023/1015 1024/1016
f 1025/1017 1026/1018 1027/1019 1028/1020
f 1029/1021 1030/1022 1031/1023 1032/1024
f 1033/1025 1034/1026 1035/1027 1036/1028
f 1037/1029 1038/1030 1039/1031 1040/1032
f 1049/1033 1050/1034 1051/1035 1052/1036
f 1053/1037 1054/1038 1055/1039 1056/1040
f 1057/1041 1058/1042 1059/1043 1060/1044
f 1061/1045 1062/1046 1063/1047 1064/1048
f 1065/1049 1066/1050 1067/1051 1068/1052
f 1069/1053 1070/1054 1071/1055 1072/1056
f 1081/1057 1082/1058 1083/1059 1084/1060
f 1085/1061 1086/1062 1087/1063 1088/1064
f 1089/1065 1090/1066 1091/1067 1092/1068
f 1093/1069 1094/1070 1095/1071 1096/1072
f 1097/1073 1098/1074 1099/1075 1100/1076
f 1101/1077 1102/1078 1103/1079 1104/1080
f 1113/1081 1114/1082 1115/1083 1116/1084
f 1117/1085 1118/1086 1119/1087 1120/1088
f 1121/1089 1122/1090 1123/1091 1124/1092
f 1125/1093 1126/1094 1127/1095 1128/1096
f 1129/1097 1130/1098 1131/1099 1132/1100
f 1133/1101 1134/1102 1135/1103 1136/1104
f 1145/1105 1146/1106 1147/1107 1148/1108
f 1149/1109 1150/1110 1151/1111 1152/1112
f 1153/1113 1154/1114 1155/1115 1156/1116
f 1157/1117 1158/1118 1159/1119 1160/1120
f 1161/1121 1162/1122 1163/1123 1164/1124
f 1165/1125 1166/1126 1167/1127 1168/1128
f 1177/1129 1178/1130 1179/1131 1180/1132
f 1181/1133 1182/1134 1183/1135 1184/1136
f 1185/1137 1186/1138 1187/1139 1188/1140
f 1189/1141 1190/1142 1191/1143 1192/1144
f 1193/1145 1194/1146 1195/1147 1196/1148
f 1197/1149 1198/1150 1199/1151 1200/1152
f 1209/1153 1210/1154 1211/1155 1212/1156
f 1213/1157 1214/1158 1215/1159 1216/1160
f 1217/1161 1218/1162 1219/1163 1220/1164
f 1221/1165 1222/1166 1223/1167 1224/1168
f 1225/1169 1226/1170 1227/1171 1228/1172
f 1229/1173 1230/1174 1231/1175 1232/1176
f 1241/1177 1242/1178 1243/1179 1244/1180
f 1245/1181 1246/1182 1247/1183 1248/1184
f 1249/1185 1250/1186 1251/1187 1252/1188
f 1253/1189 1254/1190 1255/1191 1256/1192
f 1257/1193 1258/1194 1259/1195 1260/1196
f 1261/1197 1262/1198 1263/1199 1264/1200
f 1273/1201 1274/1202 1275/1203 1276/1204
f 1277/1205 1278/1206 1279/1207 1280/1208
f 1281/1209 1282/1210 1283/1211 1284/1212
f 1285/1213 1286/1214 1287/1215 1288/1216
f 1289/1217 1290/1218 1291/1219 1292/1220
f 1293/1221 1294/1222 1295/1223 1296/1224
