# RoastEngine Backrooms level
mtllib backrooms.mtl
v 436.0750 0.0000 6.0750
v 436.0750 0.0000 8.9250
v 438.9250 0.0000 8.9250
v 438.9250 0.0000 6.0750
v 436.0750 3.0000 6.0750
v 438.9250 3.0000 6.0750
v 438.9250 3.0000 8.9250
v 436.0750 3.0000 8.9250
v 436.0750 0.0000 6.0750
v 438.9250 0.0000 6.0750
v 438.9250 3.0000 6.0750
v 436.0750 3.0000 6.0750
v 438.9250 0.0000 8.9250
v 436.0750 0.0000 8.9250
v 436.0750 3.0000 8.9250
v 438.9250 3.0000 8.9250
v 438.9250 0.0000 6.0750
v 438.9250 0.0000 8.9250
v 438.9250 3.0000 8.9250
v 438.9250 3.0000 6.0750
v 436.0750 0.0000 8.9250
v 436.0750 0.0000 6.0750
v 436.0750 3.0000 6.0750
v 436.0750 3.0000 8.9250
v 441.0750 0.0000 6.0750
v 441.0750 0.0000 8.9250
v 443.9250 0.0000 8.9250
v 443.9250 0.0000 6.0750
v 441.0750 3.0000 6.0750
v 443.9250 3.0000 6.0750
v 443.9250 3.0000 8.9250
v 441.0750 3.0000 8.9250
v 441.0750 0.0000 6.0750
v 443.9250 0.0000 6.0750
v 443.9250 3.0000 6.0750
v 441.0750 3.0000 6.0750
v 443.9250 0.0000 8.9250
v 441.0750 0.0000 8.9250
v 441.0750 3.0000 8.9250
v 443.9250 3.0000 8.9250
v 443.9250 0.0000 6.0750
v 443.9250 0.0000 8.9250
v 443.9250 3.0000 8.9250
v 443.9250 3.0000 6.0750
v 441.0750 0.0000 8.9250
v 441.0750 0.0000 6.0750
v 441.0750 3.0000 6.0750
v 441.0750 3.0000 8.9250
v 446.0750 0.0000 6.0750
v 446.0750 0.0000 8.9250
v 448.9250 0.0000 8.9250
v 448.9250 0.0000 6.0750
v 446.0750 3.0000 6.0750
v 448.9250 3.0000 6.0750
v 448.9250 3.0000 8.9250
v 446.0750 3.0000 8.9250
v 446.0750 0.0000 6.0750
v 448.9250 0.0000 6.0750
v 448.9250 3.0000 6.0750
v 446.0750 3.0000 6.0750
v 448.9250 0.0000 8.9250
v 446.0750 0.0000 8.9250
v 446.0750 3.0000 8.9250
v 448.9250 3.0000 8.9250
v 448.9250 0.0000 6.0750
v 448.9250 0.0000 8.9250
v 448.9250 3.0000 8.9250
v 448.9250 3.0000 6.0750
v 446.0750 0.0000 8.9250
v 446.0750 0.0000 6.0750
v 446.0750 3.0000 6.0750
v 446.0750 3.0000 8.9250
v 448.5750 0.0000 6.0750
v 448.5750 0.0000 8.9250
v 451.4250 0.0000 8.9250
v 451.4250 0.0000 6.0750
v 448.5750 3.0000 6.0750
v 451.4250 3.0000 6.0750
v 451.4250 3.0000 8.9250
v 448.5750 3.0000 8.9250
v 448.5750 0.0000 6.0750
v 451.4250 0.0000 6.0750
v 451.4250 3.0000 6.0750
v 448.5750 3.0000 6.0750
v 451.4250 0.0000 8.9250
v 448.5750 0.0000 8.9250
v 448.5750 3.0000 8.9250
v 451.4250 3.0000 8.9250
v 451.4250 0.0000 6.0750
v 451.4250 0.0000 8.9250
v 451.4250 3.0000 8.9250
v 451.4250 3.0000 6.0750
v 448.5750 0.0000 8.9250
v 448.5750 0.0000 6.0750
v 448.5750 3.0000 6.0750
v 448.5750 3.0000 8.9250
v 441.0750 0.0000 8.5750
v 443.9250 0.0000 8.5750
v 443.9250 0.0000 11.4250
v 441.0750 0.0000 11.4250
v 441.0750 3.0000 8.5750
v 443.9250 3.0000 8.5750
v 443.9250 3.0000 11.4250
v 441.0750 3.0000 11.4250
v 436.0750 0.0000 11.0750
v 438.9250 0.0000 11.0750
v 438.9250 0.0000 13.9250
v 436.0750 0.0000 13.9250
v 436.0750 3.0000 11.0750
v 438.9250 3.0000 11.0750
v 438.9250 3.0000 13.9250
v 436.0750 3.0000 13.9250
v 441.0750 0.0000 11.0750
v 441.0750 0.0000 13.9250
v 443.9250 0.0000 13.9250
v 443.9250 0.0000 11.0750
v 441.0750 3.0000 11.0750
v 443.9250 3.0000 11.0750
v 443.9250 3.0000 13.9250
v 441.0750 3.0000 13.9250
v 441.0750 0.0000 11.0750
v 443.9250 0.0000 11.0750
v 443.9250 3.0000 11.0750
v 441.0750 3.0000 11.0750
v 443.9250 0.0000 13.9250
v 441.0750 0.0000 13.9250
v 441.0750 3.0000 13.9250
v 443.9250 3.0000 13.9250
v 443.9250 0.0000 11.0750
v 443.9250 0.0000 13.9250
v 443.9250 3.0000 13.9250
v 443.9250 3.0000 11.0750
v 441.0750 0.0000 13.9250
v 441.0750 0.0000 11.0750
v 441.0750 3.0000 11.0750
v 441.0750 3.0000 13.9250
v 443.5750 0.0000 11.0750
v 443.5750 0.0000 13.9250
v 446.4250 0.0000 13.9250
v 446.4250 0.0000 11.0750
v 443.5750 3.0000 11.0750
v 446.4250 3.0000 11.0750
v 446.4250 3.0000 13.9250
v 443.5750 3.0000 13.9250
v 443.5750 0.0000 11.0750
v 446.4250 0.0000 11.0750
v 446.4250 3.0000 11.0750
v 443.5750 3.0000 11.0750
v 446.4250 0.0000 13.9250
v 443.5750 0.0000 13.9250
v 443.5750 3.0000 13.9250
v 446.4250 3.0000 13.9250
v 446.4250 0.0000 11.0750
v 446.4250 0.0000 13.9250
v 446.4250 3.0000 13.9250
v 446.4250 3.0000 11.0750
v 443.5750 0.0000 13.9250
v 443.5750 0.0000 11.0750
v 443.5750 3.0000 11.0750
v 443.5750 3.0000 13.9250
v 446.0750 0.0000 11.0750
v 446.0750 0.0000 13.9250
v 448.9250 0.0000 13.9250
v 448.9250 0.0000 11.0750
v 446.0750 3.0000 11.0750
v 448.9250 3.0000 11.0750
v 448.9250 3.0000 13.9250
v 446.0750 3.0000 13.9250
v 446.0750 0.0000 11.0750
v 448.9250 0.0000 11.0750
v 448.9250 3.0000 11.0750
v 446.0750 3.0000 11.0750
v 448.9250 0.0000 13.9250
v 446.0750 0.0000 13.9250
v 446.0750 3.0000 13.9250
v 448.9250 3.0000 13.9250
v 448.9250 0.0000 11.0750
v 448.9250 0.0000 13.9250
v 448.9250 3.0000 13.9250
v 448.9250 3.0000 11.0750
v 446.0750 0.0000 13.9250
v 446.0750 0.0000 11.0750
v 446.0750 3.0000 11.0750
v 446.0750 3.0000 13.9250
v 436.0750 0.0000 13.5750
v 436.0750 0.0000 16.4250
v 438.9250 0.0000 16.4250
v 438.9250 0.0000 13.5750
v 436.0750 3.0000 13.5750
v 438.9250 3.0000 13.5750
v 438.9250 3.0000 16.4250
v 436.0750 3.0000 16.4250
v 436.0750 0.0000 13.5750
v 438.9250 0.0000 13.5750
v 438.9250 3.0000 13.5750
v 436.0750 3.0000 13.5750
v 438.9250 0.0000 16.4250
v 436.0750 0.0000 16.4250
v 436.0750 3.0000 16.4250
v 438.9250 3.0000 16.4250
v 438.9250 0.0000 13.5750
v 438.9250 0.0000 16.4250
v 438.9250 3.0000 16.4250
v 438.9250 3.0000 13.5750
v 436.0750 0.0000 16.4250
v 436.0750 0.0000 13.5750
v 436.0750 3.0000 13.5750
v 436.0750 3.0000 16.4250
v 446.0750 0.0000 13.5750
v 446.0750 0.0000 16.4250
v 448.9250 0.0000 16.4250
v 448.9250 0.0000 13.5750
v 446.0750 3.0000 13.5750
v 448.9250 3.0000 13.5750
v 448.9250 3.0000 16.4250
v 446.0750 3.0000 16.4250
v 446.0750 0.0000 13.5750
v 448.9250 0.0000 13.5750
v 448.9250 3.0000 13.5750
v 446.0750 3.0000 13.5750
v 448.9250 0.0000 16.4250
v 446.0750 0.0000 16.4250
v 446.0750 3.0000 16.4250
v 448.9250 3.0000 16.4250
v 448.9250 0.0000 13.5750
v 448.9250 0.0000 16.4250
v 448.9250 3.0000 16.4250
v 448.9250 3.0000 13.5750
v 446.0750 0.0000 16.4250
v 446.0750 0.0000 13.5750
v 446.0750 3.0000 13.5750
v 446.0750 3.0000 16.4250
v 436.0750 0.0000 16.0750
v 436.0750 0.0000 18.9250
v 438.9250 0.0000 18.9250
v 438.9250 0.0000 16.0750
v 436.0750 3.0000 16.0750
v 438.9250 3.0000 16.0750
v 438.9250 3.0000 18.9250
v 436.0750 3.0000 18.9250
v 436.0750 0.0000 16.0750
v 438.9250 0.0000 16.0750
v 438.9250 3.0000 16.0750
v 436.0750 3.0000 16.0750
v 438.9250 0.0000 18.9250
v 436.0750 0.0000 18.9250
v 436.0750 3.0000 18.9250
v 438.9250 3.0000 18.9250
v 438.9250 0.0000 16.0750
v 438.9250 0.0000 18.9250
v 438.9250 3.0000 18.9250
v 438.9250 3.0000 16.0750
v 436.0750 0.0000 18.9250
v 436.0750 0.0000 16.0750
v 436.0750 3.0000 16.0750
v 436.0750 3.0000 18.9250
v 438.5750 0.0000 16.0750
v 438.5750 0.0000 18.9250
v 441.4250 0.0000 18.9250
v 441.4250 0.0000 16.0750
v 438.5750 3.0000 16.0750
v 441.4250 3.0000 16.0750
v 441.4250 3.0000 18.9250
v 438.5750 3.0000 18.9250
v 438.5750 0.0000 16.0750
v 441.4250 0.0000 16.0750
v 441.4250 3.0000 16.0750
v 438.5750 3.0000 16.0750
v 441.4250 0.0000 18.9250
v 438.5750 0.0000 18.9250
v 438.5750 3.0000 18.9250
v 441.4250 3.0000 18.9250
v 441.4250 0.0000 16.0750
v 441.4250 0.0000 18.9250
v 441.4250 3.0000 18.9250
v 441.4250 3.0000 16.0750
v 438.5750 0.0000 18.9250
v 438.5750 0.0000 16.0750
v 438.5750 3.0000 16.0750
v 438.5750 3.0000 18.9250
v 441.0750 0.0000 16.0750
v 441.0750 0.0000 18.9250
v 443.9250 0.0000 18.9250
v 443.9250 0.0000 16.0750
v 441.0750 3.0000 16.0750
v 443.9250 3.0000 16.0750
v 443.9250 3.0000 18.9250
v 441.0750 3.0000 18.9250
v 441.0750 0.0000 16.0750
v 443.9250 0.0000 16.0750
v 443.9250 3.0000 16.0750
v 441.0750 3.0000 16.0750
v 443.9250 0.0000 18.9250
v 441.0750 0.0000 18.9250
v 441.0750 3.0000 18.9250
v 443.9250 3.0000 18.9250
v 443.9250 0.0000 16.0750
v 443.9250 0.0000 18.9250
v 443.9250 3.0000 18.9250
v 443.9250 3.0000 16.0750
v 441.0750 0.0000 18.9250
v 441.0750 0.0000 16.0750
v 441.0750 3.0000 16.0750
v 441.0750 3.0000 18.9250
v 443.5750 0.0000 16.0750
v 443.5750 0.0000 18.9250
v 446.4250 0.0000 18.9250
v 446.4250 0.0000 16.0750
v 443.5750 3.0000 16.0750
v 446.4250 3.0000 16.0750
v 446.4250 3.0000 18.9250
v 443.5750 3.0000 18.9250
v 443.5750 0.0000 16.0750
v 446.4250 0.0000 16.0750
v 446.4250 3.0000 16.0750
v 443.5750 3.0000 16.0750
v 446.4250 0.0000 18.9250
v 443.5750 0.0000 18.9250
v 443.5750 3.0000 18.9250
v 446.4250 3.0000 18.9250
v 446.4250 0.0000 16.0750
v 446.4250 0.0000 18.9250
v 446.4250 3.0000 18.9250
v 446.4250 3.0000 16.0750
v 443.5750 0.0000 18.9250
v 443.5750 0.0000 16.0750
v 443.5750 3.0000 16.0750
v 443.5750 3.0000 18.9250
v 446.0750 0.0000 16.0750
v 446.0750 0.0000 18.9250
v 448.9250 0.0000 18.9250
v 448.9250 0.0000 16.0750
v 446.0750 3.0000 16.0750
v 448.9250 3.0000 16.0750
v 448.9250 3.0000 18.9250
v 446.0750 3.0000 18.9250
v 446.0750 0.0000 16.0750
v 448.9250 0.0000 16.0750
v 448.9250 3.0000 16.0750
v 446.0750 3.0000 16.0750
v 448.9250 0.0000 18.9250
v 446.0750 0.0000 18.9250
v 446.0750 3.0000 18.9250
v 448.9250 3.0000 18.9250
v 448.9250 0.0000 16.0750
v 448.9250 0.0000 18.9250
v 448.9250 3.0000 18.9250
v 448.9250 3.0000 16.0750
v 446.0750 0.0000 18.9250
v 446.0750 0.0000 16.0750
v 446.0750 3.0000 16.0750
v 446.0750 3.0000 18.9250
v 446.0750 0.0000 18.5750
v 446.0750 0.0000 21.4250
v 448.9250 0.0000 21.4250
v 448.9250 0.0000 18.5750
v 446.0750 3.0000 18.5750
v 448.9250 3.0000 18.5750
v 448.9250 3.0000 21.4250
v 446.0750 3.0000 21.4250
v 446.0750 0.0000 18.5750
v 448.9250 0.0000 18.5750
v 448.9250 3.0000 18.5750
v 446.0750 3.0000 18.5750
v 448.9250 0.0000 21.4250
v 446.0750 0.0000 21.4250
v 446.0750 3.0000 21.4250
v 448.9250 3.0000 21.4250
v 448.9250 0.0000 18.5750
v 448.9250 0.0000 21.4250
v 448.9250 3.0000 21.4250
v 448.9250 3.0000 18.5750
v 446.0750 0.0000 21.4250
v 446.0750 0.0000 18.5750
v 446.0750 3.0000 18.5750
v 446.0750 3.0000 21.4250
v 436.0750 0.0000 21.0750
v 436.0750 0.0000 23.9250
v 438.9250 0.0000 23.9250
v 438.9250 0.0000 21.0750
v 436.0750 3.0000 21.0750
v 438.9250 3.0000 21.0750
v 438.9250 3.0000 23.9250
v 436.0750 3.0000 23.9250
v 436.0750 0.0000 21.0750
v 438.9250 0.0000 21.0750
v 438.9250 3.0000 21.0750
v 436.0750 3.0000 21.0750
v 438.9250 0.0000 23.9250
v 436.0750 0.0000 23.9250
v 436.0750 3.0000 23.9250
v 438.9250 3.0000 23.9250
v 438.9250 0.0000 21.0750
v 438.9250 0.0000 23.9250
v 438.9250 3.0000 23.9250
v 438.9250 3.0000 21.0750
v 436.0750 0.0000 23.9250
v 436.0750 0.0000 21.0750
v 436.0750 3.0000 21.0750
v 436.0750 3.0000 23.9250
v 438.5750 0.0000 21.0750
v 438.5750 0.0000 23.9250
v 441.4250 0.0000 23.9250
v 441.4250 0.0000 21.0750
v 438.5750 3.0000 21.0750
v 441.4250 3.0000 21.0750
v 441.4250 3.0000 23.9250
v 438.5750 3.0000 23.9250
v 438.5750 0.0000 21.0750
v 441.4250 0.0000 21.0750
v 441.4250 3.0000 21.0750
v 438.5750 3.0000 21.0750
v 441.4250 0.0000 23.9250
v 438.5750 0.0000 23.9250
v 438.5750 3.0000 23.9250
v 441.4250 3.0000 23.9250
v 441.4250 0.0000 21.0750
v 441.4250 0.0000 23.9250
v 441.4250 3.0000 23.9250
v 441.4250 3.0000 21.0750
v 438.5750 0.0000 23.9250
v 438.5750 0.0000 21.0750
v 438.5750 3.0000 21.0750
v 438.5750 3.0000 23.9250
v 441.0750 0.0000 21.0750
v 441.0750 0.0000 23.9250
v 443.9250 0.0000 23.9250
v 443.9250 0.0000 21.0750
v 441.0750 3.0000 21.0750
v 443.9250 3.0000 21.0750
v 443.9250 3.0000 23.9250
v 441.0750 3.0000 23.9250
v 441.0750 0.0000 21.0750
v 443.9250 0.0000 21.0750
v 443.9250 3.0000 21.0750
v 441.0750 3.0000 21.0750
v 443.9250 0.0000 23.9250
v 441.0750 0.0000 23.9250
v 441.0750 3.0000 23.9250
v 443.9250 3.0000 23.9250
v 443.9250 0.0000 21.0750
v 443.9250 0.0000 23.9250
v 443.9250 3.0000 23.9250
v 443.9250 3.0000 21.0750
v 441.0750 0.0000 23.9250
v 441.0750 0.0000 21.0750
v 441.0750 3.0000 21.0750
v 441.0750 3.0000 23.9250
v 446.0750 0.0000 21.0750
v 448.9250 0.0000 21.0750
v 448.9250 0.0000 23.9250
v 446.0750 0.0000 23.9250
v 446.0750 3.0000 21.0750
v 448.9250 3.0000 21.0750
v 448.9250 3.0000 23.9250
v 446.0750 3.0000 23.9250
v 446.0750 0.0000 23.5750
v 446.0750 0.0000 26.4250
v 448.9250 0.0000 26.4250
v 448.9250 0.0000 23.5750
v 446.0750 3.0000 23.5750
v 448.9250 3.0000 23.5750
v 448.9250 3.0000 26.4250
v 446.0750 3.0000 26.4250
v 446.0750 0.0000 23.5750
v 448.9250 0.0000 23.5750
v 448.9250 3.0000 23.5750
v 446.0750 3.0000 23.5750
v 448.9250 0.0000 26.4250
v 446.0750 0.0000 26.4250
v 446.0750 3.0000 26.4250
v 448.9250 3.0000 26.4250
v 448.9250 0.0000 23.5750
v 448.9250 0.0000 26.4250
v 448.9250 3.0000 26.4250
v 448.9250 3.0000 23.5750
v 446.0750 0.0000 26.4250
v 446.0750 0.0000 23.5750
v 446.0750 3.0000 23.5750
v 446.0750 3.0000 26.4250
v 436.0750 0.0000 26.0750
v 436.0750 0.0000 28.9250
v 438.9250 0.0000 28.9250
v 438.9250 0.0000 26.0750
v 436.0750 3.0000 26.0750
v 438.9250 3.0000 26.0750
v 438.9250 3.0000 28.9250
v 436.0750 3.0000 28.9250
v 436.0750 0.0000 26.0750
v 438.9250 0.0000 26.0750
v 438.9250 3.0000 26.0750
v 436.0750 3.0000 26.0750
v 438.9250 0.0000 28.9250
v 436.0750 0.0000 28.9250
v 436.0750 3.0000 28.9250
v 438.9250 3.0000 28.9250
v 438.9250 0.0000 26.0750
v 438.9250 0.0000 28.9250
v 438.9250 3.0000 28.9250
v 438.9250 3.0000 26.0750
v 436.0750 0.0000 28.9250
v 436.0750 0.0000 26.0750
v 436.0750 3.0000 26.0750
v 436.0750 3.0000 28.9250
v 438.5750 0.0000 26.0750
v 438.5750 0.0000 28.9250
v 441.4250 0.0000 28.9250
v 441.4250 0.0000 26.0750
v 438.5750 3.0000 26.0750
v 441.4250 3.0000 26.0750
v 441.4250 3.0000 28.9250
v 438.5750 3.0000 28.9250
v 438.5750 0.0000 26.0750
v 441.4250 0.0000 26.0750
v 441.4250 3.0000 26.0750
v 438.5750 3.0000 26.0750
v 441.4250 0.0000 28.9250
v 438.5750 0.0000 28.9250
v 438.5750 3.0000 28.9250
v 441.4250 3.0000 28.9250
v 441.4250 0.0000 26.0750
v 441.4250 0.0000 28.9250
v 441.4250 3.0000 28.9250
v 441.4250 3.0000 26.0750
v 438.5750 0.0000 28.9250
v 438.5750 0.0000 26.0750
v 438.5750 3.0000 26.0750
v 438.5750 3.0000 28.9250
v 441.0750 0.0000 26.0750
v 441.0750 0.0000 28.9250
v 443.9250 0.0000 28.9250
v 443.9250 0.0000 26.0750
v 441.0750 3.0000 26.0750
v 443.9250 3.0000 26.0750
v 443.9250 3.0000 28.9250
v 441.0750 3.0000 28.9250
v 441.0750 0.0000 26.0750
v 443.9250 0.0000 26.0750
v 443.9250 3.0000 26.0750
v 441.0750 3.0000 26.0750
v 443.9250 0.0000 28.9250
v 441.0750 0.0000 28.9250
v 441.0750 3.0000 28.9250
v 443.9250 3.0000 28.9250
v 443.9250 0.0000 26.0750
v 443.9250 0.0000 28.9250
v 443.9250 3.0000 28.9250
v 443.9250 3.0000 26.0750
v 441.0750 0.0000 28.9250
v 441.0750 0.0000 26.0750
v 441.0750 3.0000 26.0750
v 441.0750 3.0000 28.9250
v 443.5750 0.0000 26.0750
v 443.5750 0.0000 28.9250
v 446.4250 0.0000 28.9250
v 446.4250 0.0000 26.0750
v 443.5750 3.0000 26.0750
v 446.4250 3.0000 26.0750
v 446.4250 3.0000 28.9250
v 443.5750 3.0000 28.9250
v 443.5750 0.0000 26.0750
v 446.4250 0.0000 26.0750
v 446.4250 3.0000 26.0750
v 443.5750 3.0000 26.0750
v 446.4250 0.0000 28.9250
v 443.5750 0.0000 28.9250
v 443.5750 3.0000 28.9250
v 446.4250 3.0000 28.9250
v 446.4250 0.0000 26.0750
v 446.4250 0.0000 28.9250
v 446.4250 3.0000 28.9250
v 446.4250 3.0000 26.0750
v 443.5750 0.0000 28.9250
v 443.5750 0.0000 26.0750
v 443.5750 3.0000 26.0750
v 443.5750 3.0000 28.9250
v 446.0750 0.0000 26.0750
v 448.9250 0.0000 26.0750
v 448.9250 0.0000 28.9250
v 446.0750 0.0000 28.9250
v 446.0750 3.0000 26.0750
v 448.9250 3.0000 26.0750
v 448.9250 3.0000 28.9250
v 446.0750 3.0000 28.9250
v 436.0750 0.0000 31.0750
v 436.0750 0.0000 33.9250
v 438.9250 0.0000 33.9250
v 438.9250 0.0000 31.0750
v 436.0750 3.0000 31.0750
v 438.9250 3.0000 31.0750
v 438.9250 3.0000 33.9250
v 436.0750 3.0000 33.9250
v 436.0750 0.0000 31.0750
v 438.9250 0.0000 31.0750
v 438.9250 3.0000 31.0750
v 436.0750 3.0000 31.0750
v 438.9250 0.0000 33.9250
v 436.0750 0.0000 33.9250
v 436.0750 3.0000 33.9250
v 438.9250 3.0000 33.9250
v 438.9250 0.0000 31.0750
v 438.9250 0.0000 33.9250
v 438.9250 3.0000 33.9250
v 438.9250 3.0000 31.0750
v 436.0750 0.0000 33.9250
v 436.0750 0.0000 31.0750
v 436.0750 3.0000 31.0750
v 436.0750 3.0000 33.9250
v 438.5750 0.0000 31.0750
v 438.5750 0.0000 33.9250
v 441.4250 0.0000 33.9250
v 441.4250 0.0000 31.0750
v 438.5750 3.0000 31.0750
v 441.4250 3.0000 31.0750
v 441.4250 3.0000 33.9250
v 438.5750 3.0000 33.9250
v 438.5750 0.0000 31.0750
v 441.4250 0.0000 31.0750
v 441.4250 3.0000 31.0750
v 438.5750 3.0000 31.0750
v 441.4250 0.0000 33.9250
v 438.5750 0.0000 33.9250
v 438.5750 3.0000 33.9250
v 441.4250 3.0000 33.9250
v 441.4250 0.0000 31.0750
v 441.4250 0.0000 33.9250
v 441.4250 3.0000 33.9250
v 441.4250 3.0000 31.0750
v 438.5750 0.0000 33.9250
v 438.5750 0.0000 31.0750
v 438.5750 3.0000 31.0750
v 438.5750 3.0000 33.9250
v 441.0750 0.0000 31.0750
v 441.0750 0.0000 33.9250
v 443.9250 0.0000 33.9250
v 443.9250 0.0000 31.0750
v 441.0750 3.0000 31.0750
v 443.9250 3.0000 31.0750
v 443.9250 3.0000 33.9250
v 441.0750 3.0000 33.9250
v 441.0750 0.0000 31.0750
v 443.9250 0.0000 31.0750
v 443.9250 3.0000 31.0750
v 441.0750 3.0000 31.0750
v 443.9250 0.0000 33.9250
v 441.0750 0.0000 33.9250
v 441.0750 3.0000 33.9250
v 443.9250 3.0000 33.9250
v 443.9250 0.0000 31.0750
v 443.9250 0.0000 33.9250
v 443.9250 3.0000 33.9250
v 443.9250 3.0000 31.0750
v 441.0750 0.0000 33.9250
v 441.0750 0.0000 31.0750
v 441.0750 3.0000 31.0750
v 441.0750 3.0000 33.9250
v 443.5750 0.0000 31.0750
v 443.5750 0.0000 33.9250
v 446.4250 0.0000 33.9250
v 446.4250 0.0000 31.0750
v 443.5750 3.0000 31.0750
v 446.4250 3.0000 31.0750
v 446.4250 3.0000 33.9250
v 443.5750 3.0000 33.9250
v 443.5750 0.0000 31.0750
v 446.4250 0.0000 31.0750
v 446.4250 3.0000 31.0750
v 443.5750 3.0000 31.0750
v 446.4250 0.0000 33.9250
v 443.5750 0.0000 33.9250
v 443.5750 3.0000 33.9250
v 446.4250 3.0000 33.9250
v 446.4250 0.0000 31.0750
v 446.4250 0.0000 33.9250
v 446.4250 3.0000 33.9250
v 446.4250 3.0000 31.0750
v 443.5750 0.0000 33.9250
v 443.5750 0.0000 31.0750
v 443.5750 3.0000 31.0750
v 443.5750 3.0000 33.9250
v 446.0750 0.0000 31.0750
v 446.0750 0.0000 33.9250
v 448.9250 0.0000 33.9250
v 448.9250 0.0000 31.0750
v 446.0750 3.0000 31.0750
v 448.9250 3.0000 31.0750
v 448.9250 3.0000 33.9250
v 446.0750 3.0000 33.9250
v 446.0750 0.0000 31.0750
v 448.9250 0.0000 31.0750
v 448.9250 3.0000 31.0750
v 446.0750 3.0000 31.0750
v 448.9250 0.0000 33.9250
v 446.0750 0.0000 33.9250
v 446.0750 3.0000 33.9250
v 448.9250 3.0000 33.9250
v 448.9250 0.0000 31.0750
v 448.9250 0.0000 33.9250
v 448.9250 3.0000 33.9250
v 448.9250 3.0000 31.0750
v 446.0750 0.0000 33.9250
v 446.0750 0.0000 31.0750
v 446.0750 3.0000 31.0750
v 446.0750 3.0000 33.9250
v 436.0750 0.0000 33.5750
v 436.0750 0.0000 36.4250
v 438.9250 0.0000 36.4250
v 438.9250 0.0000 33.5750
v 436.0750 3.0000 33.5750
v 438.9250 3.0000 33.5750
v 438.9250 3.0000 36.4250
v 436.0750 3.0000 36.4250
v 436.0750 0.0000 33.5750
v 438.9250 0.0000 33.5750
v 438.9250 3.0000 33.5750
v 436.0750 3.0000 33.5750
v 438.9250 0.0000 36.4250
v 436.0750 0.0000 36.4250
v 436.0750 3.0000 36.4250
v 438.9250 3.0000 36.4250
v 438.9250 0.0000 33.5750
v 438.9250 0.0000 36.4250
v 438.9250 3.0000 36.4250
v 438.9250 3.0000 33.5750
v 436.0750 0.0000 36.4250
v 436.0750 0.0000 33.5750
v 436.0750 3.0000 33.5750
v 436.0750 3.0000 36.4250
v 444.8250 2.7600 9.8250
v 445.1750 2.7600 9.8250
v 445.1750 2.7600 10.1750
v 444.8250 2.7600 10.1750
v 444.8250 2.8800 9.8250
v 445.1750 2.8800 9.8250
v 445.1750 2.8800 10.1750
v 444.8250 2.8800 10.1750
v 439.8250 2.7600 34.8250
v 440.1750 2.7600 34.8250
v 440.1750 2.7600 35.1750
v 439.8250 2.7600 35.1750
v 439.8250 2.8800 34.8250
v 440.1750 2.8800 34.8250
v 440.1750 2.8800 35.1750
v 439.8250 2.8800 35.1750
v 437.6200 2.6000 22.5000
v 437.6200 2.6000 22.5000
v 437.5849 2.6000 22.5849
v 437.5849 2.6000 22.5849
v 437.5000 2.6000 22.6200
v 437.5000 2.6000 22.6200
v 437.4151 2.6000 22.5849
v 437.4151 2.6000 22.5849
v 437.3800 2.6000 22.5000
v 437.3800 2.6000 22.5000
v 437.4151 2.6000 22.4151
v 437.4151 2.6000 22.4151
v 437.5000 2.6000 22.3800
v 437.5000 2.6000 22.3800
v 437.5849 2.6000 22.4151
v 437.5849 2.6000 22.4151
v 437.5000 2.6000 22.5000
v 437.5000 2.6000 22.5000
v 437.5000 2.4800 22.3800
v 452.5000 2.4800 22.3800
v 452.5000 2.4800 22.6200
v 437.5000 2.4800 22.6200
v 437.5000 2.7200 22.3800
v 452.5000 2.7200 22.3800
v 452.5000 2.7200 22.6200
v 437.5000 2.7200 22.6200
v 437.6200 2.6000 32.5000
v 437.6200 2.6000 32.5000
v 437.5849 2.6000 32.5849
v 437.5849 2.6000 32.5849
v 437.5000 2.6000 32.6200
v 437.5000 2.6000 32.6200
v 437.4151 2.6000 32.5849
v 437.4151 2.6000 32.5849
v 437.3800 2.6000 32.5000
v 437.3800 2.6000 32.5000
v 437.4151 2.6000 32.4151
v 437.4151 2.6000 32.4151
v 437.5000 2.6000 32.3800
v 437.5000 2.6000 32.3800
v 437.5849 2.6000 32.4151
v 437.5849 2.6000 32.4151
v 437.5000 2.6000 32.5000
v 437.5000 2.6000 32.5000
v 437.5000 2.4800 32.3800
v 452.5000 2.4800 32.3800
v 452.5000 2.4800 32.6200
v 437.5000 2.4800 32.6200
v 437.5000 2.7200 32.3800
v 452.5000 2.7200 32.3800
v 452.5000 2.7200 32.6200
v 437.5000 2.7200 32.6200
vt 218.0375 3.0375
vt 218.0375 4.4625
vt 219.4625 4.4625
vt 219.4625 3.0375
vt 218.0375 3.0375
vt 219.4625 3.0375
vt 219.4625 4.4625
vt 218.0375 4.4625
vt 218.0375 0.0000
vt 219.4625 0.0000
vt 219.4625 1.5000
vt 218.0375 1.5000
vt 219.4625 0.0000
vt 218.0375 0.0000
vt 218.0375 1.5000
vt 219.4625 1.5000
vt 3.0375 0.0000
vt 4.4625 0.0000
vt 4.4625 1.5000
vt 3.0375 1.5000
vt 4.4625 0.0000
vt 3.0375 0.0000
vt 3.0375 1.5000
vt 4.4625 1.5000
vt 220.5375 3.0375
vt 220.5375 4.4625
vt 221.9625 4.4625
vt 221.9625 3.0375
vt 220.5375 3.0375
vt 221.9625 3.0375
vt 221.9625 4.4625
vt 220.5375 4.4625
vt 220.5375 0.0000
vt 221.9625 0.0000
vt 221.9625 1.5000
vt 220.5375 1.5000
vt 221.9625 0.0000
vt 220.5375 0.0000
vt 220.5375 1.5000
vt 221.9625 1.5000
vt 3.0375 0.0000
vt 4.4625 0.0000
vt 4.4625 1.5000
vt 3.0375 1.5000
vt 4.4625 0.0000
vt 3.0375 0.0000
vt 3.0375 1.5000
vt 4.4625 1.5000
vt 223.0375 3.0375
vt 223.0375 4.4625
vt 224.4625 4.4625
vt 224.4625 3.0375
vt 223.0375 3.0375
vt 224.4625 3.0375
vt 224.4625 4.4625
vt 223.0375 4.4625
vt 223.0375 0.0000
vt 224.4625 0.0000
vt 224.4625 1.5000
vt 223.0375 1.5000
vt 224.4625 0.0000
vt 223.0375 0.0000
vt 223.0375 1.5000
vt 224.4625 1.5000
vt 3.0375 0.0000
vt 4.4625 0.0000
vt 4.4625 1.5000
vt 3.0375 1.5000
vt 4.4625 0.0000
vt 3.0375 0.0000
vt 3.0375 1.5000
vt 4.4625 1.5000
vt 224.2875 3.0375
vt 224.2875 4.4625
vt 225.7125 4.4625
vt 225.7125 3.0375
vt 224.2875 3.0375
vt 225.7125 3.0375
vt 225.7125 4.4625
vt 224.2875 4.4625
vt 224.2875 0.0000
vt 225.7125 0.0000
vt 225.7125 1.5000
vt 224.2875 1.5000
vt 225.7125 0.0000
vt 224.2875 0.0000
vt 224.2875 1.5000
vt 225.7125 1.5000
vt 3.0375 0.0000
vt 4.4625 0.0000
vt 4.4625 1.5000
vt 3.0375 1.5000
vt 4.4625 0.0000
vt 3.0375 0.0000
vt 3.0375 1.5000
vt 4.4625 1.5000
vt 220.5375 5.5375
vt 220.5375 6.9625
vt 221.9625 6.9625
vt 221.9625 5.5375
vt 220.5375 5.5375
vt 221.9625 5.5375
vt 221.9625 6.9625
vt 220.5375 6.9625
vt 220.5375 0.0000
vt 221.9625 0.0000
vt 221.9625 1.5000
vt 220.5375 1.5000
vt 221.9625 0.0000
vt 220.5375 0.0000
vt 220.5375 1.5000
vt 221.9625 1.5000
vt 5.5375 0.0000
vt 6.9625 0.0000
vt 6.9625 1.5000
vt 5.5375 1.5000
vt 6.9625 0.0000
vt 5.5375 0.0000
vt 5.5375 1.5000
vt 6.9625 1.5000
vt 221.7875 5.5375
vt 221.7875 6.9625
vt 223.2125 6.9625
vt 223.2125 5.5375
vt 221.7875 5.5375
vt 223.2125 5.5375
vt 223.2125 6.9625
vt 221.7875 6.9625
vt 221.7875 0.0000
vt 223.2125 0.0000
vt 223.2125 1.5000
vt 221.7875 1.5000
vt 223.2125 0.0000
vt 221.7875 0.0000
vt 221.7875 1.5000
vt 223.2125 1.5000
vt 5.5375 0.0000
vt 6.9625 0.0000
vt 6.9625 1.5000
vt 5.5375 1.5000
vt 6.9625 0.0000
vt 5.5375 0.0000
vt 5.5375 1.5000
vt 6.9625 1.5000
vt 223.0375 5.5375
vt 223.0375 6.9625
vt 224.4625 6.9625
vt 224.4625 5.5375
vt 223.0375 5.5375
vt 224.4625 5.5375
vt 224.4625 6.9625
vt 223.0375 6.9625
vt 223.0375 0.0000
vt 224.4625 0.0000
vt 224.4625 1.5000
vt 223.0375 1.5000
vt 224.4625 0.0000
vt 223.0375 0.0000
vt 223.0375 1.5000
vt 224.4625 1.5000
vt 5.5375 0.0000
vt 6.9625 0.0000
vt 6.9625 1.5000
vt 5.5375 1.5000
vt 6.9625 0.0000
vt 5.5375 0.0000
vt 5.5375 1.5000
vt 6.9625 1.5000
vt 218.0375 6.7875
vt 218.0375 8.2125
vt 219.4625 8.2125
vt 219.4625 6.7875
vt 218.0375 6.7875
vt 219.4625 6.7875
vt 219.4625 8.2125
vt 218.0375 8.2125
vt 218.0375 0.0000
vt 219.4625 0.0000
vt 219.4625 1.5000
vt 218.0375 1.5000
vt 219.4625 0.0000
vt 218.0375 0.0000
vt 218.0375 1.5000
vt 219.4625 1.5000
vt 6.7875 0.0000
vt 8.2125 0.0000
vt 8.2125 1.5000
vt 6.7875 1.5000
vt 8.2125 0.0000
vt 6.7875 0.0000
vt 6.7875 1.5000
vt 8.2125 1.5000
vt 223.0375 6.7875
vt 223.0375 8.2125
vt 224.4625 8.2125
vt 224.4625 6.7875
vt 223.0375 6.7875
vt 224.4625 6.7875
vt 224.4625 8.2125
vt 223.0375 8.2125
vt 223.0375 0.0000
vt 224.4625 0.0000
vt 224.4625 1.5000
vt 223.0375 1.5000
vt 224.4625 0.0000
vt 223.0375 0.0000
vt 223.0375 1.5000
vt 224.4625 1.5000
vt 6.7875 0.0000
vt 8.2125 0.0000
vt 8.2125 1.5000
vt 6.7875 1.5000
vt 8.2125 0.0000
vt 6.7875 0.0000
vt 6.7875 1.5000
vt 8.2125 1.5000
vt 218.0375 8.0375
vt 218.0375 9.4625
vt 219.4625 9.4625
vt 219.4625 8.0375
vt 218.0375 8.0375
vt 219.4625 8.0375
vt 219.4625 9.4625
vt 218.0375 9.4625
vt 218.0375 0.0000
vt 219.4625 0.0000
vt 219.4625 1.5000
vt 218.0375 1.5000
vt 219.4625 0.0000
vt 218.0375 0.0000
vt 218.0375 1.5000
vt 219.4625 1.5000
vt 8.0375 0.0000
vt 9.4625 0.0000
vt 9.4625 1.5000
vt 8.0375 1.5000
vt 9.4625 0.0000
vt 8.0375 0.0000
vt 8.0375 1.5000
vt 9.4625 1.5000
vt 219.2875 8.0375
vt 219.2875 9.4625
vt 220.7125 9.4625
vt 220.7125 8.0375
vt 219.2875 8.0375
vt 220.7125 8.0375
vt 220.7125 9.4625
vt 219.2875 9.4625
vt 219.2875 0.0000
vt 220.7125 0.0000
vt 220.7125 1.5000
vt 219.2875 1.5000
vt 220.7125 0.0000
vt 219.2875 0.0000
vt 219.2875 1.5000
vt 220.7125 1.5000
vt 8.0375 0.0000
vt 9.4625 0.0000
vt 9.4625 1.5000
vt 8.0375 1.5000
vt 9.4625 0.0000
vt 8.0375 0.0000
vt 8.0375 1.5000
vt 9.4625 1.5000
vt 220.5375 8.0375
vt 220.5375 9.4625
vt 221.9625 9.4625
vt 221.9625 8.0375
vt 220.5375 8.0375
vt 221.9625 8.0375
vt 221.9625 9.4625
vt 220.5375 9.4625
vt 220.5375 0.0000
vt 221.9625 0.0000
vt 221.9625 1.5000
vt 220.5375 1.5000
vt 221.9625 0.0000
vt 220.5375 0.0000
vt 220.5375 1.5000
vt 221.9625 1.5000
vt 8.0375 0.0000
vt 9.4625 0.0000
vt 9.4625 1.5000
vt 8.0375 1.5000
vt 9.4625 0.0000
vt 8.0375 0.0000
vt 8.0375 1.5000
vt 9.4625 1.5000
vt 221.7875 8.0375
vt 221.7875 9.4625
vt 223.2125 9.4625
vt 223.2125 8.0375
vt 221.7875 8.0375
vt 223.2125 8.0375
vt 223.2125 9.4625
vt 221.7875 9.4625
vt 221.7875 0.0000
vt 223.2125 0.0000
vt 223.2125 1.5000
vt 221.7875 1.5000
vt 223.2125 0.0000
vt 221.7875 0.0000
vt 221.7875 1.5000
vt 223.2125 1.5000
vt 8.0375 0.0000
vt 9.4625 0.0000
vt 9.4625 1.5000
vt 8.0375 1.5000
vt 9.4625 0.0000
vt 8.0375 0.0000
vt 8.0375 1.5000
vt 9.4625 1.5000
vt 223.0375 8.0375
vt 223.0375 9.4625
vt 224.4625 9.4625
vt 224.4625 8.0375
vt 223.0375 8.0375
vt 224.4625 8.0375
vt 224.4625 9.4625
vt 223.0375 9.4625
vt 223.0375 0.0000
vt 224.4625 0.0000
vt 224.4625 1.5000
vt 223.0375 1.5000
vt 224.4625 0.0000
vt 223.0375 0.0000
vt 223.0375 1.5000
vt 224.4625 1.5000
vt 8.0375 0.0000
vt 9.4625 0.0000
vt 9.4625 1.5000
vt 8.0375 1.5000
vt 9.4625 0.0000
vt 8.0375 0.0000
vt 8.0375 1.5000
vt 9.4625 1.5000
vt 223.0375 9.2875
vt 223.0375 10.7125
vt 224.4625 10.7125
vt 224.4625 9.2875
vt 223.0375 9.2875
vt 224.4625 9.2875
vt 224.4625 10.7125
vt 223.0375 10.7125
vt 223.0375 0.0000
vt 224.4625 0.0000
vt 224.4625 1.5000
vt 223.0375 1.5000
vt 224.4625 0.0000
vt 223.0375 0.0000
vt 223.0375 1.5000
vt 224.4625 1.5000
vt 9.2875 0.0000
vt 10.7125 0.0000
vt 10.7125 1.5000
vt 9.2875 1.5000
vt 10.7125 0.0000
vt 9.2875 0.0000
vt 9.2875 1.5000
vt 10.7125 1.5000
vt 218.0375 10.5375
vt 218.0375 11.9625
vt 219.4625 11.9625
vt 219.4625 10.5375
vt 218.0375 10.5375
vt 219.4625 10.5375
vt 219.4625 11.9625
vt 218.0375 11.9625
vt 218.0375 0.0000
vt 219.4625 0.0000
vt 219.4625 1.5000
vt 218.0375 1.5000
vt 219.4625 0.0000
vt 218.0375 0.0000
vt 218.0375 1.5000
vt 219.4625 1.5000
vt 10.5375 0.0000
vt 11.9625 0.0000
vt 11.9625 1.5000
vt 10.5375 1.5000
vt 11.9625 0.0000
vt 10.5375 0.0000
vt 10.5375 1.5000
vt 11.9625 1.5000
vt 219.2875 10.5375
vt 219.2875 11.9625
vt 220.7125 11.9625
vt 220.7125 10.5375
vt 219.2875 10.5375
vt 220.7125 10.5375
vt 220.7125 11.9625
vt 219.2875 11.9625
vt 219.2875 0.0000
vt 220.7125 0.0000
vt 220.7125 1.5000
vt 219.2875 1.5000
vt 220.7125 0.0000
vt 219.2875 0.0000
vt 219.2875 1.5000
vt 220.7125 1.5000
vt 10.5375 0.0000
vt 11.9625 0.0000
vt 11.9625 1.5000
vt 10.5375 1.5000
vt 11.9625 0.0000
vt 10.5375 0.0000
vt 10.5375 1.5000
vt 11.9625 1.5000
vt 220.5375 10.5375
vt 220.5375 11.9625
vt 221.9625 11.9625
vt 221.9625 10.5375
vt 220.5375 10.5375
vt 221.9625 10.5375
vt 221.9625 11.9625
vt 220.5375 11.9625
vt 220.5375 0.0000
vt 221.9625 0.0000
vt 221.9625 1.5000
vt 220.5375 1.5000
vt 221.9625 0.0000
vt 220.5375 0.0000
vt 220.5375 1.5000
vt 221.9625 1.5000
vt 10.5375 0.0000
vt 11.9625 0.0000
vt 11.9625 1.5000
vt 10.5375 1.5000
vt 11.9625 0.0000
vt 10.5375 0.0000
vt 10.5375 1.5000
vt 11.9625 1.5000
vt 223.0375 11.7875
vt 223.0375 13.2125
vt 224.4625 13.2125
vt 224.4625 11.7875
vt 223.0375 11.7875
vt 224.4625 11.7875
vt 224.4625 13.2125
vt 223.0375 13.2125
vt 223.0375 0.0000
vt 224.4625 0.0000
vt 224.4625 1.5000
vt 223.0375 1.5000
vt 224.4625 0.0000
vt 223.0375 0.0000
vt 223.0375 1.5000
vt 224.4625 1.5000
vt 11.7875 0.0000
vt 13.2125 0.0000
vt 13.2125 1.5000
vt 11.7875 1.5000
vt 13.2125 0.0000
vt 11.7875 0.0000
vt 11.7875 1.5000
vt 13.2125 1.5000
vt 218.0375 13.0375
vt 218.0375 14.4625
vt 219.4625 14.4625
vt 219.4625 13.0375
vt 218.0375 13.0375
vt 219.4625 13.0375
vt 219.4625 14.4625
vt 218.0375 14.4625
vt 218.0375 0.0000
vt 219.4625 0.0000
vt 219.4625 1.5000
vt 218.0375 1.5000
vt 219.4625 0.0000
vt 218.0375 0.0000
vt 218.0375 1.5000
vt 219.4625 1.5000
vt 13.0375 0.0000
vt 14.4625 0.0000
vt 14.4625 1.5000
vt 13.0375 1.5000
vt 14.4625 0.0000
vt 13.0375 0.0000
vt 13.0375 1.5000
vt 14.4625 1.5000
vt 219.2875 13.0375
vt 219.2875 14.4625
vt 220.7125 14.4625
vt 220.7125 13.0375
vt 219.2875 13.0375
vt 220.7125 13.0375
vt 220.7125 14.4625
vt 219.2875 14.4625
vt 219.2875 0.0000
vt 220.7125 0.0000
vt 220.7125 1.5000
vt 219.2875 1.5000
vt 220.7125 0.0000
vt 219.2875 0.0000
vt 219.2875 1.5000
vt 220.7125 1.5000
vt 13.0375 0.0000
vt 14.4625 0.0000
vt 14.4625 1.5000
vt 13.0375 1.5000
vt 14.4625 0.0000
vt 13.0375 0.0000
vt 13.0375 1.5000
vt 14.4625 1.5000
vt 220.5375 13.0375
vt 220.5375 14.4625
vt 221.9625 14.4625
vt 221.9625 13.0375
vt 220.5375 13.0375
vt 221.9625 13.0375
vt 221.9625 14.4625
vt 220.5375 14.4625
vt 220.5375 0.0000
vt 221.9625 0.0000
vt 221.9625 1.5000
vt 220.5375 1.5000
vt 221.9625 0.0000
vt 220.5375 0.0000
vt 220.5375 1.5000
vt 221.9625 1.5000
vt 13.0375 0.0000
vt 14.4625 0.0000
vt 14.4625 1.5000
vt 13.0375 1.5000
vt 14.4625 0.0000
vt 13.0375 0.0000
vt 13.0375 1.5000
vt 14.4625 1.5000
vt 221.7875 13.0375
vt 221.7875 14.4625
vt 223.2125 14.4625
vt 223.2125 13.0375
vt 221.7875 13.0375
vt 223.2125 13.0375
vt 223.2125 14.4625
vt 221.7875 14.4625
vt 221.7875 0.0000
vt 223.2125 0.0000
vt 223.2125 1.5000
vt 221.7875 1.5000
vt 223.2125 0.0000
vt 221.7875 0.0000
vt 221.7875 1.5000
vt 223.2125 1.5000
vt 13.0375 0.0000
vt 14.4625 0.0000
vt 14.4625 1.5000
vt 13.0375 1.5000
vt 14.4625 0.0000
vt 13.0375 0.0000
vt 13.0375 1.5000
vt 14.4625 1.5000
vt 218.0375 15.5375
vt 218.0375 16.9625
vt 219.4625 16.9625
vt 219.4625 15.5375
vt 218.0375 15.5375
vt 219.4625 15.5375
vt 219.4625 16.9625
vt 218.0375 16.9625
vt 218.0375 0.0000
vt 219.4625 0.0000
vt 219.4625 1.5000
vt 218.0375 1.5000
vt 219.4625 0.0000
vt 218.0375 0.0000
vt 218.0375 1.5000
vt 219.4625 1.5000
vt 15.5375 0.0000
vt 16.9625 0.0000
vt 16.9625 1.5000
vt 15.5375 1.5000
vt 16.9625 0.0000
vt 15.5375 0.0000
vt 15.5375 1.5000
vt 16.9625 1.5000
vt 219.2875 15.5375
vt 219.2875 16.9625
vt 220.7125 16.9625
vt 220.7125 15.5375
vt 219.2875 15.5375
vt 220.7125 15.5375
vt 220.7125 16.9625
vt 219.2875 16.9625
vt 219.2875 0.0000
vt 220.7125 0.0000
vt 220.7125 1.5000
vt 219.2875 1.5000
vt 220.7125 0.0000
vt 219.2875 0.0000
vt 219.2875 1.5000
vt 220.7125 1.5000
vt 15.5375 0.0000
vt 16.9625 0.0000
vt 16.9625 1.5000
vt 15.5375 1.5000
vt 16.9625 0.0000
vt 15.5375 0.0000
vt 15.5375 1.5000
vt 16.9625 1.5000
vt 220.5375 15.5375
vt 220.5375 16.9625
vt 221.9625 16.9625
vt 221.9625 15.5375
vt 220.5375 15.5375
vt 221.9625 15.5375
vt 221.9625 16.9625
vt 220.5375 16.9625
vt 220.5375 0.0000
vt 221.9625 0.0000
vt 221.9625 1.5000
vt 220.5375 1.5000
vt 221.9625 0.0000
vt 220.5375 0.0000
vt 220.5375 1.5000
vt 221.9625 1.5000
vt 15.5375 0.0000
vt 16.9625 0.0000
vt 16.9625 1.5000
vt 15.5375 1.5000
vt 16.9625 0.0000
vt 15.5375 0.0000
vt 15.5375 1.5000
vt 16.9625 1.5000
vt 221.7875 15.5375
vt 221.7875 16.9625
vt 223.2125 16.9625
vt 223.2125 15.5375
vt 221.7875 15.5375
vt 223.2125 15.5375
vt 223.2125 16.9625
vt 221.7875 16.9625
vt 221.7875 0.0000
vt 223.2125 0.0000
vt 223.2125 1.5000
vt 221.7875 1.5000
vt 223.2125 0.0000
vt 221.7875 0.0000
vt 221.7875 1.5000
vt 223.2125 1.5000
vt 15.5375 0.0000
vt 16.9625 0.0000
vt 16.9625 1.5000
vt 15.5375 1.5000
vt 16.9625 0.0000
vt 15.5375 0.0000
vt 15.5375 1.5000
vt 16.9625 1.5000
vt 223.0375 15.5375
vt 223.0375 16.9625
vt 224.4625 16.9625
vt 224.4625 15.5375
vt 223.0375 15.5375
vt 224.4625 15.5375
vt 224.4625 16.9625
vt 223.0375 16.9625
vt 223.0375 0.0000
vt 224.4625 0.0000
vt 224.4625 1.5000
vt 223.0375 1.5000
vt 224.4625 0.0000
vt 223.0375 0.0000
vt 223.0375 1.5000
vt 224.4625 1.5000
vt 15.5375 0.0000
vt 16.9625 0.0000
vt 16.9625 1.5000
vt 15.5375 1.5000
vt 16.9625 0.0000
vt 15.5375 0.0000
vt 15.5375 1.5000
vt 16.9625 1.5000
vt 218.0375 16.7875
vt 218.0375 18.2125
vt 219.4625 18.2125
vt 219.4625 16.7875
vt 218.0375 16.7875
vt 219.4625 16.7875
vt 219.4625 18.2125
vt 218.0375 18.2125
vt 218.0375 0.0000
vt 219.4625 0.0000
vt 219.4625 1.5000
vt 218.0375 1.5000
vt 219.4625 0.0000
vt 218.0375 0.0000
vt 218.0375 1.5000
vt 219.4625 1.5000
vt 16.7875 0.0000
vt 18.2125 0.0000
vt 18.2125 1.5000
vt 16.7875 1.5000
vt 18.2125 0.0000
vt 16.7875 0.0000
vt 16.7875 1.5000
vt 18.2125 1.5000
usemtl rust
f 97 100 99 98
f 101 102 103 104
f 97 98 102 101
f 99 100 104 103
f 98 99 103 102
f 100 97 101 104
f 105 108 107 106
f 109 110 111 112
f 105 106 110 109
f 107 108 112 111
f 106 107 111 110
f 108 105 109 112
f 449 452 451 450
f 453 454 455 456
f 449 450 454 453
f 451 452 456 455
f 450 451 455 454
f 452 449 453 456
f 577 580 579 578
f 581 582 583 584
f 577 578 582 581
f 579 580 584 583
f 578 579 583 582
f 580 577 581 584
usemtl lamp_sick
f 729 732 731 730
f 733 734 735 736
f 729 730 734 733
f 731 732 736 735
f 730 731 735 734
f 732 729 733 736
f 737 740 739 738
f 741 742 743 744
f 737 738 742 741
f 739 740 744 743
f 738 739 743 742
f 740 737 741 744
usemtl pipe
f 745 747 748 746
f 747 749 750 748
f 749 751 752 750
f 751 753 754 752
f 753 755 756 754
f 755 757 758 756
f 757 759 760 758
f 759 745 746 760
f 761 746 748
f 762 747 745
f 761 748 750
f 762 749 747
f 761 750 752
f 762 751 749
f 761 752 754
f 762 753 751
f 761 754 756
f 762 755 753
f 761 756 758
f 762 757 755
f 761 758 760
f 762 759 757
f 761 760 746
f 762 745 759
f 763 766 765 764
f 767 768 769 770
f 763 764 768 767
f 765 766 770 769
f 764 765 769 768
f 766 763 767 770
usemtl rust
f 771 773 774 772
f 773 775 776 774
f 775 777 778 776
f 777 779 780 778
f 779 781 782 780
f 781 783 784 782
f 783 785 786 784
f 785 771 772 786
f 787 772 774
f 788 773 771
f 787 774 776
f 788 775 773
f 787 776 778
f 788 777 775
f 787 778 780
f 788 779 777
f 787 780 782
f 788 781 779
f 787 782 784
f 788 783 781
f 787 784 786
f 788 785 783
f 787 786 772
f 788 771 785
f 789 792 791 790
f 793 794 795 796
f 789 790 794 793
f 791 792 796 795
f 790 791 795 794
f 792 789 793 796
usemtl grime_wall
f 1/1 2/2 3/3 4/4
f 5/5 6/6 7/7 8/8
f 9/9 10/10 11/11 12/12
f 13/13 14/14 15/15 16/16
f 17/17 18/18 19/19 20/20
f 21/21 22/22 23/23 24/24
f 25/25 26/26 27/27 28/28
f 29/29 30/30 31/31 32/32
f 33/33 34/34 35/35 36/36
f 37/37 38/38 39/39 40/40
f 41/41 42/42 43/43 44/44
f 45/45 46/46 47/47 48/48
f 49/49 50/50 51/51 52/52
f 53/53 54/54 55/55 56/56
f 57/57 58/58 59/59 60/60
f 61/61 62/62 63/63 64/64
f 65/65 66/66 67/67 68/68
f 69/69 70/70 71/71 72/72
f 73/73 74/74 75/75 76/76
f 77/77 78/78 79/79 80/80
f 81/81 82/82 83/83 84/84
f 85/85 86/86 87/87 88/88
f 89/89 90/90 91/91 92/92
f 93/93 94/94 95/95 96/96
f 113/97 114/98 115/99 116/100
f 117/101 118/102 119/103 120/104
f 121/105 122/106 123/107 124/108
f 125/109 126/110 127/111 128/112
f 129/113 130/114 131/115 132/116
f 133/117 134/118 135/119 136/120
f 137/121 138/122 139/123 140/124
f 141/125 142/126 143/127 144/128
f 145/129 146/130 147/131 148/132
f 149/133 150/134 151/135 152/136
f 153/137 154/138 155/139 156/140
f 157/141 158/142 159/143 160/144
f 161/145 162/146 163/147 164/148
f 165/149 166/150 167/151 168/152
f 169/153 170/154 171/155 172/156
f 173/157 174/158 175/159 176/160
f 177/161 178/162 179/163 180/164
f 181/165 182/166 183/167 184/168
f 185/169 186/170 187/171 188/172
f 189/173 190/174 191/175 192/176
f 193/177 194/178 195/179 196/180
f 197/181 198/182 199/183 200/184
f 201/185 202/186 203/187 204/188
f 205/189 206/190 207/191 208/192
f 209/193 210/194 211/195 212/196
f 213/197 214/198 215/199 216/200
f 217/201 218/202 219/203 220/204
f 221/205 222/206 223/207 224/208
f 225/209 226/210 227/211 228/212
f 229/213 230/214 231/215 232/216
f 233/217 234/218 235/219 236/220
f 237/221 238/222 239/223 240/224
f 241/225 242/226 243/227 244/228
f 245/229 246/230 247/231 248/232
f 249/233 250/234 251/235 252/236
f 253/237 254/238 255/239 256/240
f 257/241 258/242 259/243 260/244
f 261/245 262/246 263/247 264/248
f 265/249 266/250 267/251 268/252
f 269/253 270/254 271/255 272/256
f 273/257 274/258 275/259 276/260
f 277/261 278/262 279/263 280/264
f 281/265 282/266 283/267 284/268
f 285/269 286/270 287/271 288/272
f 289/273 290/274 291/275 292/276
f 293/277 294/278 295/279 296/280
f 297/281 298/282 299/283 300/284
f 301/285 302/286 303/287 304/288
f 305/289 306/290 307/291 308/292
f 309/293 310/294 311/295 312/296
f 313/297 314/298 315/299 316/300
f 317/301 318/302 319/303 320/304
f 321/305 322/306 323/307 324/308
f 325/309 326/310 327/311 328/312
f 329/313 330/314 331/315 332/316
f 333/317 334/318 335/319 336/320
f 337/321 338/322 339/323 340/324
f 341/325 342/326 343/327 344/328
f 345/329 346/330 347/331 348/332
f 349/333 350/334 351/335 352/336
f 353/337 354/338 355/339 356/340
f 357/341 358/342 359/343 360/344
f 361/345 362/346 363/347 364/348
f 365/349 366/350 367/351 368/352
f 369/353 370/354 371/355 372/356
f 373/357 374/358 375/359 376/360
f 377/361 378/362 379/363 380/364
f 381/365 382/366 383/367 384/368
f 385/369 386/370 387/371 388/372
f 389/373 390/374 391/375 392/376
f 393/377 394/378 395/379 396/380
f 397/381 398/382 399/383 400/384
f 401/385 402/386 403/387 404/388
f 405/389 406/390 407/391 408/392
f 409/393 410/394 411/395 412/396
f 413/397 414/398 415/399 416/400
f 417/401 418/402 419/403 420/404
f 421/405 422/406 423/407 424/408
f 425/409 426/410 427/411 428/412
f 429/413 430/414 431/415 432/416
f 433/417 434/418 435/419 436/420
f 437/421 438/422 439/423 440/424
f 441/425 442/426 443/427 444/428
f 445/429 446/430 447/431 448/432
f 457/433 458/434 459/435 460/436
f 461/437 462/438 463/439 464/440
f 465/441 466/442 467/443 468/444
f 469/445 470/446 471/447 472/448
f 473/449 474/450 475/451 476/452
f 477/453 478/454 479/455 480/456
f 481/457 482/458 483/459 484/460
f 485/461 486/462 487/463 488/464
f 489/465 490/466 491/467 492/468
f 493/469 494/470 495/471 496/472
f 497/473 498/474 499/475 500/476
f 501/477 502/478 503/479 504/480
f 505/481 506/482 507/483 508/484
f 509/485 510/486 511/487 512/488
f 513/489 514/490 515/491 516/492
f 517/493 518/494 519/495 520/496
f 521/497 522/498 523/499 524/500
f 525/501 526/502 527/503 528/504
f 529/505 530/506 531/507 532/508
f 533/509 534/510 535/511 536/512
f 537/513 538/514 539/515 540/516
f 541/517 542/518 543/519 544/520
f 545/521 546/522 547/523 548/524
f 549/525 550/526 551/527 552/528
f 553/529 554/530 555/531 556/532
f 557/533 558/534 559/535 560/536
f 561/537 562/538 563/539 564/540
f 565/541 566/542 567/543 568/544
f 569/545 570/546 571/547 572/548
f 573/549 574/550 575/551 576/552
f 585/553 586/554 587/555 588/556
f 589/557 590/558 591/559 592/560
f 593/561 594/562 595/563 596/564
f 597/565 598/566 599/567 600/568
f 601/569 602/570 603/571 604/572
f 605/573 606/574 607/575 608/576
f 609/577 610/578 611/579 612/580
f 613/581 614/582 615/583 616/584
f 617/585 618/586 619/587 620/588
f 621/589 622/590 623/591 624/592
f 625/593 626/594 627/595 628/596
f 629/597 630/598 631/599 632/600
f 633/601 634/602 635/603 636/604
f 637/605 638/606 639/607 640/608
f 641/609 642/610 643/611 644/612
f 645/613 646/614 647/615 648/616
f 649/617 650/618 651/619 652/620
f 653/621 654/622 655/623 656/624
f 657/625 658/626 659/627 660/628
f 661/629 662/630 663/631 664/632
f 665/633 666/634 667/635 668/636
f 669/637 670/638 671/639 672/640
f 673/641 674/642 675/643 676/644
f 677/645 678/646 679/647 680/648
f 681/649 682/650 683/651 684/652
f 685/653 686/654 687/655 688/656
f 689/657 690/658 691/659 692/660
f 693/661 694/662 695/663 696/664
f 697/665 698/666 699/667 700/668
f 701/669 702/670 703/671 704/672
f 705/673 706/674 707/675 708/676
f 709/677 710/678 711/679 712/680
f 713/681 714/682 715/683 716/684
f 717/685 718/686 719/687 720/688
f 721/689 722/690 723/691 724/692
f 725/693 726/694 727/695 728/696
