# RoastEngine Backrooms level
mtllib backrooms.mtl
v 1168.9500 0.0000 -18.0500
v 1168.9500 0.0000 -14.4500
v 1172.5500 0.0000 -14.4500
v 1172.5500 0.0000 -18.0500
v 1168.9500 3.1000 -18.0500
v 1172.5500 3.1000 -18.0500
v 1172.5500 3.1000 -14.4500
v 1168.9500 3.1000 -14.4500
v 1168.9500 0.0000 -18.0500
v 1172.5500 0.0000 -18.0500
v 1172.5500 3.1000 -18.0500
v 1168.9500 3.1000 -18.0500
v 1172.5500 0.0000 -14.4500
v 1168.9500 0.0000 -14.4500
v 1168.9500 3.1000 -14.4500
v 1172.5500 3.1000 -14.4500
v 1172.5500 0.0000 -18.0500
v 1172.5500 0.0000 -14.4500
v 1172.5500 3.1000 -14.4500
v 1172.5500 3.1000 -18.0500
v 1168.9500 0.0000 -14.4500
v 1168.9500 0.0000 -18.0500
v 1168.9500 3.1000 -18.0500
v 1168.9500 3.1000 -14.4500
v 1175.4500 0.0000 -18.0500
v 1175.4500 0.0000 -14.4500
v 1179.0500 0.0000 -14.4500
v 1179.0500 0.0000 -18.0500
v 1175.4500 3.1000 -18.0500
v 1179.0500 3.1000 -18.0500
v 1179.0500 3.1000 -14.4500
v 1175.4500 3.1000 -14.4500
v 1175.4500 0.0000 -18.0500
v 1179.0500 0.0000 -18.0500
v 1179.0500 3.1000 -18.0500
v 1175.4500 3.1000 -18.0500
v 1179.0500 0.0000 -14.4500
v 1175.4500 0.0000 -14.4500
v 1175.4500 3.1000 -14.4500
v 1179.0500 3.1000 -14.4500
v 1179.0500 0.0000 -18.0500
v 1179.0500 0.0000 -14.4500
v 1179.0500 3.1000 -14.4500
v 1179.0500 3.1000 -18.0500
v 1175.4500 0.0000 -14.4500
v 1175.4500 0.0000 -18.0500
v 1175.4500 3.1000 -18.0500
v 1175.4500 3.1000 -14.4500
v 1149.4500 0.0000 -11.5500
v 1149.4500 0.0000 -7.9500
v 1153.0500 0.0000 -7.9500
v 1153.0500 0.0000 -11.5500
v 1149.4500 3.1000 -11.5500
v 1153.0500 3.1000 -11.5500
v 1153.0500 3.1000 -7.9500
v 1149.4500 3.1000 -7.9500
v 1149.4500 0.0000 -11.5500
v 1153.0500 0.0000 -11.5500
v 1153.0500 3.1000 -11.5500
v 1149.4500 3.1000 -11.5500
v 1153.0500 0.0000 -7.9500
v 1149.4500 0.0000 -7.9500
v 1149.4500 3.1000 -7.9500
v 1153.0500 3.1000 -7.9500
v 1153.0500 0.0000 -11.5500
v 1153.0500 0.0000 -7.9500
v 1153.0500 3.1000 -7.9500
v 1153.0500 3.1000 -11.5500
v 1149.4500 0.0000 -7.9500
v 1149.4500 0.0000 -11.5500
v 1149.4500 3.1000 -11.5500
v 1149.4500 3.1000 -7.9500
v 1162.4500 0.0000 -11.5500
v 1166.0500 0.0000 -11.5500
v 1166.0500 0.0000 -7.9500
v 1162.4500 0.0000 -7.9500
v 1162.4500 1.6000 -11.5500
v 1166.0500 1.6000 -11.5500
v 1166.0500 1.6000 -7.9500
v 1162.4500 1.6000 -7.9500
v 1168.9500 0.0000 -11.5500
v 1168.9500 0.0000 -7.9500
v 1172.5500 0.0000 -7.9500
v 1172.5500 0.0000 -11.5500
v 1168.9500 3.1000 -11.5500
v 1172.5500 3.1000 -11.5500
v 1172.5500 3.1000 -7.9500
v 1168.9500 3.1000 -7.9500
v 1168.9500 0.0000 -11.5500
v 1172.5500 0.0000 -11.5500
v 1172.5500 3.1000 -11.5500
v 1168.9500 3.1000 -11.5500
v 1172.5500 0.0000 -7.9500
v 1168.9500 0.0000 -7.9500
v 1168.9500 3.1000 -7.9500
v 1172.5500 3.1000 -7.9500
v 1172.5500 0.0000 -11.5500
v 1172.5500 0.0000 -7.9500
v 1172.5500 3.1000 -7.9500
v 1172.5500 3.1000 -11.5500
v 1168.9500 0.0000 -7.9500
v 1168.9500 0.0000 -11.5500
v 1168.9500 3.1000 -11.5500
v 1168.9500 3.1000 -7.9500
v 1172.2000 0.0000 -11.5500
v 1175.8000 0.0000 -11.5500
v 1175.8000 0.0000 -7.9500
v 1172.2000 0.0000 -7.9500
v 1172.2000 1.6000 -11.5500
v 1175.8000 1.6000 -11.5500
v 1175.8000 1.6000 -7.9500
v 1172.2000 1.6000 -7.9500
v 1175.4500 0.0000 -11.5500
v 1179.0500 0.0000 -11.5500
v 1179.0500 0.0000 -7.9500
v 1175.4500 0.0000 -7.9500
v 1175.4500 1.6000 -11.5500
v 1179.0500 1.6000 -11.5500
v 1179.0500 1.6000 -7.9500
v 1175.4500 1.6000 -7.9500
v 1149.4500 0.0000 -5.0500
v 1149.4500 0.0000 -1.4500
v 1153.0500 0.0000 -1.4500
v 1153.0500 0.0000 -5.0500
v 1149.4500 3.1000 -5.0500
v 1153.0500 3.1000 -5.0500
v 1153.0500 3.1000 -1.4500
v 1149.4500 3.1000 -1.4500
v 1149.4500 0.0000 -5.0500
v 1153.0500 0.0000 -5.0500
v 1153.0500 3.1000 -5.0500
v 1149.4500 3.1000 -5.0500
v 1153.0500 0.0000 -1.4500
v 1149.4500 0.0000 -1.4500
v 1149.4500 3.1000 -1.4500
v 1153.0500 3.1000 -1.4500
v 1153.0500 0.0000 -5.0500
v 1153.0500 0.0000 -1.4500
v 1153.0500 3.1000 -1.4500
v 1153.0500 3.1000 -5.0500
v 1149.4500 0.0000 -1.4500
v 1149.4500 0.0000 -5.0500
v 1149.4500 3.1000 -5.0500
v 1149.4500 3.1000 -1.4500
v 1152.7000 0.0000 -5.0500
v 1152.7000 0.0000 -1.4500
v 1156.3000 0.0000 -1.4500
v 1156.3000 0.0000 -5.0500
v 1152.7000 3.1000 -5.0500
v 1156.3000 3.1000 -5.0500
v 1156.3000 3.1000 -1.4500
v 1152.7000 3.1000 -1.4500
v 1152.7000 0.0000 -5.0500
v 1156.3000 0.0000 -5.0500
v 1156.3000 3.1000 -5.0500
v 1152.7000 3.1000 -5.0500
v 1156.3000 0.0000 -1.4500
v 1152.7000 0.0000 -1.4500
v 1152.7000 3.1000 -1.4500
v 1156.3000 3.1000 -1.4500
v 1156.3000 0.0000 -5.0500
v 1156.3000 0.0000 -1.4500
v 1156.3000 3.1000 -1.4500
v 1156.3000 3.1000 -5.0500
v 1152.7000 0.0000 -1.4500
v 1152.7000 0.0000 -5.0500
v 1152.7000 3.1000 -5.0500
v 1152.7000 3.1000 -1.4500
v 1155.9500 0.0000 -5.0500
v 1159.5500 0.0000 -5.0500
v 1159.5500 0.0000 -1.4500
v 1155.9500 0.0000 -1.4500
v 1155.9500 1.6000 -5.0500
v 1159.5500 1.6000 -5.0500
v 1159.5500 1.6000 -1.4500
v 1155.9500 1.6000 -1.4500
v 1162.4500 0.0000 -5.0500
v 1162.4500 0.0000 -1.4500
v 1166.0500 0.0000 -1.4500
v 1166.0500 0.0000 -5.0500
v 1162.4500 3.1000 -5.0500
v 1166.0500 3.1000 -5.0500
v 1166.0500 3.1000 -1.4500
v 1162.4500 3.1000 -1.4500
v 1162.4500 0.0000 -5.0500
v 1166.0500 0.0000 -5.0500
v 1166.0500 3.1000 -5.0500
v 1162.4500 3.1000 -5.0500
v 1166.0500 0.0000 -1.4500
v 1162.4500 0.0000 -1.4500
v 1162.4500 3.1000 -1.4500
v 1166.0500 3.1000 -1.4500
v 1166.0500 0.0000 -5.0500
v 1166.0500 0.0000 -1.4500
v 1166.0500 3.1000 -1.4500
v 1166.0500 3.1000 -5.0500
v 1162.4500 0.0000 -1.4500
v 1162.4500 0.0000 -5.0500
v 1162.4500 3.1000 -5.0500
v 1162.4500 3.1000 -1.4500
v 1168.9500 0.0000 -5.0500
v 1168.9500 0.0000 -1.4500
v 1172.5500 0.0000 -1.4500
v 1172.5500 0.0000 -5.0500
v 1168.9500 3.1000 -5.0500
v 1172.5500 3.1000 -5.0500
v 1172.5500 3.1000 -1.4500
v 1168.9500 3.1000 -1.4500
v 1168.9500 0.0000 -5.0500
v 1172.5500 0.0000 -5.0500
v 1172.5500 3.1000 -5.0500
v 1168.9500 3.1000 -5.0500
v 1172.5500 0.0000 -1.4500
v 1168.9500 0.0000 -1.4500
v 1168.9500 3.1000 -1.4500
v 1172.5500 3.1000 -1.4500
v 1172.5500 0.0000 -5.0500
v 1172.5500 0.0000 -1.4500
v 1172.5500 3.1000 -1.4500
v 1172.5500 3.1000 -5.0500
v 1168.9500 0.0000 -1.4500
v 1168.9500 0.0000 -5.0500
v 1168.9500 3.1000 -5.0500
v 1168.9500 3.1000 -1.4500
v 1175.4500 0.0000 -5.0500
v 1175.4500 0.0000 -1.4500
v 1179.0500 0.0000 -1.4500
v 1179.0500 0.0000 -5.0500
v 1175.4500 3.1000 -5.0500
v 1179.0500 3.1000 -5.0500
v 1179.0500 3.1000 -1.4500
v 1175.4500 3.1000 -1.4500
v 1175.4500 0.0000 -5.0500
v 1179.0500 0.0000 -5.0500
v 1179.0500 3.1000 -5.0500
v 1175.4500 3.1000 -5.0500
v 1179.0500 0.0000 -1.4500
v 1175.4500 0.0000 -1.4500
v 1175.4500 3.1000 -1.4500
v 1179.0500 3.1000 -1.4500
v 1179.0500 0.0000 -5.0500
v 1179.0500 0.0000 -1.4500
v 1179.0500 3.1000 -1.4500
v 1179.0500 3.1000 -5.0500
v 1175.4500 0.0000 -1.4500
v 1175.4500 0.0000 -5.0500
v 1175.4500 3.1000 -5.0500
v 1175.4500 3.1000 -1.4500
v 1178.7000 0.0000 -5.0500
v 1178.7000 0.0000 -1.4500
v 1182.3000 0.0000 -1.4500
v 1182.3000 0.0000 -5.0500
v 1178.7000 3.1000 -5.0500
v 1182.3000 3.1000 -5.0500
v 1182.3000 3.1000 -1.4500
v 1178.7000 3.1000 -1.4500
v 1178.7000 0.0000 -5.0500
v 1182.3000 0.0000 -5.0500
v 1182.3000 3.1000 -5.0500
v 1178.7000 3.1000 -5.0500
v 1182.3000 0.0000 -1.4500
v 1178.7000 0.0000 -1.4500
v 1178.7000 3.1000 -1.4500
v 1182.3000 3.1000 -1.4500
v 1182.3000 0.0000 -5.0500
v 1182.3000 0.0000 -1.4500
v 1182.3000 3.1000 -1.4500
v 1182.3000 3.1000 -5.0500
v 1178.7000 0.0000 -1.4500
v 1178.7000 0.0000 -5.0500
v 1178.7000 3.1000 -5.0500
v 1178.7000 3.1000 -1.4500
v 1162.4500 0.0000 -1.8000
v 1166.0500 0.0000 -1.8000
v 1166.0500 0.0000 1.8000
v 1162.4500 0.0000 1.8000
v 1162.4500 1.6000 -1.8000
v 1166.0500 1.6000 -1.8000
v 1166.0500 1.6000 1.8000
v 1162.4500 1.6000 1.8000
v 1149.4500 0.0000 1.4500
v 1153.0500 0.0000 1.4500
v 1153.0500 0.0000 5.0500
v 1149.4500 0.0000 5.0500
v 1149.4500 1.6000 1.4500
v 1153.0500 1.6000 1.4500
v 1153.0500 1.6000 5.0500
v 1149.4500 1.6000 5.0500
v 1155.9500 0.0000 1.4500
v 1155.9500 0.0000 5.0500
v 1159.5500 0.0000 5.0500
v 1159.5500 0.0000 1.4500
v 1155.9500 3.1000 1.4500
v 1159.5500 3.1000 1.4500
v 1159.5500 3.1000 5.0500
v 1155.9500 3.1000 5.0500
v 1155.9500 0.0000 1.4500
v 1159.5500 0.0000 1.4500
v 1159.5500 3.1000 1.4500
v 1155.9500 3.1000 1.4500
v 1159.5500 0.0000 5.0500
v 1155.9500 0.0000 5.0500
v 1155.9500 3.1000 5.0500
v 1159.5500 3.1000 5.0500
v 1159.5500 0.0000 1.4500
v 1159.5500 0.0000 5.0500
v 1159.5500 3.1000 5.0500
v 1159.5500 3.1000 1.4500
v 1155.9500 0.0000 5.0500
v 1155.9500 0.0000 1.4500
v 1155.9500 3.1000 1.4500
v 1155.9500 3.1000 5.0500
v 1162.4500 0.0000 1.4500
v 1162.4500 0.0000 5.0500
v 1166.0500 0.0000 5.0500
v 1166.0500 0.0000 1.4500
v 1162.4500 3.1000 1.4500
v 1166.0500 3.1000 1.4500
v 1166.0500 3.1000 5.0500
v 1162.4500 3.1000 5.0500
v 1162.4500 0.0000 1.4500
v 1166.0500 0.0000 1.4500
v 1166.0500 3.1000 1.4500
v 1162.4500 3.1000 1.4500
v 1166.0500 0.0000 5.0500
v 1162.4500 0.0000 5.0500
v 1162.4500 3.1000 5.0500
v 1166.0500 3.1000 5.0500
v 1166.0500 0.0000 1.4500
v 1166.0500 0.0000 5.0500
v 1166.0500 3.1000 5.0500
v 1166.0500 3.1000 1.4500
v 1162.4500 0.0000 5.0500
v 1162.4500 0.0000 1.4500
v 1162.4500 3.1000 1.4500
v 1162.4500 3.1000 5.0500
v 1175.4500 0.0000 1.4500
v 1175.4500 0.0000 5.0500
v 1179.0500 0.0000 5.0500
v 1179.0500 0.0000 1.4500
v 1175.4500 3.1000 1.4500
v 1179.0500 3.1000 1.4500
v 1179.0500 3.1000 5.0500
v 1175.4500 3.1000 5.0500
v 1175.4500 0.0000 1.4500
v 1179.0500 0.0000 1.4500
v 1179.0500 3.1000 1.4500
v 1175.4500 3.1000 1.4500
v 1179.0500 0.0000 5.0500
v 1175.4500 0.0000 5.0500
v 1175.4500 3.1000 5.0500
v 1179.0500 3.1000 5.0500
v 1179.0500 0.0000 1.4500
v 1179.0500 0.0000 5.0500
v 1179.0500 3.1000 5.0500
v 1179.0500 3.1000 1.4500
v 1175.4500 0.0000 5.0500
v 1175.4500 0.0000 1.4500
v 1175.4500 3.1000 1.4500
v 1175.4500 3.1000 5.0500
v 1155.9500 0.0000 4.7000
v 1159.5500 0.0000 4.7000
v 1159.5500 0.0000 8.3000
v 1155.9500 0.0000 8.3000
v 1155.9500 1.6000 4.7000
v 1159.5500 1.6000 4.7000
v 1159.5500 1.6000 8.3000
v 1155.9500 1.6000 8.3000
v 1149.4500 0.0000 7.9500
v 1153.0500 0.0000 7.9500
v 1153.0500 0.0000 11.5500
v 1149.4500 0.0000 11.5500
v 1149.4500 1.6000 7.9500
v 1153.0500 1.6000 7.9500
v 1153.0500 1.6000 11.5500
v 1149.4500 1.6000 11.5500
v 1155.9500 0.0000 7.9500
v 1159.5500 0.0000 7.9500
v 1159.5500 0.0000 11.5500
v 1155.9500 0.0000 11.5500
v 1155.9500 1.6000 7.9500
v 1159.5500 1.6000 7.9500
v 1159.5500 1.6000 11.5500
v 1155.9500 1.6000 11.5500
v 1168.9500 0.0000 7.9500
v 1168.9500 0.0000 11.5500
v 1172.5500 0.0000 11.5500
v 1172.5500 0.0000 7.9500
v 1168.9500 3.1000 7.9500
v 1172.5500 3.1000 7.9500
v 1172.5500 3.1000 11.5500
v 1168.9500 3.1000 11.5500
v 1168.9500 0.0000 7.9500
v 1172.5500 0.0000 7.9500
v 1172.5500 3.1000 7.9500
v 1168.9500 3.1000 7.9500
v 1172.5500 0.0000 11.5500
v 1168.9500 0.0000 11.5500
v 1168.9500 3.1000 11.5500
v 1172.5500 3.1000 11.5500
v 1172.5500 0.0000 7.9500
v 1172.5500 0.0000 11.5500
v 1172.5500 3.1000 11.5500
v 1172.5500 3.1000 7.9500
v 1168.9500 0.0000 11.5500
v 1168.9500 0.0000 7.9500
v 1168.9500 3.1000 7.9500
v 1168.9500 3.1000 11.5500
v 1175.4500 0.0000 7.9500
v 1175.4500 0.0000 11.5500
v 1179.0500 0.0000 11.5500
v 1179.0500 0.0000 7.9500
v 1175.4500 3.1000 7.9500
v 1179.0500 3.1000 7.9500
v 1179.0500 3.1000 11.5500
v 1175.4500 3.1000 11.5500
v 1175.4500 0.0000 7.9500
v 1179.0500 0.0000 7.9500
v 1179.0500 3.1000 7.9500
v 1175.4500 3.1000 7.9500
v 1179.0500 0.0000 11.5500
v 1175.4500 0.0000 11.5500
v 1175.4500 3.1000 11.5500
v 1179.0500 3.1000 11.5500
v 1179.0500 0.0000 7.9500
v 1179.0500 0.0000 11.5500
v 1179.0500 3.1000 11.5500
v 1179.0500 3.1000 7.9500
v 1175.4500 0.0000 11.5500
v 1175.4500 0.0000 7.9500
v 1175.4500 3.1000 7.9500
v 1175.4500 3.1000 11.5500
v 1175.4500 0.0000 14.4500
v 1179.0500 0.0000 14.4500
v 1179.0500 0.0000 18.0500
v 1175.4500 0.0000 18.0500
v 1175.4500 1.6000 14.4500
v 1179.0500 1.6000 14.4500
v 1179.0500 1.6000 18.0500
v 1175.4500 1.6000 18.0500
v 1173.2000 2.9300 -13.1750
v 1174.8000 2.9300 -13.1750
v 1174.8000 2.9300 -12.8250
v 1173.2000 2.9300 -12.8250
v 1173.2000 3.0300 -13.1750
v 1174.8000 3.0300 -13.1750
v 1174.8000 3.0300 -12.8250
v 1173.2000 3.0300 -12.8250
v 1173.0500 3.0100 -13.3000
v 1173.0500 3.0100 -12.7000
v 1174.9500 3.0100 -12.7000
v 1174.9500 3.0100 -13.3000
v 1173.0500 3.0900 -13.3000
v 1174.9500 3.0900 -13.3000
v 1174.9500 3.0900 -12.7000
v 1173.0500 3.0900 -12.7000
v 1173.0500 3.0100 -13.3000
v 1174.9500 3.0100 -13.3000
v 1174.9500 3.0900 -13.3000
v 1173.0500 3.0900 -13.3000
v 1174.9500 3.0100 -12.7000
v 1173.0500 3.0100 -12.7000
v 1173.0500 3.0900 -12.7000
v 1174.9500 3.0900 -12.7000
v 1174.9500 3.0100 -13.3000
v 1174.9500 3.0100 -12.7000
v 1174.9500 3.0900 -12.7000
v 1174.9500 3.0900 -13.3000
v 1173.0500 3.0100 -12.7000
v 1173.0500 3.0100 -13.3000
v 1173.0500 3.0900 -13.3000
v 1173.0500 3.0900 -12.7000
v 1179.7000 2.9300 -13.1750
v 1181.3000 2.9300 -13.1750
v 1181.3000 2.9300 -12.8250
v 1179.7000 2.9300 -12.8250
v 1179.7000 3.0300 -13.1750
v 1181.3000 3.0300 -13.1750
v 1181.3000 3.0300 -12.8250
v 1179.7000 3.0300 -12.8250
v 1179.5500 3.0100 -13.3000
v 1179.5500 3.0100 -12.7000
v 1181.4500 3.0100 -12.7000
v 1181.4500 3.0100 -13.3000
v 1179.5500 3.0900 -13.3000
v 1181.4500 3.0900 -13.3000
v 1181.4500 3.0900 -12.7000
v 1179.5500 3.0900 -12.7000
v 1179.5500 3.0100 -13.3000
v 1181.4500 3.0100 -13.3000
v 1181.4500 3.0900 -13.3000
v 1179.5500 3.0900 -13.3000
v 1181.4500 3.0100 -12.7000
v 1179.5500 3.0100 -12.7000
v 1179.5500 3.0900 -12.7000
v 1181.4500 3.0900 -12.7000
v 1181.4500 3.0100 -13.3000
v 1181.4500 3.0100 -12.7000
v 1181.4500 3.0900 -12.7000
v 1181.4500 3.0900 -13.3000
v 1179.5500 3.0100 -12.7000
v 1179.5500 3.0100 -13.3000
v 1179.5500 3.0900 -13.3000
v 1179.5500 3.0900 -12.7000
v 1153.7000 2.9300 -6.6750
v 1155.3000 2.9300 -6.6750
v 1155.3000 2.9300 -6.3250
v 1153.7000 2.9300 -6.3250
v 1153.7000 3.0300 -6.6750
v 1155.3000 3.0300 -6.6750
v 1155.3000 3.0300 -6.3250
v 1153.7000 3.0300 -6.3250
v 1153.5500 3.0100 -6.8000
v 1153.5500 3.0100 -6.2000
v 1155.4500 3.0100 -6.2000
v 1155.4500 3.0100 -6.8000
v 1153.5500 3.0900 -6.8000
v 1155.4500 3.0900 -6.8000
v 1155.4500 3.0900 -6.2000
v 1153.5500 3.0900 -6.2000
v 1153.5500 3.0100 -6.8000
v 1155.4500 3.0100 -6.8000
v 1155.4500 3.0900 -6.8000
v 1153.5500 3.0900 -6.8000
v 1155.4500 3.0100 -6.2000
v 1153.5500 3.0100 -6.2000
v 1153.5500 3.0900 -6.2000
v 1155.4500 3.0900 -6.2000
v 1155.4500 3.0100 -6.8000
v 1155.4500 3.0100 -6.2000
v 1155.4500 3.0900 -6.2000
v 1155.4500 3.0900 -6.8000
v 1153.5500 3.0100 -6.2000
v 1153.5500 3.0100 -6.8000
v 1153.5500 3.0900 -6.8000
v 1153.5500 3.0900 -6.2000
v 1173.2000 2.9300 -6.6750
v 1174.8000 2.9300 -6.6750
v 1174.8000 2.9300 -6.3250
v 1173.2000 2.9300 -6.3250
v 1173.2000 3.0300 -6.6750
v 1174.8000 3.0300 -6.6750
v 1174.8000 3.0300 -6.3250
v 1173.2000 3.0300 -6.3250
v 1173.0500 3.0100 -6.8000
v 1173.0500 3.0100 -6.2000
v 1174.9500 3.0100 -6.2000
v 1174.9500 3.0100 -6.8000
v 1173.0500 3.0900 -6.8000
v 1174.9500 3.0900 -6.8000
v 1174.9500 3.0900 -6.2000
v 1173.0500 3.0900 -6.2000
v 1173.0500 3.0100 -6.8000
v 1174.9500 3.0100 -6.8000
v 1174.9500 3.0900 -6.8000
v 1173.0500 3.0900 -6.8000
v 1174.9500 3.0100 -6.2000
v 1173.0500 3.0100 -6.2000
v 1173.0500 3.0900 -6.2000
v 1174.9500 3.0900 -6.2000
v 1174.9500 3.0100 -6.8000
v 1174.9500 3.0100 -6.2000
v 1174.9500 3.0900 -6.2000
v 1174.9500 3.0900 -6.8000
v 1173.0500 3.0100 -6.2000
v 1173.0500 3.0100 -6.8000
v 1173.0500 3.0900 -6.8000
v 1173.0500 3.0900 -6.2000
v 1179.7000 2.9300 -6.6750
v 1181.3000 2.9300 -6.6750
v 1181.3000 2.9300 -6.3250
v 1179.7000 2.9300 -6.3250
v 1179.7000 3.0300 -6.6750
v 1181.3000 3.0300 -6.6750
v 1181.3000 3.0300 -6.3250
v 1179.7000 3.0300 -6.3250
v 1179.5500 3.0100 -6.8000
v 1179.5500 3.0100 -6.2000
v 1181.4500 3.0100 -6.2000
v 1181.4500 3.0100 -6.8000
v 1179.5500 3.0900 -6.8000
v 1181.4500 3.0900 -6.8000
v 1181.4500 3.0900 -6.2000
v 1179.5500 3.0900 -6.2000
v 1179.5500 3.0100 -6.8000
v 1181.4500 3.0100 -6.8000
v 1181.4500 3.0900 -6.8000
v 1179.5500 3.0900 -6.8000
v 1181.4500 3.0100 -6.2000
v 1179.5500 3.0100 -6.2000
v 1179.5500 3.0900 -6.2000
v 1181.4500 3.0900 -6.2000
v 1181.4500 3.0100 -6.8000
v 1181.4500 3.0100 -6.2000
v 1181.4500 3.0900 -6.2000
v 1181.4500 3.0900 -6.8000
v 1179.5500 3.0100 -6.2000
v 1179.5500 3.0100 -6.8000
v 1179.5500 3.0900 -6.8000
v 1179.5500 3.0900 -6.2000
v 1147.2000 2.9300 -0.1750
v 1148.8000 2.9300 -0.1750
v 1148.8000 2.9300 0.1750
v 1147.2000 2.9300 0.1750
v 1147.2000 3.0300 -0.1750
v 1148.8000 3.0300 -0.1750
v 1148.8000 3.0300 0.1750
v 1147.2000 3.0300 0.1750
v 1147.0500 3.0100 -0.3000
v 1147.0500 3.0100 0.3000
v 1148.9500 3.0100 0.3000
v 1148.9500 3.0100 -0.3000
v 1147.0500 3.0900 -0.3000
v 1148.9500 3.0900 -0.3000
v 1148.9500 3.0900 0.3000
v 1147.0500 3.0900 0.3000
v 1147.0500 3.0100 -0.3000
v 1148.9500 3.0100 -0.3000
v 1148.9500 3.0900 -0.3000
v 1147.0500 3.0900 -0.3000
v 1148.9500 3.0100 0.3000
v 1147.0500 3.0100 0.3000
v 1147.0500 3.0900 0.3000
v 1148.9500 3.0900 0.3000
v 1148.9500 3.0100 -0.3000
v 1148.9500 3.0100 0.3000
v 1148.9500 3.0900 0.3000
v 1148.9500 3.0900 -0.3000
v 1147.0500 3.0100 0.3000
v 1147.0500 3.0100 -0.3000
v 1147.0500 3.0900 -0.3000
v 1147.0500 3.0900 0.3000
v 1160.2000 2.9300 -0.1750
v 1161.8000 2.9300 -0.1750
v 1161.8000 2.9300 0.1750
v 1160.2000 2.9300 0.1750
v 1160.2000 3.0300 -0.1750
v 1161.8000 3.0300 -0.1750
v 1161.8000 3.0300 0.1750
v 1160.2000 3.0300 0.1750
v 1160.0500 3.0100 -0.3000
v 1160.0500 3.0100 0.3000
v 1161.9500 3.0100 0.3000
v 1161.9500 3.0100 -0.3000
v 1160.0500 3.0900 -0.3000
v 1161.9500 3.0900 -0.3000
v 1161.9500 3.0900 0.3000
v 1160.0500 3.0900 0.3000
v 1160.0500 3.0100 -0.3000
v 1161.9500 3.0100 -0.3000
v 1161.9500 3.0900 -0.3000
v 1160.0500 3.0900 -0.3000
v 1161.9500 3.0100 0.3000
v 1160.0500 3.0100 0.3000
v 1160.0500 3.0900 0.3000
v 1161.9500 3.0900 0.3000
v 1161.9500 3.0100 -0.3000
v 1161.9500 3.0100 0.3000
v 1161.9500 3.0900 0.3000
v 1161.9500 3.0900 -0.3000
v 1160.0500 3.0100 0.3000
v 1160.0500 3.0100 -0.3000
v 1160.0500 3.0900 -0.3000
v 1160.0500 3.0900 0.3000
v 1166.7000 2.9300 -0.1750
v 1168.3000 2.9300 -0.1750
v 1168.3000 2.9300 0.1750
v 1166.7000 2.9300 0.1750
v 1166.7000 3.0300 -0.1750
v 1168.3000 3.0300 -0.1750
v 1168.3000 3.0300 0.1750
v 1166.7000 3.0300 0.1750
v 1166.5500 3.0100 -0.3000
v 1166.5500 3.0100 0.3000
v 1168.4500 3.0100 0.3000
v 1168.4500 3.0100 -0.3000
v 1166.5500 3.0900 -0.3000
v 1168.4500 3.0900 -0.3000
v 1168.4500 3.0900 0.3000
v 1166.5500 3.0900 0.3000
v 1166.5500 3.0100 -0.3000
v 1168.4500 3.0100 -0.3000
v 1168.4500 3.0900 -0.3000
v 1166.5500 3.0900 -0.3000
v 1168.4500 3.0100 0.3000
v 1166.5500 3.0100 0.3000
v 1166.5500 3.0900 0.3000
v 1168.4500 3.0900 0.3000
v 1168.4500 3.0100 -0.3000
v 1168.4500 3.0100 0.3000
v 1168.4500 3.0900 0.3000
v 1168.4500 3.0900 -0.3000
v 1166.5500 3.0100 0.3000
v 1166.5500 3.0100 -0.3000
v 1166.5500 3.0900 -0.3000
v 1166.5500 3.0900 0.3000
v 1173.2000 2.9300 -0.1750
v 1174.8000 2.9300 -0.1750
v 1174.8000 2.9300 0.1750
v 1173.2000 2.9300 0.1750
v 1173.2000 3.0300 -0.1750
v 1174.8000 3.0300 -0.1750
v 1174.8000 3.0300 0.1750
v 1173.2000 3.0300 0.1750
v 1173.0500 3.0100 -0.3000
v 1173.0500 3.0100 0.3000
v 1174.9500 3.0100 0.3000
v 1174.9500 3.0100 -0.3000
v 1173.0500 3.0900 -0.3000
v 1174.9500 3.0900 -0.3000
v 1174.9500 3.0900 0.3000
v 1173.0500 3.0900 0.3000
v 1173.0500 3.0100 -0.3000
v 1174.9500 3.0100 -0.3000
v 1174.9500 3.0900 -0.3000
v 1173.0500 3.0900 -0.3000
v 1174.9500 3.0100 0.3000
v 1173.0500 3.0100 0.3000
v 1173.0500 3.0900 0.3000
v 1174.9500 3.0900 0.3000
v 1174.9500 3.0100 -0.3000
v 1174.9500 3.0100 0.3000
v 1174.9500 3.0900 0.3000
v 1174.9500 3.0900 -0.3000
v 1173.0500 3.0100 0.3000
v 1173.0500 3.0100 -0.3000
v 1173.0500 3.0900 -0.3000
v 1173.0500 3.0900 0.3000
v 1179.7000 2.9300 -0.1750
v 1181.3000 2.9300 -0.1750
v 1181.3000 2.9300 0.1750
v 1179.7000 2.9300 0.1750
v 1179.7000 3.0300 -0.1750
v 1181.3000 3.0300 -0.1750
v 1181.3000 3.0300 0.1750
v 1179.7000 3.0300 0.1750
v 1179.5500 3.0100 -0.3000
v 1179.5500 3.0100 0.3000
v 1181.4500 3.0100 0.3000
v 1181.4500 3.0100 -0.3000
v 1179.5500 3.0900 -0.3000
v 1181.4500 3.0900 -0.3000
v 1181.4500 3.0900 0.3000
v 1179.5500 3.0900 0.3000
v 1179.5500 3.0100 -0.3000
v 1181.4500 3.0100 -0.3000
v 1181.4500 3.0900 -0.3000
v 1179.5500 3.0900 -0.3000
v 1181.4500 3.0100 0.3000
v 1179.5500 3.0100 0.3000
v 1179.5500 3.0900 0.3000
v 1181.4500 3.0900 0.3000
v 1181.4500 3.0100 -0.3000
v 1181.4500 3.0100 0.3000
v 1181.4500 3.0900 0.3000
v 1181.4500 3.0900 -0.3000
v 1179.5500 3.0100 0.3000
v 1179.5500 3.0100 -0.3000
v 1179.5500 3.0900 -0.3000
v 1179.5500 3.0900 0.3000
v 1147.2000 2.9300 6.3250
v 1148.8000 2.9300 6.3250
v 1148.8000 2.9300 6.6750
v 1147.2000 2.9300 6.6750
v 1147.2000 3.0300 6.3250
v 1148.8000 3.0300 6.3250
v 1148.8000 3.0300 6.6750
v 1147.2000 3.0300 6.6750
v 1147.0500 3.0100 6.2000
v 1147.0500 3.0100 6.8000
v 1148.9500 3.0100 6.8000
v 1148.9500 3.0100 6.2000
v 1147.0500 3.0900 6.2000
v 1148.9500 3.0900 6.2000
v 1148.9500 3.0900 6.8000
v 1147.0500 3.0900 6.8000
v 1147.0500 3.0100 6.2000
v 1148.9500 3.0100 6.2000
v 1148.9500 3.0900 6.2000
v 1147.0500 3.0900 6.2000
v 1148.9500 3.0100 6.8000
v 1147.0500 3.0100 6.8000
v 1147.0500 3.0900 6.8000
v 1148.9500 3.0900 6.8000
v 1148.9500 3.0100 6.2000
v 1148.9500 3.0100 6.8000
v 1148.9500 3.0900 6.8000
v 1148.9500 3.0900 6.2000
v 1147.0500 3.0100 6.8000
v 1147.0500 3.0100 6.2000
v 1147.0500 3.0900 6.2000
v 1147.0500 3.0900 6.8000
v 1153.7000 2.9300 6.3250
v 1155.3000 2.9300 6.3250
v 1155.3000 2.9300 6.6750
v 1153.7000 2.9300 6.6750
v 1153.7000 3.0300 6.3250
v 1155.3000 3.0300 6.3250
v 1155.3000 3.0300 6.6750
v 1153.7000 3.0300 6.6750
v 1153.5500 3.0100 6.2000
v 1153.5500 3.0100 6.8000
v 1155.4500 3.0100 6.8000
v 1155.4500 3.0100 6.2000
v 1153.5500 3.0900 6.2000
v 1155.4500 3.0900 6.2000
v 1155.4500 3.0900 6.8000
v 1153.5500 3.0900 6.8000
v 1153.5500 3.0100 6.2000
v 1155.4500 3.0100 6.2000
v 1155.4500 3.0900 6.2000
v 1153.5500 3.0900 6.2000
v 1155.4500 3.0100 6.8000
v 1153.5500 3.0100 6.8000
v 1153.5500 3.0900 6.8000
v 1155.4500 3.0900 6.8000
v 1155.4500 3.0100 6.2000
v 1155.4500 3.0100 6.8000
v 1155.4500 3.0900 6.8000
v 1155.4500 3.0900 6.2000
v 1153.5500 3.0100 6.8000
v 1153.5500 3.0100 6.2000
v 1153.5500 3.0900 6.2000
v 1153.5500 3.0900 6.8000
v 1166.7000 2.9300 6.3250
v 1168.3000 2.9300 6.3250
v 1168.3000 2.9300 6.6750
v 1166.7000 2.9300 6.6750
v 1166.7000 3.0300 6.3250
v 1168.3000 3.0300 6.3250
v 1168.3000 3.0300 6.6750
v 1166.7000 3.0300 6.6750
v 1166.5500 3.0100 6.2000
v 1166.5500 3.0100 6.8000
v 1168.4500 3.0100 6.8000
v 1168.4500 3.0100 6.2000
v 1166.5500 3.0900 6.2000
v 1168.4500 3.0900 6.2000
v 1168.4500 3.0900 6.8000
v 1166.5500 3.0900 6.8000
v 1166.5500 3.0100 6.2000
v 1168.4500 3.0100 6.2000
v 1168.4500 3.0900 6.2000
v 1166.5500 3.0900 6.2000
v 1168.4500 3.0100 6.8000
v 1166.5500 3.0100 6.8000
v 1166.5500 3.0900 6.8000
v 1168.4500 3.0900 6.8000
v 1168.4500 3.0100 6.2000
v 1168.4500 3.0100 6.8000
v 1168.4500 3.0900 6.8000
v 1168.4500 3.0900 6.2000
v 1166.5500 3.0100 6.8000
v 1166.5500 3.0100 6.2000
v 1166.5500 3.0900 6.2000
v 1166.5500 3.0900 6.8000
v 1147.2000 2.9300 12.8250
v 1148.8000 2.9300 12.8250
v 1148.8000 2.9300 13.1750
v 1147.2000 2.9300 13.1750
v 1147.2000 3.0300 12.8250
v 1148.8000 3.0300 12.8250
v 1148.8000 3.0300 13.1750
v 1147.2000 3.0300 13.1750
v 1147.0500 3.0100 12.7000
v 1147.0500 3.0100 13.3000
v 1148.9500 3.0100 13.3000
v 1148.9500 3.0100 12.7000
v 1147.0500 3.0900 12.7000
v 1148.9500 3.0900 12.7000
v 1148.9500 3.0900 13.3000
v 1147.0500 3.0900 13.3000
v 1147.0500 3.0100 12.7000
v 1148.9500 3.0100 12.7000
v 1148.9500 3.0900 12.7000
v 1147.0500 3.0900 12.7000
v 1148.9500 3.0100 13.3000
v 1147.0500 3.0100 13.3000
v 1147.0500 3.0900 13.3000
v 1148.9500 3.0900 13.3000
v 1148.9500 3.0100 12.7000
v 1148.9500 3.0100 13.3000
v 1148.9500 3.0900 13.3000
v 1148.9500 3.0900 12.7000
v 1147.0500 3.0100 13.3000
v 1147.0500 3.0100 12.7000
v 1147.0500 3.0900 12.7000
v 1147.0500 3.0900 13.3000
v 1153.7000 2.9300 12.8250
v 1155.3000 2.9300 12.8250
v 1155.3000 2.9300 13.1750
v 1153.7000 2.9300 13.1750
v 1153.7000 3.0300 12.8250
v 1155.3000 3.0300 12.8250
v 1155.3000 3.0300 13.1750
v 1153.7000 3.0300 13.1750
v 1153.5500 3.0100 12.7000
v 1153.5500 3.0100 13.3000
v 1155.4500 3.0100 13.3000
v 1155.4500 3.0100 12.7000
v 1153.5500 3.0900 12.7000
v 1155.4500 3.0900 12.7000
v 1155.4500 3.0900 13.3000
v 1153.5500 3.0900 13.3000
v 1153.5500 3.0100 12.7000
v 1155.4500 3.0100 12.7000
v 1155.4500 3.0900 12.7000
v 1153.5500 3.0900 12.7000
v 1155.4500 3.0100 13.3000
v 1153.5500 3.0100 13.3000
v 1153.5500 3.0900 13.3000
v 1155.4500 3.0900 13.3000
v 1155.4500 3.0100 12.7000
v 1155.4500 3.0100 13.3000
v 1155.4500 3.0900 13.3000
v 1155.4500 3.0900 12.7000
v 1153.5500 3.0100 13.3000
v 1153.5500 3.0100 12.7000
v 1153.5500 3.0900 12.7000
v 1153.5500 3.0900 13.3000
v 1179.7000 2.9300 12.8250
v 1181.3000 2.9300 12.8250
v 1181.3000 2.9300 13.1750
v 1179.7000 2.9300 13.1750
v 1179.7000 3.0300 12.8250
v 1181.3000 3.0300 12.8250
v 1181.3000 3.0300 13.1750
v 1179.7000 3.0300 13.1750
v 1179.5500 3.0100 12.7000
v 1179.5500 3.0100 13.3000
v 1181.4500 3.0100 13.3000
v 1181.4500 3.0100 12.7000
v 1179.5500 3.0900 12.7000
v 1181.4500 3.0900 12.7000
v 1181.4500 3.0900 13.3000
v 1179.5500 3.0900 13.3000
v 1179.5500 3.0100 12.7000
v 1181.4500 3.0100 12.7000
v 1181.4500 3.0900 12.7000
v 1179.5500 3.0900 12.7000
v 1181.4500 3.0100 13.3000
v 1179.5500 3.0100 13.3000
v 1179.5500 3.0900 13.3000
v 1181.4500 3.0900 13.3000
v 1181.4500 3.0100 12.7000
v 1181.4500 3.0100 13.3000
v 1181.4500 3.0900 13.3000
v 1181.4500 3.0900 12.7000
v 1179.5500 3.0100 13.3000
v 1179.5500 3.0100 12.7000
v 1179.5500 3.0900 12.7000
v 1179.5500 3.0900 13.3000
v 1147.2000 2.9300 19.3250
v 1148.8000 2.9300 19.3250
v 1148.8000 2.9300 19.6750
v 1147.2000 2.9300 19.6750
v 1147.2000 3.0300 19.3250
v 1148.8000 3.0300 19.3250
v 1148.8000 3.0300 19.6750
v 1147.2000 3.0300 19.6750
v 1147.0500 3.0100 19.2000
v 1147.0500 3.0100 19.8000
v 1148.9500 3.0100 19.8000
v 1148.9500 3.0100 19.2000
v 1147.0500 3.0900 19.2000
v 1148.9500 3.0900 19.2000
v 1148.9500 3.0900 19.8000
v 1147.0500 3.0900 19.8000
v 1147.0500 3.0100 19.2000
v 1148.9500 3.0100 19.2000
v 1148.9500 3.0900 19.2000
v 1147.0500 3.0900 19.2000
v 1148.9500 3.0100 19.8000
v 1147.0500 3.0100 19.8000
v 1147.0500 3.0900 19.8000
v 1148.9500 3.0900 19.8000
v 1148.9500 3.0100 19.2000
v 1148.9500 3.0100 19.8000
v 1148.9500 3.0900 19.8000
v 1148.9500 3.0900 19.2000
v 1147.0500 3.0100 19.8000
v 1147.0500 3.0100 19.2000
v 1147.0500 3.0900 19.2000
v 1147.0500 3.0900 19.8000
v 1153.7000 2.9300 19.3250
v 1155.3000 2.9300 19.3250
v 1155.3000 2.9300 19.6750
v 1153.7000 2.9300 19.6750
v 1153.7000 3.0300 19.3250
v 1155.3000 3.0300 19.3250
v 1155.3000 3.0300 19.6750
v 1153.7000 3.0300 19.6750
v 1153.5500 3.0100 19.2000
v 1153.5500 3.0100 19.8000
v 1155.4500 3.0100 19.8000
v 1155.4500 3.0100 19.2000
v 1153.5500 3.0900 19.2000
v 1155.4500 3.0900 19.2000
v 1155.4500 3.0900 19.8000
v 1153.5500 3.0900 19.8000
v 1153.5500 3.0100 19.2000
v 1155.4500 3.0100 19.2000
v 1155.4500 3.0900 19.2000
v 1153.5500 3.0900 19.2000
v 1155.4500 3.0100 19.8000
v 1153.5500 3.0100 19.8000
v 1153.5500 3.0900 19.8000
v 1155.4500 3.0900 19.8000
v 1155.4500 3.0100 19.2000
v 1155.4500 3.0100 19.8000
v 1155.4500 3.0900 19.8000
v 1155.4500 3.0900 19.2000
v 1153.5500 3.0100 19.8000
v 1153.5500 3.0100 19.2000
v 1153.5500 3.0900 19.2000
v 1153.5500 3.0900 19.8000
v 1173.2000 2.9300 19.3250
v 1174.8000 2.9300 19.3250
v 1174.8000 2.9300 19.6750
v 1173.2000 2.9300 19.6750
v 1173.2000 3.0300 19.3250
v 1174.8000 3.0300 19.3250
v 1174.8000 3.0300 19.6750
v 1173.2000 3.0300 19.6750
v 1173.0500 3.0100 19.2000
v 1173.0500 3.0100 19.8000
v 1174.9500 3.0100 19.8000
v 1174.9500 3.0100 19.2000
v 1173.0500 3.0900 19.2000
v 1174.9500 3.0900 19.2000
v 1174.9500 3.0900 19.8000
v 1173.0500 3.0900 19.8000
v 1173.0500 3.0100 19.2000
v 1174.9500 3.0100 19.2000
v 1174.9500 3.0900 19.2000
v 1173.0500 3.0900 19.2000
v 1174.9500 3.0100 19.8000
v 1173.0500 3.0100 19.8000
v 1173.0500 3.0900 19.8000
v 1174.9500 3.0900 19.8000
v 1174.9500 3.0100 19.2000
v 1174.9500 3.0100 19.8000
v 1174.9500 3.0900 19.8000
v 1174.9500 3.0900 19.2000
v 1173.0500 3.0100 19.8000
v 1173.0500 3.0100 19.2000
v 1173.0500 3.0900 19.2000
v 1173.0500 3.0900 19.8000
v 1179.7000 2.9300 19.3250
v 1181.3000 2.9300 19.3250
v 1181.3000 2.9300 19.6750
v 1179.7000 2.9300 19.6750
v 1179.7000 3.0300 19.3250
v 1181.3000 3.0300 19.3250
v 1181.3000 3.0300 19.6750
v 1179.7000 3.0300 19.6750
v 1179.5500 3.0100 19.2000
v 1179.5500 3.0100 19.8000
v 1181.4500 3.0100 19.8000
v 1181.4500 3.0100 19.2000
v 1179.5500 3.0900 19.2000
v 1181.4500 3.0900 19.2000
v 1181.4500 3.0900 19.8000
v 1179.5500 3.0900 19.8000
v 1179.5500 3.0100 19.2000
v 1181.4500 3.0100 19.2000
v 1181.4500 3.0900 19.2000
v 1179.5500 3.0900 19.2000
v 1181.4500 3.0100 19.8000
v 1179.5500 3.0100 19.8000
v 1179.5500 3.0900 19.8000
v 1181.4500 3.0900 19.8000
v 1181.4500 3.0100 19.2000
v 1181.4500 3.0100 19.8000
v 1181.4500 3.0900 19.8000
v 1181.4500 3.0900 19.2000
v 1179.5500 3.0100 19.8000
v 1179.5500 3.0100 19.2000
v 1179.5500 3.0900 19.2000
v 1179.5500 3.0900 19.8000
v 1147.2500 0.3300 -13.3750
v 1148.7500 0.3300 -13.3750
v 1148.7500 0.3300 -12.6250
v 1147.2500 0.3300 -12.6250
v 1147.2500 0.3900 -13.3750
v 1148.7500 0.3900 -13.3750
v 1148.7500 0.3900 -12.6250
v 1147.2500 0.3900 -12.6250
v 1147.3100 0.0000 -13.3500
v 1147.3900 0.0000 -13.3500
v 1147.3900 0.0000 -12.6500
v 1147.3100 0.0000 -12.6500
v 1147.3100 0.3600 -13.3500
v 1147.3900 0.3600 -13.3500
v 1147.3900 0.3600 -12.6500
v 1147.3100 0.3600 -12.6500
v 1148.6100 0.0000 -13.3500
v 1148.6900 0.0000 -13.3500
v 1148.6900 0.0000 -12.6500
v 1148.6100 0.0000 -12.6500
v 1148.6100 0.3600 -13.3500
v 1148.6900 0.3600 -13.3500
v 1148.6900 0.3600 -12.6500
v 1148.6100 0.3600 -12.6500
v 1147.7700 0.3900 -12.9600
v 1148.2300 0.3900 -12.9600
v 1148.2300 0.3900 -12.8000
v 1147.7700 0.3900 -12.8000
v 1147.7700 0.7700 -12.9600
v 1148.2300 0.7700 -12.9600
v 1148.2300 0.7700 -12.8000
v 1147.7700 0.7700 -12.8000
v 1153.7500 0.3300 -13.3750
v 1155.2500 0.3300 -13.3750
v 1155.2500 0.3300 -12.6250
v 1153.7500 0.3300 -12.6250
v 1153.7500 0.3900 -13.3750
v 1155.2500 0.3900 -13.3750
v 1155.2500 0.3900 -12.6250
v 1153.7500 0.3900 -12.6250
v 1153.8100 0.0000 -13.3500
v 1153.8900 0.0000 -13.3500
v 1153.8900 0.0000 -12.6500
v 1153.8100 0.0000 -12.6500
v 1153.8100 0.3600 -13.3500
v 1153.8900 0.3600 -13.3500
v 1153.8900 0.3600 -12.6500
v 1153.8100 0.3600 -12.6500
v 1155.1100 0.0000 -13.3500
v 1155.1900 0.0000 -13.3500
v 1155.1900 0.0000 -12.6500
v 1155.1100 0.0000 -12.6500
v 1155.1100 0.3600 -13.3500
v 1155.1900 0.3600 -13.3500
v 1155.1900 0.3600 -12.6500
v 1155.1100 0.3600 -12.6500
v 1154.2700 0.3900 -12.9600
v 1154.7300 0.3900 -12.9600
v 1154.7300 0.3900 -12.8000
v 1154.2700 0.3900 -12.8000
v 1154.2700 0.7700 -12.9600
v 1154.7300 0.7700 -12.9600
v 1154.7300 0.7700 -12.8000
v 1154.2700 0.7700 -12.8000
v 1166.7500 0.3300 -6.8750
v 1168.2500 0.3300 -6.8750
v 1168.2500 0.3300 -6.1250
v 1166.7500 0.3300 -6.1250
v 1166.7500 0.3900 -6.8750
v 1168.2500 0.3900 -6.8750
v 1168.2500 0.3900 -6.1250
v 1166.7500 0.3900 -6.1250
v 1166.8100 0.0000 -6.8500
v 1166.8900 0.0000 -6.8500
v 1166.8900 0.0000 -6.1500
v 1166.8100 0.0000 -6.1500
v 1166.8100 0.3600 -6.8500
v 1166.8900 0.3600 -6.8500
v 1166.8900 0.3600 -6.1500
v 1166.8100 0.3600 -6.1500
v 1168.1100 0.0000 -6.8500
v 1168.1900 0.0000 -6.8500
v 1168.1900 0.0000 -6.1500
v 1168.1100 0.0000 -6.1500
v 1168.1100 0.3600 -6.8500
v 1168.1900 0.3600 -6.8500
v 1168.1900 0.3600 -6.1500
v 1168.1100 0.3600 -6.1500
v 1167.2700 0.3900 -6.4600
v 1167.7300 0.3900 -6.4600
v 1167.7300 0.3900 -6.3000
v 1167.2700 0.3900 -6.3000
v 1167.2700 0.7700 -6.4600
v 1167.7300 0.7700 -6.4600
v 1167.7300 0.7700 -6.3000
v 1167.2700 0.7700 -6.3000
v 1173.2500 0.3300 -6.8750
v 1174.7500 0.3300 -6.8750
v 1174.7500 0.3300 -6.1250
v 1173.2500 0.3300 -6.1250
v 1173.2500 0.3900 -6.8750
v 1174.7500 0.3900 -6.8750
v 1174.7500 0.3900 -6.1250
v 1173.2500 0.3900 -6.1250
v 1173.3100 0.0000 -6.8500
v 1173.3900 0.0000 -6.8500
v 1173.3900 0.0000 -6.1500
v 1173.3100 0.0000 -6.1500
v 1173.3100 0.3600 -6.8500
v 1173.3900 0.3600 -6.8500
v 1173.3900 0.3600 -6.1500
v 1173.3100 0.3600 -6.1500
v 1174.6100 0.0000 -6.8500
v 1174.6900 0.0000 -6.8500
v 1174.6900 0.0000 -6.1500
v 1174.6100 0.0000 -6.1500
v 1174.6100 0.3600 -6.8500
v 1174.6900 0.3600 -6.8500
v 1174.6900 0.3600 -6.1500
v 1174.6100 0.3600 -6.1500
v 1173.7700 0.3900 -6.4600
v 1174.2300 0.3900 -6.4600
v 1174.2300 0.3900 -6.3000
v 1173.7700 0.3900 -6.3000
v 1173.7700 0.7700 -6.4600
v 1174.2300 0.7700 -6.4600
v 1174.2300 0.7700 -6.3000
v 1173.7700 0.7700 -6.3000
v 1179.7500 0.3300 -0.3750
v 1181.2500 0.3300 -0.3750
v 1181.2500 0.3300 0.3750
v 1179.7500 0.3300 0.3750
v 1179.7500 0.3900 -0.3750
v 1181.2500 0.3900 -0.3750
v 1181.2500 0.3900 0.3750
v 1179.7500 0.3900 0.3750
v 1179.8100 0.0000 -0.3500
v 1179.8900 0.0000 -0.3500
v 1179.8900 0.0000 0.3500
v 1179.8100 0.0000 0.3500
v 1179.8100 0.3600 -0.3500
v 1179.8900 0.3600 -0.3500
v 1179.8900 0.3600 0.3500
v 1179.8100 0.3600 0.3500
v 1181.1100 0.0000 -0.3500
v 1181.1900 0.0000 -0.3500
v 1181.1900 0.0000 0.3500
v 1181.1100 0.0000 0.3500
v 1181.1100 0.3600 -0.3500
v 1181.1900 0.3600 -0.3500
v 1181.1900 0.3600 0.3500
v 1181.1100 0.3600 0.3500
v 1180.2700 0.3900 0.0400
v 1180.7300 0.3900 0.0400
v 1180.7300 0.3900 0.2000
v 1180.2700 0.3900 0.2000
v 1180.2700 0.7700 0.0400
v 1180.7300 0.7700 0.0400
v 1180.7300 0.7700 0.2000
v 1180.2700 0.7700 0.2000
v 1147.2500 0.3300 6.1250
v 1148.7500 0.3300 6.1250
v 1148.7500 0.3300 6.8750
v 1147.2500 0.3300 6.8750
v 1147.2500 0.3900 6.1250
v 1148.7500 0.3900 6.1250
v 1148.7500 0.3900 6.8750
v 1147.2500 0.3900 6.8750
v 1147.3100 0.0000 6.1500
v 1147.3900 0.0000 6.1500
v 1147.3900 0.0000 6.8500
v 1147.3100 0.0000 6.8500
v 1147.3100 0.3600 6.1500
v 1147.3900 0.3600 6.1500
v 1147.3900 0.3600 6.8500
v 1147.3100 0.3600 6.8500
v 1148.6100 0.0000 6.1500
v 1148.6900 0.0000 6.1500
v 1148.6900 0.0000 6.8500
v 1148.6100 0.0000 6.8500
v 1148.6100 0.3600 6.1500
v 1148.6900 0.3600 6.1500
v 1148.6900 0.3600 6.8500
v 1148.6100 0.3600 6.8500
v 1147.7700 0.3900 6.5400
v 1148.2300 0.3900 6.5400
v 1148.2300 0.3900 6.7000
v 1147.7700 0.3900 6.7000
v 1147.7700 0.7700 6.5400
v 1148.2300 0.7700 6.5400
v 1148.2300 0.7700 6.7000
v 1147.7700 0.7700 6.7000
v 1179.7500 0.3300 6.1250
v 1181.2500 0.3300 6.1250
v 1181.2500 0.3300 6.8750
v 1179.7500 0.3300 6.8750
v 1179.7500 0.3900 6.1250
v 1181.2500 0.3900 6.1250
v 1181.2500 0.3900 6.8750
v 1179.7500 0.3900 6.8750
v 1179.8100 0.0000 6.1500
v 1179.8900 0.0000 6.1500
v 1179.8900 0.0000 6.8500
v 1179.8100 0.0000 6.8500
v 1179.8100 0.3600 6.1500
v 1179.8900 0.3600 6.1500
v 1179.8900 0.3600 6.8500
v 1179.8100 0.3600 6.8500
v 1181.1100 0.0000 6.1500
v 1181.1900 0.0000 6.1500
v 1181.1900 0.0000 6.8500
v 1181.1100 0.0000 6.8500
v 1181.1100 0.3600 6.1500
v 1181.1900 0.3600 6.1500
v 1181.1900 0.3600 6.8500
v 1181.1100 0.3600 6.8500
v 1180.2700 0.3900 6.5400
v 1180.7300 0.3900 6.5400
v 1180.7300 0.3900 6.7000
v 1180.2700 0.3900 6.7000
v 1180.2700 0.7700 6.5400
v 1180.7300 0.7700 6.5400
v 1180.7300 0.7700 6.7000
v 1180.2700 0.7700 6.7000
v 1179.7500 0.3300 12.6250
v 1181.2500 0.3300 12.6250
v 1181.2500 0.3300 13.3750
v 1179.7500 0.3300 13.3750
v 1179.7500 0.3900 12.6250
v 1181.2500 0.3900 12.6250
v 1181.2500 0.3900 13.3750
v 1179.7500 0.3900 13.3750
v 1179.8100 0.0000 12.6500
v 1179.8900 0.0000 12.6500
v 1179.8900 0.0000 13.3500
v 1179.8100 0.0000 13.3500
v 1179.8100 0.3600 12.6500
v 1179.8900 0.3600 12.6500
v 1179.8900 0.3600 13.3500
v 1179.8100 0.3600 13.3500
v 1181.1100 0.0000 12.6500
v 1181.1900 0.0000 12.6500
v 1181.1900 0.0000 13.3500
v 1181.1100 0.0000 13.3500
v 1181.1100 0.3600 12.6500
v 1181.1900 0.3600 12.6500
v 1181.1900 0.3600 13.3500
v 1181.1100 0.3600 13.3500
v 1180.2700 0.3900 13.0400
v 1180.7300 0.3900 13.0400
v 1180.7300 0.3900 13.2000
v 1180.2700 0.3900 13.2000
v 1180.2700 0.7700 13.0400
v 1180.7300 0.7700 13.0400
v 1180.7300 0.7700 13.2000
v 1180.2700 0.7700 13.2000
v 1147.2500 0.3300 19.1250
v 1148.7500 0.3300 19.1250
v 1148.7500 0.3300 19.8750
v 1147.2500 0.3300 19.8750
v 1147.2500 0.3900 19.1250
v 1148.7500 0.3900 19.1250
v 1148.7500 0.3900 19.8750
v 1147.2500 0.3900 19.8750
v 1147.3100 0.0000 19.1500
v 1147.3900 0.0000 19.1500
v 1147.3900 0.0000 19.8500
v 1147.3100 0.0000 19.8500
v 1147.3100 0.3600 19.1500
v 1147.3900 0.3600 19.1500
v 1147.3900 0.3600 19.8500
v 1147.3100 0.3600 19.8500
v 1148.6100 0.0000 19.1500
v 1148.6900 0.0000 19.1500
v 1148.6900 0.0000 19.8500
v 1148.6100 0.0000 19.8500
v 1148.6100 0.3600 19.1500
v 1148.6900 0.3600 19.1500
v 1148.6900 0.3600 19.8500
v 1148.6100 0.3600 19.8500
v 1147.7700 0.3900 19.5400
v 1148.2300 0.3900 19.5400
v 1148.2300 0.3900 19.7000
v 1147.7700 0.3900 19.7000
v 1147.7700 0.7700 19.5400
v 1148.2300 0.7700 19.5400
v 1148.2300 0.7700 19.7000
v 1147.7700 0.7700 19.7000
v 1153.7500 0.3300 19.1250
v 1155.2500 0.3300 19.1250
v 1155.2500 0.3300 19.8750
v 1153.7500 0.3300 19.8750
v 1153.7500 0.3900 19.1250
v 1155.2500 0.3900 19.1250
v 1155.2500 0.3900 19.8750
v 1153.7500 0.3900 19.8750
v 1153.8100 0.0000 19.1500
v 1153.8900 0.0000 19.1500
v 1153.8900 0.0000 19.8500
v 1153.8100 0.0000 19.8500
v 1153.8100 0.3600 19.1500
v 1153.8900 0.3600 19.1500
v 1153.8900 0.3600 19.8500
v 1153.8100 0.3600 19.8500
v 1155.1100 0.0000 19.1500
v 1155.1900 0.0000 19.1500
v 1155.1900 0.0000 19.8500
v 1155.1100 0.0000 19.8500
v 1155.1100 0.3600 19.1500
v 1155.1900 0.3600 19.1500
v 1155.1900 0.3600 19.8500
v 1155.1100 0.3600 19.8500
v 1154.2700 0.3900 19.5400
v 1154.7300 0.3900 19.5400
v 1154.7300 0.3900 19.7000
v 1154.2700 0.3900 19.7000
v 1154.2700 0.7700 19.5400
v 1154.7300 0.7700 19.5400
v 1154.7300 0.7700 19.7000
v 1154.2700 0.7700 19.7000
vt 531.3409 -8.2045
vt 531.3409 -6.5682
vt 532.9773 -6.5682
vt 532.9773 -8.2045
vt 531.3409 -8.2045
vt 532.9773 -8.2045
vt 532.9773 -6.5682
vt 531.3409 -6.5682
vt 531.3409 0.0000
vt 532.9773 0.0000
vt 532.9773 1.4091
vt 531.3409 1.4091
vt 532.9773 0.0000
vt 531.3409 0.0000
vt 531.3409 1.4091
vt 532.9773 1.4091
vt -8.2045 0.0000
vt -6.5682 0.0000
vt -6.5682 1.4091
vt -8.2045 1.4091
vt -6.5682 0.0000
vt -8.2045 0.0000
vt -8.2045 1.4091
vt -6.5682 1.4091
vt 534.2955 -8.2045
vt 534.2955 -6.5682
vt 535.9318 -6.5682
vt 535.9318 -8.2045
vt 534.2955 -8.2045
vt 535.9318 -8.2045
vt 535.9318 -6.5682
vt 534.2955 -6.5682
vt 534.2955 0.0000
vt 535.9318 0.0000
vt 535.9318 1.4091
vt 534.2955 1.4091
vt 535.9318 0.0000
vt 534.2955 0.0000
vt 534.2955 1.4091
vt 535.9318 1.4091
vt -8.2045 0.0000
vt -6.5682 0.0000
vt -6.5682 1.4091
vt -8.2045 1.4091
vt -6.5682 0.0000
vt -8.2045 0.0000
vt -8.2045 1.4091
vt -6.5682 1.4091
vt 522.4773 -5.2500
vt 522.4773 -3.6136
vt 524.1136 -3.6136
vt 524.1136 -5.2500
vt 522.4773 -5.2500
vt 524.1136 -5.2500
vt 524.1136 -3.6136
vt 522.4773 -3.6136
vt 522.4773 0.0000
vt 524.1136 0.0000
vt 524.1136 1.4091
vt 522.4773 1.4091
vt 524.1136 0.0000
vt 522.4773 0.0000
vt 522.4773 1.4091
vt 524.1136 1.4091
vt -5.2500 0.0000
vt -3.6136 0.0000
vt -3.6136 1.4091
vt -5.2500 1.4091
vt -3.6136 0.0000
vt -5.2500 0.0000
vt -5.2500 1.4091
vt -3.6136 1.4091
vt 531.3409 -5.2500
vt 531.3409 -3.6136
vt 532.9773 -3.6136
vt 532.9773 -5.2500
vt 531.3409 -5.2500
vt 532.9773 -5.2500
vt 532.9773 -3.6136
vt 531.3409 -3.6136
vt 531.3409 0.0000
vt 532.9773 0.0000
vt 532.9773 1.4091
vt 531.3409 1.4091
vt 532.9773 0.0000
vt 531.3409 0.0000
vt 531.3409 1.4091
vt 532.9773 1.4091
vt -5.2500 0.0000
vt -3.6136 0.0000
vt -3.6136 1.4091
vt -5.2500 1.4091
vt -3.6136 0.0000
vt -5.2500 0.0000
vt -5.2500 1.4091
vt -3.6136 1.4091
vt 522.4773 -2.2955
vt 522.4773 -0.6591
vt 524.1136 -0.6591
vt 524.1136 -2.2955
vt 522.4773 -2.2955
vt 524.1136 -2.2955
vt 524.1136 -0.6591
vt 522.4773 -0.6591
vt 522.4773 0.0000
vt 524.1136 0.0000
vt 524.1136 1.4091
vt 522.4773 1.4091
vt 524.1136 0.0000
vt 522.4773 0.0000
vt 522.4773 1.4091
vt 524.1136 1.4091
vt -2.2955 0.0000
vt -0.6591 0.0000
vt -0.6591 1.4091
vt -2.2955 1.4091
vt -0.6591 0.0000
vt -2.2955 0.0000
vt -2.2955 1.4091
vt -0.6591 1.4091
vt 523.9545 -2.2955
vt 523.9545 -0.6591
vt 525.5909 -0.6591
vt 525.5909 -2.2955
vt 523.9545 -2.2955
vt 525.5909 -2.2955
vt 525.5909 -0.6591
vt 523.9545 -0.6591
vt 523.9545 0.0000
vt 525.5909 0.0000
vt 525.5909 1.4091
vt 523.9545 1.4091
vt 525.5909 0.0000
vt 523.9545 0.0000
vt 523.9545 1.4091
vt 525.5909 1.4091
vt -2.2955 0.0000
vt -0.6591 0.0000
vt -0.6591 1.4091
vt -2.2955 1.4091
vt -0.6591 0.0000
vt -2.2955 0.0000
vt -2.2955 1.4091
vt -0.6591 1.4091
vt 528.3864 -2.2955
vt 528.3864 -0.6591
vt 530.0227 -0.6591
vt 530.0227 -2.2955
vt 528.3864 -2.2955
vt 530.0227 -2.2955
vt 530.0227 -0.6591
vt 528.3864 -0.6591
vt 528.3864 0.0000
vt 530.0227 0.0000
vt 530.0227 1.4091
vt 528.3864 1.4091
vt 530.0227 0.0000
vt 528.3864 0.0000
vt 528.3864 1.4091
vt 530.0227 1.4091
vt -2.2955 0.0000
vt -0.6591 0.0000
vt -0.6591 1.4091
vt -2.2955 1.4091
vt -0.6591 0.0000
vt -2.2955 0.0000
vt -2.2955 1.4091
vt -0.6591 1.4091
vt 531.3409 -2.2955
vt 531.3409 -0.6591
vt 532.9773 -0.6591
vt 532.9773 -2.2955
vt 531.3409 -2.2955
vt 532.9773 -2.2955
vt 532.9773 -0.6591
vt 531.3409 -0.6591
vt 531.3409 0.0000
vt 532.9773 0.0000
vt 532.9773 1.4091
vt 531.3409 1.4091
vt 532.9773 0.0000
vt 531.3409 0.0000
vt 531.3409 1.4091
vt 532.9773 1.4091
vt -2.2955 0.0000
vt -0.6591 0.0000
vt -0.6591 1.4091
vt -2.2955 1.4091
vt -0.6591 0.0000
vt -2.2955 0.0000
vt -2.2955 1.4091
vt -0.6591 1.4091
vt 534.2955 -2.2955
vt 534.2955 -0.6591
vt 535.9318 -0.6591
vt 535.9318 -2.2955
vt 534.2955 -2.2955
vt 535.9318 -2.2955
vt 535.9318 -0.6591
vt 534.2955 -0.6591
vt 534.2955 0.0000
vt 535.9318 0.0000
vt 535.9318 1.4091
vt 534.2955 1.4091
vt 535.9318 0.0000
vt 534.2955 0.0000
vt 534.2955 1.4091
vt 535.9318 1.4091
vt -2.2955 0.0000
vt -0.6591 0.0000
vt -0.6591 1.4091
vt -2.2955 1.4091
vt -0.6591 0.0000
vt -2.2955 0.0000
vt -2.2955 1.4091
vt -0.6591 1.4091
vt 535.7727 -2.2955
vt 535.7727 -0.6591
vt 537.4091 -0.6591
vt 537.4091 -2.2955
vt 535.7727 -2.2955
vt 537.4091 -2.2955
vt 537.4091 -0.6591
vt 535.7727 -0.6591
vt 535.7727 0.0000
vt 537.4091 0.0000
vt 537.4091 1.4091
vt 535.7727 1.4091
vt 537.4091 0.0000
vt 535.7727 0.0000
vt 535.7727 1.4091
vt 537.4091 1.4091
vt -2.2955 0.0000
vt -0.6591 0.0000
vt -0.6591 1.4091
vt -2.2955 1.4091
vt -0.6591 0.0000
vt -2.2955 0.0000
vt -2.2955 1.4091
vt -0.6591 1.4091
vt 525.4318 0.6591
vt 525.4318 2.2955
vt 527.0682 2.2955
vt 527.0682 0.6591
vt 525.4318 0.6591
vt 527.0682 0.6591
vt 527.0682 2.2955
vt 525.4318 2.2955
vt 525.4318 0.0000
vt 527.0682 0.0000
vt 527.0682 1.4091
vt 525.4318 1.4091
vt 527.0682 0.0000
vt 525.4318 0.0000
vt 525.4318 1.4091
vt 527.0682 1.4091
vt 0.6591 0.0000
vt 2.2955 0.0000
vt 2.2955 1.4091
vt 0.6591 1.4091
vt 2.2955 0.0000
vt 0.6591 0.0000
vt 0.6591 1.4091
vt 2.2955 1.4091
vt 528.3864 0.6591
vt 528.3864 2.2955
vt 530.0227 2.2955
vt 530.0227 0.6591
vt 528.3864 0.6591
vt 530.0227 0.6591
vt 530.0227 2.2955
vt 528.3864 2.2955
vt 528.3864 0.0000
vt 530.0227 0.0000
vt 530.0227 1.4091
vt 528.3864 1.4091
vt 530.0227 0.0000
vt 528.3864 0.0000
vt 528.3864 1.4091
vt 530.0227 1.4091
vt 0.6591 0.0000
vt 2.2955 0.0000
vt 2.2955 1.4091
vt 0.6591 1.4091
vt 2.2955 0.0000
vt 0.6591 0.0000
vt 0.6591 1.4091
vt 2.2955 1.4091
vt 534.2955 0.6591
vt 534.2955 2.2955
vt 535.9318 2.2955
vt 535.9318 0.6591
vt 534.2955 0.6591
vt 535.9318 0.6591
vt 535.9318 2.2955
vt 534.2955 2.2955
vt 534.2955 0.0000
vt 535.9318 0.0000
vt 535.9318 1.4091
vt 534.2955 1.4091
vt 535.9318 0.0000
vt 534.2955 0.0000
vt 534.2955 1.4091
vt 535.9318 1.4091
vt 0.6591 0.0000
vt 2.2955 0.0000
vt 2.2955 1.4091
vt 0.6591 1.4091
vt 2.2955 0.0000
vt 0.6591 0.0000
vt 0.6591 1.4091
vt 2.2955 1.4091
vt 531.3409 3.6136
vt 531.3409 5.2500
vt 532.9773 5.2500
vt 532.9773 3.6136
vt 531.3409 3.6136
vt 532.9773 3.6136
vt 532.9773 5.2500
vt 531.3409 5.2500
vt 531.3409 0.0000
vt 532.9773 0.0000
vt 532.9773 1.4091
vt 531.3409 1.4091
vt 532.9773 0.0000
vt 531.3409 0.0000
vt 531.3409 1.4091
vt 532.9773 1.4091
vt 3.6136 0.0000
vt 5.2500 0.0000
vt 5.2500 1.4091
vt 3.6136 1.4091
vt 5.2500 0.0000
vt 3.6136 0.0000
vt 3.6136 1.4091
vt 5.2500 1.4091
vt 534.2955 3.6136
vt 534.2955 5.2500
vt 535.9318 5.2500
vt 535.9318 3.6136
vt 534.2955 3.6136
vt 535.9318 3.6136
vt 535.9318 5.2500
vt 534.2955 5.2500
vt 534.2955 0.0000
vt 535.9318 0.0000
vt 535.9318 1.4091
vt 534.2955 1.4091
vt 535.9318 0.0000
vt 534.2955 0.0000
vt 534.2955 1.4091
vt 535.9318 1.4091
vt 3.6136 0.0000
vt 5.2500 0.0000
vt 5.2500 1.4091
vt 3.6136 1.4091
vt 5.2500 0.0000
vt 3.6136 0.0000
vt 3.6136 1.4091
vt 5.2500 1.4091
vt 961.5164 -10.9016
vt 961.5164 -10.4098
vt 963.0738 -10.4098
vt 963.0738 -10.9016
vt 961.5164 -10.9016
vt 963.0738 -10.9016
vt 963.0738 -10.4098
vt 961.5164 -10.4098
vt 961.5164 2.4672
vt 963.0738 2.4672
vt 963.0738 2.5328
vt 961.5164 2.5328
vt 963.0738 2.4672
vt 961.5164 2.4672
vt 961.5164 2.5328
vt 963.0738 2.5328
vt -10.9016 2.4672
vt -10.4098 2.4672
vt -10.4098 2.5328
vt -10.9016 2.5328
vt -10.4098 2.4672
vt -10.9016 2.4672
vt -10.9016 2.5328
vt -10.4098 2.5328
vt 966.8443 -10.9016
vt 966.8443 -10.4098
vt 968.4016 -10.4098
vt 968.4016 -10.9016
vt 966.8443 -10.9016
vt 968.4016 -10.9016
vt 968.4016 -10.4098
vt 966.8443 -10.4098
vt 966.8443 2.4672
vt 968.4016 2.4672
vt 968.4016 2.5328
vt 966.8443 2.5328
vt 968.4016 2.4672
vt 966.8443 2.4672
vt 966.8443 2.5328
vt 968.4016 2.5328
vt -10.9016 2.4672
vt -10.4098 2.4672
vt -10.4098 2.5328
vt -10.9016 2.5328
vt -10.4098 2.4672
vt -10.9016 2.4672
vt -10.9016 2.5328
vt -10.4098 2.5328
vt 945.5328 -5.5738
vt 945.5328 -5.0820
vt 947.0902 -5.0820
vt 947.0902 -5.5738
vt 945.5328 -5.5738
vt 947.0902 -5.5738
vt 947.0902 -5.0820
vt 945.5328 -5.0820
vt 945.5328 2.4672
vt 947.0902 2.4672
vt 947.0902 2.5328
vt 945.5328 2.5328
vt 947.0902 2.4672
vt 945.5328 2.4672
vt 945.5328 2.5328
vt 947.0902 2.5328
vt -5.5738 2.4672
vt -5.0820 2.4672
vt -5.0820 2.5328
vt -5.5738 2.5328
vt -5.0820 2.4672
vt -5.5738 2.4672
vt -5.5738 2.5328
vt -5.0820 2.5328
vt 961.5164 -5.5738
vt 961.5164 -5.0820
vt 963.0738 -5.0820
vt 963.0738 -5.5738
vt 961.5164 -5.5738
vt 963.0738 -5.5738
vt 963.0738 -5.0820
vt 961.5164 -5.0820
vt 961.5164 2.4672
vt 963.0738 2.4672
vt 963.0738 2.5328
vt 961.5164 2.5328
vt 963.0738 2.4672
vt 961.5164 2.4672
vt 961.5164 2.5328
vt 963.0738 2.5328
vt -5.5738 2.4672
vt -5.0820 2.4672
vt -5.0820 2.5328
vt -5.5738 2.5328
vt -5.0820 2.4672
vt -5.5738 2.4672
vt -5.5738 2.5328
vt -5.0820 2.5328
vt 966.8443 -5.5738
vt 966.8443 -5.0820
vt 968.4016 -5.0820
vt 968.4016 -5.5738
vt 966.8443 -5.5738
vt 968.4016 -5.5738
vt 968.4016 -5.0820
vt 966.8443 -5.0820
vt 966.8443 2.4672
vt 968.4016 2.4672
vt 968.4016 2.5328
vt 966.8443 2.5328
vt 968.4016 2.4672
vt 966.8443 2.4672
vt 966.8443 2.5328
vt 968.4016 2.5328
vt -5.5738 2.4672
vt -5.0820 2.4672
vt -5.0820 2.5328
vt -5.5738 2.5328
vt -5.0820 2.4672
vt -5.5738 2.4672
vt -5.5738 2.5328
vt -5.0820 2.5328
vt 940.2049 -0.2459
vt 940.2049 0.2459
vt 941.7623 0.2459
vt 941.7623 -0.2459
vt 940.2049 -0.2459
vt 941.7623 -0.2459
vt 941.7623 0.2459
vt 940.2049 0.2459
vt 940.2049 2.4672
vt 941.7623 2.4672
vt 941.7623 2.5328
vt 940.2049 2.5328
vt 941.7623 2.4672
vt 940.2049 2.4672
vt 940.2049 2.5328
vt 941.7623 2.5328
vt -0.2459 2.4672
vt 0.2459 2.4672
vt 0.2459 2.5328
vt -0.2459 2.5328
vt 0.2459 2.4672
vt -0.2459 2.4672
vt -0.2459 2.5328
vt 0.2459 2.5328
vt 950.8607 -0.2459
vt 950.8607 0.2459
vt 952.4180 0.2459
vt 952.4180 -0.2459
vt 950.8607 -0.2459
vt 952.4180 -0.2459
vt 952.4180 0.2459
vt 950.8607 0.2459
vt 950.8607 2.4672
vt 952.4180 2.4672
vt 952.4180 2.5328
vt 950.8607 2.5328
vt 952.4180 2.4672
vt 950.8607 2.4672
vt 950.8607 2.5328
vt 952.4180 2.5328
vt -0.2459 2.4672
vt 0.2459 2.4672
vt 0.2459 2.5328
vt -0.2459 2.5328
vt 0.2459 2.4672
vt -0.2459 2.4672
vt -0.2459 2.5328
vt 0.2459 2.5328
vt 956.1885 -0.2459
vt 956.1885 0.2459
vt 957.7459 0.2459
vt 957.7459 -0.2459
vt 956.1885 -0.2459
vt 957.7459 -0.2459
vt 957.7459 0.2459
vt 956.1885 0.2459
vt 956.1885 2.4672
vt 957.7459 2.4672
vt 957.7459 2.5328
vt 956.1885 2.5328
vt 957.7459 2.4672
vt 956.1885 2.4672
vt 956.1885 2.5328
vt 957.7459 2.5328
vt -0.2459 2.4672
vt 0.2459 2.4672
vt 0.2459 2.5328
vt -0.2459 2.5328
vt 0.2459 2.4672
vt -0.2459 2.4672
vt -0.2459 2.5328
vt 0.2459 2.5328
vt 961.5164 -0.2459
vt 961.5164 0.2459
vt 963.0738 0.2459
vt 963.0738 -0.2459
vt 961.5164 -0.2459
vt 963.0738 -0.2459
vt 963.0738 0.2459
vt 961.5164 0.2459
vt 961.5164 2.4672
vt 963.0738 2.4672
vt 963.0738 2.5328
vt 961.5164 2.5328
vt 963.0738 2.4672
vt 961.5164 2.4672
vt 961.5164 2.5328
vt 963.0738 2.5328
vt -0.2459 2.4672
vt 0.2459 2.4672
vt 0.2459 2.5328
vt -0.2459 2.5328
vt 0.2459 2.4672
vt -0.2459 2.4672
vt -0.2459 2.5328
vt 0.2459 2.5328
vt 966.8443 -0.2459
vt 966.8443 0.2459
vt 968.4016 0.2459
vt 968.4016 -0.2459
vt 966.8443 -0.2459
vt 968.4016 -0.2459
vt 968.4016 0.2459
vt 966.8443 0.2459
vt 966.8443 2.4672
vt 968.4016 2.4672
vt 968.4016 2.5328
vt 966.8443 2.5328
vt 968.4016 2.4672
vt 966.8443 2.4672
vt 966.8443 2.5328
vt 968.4016 2.5328
vt -0.2459 2.4672
vt 0.2459 2.4672
vt 0.2459 2.5328
vt -0.2459 2.5328
vt 0.2459 2.4672
vt -0.2459 2.4672
vt -0.2459 2.5328
vt 0.2459 2.5328
vt 940.2049 5.0820
vt 940.2049 5.5738
vt 941.7623 5.5738
vt 941.7623 5.0820
vt 940.2049 5.0820
vt 941.7623 5.0820
vt 941.7623 5.5738
vt 940.2049 5.5738
vt 940.2049 2.4672
vt 941.7623 2.4672
vt 941.7623 2.5328
vt 940.2049 2.5328
vt 941.7623 2.4672
vt 940.2049 2.4672
vt 940.2049 2.5328
vt 941.7623 2.5328
vt 5.0820 2.4672
vt 5.5738 2.4672
vt 5.5738 2.5328
vt 5.0820 2.5328
vt 5.5738 2.4672
vt 5.0820 2.4672
vt 5.0820 2.5328
vt 5.5738 2.5328
vt 945.5328 5.0820
vt 945.5328 5.5738
vt 947.0902 5.5738
vt 947.0902 5.0820
vt 945.5328 5.0820
vt 947.0902 5.0820
vt 947.0902 5.5738
vt 945.5328 5.5738
vt 945.5328 2.4672
vt 947.0902 2.4672
vt 947.0902 2.5328
vt 945.5328 2.5328
vt 947.0902 2.4672
vt 945.5328 2.4672
vt 945.5328 2.5328
vt 947.0902 2.5328
vt 5.0820 2.4672
vt 5.5738 2.4672
vt 5.5738 2.5328
vt 5.0820 2.5328
vt 5.5738 2.4672
vt 5.0820 2.4672
vt 5.0820 2.5328
vt 5.5738 2.5328
vt 956.1885 5.0820
vt 956.1885 5.5738
vt 957.7459 5.5738
vt 957.7459 5.0820
vt 956.1885 5.0820
vt 957.7459 5.0820
vt 957.7459 5.5738
vt 956.1885 5.5738
vt 956.1885 2.4672
vt 957.7459 2.4672
vt 957.7459 2.5328
vt 956.1885 2.5328
vt 957.7459 2.4672
vt 956.1885 2.4672
vt 956.1885 2.5328
vt 957.7459 2.5328
vt 5.0820 2.4672
vt 5.5738 2.4672
vt 5.5738 2.5328
vt 5.0820 2.5328
vt 5.5738 2.4672
vt 5.0820 2.4672
vt 5.0820 2.5328
vt 5.5738 2.5328
vt 940.2049 10.4098
vt 940.2049 10.9016
vt 941.7623 10.9016
vt 941.7623 10.4098
vt 940.2049 10.4098
vt 941.7623 10.4098
vt 941.7623 10.9016
vt 940.2049 10.9016
vt 940.2049 2.4672
vt 941.7623 2.4672
vt 941.7623 2.5328
vt 940.2049 2.5328
vt 941.7623 2.4672
vt 940.2049 2.4672
vt 940.2049 2.5328
vt 941.7623 2.5328
vt 10.4098 2.4672
vt 10.9016 2.4672
vt 10.9016 2.5328
vt 10.4098 2.5328
vt 10.9016 2.4672
vt 10.4098 2.4672
vt 10.4098 2.5328
vt 10.9016 2.5328
vt 945.5328 10.4098
vt 945.5328 10.9016
vt 947.0902 10.9016
vt 947.0902 10.4098
vt 945.5328 10.4098
vt 947.0902 10.4098
vt 947.0902 10.9016
vt 945.5328 10.9016
vt 945.5328 2.4672
vt 947.0902 2.4672
vt 947.0902 2.5328
vt 945.5328 2.5328
vt 947.0902 2.4672
vt 945.5328 2.4672
vt 945.5328 2.5328
vt 947.0902 2.5328
vt 10.4098 2.4672
vt 10.9016 2.4672
vt 10.9016 2.5328
vt 10.4098 2.5328
vt 10.9016 2.4672
vt 10.4098 2.4672
vt 10.4098 2.5328
vt 10.9016 2.5328
vt 966.8443 10.4098
vt 966.8443 10.9016
vt 968.4016 10.9016
vt 968.4016 10.4098
vt 966.8443 10.4098
vt 968.4016 10.4098
vt 968.4016 10.9016
vt 966.8443 10.9016
vt 966.8443 2.4672
vt 968.4016 2.4672
vt 968.4016 2.5328
vt 966.8443 2.5328
vt 968.4016 2.4672
vt 966.8443 2.4672
vt 966.8443 2.5328
vt 968.4016 2.5328
vt 10.4098 2.4672
vt 10.9016 2.4672
vt 10.9016 2.5328
vt 10.4098 2.5328
vt 10.9016 2.4672
vt 10.4098 2.4672
vt 10.4098 2.5328
vt 10.9016 2.5328
vt 940.2049 15.7377
vt 940.2049 16.2295
vt 941.7623 16.2295
vt 941.7623 15.7377
vt 940.2049 15.7377
vt 941.7623 15.7377
vt 941.7623 16.2295
vt 940.2049 16.2295
vt 940.2049 2.4672
vt 941.7623 2.4672
vt 941.7623 2.5328
vt 940.2049 2.5328
vt 941.7623 2.4672
vt 940.2049 2.4672
vt 940.2049 2.5328
vt 941.7623 2.5328
vt 15.7377 2.4672
vt 16.2295 2.4672
vt 16.2295 2.5328
vt 15.7377 2.5328
vt 16.2295 2.4672
vt 15.7377 2.4672
vt 15.7377 2.5328
vt 16.2295 2.5328
vt 945.5328 15.7377
vt 945.5328 16.2295
vt 947.0902 16.2295
vt 947.0902 15.7377
vt 945.5328 15.7377
vt 947.0902 15.7377
vt 947.0902 16.2295
vt 945.5328 16.2295
vt 945.5328 2.4672
vt 947.0902 2.4672
vt 947.0902 2.5328
vt 945.5328 2.5328
vt 947.0902 2.4672
vt 945.5328 2.4672
vt 945.5328 2.5328
vt 947.0902 2.5328
vt 15.7377 2.4672
vt 16.2295 2.4672
vt 16.2295 2.5328
vt 15.7377 2.5328
vt 16.2295 2.4672
vt 15.7377 2.4672
vt 15.7377 2.5328
vt 16.2295 2.5328
vt 961.5164 15.7377
vt 961.5164 16.2295
vt 963.0738 16.2295
vt 963.0738 15.7377
vt 961.5164 15.7377
vt 963.0738 15.7377
vt 963.0738 16.2295
vt 961.5164 16.2295
vt 961.5164 2.4672
vt 963.0738 2.4672
vt 963.0738 2.5328
vt 961.5164 2.5328
vt 963.0738 2.4672
vt 961.5164 2.4672
vt 961.5164 2.5328
vt 963.0738 2.5328
vt 15.7377 2.4672
vt 16.2295 2.4672
vt 16.2295 2.5328
vt 15.7377 2.5328
vt 16.2295 2.4672
vt 15.7377 2.4672
vt 15.7377 2.5328
vt 16.2295 2.5328
vt 966.8443 15.7377
vt 966.8443 16.2295
vt 968.4016 16.2295
vt 968.4016 15.7377
vt 966.8443 15.7377
vt 968.4016 15.7377
vt 968.4016 16.2295
vt 966.8443 16.2295
vt 966.8443 2.4672
vt 968.4016 2.4672
vt 968.4016 2.5328
vt 966.8443 2.5328
vt 968.4016 2.4672
vt 966.8443 2.4672
vt 966.8443 2.5328
vt 968.4016 2.5328
vt 15.7377 2.4672
vt 16.2295 2.4672
vt 16.2295 2.5328
vt 15.7377 2.5328
vt 16.2295 2.4672
vt 15.7377 2.4672
vt 15.7377 2.5328
vt 16.2295 2.5328
usemtl cubicle
f 73 76 75 74
f 77 78 79 80
f 73 74 78 77
f 75 76 80 79
f 74 75 79 78
f 76 73 77 80
f 105 108 107 106
f 109 110 111 112
f 105 106 110 109
f 107 108 112 111
f 106 107 111 110
f 108 105 109 112
f 113 116 115 114
f 117 118 119 120
f 113 114 118 117
f 115 116 120 119
f 114 115 119 118
f 116 113 117 120
f 169 172 171 170
f 173 174 175 176
f 169 170 174 173
f 171 172 176 175
f 170 171 175 174
f 172 169 173 176
f 273 276 275 274
f 277 278 279 280
f 273 274 278 277
f 275 276 280 279
f 274 275 279 278
f 276 273 277 280
f 281 284 283 282
f 285 286 287 288
f 281 282 286 285
f 283 284 288 287
f 282 283 287 286
f 284 281 285 288
f 361 364 363 362
f 365 366 367 368
f 361 362 366 365
f 363 364 368 367
f 362 363 367 366
f 364 361 365 368
f 369 372 371 370
f 373 374 375 376
f 369 370 374 373
f 371 372 376 375
f 370 371 375 374
f 372 369 373 376
f 377 380 379 378
f 381 382 383 384
f 377 378 382 381
f 379 380 384 383
f 378 379 383 382
f 380 377 381 384
f 433 436 435 434
f 437 438 439 440
f 433 434 438 437
f 435 436 440 439
f 434 435 439 438
f 436 433 437 440
usemtl fluorescent
f 441 444 443 442
f 445 446 447 448
f 441 442 446 445
f 443 444 448 447
f 442 443 447 446
f 444 441 445 448
f 473 476 475 474
f 477 478 479 480
f 473 474 478 477
f 475 476 480 479
f 474 475 479 478
f 476 473 477 480
f 505 508 507 506
f 509 510 511 512
f 505 506 510 509
f 507 508 512 511
f 506 507 511 510
f 508 505 509 512
f 537 540 539 538
f 541 542 543 544
f 537 538 542 541
f 539 540 544 543
f 538 539 543 542
f 540 537 541 544
f 569 572 571 570
f 573 574 575 576
f 569 570 574 573
f 571 572 576 575
f 570 571 575 574
f 572 569 573 576
f 601 604 603 602
f 605 606 607 608
f 601 602 606 605
f 603 604 608 607
f 602 603 607 606
f 604 601 605 608
f 633 636 635 634
f 637 638 639 640
f 633 634 638 637
f 635 636 640 639
f 634 635 639 638
f 636 633 637 640
f 665 668 667 666
f 669 670 671 672
f 665 666 670 669
f 667 668 672 671
f 666 667 671 670
f 668 665 669 672
f 697 700 699 698
f 701 702 703 704
f 697 698 702 701
f 699 700 704 703
f 698 699 703 702
f 700 697 701 704
f 729 732 731 730
f 733 734 735 736
f 729 730 734 733
f 731 732 736 735
f 730 731 735 734
f 732 729 733 736
f 761 764 763 762
f 765 766 767 768
f 761 762 766 765
f 763 764 768 767
f 762 763 767 766
f 764 761 765 768
f 793 796 795 794
f 797 798 799 800
f 793 794 798 797
f 795 796 800 799
f 794 795 799 798
f 796 793 797 800
f 825 828 827 826
f 829 830 831 832
f 825 826 830 829
f 827 828 832 831
f 826 827 831 830
f 828 825 829 832
f 857 860 859 858
f 861 862 863 864
f 857 858 862 861
f 859 860 864 863
f 858 859 863 862
f 860 857 861 864
f 889 892 891 890
f 893 894 895 896
f 889 890 894 893
f 891 892 896 895
f 890 891 895 894
f 892 889 893 896
f 921 924 923 922
f 925 926 927 928
f 921 922 926 925
f 923 924 928 927
f 922 923 927 926
f 924 921 925 928
f 953 956 955 954
f 957 958 959 960
f 953 954 958 957
f 955 956 960 959
f 954 955 959 958
f 956 953 957 960
f 985 988 987 986
f 989 990 991 992
f 985 986 990 989
f 987 988 992 991
f 986 987 991 990
f 988 985 989 992
f 1017 1020 1019 1018
f 1021 1022 1023 1024
f 1017 1018 1022 1021
f 1019 1020 1024 1023
f 1018 1019 1023 1022
f 1020 1017 1021 1024
f 1049 1052 1051 1050
f 1053 1054 1055 1056
f 1049 1050 1054 1053
f 1051 1052 1056 1055
f 1050 1051 1055 1054
f 1052 1049 1053 1056
usemtl desk
f 1081 1084 1083 1082
f 1085 1086 1087 1088
f 1081 1082 1086 1085
f 1083 1084 1088 1087
f 1082 1083 1087 1086
f 1084 1081 1085 1088
f 1089 1092 1091 1090
f 1093 1094 1095 1096
f 1089 1090 1094 1093
f 1091 1092 1096 1095
f 1090 1091 1095 1094
f 1092 1089 1093 1096
f 1097 1100 1099 1098
f 1101 1102 1103 1104
f 1097 1098 1102 1101
f 1099 1100 1104 1103
f 1098 1099 1103 1102
f 1100 1097 1101 1104
usemtl monitor
f 1105 1108 1107 1106
f 1109 1110 1111 1112
f 1105 1106 1110 1109
f 1107 1108 1112 1111
f 1106 1107 1111 1110
f 1108 1105 1109 1112
usemtl desk
f 1113 1116 1115 1114
f 1117 1118 1119 1120
f 1113 1114 1118 1117
f 1115 1116 1120 1119
f 1114 1115 1119 1118
f 1116 1113 1117 1120
f 1121 1124 1123 1122
f 1125 1126 1127 1128
f 1121 1122 1126 1125
f 1123 1124 1128 1127
f 1122 1123 1127 1126
f 1124 1121 1125 1128
f 1129 1132 1131 1130
f 1133 1134 1135 1136
f 1129 1130 1134 1133
f 1131 1132 1136 1135
f 1130 1131 1135 1134
f 1132 1129 1133 1136
usemtl monitor
f 1137 1140 1139 1138
f 1141 1142 1143 1144
f 1137 1138 1142 1141
f 1139 1140 1144 1143
f 1138 1139 1143 1142
f 1140 1137 1141 1144
usemtl desk
f 1145 1148 1147 1146
f 1149 1150 1151 1152
f 1145 1146 1150 1149
f 1147 1148 1152 1151
f 1146 1147 1151 1150
f 1148 1145 1149 1152
f 1153 1156 1155 1154
f 1157 1158 1159 1160
f 1153 1154 1158 1157
f 1155 1156 1160 1159
f 1154 1155 1159 1158
f 1156 1153 1157 1160
f 1161 1164 1163 1162
f 1165 1166 1167 1168
f 1161 1162 1166 1165
f 1163 1164 1168 1167
f 1162 1163 1167 1166
f 1164 1161 1165 1168
usemtl monitor
f 1169 1172 1171 1170
f 1173 1174 1175 1176
f 1169 1170 1174 1173
f 1171 1172 1176 1175
f 1170 1171 1175 1174
f 1172 1169 1173 1176
usemtl desk
f 1177 1180 1179 1178
f 1181 1182 1183 1184
f 1177 1178 1182 1181
f 1179 1180 1184 1183
f 1178 1179 1183 1182
f 1180 1177 1181 1184
f 1185 1188 1187 1186
f 1189 1190 1191 1192
f 1185 1186 1190 1189
f 1187 1188 1192 1191
f 1186 1187 1191 1190
f 1188 1185 1189 1192
f 1193 1196 1195 1194
f 1197 1198 1199 1200
f 1193 1194 1198 1197
f 1195 1196 1200 1199
f 1194 1195 1199 1198
f 1196 1193 1197 1200
usemtl monitor
f 1201 1204 1203 1202
f 1205 1206 1207 1208
f 1201 1202 1206 1205
f 1203 1204 1208 1207
f 1202 1203 1207 1206
f 1204 1201 1205 1208
usemtl desk
f 1209 1212 1211 1210
f 1213 1214 1215 1216
f 1209 1210 1214 1213
f 1211 1212 1216 1215
f 1210 1211 1215 1214
f 1212 1209 1213 1216
f 1217 1220 1219 1218
f 1221 1222 1223 1224
f 1217 1218 1222 1221
f 1219 1220 1224 1223
f 1218 1219 1223 1222
f 1220 1217 1221 1224
f 1225 1228 1227 1226
f 1229 1230 1231 1232
f 1225 1226 1230 1229
f 1227 1228 1232 1231
f 1226 1227 1231 1230
f 1228 1225 1229 1232
usemtl monitor
f 1233 1236 1235 1234
f 1237 1238 1239 1240
f 1233 1234 1238 1237
f 1235 1236 1240 1239
f 1234 1235 1239 1238
f 1236 1233 1237 1240
usemtl desk
f 1241 1244 1243 1242
f 1245 1246 1247 1248
f 1241 1242 1246 1245
f 1243 1244 1248 1247
f 1242 1243 1247 1246
f 1244 1241 1245 1248
f 1249 1252 1251 1250
f 1253 1254 1255 1256
f 1249 1250 1254 1253
f 1251 1252 1256 1255
f 1250 1251 1255 1254
f 1252 1249 1253 1256
f 1257 1260 1259 1258
f 1261 1262 1263 1264
f 1257 1258 1262 1261
f 1259 1260 1264 1263
f 1258 1259 1263 1262
f 1260 1257 1261 1264
usemtl monitor
f 1265 1268 1267 1266
f 1269 1270 1271 1272
f 1265 1266 1270 1269
f 1267 1268 1272 1271
f 1266 1267 1271 1270
f 1268 1265 1269 1272
usemtl desk
f 1273 1276 1275 1274
f 1277 1278 1279 1280
f 1273 1274 1278 1277
f 1275 1276 1280 1279
f 1274 1275 1279 1278
f 1276 1273 1277 1280
f 1281 1284 1283 1282
f 1285 1286 1287 1288
f 1281 1282 1286 1285
f 1283 1284 1288 1287
f 1282 1283 1287 1286
f 1284 1281 1285 1288
f 1289 1292 1291 1290
f 1293 1294 1295 1296
f 1289 1290 1294 1293
f 1291 1292 1296 1295
f 1290 1291 1295 1294
f 1292 1289 1293 1296
usemtl monitor
f 1297 1300 1299 1298
f 1301 1302 1303 1304
f 1297 1298 1302 1301
f 1299 1300 1304 1303
f 1298 1299 1303 1302
f 1300 1297 1301 1304
usemtl desk
f 1305 1308 1307 1306
f 1309 1310 1311 1312
f 1305 1306 1310 1309
f 1307 1308 1312 1311
f 1306 1307 1311 1310
f 1308 1305 1309 1312
f 1313 1316 1315 1314
f 1317 1318 1319 1320
f 1313 1314 1318 1317
f 1315 1316 1320 1319
f 1314 1315 1319 1318
f 1316 1313 1317 1320
f 1321 1324 1323 1322
f 1325 1326 1327 1328
f 1321 1322 1326 1325
f 1323 1324 1328 1327
f 1322 1323 1327 1326
f 1324 1321 1325 1328
usemtl monitor
f 1329 1332 1331 1330
f 1333 1334 1335 1336
f 1329 1330 1334 1333
f 1331 1332 1336 1335
f 1330 1331 1335 1334
f 1332 1329 1333 1336
usemtl desk
f 1337 1340 1339 1338
f 1341 1342 1343 1344
f 1337 1338 1342 1341
f 1339 1340 1344 1343
f 1338 1339 1343 1342
f 1340 1337 1341 1344
f 1345 1348 1347 1346
f 1349 1350 1351 1352
f 1345 1346 1350 1349
f 1347 1348 1352 1351
f 1346 1347 1351 1350
f 1348 1345 1349 1352
f 1353 1356 1355 1354
f 1357 1358 1359 1360
f 1353 1354 1358 1357
f 1355 1356 1360 1359
f 1354 1355 1359 1358
f 1356 1353 1357 1360
usemtl monitor
f 1361 1364 1363 1362
f 1365 1366 1367 1368
f 1361 1362 1366 1365
f 1363 1364 1368 1367
f 1362 1363 1367 1366
f 1364 1361 1365 1368
usemtl desk
f 1369 1372 1371 1370
f 1373 1374 1375 1376
f 1369 1370 1374 1373
f 1371 1372 1376 1375
f 1370 1371 1375 1374
f 1372 1369 1373 1376
f 1377 1380 1379 1378
f 1381 1382 1383 1384
f 1377 1378 1382 1381
f 1379 1380 1384 1383
f 1378 1379 1383 1382
f 1380 1377 1381 1384
f 1385 1388 1387 1386
f 1389 1390 1391 1392
f 1385 1386 1390 1389
f 1387 1388 1392 1391
f 1386 1387 1391 1390
f 1388 1385 1389 1392
usemtl monitor
f 1393 1396 1395 1394
f 1397 1398 1399 1400
f 1393 1394 1398 1397
f 1395 1396 1400 1399
f 1394 1395 1399 1398
f 1396 1393 1397 1400
usemtl office_wall
f 1/1 2/2 3/3 4/4
f 5/5 6/6 7/7 8/8
f 9/9 10/10 11/11 12/12
f 13/13 14/14 15/15 16/16
f 17/17 18/18 19/19 20/20
f 21/21 22/22 23/23 24/24
f 25/25 26/26 27/27 28/28
f 29/29 30/30 31/31 32/32
f 33/33 34/34 35/35 36/36
f 37/37 38/38 39/39 40/40
f 41/41 42/42 43/43 44/44
f 45/45 46/46 47/47 48/48
f 49/49 50/50 51/51 52/52
f 53/53 54/54 55/55 56/56
f 57/57 58/58 59/59 60/60
f 61/61 62/62 63/63 64/64
f 65/65 66/66 67/67 68/68
f 69/69 70/70 71/71 72/72
f 81/73 82/74 83/75 84/76
f 85/77 86/78 87/79 88/80
f 89/81 90/82 91/83 92/84
f 93/85 94/86 95/87 96/88
f 97/89 98/90 99/91 100/92
f 101/93 102/94 103/95 104/96
f 121/97 122/98 123/99 124/100
f 125/101 126/102 127/103 128/104
f 129/105 130/106 131/107 132/108
f 133/109 134/110 135/111 136/112
f 137/113 138/114 139/115 140/116
f 141/117 142/118 143/119 144/120
f 145/121 146/122 147/123 148/124
f 149/125 150/126 151/127 152/128
f 153/129 154/130 155/131 156/132
f 157/133 158/134 159/135 160/136
f 161/137 162/138 163/139 164/140
f 165/141 166/142 167/143 168/144
f 177/145 178/146 179/147 180/148
f 181/149 182/150 183/151 184/152
f 185/153 186/154 187/155 188/156
f 189/157 190/158 191/159 192/160
f 193/161 194/162 195/163 196/164
f 197/165 198/166 199/167 200/168
f 201/169 202/170 203/171 204/172
f 205/173 206/174 207/175 208/176
f 209/177 210/178 211/179 212/180
f 213/181 214/182 215/183 216/184
f 217/185 218/186 219/187 220/188
f 221/189 222/190 223/191 224/192
f 225/193 226/194 227/195 228/196
f 229/197 230/198 231/199 232/200
f 233/201 234/202 235/203 236/204
f 237/205 238/206 239/207 240/208
f 241/209 242/210 243/211 244/212
f 245/213 246/214 247/215 248/216
f 249/217 250/218 251/219 252/220
f 253/221 254/222 255/223 256/224
f 257/225 258/226 259/227 260/228
f 261/229 262/230 263/231 264/232
f 265/233 266/234 267/235 268/236
f 269/237 270/238 271/239 272/240
f 289/241 290/242 291/243 292/244
f 293/245 294/246 295/247 296/248
f 297/249 298/250 299/251 300/252
f 301/253 302/254 303/255 304/256
f 305/257 306/258 307/259 308/260
f 309/261 310/262 311/263 312/264
f 313/265 314/266 315/267 316/268
f 317/269 318/270 319/271 320/272
f 321/273 322/274 323/275 324/276
f 325/277 326/278 327/279 328/280
f 329/281 330/282 331/283 332/284
f 333/285 334/286 335/287 336/288
f 337/289 338/290 339/291 340/292
f 341/293 342/294 343/295 344/296
f 345/297 346/298 347/299 348/300
f 349/301 350/302 351/303 352/304
f 353/305 354/306 355/307 356/308
f 357/309 358/310 359/311 360/312
f 385/313 386/314 387/315 388/316
f 389/317 390/318 391/319 392/320
f 393/321 394/322 395/323 396/324
f 397/325 398/326 399/327 400/328
f 401/329 402/330 403/331 404/332
f 405/333 406/334 407/335 408/336
f 409/337 410/338 411/339 412/340
f 413/341 414/342 415/343 416/344
f 417/345 418/346 419/347 420/348
f 421/349 422/350 423/351 424/352
f 425/353 426/354 427/355 428/356
f 429/357 430/358 431/359 432/360
usemtl ceiling_tile
f 449/361 450/362 451/363 452/364
f 453/365 454/366 455/367 456/368
f 457/369 458/370 459/371 460/372
f 461/373 462/374 463/375 464/376
f 465/377 466/378 467/379 468/380
f 469/381 470/382 471/383 472/384
f 481/385 482/386 483/387 484/388
f 485/389 486/390 487/391 488/392
f 489/393 490/394 491/395 492/396
f 493/397 494/398 495/399 496/400
f 497/401 498/402 499/403 500/404
f 501/405 502/406 503/407 504/408
f 513/409 514/410 515/411 516/412
f 517/413 518/414 519/415 520/416
f 521/417 522/418 523/419 524/420
f 525/421 526/422 527/423 528/424
f 529/425 530/426 531/427 532/428
f 533/429 534/430 535/431 536/432
f 545/433 546/434 547/435 548/436
f 549/437 550/438 551/439 552/440
f 553/441 554/442 555/443 556/444
f 557/445 558/446 559/447 560/448
f 561/449 562/450 563/451 564/452
f 565/453 566/454 567/455 568/456
f 577/457 578/458 579/459 580/460
f 581/461 582/462 583/463 584/464
f 585/465 586/466 587/467 588/468
f 589/469 590/470 591/471 592/472
f 593/473 594/474 595/475 596/476
f 597/477 598/478 599/479 600/480
f 609/481 610/482 611/483 612/484
f 613/485 614/486 615/487 616/488
f 617/489 618/490 619/491 620/492
f 621/493 622/494 623/495 624/496
f 625/497 626/498 627/499 628/500
f 629/501 630/502 631/503 632/504
f 641/505 642/506 643/507 644/508
f 645/509 646/510 647/511 648/512
f 649/513 650/514 651/515 652/516
f 653/517 654/518 655/519 656/520
f 657/521 658/522 659/523 660/524
f 661/525 662/526 663/527 664/528
f 673/529 674/530 675/531 676/532
f 677/533 678/534 679/535 680/536
f 681/537 682/538 683/539 684/540
f 685/541 686/542 687/543 688/544
f 689/545 690/546 691/547 692/548
f 693/549 694/550 695/551 696/552
f 705/553 706/554 707/555 708/556
f 709/557 710/558 711/559 712/560
f 713/561 714/562 715/563 716/564
f 717/565 718/566 719/567 720/568
f 721/569 722/570 723/571 724/572
f 725/573 726/574 727/575 728/576
f 737/577 738/578 739/579 740/580
f 741/581 742/582 743/583 744/584
f 745/585 746/586 747/587 748/588
f 749/589 750/590 751/591 752/592
f 753/593 754/594 755/595 756/596
f 757/597 758/598 759/599 760/600
f 769/601 770/602 771/603 772/604
f 773/605 774/606 775/607 776/608
f 777/609 778/610 779/611 780/612
f 781/613 782/614 783/615 784/616
f 785/617 786/618 787/619 788/620
f 789/621 790/622 791/623 792/624
f 801/625 802/626 803/627 804/628
f 805/629 806/630 807/631 808/632
f 809/633 810/634 811/635 812/636
f 813/637 814/638 815/639 816/640
f 817/641 818/642 819/643 820/644
f 821/645 822/646 823/647 824/648
f 833/649 834/650 835/651 836/652
f 837/653 838/654 839/655 840/656
f 841/657 842/658 843/659 844/660
f 845/661 846/662 847/663 848/664
f 849/665 850/666 851/667 852/668
f 853/669 854/670 855/671 856/672
f 865/673 866/674 867/675 868/676
f 869/677 870/678 871/679 872/680
f 873/681 874/682 875/683 876/684
f 877/685 878/686 879/687 880/688
f 881/689 882/690 883/691 884/692
f 885/693 886/694 887/695 888/696
f 897/697 898/698 899/699 900/700
f 901/701 902/702 903/703 904/704
f 905/705 906/706 907/707 908/708
f 909/709 910/710 911/711 912/712
f 913/713 914/714 915/715 916/716
f 917/717 918/718 919/719 920/720
f 929/721 930/722 931/723 932/724
f 933/725 934/726 935/727 936/728
f 937/729 938/730 939/731 940/732
f 941/733 942/734 943/735 944/736
f 945/737 946/738 947/739 948/740
f 949/741 950/742 951/743 952/744
f 961/745 962/746 963/747 964/748
f 965/749 966/750 967/751 968/752
f 969/753 970/754 971/755 972/756
f 973/757 974/758 975/759 976/760
f 977/761 978/762 979/763 980/764
f 981/765 982/766 983/767 984/768
f 993/769 994/770 995/771 996/772
f 997/773 998/774 999/775 1000/776
f 1001/777 1002/778 1003/779 1004/780
f 1005/781 1006/782 1007/783 1008/784
f 1009/785 1010/786 1011/787 1012/788
f 1013/789 1014/790 1015/791 1016/792
f 1025/793 1026/794 1027/795 1028/796
f 1029/797 1030/798 1031/799 1032/800
f 1033/801 1034/802 1035/803 1036/804
f 1037/805 1038/806 1039/807 1040/808
f 1041/809 1042/810 1043/811 1044/812
f 1045/813 1046/814 1047/815 1048/816
f 1057/817 1058/818 1059/819 1060/820
f 1061/821 1062/822 1063/823 1064/824
f 1065/825 1066/826 1067/827 1068/828
f 1069/829 1070/830 1071/831 1072/832
f 1073/833 1074/834 1075/835 1076/836
f 1077/837 1078/838 1079/839 1080/840
