# RoastEngine Backrooms level
mtllib backrooms.mtl
v 764.9500 0.0000 36.9500
v 764.9500 0.0000 39.5500
v 767.5500 0.0000 39.5500
v 767.5500 0.0000 36.9500
v 764.9500 3.0000 36.9500
v 767.5500 3.0000 36.9500
v 767.5500 3.0000 39.5500
v 764.9500 3.0000 39.5500
v 764.9500 0.0000 36.9500
v 767.5500 0.0000 36.9500
v 767.5500 3.0000 36.9500
v 764.9500 3.0000 36.9500
v 767.5500 0.0000 39.5500
v 764.9500 0.0000 39.5500
v 764.9500 3.0000 39.5500
v 767.5500 3.0000 39.5500
v 767.5500 0.0000 36.9500
v 767.5500 0.0000 39.5500
v 767.5500 3.0000 39.5500
v 767.5500 3.0000 36.9500
v 764.9500 0.0000 39.5500
v 764.9500 0.0000 36.9500
v 764.9500 3.0000 36.9500
v 764.9500 3.0000 39.5500
v 773.9500 0.0000 36.9500
v 773.9500 0.0000 39.5500
v 776.5500 0.0000 39.5500
v 776.5500 0.0000 36.9500
v 773.9500 3.0000 36.9500
v 776.5500 3.0000 36.9500
v 776.5500 3.0000 39.5500
v 773.9500 3.0000 39.5500
v 773.9500 0.0000 36.9500
v 776.5500 0.0000 36.9500
v 776.5500 3.0000 36.9500
v 773.9500 3.0000 36.9500
v 776.5500 0.0000 39.5500
v 773.9500 0.0000 39.5500
v 773.9500 3.0000 39.5500
v 776.5500 3.0000 39.5500
v 776.5500 0.0000 36.9500
v 776.5500 0.0000 39.5500
v 776.5500 3.0000 39.5500
v 776.5500 3.0000 36.9500
v 773.9500 0.0000 39.5500
v 773.9500 0.0000 36.9500
v 773.9500 3.0000 36.9500
v 773.9500 3.0000 39.5500
v 778.4500 0.0000 36.9500
v 778.4500 0.0000 39.5500
v 781.0500 0.0000 39.5500
v 781.0500 0.0000 36.9500
v 778.4500 3.0000 36.9500
v 781.0500 3.0000 36.9500
v 781.0500 3.0000 39.5500
v 778.4500 3.0000 39.5500
v 778.4500 0.0000 36.9500
v 781.0500 0.0000 36.9500
v 781.0500 3.0000 36.9500
v 778.4500 3.0000 36.9500
v 781.0500 0.0000 39.5500
v 778.4500 0.0000 39.5500
v 778.4500 3.0000 39.5500
v 781.0500 3.0000 39.5500
v 781.0500 0.0000 36.9500
v 781.0500 0.0000 39.5500
v 781.0500 3.0000 39.5500
v 781.0500 3.0000 36.9500
v 778.4500 0.0000 39.5500
v 778.4500 0.0000 36.9500
v 778.4500 3.0000 36.9500
v 778.4500 3.0000 39.5500
v 778.4500 0.0000 39.2000
v 778.4500 0.0000 41.8000
v 781.0500 0.0000 41.8000
v 781.0500 0.0000 39.2000
v 778.4500 3.0000 39.2000
v 781.0500 3.0000 39.2000
v 781.0500 3.0000 41.8000
v 778.4500 3.0000 41.8000
v 778.4500 0.0000 39.2000
v 781.0500 0.0000 39.2000
v 781.0500 3.0000 39.2000
v 778.4500 3.0000 39.2000
v 781.0500 0.0000 41.8000
v 778.4500 0.0000 41.8000
v 778.4500 3.0000 41.8000
v 781.0500 3.0000 41.8000
v 781.0500 0.0000 39.2000
v 781.0500 0.0000 41.8000
v 781.0500 3.0000 41.8000
v 781.0500 3.0000 39.2000
v 778.4500 0.0000 41.8000
v 778.4500 0.0000 39.2000
v 778.4500 3.0000 39.2000
v 778.4500 3.0000 41.8000
v 768.3500 2.7000 40.3500
v 768.6500 2.7000 40.3500
v 768.6500 2.7000 40.6500
v 768.3500 2.7000 40.6500
v 768.3500 2.8600 40.3500
v 768.6500 2.8600 40.3500
v 768.6500 2.8600 40.6500
v 768.3500 2.8600 40.6500
v 768.3100 2.8600 40.3100
v 768.6900 2.8600 40.3100
v 768.6900 2.8600 40.6900
v 768.3100 2.8600 40.6900
v 768.3100 2.9400 40.3100
v 768.6900 2.9400 40.3100
v 768.6900 2.9400 40.6900
v 768.3100 2.9400 40.6900
v 777.3500 2.7000 40.3500
v 777.6500 2.7000 40.3500
v 777.6500 2.7000 40.6500
v 777.3500 2.7000 40.6500
v 777.3500 2.8600 40.3500
v 777.6500 2.8600 40.3500
v 777.6500 2.8600 40.6500
v 777.3500 2.8600 40.6500
v 777.3100 2.8600 40.3100
v 777.6900 2.8600 40.3100
v 777.6900 2.8600 40.6900
v 777.3100 2.8600 40.6900
v 777.3100 2.9400 40.3100
v 777.6900 2.9400 40.3100
v 777.6900 2.9400 40.6900
v 777.3100 2.9400 40.6900
v 781.8500 2.7000 40.3500
v 782.1500 2.7000 40.3500
v 782.1500 2.7000 40.6500
v 781.8500 2.7000 40.6500
v 781.8500 2.8600 40.3500
v 782.1500 2.8600 40.3500
v 782.1500 2.8600 40.6500
v 781.8500 2.8600 40.6500
v 781.8100 2.8600 40.3100
v 782.1900 2.8600 40.3100
v 782.1900 2.8600 40.6900
v 781.8100 2.8600 40.6900
v 781.8100 2.9400 40.3100
v 782.1900 2.9400 40.3100
v 782.1900 2.9400 40.6900
v 781.8100 2.9400 40.6900
v 757.3700 2.6000 38.2500
v 757.3700 2.6000 38.2500
v 757.3349 2.6000 38.3349
v 757.3349 2.6000 38.3349
v 757.2500 2.6000 38.3700
v 757.2500 2.6000 38.3700
v 757.1651 2.6000 38.3349
v 757.1651 2.6000 38.3349
v 757.1300 2.6000 38.2500
v 757.1300 2.6000 38.2500
v 757.1651 2.6000 38.1651
v 757.1651 2.6000 38.1651
v 757.2500 2.6000 38.1300
v 757.2500 2.6000 38.1300
v 757.3349 2.6000 38.1651
v 757.3349 2.6000 38.1651
v 757.2500 2.6000 38.2500
v 757.2500 2.6000 38.2500
v 757.2500 2.4800 38.1300
v 782.0000 2.4800 38.1300
v 782.0000 2.4800 38.3700
v 757.2500 2.4800 38.3700
v 757.2500 2.7200 38.1300
v 782.0000 2.7200 38.1300
v 782.0000 2.7200 38.3700
v 757.2500 2.7200 38.3700
v 757.3700 2.6000 42.7500
v 757.3700 2.6000 42.7500
v 757.3349 2.6000 42.8349
v 757.3349 2.6000 42.8349
v 757.2500 2.6000 42.8700
v 757.2500 2.6000 42.8700
v 757.1651 2.6000 42.8349
v 757.1651 2.6000 42.8349
v 757.1300 2.6000 42.7500
v 757.1300 2.6000 42.7500
v 757.1651 2.6000 42.6651
v 757.1651 2.6000 42.6651
v 757.2500 2.6000 42.6300
v 757.2500 2.6000 42.6300
v 757.3349 2.6000 42.6651
v 757.3349 2.6000 42.6651
v 757.2500 2.6000 42.7500
v 757.2500 2.6000 42.7500
v 757.2500 2.4800 42.6300
v 782.0000 2.4800 42.6300
v 782.0000 2.4800 42.8700
v 757.2500 2.4800 42.8700
v 757.2500 2.7200 42.6300
v 782.0000 2.7200 42.6300
v 782.0000 2.7200 42.8700
v 757.2500 2.7200 42.8700
vt 318.7292 15.3958
vt 318.7292 16.4792
vt 319.8125 16.4792
vt 319.8125 15.3958
vt 318.7292 15.3958
vt 319.8125 15.3958
vt 319.8125 16.4792
vt 318.7292 16.4792
vt 318.7292 0.0000
vt 319.8125 0.0000
vt 319.8125 1.2500
vt 318.7292 1.2500
vt 319.8125 0.0000
vt 318.7292 0.0000
vt 318.7292 1.2500
vt 319.8125 1.2500
vt 15.3958 0.0000
vt 16.4792 0.0000
vt 16.4792 1.2500
vt 15.3958 1.2500
vt 16.4792 0.0000
vt 15.3958 0.0000
vt 15.3958 1.2500
vt 16.4792 1.2500
vt 322.4792 15.3958
vt 322.4792 16.4792
vt 323.5625 16.4792
vt 323.5625 15.3958
vt 322.4792 15.3958
vt 323.5625 15.3958
vt 323.5625 16.4792
vt 322.4792 16.4792
vt 322.4792 0.0000
vt 323.5625 0.0000
vt 323.5625 1.2500
vt 322.4792 1.2500
vt 323.5625 0.0000
vt 322.4792 0.0000
vt 322.4792 1.2500
vt 323.5625 1.2500
vt 15.3958 0.0000
vt 16.4792 0.0000
vt 16.4792 1.2500
vt 15.3958 1.2500
vt 16.4792 0.0000
vt 15.3958 0.0000
vt 15.3958 1.2500
vt 16.4792 1.2500
vt 324.3542 15.3958
vt 324.3542 16.4792
vt 325.4375 16.4792
vt 325.4375 15.3958
vt 324.3542 15.3958
vt 325.4375 15.3958
vt 325.4375 16.4792
vt 324.3542 16.4792
vt 324.3542 0.0000
vt 325.4375 0.0000
vt 325.4375 1.2500
vt 324.3542 1.2500
vt 325.4375 0.0000
vt 324.3542 0.0000
vt 324.3542 1.2500
vt 325.4375 1.2500
vt 15.3958 0.0000
vt 16.4792 0.0000
vt 16.4792 1.2500
vt 15.3958 1.2500
vt 16.4792 0.0000
vt 15.3958 0.0000
vt 15.3958 1.2500
vt 16.4792 1.2500
vt 324.3542 16.3333
vt 324.3542 17.4167
vt 325.4375 17.4167
vt 325.4375 16.3333
vt 324.3542 16.3333
vt 325.4375 16.3333
vt 325.4375 17.4167
vt 324.3542 17.4167
vt 324.3542 0.0000
vt 325.4375 0.0000
vt 325.4375 1.2500
vt 324.3542 1.2500
vt 325.4375 0.0000
vt 324.3542 0.0000
vt 324.3542 1.2500
vt 325.4375 1.2500
vt 16.3333 0.0000
vt 17.4167 0.0000
vt 17.4167 1.2500
vt 16.3333 1.2500
vt 17.4167 0.0000
vt 16.3333 0.0000
vt 16.3333 1.2500
vt 17.4167 1.2500
usemtl lamp_caged
f 97 100 99 98
f 101 102 103 104
f 97 98 102 101
f 99 100 104 103
f 98 99 103 102
f 100 97 101 104
usemtl steel
f 105 108 107 106
f 109 110 111 112
f 105 106 110 109
f 107 108 112 111
f 106 107 111 110
f 108 105 109 112
usemtl lamp_caged
f 113 116 115 114
f 117 118 119 120
f 113 114 118 117
f 115 116 120 119
f 114 115 119 118
f 116 113 117 120
usemtl steel
f 121 124 123 122
f 125 126 127 128
f 121 122 126 125
f 123 124 128 127
f 122 123 127 126
f 124 121 125 128
usemtl lamp_caged
f 129 132 131 130
f 133 134 135 136
f 129 130 134 133
f 131 132 136 135
f 130 131 135 134
f 132 129 133 136
usemtl steel
f 137 140 139 138
f 141 142 143 144
f 137 138 142 141
f 139 140 144 143
f 138 139 143 142
f 140 137 141 144
usemtl pipe
f 145 147 148 146
f 147 149 150 148
f 149 151 152 150
f 151 153 154 152
f 153 155 156 154
f 155 157 158 156
f 157 159 160 158
f 159 145 146 160
f 161 146 148
f 162 147 145
f 161 148 150
f 162 149 147
f 161 150 152
f 162 151 149
f 161 152 154
f 162 153 151
f 161 154 156
f 162 155 153
f 161 156 158
f 162 157 155
f 161 158 160
f 162 159 157
f 161 160 146
f 162 145 159
f 163 166 165 164
f 167 168 169 170
f 163 164 168 167
f 165 166 170 169
f 164 165 169 168
f 166 163 167 170
f 171 173 174 172
f 173 175 176 174
f 175 177 178 176
f 177 179 180 178
f 179 181 182 180
f 181 183 184 182
f 183 185 186 184
f 185 171 172 186
f 187 172 174
f 188 173 171
f 187 174 176
f 188 175 173
f 187 176 178
f 188 177 175
f 187 178 180
f 188 179 177
f 187 180 182
f 188 181 179
f 187 182 184
f 188 183 181
f 187 184 186
f 188 185 183
f 187 186 172
f 188 171 185
f 189 192 191 190
f 193 194 195 196
f 189 190 194 193
f 191 192 196 195
f 190 191 195 194
f 192 189 193 196
usemtl brick
f 1/1 2/2 3/3 4/4
f 5/5 6/6 7/7 8/8
f 9/9 10/10 11/11 12/12
f 13/13 14/14 15/15 16/16
f 17/17 18/18 19/19 20/20
f 21/21 22/22 23/23 24/24
f 25/25 26/26 27/27 28/28
f 29/29 30/30 31/31 32/32
f 33/33 34/34 35/35 36/36
f 37/37 38/38 39/39 40/40
f 41/41 42/42 43/43 44/44
f 45/45 46/46 47/47 48/48
f 49/49 50/50 51/51 52/52
f 53/53 54/54 55/55 56/56
f 57/57 58/58 59/59 60/60
f 61/61 62/62 63/63 64/64
f 65/65 66/66 67/67 68/68
f 69/69 70/70 71/71 72/72
f 73/73 74/74 75/75 76/76
f 77/77 78/78 79/79 80/80
f 81/81 82/82 83/83 84/84
f 85/85 86/86 87/87 88/88
f 89/89 90/90 91/91 92/92
f 93/93 94/94 95/95 96/96
