# RoastEngine Backrooms level
mtllib backrooms.mtl
v 836.9500 0.0000 -39.5500
v 836.9500 0.0000 -36.9500
v 839.5500 0.0000 -36.9500
v 839.5500 0.0000 -39.5500
v 836.9500 3.0000 -39.5500
v 839.5500 3.0000 -39.5500
v 839.5500 3.0000 -36.9500
v 836.9500 3.0000 -36.9500
v 836.9500 0.0000 -39.5500
v 839.5500 0.0000 -39.5500
v 839.5500 3.0000 -39.5500
v 836.9500 3.0000 -39.5500
v 839.5500 0.0000 -36.9500
v 836.9500 0.0000 -36.9500
v 836.9500 3.0000 -36.9500
v 839.5500 3.0000 -36.9500
v 839.5500 0.0000 -39.5500
v 839.5500 0.0000 -36.9500
v 839.5500 3.0000 -36.9500
v 839.5500 3.0000 -39.5500
v 836.9500 0.0000 -36.9500
v 836.9500 0.0000 -39.5500
v 836.9500 3.0000 -39.5500
v 836.9500 3.0000 -36.9500
v 836.9500 0.0000 -37.3000
v 836.9500 0.0000 -34.7000
v 839.5500 0.0000 -34.7000
v 839.5500 0.0000 -37.3000
v 836.9500 3.0000 -37.3000
v 839.5500 3.0000 -37.3000
v 839.5500 3.0000 -34.7000
v 836.9500 3.0000 -34.7000
v 836.9500 0.0000 -37.3000
v 839.5500 0.0000 -37.3000
v 839.5500 3.0000 -37.3000
v 836.9500 3.0000 -37.3000
v 839.5500 0.0000 -34.7000
v 836.9500 0.0000 -34.7000
v 836.9500 3.0000 -34.7000
v 839.5500 3.0000 -34.7000
v 839.5500 0.0000 -37.3000
v 839.5500 0.0000 -34.7000
v 839.5500 3.0000 -34.7000
v 839.5500 3.0000 -37.3000
v 836.9500 0.0000 -34.7000
v 836.9500 0.0000 -37.3000
v 836.9500 3.0000 -37.3000
v 836.9500 3.0000 -34.7000
v 836.9500 0.0000 -35.0500
v 836.9500 0.0000 -32.4500
v 839.5500 0.0000 -32.4500
v 839.5500 0.0000 -35.0500
v 836.9500 3.0000 -35.0500
v 839.5500 3.0000 -35.0500
v 839.5500 3.0000 -32.4500
v 836.9500 3.0000 -32.4500
v 836.9500 0.0000 -35.0500
v 839.5500 0.0000 -35.0500
v 839.5500 3.0000 -35.0500
v 836.9500 3.0000 -35.0500
v 839.5500 0.0000 -32.4500
v 836.9500 0.0000 -32.4500
v 836.9500 3.0000 -32.4500
v 839.5500 3.0000 -32.4500
v 839.5500 0.0000 -35.0500
v 839.5500 0.0000 -32.4500
v 839.5500 3.0000 -32.4500
v 839.5500 3.0000 -35.0500
v 836.9500 0.0000 -32.4500
v 836.9500 0.0000 -35.0500
v 836.9500 3.0000 -35.0500
v 836.9500 3.0000 -32.4500
v 836.9500 0.0000 -32.8000
v 836.9500 0.0000 -30.2000
v 839.5500 0.0000 -30.2000
v 839.5500 0.0000 -32.8000
v 836.9500 3.0000 -32.8000
v 839.5500 3.0000 -32.8000
v 839.5500 3.0000 -30.2000
v 836.9500 3.0000 -30.2000
v 836.9500 0.0000 -32.8000
v 839.5500 0.0000 -32.8000
v 839.5500 3.0000 -32.8000
v 836.9500 3.0000 -32.8000
v 839.5500 0.0000 -30.2000
v 836.9500 0.0000 -30.2000
v 836.9500 3.0000 -30.2000
v 839.5500 3.0000 -30.2000
v 839.5500 0.0000 -32.8000
v 839.5500 0.0000 -30.2000
v 839.5500 3.0000 -30.2000
v 839.5500 3.0000 -32.8000
v 836.9500 0.0000 -30.2000
v 836.9500 0.0000 -32.8000
v 836.9500 3.0000 -32.8000
v 836.9500 3.0000 -30.2000
v 836.9500 0.0000 -30.5500
v 836.9500 0.0000 -27.9500
v 839.5500 0.0000 -27.9500
v 839.5500 0.0000 -30.5500
v 836.9500 3.0000 -30.5500
v 839.5500 3.0000 -30.5500
v 839.5500 3.0000 -27.9500
v 836.9500 3.0000 -27.9500
v 836.9500 0.0000 -30.5500
v 839.5500 0.0000 -30.5500
v 839.5500 3.0000 -30.5500
v 836.9500 3.0000 -30.5500
v 839.5500 0.0000 -27.9500
v 836.9500 0.0000 -27.9500
v 836.9500 3.0000 -27.9500
v 839.5500 3.0000 -27.9500
v 839.5500 0.0000 -30.5500
v 839.5500 0.0000 -27.9500
v 839.5500 3.0000 -27.9500
v 839.5500 3.0000 -30.5500
v 836.9500 0.0000 -27.9500
v 836.9500 0.0000 -30.5500
v 836.9500 3.0000 -30.5500
v 836.9500 3.0000 -27.9500
v 836.9500 0.0000 -28.3000
v 836.9500 0.0000 -25.7000
v 839.5500 0.0000 -25.7000
v 839.5500 0.0000 -28.3000
v 836.9500 3.0000 -28.3000
v 839.5500 3.0000 -28.3000
v 839.5500 3.0000 -25.7000
v 836.9500 3.0000 -25.7000
v 836.9500 0.0000 -28.3000
v 839.5500 0.0000 -28.3000
v 839.5500 3.0000 -28.3000
v 836.9500 3.0000 -28.3000
v 839.5500 0.0000 -25.7000
v 836.9500 0.0000 -25.7000
v 836.9500 3.0000 -25.7000
v 839.5500 3.0000 -25.7000
v 839.5500 0.0000 -28.3000
v 839.5500 0.0000 -25.7000
v 839.5500 3.0000 -25.7000
v 839.5500 3.0000 -28.3000
v 836.9500 0.0000 -25.7000
v 836.9500 0.0000 -28.3000
v 836.9500 3.0000 -28.3000
v 836.9500 3.0000 -25.7000
v 836.9500 0.0000 -26.0500
v 836.9500 0.0000 -23.4500
v 839.5500 0.0000 -23.4500
v 839.5500 0.0000 -26.0500
v 836.9500 3.0000 -26.0500
v 839.5500 3.0000 -26.0500
v 839.5500 3.0000 -23.4500
v 836.9500 3.0000 -23.4500
v 836.9500 0.0000 -26.0500
v 839.5500 0.0000 -26.0500
v 839.5500 3.0000 -26.0500
v 836.9500 3.0000 -26.0500
v 839.5500 0.0000 -23.4500
v 836.9500 0.0000 -23.4500
v 836.9500 3.0000 -23.4500
v 839.5500 3.0000 -23.4500
v 839.5500 0.0000 -26.0500
v 839.5500 0.0000 -23.4500
v 839.5500 3.0000 -23.4500
v 839.5500 3.0000 -26.0500
v 836.9500 0.0000 -23.4500
v 836.9500 0.0000 -26.0500
v 836.9500 3.0000 -26.0500
v 836.9500 3.0000 -23.4500
v 836.9500 0.0000 -21.5500
v 836.9500 0.0000 -18.9500
v 839.5500 0.0000 -18.9500
v 839.5500 0.0000 -21.5500
v 836.9500 3.0000 -21.5500
v 839.5500 3.0000 -21.5500
v 839.5500 3.0000 -18.9500
v 836.9500 3.0000 -18.9500
v 836.9500 0.0000 -21.5500
v 839.5500 0.0000 -21.5500
v 839.5500 3.0000 -21.5500
v 836.9500 3.0000 -21.5500
v 839.5500 0.0000 -18.9500
v 836.9500 0.0000 -18.9500
v 836.9500 3.0000 -18.9500
v 839.5500 3.0000 -18.9500
v 839.5500 0.0000 -21.5500
v 839.5500 0.0000 -18.9500
v 839.5500 3.0000 -18.9500
v 839.5500 3.0000 -21.5500
v 836.9500 0.0000 -18.9500
v 836.9500 0.0000 -21.5500
v 836.9500 3.0000 -21.5500
v 836.9500 3.0000 -18.9500
v 836.9500 0.0000 -19.3000
v 836.9500 0.0000 -16.7000
v 839.5500 0.0000 -16.7000
v 839.5500 0.0000 -19.3000
v 836.9500 3.0000 -19.3000
v 839.5500 3.0000 -19.3000
v 839.5500 3.0000 -16.7000
v 836.9500 3.0000 -16.7000
v 836.9500 0.0000 -19.3000
v 839.5500 0.0000 -19.3000
v 839.5500 3.0000 -19.3000
v 836.9500 3.0000 -19.3000
v 839.5500 0.0000 -16.7000
v 836.9500 0.0000 -16.7000
v 836.9500 3.0000 -16.7000
v 839.5500 3.0000 -16.7000
v 839.5500 0.0000 -19.3000
v 839.5500 0.0000 -16.7000
v 839.5500 3.0000 -16.7000
v 839.5500 3.0000 -19.3000
v 836.9500 0.0000 -16.7000
v 836.9500 0.0000 -19.3000
v 836.9500 3.0000 -19.3000
v 836.9500 3.0000 -16.7000
v 840.3500 2.7000 -36.1500
v 840.6500 2.7000 -36.1500
v 840.6500 2.7000 -35.8500
v 840.3500 2.7000 -35.8500
v 840.3500 2.8600 -36.1500
v 840.6500 2.8600 -36.1500
v 840.6500 2.8600 -35.8500
v 840.3500 2.8600 -35.8500
v 840.3100 2.8600 -36.1900
v 840.6900 2.8600 -36.1900
v 840.6900 2.8600 -35.8100
v 840.3100 2.8600 -35.8100
v 840.3100 2.9400 -36.1900
v 840.6900 2.9400 -36.1900
v 840.6900 2.9400 -35.8100
v 840.3100 2.9400 -35.8100
v 840.3500 2.7000 -22.6500
v 840.6500 2.7000 -22.6500
v 840.6500 2.7000 -22.3500
v 840.3500 2.7000 -22.3500
v 840.3500 2.8600 -22.6500
v 840.6500 2.8600 -22.6500
v 840.6500 2.8600 -22.3500
v 840.3500 2.8600 -22.3500
v 840.3100 2.8600 -22.6900
v 840.6900 2.8600 -22.6900
v 840.6900 2.8600 -22.3100
v 840.3100 2.8600 -22.3100
v 840.3100 2.9400 -22.6900
v 840.6900 2.9400 -22.6900
v 840.6900 2.9400 -22.3100
v 840.3100 2.9400 -22.3100
v 838.3700 2.6000 -42.7500
v 838.3700 2.6000 -42.7500
v 838.3349 2.6000 -42.6651
v 838.3349 2.6000 -42.6651
v 838.2500 2.6000 -42.6300
v 838.2500 2.6000 -42.6300
v 838.1651 2.6000 -42.6651
v 838.1651 2.6000 -42.6651
v 838.1300 2.6000 -42.7500
v 838.1300 2.6000 -42.7500
v 838.1651 2.6000 -42.8349
v 838.1651 2.6000 -42.8349
v 838.2500 2.6000 -42.8700
v 838.2500 2.6000 -42.8700
v 838.3349 2.6000 -42.8349
v 838.3349 2.6000 -42.8349
v 838.2500 2.6000 -42.7500
v 838.2500 2.6000 -42.7500
v 838.2500 2.4800 -42.8700
v 842.7500 2.4800 -42.8700
v 842.7500 2.4800 -42.6300
v 838.2500 2.4800 -42.6300
v 838.2500 2.7200 -42.8700
v 842.7500 2.7200 -42.8700
v 842.7500 2.7200 -42.6300
v 838.2500 2.7200 -42.6300
v 838.3700 2.6000 -24.7500
v 838.3700 2.6000 -24.7500
v 838.3349 2.6000 -24.6651
v 838.3349 2.6000 -24.6651
v 838.2500 2.6000 -24.6300
v 838.2500 2.6000 -24.6300
v 838.1651 2.6000 -24.6651
v 838.1651 2.6000 -24.6651
v 838.1300 2.6000 -24.7500
v 838.1300 2.6000 -24.7500
v 838.1651 2.6000 -24.8349
v 838.1651 2.6000 -24.8349
v 838.2500 2.6000 -24.8700
v 838.2500 2.6000 -24.8700
v 838.3349 2.6000 -24.8349
v 838.3349 2.6000 -24.8349
v 838.2500 2.6000 -24.7500
v 838.2500 2.6000 -24.7500
v 838.2500 2.4800 -24.8700
v 842.7500 2.4800 -24.8700
v 842.7500 2.4800 -24.6300
v 838.2500 2.4800 -24.6300
v 838.2500 2.7200 -24.8700
v 842.7500 2.7200 -24.8700
v 842.7500 2.7200 -24.6300
v 838.2500 2.7200 -24.6300
v 838.3700 2.6000 -20.2500
v 838.3700 2.6000 -20.2500
v 838.3349 2.6000 -20.1651
v 838.3349 2.6000 -20.1651
v 838.2500 2.6000 -20.1300
v 838.2500 2.6000 -20.1300
v 838.1651 2.6000 -20.1651
v 838.1651 2.6000 -20.1651
v 838.1300 2.6000 -20.2500
v 838.1300 2.6000 -20.2500
v 838.1651 2.6000 -20.3349
v 838.1651 2.6000 -20.3349
v 838.2500 2.6000 -20.3700
v 838.2500 2.6000 -20.3700
v 838.3349 2.6000 -20.3349
v 838.3349 2.6000 -20.3349
v 838.2500 2.6000 -20.2500
v 838.2500 2.6000 -20.2500
v 838.2500 2.4800 -20.3700
v 842.7500 2.4800 -20.3700
v 842.7500 2.4800 -20.1300
v 838.2500 2.4800 -20.1300
v 838.2500 2.7200 -20.3700
v 842.7500 2.7200 -20.3700
v 842.7500 2.7200 -20.1300
v 838.2500 2.7200 -20.1300
vt 348.7292 -16.4792
vt 348.7292 -15.3958
vt 349.8125 -15.3958
vt 349.8125 -16.4792
vt 348.7292 -16.4792
vt 349.8125 -16.4792
vt 349.8125 -15.3958
vt 348.7292 -15.3958
vt 348.7292 0.0000
vt 349.8125 0.0000
vt 349.8125 1.2500
vt 348.7292 1.2500
vt 349.8125 0.0000
vt 348.7292 0.0000
vt 348.7292 1.2500
vt 349.8125 1.2500
vt -16.4792 0.0000
vt -15.3958 0.0000
vt -15.3958 1.2500
vt -16.4792 1.2500
vt -15.3958 0.0000
vt -16.4792 0.0000
vt -16.4792 1.2500
vt -15.3958 1.2500
vt 348.7292 -15.5417
vt 348.7292 -14.4583
vt 349.8125 -14.4583
vt 349.8125 -15.5417
vt 348.7292 -15.5417
vt 349.8125 -15.5417
vt 349.8125 -14.4583
vt 348.7292 -14.4583
vt 348.7292 0.0000
vt 349.8125 0.0000
vt 349.8125 1.2500
vt 348.7292 1.2500
vt 349.8125 0.0000
vt 348.7292 0.0000
vt 348.7292 1.2500
vt 349.8125 1.2500
vt -15.5417 0.0000
vt -14.4583 0.0000
vt -14.4583 1.2500
vt -15.5417 1.2500
vt -14.4583 0.0000
vt -15.5417 0.0000
vt -15.5417 1.2500
vt -14.4583 1.2500
vt 348.7292 -14.6042
vt 348.7292 -13.5208
vt 349.8125 -13.5208
vt 349.8125 -14.6042
vt 348.7292 -14.6042
vt 349.8125 -14.6042
vt 349.8125 -13.5208
vt 348.7292 -13.5208
vt 348.7292 0.0000
vt 349.8125 0.0000
vt 349.8125 1.2500
vt 348.7292 1.2500
vt 349.8125 0.0000
vt 348.7292 0.0000
vt 348.7292 1.2500
vt 349.8125 1.2500
vt -14.6042 0.0000
vt -13.5208 0.0000
vt -13.5208 1.2500
vt -14.6042 1.2500
vt -13.5208 0.0000
vt -14.6042 0.0000
vt -14.6042 1.2500
vt -13.5208 1.2500
vt 348.7292 -13.6667
vt 348.7292 -12.5833
vt 349.8125 -12.5833
vt 349.8125 -13.6667
vt 348.7292 -13.6667
vt 349.8125 -13.6667
vt 349.8125 -12.5833
vt 348.7292 -12.5833
vt 348.7292 0.0000
vt 349.8125 0.0000
vt 349.8125 1.2500
vt 348.7292 1.2500
vt 349.8125 0.0000
vt 348.7292 0.0000
vt 348.7292 1.2500
vt 349.8125 1.2500
vt -13.6667 0.0000
vt -12.5833 0.0000
vt -12.5833 1.2500
vt -13.6667 1.2500
vt -12.5833 0.0000
vt -13.6667 0.0000
vt -13.6667 1.2500
vt -12.5833 1.2500
vt 348.7292 -12.7292
vt 348.7292 -11.6458
vt 349.8125 -11.6458
vt 349.8125 -12.7292
vt 348.7292 -12.7292
vt 349.8125 -12.7292
vt 349.8125 -11.6458
vt 348.7292 -11.6458
vt 348.7292 0.0000
vt 349.8125 0.0000
vt 349.8125 1.2500
vt 348.7292 1.2500
vt 349.8125 0.0000
vt 348.7292 0.0000
vt 348.7292 1.2500
vt 349.8125 1.2500
vt -12.7292 0.0000
vt -11.6458 0.0000
vt -11.6458 1.2500
vt -12.7292 1.2500
vt -11.6458 0.0000
vt -12.7292 0.0000
vt -12.7292 1.2500
vt -11.6458 1.2500
vt 348.7292 -11.7917
vt 348.7292 -10.7083
vt 349.8125 -10.7083
vt 349.8125 -11.7917
vt 348.7292 -11.7917
vt 349.8125 -11.7917
vt 349.8125 -10.7083
vt 348.7292 -10.7083
vt 348.7292 0.0000
vt 349.8125 0.0000
vt 349.8125 1.2500
vt 348.7292 1.2500
vt 349.8125 0.0000
vt 348.7292 0.0000
vt 348.7292 1.2500
vt 349.8125 1.2500
vt -11.7917 0.0000
vt -10.7083 0.0000
vt -10.7083 1.2500
vt -11.7917 1.2500
vt -10.7083 0.0000
vt -11.7917 0.0000
vt -11.7917 1.2500
vt -10.7083 1.2500
vt 348.7292 -10.8542
vt 348.7292 -9.7708
vt 349.8125 -9.7708
vt 349.8125 -10.8542
vt 348.7292 -10.8542
vt 349.8125 -10.8542
vt 349.8125 -9.7708
vt 348.7292 -9.7708
vt 348.7292 0.0000
vt 349.8125 0.0000
vt 349.8125 1.2500
vt 348.7292 1.2500
vt 349.8125 0.0000
vt 348.7292 0.0000
vt 348.7292 1.2500
vt 349.8125 1.2500
vt -10.8542 0.0000
vt -9.7708 0.0000
vt -9.7708 1.2500
vt -10.8542 1.2500
vt -9.7708 0.0000
vt -10.8542 0.0000
vt -10.8542 1.2500
vt -9.7708 1.2500
vt 348.7292 -8.9792
vt 348.7292 -7.8958
vt 349.8125 -7.8958
vt 349.8125 -8.9792
vt 348.7292 -8.9792
vt 349.8125 -8.9792
vt 349.8125 -7.8958
vt 348.7292 -7.8958
vt 348.7292 0.0000
vt 349.8125 0.0000
vt 349.8125 1.2500
vt 348.7292 1.2500
vt 349.8125 0.0000
vt 348.7292 0.0000
vt 348.7292 1.2500
vt 349.8125 1.2500
vt -8.9792 0.0000
vt -7.8958 0.0000
vt -7.8958 1.2500
vt -8.9792 1.2500
vt -7.8958 0.0000
vt -8.9792 0.0000
vt -8.9792 1.2500
vt -7.8958 1.2500
vt 348.7292 -8.0417
vt 348.7292 -6.9583
vt 349.8125 -6.9583
vt 349.8125 -8.0417
vt 348.7292 -8.0417
vt 349.8125 -8.0417
vt 349.8125 -6.9583
vt 348.7292 -6.9583
vt 348.7292 0.0000
vt 349.8125 0.0000
vt 349.8125 1.2500
vt 348.7292 1.2500
vt 349.8125 0.0000
vt 348.7292 0.0000
vt 348.7292 1.2500
vt 349.8125 1.2500
vt -8.0417 0.0000
vt -6.9583 0.0000
vt -6.9583 1.2500
vt -8.0417 1.2500
vt -6.9583 0.0000
vt -8.0417 0.0000
vt -8.0417 1.2500
vt -6.9583 1.2500
usemtl lamp_caged
f 217 220 219 218
f 221 222 223 224
f 217 218 222 221
f 219 220 224 223
f 218 219 223 222
f 220 217 221 224
usemtl steel
f 225 228 227 226
f 229 230 231 232
f 225 226 230 229
f 227 228 232 231
f 226 227 231 230
f 228 225 229 232
usemtl lamp_caged
f 233 236 235 234
f 237 238 239 240
f 233 234 238 237
f 235 236 240 239
f 234 235 239 238
f 236 233 237 240
usemtl steel
f 241 244 243 242
f 245 246 247 248
f 241 242 246 245
f 243 244 248 247
f 242 243 247 246
f 244 241 245 248
usemtl rust
f 249 251 252 250
f 251 253 254 252
f 253 255 256 254
f 255 257 258 256
f 257 259 260 258
f 259 261 262 260
f 261 263 264 262
f 263 249 250 264
f 265 250 252
f 266 251 249
f 265 252 254
f 266 253 251
f 265 254 256
f 266 255 253
f 265 256 258
f 266 257 255
f 265 258 260
f 266 259 257
f 265 260 262
f 266 261 259
f 265 262 264
f 266 263 261
f 265 264 250
f 266 249 263
f 267 270 269 268
f 271 272 273 274
f 267 268 272 271
f 269 270 274 273
f 268 269 273 272
f 270 267 271 274
usemtl pipe
f 275 277 278 276
f 277 279 280 278
f 279 281 282 280
f 281 283 284 282
f 283 285 286 284
f 285 287 288 286
f 287 289 290 288
f 289 275 276 290
f 291 276 278
f 292 277 275
f 291 278 280
f 292 279 277
f 291 280 282
f 292 281 279
f 291 282 284
f 292 283 281
f 291 284 286
f 292 285 283
f 291 286 288
f 292 287 285
f 291 288 290
f 292 289 287
f 291 290 276
f 292 275 289
f 293 296 295 294
f 297 298 299 300
f 293 294 298 297
f 295 296 300 299
f 294 295 299 298
f 296 293 297 300
f 301 303 304 302
f 303 305 306 304
f 305 307 308 306
f 307 309 310 308
f 309 311 312 310
f 311 313 314 312
f 313 315 316 314
f 315 301 302 316
f 317 302 304
f 318 303 301
f 317 304 306
f 318 305 303
f 317 306 308
f 318 307 305
f 317 308 310
f 318 309 307
f 317 310 312
f 318 311 309
f 317 312 314
f 318 313 311
f 317 314 316
f 318 315 313
f 317 316 302
f 318 301 315
f 319 322 321 320
f 323 324 325 326
f 319 320 324 323
f 321 322 326 325
f 320 321 325 324
f 322 319 323 326
usemtl brick
f 1/1 2/2 3/3 4/4
f 5/5 6/6 7/7 8/8
f 9/9 10/10 11/11 12/12
f 13/13 14/14 15/15 16/16
f 17/17 18/18 19/19 20/20
f 21/21 22/22 23/23 24/24
f 25/25 26/26 27/27 28/28
f 29/29 30/30 31/31 32/32
f 33/33 34/34 35/35 36/36
f 37/37 38/38 39/39 40/40
f 41/41 42/42 43/43 44/44
f 45/45 46/46 47/47 48/48
f 49/49 50/50 51/51 52/52
f 53/53 54/54 55/55 56/56
f 57/57 58/58 59/59 60/60
f 61/61 62/62 63/63 64/64
f 65/65 66/66 67/67 68/68
f 69/69 70/70 71/71 72/72
usemtl brick_dark
f 73/73 74/74 75/75 76/76
f 77/77 78/78 79/79 80/80
f 81/81 82/82 83/83 84/84
f 85/85 86/86 87/87 88/88
f 89/89 90/90 91/91 92/92
f 93/93 94/94 95/95 96/96
usemtl brick
f 97/97 98/98 99/99 100/100
f 101/101 102/102 103/103 104/104
f 105/105 106/106 107/107 108/108
f 109/109 110/110 111/111 112/112
f 113/113 114/114 115/115 116/116
f 117/117 118/118 119/119 120/120
f 121/121 122/122 123/123 124/124
f 125/125 126/126 127/127 128/128
f 129/129 130/130 131/131 132/132
f 133/133 134/134 135/135 136/136
f 137/137 138/138 139/139 140/140
f 141/141 142/142 143/143 144/144
f 145/145 146/146 147/147 148/148
f 149/149 150/150 151/151 152/152
f 153/153 154/154 155/155 156/156
f 157/157 158/158 159/159 160/160
f 161/161 162/162 163/163 164/164
f 165/165 166/166 167/167 168/168
f 169/169 170/170 171/171 172/172
f 173/173 174/174 175/175 176/176
f 177/177 178/178 179/179 180/180
f 181/181 182/182 183/183 184/184
f 185/185 186/186 187/187 188/188
f 189/189 190/190 191/191 192/192
f 193/193 194/194 195/195 196/196
f 197/197 198/198 199/199 200/200
f 201/201 202/202 203/203 204/204
f 205/205 206/206 207/207 208/208
f 209/209 210/210 211/211 212/212
f 213/213 214/214 215/215 216/216
