# RoastEngine Backrooms level
mtllib backrooms.mtl
v 1188.4500 0.0000 -18.0500
v 1192.0500 0.0000 -18.0500
v 1192.0500 0.0000 -14.4500
v 1188.4500 0.0000 -14.4500
v 1188.4500 1.6000 -18.0500
v 1192.0500 1.6000 -18.0500
v 1192.0500 1.6000 -14.4500
v 1188.4500 1.6000 -14.4500
v 1194.9500 0.0000 -18.0500
v 1194.9500 0.0000 -14.4500
v 1198.5500 0.0000 -14.4500
v 1198.5500 0.0000 -18.0500
v 1194.9500 3.1000 -18.0500
v 1198.5500 3.1000 -18.0500
v 1198.5500 3.1000 -14.4500
v 1194.9500 3.1000 -14.4500
v 1194.9500 0.0000 -18.0500
v 1198.5500 0.0000 -18.0500
v 1198.5500 3.1000 -18.0500
v 1194.9500 3.1000 -18.0500
v 1198.5500 0.0000 -14.4500
v 1194.9500 0.0000 -14.4500
v 1194.9500 3.1000 -14.4500
v 1198.5500 3.1000 -14.4500
v 1198.5500 0.0000 -18.0500
v 1198.5500 0.0000 -14.4500
v 1198.5500 3.1000 -14.4500
v 1198.5500 3.1000 -18.0500
v 1194.9500 0.0000 -14.4500
v 1194.9500 0.0000 -18.0500
v 1194.9500 3.1000 -18.0500
v 1194.9500 3.1000 -14.4500
v 1201.4500 0.0000 -18.0500
v 1201.4500 0.0000 -14.4500
v 1205.0500 0.0000 -14.4500
v 1205.0500 0.0000 -18.0500
v 1201.4500 3.1000 -18.0500
v 1205.0500 3.1000 -18.0500
v 1205.0500 3.1000 -14.4500
v 1201.4500 3.1000 -14.4500
v 1201.4500 0.0000 -18.0500
v 1205.0500 0.0000 -18.0500
v 1205.0500 3.1000 -18.0500
v 1201.4500 3.1000 -18.0500
v 1205.0500 0.0000 -14.4500
v 1201.4500 0.0000 -14.4500
v 1201.4500 3.1000 -14.4500
v 1205.0500 3.1000 -14.4500
v 1205.0500 0.0000 -18.0500
v 1205.0500 0.0000 -14.4500
v 1205.0500 3.1000 -14.4500
v 1205.0500 3.1000 -18.0500
v 1201.4500 0.0000 -14.4500
v 1201.4500 0.0000 -18.0500
v 1201.4500 3.1000 -18.0500
v 1201.4500 3.1000 -14.4500
v 1207.9500 0.0000 -18.0500
v 1207.9500 0.0000 -14.4500
v 1211.5500 0.0000 -14.4500
v 1211.5500 0.0000 -18.0500
v 1207.9500 3.1000 -18.0500
v 1211.5500 3.1000 -18.0500
v 1211.5500 3.1000 -14.4500
v 1207.9500 3.1000 -14.4500
v 1207.9500 0.0000 -18.0500
v 1211.5500 0.0000 -18.0500
v 1211.5500 3.1000 -18.0500
v 1207.9500 3.1000 -18.0500
v 1211.5500 0.0000 -14.4500
v 1207.9500 0.0000 -14.4500
v 1207.9500 3.1000 -14.4500
v 1211.5500 3.1000 -14.4500
v 1211.5500 0.0000 -18.0500
v 1211.5500 0.0000 -14.4500
v 1211.5500 3.1000 -14.4500
v 1211.5500 3.1000 -18.0500
v 1207.9500 0.0000 -14.4500
v 1207.9500 0.0000 -18.0500
v 1207.9500 3.1000 -18.0500
v 1207.9500 3.1000 -14.4500
v 1211.2000 0.0000 -18.0500
v 1211.2000 0.0000 -14.4500
v 1214.8000 0.0000 -14.4500
v 1214.8000 0.0000 -18.0500
v 1211.2000 3.1000 -18.0500
v 1214.8000 3.1000 -18.0500
v 1214.8000 3.1000 -14.4500
v 1211.2000 3.1000 -14.4500
v 1211.2000 0.0000 -18.0500
v 1214.8000 0.0000 -18.0500
v 1214.8000 3.1000 -18.0500
v 1211.2000 3.1000 -18.0500
v 1214.8000 0.0000 -14.4500
v 1211.2000 0.0000 -14.4500
v 1211.2000 3.1000 -14.4500
v 1214.8000 3.1000 -14.4500
v 1214.8000 0.0000 -18.0500
v 1214.8000 0.0000 -14.4500
v 1214.8000 3.1000 -14.4500
v 1214.8000 3.1000 -18.0500
v 1211.2000 0.0000 -14.4500
v 1211.2000 0.0000 -18.0500
v 1211.2000 3.1000 -18.0500
v 1211.2000 3.1000 -14.4500
v 1214.4500 0.0000 -18.0500
v 1214.4500 0.0000 -14.4500
v 1218.0500 0.0000 -14.4500
v 1218.0500 0.0000 -18.0500
v 1214.4500 3.1000 -18.0500
v 1218.0500 3.1000 -18.0500
v 1218.0500 3.1000 -14.4500
v 1214.4500 3.1000 -14.4500
v 1214.4500 0.0000 -18.0500
v 1218.0500 0.0000 -18.0500
v 1218.0500 3.1000 -18.0500
v 1214.4500 3.1000 -18.0500
v 1218.0500 0.0000 -14.4500
v 1214.4500 0.0000 -14.4500
v 1214.4500 3.1000 -14.4500
v 1218.0500 3.1000 -14.4500
v 1218.0500 0.0000 -18.0500
v 1218.0500 0.0000 -14.4500
v 1218.0500 3.1000 -14.4500
v 1218.0500 3.1000 -18.0500
v 1214.4500 0.0000 -14.4500
v 1214.4500 0.0000 -18.0500
v 1214.4500 3.1000 -18.0500
v 1214.4500 3.1000 -14.4500
v 1194.9500 0.0000 -14.8000
v 1198.5500 0.0000 -14.8000
v 1198.5500 0.0000 -11.2000
v 1194.9500 0.0000 -11.2000
v 1194.9500 1.6000 -14.8000
v 1198.5500 1.6000 -14.8000
v 1198.5500 1.6000 -11.2000
v 1194.9500 1.6000 -11.2000
v 1181.9500 0.0000 -11.5500
v 1181.9500 0.0000 -7.9500
v 1185.5500 0.0000 -7.9500
v 1185.5500 0.0000 -11.5500
v 1181.9500 3.1000 -11.5500
v 1185.5500 3.1000 -11.5500
v 1185.5500 3.1000 -7.9500
v 1181.9500 3.1000 -7.9500
v 1181.9500 0.0000 -11.5500
v 1185.5500 0.0000 -11.5500
v 1185.5500 3.1000 -11.5500
v 1181.9500 3.1000 -11.5500
v 1185.5500 0.0000 -7.9500
v 1181.9500 0.0000 -7.9500
v 1181.9500 3.1000 -7.9500
v 1185.5500 3.1000 -7.9500
v 1185.5500 0.0000 -11.5500
v 1185.5500 0.0000 -7.9500
v 1185.5500 3.1000 -7.9500
v 1185.5500 3.1000 -11.5500
v 1181.9500 0.0000 -7.9500
v 1181.9500 0.0000 -11.5500
v 1181.9500 3.1000 -11.5500
v 1181.9500 3.1000 -7.9500
v 1194.9500 0.0000 -11.5500
v 1194.9500 0.0000 -7.9500
v 1198.5500 0.0000 -7.9500
v 1198.5500 0.0000 -11.5500
v 1194.9500 3.1000 -11.5500
v 1198.5500 3.1000 -11.5500
v 1198.5500 3.1000 -7.9500
v 1194.9500 3.1000 -7.9500
v 1194.9500 0.0000 -11.5500
v 1198.5500 0.0000 -11.5500
v 1198.5500 3.1000 -11.5500
v 1194.9500 3.1000 -11.5500
v 1198.5500 0.0000 -7.9500
v 1194.9500 0.0000 -7.9500
v 1194.9500 3.1000 -7.9500
v 1198.5500 3.1000 -7.9500
v 1198.5500 0.0000 -11.5500
v 1198.5500 0.0000 -7.9500
v 1198.5500 3.1000 -7.9500
v 1198.5500 3.1000 -11.5500
v 1194.9500 0.0000 -7.9500
v 1194.9500 0.0000 -11.5500
v 1194.9500 3.1000 -11.5500
v 1194.9500 3.1000 -7.9500
v 1201.4500 0.0000 -11.5500
v 1201.4500 0.0000 -7.9500
v 1205.0500 0.0000 -7.9500
v 1205.0500 0.0000 -11.5500
v 1201.4500 3.1000 -11.5500
v 1205.0500 3.1000 -11.5500
v 1205.0500 3.1000 -7.9500
v 1201.4500 3.1000 -7.9500
v 1201.4500 0.0000 -11.5500
v 1205.0500 0.0000 -11.5500
v 1205.0500 3.1000 -11.5500
v 1201.4500 3.1000 -11.5500
v 1205.0500 0.0000 -7.9500
v 1201.4500 0.0000 -7.9500
v 1201.4500 3.1000 -7.9500
v 1205.0500 3.1000 -7.9500
v 1205.0500 0.0000 -11.5500
v 1205.0500 0.0000 -7.9500
v 1205.0500 3.1000 -7.9500
v 1205.0500 3.1000 -11.5500
v 1201.4500 0.0000 -7.9500
v 1201.4500 0.0000 -11.5500
v 1201.4500 3.1000 -11.5500
v 1201.4500 3.1000 -7.9500
v 1204.7000 0.0000 -11.5500
v 1208.3000 0.0000 -11.5500
v 1208.3000 0.0000 -7.9500
v 1204.7000 0.0000 -7.9500
v 1204.7000 1.6000 -11.5500
v 1208.3000 1.6000 -11.5500
v 1208.3000 1.6000 -7.9500
v 1204.7000 1.6000 -7.9500
v 1207.9500 0.0000 -11.5500
v 1211.5500 0.0000 -11.5500
v 1211.5500 0.0000 -7.9500
v 1207.9500 0.0000 -7.9500
v 1207.9500 1.6000 -11.5500
v 1211.5500 1.6000 -11.5500
v 1211.5500 1.6000 -7.9500
v 1207.9500 1.6000 -7.9500
v 1181.9500 0.0000 -8.3000
v 1185.5500 0.0000 -8.3000
v 1185.5500 0.0000 -4.7000
v 1181.9500 0.0000 -4.7000
v 1181.9500 1.6000 -8.3000
v 1185.5500 1.6000 -8.3000
v 1185.5500 1.6000 -4.7000
v 1181.9500 1.6000 -4.7000
v 1181.9500 0.0000 -5.0500
v 1181.9500 0.0000 -1.4500
v 1185.5500 0.0000 -1.4500
v 1185.5500 0.0000 -5.0500
v 1181.9500 3.1000 -5.0500
v 1185.5500 3.1000 -5.0500
v 1185.5500 3.1000 -1.4500
v 1181.9500 3.1000 -1.4500
v 1181.9500 0.0000 -5.0500
v 1185.5500 0.0000 -5.0500
v 1185.5500 3.1000 -5.0500
v 1181.9500 3.1000 -5.0500
v 1185.5500 0.0000 -1.4500
v 1181.9500 0.0000 -1.4500
v 1181.9500 3.1000 -1.4500
v 1185.5500 3.1000 -1.4500
v 1185.5500 0.0000 -5.0500
v 1185.5500 0.0000 -1.4500
v 1185.5500 3.1000 -1.4500
v 1185.5500 3.1000 -5.0500
v 1181.9500 0.0000 -1.4500
v 1181.9500 0.0000 -5.0500
v 1181.9500 3.1000 -5.0500
v 1181.9500 3.1000 -1.4500
v 1194.9500 0.0000 -5.0500
v 1198.5500 0.0000 -5.0500
v 1198.5500 0.0000 -1.4500
v 1194.9500 0.0000 -1.4500
v 1194.9500 1.6000 -5.0500
v 1198.5500 1.6000 -5.0500
v 1198.5500 1.6000 -1.4500
v 1194.9500 1.6000 -1.4500
v 1207.9500 0.0000 -5.0500
v 1207.9500 0.0000 -1.4500
v 1211.5500 0.0000 -1.4500
v 1211.5500 0.0000 -5.0500
v 1207.9500 3.1000 -5.0500
v 1211.5500 3.1000 -5.0500
v 1211.5500 3.1000 -1.4500
v 1207.9500 3.1000 -1.4500
v 1207.9500 0.0000 -5.0500
v 1211.5500 0.0000 -5.0500
v 1211.5500 3.1000 -5.0500
v 1207.9500 3.1000 -5.0500
v 1211.5500 0.0000 -1.4500
v 1207.9500 0.0000 -1.4500
v 1207.9500 3.1000 -1.4500
v 1211.5500 3.1000 -1.4500
v 1211.5500 0.0000 -5.0500
v 1211.5500 0.0000 -1.4500
v 1211.5500 3.1000 -1.4500
v 1211.5500 3.1000 -5.0500
v 1207.9500 0.0000 -1.4500
v 1207.9500 0.0000 -5.0500
v 1207.9500 3.1000 -5.0500
v 1207.9500 3.1000 -1.4500
v 1181.9500 0.0000 1.4500
v 1185.5500 0.0000 1.4500
v 1185.5500 0.0000 5.0500
v 1181.9500 0.0000 5.0500
v 1181.9500 1.6000 1.4500
v 1185.5500 1.6000 1.4500
v 1185.5500 1.6000 5.0500
v 1181.9500 1.6000 5.0500
v 1185.2000 0.0000 1.4500
v 1185.2000 0.0000 5.0500
v 1188.8000 0.0000 5.0500
v 1188.8000 0.0000 1.4500
v 1185.2000 3.1000 1.4500
v 1188.8000 3.1000 1.4500
v 1188.8000 3.1000 5.0500
v 1185.2000 3.1000 5.0500
v 1185.2000 0.0000 1.4500
v 1188.8000 0.0000 1.4500
v 1188.8000 3.1000 1.4500
v 1185.2000 3.1000 1.4500
v 1188.8000 0.0000 5.0500
v 1185.2000 0.0000 5.0500
v 1185.2000 3.1000 5.0500
v 1188.8000 3.1000 5.0500
v 1188.8000 0.0000 1.4500
v 1188.8000 0.0000 5.0500
v 1188.8000 3.1000 5.0500
v 1188.8000 3.1000 1.4500
v 1185.2000 0.0000 5.0500
v 1185.2000 0.0000 1.4500
v 1185.2000 3.1000 1.4500
v 1185.2000 3.1000 5.0500
v 1188.4500 0.0000 1.4500
v 1192.0500 0.0000 1.4500
v 1192.0500 0.0000 5.0500
v 1188.4500 0.0000 5.0500
v 1188.4500 1.6000 1.4500
v 1192.0500 1.6000 1.4500
v 1192.0500 1.6000 5.0500
v 1188.4500 1.6000 5.0500
v 1207.9500 0.0000 1.4500
v 1207.9500 0.0000 5.0500
v 1211.5500 0.0000 5.0500
v 1211.5500 0.0000 1.4500
v 1207.9500 3.1000 1.4500
v 1211.5500 3.1000 1.4500
v 1211.5500 3.1000 5.0500
v 1207.9500 3.1000 5.0500
v 1207.9500 0.0000 1.4500
v 1211.5500 0.0000 1.4500
v 1211.5500 3.1000 1.4500
v 1207.9500 3.1000 1.4500
v 1211.5500 0.0000 5.0500
v 1207.9500 0.0000 5.0500
v 1207.9500 3.1000 5.0500
v 1211.5500 3.1000 5.0500
v 1211.5500 0.0000 1.4500
v 1211.5500 0.0000 5.0500
v 1211.5500 3.1000 5.0500
v 1211.5500 3.1000 1.4500
v 1207.9500 0.0000 5.0500
v 1207.9500 0.0000 1.4500
v 1207.9500 3.1000 1.4500
v 1207.9500 3.1000 5.0500
v 1214.4500 0.0000 1.4500
v 1218.0500 0.0000 1.4500
v 1218.0500 0.0000 5.0500
v 1214.4500 0.0000 5.0500
v 1214.4500 1.6000 1.4500
v 1218.0500 1.6000 1.4500
v 1218.0500 1.6000 5.0500
v 1214.4500 1.6000 5.0500
v 1217.7000 0.0000 1.4500
v 1221.3000 0.0000 1.4500
v 1221.3000 0.0000 5.0500
v 1217.7000 0.0000 5.0500
v 1217.7000 1.6000 1.4500
v 1221.3000 1.6000 1.4500
v 1221.3000 1.6000 5.0500
v 1217.7000 1.6000 5.0500
v 1181.9500 0.0000 14.4500
v 1185.5500 0.0000 14.4500
v 1185.5500 0.0000 18.0500
v 1181.9500 0.0000 18.0500
v 1181.9500 1.6000 14.4500
v 1185.5500 1.6000 14.4500
v 1185.5500 1.6000 18.0500
v 1181.9500 1.6000 18.0500
v 1185.2000 0.0000 14.4500
v 1188.8000 0.0000 14.4500
v 1188.8000 0.0000 18.0500
v 1185.2000 0.0000 18.0500
v 1185.2000 1.6000 14.4500
v 1188.8000 1.6000 14.4500
v 1188.8000 1.6000 18.0500
v 1185.2000 1.6000 18.0500
v 1188.4500 0.0000 14.4500
v 1192.0500 0.0000 14.4500
v 1192.0500 0.0000 18.0500
v 1188.4500 0.0000 18.0500
v 1188.4500 1.6000 14.4500
v 1192.0500 1.6000 14.4500
v 1192.0500 1.6000 18.0500
v 1188.4500 1.6000 18.0500
v 1194.9500 0.0000 14.4500
v 1198.5500 0.0000 14.4500
v 1198.5500 0.0000 18.0500
v 1194.9500 0.0000 18.0500
v 1194.9500 1.6000 14.4500
v 1198.5500 1.6000 14.4500
v 1198.5500 1.6000 18.0500
v 1194.9500 1.6000 18.0500
v 1201.4500 0.0000 14.4500
v 1201.4500 0.0000 18.0500
v 1205.0500 0.0000 18.0500
v 1205.0500 0.0000 14.4500
v 1201.4500 3.1000 14.4500
v 1205.0500 3.1000 14.4500
v 1205.0500 3.1000 18.0500
v 1201.4500 3.1000 18.0500
v 1201.4500 0.0000 14.4500
v 1205.0500 0.0000 14.4500
v 1205.0500 3.1000 14.4500
v 1201.4500 3.1000 14.4500
v 1205.0500 0.0000 18.0500
v 1201.4500 0.0000 18.0500
v 1201.4500 3.1000 18.0500
v 1205.0500 3.1000 18.0500
v 1205.0500 0.0000 14.4500
v 1205.0500 0.0000 18.0500
v 1205.0500 3.1000 18.0500
v 1205.0500 3.1000 14.4500
v 1201.4500 0.0000 18.0500
v 1201.4500 0.0000 14.4500
v 1201.4500 3.1000 14.4500
v 1201.4500 3.1000 18.0500
v 1214.4500 0.0000 14.4500
v 1218.0500 0.0000 14.4500
v 1218.0500 0.0000 18.0500
v 1214.4500 0.0000 18.0500
v 1214.4500 1.6000 14.4500
v 1218.0500 1.6000 14.4500
v 1218.0500 1.6000 18.0500
v 1214.4500 1.6000 18.0500
v 1201.4500 0.0000 17.7000
v 1205.0500 0.0000 17.7000
v 1205.0500 0.0000 21.3000
v 1201.4500 0.0000 21.3000
v 1201.4500 1.6000 17.7000
v 1205.0500 1.6000 17.7000
v 1205.0500 1.6000 21.3000
v 1201.4500 1.6000 21.3000
v 1192.7000 2.9300 -13.1750
v 1194.3000 2.9300 -13.1750
v 1194.3000 2.9300 -12.8250
v 1192.7000 2.9300 -12.8250
v 1192.7000 3.0300 -13.1750
v 1194.3000 3.0300 -13.1750
v 1194.3000 3.0300 -12.8250
v 1192.7000 3.0300 -12.8250
v 1192.5500 3.0100 -13.3000
v 1192.5500 3.0100 -12.7000
v 1194.4500 3.0100 -12.7000
v 1194.4500 3.0100 -13.3000
v 1192.5500 3.0900 -13.3000
v 1194.4500 3.0900 -13.3000
v 1194.4500 3.0900 -12.7000
v 1192.5500 3.0900 -12.7000
v 1192.5500 3.0100 -13.3000
v 1194.4500 3.0100 -13.3000
v 1194.4500 3.0900 -13.3000
v 1192.5500 3.0900 -13.3000
v 1194.4500 3.0100 -12.7000
v 1192.5500 3.0100 -12.7000
v 1192.5500 3.0900 -12.7000
v 1194.4500 3.0900 -12.7000
v 1194.4500 3.0100 -13.3000
v 1194.4500 3.0100 -12.7000
v 1194.4500 3.0900 -12.7000
v 1194.4500 3.0900 -13.3000
v 1192.5500 3.0100 -12.7000
v 1192.5500 3.0100 -13.3000
v 1192.5500 3.0900 -13.3000
v 1192.5500 3.0900 -12.7000
v 1212.2000 2.9300 -13.1750
v 1213.8000 2.9300 -13.1750
v 1213.8000 2.9300 -12.8250
v 1212.2000 2.9300 -12.8250
v 1212.2000 3.0300 -13.1750
v 1213.8000 3.0300 -13.1750
v 1213.8000 3.0300 -12.8250
v 1212.2000 3.0300 -12.8250
v 1212.0500 3.0100 -13.3000
v 1212.0500 3.0100 -12.7000
v 1213.9500 3.0100 -12.7000
v 1213.9500 3.0100 -13.3000
v 1212.0500 3.0900 -13.3000
v 1213.9500 3.0900 -13.3000
v 1213.9500 3.0900 -12.7000
v 1212.0500 3.0900 -12.7000
v 1212.0500 3.0100 -13.3000
v 1213.9500 3.0100 -13.3000
v 1213.9500 3.0900 -13.3000
v 1212.0500 3.0900 -13.3000
v 1213.9500 3.0100 -12.7000
v 1212.0500 3.0100 -12.7000
v 1212.0500 3.0900 -12.7000
v 1213.9500 3.0900 -12.7000
v 1213.9500 3.0100 -13.3000
v 1213.9500 3.0100 -12.7000
v 1213.9500 3.0900 -12.7000
v 1213.9500 3.0900 -13.3000
v 1212.0500 3.0100 -12.7000
v 1212.0500 3.0100 -13.3000
v 1212.0500 3.0900 -13.3000
v 1212.0500 3.0900 -12.7000
v 1218.7000 2.9300 -13.1750
v 1220.3000 2.9300 -13.1750
v 1220.3000 2.9300 -12.8250
v 1218.7000 2.9300 -12.8250
v 1218.7000 3.0300 -13.1750
v 1220.3000 3.0300 -13.1750
v 1220.3000 3.0300 -12.8250
v 1218.7000 3.0300 -12.8250
v 1218.5500 3.0100 -13.3000
v 1218.5500 3.0100 -12.7000
v 1220.4500 3.0100 -12.7000
v 1220.4500 3.0100 -13.3000
v 1218.5500 3.0900 -13.3000
v 1220.4500 3.0900 -13.3000
v 1220.4500 3.0900 -12.7000
v 1218.5500 3.0900 -12.7000
v 1218.5500 3.0100 -13.3000
v 1220.4500 3.0100 -13.3000
v 1220.4500 3.0900 -13.3000
v 1218.5500 3.0900 -13.3000
v 1220.4500 3.0100 -12.7000
v 1218.5500 3.0100 -12.7000
v 1218.5500 3.0900 -12.7000
v 1220.4500 3.0900 -12.7000
v 1220.4500 3.0100 -13.3000
v 1220.4500 3.0100 -12.7000
v 1220.4500 3.0900 -12.7000
v 1220.4500 3.0900 -13.3000
v 1218.5500 3.0100 -12.7000
v 1218.5500 3.0100 -13.3000
v 1218.5500 3.0900 -13.3000
v 1218.5500 3.0900 -12.7000
v 1199.2000 2.9300 -6.6750
v 1200.8000 2.9300 -6.6750
v 1200.8000 2.9300 -6.3250
v 1199.2000 2.9300 -6.3250
v 1199.2000 3.0300 -6.6750
v 1200.8000 3.0300 -6.6750
v 1200.8000 3.0300 -6.3250
v 1199.2000 3.0300 -6.3250
v 1199.0500 3.0100 -6.8000
v 1199.0500 3.0100 -6.2000
v 1200.9500 3.0100 -6.2000
v 1200.9500 3.0100 -6.8000
v 1199.0500 3.0900 -6.8000
v 1200.9500 3.0900 -6.8000
v 1200.9500 3.0900 -6.2000
v 1199.0500 3.0900 -6.2000
v 1199.0500 3.0100 -6.8000
v 1200.9500 3.0100 -6.8000
v 1200.9500 3.0900 -6.8000
v 1199.0500 3.0900 -6.8000
v 1200.9500 3.0100 -6.2000
v 1199.0500 3.0100 -6.2000
v 1199.0500 3.0900 -6.2000
v 1200.9500 3.0900 -6.2000
v 1200.9500 3.0100 -6.8000
v 1200.9500 3.0100 -6.2000
v 1200.9500 3.0900 -6.2000
v 1200.9500 3.0900 -6.8000
v 1199.0500 3.0100 -6.2000
v 1199.0500 3.0100 -6.8000
v 1199.0500 3.0900 -6.8000
v 1199.0500 3.0900 -6.2000
v 1205.7000 2.9300 -6.6750
v 1207.3000 2.9300 -6.6750
v 1207.3000 2.9300 -6.3250
v 1205.7000 2.9300 -6.3250
v 1205.7000 3.0300 -6.6750
v 1207.3000 3.0300 -6.6750
v 1207.3000 3.0300 -6.3250
v 1205.7000 3.0300 -6.3250
v 1205.5500 3.0100 -6.8000
v 1205.5500 3.0100 -6.2000
v 1207.4500 3.0100 -6.2000
v 1207.4500 3.0100 -6.8000
v 1205.5500 3.0900 -6.8000
v 1207.4500 3.0900 -6.8000
v 1207.4500 3.0900 -6.2000
v 1205.5500 3.0900 -6.2000
v 1205.5500 3.0100 -6.8000
v 1207.4500 3.0100 -6.8000
v 1207.4500 3.0900 -6.8000
v 1205.5500 3.0900 -6.8000
v 1207.4500 3.0100 -6.2000
v 1205.5500 3.0100 -6.2000
v 1205.5500 3.0900 -6.2000
v 1207.4500 3.0900 -6.2000
v 1207.4500 3.0100 -6.8000
v 1207.4500 3.0100 -6.2000
v 1207.4500 3.0900 -6.2000
v 1207.4500 3.0900 -6.8000
v 1205.5500 3.0100 -6.2000
v 1205.5500 3.0100 -6.8000
v 1205.5500 3.0900 -6.8000
v 1205.5500 3.0900 -6.2000
v 1218.7000 2.9300 -6.6750
v 1220.3000 2.9300 -6.6750
v 1220.3000 2.9300 -6.3250
v 1218.7000 2.9300 -6.3250
v 1218.7000 3.0300 -6.6750
v 1220.3000 3.0300 -6.6750
v 1220.3000 3.0300 -6.3250
v 1218.7000 3.0300 -6.3250
v 1218.5500 3.0100 -6.8000
v 1218.5500 3.0100 -6.2000
v 1220.4500 3.0100 -6.2000
v 1220.4500 3.0100 -6.8000
v 1218.5500 3.0900 -6.8000
v 1220.4500 3.0900 -6.8000
v 1220.4500 3.0900 -6.2000
v 1218.5500 3.0900 -6.2000
v 1218.5500 3.0100 -6.8000
v 1220.4500 3.0100 -6.8000
v 1220.4500 3.0900 -6.8000
v 1218.5500 3.0900 -6.8000
v 1220.4500 3.0100 -6.2000
v 1218.5500 3.0100 -6.2000
v 1218.5500 3.0900 -6.2000
v 1220.4500 3.0900 -6.2000
v 1220.4500 3.0100 -6.8000
v 1220.4500 3.0100 -6.2000
v 1220.4500 3.0900 -6.2000
v 1220.4500 3.0900 -6.8000
v 1218.5500 3.0100 -6.2000
v 1218.5500 3.0100 -6.8000
v 1218.5500 3.0900 -6.8000
v 1218.5500 3.0900 -6.2000
v 1186.2000 2.9300 -0.1750
v 1187.8000 2.9300 -0.1750
v 1187.8000 2.9300 0.1750
v 1186.2000 2.9300 0.1750
v 1186.2000 3.0300 -0.1750
v 1187.8000 3.0300 -0.1750
v 1187.8000 3.0300 0.1750
v 1186.2000 3.0300 0.1750
v 1186.0500 3.0100 -0.3000
v 1186.0500 3.0100 0.3000
v 1187.9500 3.0100 0.3000
v 1187.9500 3.0100 -0.3000
v 1186.0500 3.0900 -0.3000
v 1187.9500 3.0900 -0.3000
v 1187.9500 3.0900 0.3000
v 1186.0500 3.0900 0.3000
v 1186.0500 3.0100 -0.3000
v 1187.9500 3.0100 -0.3000
v 1187.9500 3.0900 -0.3000
v 1186.0500 3.0900 -0.3000
v 1187.9500 3.0100 0.3000
v 1186.0500 3.0100 0.3000
v 1186.0500 3.0900 0.3000
v 1187.9500 3.0900 0.3000
v 1187.9500 3.0100 -0.3000
v 1187.9500 3.0100 0.3000
v 1187.9500 3.0900 0.3000
v 1187.9500 3.0900 -0.3000
v 1186.0500 3.0100 0.3000
v 1186.0500 3.0100 -0.3000
v 1186.0500 3.0900 -0.3000
v 1186.0500 3.0900 0.3000
v 1192.7000 2.9300 -0.1750
v 1194.3000 2.9300 -0.1750
v 1194.3000 2.9300 0.1750
v 1192.7000 2.9300 0.1750
v 1192.7000 3.0300 -0.1750
v 1194.3000 3.0300 -0.1750
v 1194.3000 3.0300 0.1750
v 1192.7000 3.0300 0.1750
v 1192.5500 3.0100 -0.3000
v 1192.5500 3.0100 0.3000
v 1194.4500 3.0100 0.3000
v 1194.4500 3.0100 -0.3000
v 1192.5500 3.0900 -0.3000
v 1194.4500 3.0900 -0.3000
v 1194.4500 3.0900 0.3000
v 1192.5500 3.0900 0.3000
v 1192.5500 3.0100 -0.3000
v 1194.4500 3.0100 -0.3000
v 1194.4500 3.0900 -0.3000
v 1192.5500 3.0900 -0.3000
v 1194.4500 3.0100 0.3000
v 1192.5500 3.0100 0.3000
v 1192.5500 3.0900 0.3000
v 1194.4500 3.0900 0.3000
v 1194.4500 3.0100 -0.3000
v 1194.4500 3.0100 0.3000
v 1194.4500 3.0900 0.3000
v 1194.4500 3.0900 -0.3000
v 1192.5500 3.0100 0.3000
v 1192.5500 3.0100 -0.3000
v 1192.5500 3.0900 -0.3000
v 1192.5500 3.0900 0.3000
v 1199.2000 2.9300 -0.1750
v 1200.8000 2.9300 -0.1750
v 1200.8000 2.9300 0.1750
v 1199.2000 2.9300 0.1750
v 1199.2000 3.0300 -0.1750
v 1200.8000 3.0300 -0.1750
v 1200.8000 3.0300 0.1750
v 1199.2000 3.0300 0.1750
v 1199.0500 3.0100 -0.3000
v 1199.0500 3.0100 0.3000
v 1200.9500 3.0100 0.3000
v 1200.9500 3.0100 -0.3000
v 1199.0500 3.0900 -0.3000
v 1200.9500 3.0900 -0.3000
v 1200.9500 3.0900 0.3000
v 1199.0500 3.0900 0.3000
v 1199.0500 3.0100 -0.3000
v 1200.9500 3.0100 -0.3000
v 1200.9500 3.0900 -0.3000
v 1199.0500 3.0900 -0.3000
v 1200.9500 3.0100 0.3000
v 1199.0500 3.0100 0.3000
v 1199.0500 3.0900 0.3000
v 1200.9500 3.0900 0.3000
v 1200.9500 3.0100 -0.3000
v 1200.9500 3.0100 0.3000
v 1200.9500 3.0900 0.3000
v 1200.9500 3.0900 -0.3000
v 1199.0500 3.0100 0.3000
v 1199.0500 3.0100 -0.3000
v 1199.0500 3.0900 -0.3000
v 1199.0500 3.0900 0.3000
v 1205.7000 2.9300 -0.1750
v 1207.3000 2.9300 -0.1750
v 1207.3000 2.9300 0.1750
v 1205.7000 2.9300 0.1750
v 1205.7000 3.0300 -0.1750
v 1207.3000 3.0300 -0.1750
v 1207.3000 3.0300 0.1750
v 1205.7000 3.0300 0.1750
v 1205.5500 3.0100 -0.3000
v 1205.5500 3.0100 0.3000
v 1207.4500 3.0100 0.3000
v 1207.4500 3.0100 -0.3000
v 1205.5500 3.0900 -0.3000
v 1207.4500 3.0900 -0.3000
v 1207.4500 3.0900 0.3000
v 1205.5500 3.0900 0.3000
v 1205.5500 3.0100 -0.3000
v 1207.4500 3.0100 -0.3000
v 1207.4500 3.0900 -0.3000
v 1205.5500 3.0900 -0.3000
v 1207.4500 3.0100 0.3000
v 1205.5500 3.0100 0.3000
v 1205.5500 3.0900 0.3000
v 1207.4500 3.0900 0.3000
v 1207.4500 3.0100 -0.3000
v 1207.4500 3.0100 0.3000
v 1207.4500 3.0900 0.3000
v 1207.4500 3.0900 -0.3000
v 1205.5500 3.0100 0.3000
v 1205.5500 3.0100 -0.3000
v 1205.5500 3.0900 -0.3000
v 1205.5500 3.0900 0.3000
v 1212.2000 2.9300 -0.1750
v 1213.8000 2.9300 -0.1750
v 1213.8000 2.9300 0.1750
v 1212.2000 2.9300 0.1750
v 1212.2000 3.0300 -0.1750
v 1213.8000 3.0300 -0.1750
v 1213.8000 3.0300 0.1750
v 1212.2000 3.0300 0.1750
v 1212.0500 3.0100 -0.3000
v 1212.0500 3.0100 0.3000
v 1213.9500 3.0100 0.3000
v 1213.9500 3.0100 -0.3000
v 1212.0500 3.0900 -0.3000
v 1213.9500 3.0900 -0.3000
v 1213.9500 3.0900 0.3000
v 1212.0500 3.0900 0.3000
v 1212.0500 3.0100 -0.3000
v 1213.9500 3.0100 -0.3000
v 1213.9500 3.0900 -0.3000
v 1212.0500 3.0900 -0.3000
v 1213.9500 3.0100 0.3000
v 1212.0500 3.0100 0.3000
v 1212.0500 3.0900 0.3000
v 1213.9500 3.0900 0.3000
v 1213.9500 3.0100 -0.3000
v 1213.9500 3.0100 0.3000
v 1213.9500 3.0900 0.3000
v 1213.9500 3.0900 -0.3000
v 1212.0500 3.0100 0.3000
v 1212.0500 3.0100 -0.3000
v 1212.0500 3.0900 -0.3000
v 1212.0500 3.0900 0.3000
v 1218.7000 2.9300 -0.1750
v 1220.3000 2.9300 -0.1750
v 1220.3000 2.9300 0.1750
v 1218.7000 2.9300 0.1750
v 1218.7000 3.0300 -0.1750
v 1220.3000 3.0300 -0.1750
v 1220.3000 3.0300 0.1750
v 1218.7000 3.0300 0.1750
v 1218.5500 3.0100 -0.3000
v 1218.5500 3.0100 0.3000
v 1220.4500 3.0100 0.3000
v 1220.4500 3.0100 -0.3000
v 1218.5500 3.0900 -0.3000
v 1220.4500 3.0900 -0.3000
v 1220.4500 3.0900 0.3000
v 1218.5500 3.0900 0.3000
v 1218.5500 3.0100 -0.3000
v 1220.4500 3.0100 -0.3000
v 1220.4500 3.0900 -0.3000
v 1218.5500 3.0900 -0.3000
v 1220.4500 3.0100 0.3000
v 1218.5500 3.0100 0.3000
v 1218.5500 3.0900 0.3000
v 1220.4500 3.0900 0.3000
v 1220.4500 3.0100 -0.3000
v 1220.4500 3.0100 0.3000
v 1220.4500 3.0900 0.3000
v 1220.4500 3.0900 -0.3000
v 1218.5500 3.0100 0.3000
v 1218.5500 3.0100 -0.3000
v 1218.5500 3.0900 -0.3000
v 1218.5500 3.0900 0.3000
v 1205.7000 2.9300 6.3250
v 1207.3000 2.9300 6.3250
v 1207.3000 2.9300 6.6750
v 1205.7000 2.9300 6.6750
v 1205.7000 3.0300 6.3250
v 1207.3000 3.0300 6.3250
v 1207.3000 3.0300 6.6750
v 1205.7000 3.0300 6.6750
v 1205.5500 3.0100 6.2000
v 1205.5500 3.0100 6.8000
v 1207.4500 3.0100 6.8000
v 1207.4500 3.0100 6.2000
v 1205.5500 3.0900 6.2000
v 1207.4500 3.0900 6.2000
v 1207.4500 3.0900 6.8000
v 1205.5500 3.0900 6.8000
v 1205.5500 3.0100 6.2000
v 1207.4500 3.0100 6.2000
v 1207.4500 3.0900 6.2000
v 1205.5500 3.0900 6.2000
v 1207.4500 3.0100 6.8000
v 1205.5500 3.0100 6.8000
v 1205.5500 3.0900 6.8000
v 1207.4500 3.0900 6.8000
v 1207.4500 3.0100 6.2000
v 1207.4500 3.0100 6.8000
v 1207.4500 3.0900 6.8000
v 1207.4500 3.0900 6.2000
v 1205.5500 3.0100 6.8000
v 1205.5500 3.0100 6.2000
v 1205.5500 3.0900 6.2000
v 1205.5500 3.0900 6.8000
v 1218.7000 2.9300 6.3250
v 1220.3000 2.9300 6.3250
v 1220.3000 2.9300 6.6750
v 1218.7000 2.9300 6.6750
v 1218.7000 3.0300 6.3250
v 1220.3000 3.0300 6.3250
v 1220.3000 3.0300 6.6750
v 1218.7000 3.0300 6.6750
v 1218.5500 3.0100 6.2000
v 1218.5500 3.0100 6.8000
v 1220.4500 3.0100 6.8000
v 1220.4500 3.0100 6.2000
v 1218.5500 3.0900 6.2000
v 1220.4500 3.0900 6.2000
v 1220.4500 3.0900 6.8000
v 1218.5500 3.0900 6.8000
v 1218.5500 3.0100 6.2000
v 1220.4500 3.0100 6.2000
v 1220.4500 3.0900 6.2000
v 1218.5500 3.0900 6.2000
v 1220.4500 3.0100 6.8000
v 1218.5500 3.0100 6.8000
v 1218.5500 3.0900 6.8000
v 1220.4500 3.0900 6.8000
v 1220.4500 3.0100 6.2000
v 1220.4500 3.0100 6.8000
v 1220.4500 3.0900 6.8000
v 1220.4500 3.0900 6.2000
v 1218.5500 3.0100 6.8000
v 1218.5500 3.0100 6.2000
v 1218.5500 3.0900 6.2000
v 1218.5500 3.0900 6.8000
v 1186.2000 2.9300 12.8250
v 1187.8000 2.9300 12.8250
v 1187.8000 2.9300 13.1750
v 1186.2000 2.9300 13.1750
v 1186.2000 3.0300 12.8250
v 1187.8000 3.0300 12.8250
v 1187.8000 3.0300 13.1750
v 1186.2000 3.0300 13.1750
v 1186.0500 3.0100 12.7000
v 1186.0500 3.0100 13.3000
v 1187.9500 3.0100 13.3000
v 1187.9500 3.0100 12.7000
v 1186.0500 3.0900 12.7000
v 1187.9500 3.0900 12.7000
v 1187.9500 3.0900 13.3000
v 1186.0500 3.0900 13.3000
v 1186.0500 3.0100 12.7000
v 1187.9500 3.0100 12.7000
v 1187.9500 3.0900 12.7000
v 1186.0500 3.0900 12.7000
v 1187.9500 3.0100 13.3000
v 1186.0500 3.0100 13.3000
v 1186.0500 3.0900 13.3000
v 1187.9500 3.0900 13.3000
v 1187.9500 3.0100 12.7000
v 1187.9500 3.0100 13.3000
v 1187.9500 3.0900 13.3000
v 1187.9500 3.0900 12.7000
v 1186.0500 3.0100 13.3000
v 1186.0500 3.0100 12.7000
v 1186.0500 3.0900 12.7000
v 1186.0500 3.0900 13.3000
v 1205.7000 2.9300 12.8250
v 1207.3000 2.9300 12.8250
v 1207.3000 2.9300 13.1750
v 1205.7000 2.9300 13.1750
v 1205.7000 3.0300 12.8250
v 1207.3000 3.0300 12.8250
v 1207.3000 3.0300 13.1750
v 1205.7000 3.0300 13.1750
v 1205.5500 3.0100 12.7000
v 1205.5500 3.0100 13.3000
v 1207.4500 3.0100 13.3000
v 1207.4500 3.0100 12.7000
v 1205.5500 3.0900 12.7000
v 1207.4500 3.0900 12.7000
v 1207.4500 3.0900 13.3000
v 1205.5500 3.0900 13.3000
v 1205.5500 3.0100 12.7000
v 1207.4500 3.0100 12.7000
v 1207.4500 3.0900 12.7000
v 1205.5500 3.0900 12.7000
v 1207.4500 3.0100 13.3000
v 1205.5500 3.0100 13.3000
v 1205.5500 3.0900 13.3000
v 1207.4500 3.0900 13.3000
v 1207.4500 3.0100 12.7000
v 1207.4500 3.0100 13.3000
v 1207.4500 3.0900 13.3000
v 1207.4500 3.0900 12.7000
v 1205.5500 3.0100 13.3000
v 1205.5500 3.0100 12.7000
v 1205.5500 3.0900 12.7000
v 1205.5500 3.0900 13.3000
v 1192.7000 2.9300 19.3250
v 1194.3000 2.9300 19.3250
v 1194.3000 2.9300 19.6750
v 1192.7000 2.9300 19.6750
v 1192.7000 3.0300 19.3250
v 1194.3000 3.0300 19.3250
v 1194.3000 3.0300 19.6750
v 1192.7000 3.0300 19.6750
v 1192.5500 3.0100 19.2000
v 1192.5500 3.0100 19.8000
v 1194.4500 3.0100 19.8000
v 1194.4500 3.0100 19.2000
v 1192.5500 3.0900 19.2000
v 1194.4500 3.0900 19.2000
v 1194.4500 3.0900 19.8000
v 1192.5500 3.0900 19.8000
v 1192.5500 3.0100 19.2000
v 1194.4500 3.0100 19.2000
v 1194.4500 3.0900 19.2000
v 1192.5500 3.0900 19.2000
v 1194.4500 3.0100 19.8000
v 1192.5500 3.0100 19.8000
v 1192.5500 3.0900 19.8000
v 1194.4500 3.0900 19.8000
v 1194.4500 3.0100 19.2000
v 1194.4500 3.0100 19.8000
v 1194.4500 3.0900 19.8000
v 1194.4500 3.0900 19.2000
v 1192.5500 3.0100 19.8000
v 1192.5500 3.0100 19.2000
v 1192.5500 3.0900 19.2000
v 1192.5500 3.0900 19.8000
v 1205.7000 2.9300 19.3250
v 1207.3000 2.9300 19.3250
v 1207.3000 2.9300 19.6750
v 1205.7000 2.9300 19.6750
v 1205.7000 3.0300 19.3250
v 1207.3000 3.0300 19.3250
v 1207.3000 3.0300 19.6750
v 1205.7000 3.0300 19.6750
v 1205.5500 3.0100 19.2000
v 1205.5500 3.0100 19.8000
v 1207.4500 3.0100 19.8000
v 1207.4500 3.0100 19.2000
v 1205.5500 3.0900 19.2000
v 1207.4500 3.0900 19.2000
v 1207.4500 3.0900 19.8000
v 1205.5500 3.0900 19.8000
v 1205.5500 3.0100 19.2000
v 1207.4500 3.0100 19.2000
v 1207.4500 3.0900 19.2000
v 1205.5500 3.0900 19.2000
v 1207.4500 3.0100 19.8000
v 1205.5500 3.0100 19.8000
v 1205.5500 3.0900 19.8000
v 1207.4500 3.0900 19.8000
v 1207.4500 3.0100 19.2000
v 1207.4500 3.0100 19.8000
v 1207.4500 3.0900 19.8000
v 1207.4500 3.0900 19.2000
v 1205.5500 3.0100 19.8000
v 1205.5500 3.0100 19.2000
v 1205.5500 3.0900 19.2000
v 1205.5500 3.0900 19.8000
v 1212.2000 2.9300 19.3250
v 1213.8000 2.9300 19.3250
v 1213.8000 2.9300 19.6750
v 1212.2000 2.9300 19.6750
v 1212.2000 3.0300 19.3250
v 1213.8000 3.0300 19.3250
v 1213.8000 3.0300 19.6750
v 1212.2000 3.0300 19.6750
v 1212.0500 3.0100 19.2000
v 1212.0500 3.0100 19.8000
v 1213.9500 3.0100 19.8000
v 1213.9500 3.0100 19.2000
v 1212.0500 3.0900 19.2000
v 1213.9500 3.0900 19.2000
v 1213.9500 3.0900 19.8000
v 1212.0500 3.0900 19.8000
v 1212.0500 3.0100 19.2000
v 1213.9500 3.0100 19.2000
v 1213.9500 3.0900 19.2000
v 1212.0500 3.0900 19.2000
v 1213.9500 3.0100 19.8000
v 1212.0500 3.0100 19.8000
v 1212.0500 3.0900 19.8000
v 1213.9500 3.0900 19.8000
v 1213.9500 3.0100 19.2000
v 1213.9500 3.0100 19.8000
v 1213.9500 3.0900 19.8000
v 1213.9500 3.0900 19.2000
v 1212.0500 3.0100 19.8000
v 1212.0500 3.0100 19.2000
v 1212.0500 3.0900 19.2000
v 1212.0500 3.0900 19.8000
v 1218.7000 2.9300 19.3250
v 1220.3000 2.9300 19.3250
v 1220.3000 2.9300 19.6750
v 1218.7000 2.9300 19.6750
v 1218.7000 3.0300 19.3250
v 1220.3000 3.0300 19.3250
v 1220.3000 3.0300 19.6750
v 1218.7000 3.0300 19.6750
v 1218.5500 3.0100 19.2000
v 1218.5500 3.0100 19.8000
v 1220.4500 3.0100 19.8000
v 1220.4500 3.0100 19.2000
v 1218.5500 3.0900 19.2000
v 1220.4500 3.0900 19.2000
v 1220.4500 3.0900 19.8000
v 1218.5500 3.0900 19.8000
v 1218.5500 3.0100 19.2000
v 1220.4500 3.0100 19.2000
v 1220.4500 3.0900 19.2000
v 1218.5500 3.0900 19.2000
v 1220.4500 3.0100 19.8000
v 1218.5500 3.0100 19.8000
v 1218.5500 3.0900 19.8000
v 1220.4500 3.0900 19.8000
v 1220.4500 3.0100 19.2000
v 1220.4500 3.0100 19.8000
v 1220.4500 3.0900 19.8000
v 1220.4500 3.0900 19.2000
v 1218.5500 3.0100 19.8000
v 1218.5500 3.0100 19.2000
v 1218.5500 3.0900 19.2000
v 1218.5500 3.0900 19.8000
v 1192.7500 0.3300 -13.3750
v 1194.2500 0.3300 -13.3750
v 1194.2500 0.3300 -12.6250
v 1192.7500 0.3300 -12.6250
v 1192.7500 0.3900 -13.3750
v 1194.2500 0.3900 -13.3750
v 1194.2500 0.3900 -12.6250
v 1192.7500 0.3900 -12.6250
v 1192.8100 0.0000 -13.3500
v 1192.8900 0.0000 -13.3500
v 1192.8900 0.0000 -12.6500
v 1192.8100 0.0000 -12.6500
v 1192.8100 0.3600 -13.3500
v 1192.8900 0.3600 -13.3500
v 1192.8900 0.3600 -12.6500
v 1192.8100 0.3600 -12.6500
v 1194.1100 0.0000 -13.3500
v 1194.1900 0.0000 -13.3500
v 1194.1900 0.0000 -12.6500
v 1194.1100 0.0000 -12.6500
v 1194.1100 0.3600 -13.3500
v 1194.1900 0.3600 -13.3500
v 1194.1900 0.3600 -12.6500
v 1194.1100 0.3600 -12.6500
v 1193.2700 0.3900 -12.9600
v 1193.7300 0.3900 -12.9600
v 1193.7300 0.3900 -12.8000
v 1193.2700 0.3900 -12.8000
v 1193.2700 0.7700 -12.9600
v 1193.7300 0.7700 -12.9600
v 1193.7300 0.7700 -12.8000
v 1193.2700 0.7700 -12.8000
v 1199.2500 0.3300 -13.3750
v 1200.7500 0.3300 -13.3750
v 1200.7500 0.3300 -12.6250
v 1199.2500 0.3300 -12.6250
v 1199.2500 0.3900 -13.3750
v 1200.7500 0.3900 -13.3750
v 1200.7500 0.3900 -12.6250
v 1199.2500 0.3900 -12.6250
v 1199.3100 0.0000 -13.3500
v 1199.3900 0.0000 -13.3500
v 1199.3900 0.0000 -12.6500
v 1199.3100 0.0000 -12.6500
v 1199.3100 0.3600 -13.3500
v 1199.3900 0.3600 -13.3500
v 1199.3900 0.3600 -12.6500
v 1199.3100 0.3600 -12.6500
v 1200.6100 0.0000 -13.3500
v 1200.6900 0.0000 -13.3500
v 1200.6900 0.0000 -12.6500
v 1200.6100 0.0000 -12.6500
v 1200.6100 0.3600 -13.3500
v 1200.6900 0.3600 -13.3500
v 1200.6900 0.3600 -12.6500
v 1200.6100 0.3600 -12.6500
v 1199.7700 0.3900 -12.9600
v 1200.2300 0.3900 -12.9600
v 1200.2300 0.3900 -12.8000
v 1199.7700 0.3900 -12.8000
v 1199.7700 0.7700 -12.9600
v 1200.2300 0.7700 -12.9600
v 1200.2300 0.7700 -12.8000
v 1199.7700 0.7700 -12.8000
v 1212.2500 0.3300 -13.3750
v 1213.7500 0.3300 -13.3750
v 1213.7500 0.3300 -12.6250
v 1212.2500 0.3300 -12.6250
v 1212.2500 0.3900 -13.3750
v 1213.7500 0.3900 -13.3750
v 1213.7500 0.3900 -12.6250
v 1212.2500 0.3900 -12.6250
v 1212.3100 0.0000 -13.3500
v 1212.3900 0.0000 -13.3500
v 1212.3900 0.0000 -12.6500
v 1212.3100 0.0000 -12.6500
v 1212.3100 0.3600 -13.3500
v 1212.3900 0.3600 -13.3500
v 1212.3900 0.3600 -12.6500
v 1212.3100 0.3600 -12.6500
v 1213.6100 0.0000 -13.3500
v 1213.6900 0.0000 -13.3500
v 1213.6900 0.0000 -12.6500
v 1213.6100 0.0000 -12.6500
v 1213.6100 0.3600 -13.3500
v 1213.6900 0.3600 -13.3500
v 1213.6900 0.3600 -12.6500
v 1213.6100 0.3600 -12.6500
v 1212.7700 0.3900 -12.9600
v 1213.2300 0.3900 -12.9600
v 1213.2300 0.3900 -12.8000
v 1212.7700 0.3900 -12.8000
v 1212.7700 0.7700 -12.9600
v 1213.2300 0.7700 -12.9600
v 1213.2300 0.7700 -12.8000
v 1212.7700 0.7700 -12.8000
v 1218.7500 0.3300 -13.3750
v 1220.2500 0.3300 -13.3750
v 1220.2500 0.3300 -12.6250
v 1218.7500 0.3300 -12.6250
v 1218.7500 0.3900 -13.3750
v 1220.2500 0.3900 -13.3750
v 1220.2500 0.3900 -12.6250
v 1218.7500 0.3900 -12.6250
v 1218.8100 0.0000 -13.3500
v 1218.8900 0.0000 -13.3500
v 1218.8900 0.0000 -12.6500
v 1218.8100 0.0000 -12.6500
v 1218.8100 0.3600 -13.3500
v 1218.8900 0.3600 -13.3500
v 1218.8900 0.3600 -12.6500
v 1218.8100 0.3600 -12.6500
v 1220.1100 0.0000 -13.3500
v 1220.1900 0.0000 -13.3500
v 1220.1900 0.0000 -12.6500
v 1220.1100 0.0000 -12.6500
v 1220.1100 0.3600 -13.3500
v 1220.1900 0.3600 -13.3500
v 1220.1900 0.3600 -12.6500
v 1220.1100 0.3600 -12.6500
v 1219.2700 0.3900 -12.9600
v 1219.7300 0.3900 -12.9600
v 1219.7300 0.3900 -12.8000
v 1219.2700 0.3900 -12.8000
v 1219.2700 0.7700 -12.9600
v 1219.7300 0.7700 -12.9600
v 1219.7300 0.7700 -12.8000
v 1219.2700 0.7700 -12.8000
v 1186.2500 0.3300 -6.8750
v 1187.7500 0.3300 -6.8750
v 1187.7500 0.3300 -6.1250
v 1186.2500 0.3300 -6.1250
v 1186.2500 0.3900 -6.8750
v 1187.7500 0.3900 -6.8750
v 1187.7500 0.3900 -6.1250
v 1186.2500 0.3900 -6.1250
v 1186.3100 0.0000 -6.8500
v 1186.3900 0.0000 -6.8500
v 1186.3900 0.0000 -6.1500
v 1186.3100 0.0000 -6.1500
v 1186.3100 0.3600 -6.8500
v 1186.3900 0.3600 -6.8500
v 1186.3900 0.3600 -6.1500
v 1186.3100 0.3600 -6.1500
v 1187.6100 0.0000 -6.8500
v 1187.6900 0.0000 -6.8500
v 1187.6900 0.0000 -6.1500
v 1187.6100 0.0000 -6.1500
v 1187.6100 0.3600 -6.8500
v 1187.6900 0.3600 -6.8500
v 1187.6900 0.3600 -6.1500
v 1187.6100 0.3600 -6.1500
v 1186.7700 0.3900 -6.4600
v 1187.2300 0.3900 -6.4600
v 1187.2300 0.3900 -6.3000
v 1186.7700 0.3900 -6.3000
v 1186.7700 0.7700 -6.4600
v 1187.2300 0.7700 -6.4600
v 1187.2300 0.7700 -6.3000
v 1186.7700 0.7700 -6.3000
v 1192.7500 0.3300 -6.8750
v 1194.2500 0.3300 -6.8750
v 1194.2500 0.3300 -6.1250
v 1192.7500 0.3300 -6.1250
v 1192.7500 0.3900 -6.8750
v 1194.2500 0.3900 -6.8750
v 1194.2500 0.3900 -6.1250
v 1192.7500 0.3900 -6.1250
v 1192.8100 0.0000 -6.8500
v 1192.8900 0.0000 -6.8500
v 1192.8900 0.0000 -6.1500
v 1192.8100 0.0000 -6.1500
v 1192.8100 0.3600 -6.8500
v 1192.8900 0.3600 -6.8500
v 1192.8900 0.3600 -6.1500
v 1192.8100 0.3600 -6.1500
v 1194.1100 0.0000 -6.8500
v 1194.1900 0.0000 -6.8500
v 1194.1900 0.0000 -6.1500
v 1194.1100 0.0000 -6.1500
v 1194.1100 0.3600 -6.8500
v 1194.1900 0.3600 -6.8500
v 1194.1900 0.3600 -6.1500
v 1194.1100 0.3600 -6.1500
v 1193.2700 0.3900 -6.4600
v 1193.7300 0.3900 -6.4600
v 1193.7300 0.3900 -6.3000
v 1193.2700 0.3900 -6.3000
v 1193.2700 0.7700 -6.4600
v 1193.7300 0.7700 -6.4600
v 1193.7300 0.7700 -6.3000
v 1193.2700 0.7700 -6.3000
v 1199.2500 0.3300 -6.8750
v 1200.7500 0.3300 -6.8750
v 1200.7500 0.3300 -6.1250
v 1199.2500 0.3300 -6.1250
v 1199.2500 0.3900 -6.8750
v 1200.7500 0.3900 -6.8750
v 1200.7500 0.3900 -6.1250
v 1199.2500 0.3900 -6.1250
v 1199.3100 0.0000 -6.8500
v 1199.3900 0.0000 -6.8500
v 1199.3900 0.0000 -6.1500
v 1199.3100 0.0000 -6.1500
v 1199.3100 0.3600 -6.8500
v 1199.3900 0.3600 -6.8500
v 1199.3900 0.3600 -6.1500
v 1199.3100 0.3600 -6.1500
v 1200.6100 0.0000 -6.8500
v 1200.6900 0.0000 -6.8500
v 1200.6900 0.0000 -6.1500
v 1200.6100 0.0000 -6.1500
v 1200.6100 0.3600 -6.8500
v 1200.6900 0.3600 -6.8500
v 1200.6900 0.3600 -6.1500
v 1200.6100 0.3600 -6.1500
v 1199.7700 0.3900 -6.4600
v 1200.2300 0.3900 -6.4600
v 1200.2300 0.3900 -6.3000
v 1199.7700 0.3900 -6.3000
v 1199.7700 0.7700 -6.4600
v 1200.2300 0.7700 -6.4600
v 1200.2300 0.7700 -6.3000
v 1199.7700 0.7700 -6.3000
v 1205.7500 0.3300 -6.8750
v 1207.2500 0.3300 -6.8750
v 1207.2500 0.3300 -6.1250
v 1205.7500 0.3300 -6.1250
v 1205.7500 0.3900 -6.8750
v 1207.2500 0.3900 -6.8750
v 1207.2500 0.3900 -6.1250
v 1205.7500 0.3900 -6.1250
v 1205.8100 0.0000 -6.8500
v 1205.8900 0.0000 -6.8500
v 1205.8900 0.0000 -6.1500
v 1205.8100 0.0000 -6.1500
v 1205.8100 0.3600 -6.8500
v 1205.8900 0.3600 -6.8500
v 1205.8900 0.3600 -6.1500
v 1205.8100 0.3600 -6.1500
v 1207.1100 0.0000 -6.8500
v 1207.1900 0.0000 -6.8500
v 1207.1900 0.0000 -6.1500
v 1207.1100 0.0000 -6.1500
v 1207.1100 0.3600 -6.8500
v 1207.1900 0.3600 -6.8500
v 1207.1900 0.3600 -6.1500
v 1207.1100 0.3600 -6.1500
v 1206.2700 0.3900 -6.4600
v 1206.7300 0.3900 -6.4600
v 1206.7300 0.3900 -6.3000
v 1206.2700 0.3900 -6.3000
v 1206.2700 0.7700 -6.4600
v 1206.7300 0.7700 -6.4600
v 1206.7300 0.7700 -6.3000
v 1206.2700 0.7700 -6.3000
v 1199.2500 0.3300 -0.3750
v 1200.7500 0.3300 -0.3750
v 1200.7500 0.3300 0.3750
v 1199.2500 0.3300 0.3750
v 1199.2500 0.3900 -0.3750
v 1200.7500 0.3900 -0.3750
v 1200.7500 0.3900 0.3750
v 1199.2500 0.3900 0.3750
v 1199.3100 0.0000 -0.3500
v 1199.3900 0.0000 -0.3500
v 1199.3900 0.0000 0.3500
v 1199.3100 0.0000 0.3500
v 1199.3100 0.3600 -0.3500
v 1199.3900 0.3600 -0.3500
v 1199.3900 0.3600 0.3500
v 1199.3100 0.3600 0.3500
v 1200.6100 0.0000 -0.3500
v 1200.6900 0.0000 -0.3500
v 1200.6900 0.0000 0.3500
v 1200.6100 0.0000 0.3500
v 1200.6100 0.3600 -0.3500
v 1200.6900 0.3600 -0.3500
v 1200.6900 0.3600 0.3500
v 1200.6100 0.3600 0.3500
v 1199.7700 0.3900 0.0400
v 1200.2300 0.3900 0.0400
v 1200.2300 0.3900 0.2000
v 1199.7700 0.3900 0.2000
v 1199.7700 0.7700 0.0400
v 1200.2300 0.7700 0.0400
v 1200.2300 0.7700 0.2000
v 1199.7700 0.7700 0.2000
v 1199.2500 0.3300 6.1250
v 1200.7500 0.3300 6.1250
v 1200.7500 0.3300 6.8750
v 1199.2500 0.3300 6.8750
v 1199.2500 0.3900 6.1250
v 1200.7500 0.3900 6.1250
v 1200.7500 0.3900 6.8750
v 1199.2500 0.3900 6.8750
v 1199.3100 0.0000 6.1500
v 1199.3900 0.0000 6.1500
v 1199.3900 0.0000 6.8500
v 1199.3100 0.0000 6.8500
v 1199.3100 0.3600 6.1500
v 1199.3900 0.3600 6.1500
v 1199.3900 0.3600 6.8500
v 1199.3100 0.3600 6.8500
v 1200.6100 0.0000 6.1500
v 1200.6900 0.0000 6.1500
v 1200.6900 0.0000 6.8500
v 1200.6100 0.0000 6.8500
v 1200.6100 0.3600 6.1500
v 1200.6900 0.3600 6.1500
v 1200.6900 0.3600 6.8500
v 1200.6100 0.3600 6.8500
v 1199.7700 0.3900 6.5400
v 1200.2300 0.3900 6.5400
v 1200.2300 0.3900 6.7000
v 1199.7700 0.3900 6.7000
v 1199.7700 0.7700 6.5400
v 1200.2300 0.7700 6.5400
v 1200.2300 0.7700 6.7000
v 1199.7700 0.7700 6.7000
v 1205.7500 0.3300 6.1250
v 1207.2500 0.3300 6.1250
v 1207.2500 0.3300 6.8750
v 1205.7500 0.3300 6.8750
v 1205.7500 0.3900 6.1250
v 1207.2500 0.3900 6.1250
v 1207.2500 0.3900 6.8750
v 1205.7500 0.3900 6.8750
v 1205.8100 0.0000 6.1500
v 1205.8900 0.0000 6.1500
v 1205.8900 0.0000 6.8500
v 1205.8100 0.0000 6.8500
v 1205.8100 0.3600 6.1500
v 1205.8900 0.3600 6.1500
v 1205.8900 0.3600 6.8500
v 1205.8100 0.3600 6.8500
v 1207.1100 0.0000 6.1500
v 1207.1900 0.0000 6.1500
v 1207.1900 0.0000 6.8500
v 1207.1100 0.0000 6.8500
v 1207.1100 0.3600 6.1500
v 1207.1900 0.3600 6.1500
v 1207.1900 0.3600 6.8500
v 1207.1100 0.3600 6.8500
v 1206.2700 0.3900 6.5400
v 1206.7300 0.3900 6.5400
v 1206.7300 0.3900 6.7000
v 1206.2700 0.3900 6.7000
v 1206.2700 0.7700 6.5400
v 1206.7300 0.7700 6.5400
v 1206.7300 0.7700 6.7000
v 1206.2700 0.7700 6.7000
v 1199.2500 0.3300 12.6250
v 1200.7500 0.3300 12.6250
v 1200.7500 0.3300 13.3750
v 1199.2500 0.3300 13.3750
v 1199.2500 0.3900 12.6250
v 1200.7500 0.3900 12.6250
v 1200.7500 0.3900 13.3750
v 1199.2500 0.3900 13.3750
v 1199.3100 0.0000 12.6500
v 1199.3900 0.0000 12.6500
v 1199.3900 0.0000 13.3500
v 1199.3100 0.0000 13.3500
v 1199.3100 0.3600 12.6500
v 1199.3900 0.3600 12.6500
v 1199.3900 0.3600 13.3500
v 1199.3100 0.3600 13.3500
v 1200.6100 0.0000 12.6500
v 1200.6900 0.0000 12.6500
v 1200.6900 0.0000 13.3500
v 1200.6100 0.0000 13.3500
v 1200.6100 0.3600 12.6500
v 1200.6900 0.3600 12.6500
v 1200.6900 0.3600 13.3500
v 1200.6100 0.3600 13.3500
v 1199.7700 0.3900 13.0400
v 1200.2300 0.3900 13.0400
v 1200.2300 0.3900 13.2000
v 1199.7700 0.3900 13.2000
v 1199.7700 0.7700 13.0400
v 1200.2300 0.7700 13.0400
v 1200.2300 0.7700 13.2000
v 1199.7700 0.7700 13.2000
v 1205.7500 0.3300 12.6250
v 1207.2500 0.3300 12.6250
v 1207.2500 0.3300 13.3750
v 1205.7500 0.3300 13.3750
v 1205.7500 0.3900 12.6250
v 1207.2500 0.3900 12.6250
v 1207.2500 0.3900 13.3750
v 1205.7500 0.3900 13.3750
v 1205.8100 0.0000 12.6500
v 1205.8900 0.0000 12.6500
v 1205.8900 0.0000 13.3500
v 1205.8100 0.0000 13.3500
v 1205.8100 0.3600 12.6500
v 1205.8900 0.3600 12.6500
v 1205.8900 0.3600 13.3500
v 1205.8100 0.3600 13.3500
v 1207.1100 0.0000 12.6500
v 1207.1900 0.0000 12.6500
v 1207.1900 0.0000 13.3500
v 1207.1100 0.0000 13.3500
v 1207.1100 0.3600 12.6500
v 1207.1900 0.3600 12.6500
v 1207.1900 0.3600 13.3500
v 1207.1100 0.3600 13.3500
v 1206.2700 0.3900 13.0400
v 1206.7300 0.3900 13.0400
v 1206.7300 0.3900 13.2000
v 1206.2700 0.3900 13.2000
v 1206.2700 0.7700 13.0400
v 1206.7300 0.7700 13.0400
v 1206.7300 0.7700 13.2000
v 1206.2700 0.7700 13.2000
v 1199.2500 0.3300 19.1250
v 1200.7500 0.3300 19.1250
v 1200.7500 0.3300 19.8750
v 1199.2500 0.3300 19.8750
v 1199.2500 0.3900 19.1250
v 1200.7500 0.3900 19.1250
v 1200.7500 0.3900 19.8750
v 1199.2500 0.3900 19.8750
v 1199.3100 0.0000 19.1500
v 1199.3900 0.0000 19.1500
v 1199.3900 0.0000 19.8500
v 1199.3100 0.0000 19.8500
v 1199.3100 0.3600 19.1500
v 1199.3900 0.3600 19.1500
v 1199.3900 0.3600 19.8500
v 1199.3100 0.3600 19.8500
v 1200.6100 0.0000 19.1500
v 1200.6900 0.0000 19.1500
v 1200.6900 0.0000 19.8500
v 1200.6100 0.0000 19.8500
v 1200.6100 0.3600 19.1500
v 1200.6900 0.3600 19.1500
v 1200.6900 0.3600 19.8500
v 1200.6100 0.3600 19.8500
v 1199.7700 0.3900 19.5400
v 1200.2300 0.3900 19.5400
v 1200.2300 0.3900 19.7000
v 1199.7700 0.3900 19.7000
v 1199.7700 0.7700 19.5400
v 1200.2300 0.7700 19.5400
v 1200.2300 0.7700 19.7000
v 1199.7700 0.7700 19.7000
v 1212.2500 0.3300 19.1250
v 1213.7500 0.3300 19.1250
v 1213.7500 0.3300 19.8750
v 1212.2500 0.3300 19.8750
v 1212.2500 0.3900 19.1250
v 1213.7500 0.3900 19.1250
v 1213.7500 0.3900 19.8750
v 1212.2500 0.3900 19.8750
v 1212.3100 0.0000 19.1500
v 1212.3900 0.0000 19.1500
v 1212.3900 0.0000 19.8500
v 1212.3100 0.0000 19.8500
v 1212.3100 0.3600 19.1500
v 1212.3900 0.3600 19.1500
v 1212.3900 0.3600 19.8500
v 1212.3100 0.3600 19.8500
v 1213.6100 0.0000 19.1500
v 1213.6900 0.0000 19.1500
v 1213.6900 0.0000 19.8500
v 1213.6100 0.0000 19.8500
v 1213.6100 0.3600 19.1500
v 1213.6900 0.3600 19.1500
v 1213.6900 0.3600 19.8500
v 1213.6100 0.3600 19.8500
v 1212.7700 0.3900 19.5400
v 1213.2300 0.3900 19.5400
v 1213.2300 0.3900 19.7000
v 1212.7700 0.3900 19.7000
v 1212.7700 0.7700 19.5400
v 1213.2300 0.7700 19.5400
v 1213.2300 0.7700 19.7000
v 1212.7700 0.7700 19.7000
vt 543.1591 -8.2045
vt 543.1591 -6.5682
vt 544.7955 -6.5682
vt 544.7955 -8.2045
vt 543.1591 -8.2045
vt 544.7955 -8.2045
vt 544.7955 -6.5682
vt 543.1591 -6.5682
vt 543.1591 0.0000
vt 544.7955 0.0000
vt 544.7955 1.4091
vt 543.1591 1.4091
vt 544.7955 0.0000
vt 543.1591 0.0000
vt 543.1591 1.4091
vt 544.7955 1.4091
vt -8.2045 0.0000
vt -6.5682 0.0000
vt -6.5682 1.4091
vt -8.2045 1.4091
vt -6.5682 0.0000
vt -8.2045 0.0000
vt -8.2045 1.4091
vt -6.5682 1.4091
vt 546.1136 -8.2045
vt 546.1136 -6.5682
vt 547.7500 -6.5682
vt 547.7500 -8.2045
vt 546.1136 -8.2045
vt 547.7500 -8.2045
vt 547.7500 -6.5682
vt 546.1136 -6.5682
vt 546.1136 0.0000
vt 547.7500 0.0000
vt 547.7500 1.4091
vt 546.1136 1.4091
vt 547.7500 0.0000
vt 546.1136 0.0000
vt 546.1136 1.4091
vt 547.7500 1.4091
vt -8.2045 0.0000
vt -6.5682 0.0000
vt -6.5682 1.4091
vt -8.2045 1.4091
vt -6.5682 0.0000
vt -8.2045 0.0000
vt -8.2045 1.4091
vt -6.5682 1.4091
vt 549.0682 -8.2045
vt 549.0682 -6.5682
vt 550.7045 -6.5682
vt 550.7045 -8.2045
vt 549.0682 -8.2045
vt 550.7045 -8.2045
vt 550.7045 -6.5682
vt 549.0682 -6.5682
vt 549.0682 0.0000
vt 550.7045 0.0000
vt 550.7045 1.4091
vt 549.0682 1.4091
vt 550.7045 0.0000
vt 549.0682 0.0000
vt 549.0682 1.4091
vt 550.7045 1.4091
vt -8.2045 0.0000
vt -6.5682 0.0000
vt -6.5682 1.4091
vt -8.2045 1.4091
vt -6.5682 0.0000
vt -8.2045 0.0000
vt -8.2045 1.4091
vt -6.5682 1.4091
vt 550.5455 -8.2045
vt 550.5455 -6.5682
vt 552.1818 -6.5682
vt 552.1818 -8.2045
vt 550.5455 -8.2045
vt 552.1818 -8.2045
vt 552.1818 -6.5682
vt 550.5455 -6.5682
vt 550.5455 0.0000
vt 552.1818 0.0000
vt 552.1818 1.4091
vt 550.5455 1.4091
vt 552.1818 0.0000
vt 550.5455 0.0000
vt 550.5455 1.4091
vt 552.1818 1.4091
vt -8.2045 0.0000
vt -6.5682 0.0000
vt -6.5682 1.4091
vt -8.2045 1.4091
vt -6.5682 0.0000
vt -8.2045 0.0000
vt -8.2045 1.4091
vt -6.5682 1.4091
vt 552.0227 -8.2045
vt 552.0227 -6.5682
vt 553.6591 -6.5682
vt 553.6591 -8.2045
vt 552.0227 -8.2045
vt 553.6591 -8.2045
vt 553.6591 -6.5682
vt 552.0227 -6.5682
vt 552.0227 0.0000
vt 553.6591 0.0000
vt 553.6591 1.4091
vt 552.0227 1.4091
vt 553.6591 0.0000
vt 552.0227 0.0000
vt 552.0227 1.4091
vt 553.6591 1.4091
vt -8.2045 0.0000
vt -6.5682 0.0000
vt -6.5682 1.4091
vt -8.2045 1.4091
vt -6.5682 0.0000
vt -8.2045 0.0000
vt -8.2045 1.4091
vt -6.5682 1.4091
vt 537.2500 -5.2500
vt 537.2500 -3.6136
vt 538.8864 -3.6136
vt 538.8864 -5.2500
vt 537.2500 -5.2500
vt 538.8864 -5.2500
vt 538.8864 -3.6136
vt 537.2500 -3.6136
vt 537.2500 0.0000
vt 538.8864 0.0000
vt 538.8864 1.4091
vt 537.2500 1.4091
vt 538.8864 0.0000
vt 537.2500 0.0000
vt 537.2500 1.4091
vt 538.8864 1.4091
vt -5.2500 0.0000
vt -3.6136 0.0000
vt -3.6136 1.4091
vt -5.2500 1.4091
vt -3.6136 0.0000
vt -5.2500 0.0000
vt -5.2500 1.4091
vt -3.6136 1.4091
vt 543.1591 -5.2500
vt 543.1591 -3.6136
vt 544.7955 -3.6136
vt 544.7955 -5.2500
vt 543.1591 -5.2500
vt 544.7955 -5.2500
vt 544.7955 -3.6136
vt 543.1591 -3.6136
vt 543.1591 0.0000
vt 544.7955 0.0000
vt 544.7955 1.4091
vt 543.1591 1.4091
vt 544.7955 0.0000
vt 543.1591 0.0000
vt 543.1591 1.4091
vt 544.7955 1.4091
vt -5.2500 0.0000
vt -3.6136 0.0000
vt -3.6136 1.4091
vt -5.2500 1.4091
vt -3.6136 0.0000
vt -5.2500 0.0000
vt -5.2500 1.4091
vt -3.6136 1.4091
vt 546.1136 -5.2500
vt 546.1136 -3.6136
vt 547.7500 -3.6136
vt 547.7500 -5.2500
vt 546.1136 -5.2500
vt 547.7500 -5.2500
vt 547.7500 -3.6136
vt 546.1136 -3.6136
vt 546.1136 0.0000
vt 547.7500 0.0000
vt 547.7500 1.4091
vt 546.1136 1.4091
vt 547.7500 0.0000
vt 546.1136 0.0000
vt 546.1136 1.4091
vt 547.7500 1.4091
vt -5.2500 0.0000
vt -3.6136 0.0000
vt -3.6136 1.4091
vt -5.2500 1.4091
vt -3.6136 0.0000
vt -5.2500 0.0000
vt -5.2500 1.4091
vt -3.6136 1.4091
vt 537.2500 -2.2955
vt 537.2500 -0.6591
vt 538.8864 -0.6591
vt 538.8864 -2.2955
vt 537.2500 -2.2955
vt 538.8864 -2.2955
vt 538.8864 -0.6591
vt 537.2500 -0.6591
vt 537.2500 0.0000
vt 538.8864 0.0000
vt 538.8864 1.4091
vt 537.2500 1.4091
vt 538.8864 0.0000
vt 537.2500 0.0000
vt 537.2500 1.4091
vt 538.8864 1.4091
vt -2.2955 0.0000
vt -0.6591 0.0000
vt -0.6591 1.4091
vt -2.2955 1.4091
vt -0.6591 0.0000
vt -2.2955 0.0000
vt -2.2955 1.4091
vt -0.6591 1.4091
vt 549.0682 -2.2955
vt 549.0682 -0.6591
vt 550.7045 -0.6591
vt 550.7045 -2.2955
vt 549.0682 -2.2955
vt 550.7045 -2.2955
vt 550.7045 -0.6591
vt 549.0682 -0.6591
vt 549.0682 0.0000
vt 550.7045 0.0000
vt 550.7045 1.4091
vt 549.0682 1.4091
vt 550.7045 0.0000
vt 549.0682 0.0000
vt 549.0682 1.4091
vt 550.7045 1.4091
vt -2.2955 0.0000
vt -0.6591 0.0000
vt -0.6591 1.4091
vt -2.2955 1.4091
vt -0.6591 0.0000
vt -2.2955 0.0000
vt -2.2955 1.4091
vt -0.6591 1.4091
vt 538.7273 0.6591
vt 538.7273 2.2955
vt 540.3636 2.2955
vt 540.3636 0.6591
vt 538.7273 0.6591
vt 540.3636 0.6591
vt 540.3636 2.2955
vt 538.7273 2.2955
vt 538.7273 0.0000
vt 540.3636 0.0000
vt 540.3636 1.4091
vt 538.7273 1.4091
vt 540.3636 0.0000
vt 538.7273 0.0000
vt 538.7273 1.4091
vt 540.3636 1.4091
vt 0.6591 0.0000
vt 2.2955 0.0000
vt 2.2955 1.4091
vt 0.6591 1.4091
vt 2.2955 0.0000
vt 0.6591 0.0000
vt 0.6591 1.4091
vt 2.2955 1.4091
vt 549.0682 0.6591
vt 549.0682 2.2955
vt 550.7045 2.2955
vt 550.7045 0.6591
vt 549.0682 0.6591
vt 550.7045 0.6591
vt 550.7045 2.2955
vt 549.0682 2.2955
vt 549.0682 0.0000
vt 550.7045 0.0000
vt 550.7045 1.4091
vt 549.0682 1.4091
vt 550.7045 0.0000
vt 549.0682 0.0000
vt 549.0682 1.4091
vt 550.7045 1.4091
vt 0.6591 0.0000
vt 2.2955 0.0000
vt 2.2955 1.4091
vt 0.6591 1.4091
vt 2.2955 0.0000
vt 0.6591 0.0000
vt 0.6591 1.4091
vt 2.2955 1.4091
vt 546.1136 6.5682
vt 546.1136 8.2045
vt 547.7500 8.2045
vt 547.7500 6.5682
vt 546.1136 6.5682
vt 547.7500 6.5682
vt 547.7500 8.2045
vt 546.1136 8.2045
vt 546.1136 0.0000
vt 547.7500 0.0000
vt 547.7500 1.4091
vt 546.1136 1.4091
vt 547.7500 0.0000
vt 546.1136 0.0000
vt 546.1136 1.4091
vt 547.7500 1.4091
vt 6.5682 0.0000
vt 8.2045 0.0000
vt 8.2045 1.4091
vt 6.5682 1.4091
vt 8.2045 0.0000
vt 6.5682 0.0000
vt 6.5682 1.4091
vt 8.2045 1.4091
vt 977.5000 -10.9016
vt 977.5000 -10.4098
vt 979.0574 -10.4098
vt 979.0574 -10.9016
vt 977.5000 -10.9016
vt 979.0574 -10.9016
vt 979.0574 -10.4098
vt 977.5000 -10.4098
vt 977.5000 2.4672
vt 979.0574 2.4672
vt 979.0574 2.5328
vt 977.5000 2.5328
vt 979.0574 2.4672
vt 977.5000 2.4672
vt 977.5000 2.5328
vt 979.0574 2.5328
vt -10.9016 2.4672
vt -10.4098 2.4672
vt -10.4098 2.5328
vt -10.9016 2.5328
vt -10.4098 2.4672
vt -10.9016 2.4672
vt -10.9016 2.5328
vt -10.4098 2.5328
vt 993.4836 -10.9016
vt 993.4836 -10.4098
vt 995.0410 -10.4098
vt 995.0410 -10.9016
vt 993.4836 -10.9016
vt 995.0410 -10.9016
vt 995.0410 -10.4098
vt 993.4836 -10.4098
vt 993.4836 2.4672
vt 995.0410 2.4672
vt 995.0410 2.5328
vt 993.4836 2.5328
vt 995.0410 2.4672
vt 993.4836 2.4672
vt 993.4836 2.5328
vt 995.0410 2.5328
vt -10.9016 2.4672
vt -10.4098 2.4672
vt -10.4098 2.5328
vt -10.9016 2.5328
vt -10.4098 2.4672
vt -10.9016 2.4672
vt -10.9016 2.5328
vt -10.4098 2.5328
vt 998.8115 -10.9016
vt 998.8115 -10.4098
vt 1000.3689 -10.4098
vt 1000.3689 -10.9016
vt 998.8115 -10.9016
vt 1000.3689 -10.9016
vt 1000.3689 -10.4098
vt 998.8115 -10.4098
vt 998.8115 2.4672
vt 1000.3689 2.4672
vt 1000.3689 2.5328
vt 998.8115 2.5328
vt 1000.3689 2.4672
vt 998.8115 2.4672
vt 998.8115 2.5328
vt 1000.3689 2.5328
vt -10.9016 2.4672
vt -10.4098 2.4672
vt -10.4098 2.5328
vt -10.9016 2.5328
vt -10.4098 2.4672
vt -10.9016 2.4672
vt -10.9016 2.5328
vt -10.4098 2.5328
vt 982.8279 -5.5738
vt 982.8279 -5.0820
vt 984.3852 -5.0820
vt 984.3852 -5.5738
vt 982.8279 -5.5738
vt 984.3852 -5.5738
vt 984.3852 -5.0820
vt 982.8279 -5.0820
vt 982.8279 2.4672
vt 984.3852 2.4672
vt 984.3852 2.5328
vt 982.8279 2.5328
vt 984.3852 2.4672
vt 982.8279 2.4672
vt 982.8279 2.5328
vt 984.3852 2.5328
vt -5.5738 2.4672
vt -5.0820 2.4672
vt -5.0820 2.5328
vt -5.5738 2.5328
vt -5.0820 2.4672
vt -5.5738 2.4672
vt -5.5738 2.5328
vt -5.0820 2.5328
vt 988.1557 -5.5738
vt 988.1557 -5.0820
vt 989.7131 -5.0820
vt 989.7131 -5.5738
vt 988.1557 -5.5738
vt 989.7131 -5.5738
vt 989.7131 -5.0820
vt 988.1557 -5.0820
vt 988.1557 2.4672
vt 989.7131 2.4672
vt 989.7131 2.5328
vt 988.1557 2.5328
vt 989.7131 2.4672
vt 988.1557 2.4672
vt 988.1557 2.5328
vt 989.7131 2.5328
vt -5.5738 2.4672
vt -5.0820 2.4672
vt -5.0820 2.5328
vt -5.5738 2.5328
vt -5.0820 2.4672
vt -5.5738 2.4672
vt -5.5738 2.5328
vt -5.0820 2.5328
vt 998.8115 -5.5738
vt 998.8115 -5.0820
vt 1000.3689 -5.0820
vt 1000.3689 -5.5738
vt 998.8115 -5.5738
vt 1000.3689 -5.5738
vt 1000.3689 -5.0820
vt 998.8115 -5.0820
vt 998.8115 2.4672
vt 1000.3689 2.4672
vt 1000.3689 2.5328
vt 998.8115 2.5328
vt 1000.3689 2.4672
vt 998.8115 2.4672
vt 998.8115 2.5328
vt 1000.3689 2.5328
vt -5.5738 2.4672
vt -5.0820 2.4672
vt -5.0820 2.5328
vt -5.5738 2.5328
vt -5.0820 2.4672
vt -5.5738 2.4672
vt -5.5738 2.5328
vt -5.0820 2.5328
vt 972.1721 -0.2459
vt 972.1721 0.2459
vt 973.7295 0.2459
vt 973.7295 -0.2459
vt 972.1721 -0.2459
vt 973.7295 -0.2459
vt 973.7295 0.2459
vt 972.1721 0.2459
vt 972.1721 2.4672
vt 973.7295 2.4672
vt 973.7295 2.5328
vt 972.1721 2.5328
vt 973.7295 2.4672
vt 972.1721 2.4672
vt 972.1721 2.5328
vt 973.7295 2.5328
vt -0.2459 2.4672
vt 0.2459 2.4672
vt 0.2459 2.5328
vt -0.2459 2.5328
vt 0.2459 2.4672
vt -0.2459 2.4672
vt -0.2459 2.5328
vt 0.2459 2.5328
vt 977.5000 -0.2459
vt 977.5000 0.2459
vt 979.0574 0.2459
vt 979.0574 -0.2459
vt 977.5000 -0.2459
vt 979.0574 -0.2459
vt 979.0574 0.2459
vt 977.5000 0.2459
vt 977.5000 2.4672
vt 979.0574 2.4672
vt 979.0574 2.5328
vt 977.5000 2.5328
vt 979.0574 2.4672
vt 977.5000 2.4672
vt 977.5000 2.5328
vt 979.0574 2.5328
vt -0.2459 2.4672
vt 0.2459 2.4672
vt 0.2459 2.5328
vt -0.2459 2.5328
vt 0.2459 2.4672
vt -0.2459 2.4672
vt -0.2459 2.5328
vt 0.2459 2.5328
vt 982.8279 -0.2459
vt 982.8279 0.2459
vt 984.3852 0.2459
vt 984.3852 -0.2459
vt 982.8279 -0.2459
vt 984.3852 -0.2459
vt 984.3852 0.2459
vt 982.8279 0.2459
vt 982.8279 2.4672
vt 984.3852 2.4672
vt 984.3852 2.5328
vt 982.8279 2.5328
vt 984.3852 2.4672
vt 982.8279 2.4672
vt 982.8279 2.5328
vt 984.3852 2.5328
vt -0.2459 2.4672
vt 0.2459 2.4672
vt 0.2459 2.5328
vt -0.2459 2.5328
vt 0.2459 2.4672
vt -0.2459 2.4672
vt -0.2459 2.5328
vt 0.2459 2.5328
vt 988.1557 -0.2459
vt 988.1557 0.2459
vt 989.7131 0.2459
vt 989.7131 -0.2459
vt 988.1557 -0.2459
vt 989.7131 -0.2459
vt 989.7131 0.2459
vt 988.1557 0.2459
vt 988.1557 2.4672
vt 989.7131 2.4672
vt 989.7131 2.5328
vt 988.1557 2.5328
vt 989.7131 2.4672
vt 988.1557 2.4672
vt 988.1557 2.5328
vt 989.7131 2.5328
vt -0.2459 2.4672
vt 0.2459 2.4672
vt 0.2459 2.5328
vt -0.2459 2.5328
vt 0.2459 2.4672
vt -0.2459 2.4672
vt -0.2459 2.5328
vt 0.2459 2.5328
vt 993.4836 -0.2459
vt 993.4836 0.2459
vt 995.0410 0.2459
vt 995.0410 -0.2459
vt 993.4836 -0.2459
vt 995.0410 -0.2459
vt 995.0410 0.2459
vt 993.4836 0.2459
vt 993.4836 2.4672
vt 995.0410 2.4672
vt 995.0410 2.5328
vt 993.4836 2.5328
vt 995.0410 2.4672
vt 993.4836 2.4672
vt 993.4836 2.5328
vt 995.0410 2.5328
vt -0.2459 2.4672
vt 0.2459 2.4672
vt 0.2459 2.5328
vt -0.2459 2.5328
vt 0.2459 2.4672
vt -0.2459 2.4672
vt -0.2459 2.5328
vt 0.2459 2.5328
vt 998.8115 -0.2459
vt 998.8115 0.2459
vt 1000.3689 0.2459
vt 1000.3689 -0.2459
vt 998.8115 -0.2459
vt 1000.3689 -0.2459
vt 1000.3689 0.2459
vt 998.8115 0.2459
vt 998.8115 2.4672
vt 1000.3689 2.4672
vt 1000.3689 2.5328
vt 998.8115 2.5328
vt 1000.3689 2.4672
vt 998.8115 2.4672
vt 998.8115 2.5328
vt 1000.3689 2.5328
vt -0.2459 2.4672
vt 0.2459 2.4672
vt 0.2459 2.5328
vt -0.2459 2.5328
vt 0.2459 2.4672
vt -0.2459 2.4672
vt -0.2459 2.5328
vt 0.2459 2.5328
vt 988.1557 5.0820
vt 988.1557 5.5738
vt 989.7131 5.5738
vt 989.7131 5.0820
vt 988.1557 5.0820
vt 989.7131 5.0820
vt 989.7131 5.5738
vt 988.1557 5.5738
vt 988.1557 2.4672
vt 989.7131 2.4672
vt 989.7131 2.5328
vt 988.1557 2.5328
vt 989.7131 2.4672
vt 988.1557 2.4672
vt 988.1557 2.5328
vt 989.7131 2.5328
vt 5.0820 2.4672
vt 5.5738 2.4672
vt 5.5738 2.5328
vt 5.0820 2.5328
vt 5.5738 2.4672
vt 5.0820 2.4672
vt 5.0820 2.5328
vt 5.5738 2.5328
vt 998.8115 5.0820
vt 998.8115 5.5738
vt 1000.3689 5.5738
vt 1000.3689 5.0820
vt 998.8115 5.0820
vt 1000.3689 5.0820
vt 1000.3689 5.5738
vt 998.8115 5.5738
vt 998.8115 2.4672
vt 1000.3689 2.4672
vt 1000.3689 2.5328
vt 998.8115 2.5328
vt 1000.3689 2.4672
vt 998.8115 2.4672
vt 998.8115 2.5328
vt 1000.3689 2.5328
vt 5.0820 2.4672
vt 5.5738 2.4672
vt 5.5738 2.5328
vt 5.0820 2.5328
vt 5.5738 2.4672
vt 5.0820 2.4672
vt 5.0820 2.5328
vt 5.5738 2.5328
vt 972.1721 10.4098
vt 972.1721 10.9016
vt 973.7295 10.9016
vt 973.7295 10.4098
vt 972.1721 10.4098
vt 973.7295 10.4098
vt 973.7295 10.9016
vt 972.1721 10.9016
vt 972.1721 2.4672
vt 973.7295 2.4672
vt 973.7295 2.5328
vt 972.1721 2.5328
vt 973.7295 2.4672
vt 972.1721 2.4672
vt 972.1721 2.5328
vt 973.7295 2.5328
vt 10.4098 2.4672
vt 10.9016 2.4672
vt 10.9016 2.5328
vt 10.4098 2.5328
vt 10.9016 2.4672
vt 10.4098 2.4672
vt 10.4098 2.5328
vt 10.9016 2.5328
vt 988.1557 10.4098
vt 988.1557 10.9016
vt 989.7131 10.9016
vt 989.7131 10.4098
vt 988.1557 10.4098
vt 989.7131 10.4098
vt 989.7131 10.9016
vt 988.1557 10.9016
vt 988.1557 2.4672
vt 989.7131 2.4672
vt 989.7131 2.5328
vt 988.1557 2.5328
vt 989.7131 2.4672
vt 988.1557 2.4672
vt 988.1557 2.5328
vt 989.7131 2.5328
vt 10.4098 2.4672
vt 10.9016 2.4672
vt 10.9016 2.5328
vt 10.4098 2.5328
vt 10.9016 2.4672
vt 10.4098 2.4672
vt 10.4098 2.5328
vt 10.9016 2.5328
vt 977.5000 15.7377
vt 977.5000 16.2295
vt 979.0574 16.2295
vt 979.0574 15.7377
vt 977.5000 15.7377
vt 979.0574 15.7377
vt 979.0574 16.2295
vt 977.5000 16.2295
vt 977.5000 2.4672
vt 979.0574 2.4672
vt 979.0574 2.5328
vt 977.5000 2.5328
vt 979.0574 2.4672
vt 977.5000 2.4672
vt 977.5000 2.5328
vt 979.0574 2.5328
vt 15.7377 2.4672
vt 16.2295 2.4672
vt 16.2295 2.5328
vt 15.7377 2.5328
vt 16.2295 2.4672
vt 15.7377 2.4672
vt 15.7377 2.5328
vt 16.2295 2.5328
vt 988.1557 15.7377
vt 988.1557 16.2295
vt 989.7131 16.2295
vt 989.7131 15.7377
vt 988.1557 15.7377
vt 989.7131 15.7377
vt 989.7131 16.2295
vt 988.1557 16.2295
vt 988.1557 2.4672
vt 989.7131 2.4672
vt 989.7131 2.5328
vt 988.1557 2.5328
vt 989.7131 2.4672
vt 988.1557 2.4672
vt 988.1557 2.5328
vt 989.7131 2.5328
vt 15.7377 2.4672
vt 16.2295 2.4672
vt 16.2295 2.5328
vt 15.7377 2.5328
vt 16.2295 2.4672
vt 15.7377 2.4672
vt 15.7377 2.5328
vt 16.2295 2.5328
vt 993.4836 15.7377
vt 993.4836 16.2295
vt 995.0410 16.2295
vt 995.0410 15.7377
vt 993.4836 15.7377
vt 995.0410 15.7377
vt 995.0410 16.2295
vt 993.4836 16.2295
vt 993.4836 2.4672
vt 995.0410 2.4672
vt 995.0410 2.5328
vt 993.4836 2.5328
vt 995.0410 2.4672
vt 993.4836 2.4672
vt 993.4836 2.5328
vt 995.0410 2.5328
vt 15.7377 2.4672
vt 16.2295 2.4672
vt 16.2295 2.5328
vt 15.7377 2.5328
vt 16.2295 2.4672
vt 15.7377 2.4672
vt 15.7377 2.5328
vt 16.2295 2.5328
vt 998.8115 15.7377
vt 998.8115 16.2295
vt 1000.3689 16.2295
vt 1000.3689 15.7377
vt 998.8115 15.7377
vt 1000.3689 15.7377
vt 1000.3689 16.2295
vt 998.8115 16.2295
vt 998.8115 2.4672
vt 1000.3689 2.4672
vt 1000.3689 2.5328
vt 998.8115 2.5328
vt 1000.3689 2.4672
vt 998.8115 2.4672
vt 998.8115 2.5328
vt 1000.3689 2.5328
vt 15.7377 2.4672
vt 16.2295 2.4672
vt 16.2295 2.5328
vt 15.7377 2.5328
vt 16.2295 2.4672
vt 15.7377 2.4672
vt 15.7377 2.5328
vt 16.2295 2.5328
usemtl cubicle
f 1 4 3 2
f 5 6 7 8
f 1 2 6 5
f 3 4 8 7
f 2 3 7 6
f 4 1 5 8
f 129 132 131 130
f 133 134 135 136
f 129 130 134 133
f 131 132 136 135
f 130 131 135 134
f 132 129 133 136
f 209 212 211 210
f 213 214 215 216
f 209 210 214 213
f 211 212 216 215
f 210 211 215 214
f 212 209 213 216
f 217 220 219 218
f 221 222 223 224
f 217 218 222 221
f 219 220 224 223
f 218 219 223 222
f 220 217 221 224
f 225 228 227 226
f 229 230 231 232
f 225 226 230 229
f 227 228 232 231
f 226 227 231 230
f 228 225 229 232
f 257 260 259 258
f 261 262 263 264
f 257 258 262 261
f 259 260 264 263
f 258 259 263 262
f 260 257 261 264
f 289 292 291 290
f 293 294 295 296
f 289 290 294 293
f 291 292 296 295
f 290 291 295 294
f 292 289 293 296
f 321 324 323 322
f 325 326 327 328
f 321 322 326 325
f 323 324 328 327
f 322 323 327 326
f 324 321 325 328
f 353 356 355 354
f 357 358 359 360
f 353 354 358 357
f 355 356 360 359
f 354 355 359 358
f 356 353 357 360
f 361 364 363 362
f 365 366 367 368
f 361 362 366 365
f 363 364 368 367
f 362 363 367 366
f 364 361 365 368
f 369 372 371 370
f 373 374 375 376
f 369 370 374 373
f 371 372 376 375
f 370 371 375 374
f 372 369 373 376
f 377 380 379 378
f 381 382 383 384
f 377 378 382 381
f 379 380 384 383
f 378 379 383 382
f 380 377 381 384
f 385 388 387 386
f 389 390 391 392
f 385 386 390 389
f 387 388 392 391
f 386 387 391 390
f 388 385 389 392
f 393 396 395 394
f 397 398 399 400
f 393 394 398 397
f 395 396 400 399
f 394 395 399 398
f 396 393 397 400
f 425 428 427 426
f 429 430 431 432
f 425 426 430 429
f 427 428 432 431
f 426 427 431 430
f 428 425 429 432
f 433 436 435 434
f 437 438 439 440
f 433 434 438 437
f 435 436 440 439
f 434 435 439 438
f 436 433 437 440
usemtl fluorescent
f 441 444 443 442
f 445 446 447 448
f 441 442 446 445
f 443 444 448 447
f 442 443 447 446
f 444 441 445 448
f 473 476 475 474
f 477 478 479 480
f 473 474 478 477
f 475 476 480 479
f 474 475 479 478
f 476 473 477 480
f 505 508 507 506
f 509 510 511 512
f 505 506 510 509
f 507 508 512 511
f 506 507 511 510
f 508 505 509 512
f 537 540 539 538
f 541 542 543 544
f 537 538 542 541
f 539 540 544 543
f 538 539 543 542
f 540 537 541 544
f 569 572 571 570
f 573 574 575 576
f 569 570 574 573
f 571 572 576 575
f 570 571 575 574
f 572 569 573 576
f 601 604 603 602
f 605 606 607 608
f 601 602 606 605
f 603 604 608 607
f 602 603 607 606
f 604 601 605 608
f 633 636 635 634
f 637 638 639 640
f 633 634 638 637
f 635 636 640 639
f 634 635 639 638
f 636 633 637 640
f 665 668 667 666
f 669 670 671 672
f 665 666 670 669
f 667 668 672 671
f 666 667 671 670
f 668 665 669 672
f 697 700 699 698
f 701 702 703 704
f 697 698 702 701
f 699 700 704 703
f 698 699 703 702
f 700 697 701 704
f 729 732 731 730
f 733 734 735 736
f 729 730 734 733
f 731 732 736 735
f 730 731 735 734
f 732 729 733 736
f 761 764 763 762
f 765 766 767 768
f 761 762 766 765
f 763 764 768 767
f 762 763 767 766
f 764 761 765 768
f 793 796 795 794
f 797 798 799 800
f 793 794 798 797
f 795 796 800 799
f 794 795 799 798
f 796 793 797 800
f 825 828 827 826
f 829 830 831 832
f 825 826 830 829
f 827 828 832 831
f 826 827 831 830
f 828 825 829 832
f 857 860 859 858
f 861 862 863 864
f 857 858 862 861
f 859 860 864 863
f 858 859 863 862
f 860 857 861 864
f 889 892 891 890
f 893 894 895 896
f 889 890 894 893
f 891 892 896 895
f 890 891 895 894
f 892 889 893 896
f 921 924 923 922
f 925 926 927 928
f 921 922 926 925
f 923 924 928 927
f 922 923 927 926
f 924 921 925 928
f 953 956 955 954
f 957 958 959 960
f 953 954 958 957
f 955 956 960 959
f 954 955 959 958
f 956 953 957 960
f 985 988 987 986
f 989 990 991 992
f 985 986 990 989
f 987 988 992 991
f 986 987 991 990
f 988 985 989 992
f 1017 1020 1019 1018
f 1021 1022 1023 1024
f 1017 1018 1022 1021
f 1019 1020 1024 1023
f 1018 1019 1023 1022
f 1020 1017 1021 1024
f 1049 1052 1051 1050
f 1053 1054 1055 1056
f 1049 1050 1054 1053
f 1051 1052 1056 1055
f 1050 1051 1055 1054
f 1052 1049 1053 1056
usemtl desk
f 1081 1084 1083 1082
f 1085 1086 1087 1088
f 1081 1082 1086 1085
f 1083 1084 1088 1087
f 1082 1083 1087 1086
f 1084 1081 1085 1088
f 1089 1092 1091 1090
f 1093 1094 1095 1096
f 1089 1090 1094 1093
f 1091 1092 1096 1095
f 1090 1091 1095 1094
f 1092 1089 1093 1096
f 1097 1100 1099 1098
f 1101 1102 1103 1104
f 1097 1098 1102 1101
f 1099 1100 1104 1103
f 1098 1099 1103 1102
f 1100 1097 1101 1104
usemtl monitor
f 1105 1108 1107 1106
f 1109 1110 1111 1112
f 1105 1106 1110 1109
f 1107 1108 1112 1111
f 1106 1107 1111 1110
f 1108 1105 1109 1112
usemtl desk
f 1113 1116 1115 1114
f 1117 1118 1119 1120
f 1113 1114 1118 1117
f 1115 1116 1120 1119
f 1114 1115 1119 1118
f 1116 1113 1117 1120
f 1121 1124 1123 1122
f 1125 1126 1127 1128
f 1121 1122 1126 1125
f 1123 1124 1128 1127
f 1122 1123 1127 1126
f 1124 1121 1125 1128
f 1129 1132 1131 1130
f 1133 1134 1135 1136
f 1129 1130 1134 1133
f 1131 1132 1136 1135
f 1130 1131 1135 1134
f 1132 1129 1133 1136
usemtl monitor
f 1137 1140 1139 1138
f 1141 1142 1143 1144
f 1137 1138 1142 1141
f 1139 1140 1144 1143
f 1138 1139 1143 1142
f 1140 1137 1141 1144
usemtl desk
f 1145 1148 1147 1146
f 1149 1150 1151 1152
f 1145 1146 1150 1149
f 1147 1148 1152 1151
f 1146 1147 1151 1150
f 1148 1145 1149 1152
f 1153 1156 1155 1154
f 1157 1158 1159 1160
f 1153 1154 1158 1157
f 1155 1156 1160 1159
f 1154 1155 1159 1158
f 1156 1153 1157 1160
f 1161 1164 1163 1162
f 1165 1166 1167 1168
f 1161 1162 1166 1165
f 1163 1164 1168 1167
f 1162 1163 1167 1166
f 1164 1161 1165 1168
usemtl monitor
f 1169 1172 1171 1170
f 1173 1174 1175 1176
f 1169 1170 1174 1173
f 1171 1172 1176 1175
f 1170 1171 1175 1174
f 1172 1169 1173 1176
usemtl desk
f 1177 1180 1179 1178
f 1181 1182 1183 1184
f 1177 1178 1182 1181
f 1179 1180 1184 1183
f 1178 1179 1183 1182
f 1180 1177 1181 1184
f 1185 1188 1187 1186
f 1189 1190 1191 1192
f 1185 1186 1190 1189
f 1187 1188 1192 1191
f 1186 1187 1191 1190
f 1188 1185 1189 1192
f 1193 1196 1195 1194
f 1197 1198 1199 1200
f 1193 1194 1198 1197
f 1195 1196 1200 1199
f 1194 1195 1199 1198
f 1196 1193 1197 1200
usemtl monitor
f 1201 1204 1203 1202
f 1205 1206 1207 1208
f 1201 1202 1206 1205
f 1203 1204 1208 1207
f 1202 1203 1207 1206
f 1204 1201 1205 1208
usemtl desk
f 1209 1212 1211 1210
f 1213 1214 1215 1216
f 1209 1210 1214 1213
f 1211 1212 1216 1215
f 1210 1211 1215 1214
f 1212 1209 1213 1216
f 1217 1220 1219 1218
f 1221 1222 1223 1224
f 1217 1218 1222 1221
f 1219 1220 1224 1223
f 1218 1219 1223 1222
f 1220 1217 1221 1224
f 1225 1228 1227 1226
f 1229 1230 1231 1232
f 1225 1226 1230 1229
f 1227 1228 1232 1231
f 1226 1227 1231 1230
f 1228 1225 1229 1232
usemtl monitor
f 1233 1236 1235 1234
f 1237 1238 1239 1240
f 1233 1234 1238 1237
f 1235 1236 1240 1239
f 1234 1235 1239 1238
f 1236 1233 1237 1240
usemtl desk
f 1241 1244 1243 1242
f 1245 1246 1247 1248
f 1241 1242 1246 1245
f 1243 1244 1248 1247
f 1242 1243 1247 1246
f 1244 1241 1245 1248
f 1249 1252 1251 1250
f 1253 1254 1255 1256
f 1249 1250 1254 1253
f 1251 1252 1256 1255
f 1250 1251 1255 1254
f 1252 1249 1253 1256
f 1257 1260 1259 1258
f 1261 1262 1263 1264
f 1257 1258 1262 1261
f 1259 1260 1264 1263
f 1258 1259 1263 1262
f 1260 1257 1261 1264
usemtl monitor
f 1265 1268 1267 1266
f 1269 1270 1271 1272
f 1265 1266 1270 1269
f 1267 1268 1272 1271
f 1266 1267 1271 1270
f 1268 1265 1269 1272
usemtl desk
f 1273 1276 1275 1274
f 1277 1278 1279 1280
f 1273 1274 1278 1277
f 1275 1276 1280 1279
f 1274 1275 1279 1278
f 1276 1273 1277 1280
f 1281 1284 1283 1282
f 1285 1286 1287 1288
f 1281 1282 1286 1285
f 1283 1284 1288 1287
f 1282 1283 1287 1286
f 1284 1281 1285 1288
f 1289 1292 1291 1290
f 1293 1294 1295 1296
f 1289 1290 1294 1293
f 1291 1292 1296 1295
f 1290 1291 1295 1294
f 1292 1289 1293 1296
usemtl monitor
f 1297 1300 1299 1298
f 1301 1302 1303 1304
f 1297 1298 1302 1301
f 1299 1300 1304 1303
f 1298 1299 1303 1302
f 1300 1297 1301 1304
usemtl desk
f 1305 1308 1307 1306
f 1309 1310 1311 1312
f 1305 1306 1310 1309
f 1307 1308 1312 1311
f 1306 1307 1311 1310
f 1308 1305 1309 1312
f 1313 1316 1315 1314
f 1317 1318 1319 1320
f 1313 1314 1318 1317
f 1315 1316 1320 1319
f 1314 1315 1319 1318
f 1316 1313 1317 1320
f 1321 1324 1323 1322
f 1325 1326 1327 1328
f 1321 1322 1326 1325
f 1323 1324 1328 1327
f 1322 1323 1327 1326
f 1324 1321 1325 1328
usemtl monitor
f 1329 1332 1331 1330
f 1333 1334 1335 1336
f 1329 1330 1334 1333
f 1331 1332 1336 1335
f 1330 1331 1335 1334
f 1332 1329 1333 1336
usemtl desk
f 1337 1340 1339 1338
f 1341 1342 1343 1344
f 1337 1338 1342 1341
f 1339 1340 1344 1343
f 1338 1339 1343 1342
f 1340 1337 1341 1344
f 1345 1348 1347 1346
f 1349 1350 1351 1352
f 1345 1346 1350 1349
f 1347 1348 1352 1351
f 1346 1347 1351 1350
f 1348 1345 1349 1352
f 1353 1356 1355 1354
f 1357 1358 1359 1360
f 1353 1354 1358 1357
f 1355 1356 1360 1359
f 1354 1355 1359 1358
f 1356 1353 1357 1360
usemtl monitor
f 1361 1364 1363 1362
f 1365 1366 1367 1368
f 1361 1362 1366 1365
f 1363 1364 1368 1367
f 1362 1363 1367 1366
f 1364 1361 1365 1368
usemtl desk
f 1369 1372 1371 1370
f 1373 1374 1375 1376
f 1369 1370 1374 1373
f 1371 1372 1376 1375
f 1370 1371 1375 1374
f 1372 1369 1373 1376
f 1377 1380 1379 1378
f 1381 1382 1383 1384
f 1377 1378 1382 1381
f 1379 1380 1384 1383
f 1378 1379 1383 1382
f 1380 1377 1381 1384
f 1385 1388 1387 1386
f 1389 1390 1391 1392
f 1385 1386 1390 1389
f 1387 1388 1392 1391
f 1386 1387 1391 1390
f 1388 1385 1389 1392
usemtl monitor
f 1393 1396 1395 1394
f 1397 1398 1399 1400
f 1393 1394 1398 1397
f 1395 1396 1400 1399
f 1394 1395 1399 1398
f 1396 1393 1397 1400
usemtl desk
f 1401 1404 1403 1402
f 1405 1406 1407 1408
f 1401 1402 1406 1405
f 1403 1404 1408 1407
f 1402 1403 1407 1406
f 1404 1401 1405 1408
f 1409 1412 1411 1410
f 1413 1414 1415 1416
f 1409 1410 1414 1413
f 1411 1412 1416 1415
f 1410 1411 1415 1414
f 1412 1409 1413 1416
f 1417 1420 1419 1418
f 1421 1422 1423 1424
f 1417 1418 1422 1421
f 1419 1420 1424 1423
f 1418 1419 1423 1422
f 1420 1417 1421 1424
usemtl monitor
f 1425 1428 1427 1426
f 1429 1430 1431 1432
f 1425 1426 1430 1429
f 1427 1428 1432 1431
f 1426 1427 1431 1430
f 1428 1425 1429 1432
usemtl desk
f 1433 1436 1435 1434
f 1437 1438 1439 1440
f 1433 1434 1438 1437
f 1435 1436 1440 1439
f 1434 1435 1439 1438
f 1436 1433 1437 1440
f 1441 1444 1443 1442
f 1445 1446 1447 1448
f 1441 1442 1446 1445
f 1443 1444 1448 1447
f 1442 1443 1447 1446
f 1444 1441 1445 1448
f 1449 1452 1451 1450
f 1453 1454 1455 1456
f 1449 1450 1454 1453
f 1451 1452 1456 1455
f 1450 1451 1455 1454
f 1452 1449 1453 1456
usemtl monitor
f 1457 1460 1459 1458
f 1461 1462 1463 1464
f 1457 1458 1462 1461
f 1459 1460 1464 1463
f 1458 1459 1463 1462
f 1460 1457 1461 1464
usemtl desk
f 1465 1468 1467 1466
f 1469 1470 1471 1472
f 1465 1466 1470 1469
f 1467 1468 1472 1471
f 1466 1467 1471 1470
f 1468 1465 1469 1472
f 1473 1476 1475 1474
f 1477 1478 1479 1480
f 1473 1474 1478 1477
f 1475 1476 1480 1479
f 1474 1475 1479 1478
f 1476 1473 1477 1480
f 1481 1484 1483 1482
f 1485 1486 1487 1488
f 1481 1482 1486 1485
f 1483 1484 1488 1487
f 1482 1483 1487 1486
f 1484 1481 1485 1488
usemtl monitor
f 1489 1492 1491 1490
f 1493 1494 1495 1496
f 1489 1490 1494 1493
f 1491 1492 1496 1495
f 1490 1491 1495 1494
f 1492 1489 1493 1496
usemtl desk
f 1497 1500 1499 1498
f 1501 1502 1503 1504
f 1497 1498 1502 1501
f 1499 1500 1504 1503
f 1498 1499 1503 1502
f 1500 1497 1501 1504
f 1505 1508 1507 1506
f 1509 1510 1511 1512
f 1505 1506 1510 1509
f 1507 1508 1512 1511
f 1506 1507 1511 1510
f 1508 1505 1509 1512
f 1513 1516 1515 1514
f 1517 1518 1519 1520
f 1513 1514 1518 1517
f 1515 1516 1520 1519
f 1514 1515 1519 1518
f 1516 1513 1517 1520
usemtl monitor
f 1521 1524 1523 1522
f 1525 1526 1527 1528
f 1521 1522 1526 1525
f 1523 1524 1528 1527
f 1522 1523 1527 1526
f 1524 1521 1525 1528
usemtl desk
f 1529 1532 1531 1530
f 1533 1534 1535 1536
f 1529 1530 1534 1533
f 1531 1532 1536 1535
f 1530 1531 1535 1534
f 1532 1529 1533 1536
f 1537 1540 1539 1538
f 1541 1542 1543 1544
f 1537 1538 1542 1541
f 1539 1540 1544 1543
f 1538 1539 1543 1542
f 1540 1537 1541 1544
f 1545 1548 1547 1546
f 1549 1550 1551 1552
f 1545 1546 1550 1549
f 1547 1548 1552 1551
f 1546 1547 1551 1550
f 1548 1545 1549 1552
usemtl monitor
f 1553 1556 1555 1554
f 1557 1558 1559 1560
f 1553 1554 1558 1557
f 1555 1556 1560 1559
f 1554 1555 1559 1558
f 1556 1553 1557 1560
usemtl office_wall
f 9/1 10/2 11/3 12/4
f 13/5 14/6 15/7 16/8
f 17/9 18/10 19/11 20/12
f 21/13 22/14 23/15 24/16
f 25/17 26/18 27/19 28/20
f 29/21 30/22 31/23 32/24
f 33/25 34/26 35/27 36/28
f 37/29 38/30 39/31 40/32
f 41/33 42/34 43/35 44/36
f 45/37 46/38 47/39 48/40
f 49/41 50/42 51/43 52/44
f 53/45 54/46 55/47 56/48
f 57/49 58/50 59/51 60/52
f 61/53 62/54 63/55 64/56
f 65/57 66/58 67/59 68/60
f 69/61 70/62 71/63 72/64
f 73/65 74/66 75/67 76/68
f 77/69 78/70 79/71 80/72
f 81/73 82/74 83/75 84/76
f 85/77 86/78 87/79 88/80
f 89/81 90/82 91/83 92/84
f 93/85 94/86 95/87 96/88
f 97/89 98/90 99/91 100/92
f 101/93 102/94 103/95 104/96
f 105/97 106/98 107/99 108/100
f 109/101 110/102 111/103 112/104
f 113/105 114/106 115/107 116/108
f 117/109 118/110 119/111 120/112
f 121/113 122/114 123/115 124/116
f 125/117 126/118 127/119 128/120
f 137/121 138/122 139/123 140/124
f 141/125 142/126 143/127 144/128
f 145/129 146/130 147/131 148/132
f 149/133 150/134 151/135 152/136
f 153/137 154/138 155/139 156/140
f 157/141 158/142 159/143 160/144
f 161/145 162/146 163/147 164/148
f 165/149 166/150 167/151 168/152
f 169/153 170/154 171/155 172/156
f 173/157 174/158 175/159 176/160
f 177/161 178/162 179/163 180/164
f 181/165 182/166 183/167 184/168
f 185/169 186/170 187/171 188/172
f 189/173 190/174 191/175 192/176
f 193/177 194/178 195/179 196/180
f 197/181 198/182 199/183 200/184
f 201/185 202/186 203/187 204/188
f 205/189 206/190 207/191 208/192
f 233/193 234/194 235/195 236/196
f 237/197 238/198 239/199 240/200
f 241/201 242/202 243/203 244/204
f 245/205 246/206 247/207 248/208
f 249/209 250/210 251/211 252/212
f 253/213 254/214 255/215 256/216
f 265/217 266/218 267/219 268/220
f 269/221 270/222 271/223 272/224
f 273/225 274/226 275/227 276/228
f 277/229 278/230 279/231 280/232
f 281/233 282/234 283/235 284/236
f 285/237 286/238 287/239 288/240
f 297/241 298/242 299/243 300/244
f 301/245 302/246 303/247 304/248
f 305/249 306/250 307/251 308/252
f 309/253 310/254 311/255 312/256
f 313/257 314/258 315/259 316/260
f 317/261 318/262 319/263 320/264
f 329/265 330/266 331/267 332/268
f 333/269 334/270 335/271 336/272
f 337/273 338/274 339/275 340/276
f 341/277 342/278 343/279 344/280
f 345/281 346/282 347/283 348/284
f 349/285 350/286 351/287 352/288
f 401/289 402/290 403/291 404/292
f 405/293 406/294 407/295 408/296
f 409/297 410/298 411/299 412/300
f 413/301 414/302 415/303 416/304
f 417/305 418/306 419/307 420/308
f 421/309 422/310 423/311 424/312
usemtl ceiling_tile
f 449/313 450/314 451/315 452/316
f 453/317 454/318 455/319 456/320
f 457/321 458/322 459/323 460/324
f 461/325 462/326 463/327 464/328
f 465/329 466/330 467/331 468/332
f 469/333 470/334 471/335 472/336
f 481/337 482/338 483/339 484/340
f 485/341 486/342 487/343 488/344
f 489/345 490/346 491/347 492/348
f 493/349 494/350 495/351 496/352
f 497/353 498/354 499/355 500/356
f 501/357 502/358 503/359 504/360
f 513/361 514/362 515/363 516/364
f 517/365 518/366 519/367 520/368
f 521/369 522/370 523/371 524/372
f 525/373 526/374 527/375 528/376
f 529/377 530/378 531/379 532/380
f 533/381 534/382 535/383 536/384
f 545/385 546/386 547/387 548/388
f 549/389 550/390 551/391 552/392
f 553/393 554/394 555/395 556/396
f 557/397 558/398 559/399 560/400
f 561/401 562/402 563/403 564/404
f 565/405 566/406 567/407 568/408
f 577/409 578/410 579/411 580/412
f 581/413 582/414 583/415 584/416
f 585/417 586/418 587/419 588/420
f 589/421 590/422 591/423 592/424
f 593/425 594/426 595/427 596/428
f 597/429 598/430 599/431 600/432
f 609/433 610/434 611/435 612/436
f 613/437 614/438 615/439 616/440
f 617/441 618/442 619/443 620/444
f 621/445 622/446 623/447 624/448
f 625/449 626/450 627/451 628/452
f 629/453 630/454 631/455 632/456
f 641/457 642/458 643/459 644/460
f 645/461 646/462 647/463 648/464
f 649/465 650/466 651/467 652/468
f 653/469 654/470 655/471 656/472
f 657/473 658/474 659/475 660/476
f 661/477 662/478 663/479 664/480
f 673/481 674/482 675/483 676/484
f 677/485 678/486 679/487 680/488
f 681/489 682/490 683/491 684/492
f 685/493 686/494 687/495 688/496
f 689/497 690/498 691/499 692/500
f 693/501 694/502 695/503 696/504
f 705/505 706/506 707/507 708/508
f 709/509 710/510 711/511 712/512
f 713/513 714/514 715/515 716/516
f 717/517 718/518 719/519 720/520
f 721/521 722/522 723/523 724/524
f 725/525 726/526 727/527 728/528
f 737/529 738/530 739/531 740/532
f 741/533 742/534 743/535 744/536
f 745/537 746/538 747/539 748/540
f 749/541 750/542 751/543 752/544
f 753/545 754/546 755/547 756/548
f 757/549 758/550 759/551 760/552
f 769/553 770/554 771/555 772/556
f 773/557 774/558 775/559 776/560
f 777/561 778/562 779/563 780/564
f 781/565 782/566 783/567 784/568
f 785/569 786/570 787/571 788/572
f 789/573 790/574 791/575 792/576
f 801/577 802/578 803/579 804/580
f 805/581 806/582 807/583 808/584
f 809/585 810/586 811/587 812/588
f 813/589 814/590 815/591 816/592
f 817/593 818/594 819/595 820/596
f 821/597 822/598 823/599 824/600
f 833/601 834/602 835/603 836/604
f 837/605 838/606 839/607 840/608
f 841/609 842/610 843/611 844/612
f 845/613 846/614 847/615 848/616
f 849/617 850/618 851/619 852/620
f 853/621 854/622 855/623 856/624
f 865/625 866/626 867/627 868/628
f 869/629 870/630 871/631 872/632
f 873/633 874/634 875/635 876/636
f 877/637 878/638 879/639 880/640
f 881/641 882/642 883/643 884/644
f 885/645 886/646 887/647 888/648
f 897/649 898/650 899/651 900/652
f 901/653 902/654 903/655 904/656
f 905/657 906/658 907/659 908/660
f 909/661 910/662 911/663 912/664
f 913/665 914/666 915/667 916/668
f 917/669 918/670 919/671 920/672
f 929/673 930/674 931/675 932/676
f 933/677 934/678 935/679 936/680
f 937/681 938/682 939/683 940/684
f 941/685 942/686 943/687 944/688
f 945/689 946/690 947/691 948/692
f 949/693 950/694 951/695 952/696
f 961/697 962/698 963/699 964/700
f 965/701 966/702 967/703 968/704
f 969/705 970/706 971/707 972/708
f 973/709 974/710 975/711 976/712
f 977/713 978/714 979/715 980/716
f 981/717 982/718 983/719 984/720
f 993/721 994/722 995/723 996/724
f 997/725 998/726 999/727 1000/728
f 1001/729 1002/730 1003/731 1004/732
f 1005/733 1006/734 1007/735 1008/736
f 1009/737 1010/738 1011/739 1012/740
f 1013/741 1014/742 1015/743 1016/744
f 1025/745 1026/746 1027/747 1028/748
f 1029/749 1030/750 1031/751 1032/752
f 1033/753 1034/754 1035/755 1036/756
f 1037/757 1038/758 1039/759 1040/760
f 1041/761 1042/762 1043/763 1044/764
f 1045/765 1046/766 1047/767 1048/768
f 1057/769 1058/770 1059/771 1060/772
f 1061/773 1062/774 1063/775 1064/776
f 1065/777 1066/778 1067/779 1068/780
f 1069/781 1070/782 1071/783 1072/784
f 1073/785 1074/786 1075/787 1076/788
f 1077/789 1078/790 1079/791 1080/792
