# RoastEngine Backrooms level
mtllib backrooms.mtl
v 436.0750 0.0000 36.0750
v 436.0750 0.0000 38.9250
v 438.9250 0.0000 38.9250
v 438.9250 0.0000 36.0750
v 436.0750 3.0000 36.0750
v 438.9250 3.0000 36.0750
v 438.9250 3.0000 38.9250
v 436.0750 3.0000 38.9250
v 436.0750 0.0000 36.0750
v 438.9250 0.0000 36.0750
v 438.9250 3.0000 36.0750
v 436.0750 3.0000 36.0750
v 438.9250 0.0000 38.9250
v 436.0750 0.0000 38.9250
v 436.0750 3.0000 38.9250
v 438.9250 3.0000 38.9250
v 438.9250 0.0000 36.0750
v 438.9250 0.0000 38.9250
v 438.9250 3.0000 38.9250
v 438.9250 3.0000 36.0750
v 436.0750 0.0000 38.9250
v 436.0750 0.0000 36.0750
v 436.0750 3.0000 36.0750
v 436.0750 3.0000 38.9250
v 441.0750 0.0000 36.0750
v 441.0750 0.0000 38.9250
v 443.9250 0.0000 38.9250
v 443.9250 0.0000 36.0750
v 441.0750 3.0000 36.0750
v 443.9250 3.0000 36.0750
v 443.9250 3.0000 38.9250
v 441.0750 3.0000 38.9250
v 441.0750 0.0000 36.0750
v 443.9250 0.0000 36.0750
v 443.9250 3.0000 36.0750
v 441.0750 3.0000 36.0750
v 443.9250 0.0000 38.9250
v 441.0750 0.0000 38.9250
v 441.0750 3.0000 38.9250
v 443.9250 3.0000 38.9250
v 443.9250 0.0000 36.0750
v 443.9250 0.0000 38.9250
v 443.9250 3.0000 38.9250
v 443.9250 3.0000 36.0750
v 441.0750 0.0000 38.9250
v 441.0750 0.0000 36.0750
v 441.0750 3.0000 36.0750
v 441.0750 3.0000 38.9250
v 443.5750 0.0000 36.0750
v 443.5750 0.0000 38.9250
v 446.4250 0.0000 38.9250
v 446.4250 0.0000 36.0750
v 443.5750 3.0000 36.0750
v 446.4250 3.0000 36.0750
v 446.4250 3.0000 38.9250
v 443.5750 3.0000 38.9250
v 443.5750 0.0000 36.0750
v 446.4250 0.0000 36.0750
v 446.4250 3.0000 36.0750
v 443.5750 3.0000 36.0750
v 446.4250 0.0000 38.9250
v 443.5750 0.0000 38.9250
v 443.5750 3.0000 38.9250
v 446.4250 3.0000 38.9250
v 446.4250 0.0000 36.0750
v 446.4250 0.0000 38.9250
v 446.4250 3.0000 38.9250
v 446.4250 3.0000 36.0750
v 443.5750 0.0000 38.9250
v 443.5750 0.0000 36.0750
v 443.5750 3.0000 36.0750
v 443.5750 3.0000 38.9250
v 446.0750 0.0000 36.0750
v 446.0750 0.0000 38.9250
v 448.9250 0.0000 38.9250
v 448.9250 0.0000 36.0750
v 446.0750 3.0000 36.0750
v 448.9250 3.0000 36.0750
v 448.9250 3.0000 38.9250
v 446.0750 3.0000 38.9250
v 446.0750 0.0000 36.0750
v 448.9250 0.0000 36.0750
v 448.9250 3.0000 36.0750
v 446.0750 3.0000 36.0750
v 448.9250 0.0000 38.9250
v 446.0750 0.0000 38.9250
v 446.0750 3.0000 38.9250
v 448.9250 3.0000 38.9250
v 448.9250 0.0000 36.0750
v 448.9250 0.0000 38.9250
v 448.9250 3.0000 38.9250
v 448.9250 3.0000 36.0750
v 446.0750 0.0000 38.9250
v 446.0750 0.0000 36.0750
v 446.0750 3.0000 36.0750
v 446.0750 3.0000 38.9250
v 448.5750 0.0000 36.0750
v 448.5750 0.0000 38.9250
v 451.4250 0.0000 38.9250
v 451.4250 0.0000 36.0750
v 448.5750 3.0000 36.0750
v 451.4250 3.0000 36.0750
v 451.4250 3.0000 38.9250
v 448.5750 3.0000 38.9250
v 448.5750 0.0000 36.0750
v 451.4250 0.0000 36.0750
v 451.4250 3.0000 36.0750
v 448.5750 3.0000 36.0750
v 451.4250 0.0000 38.9250
v 448.5750 0.0000 38.9250
v 448.5750 3.0000 38.9250
v 451.4250 3.0000 38.9250
v 451.4250 0.0000 36.0750
v 451.4250 0.0000 38.9250
v 451.4250 3.0000 38.9250
v 451.4250 3.0000 36.0750
v 448.5750 0.0000 38.9250
v 448.5750 0.0000 36.0750
v 448.5750 3.0000 36.0750
v 448.5750 3.0000 38.9250
v 436.0750 0.0000 41.0750
v 436.0750 0.0000 43.9250
v 438.9250 0.0000 43.9250
v 438.9250 0.0000 41.0750
v 436.0750 3.0000 41.0750
v 438.9250 3.0000 41.0750
v 438.9250 3.0000 43.9250
v 436.0750 3.0000 43.9250
v 436.0750 0.0000 41.0750
v 438.9250 0.0000 41.0750
v 438.9250 3.0000 41.0750
v 436.0750 3.0000 41.0750
v 438.9250 0.0000 43.9250
v 436.0750 0.0000 43.9250
v 436.0750 3.0000 43.9250
v 438.9250 3.0000 43.9250
v 438.9250 0.0000 41.0750
v 438.9250 0.0000 43.9250
v 438.9250 3.0000 43.9250
v 438.9250 3.0000 41.0750
v 436.0750 0.0000 43.9250
v 436.0750 0.0000 41.0750
v 436.0750 3.0000 41.0750
v 436.0750 3.0000 43.9250
v 438.5750 0.0000 41.0750
v 438.5750 0.0000 43.9250
v 441.4250 0.0000 43.9250
v 441.4250 0.0000 41.0750
v 438.5750 3.0000 41.0750
v 441.4250 3.0000 41.0750
v 441.4250 3.0000 43.9250
v 438.5750 3.0000 43.9250
v 438.5750 0.0000 41.0750
v 441.4250 0.0000 41.0750
v 441.4250 3.0000 41.0750
v 438.5750 3.0000 41.0750
v 441.4250 0.0000 43.9250
v 438.5750 0.0000 43.9250
v 438.5750 3.0000 43.9250
v 441.4250 3.0000 43.9250
v 441.4250 0.0000 41.0750
v 441.4250 0.0000 43.9250
v 441.4250 3.0000 43.9250
v 441.4250 3.0000 41.0750
v 438.5750 0.0000 43.9250
v 438.5750 0.0000 41.0750
v 438.5750 3.0000 41.0750
v 438.5750 3.0000 43.9250
v 441.0750 0.0000 41.0750
v 441.0750 0.0000 43.9250
v 443.9250 0.0000 43.9250
v 443.9250 0.0000 41.0750
v 441.0750 3.0000 41.0750
v 443.9250 3.0000 41.0750
v 443.9250 3.0000 43.9250
v 441.0750 3.0000 43.9250
v 441.0750 0.0000 41.0750
v 443.9250 0.0000 41.0750
v 443.9250 3.0000 41.0750
v 441.0750 3.0000 41.0750
v 443.9250 0.0000 43.9250
v 441.0750 0.0000 43.9250
v 441.0750 3.0000 43.9250
v 443.9250 3.0000 43.9250
v 443.9250 0.0000 41.0750
v 443.9250 0.0000 43.9250
v 443.9250 3.0000 43.9250
v 443.9250 3.0000 41.0750
v 441.0750 0.0000 43.9250
v 441.0750 0.0000 41.0750
v 441.0750 3.0000 41.0750
v 441.0750 3.0000 43.9250
v 443.5750 0.0000 41.0750
v 443.5750 0.0000 43.9250
v 446.4250 0.0000 43.9250
v 446.4250 0.0000 41.0750
v 443.5750 3.0000 41.0750
v 446.4250 3.0000 41.0750
v 446.4250 3.0000 43.9250
v 443.5750 3.0000 43.9250
v 443.5750 0.0000 41.0750
v 446.4250 0.0000 41.0750
v 446.4250 3.0000 41.0750
v 443.5750 3.0000 41.0750
v 446.4250 0.0000 43.9250
v 443.5750 0.0000 43.9250
v 443.5750 3.0000 43.9250
v 446.4250 3.0000 43.9250
v 446.4250 0.0000 41.0750
v 446.4250 0.0000 43.9250
v 446.4250 3.0000 43.9250
v 446.4250 3.0000 41.0750
v 443.5750 0.0000 43.9250
v 443.5750 0.0000 41.0750
v 443.5750 3.0000 41.0750
v 443.5750 3.0000 43.9250
v 446.0750 0.0000 41.0750
v 446.0750 0.0000 43.9250
v 448.9250 0.0000 43.9250
v 448.9250 0.0000 41.0750
v 446.0750 3.0000 41.0750
v 448.9250 3.0000 41.0750
v 448.9250 3.0000 43.9250
v 446.0750 3.0000 43.9250
v 446.0750 0.0000 41.0750
v 448.9250 0.0000 41.0750
v 448.9250 3.0000 41.0750
v 446.0750 3.0000 41.0750
v 448.9250 0.0000 43.9250
v 446.0750 0.0000 43.9250
v 446.0750 3.0000 43.9250
v 448.9250 3.0000 43.9250
v 448.9250 0.0000 41.0750
v 448.9250 0.0000 43.9250
v 448.9250 3.0000 43.9250
v 448.9250 3.0000 41.0750
v 446.0750 0.0000 43.9250
v 446.0750 0.0000 41.0750
v 446.0750 3.0000 41.0750
v 446.0750 3.0000 43.9250
v 441.0750 0.0000 43.5750
v 441.0750 0.0000 46.4250
v 443.9250 0.0000 46.4250
v 443.9250 0.0000 43.5750
v 441.0750 3.0000 43.5750
v 443.9250 3.0000 43.5750
v 443.9250 3.0000 46.4250
v 441.0750 3.0000 46.4250
v 441.0750 0.0000 43.5750
v 443.9250 0.0000 43.5750
v 443.9250 3.0000 43.5750
v 441.0750 3.0000 43.5750
v 443.9250 0.0000 46.4250
v 441.0750 0.0000 46.4250
v 441.0750 3.0000 46.4250
v 443.9250 3.0000 46.4250
v 443.9250 0.0000 43.5750
v 443.9250 0.0000 46.4250
v 443.9250 3.0000 46.4250
v 443.9250 3.0000 43.5750
v 441.0750 0.0000 46.4250
v 441.0750 0.0000 43.5750
v 441.0750 3.0000 43.5750
v 441.0750 3.0000 46.4250
v 436.0750 0.0000 46.0750
v 436.0750 0.0000 48.9250
v 438.9250 0.0000 48.9250
v 438.9250 0.0000 46.0750
v 436.0750 3.0000 46.0750
v 438.9250 3.0000 46.0750
v 438.9250 3.0000 48.9250
v 436.0750 3.0000 48.9250
v 436.0750 0.0000 46.0750
v 438.9250 0.0000 46.0750
v 438.9250 3.0000 46.0750
v 436.0750 3.0000 46.0750
v 438.9250 0.0000 48.9250
v 436.0750 0.0000 48.9250
v 436.0750 3.0000 48.9250
v 438.9250 3.0000 48.9250
v 438.9250 0.0000 46.0750
v 438.9250 0.0000 48.9250
v 438.9250 3.0000 48.9250
v 438.9250 3.0000 46.0750
v 436.0750 0.0000 48.9250
v 436.0750 0.0000 46.0750
v 436.0750 3.0000 46.0750
v 436.0750 3.0000 48.9250
v 441.0750 0.0000 46.0750
v 441.0750 0.0000 48.9250
v 443.9250 0.0000 48.9250
v 443.9250 0.0000 46.0750
v 441.0750 3.0000 46.0750
v 443.9250 3.0000 46.0750
v 443.9250 3.0000 48.9250
v 441.0750 3.0000 48.9250
v 441.0750 0.0000 46.0750
v 443.9250 0.0000 46.0750
v 443.9250 3.0000 46.0750
v 441.0750 3.0000 46.0750
v 443.9250 0.0000 48.9250
v 441.0750 0.0000 48.9250
v 441.0750 3.0000 48.9250
v 443.9250 3.0000 48.9250
v 443.9250 0.0000 46.0750
v 443.9250 0.0000 48.9250
v 443.9250 3.0000 48.9250
v 443.9250 3.0000 46.0750
v 441.0750 0.0000 48.9250
v 441.0750 0.0000 46.0750
v 441.0750 3.0000 46.0750
v 441.0750 3.0000 48.9250
v 446.0750 0.0000 46.0750
v 446.0750 0.0000 48.9250
v 448.9250 0.0000 48.9250
v 448.9250 0.0000 46.0750
v 446.0750 3.0000 46.0750
v 448.9250 3.0000 46.0750
v 448.9250 3.0000 48.9250
v 446.0750 3.0000 48.9250
v 446.0750 0.0000 46.0750
v 448.9250 0.0000 46.0750
v 448.9250 3.0000 46.0750
v 446.0750 3.0000 46.0750
v 448.9250 0.0000 48.9250
v 446.0750 0.0000 48.9250
v 446.0750 3.0000 48.9250
v 448.9250 3.0000 48.9250
v 448.9250 0.0000 46.0750
v 448.9250 0.0000 48.9250
v 448.9250 3.0000 48.9250
v 448.9250 3.0000 46.0750
v 446.0750 0.0000 48.9250
v 446.0750 0.0000 46.0750
v 446.0750 3.0000 46.0750
v 446.0750 3.0000 48.9250
v 446.0750 0.0000 48.5750
v 448.9250 0.0000 48.5750
v 448.9250 0.0000 51.4250
v 446.0750 0.0000 51.4250
v 446.0750 3.0000 48.5750
v 448.9250 3.0000 48.5750
v 448.9250 3.0000 51.4250
v 446.0750 3.0000 51.4250
v 439.8250 2.7600 39.8250
v 440.1750 2.7600 39.8250
v 440.1750 2.7600 40.1750
v 439.8250 2.7600 40.1750
v 439.8250 2.8800 39.8250
v 440.1750 2.8800 39.8250
v 440.1750 2.8800 40.1750
v 439.8250 2.8800 40.1750
v 439.8250 2.7600 44.8250
v 440.1750 2.7600 44.8250
v 440.1750 2.7600 45.1750
v 439.8250 2.7600 45.1750
v 439.8250 2.8800 44.8250
v 440.1750 2.8800 44.8250
v 440.1750 2.8800 45.1750
v 439.8250 2.8800 45.1750
v 439.8250 2.7600 49.8250
v 440.1750 2.7600 49.8250
v 440.1750 2.7600 50.1750
v 439.8250 2.7600 50.1750
v 439.8250 2.8800 49.8250
v 440.1750 2.8800 49.8250
v 440.1750 2.8800 50.1750
v 439.8250 2.8800 50.1750
v 444.8250 2.7600 49.8250
v 445.1750 2.7600 49.8250
v 445.1750 2.7600 50.1750
v 444.8250 2.7600 50.1750
v 444.8250 2.8800 49.8250
v 445.1750 2.8800 49.8250
v 445.1750 2.8800 50.1750
v 444.8250 2.8800 50.1750
v 449.8250 2.7600 49.8250
v 450.1750 2.7600 49.8250
v 450.1750 2.7600 50.1750
v 449.8250 2.7600 50.1750
v 449.8250 2.8800 49.8250
v 450.1750 2.8800 49.8250
v 450.1750 2.8800 50.1750
v 449.8250 2.8800 50.1750
v 437.6200 2.6000 42.5000
v 437.6200 2.6000 42.5000
v 437.5849 2.6000 42.5849
v 437.5849 2.6000 42.5849
v 437.5000 2.6000 42.6200
v 437.5000 2.6000 42.6200
v 437.4151 2.6000 42.5849
v 437.4151 2.6000 42.5849
v 437.3800 2.6000 42.5000
v 437.3800 2.6000 42.5000
v 437.4151 2.6000 42.4151
v 437.4151 2.6000 42.4151
v 437.5000 2.6000 42.3800
v 437.5000 2.6000 42.3800
v 437.5849 2.6000 42.4151
v 437.5849 2.6000 42.4151
v 437.5000 2.6000 42.5000
v 437.5000 2.6000 42.5000
v 437.5000 2.4800 42.3800
v 452.5000 2.4800 42.3800
v 452.5000 2.4800 42.6200
v 437.5000 2.4800 42.6200
v 437.5000 2.7200 42.3800
v 452.5000 2.7200 42.3800
v 452.5000 2.7200 42.6200
v 437.5000 2.7200 42.6200
v 437.6200 2.6000 47.5000
v 437.6200 2.6000 47.5000
v 437.5849 2.6000 47.5849
v 437.5849 2.6000 47.5849
v 437.5000 2.6000 47.6200
v 437.5000 2.6000 47.6200
v 437.4151 2.6000 47.5849
v 437.4151 2.6000 47.5849
v 437.3800 2.6000 47.5000
v 437.3800 2.6000 47.5000
v 437.4151 2.6000 47.4151
v 437.4151 2.6000 47.4151
v 437.5000 2.6000 47.3800
v 437.5000 2.6000 47.3800
v 437.5849 2.6000 47.4151
v 437.5849 2.6000 47.4151
v 437.5000 2.6000 47.5000
v 437.5000 2.6000 47.5000
v 437.5000 2.4800 47.3800
v 452.5000 2.4800 47.3800
v 452.5000 2.4800 47.6200
v 437.5000 2.4800 47.6200
v 437.5000 2.7200 47.3800
v 452.5000 2.7200 47.3800
v 452.5000 2.7200 47.6200
v 437.5000 2.7200 47.6200
v 437.6200 2.6000 52.5000
v 437.6200 2.6000 52.5000
v 437.5849 2.6000 52.5849
v 437.5849 2.6000 52.5849
v 437.5000 2.6000 52.6200
v 437.5000 2.6000 52.6200
v 437.4151 2.6000 52.5849
v 437.4151 2.6000 52.5849
v 437.3800 2.6000 52.5000
v 437.3800 2.6000 52.5000
v 437.4151 2.6000 52.4151
v 437.4151 2.6000 52.4151
v 437.5000 2.6000 52.3800
v 437.5000 2.6000 52.3800
v 437.5849 2.6000 52.4151
v 437.5849 2.6000 52.4151
v 437.5000 2.6000 52.5000
v 437.5000 2.6000 52.5000
v 437.5000 2.4800 52.3800
v 452.5000 2.4800 52.3800
v 452.5000 2.4800 52.6200
v 437.5000 2.4800 52.6200
v 437.5000 2.7200 52.3800
v 452.5000 2.7200 52.3800
v 452.5000 2.7200 52.6200
v 437.5000 2.7200 52.6200
vt 218.0375 18.0375
vt 218.0375 19.4625
vt 219.4625 19.4625
vt 219.4625 18.0375
vt 218.0375 18.0375
vt 219.4625 18.0375
vt 219.4625 19.4625
vt 218.0375 19.4625
vt 218.0375 0.0000
vt 219.4625 0.0000
vt 219.4625 1.5000
vt 218.0375 1.5000
vt 219.4625 0.0000
vt 218.0375 0.0000
vt 218.0375 1.5000
vt 219.4625 1.5000
vt 18.0375 0.0000
vt 19.4625 0.0000
vt 19.4625 1.5000
vt 18.0375 1.5000
vt 19.4625 0.0000
vt 18.0375 0.0000
vt 18.0375 1.5000
vt 19.4625 1.5000
vt 220.5375 18.0375
vt 220.5375 19.4625
vt 221.9625 19.4625
vt 221.9625 18.0375
vt 220.5375 18.0375
vt 221.9625 18.0375
vt 221.9625 19.4625
vt 220.5375 19.4625
vt 220.5375 0.0000
vt 221.9625 0.0000
vt 221.9625 1.5000
vt 220.5375 1.5000
vt 221.9625 0.0000
vt 220.5375 0.0000
vt 220.5375 1.5000
vt 221.9625 1.5000
vt 18.0375 0.0000
vt 19.4625 0.0000
vt 19.4625 1.5000
vt 18.0375 1.5000
vt 19.4625 0.0000
vt 18.0375 0.0000
vt 18.0375 1.5000
vt 19.4625 1.5000
vt 221.7875 18.0375
vt 221.7875 19.4625
vt 223.2125 19.4625
vt 223.2125 18.0375
vt 221.7875 18.0375
vt 223.2125 18.0375
vt 223.2125 19.4625
vt 221.7875 19.4625
vt 221.7875 0.0000
vt 223.2125 0.0000
vt 223.2125 1.5000
vt 221.7875 1.5000
vt 223.2125 0.0000
vt 221.7875 0.0000
vt 221.7875 1.5000
vt 223.2125 1.5000
vt 18.0375 0.0000
vt 19.4625 0.0000
vt 19.4625 1.5000
vt 18.0375 1.5000
vt 19.4625 0.0000
vt 18.0375 0.0000
vt 18.0375 1.5000
vt 19.4625 1.5000
vt 223.0375 18.0375
vt 223.0375 19.4625
vt 224.4625 19.4625
vt 224.4625 18.0375
vt 223.0375 18.0375
vt 224.4625 18.0375
vt 224.4625 19.4625
vt 223.0375 19.4625
vt 223.0375 0.0000
vt 224.4625 0.0000
vt 224.4625 1.5000
vt 223.0375 1.5000
vt 224.4625 0.0000
vt 223.0375 0.0000
vt 223.0375 1.5000
vt 224.4625 1.5000
vt 18.0375 0.0000
vt 19.4625 0.0000
vt 19.4625 1.5000
vt 18.0375 1.5000
vt 19.4625 0.0000
vt 18.0375 0.0000
vt 18.0375 1.5000
vt 19.4625 1.5000
vt 224.2875 18.0375
vt 224.2875 19.4625
vt 225.7125 19.4625
vt 225.7125 18.0375
vt 224.2875 18.0375
vt 225.7125 18.0375
vt 225.7125 19.4625
vt 224.2875 19.4625
vt 224.2875 0.0000
vt 225.7125 0.0000
vt 225.7125 1.5000
vt 224.2875 1.5000
vt 225.7125 0.0000
vt 224.2875 0.0000
vt 224.2875 1.5000
vt 225.7125 1.5000
vt 18.0375 0.0000
vt 19.4625 0.0000
vt 19.4625 1.5000
vt 18.0375 1.5000
vt 19.4625 0.0000
vt 18.0375 0.0000
vt 18.0375 1.5000
vt 19.4625 1.5000
vt 218.0375 20.5375
vt 218.0375 21.9625
vt 219.4625 21.9625
vt 219.4625 20.5375
vt 218.0375 20.5375
vt 219.4625 20.5375
vt 219.4625 21.9625
vt 218.0375 21.9625
vt 218.0375 0.0000
vt 219.4625 0.0000
vt 219.4625 1.5000
vt 218.0375 1.5000
vt 219.4625 0.0000
vt 218.0375 0.0000
vt 218.0375 1.5000
vt 219.4625 1.5000
vt 20.5375 0.0000
vt 21.9625 0.0000
vt 21.9625 1.5000
vt 20.5375 1.5000
vt 21.9625 0.0000
vt 20.5375 0.0000
vt 20.5375 1.5000
vt 21.9625 1.5000
vt 219.2875 20.5375
vt 219.2875 21.9625
vt 220.7125 21.9625
vt 220.7125 20.5375
vt 219.2875 20.5375
vt 220.7125 20.5375
vt 220.7125 21.9625
vt 219.2875 21.9625
vt 219.2875 0.0000
vt 220.7125 0.0000
vt 220.7125 1.5000
vt 219.2875 1.5000
vt 220.7125 0.0000
vt 219.2875 0.0000
vt 219.2875 1.5000
vt 220.7125 1.5000
vt 20.5375 0.0000
vt 21.9625 0.0000
vt 21.9625 1.5000
vt 20.5375 1.5000
vt 21.9625 0.0000
vt 20.5375 0.0000
vt 20.5375 1.5000
vt 21.9625 1.5000
vt 220.5375 20.5375
vt 220.5375 21.9625
vt 221.9625 21.9625
vt 221.9625 20.5375
vt 220.5375 20.5375
vt 221.9625 20.5375
vt 221.9625 21.9625
vt 220.5375 21.9625
vt 220.5375 0.0000
vt 221.9625 0.0000
vt 221.9625 1.5000
vt 220.5375 1.5000
vt 221.9625 0.0000
vt 220.5375 0.0000
vt 220.5375 1.5000
vt 221.9625 1.5000
vt 20.5375 0.0000
vt 21.9625 0.0000
vt 21.9625 1.5000
vt 20.5375 1.5000
vt 21.9625 0.0000
vt 20.5375 0.0000
vt 20.5375 1.5000
vt 21.9625 1.5000
vt 221.7875 20.5375
vt 221.7875 21.9625
vt 223.2125 21.9625
vt 223.2125 20.5375
vt 221.7875 20.5375
vt 223.2125 20.5375
vt 223.2125 21.9625
vt 221.7875 21.9625
vt 221.7875 0.0000
vt 223.2125 0.0000
vt 223.2125 1.5000
vt 221.7875 1.5000
vt 223.2125 0.0000
vt 221.7875 0.0000
vt 221.7875 1.5000
vt 223.2125 1.5000
vt 20.5375 0.0000
vt 21.9625 0.0000
vt 21.9625 1.5000
vt 20.5375 1.5000
vt 21.9625 0.0000
vt 20.5375 0.0000
vt 20.5375 1.5000
vt 21.9625 1.5000
vt 223.0375 20.5375
vt 223.0375 21.9625
vt 224.4625 21.9625
vt 224.4625 20.5375
vt 223.0375 20.5375
vt 224.4625 20.5375
vt 224.4625 21.9625
vt 223.0375 21.9625
vt 223.0375 0.0000
vt 224.4625 0.0000
vt 224.4625 1.5000
vt 223.0375 1.5000
vt 224.4625 0.0000
vt 223.0375 0.0000
vt 223.0375 1.5000
vt 224.4625 1.5000
vt 20.5375 0.0000
vt 21.9625 0.0000
vt 21.9625 1.5000
vt 20.5375 1.5000
vt 21.9625 0.0000
vt 20.5375 0.0000
vt 20.5375 1.5000
vt 21.9625 1.5000
vt 220.5375 21.7875
vt 220.5375 23.2125
vt 221.9625 23.2125
vt 221.9625 21.7875
vt 220.5375 21.7875
vt 221.9625 21.7875
vt 221.9625 23.2125
vt 220.5375 23.2125
vt 220.5375 0.0000
vt 221.9625 0.0000
vt 221.9625 1.5000
vt 220.5375 1.5000
vt 221.9625 0.0000
vt 220.5375 0.0000
vt 220.5375 1.5000
vt 221.9625 1.5000
vt 21.7875 0.0000
vt 23.2125 0.0000
vt 23.2125 1.5000
vt 21.7875 1.5000
vt 23.2125 0.0000
vt 21.7875 0.0000
vt 21.7875 1.5000
vt 23.2125 1.5000
vt 218.0375 23.0375
vt 218.0375 24.4625
vt 219.4625 24.4625
vt 219.4625 23.0375
vt 218.0375 23.0375
vt 219.4625 23.0375
vt 219.4625 24.4625
vt 218.0375 24.4625
vt 218.0375 0.0000
vt 219.4625 0.0000
vt 219.4625 1.5000
vt 218.0375 1.5000
vt 219.4625 0.0000
vt 218.0375 0.0000
vt 218.0375 1.5000
vt 219.4625 1.5000
vt 23.0375 0.0000
vt 24.4625 0.0000
vt 24.4625 1.5000
vt 23.0375 1.5000
vt 24.4625 0.0000
vt 23.0375 0.0000
vt 23.0375 1.5000
vt 24.4625 1.5000
vt 220.5375 23.0375
vt 220.5375 24.4625
vt 221.9625 24.4625
vt 221.9625 23.0375
vt 220.5375 23.0375
vt 221.9625 23.0375
vt 221.9625 24.4625
vt 220.5375 24.4625
vt 220.5375 0.0000
vt 221.9625 0.0000
vt 221.9625 1.5000
vt 220.5375 1.5000
vt 221.9625 0.0000
vt 220.5375 0.0000
vt 220.5375 1.5000
vt 221.9625 1.5000
vt 23.0375 0.0000
vt 24.4625 0.0000
vt 24.4625 1.5000
vt 23.0375 1.5000
vt 24.4625 0.0000
vt 23.0375 0.0000
vt 23.0375 1.5000
vt 24.4625 1.5000
vt 223.0375 23.0375
vt 223.0375 24.4625
vt 224.4625 24.4625
vt 224.4625 23.0375
vt 223.0375 23.0375
vt 224.4625 23.0375
vt 224.4625 24.4625
vt 223.0375 24.4625
vt 223.0375 0.0000
vt 224.4625 0.0000
vt 224.4625 1.5000
vt 223.0375 1.5000
vt 224.4625 0.0000
vt 223.0375 0.0000
vt 223.0375 1.5000
vt 224.4625 1.5000
vt 23.0375 0.0000
vt 24.4625 0.0000
vt 24.4625 1.5000
vt 23.0375 1.5000
vt 24.4625 0.0000
vt 23.0375 0.0000
vt 23.0375 1.5000
vt 24.4625 1.5000
usemtl rust
f 337 340 339 338
f 341 342 343 344
f 337 338 342 341
f 339 340 344 343
f 338 339 343 342
f 340 337 341 344
usemtl lamp_sick
f 345 348 347 346
f 349 350 351 352
f 345 346 350 349
f 347 348 352 351
f 346 347 351 350
f 348 345 349 352
f 353 356 355 354
f 357 358 359 360
f 353 354 358 357
f 355 356 360 359
f 354 355 359 358
f 356 353 357 360
f 361 364 363 362
f 365 366 367 368
f 361 362 366 365
f 363 364 368 367
f 362 363 367 366
f 364 361 365 368
f 369 372 371 370
f 373 374 375 376
f 369 370 374 373
f 371 372 376 375
f 370 371 375 374
f 372 369 373 376
f 377 380 379 378
f 381 382 383 384
f 377 378 382 381
f 379 380 384 383
f 378 379 383 382
f 380 377 381 384
usemtl pipe
f 385 387 388 386
f 387 389 390 388
f 389 391 392 390
f 391 393 394 392
f 393 395 396 394
f 395 397 398 396
f 397 399 400 398
f 399 385 386 400
f 401 386 388
f 402 387 385
f 401 388 390
f 402 389 387
f 401 390 392
f 402 391 389
f 401 392 394
f 402 393 391
f 401 394 396
f 402 395 393
f 401 396 398
f 402 397 395
f 401 398 400
f 402 399 397
f 401 400 386
f 402 385 399
f 403 406 405 404
f 407 408 409 410
f 403 404 408 407
f 405 406 410 409
f 404 405 409 408
f 406 403 407 410
usemtl rust
f 411 413 414 412
f 413 415 416 414
f 415 417 418 416
f 417 419 420 418
f 419 421 422 420
f 421 423 424 422
f 423 425 426 424
f 425 411 412 426
f 427 412 414
f 428 413 411
f 427 414 416
f 428 415 413
f 427 416 418
f 428 417 415
f 427 418 420
f 428 419 417
f 427 420 422
f 428 421 419
f 427 422 424
f 428 423 421
f 427 424 426
f 428 425 423
f 427 426 412
f 428 411 425
f 429 432 431 430
f 433 434 435 436
f 429 430 434 433
f 431 432 436 435
f 430 431 435 434
f 432 429 433 436
usemtl pipe
f 437 439 440 438
f 439 441 442 440
f 441 443 444 442
f 443 445 446 444
f 445 447 448 446
f 447 449 450 448
f 449 451 452 450
f 451 437 438 452
f 453 438 440
f 454 439 437
f 453 440 442
f 454 441 439
f 453 442 444
f 454 443 441
f 453 444 446
f 454 445 443
f 453 446 448
f 454 447 445
f 453 448 450
f 454 449 447
f 453 450 452
f 454 451 449
f 453 452 438
f 454 437 451
f 455 458 457 456
f 459 460 461 462
f 455 456 460 459
f 457 458 462 461
f 456 457 461 460
f 458 455 459 462
usemtl grime_wall
f 1/1 2/2 3/3 4/4
f 5/5 6/6 7/7 8/8
f 9/9 10/10 11/11 12/12
f 13/13 14/14 15/15 16/16
f 17/17 18/18 19/19 20/20
f 21/21 22/22 23/23 24/24
f 25/25 26/26 27/27 28/28
f 29/29 30/30 31/31 32/32
f 33/33 34/34 35/35 36/36
f 37/37 38/38 39/39 40/40
f 41/41 42/42 43/43 44/44
f 45/45 46/46 47/47 48/48
f 49/49 50/50 51/51 52/52
f 53/53 54/54 55/55 56/56
f 57/57 58/58 59/59 60/60
f 61/61 62/62 63/63 64/64
f 65/65 66/66 67/67 68/68
f 69/69 70/70 71/71 72/72
f 73/73 74/74 75/75 76/76
f 77/77 78/78 79/79 80/80
f 81/81 82/82 83/83 84/84
f 85/85 86/86 87/87 88/88
f 89/89 90/90 91/91 92/92
f 93/93 94/94 95/95 96/96
f 97/97 98/98 99/99 100/100
f 101/101 102/102 103/103 104/104
f 105/105 106/106 107/107 108/108
f 109/109 110/110 111/111 112/112
f 113/113 114/114 115/115 116/116
f 117/117 118/118 119/119 120/120
f 121/121 122/122 123/123 124/124
f 125/125 126/126 127/127 128/128
f 129/129 130/130 131/131 132/132
f 133/133 134/134 135/135 136/136
f 137/137 138/138 139/139 140/140
f 141/141 142/142 143/143 144/144
f 145/145 146/146 147/147 148/148
f 149/149 150/150 151/151 152/152
f 153/153 154/154 155/155 156/156
f 157/157 158/158 159/159 160/160
f 161/161 162/162 163/163 164/164
f 165/165 166/166 167/167 168/168
f 169/169 170/170 171/171 172/172
f 173/173 174/174 175/175 176/176
f 177/177 178/178 179/179 180/180
f 181/181 182/182 183/183 184/184
f 185/185 186/186 187/187 188/188
f 189/189 190/190 191/191 192/192
f 193/193 194/194 195/195 196/196
f 197/197 198/198 199/199 200/200
f 201/201 202/202 203/203 204/204
f 205/205 206/206 207/207 208/208
f 209/209 210/210 211/211 212/212
f 213/213 214/214 215/215 216/216
f 217/217 218/218 219/219 220/220
f 221/221 222/222 223/223 224/224
f 225/225 226/226 227/227 228/228
f 229/229 230/230 231/231 232/232
f 233/233 234/234 235/235 236/236
f 237/237 238/238 239/239 240/240
f 241/241 242/242 243/243 244/244
f 245/245 246/246 247/247 248/248
f 249/249 250/250 251/251 252/252
f 253/253 254/254 255/255 256/256
f 257/257 258/258 259/259 260/260
f 261/261 262/262 263/263 264/264
f 265/265 266/266 267/267 268/268
f 269/269 270/270 271/271 272/272
f 273/273 274/274 275/275 276/276
f 277/277 278/278 279/279 280/280
f 281/281 282/282 283/283 284/284
f 285/285 286/286 287/287 288/288
f 289/289 290/290 291/291 292/292
f 293/293 294/294 295/295 296/296
f 297/297 298/298 299/299 300/300
f 301/301 302/302 303/303 304/304
f 305/305 306/306 307/307 308/308
f 309/309 310/310 311/311 312/312
f 313/313 314/314 315/315 316/316
f 317/317 318/318 319/319 320/320
f 321/321 322/322 323/323 324/324
f 325/325 326/326 327/327 328/328
f 329/329 330/330 331/331 332/332
f 333/333 334/334 335/335 336/336
