# RoastEngine Backrooms level
mtllib backrooms.mtl
v -54.4250 0.0000 -54.4250
v -54.4250 0.0000 -50.5750
v -50.5750 0.0000 -50.5750
v -50.5750 0.0000 -54.4250
v -54.4250 4.0000 -54.4250
v -50.5750 4.0000 -54.4250
v -50.5750 4.0000 -50.5750
v -54.4250 4.0000 -50.5750
v -54.4250 0.0000 -54.4250
v -50.5750 0.0000 -54.4250
v -50.5750 4.0000 -54.4250
v -54.4250 4.0000 -54.4250
v -50.5750 0.0000 -50.5750
v -54.4250 0.0000 -50.5750
v -54.4250 4.0000 -50.5750
v -50.5750 4.0000 -50.5750
v -50.5750 0.0000 -54.4250
v -50.5750 0.0000 -50.5750
v -50.5750 4.0000 -50.5750
v -50.5750 4.0000 -54.4250
v -54.4250 0.0000 -50.5750
v -54.4250 0.0000 -54.4250
v -54.4250 4.0000 -54.4250
v -54.4250 4.0000 -50.5750
v -47.4250 0.0000 -54.4250
v -47.4250 0.0000 -50.5750
v -43.5750 0.0000 -50.5750
v -43.5750 0.0000 -54.4250
v -47.4250 4.0000 -54.4250
v -43.5750 4.0000 -54.4250
v -43.5750 4.0000 -50.5750
v -47.4250 4.0000 -50.5750
v -47.4250 0.0000 -54.4250
v -43.5750 0.0000 -54.4250
v -43.5750 4.0000 -54.4250
v -47.4250 4.0000 -54.4250
v -43.5750 0.0000 -50.5750
v -47.4250 0.0000 -50.5750
v -47.4250 4.0000 -50.5750
v -43.5750 4.0000 -50.5750
v -43.5750 0.0000 -54.4250
v -43.5750 0.0000 -50.5750
v -43.5750 4.0000 -50.5750
v -43.5750 4.0000 -54.4250
v -47.4250 0.0000 -50.5750
v -47.4250 0.0000 -54.4250
v -47.4250 4.0000 -54.4250
v -47.4250 4.0000 -50.5750
v -40.4250 0.0000 -54.4250
v -40.4250 0.0000 -50.5750
v -36.5750 0.0000 -50.5750
v -36.5750 0.0000 -54.4250
v -40.4250 4.0000 -54.4250
v -36.5750 4.0000 -54.4250
v -36.5750 4.0000 -50.5750
v -40.4250 4.0000 -50.5750
v -40.4250 0.0000 -54.4250
v -36.5750 0.0000 -54.4250
v -36.5750 4.0000 -54.4250
v -40.4250 4.0000 -54.4250
v -36.5750 0.0000 -50.5750
v -40.4250 0.0000 -50.5750
v -40.4250 4.0000 -50.5750
v -36.5750 4.0000 -50.5750
v -36.5750 0.0000 -54.4250
v -36.5750 0.0000 -50.5750
v -36.5750 4.0000 -50.5750
v -36.5750 4.0000 -54.4250
v -40.4250 0.0000 -50.5750
v -40.4250 0.0000 -54.4250
v -40.4250 4.0000 -54.4250
v -40.4250 4.0000 -50.5750
v -33.4250 0.0000 -54.4250
v -33.4250 0.0000 -50.5750
v -29.5750 0.0000 -50.5750
v -29.5750 0.0000 -54.4250
v -33.4250 4.0000 -54.4250
v -29.5750 4.0000 -54.4250
v -29.5750 4.0000 -50.5750
v -33.4250 4.0000 -50.5750
v -33.4250 0.0000 -54.4250
v -29.5750 0.0000 -54.4250
v -29.5750 4.0000 -54.4250
v -33.4250 4.0000 -54.4250
v -29.5750 0.0000 -50.5750
v -33.4250 0.0000 -50.5750
v -33.4250 4.0000 -50.5750
v -29.5750 4.0000 -50.5750
v -29.5750 0.0000 -54.4250
v -29.5750 0.0000 -50.5750
v -29.5750 4.0000 -50.5750
v -29.5750 4.0000 -54.4250
v -33.4250 0.0000 -50.5750
v -33.4250 0.0000 -54.4250
v -33.4250 4.0000 -54.4250
v -33.4250 4.0000 -50.5750
v -26.4250 0.0000 -54.4250
v -26.4250 0.0000 -50.5750
v -22.5750 0.0000 -50.5750
v -22.5750 0.0000 -54.4250
v -26.4250 4.0000 -54.4250
v -22.5750 4.0000 -54.4250
v -22.5750 4.0000 -50.5750
v -26.4250 4.0000 -50.5750
v -26.4250 0.0000 -54.4250
v -22.5750 0.0000 -54.4250
v -22.5750 4.0000 -54.4250
v -26.4250 4.0000 -54.4250
v -22.5750 0.0000 -50.5750
v -26.4250 0.0000 -50.5750
v -26.4250 4.0000 -50.5750
v -22.5750 4.0000 -50.5750
v -22.5750 0.0000 -54.4250
v -22.5750 0.0000 -50.5750
v -22.5750 4.0000 -50.5750
v -22.5750 4.0000 -54.4250
v -26.4250 0.0000 -50.5750
v -26.4250 0.0000 -54.4250
v -26.4250 4.0000 -54.4250
v -26.4250 4.0000 -50.5750
v -22.9250 0.0000 -54.4250
v -22.9250 0.0000 -50.5750
v -19.0750 0.0000 -50.5750
v -19.0750 0.0000 -54.4250
v -22.9250 4.0000 -54.4250
v -19.0750 4.0000 -54.4250
v -19.0750 4.0000 -50.5750
v -22.9250 4.0000 -50.5750
v -22.9250 0.0000 -54.4250
v -19.0750 0.0000 -54.4250
v -19.0750 4.0000 -54.4250
v -22.9250 4.0000 -54.4250
v -19.0750 0.0000 -50.5750
v -22.9250 0.0000 -50.5750
v -22.9250 4.0000 -50.5750
v -19.0750 4.0000 -50.5750
v -19.0750 0.0000 -54.4250
v -19.0750 0.0000 -50.5750
v -19.0750 4.0000 -50.5750
v -19.0750 4.0000 -54.4250
v -22.9250 0.0000 -50.5750
v -22.9250 0.0000 -54.4250
v -22.9250 4.0000 -54.4250
v -22.9250 4.0000 -50.5750
v -54.4250 0.0000 -50.9250
v -54.4250 0.0000 -47.0750
v -50.5750 0.0000 -47.0750
v -50.5750 0.0000 -50.9250
v -54.4250 4.0000 -50.9250
v -50.5750 4.0000 -50.9250
v -50.5750 4.0000 -47.0750
v -54.4250 4.0000 -47.0750
v -54.4250 0.0000 -50.9250
v -50.5750 0.0000 -50.9250
v -50.5750 4.0000 -50.9250
v -54.4250 4.0000 -50.9250
v -50.5750 0.0000 -47.0750
v -54.4250 0.0000 -47.0750
v -54.4250 4.0000 -47.0750
v -50.5750 4.0000 -47.0750
v -50.5750 0.0000 -50.9250
v -50.5750 0.0000 -47.0750
v -50.5750 4.0000 -47.0750
v -50.5750 4.0000 -50.9250
v -54.4250 0.0000 -47.0750
v -54.4250 0.0000 -50.9250
v -54.4250 4.0000 -50.9250
v -54.4250 4.0000 -47.0750
v -40.4250 0.0000 -50.9250
v -40.4250 0.0000 -47.0750
v -36.5750 0.0000 -47.0750
v -36.5750 0.0000 -50.9250
v -40.4250 4.0000 -50.9250
v -36.5750 4.0000 -50.9250
v -36.5750 4.0000 -47.0750
v -40.4250 4.0000 -47.0750
v -40.4250 0.0000 -50.9250
v -36.5750 0.0000 -50.9250
v -36.5750 4.0000 -50.9250
v -40.4250 4.0000 -50.9250
v -36.5750 0.0000 -47.0750
v -40.4250 0.0000 -47.0750
v -40.4250 4.0000 -47.0750
v -36.5750 4.0000 -47.0750
v -36.5750 0.0000 -50.9250
v -36.5750 0.0000 -47.0750
v -36.5750 4.0000 -47.0750
v -36.5750 4.0000 -50.9250
v -40.4250 0.0000 -47.0750
v -40.4250 0.0000 -50.9250
v -40.4250 4.0000 -50.9250
v -40.4250 4.0000 -47.0750
v -54.4250 0.0000 -47.4250
v -54.4250 0.0000 -43.5750
v -50.5750 0.0000 -43.5750
v -50.5750 0.0000 -47.4250
v -54.4250 4.0000 -47.4250
v -50.5750 4.0000 -47.4250
v -50.5750 4.0000 -43.5750
v -54.4250 4.0000 -43.5750
v -54.4250 0.0000 -47.4250
v -50.5750 0.0000 -47.4250
v -50.5750 4.0000 -47.4250
v -54.4250 4.0000 -47.4250
v -50.5750 0.0000 -43.5750
v -54.4250 0.0000 -43.5750
v -54.4250 4.0000 -43.5750
v -50.5750 4.0000 -43.5750
v -50.5750 0.0000 -47.4250
v -50.5750 0.0000 -43.5750
v -50.5750 4.0000 -43.5750
v -50.5750 4.0000 -47.4250
v -54.4250 0.0000 -43.5750
v -54.4250 0.0000 -47.4250
v -54.4250 4.0000 -47.4250
v -54.4250 4.0000 -43.5750
v -47.4250 0.0000 -47.4250
v -47.4250 0.0000 -43.5750
v -43.5750 0.0000 -43.5750
v -43.5750 0.0000 -47.4250
v -47.4250 4.0000 -47.4250
v -43.5750 4.0000 -47.4250
v -43.5750 4.0000 -43.5750
v -47.4250 4.0000 -43.5750
v -47.4250 0.0000 -47.4250
v -43.5750 0.0000 -47.4250
v -43.5750 4.0000 -47.4250
v -47.4250 4.0000 -47.4250
v -43.5750 0.0000 -43.5750
v -47.4250 0.0000 -43.5750
v -47.4250 4.0000 -43.5750
v -43.5750 4.0000 -43.5750
v -43.5750 0.0000 -47.4250
v -43.5750 0.0000 -43.5750
v -43.5750 4.0000 -43.5750
v -43.5750 4.0000 -47.4250
v -47.4250 0.0000 -43.5750
v -47.4250 0.0000 -47.4250
v -47.4250 4.0000 -47.4250
v -47.4250 4.0000 -43.5750
v -40.4250 0.0000 -47.4250
v -40.4250 0.0000 -43.5750
v -36.5750 0.0000 -43.5750
v -36.5750 0.0000 -47.4250
v -40.4250 4.0000 -47.4250
v -36.5750 4.0000 -47.4250
v -36.5750 4.0000 -43.5750
v -40.4250 4.0000 -43.5750
v -40.4250 0.0000 -47.4250
v -36.5750 0.0000 -47.4250
v -36.5750 4.0000 -47.4250
v -40.4250 4.0000 -47.4250
v -36.5750 0.0000 -43.5750
v -40.4250 0.0000 -43.5750
v -40.4250 4.0000 -43.5750
v -36.5750 4.0000 -43.5750
v -36.5750 0.0000 -47.4250
v -36.5750 0.0000 -43.5750
v -36.5750 4.0000 -43.5750
v -36.5750 4.0000 -47.4250
v -40.4250 0.0000 -43.5750
v -40.4250 0.0000 -47.4250
v -40.4250 4.0000 -47.4250
v -40.4250 4.0000 -43.5750
v -33.4250 0.0000 -47.4250
v -33.4250 0.0000 -43.5750
v -29.5750 0.0000 -43.5750
v -29.5750 0.0000 -47.4250
v -33.4250 4.0000 -47.4250
v -29.5750 4.0000 -47.4250
v -29.5750 4.0000 -43.5750
v -33.4250 4.0000 -43.5750
v -33.4250 0.0000 -47.4250
v -29.5750 0.0000 -47.4250
v -29.5750 4.0000 -47.4250
v -33.4250 4.0000 -47.4250
v -29.5750 0.0000 -43.5750
v -33.4250 0.0000 -43.5750
v -33.4250 4.0000 -43.5750
v -29.5750 4.0000 -43.5750
v -29.5750 0.0000 -47.4250
v -29.5750 0.0000 -43.5750
v -29.5750 4.0000 -43.5750
v -29.5750 4.0000 -47.4250
v -33.4250 0.0000 -43.5750
v -33.4250 0.0000 -47.4250
v -33.4250 4.0000 -47.4250
v -33.4250 4.0000 -43.5750
v -26.4250 0.0000 -47.4250
v -26.4250 0.0000 -43.5750
v -22.5750 0.0000 -43.5750
v -22.5750 0.0000 -47.4250
v -26.4250 4.0000 -47.4250
v -22.5750 4.0000 -47.4250
v -22.5750 4.0000 -43.5750
v -26.4250 4.0000 -43.5750
v -26.4250 0.0000 -47.4250
v -22.5750 0.0000 -47.4250
v -22.5750 4.0000 -47.4250
v -26.4250 4.0000 -47.4250
v -22.5750 0.0000 -43.5750
v -26.4250 0.0000 -43.5750
v -26.4250 4.0000 -43.5750
v -22.5750 4.0000 -43.5750
v -22.5750 0.0000 -47.4250
v -22.5750 0.0000 -43.5750
v -22.5750 4.0000 -43.5750
v -22.5750 4.0000 -47.4250
v -26.4250 0.0000 -43.5750
v -26.4250 0.0000 -47.4250
v -26.4250 4.0000 -47.4250
v -26.4250 4.0000 -43.5750
v -57.9250 0.0000 -40.4250
v -57.9250 0.0000 -36.5750
v -54.0750 0.0000 -36.5750
v -54.0750 0.0000 -40.4250
v -57.9250 4.0000 -40.4250
v -54.0750 4.0000 -40.4250
v -54.0750 4.0000 -36.5750
v -57.9250 4.0000 -36.5750
v -57.9250 0.0000 -40.4250
v -54.0750 0.0000 -40.4250
v -54.0750 4.0000 -40.4250
v -57.9250 4.0000 -40.4250
v -54.0750 0.0000 -36.5750
v -57.9250 0.0000 -36.5750
v -57.9250 4.0000 -36.5750
v -54.0750 4.0000 -36.5750
v -54.0750 0.0000 -40.4250
v -54.0750 0.0000 -36.5750
v -54.0750 4.0000 -36.5750
v -54.0750 4.0000 -40.4250
v -57.9250 0.0000 -36.5750
v -57.9250 0.0000 -40.4250
v -57.9250 4.0000 -40.4250
v -57.9250 4.0000 -36.5750
v -54.4250 0.0000 -40.4250
v -54.4250 0.0000 -36.5750
v -50.5750 0.0000 -36.5750
v -50.5750 0.0000 -40.4250
v -54.4250 4.0000 -40.4250
v -50.5750 4.0000 -40.4250
v -50.5750 4.0000 -36.5750
v -54.4250 4.0000 -36.5750
v -54.4250 0.0000 -40.4250
v -50.5750 0.0000 -40.4250
v -50.5750 4.0000 -40.4250
v -54.4250 4.0000 -40.4250
v -50.5750 0.0000 -36.5750
v -54.4250 0.0000 -36.5750
v -54.4250 4.0000 -36.5750
v -50.5750 4.0000 -36.5750
v -50.5750 0.0000 -40.4250
v -50.5750 0.0000 -36.5750
v -50.5750 4.0000 -36.5750
v -50.5750 4.0000 -40.4250
v -54.4250 0.0000 -36.5750
v -54.4250 0.0000 -40.4250
v -54.4250 4.0000 -40.4250
v -54.4250 4.0000 -36.5750
v -47.4250 0.0000 -40.4250
v -47.4250 0.0000 -36.5750
v -43.5750 0.0000 -36.5750
v -43.5750 0.0000 -40.4250
v -47.4250 4.0000 -40.4250
v -43.5750 4.0000 -40.4250
v -43.5750 4.0000 -36.5750
v -47.4250 4.0000 -36.5750
v -47.4250 0.0000 -40.4250
v -43.5750 0.0000 -40.4250
v -43.5750 4.0000 -40.4250
v -47.4250 4.0000 -40.4250
v -43.5750 0.0000 -36.5750
v -47.4250 0.0000 -36.5750
v -47.4250 4.0000 -36.5750
v -43.5750 4.0000 -36.5750
v -43.5750 0.0000 -40.4250
v -43.5750 0.0000 -36.5750
v -43.5750 4.0000 -36.5750
v -43.5750 4.0000 -40.4250
v -47.4250 0.0000 -36.5750
v -47.4250 0.0000 -40.4250
v -47.4250 4.0000 -40.4250
v -47.4250 4.0000 -36.5750
v -40.4250 0.0000 -40.4250
v -40.4250 0.0000 -36.5750
v -36.5750 0.0000 -36.5750
v -36.5750 0.0000 -40.4250
v -40.4250 4.0000 -40.4250
v -36.5750 4.0000 -40.4250
v -36.5750 4.0000 -36.5750
v -40.4250 4.0000 -36.5750
v -40.4250 0.0000 -40.4250
v -36.5750 0.0000 -40.4250
v -36.5750 4.0000 -40.4250
v -40.4250 4.0000 -40.4250
v -36.5750 0.0000 -36.5750
v -40.4250 0.0000 -36.5750
v -40.4250 4.0000 -36.5750
v -36.5750 4.0000 -36.5750
v -36.5750 0.0000 -40.4250
v -36.5750 0.0000 -36.5750
v -36.5750 4.0000 -36.5750
v -36.5750 4.0000 -40.4250
v -40.4250 0.0000 -36.5750
v -40.4250 0.0000 -40.4250
v -40.4250 4.0000 -40.4250
v -40.4250 4.0000 -36.5750
v -33.4250 0.0000 -40.4250
v -33.4250 0.0000 -36.5750
v -29.5750 0.0000 -36.5750
v -29.5750 0.0000 -40.4250
v -33.4250 4.0000 -40.4250
v -29.5750 4.0000 -40.4250
v -29.5750 4.0000 -36.5750
v -33.4250 4.0000 -36.5750
v -33.4250 0.0000 -40.4250
v -29.5750 0.0000 -40.4250
v -29.5750 4.0000 -40.4250
v -33.4250 4.0000 -40.4250
v -29.5750 0.0000 -36.5750
v -33.4250 0.0000 -36.5750
v -33.4250 4.0000 -36.5750
v -29.5750 4.0000 -36.5750
v -29.5750 0.0000 -40.4250
v -29.5750 0.0000 -36.5750
v -29.5750 4.0000 -36.5750
v -29.5750 4.0000 -40.4250
v -33.4250 0.0000 -36.5750
v -33.4250 0.0000 -40.4250
v -33.4250 4.0000 -40.4250
v -33.4250 4.0000 -36.5750
v -26.4250 0.0000 -40.4250
v -26.4250 0.0000 -36.5750
v -22.5750 0.0000 -36.5750
v -22.5750 0.0000 -40.4250
v -26.4250 4.0000 -40.4250
v -22.5750 4.0000 -40.4250
v -22.5750 4.0000 -36.5750
v -26.4250 4.0000 -36.5750
v -26.4250 0.0000 -40.4250
v -22.5750 0.0000 -40.4250
v -22.5750 4.0000 -40.4250
v -26.4250 4.0000 -40.4250
v -22.5750 0.0000 -36.5750
v -26.4250 0.0000 -36.5750
v -26.4250 4.0000 -36.5750
v -22.5750 4.0000 -36.5750
v -22.5750 0.0000 -40.4250
v -22.5750 0.0000 -36.5750
v -22.5750 4.0000 -36.5750
v -22.5750 4.0000 -40.4250
v -26.4250 0.0000 -36.5750
v -26.4250 0.0000 -40.4250
v -26.4250 4.0000 -40.4250
v -26.4250 4.0000 -36.5750
v -54.4250 0.0000 -33.4250
v -54.4250 0.0000 -29.5750
v -50.5750 0.0000 -29.5750
v -50.5750 0.0000 -33.4250
v -54.4250 4.0000 -33.4250
v -50.5750 4.0000 -33.4250
v -50.5750 4.0000 -29.5750
v -54.4250 4.0000 -29.5750
v -54.4250 0.0000 -33.4250
v -50.5750 0.0000 -33.4250
v -50.5750 4.0000 -33.4250
v -54.4250 4.0000 -33.4250
v -50.5750 0.0000 -29.5750
v -54.4250 0.0000 -29.5750
v -54.4250 4.0000 -29.5750
v -50.5750 4.0000 -29.5750
v -50.5750 0.0000 -33.4250
v -50.5750 0.0000 -29.5750
v -50.5750 4.0000 -29.5750
v -50.5750 4.0000 -33.4250
v -54.4250 0.0000 -29.5750
v -54.4250 0.0000 -33.4250
v -54.4250 4.0000 -33.4250
v -54.4250 4.0000 -29.5750
v -47.4250 0.0000 -33.4250
v -47.4250 0.0000 -29.5750
v -43.5750 0.0000 -29.5750
v -43.5750 0.0000 -33.4250
v -47.4250 4.0000 -33.4250
v -43.5750 4.0000 -33.4250
v -43.5750 4.0000 -29.5750
v -47.4250 4.0000 -29.5750
v -47.4250 0.0000 -33.4250
v -43.5750 0.0000 -33.4250
v -43.5750 4.0000 -33.4250
v -47.4250 4.0000 -33.4250
v -43.5750 0.0000 -29.5750
v -47.4250 0.0000 -29.5750
v -47.4250 4.0000 -29.5750
v -43.5750 4.0000 -29.5750
v -43.5750 0.0000 -33.4250
v -43.5750 0.0000 -29.5750
v -43.5750 4.0000 -29.5750
v -43.5750 4.0000 -33.4250
v -47.4250 0.0000 -29.5750
v -47.4250 0.0000 -33.4250
v -47.4250 4.0000 -33.4250
v -47.4250 4.0000 -29.5750
v -40.4250 0.0000 -33.4250
v -40.4250 0.0000 -29.5750
v -36.5750 0.0000 -29.5750
v -36.5750 0.0000 -33.4250
v -40.4250 4.0000 -33.4250
v -36.5750 4.0000 -33.4250
v -36.5750 4.0000 -29.5750
v -40.4250 4.0000 -29.5750
v -40.4250 0.0000 -33.4250
v -36.5750 0.0000 -33.4250
v -36.5750 4.0000 -33.4250
v -40.4250 4.0000 -33.4250
v -36.5750 0.0000 -29.5750
v -40.4250 0.0000 -29.5750
v -40.4250 4.0000 -29.5750
v -36.5750 4.0000 -29.5750
v -36.5750 0.0000 -33.4250
v -36.5750 0.0000 -29.5750
v -36.5750 4.0000 -29.5750
v -36.5750 4.0000 -33.4250
v -40.4250 0.0000 -29.5750
v -40.4250 0.0000 -33.4250
v -40.4250 4.0000 -33.4250
v -40.4250 4.0000 -29.5750
v -33.4250 0.0000 -33.4250
v -33.4250 0.0000 -29.5750
v -29.5750 0.0000 -29.5750
v -29.5750 0.0000 -33.4250
v -33.4250 4.0000 -33.4250
v -29.5750 4.0000 -33.4250
v -29.5750 4.0000 -29.5750
v -33.4250 4.0000 -29.5750
v -33.4250 0.0000 -33.4250
v -29.5750 0.0000 -33.4250
v -29.5750 4.0000 -33.4250
v -33.4250 4.0000 -33.4250
v -29.5750 0.0000 -29.5750
v -33.4250 0.0000 -29.5750
v -33.4250 4.0000 -29.5750
v -29.5750 4.0000 -29.5750
v -29.5750 0.0000 -33.4250
v -29.5750 0.0000 -29.5750
v -29.5750 4.0000 -29.5750
v -29.5750 4.0000 -33.4250
v -33.4250 0.0000 -29.5750
v -33.4250 0.0000 -33.4250
v -33.4250 4.0000 -33.4250
v -33.4250 4.0000 -29.5750
v -26.4250 0.0000 -33.4250
v -26.4250 0.0000 -29.5750
v -22.5750 0.0000 -29.5750
v -22.5750 0.0000 -33.4250
v -26.4250 4.0000 -33.4250
v -22.5750 4.0000 -33.4250
v -22.5750 4.0000 -29.5750
v -26.4250 4.0000 -29.5750
v -26.4250 0.0000 -33.4250
v -22.5750 0.0000 -33.4250
v -22.5750 4.0000 -33.4250
v -26.4250 4.0000 -33.4250
v -22.5750 0.0000 -29.5750
v -26.4250 0.0000 -29.5750
v -26.4250 4.0000 -29.5750
v -22.5750 4.0000 -29.5750
v -22.5750 0.0000 -33.4250
v -22.5750 0.0000 -29.5750
v -22.5750 4.0000 -29.5750
v -22.5750 4.0000 -33.4250
v -26.4250 0.0000 -29.5750
v -26.4250 0.0000 -33.4250
v -26.4250 4.0000 -33.4250
v -26.4250 4.0000 -29.5750
v -33.4250 0.0000 -29.9250
v -33.4250 0.0000 -26.0750
v -29.5750 0.0000 -26.0750
v -29.5750 0.0000 -29.9250
v -33.4250 4.0000 -29.9250
v -29.5750 4.0000 -29.9250
v -29.5750 4.0000 -26.0750
v -33.4250 4.0000 -26.0750
v -33.4250 0.0000 -29.9250
v -29.5750 0.0000 -29.9250
v -29.5750 4.0000 -29.9250
v -33.4250 4.0000 -29.9250
v -29.5750 0.0000 -26.0750
v -33.4250 0.0000 -26.0750
v -33.4250 4.0000 -26.0750
v -29.5750 4.0000 -26.0750
v -29.5750 0.0000 -29.9250
v -29.5750 0.0000 -26.0750
v -29.5750 4.0000 -26.0750
v -29.5750 4.0000 -29.9250
v -33.4250 0.0000 -26.0750
v -33.4250 0.0000 -29.9250
v -33.4250 4.0000 -29.9250
v -33.4250 4.0000 -26.0750
v -26.4250 0.0000 -29.9250
v -26.4250 0.0000 -26.0750
v -22.5750 0.0000 -26.0750
v -22.5750 0.0000 -29.9250
v -26.4250 4.0000 -29.9250
v -22.5750 4.0000 -29.9250
v -22.5750 4.0000 -26.0750
v -26.4250 4.0000 -26.0750
v -26.4250 0.0000 -29.9250
v -22.5750 0.0000 -29.9250
v -22.5750 4.0000 -29.9250
v -26.4250 4.0000 -29.9250
v -22.5750 0.0000 -26.0750
v -26.4250 0.0000 -26.0750
v -26.4250 4.0000 -26.0750
v -22.5750 4.0000 -26.0750
v -22.5750 0.0000 -29.9250
v -22.5750 0.0000 -26.0750
v -22.5750 4.0000 -26.0750
v -22.5750 4.0000 -29.9250
v -26.4250 0.0000 -26.0750
v -26.4250 0.0000 -29.9250
v -26.4250 4.0000 -29.9250
v -26.4250 4.0000 -26.0750
v -54.4250 0.0000 -26.4250
v -54.4250 0.0000 -22.5750
v -50.5750 0.0000 -22.5750
v -50.5750 0.0000 -26.4250
v -54.4250 4.0000 -26.4250
v -50.5750 4.0000 -26.4250
v -50.5750 4.0000 -22.5750
v -54.4250 4.0000 -22.5750
v -54.4250 0.0000 -26.4250
v -50.5750 0.0000 -26.4250
v -50.5750 4.0000 -26.4250
v -54.4250 4.0000 -26.4250
v -50.5750 0.0000 -22.5750
v -54.4250 0.0000 -22.5750
v -54.4250 4.0000 -22.5750
v -50.5750 4.0000 -22.5750
v -50.5750 0.0000 -26.4250
v -50.5750 0.0000 -22.5750
v -50.5750 4.0000 -22.5750
v -50.5750 4.0000 -26.4250
v -54.4250 0.0000 -22.5750
v -54.4250 0.0000 -26.4250
v -54.4250 4.0000 -26.4250
v -54.4250 4.0000 -22.5750
v -47.4250 0.0000 -26.4250
v -47.4250 0.0000 -22.5750
v -43.5750 0.0000 -22.5750
v -43.5750 0.0000 -26.4250
v -47.4250 4.0000 -26.4250
v -43.5750 4.0000 -26.4250
v -43.5750 4.0000 -22.5750
v -47.4250 4.0000 -22.5750
v -47.4250 0.0000 -26.4250
v -43.5750 0.0000 -26.4250
v -43.5750 4.0000 -26.4250
v -47.4250 4.0000 -26.4250
v -43.5750 0.0000 -22.5750
v -47.4250 0.0000 -22.5750
v -47.4250 4.0000 -22.5750
v -43.5750 4.0000 -22.5750
v -43.5750 0.0000 -26.4250
v -43.5750 0.0000 -22.5750
v -43.5750 4.0000 -22.5750
v -43.5750 4.0000 -26.4250
v -47.4250 0.0000 -22.5750
v -47.4250 0.0000 -26.4250
v -47.4250 4.0000 -26.4250
v -47.4250 4.0000 -22.5750
v -40.4250 0.0000 -26.4250
v -40.4250 0.0000 -22.5750
v -36.5750 0.0000 -22.5750
v -36.5750 0.0000 -26.4250
v -40.4250 4.0000 -26.4250
v -36.5750 4.0000 -26.4250
v -36.5750 4.0000 -22.5750
v -40.4250 4.0000 -22.5750
v -40.4250 0.0000 -26.4250
v -36.5750 0.0000 -26.4250
v -36.5750 4.0000 -26.4250
v -40.4250 4.0000 -26.4250
v -36.5750 0.0000 -22.5750
v -40.4250 0.0000 -22.5750
v -40.4250 4.0000 -22.5750
v -36.5750 4.0000 -22.5750
v -36.5750 0.0000 -26.4250
v -36.5750 0.0000 -22.5750
v -36.5750 4.0000 -22.5750
v -36.5750 4.0000 -26.4250
v -40.4250 0.0000 -22.5750
v -40.4250 0.0000 -26.4250
v -40.4250 4.0000 -26.4250
v -40.4250 4.0000 -22.5750
v -36.9250 0.0000 -26.4250
v -36.9250 0.0000 -22.5750
v -33.0750 0.0000 -22.5750
v -33.0750 0.0000 -26.4250
v -36.9250 4.0000 -26.4250
v -33.0750 4.0000 -26.4250
v -33.0750 4.0000 -22.5750
v -36.9250 4.0000 -22.5750
v -36.9250 0.0000 -26.4250
v -33.0750 0.0000 -26.4250
v -33.0750 4.0000 -26.4250
v -36.9250 4.0000 -26.4250
v -33.0750 0.0000 -22.5750
v -36.9250 0.0000 -22.5750
v -36.9250 4.0000 -22.5750
v -33.0750 4.0000 -22.5750
v -33.0750 0.0000 -26.4250
v -33.0750 0.0000 -22.5750
v -33.0750 4.0000 -22.5750
v -33.0750 4.0000 -26.4250
v -36.9250 0.0000 -22.5750
v -36.9250 0.0000 -26.4250
v -36.9250 4.0000 -26.4250
v -36.9250 4.0000 -22.5750
v -33.4250 0.0000 -26.4250
v -33.4250 0.0000 -22.5750
v -29.5750 0.0000 -22.5750
v -29.5750 0.0000 -26.4250
v -33.4250 4.0000 -26.4250
v -29.5750 4.0000 -26.4250
v -29.5750 4.0000 -22.5750
v -33.4250 4.0000 -22.5750
v -33.4250 0.0000 -26.4250
v -29.5750 0.0000 -26.4250
v -29.5750 4.0000 -26.4250
v -33.4250 4.0000 -26.4250
v -29.5750 0.0000 -22.5750
v -33.4250 0.0000 -22.5750
v -33.4250 4.0000 -22.5750
v -29.5750 4.0000 -22.5750
v -29.5750 0.0000 -26.4250
v -29.5750 0.0000 -22.5750
v -29.5750 4.0000 -22.5750
v -29.5750 4.0000 -26.4250
v -33.4250 0.0000 -22.5750
v -33.4250 0.0000 -26.4250
v -33.4250 4.0000 -26.4250
v -33.4250 4.0000 -22.5750
v -26.4250 0.0000 -26.4250
v -26.4250 0.0000 -22.5750
v -22.5750 0.0000 -22.5750
v -22.5750 0.0000 -26.4250
v -26.4250 4.0000 -26.4250
v -22.5750 4.0000 -26.4250
v -22.5750 4.0000 -22.5750
v -26.4250 4.0000 -22.5750
v -26.4250 0.0000 -26.4250
v -22.5750 0.0000 -26.4250
v -22.5750 4.0000 -26.4250
v -26.4250 4.0000 -26.4250
v -22.5750 0.0000 -22.5750
v -26.4250 0.0000 -22.5750
v -26.4250 4.0000 -22.5750
v -22.5750 4.0000 -22.5750
v -22.5750 0.0000 -26.4250
v -22.5750 0.0000 -22.5750
v -22.5750 4.0000 -22.5750
v -22.5750 4.0000 -26.4250
v -26.4250 0.0000 -22.5750
v -26.4250 0.0000 -26.4250
v -26.4250 4.0000 -26.4250
v -26.4250 4.0000 -22.5750
v -54.4250 0.0000 -22.9250
v -54.4250 0.0000 -19.0750
v -50.5750 0.0000 -19.0750
v -50.5750 0.0000 -22.9250
v -54.4250 4.0000 -22.9250
v -50.5750 4.0000 -22.9250
v -50.5750 4.0000 -19.0750
v -54.4250 4.0000 -19.0750
v -54.4250 0.0000 -22.9250
v -50.5750 0.0000 -22.9250
v -50.5750 4.0000 -22.9250
v -54.4250 4.0000 -22.9250
v -50.5750 0.0000 -19.0750
v -54.4250 0.0000 -19.0750
v -54.4250 4.0000 -19.0750
v -50.5750 4.0000 -19.0750
v -50.5750 0.0000 -22.9250
v -50.5750 0.0000 -19.0750
v -50.5750 4.0000 -19.0750
v -50.5750 4.0000 -22.9250
v -54.4250 0.0000 -19.0750
v -54.4250 0.0000 -22.9250
v -54.4250 4.0000 -22.9250
v -54.4250 4.0000 -19.0750
v -56.8000 3.8300 -49.1750
v -55.2000 3.8300 -49.1750
v -55.2000 3.8300 -48.8250
v -56.8000 3.8300 -48.8250
v -56.8000 3.9300 -49.1750
v -55.2000 3.9300 -49.1750
v -55.2000 3.9300 -48.8250
v -56.8000 3.9300 -48.8250
v -56.9500 3.9100 -49.3000
v -56.9500 3.9100 -48.7000
v -55.0500 3.9100 -48.7000
v -55.0500 3.9100 -49.3000
v -56.9500 3.9900 -49.3000
v -55.0500 3.9900 -49.3000
v -55.0500 3.9900 -48.7000
v -56.9500 3.9900 -48.7000
v -56.9500 3.9100 -49.3000
v -55.0500 3.9100 -49.3000
v -55.0500 3.9900 -49.3000
v -56.9500 3.9900 -49.3000
v -55.0500 3.9100 -48.7000
v -56.9500 3.9100 -48.7000
v -56.9500 3.9900 -48.7000
v -55.0500 3.9900 -48.7000
v -55.0500 3.9100 -49.3000
v -55.0500 3.9100 -48.7000
v -55.0500 3.9900 -48.7000
v -55.0500 3.9900 -49.3000
v -56.9500 3.9100 -48.7000
v -56.9500 3.9100 -49.3000
v -56.9500 3.9900 -49.3000
v -56.9500 3.9900 -48.7000
v -35.8000 3.8300 -49.1750
v -34.2000 3.8300 -49.1750
v -34.2000 3.8300 -48.8250
v -35.8000 3.8300 -48.8250
v -35.8000 3.9300 -49.1750
v -34.2000 3.9300 -49.1750
v -34.2000 3.9300 -48.8250
v -35.8000 3.9300 -48.8250
v -35.9500 3.9100 -49.3000
v -35.9500 3.9100 -48.7000
v -34.0500 3.9100 -48.7000
v -34.0500 3.9100 -49.3000
v -35.9500 3.9900 -49.3000
v -34.0500 3.9900 -49.3000
v -34.0500 3.9900 -48.7000
v -35.9500 3.9900 -48.7000
v -35.9500 3.9100 -49.3000
v -34.0500 3.9100 -49.3000
v -34.0500 3.9900 -49.3000
v -35.9500 3.9900 -49.3000
v -34.0500 3.9100 -48.7000
v -35.9500 3.9100 -48.7000
v -35.9500 3.9900 -48.7000
v -34.0500 3.9900 -48.7000
v -34.0500 3.9100 -49.3000
v -34.0500 3.9100 -48.7000
v -34.0500 3.9900 -48.7000
v -34.0500 3.9900 -49.3000
v -35.9500 3.9100 -48.7000
v -35.9500 3.9100 -49.3000
v -35.9500 3.9900 -49.3000
v -35.9500 3.9900 -48.7000
v -28.8000 3.8300 -49.1750
v -27.2000 3.8300 -49.1750
v -27.2000 3.8300 -48.8250
v -28.8000 3.8300 -48.8250
v -28.8000 3.9300 -49.1750
v -27.2000 3.9300 -49.1750
v -27.2000 3.9300 -48.8250
v -28.8000 3.9300 -48.8250
v -28.9500 3.9100 -49.3000
v -28.9500 3.9100 -48.7000
v -27.0500 3.9100 -48.7000
v -27.0500 3.9100 -49.3000
v -28.9500 3.9900 -49.3000
v -27.0500 3.9900 -49.3000
v -27.0500 3.9900 -48.7000
v -28.9500 3.9900 -48.7000
v -28.9500 3.9100 -49.3000
v -27.0500 3.9100 -49.3000
v -27.0500 3.9900 -49.3000
v -28.9500 3.9900 -49.3000
v -27.0500 3.9100 -48.7000
v -28.9500 3.9100 -48.7000
v -28.9500 3.9900 -48.7000
v -27.0500 3.9900 -48.7000
v -27.0500 3.9100 -49.3000
v -27.0500 3.9100 -48.7000
v -27.0500 3.9900 -48.7000
v -27.0500 3.9900 -49.3000
v -28.9500 3.9100 -48.7000
v -28.9500 3.9100 -49.3000
v -28.9500 3.9900 -49.3000
v -28.9500 3.9900 -48.7000
v -21.8000 3.8300 -49.1750
v -20.2000 3.8300 -49.1750
v -20.2000 3.8300 -48.8250
v -21.8000 3.8300 -48.8250
v -21.8000 3.9300 -49.1750
v -20.2000 3.9300 -49.1750
v -20.2000 3.9300 -48.8250
v -21.8000 3.9300 -48.8250
v -21.9500 3.9100 -49.3000
v -21.9500 3.9100 -48.7000
v -20.0500 3.9100 -48.7000
v -20.0500 3.9100 -49.3000
v -21.9500 3.9900 -49.3000
v -20.0500 3.9900 -49.3000
v -20.0500 3.9900 -48.7000
v -21.9500 3.9900 -48.7000
v -21.9500 3.9100 -49.3000
v -20.0500 3.9100 -49.3000
v -20.0500 3.9900 -49.3000
v -21.9500 3.9900 -49.3000
v -20.0500 3.9100 -48.7000
v -21.9500 3.9100 -48.7000
v -21.9500 3.9900 -48.7000
v -20.0500 3.9900 -48.7000
v -20.0500 3.9100 -49.3000
v -20.0500 3.9100 -48.7000
v -20.0500 3.9900 -48.7000
v -20.0500 3.9900 -49.3000
v -21.9500 3.9100 -48.7000
v -21.9500 3.9100 -49.3000
v -21.9500 3.9900 -49.3000
v -21.9500 3.9900 -48.7000
v -56.8000 3.8300 -42.1750
v -55.2000 3.8300 -42.1750
v -55.2000 3.8300 -41.8250
v -56.8000 3.8300 -41.8250
v -56.8000 3.9300 -42.1750
v -55.2000 3.9300 -42.1750
v -55.2000 3.9300 -41.8250
v -56.8000 3.9300 -41.8250
v -56.9500 3.9100 -42.3000
v -56.9500 3.9100 -41.7000
v -55.0500 3.9100 -41.7000
v -55.0500 3.9100 -42.3000
v -56.9500 3.9900 -42.3000
v -55.0500 3.9900 -42.3000
v -55.0500 3.9900 -41.7000
v -56.9500 3.9900 -41.7000
v -56.9500 3.9100 -42.3000
v -55.0500 3.9100 -42.3000
v -55.0500 3.9900 -42.3000
v -56.9500 3.9900 -42.3000
v -55.0500 3.9100 -41.7000
v -56.9500 3.9100 -41.7000
v -56.9500 3.9900 -41.7000
v -55.0500 3.9900 -41.7000
v -55.0500 3.9100 -42.3000
v -55.0500 3.9100 -41.7000
v -55.0500 3.9900 -41.7000
v -55.0500 3.9900 -42.3000
v -56.9500 3.9100 -41.7000
v -56.9500 3.9100 -42.3000
v -56.9500 3.9900 -42.3000
v -56.9500 3.9900 -41.7000
v -49.8000 3.8300 -42.1750
v -48.2000 3.8300 -42.1750
v -48.2000 3.8300 -41.8250
v -49.8000 3.8300 -41.8250
v -49.8000 3.9300 -42.1750
v -48.2000 3.9300 -42.1750
v -48.2000 3.9300 -41.8250
v -49.8000 3.9300 -41.8250
v -49.9500 3.9100 -42.3000
v -49.9500 3.9100 -41.7000
v -48.0500 3.9100 -41.7000
v -48.0500 3.9100 -42.3000
v -49.9500 3.9900 -42.3000
v -48.0500 3.9900 -42.3000
v -48.0500 3.9900 -41.7000
v -49.9500 3.9900 -41.7000
v -49.9500 3.9100 -42.3000
v -48.0500 3.9100 -42.3000
v -48.0500 3.9900 -42.3000
v -49.9500 3.9900 -42.3000
v -48.0500 3.9100 -41.7000
v -49.9500 3.9100 -41.7000
v -49.9500 3.9900 -41.7000
v -48.0500 3.9900 -41.7000
v -48.0500 3.9100 -42.3000
v -48.0500 3.9100 -41.7000
v -48.0500 3.9900 -41.7000
v -48.0500 3.9900 -42.3000
v -49.9500 3.9100 -41.7000
v -49.9500 3.9100 -42.3000
v -49.9500 3.9900 -42.3000
v -49.9500 3.9900 -41.7000
v -56.8000 3.8300 -35.1750
v -55.2000 3.8300 -35.1750
v -55.2000 3.8300 -34.8250
v -56.8000 3.8300 -34.8250
v -56.8000 3.9300 -35.1750
v -55.2000 3.9300 -35.1750
v -55.2000 3.9300 -34.8250
v -56.8000 3.9300 -34.8250
v -56.9500 3.9100 -35.3000
v -56.9500 3.9100 -34.7000
v -55.0500 3.9100 -34.7000
v -55.0500 3.9100 -35.3000
v -56.9500 3.9900 -35.3000
v -55.0500 3.9900 -35.3000
v -55.0500 3.9900 -34.7000
v -56.9500 3.9900 -34.7000
v -56.9500 3.9100 -35.3000
v -55.0500 3.9100 -35.3000
v -55.0500 3.9900 -35.3000
v -56.9500 3.9900 -35.3000
v -55.0500 3.9100 -34.7000
v -56.9500 3.9100 -34.7000
v -56.9500 3.9900 -34.7000
v -55.0500 3.9900 -34.7000
v -55.0500 3.9100 -35.3000
v -55.0500 3.9100 -34.7000
v -55.0500 3.9900 -34.7000
v -55.0500 3.9900 -35.3000
v -56.9500 3.9100 -34.7000
v -56.9500 3.9100 -35.3000
v -56.9500 3.9900 -35.3000
v -56.9500 3.9900 -34.7000
v -49.8000 3.8300 -35.1750
v -48.2000 3.8300 -35.1750
v -48.2000 3.8300 -34.8250
v -49.8000 3.8300 -34.8250
v -49.8000 3.9300 -35.1750
v -48.2000 3.9300 -35.1750
v -48.2000 3.9300 -34.8250
v -49.8000 3.9300 -34.8250
v -49.9500 3.9100 -35.3000
v -49.9500 3.9100 -34.7000
v -48.0500 3.9100 -34.7000
v -48.0500 3.9100 -35.3000
v -49.9500 3.9900 -35.3000
v -48.0500 3.9900 -35.3000
v -48.0500 3.9900 -34.7000
v -49.9500 3.9900 -34.7000
v -49.9500 3.9100 -35.3000
v -48.0500 3.9100 -35.3000
v -48.0500 3.9900 -35.3000
v -49.9500 3.9900 -35.3000
v -48.0500 3.9100 -34.7000
v -49.9500 3.9100 -34.7000
v -49.9500 3.9900 -34.7000
v -48.0500 3.9900 -34.7000
v -48.0500 3.9100 -35.3000
v -48.0500 3.9100 -34.7000
v -48.0500 3.9900 -34.7000
v -48.0500 3.9900 -35.3000
v -49.9500 3.9100 -34.7000
v -49.9500 3.9100 -35.3000
v -49.9500 3.9900 -35.3000
v -49.9500 3.9900 -34.7000
v -28.8000 3.8300 -35.1750
v -27.2000 3.8300 -35.1750
v -27.2000 3.8300 -34.8250
v -28.8000 3.8300 -34.8250
v -28.8000 3.9300 -35.1750
v -27.2000 3.9300 -35.1750
v -27.2000 3.9300 -34.8250
v -28.8000 3.9300 -34.8250
v -28.9500 3.9100 -35.3000
v -28.9500 3.9100 -34.7000
v -27.0500 3.9100 -34.7000
v -27.0500 3.9100 -35.3000
v -28.9500 3.9900 -35.3000
v -27.0500 3.9900 -35.3000
v -27.0500 3.9900 -34.7000
v -28.9500 3.9900 -34.7000
v -28.9500 3.9100 -35.3000
v -27.0500 3.9100 -35.3000
v -27.0500 3.9900 -35.3000
v -28.9500 3.9900 -35.3000
v -27.0500 3.9100 -34.7000
v -28.9500 3.9100 -34.7000
v -28.9500 3.9900 -34.7000
v -27.0500 3.9900 -34.7000
v -27.0500 3.9100 -35.3000
v -27.0500 3.9100 -34.7000
v -27.0500 3.9900 -34.7000
v -27.0500 3.9900 -35.3000
v -28.9500 3.9100 -34.7000
v -28.9500 3.9100 -35.3000
v -28.9500 3.9900 -35.3000
v -28.9500 3.9900 -34.7000
v -21.8000 3.8300 -35.1750
v -20.2000 3.8300 -35.1750
v -20.2000 3.8300 -34.8250
v -21.8000 3.8300 -34.8250
v -21.8000 3.9300 -35.1750
v -20.2000 3.9300 -35.1750
v -20.2000 3.9300 -34.8250
v -21.8000 3.9300 -34.8250
v -21.9500 3.9100 -35.3000
v -21.9500 3.9100 -34.7000
v -20.0500 3.9100 -34.7000
v -20.0500 3.9100 -35.3000
v -21.9500 3.9900 -35.3000
v -20.0500 3.9900 -35.3000
v -20.0500 3.9900 -34.7000
v -21.9500 3.9900 -34.7000
v -21.9500 3.9100 -35.3000
v -20.0500 3.9100 -35.3000
v -20.0500 3.9900 -35.3000
v -21.9500 3.9900 -35.3000
v -20.0500 3.9100 -34.7000
v -21.9500 3.9100 -34.7000
v -21.9500 3.9900 -34.7000
v -20.0500 3.9900 -34.7000
v -20.0500 3.9100 -35.3000
v -20.0500 3.9100 -34.7000
v -20.0500 3.9900 -34.7000
v -20.0500 3.9900 -35.3000
v -21.9500 3.9100 -34.7000
v -21.9500 3.9100 -35.3000
v -21.9500 3.9900 -35.3000
v -21.9500 3.9900 -34.7000
v -42.8000 3.8300 -28.1750
v -41.2000 3.8300 -28.1750
v -41.2000 3.8300 -27.8250
v -42.8000 3.8300 -27.8250
v -42.8000 3.9300 -28.1750
v -41.2000 3.9300 -28.1750
v -41.2000 3.9300 -27.8250
v -42.8000 3.9300 -27.8250
v -42.9500 3.9100 -28.3000
v -42.9500 3.9100 -27.7000
v -41.0500 3.9100 -27.7000
v -41.0500 3.9100 -28.3000
v -42.9500 3.9900 -28.3000
v -41.0500 3.9900 -28.3000
v -41.0500 3.9900 -27.7000
v -42.9500 3.9900 -27.7000
v -42.9500 3.9100 -28.3000
v -41.0500 3.9100 -28.3000
v -41.0500 3.9900 -28.3000
v -42.9500 3.9900 -28.3000
v -41.0500 3.9100 -27.7000
v -42.9500 3.9100 -27.7000
v -42.9500 3.9900 -27.7000
v -41.0500 3.9900 -27.7000
v -41.0500 3.9100 -28.3000
v -41.0500 3.9100 -27.7000
v -41.0500 3.9900 -27.7000
v -41.0500 3.9900 -28.3000
v -42.9500 3.9100 -27.7000
v -42.9500 3.9100 -28.3000
v -42.9500 3.9900 -28.3000
v -42.9500 3.9900 -27.7000
v -28.8000 3.8300 -28.1750
v -27.2000 3.8300 -28.1750
v -27.2000 3.8300 -27.8250
v -28.8000 3.8300 -27.8250
v -28.8000 3.9300 -28.1750
v -27.2000 3.9300 -28.1750
v -27.2000 3.9300 -27.8250
v -28.8000 3.9300 -27.8250
v -28.9500 3.9100 -28.3000
v -28.9500 3.9100 -27.7000
v -27.0500 3.9100 -27.7000
v -27.0500 3.9100 -28.3000
v -28.9500 3.9900 -28.3000
v -27.0500 3.9900 -28.3000
v -27.0500 3.9900 -27.7000
v -28.9500 3.9900 -27.7000
v -28.9500 3.9100 -28.3000
v -27.0500 3.9100 -28.3000
v -27.0500 3.9900 -28.3000
v -28.9500 3.9900 -28.3000
v -27.0500 3.9100 -27.7000
v -28.9500 3.9100 -27.7000
v -28.9500 3.9900 -27.7000
v -27.0500 3.9900 -27.7000
v -27.0500 3.9100 -28.3000
v -27.0500 3.9100 -27.7000
v -27.0500 3.9900 -27.7000
v -27.0500 3.9900 -28.3000
v -28.9500 3.9100 -27.7000
v -28.9500 3.9100 -28.3000
v -28.9500 3.9900 -28.3000
v -28.9500 3.9900 -27.7000
v -56.8000 3.8300 -21.1750
v -55.2000 3.8300 -21.1750
v -55.2000 3.8300 -20.8250
v -56.8000 3.8300 -20.8250
v -56.8000 3.9300 -21.1750
v -55.2000 3.9300 -21.1750
v -55.2000 3.9300 -20.8250
v -56.8000 3.9300 -20.8250
v -56.9500 3.9100 -21.3000
v -56.9500 3.9100 -20.7000
v -55.0500 3.9100 -20.7000
v -55.0500 3.9100 -21.3000
v -56.9500 3.9900 -21.3000
v -55.0500 3.9900 -21.3000
v -55.0500 3.9900 -20.7000
v -56.9500 3.9900 -20.7000
v -56.9500 3.9100 -21.3000
v -55.0500 3.9100 -21.3000
v -55.0500 3.9900 -21.3000
v -56.9500 3.9900 -21.3000
v -55.0500 3.9100 -20.7000
v -56.9500 3.9100 -20.7000
v -56.9500 3.9900 -20.7000
v -55.0500 3.9900 -20.7000
v -55.0500 3.9100 -21.3000
v -55.0500 3.9100 -20.7000
v -55.0500 3.9900 -20.7000
v -55.0500 3.9900 -21.3000
v -56.9500 3.9100 -20.7000
v -56.9500 3.9100 -21.3000
v -56.9500 3.9900 -21.3000
v -56.9500 3.9900 -20.7000
v -42.8000 3.8300 -21.1750
v -41.2000 3.8300 -21.1750
v -41.2000 3.8300 -20.8250
v -42.8000 3.8300 -20.8250
v -42.8000 3.9300 -21.1750
v -41.2000 3.9300 -21.1750
v -41.2000 3.9300 -20.8250
v -42.8000 3.9300 -20.8250
v -42.9500 3.9100 -21.3000
v -42.9500 3.9100 -20.7000
v -41.0500 3.9100 -20.7000
v -41.0500 3.9100 -21.3000
v -42.9500 3.9900 -21.3000
v -41.0500 3.9900 -21.3000
v -41.0500 3.9900 -20.7000
v -42.9500 3.9900 -20.7000
v -42.9500 3.9100 -21.3000
v -41.0500 3.9100 -21.3000
v -41.0500 3.9900 -21.3000
v -42.9500 3.9900 -21.3000
v -41.0500 3.9100 -20.7000
v -42.9500 3.9100 -20.7000
v -42.9500 3.9900 -20.7000
v -41.0500 3.9900 -20.7000
v -41.0500 3.9100 -21.3000
v -41.0500 3.9100 -20.7000
v -41.0500 3.9900 -20.7000
v -41.0500 3.9900 -21.3000
v -42.9500 3.9100 -20.7000
v -42.9500 3.9100 -21.3000
v -42.9500 3.9900 -21.3000
v -42.9500 3.9900 -20.7000
v -28.8000 3.8300 -21.1750
v -27.2000 3.8300 -21.1750
v -27.2000 3.8300 -20.8250
v -28.8000 3.8300 -20.8250
v -28.8000 3.9300 -21.1750
v -27.2000 3.9300 -21.1750
v -27.2000 3.9300 -20.8250
v -28.8000 3.9300 -20.8250
v -28.9500 3.9100 -21.3000
v -28.9500 3.9100 -20.7000
v -27.0500 3.9100 -20.7000
v -27.0500 3.9100 -21.3000
v -28.9500 3.9900 -21.3000
v -27.0500 3.9900 -21.3000
v -27.0500 3.9900 -20.7000
v -28.9500 3.9900 -20.7000
v -28.9500 3.9100 -21.3000
v -27.0500 3.9100 -21.3000
v -27.0500 3.9900 -21.3000
v -28.9500 3.9900 -21.3000
v -27.0500 3.9100 -20.7000
v -28.9500 3.9100 -20.7000
v -28.9500 3.9900 -20.7000
v -27.0500 3.9900 -20.7000
v -27.0500 3.9100 -21.3000
v -27.0500 3.9100 -20.7000
v -27.0500 3.9900 -20.7000
v -27.0500 3.9900 -21.3000
v -28.9500 3.9100 -20.7000
v -28.9500 3.9100 -21.3000
v -28.9500 3.9900 -21.3000
v -28.9500 3.9900 -20.7000
v -21.8000 3.8300 -21.1750
v -20.2000 3.8300 -21.1750
v -20.2000 3.8300 -20.8250
v -21.8000 3.8300 -20.8250
v -21.8000 3.9300 -21.1750
v -20.2000 3.9300 -21.1750
v -20.2000 3.9300 -20.8250
v -21.8000 3.9300 -20.8250
v -21.9500 3.9100 -21.3000
v -21.9500 3.9100 -20.7000
v -20.0500 3.9100 -20.7000
v -20.0500 3.9100 -21.3000
v -21.9500 3.9900 -21.3000
v -20.0500 3.9900 -21.3000
v -20.0500 3.9900 -20.7000
v -21.9500 3.9900 -20.7000
v -21.9500 3.9100 -21.3000
v -20.0500 3.9100 -21.3000
v -20.0500 3.9900 -21.3000
v -21.9500 3.9900 -21.3000
v -20.0500 3.9100 -20.7000
v -21.9500 3.9100 -20.7000
v -21.9500 3.9900 -20.7000
v -20.0500 3.9900 -20.7000
v -20.0500 3.9100 -21.3000
v -20.0500 3.9100 -20.7000
v -20.0500 3.9900 -20.7000
v -20.0500 3.9900 -21.3000
v -21.9500 3.9100 -20.7000
v -21.9500 3.9100 -21.3000
v -21.9500 3.9900 -21.3000
v -21.9500 3.9900 -20.7000
vt -21.7700 -21.7700
vt -21.7700 -20.2300
vt -20.2300 -20.2300
vt -20.2300 -21.7700
vt -21.7700 -21.7700
vt -20.2300 -21.7700
vt -20.2300 -20.2300
vt -21.7700 -20.2300
vt -21.7700 0.0000
vt -20.2300 0.0000
vt -20.2300 1.6000
vt -21.7700 1.6000
vt -20.2300 0.0000
vt -21.7700 0.0000
vt -21.7700 1.6000
vt -20.2300 1.6000
vt -21.7700 0.0000
vt -20.2300 0.0000
vt -20.2300 1.6000
vt -21.7700 1.6000
vt -20.2300 0.0000
vt -21.7700 0.0000
vt -21.7700 1.6000
vt -20.2300 1.6000
vt -18.9700 -21.7700
vt -18.9700 -20.2300
vt -17.4300 -20.2300
vt -17.4300 -21.7700
vt -18.9700 -21.7700
vt -17.4300 -21.7700
vt -17.4300 -20.2300
vt -18.9700 -20.2300
vt -18.9700 0.0000
vt -17.4300 0.0000
vt -17.4300 1.6000
vt -18.9700 1.6000
vt -17.4300 0.0000
vt -18.9700 0.0000
vt -18.9700 1.6000
vt -17.4300 1.6000
vt -21.7700 0.0000
vt -20.2300 0.0000
vt -20.2300 1.6000
vt -21.7700 1.6000
vt -20.2300 0.0000
vt -21.7700 0.0000
vt -21.7700 1.6000
vt -20.2300 1.6000
vt -16.1700 -21.7700
vt -16.1700 -20.2300
vt -14.6300 -20.2300
vt -14.6300 -21.7700
vt -16.1700 -21.7700
vt -14.6300 -21.7700
vt -14.6300 -20.2300
vt -16.1700 -20.2300
vt -16.1700 0.0000
vt -14.6300 0.0000
vt -14.6300 1.6000
vt -16.1700 1.6000
vt -14.6300 0.0000
vt -16.1700 0.0000
vt -16.1700 1.6000
vt -14.6300 1.6000
vt -21.7700 0.0000
vt -20.2300 0.0000
vt -20.2300 1.6000
vt -21.7700 1.6000
vt -20.2300 0.0000
vt -21.7700 0.0000
vt -21.7700 1.6000
vt -20.2300 1.6000
vt -13.3700 -21.7700
vt -13.3700 -20.2300
vt -11.8300 -20.2300
vt -11.8300 -21.7700
vt -13.3700 -21.7700
vt -11.8300 -21.7700
vt -11.8300 -20.2300
vt -13.3700 -20.2300
vt -13.3700 0.0000
vt -11.8300 0.0000
vt -11.8300 1.6000
vt -13.3700 1.6000
vt -11.8300 0.0000
vt -13.3700 0.0000
vt -13.3700 1.6000
vt -11.8300 1.6000
vt -21.7700 0.0000
vt -20.2300 0.0000
vt -20.2300 1.6000
vt -21.7700 1.6000
vt -20.2300 0.0000
vt -21.7700 0.0000
vt -21.7700 1.6000
vt -20.2300 1.6000
vt -10.5700 -21.7700
vt -10.5700 -20.2300
vt -9.0300 -20.2300
vt -9.0300 -21.7700
vt -10.5700 -21.7700
vt -9.0300 -21.7700
vt -9.0300 -20.2300
vt -10.5700 -20.2300
vt -10.5700 0.0000
vt -9.0300 0.0000
vt -9.0300 1.6000
vt -10.5700 1.6000
vt -9.0300 0.0000
vt -10.5700 0.0000
vt -10.5700 1.6000
vt -9.0300 1.6000
vt -21.7700 0.0000
vt -20.2300 0.0000
vt -20.2300 1.6000
vt -21.7700 1.6000
vt -20.2300 0.0000
vt -21.7700 0.0000
vt -21.7700 1.6000
vt -20.2300 1.6000
vt -9.1700 -21.7700
vt -9.1700 -20.2300
vt -7.6300 -20.2300
vt -7.6300 -21.7700
vt -9.1700 -21.7700
vt -7.6300 -21.7700
vt -7.6300 -20.2300
vt -9.1700 -20.2300
vt -9.1700 0.0000
vt -7.6300 0.0000
vt -7.6300 1.6000
vt -9.1700 1.6000
vt -7.6300 0.0000
vt -9.1700 0.0000
vt -9.1700 1.6000
vt -7.6300 1.6000
vt -21.7700 0.0000
vt -20.2300 0.0000
vt -20.2300 1.6000
vt -21.7700 1.6000
vt -20.2300 0.0000
vt -21.7700 0.0000
vt -21.7700 1.6000
vt -20.2300 1.6000
vt -21.7700 -20.3700
vt -21.7700 -18.8300
vt -20.2300 -18.8300
vt -20.2300 -20.3700
vt -21.7700 -20.3700
vt -20.2300 -20.3700
vt -20.2300 -18.8300
vt -21.7700 -18.8300
vt -21.7700 0.0000
vt -20.2300 0.0000
vt -20.2300 1.6000
vt -21.7700 1.6000
vt -20.2300 0.0000
vt -21.7700 0.0000
vt -21.7700 1.6000
vt -20.2300 1.6000
vt -20.3700 0.0000
vt -18.8300 0.0000
vt -18.8300 1.6000
vt -20.3700 1.6000
vt -18.8300 0.0000
vt -20.3700 0.0000
vt -20.3700 1.6000
vt -18.8300 1.6000
vt -16.1700 -20.3700
vt -16.1700 -18.8300
vt -14.6300 -18.8300
vt -14.6300 -20.3700
vt -16.1700 -20.3700
vt -14.6300 -20.3700
vt -14.6300 -18.8300
vt -16.1700 -18.8300
vt -16.1700 0.0000
vt -14.6300 0.0000
vt -14.6300 1.6000
vt -16.1700 1.6000
vt -14.6300 0.0000
vt -16.1700 0.0000
vt -16.1700 1.6000
vt -14.6300 1.6000
vt -20.3700 0.0000
vt -18.8300 0.0000
vt -18.8300 1.6000
vt -20.3700 1.6000
vt -18.8300 0.0000
vt -20.3700 0.0000
vt -20.3700 1.6000
vt -18.8300 1.6000
vt -21.7700 -18.9700
vt -21.7700 -17.4300
vt -20.2300 -17.4300
vt -20.2300 -18.9700
vt -21.7700 -18.9700
vt -20.2300 -18.9700
vt -20.2300 -17.4300
vt -21.7700 -17.4300
vt -21.7700 0.0000
vt -20.2300 0.0000
vt -20.2300 1.6000
vt -21.7700 1.6000
vt -20.2300 0.0000
vt -21.7700 0.0000
vt -21.7700 1.6000
vt -20.2300 1.6000
vt -18.9700 0.0000
vt -17.4300 0.0000
vt -17.4300 1.6000
vt -18.9700 1.6000
vt -17.4300 0.0000
vt -18.9700 0.0000
vt -18.9700 1.6000
vt -17.4300 1.6000
vt -18.9700 -18.9700
vt -18.9700 -17.4300
vt -17.4300 -17.4300
vt -17.4300 -18.9700
vt -18.9700 -18.9700
vt -17.4300 -18.9700
vt -17.4300 -17.4300
vt -18.9700 -17.4300
vt -18.9700 0.0000
vt -17.4300 0.0000
vt -17.4300 1.6000
vt -18.9700 1.6000
vt -17.4300 0.0000
vt -18.9700 0.0000
vt -18.9700 1.6000
vt -17.4300 1.6000
vt -18.9700 0.0000
vt -17.4300 0.0000
vt -17.4300 1.6000
vt -18.9700 1.6000
vt -17.4300 0.0000
vt -18.9700 0.0000
vt -18.9700 1.6000
vt -17.4300 1.6000
vt -16.1700 -18.9700
vt -16.1700 -17.4300
vt -14.6300 -17.4300
vt -14.6300 -18.9700
vt -16.1700 -18.9700
vt -14.6300 -18.9700
vt -14.6300 -17.4300
vt -16.1700 -17.4300
vt -16.1700 0.0000
vt -14.6300 0.0000
vt -14.6300 1.6000
vt -16.1700 1.6000
vt -14.6300 0.0000
vt -16.1700 0.0000
vt -16.1700 1.6000
vt -14.6300 1.6000
vt -18.9700 0.0000
vt -17.4300 0.0000
vt -17.4300 1.6000
vt -18.9700 1.6000
vt -17.4300 0.0000
vt -18.9700 0.0000
vt -18.9700 1.6000
vt -17.4300 1.6000
vt -13.3700 -18.9700
vt -13.3700 -17.4300
vt -11.8300 -17.4300
vt -11.8300 -18.9700
vt -13.3700 -18.9700
vt -11.8300 -18.9700
vt -11.8300 -17.4300
vt -13.3700 -17.4300
vt -13.3700 0.0000
vt -11.8300 0.0000
vt -11.8300 1.6000
vt -13.3700 1.6000
vt -11.8300 0.0000
vt -13.3700 0.0000
vt -13.3700 1.6000
vt -11.8300 1.6000
vt -18.9700 0.0000
vt -17.4300 0.0000
vt -17.4300 1.6000
vt -18.9700 1.6000
vt -17.4300 0.0000
vt -18.9700 0.0000
vt -18.9700 1.6000
vt -17.4300 1.6000
vt -10.5700 -18.9700
vt -10.5700 -17.4300
vt -9.0300 -17.4300
vt -9.0300 -18.9700
vt -10.5700 -18.9700
vt -9.0300 -18.9700
vt -9.0300 -17.4300
vt -10.5700 -17.4300
vt -10.5700 0.0000
vt -9.0300 0.0000
vt -9.0300 1.6000
vt -10.5700 1.6000
vt -9.0300 0.0000
vt -10.5700 0.0000
vt -10.5700 1.6000
vt -9.0300 1.6000
vt -18.9700 0.0000
vt -17.4300 0.0000
vt -17.4300 1.6000
vt -18.9700 1.6000
vt -17.4300 0.0000
vt -18.9700 0.0000
vt -18.9700 1.6000
vt -17.4300 1.6000
vt -23.1700 -16.1700
vt -23.1700 -14.6300
vt -21.6300 -14.6300
vt -21.6300 -16.1700
vt -23.1700 -16.1700
vt -21.6300 -16.1700
vt -21.6300 -14.6300
vt -23.1700 -14.6300
vt -23.1700 0.0000
vt -21.6300 0.0000
vt -21.6300 1.6000
vt -23.1700 1.6000
vt -21.6300 0.0000
vt -23.1700 0.0000
vt -23.1700 1.6000
vt -21.6300 1.6000
vt -16.1700 0.0000
vt -14.6300 0.0000
vt -14.6300 1.6000
vt -16.1700 1.6000
vt -14.6300 0.0000
vt -16.1700 0.0000
vt -16.1700 1.6000
vt -14.6300 1.6000
vt -21.7700 -16.1700
vt -21.7700 -14.6300
vt -20.2300 -14.6300
vt -20.2300 -16.1700
vt -21.7700 -16.1700
vt -20.2300 -16.1700
vt -20.2300 -14.6300
vt -21.7700 -14.6300
vt -21.7700 0.0000
vt -20.2300 0.0000
vt -20.2300 1.6000
vt -21.7700 1.6000
vt -20.2300 0.0000
vt -21.7700 0.0000
vt -21.7700 1.6000
vt -20.2300 1.6000
vt -16.1700 0.0000
vt -14.6300 0.0000
vt -14.6300 1.6000
vt -16.1700 1.6000
vt -14.6300 0.0000
vt -16.1700 0.0000
vt -16.1700 1.6000
vt -14.6300 1.6000
vt -18.9700 -16.1700
vt -18.9700 -14.6300
vt -17.4300 -14.6300
vt -17.4300 -16.1700
vt -18.9700 -16.1700
vt -17.4300 -16.1700
vt -17.4300 -14.6300
vt -18.9700 -14.6300
vt -18.9700 0.0000
vt -17.4300 0.0000
vt -17.4300 1.6000
vt -18.9700 1.6000
vt -17.4300 0.0000
vt -18.9700 0.0000
vt -18.9700 1.6000
vt -17.4300 1.6000
vt -16.1700 0.0000
vt -14.6300 0.0000
vt -14.6300 1.6000
vt -16.1700 1.6000
vt -14.6300 0.0000
vt -16.1700 0.0000
vt -16.1700 1.6000
vt -14.6300 1.6000
vt -16.1700 -16.1700
vt -16.1700 -14.6300
vt -14.6300 -14.6300
vt -14.6300 -16.1700
vt -16.1700 -16.1700
vt -14.6300 -16.1700
vt -14.6300 -14.6300
vt -16.1700 -14.6300
vt -16.1700 0.0000
vt -14.6300 0.0000
vt -14.6300 1.6000
vt -16.1700 1.6000
vt -14.6300 0.0000
vt -16.1700 0.0000
vt -16.1700 1.6000
vt -14.6300 1.6000
vt -16.1700 0.0000
vt -14.6300 0.0000
vt -14.6300 1.6000
vt -16.1700 1.6000
vt -14.6300 0.0000
vt -16.1700 0.0000
vt -16.1700 1.6000
vt -14.6300 1.6000
vt -13.3700 -16.1700
vt -13.3700 -14.6300
vt -11.8300 -14.6300
vt -11.8300 -16.1700
vt -13.3700 -16.1700
vt -11.8300 -16.1700
vt -11.8300 -14.6300
vt -13.3700 -14.6300
vt -13.3700 0.0000
vt -11.8300 0.0000
vt -11.8300 1.6000
vt -13.3700 1.6000
vt -11.8300 0.0000
vt -13.3700 0.0000
vt -13.3700 1.6000
vt -11.8300 1.6000
vt -16.1700 0.0000
vt -14.6300 0.0000
vt -14.6300 1.6000
vt -16.1700 1.6000
vt -14.6300 0.0000
vt -16.1700 0.0000
vt -16.1700 1.6000
vt -14.6300 1.6000
vt -10.5700 -16.1700
vt -10.5700 -14.6300
vt -9.0300 -14.6300
vt -9.0300 -16.1700
vt -10.5700 -16.1700
vt -9.0300 -16.1700
vt -9.0300 -14.6300
vt -10.5700 -14.6300
vt -10.5700 0.0000
vt -9.0300 0.0000
vt -9.0300 1.6000
vt -10.5700 1.6000
vt -9.0300 0.0000
vt -10.5700 0.0000
vt -10.5700 1.6000
vt -9.0300 1.6000
vt -16.1700 0.0000
vt -14.6300 0.0000
vt -14.6300 1.6000
vt -16.1700 1.6000
vt -14.6300 0.0000
vt -16.1700 0.0000
vt -16.1700 1.6000
vt -14.6300 1.6000
vt -21.7700 -13.3700
vt -21.7700 -11.8300
vt -20.2300 -11.8300
vt -20.2300 -13.3700
vt -21.7700 -13.3700
vt -20.2300 -13.3700
vt -20.2300 -11.8300
vt -21.7700 -11.8300
vt -21.7700 0.0000
vt -20.2300 0.0000
vt -20.2300 1.6000
vt -21.7700 1.6000
vt -20.2300 0.0000
vt -21.7700 0.0000
vt -21.7700 1.6000
vt -20.2300 1.6000
vt -13.3700 0.0000
vt -11.8300 0.0000
vt -11.8300 1.6000
vt -13.3700 1.6000
vt -11.8300 0.0000
vt -13.3700 0.0000
vt -13.3700 1.6000
vt -11.8300 1.6000
vt -18.9700 -13.3700
vt -18.9700 -11.8300
vt -17.4300 -11.8300
vt -17.4300 -13.3700
vt -18.9700 -13.3700
vt -17.4300 -13.3700
vt -17.4300 -11.8300
vt -18.9700 -11.8300
vt -18.9700 0.0000
vt -17.4300 0.0000
vt -17.4300 1.6000
vt -18.9700 1.6000
vt -17.4300 0.0000
vt -18.9700 0.0000
vt -18.9700 1.6000
vt -17.4300 1.6000
vt -13.3700 0.0000
vt -11.8300 0.0000
vt -11.8300 1.6000
vt -13.3700 1.6000
vt -11.8300 0.0000
vt -13.3700 0.0000
vt -13.3700 1.6000
vt -11.8300 1.6000
vt -16.1700 -13.3700
vt -16.1700 -11.8300
vt -14.6300 -11.8300
vt -14.6300 -13.3700
vt -16.1700 -13.3700
vt -14.6300 -13.3700
vt -14.6300 -11.8300
vt -16.1700 -11.8300
vt -16.1700 0.0000
vt -14.6300 0.0000
vt -14.6300 1.6000
vt -16.1700 1.6000
vt -14.6300 0.0000
vt -16.1700 0.0000
vt -16.1700 1.6000
vt -14.6300 1.6000
vt -13.3700 0.0000
vt -11.8300 0.0000
vt -11.8300 1.6000
vt -13.3700 1.6000
vt -11.8300 0.0000
vt -13.3700 0.0000
vt -13.3700 1.6000
vt -11.8300 1.6000
vt -13.3700 -13.3700
vt -13.3700 -11.8300
vt -11.8300 -11.8300
vt -11.8300 -13.3700
vt -13.3700 -13.3700
vt -11.8300 -13.3700
vt -11.8300 -11.8300
vt -13.3700 -11.8300
vt -13.3700 0.0000
vt -11.8300 0.0000
vt -11.8300 1.6000
vt -13.3700 1.6000
vt -11.8300 0.0000
vt -13.3700 0.0000
vt -13.3700 1.6000
vt -11.8300 1.6000
vt -13.3700 0.0000
vt -11.8300 0.0000
vt -11.8300 1.6000
vt -13.3700 1.6000
vt -11.8300 0.0000
vt -13.3700 0.0000
vt -13.3700 1.6000
vt -11.8300 1.6000
vt -10.5700 -13.3700
vt -10.5700 -11.8300
vt -9.0300 -11.8300
vt -9.0300 -13.3700
vt -10.5700 -13.3700
vt -9.0300 -13.3700
vt -9.0300 -11.8300
vt -10.5700 -11.8300
vt -10.5700 0.0000
vt -9.0300 0.0000
vt -9.0300 1.6000
vt -10.5700 1.6000
vt -9.0300 0.0000
vt -10.5700 0.0000
vt -10.5700 1.6000
vt -9.0300 1.6000
vt -13.3700 0.0000
vt -11.8300 0.0000
vt -11.8300 1.6000
vt -13.3700 1.6000
vt -11.8300 0.0000
vt -13.3700 0.0000
vt -13.3700 1.6000
vt -11.8300 1.6000
vt -13.3700 -11.9700
vt -13.3700 -10.4300
vt -11.8300 -10.4300
vt -11.8300 -11.9700
vt -13.3700 -11.9700
vt -11.8300 -11.9700
vt -11.8300 -10.4300
vt -13.3700 -10.4300
vt -13.3700 0.0000
vt -11.8300 0.0000
vt -11.8300 1.6000
vt -13.3700 1.6000
vt -11.8300 0.0000
vt -13.3700 0.0000
vt -13.3700 1.6000
vt -11.8300 1.6000
vt -11.9700 0.0000
vt -10.4300 0.0000
vt -10.4300 1.6000
vt -11.9700 1.6000
vt -10.4300 0.0000
vt -11.9700 0.0000
vt -11.9700 1.6000
vt -10.4300 1.6000
vt -10.5700 -11.9700
vt -10.5700 -10.4300
vt -9.0300 -10.4300
vt -9.0300 -11.9700
vt -10.5700 -11.9700
vt -9.0300 -11.9700
vt -9.0300 -10.4300
vt -10.5700 -10.4300
vt -10.5700 0.0000
vt -9.0300 0.0000
vt -9.0300 1.6000
vt -10.5700 1.6000
vt -9.0300 0.0000
vt -10.5700 0.0000
vt -10.5700 1.6000
vt -9.0300 1.6000
vt -11.9700 0.0000
vt -10.4300 0.0000
vt -10.4300 1.6000
vt -11.9700 1.6000
vt -10.4300 0.0000
vt -11.9700 0.0000
vt -11.9700 1.6000
vt -10.4300 1.6000
vt -21.7700 -10.5700
vt -21.7700 -9.0300
vt -20.2300 -9.0300
vt -20.2300 -10.5700
vt -21.7700 -10.5700
vt -20.2300 -10.5700
vt -20.2300 -9.0300
vt -21.7700 -9.0300
vt -21.7700 0.0000
vt -20.2300 0.0000
vt -20.2300 1.6000
vt -21.7700 1.6000
vt -20.2300 0.0000
vt -21.7700 0.0000
vt -21.7700 1.6000
vt -20.2300 1.6000
vt -10.5700 0.0000
vt -9.0300 0.0000
vt -9.0300 1.6000
vt -10.5700 1.6000
vt -9.0300 0.0000
vt -10.5700 0.0000
vt -10.5700 1.6000
vt -9.0300 1.6000
vt -18.9700 -10.5700
vt -18.9700 -9.0300
vt -17.4300 -9.0300
vt -17.4300 -10.5700
vt -18.9700 -10.5700
vt -17.4300 -10.5700
vt -17.4300 -9.0300
vt -18.9700 -9.0300
vt -18.9700 0.0000
vt -17.4300 0.0000
vt -17.4300 1.6000
vt -18.9700 1.6000
vt -17.4300 0.0000
vt -18.9700 0.0000
vt -18.9700 1.6000
vt -17.4300 1.6000
vt -10.5700 0.0000
vt -9.0300 0.0000
vt -9.0300 1.6000
vt -10.5700 1.6000
vt -9.0300 0.0000
vt -10.5700 0.0000
vt -10.5700 1.6000
vt -9.0300 1.6000
vt -16.1700 -10.5700
vt -16.1700 -9.0300
vt -14.6300 -9.0300
vt -14.6300 -10.5700
vt -16.1700 -10.5700
vt -14.6300 -10.5700
vt -14.6300 -9.0300
vt -16.1700 -9.0300
vt -16.1700 0.0000
vt -14.6300 0.0000
vt -14.6300 1.6000
vt -16.1700 1.6000
vt -14.6300 0.0000
vt -16.1700 0.0000
vt -16.1700 1.6000
vt -14.6300 1.6000
vt -10.5700 0.0000
vt -9.0300 0.0000
vt -9.0300 1.6000
vt -10.5700 1.6000
vt -9.0300 0.0000
vt -10.5700 0.0000
vt -10.5700 1.6000
vt -9.0300 1.6000
vt -14.7700 -10.5700
vt -14.7700 -9.0300
vt -13.2300 -9.0300
vt -13.2300 -10.5700
vt -14.7700 -10.5700
vt -13.2300 -10.5700
vt -13.2300 -9.0300
vt -14.7700 -9.0300
vt -14.7700 0.0000
vt -13.2300 0.0000
vt -13.2300 1.6000
vt -14.7700 1.6000
vt -13.2300 0.0000
vt -14.7700 0.0000
vt -14.7700 1.6000
vt -13.2300 1.6000
vt -10.5700 0.0000
vt -9.0300 0.0000
vt -9.0300 1.6000
vt -10.5700 1.6000
vt -9.0300 0.0000
vt -10.5700 0.0000
vt -10.5700 1.6000
vt -9.0300 1.6000
vt -13.3700 -10.5700
vt -13.3700 -9.0300
vt -11.8300 -9.0300
vt -11.8300 -10.5700
vt -13.3700 -10.5700
vt -11.8300 -10.5700
vt -11.8300 -9.0300
vt -13.3700 -9.0300
vt -13.3700 0.0000
vt -11.8300 0.0000
vt -11.8300 1.6000
vt -13.3700 1.6000
vt -11.8300 0.0000
vt -13.3700 0.0000
vt -13.3700 1.6000
vt -11.8300 1.6000
vt -10.5700 0.0000
vt -9.0300 0.0000
vt -9.0300 1.6000
vt -10.5700 1.6000
vt -9.0300 0.0000
vt -10.5700 0.0000
vt -10.5700 1.6000
vt -9.0300 1.6000
vt -10.5700 -10.5700
vt -10.5700 -9.0300
vt -9.0300 -9.0300
vt -9.0300 -10.5700
vt -10.5700 -10.5700
vt -9.0300 -10.5700
vt -9.0300 -9.0300
vt -10.5700 -9.0300
vt -10.5700 0.0000
vt -9.0300 0.0000
vt -9.0300 1.6000
vt -10.5700 1.6000
vt -9.0300 0.0000
vt -10.5700 0.0000
vt -10.5700 1.6000
vt -9.0300 1.6000
vt -10.5700 0.0000
vt -9.0300 0.0000
vt -9.0300 1.6000
vt -10.5700 1.6000
vt -9.0300 0.0000
vt -10.5700 0.0000
vt -10.5700 1.6000
vt -9.0300 1.6000
vt -21.7700 -9.1700
vt -21.7700 -7.6300
vt -20.2300 -7.6300
vt -20.2300 -9.1700
vt -21.7700 -9.1700
vt -20.2300 -9.1700
vt -20.2300 -7.6300
vt -21.7700 -7.6300
vt -21.7700 0.0000
vt -20.2300 0.0000
vt -20.2300 1.6000
vt -21.7700 1.6000
vt -20.2300 0.0000
vt -21.7700 0.0000
vt -21.7700 1.6000
vt -20.2300 1.6000
vt -9.1700 0.0000
vt -7.6300 0.0000
vt -7.6300 1.6000
vt -9.1700 1.6000
vt -7.6300 0.0000
vt -9.1700 0.0000
vt -9.1700 1.6000
vt -7.6300 1.6000
vt -22.7800 -19.7200
vt -22.7800 -19.4800
vt -22.0200 -19.4800
vt -22.0200 -19.7200
vt -22.7800 -19.7200
vt -22.0200 -19.7200
vt -22.0200 -19.4800
vt -22.7800 -19.4800
vt -22.7800 1.5640
vt -22.0200 1.5640
vt -22.0200 1.5960
vt -22.7800 1.5960
vt -22.0200 1.5640
vt -22.7800 1.5640
vt -22.7800 1.5960
vt -22.0200 1.5960
vt -19.7200 1.5640
vt -19.4800 1.5640
vt -19.4800 1.5960
vt -19.7200 1.5960
vt -19.4800 1.5640
vt -19.7200 1.5640
vt -19.7200 1.5960
vt -19.4800 1.5960
vt -14.3800 -19.7200
vt -14.3800 -19.4800
vt -13.6200 -19.4800
vt -13.6200 -19.7200
vt -14.3800 -19.7200
vt -13.6200 -19.7200
vt -13.6200 -19.4800
vt -14.3800 -19.4800
vt -14.3800 1.5640
vt -13.6200 1.5640
vt -13.6200 1.5960
vt -14.3800 1.5960
vt -13.6200 1.5640
vt -14.3800 1.5640
vt -14.3800 1.5960
vt -13.6200 1.5960
vt -19.7200 1.5640
vt -19.4800 1.5640
vt -19.4800 1.5960
vt -19.7200 1.5960
vt -19.4800 1.5640
vt -19.7200 1.5640
vt -19.7200 1.5960
vt -19.4800 1.5960
vt -11.5800 -19.7200
vt -11.5800 -19.4800
vt -10.8200 -19.4800
vt -10.8200 -19.7200
vt -11.5800 -19.7200
vt -10.8200 -19.7200
vt -10.8200 -19.4800
vt -11.5800 -19.4800
vt -11.5800 1.5640
vt -10.8200 1.5640
vt -10.8200 1.5960
vt -11.5800 1.5960
vt -10.8200 1.5640
vt -11.5800 1.5640
vt -11.5800 1.5960
vt -10.8200 1.5960
vt -19.7200 1.5640
vt -19.4800 1.5640
vt -19.4800 1.5960
vt -19.7200 1.5960
vt -19.4800 1.5640
vt -19.7200 1.5640
vt -19.7200 1.5960
vt -19.4800 1.5960
vt -8.7800 -19.7200
vt -8.7800 -19.4800
vt -8.0200 -19.4800
vt -8.0200 -19.7200
vt -8.7800 -19.7200
vt -8.0200 -19.7200
vt -8.0200 -19.4800
vt -8.7800 -19.4800
vt -8.7800 1.5640
vt -8.0200 1.5640
vt -8.0200 1.5960
vt -8.7800 1.5960
vt -8.0200 1.5640
vt -8.7800 1.5640
vt -8.7800 1.5960
vt -8.0200 1.5960
vt -19.7200 1.5640
vt -19.4800 1.5640
vt -19.4800 1.5960
vt -19.7200 1.5960
vt -19.4800 1.5640
vt -19.7200 1.5640
vt -19.7200 1.5960
vt -19.4800 1.5960
vt -22.7800 -16.9200
vt -22.7800 -16.6800
vt -22.0200 -16.6800
vt -22.0200 -16.9200
vt -22.7800 -16.9200
vt -22.0200 -16.9200
vt -22.0200 -16.6800
vt -22.7800 -16.6800
vt -22.7800 1.5640
vt -22.0200 1.5640
vt -22.0200 1.5960
vt -22.7800 1.5960
vt -22.0200 1.5640
vt -22.7800 1.5640
vt -22.7800 1.5960
vt -22.0200 1.5960
vt -16.9200 1.5640
vt -16.6800 1.5640
vt -16.6800 1.5960
vt -16.9200 1.5960
vt -16.6800 1.5640
vt -16.9200 1.5640
vt -16.9200 1.5960
vt -16.6800 1.5960
vt -19.9800 -16.9200
vt -19.9800 -16.6800
vt -19.2200 -16.6800
vt -19.2200 -16.9200
vt -19.9800 -16.9200
vt -19.2200 -16.9200
vt -19.2200 -16.6800
vt -19.9800 -16.6800
vt -19.9800 1.5640
vt -19.2200 1.5640
vt -19.2200 1.5960
vt -19.9800 1.5960
vt -19.2200 1.5640
vt -19.9800 1.5640
vt -19.9800 1.5960
vt -19.2200 1.5960
vt -16.9200 1.5640
vt -16.6800 1.5640
vt -16.6800 1.5960
vt -16.9200 1.5960
vt -16.6800 1.5640
vt -16.9200 1.5640
vt -16.9200 1.5960
vt -16.6800 1.5960
vt -22.7800 -14.1200
vt -22.7800 -13.8800
vt -22.0200 -13.8800
vt -22.0200 -14.1200
vt -22.7800 -14.1200
vt -22.0200 -14.1200
vt -22.0200 -13.8800
vt -22.7800 -13.8800
vt -22.7800 1.5640
vt -22.0200 1.5640
vt -22.0200 1.5960
vt -22.7800 1.5960
vt -22.0200 1.5640
vt -22.7800 1.5640
vt -22.7800 1.5960
vt -22.0200 1.5960
vt -14.1200 1.5640
vt -13.8800 1.5640
vt -13.8800 1.5960
vt -14.1200 1.5960
vt -13.8800 1.5640
vt -14.1200 1.5640
vt -14.1200 1.5960
vt -13.8800 1.5960
vt -19.9800 -14.1200
vt -19.9800 -13.8800
vt -19.2200 -13.8800
vt -19.2200 -14.1200
vt -19.9800 -14.1200
vt -19.2200 -14.1200
vt -19.2200 -13.8800
vt -19.9800 -13.8800
vt -19.9800 1.5640
vt -19.2200 1.5640
vt -19.2200 1.5960
vt -19.9800 1.5960
vt -19.2200 1.5640
vt -19.9800 1.5640
vt -19.9800 1.5960
vt -19.2200 1.5960
vt -14.1200 1.5640
vt -13.8800 1.5640
vt -13.8800 1.5960
vt -14.1200 1.5960
vt -13.8800 1.5640
vt -14.1200 1.5640
vt -14.1200 1.5960
vt -13.8800 1.5960
vt -11.5800 -14.1200
vt -11.5800 -13.8800
vt -10.8200 -13.8800
vt -10.8200 -14.1200
vt -11.5800 -14.1200
vt -10.8200 -14.1200
vt -10.8200 -13.8800
vt -11.5800 -13.8800
vt -11.5800 1.5640
vt -10.8200 1.5640
vt -10.8200 1.5960
vt -11.5800 1.5960
vt -10.8200 1.5640
vt -11.5800 1.5640
vt -11.5800 1.5960
vt -10.8200 1.5960
vt -14.1200 1.5640
vt -13.8800 1.5640
vt -13.8800 1.5960
vt -14.1200 1.5960
vt -13.8800 1.5640
vt -14.1200 1.5640
vt -14.1200 1.5960
vt -13.8800 1.5960
vt -8.7800 -14.1200
vt -8.7800 -13.8800
vt -8.0200 -13.8800
vt -8.0200 -14.1200
vt -8.7800 -14.1200
vt -8.0200 -14.1200
vt -8.0200 -13.8800
vt -8.7800 -13.8800
vt -8.7800 1.5640
vt -8.0200 1.5640
vt -8.0200 1.5960
vt -8.7800 1.5960
vt -8.0200 1.5640
vt -8.7800 1.5640
vt -8.7800 1.5960
vt -8.0200 1.5960
vt -14.1200 1.5640
vt -13.8800 1.5640
vt -13.8800 1.5960
vt -14.1200 1.5960
vt -13.8800 1.5640
vt -14.1200 1.5640
vt -14.1200 1.5960
vt -13.8800 1.5960
vt -17.1800 -11.3200
vt -17.1800 -11.0800
vt -16.4200 -11.0800
vt -16.4200 -11.3200
vt -17.1800 -11.3200
vt -16.4200 -11.3200
vt -16.4200 -11.0800
vt -17.1800 -11.0800
vt -17.1800 1.5640
vt -16.4200 1.5640
vt -16.4200 1.5960
vt -17.1800 1.5960
vt -16.4200 1.5640
vt -17.1800 1.5640
vt -17.1800 1.5960
vt -16.4200 1.5960
vt -11.3200 1.5640
vt -11.0800 1.5640
vt -11.0800 1.5960
vt -11.3200 1.5960
vt -11.0800 1.5640
vt -11.3200 1.5640
vt -11.3200 1.5960
vt -11.0800 1.5960
vt -11.5800 -11.3200
vt -11.5800 -11.0800
vt -10.8200 -11.0800
vt -10.8200 -11.3200
vt -11.5800 -11.3200
vt -10.8200 -11.3200
vt -10.8200 -11.0800
vt -11.5800 -11.0800
vt -11.5800 1.5640
vt -10.8200 1.5640
vt -10.8200 1.5960
vt -11.5800 1.5960
vt -10.8200 1.5640
vt -11.5800 1.5640
vt -11.5800 1.5960
vt -10.8200 1.5960
vt -11.3200 1.5640
vt -11.0800 1.5640
vt -11.0800 1.5960
vt -11.3200 1.5960
vt -11.0800 1.5640
vt -11.3200 1.5640
vt -11.3200 1.5960
vt -11.0800 1.5960
vt -22.7800 -8.5200
vt -22.7800 -8.2800
vt -22.0200 -8.2800
vt -22.0200 -8.5200
vt -22.7800 -8.5200
vt -22.0200 -8.5200
vt -22.0200 -8.2800
vt -22.7800 -8.2800
vt -22.7800 1.5640
vt -22.0200 1.5640
vt -22.0200 1.5960
vt -22.7800 1.5960
vt -22.0200 1.5640
vt -22.7800 1.5640
vt -22.7800 1.5960
vt -22.0200 1.5960
vt -8.5200 1.5640
vt -8.2800 1.5640
vt -8.2800 1.5960
vt -8.5200 1.5960
vt -8.2800 1.5640
vt -8.5200 1.5640
vt -8.5200 1.5960
vt -8.2800 1.5960
vt -17.1800 -8.5200
vt -17.1800 -8.2800
vt -16.4200 -8.2800
vt -16.4200 -8.5200
vt -17.1800 -8.5200
vt -16.4200 -8.5200
vt -16.4200 -8.2800
vt -17.1800 -8.2800
vt -17.1800 1.5640
vt -16.4200 1.5640
vt -16.4200 1.5960
vt -17.1800 1.5960
vt -16.4200 1.5640
vt -17.1800 1.5640
vt -17.1800 1.5960
vt -16.4200 1.5960
vt -8.5200 1.5640
vt -8.2800 1.5640
vt -8.2800 1.5960
vt -8.5200 1.5960
vt -8.2800 1.5640
vt -8.5200 1.5640
vt -8.5200 1.5960
vt -8.2800 1.5960
vt -11.5800 -8.5200
vt -11.5800 -8.2800
vt -10.8200 -8.2800
vt -10.8200 -8.5200
vt -11.5800 -8.5200
vt -10.8200 -8.5200
vt -10.8200 -8.2800
vt -11.5800 -8.2800
vt -11.5800 1.5640
vt -10.8200 1.5640
vt -10.8200 1.5960
vt -11.5800 1.5960
vt -10.8200 1.5640
vt -11.5800 1.5640
vt -11.5800 1.5960
vt -10.8200 1.5960
vt -8.5200 1.5640
vt -8.2800 1.5640
vt -8.2800 1.5960
vt -8.5200 1.5960
vt -8.2800 1.5640
vt -8.5200 1.5640
vt -8.5200 1.5960
vt -8.2800 1.5960
vt -8.7800 -8.5200
vt -8.7800 -8.2800
vt -8.0200 -8.2800
vt -8.0200 -8.5200
vt -8.7800 -8.5200
vt -8.0200 -8.5200
vt -8.0200 -8.2800
vt -8.7800 -8.2800
vt -8.7800 1.5640
vt -8.0200 1.5640
vt -8.0200 1.5960
vt -8.7800 1.5960
vt -8.0200 1.5640
vt -8.7800 1.5640
vt -8.7800 1.5960
vt -8.0200 1.5960
vt -8.5200 1.5640
vt -8.2800 1.5640
vt -8.2800 1.5960
vt -8.5200 1.5960
vt -8.2800 1.5640
vt -8.5200 1.5640
vt -8.5200 1.5960
vt -8.2800 1.5960
usemtl lamp_cold
f 793 796 795 794
f 797 798 799 800
f 793 794 798 797
f 795 796 800 799
f 794 795 799 798
f 796 793 797 800
f 825 828 827 826
f 829 830 831 832
f 825 826 830 829
f 827 828 832 831
f 826 827 831 830
f 828 825 829 832
f 857 860 859 858
f 861 862 863 864
f 857 858 862 861
f 859 860 864 863
f 858 859 863 862
f 860 857 861 864
f 889 892 891 890
f 893 894 895 896
f 889 890 894 893
f 891 892 896 895
f 890 891 895 894
f 892 889 893 896
f 921 924 923 922
f 925 926 927 928
f 921 922 926 925
f 923 924 928 927
f 922 923 927 926
f 924 921 925 928
f 953 956 955 954
f 957 958 959 960
f 953 954 958 957
f 955 956 960 959
f 954 955 959 958
f 956 953 957 960
f 985 988 987 986
f 989 990 991 992
f 985 986 990 989
f 987 988 992 991
f 986 987 991 990
f 988 985 989 992
f 1017 1020 1019 1018
f 1021 1022 1023 1024
f 1017 1018 1022 1021
f 1019 1020 1024 1023
f 1018 1019 1023 1022
f 1020 1017 1021 1024
f 1049 1052 1051 1050
f 1053 1054 1055 1056
f 1049 1050 1054 1053
f 1051 1052 1056 1055
f 1050 1051 1055 1054
f 1052 1049 1053 1056
f 1081 1084 1083 1082
f 1085 1086 1087 1088
f 1081 1082 1086 1085
f 1083 1084 1088 1087
f 1082 1083 1087 1086
f 1084 1081 1085 1088
f 1113 1116 1115 1114
f 1117 1118 1119 1120
f 1113 1114 1118 1117
f 1115 1116 1120 1119
f 1114 1115 1119 1118
f 1116 1113 1117 1120
f 1145 1148 1147 1146
f 1149 1150 1151 1152
f 1145 1146 1150 1149
f 1147 1148 1152 1151
f 1146 1147 1151 1150
f 1148 1145 1149 1152
f 1177 1180 1179 1178
f 1181 1182 1183 1184
f 1177 1178 1182 1181
f 1179 1180 1184 1183
f 1178 1179 1183 1182
f 1180 1177 1181 1184
f 1209 1212 1211 1210
f 1213 1214 1215 1216
f 1209 1210 1214 1213
f 1211 1212 1216 1215
f 1210 1211 1215 1214
f 1212 1209 1213 1216
f 1241 1244 1243 1242
f 1245 1246 1247 1248
f 1241 1242 1246 1245
f 1243 1244 1248 1247
f 1242 1243 1247 1246
f 1244 1241 1245 1248
f 1273 1276 1275 1274
f 1277 1278 1279 1280
f 1273 1274 1278 1277
f 1275 1276 1280 1279
f 1274 1275 1279 1278
f 1276 1273 1277 1280
usemtl concrete
f 1/1 2/2 3/3 4/4
f 5/5 6/6 7/7 8/8
f 9/9 10/10 11/11 12/12
f 13/13 14/14 15/15 16/16
f 17/17 18/18 19/19 20/20
f 21/21 22/22 23/23 24/24
f 25/25 26/26 27/27 28/28
f 29/29 30/30 31/31 32/32
f 33/33 34/34 35/35 36/36
f 37/37 38/38 39/39 40/40
f 41/41 42/42 43/43 44/44
f 45/45 46/46 47/47 48/48
f 49/49 50/50 51/51 52/52
f 53/53 54/54 55/55 56/56
f 57/57 58/58 59/59 60/60
f 61/61 62/62 63/63 64/64
f 65/65 66/66 67/67 68/68
f 69/69 70/70 71/71 72/72
usemtl concrete_dark
f 73/73 74/74 75/75 76/76
f 77/77 78/78 79/79 80/80
f 81/81 82/82 83/83 84/84
f 85/85 86/86 87/87 88/88
f 89/89 90/90 91/91 92/92
f 93/93 94/94 95/95 96/96
usemtl concrete
f 97/97 98/98 99/99 100/100
f 101/101 102/102 103/103 104/104
f 105/105 106/106 107/107 108/108
f 109/109 110/110 111/111 112/112
f 113/113 114/114 115/115 116/116
f 117/117 118/118 119/119 120/120
f 121/121 122/122 123/123 124/124
f 125/125 126/126 127/127 128/128
f 129/129 130/130 131/131 132/132
f 133/133 134/134 135/135 136/136
f 137/137 138/138 139/139 140/140
f 141/141 142/142 143/143 144/144
f 145/145 146/146 147/147 148/148
f 149/149 150/150 151/151 152/152
f 153/153 154/154 155/155 156/156
f 157/157 158/158 159/159 160/160
f 161/161 162/162 163/163 164/164
f 165/165 166/166 167/167 168/168
f 169/169 170/170 171/171 172/172
f 173/173 174/174 175/175 176/176
f 177/177 178/178 179/179 180/180
f 181/181 182/182 183/183 184/184
f 185/185 186/186 187/187 188/188
f 189/189 190/190 191/191 192/192
usemtl concrete_dark
f 193/193 194/194 195/195 196/196
f 197/197 198/198 199/199 200/200
f 201/201 202/202 203/203 204/204
f 205/205 206/206 207/207 208/208
f 209/209 210/210 211/211 212/212
f 213/213 214/214 215/215 216/216
usemtl concrete
f 217/217 218/218 219/219 220/220
f 221/221 222/222 223/223 224/224
f 225/225 226/226 227/227 228/228
f 229/229 230/230 231/231 232/232
f 233/233 234/234 235/235 236/236
f 237/237 238/238 239/239 240/240
f 241/241 242/242 243/243 244/244
f 245/245 246/246 247/247 248/248
f 249/249 250/250 251/251 252/252
f 253/253 254/254 255/255 256/256
f 257/257 258/258 259/259 260/260
f 261/261 262/262 263/263 264/264
f 265/265 266/266 267/267 268/268
f 269/269 270/270 271/271 272/272
f 273/273 274/274 275/275 276/276
f 277/277 278/278 279/279 280/280
f 281/281 282/282 283/283 284/284
f 285/285 286/286 287/287 288/288
usemtl concrete_dark
f 289/289 290/290 291/291 292/292
f 293/293 294/294 295/295 296/296
f 297/297 298/298 299/299 300/300
f 301/301 302/302 303/303 304/304
f 305/305 306/306 307/307 308/308
f 309/309 310/310 311/311 312/312
f 313/313 314/314 315/315 316/316
f 317/317 318/318 319/319 320/320
f 321/321 322/322 323/323 324/324
f 325/325 326/326 327/327 328/328
f 329/329 330/330 331/331 332/332
f 333/333 334/334 335/335 336/336
usemtl concrete
f 337/337 338/338 339/339 340/340
f 341/341 342/342 343/343 344/344
f 345/345 346/346 347/347 348/348
f 349/349 350/350 351/351 352/352
f 353/353 354/354 355/355 356/356
f 357/357 358/358 359/359 360/360
f 361/361 362/362 363/363 364/364
f 365/365 366/366 367/367 368/368
f 369/369 370/370 371/371 372/372
f 373/373 374/374 375/375 376/376
f 377/377 378/378 379/379 380/380
f 381/381 382/382 383/383 384/384
f 385/385 386/386 387/387 388/388
f 389/389 390/390 391/391 392/392
f 393/393 394/394 395/395 396/396
f 397/397 398/398 399/399 400/400
f 401/401 402/402 403/403 404/404
f 405/405 406/406 407/407 408/408
f 409/409 410/410 411/411 412/412
f 413/413 414/414 415/415 416/416
f 417/417 418/418 419/419 420/420
f 421/421 422/422 423/423 424/424
f 425/425 426/426 427/427 428/428
f 429/429 430/430 431/431 432/432
f 433/433 434/434 435/435 436/436
f 437/437 438/438 439/439 440/440
f 441/441 442/442 443/443 444/444
f 445/445 446/446 447/447 448/448
f 449/449 450/450 451/451 452/452
f 453/453 454/454 455/455 456/456
f 457/457 458/458 459/459 460/460
f 461/461 462/462 463/463 464/464
f 465/465 466/466 467/467 468/468
f 469/469 470/470 471/471 472/472
f 473/473 474/474 475/475 476/476
f 477/477 478/478 479/479 480/480
usemtl concrete_dark
f 481/481 482/482 483/483 484/484
f 485/485 486/486 487/487 488/488
f 489/489 490/490 491/491 492/492
f 493/493 494/494 495/495 496/496
f 497/497 498/498 499/499 500/500
f 501/501 502/502 503/503 504/504
usemtl concrete
f 505/505 506/506 507/507 508/508
f 509/509 510/510 511/511 512/512
f 513/513 514/514 515/515 516/516
f 517/517 518/518 519/519 520/520
f 521/521 522/522 523/523 524/524
f 525/525 526/526 527/527 528/528
f 529/529 530/530 531/531 532/532
f 533/533 534/534 535/535 536/536
f 537/537 538/538 539/539 540/540
f 541/541 542/542 543/543 544/544
f 545/545 546/546 547/547 548/548
f 549/549 550/550 551/551 552/552
usemtl concrete_dark
f 553/553 554/554 555/555 556/556
f 557/557 558/558 559/559 560/560
f 561/561 562/562 563/563 564/564
f 565/565 566/566 567/567 568/568
f 569/569 570/570 571/571 572/572
f 573/573 574/574 575/575 576/576
usemtl concrete
f 577/577 578/578 579/579 580/580
f 581/581 582/582 583/583 584/584
f 585/585 586/586 587/587 588/588
f 589/589 590/590 591/591 592/592
f 593/593 594/594 595/595 596/596
f 597/597 598/598 599/599 600/600
f 601/601 602/602 603/603 604/604
f 605/605 606/606 607/607 608/608
f 609/609 610/610 611/611 612/612
f 613/613 614/614 615/615 616/616
f 617/617 618/618 619/619 620/620
f 621/621 622/622 623/623 624/624
usemtl concrete_dark
f 625/625 626/626 627/627 628/628
f 629/629 630/630 631/631 632/632
f 633/633 634/634 635/635 636/636
f 637/637 638/638 639/639 640/640
f 641/641 642/642 643/643 644/644
f 645/645 646/646 647/647 648/648
f 649/649 650/650 651/651 652/652
f 653/653 654/654 655/655 656/656
f 657/657 658/658 659/659 660/660
f 661/661 662/662 663/663 664/664
f 665/665 666/666 667/667 668/668
f 669/669 670/670 671/671 672/672
usemtl concrete
f 673/673 674/674 675/675 676/676
f 677/677 678/678 679/679 680/680
f 681/681 682/682 683/683 684/684
f 685/685 686/686 687/687 688/688
f 689/689 690/690 691/691 692/692
f 693/693 694/694 695/695 696/696
f 697/697 698/698 699/699 700/700
f 701/701 702/702 703/703 704/704
f 705/705 706/706 707/707 708/708
f 709/709 710/710 711/711 712/712
f 713/713 714/714 715/715 716/716
f 717/717 718/718 719/719 720/720
f 721/721 722/722 723/723 724/724
f 725/725 726/726 727/727 728/728
f 729/729 730/730 731/731 732/732
f 733/733 734/734 735/735 736/736
f 737/737 738/738 739/739 740/740
f 741/741 742/742 743/743 744/744
usemtl concrete_dark
f 745/745 746/746 747/747 748/748
f 749/749 750/750 751/751 752/752
f 753/753 754/754 755/755 756/756
f 757/757 758/758 759/759 760/760
f 761/761 762/762 763/763 764/764
f 765/765 766/766 767/767 768/768
usemtl concrete
f 769/769 770/770 771/771 772/772
f 773/773 774/774 775/775 776/776
f 777/777 778/778 779/779 780/780
f 781/781 782/782 783/783 784/784
f 785/785 786/786 787/787 788/788
f 789/789 790/790 791/791 792/792
usemtl concrete_dark
f 801/793 802/794 803/795 804/796
f 805/797 806/798 807/799 808/800
f 809/801 810/802 811/803 812/804
f 813/805 814/806 815/807 816/808
f 817/809 818/810 819/811 820/812
f 821/813 822/814 823/815 824/816
f 833/817 834/818 835/819 836/820
f 837/821 838/822 839/823 840/824
f 841/825 842/826 843/827 844/828
f 845/829 846/830 847/831 848/832
f 849/833 850/834 851/835 852/836
f 853/837 854/838 855/839 856/840
f 865/841 866/842 867/843 868/844
f 869/845 870/846 871/847 872/848
f 873/849 874/850 875/851 876/852
f 877/853 878/854 879/855 880/856
f 881/857 882/858 883/859 884/860
f 885/861 886/862 887/863 888/864
f 897/865 898/866 899/867 900/868
f 901/869 902/870 903/871 904/872
f 905/873 906/874 907/875 908/876
f 909/877 910/878 911/879 912/880
f 913/881 914/882 915/883 916/884
f 917/885 918/886 919/887 920/888
f 929/889 930/890 931/891 932/892
f 933/893 934/894 935/895 936/896
f 937/897 938/898 939/899 940/900
f 941/901 942/902 943/903 944/904
f 945/905 946/906 947/907 948/908
f 949/909 950/910 951/911 952/912
f 961/913 962/914 963/915 964/916
f 965/917 966/918 967/919 968/920
f 969/921 970/922 971/923 972/924
f 973/925 974/926 975/927 976/928
f 977/929 978/930 979/931 980/932
f 981/933 982/934 983/935 984/936
f 993/937 994/938 995/939 996/940
f 997/941 998/942 999/943 1000/944
f 1001/945 1002/946 1003/947 1004/948
f 1005/949 1006/950 1007/951 1008/952
f 1009/953 1010/954 1011/955 1012/956
f 1013/957 1014/958 1015/959 1016/960
f 1025/961 1026/962 1027/963 1028/964
f 1029/965 1030/966 1031/967 1032/968
f 1033/969 1034/970 1035/971 1036/972
f 1037/973 1038/974 1039/975 1040/976
f 1041/977 1042/978 1043/979 1044/980
f 1045/981 1046/982 1047/983 1048/984
f 1057/985 1058/986 1059/987 1060/988
f 1061/989 1062/990 1063/991 1064/992
f 1065/993 1066/994 1067/995 1068/996
f 1069/997 1070/998 1071/999 1072/1000
f 1073/1001 1074/1002 1075/1003 1076/1004
f 1077/1005 1078/1006 1079/1007 1080/1008
f 1089/1009 1090/1010 1091/1011 1092/1012
f 1093/1013 1094/1014 1095/1015 1096/1016
f 1097/1017 1098/1018 1099/1019 1100/1020
f 1101/1021 1102/1022 1103/1023 1104/1024
f 1105/1025 1106/1026 1107/1027 1108/1028
f 1109/1029 1110/1030 1111/1031 1112/1032
f 1121/1033 1122/1034 1123/1035 1124/1036
f 1125/1037 1126/1038 1127/1039 1128/1040
f 1129/1041 1130/1042 1131/1043 1132/1044
f 1133/1045 1134/1046 1135/1047 1136/1048
f 1137/1049 1138/1050 1139/1051 1140/1052
f 1141/1053 1142/1054 1143/1055 1144/1056
f 1153/1057 1154/1058 1155/1059 1156/1060
f 1157/1061 1158/1062 1159/1063 1160/1064
f 1161/1065 1162/1066 1163/1067 1164/1068
f 1165/1069 1166/1070 1167/1071 1168/1072
f 1169/1073 1170/1074 1171/1075 1172/1076
f 1173/1077 1174/1078 1175/1079 1176/1080
f 1185/1081 1186/1082 1187/1083 1188/1084
f 1189/1085 1190/1086 1191/1087 1192/1088
f 1193/1089 1194/1090 1195/1091 1196/1092
f 1197/1093 1198/1094 1199/1095 1200/1096
f 1201/1097 1202/1098 1203/1099 1204/1100
f 1205/1101 1206/1102 1207/1103 1208/1104
f 1217/1105 1218/1106 1219/1107 1220/1108
f 1221/1109 1222/1110 1223/1111 1224/1112
f 1225/1113 1226/1114 1227/1115 1228/1116
f 1229/1117 1230/1118 1231/1119 1232/1120
f 1233/1121 1234/1122 1235/1123 1236/1124
f 1237/1125 1238/1126 1239/1127 1240/1128
f 1249/1129 1250/1130 1251/1131 1252/1132
f 1253/1133 1254/1134 1255/1135 1256/1136
f 1257/1137 1258/1138 1259/1139 1260/1140
f 1261/1141 1262/1142 1263/1143 1264/1144
f 1265/1145 1266/1146 1267/1147 1268/1148
f 1269/1149 1270/1150 1271/1151 1272/1152
f 1281/1153 1282/1154 1283/1155 1284/1156
f 1285/1157 1286/1158 1287/1159 1288/1160
f 1289/1161 1290/1162 1291/1163 1292/1164
f 1293/1165 1294/1166 1295/1167 1296/1168
f 1297/1169 1298/1170 1299/1171 1300/1172
f 1301/1173 1302/1174 1303/1175 1304/1176
