# RoastEngine Backrooms level
mtllib backrooms.mtl
v 371.0750 0.0000 -51.4250
v 371.0750 0.0000 -48.5750
v 373.9250 0.0000 -48.5750
v 373.9250 0.0000 -51.4250
v 371.0750 3.0000 -51.4250
v 373.9250 3.0000 -51.4250
v 373.9250 3.0000 -48.5750
v 371.0750 3.0000 -48.5750
v 371.0750 0.0000 -51.4250
v 373.9250 0.0000 -51.4250
v 373.9250 3.0000 -51.4250
v 371.0750 3.0000 -51.4250
v 373.9250 0.0000 -48.5750
v 371.0750 0.0000 -48.5750
v 371.0750 3.0000 -48.5750
v 373.9250 3.0000 -48.5750
v 373.9250 0.0000 -51.4250
v 373.9250 0.0000 -48.5750
v 373.9250 3.0000 -48.5750
v 373.9250 3.0000 -51.4250
v 371.0750 0.0000 -48.5750
v 371.0750 0.0000 -51.4250
v 371.0750 3.0000 -51.4250
v 371.0750 3.0000 -48.5750
v 351.0750 0.0000 -48.9250
v 351.0750 0.0000 -46.0750
v 353.9250 0.0000 -46.0750
v 353.9250 0.0000 -48.9250
v 351.0750 3.0000 -48.9250
v 353.9250 3.0000 -48.9250
v 353.9250 3.0000 -46.0750
v 351.0750 3.0000 -46.0750
v 351.0750 0.0000 -48.9250
v 353.9250 0.0000 -48.9250
v 353.9250 3.0000 -48.9250
v 351.0750 3.0000 -48.9250
v 353.9250 0.0000 -46.0750
v 351.0750 0.0000 -46.0750
v 351.0750 3.0000 -46.0750
v 353.9250 3.0000 -46.0750
v 353.9250 0.0000 -48.9250
v 353.9250 0.0000 -46.0750
v 353.9250 3.0000 -46.0750
v 353.9250 3.0000 -48.9250
v 351.0750 0.0000 -46.0750
v 351.0750 0.0000 -48.9250
v 351.0750 3.0000 -48.9250
v 351.0750 3.0000 -46.0750
v 353.5750 0.0000 -48.9250
v 353.5750 0.0000 -46.0750
v 356.4250 0.0000 -46.0750
v 356.4250 0.0000 -48.9250
v 353.5750 3.0000 -48.9250
v 356.4250 3.0000 -48.9250
v 356.4250 3.0000 -46.0750
v 353.5750 3.0000 -46.0750
v 353.5750 0.0000 -48.9250
v 356.4250 0.0000 -48.9250
v 356.4250 3.0000 -48.9250
v 353.5750 3.0000 -48.9250
v 356.4250 0.0000 -46.0750
v 353.5750 0.0000 -46.0750
v 353.5750 3.0000 -46.0750
v 356.4250 3.0000 -46.0750
v 356.4250 0.0000 -48.9250
v 356.4250 0.0000 -46.0750
v 356.4250 3.0000 -46.0750
v 356.4250 3.0000 -48.9250
v 353.5750 0.0000 -46.0750
v 353.5750 0.0000 -48.9250
v 353.5750 3.0000 -48.9250
v 353.5750 3.0000 -46.0750
v 356.0750 0.0000 -48.9250
v 356.0750 0.0000 -46.0750
v 358.9250 0.0000 -46.0750
v 358.9250 0.0000 -48.9250
v 356.0750 3.0000 -48.9250
v 358.9250 3.0000 -48.9250
v 358.9250 3.0000 -46.0750
v 356.0750 3.0000 -46.0750
v 356.0750 0.0000 -48.9250
v 358.9250 0.0000 -48.9250
v 358.9250 3.0000 -48.9250
v 356.0750 3.0000 -48.9250
v 358.9250 0.0000 -46.0750
v 356.0750 0.0000 -46.0750
v 356.0750 3.0000 -46.0750
v 358.9250 3.0000 -46.0750
v 358.9250 0.0000 -48.9250
v 358.9250 0.0000 -46.0750
v 358.9250 3.0000 -46.0750
v 358.9250 3.0000 -48.9250
v 356.0750 0.0000 -46.0750
v 356.0750 0.0000 -48.9250
v 356.0750 3.0000 -48.9250
v 356.0750 3.0000 -46.0750
v 358.5750 0.0000 -48.9250
v 358.5750 0.0000 -46.0750
v 361.4250 0.0000 -46.0750
v 361.4250 0.0000 -48.9250
v 358.5750 3.0000 -48.9250
v 361.4250 3.0000 -48.9250
v 361.4250 3.0000 -46.0750
v 358.5750 3.0000 -46.0750
v 358.5750 0.0000 -48.9250
v 361.4250 0.0000 -48.9250
v 361.4250 3.0000 -48.9250
v 358.5750 3.0000 -48.9250
v 361.4250 0.0000 -46.0750
v 358.5750 0.0000 -46.0750
v 358.5750 3.0000 -46.0750
v 361.4250 3.0000 -46.0750
v 361.4250 0.0000 -48.9250
v 361.4250 0.0000 -46.0750
v 361.4250 3.0000 -46.0750
v 361.4250 3.0000 -48.9250
v 358.5750 0.0000 -46.0750
v 358.5750 0.0000 -48.9250
v 358.5750 3.0000 -48.9250
v 358.5750 3.0000 -46.0750
v 361.0750 0.0000 -48.9250
v 361.0750 0.0000 -46.0750
v 363.9250 0.0000 -46.0750
v 363.9250 0.0000 -48.9250
v 361.0750 3.0000 -48.9250
v 363.9250 3.0000 -48.9250
v 363.9250 3.0000 -46.0750
v 361.0750 3.0000 -46.0750
v 361.0750 0.0000 -48.9250
v 363.9250 0.0000 -48.9250
v 363.9250 3.0000 -48.9250
v 361.0750 3.0000 -48.9250
v 363.9250 0.0000 -46.0750
v 361.0750 0.0000 -46.0750
v 361.0750 3.0000 -46.0750
v 363.9250 3.0000 -46.0750
v 363.9250 0.0000 -48.9250
v 363.9250 0.0000 -46.0750
v 363.9250 3.0000 -46.0750
v 363.9250 3.0000 -48.9250
v 361.0750 0.0000 -46.0750
v 361.0750 0.0000 -48.9250
v 361.0750 3.0000 -48.9250
v 361.0750 3.0000 -46.0750
v 371.0750 0.0000 -48.9250
v 371.0750 0.0000 -46.0750
v 373.9250 0.0000 -46.0750
v 373.9250 0.0000 -48.9250
v 371.0750 3.0000 -48.9250
v 373.9250 3.0000 -48.9250
v 373.9250 3.0000 -46.0750
v 371.0750 3.0000 -46.0750
v 371.0750 0.0000 -48.9250
v 373.9250 0.0000 -48.9250
v 373.9250 3.0000 -48.9250
v 371.0750 3.0000 -48.9250
v 373.9250 0.0000 -46.0750
v 371.0750 0.0000 -46.0750
v 371.0750 3.0000 -46.0750
v 373.9250 3.0000 -46.0750
v 373.9250 0.0000 -48.9250
v 373.9250 0.0000 -46.0750
v 373.9250 3.0000 -46.0750
v 373.9250 3.0000 -48.9250
v 371.0750 0.0000 -46.0750
v 371.0750 0.0000 -48.9250
v 371.0750 3.0000 -48.9250
v 371.0750 3.0000 -46.0750
v 351.0750 0.0000 -46.4250
v 351.0750 0.0000 -43.5750
v 353.9250 0.0000 -43.5750
v 353.9250 0.0000 -46.4250
v 351.0750 3.0000 -46.4250
v 353.9250 3.0000 -46.4250
v 353.9250 3.0000 -43.5750
v 351.0750 3.0000 -43.5750
v 351.0750 0.0000 -46.4250
v 353.9250 0.0000 -46.4250
v 353.9250 3.0000 -46.4250
v 351.0750 3.0000 -46.4250
v 353.9250 0.0000 -43.5750
v 351.0750 0.0000 -43.5750
v 351.0750 3.0000 -43.5750
v 353.9250 3.0000 -43.5750
v 353.9250 0.0000 -46.4250
v 353.9250 0.0000 -43.5750
v 353.9250 3.0000 -43.5750
v 353.9250 3.0000 -46.4250
v 351.0750 0.0000 -43.5750
v 351.0750 0.0000 -46.4250
v 351.0750 3.0000 -46.4250
v 351.0750 3.0000 -43.5750
v 371.0750 0.0000 -46.4250
v 371.0750 0.0000 -43.5750
v 373.9250 0.0000 -43.5750
v 373.9250 0.0000 -46.4250
v 371.0750 3.0000 -46.4250
v 373.9250 3.0000 -46.4250
v 373.9250 3.0000 -43.5750
v 371.0750 3.0000 -43.5750
v 371.0750 0.0000 -46.4250
v 373.9250 0.0000 -46.4250
v 373.9250 3.0000 -46.4250
v 371.0750 3.0000 -46.4250
v 373.9250 0.0000 -43.5750
v 371.0750 0.0000 -43.5750
v 371.0750 3.0000 -43.5750
v 373.9250 3.0000 -43.5750
v 373.9250 0.0000 -46.4250
v 373.9250 0.0000 -43.5750
v 373.9250 3.0000 -43.5750
v 373.9250 3.0000 -46.4250
v 371.0750 0.0000 -43.5750
v 371.0750 0.0000 -46.4250
v 371.0750 3.0000 -46.4250
v 371.0750 3.0000 -43.5750
v 351.0750 0.0000 -43.9250
v 351.0750 0.0000 -41.0750
v 353.9250 0.0000 -41.0750
v 353.9250 0.0000 -43.9250
v 351.0750 3.0000 -43.9250
v 353.9250 3.0000 -43.9250
v 353.9250 3.0000 -41.0750
v 351.0750 3.0000 -41.0750
v 351.0750 0.0000 -43.9250
v 353.9250 0.0000 -43.9250
v 353.9250 3.0000 -43.9250
v 351.0750 3.0000 -43.9250
v 353.9250 0.0000 -41.0750
v 351.0750 0.0000 -41.0750
v 351.0750 3.0000 -41.0750
v 353.9250 3.0000 -41.0750
v 353.9250 0.0000 -43.9250
v 353.9250 0.0000 -41.0750
v 353.9250 3.0000 -41.0750
v 353.9250 3.0000 -43.9250
v 351.0750 0.0000 -41.0750
v 351.0750 0.0000 -43.9250
v 351.0750 3.0000 -43.9250
v 351.0750 3.0000 -41.0750
v 356.0750 0.0000 -43.9250
v 356.0750 0.0000 -41.0750
v 358.9250 0.0000 -41.0750
v 358.9250 0.0000 -43.9250
v 356.0750 3.0000 -43.9250
v 358.9250 3.0000 -43.9250
v 358.9250 3.0000 -41.0750
v 356.0750 3.0000 -41.0750
v 356.0750 0.0000 -43.9250
v 358.9250 0.0000 -43.9250
v 358.9250 3.0000 -43.9250
v 356.0750 3.0000 -43.9250
v 358.9250 0.0000 -41.0750
v 356.0750 0.0000 -41.0750
v 356.0750 3.0000 -41.0750
v 358.9250 3.0000 -41.0750
v 358.9250 0.0000 -43.9250
v 358.9250 0.0000 -41.0750
v 358.9250 3.0000 -41.0750
v 358.9250 3.0000 -43.9250
v 356.0750 0.0000 -41.0750
v 356.0750 0.0000 -43.9250
v 356.0750 3.0000 -43.9250
v 356.0750 3.0000 -41.0750
v 358.5750 0.0000 -43.9250
v 358.5750 0.0000 -41.0750
v 361.4250 0.0000 -41.0750
v 361.4250 0.0000 -43.9250
v 358.5750 3.0000 -43.9250
v 361.4250 3.0000 -43.9250
v 361.4250 3.0000 -41.0750
v 358.5750 3.0000 -41.0750
v 358.5750 0.0000 -43.9250
v 361.4250 0.0000 -43.9250
v 361.4250 3.0000 -43.9250
v 358.5750 3.0000 -43.9250
v 361.4250 0.0000 -41.0750
v 358.5750 0.0000 -41.0750
v 358.5750 3.0000 -41.0750
v 361.4250 3.0000 -41.0750
v 361.4250 0.0000 -43.9250
v 361.4250 0.0000 -41.0750
v 361.4250 3.0000 -41.0750
v 361.4250 3.0000 -43.9250
v 358.5750 0.0000 -41.0750
v 358.5750 0.0000 -43.9250
v 358.5750 3.0000 -43.9250
v 358.5750 3.0000 -41.0750
v 361.0750 0.0000 -43.9250
v 361.0750 0.0000 -41.0750
v 363.9250 0.0000 -41.0750
v 363.9250 0.0000 -43.9250
v 361.0750 3.0000 -43.9250
v 363.9250 3.0000 -43.9250
v 363.9250 3.0000 -41.0750
v 361.0750 3.0000 -41.0750
v 361.0750 0.0000 -43.9250
v 363.9250 0.0000 -43.9250
v 363.9250 3.0000 -43.9250
v 361.0750 3.0000 -43.9250
v 363.9250 0.0000 -41.0750
v 361.0750 0.0000 -41.0750
v 361.0750 3.0000 -41.0750
v 363.9250 3.0000 -41.0750
v 363.9250 0.0000 -43.9250
v 363.9250 0.0000 -41.0750
v 363.9250 3.0000 -41.0750
v 363.9250 3.0000 -43.9250
v 361.0750 0.0000 -41.0750
v 361.0750 0.0000 -43.9250
v 361.0750 3.0000 -43.9250
v 361.0750 3.0000 -41.0750
v 363.5750 0.0000 -43.9250
v 363.5750 0.0000 -41.0750
v 366.4250 0.0000 -41.0750
v 366.4250 0.0000 -43.9250
v 363.5750 3.0000 -43.9250
v 366.4250 3.0000 -43.9250
v 366.4250 3.0000 -41.0750
v 363.5750 3.0000 -41.0750
v 363.5750 0.0000 -43.9250
v 366.4250 0.0000 -43.9250
v 366.4250 3.0000 -43.9250
v 363.5750 3.0000 -43.9250
v 366.4250 0.0000 -41.0750
v 363.5750 0.0000 -41.0750
v 363.5750 3.0000 -41.0750
v 366.4250 3.0000 -41.0750
v 366.4250 0.0000 -43.9250
v 366.4250 0.0000 -41.0750
v 366.4250 3.0000 -41.0750
v 366.4250 3.0000 -43.9250
v 363.5750 0.0000 -41.0750
v 363.5750 0.0000 -43.9250
v 363.5750 3.0000 -43.9250
v 363.5750 3.0000 -41.0750
v 366.0750 0.0000 -43.9250
v 366.0750 0.0000 -41.0750
v 368.9250 0.0000 -41.0750
v 368.9250 0.0000 -43.9250
v 366.0750 3.0000 -43.9250
v 368.9250 3.0000 -43.9250
v 368.9250 3.0000 -41.0750
v 366.0750 3.0000 -41.0750
v 366.0750 0.0000 -43.9250
v 368.9250 0.0000 -43.9250
v 368.9250 3.0000 -43.9250
v 366.0750 3.0000 -43.9250
v 368.9250 0.0000 -41.0750
v 366.0750 0.0000 -41.0750
v 366.0750 3.0000 -41.0750
v 368.9250 3.0000 -41.0750
v 368.9250 0.0000 -43.9250
v 368.9250 0.0000 -41.0750
v 368.9250 3.0000 -41.0750
v 368.9250 3.0000 -43.9250
v 366.0750 0.0000 -41.0750
v 366.0750 0.0000 -43.9250
v 366.0750 3.0000 -43.9250
v 366.0750 3.0000 -41.0750
v 371.0750 0.0000 -43.9250
v 371.0750 0.0000 -41.0750
v 373.9250 0.0000 -41.0750
v 373.9250 0.0000 -43.9250
v 371.0750 3.0000 -43.9250
v 373.9250 3.0000 -43.9250
v 373.9250 3.0000 -41.0750
v 371.0750 3.0000 -41.0750
v 371.0750 0.0000 -43.9250
v 373.9250 0.0000 -43.9250
v 373.9250 3.0000 -43.9250
v 371.0750 3.0000 -43.9250
v 373.9250 0.0000 -41.0750
v 371.0750 0.0000 -41.0750
v 371.0750 3.0000 -41.0750
v 373.9250 3.0000 -41.0750
v 373.9250 0.0000 -43.9250
v 373.9250 0.0000 -41.0750
v 373.9250 3.0000 -41.0750
v 373.9250 3.0000 -43.9250
v 371.0750 0.0000 -41.0750
v 371.0750 0.0000 -43.9250
v 371.0750 3.0000 -43.9250
v 371.0750 3.0000 -41.0750
v 373.5750 0.0000 -43.9250
v 376.4250 0.0000 -43.9250
v 376.4250 0.0000 -41.0750
v 373.5750 0.0000 -41.0750
v 373.5750 3.0000 -43.9250
v 376.4250 3.0000 -43.9250
v 376.4250 3.0000 -41.0750
v 373.5750 3.0000 -41.0750
v 351.0750 0.0000 -41.4250
v 353.9250 0.0000 -41.4250
v 353.9250 0.0000 -38.5750
v 351.0750 0.0000 -38.5750
v 351.0750 3.0000 -41.4250
v 353.9250 3.0000 -41.4250
v 353.9250 3.0000 -38.5750
v 351.0750 3.0000 -38.5750
v 366.0750 0.0000 -41.4250
v 366.0750 0.0000 -38.5750
v 368.9250 0.0000 -38.5750
v 368.9250 0.0000 -41.4250
v 366.0750 3.0000 -41.4250
v 368.9250 3.0000 -41.4250
v 368.9250 3.0000 -38.5750
v 366.0750 3.0000 -38.5750
v 366.0750 0.0000 -41.4250
v 368.9250 0.0000 -41.4250
v 368.9250 3.0000 -41.4250
v 366.0750 3.0000 -41.4250
v 368.9250 0.0000 -38.5750
v 366.0750 0.0000 -38.5750
v 366.0750 3.0000 -38.5750
v 368.9250 3.0000 -38.5750
v 368.9250 0.0000 -41.4250
v 368.9250 0.0000 -38.5750
v 368.9250 3.0000 -38.5750
v 368.9250 3.0000 -41.4250
v 366.0750 0.0000 -38.5750
v 366.0750 0.0000 -41.4250
v 366.0750 3.0000 -41.4250
v 366.0750 3.0000 -38.5750
v 351.0750 0.0000 -38.9250
v 351.0750 0.0000 -36.0750
v 353.9250 0.0000 -36.0750
v 353.9250 0.0000 -38.9250
v 351.0750 3.0000 -38.9250
v 353.9250 3.0000 -38.9250
v 353.9250 3.0000 -36.0750
v 351.0750 3.0000 -36.0750
v 351.0750 0.0000 -38.9250
v 353.9250 0.0000 -38.9250
v 353.9250 3.0000 -38.9250
v 351.0750 3.0000 -38.9250
v 353.9250 0.0000 -36.0750
v 351.0750 0.0000 -36.0750
v 351.0750 3.0000 -36.0750
v 353.9250 3.0000 -36.0750
v 353.9250 0.0000 -38.9250
v 353.9250 0.0000 -36.0750
v 353.9250 3.0000 -36.0750
v 353.9250 3.0000 -38.9250
v 351.0750 0.0000 -36.0750
v 351.0750 0.0000 -38.9250
v 351.0750 3.0000 -38.9250
v 351.0750 3.0000 -36.0750
v 356.0750 0.0000 -38.9250
v 358.9250 0.0000 -38.9250
v 358.9250 0.0000 -36.0750
v 356.0750 0.0000 -36.0750
v 356.0750 3.0000 -38.9250
v 358.9250 3.0000 -38.9250
v 358.9250 3.0000 -36.0750
v 356.0750 3.0000 -36.0750
v 361.0750 0.0000 -38.9250
v 361.0750 0.0000 -36.0750
v 363.9250 0.0000 -36.0750
v 363.9250 0.0000 -38.9250
v 361.0750 3.0000 -38.9250
v 363.9250 3.0000 -38.9250
v 363.9250 3.0000 -36.0750
v 361.0750 3.0000 -36.0750
v 361.0750 0.0000 -38.9250
v 363.9250 0.0000 -38.9250
v 363.9250 3.0000 -38.9250
v 361.0750 3.0000 -38.9250
v 363.9250 0.0000 -36.0750
v 361.0750 0.0000 -36.0750
v 361.0750 3.0000 -36.0750
v 363.9250 3.0000 -36.0750
v 363.9250 0.0000 -38.9250
v 363.9250 0.0000 -36.0750
v 363.9250 3.0000 -36.0750
v 363.9250 3.0000 -38.9250
v 361.0750 0.0000 -36.0750
v 361.0750 0.0000 -38.9250
v 361.0750 3.0000 -38.9250
v 361.0750 3.0000 -36.0750
v 366.0750 0.0000 -38.9250
v 366.0750 0.0000 -36.0750
v 368.9250 0.0000 -36.0750
v 368.9250 0.0000 -38.9250
v 366.0750 3.0000 -38.9250
v 368.9250 3.0000 -38.9250
v 368.9250 3.0000 -36.0750
v 366.0750 3.0000 -36.0750
v 366.0750 0.0000 -38.9250
v 368.9250 0.0000 -38.9250
v 368.9250 3.0000 -38.9250
v 366.0750 3.0000 -38.9250
v 368.9250 0.0000 -36.0750
v 366.0750 0.0000 -36.0750
v 366.0750 3.0000 -36.0750
v 368.9250 3.0000 -36.0750
v 368.9250 0.0000 -38.9250
v 368.9250 0.0000 -36.0750
v 368.9250 3.0000 -36.0750
v 368.9250 3.0000 -38.9250
v 366.0750 0.0000 -36.0750
v 366.0750 0.0000 -38.9250
v 366.0750 3.0000 -38.9250
v 366.0750 3.0000 -36.0750
v 371.0750 0.0000 -38.9250
v 371.0750 0.0000 -36.0750
v 373.9250 0.0000 -36.0750
v 373.9250 0.0000 -38.9250
v 371.0750 3.0000 -38.9250
v 373.9250 3.0000 -38.9250
v 373.9250 3.0000 -36.0750
v 371.0750 3.0000 -36.0750
v 371.0750 0.0000 -38.9250
v 373.9250 0.0000 -38.9250
v 373.9250 3.0000 -38.9250
v 371.0750 3.0000 -38.9250
v 373.9250 0.0000 -36.0750
v 371.0750 0.0000 -36.0750
v 371.0750 3.0000 -36.0750
v 373.9250 3.0000 -36.0750
v 373.9250 0.0000 -38.9250
v 373.9250 0.0000 -36.0750
v 373.9250 3.0000 -36.0750
v 373.9250 3.0000 -38.9250
v 371.0750 0.0000 -36.0750
v 371.0750 0.0000 -38.9250
v 371.0750 3.0000 -38.9250
v 371.0750 3.0000 -36.0750
v 373.5750 0.0000 -38.9250
v 373.5750 0.0000 -36.0750
v 376.4250 0.0000 -36.0750
v 376.4250 0.0000 -38.9250
v 373.5750 3.0000 -38.9250
v 376.4250 3.0000 -38.9250
v 376.4250 3.0000 -36.0750
v 373.5750 3.0000 -36.0750
v 373.5750 0.0000 -38.9250
v 376.4250 0.0000 -38.9250
v 376.4250 3.0000 -38.9250
v 373.5750 3.0000 -38.9250
v 376.4250 0.0000 -36.0750
v 373.5750 0.0000 -36.0750
v 373.5750 3.0000 -36.0750
v 376.4250 3.0000 -36.0750
v 376.4250 0.0000 -38.9250
v 376.4250 0.0000 -36.0750
v 376.4250 3.0000 -36.0750
v 376.4250 3.0000 -38.9250
v 373.5750 0.0000 -36.0750
v 373.5750 0.0000 -38.9250
v 373.5750 3.0000 -38.9250
v 373.5750 3.0000 -36.0750
v 351.0750 0.0000 -36.4250
v 351.0750 0.0000 -33.5750
v 353.9250 0.0000 -33.5750
v 353.9250 0.0000 -36.4250
v 351.0750 3.0000 -36.4250
v 353.9250 3.0000 -36.4250
v 353.9250 3.0000 -33.5750
v 351.0750 3.0000 -33.5750
v 351.0750 0.0000 -36.4250
v 353.9250 0.0000 -36.4250
v 353.9250 3.0000 -36.4250
v 351.0750 3.0000 -36.4250
v 353.9250 0.0000 -33.5750
v 351.0750 0.0000 -33.5750
v 351.0750 3.0000 -33.5750
v 353.9250 3.0000 -33.5750
v 353.9250 0.0000 -36.4250
v 353.9250 0.0000 -33.5750
v 353.9250 3.0000 -33.5750
v 353.9250 3.0000 -36.4250
v 351.0750 0.0000 -33.5750
v 351.0750 0.0000 -36.4250
v 351.0750 3.0000 -36.4250
v 351.0750 3.0000 -33.5750
v 356.0750 0.0000 -36.4250
v 356.0750 0.0000 -33.5750
v 358.9250 0.0000 -33.5750
v 358.9250 0.0000 -36.4250
v 356.0750 3.0000 -36.4250
v 358.9250 3.0000 -36.4250
v 358.9250 3.0000 -33.5750
v 356.0750 3.0000 -33.5750
v 356.0750 0.0000 -36.4250
v 358.9250 0.0000 -36.4250
v 358.9250 3.0000 -36.4250
v 356.0750 3.0000 -36.4250
v 358.9250 0.0000 -33.5750
v 356.0750 0.0000 -33.5750
v 356.0750 3.0000 -33.5750
v 358.9250 3.0000 -33.5750
v 358.9250 0.0000 -36.4250
v 358.9250 0.0000 -33.5750
v 358.9250 3.0000 -33.5750
v 358.9250 3.0000 -36.4250
v 356.0750 0.0000 -33.5750
v 356.0750 0.0000 -36.4250
v 356.0750 3.0000 -36.4250
v 356.0750 3.0000 -33.5750
v 361.0750 0.0000 -36.4250
v 361.0750 0.0000 -33.5750
v 363.9250 0.0000 -33.5750
v 363.9250 0.0000 -36.4250
v 361.0750 3.0000 -36.4250
v 363.9250 3.0000 -36.4250
v 363.9250 3.0000 -33.5750
v 361.0750 3.0000 -33.5750
v 361.0750 0.0000 -36.4250
v 363.9250 0.0000 -36.4250
v 363.9250 3.0000 -36.4250
v 361.0750 3.0000 -36.4250
v 363.9250 0.0000 -33.5750
v 361.0750 0.0000 -33.5750
v 361.0750 3.0000 -33.5750
v 363.9250 3.0000 -33.5750
v 363.9250 0.0000 -36.4250
v 363.9250 0.0000 -33.5750
v 363.9250 3.0000 -33.5750
v 363.9250 3.0000 -36.4250
v 361.0750 0.0000 -33.5750
v 361.0750 0.0000 -36.4250
v 361.0750 3.0000 -36.4250
v 361.0750 3.0000 -33.5750
v 366.0750 0.0000 -36.4250
v 366.0750 0.0000 -33.5750
v 368.9250 0.0000 -33.5750
v 368.9250 0.0000 -36.4250
v 366.0750 3.0000 -36.4250
v 368.9250 3.0000 -36.4250
v 368.9250 3.0000 -33.5750
v 366.0750 3.0000 -33.5750
v 366.0750 0.0000 -36.4250
v 368.9250 0.0000 -36.4250
v 368.9250 3.0000 -36.4250
v 366.0750 3.0000 -36.4250
v 368.9250 0.0000 -33.5750
v 366.0750 0.0000 -33.5750
v 366.0750 3.0000 -33.5750
v 368.9250 3.0000 -33.5750
v 368.9250 0.0000 -36.4250
v 368.9250 0.0000 -33.5750
v 368.9250 3.0000 -33.5750
v 368.9250 3.0000 -36.4250
v 366.0750 0.0000 -33.5750
v 366.0750 0.0000 -36.4250
v 366.0750 3.0000 -36.4250
v 366.0750 3.0000 -33.5750
v 351.0750 0.0000 -33.9250
v 353.9250 0.0000 -33.9250
v 353.9250 0.0000 -31.0750
v 351.0750 0.0000 -31.0750
v 351.0750 3.0000 -33.9250
v 353.9250 3.0000 -33.9250
v 353.9250 3.0000 -31.0750
v 351.0750 3.0000 -31.0750
v 356.0750 0.0000 -33.9250
v 358.9250 0.0000 -33.9250
v 358.9250 0.0000 -31.0750
v 356.0750 0.0000 -31.0750
v 356.0750 3.0000 -33.9250
v 358.9250 3.0000 -33.9250
v 358.9250 3.0000 -31.0750
v 356.0750 3.0000 -31.0750
v 361.0750 0.0000 -33.9250
v 361.0750 0.0000 -31.0750
v 363.9250 0.0000 -31.0750
v 363.9250 0.0000 -33.9250
v 361.0750 3.0000 -33.9250
v 363.9250 3.0000 -33.9250
v 363.9250 3.0000 -31.0750
v 361.0750 3.0000 -31.0750
v 361.0750 0.0000 -33.9250
v 363.9250 0.0000 -33.9250
v 363.9250 3.0000 -33.9250
v 361.0750 3.0000 -33.9250
v 363.9250 0.0000 -31.0750
v 361.0750 0.0000 -31.0750
v 361.0750 3.0000 -31.0750
v 363.9250 3.0000 -31.0750
v 363.9250 0.0000 -33.9250
v 363.9250 0.0000 -31.0750
v 363.9250 3.0000 -31.0750
v 363.9250 3.0000 -33.9250
v 361.0750 0.0000 -31.0750
v 361.0750 0.0000 -33.9250
v 361.0750 3.0000 -33.9250
v 361.0750 3.0000 -31.0750
v 366.0750 0.0000 -33.9250
v 368.9250 0.0000 -33.9250
v 368.9250 0.0000 -31.0750
v 366.0750 0.0000 -31.0750
v 366.0750 3.0000 -33.9250
v 368.9250 3.0000 -33.9250
v 368.9250 3.0000 -31.0750
v 366.0750 3.0000 -31.0750
v 371.0750 0.0000 -33.9250
v 373.9250 0.0000 -33.9250
v 373.9250 0.0000 -31.0750
v 371.0750 0.0000 -31.0750
v 371.0750 3.0000 -33.9250
v 373.9250 3.0000 -33.9250
v 373.9250 3.0000 -31.0750
v 371.0750 3.0000 -31.0750
v 351.0750 0.0000 -31.4250
v 351.0750 0.0000 -28.5750
v 353.9250 0.0000 -28.5750
v 353.9250 0.0000 -31.4250
v 351.0750 3.0000 -31.4250
v 353.9250 3.0000 -31.4250
v 353.9250 3.0000 -28.5750
v 351.0750 3.0000 -28.5750
v 351.0750 0.0000 -31.4250
v 353.9250 0.0000 -31.4250
v 353.9250 3.0000 -31.4250
v 351.0750 3.0000 -31.4250
v 353.9250 0.0000 -28.5750
v 351.0750 0.0000 -28.5750
v 351.0750 3.0000 -28.5750
v 353.9250 3.0000 -28.5750
v 353.9250 0.0000 -31.4250
v 353.9250 0.0000 -28.5750
v 353.9250 3.0000 -28.5750
v 353.9250 3.0000 -31.4250
v 351.0750 0.0000 -28.5750
v 351.0750 0.0000 -31.4250
v 351.0750 3.0000 -31.4250
v 351.0750 3.0000 -28.5750
v 361.0750 0.0000 -31.4250
v 363.9250 0.0000 -31.4250
v 363.9250 0.0000 -28.5750
v 361.0750 0.0000 -28.5750
v 361.0750 3.0000 -31.4250
v 363.9250 3.0000 -31.4250
v 363.9250 3.0000 -28.5750
v 361.0750 3.0000 -28.5750
v 371.0750 0.0000 -31.4250
v 373.9250 0.0000 -31.4250
v 373.9250 0.0000 -28.5750
v 371.0750 0.0000 -28.5750
v 371.0750 3.0000 -31.4250
v 373.9250 3.0000 -31.4250
v 373.9250 3.0000 -28.5750
v 371.0750 3.0000 -28.5750
v 351.0750 0.0000 -28.9250
v 351.0750 0.0000 -26.0750
v 353.9250 0.0000 -26.0750
v 353.9250 0.0000 -28.9250
v 351.0750 3.0000 -28.9250
v 353.9250 3.0000 -28.9250
v 353.9250 3.0000 -26.0750
v 351.0750 3.0000 -26.0750
v 351.0750 0.0000 -28.9250
v 353.9250 0.0000 -28.9250
v 353.9250 3.0000 -28.9250
v 351.0750 3.0000 -28.9250
v 353.9250 0.0000 -26.0750
v 351.0750 0.0000 -26.0750
v 351.0750 3.0000 -26.0750
v 353.9250 3.0000 -26.0750
v 353.9250 0.0000 -28.9250
v 353.9250 0.0000 -26.0750
v 353.9250 3.0000 -26.0750
v 353.9250 3.0000 -28.9250
v 351.0750 0.0000 -26.0750
v 351.0750 0.0000 -28.9250
v 351.0750 3.0000 -28.9250
v 351.0750 3.0000 -26.0750
v 353.5750 0.0000 -28.9250
v 353.5750 0.0000 -26.0750
v 356.4250 0.0000 -26.0750
v 356.4250 0.0000 -28.9250
v 353.5750 3.0000 -28.9250
v 356.4250 3.0000 -28.9250
v 356.4250 3.0000 -26.0750
v 353.5750 3.0000 -26.0750
v 353.5750 0.0000 -28.9250
v 356.4250 0.0000 -28.9250
v 356.4250 3.0000 -28.9250
v 353.5750 3.0000 -28.9250
v 356.4250 0.0000 -26.0750
v 353.5750 0.0000 -26.0750
v 353.5750 3.0000 -26.0750
v 356.4250 3.0000 -26.0750
v 356.4250 0.0000 -28.9250
v 356.4250 0.0000 -26.0750
v 356.4250 3.0000 -26.0750
v 356.4250 3.0000 -28.9250
v 353.5750 0.0000 -26.0750
v 353.5750 0.0000 -28.9250
v 353.5750 3.0000 -28.9250
v 353.5750 3.0000 -26.0750
v 356.0750 0.0000 -28.9250
v 356.0750 0.0000 -26.0750
v 358.9250 0.0000 -26.0750
v 358.9250 0.0000 -28.9250
v 356.0750 3.0000 -28.9250
v 358.9250 3.0000 -28.9250
v 358.9250 3.0000 -26.0750
v 356.0750 3.0000 -26.0750
v 356.0750 0.0000 -28.9250
v 358.9250 0.0000 -28.9250
v 358.9250 3.0000 -28.9250
v 356.0750 3.0000 -28.9250
v 358.9250 0.0000 -26.0750
v 356.0750 0.0000 -26.0750
v 356.0750 3.0000 -26.0750
v 358.9250 3.0000 -26.0750
v 358.9250 0.0000 -28.9250
v 358.9250 0.0000 -26.0750
v 358.9250 3.0000 -26.0750
v 358.9250 3.0000 -28.9250
v 356.0750 0.0000 -26.0750
v 356.0750 0.0000 -28.9250
v 356.0750 3.0000 -28.9250
v 356.0750 3.0000 -26.0750
v 358.5750 0.0000 -28.9250
v 358.5750 0.0000 -26.0750
v 361.4250 0.0000 -26.0750
v 361.4250 0.0000 -28.9250
v 358.5750 3.0000 -28.9250
v 361.4250 3.0000 -28.9250
v 361.4250 3.0000 -26.0750
v 358.5750 3.0000 -26.0750
v 358.5750 0.0000 -28.9250
v 361.4250 0.0000 -28.9250
v 361.4250 3.0000 -28.9250
v 358.5750 3.0000 -28.9250
v 361.4250 0.0000 -26.0750
v 358.5750 0.0000 -26.0750
v 358.5750 3.0000 -26.0750
v 361.4250 3.0000 -26.0750
v 361.4250 0.0000 -28.9250
v 361.4250 0.0000 -26.0750
v 361.4250 3.0000 -26.0750
v 361.4250 3.0000 -28.9250
v 358.5750 0.0000 -26.0750
v 358.5750 0.0000 -28.9250
v 358.5750 3.0000 -28.9250
v 358.5750 3.0000 -26.0750
v 361.0750 0.0000 -28.9250
v 363.9250 0.0000 -28.9250
v 363.9250 0.0000 -26.0750
v 361.0750 0.0000 -26.0750
v 361.0750 3.0000 -28.9250
v 363.9250 3.0000 -28.9250
v 363.9250 3.0000 -26.0750
v 361.0750 3.0000 -26.0750
v 363.5750 0.0000 -28.9250
v 363.5750 0.0000 -26.0750
v 366.4250 0.0000 -26.0750
v 366.4250 0.0000 -28.9250
v 363.5750 3.0000 -28.9250
v 366.4250 3.0000 -28.9250
v 366.4250 3.0000 -26.0750
v 363.5750 3.0000 -26.0750
v 363.5750 0.0000 -28.9250
v 366.4250 0.0000 -28.9250
v 366.4250 3.0000 -28.9250
v 363.5750 3.0000 -28.9250
v 366.4250 0.0000 -26.0750
v 363.5750 0.0000 -26.0750
v 363.5750 3.0000 -26.0750
v 366.4250 3.0000 -26.0750
v 366.4250 0.0000 -28.9250
v 366.4250 0.0000 -26.0750
v 366.4250 3.0000 -26.0750
v 366.4250 3.0000 -28.9250
v 363.5750 0.0000 -26.0750
v 363.5750 0.0000 -28.9250
v 363.5750 3.0000 -28.9250
v 363.5750 3.0000 -26.0750
v 366.0750 0.0000 -28.9250
v 366.0750 0.0000 -26.0750
v 368.9250 0.0000 -26.0750
v 368.9250 0.0000 -28.9250
v 366.0750 3.0000 -28.9250
v 368.9250 3.0000 -28.9250
v 368.9250 3.0000 -26.0750
v 366.0750 3.0000 -26.0750
v 366.0750 0.0000 -28.9250
v 368.9250 0.0000 -28.9250
v 368.9250 3.0000 -28.9250
v 366.0750 3.0000 -28.9250
v 368.9250 0.0000 -26.0750
v 366.0750 0.0000 -26.0750
v 366.0750 3.0000 -26.0750
v 368.9250 3.0000 -26.0750
v 368.9250 0.0000 -28.9250
v 368.9250 0.0000 -26.0750
v 368.9250 3.0000 -26.0750
v 368.9250 3.0000 -28.9250
v 366.0750 0.0000 -26.0750
v 366.0750 0.0000 -28.9250
v 366.0750 3.0000 -28.9250
v 366.0750 3.0000 -26.0750
v 371.0750 0.0000 -28.9250
v 371.0750 0.0000 -26.0750
v 373.9250 0.0000 -26.0750
v 373.9250 0.0000 -28.9250
v 371.0750 3.0000 -28.9250
v 373.9250 3.0000 -28.9250
v 373.9250 3.0000 -26.0750
v 371.0750 3.0000 -26.0750
v 371.0750 0.0000 -28.9250
v 373.9250 0.0000 -28.9250
v 373.9250 3.0000 -28.9250
v 371.0750 3.0000 -28.9250
v 373.9250 0.0000 -26.0750
v 371.0750 0.0000 -26.0750
v 371.0750 3.0000 -26.0750
v 373.9250 3.0000 -26.0750
v 373.9250 0.0000 -28.9250
v 373.9250 0.0000 -26.0750
v 373.9250 3.0000 -26.0750
v 373.9250 3.0000 -28.9250
v 371.0750 0.0000 -26.0750
v 371.0750 0.0000 -28.9250
v 371.0750 3.0000 -28.9250
v 371.0750 3.0000 -26.0750
v 371.0750 0.0000 -26.4250
v 373.9250 0.0000 -26.4250
v 373.9250 0.0000 -23.5750
v 371.0750 0.0000 -23.5750
v 371.0750 3.0000 -26.4250
v 373.9250 3.0000 -26.4250
v 373.9250 3.0000 -23.5750
v 371.0750 3.0000 -23.5750
v 354.8250 2.7600 -50.1750
v 355.1750 2.7600 -50.1750
v 355.1750 2.7600 -49.8250
v 354.8250 2.7600 -49.8250
v 354.8250 2.8800 -50.1750
v 355.1750 2.8800 -50.1750
v 355.1750 2.8800 -49.8250
v 354.8250 2.8800 -49.8250
v 369.8250 2.7600 -50.1750
v 370.1750 2.7600 -50.1750
v 370.1750 2.7600 -49.8250
v 369.8250 2.7600 -49.8250
v 369.8250 2.8800 -50.1750
v 370.1750 2.8800 -50.1750
v 370.1750 2.8800 -49.8250
v 369.8250 2.8800 -49.8250
v 374.8250 2.7600 -50.1750
v 375.1750 2.7600 -50.1750
v 375.1750 2.7600 -49.8250
v 374.8250 2.7600 -49.8250
v 374.8250 2.8800 -50.1750
v 375.1750 2.8800 -50.1750
v 375.1750 2.8800 -49.8250
v 374.8250 2.8800 -49.8250
v 374.8250 2.7600 -40.1750
v 375.1750 2.7600 -40.1750
v 375.1750 2.7600 -39.8250
v 374.8250 2.7600 -39.8250
v 374.8250 2.8800 -40.1750
v 375.1750 2.8800 -40.1750
v 375.1750 2.8800 -39.8250
v 374.8250 2.8800 -39.8250
v 354.8250 2.7600 -35.1750
v 355.1750 2.7600 -35.1750
v 355.1750 2.7600 -34.8250
v 354.8250 2.7600 -34.8250
v 354.8250 2.8800 -35.1750
v 355.1750 2.8800 -35.1750
v 355.1750 2.8800 -34.8250
v 354.8250 2.8800 -34.8250
v 364.8250 2.7600 -35.1750
v 365.1750 2.7600 -35.1750
v 365.1750 2.7600 -34.8250
v 364.8250 2.7600 -34.8250
v 364.8250 2.8800 -35.1750
v 365.1750 2.8800 -35.1750
v 365.1750 2.8800 -34.8250
v 364.8250 2.8800 -34.8250
v 349.8250 2.7600 -30.1750
v 350.1750 2.7600 -30.1750
v 350.1750 2.7600 -29.8250
v 349.8250 2.7600 -29.8250
v 349.8250 2.8800 -30.1750
v 350.1750 2.8800 -30.1750
v 350.1750 2.8800 -29.8250
v 349.8250 2.8800 -29.8250
v 374.8250 2.7600 -30.1750
v 375.1750 2.7600 -30.1750
v 375.1750 2.7600 -29.8250
v 374.8250 2.7600 -29.8250
v 374.8250 2.8800 -30.1750
v 375.1750 2.8800 -30.1750
v 375.1750 2.8800 -29.8250
v 374.8250 2.8800 -29.8250
v 354.8250 2.7600 -25.1750
v 355.1750 2.7600 -25.1750
v 355.1750 2.7600 -24.8250
v 354.8250 2.7600 -24.8250
v 354.8250 2.8800 -25.1750
v 355.1750 2.8800 -25.1750
v 355.1750 2.8800 -24.8250
v 354.8250 2.8800 -24.8250
v 359.8250 2.7600 -25.1750
v 360.1750 2.7600 -25.1750
v 360.1750 2.7600 -24.8250
v 359.8250 2.7600 -24.8250
v 359.8250 2.8800 -25.1750
v 360.1750 2.8800 -25.1750
v 360.1750 2.8800 -24.8250
v 359.8250 2.8800 -24.8250
v 374.8250 2.7600 -25.1750
v 375.1750 2.7600 -25.1750
v 375.1750 2.7600 -24.8250
v 374.8250 2.7600 -24.8250
v 374.8250 2.8800 -25.1750
v 375.1750 2.8800 -25.1750
v 375.1750 2.8800 -24.8250
v 374.8250 2.8800 -24.8250
v 347.6200 2.6000 -47.5000
v 347.6200 2.6000 -47.5000
v 347.5849 2.6000 -47.4151
v 347.5849 2.6000 -47.4151
v 347.5000 2.6000 -47.3800
v 347.5000 2.6000 -47.3800
v 347.4151 2.6000 -47.4151
v 347.4151 2.6000 -47.4151
v 347.3800 2.6000 -47.5000
v 347.3800 2.6000 -47.5000
v 347.4151 2.6000 -47.5849
v 347.4151 2.6000 -47.5849
v 347.5000 2.6000 -47.6200
v 347.5000 2.6000 -47.6200
v 347.5849 2.6000 -47.5849
v 347.5849 2.6000 -47.5849
v 347.5000 2.6000 -47.5000
v 347.5000 2.6000 -47.5000
v 347.5000 2.4800 -47.6200
v 375.0000 2.4800 -47.6200
v 375.0000 2.4800 -47.3800
v 347.5000 2.4800 -47.3800
v 347.5000 2.7200 -47.6200
v 375.0000 2.7200 -47.6200
v 375.0000 2.7200 -47.3800
v 347.5000 2.7200 -47.3800
v 347.6200 2.6000 -42.5000
v 347.6200 2.6000 -42.5000
v 347.5849 2.6000 -42.4151
v 347.5849 2.6000 -42.4151
v 347.5000 2.6000 -42.3800
v 347.5000 2.6000 -42.3800
v 347.4151 2.6000 -42.4151
v 347.4151 2.6000 -42.4151
v 347.3800 2.6000 -42.5000
v 347.3800 2.6000 -42.5000
v 347.4151 2.6000 -42.5849
v 347.4151 2.6000 -42.5849
v 347.5000 2.6000 -42.6200
v 347.5000 2.6000 -42.6200
v 347.5849 2.6000 -42.5849
v 347.5849 2.6000 -42.5849
v 347.5000 2.6000 -42.5000
v 347.5000 2.6000 -42.5000
v 347.5000 2.4800 -42.6200
v 375.0000 2.4800 -42.6200
v 375.0000 2.4800 -42.3800
v 347.5000 2.4800 -42.3800
v 347.5000 2.7200 -42.6200
v 375.0000 2.7200 -42.6200
v 375.0000 2.7200 -42.3800
v 347.5000 2.7200 -42.3800
v 347.6200 2.6000 -37.5000
v 347.6200 2.6000 -37.5000
v 347.5849 2.6000 -37.4151
v 347.5849 2.6000 -37.4151
v 347.5000 2.6000 -37.3800
v 347.5000 2.6000 -37.3800
v 347.4151 2.6000 -37.4151
v 347.4151 2.6000 -37.4151
v 347.3800 2.6000 -37.5000
v 347.3800 2.6000 -37.5000
v 347.4151 2.6000 -37.5849
v 347.4151 2.6000 -37.5849
v 347.5000 2.6000 -37.6200
v 347.5000 2.6000 -37.6200
v 347.5849 2.6000 -37.5849
v 347.5849 2.6000 -37.5849
v 347.5000 2.6000 -37.5000
v 347.5000 2.6000 -37.5000
v 347.5000 2.4800 -37.6200
v 375.0000 2.4800 -37.6200
v 375.0000 2.4800 -37.3800
v 347.5000 2.4800 -37.3800
v 347.5000 2.7200 -37.6200
v 375.0000 2.7200 -37.6200
v 375.0000 2.7200 -37.3800
v 347.5000 2.7200 -37.3800
v 347.6200 2.6000 -32.5000
v 347.6200 2.6000 -32.5000
v 347.5849 2.6000 -32.4151
v 347.5849 2.6000 -32.4151
v 347.5000 2.6000 -32.3800
v 347.5000 2.6000 -32.3800
v 347.4151 2.6000 -32.4151
v 347.4151 2.6000 -32.4151
v 347.3800 2.6000 -32.5000
v 347.3800 2.6000 -32.5000
v 347.4151 2.6000 -32.5849
v 347.4151 2.6000 -32.5849
v 347.5000 2.6000 -32.6200
v 347.5000 2.6000 -32.6200
v 347.5849 2.6000 -32.5849
v 347.5849 2.6000 -32.5849
v 347.5000 2.6000 -32.5000
v 347.5000 2.6000 -32.5000
v 347.5000 2.4800 -32.6200
v 375.0000 2.4800 -32.6200
v 375.0000 2.4800 -32.3800
v 347.5000 2.4800 -32.3800
v 347.5000 2.7200 -32.6200
v 375.0000 2.7200 -32.6200
v 375.0000 2.7200 -32.3800
v 347.5000 2.7200 -32.3800
v 347.6200 2.6000 -27.5000
v 347.6200 2.6000 -27.5000
v 347.5849 2.6000 -27.4151
v 347.5849 2.6000 -27.4151
v 347.5000 2.6000 -27.3800
v 347.5000 2.6000 -27.3800
v 347.4151 2.6000 -27.4151
v 347.4151 2.6000 -27.4151
v 347.3800 2.6000 -27.5000
v 347.3800 2.6000 -27.5000
v 347.4151 2.6000 -27.5849
v 347.4151 2.6000 -27.5849
v 347.5000 2.6000 -27.6200
v 347.5000 2.6000 -27.6200
v 347.5849 2.6000 -27.5849
v 347.5849 2.6000 -27.5849
v 347.5000 2.6000 -27.5000
v 347.5000 2.6000 -27.5000
v 347.5000 2.4800 -27.6200
v 375.0000 2.4800 -27.6200
v 375.0000 2.4800 -27.3800
v 347.5000 2.4800 -27.3800
v 347.5000 2.7200 -27.6200
v 375.0000 2.7200 -27.6200
v 375.0000 2.7200 -27.3800
v 347.5000 2.7200 -27.3800
vt 185.5375 -25.7125
vt 185.5375 -24.2875
vt 186.9625 -24.2875
vt 186.9625 -25.7125
vt 185.5375 -25.7125
vt 186.9625 -25.7125
vt 186.9625 -24.2875
vt 185.5375 -24.2875
vt 185.5375 0.0000
vt 186.9625 0.0000
vt 186.9625 1.5000
vt 185.5375 1.5000
vt 186.9625 0.0000
vt 185.5375 0.0000
vt 185.5375 1.5000
vt 186.9625 1.5000
vt -25.7125 0.0000
vt -24.2875 0.0000
vt -24.2875 1.5000
vt -25.7125 1.5000
vt -24.2875 0.0000
vt -25.7125 0.0000
vt -25.7125 1.5000
vt -24.2875 1.5000
vt 175.5375 -24.4625
vt 175.5375 -23.0375
vt 176.9625 -23.0375
vt 176.9625 -24.4625
vt 175.5375 -24.4625
vt 176.9625 -24.4625
vt 176.9625 -23.0375
vt 175.5375 -23.0375
vt 175.5375 0.0000
vt 176.9625 0.0000
vt 176.9625 1.5000
vt 175.5375 1.5000
vt 176.9625 0.0000
vt 175.5375 0.0000
vt 175.5375 1.5000
vt 176.9625 1.5000
vt -24.4625 0.0000
vt -23.0375 0.0000
vt -23.0375 1.5000
vt -24.4625 1.5000
vt -23.0375 0.0000
vt -24.4625 0.0000
vt -24.4625 1.5000
vt -23.0375 1.5000
vt 176.7875 -24.4625
vt 176.7875 -23.0375
vt 178.2125 -23.0375
vt 178.2125 -24.4625
vt 176.7875 -24.4625
vt 178.2125 -24.4625
vt 178.2125 -23.0375
vt 176.7875 -23.0375
vt 176.7875 0.0000
vt 178.2125 0.0000
vt 178.2125 1.5000
vt 176.7875 1.5000
vt 178.2125 0.0000
vt 176.7875 0.0000
vt 176.7875 1.5000
vt 178.2125 1.5000
vt -24.4625 0.0000
vt -23.0375 0.0000
vt -23.0375 1.5000
vt -24.4625 1.5000
vt -23.0375 0.0000
vt -24.4625 0.0000
vt -24.4625 1.5000
vt -23.0375 1.5000
vt 178.0375 -24.4625
vt 178.0375 -23.0375
vt 179.4625 -23.0375
vt 179.4625 -24.4625
vt 178.0375 -24.4625
vt 179.4625 -24.4625
vt 179.4625 -23.0375
vt 178.0375 -23.0375
vt 178.0375 0.0000
vt 179.4625 0.0000
vt 179.4625 1.5000
vt 178.0375 1.5000
vt 179.4625 0.0000
vt 178.0375 0.0000
vt 178.0375 1.5000
vt 179.4625 1.5000
vt -24.4625 0.0000
vt -23.0375 0.0000
vt -23.0375 1.5000
vt -24.4625 1.5000
vt -23.0375 0.0000
vt -24.4625 0.0000
vt -24.4625 1.5000
vt -23.0375 1.5000
vt 179.2875 -24.4625
vt 179.2875 -23.0375
vt 180.7125 -23.0375
vt 180.7125 -24.4625
vt 179.2875 -24.4625
vt 180.7125 -24.4625
vt 180.7125 -23.0375
vt 179.2875 -23.0375
vt 179.2875 0.0000
vt 180.7125 0.0000
vt 180.7125 1.5000
vt 179.2875 1.5000
vt 180.7125 0.0000
vt 179.2875 0.0000
vt 179.2875 1.5000
vt 180.7125 1.5000
vt -24.4625 0.0000
vt -23.0375 0.0000
vt -23.0375 1.5000
vt -24.4625 1.5000
vt -23.0375 0.0000
vt -24.4625 0.0000
vt -24.4625 1.5000
vt -23.0375 1.5000
vt 180.5375 -24.4625
vt 180.5375 -23.0375
vt 181.9625 -23.0375
vt 181.9625 -24.4625
vt 180.5375 -24.4625
vt 181.9625 -24.4625
vt 181.9625 -23.0375
vt 180.5375 -23.0375
vt 180.5375 0.0000
vt 181.9625 0.0000
vt 181.9625 1.5000
vt 180.5375 1.5000
vt 181.9625 0.0000
vt 180.5375 0.0000
vt 180.5375 1.5000
vt 181.9625 1.5000
vt -24.4625 0.0000
vt -23.0375 0.0000
vt -23.0375 1.5000
vt -24.4625 1.5000
vt -23.0375 0.0000
vt -24.4625 0.0000
vt -24.4625 1.5000
vt -23.0375 1.5000
vt 185.5375 -24.4625
vt 185.5375 -23.0375
vt 186.9625 -23.0375
vt 186.9625 -24.4625
vt 185.5375 -24.4625
vt 186.9625 -24.4625
vt 186.9625 -23.0375
vt 185.5375 -23.0375
vt 185.5375 0.0000
vt 186.9625 0.0000
vt 186.9625 1.5000
vt 185.5375 1.5000
vt 186.9625 0.0000
vt 185.5375 0.0000
vt 185.5375 1.5000
vt 186.9625 1.5000
vt -24.4625 0.0000
vt -23.0375 0.0000
vt -23.0375 1.5000
vt -24.4625 1.5000
vt -23.0375 0.0000
vt -24.4625 0.0000
vt -24.4625 1.5000
vt -23.0375 1.5000
vt 175.5375 -23.2125
vt 175.5375 -21.7875
vt 176.9625 -21.7875
vt 176.9625 -23.2125
vt 175.5375 -23.2125
vt 176.9625 -23.2125
vt 176.9625 -21.7875
vt 175.5375 -21.7875
vt 175.5375 0.0000
vt 176.9625 0.0000
vt 176.9625 1.5000
vt 175.5375 1.5000
vt 176.9625 0.0000
vt 175.5375 0.0000
vt 175.5375 1.5000
vt 176.9625 1.5000
vt -23.2125 0.0000
vt -21.7875 0.0000
vt -21.7875 1.5000
vt -23.2125 1.5000
vt -21.7875 0.0000
vt -23.2125 0.0000
vt -23.2125 1.5000
vt -21.7875 1.5000
vt 185.5375 -23.2125
vt 185.5375 -21.7875
vt 186.9625 -21.7875
vt 186.9625 -23.2125
vt 185.5375 -23.2125
vt 186.9625 -23.2125
vt 186.9625 -21.7875
vt 185.5375 -21.7875
vt 185.5375 0.0000
vt 186.9625 0.0000
vt 186.9625 1.5000
vt 185.5375 1.5000
vt 186.9625 0.0000
vt 185.5375 0.0000
vt 185.5375 1.5000
vt 186.9625 1.5000
vt -23.2125 0.0000
vt -21.7875 0.0000
vt -21.7875 1.5000
vt -23.2125 1.5000
vt -21.7875 0.0000
vt -23.2125 0.0000
vt -23.2125 1.5000
vt -21.7875 1.5000
vt 175.5375 -21.9625
vt 175.5375 -20.5375
vt 176.9625 -20.5375
vt 176.9625 -21.9625
vt 175.5375 -21.9625
vt 176.9625 -21.9625
vt 176.9625 -20.5375
vt 175.5375 -20.5375
vt 175.5375 0.0000
vt 176.9625 0.0000
vt 176.9625 1.5000
vt 175.5375 1.5000
vt 176.9625 0.0000
vt 175.5375 0.0000
vt 175.5375 1.5000
vt 176.9625 1.5000
vt -21.9625 0.0000
vt -20.5375 0.0000
vt -20.5375 1.5000
vt -21.9625 1.5000
vt -20.5375 0.0000
vt -21.9625 0.0000
vt -21.9625 1.5000
vt -20.5375 1.5000
vt 178.0375 -21.9625
vt 178.0375 -20.5375
vt 179.4625 -20.5375
vt 179.4625 -21.9625
vt 178.0375 -21.9625
vt 179.4625 -21.9625
vt 179.4625 -20.5375
vt 178.0375 -20.5375
vt 178.0375 0.0000
vt 179.4625 0.0000
vt 179.4625 1.5000
vt 178.0375 1.5000
vt 179.4625 0.0000
vt 178.0375 0.0000
vt 178.0375 1.5000
vt 179.4625 1.5000
vt -21.9625 0.0000
vt -20.5375 0.0000
vt -20.5375 1.5000
vt -21.9625 1.5000
vt -20.5375 0.0000
vt -21.9625 0.0000
vt -21.9625 1.5000
vt -20.5375 1.5000
vt 179.2875 -21.9625
vt 179.2875 -20.5375
vt 180.7125 -20.5375
vt 180.7125 -21.9625
vt 179.2875 -21.9625
vt 180.7125 -21.9625
vt 180.7125 -20.5375
vt 179.2875 -20.5375
vt 179.2875 0.0000
vt 180.7125 0.0000
vt 180.7125 1.5000
vt 179.2875 1.5000
vt 180.7125 0.0000
vt 179.2875 0.0000
vt 179.2875 1.5000
vt 180.7125 1.5000
vt -21.9625 0.0000
vt -20.5375 0.0000
vt -20.5375 1.5000
vt -21.9625 1.5000
vt -20.5375 0.0000
vt -21.9625 0.0000
vt -21.9625 1.5000
vt -20.5375 1.5000
vt 180.5375 -21.9625
vt 180.5375 -20.5375
vt 181.9625 -20.5375
vt 181.9625 -21.9625
vt 180.5375 -21.9625
vt 181.9625 -21.9625
vt 181.9625 -20.5375
vt 180.5375 -20.5375
vt 180.5375 0.0000
vt 181.9625 0.0000
vt 181.9625 1.5000
vt 180.5375 1.5000
vt 181.9625 0.0000
vt 180.5375 0.0000
vt 180.5375 1.5000
vt 181.9625 1.5000
vt -21.9625 0.0000
vt -20.5375 0.0000
vt -20.5375 1.5000
vt -21.9625 1.5000
vt -20.5375 0.0000
vt -21.9625 0.0000
vt -21.9625 1.5000
vt -20.5375 1.5000
vt 181.7875 -21.9625
vt 181.7875 -20.5375
vt 183.2125 -20.5375
vt 183.2125 -21.9625
vt 181.7875 -21.9625
vt 183.2125 -21.9625
vt 183.2125 -20.5375
vt 181.7875 -20.5375
vt 181.7875 0.0000
vt 183.2125 0.0000
vt 183.2125 1.5000
vt 181.7875 1.5000
vt 183.2125 0.0000
vt 181.7875 0.0000
vt 181.7875 1.5000
vt 183.2125 1.5000
vt -21.9625 0.0000
vt -20.5375 0.0000
vt -20.5375 1.5000
vt -21.9625 1.5000
vt -20.5375 0.0000
vt -21.9625 0.0000
vt -21.9625 1.5000
vt -20.5375 1.5000
vt 183.0375 -21.9625
vt 183.0375 -20.5375
vt 184.4625 -20.5375
vt 184.4625 -21.9625
vt 183.0375 -21.9625
vt 184.4625 -21.9625
vt 184.4625 -20.5375
vt 183.0375 -20.5375
vt 183.0375 0.0000
vt 184.4625 0.0000
vt 184.4625 1.5000
vt 183.0375 1.5000
vt 184.4625 0.0000
vt 183.0375 0.0000
vt 183.0375 1.5000
vt 184.4625 1.5000
vt -21.9625 0.0000
vt -20.5375 0.0000
vt -20.5375 1.5000
vt -21.9625 1.5000
vt -20.5375 0.0000
vt -21.9625 0.0000
vt -21.9625 1.5000
vt -20.5375 1.5000
vt 185.5375 -21.9625
vt 185.5375 -20.5375
vt 186.9625 -20.5375
vt 186.9625 -21.9625
vt 185.5375 -21.9625
vt 186.9625 -21.9625
vt 186.9625 -20.5375
vt 185.5375 -20.5375
vt 185.5375 0.0000
vt 186.9625 0.0000
vt 186.9625 1.5000
vt 185.5375 1.5000
vt 186.9625 0.0000
vt 185.5375 0.0000
vt 185.5375 1.5000
vt 186.9625 1.5000
vt -21.9625 0.0000
vt -20.5375 0.0000
vt -20.5375 1.5000
vt -21.9625 1.5000
vt -20.5375 0.0000
vt -21.9625 0.0000
vt -21.9625 1.5000
vt -20.5375 1.5000
vt 183.0375 -20.7125
vt 183.0375 -19.2875
vt 184.4625 -19.2875
vt 184.4625 -20.7125
vt 183.0375 -20.7125
vt 184.4625 -20.7125
vt 184.4625 -19.2875
vt 183.0375 -19.2875
vt 183.0375 0.0000
vt 184.4625 0.0000
vt 184.4625 1.5000
vt 183.0375 1.5000
vt 184.4625 0.0000
vt 183.0375 0.0000
vt 183.0375 1.5000
vt 184.4625 1.5000
vt -20.7125 0.0000
vt -19.2875 0.0000
vt -19.2875 1.5000
vt -20.7125 1.5000
vt -19.2875 0.0000
vt -20.7125 0.0000
vt -20.7125 1.5000
vt -19.2875 1.5000
vt 175.5375 -19.4625
vt 175.5375 -18.0375
vt 176.9625 -18.0375
vt 176.9625 -19.4625
vt 175.5375 -19.4625
vt 176.9625 -19.4625
vt 176.9625 -18.0375
vt 175.5375 -18.0375
vt 175.5375 0.0000
vt 176.9625 0.0000
vt 176.9625 1.5000
vt 175.5375 1.5000
vt 176.9625 0.0000
vt 175.5375 0.0000
vt 175.5375 1.5000
vt 176.9625 1.5000
vt -19.4625 0.0000
vt -18.0375 0.0000
vt -18.0375 1.5000
vt -19.4625 1.5000
vt -18.0375 0.0000
vt -19.4625 0.0000
vt -19.4625 1.5000
vt -18.0375 1.5000
vt 180.5375 -19.4625
vt 180.5375 -18.0375
vt 181.9625 -18.0375
vt 181.9625 -19.4625
vt 180.5375 -19.4625
vt 181.9625 -19.4625
vt 181.9625 -18.0375
vt 180.5375 -18.0375
vt 180.5375 0.0000
vt 181.9625 0.0000
vt 181.9625 1.5000
vt 180.5375 1.5000
vt 181.9625 0.0000
vt 180.5375 0.0000
vt 180.5375 1.5000
vt 181.9625 1.5000
vt -19.4625 0.0000
vt -18.0375 0.0000
vt -18.0375 1.5000
vt -19.4625 1.5000
vt -18.0375 0.0000
vt -19.4625 0.0000
vt -19.4625 1.5000
vt -18.0375 1.5000
vt 183.0375 -19.4625
vt 183.0375 -18.0375
vt 184.4625 -18.0375
vt 184.4625 -19.4625
vt 183.0375 -19.4625
vt 184.4625 -19.4625
vt 184.4625 -18.0375
vt 183.0375 -18.0375
vt 183.0375 0.0000
vt 184.4625 0.0000
vt 184.4625 1.5000
vt 183.0375 1.5000
vt 184.4625 0.0000
vt 183.0375 0.0000
vt 183.0375 1.5000
vt 184.4625 1.5000
vt -19.4625 0.0000
vt -18.0375 0.0000
vt -18.0375 1.5000
vt -19.4625 1.5000
vt -18.0375 0.0000
vt -19.4625 0.0000
vt -19.4625 1.5000
vt -18.0375 1.5000
vt 185.5375 -19.4625
vt 185.5375 -18.0375
vt 186.9625 -18.0375
vt 186.9625 -19.4625
vt 185.5375 -19.4625
vt 186.9625 -19.4625
vt 186.9625 -18.0375
vt 185.5375 -18.0375
vt 185.5375 0.0000
vt 186.9625 0.0000
vt 186.9625 1.5000
vt 185.5375 1.5000
vt 186.9625 0.0000
vt 185.5375 0.0000
vt 185.5375 1.5000
vt 186.9625 1.5000
vt -19.4625 0.0000
vt -18.0375 0.0000
vt -18.0375 1.5000
vt -19.4625 1.5000
vt -18.0375 0.0000
vt -19.4625 0.0000
vt -19.4625 1.5000
vt -18.0375 1.5000
vt 186.7875 -19.4625
vt 186.7875 -18.0375
vt 188.2125 -18.0375
vt 188.2125 -19.4625
vt 186.7875 -19.4625
vt 188.2125 -19.4625
vt 188.2125 -18.0375
vt 186.7875 -18.0375
vt 186.7875 0.0000
vt 188.2125 0.0000
vt 188.2125 1.5000
vt 186.7875 1.5000
vt 188.2125 0.0000
vt 186.7875 0.0000
vt 186.7875 1.5000
vt 188.2125 1.5000
vt -19.4625 0.0000
vt -18.0375 0.0000
vt -18.0375 1.5000
vt -19.4625 1.5000
vt -18.0375 0.0000
vt -19.4625 0.0000
vt -19.4625 1.5000
vt -18.0375 1.5000
vt 175.5375 -18.2125
vt 175.5375 -16.7875
vt 176.9625 -16.7875
vt 176.9625 -18.2125
vt 175.5375 -18.2125
vt 176.9625 -18.2125
vt 176.9625 -16.7875
vt 175.5375 -16.7875
vt 175.5375 0.0000
vt 176.9625 0.0000
vt 176.9625 1.5000
vt 175.5375 1.5000
vt 176.9625 0.0000
vt 175.5375 0.0000
vt 175.5375 1.5000
vt 176.9625 1.5000
vt -18.2125 0.0000
vt -16.7875 0.0000
vt -16.7875 1.5000
vt -18.2125 1.5000
vt -16.7875 0.0000
vt -18.2125 0.0000
vt -18.2125 1.5000
vt -16.7875 1.5000
vt 178.0375 -18.2125
vt 178.0375 -16.7875
vt 179.4625 -16.7875
vt 179.4625 -18.2125
vt 178.0375 -18.2125
vt 179.4625 -18.2125
vt 179.4625 -16.7875
vt 178.0375 -16.7875
vt 178.0375 0.0000
vt 179.4625 0.0000
vt 179.4625 1.5000
vt 178.0375 1.5000
vt 179.4625 0.0000
vt 178.0375 0.0000
vt 178.0375 1.5000
vt 179.4625 1.5000
vt -18.2125 0.0000
vt -16.7875 0.0000
vt -16.7875 1.5000
vt -18.2125 1.5000
vt -16.7875 0.0000
vt -18.2125 0.0000
vt -18.2125 1.5000
vt -16.7875 1.5000
vt 180.5375 -18.2125
vt 180.5375 -16.7875
vt 181.9625 -16.7875
vt 181.9625 -18.2125
vt 180.5375 -18.2125
vt 181.9625 -18.2125
vt 181.9625 -16.7875
vt 180.5375 -16.7875
vt 180.5375 0.0000
vt 181.9625 0.0000
vt 181.9625 1.5000
vt 180.5375 1.5000
vt 181.9625 0.0000
vt 180.5375 0.0000
vt 180.5375 1.5000
vt 181.9625 1.5000
vt -18.2125 0.0000
vt -16.7875 0.0000
vt -16.7875 1.5000
vt -18.2125 1.5000
vt -16.7875 0.0000
vt -18.2125 0.0000
vt -18.2125 1.5000
vt -16.7875 1.5000
vt 183.0375 -18.2125
vt 183.0375 -16.7875
vt 184.4625 -16.7875
vt 184.4625 -18.2125
vt 183.0375 -18.2125
vt 184.4625 -18.2125
vt 184.4625 -16.7875
vt 183.0375 -16.7875
vt 183.0375 0.0000
vt 184.4625 0.0000
vt 184.4625 1.5000
vt 183.0375 1.5000
vt 184.4625 0.0000
vt 183.0375 0.0000
vt 183.0375 1.5000
vt 184.4625 1.5000
vt -18.2125 0.0000
vt -16.7875 0.0000
vt -16.7875 1.5000
vt -18.2125 1.5000
vt -16.7875 0.0000
vt -18.2125 0.0000
vt -18.2125 1.5000
vt -16.7875 1.5000
vt 180.5375 -16.9625
vt 180.5375 -15.5375
vt 181.9625 -15.5375
vt 181.9625 -16.9625
vt 180.5375 -16.9625
vt 181.9625 -16.9625
vt 181.9625 -15.5375
vt 180.5375 -15.5375
vt 180.5375 0.0000
vt 181.9625 0.0000
vt 181.9625 1.5000
vt 180.5375 1.5000
vt 181.9625 0.0000
vt 180.5375 0.0000
vt 180.5375 1.5000
vt 181.9625 1.5000
vt -16.9625 0.0000
vt -15.5375 0.0000
vt -15.5375 1.5000
vt -16.9625 1.5000
vt -15.5375 0.0000
vt -16.9625 0.0000
vt -16.9625 1.5000
vt -15.5375 1.5000
vt 175.5375 -15.7125
vt 175.5375 -14.2875
vt 176.9625 -14.2875
vt 176.9625 -15.7125
vt 175.5375 -15.7125
vt 176.9625 -15.7125
vt 176.9625 -14.2875
vt 175.5375 -14.2875
vt 175.5375 0.0000
vt 176.9625 0.0000
vt 176.9625 1.5000
vt 175.5375 1.5000
vt 176.9625 0.0000
vt 175.5375 0.0000
vt 175.5375 1.5000
vt 176.9625 1.5000
vt -15.7125 0.0000
vt -14.2875 0.0000
vt -14.2875 1.5000
vt -15.7125 1.5000
vt -14.2875 0.0000
vt -15.7125 0.0000
vt -15.7125 1.5000
vt -14.2875 1.5000
vt 175.5375 -14.4625
vt 175.5375 -13.0375
vt 176.9625 -13.0375
vt 176.9625 -14.4625
vt 175.5375 -14.4625
vt 176.9625 -14.4625
vt 176.9625 -13.0375
vt 175.5375 -13.0375
vt 175.5375 0.0000
vt 176.9625 0.0000
vt 176.9625 1.5000
vt 175.5375 1.5000
vt 176.9625 0.0000
vt 175.5375 0.0000
vt 175.5375 1.5000
vt 176.9625 1.5000
vt -14.4625 0.0000
vt -13.0375 0.0000
vt -13.0375 1.5000
vt -14.4625 1.5000
vt -13.0375 0.0000
vt -14.4625 0.0000
vt -14.4625 1.5000
vt -13.0375 1.5000
vt 176.7875 -14.4625
vt 176.7875 -13.0375
vt 178.2125 -13.0375
vt 178.2125 -14.4625
vt 176.7875 -14.4625
vt 178.2125 -14.4625
vt 178.2125 -13.0375
vt 176.7875 -13.0375
vt 176.7875 0.0000
vt 178.2125 0.0000
vt 178.2125 1.5000
vt 176.7875 1.5000
vt 178.2125 0.0000
vt 176.7875 0.0000
vt 176.7875 1.5000
vt 178.2125 1.5000
vt -14.4625 0.0000
vt -13.0375 0.0000
vt -13.0375 1.5000
vt -14.4625 1.5000
vt -13.0375 0.0000
vt -14.4625 0.0000
vt -14.4625 1.5000
vt -13.0375 1.5000
vt 178.0375 -14.4625
vt 178.0375 -13.0375
vt 179.4625 -13.0375
vt 179.4625 -14.4625
vt 178.0375 -14.4625
vt 179.4625 -14.4625
vt 179.4625 -13.0375
vt 178.0375 -13.0375
vt 178.0375 0.0000
vt 179.4625 0.0000
vt 179.4625 1.5000
vt 178.0375 1.5000
vt 179.4625 0.0000
vt 178.0375 0.0000
vt 178.0375 1.5000
vt 179.4625 1.5000
vt -14.4625 0.0000
vt -13.0375 0.0000
vt -13.0375 1.5000
vt -14.4625 1.5000
vt -13.0375 0.0000
vt -14.4625 0.0000
vt -14.4625 1.5000
vt -13.0375 1.5000
vt 179.2875 -14.4625
vt 179.2875 -13.0375
vt 180.7125 -13.0375
vt 180.7125 -14.4625
vt 179.2875 -14.4625
vt 180.7125 -14.4625
vt 180.7125 -13.0375
vt 179.2875 -13.0375
vt 179.2875 0.0000
vt 180.7125 0.0000
vt 180.7125 1.5000
vt 179.2875 1.5000
vt 180.7125 0.0000
vt 179.2875 0.0000
vt 179.2875 1.5000
vt 180.7125 1.5000
vt -14.4625 0.0000
vt -13.0375 0.0000
vt -13.0375 1.5000
vt -14.4625 1.5000
vt -13.0375 0.0000
vt -14.4625 0.0000
vt -14.4625 1.5000
vt -13.0375 1.5000
vt 181.7875 -14.4625
vt 181.7875 -13.0375
vt 183.2125 -13.0375
vt 183.2125 -14.4625
vt 181.7875 -14.4625
vt 183.2125 -14.4625
vt 183.2125 -13.0375
vt 181.7875 -13.0375
vt 181.7875 0.0000
vt 183.2125 0.0000
vt 183.2125 1.5000
vt 181.7875 1.5000
vt 183.2125 0.0000
vt 181.7875 0.0000
vt 181.7875 1.5000
vt 183.2125 1.5000
vt -14.4625 0.0000
vt -13.0375 0.0000
vt -13.0375 1.5000
vt -14.4625 1.5000
vt -13.0375 0.0000
vt -14.4625 0.0000
vt -14.4625 1.5000
vt -13.0375 1.5000
vt 183.0375 -14.4625
vt 183.0375 -13.0375
vt 184.4625 -13.0375
vt 184.4625 -14.4625
vt 183.0375 -14.4625
vt 184.4625 -14.4625
vt 184.4625 -13.0375
vt 183.0375 -13.0375
vt 183.0375 0.0000
vt 184.4625 0.0000
vt 184.4625 1.5000
vt 183.0375 1.5000
vt 184.4625 0.0000
vt 183.0375 0.0000
vt 183.0375 1.5000
vt 184.4625 1.5000
vt -14.4625 0.0000
vt -13.0375 0.0000
vt -13.0375 1.5000
vt -14.4625 1.5000
vt -13.0375 0.0000
vt -14.4625 0.0000
vt -14.4625 1.5000
vt -13.0375 1.5000
vt 185.5375 -14.4625
vt 185.5375 -13.0375
vt 186.9625 -13.0375
vt 186.9625 -14.4625
vt 185.5375 -14.4625
vt 186.9625 -14.4625
vt 186.9625 -13.0375
vt 185.5375 -13.0375
vt 185.5375 0.0000
vt 186.9625 0.0000
vt 186.9625 1.5000
vt 185.5375 1.5000
vt 186.9625 0.0000
vt 185.5375 0.0000
vt 185.5375 1.5000
vt 186.9625 1.5000
vt -14.4625 0.0000
vt -13.0375 0.0000
vt -13.0375 1.5000
vt -14.4625 1.5000
vt -13.0375 0.0000
vt -14.4625 0.0000
vt -14.4625 1.5000
vt -13.0375 1.5000
usemtl rust
f 385 388 387 386
f 389 390 391 392
f 385 386 390 389
f 387 388 392 391
f 386 387 391 390
f 388 385 389 392
f 393 396 395 394
f 397 398 399 400
f 393 394 398 397
f 395 396 400 399
f 394 395 399 398
f 396 393 397 400
f 449 452 451 450
f 453 454 455 456
f 449 450 454 453
f 451 452 456 455
f 450 451 455 454
f 452 449 453 456
f 649 652 651 650
f 653 654 655 656
f 649 650 654 653
f 651 652 656 655
f 650 651 655 654
f 652 649 653 656
f 657 660 659 658
f 661 662 663 664
f 657 658 662 661
f 659 660 664 663
f 658 659 663 662
f 660 657 661 664
f 689 692 691 690
f 693 694 695 696
f 689 690 694 693
f 691 692 696 695
f 690 691 695 694
f 692 689 693 696
f 697 700 699 698
f 701 702 703 704
f 697 698 702 701
f 699 700 704 703
f 698 699 703 702
f 700 697 701 704
f 729 732 731 730
f 733 734 735 736
f 729 730 734 733
f 731 732 736 735
f 730 731 735 734
f 732 729 733 736
f 737 740 739 738
f 741 742 743 744
f 737 738 742 741
f 739 740 744 743
f 738 739 743 742
f 740 737 741 744
f 841 844 843 842
f 845 846 847 848
f 841 842 846 845
f 843 844 848 847
f 842 843 847 846
f 844 841 845 848
f 921 924 923 922
f 925 926 927 928
f 921 922 926 925
f 923 924 928 927
f 922 923 927 926
f 924 921 925 928
usemtl lamp_sick
f 929 932 931 930
f 933 934 935 936
f 929 930 934 933
f 931 932 936 935
f 930 931 935 934
f 932 929 933 936
f 937 940 939 938
f 941 942 943 944
f 937 938 942 941
f 939 940 944 943
f 938 939 943 942
f 940 937 941 944
f 945 948 947 946
f 949 950 951 952
f 945 946 950 949
f 947 948 952 951
f 946 947 951 950
f 948 945 949 952
f 953 956 955 954
f 957 958 959 960
f 953 954 958 957
f 955 956 960 959
f 954 955 959 958
f 956 953 957 960
f 961 964 963 962
f 965 966 967 968
f 961 962 966 965
f 963 964 968 967
f 962 963 967 966
f 964 961 965 968
f 969 972 971 970
f 973 974 975 976
f 969 970 974 973
f 971 972 976 975
f 970 971 975 974
f 972 969 973 976
f 977 980 979 978
f 981 982 983 984
f 977 978 982 981
f 979 980 984 983
f 978 979 983 982
f 980 977 981 984
f 985 988 987 986
f 989 990 991 992
f 985 986 990 989
f 987 988 992 991
f 986 987 991 990
f 988 985 989 992
f 993 996 995 994
f 997 998 999 1000
f 993 994 998 997
f 995 996 1000 999
f 994 995 999 998
f 996 993 997 1000
f 1001 1004 1003 1002
f 1005 1006 1007 1008
f 1001 1002 1006 1005
f 1003 1004 1008 1007
f 1002 1003 1007 1006
f 1004 1001 1005 1008
f 1009 1012 1011 1010
f 1013 1014 1015 1016
f 1009 1010 1014 1013
f 1011 1012 1016 1015
f 1010 1011 1015 1014
f 1012 1009 1013 1016
usemtl rust
f 1017 1019 1020 1018
f 1019 1021 1022 1020
f 1021 1023 1024 1022
f 1023 1025 1026 1024
f 1025 1027 1028 1026
f 1027 1029 1030 1028
f 1029 1031 1032 1030
f 1031 1017 1018 1032
f 1033 1018 1020
f 1034 1019 1017
f 1033 1020 1022
f 1034 1021 1019
f 1033 1022 1024
f 1034 1023 1021
f 1033 1024 1026
f 1034 1025 1023
f 1033 1026 1028
f 1034 1027 1025
f 1033 1028 1030
f 1034 1029 1027
f 1033 1030 1032
f 1034 1031 1029
f 1033 1032 1018
f 1034 1017 1031
f 1035 1038 1037 1036
f 1039 1040 1041 1042
f 1035 1036 1040 1039
f 1037 1038 1042 1041
f 1036 1037 1041 1040
f 1038 1035 1039 1042
f 1043 1045 1046 1044
f 1045 1047 1048 1046
f 1047 1049 1050 1048
f 1049 1051 1052 1050
f 1051 1053 1054 1052
f 1053 1055 1056 1054
f 1055 1057 1058 1056
f 1057 1043 1044 1058
f 1059 1044 1046
f 1060 1045 1043
f 1059 1046 1048
f 1060 1047 1045
f 1059 1048 1050
f 1060 1049 1047
f 1059 1050 1052
f 1060 1051 1049
f 1059 1052 1054
f 1060 1053 1051
f 1059 1054 1056
f 1060 1055 1053
f 1059 1056 1058
f 1060 1057 1055
f 1059 1058 1044
f 1060 1043 1057
f 1061 1064 1063 1062
f 1065 1066 1067 1068
f 1061 1062 1066 1065
f 1063 1064 1068 1067
f 1062 1063 1067 1066
f 1064 1061 1065 1068
usemtl pipe
f 1069 1071 1072 1070
f 1071 1073 1074 1072
f 1073 1075 1076 1074
f 1075 1077 1078 1076
f 1077 1079 1080 1078
f 1079 1081 1082 1080
f 1081 1083 1084 1082
f 1083 1069 1070 1084
f 1085 1070 1072
f 1086 1071 1069
f 1085 1072 1074
f 1086 1073 1071
f 1085 1074 1076
f 1086 1075 1073
f 1085 1076 1078
f 1086 1077 1075
f 1085 1078 1080
f 1086 1079 1077
f 1085 1080 1082
f 1086 1081 1079
f 1085 1082 1084
f 1086 1083 1081
f 1085 1084 1070
f 1086 1069 1083
f 1087 1090 1089 1088
f 1091 1092 1093 1094
f 1087 1088 1092 1091
f 1089 1090 1094 1093
f 1088 1089 1093 1092
f 1090 1087 1091 1094
f 1095 1097 1098 1096
f 1097 1099 1100 1098
f 1099 1101 1102 1100
f 1101 1103 1104 1102
f 1103 1105 1106 1104
f 1105 1107 1108 1106
f 1107 1109 1110 1108
f 1109 1095 1096 1110
f 1111 1096 1098
f 1112 1097 1095
f 1111 1098 1100
f 1112 1099 1097
f 1111 1100 1102
f 1112 1101 1099
f 1111 1102 1104
f 1112 1103 1101
f 1111 1104 1106
f 1112 1105 1103
f 1111 1106 1108
f 1112 1107 1105
f 1111 1108 1110
f 1112 1109 1107
f 1111 1110 1096
f 1112 1095 1109
f 1113 1116 1115 1114
f 1117 1118 1119 1120
f 1113 1114 1118 1117
f 1115 1116 1120 1119
f 1114 1115 1119 1118
f 1116 1113 1117 1120
usemtl rust
f 1121 1123 1124 1122
f 1123 1125 1126 1124
f 1125 1127 1128 1126
f 1127 1129 1130 1128
f 1129 1131 1132 1130
f 1131 1133 1134 1132
f 1133 1135 1136 1134
f 1135 1121 1122 1136
f 1137 1122 1124
f 1138 1123 1121
f 1137 1124 1126
f 1138 1125 1123
f 1137 1126 1128
f 1138 1127 1125
f 1137 1128 1130
f 1138 1129 1127
f 1137 1130 1132
f 1138 1131 1129
f 1137 1132 1134
f 1138 1133 1131
f 1137 1134 1136
f 1138 1135 1133
f 1137 1136 1122
f 1138 1121 1135
f 1139 1142 1141 1140
f 1143 1144 1145 1146
f 1139 1140 1144 1143
f 1141 1142 1146 1145
f 1140 1141 1145 1144
f 1142 1139 1143 1146
usemtl grime_wall
f 1/1 2/2 3/3 4/4
f 5/5 6/6 7/7 8/8
f 9/9 10/10 11/11 12/12
f 13/13 14/14 15/15 16/16
f 17/17 18/18 19/19 20/20
f 21/21 22/22 23/23 24/24
f 25/25 26/26 27/27 28/28
f 29/29 30/30 31/31 32/32
f 33/33 34/34 35/35 36/36
f 37/37 38/38 39/39 40/40
f 41/41 42/42 43/43 44/44
f 45/45 46/46 47/47 48/48
f 49/49 50/50 51/51 52/52
f 53/53 54/54 55/55 56/56
f 57/57 58/58 59/59 60/60
f 61/61 62/62 63/63 64/64
f 65/65 66/66 67/67 68/68
f 69/69 70/70 71/71 72/72
f 73/73 74/74 75/75 76/76
f 77/77 78/78 79/79 80/80
f 81/81 82/82 83/83 84/84
f 85/85 86/86 87/87 88/88
f 89/89 90/90 91/91 92/92
f 93/93 94/94 95/95 96/96
f 97/97 98/98 99/99 100/100
f 101/101 102/102 103/103 104/104
f 105/105 106/106 107/107 108/108
f 109/109 110/110 111/111 112/112
f 113/113 114/114 115/115 116/116
f 117/117 118/118 119/119 120/120
f 121/121 122/122 123/123 124/124
f 125/125 126/126 127/127 128/128
f 129/129 130/130 131/131 132/132
f 133/133 134/134 135/135 136/136
f 137/137 138/138 139/139 140/140
f 141/141 142/142 143/143 144/144
f 145/145 146/146 147/147 148/148
f 149/149 150/150 151/151 152/152
f 153/153 154/154 155/155 156/156
f 157/157 158/158 159/159 160/160
f 161/161 162/162 163/163 164/164
f 165/165 166/166 167/167 168/168
f 169/169 170/170 171/171 172/172
f 173/173 174/174 175/175 176/176
f 177/177 178/178 179/179 180/180
f 181/181 182/182 183/183 184/184
f 185/185 186/186 187/187 188/188
f 189/189 190/190 191/191 192/192
f 193/193 194/194 195/195 196/196
f 197/197 198/198 199/199 200/200
f 201/201 202/202 203/203 204/204
f 205/205 206/206 207/207 208/208
f 209/209 210/210 211/211 212/212
f 213/213 214/214 215/215 216/216
f 217/217 218/218 219/219 220/220
f 221/221 222/222 223/223 224/224
f 225/225 226/226 227/227 228/228
f 229/229 230/230 231/231 232/232
f 233/233 234/234 235/235 236/236
f 237/237 238/238 239/239 240/240
f 241/241 242/242 243/243 244/244
f 245/245 246/246 247/247 248/248
f 249/249 250/250 251/251 252/252
f 253/253 254/254 255/255 256/256
f 257/257 258/258 259/259 260/260
f 261/261 262/262 263/263 264/264
f 265/265 266/266 267/267 268/268
f 269/269 270/270 271/271 272/272
f 273/273 274/274 275/275 276/276
f 277/277 278/278 279/279 280/280
f 281/281 282/282 283/283 284/284
f 285/285 286/286 287/287 288/288
f 289/289 290/290 291/291 292/292
f 293/293 294/294 295/295 296/296
f 297/297 298/298 299/299 300/300
f 301/301 302/302 303/303 304/304
f 305/305 306/306 307/307 308/308
f 309/309 310/310 311/311 312/312
f 313/313 314/314 315/315 316/316
f 317/317 318/318 319/319 320/320
f 321/321 322/322 323/323 324/324
f 325/325 326/326 327/327 328/328
f 329/329 330/330 331/331 332/332
f 333/333 334/334 335/335 336/336
f 337/337 338/338 339/339 340/340
f 341/341 342/342 343/343 344/344
f 345/345 346/346 347/347 348/348
f 349/349 350/350 351/351 352/352
f 353/353 354/354 355/355 356/356
f 357/357 358/358 359/359 360/360
f 361/361 362/362 363/363 364/364
f 365/365 366/366 367/367 368/368
f 369/369 370/370 371/371 372/372
f 373/373 374/374 375/375 376/376
f 377/377 378/378 379/379 380/380
f 381/381 382/382 383/383 384/384
f 401/385 402/386 403/387 404/388
f 405/389 406/390 407/391 408/392
f 409/393 410/394 411/395 412/396
f 413/397 414/398 415/399 416/400
f 417/401 418/402 419/403 420/404
f 421/405 422/406 423/407 424/408
f 425/409 426/410 427/411 428/412
f 429/413 430/414 431/415 432/416
f 433/417 434/418 435/419 436/420
f 437/421 438/422 439/423 440/424
f 441/425 442/426 443/427 444/428
f 445/429 446/430 447/431 448/432
f 457/433 458/434 459/435 460/436
f 461/437 462/438 463/439 464/440
f 465/441 466/442 467/443 468/444
f 469/445 470/446 471/447 472/448
f 473/449 474/450 475/451 476/452
f 477/453 478/454 479/455 480/456
f 481/457 482/458 483/459 484/460
f 485/461 486/462 487/463 488/464
f 489/465 490/466 491/467 492/468
f 493/469 494/470 495/471 496/472
f 497/473 498/474 499/475 500/476
f 501/477 502/478 503/479 504/480
f 505/481 506/482 507/483 508/484
f 509/485 510/486 511/487 512/488
f 513/489 514/490 515/491 516/492
f 517/493 518/494 519/495 520/496
f 521/497 522/498 523/499 524/500
f 525/501 526/502 527/503 528/504
f 529/505 530/506 531/507 532/508
f 533/509 534/510 535/511 536/512
f 537/513 538/514 539/515 540/516
f 541/517 542/518 543/519 544/520
f 545/521 546/522 547/523 548/524
f 549/525 550/526 551/527 552/528
f 553/529 554/530 555/531 556/532
f 557/533 558/534 559/535 560/536
f 561/537 562/538 563/539 564/540
f 565/541 566/542 567/543 568/544
f 569/545 570/546 571/547 572/548
f 573/549 574/550 575/551 576/552
f 577/553 578/554 579/555 580/556
f 581/557 582/558 583/559 584/560
f 585/561 586/562 587/563 588/564
f 589/565 590/566 591/567 592/568
f 593/569 594/570 595/571 596/572
f 597/573 598/574 599/575 600/576
f 601/577 602/578 603/579 604/580
f 605/581 606/582 607/583 608/584
f 609/585 610/586 611/587 612/588
f 613/589 614/590 615/591 616/592
f 617/593 618/594 619/595 620/596
f 621/597 622/598 623/599 624/600
f 625/601 626/602 627/603 628/604
f 629/605 630/606 631/607 632/608
f 633/609 634/610 635/611 636/612
f 637/613 638/614 639/615 640/616
f 641/617 642/618 643/619 644/620
f 645/621 646/622 647/623 648/624
f 665/625 666/626 667/627 668/628
f 669/629 670/630 671/631 672/632
f 673/633 674/634 675/635 676/636
f 677/637 678/638 679/639 680/640
f 681/641 682/642 683/643 684/644
f 685/645 686/646 687/647 688/648
f 705/649 706/650 707/651 708/652
f 709/653 710/654 711/655 712/656
f 713/657 714/658 715/659 716/660
f 717/661 718/662 719/663 720/664
f 721/665 722/666 723/667 724/668
f 725/669 726/670 727/671 728/672
f 745/673 746/674 747/675 748/676
f 749/677 750/678 751/679 752/680
f 753/681 754/682 755/683 756/684
f 757/685 758/686 759/687 760/688
f 761/689 762/690 763/691 764/692
f 765/693 766/694 767/695 768/696
f 769/697 770/698 771/699 772/700
f 773/701 774/702 775/703 776/704
f 777/705 778/706 779/707 780/708
f 781/709 782/710 783/711 784/712
f 785/713 786/714 787/715 788/716
f 789/717 790/718 791/719 792/720
f 793/721 794/722 795/723 796/724
f 797/725 798/726 799/727 800/728
f 801/729 802/730 803/731 804/732
f 805/733 806/734 807/735 808/736
f 809/737 810/738 811/739 812/740
f 813/741 814/742 815/743 816/744
f 817/745 818/746 819/747 820/748
f 821/749 822/750 823/751 824/752
f 825/753 826/754 827/755 828/756
f 829/757 830/758 831/759 832/760
f 833/761 834/762 835/763 836/764
f 837/765 838/766 839/767 840/768
f 849/769 850/770 851/771 852/772
f 853/773 854/774 855/775 856/776
f 857/777 858/778 859/779 860/780
f 861/781 862/782 863/783 864/784
f 865/785 866/786 867/787 868/788
f 869/789 870/790 871/791 872/792
f 873/793 874/794 875/795 876/796
f 877/797 878/798 879/799 880/800
f 881/801 882/802 883/803 884/804
f 885/805 886/806 887/807 888/808
f 889/809 890/810 891/811 892/812
f 893/813 894/814 895/815 896/816
f 897/817 898/818 899/819 900/820
f 901/821 902/822 903/823 904/824
f 905/825 906/826 907/827 908/828
f 909/829 910/830 911/831 912/832
f 913/833 914/834 915/835 916/836
f 917/837 918/838 919/839 920/840
