# RoastEngine Backrooms level
mtllib backrooms.mtl
v 347.0000 -0.5000 -53.0000
v 347.0000 -0.5000 53.0000
v 453.0000 -0.5000 53.0000
v 453.0000 -0.5000 -53.0000
v 347.0000 0.0000 -53.0000
v 453.0000 0.0000 -53.0000
v 453.0000 0.0000 53.0000
v 347.0000 0.0000 53.0000
v 347.0000 -0.5000 -53.0000
v 453.0000 -0.5000 -53.0000
v 453.0000 0.0000 -53.0000
v 347.0000 0.0000 -53.0000
v 453.0000 -0.5000 53.0000
v 347.0000 -0.5000 53.0000
v 347.0000 0.0000 53.0000
v 453.0000 0.0000 53.0000
v 453.0000 -0.5000 -53.0000
v 453.0000 -0.5000 53.0000
v 453.0000 0.0000 53.0000
v 453.0000 0.0000 -53.0000
v 347.0000 -0.5000 53.0000
v 347.0000 -0.5000 -53.0000
v 347.0000 0.0000 -53.0000
v 347.0000 0.0000 53.0000
v 347.0000 3.0000 -53.0000
v 347.0000 3.0000 53.0000
v 453.0000 3.0000 53.0000
v 453.0000 3.0000 -53.0000
v 347.0000 3.5000 -53.0000
v 453.0000 3.5000 -53.0000
v 453.0000 3.5000 53.0000
v 347.0000 3.5000 53.0000
v 347.0000 3.0000 -53.0000
v 453.0000 3.0000 -53.0000
v 453.0000 3.5000 -53.0000
v 347.0000 3.5000 -53.0000
v 453.0000 3.0000 53.0000
v 347.0000 3.0000 53.0000
v 347.0000 3.5000 53.0000
v 453.0000 3.5000 53.0000
v 453.0000 3.0000 -53.0000
v 453.0000 3.0000 53.0000
v 453.0000 3.5000 53.0000
v 453.0000 3.5000 -53.0000
v 347.0000 3.0000 53.0000
v 347.0000 3.0000 -53.0000
v 347.0000 3.5000 -53.0000
v 347.0000 3.5000 53.0000
v 347.0000 0.0000 -53.0000
v 347.0000 0.0000 53.0000
v 347.5000 0.0000 53.0000
v 347.5000 0.0000 -53.0000
v 347.0000 3.0000 -53.0000
v 347.5000 3.0000 -53.0000
v 347.5000 3.0000 53.0000
v 347.0000 3.0000 53.0000
v 347.0000 0.0000 -53.0000
v 347.5000 0.0000 -53.0000
v 347.5000 3.0000 -53.0000
v 347.0000 3.0000 -53.0000
v 347.5000 0.0000 53.0000
v 347.0000 0.0000 53.0000
v 347.0000 3.0000 53.0000
v 347.5000 3.0000 53.0000
v 347.5000 0.0000 -53.0000
v 347.5000 0.0000 53.0000
v 347.5000 3.0000 53.0000
v 347.5000 3.0000 -53.0000
v 347.0000 0.0000 53.0000
v 347.0000 0.0000 -53.0000
v 347.0000 3.0000 -53.0000
v 347.0000 3.0000 53.0000
v 347.0000 0.0000 -53.0000
v 347.0000 0.0000 -52.5000
v 453.0000 0.0000 -52.5000
v 453.0000 0.0000 -53.0000
v 347.0000 3.0000 -53.0000
v 453.0000 3.0000 -53.0000
v 453.0000 3.0000 -52.5000
v 347.0000 3.0000 -52.5000
v 347.0000 0.0000 -53.0000
v 453.0000 0.0000 -53.0000
v 453.0000 3.0000 -53.0000
v 347.0000 3.0000 -53.0000
v 453.0000 0.0000 -52.5000
v 347.0000 0.0000 -52.5000
v 347.0000 3.0000 -52.5000
v 453.0000 3.0000 -52.5000
v 453.0000 0.0000 -53.0000
v 453.0000 0.0000 -52.5000
v 453.0000 3.0000 -52.5000
v 453.0000 3.0000 -53.0000
v 347.0000 0.0000 -52.5000
v 347.0000 0.0000 -53.0000
v 347.0000 3.0000 -53.0000
v 347.0000 3.0000 -52.5000
v 452.5000 0.0000 -53.0000
v 452.5000 0.0000 53.0000
v 453.0000 0.0000 53.0000
v 453.0000 0.0000 -53.0000
v 452.5000 3.0000 -53.0000
v 453.0000 3.0000 -53.0000
v 453.0000 3.0000 53.0000
v 452.5000 3.0000 53.0000
v 452.5000 0.0000 -53.0000
v 453.0000 0.0000 -53.0000
v 453.0000 3.0000 -53.0000
v 452.5000 3.0000 -53.0000
v 453.0000 0.0000 53.0000
v 452.5000 0.0000 53.0000
v 452.5000 3.0000 53.0000
v 453.0000 3.0000 53.0000
v 453.0000 0.0000 -53.0000
v 453.0000 0.0000 53.0000
v 453.0000 3.0000 53.0000
v 453.0000 3.0000 -53.0000
v 452.5000 0.0000 53.0000
v 452.5000 0.0000 -53.0000
v 452.5000 3.0000 -53.0000
v 452.5000 3.0000 53.0000
v 347.0000 0.0000 52.5000
v 347.0000 0.0000 53.0000
v 453.0000 0.0000 53.0000
v 453.0000 0.0000 52.5000
v 347.0000 3.0000 52.5000
v 453.0000 3.0000 52.5000
v 453.0000 3.0000 53.0000
v 347.0000 3.0000 53.0000
v 347.0000 0.0000 52.5000
v 453.0000 0.0000 52.5000
v 453.0000 3.0000 52.5000
v 347.0000 3.0000 52.5000
v 453.0000 0.0000 53.0000
v 347.0000 0.0000 53.0000
v 347.0000 3.0000 53.0000
v 453.0000 3.0000 53.0000
v 453.0000 0.0000 52.5000
v 453.0000 0.0000 53.0000
v 453.0000 3.0000 53.0000
v 453.0000 3.0000 52.5000
v 347.0000 0.0000 53.0000
v 347.0000 0.0000 52.5000
v 347.0000 3.0000 52.5000
v 347.0000 3.0000 53.0000
v 392.0169 0.0000 45.6426
v 392.0169 0.0000 47.9462
v 393.7961 0.0000 47.9462
v 393.7961 0.0000 45.6426
v 392.0169 0.0100 45.6426
v 393.7961 0.0100 45.6426
v 393.7961 0.0100 47.9462
v 392.0169 0.0100 47.9462
v 392.0169 0.0000 45.6426
v 393.7961 0.0000 45.6426
v 393.7961 0.0100 45.6426
v 392.0169 0.0100 45.6426
v 393.7961 0.0000 47.9462
v 392.0169 0.0000 47.9462
v 392.0169 0.0100 47.9462
v 393.7961 0.0100 47.9462
v 393.7961 0.0000 45.6426
v 393.7961 0.0000 47.9462
v 393.7961 0.0100 47.9462
v 393.7961 0.0100 45.6426
v 392.0169 0.0000 47.9462
v 392.0169 0.0000 45.6426
v 392.0169 0.0100 45.6426
v 392.0169 0.0100 47.9462
v 362.3234 0.0000 -27.2334
v 362.3234 0.0000 -23.3675
v 365.5545 0.0000 -23.3675
v 365.5545 0.0000 -27.2334
v 362.3234 0.0100 -27.2334
v 365.5545 0.0100 -27.2334
v 365.5545 0.0100 -23.3675
v 362.3234 0.0100 -23.3675
v 362.3234 0.0000 -27.2334
v 365.5545 0.0000 -27.2334
v 365.5545 0.0100 -27.2334
v 362.3234 0.0100 -27.2334
v 365.5545 0.0000 -23.3675
v 362.3234 0.0000 -23.3675
v 362.3234 0.0100 -23.3675
v 365.5545 0.0100 -23.3675
v 365.5545 0.0000 -27.2334
v 365.5545 0.0000 -23.3675
v 365.5545 0.0100 -23.3675
v 365.5545 0.0100 -27.2334
v 362.3234 0.0000 -23.3675
v 362.3234 0.0000 -27.2334
v 362.3234 0.0100 -27.2334
v 362.3234 0.0100 -23.3675
v 406.3077 0.0000 -7.4922
v 406.3077 0.0000 -5.0787
v 408.4324 0.0000 -5.0787
v 408.4324 0.0000 -7.4922
v 406.3077 0.0100 -7.4922
v 408.4324 0.0100 -7.4922
v 408.4324 0.0100 -5.0787
v 406.3077 0.0100 -5.0787
v 406.3077 0.0000 -7.4922
v 408.4324 0.0000 -7.4922
v 408.4324 0.0100 -7.4922
v 406.3077 0.0100 -7.4922
v 408.4324 0.0000 -5.0787
v 406.3077 0.0000 -5.0787
v 406.3077 0.0100 -5.0787
v 408.4324 0.0100 -5.0787
v 408.4324 0.0000 -7.4922
v 408.4324 0.0000 -5.0787
v 408.4324 0.0100 -5.0787
v 408.4324 0.0100 -7.4922
v 406.3077 0.0000 -5.0787
v 406.3077 0.0000 -7.4922
v 406.3077 0.0100 -7.4922
v 406.3077 0.0100 -5.0787
v 434.7100 0.0000 17.7151
v 434.7100 0.0000 20.2360
v 436.6465 0.0000 20.2360
v 436.6465 0.0000 17.7151
v 434.7100 0.0100 17.7151
v 436.6465 0.0100 17.7151
v 436.6465 0.0100 20.2360
v 434.7100 0.0100 20.2360
v 434.7100 0.0000 17.7151
v 436.6465 0.0000 17.7151
v 436.6465 0.0100 17.7151
v 434.7100 0.0100 17.7151
v 436.6465 0.0000 20.2360
v 434.7100 0.0000 20.2360
v 434.7100 0.0100 20.2360
v 436.6465 0.0100 20.2360
v 436.6465 0.0000 17.7151
v 436.6465 0.0000 20.2360
v 436.6465 0.0100 20.2360
v 436.6465 0.0100 17.7151
v 434.7100 0.0000 20.2360
v 434.7100 0.0000 17.7151
v 434.7100 0.0100 17.7151
v 434.7100 0.0100 20.2360
v 412.8315 0.0000 -23.6521
v 412.8315 0.0000 -22.4179
v 414.0230 0.0000 -22.4179
v 414.0230 0.0000 -23.6521
v 412.8315 0.0100 -23.6521
v 414.0230 0.0100 -23.6521
v 414.0230 0.0100 -22.4179
v 412.8315 0.0100 -22.4179
v 412.8315 0.0000 -23.6521
v 414.0230 0.0000 -23.6521
v 414.0230 0.0100 -23.6521
v 412.8315 0.0100 -23.6521
v 414.0230 0.0000 -22.4179
v 412.8315 0.0000 -22.4179
v 412.8315 0.0100 -22.4179
v 414.0230 0.0100 -22.4179
v 414.0230 0.0000 -23.6521
v 414.0230 0.0000 -22.4179
v 414.0230 0.0100 -22.4179
v 414.0230 0.0100 -23.6521
v 412.8315 0.0000 -22.4179
v 412.8315 0.0000 -23.6521
v 412.8315 0.0100 -23.6521
v 412.8315 0.0100 -22.4179
v 447.4744 0.0000 -0.5357
v 447.4744 0.0000 1.3921
v 449.7953 0.0000 1.3921
v 449.7953 0.0000 -0.5357
v 447.4744 0.0100 -0.5357
v 449.7953 0.0100 -0.5357
v 449.7953 0.0100 1.3921
v 447.4744 0.0100 1.3921
v 447.4744 0.0000 -0.5357
v 449.7953 0.0000 -0.5357
v 449.7953 0.0100 -0.5357
v 447.4744 0.0100 -0.5357
v 449.7953 0.0000 1.3921
v 447.4744 0.0000 1.3921
v 447.4744 0.0100 1.3921
v 449.7953 0.0100 1.3921
v 449.7953 0.0000 -0.5357
v 449.7953 0.0000 1.3921
v 449.7953 0.0100 1.3921
v 449.7953 0.0100 -0.5357
v 447.4744 0.0000 1.3921
v 447.4744 0.0000 -0.5357
v 447.4744 0.0100 -0.5357
v 447.4744 0.0100 1.3921
v 441.9722 0.0000 -1.8440
v 441.9722 0.0000 0.1944
v 443.8390 0.0000 0.1944
v 443.8390 0.0000 -1.8440
v 441.9722 0.0100 -1.8440
v 443.8390 0.0100 -1.8440
v 443.8390 0.0100 0.1944
v 441.9722 0.0100 0.1944
v 441.9722 0.0000 -1.8440
v 443.8390 0.0000 -1.8440
v 443.8390 0.0100 -1.8440
v 441.9722 0.0100 -1.8440
v 443.8390 0.0000 0.1944
v 441.9722 0.0000 0.1944
v 441.9722 0.0100 0.1944
v 443.8390 0.0100 0.1944
v 443.8390 0.0000 -1.8440
v 443.8390 0.0000 0.1944
v 443.8390 0.0100 0.1944
v 443.8390 0.0100 -1.8440
v 441.9722 0.0000 0.1944
v 441.9722 0.0000 -1.8440
v 441.9722 0.0100 -1.8440
v 441.9722 0.0100 0.1944
v 411.1275 0.0000 48.4510
v 411.1275 0.0000 50.3221
v 413.9641 0.0000 50.3221
v 413.9641 0.0000 48.4510
v 411.1275 0.0100 48.4510
v 413.9641 0.0100 48.4510
v 413.9641 0.0100 50.3221
v 411.1275 0.0100 50.3221
v 411.1275 0.0000 48.4510
v 413.9641 0.0000 48.4510
v 413.9641 0.0100 48.4510
v 411.1275 0.0100 48.4510
v 413.9641 0.0000 50.3221
v 411.1275 0.0000 50.3221
v 411.1275 0.0100 50.3221
v 413.9641 0.0100 50.3221
v 413.9641 0.0000 48.4510
v 413.9641 0.0000 50.3221
v 413.9641 0.0100 50.3221
v 413.9641 0.0100 48.4510
v 411.1275 0.0000 50.3221
v 411.1275 0.0000 48.4510
v 411.1275 0.0100 48.4510
v 411.1275 0.0100 50.3221
v 414.4416 0.0000 17.0654
v 414.4416 0.0000 20.4024
v 417.8538 0.0000 20.4024
v 417.8538 0.0000 17.0654
v 414.4416 0.0100 17.0654
v 417.8538 0.0100 17.0654
v 417.8538 0.0100 20.4024
v 414.4416 0.0100 20.4024
v 414.4416 0.0000 17.0654
v 417.8538 0.0000 17.0654
v 417.8538 0.0100 17.0654
v 414.4416 0.0100 17.0654
v 417.8538 0.0000 20.4024
v 414.4416 0.0000 20.4024
v 414.4416 0.0100 20.4024
v 417.8538 0.0100 20.4024
v 417.8538 0.0000 17.0654
v 417.8538 0.0000 20.4024
v 417.8538 0.0100 20.4024
v 417.8538 0.0100 17.0654
v 414.4416 0.0000 20.4024
v 414.4416 0.0000 17.0654
v 414.4416 0.0100 17.0654
v 414.4416 0.0100 20.4024
v 433.1392 0.0000 -38.7654
v 433.1392 0.0000 -36.1262
v 435.9025 0.0000 -36.1262
v 435.9025 0.0000 -38.7654
v 433.1392 0.0100 -38.7654
v 435.9025 0.0100 -38.7654
v 435.9025 0.0100 -36.1262
v 433.1392 0.0100 -36.1262
v 433.1392 0.0000 -38.7654
v 435.9025 0.0000 -38.7654
v 435.9025 0.0100 -38.7654
v 433.1392 0.0100 -38.7654
v 435.9025 0.0000 -36.1262
v 433.1392 0.0000 -36.1262
v 433.1392 0.0100 -36.1262
v 435.9025 0.0100 -36.1262
v 435.9025 0.0000 -38.7654
v 435.9025 0.0000 -36.1262
v 435.9025 0.0100 -36.1262
v 435.9025 0.0100 -38.7654
v 433.1392 0.0000 -36.1262
v 433.1392 0.0000 -38.7654
v 433.1392 0.0100 -38.7654
v 433.1392 0.0100 -36.1262
v 434.8753 0.0000 31.6718
v 434.8753 0.0000 36.1206
v 438.2471 0.0000 36.1206
v 438.2471 0.0000 31.6718
v 434.8753 0.0100 31.6718
v 438.2471 0.0100 31.6718
v 438.2471 0.0100 36.1206
v 434.8753 0.0100 36.1206
v 434.8753 0.0000 31.6718
v 438.2471 0.0000 31.6718
v 438.2471 0.0100 31.6718
v 434.8753 0.0100 31.6718
v 438.2471 0.0000 36.1206
v 434.8753 0.0000 36.1206
v 434.8753 0.0100 36.1206
v 438.2471 0.0100 36.1206
v 438.2471 0.0000 31.6718
v 438.2471 0.0000 36.1206
v 438.2471 0.0100 36.1206
v 438.2471 0.0100 31.6718
v 434.8753 0.0000 36.1206
v 434.8753 0.0000 31.6718
v 434.8753 0.0100 31.6718
v 434.8753 0.0100 36.1206
v 445.3638 0.0000 -31.7153
v 445.3638 0.0000 -30.4293
v 447.2710 0.0000 -30.4293
v 447.2710 0.0000 -31.7153
v 445.3638 0.0100 -31.7153
v 447.2710 0.0100 -31.7153
v 447.2710 0.0100 -30.4293
v 445.3638 0.0100 -30.4293
v 445.3638 0.0000 -31.7153
v 447.2710 0.0000 -31.7153
v 447.2710 0.0100 -31.7153
v 445.3638 0.0100 -31.7153
v 447.2710 0.0000 -30.4293
v 445.3638 0.0000 -30.4293
v 445.3638 0.0100 -30.4293
v 447.2710 0.0100 -30.4293
v 447.2710 0.0000 -31.7153
v 447.2710 0.0000 -30.4293
v 447.2710 0.0100 -30.4293
v 447.2710 0.0100 -31.7153
v 445.3638 0.0000 -30.4293
v 445.3638 0.0000 -31.7153
v 445.3638 0.0100 -31.7153
v 445.3638 0.0100 -30.4293
v 420.0250 0.0000 -48.5545
v 420.0250 0.0000 -47.4678
v 421.7268 0.0000 -47.4678
v 421.7268 0.0000 -48.5545
v 420.0250 0.0100 -48.5545
v 421.7268 0.0100 -48.5545
v 421.7268 0.0100 -47.4678
v 420.0250 0.0100 -47.4678
v 420.0250 0.0000 -48.5545
v 421.7268 0.0000 -48.5545
v 421.7268 0.0100 -48.5545
v 420.0250 0.0100 -48.5545
v 421.7268 0.0000 -47.4678
v 420.0250 0.0000 -47.4678
v 420.0250 0.0100 -47.4678
v 421.7268 0.0100 -47.4678
v 421.7268 0.0000 -48.5545
v 421.7268 0.0000 -47.4678
v 421.7268 0.0100 -47.4678
v 421.7268 0.0100 -48.5545
v 420.0250 0.0000 -47.4678
v 420.0250 0.0000 -48.5545
v 420.0250 0.0100 -48.5545
v 420.0250 0.0100 -47.4678
v 410.0744 0.0000 48.5500
v 410.0744 0.0000 51.2651
v 412.1271 0.0000 51.2651
v 412.1271 0.0000 48.5500
v 410.0744 0.0100 48.5500
v 412.1271 0.0100 48.5500
v 412.1271 0.0100 51.2651
v 410.0744 0.0100 51.2651
v 410.0744 0.0000 48.5500
v 412.1271 0.0000 48.5500
v 412.1271 0.0100 48.5500
v 410.0744 0.0100 48.5500
v 412.1271 0.0000 51.2651
v 410.0744 0.0000 51.2651
v 410.0744 0.0100 51.2651
v 412.1271 0.0100 51.2651
v 412.1271 0.0000 48.5500
v 412.1271 0.0000 51.2651
v 412.1271 0.0100 51.2651
v 412.1271 0.0100 48.5500
v 410.0744 0.0000 51.2651
v 410.0744 0.0000 48.5500
v 410.0744 0.0100 48.5500
v 410.0744 0.0100 51.2651
v 371.9873 0.0000 16.1538
v 371.9873 0.0000 18.3745
v 373.6850 0.0000 18.3745
v 373.6850 0.0000 16.1538
v 371.9873 0.0100 16.1538
v 373.6850 0.0100 16.1538
v 373.6850 0.0100 18.3745
v 371.9873 0.0100 18.3745
v 371.9873 0.0000 16.1538
v 373.6850 0.0000 16.1538
v 373.6850 0.0100 16.1538
v 371.9873 0.0100 16.1538
v 373.6850 0.0000 18.3745
v 371.9873 0.0000 18.3745
v 371.9873 0.0100 18.3745
v 373.6850 0.0100 18.3745
v 373.6850 0.0000 16.1538
v 373.6850 0.0000 18.3745
v 373.6850 0.0100 18.3745
v 373.6850 0.0100 16.1538
v 371.9873 0.0000 18.3745
v 371.9873 0.0000 16.1538
v 371.9873 0.0100 16.1538
v 371.9873 0.0100 18.3745
v 356.2264 0.0000 9.3101
v 356.2264 0.0000 12.0767
v 358.3670 0.0000 12.0767
v 358.3670 0.0000 9.3101
v 356.2264 0.0100 9.3101
v 358.3670 0.0100 9.3101
v 358.3670 0.0100 12.0767
v 356.2264 0.0100 12.0767
v 356.2264 0.0000 9.3101
v 358.3670 0.0000 9.3101
v 358.3670 0.0100 9.3101
v 356.2264 0.0100 9.3101
v 358.3670 0.0000 12.0767
v 356.2264 0.0000 12.0767
v 356.2264 0.0100 12.0767
v 358.3670 0.0100 12.0767
v 358.3670 0.0000 9.3101
v 358.3670 0.0000 12.0767
v 358.3670 0.0100 12.0767
v 358.3670 0.0100 9.3101
v 356.2264 0.0000 12.0767
v 356.2264 0.0000 9.3101
v 356.2264 0.0100 9.3101
v 356.2264 0.0100 12.0767
v 444.5924 0.0000 15.8649
v 444.5924 0.0000 17.6850
v 446.0157 0.0000 17.6850
v 446.0157 0.0000 15.8649
v 444.5924 0.0100 15.8649
v 446.0157 0.0100 15.8649
v 446.0157 0.0100 17.6850
v 444.5924 0.0100 17.6850
v 444.5924 0.0000 15.8649
v 446.0157 0.0000 15.8649
v 446.0157 0.0100 15.8649
v 444.5924 0.0100 15.8649
v 446.0157 0.0000 17.6850
v 444.5924 0.0000 17.6850
v 444.5924 0.0100 17.6850
v 446.0157 0.0100 17.6850
v 446.0157 0.0000 15.8649
v 446.0157 0.0000 17.6850
v 446.0157 0.0100 17.6850
v 446.0157 0.0100 15.8649
v 444.5924 0.0000 17.6850
v 444.5924 0.0000 15.8649
v 444.5924 0.0100 15.8649
v 444.5924 0.0100 17.6850
v 375.5862 0.0000 8.3953
v 375.5862 0.0000 10.9923
v 377.8693 0.0000 10.9923
v 377.8693 0.0000 8.3953
v 375.5862 0.0100 8.3953
v 377.8693 0.0100 8.3953
v 377.8693 0.0100 10.9923
v 375.5862 0.0100 10.9923
v 375.5862 0.0000 8.3953
v 377.8693 0.0000 8.3953
v 377.8693 0.0100 8.3953
v 375.5862 0.0100 8.3953
v 377.8693 0.0000 10.9923
v 375.5862 0.0000 10.9923
v 375.5862 0.0100 10.9923
v 377.8693 0.0100 10.9923
v 377.8693 0.0000 8.3953
v 377.8693 0.0000 10.9923
v 377.8693 0.0100 10.9923
v 377.8693 0.0100 8.3953
v 375.5862 0.0000 10.9923
v 375.5862 0.0000 8.3953
v 375.5862 0.0100 8.3953
v 375.5862 0.0100 10.9923
v 386.9053 0.0000 -26.1211
v 386.9053 0.0000 -23.3036
v 388.9795 0.0000 -23.3036
v 388.9795 0.0000 -26.1211
v 386.9053 0.0100 -26.1211
v 388.9795 0.0100 -26.1211
v 388.9795 0.0100 -23.3036
v 386.9053 0.0100 -23.3036
v 386.9053 0.0000 -26.1211
v 388.9795 0.0000 -26.1211
v 388.9795 0.0100 -26.1211
v 386.9053 0.0100 -26.1211
v 388.9795 0.0000 -23.3036
v 386.9053 0.0000 -23.3036
v 386.9053 0.0100 -23.3036
v 388.9795 0.0100 -23.3036
v 388.9795 0.0000 -26.1211
v 388.9795 0.0000 -23.3036
v 388.9795 0.0100 -23.3036
v 388.9795 0.0100 -26.1211
v 386.9053 0.0000 -23.3036
v 386.9053 0.0000 -26.1211
v 386.9053 0.0100 -26.1211
v 386.9053 0.0100 -23.3036
v 427.1666 0.0000 -3.3244
v 427.1666 0.0000 -0.4980
v 429.6086 0.0000 -0.4980
v 429.6086 0.0000 -3.3244
v 427.1666 0.0100 -3.3244
v 429.6086 0.0100 -3.3244
v 429.6086 0.0100 -0.4980
v 427.1666 0.0100 -0.4980
v 427.1666 0.0000 -3.3244
v 429.6086 0.0000 -3.3244
v 429.6086 0.0100 -3.3244
v 427.1666 0.0100 -3.3244
v 429.6086 0.0000 -0.4980
v 427.1666 0.0000 -0.4980
v 427.1666 0.0100 -0.4980
v 429.6086 0.0100 -0.4980
v 429.6086 0.0000 -3.3244
v 429.6086 0.0000 -0.4980
v 429.6086 0.0100 -0.4980
v 429.6086 0.0100 -3.3244
v 427.1666 0.0000 -0.4980
v 427.1666 0.0000 -3.3244
v 427.1666 0.0100 -3.3244
v 427.1666 0.0100 -0.4980
v 408.8011 0.0000 43.2477
v 408.8011 0.0000 45.0766
v 410.6972 0.0000 45.0766
v 410.6972 0.0000 43.2477
v 408.8011 0.0100 43.2477
v 410.6972 0.0100 43.2477
v 410.6972 0.0100 45.0766
v 408.8011 0.0100 45.0766
v 408.8011 0.0000 43.2477
v 410.6972 0.0000 43.2477
v 410.6972 0.0100 43.2477
v 408.8011 0.0100 43.2477
v 410.6972 0.0000 45.0766
v 408.8011 0.0000 45.0766
v 408.8011 0.0100 45.0766
v 410.6972 0.0100 45.0766
v 410.6972 0.0000 43.2477
v 410.6972 0.0000 45.0766
v 410.6972 0.0100 45.0766
v 410.6972 0.0100 43.2477
v 408.8011 0.0000 45.0766
v 408.8011 0.0000 43.2477
v 408.8011 0.0100 43.2477
v 408.8011 0.0100 45.0766
v 378.9719 0.0000 -41.7573
v 378.9719 0.0000 -37.6140
v 382.1259 0.0000 -37.6140
v 382.1259 0.0000 -41.7573
v 378.9719 0.0100 -41.7573
v 382.1259 0.0100 -41.7573
v 382.1259 0.0100 -37.6140
v 378.9719 0.0100 -37.6140
v 378.9719 0.0000 -41.7573
v 382.1259 0.0000 -41.7573
v 382.1259 0.0100 -41.7573
v 378.9719 0.0100 -41.7573
v 382.1259 0.0000 -37.6140
v 378.9719 0.0000 -37.6140
v 378.9719 0.0100 -37.6140
v 382.1259 0.0100 -37.6140
v 382.1259 0.0000 -41.7573
v 382.1259 0.0000 -37.6140
v 382.1259 0.0100 -37.6140
v 382.1259 0.0100 -41.7573
v 378.9719 0.0000 -37.6140
v 378.9719 0.0000 -41.7573
v 378.9719 0.0100 -41.7573
v 378.9719 0.0100 -37.6140
v 380.2438 0.0000 40.3743
v 380.2438 0.0000 41.9646
v 382.2407 0.0000 41.9646
v 382.2407 0.0000 40.3743
v 380.2438 0.0100 40.3743
v 382.2407 0.0100 40.3743
v 382.2407 0.0100 41.9646
v 380.2438 0.0100 41.9646
v 380.2438 0.0000 40.3743
v 382.2407 0.0000 40.3743
v 382.2407 0.0100 40.3743
v 380.2438 0.0100 40.3743
v 382.2407 0.0000 41.9646
v 380.2438 0.0000 41.9646
v 380.2438 0.0100 41.9646
v 382.2407 0.0100 41.9646
v 382.2407 0.0000 40.3743
v 382.2407 0.0000 41.9646
v 382.2407 0.0100 41.9646
v 382.2407 0.0100 40.3743
v 380.2438 0.0000 41.9646
v 380.2438 0.0000 40.3743
v 380.2438 0.0100 40.3743
v 380.2438 0.0100 41.9646
v 405.7266 0.0000 28.2938
v 405.7266 0.0000 31.2258
v 408.9750 0.0000 31.2258
v 408.9750 0.0000 28.2938
v 405.7266 0.0100 28.2938
v 408.9750 0.0100 28.2938
v 408.9750 0.0100 31.2258
v 405.7266 0.0100 31.2258
v 405.7266 0.0000 28.2938
v 408.9750 0.0000 28.2938
v 408.9750 0.0100 28.2938
v 405.7266 0.0100 28.2938
v 408.9750 0.0000 31.2258
v 405.7266 0.0000 31.2258
v 405.7266 0.0100 31.2258
v 408.9750 0.0100 31.2258
v 408.9750 0.0000 28.2938
v 408.9750 0.0000 31.2258
v 408.9750 0.0100 31.2258
v 408.9750 0.0100 28.2938
v 405.7266 0.0000 31.2258
v 405.7266 0.0000 28.2938
v 405.7266 0.0100 28.2938
v 405.7266 0.0100 31.2258
v 357.7833 0.0000 29.7607
v 357.7833 0.0000 31.8532
v 361.2043 0.0000 31.8532
v 361.2043 0.0000 29.7607
v 357.7833 0.0100 29.7607
v 361.2043 0.0100 29.7607
v 361.2043 0.0100 31.8532
v 357.7833 0.0100 31.8532
v 357.7833 0.0000 29.7607
v 361.2043 0.0000 29.7607
v 361.2043 0.0100 29.7607
v 357.7833 0.0100 29.7607
v 361.2043 0.0000 31.8532
v 357.7833 0.0000 31.8532
v 357.7833 0.0100 31.8532
v 361.2043 0.0100 31.8532
v 361.2043 0.0000 29.7607
v 361.2043 0.0000 31.8532
v 361.2043 0.0100 31.8532
v 361.2043 0.0100 29.7607
v 357.7833 0.0000 31.8532
v 357.7833 0.0000 29.7607
v 357.7833 0.0100 29.7607
v 357.7833 0.0100 31.8532
v 448.0062 0.0000 -13.4606
v 448.0062 0.0000 -10.1170
v 450.7108 0.0000 -10.1170
v 450.7108 0.0000 -13.4606
v 448.0062 0.0100 -13.4606
v 450.7108 0.0100 -13.4606
v 450.7108 0.0100 -10.1170
v 448.0062 0.0100 -10.1170
v 448.0062 0.0000 -13.4606
v 450.7108 0.0000 -13.4606
v 450.7108 0.0100 -13.4606
v 448.0062 0.0100 -13.4606
v 450.7108 0.0000 -10.1170
v 448.0062 0.0000 -10.1170
v 448.0062 0.0100 -10.1170
v 450.7108 0.0100 -10.1170
v 450.7108 0.0000 -13.4606
v 450.7108 0.0000 -10.1170
v 450.7108 0.0100 -10.1170
v 450.7108 0.0100 -13.4606
v 448.0062 0.0000 -10.1170
v 448.0062 0.0000 -13.4606
v 448.0062 0.0100 -13.4606
v 448.0062 0.0100 -10.1170
v 411.1990 0.0000 -53.3113
v 411.1990 0.0000 -50.0098
v 413.7114 0.0000 -50.0098
v 413.7114 0.0000 -53.3113
v 411.1990 0.0100 -53.3113
v 413.7114 0.0100 -53.3113
v 413.7114 0.0100 -50.0098
v 411.1990 0.0100 -50.0098
v 411.1990 0.0000 -53.3113
v 413.7114 0.0000 -53.3113
v 413.7114 0.0100 -53.3113
v 411.1990 0.0100 -53.3113
v 413.7114 0.0000 -50.0098
v 411.1990 0.0000 -50.0098
v 411.1990 0.0100 -50.0098
v 413.7114 0.0100 -50.0098
v 413.7114 0.0000 -53.3113
v 413.7114 0.0000 -50.0098
v 413.7114 0.0100 -50.0098
v 413.7114 0.0100 -53.3113
v 411.1990 0.0000 -50.0098
v 411.1990 0.0000 -53.3113
v 411.1990 0.0100 -53.3113
v 411.1990 0.0100 -50.0098
v 386.8237 0.0000 -24.2432
v 386.8237 0.0000 -22.1282
v 389.9621 0.0000 -22.1282
v 389.9621 0.0000 -24.2432
v 386.8237 0.0100 -24.2432
v 389.9621 0.0100 -24.2432
v 389.9621 0.0100 -22.1282
v 386.8237 0.0100 -22.1282
v 386.8237 0.0000 -24.2432
v 389.9621 0.0000 -24.2432
v 389.9621 0.0100 -24.2432
v 386.8237 0.0100 -24.2432
v 389.9621 0.0000 -22.1282
v 386.8237 0.0000 -22.1282
v 386.8237 0.0100 -22.1282
v 389.9621 0.0100 -22.1282
v 389.9621 0.0000 -24.2432
v 389.9621 0.0000 -22.1282
v 389.9621 0.0100 -22.1282
v 389.9621 0.0100 -24.2432
v 386.8237 0.0000 -22.1282
v 386.8237 0.0000 -24.2432
v 386.8237 0.0100 -24.2432
v 386.8237 0.0100 -22.1282
v 391.0614 0.0000 13.3038
v 391.0614 0.0000 14.5869
v 392.5072 0.0000 14.5869
v 392.5072 0.0000 13.3038
v 391.0614 0.0100 13.3038
v 392.5072 0.0100 13.3038
v 392.5072 0.0100 14.5869
v 391.0614 0.0100 14.5869
v 391.0614 0.0000 13.3038
v 392.5072 0.0000 13.3038
v 392.5072 0.0100 13.3038
v 391.0614 0.0100 13.3038
v 392.5072 0.0000 14.5869
v 391.0614 0.0000 14.5869
v 391.0614 0.0100 14.5869
v 392.5072 0.0100 14.5869
v 392.5072 0.0000 13.3038
v 392.5072 0.0000 14.5869
v 392.5072 0.0100 14.5869
v 392.5072 0.0100 13.3038
v 391.0614 0.0000 14.5869
v 391.0614 0.0000 13.3038
v 391.0614 0.0100 13.3038
v 391.0614 0.0100 14.5869
v 359.1665 0.0000 32.9686
v 359.1665 0.0000 34.2486
v 360.2605 0.0000 34.2486
v 360.2605 0.0000 32.9686
v 359.1665 0.0100 32.9686
v 360.2605 0.0100 32.9686
v 360.2605 0.0100 34.2486
v 359.1665 0.0100 34.2486
v 359.1665 0.0000 32.9686
v 360.2605 0.0000 32.9686
v 360.2605 0.0100 32.9686
v 359.1665 0.0100 32.9686
v 360.2605 0.0000 34.2486
v 359.1665 0.0000 34.2486
v 359.1665 0.0100 34.2486
v 360.2605 0.0100 34.2486
v 360.2605 0.0000 32.9686
v 360.2605 0.0000 34.2486
v 360.2605 0.0100 34.2486
v 360.2605 0.0100 32.9686
v 359.1665 0.0000 34.2486
v 359.1665 0.0000 32.9686
v 359.1665 0.0100 32.9686
v 359.1665 0.0100 34.2486
v 361.5661 0.0000 22.4760
v 361.5661 0.0000 24.0788
v 363.5392 0.0000 24.0788
v 363.5392 0.0000 22.4760
v 361.5661 0.0100 22.4760
v 363.5392 0.0100 22.4760
v 363.5392 0.0100 24.0788
v 361.5661 0.0100 24.0788
v 361.5661 0.0000 22.4760
v 363.5392 0.0000 22.4760
v 363.5392 0.0100 22.4760
v 361.5661 0.0100 22.4760
v 363.5392 0.0000 24.0788
v 361.5661 0.0000 24.0788
v 361.5661 0.0100 24.0788
v 363.5392 0.0100 24.0788
v 363.5392 0.0000 22.4760
v 363.5392 0.0000 24.0788
v 363.5392 0.0100 24.0788
v 363.5392 0.0100 22.4760
v 361.5661 0.0000 24.0788
v 361.5661 0.0000 22.4760
v 361.5661 0.0100 22.4760
v 361.5661 0.0100 24.0788
v 436.4670 0.0000 -48.6930
v 436.4670 0.0000 -47.0844
v 438.7113 0.0000 -47.0844
v 438.7113 0.0000 -48.6930
v 436.4670 0.0100 -48.6930
v 438.7113 0.0100 -48.6930
v 438.7113 0.0100 -47.0844
v 436.4670 0.0100 -47.0844
v 436.4670 0.0000 -48.6930
v 438.7113 0.0000 -48.6930
v 438.7113 0.0100 -48.6930
v 436.4670 0.0100 -48.6930
v 438.7113 0.0000 -47.0844
v 436.4670 0.0000 -47.0844
v 436.4670 0.0100 -47.0844
v 438.7113 0.0100 -47.0844
v 438.7113 0.0000 -48.6930
v 438.7113 0.0000 -47.0844
v 438.7113 0.0100 -47.0844
v 438.7113 0.0100 -48.6930
v 436.4670 0.0000 -47.0844
v 436.4670 0.0000 -48.6930
v 436.4670 0.0100 -48.6930
v 436.4670 0.0100 -47.0844
v 391.9230 0.0000 -23.0606
v 391.9230 0.0000 -19.4347
v 394.7554 0.0000 -19.4347
v 394.7554 0.0000 -23.0606
v 391.9230 0.0100 -23.0606
v 394.7554 0.0100 -23.0606
v 394.7554 0.0100 -19.4347
v 391.9230 0.0100 -19.4347
v 391.9230 0.0000 -23.0606
v 394.7554 0.0000 -23.0606
v 394.7554 0.0100 -23.0606
v 391.9230 0.0100 -23.0606
v 394.7554 0.0000 -19.4347
v 391.9230 0.0000 -19.4347
v 391.9230 0.0100 -19.4347
v 394.7554 0.0100 -19.4347
v 394.7554 0.0000 -23.0606
v 394.7554 0.0000 -19.4347
v 394.7554 0.0100 -19.4347
v 394.7554 0.0100 -23.0606
v 391.9230 0.0000 -19.4347
v 391.9230 0.0000 -23.0606
v 391.9230 0.0100 -23.0606
v 391.9230 0.0100 -19.4347
v 360.4485 0.0000 42.3422
v 360.4485 0.0000 44.7921
v 362.9315 0.0000 44.7921
v 362.9315 0.0000 42.3422
v 360.4485 0.0100 42.3422
v 362.9315 0.0100 42.3422
v 362.9315 0.0100 44.7921
v 360.4485 0.0100 44.7921
v 360.4485 0.0000 42.3422
v 362.9315 0.0000 42.3422
v 362.9315 0.0100 42.3422
v 360.4485 0.0100 42.3422
v 362.9315 0.0000 44.7921
v 360.4485 0.0000 44.7921
v 360.4485 0.0100 44.7921
v 362.9315 0.0100 44.7921
v 362.9315 0.0000 42.3422
v 362.9315 0.0000 44.7921
v 362.9315 0.0100 44.7921
v 362.9315 0.0100 42.3422
v 360.4485 0.0000 44.7921
v 360.4485 0.0000 42.3422
v 360.4485 0.0100 42.3422
v 360.4485 0.0100 44.7921
v 390.8291 0.0000 27.2768
v 390.8291 0.0000 29.1112
v 392.7891 0.0000 29.1112
v 392.7891 0.0000 27.2768
v 390.8291 0.0100 27.2768
v 392.7891 0.0100 27.2768
v 392.7891 0.0100 29.1112
v 390.8291 0.0100 29.1112
v 390.8291 0.0000 27.2768
v 392.7891 0.0000 27.2768
v 392.7891 0.0100 27.2768
v 390.8291 0.0100 27.2768
v 392.7891 0.0000 29.1112
v 390.8291 0.0000 29.1112
v 390.8291 0.0100 29.1112
v 392.7891 0.0100 29.1112
v 392.7891 0.0000 27.2768
v 392.7891 0.0000 29.1112
v 392.7891 0.0100 29.1112
v 392.7891 0.0100 27.2768
v 390.8291 0.0000 29.1112
v 390.8291 0.0000 27.2768
v 390.8291 0.0100 27.2768
v 390.8291 0.0100 29.1112
v 435.0951 0.0000 -13.9682
v 435.0951 0.0000 -11.9118
v 437.0733 0.0000 -11.9118
v 437.0733 0.0000 -13.9682
v 435.0951 0.0100 -13.9682
v 437.0733 0.0100 -13.9682
v 437.0733 0.0100 -11.9118
v 435.0951 0.0100 -11.9118
v 435.0951 0.0000 -13.9682
v 437.0733 0.0000 -13.9682
v 437.0733 0.0100 -13.9682
v 435.0951 0.0100 -13.9682
v 437.0733 0.0000 -11.9118
v 435.0951 0.0000 -11.9118
v 435.0951 0.0100 -11.9118
v 437.0733 0.0100 -11.9118
v 437.0733 0.0000 -13.9682
v 437.0733 0.0000 -11.9118
v 437.0733 0.0100 -11.9118
v 437.0733 0.0100 -13.9682
v 435.0951 0.0000 -11.9118
v 435.0951 0.0000 -13.9682
v 435.0951 0.0100 -13.9682
v 435.0951 0.0100 -11.9118
v 360.6182 0.0000 45.9539
v 360.6182 0.0000 47.6114
v 362.7185 0.0000 47.6114
v 362.7185 0.0000 45.9539
v 360.6182 0.0100 45.9539
v 362.7185 0.0100 45.9539
v 362.7185 0.0100 47.6114
v 360.6182 0.0100 47.6114
v 360.6182 0.0000 45.9539
v 362.7185 0.0000 45.9539
v 362.7185 0.0100 45.9539
v 360.6182 0.0100 45.9539
v 362.7185 0.0000 47.6114
v 360.6182 0.0000 47.6114
v 360.6182 0.0100 47.6114
v 362.7185 0.0100 47.6114
v 362.7185 0.0000 45.9539
v 362.7185 0.0000 47.6114
v 362.7185 0.0100 47.6114
v 362.7185 0.0100 45.9539
v 360.6182 0.0000 47.6114
v 360.6182 0.0000 45.9539
v 360.6182 0.0100 45.9539
v 360.6182 0.0100 47.6114
v 441.4786 0.0000 9.4641
v 441.4786 0.0000 12.5402
v 444.4488 0.0000 12.5402
v 444.4488 0.0000 9.4641
v 441.4786 0.0100 9.4641
v 444.4488 0.0100 9.4641
v 444.4488 0.0100 12.5402
v 441.4786 0.0100 12.5402
v 441.4786 0.0000 9.4641
v 444.4488 0.0000 9.4641
v 444.4488 0.0100 9.4641
v 441.4786 0.0100 9.4641
v 444.4488 0.0000 12.5402
v 441.4786 0.0000 12.5402
v 441.4786 0.0100 12.5402
v 444.4488 0.0100 12.5402
v 444.4488 0.0000 9.4641
v 444.4488 0.0000 12.5402
v 444.4488 0.0100 12.5402
v 444.4488 0.0100 9.4641
v 441.4786 0.0000 12.5402
v 441.4786 0.0000 9.4641
v 441.4786 0.0100 9.4641
v 441.4786 0.0100 12.5402
v 409.8208 0.0000 50.6974
v 409.8208 0.0000 52.7087
v 411.3328 0.0000 52.7087
v 411.3328 0.0000 50.6974
v 409.8208 0.0100 50.6974
v 411.3328 0.0100 50.6974
v 411.3328 0.0100 52.7087
v 409.8208 0.0100 52.7087
v 409.8208 0.0000 50.6974
v 411.3328 0.0000 50.6974
v 411.3328 0.0100 50.6974
v 409.8208 0.0100 50.6974
v 411.3328 0.0000 52.7087
v 409.8208 0.0000 52.7087
v 409.8208 0.0100 52.7087
v 411.3328 0.0100 52.7087
v 411.3328 0.0000 50.6974
v 411.3328 0.0000 52.7087
v 411.3328 0.0100 52.7087
v 411.3328 0.0100 50.6974
v 409.8208 0.0000 52.7087
v 409.8208 0.0000 50.6974
v 409.8208 0.0100 50.6974
v 409.8208 0.0100 52.7087
v 436.2973 0.0000 -9.7332
v 436.2973 0.0000 -6.8015
v 439.7860 0.0000 -6.8015
v 439.7860 0.0000 -9.7332
v 436.2973 0.0100 -9.7332
v 439.7860 0.0100 -9.7332
v 439.7860 0.0100 -6.8015
v 436.2973 0.0100 -6.8015
v 436.2973 0.0000 -9.7332
v 439.7860 0.0000 -9.7332
v 439.7860 0.0100 -9.7332
v 436.2973 0.0100 -9.7332
v 439.7860 0.0000 -6.8015
v 436.2973 0.0000 -6.8015
v 436.2973 0.0100 -6.8015
v 439.7860 0.0100 -6.8015
v 439.7860 0.0000 -9.7332
v 439.7860 0.0000 -6.8015
v 439.7860 0.0100 -6.8015
v 439.7860 0.0100 -9.7332
v 436.2973 0.0000 -6.8015
v 436.2973 0.0000 -9.7332
v 436.2973 0.0100 -9.7332
v 436.2973 0.0100 -6.8015
v 386.3707 0.0000 37.7175
v 386.3707 0.0000 39.6958
v 388.7045 0.0000 39.6958
v 388.7045 0.0000 37.7175
v 386.3707 0.0100 37.7175
v 388.7045 0.0100 37.7175
v 388.7045 0.0100 39.6958
v 386.3707 0.0100 39.6958
v 386.3707 0.0000 37.7175
v 388.7045 0.0000 37.7175
v 388.7045 0.0100 37.7175
v 386.3707 0.0100 37.7175
v 388.7045 0.0000 39.6958
v 386.3707 0.0000 39.6958
v 386.3707 0.0100 39.6958
v 388.7045 0.0100 39.6958
v 388.7045 0.0000 37.7175
v 388.7045 0.0000 39.6958
v 388.7045 0.0100 39.6958
v 388.7045 0.0100 37.7175
v 386.3707 0.0000 39.6958
v 386.3707 0.0000 37.7175
v 386.3707 0.0100 37.7175
v 386.3707 0.0100 39.6958
v 448.9852 0.0000 -19.6771
v 448.9852 0.0000 -18.5217
v 450.1134 0.0000 -18.5217
v 450.1134 0.0000 -19.6771
v 448.9852 0.0100 -19.6771
v 450.1134 0.0100 -19.6771
v 450.1134 0.0100 -18.5217
v 448.9852 0.0100 -18.5217
v 448.9852 0.0000 -19.6771
v 450.1134 0.0000 -19.6771
v 450.1134 0.0100 -19.6771
v 448.9852 0.0100 -19.6771
v 450.1134 0.0000 -18.5217
v 448.9852 0.0000 -18.5217
v 448.9852 0.0100 -18.5217
v 450.1134 0.0100 -18.5217
v 450.1134 0.0000 -19.6771
v 450.1134 0.0000 -18.5217
v 450.1134 0.0100 -18.5217
v 450.1134 0.0100 -19.6771
v 448.9852 0.0000 -18.5217
v 448.9852 0.0000 -19.6771
v 448.9852 0.0100 -19.6771
v 448.9852 0.0100 -18.5217
v 448.6179 0.0000 4.0748
v 448.6179 0.0000 5.2672
v 449.6549 0.0000 5.2672
v 449.6549 0.0000 4.0748
v 448.6179 0.0100 4.0748
v 449.6549 0.0100 4.0748
v 449.6549 0.0100 5.2672
v 448.6179 0.0100 5.2672
v 448.6179 0.0000 4.0748
v 449.6549 0.0000 4.0748
v 449.6549 0.0100 4.0748
v 448.6179 0.0100 4.0748
v 449.6549 0.0000 5.2672
v 448.6179 0.0000 5.2672
v 448.6179 0.0100 5.2672
v 449.6549 0.0100 5.2672
v 449.6549 0.0000 4.0748
v 449.6549 0.0000 5.2672
v 449.6549 0.0100 5.2672
v 449.6549 0.0100 4.0748
v 448.6179 0.0000 5.2672
v 448.6179 0.0000 4.0748
v 448.6179 0.0100 4.0748
v 448.6179 0.0100 5.2672
v 372.0741 0.0000 -3.7336
v 372.0741 0.0000 -2.2655
v 373.6370 0.0000 -2.2655
v 373.6370 0.0000 -3.7336
v 372.0741 0.0100 -3.7336
v 373.6370 0.0100 -3.7336
v 373.6370 0.0100 -2.2655
v 372.0741 0.0100 -2.2655
v 372.0741 0.0000 -3.7336
v 373.6370 0.0000 -3.7336
v 373.6370 0.0100 -3.7336
v 372.0741 0.0100 -3.7336
v 373.6370 0.0000 -2.2655
v 372.0741 0.0000 -2.2655
v 372.0741 0.0100 -2.2655
v 373.6370 0.0100 -2.2655
v 373.6370 0.0000 -3.7336
v 373.6370 0.0000 -2.2655
v 373.6370 0.0100 -2.2655
v 373.6370 0.0100 -3.7336
v 372.0741 0.0000 -2.2655
v 372.0741 0.0000 -3.7336
v 372.0741 0.0100 -3.7336
v 372.0741 0.0100 -2.2655
v 443.9688 0.0000 40.9827
v 443.9688 0.0000 42.1920
v 445.5010 0.0000 42.1920
v 445.5010 0.0000 40.9827
v 443.9688 0.0100 40.9827
v 445.5010 0.0100 40.9827
v 445.5010 0.0100 42.1920
v 443.9688 0.0100 42.1920
v 443.9688 0.0000 40.9827
v 445.5010 0.0000 40.9827
v 445.5010 0.0100 40.9827
v 443.9688 0.0100 40.9827
v 445.5010 0.0000 42.1920
v 443.9688 0.0000 42.1920
v 443.9688 0.0100 42.1920
v 445.5010 0.0100 42.1920
v 445.5010 0.0000 40.9827
v 445.5010 0.0000 42.1920
v 445.5010 0.0100 42.1920
v 445.5010 0.0100 40.9827
v 443.9688 0.0000 42.1920
v 443.9688 0.0000 40.9827
v 443.9688 0.0100 40.9827
v 443.9688 0.0100 42.1920
v 399.4873 0.0000 -31.9282
v 399.4873 0.0000 -30.6214
v 401.0999 0.0000 -30.6214
v 401.0999 0.0000 -31.9282
v 399.4873 0.0100 -31.9282
v 401.0999 0.0100 -31.9282
v 401.0999 0.0100 -30.6214
v 399.4873 0.0100 -30.6214
v 399.4873 0.0000 -31.9282
v 401.0999 0.0000 -31.9282
v 401.0999 0.0100 -31.9282
v 399.4873 0.0100 -31.9282
v 401.0999 0.0000 -30.6214
v 399.4873 0.0000 -30.6214
v 399.4873 0.0100 -30.6214
v 401.0999 0.0100 -30.6214
v 401.0999 0.0000 -31.9282
v 401.0999 0.0000 -30.6214
v 401.0999 0.0100 -30.6214
v 401.0999 0.0100 -31.9282
v 399.4873 0.0000 -30.6214
v 399.4873 0.0000 -31.9282
v 399.4873 0.0100 -31.9282
v 399.4873 0.0100 -30.6214
v 436.0923 0.0000 10.3142
v 436.0923 0.0000 11.6914
v 437.2918 0.0000 11.6914
v 437.2918 0.0000 10.3142
v 436.0923 0.0100 10.3142
v 437.2918 0.0100 10.3142
v 437.2918 0.0100 11.6914
v 436.0923 0.0100 11.6914
v 436.0923 0.0000 10.3142
v 437.2918 0.0000 10.3142
v 437.2918 0.0100 10.3142
v 436.0923 0.0100 10.3142
v 437.2918 0.0000 11.6914
v 436.0923 0.0000 11.6914
v 436.0923 0.0100 11.6914
v 437.2918 0.0100 11.6914
v 437.2918 0.0000 10.3142
v 437.2918 0.0000 11.6914
v 437.2918 0.0100 11.6914
v 437.2918 0.0100 10.3142
v 436.0923 0.0000 11.6914
v 436.0923 0.0000 10.3142
v 436.0923 0.0100 10.3142
v 436.0923 0.0100 11.6914
v 349.7456 0.0000 -22.7600
v 349.7456 0.0000 -21.9130
v 351.1405 0.0000 -21.9130
v 351.1405 0.0000 -22.7600
v 349.7456 0.0100 -22.7600
v 351.1405 0.0100 -22.7600
v 351.1405 0.0100 -21.9130
v 349.7456 0.0100 -21.9130
v 349.7456 0.0000 -22.7600
v 351.1405 0.0000 -22.7600
v 351.1405 0.0100 -22.7600
v 349.7456 0.0100 -22.7600
v 351.1405 0.0000 -21.9130
v 349.7456 0.0000 -21.9130
v 349.7456 0.0100 -21.9130
v 351.1405 0.0100 -21.9130
v 351.1405 0.0000 -22.7600
v 351.1405 0.0000 -21.9130
v 351.1405 0.0100 -21.9130
v 351.1405 0.0100 -22.7600
v 349.7456 0.0000 -21.9130
v 349.7456 0.0000 -22.7600
v 349.7456 0.0100 -22.7600
v 349.7456 0.0100 -21.9130
v 369.7491 0.0000 -32.1757
v 369.7491 0.0000 -30.9748
v 371.7019 0.0000 -30.9748
v 371.7019 0.0000 -32.1757
v 369.7491 0.0100 -32.1757
v 371.7019 0.0100 -32.1757
v 371.7019 0.0100 -30.9748
v 369.7491 0.0100 -30.9748
v 369.7491 0.0000 -32.1757
v 371.7019 0.0000 -32.1757
v 371.7019 0.0100 -32.1757
v 369.7491 0.0100 -32.1757
v 371.7019 0.0000 -30.9748
v 369.7491 0.0000 -30.9748
v 369.7491 0.0100 -30.9748
v 371.7019 0.0100 -30.9748
v 371.7019 0.0000 -32.1757
v 371.7019 0.0000 -30.9748
v 371.7019 0.0100 -30.9748
v 371.7019 0.0100 -32.1757
v 369.7491 0.0000 -30.9748
v 369.7491 0.0000 -32.1757
v 369.7491 0.0100 -32.1757
v 369.7491 0.0100 -30.9748
v 360.1487 0.0000 -31.6937
v 360.1487 0.0000 -27.6750
v 363.0725 0.0000 -27.6750
v 363.0725 0.0000 -31.6937
v 360.1487 0.0100 -31.6937
v 363.0725 0.0100 -31.6937
v 363.0725 0.0100 -27.6750
v 360.1487 0.0100 -27.6750
v 360.1487 0.0000 -31.6937
v 363.0725 0.0000 -31.6937
v 363.0725 0.0100 -31.6937
v 360.1487 0.0100 -31.6937
v 363.0725 0.0000 -27.6750
v 360.1487 0.0000 -27.6750
v 360.1487 0.0100 -27.6750
v 363.0725 0.0100 -27.6750
v 363.0725 0.0000 -31.6937
v 363.0725 0.0000 -27.6750
v 363.0725 0.0100 -27.6750
v 363.0725 0.0100 -31.6937
v 360.1487 0.0000 -27.6750
v 360.1487 0.0000 -31.6937
v 360.1487 0.0100 -31.6937
v 360.1487 0.0100 -27.6750
v 421.0772 0.0000 -1.1023
v 421.0772 0.0000 0.0918
v 422.1171 0.0000 0.0918
v 422.1171 0.0000 -1.1023
v 421.0772 0.0100 -1.1023
v 422.1171 0.0100 -1.1023
v 422.1171 0.0100 0.0918
v 421.0772 0.0100 0.0918
v 421.0772 0.0000 -1.1023
v 422.1171 0.0000 -1.1023
v 422.1171 0.0100 -1.1023
v 421.0772 0.0100 -1.1023
v 422.1171 0.0000 0.0918
v 421.0772 0.0000 0.0918
v 421.0772 0.0100 0.0918
v 422.1171 0.0100 0.0918
v 422.1171 0.0000 -1.1023
v 422.1171 0.0000 0.0918
v 422.1171 0.0100 0.0918
v 422.1171 0.0100 -1.1023
v 421.0772 0.0000 0.0918
v 421.0772 0.0000 -1.1023
v 421.0772 0.0100 -1.1023
v 421.0772 0.0100 0.0918
v 431.3338 0.0000 0.7310
v 431.3338 0.0000 2.6794
v 433.9372 0.0000 2.6794
v 433.9372 0.0000 0.7310
v 431.3338 0.0100 0.7310
v 433.9372 0.0100 0.7310
v 433.9372 0.0100 2.6794
v 431.3338 0.0100 2.6794
v 431.3338 0.0000 0.7310
v 433.9372 0.0000 0.7310
v 433.9372 0.0100 0.7310
v 431.3338 0.0100 0.7310
v 433.9372 0.0000 2.6794
v 431.3338 0.0000 2.6794
v 431.3338 0.0100 2.6794
v 433.9372 0.0100 2.6794
v 433.9372 0.0000 0.7310
v 433.9372 0.0000 2.6794
v 433.9372 0.0100 2.6794
v 433.9372 0.0100 0.7310
v 431.3338 0.0000 2.6794
v 431.3338 0.0000 0.7310
v 431.3338 0.0100 0.7310
v 431.3338 0.0100 2.6794
vt 173.5000 -26.5000
vt 173.5000 26.5000
vt 226.5000 26.5000
vt 226.5000 -26.5000
vt 173.5000 -26.5000
vt 226.5000 -26.5000
vt 226.5000 26.5000
vt 173.5000 26.5000
vt 173.5000 -0.2500
vt 226.5000 -0.2500
vt 226.5000 0.0000
vt 173.5000 0.0000
vt 226.5000 -0.2500
vt 173.5000 -0.2500
vt 173.5000 0.0000
vt 226.5000 0.0000
vt -26.5000 -0.2500
vt 26.5000 -0.2500
vt 26.5000 0.0000
vt -26.5000 0.0000
vt 26.5000 -0.2500
vt -26.5000 -0.2500
vt -26.5000 0.0000
vt 26.5000 0.0000
vt 173.5000 -26.5000
vt 173.5000 26.5000
vt 226.5000 26.5000
vt 226.5000 -26.5000
vt 173.5000 -26.5000
vt 226.5000 -26.5000
vt 226.5000 26.5000
vt 173.5000 26.5000
vt 173.5000 1.5000
vt 226.5000 1.5000
vt 226.5000 1.7500
vt 173.5000 1.7500
vt 226.5000 1.5000
vt 173.5000 1.5000
vt 173.5000 1.7500
vt 226.5000 1.7500
vt -26.5000 1.5000
vt 26.5000 1.5000
vt 26.5000 1.7500
vt -26.5000 1.7500
vt 26.5000 1.5000
vt -26.5000 1.5000
vt -26.5000 1.7500
vt 26.5000 1.7500
vt 173.5000 -26.5000
vt 173.5000 26.5000
vt 173.7500 26.5000
vt 173.7500 -26.5000
vt 173.5000 -26.5000
vt 173.7500 -26.5000
vt 173.7500 26.5000
vt 173.5000 26.5000
vt 173.5000 0.0000
vt 173.7500 0.0000
vt 173.7500 1.5000
vt 173.5000 1.5000
vt 173.7500 0.0000
vt 173.5000 0.0000
vt 173.5000 1.5000
vt 173.7500 1.5000
vt -26.5000 0.0000
vt 26.5000 0.0000
vt 26.5000 1.5000
vt -26.5000 1.5000
vt 26.5000 0.0000
vt -26.5000 0.0000
vt -26.5000 1.5000
vt 26.5000 1.5000
vt 173.5000 -26.5000
vt 173.5000 -26.2500
vt 226.5000 -26.2500
vt 226.5000 -26.5000
vt 173.5000 -26.5000
vt 226.5000 -26.5000
vt 226.5000 -26.2500
vt 173.5000 -26.2500
vt 173.5000 0.0000
vt 226.5000 0.0000
vt 226.5000 1.5000
vt 173.5000 1.5000
vt 226.5000 0.0000
vt 173.5000 0.0000
vt 173.5000 1.5000
vt 226.5000 1.5000
vt -26.5000 0.0000
vt -26.2500 0.0000
vt -26.2500 1.5000
vt -26.5000 1.5000
vt -26.2500 0.0000
vt -26.5000 0.0000
vt -26.5000 1.5000
vt -26.2500 1.5000
vt 226.2500 -26.5000
vt 226.2500 26.5000
vt 226.5000 26.5000
vt 226.5000 -26.5000
vt 226.2500 -26.5000
vt 226.5000 -26.5000
vt 226.5000 26.5000
vt 226.2500 26.5000
vt 226.2500 0.0000
vt 226.5000 0.0000
vt 226.5000 1.5000
vt 226.2500 1.5000
vt 226.5000 0.0000
vt 226.2500 0.0000
vt 226.2500 1.5000
vt 226.5000 1.5000
vt -26.5000 0.0000
vt 26.5000 0.0000
vt 26.5000 1.5000
vt -26.5000 1.5000
vt 26.5000 0.0000
vt -26.5000 0.0000
vt -26.5000 1.5000
vt 26.5000 1.5000
vt 173.5000 26.2500
vt 173.5000 26.5000
vt 226.5000 26.5000
vt 226.5000 26.2500
vt 173.5000 26.2500
vt 226.5000 26.2500
vt 226.5000 26.5000
vt 173.5000 26.5000
vt 173.5000 0.0000
vt 226.5000 0.0000
vt 226.5000 1.5000
vt 173.5000 1.5000
vt 226.5000 0.0000
vt 173.5000 0.0000
vt 173.5000 1.5000
vt 226.5000 1.5000
vt 26.2500 0.0000
vt 26.5000 0.0000
vt 26.5000 1.5000
vt 26.2500 1.5000
vt 26.5000 0.0000
vt 26.2500 0.0000
vt 26.2500 1.5000
vt 26.5000 1.5000
vt 196.0084 22.8213
vt 196.0084 23.9731
vt 196.8981 23.9731
vt 196.8981 22.8213
vt 196.0084 22.8213
vt 196.8981 22.8213
vt 196.8981 23.9731
vt 196.0084 23.9731
vt 196.0084 0.0000
vt 196.8981 0.0000
vt 196.8981 0.0050
vt 196.0084 0.0050
vt 196.8981 0.0000
vt 196.0084 0.0000
vt 196.0084 0.0050
vt 196.8981 0.0050
vt 22.8213 0.0000
vt 23.9731 0.0000
vt 23.9731 0.0050
vt 22.8213 0.0050
vt 23.9731 0.0000
vt 22.8213 0.0000
vt 22.8213 0.0050
vt 23.9731 0.0050
vt 181.1617 -13.6167
vt 181.1617 -11.6838
vt 182.7772 -11.6838
vt 182.7772 -13.6167
vt 181.1617 -13.6167
vt 182.7772 -13.6167
vt 182.7772 -11.6838
vt 181.1617 -11.6838
vt 181.1617 0.0000
vt 182.7772 0.0000
vt 182.7772 0.0050
vt 181.1617 0.0050
vt 182.7772 0.0000
vt 181.1617 0.0000
vt 181.1617 0.0050
vt 182.7772 0.0050
vt -13.6167 0.0000
vt -11.6838 0.0000
vt -11.6838 0.0050
vt -13.6167 0.0050
vt -11.6838 0.0000
vt -13.6167 0.0000
vt -13.6167 0.0050
vt -11.6838 0.0050
vt 203.1539 -3.7461
vt 203.1539 -2.5394
vt 204.2162 -2.5394
vt 204.2162 -3.7461
vt 203.1539 -3.7461
vt 204.2162 -3.7461
vt 204.2162 -2.5394
vt 203.1539 -2.5394
vt 203.1539 0.0000
vt 204.2162 0.0000
vt 204.2162 0.0050
vt 203.1539 0.0050
vt 204.2162 0.0000
vt 203.1539 0.0000
vt 203.1539 0.0050
vt 204.2162 0.0050
vt -3.7461 0.0000
vt -2.5394 0.0000
vt -2.5394 0.0050
vt -3.7461 0.0050
vt -2.5394 0.0000
vt -3.7461 0.0000
vt -3.7461 0.0050
vt -2.5394 0.0050
vt 217.3550 8.8575
vt 217.3550 10.1180
vt 218.3232 10.1180
vt 218.3232 8.8575
vt 217.3550 8.8575
vt 218.3232 8.8575
vt 218.3232 10.1180
vt 217.3550 10.1180
vt 217.3550 0.0000
vt 218.3232 0.0000
vt 218.3232 0.0050
vt 217.3550 0.0050
vt 218.3232 0.0000
vt 217.3550 0.0000
vt 217.3550 0.0050
vt 218.3232 0.0050
vt 8.8575 0.0000
vt 10.1180 0.0000
vt 10.1180 0.0050
vt 8.8575 0.0050
vt 10.1180 0.0000
vt 8.8575 0.0000
vt 8.8575 0.0050
vt 10.1180 0.0050
vt 206.4158 -11.8260
vt 206.4158 -11.2090
vt 207.0115 -11.2090
vt 207.0115 -11.8260
vt 206.4158 -11.8260
vt 207.0115 -11.8260
vt 207.0115 -11.2090
vt 206.4158 -11.2090
vt 206.4158 0.0000
vt 207.0115 0.0000
vt 207.0115 0.0050
vt 206.4158 0.0050
vt 207.0115 0.0000
vt 206.4158 0.0000
vt 206.4158 0.0050
vt 207.0115 0.0050
vt -11.8260 0.0000
vt -11.2090 0.0000
vt -11.2090 0.0050
vt -11.8260 0.0050
vt -11.2090 0.0000
vt -11.8260 0.0000
vt -11.8260 0.0050
vt -11.2090 0.0050
vt 223.7372 -0.2679
vt 223.7372 0.6961
vt 224.8977 0.6961
vt 224.8977 -0.2679
vt 223.7372 -0.2679
vt 224.8977 -0.2679
vt 224.8977 0.6961
vt 223.7372 0.6961
vt 223.7372 0.0000
vt 224.8977 0.0000
vt 224.8977 0.0050
vt 223.7372 0.0050
vt 224.8977 0.0000
vt 223.7372 0.0000
vt 223.7372 0.0050
vt 224.8977 0.0050
vt -0.2679 0.0000
vt 0.6961 0.0000
vt 0.6961 0.0050
vt -0.2679 0.0050
vt 0.6961 0.0000
vt -0.2679 0.0000
vt -0.2679 0.0050
vt 0.6961 0.0050
vt 220.9861 -0.9220
vt 220.9861 0.0972
vt 221.9195 0.0972
vt 221.9195 -0.9220
vt 220.9861 -0.9220
vt 221.9195 -0.9220
vt 221.9195 0.0972
vt 220.9861 0.0972
vt 220.9861 0.0000
vt 221.9195 0.0000
vt 221.9195 0.0050
vt 220.9861 0.0050
vt 221.9195 0.0000
vt 220.9861 0.0000
vt 220.9861 0.0050
vt 221.9195 0.0050
vt -0.9220 0.0000
vt 0.0972 0.0000
vt 0.0972 0.0050
vt -0.9220 0.0050
vt 0.0972 0.0000
vt -0.9220 0.0000
vt -0.9220 0.0050
vt 0.0972 0.0050
vt 205.5637 24.2255
vt 205.5637 25.1610
vt 206.9821 25.1610
vt 206.9821 24.2255
vt 205.5637 24.2255
vt 206.9821 24.2255
vt 206.9821 25.1610
vt 205.5637 25.1610
vt 205.5637 0.0000
vt 206.9821 0.0000
vt 206.9821 0.0050
vt 205.5637 0.0050
vt 206.9821 0.0000
vt 205.5637 0.0000
vt 205.5637 0.0050
vt 206.9821 0.0050
vt 24.2255 0.0000
vt 25.1610 0.0000
vt 25.1610 0.0050
vt 24.2255 0.0050
vt 25.1610 0.0000
vt 24.2255 0.0000
vt 24.2255 0.0050
vt 25.1610 0.0050
vt 207.2208 8.5327
vt 207.2208 10.2012
vt 208.9269 10.2012
vt 208.9269 8.5327
vt 207.2208 8.5327
vt 208.9269 8.5327
vt 208.9269 10.2012
vt 207.2208 10.2012
vt 207.2208 0.0000
vt 208.9269 0.0000
vt 208.9269 0.0050
vt 207.2208 0.0050
vt 208.9269 0.0000
vt 207.2208 0.0000
vt 207.2208 0.0050
vt 208.9269 0.0050
vt 8.5327 0.0000
vt 10.2012 0.0000
vt 10.2012 0.0050
vt 8.5327 0.0050
vt 10.2012 0.0000
vt 8.5327 0.0000
vt 8.5327 0.0050
vt 10.2012 0.0050
vt 216.5696 -19.3827
vt 216.5696 -18.0631
vt 217.9512 -18.0631
vt 217.9512 -19.3827
vt 216.5696 -19.3827
vt 217.9512 -19.3827
vt 217.9512 -18.0631
vt 216.5696 -18.0631
vt 216.5696 0.0000
vt 217.9512 0.0000
vt 217.9512 0.0050
vt 216.5696 0.0050
vt 217.9512 0.0000
vt 216.5696 0.0000
vt 216.5696 0.0050
vt 217.9512 0.0050
vt -19.3827 0.0000
vt -18.0631 0.0000
vt -18.0631 0.0050
vt -19.3827 0.0050
vt -18.0631 0.0000
vt -19.3827 0.0000
vt -19.3827 0.0050
vt -18.0631 0.0050
vt 217.4376 15.8359
vt 217.4376 18.0603
vt 219.1236 18.0603
vt 219.1236 15.8359
vt 217.4376 15.8359
vt 219.1236 15.8359
vt 219.1236 18.0603
vt 217.4376 18.0603
vt 217.4376 0.0000
vt 219.1236 0.0000
vt 219.1236 0.0050
vt 217.4376 0.0050
vt 219.1236 0.0000
vt 217.4376 0.0000
vt 217.4376 0.0050
vt 219.1236 0.0050
vt 15.8359 0.0000
vt 18.0603 0.0000
vt 18.0603 0.0050
vt 15.8359 0.0050
vt 18.0603 0.0000
vt 15.8359 0.0000
vt 15.8359 0.0050
vt 18.0603 0.0050
vt 222.6819 -15.8576
vt 222.6819 -15.2146
vt 223.6355 -15.2146
vt 223.6355 -15.8576
vt 222.6819 -15.8576
vt 223.6355 -15.8576
vt 223.6355 -15.2146
vt 222.6819 -15.2146
vt 222.6819 0.0000
vt 223.6355 0.0000
vt 223.6355 0.0050
vt 222.6819 0.0050
vt 223.6355 0.0000
vt 222.6819 0.0000
vt 222.6819 0.0050
vt 223.6355 0.0050
vt -15.8576 0.0000
vt -15.2146 0.0000
vt -15.2146 0.0050
vt -15.8576 0.0050
vt -15.2146 0.0000
vt -15.8576 0.0000
vt -15.8576 0.0050
vt -15.2146 0.0050
vt 210.0125 -24.2772
vt 210.0125 -23.7339
vt 210.8634 -23.7339
vt 210.8634 -24.2772
vt 210.0125 -24.2772
vt 210.8634 -24.2772
vt 210.8634 -23.7339
vt 210.0125 -23.7339
vt 210.0125 0.0000
vt 210.8634 0.0000
vt 210.8634 0.0050
vt 210.0125 0.0050
vt 210.8634 0.0000
vt 210.0125 0.0000
vt 210.0125 0.0050
vt 210.8634 0.0050
vt -24.2772 0.0000
vt -23.7339 0.0000
vt -23.7339 0.0050
vt -24.2772 0.0050
vt -23.7339 0.0000
vt -24.2772 0.0000
vt -24.2772 0.0050
vt -23.7339 0.0050
vt 205.0372 24.2750
vt 205.0372 25.6325
vt 206.0636 25.6325
vt 206.0636 24.2750
vt 205.0372 24.2750
vt 206.0636 24.2750
vt 206.0636 25.6325
vt 205.0372 25.6325
vt 205.0372 0.0000
vt 206.0636 0.0000
vt 206.0636 0.0050
vt 205.0372 0.0050
vt 206.0636 0.0000
vt 205.0372 0.0000
vt 205.0372 0.0050
vt 206.0636 0.0050
vt 24.2750 0.0000
vt 25.6325 0.0000
vt 25.6325 0.0050
vt 24.2750 0.0050
vt 25.6325 0.0000
vt 24.2750 0.0000
vt 24.2750 0.0050
vt 25.6325 0.0050
vt 185.9936 8.0769
vt 185.9936 9.1873
vt 186.8425 9.1873
vt 186.8425 8.0769
vt 185.9936 8.0769
vt 186.8425 8.0769
vt 186.8425 9.1873
vt 185.9936 9.1873
vt 185.9936 0.0000
vt 186.8425 0.0000
vt 186.8425 0.0050
vt 185.9936 0.0050
vt 186.8425 0.0000
vt 185.9936 0.0000
vt 185.9936 0.0050
vt 186.8425 0.0050
vt 8.0769 0.0000
vt 9.1873 0.0000
vt 9.1873 0.0050
vt 8.0769 0.0050
vt 9.1873 0.0000
vt 8.0769 0.0000
vt 8.0769 0.0050
vt 9.1873 0.0050
vt 178.1132 4.6551
vt 178.1132 6.0383
vt 179.1835 6.0383
vt 179.1835 4.6551
vt 178.1132 4.6551
vt 179.1835 4.6551
vt 179.1835 6.0383
vt 178.1132 6.0383
vt 178.1132 0.0000
vt 179.1835 0.0000
vt 179.1835 0.0050
vt 178.1132 0.0050
vt 179.1835 0.0000
vt 178.1132 0.0000
vt 178.1132 0.0050
vt 179.1835 0.0050
vt 4.6551 0.0000
vt 6.0383 0.0000
vt 6.0383 0.0050
vt 4.6551 0.0050
vt 6.0383 0.0000
vt 4.6551 0.0000
vt 4.6551 0.0050
vt 6.0383 0.0050
vt 222.2962 7.9324
vt 222.2962 8.8425
vt 223.0078 8.8425
vt 223.0078 7.9324
vt 222.2962 7.9324
vt 223.0078 7.9324
vt 223.0078 8.8425
vt 222.2962 8.8425
vt 222.2962 0.0000
vt 223.0078 0.0000
vt 223.0078 0.0050
vt 222.2962 0.0050
vt 223.0078 0.0000
vt 222.2962 0.0000
vt 222.2962 0.0050
vt 223.0078 0.0050
vt 7.9324 0.0000
vt 8.8425 0.0000
vt 8.8425 0.0050
vt 7.9324 0.0050
vt 8.8425 0.0000
vt 7.9324 0.0000
vt 7.9324 0.0050
vt 8.8425 0.0050
vt 187.7931 4.1976
vt 187.7931 5.4961
vt 188.9346 5.4961
vt 188.9346 4.1976
vt 187.7931 4.1976
vt 188.9346 4.1976
vt 188.9346 5.4961
vt 187.7931 5.4961
vt 187.7931 0.0000
vt 188.9346 0.0000
vt 188.9346 0.0050
vt 187.7931 0.0050
vt 188.9346 0.0000
vt 187.7931 0.0000
vt 187.7931 0.0050
vt 188.9346 0.0050
vt 4.1976 0.0000
vt 5.4961 0.0000
vt 5.4961 0.0050
vt 4.1976 0.0050
vt 5.4961 0.0000
vt 4.1976 0.0000
vt 4.1976 0.0050
vt 5.4961 0.0050
vt 193.4527 -13.0606
vt 193.4527 -11.6518
vt 194.4897 -11.6518
vt 194.4897 -13.0606
vt 193.4527 -13.0606
vt 194.4897 -13.0606
vt 194.4897 -11.6518
vt 193.4527 -11.6518
vt 193.4527 0.0000
vt 194.4897 0.0000
vt 194.4897 0.0050
vt 193.4527 0.0050
vt 194.4897 0.0000
vt 193.4527 0.0000
vt 193.4527 0.0050
vt 194.4897 0.0050
vt -13.0606 0.0000
vt -11.6518 0.0000
vt -11.6518 0.0050
vt -13.0606 0.0050
vt -11.6518 0.0000
vt -13.0606 0.0000
vt -13.0606 0.0050
vt -11.6518 0.0050
vt 213.5833 -1.6622
vt 213.5833 -0.2490
vt 214.8043 -0.2490
vt 214.8043 -1.6622
vt 213.5833 -1.6622
vt 214.8043 -1.6622
vt 214.8043 -0.2490
vt 213.5833 -0.2490
vt 213.5833 0.0000
vt 214.8043 0.0000
vt 214.8043 0.0050
vt 213.5833 0.0050
vt 214.8043 0.0000
vt 213.5833 0.0000
vt 213.5833 0.0050
vt 214.8043 0.0050
vt -1.6622 0.0000
vt -0.2490 0.0000
vt -0.2490 0.0050
vt -1.6622 0.0050
vt -0.2490 0.0000
vt -1.6622 0.0000
vt -1.6622 0.0050
vt -0.2490 0.0050
vt 204.4005 21.6238
vt 204.4005 22.5383
vt 205.3486 22.5383
vt 205.3486 21.6238
vt 204.4005 21.6238
vt 205.3486 21.6238
vt 205.3486 22.5383
vt 204.4005 22.5383
vt 204.4005 0.0000
vt 205.3486 0.0000
vt 205.3486 0.0050
vt 204.4005 0.0050
vt 205.3486 0.0000
vt 204.4005 0.0000
vt 204.4005 0.0050
vt 205.3486 0.0050
vt 21.6238 0.0000
vt 22.5383 0.0000
vt 22.5383 0.0050
vt 21.6238 0.0050
vt 22.5383 0.0000
vt 21.6238 0.0000
vt 21.6238 0.0050
vt 22.5383 0.0050
vt 189.4859 -20.8787
vt 189.4859 -18.8070
vt 191.0630 -18.8070
vt 191.0630 -20.8787
vt 189.4859 -20.8787
vt 191.0630 -20.8787
vt 191.0630 -18.8070
vt 189.4859 -18.8070
vt 189.4859 0.0000
vt 191.0630 0.0000
vt 191.0630 0.0050
vt 189.4859 0.0050
vt 191.0630 0.0000
vt 189.4859 0.0000
vt 189.4859 0.0050
vt 191.0630 0.0050
vt -20.8787 0.0000
vt -18.8070 0.0000
vt -18.8070 0.0050
vt -20.8787 0.0050
vt -18.8070 0.0000
vt -20.8787 0.0000
vt -20.8787 0.0050
vt -18.8070 0.0050
vt 190.1219 20.1872
vt 190.1219 20.9823
vt 191.1204 20.9823
vt 191.1204 20.1872
vt 190.1219 20.1872
vt 191.1204 20.1872
vt 191.1204 20.9823
vt 190.1219 20.9823
vt 190.1219 0.0000
vt 191.1204 0.0000
vt 191.1204 0.0050
vt 190.1219 0.0050
vt 191.1204 0.0000
vt 190.1219 0.0000
vt 190.1219 0.0050
vt 191.1204 0.0050
vt 20.1872 0.0000
vt 20.9823 0.0000
vt 20.9823 0.0050
vt 20.1872 0.0050
vt 20.9823 0.0000
vt 20.1872 0.0000
vt 20.1872 0.0050
vt 20.9823 0.0050
vt 202.8633 14.1469
vt 202.8633 15.6129
vt 204.4875 15.6129
vt 204.4875 14.1469
vt 202.8633 14.1469
vt 204.4875 14.1469
vt 204.4875 15.6129
vt 202.8633 15.6129
vt 202.8633 0.0000
vt 204.4875 0.0000
vt 204.4875 0.0050
vt 202.8633 0.0050
vt 204.4875 0.0000
vt 202.8633 0.0000
vt 202.8633 0.0050
vt 204.4875 0.0050
vt 14.1469 0.0000
vt 15.6129 0.0000
vt 15.6129 0.0050
vt 14.1469 0.0050
vt 15.6129 0.0000
vt 14.1469 0.0000
vt 14.1469 0.0050
vt 15.6129 0.0050
vt 178.8916 14.8804
vt 178.8916 15.9266
vt 180.6022 15.9266
vt 180.6022 14.8804
vt 178.8916 14.8804
vt 180.6022 14.8804
vt 180.6022 15.9266
vt 178.8916 15.9266
vt 178.8916 0.0000
vt 180.6022 0.0000
vt 180.6022 0.0050
vt 178.8916 0.0050
vt 180.6022 0.0000
vt 178.8916 0.0000
vt 178.8916 0.0050
vt 180.6022 0.0050
vt 14.8804 0.0000
vt 15.9266 0.0000
vt 15.9266 0.0050
vt 14.8804 0.0050
vt 15.9266 0.0000
vt 14.8804 0.0000
vt 14.8804 0.0050
vt 15.9266 0.0050
vt 224.0031 -6.7303
vt 224.0031 -5.0585
vt 225.3554 -5.0585
vt 225.3554 -6.7303
vt 224.0031 -6.7303
vt 225.3554 -6.7303
vt 225.3554 -5.0585
vt 224.0031 -5.0585
vt 224.0031 0.0000
vt 225.3554 0.0000
vt 225.3554 0.0050
vt 224.0031 0.0050
vt 225.3554 0.0000
vt 224.0031 0.0000
vt 224.0031 0.0050
vt 225.3554 0.0050
vt -6.7303 0.0000
vt -5.0585 0.0000
vt -5.0585 0.0050
vt -6.7303 0.0050
vt -5.0585 0.0000
vt -6.7303 0.0000
vt -6.7303 0.0050
vt -5.0585 0.0050
vt 205.5995 -26.6556
vt 205.5995 -25.0049
vt 206.8557 -25.0049
vt 206.8557 -26.6556
vt 205.5995 -26.6556
vt 206.8557 -26.6556
vt 206.8557 -25.0049
vt 205.5995 -25.0049
vt 205.5995 0.0000
vt 206.8557 0.0000
vt 206.8557 0.0050
vt 205.5995 0.0050
vt 206.8557 0.0000
vt 205.5995 0.0000
vt 205.5995 0.0050
vt 206.8557 0.0050
vt -26.6556 0.0000
vt -25.0049 0.0000
vt -25.0049 0.0050
vt -26.6556 0.0050
vt -25.0049 0.0000
vt -26.6556 0.0000
vt -26.6556 0.0050
vt -25.0049 0.0050
vt 193.4118 -12.1216
vt 193.4118 -11.0641
vt 194.9810 -11.0641
vt 194.9810 -12.1216
vt 193.4118 -12.1216
vt 194.9810 -12.1216
vt 194.9810 -11.0641
vt 193.4118 -11.0641
vt 193.4118 0.0000
vt 194.9810 0.0000
vt 194.9810 0.0050
vt 193.4118 0.0050
vt 194.9810 0.0000
vt 193.4118 0.0000
vt 193.4118 0.0050
vt 194.9810 0.0050
vt -12.1216 0.0000
vt -11.0641 0.0000
vt -11.0641 0.0050
vt -12.1216 0.0050
vt -11.0641 0.0000
vt -12.1216 0.0000
vt -12.1216 0.0050
vt -11.0641 0.0050
vt 195.5307 6.6519
vt 195.5307 7.2934
vt 196.2536 7.2934
vt 196.2536 6.6519
vt 195.5307 6.6519
vt 196.2536 6.6519
vt 196.2536 7.2934
vt 195.5307 7.2934
vt 195.5307 0.0000
vt 196.2536 0.0000
vt 196.2536 0.0050
vt 195.5307 0.0050
vt 196.2536 0.0000
vt 195.5307 0.0000
vt 195.5307 0.0050
vt 196.2536 0.0050
vt 6.6519 0.0000
vt 7.2934 0.0000
vt 7.2934 0.0050
vt 6.6519 0.0050
vt 7.2934 0.0000
vt 6.6519 0.0000
vt 6.6519 0.0050
vt 7.2934 0.0050
vt 179.5832 16.4843
vt 179.5832 17.1243
vt 180.1303 17.1243
vt 180.1303 16.4843
vt 179.5832 16.4843
vt 180.1303 16.4843
vt 180.1303 17.1243
vt 179.5832 17.1243
vt 179.5832 0.0000
vt 180.1303 0.0000
vt 180.1303 0.0050
vt 179.5832 0.0050
vt 180.1303 0.0000
vt 179.5832 0.0000
vt 179.5832 0.0050
vt 180.1303 0.0050
vt 16.4843 0.0000
vt 17.1243 0.0000
vt 17.1243 0.0050
vt 16.4843 0.0050
vt 17.1243 0.0000
vt 16.4843 0.0000
vt 16.4843 0.0050
vt 17.1243 0.0050
vt 180.7831 11.2380
vt 180.7831 12.0394
vt 181.7696 12.0394
vt 181.7696 11.2380
vt 180.7831 11.2380
vt 181.7696 11.2380
vt 181.7696 12.0394
vt 180.7831 12.0394
vt 180.7831 0.0000
vt 181.7696 0.0000
vt 181.7696 0.0050
vt 180.7831 0.0050
vt 181.7696 0.0000
vt 180.7831 0.0000
vt 180.7831 0.0050
vt 181.7696 0.0050
vt 11.2380 0.0000
vt 12.0394 0.0000
vt 12.0394 0.0050
vt 11.2380 0.0050
vt 12.0394 0.0000
vt 11.2380 0.0000
vt 11.2380 0.0050
vt 12.0394 0.0050
vt 218.2335 -24.3465
vt 218.2335 -23.5422
vt 219.3557 -23.5422
vt 219.3557 -24.3465
vt 218.2335 -24.3465
vt 219.3557 -24.3465
vt 219.3557 -23.5422
vt 218.2335 -23.5422
vt 218.2335 0.0000
vt 219.3557 0.0000
vt 219.3557 0.0050
vt 218.2335 0.0050
vt 219.3557 0.0000
vt 218.2335 0.0000
vt 218.2335 0.0050
vt 219.3557 0.0050
vt -24.3465 0.0000
vt -23.5422 0.0000
vt -23.5422 0.0050
vt -24.3465 0.0050
vt -23.5422 0.0000
vt -24.3465 0.0000
vt -24.3465 0.0050
vt -23.5422 0.0050
vt 195.9615 -11.5303
vt 195.9615 -9.7173
vt 197.3777 -9.7173
vt 197.3777 -11.5303
vt 195.9615 -11.5303
vt 197.3777 -11.5303
vt 197.3777 -9.7173
vt 195.9615 -9.7173
vt 195.9615 0.0000
vt 197.3777 0.0000
vt 197.3777 0.0050
vt 195.9615 0.0050
vt 197.3777 0.0000
vt 195.9615 0.0000
vt 195.9615 0.0050
vt 197.3777 0.0050
vt -11.5303 0.0000
vt -9.7173 0.0000
vt -9.7173 0.0050
vt -11.5303 0.0050
vt -9.7173 0.0000
vt -11.5303 0.0000
vt -11.5303 0.0050
vt -9.7173 0.0050
vt 180.2243 21.1711
vt 180.2243 22.3961
vt 181.4658 22.3961
vt 181.4658 21.1711
vt 180.2243 21.1711
vt 181.4658 21.1711
vt 181.4658 22.3961
vt 180.2243 22.3961
vt 180.2243 0.0000
vt 181.4658 0.0000
vt 181.4658 0.0050
vt 180.2243 0.0050
vt 181.4658 0.0000
vt 180.2243 0.0000
vt 180.2243 0.0050
vt 181.4658 0.0050
vt 21.1711 0.0000
vt 22.3961 0.0000
vt 22.3961 0.0050
vt 21.1711 0.0050
vt 22.3961 0.0000
vt 21.1711 0.0000
vt 21.1711 0.0050
vt 22.3961 0.0050
vt 195.4145 13.6384
vt 195.4145 14.5556
vt 196.3946 14.5556
vt 196.3946 13.6384
vt 195.4145 13.6384
vt 196.3946 13.6384
vt 196.3946 14.5556
vt 195.4145 14.5556
vt 195.4145 0.0000
vt 196.3946 0.0000
vt 196.3946 0.0050
vt 195.4145 0.0050
vt 196.3946 0.0000
vt 195.4145 0.0000
vt 195.4145 0.0050
vt 196.3946 0.0050
vt 13.6384 0.0000
vt 14.5556 0.0000
vt 14.5556 0.0050
vt 13.6384 0.0050
vt 14.5556 0.0000
vt 13.6384 0.0000
vt 13.6384 0.0050
vt 14.5556 0.0050
vt 217.5475 -6.9841
vt 217.5475 -5.9559
vt 218.5366 -5.9559
vt 218.5366 -6.9841
vt 217.5475 -6.9841
vt 218.5366 -6.9841
vt 218.5366 -5.9559
vt 217.5475 -5.9559
vt 217.5475 0.0000
vt 218.5366 0.0000
vt 218.5366 0.0050
vt 217.5475 0.0050
vt 218.5366 0.0000
vt 217.5475 0.0000
vt 217.5475 0.0050
vt 218.5366 0.0050
vt -6.9841 0.0000
vt -5.9559 0.0000
vt -5.9559 0.0050
vt -6.9841 0.0050
vt -5.9559 0.0000
vt -6.9841 0.0000
vt -6.9841 0.0050
vt -5.9559 0.0050
vt 180.3091 22.9769
vt 180.3091 23.8057
vt 181.3592 23.8057
vt 181.3592 22.9769
vt 180.3091 22.9769
vt 181.3592 22.9769
vt 181.3592 23.8057
vt 180.3091 23.8057
vt 180.3091 0.0000
vt 181.3592 0.0000
vt 181.3592 0.0050
vt 180.3091 0.0050
vt 181.3592 0.0000
vt 180.3091 0.0000
vt 180.3091 0.0050
vt 181.3592 0.0050
vt 22.9769 0.0000
vt 23.8057 0.0000
vt 23.8057 0.0050
vt 22.9769 0.0050
vt 23.8057 0.0000
vt 22.9769 0.0000
vt 22.9769 0.0050
vt 23.8057 0.0050
vt 220.7393 4.7320
vt 220.7393 6.2701
vt 222.2244 6.2701
vt 222.2244 4.7320
vt 220.7393 4.7320
vt 222.2244 4.7320
vt 222.2244 6.2701
vt 220.7393 6.2701
vt 220.7393 0.0000
vt 222.2244 0.0000
vt 222.2244 0.0050
vt 220.7393 0.0050
vt 222.2244 0.0000
vt 220.7393 0.0000
vt 220.7393 0.0050
vt 222.2244 0.0050
vt 4.7320 0.0000
vt 6.2701 0.0000
vt 6.2701 0.0050
vt 4.7320 0.0050
vt 6.2701 0.0000
vt 4.7320 0.0000
vt 4.7320 0.0050
vt 6.2701 0.0050
vt 204.9104 25.3487
vt 204.9104 26.3543
vt 205.6664 26.3543
vt 205.6664 25.3487
vt 204.9104 25.3487
vt 205.6664 25.3487
vt 205.6664 26.3543
vt 204.9104 26.3543
vt 204.9104 0.0000
vt 205.6664 0.0000
vt 205.6664 0.0050
vt 204.9104 0.0050
vt 205.6664 0.0000
vt 204.9104 0.0000
vt 204.9104 0.0050
vt 205.6664 0.0050
vt 25.3487 0.0000
vt 26.3543 0.0000
vt 26.3543 0.0050
vt 25.3487 0.0050
vt 26.3543 0.0000
vt 25.3487 0.0000
vt 25.3487 0.0050
vt 26.3543 0.0050
vt 218.1486 -4.8666
vt 218.1486 -3.4008
vt 219.8930 -3.4008
vt 219.8930 -4.8666
vt 218.1486 -4.8666
vt 219.8930 -4.8666
vt 219.8930 -3.4008
vt 218.1486 -3.4008
vt 218.1486 0.0000
vt 219.8930 0.0000
vt 219.8930 0.0050
vt 218.1486 0.0050
vt 219.8930 0.0000
vt 218.1486 0.0000
vt 218.1486 0.0050
vt 219.8930 0.0050
vt -4.8666 0.0000
vt -3.4008 0.0000
vt -3.4008 0.0050
vt -4.8666 0.0050
vt -3.4008 0.0000
vt -4.8666 0.0000
vt -4.8666 0.0050
vt -3.4008 0.0050
vt 193.1854 18.8587
vt 193.1854 19.8479
vt 194.3523 19.8479
vt 194.3523 18.8587
vt 193.1854 18.8587
vt 194.3523 18.8587
vt 194.3523 19.8479
vt 193.1854 19.8479
vt 193.1854 0.0000
vt 194.3523 0.0000
vt 194.3523 0.0050
vt 193.1854 0.0050
vt 194.3523 0.0000
vt 193.1854 0.0000
vt 193.1854 0.0050
vt 194.3523 0.0050
vt 18.8587 0.0000
vt 19.8479 0.0000
vt 19.8479 0.0050
vt 18.8587 0.0050
vt 19.8479 0.0000
vt 18.8587 0.0000
vt 18.8587 0.0050
vt 19.8479 0.0050
vt 224.4926 -9.8386
vt 224.4926 -9.2608
vt 225.0567 -9.2608
vt 225.0567 -9.8386
vt 224.4926 -9.8386
vt 225.0567 -9.8386
vt 225.0567 -9.2608
vt 224.4926 -9.2608
vt 224.4926 0.0000
vt 225.0567 0.0000
vt 225.0567 0.0050
vt 224.4926 0.0050
vt 225.0567 0.0000
vt 224.4926 0.0000
vt 224.4926 0.0050
vt 225.0567 0.0050
vt -9.8386 0.0000
vt -9.2608 0.0000
vt -9.2608 0.0050
vt -9.8386 0.0050
vt -9.2608 0.0000
vt -9.8386 0.0000
vt -9.8386 0.0050
vt -9.2608 0.0050
vt 224.3090 2.0374
vt 224.3090 2.6336
vt 224.8274 2.6336
vt 224.8274 2.0374
vt 224.3090 2.0374
vt 224.8274 2.0374
vt 224.8274 2.6336
vt 224.3090 2.6336
vt 224.3090 0.0000
vt 224.8274 0.0000
vt 224.8274 0.0050
vt 224.3090 0.0050
vt 224.8274 0.0000
vt 224.3090 0.0000
vt 224.3090 0.0050
vt 224.8274 0.0050
vt 2.0374 0.0000
vt 2.6336 0.0000
vt 2.6336 0.0050
vt 2.0374 0.0050
vt 2.6336 0.0000
vt 2.0374 0.0000
vt 2.0374 0.0050
vt 2.6336 0.0050
vt 186.0370 -1.8668
vt 186.0370 -1.1328
vt 186.8185 -1.1328
vt 186.8185 -1.8668
vt 186.0370 -1.8668
vt 186.8185 -1.8668
vt 186.8185 -1.1328
vt 186.0370 -1.1328
vt 186.0370 0.0000
vt 186.8185 0.0000
vt 186.8185 0.0050
vt 186.0370 0.0050
vt 186.8185 0.0000
vt 186.0370 0.0000
vt 186.0370 0.0050
vt 186.8185 0.0050
vt -1.8668 0.0000
vt -1.1328 0.0000
vt -1.1328 0.0050
vt -1.8668 0.0050
vt -1.1328 0.0000
vt -1.8668 0.0000
vt -1.8668 0.0050
vt -1.1328 0.0050
vt 221.9844 20.4914
vt 221.9844 21.0960
vt 222.7505 21.0960
vt 222.7505 20.4914
vt 221.9844 20.4914
vt 222.7505 20.4914
vt 222.7505 21.0960
vt 221.9844 21.0960
vt 221.9844 0.0000
vt 222.7505 0.0000
vt 222.7505 0.0050
vt 221.9844 0.0050
vt 222.7505 0.0000
vt 221.9844 0.0000
vt 221.9844 0.0050
vt 222.7505 0.0050
vt 20.4914 0.0000
vt 21.0960 0.0000
vt 21.0960 0.0050
vt 20.4914 0.0050
vt 21.0960 0.0000
vt 20.4914 0.0000
vt 20.4914 0.0050
vt 21.0960 0.0050
vt 199.7437 -15.9641
vt 199.7437 -15.3107
vt 200.5500 -15.3107
vt 200.5500 -15.9641
vt 199.7437 -15.9641
vt 200.5500 -15.9641
vt 200.5500 -15.3107
vt 199.7437 -15.3107
vt 199.7437 0.0000
vt 200.5500 0.0000
vt 200.5500 0.0050
vt 199.7437 0.0050
vt 200.5500 0.0000
vt 199.7437 0.0000
vt 199.7437 0.0050
vt 200.5500 0.0050
vt -15.9641 0.0000
vt -15.3107 0.0000
vt -15.3107 0.0050
vt -15.9641 0.0050
vt -15.3107 0.0000
vt -15.9641 0.0000
vt -15.9641 0.0050
vt -15.3107 0.0050
vt 218.0462 5.1571
vt 218.0462 5.8457
vt 218.6459 5.8457
vt 218.6459 5.1571
vt 218.0462 5.1571
vt 218.6459 5.1571
vt 218.6459 5.8457
vt 218.0462 5.8457
vt 218.0462 0.0000
vt 218.6459 0.0000
vt 218.6459 0.0050
vt 218.0462 0.0050
vt 218.6459 0.0000
vt 218.0462 0.0000
vt 218.0462 0.0050
vt 218.6459 0.0050
vt 5.1571 0.0000
vt 5.8457 0.0000
vt 5.8457 0.0050
vt 5.1571 0.0050
vt 5.8457 0.0000
vt 5.1571 0.0000
vt 5.1571 0.0050
vt 5.8457 0.0050
vt 174.8728 -11.3800
vt 174.8728 -10.9565
vt 175.5703 -10.9565
vt 175.5703 -11.3800
vt 174.8728 -11.3800
vt 175.5703 -11.3800
vt 175.5703 -10.9565
vt 174.8728 -10.9565
vt 174.8728 0.0000
vt 175.5703 0.0000
vt 175.5703 0.0050
vt 174.8728 0.0050
vt 175.5703 0.0000
vt 174.8728 0.0000
vt 174.8728 0.0050
vt 175.5703 0.0050
vt -11.3800 0.0000
vt -10.9565 0.0000
vt -10.9565 0.0050
vt -11.3800 0.0050
vt -10.9565 0.0000
vt -11.3800 0.0000
vt -11.3800 0.0050
vt -10.9565 0.0050
vt 184.8746 -16.0878
vt 184.8746 -15.4874
vt 185.8509 -15.4874
vt 185.8509 -16.0878
vt 184.8746 -16.0878
vt 185.8509 -16.0878
vt 185.8509 -15.4874
vt 184.8746 -15.4874
vt 184.8746 0.0000
vt 185.8509 0.0000
vt 185.8509 0.0050
vt 184.8746 0.0050
vt 185.8509 0.0000
vt 184.8746 0.0000
vt 184.8746 0.0050
vt 185.8509 0.0050
vt -16.0878 0.0000
vt -15.4874 0.0000
vt -15.4874 0.0050
vt -16.0878 0.0050
vt -15.4874 0.0000
vt -16.0878 0.0000
vt -16.0878 0.0050
vt -15.4874 0.0050
vt 180.0744 -15.8469
vt 180.0744 -13.8375
vt 181.5362 -13.8375
vt 181.5362 -15.8469
vt 180.0744 -15.8469
vt 181.5362 -15.8469
vt 181.5362 -13.8375
vt 180.0744 -13.8375
vt 180.0744 0.0000
vt 181.5362 0.0000
vt 181.5362 0.0050
vt 180.0744 0.0050
vt 181.5362 0.0000
vt 180.0744 0.0000
vt 180.0744 0.0050
vt 181.5362 0.0050
vt -15.8469 0.0000
vt -13.8375 0.0000
vt -13.8375 0.0050
vt -15.8469 0.0050
vt -13.8375 0.0000
vt -15.8469 0.0000
vt -15.8469 0.0050
vt -13.8375 0.0050
vt 210.5386 -0.5511
vt 210.5386 0.0459
vt 211.0585 0.0459
vt 211.0585 -0.5511
vt 210.5386 -0.5511
vt 211.0585 -0.5511
vt 211.0585 0.0459
vt 210.5386 0.0459
vt 210.5386 0.0000
vt 211.0585 0.0000
vt 211.0585 0.0050
vt 210.5386 0.0050
vt 211.0585 0.0000
vt 210.5386 0.0000
vt 210.5386 0.0050
vt 211.0585 0.0050
vt -0.5511 0.0000
vt 0.0459 0.0000
vt 0.0459 0.0050
vt -0.5511 0.0050
vt 0.0459 0.0000
vt -0.5511 0.0000
vt -0.5511 0.0050
vt 0.0459 0.0050
vt 215.6669 0.3655
vt 215.6669 1.3397
vt 216.9686 1.3397
vt 216.9686 0.3655
vt 215.6669 0.3655
vt 216.9686 0.3655
vt 216.9686 1.3397
vt 215.6669 1.3397
vt 215.6669 0.0000
vt 216.9686 0.0000
vt 216.9686 0.0050
vt 215.6669 0.0050
vt 216.9686 0.0000
vt 215.6669 0.0000
vt 215.6669 0.0050
vt 216.9686 0.0050
vt 0.3655 0.0000
vt 1.3397 0.0000
vt 1.3397 0.0050
vt 0.3655 0.0050
vt 1.3397 0.0000
vt 0.3655 0.0000
vt 0.3655 0.0050
vt 1.3397 0.0050
usemtl grime
f 1/1 2/2 3/3 4/4
f 5/5 6/6 7/7 8/8
f 9/9 10/10 11/11 12/12
f 13/13 14/14 15/15 16/16
f 17/17 18/18 19/19 20/20
f 21/21 22/22 23/23 24/24
f 25/25 26/26 27/27 28/28
f 29/29 30/30 31/31 32/32
f 33/33 34/34 35/35 36/36
f 37/37 38/38 39/39 40/40
f 41/41 42/42 43/43 44/44
f 45/45 46/46 47/47 48/48
usemtl grime_wall
f 49/49 50/50 51/51 52/52
f 53/53 54/54 55/55 56/56
f 57/57 58/58 59/59 60/60
f 61/61 62/62 63/63 64/64
f 65/65 66/66 67/67 68/68
f 69/69 70/70 71/71 72/72
f 73/73 74/74 75/75 76/76
f 77/77 78/78 79/79 80/80
f 81/81 82/82 83/83 84/84
f 85/85 86/86 87/87 88/88
f 89/89 90/90 91/91 92/92
f 93/93 94/94 95/95 96/96
f 97/97 98/98 99/99 100/100
f 101/101 102/102 103/103 104/104
f 105/105 106/106 107/107 108/108
f 109/109 110/110 111/111 112/112
f 113/113 114/114 115/115 116/116
f 117/117 118/118 119/119 120/120
f 121/121 122/122 123/123 124/124
f 125/125 126/126 127/127 128/128
f 129/129 130/130 131/131 132/132
f 133/133 134/134 135/135 136/136
f 137/137 138/138 139/139 140/140
f 141/141 142/142 143/143 144/144
usemtl grime
f 145/145 146/146 147/147 148/148
f 149/149 150/150 151/151 152/152
f 153/153 154/154 155/155 156/156
f 157/157 158/158 159/159 160/160
f 161/161 162/162 163/163 164/164
f 165/165 166/166 167/167 168/168
f 169/169 170/170 171/171 172/172
f 173/173 174/174 175/175 176/176
f 177/177 178/178 179/179 180/180
f 181/181 182/182 183/183 184/184
f 185/185 186/186 187/187 188/188
f 189/189 190/190 191/191 192/192
f 193/193 194/194 195/195 196/196
f 197/197 198/198 199/199 200/200
f 201/201 202/202 203/203 204/204
f 205/205 206/206 207/207 208/208
f 209/209 210/210 211/211 212/212
f 213/213 214/214 215/215 216/216
f 217/217 218/218 219/219 220/220
f 221/221 222/222 223/223 224/224
f 225/225 226/226 227/227 228/228
f 229/229 230/230 231/231 232/232
f 233/233 234/234 235/235 236/236
f 237/237 238/238 239/239 240/240
f 241/241 242/242 243/243 244/244
f 245/245 246/246 247/247 248/248
f 249/249 250/250 251/251 252/252
f 253/253 254/254 255/255 256/256
f 257/257 258/258 259/259 260/260
f 261/261 262/262 263/263 264/264
f 265/265 266/266 267/267 268/268
f 269/269 270/270 271/271 272/272
f 273/273 274/274 275/275 276/276
f 277/277 278/278 279/279 280/280
f 281/281 282/282 283/283 284/284
f 285/285 286/286 287/287 288/288
f 289/289 290/290 291/291 292/292
f 293/293 294/294 295/295 296/296
f 297/297 298/298 299/299 300/300
f 301/301 302/302 303/303 304/304
f 305/305 306/306 307/307 308/308
f 309/309 310/310 311/311 312/312
f 313/313 314/314 315/315 316/316
f 317/317 318/318 319/319 320/320
f 321/321 322/322 323/323 324/324
f 325/325 326/326 327/327 328/328
f 329/329 330/330 331/331 332/332
f 333/333 334/334 335/335 336/336
f 337/337 338/338 339/339 340/340
f 341/341 342/342 343/343 344/344
f 345/345 346/346 347/347 348/348
f 349/349 350/350 351/351 352/352
f 353/353 354/354 355/355 356/356
f 357/357 358/358 359/359 360/360
f 361/361 362/362 363/363 364/364
f 365/365 366/366 367/367 368/368
f 369/369 370/370 371/371 372/372
f 373/373 374/374 375/375 376/376
f 377/377 378/378 379/379 380/380
f 381/381 382/382 383/383 384/384
f 385/385 386/386 387/387 388/388
f 389/389 390/390 391/391 392/392
f 393/393 394/394 395/395 396/396
f 397/397 398/398 399/399 400/400
f 401/401 402/402 403/403 404/404
f 405/405 406/406 407/407 408/408
f 409/409 410/410 411/411 412/412
f 413/413 414/414 415/415 416/416
f 417/417 418/418 419/419 420/420
f 421/421 422/422 423/423 424/424
f 425/425 426/426 427/427 428/428
f 429/429 430/430 431/431 432/432
f 433/433 434/434 435/435 436/436
f 437/437 438/438 439/439 440/440
f 441/441 442/442 443/443 444/444
f 445/445 446/446 447/447 448/448
f 449/449 450/450 451/451 452/452
f 453/453 454/454 455/455 456/456
f 457/457 458/458 459/459 460/460
f 461/461 462/462 463/463 464/464
f 465/465 466/466 467/467 468/468
f 469/469 470/470 471/471 472/472
f 473/473 474/474 475/475 476/476
f 477/477 478/478 479/479 480/480
f 481/481 482/482 483/483 484/484
f 485/485 486/486 487/487 488/488
f 489/489 490/490 491/491 492/492
f 493/493 494/494 495/495 496/496
f 497/497 498/498 499/499 500/500
f 501/501 502/502 503/503 504/504
f 505/505 506/506 507/507 508/508
f 509/509 510/510 511/511 512/512
f 513/513 514/514 515/515 516/516
f 517/517 518/518 519/519 520/520
f 521/521 522/522 523/523 524/524
f 525/525 526/526 527/527 528/528
f 529/529 530/530 531/531 532/532
f 533/533 534/534 535/535 536/536
f 537/537 538/538 539/539 540/540
f 541/541 542/542 543/543 544/544
f 545/545 546/546 547/547 548/548
f 549/549 550/550 551/551 552/552
f 553/553 554/554 555/555 556/556
f 557/557 558/558 559/559 560/560
f 561/561 562/562 563/563 564/564
f 565/565 566/566 567/567 568/568
f 569/569 570/570 571/571 572/572
f 573/573 574/574 575/575 576/576
f 577/577 578/578 579/579 580/580
f 581/581 582/582 583/583 584/584
f 585/585 586/586 587/587 588/588
f 589/589 590/590 591/591 592/592
f 593/593 594/594 595/595 596/596
f 597/597 598/598 599/599 600/600
f 601/601 602/602 603/603 604/604
f 605/605 606/606 607/607 608/608
f 609/609 610/610 611/611 612/612
f 613/613 614/614 615/615 616/616
f 617/617 618/618 619/619 620/620
f 621/621 622/622 623/623 624/624
f 625/625 626/626 627/627 628/628
f 629/629 630/630 631/631 632/632
f 633/633 634/634 635/635 636/636
f 637/637 638/638 639/639 640/640
f 641/641 642/642 643/643 644/644
f 645/645 646/646 647/647 648/648
f 649/649 650/650 651/651 652/652
f 653/653 654/654 655/655 656/656
f 657/657 658/658 659/659 660/660
f 661/661 662/662 663/663 664/664
f 665/665 666/666 667/667 668/668
f 669/669 670/670 671/671 672/672
f 673/673 674/674 675/675 676/676
f 677/677 678/678 679/679 680/680
f 681/681 682/682 683/683 684/684
f 685/685 686/686 687/687 688/688
f 689/689 690/690 691/691 692/692
f 693/693 694/694 695/695 696/696
f 697/697 698/698 699/699 700/700
f 701/701 702/702 703/703 704/704
f 705/705 706/706 707/707 708/708
f 709/709 710/710 711/711 712/712
f 713/713 714/714 715/715 716/716
f 717/717 718/718 719/719 720/720
f 721/721 722/722 723/723 724/724
f 725/725 726/726 727/727 728/728
f 729/729 730/730 731/731 732/732
f 733/733 734/734 735/735 736/736
f 737/737 738/738 739/739 740/740
f 741/741 742/742 743/743 744/744
f 745/745 746/746 747/747 748/748
f 749/749 750/750 751/751 752/752
f 753/753 754/754 755/755 756/756
f 757/757 758/758 759/759 760/760
f 761/761 762/762 763/763 764/764
f 765/765 766/766 767/767 768/768
f 769/769 770/770 771/771 772/772
f 773/773 774/774 775/775 776/776
f 777/777 778/778 779/779 780/780
f 781/781 782/782 783/783 784/784
f 785/785 786/786 787/787 788/788
f 789/789 790/790 791/791 792/792
f 793/793 794/794 795/795 796/796
f 797/797 798/798 799/799 800/800
f 801/801 802/802 803/803 804/804
f 805/805 806/806 807/807 808/808
f 809/809 810/810 811/811 812/812
f 813/813 814/814 815/815 816/816
f 817/817 818/818 819/819 820/820
f 821/821 822/822 823/823 824/824
f 825/825 826/826 827/827 828/828
f 829/829 830/830 831/831 832/832
f 833/833 834/834 835/835 836/836
f 837/837 838/838 839/839 840/840
f 841/841 842/842 843/843 844/844
f 845/845 846/846 847/847 848/848
f 849/849 850/850 851/851 852/852
f 853/853 854/854 855/855 856/856
f 857/857 858/858 859/859 860/860
f 861/861 862/862 863/863 864/864
f 865/865 866/866 867/867 868/868
f 869/869 870/870 871/871 872/872
f 873/873 874/874 875/875 876/876
f 877/877 878/878 879/879 880/880
f 881/881 882/882 883/883 884/884
f 885/885 886/886 887/887 888/888
f 889/889 890/890 891/891 892/892
f 893/893 894/894 895/895 896/896
f 897/897 898/898 899/899 900/900
f 901/901 902/902 903/903 904/904
f 905/905 906/906 907/907 908/908
f 909/909 910/910 911/911 912/912
f 913/913 914/914 915/915 916/916
f 917/917 918/918 919/919 920/920
f 921/921 922/922 923/923 924/924
f 925/925 926/926 927/927 928/928
f 929/929 930/930 931/931 932/932
f 933/933 934/934 935/935 936/936
f 937/937 938/938 939/939 940/940
f 941/941 942/942 943/943 944/944
f 945/945 946/946 947/947 948/948
f 949/949 950/950 951/951 952/952
f 953/953 954/954 955/955 956/956
f 957/957 958/958 959/959 960/960
f 961/961 962/962 963/963 964/964
f 965/965 966/966 967/967 968/968
f 969/969 970/970 971/971 972/972
f 973/973 974/974 975/975 976/976
f 977/977 978/978 979/979 980/980
f 981/981 982/982 983/983 984/984
f 985/985 986/986 987/987 988/988
f 989/989 990/990 991/991 992/992
f 993/993 994/994 995/995 996/996
f 997/997 998/998 999/999 1000/1000
f 1001/1001 1002/1002 1003/1003 1004/1004
f 1005/1005 1006/1006 1007/1007 1008/1008
f 1009/1009 1010/1010 1011/1011 1012/1012
f 1013/1013 1014/1014 1015/1015 1016/1016
f 1017/1017 1018/1018 1019/1019 1020/1020
f 1021/1021 1022/1022 1023/1023 1024/1024
f 1025/1025 1026/1026 1027/1027 1028/1028
f 1029/1029 1030/1030 1031/1031 1032/1032
f 1033/1033 1034/1034 1035/1035 1036/1036
f 1037/1037 1038/1038 1039/1039 1040/1040
f 1041/1041 1042/1042 1043/1043 1044/1044
f 1045/1045 1046/1046 1047/1047 1048/1048
f 1049/1049 1050/1050 1051/1051 1052/1052
f 1053/1053 1054/1054 1055/1055 1056/1056
f 1057/1057 1058/1058 1059/1059 1060/1060
f 1061/1061 1062/1062 1063/1063 1064/1064
f 1065/1065 1066/1066 1067/1067 1068/1068
f 1069/1069 1070/1070 1071/1071 1072/1072
f 1073/1073 1074/1074 1075/1075 1076/1076
f 1077/1077 1078/1078 1079/1079 1080/1080
f 1081/1081 1082/1082 1083/1083 1084/1084
f 1085/1085 1086/1086 1087/1087 1088/1088
f 1089/1089 1090/1090 1091/1091 1092/1092
f 1093/1093 1094/1094 1095/1095 1096/1096
f 1097/1097 1098/1098 1099/1099 1100/1100
f 1101/1101 1102/1102 1103/1103 1104/1104
f 1105/1105 1106/1106 1107/1107 1108/1108
f 1109/1109 1110/1110 1111/1111 1112/1112
f 1113/1113 1114/1114 1115/1115 1116/1116
f 1117/1117 1118/1118 1119/1119 1120/1120
f 1121/1121 1122/1122 1123/1123 1124/1124
f 1125/1125 1126/1126 1127/1127 1128/1128
f 1129/1129 1130/1130 1131/1131 1132/1132
f 1133/1133 1134/1134 1135/1135 1136/1136
f 1137/1137 1138/1138 1139/1139 1140/1140
f 1141/1141 1142/1142 1143/1143 1144/1144
f 1145/1145 1146/1146 1147/1147 1148/1148
f 1149/1149 1150/1150 1151/1151 1152/1152
f 1153/1153 1154/1154 1155/1155 1156/1156
f 1157/1157 1158/1158 1159/1159 1160/1160
f 1161/1161 1162/1162 1163/1163 1164/1164
f 1165/1165 1166/1166 1167/1167 1168/1168
f 1169/1169 1170/1170 1171/1171 1172/1172
f 1173/1173 1174/1174 1175/1175 1176/1176
f 1177/1177 1178/1178 1179/1179 1180/1180
f 1181/1181 1182/1182 1183/1183 1184/1184
f 1185/1185 1186/1186 1187/1187 1188/1188
f 1189/1189 1190/1190 1191/1191 1192/1192
f 1193/1193 1194/1194 1195/1195 1196/1196
f 1197/1197 1198/1198 1199/1199 1200/1200
f 1201/1201 1202/1202 1203/1203 1204/1204
f 1205/1205 1206/1206 1207/1207 1208/1208
f 1209/1209 1210/1210 1211/1211 1212/1212
f 1213/1213 1214/1214 1215/1215 1216/1216
f 1217/1217 1218/1218 1219/1219 1220/1220
f 1221/1221 1222/1222 1223/1223 1224/1224
f 1225/1225 1226/1226 1227/1227 1228/1228
f 1229/1229 1230/1230 1231/1231 1232/1232
f 1233/1233 1234/1234 1235/1235 1236/1236
f 1237/1237 1238/1238 1239/1239 1240/1240
f 1241/1241 1242/1242 1243/1243 1244/1244
f 1245/1245 1246/1246 1247/1247 1248/1248
f 1249/1249 1250/1250 1251/1251 1252/1252
f 1253/1253 1254/1254 1255/1255 1256/1256
f 1257/1257 1258/1258 1259/1259 1260/1260
f 1261/1261 1262/1262 1263/1263 1264/1264
f 1265/1265 1266/1266 1267/1267 1268/1268
f 1269/1269 1270/1270 1271/1271 1272/1272
f 1273/1273 1274/1274 1275/1275 1276/1276
f 1277/1277 1278/1278 1279/1279 1280/1280
f 1281/1281 1282/1282 1283/1283 1284/1284
f 1285/1285 1286/1286 1287/1287 1288/1288
f 1289/1289 1290/1290 1291/1291 1292/1292
f 1293/1293 1294/1294 1295/1295 1296/1296
f 1297/1297 1298/1298 1299/1299 1300/1300
f 1301/1301 1302/1302 1303/1303 1304/1304
f 1305/1305 1306/1306 1307/1307 1308/1308
f 1309/1309 1310/1310 1311/1311 1312/1312
f 1313/1313 1314/1314 1315/1315 1316/1316
f 1317/1317 1318/1318 1319/1319 1320/1320
f 1321/1321 1322/1322 1323/1323 1324/1324
f 1325/1325 1326/1326 1327/1327 1328/1328
f 1329/1329 1330/1330 1331/1331 1332/1332
f 1333/1333 1334/1334 1335/1335 1336/1336
f 1337/1337 1338/1338 1339/1339 1340/1340
f 1341/1341 1342/1342 1343/1343 1344/1344
f 1345/1345 1346/1346 1347/1347 1348/1348
f 1349/1349 1350/1350 1351/1351 1352/1352
f 1353/1353 1354/1354 1355/1355 1356/1356
f 1357/1357 1358/1358 1359/1359 1360/1360
f 1361/1361 1362/1362 1363/1363 1364/1364
f 1365/1365 1366/1366 1367/1367 1368/1368
f 1369/1369 1370/1370 1371/1371 1372/1372
f 1373/1373 1374/1374 1375/1375 1376/1376
f 1377/1377 1378/1378 1379/1379 1380/1380
f 1381/1381 1382/1382 1383/1383 1384/1384
f 1385/1385 1386/1386 1387/1387 1388/1388
f 1389/1389 1390/1390 1391/1391 1392/1392
