# RoastEngine Backrooms level
mtllib backrooms.mtl
v 809.9500 0.0000 36.9500
v 809.9500 0.0000 39.5500
v 812.5500 0.0000 39.5500
v 812.5500 0.0000 36.9500
v 809.9500 3.0000 36.9500
v 812.5500 3.0000 36.9500
v 812.5500 3.0000 39.5500
v 809.9500 3.0000 39.5500
v 809.9500 0.0000 36.9500
v 812.5500 0.0000 36.9500
v 812.5500 3.0000 36.9500
v 809.9500 3.0000 36.9500
v 812.5500 0.0000 39.5500
v 809.9500 0.0000 39.5500
v 809.9500 3.0000 39.5500
v 812.5500 3.0000 39.5500
v 812.5500 0.0000 36.9500
v 812.5500 0.0000 39.5500
v 812.5500 3.0000 39.5500
v 812.5500 3.0000 36.9500
v 809.9500 0.0000 39.5500
v 809.9500 0.0000 36.9500
v 809.9500 3.0000 36.9500
v 809.9500 3.0000 39.5500
v 814.4500 0.0000 36.9500
v 814.4500 0.0000 39.5500
v 817.0500 0.0000 39.5500
v 817.0500 0.0000 36.9500
v 814.4500 3.0000 36.9500
v 817.0500 3.0000 36.9500
v 817.0500 3.0000 39.5500
v 814.4500 3.0000 39.5500
v 814.4500 0.0000 36.9500
v 817.0500 0.0000 36.9500
v 817.0500 3.0000 36.9500
v 814.4500 3.0000 36.9500
v 817.0500 0.0000 39.5500
v 814.4500 0.0000 39.5500
v 814.4500 3.0000 39.5500
v 817.0500 3.0000 39.5500
v 817.0500 0.0000 36.9500
v 817.0500 0.0000 39.5500
v 817.0500 3.0000 39.5500
v 817.0500 3.0000 36.9500
v 814.4500 0.0000 39.5500
v 814.4500 0.0000 36.9500
v 814.4500 3.0000 36.9500
v 814.4500 3.0000 39.5500
v 816.7000 0.0000 36.9500
v 816.7000 0.0000 39.5500
v 819.3000 0.0000 39.5500
v 819.3000 0.0000 36.9500
v 816.7000 3.0000 36.9500
v 819.3000 3.0000 36.9500
v 819.3000 3.0000 39.5500
v 816.7000 3.0000 39.5500
v 816.7000 0.0000 36.9500
v 819.3000 0.0000 36.9500
v 819.3000 3.0000 36.9500
v 816.7000 3.0000 36.9500
v 819.3000 0.0000 39.5500
v 816.7000 0.0000 39.5500
v 816.7000 3.0000 39.5500
v 819.3000 3.0000 39.5500
v 819.3000 0.0000 36.9500
v 819.3000 0.0000 39.5500
v 819.3000 3.0000 39.5500
v 819.3000 3.0000 36.9500
v 816.7000 0.0000 39.5500
v 816.7000 0.0000 36.9500
v 816.7000 3.0000 36.9500
v 816.7000 3.0000 39.5500
v 818.9500 0.0000 36.9500
v 818.9500 0.0000 39.5500
v 821.5500 0.0000 39.5500
v 821.5500 0.0000 36.9500
v 818.9500 3.0000 36.9500
v 821.5500 3.0000 36.9500
v 821.5500 3.0000 39.5500
v 818.9500 3.0000 39.5500
v 818.9500 0.0000 36.9500
v 821.5500 0.0000 36.9500
v 821.5500 3.0000 36.9500
v 818.9500 3.0000 36.9500
v 821.5500 0.0000 39.5500
v 818.9500 0.0000 39.5500
v 818.9500 3.0000 39.5500
v 821.5500 3.0000 39.5500
v 821.5500 0.0000 36.9500
v 821.5500 0.0000 39.5500
v 821.5500 3.0000 39.5500
v 821.5500 3.0000 36.9500
v 818.9500 0.0000 39.5500
v 818.9500 0.0000 36.9500
v 818.9500 3.0000 36.9500
v 818.9500 3.0000 39.5500
v 823.4500 0.0000 36.9500
v 823.4500 0.0000 39.5500
v 826.0500 0.0000 39.5500
v 826.0500 0.0000 36.9500
v 823.4500 3.0000 36.9500
v 826.0500 3.0000 36.9500
v 826.0500 3.0000 39.5500
v 823.4500 3.0000 39.5500
v 823.4500 0.0000 36.9500
v 826.0500 0.0000 36.9500
v 826.0500 3.0000 36.9500
v 823.4500 3.0000 36.9500
v 826.0500 0.0000 39.5500
v 823.4500 0.0000 39.5500
v 823.4500 3.0000 39.5500
v 826.0500 3.0000 39.5500
v 826.0500 0.0000 36.9500
v 826.0500 0.0000 39.5500
v 826.0500 3.0000 39.5500
v 826.0500 3.0000 36.9500
v 823.4500 0.0000 39.5500
v 823.4500 0.0000 36.9500
v 823.4500 3.0000 36.9500
v 823.4500 3.0000 39.5500
v 827.9500 0.0000 36.9500
v 827.9500 0.0000 39.5500
v 830.5500 0.0000 39.5500
v 830.5500 0.0000 36.9500
v 827.9500 3.0000 36.9500
v 830.5500 3.0000 36.9500
v 830.5500 3.0000 39.5500
v 827.9500 3.0000 39.5500
v 827.9500 0.0000 36.9500
v 830.5500 0.0000 36.9500
v 830.5500 3.0000 36.9500
v 827.9500 3.0000 36.9500
v 830.5500 0.0000 39.5500
v 827.9500 0.0000 39.5500
v 827.9500 3.0000 39.5500
v 830.5500 3.0000 39.5500
v 830.5500 0.0000 36.9500
v 830.5500 0.0000 39.5500
v 830.5500 3.0000 39.5500
v 830.5500 3.0000 36.9500
v 827.9500 0.0000 39.5500
v 827.9500 0.0000 36.9500
v 827.9500 3.0000 36.9500
v 827.9500 3.0000 39.5500
v 830.2000 0.0000 36.9500
v 830.2000 0.0000 39.5500
v 832.8000 0.0000 39.5500
v 832.8000 0.0000 36.9500
v 830.2000 3.0000 36.9500
v 832.8000 3.0000 36.9500
v 832.8000 3.0000 39.5500
v 830.2000 3.0000 39.5500
v 830.2000 0.0000 36.9500
v 832.8000 0.0000 36.9500
v 832.8000 3.0000 36.9500
v 830.2000 3.0000 36.9500
v 832.8000 0.0000 39.5500
v 830.2000 0.0000 39.5500
v 830.2000 3.0000 39.5500
v 832.8000 3.0000 39.5500
v 832.8000 0.0000 36.9500
v 832.8000 0.0000 39.5500
v 832.8000 3.0000 39.5500
v 832.8000 3.0000 36.9500
v 830.2000 0.0000 39.5500
v 830.2000 0.0000 36.9500
v 830.2000 3.0000 36.9500
v 830.2000 3.0000 39.5500
v 832.4500 0.0000 36.9500
v 832.4500 0.0000 39.5500
v 835.0500 0.0000 39.5500
v 835.0500 0.0000 36.9500
v 832.4500 3.0000 36.9500
v 835.0500 3.0000 36.9500
v 835.0500 3.0000 39.5500
v 832.4500 3.0000 39.5500
v 832.4500 0.0000 36.9500
v 835.0500 0.0000 36.9500
v 835.0500 3.0000 36.9500
v 832.4500 3.0000 36.9500
v 835.0500 0.0000 39.5500
v 832.4500 0.0000 39.5500
v 832.4500 3.0000 39.5500
v 835.0500 3.0000 39.5500
v 835.0500 0.0000 36.9500
v 835.0500 0.0000 39.5500
v 835.0500 3.0000 39.5500
v 835.0500 3.0000 36.9500
v 832.4500 0.0000 39.5500
v 832.4500 0.0000 36.9500
v 832.4500 3.0000 36.9500
v 832.4500 3.0000 39.5500
v 809.9500 0.0000 39.2000
v 809.9500 0.0000 41.8000
v 812.5500 0.0000 41.8000
v 812.5500 0.0000 39.2000
v 809.9500 3.0000 39.2000
v 812.5500 3.0000 39.2000
v 812.5500 3.0000 41.8000
v 809.9500 3.0000 41.8000
v 809.9500 0.0000 39.2000
v 812.5500 0.0000 39.2000
v 812.5500 3.0000 39.2000
v 809.9500 3.0000 39.2000
v 812.5500 0.0000 41.8000
v 809.9500 0.0000 41.8000
v 809.9500 3.0000 41.8000
v 812.5500 3.0000 41.8000
v 812.5500 0.0000 39.2000
v 812.5500 0.0000 41.8000
v 812.5500 3.0000 41.8000
v 812.5500 3.0000 39.2000
v 809.9500 0.0000 41.8000
v 809.9500 0.0000 39.2000
v 809.9500 3.0000 39.2000
v 809.9500 3.0000 41.8000
v 813.3500 2.7000 40.3500
v 813.6500 2.7000 40.3500
v 813.6500 2.7000 40.6500
v 813.3500 2.7000 40.6500
v 813.3500 2.8600 40.3500
v 813.6500 2.8600 40.3500
v 813.6500 2.8600 40.6500
v 813.3500 2.8600 40.6500
v 813.3100 2.8600 40.3100
v 813.6900 2.8600 40.3100
v 813.6900 2.8600 40.6900
v 813.3100 2.8600 40.6900
v 813.3100 2.9400 40.3100
v 813.6900 2.9400 40.3100
v 813.6900 2.9400 40.6900
v 813.3100 2.9400 40.6900
v 811.3700 2.6000 42.7500
v 811.3700 2.6000 42.7500
v 811.3349 2.6000 42.8349
v 811.3349 2.6000 42.8349
v 811.2500 2.6000 42.8700
v 811.2500 2.6000 42.8700
v 811.1651 2.6000 42.8349
v 811.1651 2.6000 42.8349
v 811.1300 2.6000 42.7500
v 811.1300 2.6000 42.7500
v 811.1651 2.6000 42.6651
v 811.1651 2.6000 42.6651
v 811.2500 2.6000 42.6300
v 811.2500 2.6000 42.6300
v 811.3349 2.6000 42.6651
v 811.3349 2.6000 42.6651
v 811.2500 2.6000 42.7500
v 811.2500 2.6000 42.7500
v 811.2500 2.4800 42.6300
v 836.0000 2.4800 42.6300
v 836.0000 2.4800 42.8700
v 811.2500 2.4800 42.8700
v 811.2500 2.7200 42.6300
v 836.0000 2.7200 42.6300
v 836.0000 2.7200 42.8700
v 811.2500 2.7200 42.8700
vt 337.4792 15.3958
vt 337.4792 16.4792
vt 338.5625 16.4792
vt 338.5625 15.3958
vt 337.4792 15.3958
vt 338.5625 15.3958
vt 338.5625 16.4792
vt 337.4792 16.4792
vt 337.4792 0.0000
vt 338.5625 0.0000
vt 338.5625 1.2500
vt 337.4792 1.2500
vt 338.5625 0.0000
vt 337.4792 0.0000
vt 337.4792 1.2500
vt 338.5625 1.2500
vt 15.3958 0.0000
vt 16.4792 0.0000
vt 16.4792 1.2500
vt 15.3958 1.2500
vt 16.4792 0.0000
vt 15.3958 0.0000
vt 15.3958 1.2500
vt 16.4792 1.2500
vt 339.3542 15.3958
vt 339.3542 16.4792
vt 340.4375 16.4792
vt 340.4375 15.3958
vt 339.3542 15.3958
vt 340.4375 15.3958
vt 340.4375 16.4792
vt 339.3542 16.4792
vt 339.3542 0.0000
vt 340.4375 0.0000
vt 340.4375 1.2500
vt 339.3542 1.2500
vt 340.4375 0.0000
vt 339.3542 0.0000
vt 339.3542 1.2500
vt 340.4375 1.2500
vt 15.3958 0.0000
vt 16.4792 0.0000
vt 16.4792 1.2500
vt 15.3958 1.2500
vt 16.4792 0.0000
vt 15.3958 0.0000
vt 15.3958 1.2500
vt 16.4792 1.2500
vt 340.2917 15.3958
vt 340.2917 16.4792
vt 341.3750 16.4792
vt 341.3750 15.3958
vt 340.2917 15.3958
vt 341.3750 15.3958
vt 341.3750 16.4792
vt 340.2917 16.4792
vt 340.2917 0.0000
vt 341.3750 0.0000
vt 341.3750 1.2500
vt 340.2917 1.2500
vt 341.3750 0.0000
vt 340.2917 0.0000
vt 340.2917 1.2500
vt 341.3750 1.2500
vt 15.3958 0.0000
vt 16.4792 0.0000
vt 16.4792 1.2500
vt 15.3958 1.2500
vt 16.4792 0.0000
vt 15.3958 0.0000
vt 15.3958 1.2500
vt 16.4792 1.2500
vt 341.2292 15.3958
vt 341.2292 16.4792
vt 342.3125 16.4792
vt 342.3125 15.3958
vt 341.2292 15.3958
vt 342.3125 15.3958
vt 342.3125 16.4792
vt 341.2292 16.4792
vt 341.2292 0.0000
vt 342.3125 0.0000
vt 342.3125 1.2500
vt 341.2292 1.2500
vt 342.3125 0.0000
vt 341.2292 0.0000
vt 341.2292 1.2500
vt 342.3125 1.2500
vt 15.3958 0.0000
vt 16.4792 0.0000
vt 16.4792 1.2500
vt 15.3958 1.2500
vt 16.4792 0.0000
vt 15.3958 0.0000
vt 15.3958 1.2500
vt 16.4792 1.2500
vt 343.1042 15.3958
vt 343.1042 16.4792
vt 344.1875 16.4792
vt 344.1875 15.3958
vt 343.1042 15.3958
vt 344.1875 15.3958
vt 344.1875 16.4792
vt 343.1042 16.4792
vt 343.1042 0.0000
vt 344.1875 0.0000
vt 344.1875 1.2500
vt 343.1042 1.2500
vt 344.1875 0.0000
vt 343.1042 0.0000
vt 343.1042 1.2500
vt 344.1875 1.2500
vt 15.3958 0.0000
vt 16.4792 0.0000
vt 16.4792 1.2500
vt 15.3958 1.2500
vt 16.4792 0.0000
vt 15.3958 0.0000
vt 15.3958 1.2500
vt 16.4792 1.2500
vt 344.9792 15.3958
vt 344.9792 16.4792
vt 346.0625 16.4792
vt 346.0625 15.3958
vt 344.9792 15.3958
vt 346.0625 15.3958
vt 346.0625 16.4792
vt 344.9792 16.4792
vt 344.9792 0.0000
vt 346.0625 0.0000
vt 346.0625 1.2500
vt 344.9792 1.2500
vt 346.0625 0.0000
vt 344.9792 0.0000
vt 344.9792 1.2500
vt 346.0625 1.2500
vt 15.3958 0.0000
vt 16.4792 0.0000
vt 16.4792 1.2500
vt 15.3958 1.2500
vt 16.4792 0.0000
vt 15.3958 0.0000
vt 15.3958 1.2500
vt 16.4792 1.2500
vt 345.9167 15.3958
vt 345.9167 16.4792
vt 347.0000 16.4792
vt 347.0000 15.3958
vt 345.9167 15.3958
vt 347.0000 15.3958
vt 347.0000 16.4792
vt 345.9167 16.4792
vt 345.9167 0.0000
vt 347.0000 0.0000
vt 347.0000 1.2500
vt 345.9167 1.2500
vt 347.0000 0.0000
vt 345.9167 0.0000
vt 345.9167 1.2500
vt 347.0000 1.2500
vt 15.3958 0.0000
vt 16.4792 0.0000
vt 16.4792 1.2500
vt 15.3958 1.2500
vt 16.4792 0.0000
vt 15.3958 0.0000
vt 15.3958 1.2500
vt 16.4792 1.2500
vt 346.8542 15.3958
vt 346.8542 16.4792
vt 347.9375 16.4792
vt 347.9375 15.3958
vt 346.8542 15.3958
vt 347.9375 15.3958
vt 347.9375 16.4792
vt 346.8542 16.4792
vt 346.8542 0.0000
vt 347.9375 0.0000
vt 347.9375 1.2500
vt 346.8542 1.2500
vt 347.9375 0.0000
vt 346.8542 0.0000
vt 346.8542 1.2500
vt 347.9375 1.2500
vt 15.3958 0.0000
vt 16.4792 0.0000
vt 16.4792 1.2500
vt 15.3958 1.2500
vt 16.4792 0.0000
vt 15.3958 0.0000
vt 15.3958 1.2500
vt 16.4792 1.2500
vt 337.4792 16.3333
vt 337.4792 17.4167
vt 338.5625 17.4167
vt 338.5625 16.3333
vt 337.4792 16.3333
vt 338.5625 16.3333
vt 338.5625 17.4167
vt 337.4792 17.4167
vt 337.4792 0.0000
vt 338.5625 0.0000
vt 338.5625 1.2500
vt 337.4792 1.2500
vt 338.5625 0.0000
vt 337.4792 0.0000
vt 337.4792 1.2500
vt 338.5625 1.2500
vt 16.3333 0.0000
vt 17.4167 0.0000
vt 17.4167 1.2500
vt 16.3333 1.2500
vt 17.4167 0.0000
vt 16.3333 0.0000
vt 16.3333 1.2500
vt 17.4167 1.2500
usemtl lamp_caged
f 217 220 219 218
f 221 222 223 224
f 217 218 222 221
f 219 220 224 223
f 218 219 223 222
f 220 217 221 224
usemtl steel
f 225 228 227 226
f 229 230 231 232
f 225 226 230 229
f 227 228 232 231
f 226 227 231 230
f 228 225 229 232
usemtl pipe
f 233 235 236 234
f 235 237 238 236
f 237 239 240 238
f 239 241 242 240
f 241 243 244 242
f 243 245 246 244
f 245 247 248 246
f 247 233 234 248
f 249 234 236
f 250 235 233
f 249 236 238
f 250 237 235
f 249 238 240
f 250 239 237
f 249 240 242
f 250 241 239
f 249 242 244
f 250 243 241
f 249 244 246
f 250 245 243
f 249 246 248
f 250 247 245
f 249 248 234
f 250 233 247
f 251 254 253 252
f 255 256 257 258
f 251 252 256 255
f 253 254 258 257
f 252 253 257 256
f 254 251 255 258
usemtl brick_dark
f 1/1 2/2 3/3 4/4
f 5/5 6/6 7/7 8/8
f 9/9 10/10 11/11 12/12
f 13/13 14/14 15/15 16/16
f 17/17 18/18 19/19 20/20
f 21/21 22/22 23/23 24/24
usemtl brick
f 25/25 26/26 27/27 28/28
f 29/29 30/30 31/31 32/32
f 33/33 34/34 35/35 36/36
f 37/37 38/38 39/39 40/40
f 41/41 42/42 43/43 44/44
f 45/45 46/46 47/47 48/48
f 49/49 50/50 51/51 52/52
f 53/53 54/54 55/55 56/56
f 57/57 58/58 59/59 60/60
f 61/61 62/62 63/63 64/64
f 65/65 66/66 67/67 68/68
f 69/69 70/70 71/71 72/72
f 73/73 74/74 75/75 76/76
f 77/77 78/78 79/79 80/80
f 81/81 82/82 83/83 84/84
f 85/85 86/86 87/87 88/88
f 89/89 90/90 91/91 92/92
f 93/93 94/94 95/95 96/96
f 97/97 98/98 99/99 100/100
f 101/101 102/102 103/103 104/104
f 105/105 106/106 107/107 108/108
f 109/109 110/110 111/111 112/112
f 113/113 114/114 115/115 116/116
f 117/117 118/118 119/119 120/120
f 121/121 122/122 123/123 124/124
f 125/125 126/126 127/127 128/128
f 129/129 130/130 131/131 132/132
f 133/133 134/134 135/135 136/136
f 137/137 138/138 139/139 140/140
f 141/141 142/142 143/143 144/144
f 145/145 146/146 147/147 148/148
f 149/149 150/150 151/151 152/152
f 153/153 154/154 155/155 156/156
f 157/157 158/158 159/159 160/160
f 161/161 162/162 163/163 164/164
f 165/165 166/166 167/167 168/168
f 169/169 170/170 171/171 172/172
f 173/173 174/174 175/175 176/176
f 177/177 178/178 179/179 180/180
f 181/181 182/182 183/183 184/184
f 185/185 186/186 187/187 188/188
f 189/189 190/190 191/191 192/192
usemtl brick_dark
f 193/193 194/194 195/195 196/196
f 197/197 198/198 199/199 200/200
f 201/201 202/202 203/203 204/204
f 205/205 206/206 207/207 208/208
f 209/209 210/210 211/211 212/212
f 213/213 214/214 215/215 216/216
