# RoastEngine Backrooms level
mtllib backrooms.mtl
v 376.0750 0.0000 -23.9250
v 376.0750 0.0000 -21.0750
v 378.9250 0.0000 -21.0750
v 378.9250 0.0000 -23.9250
v 376.0750 3.0000 -23.9250
v 378.9250 3.0000 -23.9250
v 378.9250 3.0000 -21.0750
v 376.0750 3.0000 -21.0750
v 376.0750 0.0000 -23.9250
v 378.9250 0.0000 -23.9250
v 378.9250 3.0000 -23.9250
v 376.0750 3.0000 -23.9250
v 378.9250 0.0000 -21.0750
v 376.0750 0.0000 -21.0750
v 376.0750 3.0000 -21.0750
v 378.9250 3.0000 -21.0750
v 378.9250 0.0000 -23.9250
v 378.9250 0.0000 -21.0750
v 378.9250 3.0000 -21.0750
v 378.9250 3.0000 -23.9250
v 376.0750 0.0000 -21.0750
v 376.0750 0.0000 -23.9250
v 376.0750 3.0000 -23.9250
v 376.0750 3.0000 -21.0750
v 381.0750 0.0000 -23.9250
v 381.0750 0.0000 -21.0750
v 383.9250 0.0000 -21.0750
v 383.9250 0.0000 -23.9250
v 381.0750 3.0000 -23.9250
v 383.9250 3.0000 -23.9250
v 383.9250 3.0000 -21.0750
v 381.0750 3.0000 -21.0750
v 381.0750 0.0000 -23.9250
v 383.9250 0.0000 -23.9250
v 383.9250 3.0000 -23.9250
v 381.0750 3.0000 -23.9250
v 383.9250 0.0000 -21.0750
v 381.0750 0.0000 -21.0750
v 381.0750 3.0000 -21.0750
v 383.9250 3.0000 -21.0750
v 383.9250 0.0000 -23.9250
v 383.9250 0.0000 -21.0750
v 383.9250 3.0000 -21.0750
v 383.9250 3.0000 -23.9250
v 381.0750 0.0000 -21.0750
v 381.0750 0.0000 -23.9250
v 381.0750 3.0000 -23.9250
v 381.0750 3.0000 -21.0750
v 386.0750 0.0000 -23.9250
v 386.0750 0.0000 -21.0750
v 388.9250 0.0000 -21.0750
v 388.9250 0.0000 -23.9250
v 386.0750 3.0000 -23.9250
v 388.9250 3.0000 -23.9250
v 388.9250 3.0000 -21.0750
v 386.0750 3.0000 -21.0750
v 386.0750 0.0000 -23.9250
v 388.9250 0.0000 -23.9250
v 388.9250 3.0000 -23.9250
v 386.0750 3.0000 -23.9250
v 388.9250 0.0000 -21.0750
v 386.0750 0.0000 -21.0750
v 386.0750 3.0000 -21.0750
v 388.9250 3.0000 -21.0750
v 388.9250 0.0000 -23.9250
v 388.9250 0.0000 -21.0750
v 388.9250 3.0000 -21.0750
v 388.9250 3.0000 -23.9250
v 386.0750 0.0000 -21.0750
v 386.0750 0.0000 -23.9250
v 386.0750 3.0000 -23.9250
v 386.0750 3.0000 -21.0750
v 391.0750 0.0000 -23.9250
v 391.0750 0.0000 -21.0750
v 393.9250 0.0000 -21.0750
v 393.9250 0.0000 -23.9250
v 391.0750 3.0000 -23.9250
v 393.9250 3.0000 -23.9250
v 393.9250 3.0000 -21.0750
v 391.0750 3.0000 -21.0750
v 391.0750 0.0000 -23.9250
v 393.9250 0.0000 -23.9250
v 393.9250 3.0000 -23.9250
v 391.0750 3.0000 -23.9250
v 393.9250 0.0000 -21.0750
v 391.0750 0.0000 -21.0750
v 391.0750 3.0000 -21.0750
v 393.9250 3.0000 -21.0750
v 393.9250 0.0000 -23.9250
v 393.9250 0.0000 -21.0750
v 393.9250 3.0000 -21.0750
v 393.9250 3.0000 -23.9250
v 391.0750 0.0000 -21.0750
v 391.0750 0.0000 -23.9250
v 391.0750 3.0000 -23.9250
v 391.0750 3.0000 -21.0750
v 393.5750 0.0000 -23.9250
v 393.5750 0.0000 -21.0750
v 396.4250 0.0000 -21.0750
v 396.4250 0.0000 -23.9250
v 393.5750 3.0000 -23.9250
v 396.4250 3.0000 -23.9250
v 396.4250 3.0000 -21.0750
v 393.5750 3.0000 -21.0750
v 393.5750 0.0000 -23.9250
v 396.4250 0.0000 -23.9250
v 396.4250 3.0000 -23.9250
v 393.5750 3.0000 -23.9250
v 396.4250 0.0000 -21.0750
v 393.5750 0.0000 -21.0750
v 393.5750 3.0000 -21.0750
v 396.4250 3.0000 -21.0750
v 396.4250 0.0000 -23.9250
v 396.4250 0.0000 -21.0750
v 396.4250 3.0000 -21.0750
v 396.4250 3.0000 -23.9250
v 393.5750 0.0000 -21.0750
v 393.5750 0.0000 -23.9250
v 393.5750 3.0000 -23.9250
v 393.5750 3.0000 -21.0750
v 396.0750 0.0000 -23.9250
v 396.0750 0.0000 -21.0750
v 398.9250 0.0000 -21.0750
v 398.9250 0.0000 -23.9250
v 396.0750 3.0000 -23.9250
v 398.9250 3.0000 -23.9250
v 398.9250 3.0000 -21.0750
v 396.0750 3.0000 -21.0750
v 396.0750 0.0000 -23.9250
v 398.9250 0.0000 -23.9250
v 398.9250 3.0000 -23.9250
v 396.0750 3.0000 -23.9250
v 398.9250 0.0000 -21.0750
v 396.0750 0.0000 -21.0750
v 396.0750 3.0000 -21.0750
v 398.9250 3.0000 -21.0750
v 398.9250 0.0000 -23.9250
v 398.9250 0.0000 -21.0750
v 398.9250 3.0000 -21.0750
v 398.9250 3.0000 -23.9250
v 396.0750 0.0000 -21.0750
v 396.0750 0.0000 -23.9250
v 396.0750 3.0000 -23.9250
v 396.0750 3.0000 -21.0750
v 401.0750 0.0000 -23.9250
v 403.9250 0.0000 -23.9250
v 403.9250 0.0000 -21.0750
v 401.0750 0.0000 -21.0750
v 401.0750 3.0000 -23.9250
v 403.9250 3.0000 -23.9250
v 403.9250 3.0000 -21.0750
v 401.0750 3.0000 -21.0750
v 381.0750 0.0000 -21.4250
v 381.0750 0.0000 -18.5750
v 383.9250 0.0000 -18.5750
v 383.9250 0.0000 -21.4250
v 381.0750 3.0000 -21.4250
v 383.9250 3.0000 -21.4250
v 383.9250 3.0000 -18.5750
v 381.0750 3.0000 -18.5750
v 381.0750 0.0000 -21.4250
v 383.9250 0.0000 -21.4250
v 383.9250 3.0000 -21.4250
v 381.0750 3.0000 -21.4250
v 383.9250 0.0000 -18.5750
v 381.0750 0.0000 -18.5750
v 381.0750 3.0000 -18.5750
v 383.9250 3.0000 -18.5750
v 383.9250 0.0000 -21.4250
v 383.9250 0.0000 -18.5750
v 383.9250 3.0000 -18.5750
v 383.9250 3.0000 -21.4250
v 381.0750 0.0000 -18.5750
v 381.0750 0.0000 -21.4250
v 381.0750 3.0000 -21.4250
v 381.0750 3.0000 -18.5750
v 391.0750 0.0000 -21.4250
v 391.0750 0.0000 -18.5750
v 393.9250 0.0000 -18.5750
v 393.9250 0.0000 -21.4250
v 391.0750 3.0000 -21.4250
v 393.9250 3.0000 -21.4250
v 393.9250 3.0000 -18.5750
v 391.0750 3.0000 -18.5750
v 391.0750 0.0000 -21.4250
v 393.9250 0.0000 -21.4250
v 393.9250 3.0000 -21.4250
v 391.0750 3.0000 -21.4250
v 393.9250 0.0000 -18.5750
v 391.0750 0.0000 -18.5750
v 391.0750 3.0000 -18.5750
v 393.9250 3.0000 -18.5750
v 393.9250 0.0000 -21.4250
v 393.9250 0.0000 -18.5750
v 393.9250 3.0000 -18.5750
v 393.9250 3.0000 -21.4250
v 391.0750 0.0000 -18.5750
v 391.0750 0.0000 -21.4250
v 391.0750 3.0000 -21.4250
v 391.0750 3.0000 -18.5750
v 401.0750 0.0000 -21.4250
v 401.0750 0.0000 -18.5750
v 403.9250 0.0000 -18.5750
v 403.9250 0.0000 -21.4250
v 401.0750 3.0000 -21.4250
v 403.9250 3.0000 -21.4250
v 403.9250 3.0000 -18.5750
v 401.0750 3.0000 -18.5750
v 401.0750 0.0000 -21.4250
v 403.9250 0.0000 -21.4250
v 403.9250 3.0000 -21.4250
v 401.0750 3.0000 -21.4250
v 403.9250 0.0000 -18.5750
v 401.0750 0.0000 -18.5750
v 401.0750 3.0000 -18.5750
v 403.9250 3.0000 -18.5750
v 403.9250 0.0000 -21.4250
v 403.9250 0.0000 -18.5750
v 403.9250 3.0000 -18.5750
v 403.9250 3.0000 -21.4250
v 401.0750 0.0000 -18.5750
v 401.0750 0.0000 -21.4250
v 401.0750 3.0000 -21.4250
v 401.0750 3.0000 -18.5750
v 376.0750 0.0000 -18.9250
v 376.0750 0.0000 -16.0750
v 378.9250 0.0000 -16.0750
v 378.9250 0.0000 -18.9250
v 376.0750 3.0000 -18.9250
v 378.9250 3.0000 -18.9250
v 378.9250 3.0000 -16.0750
v 376.0750 3.0000 -16.0750
v 376.0750 0.0000 -18.9250
v 378.9250 0.0000 -18.9250
v 378.9250 3.0000 -18.9250
v 376.0750 3.0000 -18.9250
v 378.9250 0.0000 -16.0750
v 376.0750 0.0000 -16.0750
v 376.0750 3.0000 -16.0750
v 378.9250 3.0000 -16.0750
v 378.9250 0.0000 -18.9250
v 378.9250 0.0000 -16.0750
v 378.9250 3.0000 -16.0750
v 378.9250 3.0000 -18.9250
v 376.0750 0.0000 -16.0750
v 376.0750 0.0000 -18.9250
v 376.0750 3.0000 -18.9250
v 376.0750 3.0000 -16.0750
v 381.0750 0.0000 -18.9250
v 383.9250 0.0000 -18.9250
v 383.9250 0.0000 -16.0750
v 381.0750 0.0000 -16.0750
v 381.0750 3.0000 -18.9250
v 383.9250 3.0000 -18.9250
v 383.9250 3.0000 -16.0750
v 381.0750 3.0000 -16.0750
v 386.0750 0.0000 -18.9250
v 386.0750 0.0000 -16.0750
v 388.9250 0.0000 -16.0750
v 388.9250 0.0000 -18.9250
v 386.0750 3.0000 -18.9250
v 388.9250 3.0000 -18.9250
v 388.9250 3.0000 -16.0750
v 386.0750 3.0000 -16.0750
v 386.0750 0.0000 -18.9250
v 388.9250 0.0000 -18.9250
v 388.9250 3.0000 -18.9250
v 386.0750 3.0000 -18.9250
v 388.9250 0.0000 -16.0750
v 386.0750 0.0000 -16.0750
v 386.0750 3.0000 -16.0750
v 388.9250 3.0000 -16.0750
v 388.9250 0.0000 -18.9250
v 388.9250 0.0000 -16.0750
v 388.9250 3.0000 -16.0750
v 388.9250 3.0000 -18.9250
v 386.0750 0.0000 -16.0750
v 386.0750 0.0000 -18.9250
v 386.0750 3.0000 -18.9250
v 386.0750 3.0000 -16.0750
v 388.5750 0.0000 -18.9250
v 388.5750 0.0000 -16.0750
v 391.4250 0.0000 -16.0750
v 391.4250 0.0000 -18.9250
v 388.5750 3.0000 -18.9250
v 391.4250 3.0000 -18.9250
v 391.4250 3.0000 -16.0750
v 388.5750 3.0000 -16.0750
v 388.5750 0.0000 -18.9250
v 391.4250 0.0000 -18.9250
v 391.4250 3.0000 -18.9250
v 388.5750 3.0000 -18.9250
v 391.4250 0.0000 -16.0750
v 388.5750 0.0000 -16.0750
v 388.5750 3.0000 -16.0750
v 391.4250 3.0000 -16.0750
v 391.4250 0.0000 -18.9250
v 391.4250 0.0000 -16.0750
v 391.4250 3.0000 -16.0750
v 391.4250 3.0000 -18.9250
v 388.5750 0.0000 -16.0750
v 388.5750 0.0000 -18.9250
v 388.5750 3.0000 -18.9250
v 388.5750 3.0000 -16.0750
v 391.0750 0.0000 -18.9250
v 391.0750 0.0000 -16.0750
v 393.9250 0.0000 -16.0750
v 393.9250 0.0000 -18.9250
v 391.0750 3.0000 -18.9250
v 393.9250 3.0000 -18.9250
v 393.9250 3.0000 -16.0750
v 391.0750 3.0000 -16.0750
v 391.0750 0.0000 -18.9250
v 393.9250 0.0000 -18.9250
v 393.9250 3.0000 -18.9250
v 391.0750 3.0000 -18.9250
v 393.9250 0.0000 -16.0750
v 391.0750 0.0000 -16.0750
v 391.0750 3.0000 -16.0750
v 393.9250 3.0000 -16.0750
v 393.9250 0.0000 -18.9250
v 393.9250 0.0000 -16.0750
v 393.9250 3.0000 -16.0750
v 393.9250 3.0000 -18.9250
v 391.0750 0.0000 -16.0750
v 391.0750 0.0000 -18.9250
v 391.0750 3.0000 -18.9250
v 391.0750 3.0000 -16.0750
v 396.0750 0.0000 -18.9250
v 396.0750 0.0000 -16.0750
v 398.9250 0.0000 -16.0750
v 398.9250 0.0000 -18.9250
v 396.0750 3.0000 -18.9250
v 398.9250 3.0000 -18.9250
v 398.9250 3.0000 -16.0750
v 396.0750 3.0000 -16.0750
v 396.0750 0.0000 -18.9250
v 398.9250 0.0000 -18.9250
v 398.9250 3.0000 -18.9250
v 396.0750 3.0000 -18.9250
v 398.9250 0.0000 -16.0750
v 396.0750 0.0000 -16.0750
v 396.0750 3.0000 -16.0750
v 398.9250 3.0000 -16.0750
v 398.9250 0.0000 -18.9250
v 398.9250 0.0000 -16.0750
v 398.9250 3.0000 -16.0750
v 398.9250 3.0000 -18.9250
v 396.0750 0.0000 -16.0750
v 396.0750 0.0000 -18.9250
v 396.0750 3.0000 -18.9250
v 396.0750 3.0000 -16.0750
v 401.0750 0.0000 -18.9250
v 401.0750 0.0000 -16.0750
v 403.9250 0.0000 -16.0750
v 403.9250 0.0000 -18.9250
v 401.0750 3.0000 -18.9250
v 403.9250 3.0000 -18.9250
v 403.9250 3.0000 -16.0750
v 401.0750 3.0000 -16.0750
v 401.0750 0.0000 -18.9250
v 403.9250 0.0000 -18.9250
v 403.9250 3.0000 -18.9250
v 401.0750 3.0000 -18.9250
v 403.9250 0.0000 -16.0750
v 401.0750 0.0000 -16.0750
v 401.0750 3.0000 -16.0750
v 403.9250 3.0000 -16.0750
v 403.9250 0.0000 -18.9250
v 403.9250 0.0000 -16.0750
v 403.9250 3.0000 -16.0750
v 403.9250 3.0000 -18.9250
v 401.0750 0.0000 -16.0750
v 401.0750 0.0000 -18.9250
v 401.0750 3.0000 -18.9250
v 401.0750 3.0000 -16.0750
v 403.5750 0.0000 -18.9250
v 406.4250 0.0000 -18.9250
v 406.4250 0.0000 -16.0750
v 403.5750 0.0000 -16.0750
v 403.5750 3.0000 -18.9250
v 406.4250 3.0000 -18.9250
v 406.4250 3.0000 -16.0750
v 403.5750 3.0000 -16.0750
v 376.0750 0.0000 -16.4250
v 376.0750 0.0000 -13.5750
v 378.9250 0.0000 -13.5750
v 378.9250 0.0000 -16.4250
v 376.0750 3.0000 -16.4250
v 378.9250 3.0000 -16.4250
v 378.9250 3.0000 -13.5750
v 376.0750 3.0000 -13.5750
v 376.0750 0.0000 -16.4250
v 378.9250 0.0000 -16.4250
v 378.9250 3.0000 -16.4250
v 376.0750 3.0000 -16.4250
v 378.9250 0.0000 -13.5750
v 376.0750 0.0000 -13.5750
v 376.0750 3.0000 -13.5750
v 378.9250 3.0000 -13.5750
v 378.9250 0.0000 -16.4250
v 378.9250 0.0000 -13.5750
v 378.9250 3.0000 -13.5750
v 378.9250 3.0000 -16.4250
v 376.0750 0.0000 -13.5750
v 376.0750 0.0000 -16.4250
v 376.0750 3.0000 -16.4250
v 376.0750 3.0000 -13.5750
v 396.0750 0.0000 -16.4250
v 396.0750 0.0000 -13.5750
v 398.9250 0.0000 -13.5750
v 398.9250 0.0000 -16.4250
v 396.0750 3.0000 -16.4250
v 398.9250 3.0000 -16.4250
v 398.9250 3.0000 -13.5750
v 396.0750 3.0000 -13.5750
v 396.0750 0.0000 -16.4250
v 398.9250 0.0000 -16.4250
v 398.9250 3.0000 -16.4250
v 396.0750 3.0000 -16.4250
v 398.9250 0.0000 -13.5750
v 396.0750 0.0000 -13.5750
v 396.0750 3.0000 -13.5750
v 398.9250 3.0000 -13.5750
v 398.9250 0.0000 -16.4250
v 398.9250 0.0000 -13.5750
v 398.9250 3.0000 -13.5750
v 398.9250 3.0000 -16.4250
v 396.0750 0.0000 -13.5750
v 396.0750 0.0000 -16.4250
v 396.0750 3.0000 -16.4250
v 396.0750 3.0000 -13.5750
v 376.0750 0.0000 -13.9250
v 376.0750 0.0000 -11.0750
v 378.9250 0.0000 -11.0750
v 378.9250 0.0000 -13.9250
v 376.0750 3.0000 -13.9250
v 378.9250 3.0000 -13.9250
v 378.9250 3.0000 -11.0750
v 376.0750 3.0000 -11.0750
v 376.0750 0.0000 -13.9250
v 378.9250 0.0000 -13.9250
v 378.9250 3.0000 -13.9250
v 376.0750 3.0000 -13.9250
v 378.9250 0.0000 -11.0750
v 376.0750 0.0000 -11.0750
v 376.0750 3.0000 -11.0750
v 378.9250 3.0000 -11.0750
v 378.9250 0.0000 -13.9250
v 378.9250 0.0000 -11.0750
v 378.9250 3.0000 -11.0750
v 378.9250 3.0000 -13.9250
v 376.0750 0.0000 -11.0750
v 376.0750 0.0000 -13.9250
v 376.0750 3.0000 -13.9250
v 376.0750 3.0000 -11.0750
v 378.5750 0.0000 -13.9250
v 378.5750 0.0000 -11.0750
v 381.4250 0.0000 -11.0750
v 381.4250 0.0000 -13.9250
v 378.5750 3.0000 -13.9250
v 381.4250 3.0000 -13.9250
v 381.4250 3.0000 -11.0750
v 378.5750 3.0000 -11.0750
v 378.5750 0.0000 -13.9250
v 381.4250 0.0000 -13.9250
v 381.4250 3.0000 -13.9250
v 378.5750 3.0000 -13.9250
v 381.4250 0.0000 -11.0750
v 378.5750 0.0000 -11.0750
v 378.5750 3.0000 -11.0750
v 381.4250 3.0000 -11.0750
v 381.4250 0.0000 -13.9250
v 381.4250 0.0000 -11.0750
v 381.4250 3.0000 -11.0750
v 381.4250 3.0000 -13.9250
v 378.5750 0.0000 -11.0750
v 378.5750 0.0000 -13.9250
v 378.5750 3.0000 -13.9250
v 378.5750 3.0000 -11.0750
v 381.0750 0.0000 -13.9250
v 383.9250 0.0000 -13.9250
v 383.9250 0.0000 -11.0750
v 381.0750 0.0000 -11.0750
v 381.0750 3.0000 -13.9250
v 383.9250 3.0000 -13.9250
v 383.9250 3.0000 -11.0750
v 381.0750 3.0000 -11.0750
v 386.0750 0.0000 -13.9250
v 386.0750 0.0000 -11.0750
v 388.9250 0.0000 -11.0750
v 388.9250 0.0000 -13.9250
v 386.0750 3.0000 -13.9250
v 388.9250 3.0000 -13.9250
v 388.9250 3.0000 -11.0750
v 386.0750 3.0000 -11.0750
v 386.0750 0.0000 -13.9250
v 388.9250 0.0000 -13.9250
v 388.9250 3.0000 -13.9250
v 386.0750 3.0000 -13.9250
v 388.9250 0.0000 -11.0750
v 386.0750 0.0000 -11.0750
v 386.0750 3.0000 -11.0750
v 388.9250 3.0000 -11.0750
v 388.9250 0.0000 -13.9250
v 388.9250 0.0000 -11.0750
v 388.9250 3.0000 -11.0750
v 388.9250 3.0000 -13.9250
v 386.0750 0.0000 -11.0750
v 386.0750 0.0000 -13.9250
v 386.0750 3.0000 -13.9250
v 386.0750 3.0000 -11.0750
v 388.5750 0.0000 -13.9250
v 388.5750 0.0000 -11.0750
v 391.4250 0.0000 -11.0750
v 391.4250 0.0000 -13.9250
v 388.5750 3.0000 -13.9250
v 391.4250 3.0000 -13.9250
v 391.4250 3.0000 -11.0750
v 388.5750 3.0000 -11.0750
v 388.5750 0.0000 -13.9250
v 391.4250 0.0000 -13.9250
v 391.4250 3.0000 -13.9250
v 388.5750 3.0000 -13.9250
v 391.4250 0.0000 -11.0750
v 388.5750 0.0000 -11.0750
v 388.5750 3.0000 -11.0750
v 391.4250 3.0000 -11.0750
v 391.4250 0.0000 -13.9250
v 391.4250 0.0000 -11.0750
v 391.4250 3.0000 -11.0750
v 391.4250 3.0000 -13.9250
v 388.5750 0.0000 -11.0750
v 388.5750 0.0000 -13.9250
v 388.5750 3.0000 -13.9250
v 388.5750 3.0000 -11.0750
v 391.0750 0.0000 -13.9250
v 391.0750 0.0000 -11.0750
v 393.9250 0.0000 -11.0750
v 393.9250 0.0000 -13.9250
v 391.0750 3.0000 -13.9250
v 393.9250 3.0000 -13.9250
v 393.9250 3.0000 -11.0750
v 391.0750 3.0000 -11.0750
v 391.0750 0.0000 -13.9250
v 393.9250 0.0000 -13.9250
v 393.9250 3.0000 -13.9250
v 391.0750 3.0000 -13.9250
v 393.9250 0.0000 -11.0750
v 391.0750 0.0000 -11.0750
v 391.0750 3.0000 -11.0750
v 393.9250 3.0000 -11.0750
v 393.9250 0.0000 -13.9250
v 393.9250 0.0000 -11.0750
v 393.9250 3.0000 -11.0750
v 393.9250 3.0000 -13.9250
v 391.0750 0.0000 -11.0750
v 391.0750 0.0000 -13.9250
v 391.0750 3.0000 -13.9250
v 391.0750 3.0000 -11.0750
v 396.0750 0.0000 -13.9250
v 396.0750 0.0000 -11.0750
v 398.9250 0.0000 -11.0750
v 398.9250 0.0000 -13.9250
v 396.0750 3.0000 -13.9250
v 398.9250 3.0000 -13.9250
v 398.9250 3.0000 -11.0750
v 396.0750 3.0000 -11.0750
v 396.0750 0.0000 -13.9250
v 398.9250 0.0000 -13.9250
v 398.9250 3.0000 -13.9250
v 396.0750 3.0000 -13.9250
v 398.9250 0.0000 -11.0750
v 396.0750 0.0000 -11.0750
v 396.0750 3.0000 -11.0750
v 398.9250 3.0000 -11.0750
v 398.9250 0.0000 -13.9250
v 398.9250 0.0000 -11.0750
v 398.9250 3.0000 -11.0750
v 398.9250 3.0000 -13.9250
v 396.0750 0.0000 -11.0750
v 396.0750 0.0000 -13.9250
v 396.0750 3.0000 -13.9250
v 396.0750 3.0000 -11.0750
v 398.5750 0.0000 -13.9250
v 398.5750 0.0000 -11.0750
v 401.4250 0.0000 -11.0750
v 401.4250 0.0000 -13.9250
v 398.5750 3.0000 -13.9250
v 401.4250 3.0000 -13.9250
v 401.4250 3.0000 -11.0750
v 398.5750 3.0000 -11.0750
v 398.5750 0.0000 -13.9250
v 401.4250 0.0000 -13.9250
v 401.4250 3.0000 -13.9250
v 398.5750 3.0000 -13.9250
v 401.4250 0.0000 -11.0750
v 398.5750 0.0000 -11.0750
v 398.5750 3.0000 -11.0750
v 401.4250 3.0000 -11.0750
v 401.4250 0.0000 -13.9250
v 401.4250 0.0000 -11.0750
v 401.4250 3.0000 -11.0750
v 401.4250 3.0000 -13.9250
v 398.5750 0.0000 -11.0750
v 398.5750 0.0000 -13.9250
v 398.5750 3.0000 -13.9250
v 398.5750 3.0000 -11.0750
v 401.0750 0.0000 -13.9250
v 403.9250 0.0000 -13.9250
v 403.9250 0.0000 -11.0750
v 401.0750 0.0000 -11.0750
v 401.0750 3.0000 -13.9250
v 403.9250 3.0000 -13.9250
v 403.9250 3.0000 -11.0750
v 401.0750 3.0000 -11.0750
v 386.0750 0.0000 -11.4250
v 386.0750 0.0000 -8.5750
v 388.9250 0.0000 -8.5750
v 388.9250 0.0000 -11.4250
v 386.0750 3.0000 -11.4250
v 388.9250 3.0000 -11.4250
v 388.9250 3.0000 -8.5750
v 386.0750 3.0000 -8.5750
v 386.0750 0.0000 -11.4250
v 388.9250 0.0000 -11.4250
v 388.9250 3.0000 -11.4250
v 386.0750 3.0000 -11.4250
v 388.9250 0.0000 -8.5750
v 386.0750 0.0000 -8.5750
v 386.0750 3.0000 -8.5750
v 388.9250 3.0000 -8.5750
v 388.9250 0.0000 -11.4250
v 388.9250 0.0000 -8.5750
v 388.9250 3.0000 -8.5750
v 388.9250 3.0000 -11.4250
v 386.0750 0.0000 -8.5750
v 386.0750 0.0000 -11.4250
v 386.0750 3.0000 -11.4250
v 386.0750 3.0000 -8.5750
v 391.0750 0.0000 -11.4250
v 391.0750 0.0000 -8.5750
v 393.9250 0.0000 -8.5750
v 393.9250 0.0000 -11.4250
v 391.0750 3.0000 -11.4250
v 393.9250 3.0000 -11.4250
v 393.9250 3.0000 -8.5750
v 391.0750 3.0000 -8.5750
v 391.0750 0.0000 -11.4250
v 393.9250 0.0000 -11.4250
v 393.9250 3.0000 -11.4250
v 391.0750 3.0000 -11.4250
v 393.9250 0.0000 -8.5750
v 391.0750 0.0000 -8.5750
v 391.0750 3.0000 -8.5750
v 393.9250 3.0000 -8.5750
v 393.9250 0.0000 -11.4250
v 393.9250 0.0000 -8.5750
v 393.9250 3.0000 -8.5750
v 393.9250 3.0000 -11.4250
v 391.0750 0.0000 -8.5750
v 391.0750 0.0000 -11.4250
v 391.0750 3.0000 -11.4250
v 391.0750 3.0000 -8.5750
v 396.0750 0.0000 -11.4250
v 396.0750 0.0000 -8.5750
v 398.9250 0.0000 -8.5750
v 398.9250 0.0000 -11.4250
v 396.0750 3.0000 -11.4250
v 398.9250 3.0000 -11.4250
v 398.9250 3.0000 -8.5750
v 396.0750 3.0000 -8.5750
v 396.0750 0.0000 -11.4250
v 398.9250 0.0000 -11.4250
v 398.9250 3.0000 -11.4250
v 396.0750 3.0000 -11.4250
v 398.9250 0.0000 -8.5750
v 396.0750 0.0000 -8.5750
v 396.0750 3.0000 -8.5750
v 398.9250 3.0000 -8.5750
v 398.9250 0.0000 -11.4250
v 398.9250 0.0000 -8.5750
v 398.9250 3.0000 -8.5750
v 398.9250 3.0000 -11.4250
v 396.0750 0.0000 -8.5750
v 396.0750 0.0000 -11.4250
v 396.0750 3.0000 -11.4250
v 396.0750 3.0000 -8.5750
v 376.0750 0.0000 -8.9250
v 378.9250 0.0000 -8.9250
v 378.9250 0.0000 -6.0750
v 376.0750 0.0000 -6.0750
v 376.0750 3.0000 -8.9250
v 378.9250 3.0000 -8.9250
v 378.9250 3.0000 -6.0750
v 376.0750 3.0000 -6.0750
v 378.5750 0.0000 -8.9250
v 378.5750 0.0000 -6.0750
v 381.4250 0.0000 -6.0750
v 381.4250 0.0000 -8.9250
v 378.5750 3.0000 -8.9250
v 381.4250 3.0000 -8.9250
v 381.4250 3.0000 -6.0750
v 378.5750 3.0000 -6.0750
v 378.5750 0.0000 -8.9250
v 381.4250 0.0000 -8.9250
v 381.4250 3.0000 -8.9250
v 378.5750 3.0000 -8.9250
v 381.4250 0.0000 -6.0750
v 378.5750 0.0000 -6.0750
v 378.5750 3.0000 -6.0750
v 381.4250 3.0000 -6.0750
v 381.4250 0.0000 -8.9250
v 381.4250 0.0000 -6.0750
v 381.4250 3.0000 -6.0750
v 381.4250 3.0000 -8.9250
v 378.5750 0.0000 -6.0750
v 378.5750 0.0000 -8.9250
v 378.5750 3.0000 -8.9250
v 378.5750 3.0000 -6.0750
v 381.0750 0.0000 -8.9250
v 381.0750 0.0000 -6.0750
v 383.9250 0.0000 -6.0750
v 383.9250 0.0000 -8.9250
v 381.0750 3.0000 -8.9250
v 383.9250 3.0000 -8.9250
v 383.9250 3.0000 -6.0750
v 381.0750 3.0000 -6.0750
v 381.0750 0.0000 -8.9250
v 383.9250 0.0000 -8.9250
v 383.9250 3.0000 -8.9250
v 381.0750 3.0000 -8.9250
v 383.9250 0.0000 -6.0750
v 381.0750 0.0000 -6.0750
v 381.0750 3.0000 -6.0750
v 383.9250 3.0000 -6.0750
v 383.9250 0.0000 -8.9250
v 383.9250 0.0000 -6.0750
v 383.9250 3.0000 -6.0750
v 383.9250 3.0000 -8.9250
v 381.0750 0.0000 -6.0750
v 381.0750 0.0000 -8.9250
v 381.0750 3.0000 -8.9250
v 381.0750 3.0000 -6.0750
v 386.0750 0.0000 -8.9250
v 386.0750 0.0000 -6.0750
v 388.9250 0.0000 -6.0750
v 388.9250 0.0000 -8.9250
v 386.0750 3.0000 -8.9250
v 388.9250 3.0000 -8.9250
v 388.9250 3.0000 -6.0750
v 386.0750 3.0000 -6.0750
v 386.0750 0.0000 -8.9250
v 388.9250 0.0000 -8.9250
v 388.9250 3.0000 -8.9250
v 386.0750 3.0000 -8.9250
v 388.9250 0.0000 -6.0750
v 386.0750 0.0000 -6.0750
v 386.0750 3.0000 -6.0750
v 388.9250 3.0000 -6.0750
v 388.9250 0.0000 -8.9250
v 388.9250 0.0000 -6.0750
v 388.9250 3.0000 -6.0750
v 388.9250 3.0000 -8.9250
v 386.0750 0.0000 -6.0750
v 386.0750 0.0000 -8.9250
v 386.0750 3.0000 -8.9250
v 386.0750 3.0000 -6.0750
v 391.0750 0.0000 -8.9250
v 391.0750 0.0000 -6.0750
v 393.9250 0.0000 -6.0750
v 393.9250 0.0000 -8.9250
v 391.0750 3.0000 -8.9250
v 393.9250 3.0000 -8.9250
v 393.9250 3.0000 -6.0750
v 391.0750 3.0000 -6.0750
v 391.0750 0.0000 -8.9250
v 393.9250 0.0000 -8.9250
v 393.9250 3.0000 -8.9250
v 391.0750 3.0000 -8.9250
v 393.9250 0.0000 -6.0750
v 391.0750 0.0000 -6.0750
v 391.0750 3.0000 -6.0750
v 393.9250 3.0000 -6.0750
v 393.9250 0.0000 -8.9250
v 393.9250 0.0000 -6.0750
v 393.9250 3.0000 -6.0750
v 393.9250 3.0000 -8.9250
v 391.0750 0.0000 -6.0750
v 391.0750 0.0000 -8.9250
v 391.0750 3.0000 -8.9250
v 391.0750 3.0000 -6.0750
v 396.0750 0.0000 -8.9250
v 396.0750 0.0000 -6.0750
v 398.9250 0.0000 -6.0750
v 398.9250 0.0000 -8.9250
v 396.0750 3.0000 -8.9250
v 398.9250 3.0000 -8.9250
v 398.9250 3.0000 -6.0750
v 396.0750 3.0000 -6.0750
v 396.0750 0.0000 -8.9250
v 398.9250 0.0000 -8.9250
v 398.9250 3.0000 -8.9250
v 396.0750 3.0000 -8.9250
v 398.9250 0.0000 -6.0750
v 396.0750 0.0000 -6.0750
v 396.0750 3.0000 -6.0750
v 398.9250 3.0000 -6.0750
v 398.9250 0.0000 -8.9250
v 398.9250 0.0000 -6.0750
v 398.9250 3.0000 -6.0750
v 398.9250 3.0000 -8.9250
v 396.0750 0.0000 -6.0750
v 396.0750 0.0000 -8.9250
v 396.0750 3.0000 -8.9250
v 396.0750 3.0000 -6.0750
v 398.5750 0.0000 -8.9250
v 401.4250 0.0000 -8.9250
v 401.4250 0.0000 -6.0750
v 398.5750 0.0000 -6.0750
v 398.5750 3.0000 -8.9250
v 401.4250 3.0000 -8.9250
v 401.4250 3.0000 -6.0750
v 398.5750 3.0000 -6.0750
v 401.0750 0.0000 -8.9250
v 401.0750 0.0000 -6.0750
v 403.9250 0.0000 -6.0750
v 403.9250 0.0000 -8.9250
v 401.0750 3.0000 -8.9250
v 403.9250 3.0000 -8.9250
v 403.9250 3.0000 -6.0750
v 401.0750 3.0000 -6.0750
v 401.0750 0.0000 -8.9250
v 403.9250 0.0000 -8.9250
v 403.9250 3.0000 -8.9250
v 401.0750 3.0000 -8.9250
v 403.9250 0.0000 -6.0750
v 401.0750 0.0000 -6.0750
v 401.0750 3.0000 -6.0750
v 403.9250 3.0000 -6.0750
v 403.9250 0.0000 -8.9250
v 403.9250 0.0000 -6.0750
v 403.9250 3.0000 -6.0750
v 403.9250 3.0000 -8.9250
v 401.0750 0.0000 -6.0750
v 401.0750 0.0000 -8.9250
v 401.0750 3.0000 -8.9250
v 401.0750 3.0000 -6.0750
v 396.0750 0.0000 -6.4250
v 396.0750 0.0000 -3.5750
v 398.9250 0.0000 -3.5750
v 398.9250 0.0000 -6.4250
v 396.0750 3.0000 -6.4250
v 398.9250 3.0000 -6.4250
v 398.9250 3.0000 -3.5750
v 396.0750 3.0000 -3.5750
v 396.0750 0.0000 -6.4250
v 398.9250 0.0000 -6.4250
v 398.9250 3.0000 -6.4250
v 396.0750 3.0000 -6.4250
v 398.9250 0.0000 -3.5750
v 396.0750 0.0000 -3.5750
v 396.0750 3.0000 -3.5750
v 398.9250 3.0000 -3.5750
v 398.9250 0.0000 -6.4250
v 398.9250 0.0000 -3.5750
v 398.9250 3.0000 -3.5750
v 398.9250 3.0000 -6.4250
v 396.0750 0.0000 -3.5750
v 396.0750 0.0000 -6.4250
v 396.0750 3.0000 -6.4250
v 396.0750 3.0000 -3.5750
v 376.0750 0.0000 -3.9250
v 376.0750 0.0000 -1.0750
v 378.9250 0.0000 -1.0750
v 378.9250 0.0000 -3.9250
v 376.0750 3.0000 -3.9250
v 378.9250 3.0000 -3.9250
v 378.9250 3.0000 -1.0750
v 376.0750 3.0000 -1.0750
v 376.0750 0.0000 -3.9250
v 378.9250 0.0000 -3.9250
v 378.9250 3.0000 -3.9250
v 376.0750 3.0000 -3.9250
v 378.9250 0.0000 -1.0750
v 376.0750 0.0000 -1.0750
v 376.0750 3.0000 -1.0750
v 378.9250 3.0000 -1.0750
v 378.9250 0.0000 -3.9250
v 378.9250 0.0000 -1.0750
v 378.9250 3.0000 -1.0750
v 378.9250 3.0000 -3.9250
v 376.0750 0.0000 -1.0750
v 376.0750 0.0000 -3.9250
v 376.0750 3.0000 -3.9250
v 376.0750 3.0000 -1.0750
v 381.0750 0.0000 -3.9250
v 381.0750 0.0000 -1.0750
v 383.9250 0.0000 -1.0750
v 383.9250 0.0000 -3.9250
v 381.0750 3.0000 -3.9250
v 383.9250 3.0000 -3.9250
v 383.9250 3.0000 -1.0750
v 381.0750 3.0000 -1.0750
v 381.0750 0.0000 -3.9250
v 383.9250 0.0000 -3.9250
v 383.9250 3.0000 -3.9250
v 381.0750 3.0000 -3.9250
v 383.9250 0.0000 -1.0750
v 381.0750 0.0000 -1.0750
v 381.0750 3.0000 -1.0750
v 383.9250 3.0000 -1.0750
v 383.9250 0.0000 -3.9250
v 383.9250 0.0000 -1.0750
v 383.9250 3.0000 -1.0750
v 383.9250 3.0000 -3.9250
v 381.0750 0.0000 -1.0750
v 381.0750 0.0000 -3.9250
v 381.0750 3.0000 -3.9250
v 381.0750 3.0000 -1.0750
v 391.0750 0.0000 -3.9250
v 391.0750 0.0000 -1.0750
v 393.9250 0.0000 -1.0750
v 393.9250 0.0000 -3.9250
v 391.0750 3.0000 -3.9250
v 393.9250 3.0000 -3.9250
v 393.9250 3.0000 -1.0750
v 391.0750 3.0000 -1.0750
v 391.0750 0.0000 -3.9250
v 393.9250 0.0000 -3.9250
v 393.9250 3.0000 -3.9250
v 391.0750 3.0000 -3.9250
v 393.9250 0.0000 -1.0750
v 391.0750 0.0000 -1.0750
v 391.0750 3.0000 -1.0750
v 393.9250 3.0000 -1.0750
v 393.9250 0.0000 -3.9250
v 393.9250 0.0000 -1.0750
v 393.9250 3.0000 -1.0750
v 393.9250 3.0000 -3.9250
v 391.0750 0.0000 -1.0750
v 391.0750 0.0000 -3.9250
v 391.0750 3.0000 -3.9250
v 391.0750 3.0000 -1.0750
v 396.0750 0.0000 -3.9250
v 398.9250 0.0000 -3.9250
v 398.9250 0.0000 -1.0750
v 396.0750 0.0000 -1.0750
v 396.0750 3.0000 -3.9250
v 398.9250 3.0000 -3.9250
v 398.9250 3.0000 -1.0750
v 396.0750 3.0000 -1.0750
v 401.0750 0.0000 -3.9250
v 403.9250 0.0000 -3.9250
v 403.9250 0.0000 -1.0750
v 401.0750 0.0000 -1.0750
v 401.0750 3.0000 -3.9250
v 403.9250 3.0000 -3.9250
v 403.9250 3.0000 -1.0750
v 401.0750 3.0000 -1.0750
v 403.5750 0.0000 -3.9250
v 403.5750 0.0000 -1.0750
v 406.4250 0.0000 -1.0750
v 406.4250 0.0000 -3.9250
v 403.5750 3.0000 -3.9250
v 406.4250 3.0000 -3.9250
v 406.4250 3.0000 -1.0750
v 403.5750 3.0000 -1.0750
v 403.5750 0.0000 -3.9250
v 406.4250 0.0000 -3.9250
v 406.4250 3.0000 -3.9250
v 403.5750 3.0000 -3.9250
v 406.4250 0.0000 -1.0750
v 403.5750 0.0000 -1.0750
v 403.5750 3.0000 -1.0750
v 406.4250 3.0000 -1.0750
v 406.4250 0.0000 -3.9250
v 406.4250 0.0000 -1.0750
v 406.4250 3.0000 -1.0750
v 406.4250 3.0000 -3.9250
v 403.5750 0.0000 -1.0750
v 403.5750 0.0000 -3.9250
v 403.5750 3.0000 -3.9250
v 403.5750 3.0000 -1.0750
v 391.0750 0.0000 -1.4250
v 391.0750 0.0000 1.4250
v 393.9250 0.0000 1.4250
v 393.9250 0.0000 -1.4250
v 391.0750 3.0000 -1.4250
v 393.9250 3.0000 -1.4250
v 393.9250 3.0000 1.4250
v 391.0750 3.0000 1.4250
v 391.0750 0.0000 -1.4250
v 393.9250 0.0000 -1.4250
v 393.9250 3.0000 -1.4250
v 391.0750 3.0000 -1.4250
v 393.9250 0.0000 1.4250
v 391.0750 0.0000 1.4250
v 391.0750 3.0000 1.4250
v 393.9250 3.0000 1.4250
v 393.9250 0.0000 -1.4250
v 393.9250 0.0000 1.4250
v 393.9250 3.0000 1.4250
v 393.9250 3.0000 -1.4250
v 391.0750 0.0000 1.4250
v 391.0750 0.0000 -1.4250
v 391.0750 3.0000 -1.4250
v 391.0750 3.0000 1.4250
v 376.0750 0.0000 1.0750
v 376.0750 0.0000 3.9250
v 378.9250 0.0000 3.9250
v 378.9250 0.0000 1.0750
v 376.0750 3.0000 1.0750
v 378.9250 3.0000 1.0750
v 378.9250 3.0000 3.9250
v 376.0750 3.0000 3.9250
v 376.0750 0.0000 1.0750
v 378.9250 0.0000 1.0750
v 378.9250 3.0000 1.0750
v 376.0750 3.0000 1.0750
v 378.9250 0.0000 3.9250
v 376.0750 0.0000 3.9250
v 376.0750 3.0000 3.9250
v 378.9250 3.0000 3.9250
v 378.9250 0.0000 1.0750
v 378.9250 0.0000 3.9250
v 378.9250 3.0000 3.9250
v 378.9250 3.0000 1.0750
v 376.0750 0.0000 3.9250
v 376.0750 0.0000 1.0750
v 376.0750 3.0000 1.0750
v 376.0750 3.0000 3.9250
v 381.0750 0.0000 1.0750
v 383.9250 0.0000 1.0750
v 383.9250 0.0000 3.9250
v 381.0750 0.0000 3.9250
v 381.0750 3.0000 1.0750
v 383.9250 3.0000 1.0750
v 383.9250 3.0000 3.9250
v 381.0750 3.0000 3.9250
v 386.0750 0.0000 1.0750
v 388.9250 0.0000 1.0750
v 388.9250 0.0000 3.9250
v 386.0750 0.0000 3.9250
v 386.0750 3.0000 1.0750
v 388.9250 3.0000 1.0750
v 388.9250 3.0000 3.9250
v 386.0750 3.0000 3.9250
v 388.5750 0.0000 1.0750
v 388.5750 0.0000 3.9250
v 391.4250 0.0000 3.9250
v 391.4250 0.0000 1.0750
v 388.5750 3.0000 1.0750
v 391.4250 3.0000 1.0750
v 391.4250 3.0000 3.9250
v 388.5750 3.0000 3.9250
v 388.5750 0.0000 1.0750
v 391.4250 0.0000 1.0750
v 391.4250 3.0000 1.0750
v 388.5750 3.0000 1.0750
v 391.4250 0.0000 3.9250
v 388.5750 0.0000 3.9250
v 388.5750 3.0000 3.9250
v 391.4250 3.0000 3.9250
v 391.4250 0.0000 1.0750
v 391.4250 0.0000 3.9250
v 391.4250 3.0000 3.9250
v 391.4250 3.0000 1.0750
v 388.5750 0.0000 3.9250
v 388.5750 0.0000 1.0750
v 388.5750 3.0000 1.0750
v 388.5750 3.0000 3.9250
v 391.0750 0.0000 1.0750
v 393.9250 0.0000 1.0750
v 393.9250 0.0000 3.9250
v 391.0750 0.0000 3.9250
v 391.0750 3.0000 1.0750
v 393.9250 3.0000 1.0750
v 393.9250 3.0000 3.9250
v 391.0750 3.0000 3.9250
v 393.5750 0.0000 1.0750
v 393.5750 0.0000 3.9250
v 396.4250 0.0000 3.9250
v 396.4250 0.0000 1.0750
v 393.5750 3.0000 1.0750
v 396.4250 3.0000 1.0750
v 396.4250 3.0000 3.9250
v 393.5750 3.0000 3.9250
v 393.5750 0.0000 1.0750
v 396.4250 0.0000 1.0750
v 396.4250 3.0000 1.0750
v 393.5750 3.0000 1.0750
v 396.4250 0.0000 3.9250
v 393.5750 0.0000 3.9250
v 393.5750 3.0000 3.9250
v 396.4250 3.0000 3.9250
v 396.4250 0.0000 1.0750
v 396.4250 0.0000 3.9250
v 396.4250 3.0000 3.9250
v 396.4250 3.0000 1.0750
v 393.5750 0.0000 3.9250
v 393.5750 0.0000 1.0750
v 393.5750 3.0000 1.0750
v 393.5750 3.0000 3.9250
v 396.0750 0.0000 1.0750
v 398.9250 0.0000 1.0750
v 398.9250 0.0000 3.9250
v 396.0750 0.0000 3.9250
v 396.0750 3.0000 1.0750
v 398.9250 3.0000 1.0750
v 398.9250 3.0000 3.9250
v 396.0750 3.0000 3.9250
v 401.0750 0.0000 1.0750
v 401.0750 0.0000 3.9250
v 403.9250 0.0000 3.9250
v 403.9250 0.0000 1.0750
v 401.0750 3.0000 1.0750
v 403.9250 3.0000 1.0750
v 403.9250 3.0000 3.9250
v 401.0750 3.0000 3.9250
v 401.0750 0.0000 1.0750
v 403.9250 0.0000 1.0750
v 403.9250 3.0000 1.0750
v 401.0750 3.0000 1.0750
v 403.9250 0.0000 3.9250
v 401.0750 0.0000 3.9250
v 401.0750 3.0000 3.9250
v 403.9250 3.0000 3.9250
v 403.9250 0.0000 1.0750
v 403.9250 0.0000 3.9250
v 403.9250 3.0000 3.9250
v 403.9250 3.0000 1.0750
v 401.0750 0.0000 3.9250
v 401.0750 0.0000 1.0750
v 401.0750 3.0000 1.0750
v 401.0750 3.0000 3.9250
v 381.0750 0.0000 3.5750
v 381.0750 0.0000 6.4250
v 383.9250 0.0000 6.4250
v 383.9250 0.0000 3.5750
v 381.0750 3.0000 3.5750
v 383.9250 3.0000 3.5750
v 383.9250 3.0000 6.4250
v 381.0750 3.0000 6.4250
v 381.0750 0.0000 3.5750
v 383.9250 0.0000 3.5750
v 383.9250 3.0000 3.5750
v 381.0750 3.0000 3.5750
v 383.9250 0.0000 6.4250
v 381.0750 0.0000 6.4250
v 381.0750 3.0000 6.4250
v 383.9250 3.0000 6.4250
v 383.9250 0.0000 3.5750
v 383.9250 0.0000 6.4250
v 383.9250 3.0000 6.4250
v 383.9250 3.0000 3.5750
v 381.0750 0.0000 6.4250
v 381.0750 0.0000 3.5750
v 381.0750 3.0000 3.5750
v 381.0750 3.0000 6.4250
v 396.0750 0.0000 3.5750
v 396.0750 0.0000 6.4250
v 398.9250 0.0000 6.4250
v 398.9250 0.0000 3.5750
v 396.0750 3.0000 3.5750
v 398.9250 3.0000 3.5750
v 398.9250 3.0000 6.4250
v 396.0750 3.0000 6.4250
v 396.0750 0.0000 3.5750
v 398.9250 0.0000 3.5750
v 398.9250 3.0000 3.5750
v 396.0750 3.0000 3.5750
v 398.9250 0.0000 6.4250
v 396.0750 0.0000 6.4250
v 396.0750 3.0000 6.4250
v 398.9250 3.0000 6.4250
v 398.9250 0.0000 3.5750
v 398.9250 0.0000 6.4250
v 398.9250 3.0000 6.4250
v 398.9250 3.0000 3.5750
v 396.0750 0.0000 6.4250
v 396.0750 0.0000 3.5750
v 396.0750 3.0000 3.5750
v 396.0750 3.0000 6.4250
v 401.0750 0.0000 3.5750
v 401.0750 0.0000 6.4250
v 403.9250 0.0000 6.4250
v 403.9250 0.0000 3.5750
v 401.0750 3.0000 3.5750
v 403.9250 3.0000 3.5750
v 403.9250 3.0000 6.4250
v 401.0750 3.0000 6.4250
v 401.0750 0.0000 3.5750
v 403.9250 0.0000 3.5750
v 403.9250 3.0000 3.5750
v 401.0750 3.0000 3.5750
v 403.9250 0.0000 6.4250
v 401.0750 0.0000 6.4250
v 401.0750 3.0000 6.4250
v 403.9250 3.0000 6.4250
v 403.9250 0.0000 3.5750
v 403.9250 0.0000 6.4250
v 403.9250 3.0000 6.4250
v 403.9250 3.0000 3.5750
v 401.0750 0.0000 6.4250
v 401.0750 0.0000 3.5750
v 401.0750 3.0000 3.5750
v 401.0750 3.0000 6.4250
v 379.8250 2.7600 -20.1750
v 380.1750 2.7600 -20.1750
v 380.1750 2.7600 -19.8250
v 379.8250 2.7600 -19.8250
v 379.8250 2.8800 -20.1750
v 380.1750 2.8800 -20.1750
v 380.1750 2.8800 -19.8250
v 379.8250 2.8800 -19.8250
v 399.8250 2.7600 -20.1750
v 400.1750 2.7600 -20.1750
v 400.1750 2.7600 -19.8250
v 399.8250 2.7600 -19.8250
v 399.8250 2.8800 -20.1750
v 400.1750 2.8800 -20.1750
v 400.1750 2.8800 -19.8250
v 399.8250 2.8800 -19.8250
v 404.8250 2.7600 -20.1750
v 405.1750 2.7600 -20.1750
v 405.1750 2.7600 -19.8250
v 404.8250 2.7600 -19.8250
v 404.8250 2.8800 -20.1750
v 405.1750 2.8800 -20.1750
v 405.1750 2.8800 -19.8250
v 404.8250 2.8800 -19.8250
v 384.8250 2.7600 -10.1750
v 385.1750 2.7600 -10.1750
v 385.1750 2.7600 -9.8250
v 384.8250 2.7600 -9.8250
v 384.8250 2.8800 -10.1750
v 385.1750 2.8800 -10.1750
v 385.1750 2.8800 -9.8250
v 384.8250 2.8800 -9.8250
v 394.8250 2.7600 -10.1750
v 395.1750 2.7600 -10.1750
v 395.1750 2.7600 -9.8250
v 394.8250 2.7600 -9.8250
v 394.8250 2.8800 -10.1750
v 395.1750 2.8800 -10.1750
v 395.1750 2.8800 -9.8250
v 394.8250 2.8800 -9.8250
v 404.8250 2.7600 -10.1750
v 405.1750 2.7600 -10.1750
v 405.1750 2.7600 -9.8250
v 404.8250 2.7600 -9.8250
v 404.8250 2.8800 -10.1750
v 405.1750 2.8800 -10.1750
v 405.1750 2.8800 -9.8250
v 404.8250 2.8800 -9.8250
v 394.8250 2.7600 -5.1750
v 395.1750 2.7600 -5.1750
v 395.1750 2.7600 -4.8250
v 394.8250 2.7600 -4.8250
v 394.8250 2.8800 -5.1750
v 395.1750 2.8800 -5.1750
v 395.1750 2.8800 -4.8250
v 394.8250 2.8800 -4.8250
v 399.8250 2.7600 -5.1750
v 400.1750 2.7600 -5.1750
v 400.1750 2.7600 -4.8250
v 399.8250 2.7600 -4.8250
v 399.8250 2.8800 -5.1750
v 400.1750 2.8800 -5.1750
v 400.1750 2.8800 -4.8250
v 399.8250 2.8800 -4.8250
v 379.8250 2.7600 -0.1750
v 380.1750 2.7600 -0.1750
v 380.1750 2.7600 0.1750
v 379.8250 2.7600 0.1750
v 379.8250 2.8800 -0.1750
v 380.1750 2.8800 -0.1750
v 380.1750 2.8800 0.1750
v 379.8250 2.8800 0.1750
v 399.8250 2.7600 -0.1750
v 400.1750 2.7600 -0.1750
v 400.1750 2.7600 0.1750
v 399.8250 2.7600 0.1750
v 399.8250 2.8800 -0.1750
v 400.1750 2.8800 -0.1750
v 400.1750 2.8800 0.1750
v 399.8250 2.8800 0.1750
v 379.8250 2.7600 4.8250
v 380.1750 2.7600 4.8250
v 380.1750 2.7600 5.1750
v 379.8250 2.7600 5.1750
v 379.8250 2.8800 4.8250
v 380.1750 2.8800 4.8250
v 380.1750 2.8800 5.1750
v 379.8250 2.8800 5.1750
v 399.8250 2.7600 4.8250
v 400.1750 2.7600 4.8250
v 400.1750 2.7600 5.1750
v 399.8250 2.7600 5.1750
v 399.8250 2.8800 4.8250
v 400.1750 2.8800 4.8250
v 400.1750 2.8800 5.1750
v 399.8250 2.8800 5.1750
v 377.6200 2.6000 -22.5000
v 377.6200 2.6000 -22.5000
v 377.5849 2.6000 -22.4151
v 377.5849 2.6000 -22.4151
v 377.5000 2.6000 -22.3800
v 377.5000 2.6000 -22.3800
v 377.4151 2.6000 -22.4151
v 377.4151 2.6000 -22.4151
v 377.3800 2.6000 -22.5000
v 377.3800 2.6000 -22.5000
v 377.4151 2.6000 -22.5849
v 377.4151 2.6000 -22.5849
v 377.5000 2.6000 -22.6200
v 377.5000 2.6000 -22.6200
v 377.5849 2.6000 -22.5849
v 377.5849 2.6000 -22.5849
v 377.5000 2.6000 -22.5000
v 377.5000 2.6000 -22.5000
v 377.5000 2.4800 -22.6200
v 405.0000 2.4800 -22.6200
v 405.0000 2.4800 -22.3800
v 377.5000 2.4800 -22.3800
v 377.5000 2.7200 -22.6200
v 405.0000 2.7200 -22.6200
v 405.0000 2.7200 -22.3800
v 377.5000 2.7200 -22.3800
v 377.6200 2.6000 -17.5000
v 377.6200 2.6000 -17.5000
v 377.5849 2.6000 -17.4151
v 377.5849 2.6000 -17.4151
v 377.5000 2.6000 -17.3800
v 377.5000 2.6000 -17.3800
v 377.4151 2.6000 -17.4151
v 377.4151 2.6000 -17.4151
v 377.3800 2.6000 -17.5000
v 377.3800 2.6000 -17.5000
v 377.4151 2.6000 -17.5849
v 377.4151 2.6000 -17.5849
v 377.5000 2.6000 -17.6200
v 377.5000 2.6000 -17.6200
v 377.5849 2.6000 -17.5849
v 377.5849 2.6000 -17.5849
v 377.5000 2.6000 -17.5000
v 377.5000 2.6000 -17.5000
v 377.5000 2.4800 -17.6200
v 405.0000 2.4800 -17.6200
v 405.0000 2.4800 -17.3800
v 377.5000 2.4800 -17.3800
v 377.5000 2.7200 -17.6200
v 405.0000 2.7200 -17.6200
v 405.0000 2.7200 -17.3800
v 377.5000 2.7200 -17.3800
v 377.6200 2.6000 -12.5000
v 377.6200 2.6000 -12.5000
v 377.5849 2.6000 -12.4151
v 377.5849 2.6000 -12.4151
v 377.5000 2.6000 -12.3800
v 377.5000 2.6000 -12.3800
v 377.4151 2.6000 -12.4151
v 377.4151 2.6000 -12.4151
v 377.3800 2.6000 -12.5000
v 377.3800 2.6000 -12.5000
v 377.4151 2.6000 -12.5849
v 377.4151 2.6000 -12.5849
v 377.5000 2.6000 -12.6200
v 377.5000 2.6000 -12.6200
v 377.5849 2.6000 -12.5849
v 377.5849 2.6000 -12.5849
v 377.5000 2.6000 -12.5000
v 377.5000 2.6000 -12.5000
v 377.5000 2.4800 -12.6200
v 405.0000 2.4800 -12.6200
v 405.0000 2.4800 -12.3800
v 377.5000 2.4800 -12.3800
v 377.5000 2.7200 -12.6200
v 405.0000 2.7200 -12.6200
v 405.0000 2.7200 -12.3800
v 377.5000 2.7200 -12.3800
v 377.6200 2.6000 -7.5000
v 377.6200 2.6000 -7.5000
v 377.5849 2.6000 -7.4151
v 377.5849 2.6000 -7.4151
v 377.5000 2.6000 -7.3800
v 377.5000 2.6000 -7.3800
v 377.4151 2.6000 -7.4151
v 377.4151 2.6000 -7.4151
v 377.3800 2.6000 -7.5000
v 377.3800 2.6000 -7.5000
v 377.4151 2.6000 -7.5849
v 377.4151 2.6000 -7.5849
v 377.5000 2.6000 -7.6200
v 377.5000 2.6000 -7.6200
v 377.5849 2.6000 -7.5849
v 377.5849 2.6000 -7.5849
v 377.5000 2.6000 -7.5000
v 377.5000 2.6000 -7.5000
v 377.5000 2.4800 -7.6200
v 405.0000 2.4800 -7.6200
v 405.0000 2.4800 -7.3800
v 377.5000 2.4800 -7.3800
v 377.5000 2.7200 -7.6200
v 405.0000 2.7200 -7.6200
v 405.0000 2.7200 -7.3800
v 377.5000 2.7200 -7.3800
v 377.6200 2.6000 -2.5000
v 377.6200 2.6000 -2.5000
v 377.5849 2.6000 -2.4151
v 377.5849 2.6000 -2.4151
v 377.5000 2.6000 -2.3800
v 377.5000 2.6000 -2.3800
v 377.4151 2.6000 -2.4151
v 377.4151 2.6000 -2.4151
v 377.3800 2.6000 -2.5000
v 377.3800 2.6000 -2.5000
v 377.4151 2.6000 -2.5849
v 377.4151 2.6000 -2.5849
v 377.5000 2.6000 -2.6200
v 377.5000 2.6000 -2.6200
v 377.5849 2.6000 -2.5849
v 377.5849 2.6000 -2.5849
v 377.5000 2.6000 -2.5000
v 377.5000 2.6000 -2.5000
v 377.5000 2.4800 -2.6200
v 405.0000 2.4800 -2.6200
v 405.0000 2.4800 -2.3800
v 377.5000 2.4800 -2.3800
v 377.5000 2.7200 -2.6200
v 405.0000 2.7200 -2.6200
v 405.0000 2.7200 -2.3800
v 377.5000 2.7200 -2.3800
vt 188.0375 -11.9625
vt 188.0375 -10.5375
vt 189.4625 -10.5375
vt 189.4625 -11.9625
vt 188.0375 -11.9625
vt 189.4625 -11.9625
vt 189.4625 -10.5375
vt 188.0375 -10.5375
vt 188.0375 0.0000
vt 189.4625 0.0000
vt 189.4625 1.5000
vt 188.0375 1.5000
vt 189.4625 0.0000
vt 188.0375 0.0000
vt 188.0375 1.5000
vt 189.4625 1.5000
vt -11.9625 0.0000
vt -10.5375 0.0000
vt -10.5375 1.5000
vt -11.9625 1.5000
vt -10.5375 0.0000
vt -11.9625 0.0000
vt -11.9625 1.5000
vt -10.5375 1.5000
vt 190.5375 -11.9625
vt 190.5375 -10.5375
vt 191.9625 -10.5375
vt 191.9625 -11.9625
vt 190.5375 -11.9625
vt 191.9625 -11.9625
vt 191.9625 -10.5375
vt 190.5375 -10.5375
vt 190.5375 0.0000
vt 191.9625 0.0000
vt 191.9625 1.5000
vt 190.5375 1.5000
vt 191.9625 0.0000
vt 190.5375 0.0000
vt 190.5375 1.5000
vt 191.9625 1.5000
vt -11.9625 0.0000
vt -10.5375 0.0000
vt -10.5375 1.5000
vt -11.9625 1.5000
vt -10.5375 0.0000
vt -11.9625 0.0000
vt -11.9625 1.5000
vt -10.5375 1.5000
vt 193.0375 -11.9625
vt 193.0375 -10.5375
vt 194.4625 -10.5375
vt 194.4625 -11.9625
vt 193.0375 -11.9625
vt 194.4625 -11.9625
vt 194.4625 -10.5375
vt 193.0375 -10.5375
vt 193.0375 0.0000
vt 194.4625 0.0000
vt 194.4625 1.5000
vt 193.0375 1.5000
vt 194.4625 0.0000
vt 193.0375 0.0000
vt 193.0375 1.5000
vt 194.4625 1.5000
vt -11.9625 0.0000
vt -10.5375 0.0000
vt -10.5375 1.5000
vt -11.9625 1.5000
vt -10.5375 0.0000
vt -11.9625 0.0000
vt -11.9625 1.5000
vt -10.5375 1.5000
vt 195.5375 -11.9625
vt 195.5375 -10.5375
vt 196.9625 -10.5375
vt 196.9625 -11.9625
vt 195.5375 -11.9625
vt 196.9625 -11.9625
vt 196.9625 -10.5375
vt 195.5375 -10.5375
vt 195.5375 0.0000
vt 196.9625 0.0000
vt 196.9625 1.5000
vt 195.5375 1.5000
vt 196.9625 0.0000
vt 195.5375 0.0000
vt 195.5375 1.5000
vt 196.9625 1.5000
vt -11.9625 0.0000
vt -10.5375 0.0000
vt -10.5375 1.5000
vt -11.9625 1.5000
vt -10.5375 0.0000
vt -11.9625 0.0000
vt -11.9625 1.5000
vt -10.5375 1.5000
vt 196.7875 -11.9625
vt 196.7875 -10.5375
vt 198.2125 -10.5375
vt 198.2125 -11.9625
vt 196.7875 -11.9625
vt 198.2125 -11.9625
vt 198.2125 -10.5375
vt 196.7875 -10.5375
vt 196.7875 0.0000
vt 198.2125 0.0000
vt 198.2125 1.5000
vt 196.7875 1.5000
vt 198.2125 0.0000
vt 196.7875 0.0000
vt 196.7875 1.5000
vt 198.2125 1.5000
vt -11.9625 0.0000
vt -10.5375 0.0000
vt -10.5375 1.5000
vt -11.9625 1.5000
vt -10.5375 0.0000
vt -11.9625 0.0000
vt -11.9625 1.5000
vt -10.5375 1.5000
vt 198.0375 -11.9625
vt 198.0375 -10.5375
vt 199.4625 -10.5375
vt 199.4625 -11.9625
vt 198.0375 -11.9625
vt 199.4625 -11.9625
vt 199.4625 -10.5375
vt 198.0375 -10.5375
vt 198.0375 0.0000
vt 199.4625 0.0000
vt 199.4625 1.5000
vt 198.0375 1.5000
vt 199.4625 0.0000
vt 198.0375 0.0000
vt 198.0375 1.5000
vt 199.4625 1.5000
vt -11.9625 0.0000
vt -10.5375 0.0000
vt -10.5375 1.5000
vt -11.9625 1.5000
vt -10.5375 0.0000
vt -11.9625 0.0000
vt -11.9625 1.5000
vt -10.5375 1.5000
vt 190.5375 -10.7125
vt 190.5375 -9.2875
vt 191.9625 -9.2875
vt 191.9625 -10.7125
vt 190.5375 -10.7125
vt 191.9625 -10.7125
vt 191.9625 -9.2875
vt 190.5375 -9.2875
vt 190.5375 0.0000
vt 191.9625 0.0000
vt 191.9625 1.5000
vt 190.5375 1.5000
vt 191.9625 0.0000
vt 190.5375 0.0000
vt 190.5375 1.5000
vt 191.9625 1.5000
vt -10.7125 0.0000
vt -9.2875 0.0000
vt -9.2875 1.5000
vt -10.7125 1.5000
vt -9.2875 0.0000
vt -10.7125 0.0000
vt -10.7125 1.5000
vt -9.2875 1.5000
vt 195.5375 -10.7125
vt 195.5375 -9.2875
vt 196.9625 -9.2875
vt 196.9625 -10.7125
vt 195.5375 -10.7125
vt 196.9625 -10.7125
vt 196.9625 -9.2875
vt 195.5375 -9.2875
vt 195.5375 0.0000
vt 196.9625 0.0000
vt 196.9625 1.5000
vt 195.5375 1.5000
vt 196.9625 0.0000
vt 195.5375 0.0000
vt 195.5375 1.5000
vt 196.9625 1.5000
vt -10.7125 0.0000
vt -9.2875 0.0000
vt -9.2875 1.5000
vt -10.7125 1.5000
vt -9.2875 0.0000
vt -10.7125 0.0000
vt -10.7125 1.5000
vt -9.2875 1.5000
vt 200.5375 -10.7125
vt 200.5375 -9.2875
vt 201.9625 -9.2875
vt 201.9625 -10.7125
vt 200.5375 -10.7125
vt 201.9625 -10.7125
vt 201.9625 -9.2875
vt 200.5375 -9.2875
vt 200.5375 0.0000
vt 201.9625 0.0000
vt 201.9625 1.5000
vt 200.5375 1.5000
vt 201.9625 0.0000
vt 200.5375 0.0000
vt 200.5375 1.5000
vt 201.9625 1.5000
vt -10.7125 0.0000
vt -9.2875 0.0000
vt -9.2875 1.5000
vt -10.7125 1.5000
vt -9.2875 0.0000
vt -10.7125 0.0000
vt -10.7125 1.5000
vt -9.2875 1.5000
vt 188.0375 -9.4625
vt 188.0375 -8.0375
vt 189.4625 -8.0375
vt 189.4625 -9.4625
vt 188.0375 -9.4625
vt 189.4625 -9.4625
vt 189.4625 -8.0375
vt 188.0375 -8.0375
vt 188.0375 0.0000
vt 189.4625 0.0000
vt 189.4625 1.5000
vt 188.0375 1.5000
vt 189.4625 0.0000
vt 188.0375 0.0000
vt 188.0375 1.5000
vt 189.4625 1.5000
vt -9.4625 0.0000
vt -8.0375 0.0000
vt -8.0375 1.5000
vt -9.4625 1.5000
vt -8.0375 0.0000
vt -9.4625 0.0000
vt -9.4625 1.5000
vt -8.0375 1.5000
vt 193.0375 -9.4625
vt 193.0375 -8.0375
vt 194.4625 -8.0375
vt 194.4625 -9.4625
vt 193.0375 -9.4625
vt 194.4625 -9.4625
vt 194.4625 -8.0375
vt 193.0375 -8.0375
vt 193.0375 0.0000
vt 194.4625 0.0000
vt 194.4625 1.5000
vt 193.0375 1.5000
vt 194.4625 0.0000
vt 193.0375 0.0000
vt 193.0375 1.5000
vt 194.4625 1.5000
vt -9.4625 0.0000
vt -8.0375 0.0000
vt -8.0375 1.5000
vt -9.4625 1.5000
vt -8.0375 0.0000
vt -9.4625 0.0000
vt -9.4625 1.5000
vt -8.0375 1.5000
vt 194.2875 -9.4625
vt 194.2875 -8.0375
vt 195.7125 -8.0375
vt 195.7125 -9.4625
vt 194.2875 -9.4625
vt 195.7125 -9.4625
vt 195.7125 -8.0375
vt 194.2875 -8.0375
vt 194.2875 0.0000
vt 195.7125 0.0000
vt 195.7125 1.5000
vt 194.2875 1.5000
vt 195.7125 0.0000
vt 194.2875 0.0000
vt 194.2875 1.5000
vt 195.7125 1.5000
vt -9.4625 0.0000
vt -8.0375 0.0000
vt -8.0375 1.5000
vt -9.4625 1.5000
vt -8.0375 0.0000
vt -9.4625 0.0000
vt -9.4625 1.5000
vt -8.0375 1.5000
vt 195.5375 -9.4625
vt 195.5375 -8.0375
vt 196.9625 -8.0375
vt 196.9625 -9.4625
vt 195.5375 -9.4625
vt 196.9625 -9.4625
vt 196.9625 -8.0375
vt 195.5375 -8.0375
vt 195.5375 0.0000
vt 196.9625 0.0000
vt 196.9625 1.5000
vt 195.5375 1.5000
vt 196.9625 0.0000
vt 195.5375 0.0000
vt 195.5375 1.5000
vt 196.9625 1.5000
vt -9.4625 0.0000
vt -8.0375 0.0000
vt -8.0375 1.5000
vt -9.4625 1.5000
vt -8.0375 0.0000
vt -9.4625 0.0000
vt -9.4625 1.5000
vt -8.0375 1.5000
vt 198.0375 -9.4625
vt 198.0375 -8.0375
vt 199.4625 -8.0375
vt 199.4625 -9.4625
vt 198.0375 -9.4625
vt 199.4625 -9.4625
vt 199.4625 -8.0375
vt 198.0375 -8.0375
vt 198.0375 0.0000
vt 199.4625 0.0000
vt 199.4625 1.5000
vt 198.0375 1.5000
vt 199.4625 0.0000
vt 198.0375 0.0000
vt 198.0375 1.5000
vt 199.4625 1.5000
vt -9.4625 0.0000
vt -8.0375 0.0000
vt -8.0375 1.5000
vt -9.4625 1.5000
vt -8.0375 0.0000
vt -9.4625 0.0000
vt -9.4625 1.5000
vt -8.0375 1.5000
vt 200.5375 -9.4625
vt 200.5375 -8.0375
vt 201.9625 -8.0375
vt 201.9625 -9.4625
vt 200.5375 -9.4625
vt 201.9625 -9.4625
vt 201.9625 -8.0375
vt 200.5375 -8.0375
vt 200.5375 0.0000
vt 201.9625 0.0000
vt 201.9625 1.5000
vt 200.5375 1.5000
vt 201.9625 0.0000
vt 200.5375 0.0000
vt 200.5375 1.5000
vt 201.9625 1.5000
vt -9.4625 0.0000
vt -8.0375 0.0000
vt -8.0375 1.5000
vt -9.4625 1.5000
vt -8.0375 0.0000
vt -9.4625 0.0000
vt -9.4625 1.5000
vt -8.0375 1.5000
vt 188.0375 -8.2125
vt 188.0375 -6.7875
vt 189.4625 -6.7875
vt 189.4625 -8.2125
vt 188.0375 -8.2125
vt 189.4625 -8.2125
vt 189.4625 -6.7875
vt 188.0375 -6.7875
vt 188.0375 0.0000
vt 189.4625 0.0000
vt 189.4625 1.5000
vt 188.0375 1.5000
vt 189.4625 0.0000
vt 188.0375 0.0000
vt 188.0375 1.5000
vt 189.4625 1.5000
vt -8.2125 0.0000
vt -6.7875 0.0000
vt -6.7875 1.5000
vt -8.2125 1.5000
vt -6.7875 0.0000
vt -8.2125 0.0000
vt -8.2125 1.5000
vt -6.7875 1.5000
vt 198.0375 -8.2125
vt 198.0375 -6.7875
vt 199.4625 -6.7875
vt 199.4625 -8.2125
vt 198.0375 -8.2125
vt 199.4625 -8.2125
vt 199.4625 -6.7875
vt 198.0375 -6.7875
vt 198.0375 0.0000
vt 199.4625 0.0000
vt 199.4625 1.5000
vt 198.0375 1.5000
vt 199.4625 0.0000
vt 198.0375 0.0000
vt 198.0375 1.5000
vt 199.4625 1.5000
vt -8.2125 0.0000
vt -6.7875 0.0000
vt -6.7875 1.5000
vt -8.2125 1.5000
vt -6.7875 0.0000
vt -8.2125 0.0000
vt -8.2125 1.5000
vt -6.7875 1.5000
vt 188.0375 -6.9625
vt 188.0375 -5.5375
vt 189.4625 -5.5375
vt 189.4625 -6.9625
vt 188.0375 -6.9625
vt 189.4625 -6.9625
vt 189.4625 -5.5375
vt 188.0375 -5.5375
vt 188.0375 0.0000
vt 189.4625 0.0000
vt 189.4625 1.5000
vt 188.0375 1.5000
vt 189.4625 0.0000
vt 188.0375 0.0000
vt 188.0375 1.5000
vt 189.4625 1.5000
vt -6.9625 0.0000
vt -5.5375 0.0000
vt -5.5375 1.5000
vt -6.9625 1.5000
vt -5.5375 0.0000
vt -6.9625 0.0000
vt -6.9625 1.5000
vt -5.5375 1.5000
vt 189.2875 -6.9625
vt 189.2875 -5.5375
vt 190.7125 -5.5375
vt 190.7125 -6.9625
vt 189.2875 -6.9625
vt 190.7125 -6.9625
vt 190.7125 -5.5375
vt 189.2875 -5.5375
vt 189.2875 0.0000
vt 190.7125 0.0000
vt 190.7125 1.5000
vt 189.2875 1.5000
vt 190.7125 0.0000
vt 189.2875 0.0000
vt 189.2875 1.5000
vt 190.7125 1.5000
vt -6.9625 0.0000
vt -5.5375 0.0000
vt -5.5375 1.5000
vt -6.9625 1.5000
vt -5.5375 0.0000
vt -6.9625 0.0000
vt -6.9625 1.5000
vt -5.5375 1.5000
vt 193.0375 -6.9625
vt 193.0375 -5.5375
vt 194.4625 -5.5375
vt 194.4625 -6.9625
vt 193.0375 -6.9625
vt 194.4625 -6.9625
vt 194.4625 -5.5375
vt 193.0375 -5.5375
vt 193.0375 0.0000
vt 194.4625 0.0000
vt 194.4625 1.5000
vt 193.0375 1.5000
vt 194.4625 0.0000
vt 193.0375 0.0000
vt 193.0375 1.5000
vt 194.4625 1.5000
vt -6.9625 0.0000
vt -5.5375 0.0000
vt -5.5375 1.5000
vt -6.9625 1.5000
vt -5.5375 0.0000
vt -6.9625 0.0000
vt -6.9625 1.5000
vt -5.5375 1.5000
vt 194.2875 -6.9625
vt 194.2875 -5.5375
vt 195.7125 -5.5375
vt 195.7125 -6.9625
vt 194.2875 -6.9625
vt 195.7125 -6.9625
vt 195.7125 -5.5375
vt 194.2875 -5.5375
vt 194.2875 0.0000
vt 195.7125 0.0000
vt 195.7125 1.5000
vt 194.2875 1.5000
vt 195.7125 0.0000
vt 194.2875 0.0000
vt 194.2875 1.5000
vt 195.7125 1.5000
vt -6.9625 0.0000
vt -5.5375 0.0000
vt -5.5375 1.5000
vt -6.9625 1.5000
vt -5.5375 0.0000
vt -6.9625 0.0000
vt -6.9625 1.5000
vt -5.5375 1.5000
vt 195.5375 -6.9625
vt 195.5375 -5.5375
vt 196.9625 -5.5375
vt 196.9625 -6.9625
vt 195.5375 -6.9625
vt 196.9625 -6.9625
vt 196.9625 -5.5375
vt 195.5375 -5.5375
vt 195.5375 0.0000
vt 196.9625 0.0000
vt 196.9625 1.5000
vt 195.5375 1.5000
vt 196.9625 0.0000
vt 195.5375 0.0000
vt 195.5375 1.5000
vt 196.9625 1.5000
vt -6.9625 0.0000
vt -5.5375 0.0000
vt -5.5375 1.5000
vt -6.9625 1.5000
vt -5.5375 0.0000
vt -6.9625 0.0000
vt -6.9625 1.5000
vt -5.5375 1.5000
vt 198.0375 -6.9625
vt 198.0375 -5.5375
vt 199.4625 -5.5375
vt 199.4625 -6.9625
vt 198.0375 -6.9625
vt 199.4625 -6.9625
vt 199.4625 -5.5375
vt 198.0375 -5.5375
vt 198.0375 0.0000
vt 199.4625 0.0000
vt 199.4625 1.5000
vt 198.0375 1.5000
vt 199.4625 0.0000
vt 198.0375 0.0000
vt 198.0375 1.5000
vt 199.4625 1.5000
vt -6.9625 0.0000
vt -5.5375 0.0000
vt -5.5375 1.5000
vt -6.9625 1.5000
vt -5.5375 0.0000
vt -6.9625 0.0000
vt -6.9625 1.5000
vt -5.5375 1.5000
vt 199.2875 -6.9625
vt 199.2875 -5.5375
vt 200.7125 -5.5375
vt 200.7125 -6.9625
vt 199.2875 -6.9625
vt 200.7125 -6.9625
vt 200.7125 -5.5375
vt 199.2875 -5.5375
vt 199.2875 0.0000
vt 200.7125 0.0000
vt 200.7125 1.5000
vt 199.2875 1.5000
vt 200.7125 0.0000
vt 199.2875 0.0000
vt 199.2875 1.5000
vt 200.7125 1.5000
vt -6.9625 0.0000
vt -5.5375 0.0000
vt -5.5375 1.5000
vt -6.9625 1.5000
vt -5.5375 0.0000
vt -6.9625 0.0000
vt -6.9625 1.5000
vt -5.5375 1.5000
vt 193.0375 -5.7125
vt 193.0375 -4.2875
vt 194.4625 -4.2875
vt 194.4625 -5.7125
vt 193.0375 -5.7125
vt 194.4625 -5.7125
vt 194.4625 -4.2875
vt 193.0375 -4.2875
vt 193.0375 0.0000
vt 194.4625 0.0000
vt 194.4625 1.5000
vt 193.0375 1.5000
vt 194.4625 0.0000
vt 193.0375 0.0000
vt 193.0375 1.5000
vt 194.4625 1.5000
vt -5.7125 0.0000
vt -4.2875 0.0000
vt -4.2875 1.5000
vt -5.7125 1.5000
vt -4.2875 0.0000
vt -5.7125 0.0000
vt -5.7125 1.5000
vt -4.2875 1.5000
vt 195.5375 -5.7125
vt 195.5375 -4.2875
vt 196.9625 -4.2875
vt 196.9625 -5.7125
vt 195.5375 -5.7125
vt 196.9625 -5.7125
vt 196.9625 -4.2875
vt 195.5375 -4.2875
vt 195.5375 0.0000
vt 196.9625 0.0000
vt 196.9625 1.5000
vt 195.5375 1.5000
vt 196.9625 0.0000
vt 195.5375 0.0000
vt 195.5375 1.5000
vt 196.9625 1.5000
vt -5.7125 0.0000
vt -4.2875 0.0000
vt -4.2875 1.5000
vt -5.7125 1.5000
vt -4.2875 0.0000
vt -5.7125 0.0000
vt -5.7125 1.5000
vt -4.2875 1.5000
vt 198.0375 -5.7125
vt 198.0375 -4.2875
vt 199.4625 -4.2875
vt 199.4625 -5.7125
vt 198.0375 -5.7125
vt 199.4625 -5.7125
vt 199.4625 -4.2875
vt 198.0375 -4.2875
vt 198.0375 0.0000
vt 199.4625 0.0000
vt 199.4625 1.5000
vt 198.0375 1.5000
vt 199.4625 0.0000
vt 198.0375 0.0000
vt 198.0375 1.5000
vt 199.4625 1.5000
vt -5.7125 0.0000
vt -4.2875 0.0000
vt -4.2875 1.5000
vt -5.7125 1.5000
vt -4.2875 0.0000
vt -5.7125 0.0000
vt -5.7125 1.5000
vt -4.2875 1.5000
vt 189.2875 -4.4625
vt 189.2875 -3.0375
vt 190.7125 -3.0375
vt 190.7125 -4.4625
vt 189.2875 -4.4625
vt 190.7125 -4.4625
vt 190.7125 -3.0375
vt 189.2875 -3.0375
vt 189.2875 0.0000
vt 190.7125 0.0000
vt 190.7125 1.5000
vt 189.2875 1.5000
vt 190.7125 0.0000
vt 189.2875 0.0000
vt 189.2875 1.5000
vt 190.7125 1.5000
vt -4.4625 0.0000
vt -3.0375 0.0000
vt -3.0375 1.5000
vt -4.4625 1.5000
vt -3.0375 0.0000
vt -4.4625 0.0000
vt -4.4625 1.5000
vt -3.0375 1.5000
vt 190.5375 -4.4625
vt 190.5375 -3.0375
vt 191.9625 -3.0375
vt 191.9625 -4.4625
vt 190.5375 -4.4625
vt 191.9625 -4.4625
vt 191.9625 -3.0375
vt 190.5375 -3.0375
vt 190.5375 0.0000
vt 191.9625 0.0000
vt 191.9625 1.5000
vt 190.5375 1.5000
vt 191.9625 0.0000
vt 190.5375 0.0000
vt 190.5375 1.5000
vt 191.9625 1.5000
vt -4.4625 0.0000
vt -3.0375 0.0000
vt -3.0375 1.5000
vt -4.4625 1.5000
vt -3.0375 0.0000
vt -4.4625 0.0000
vt -4.4625 1.5000
vt -3.0375 1.5000
vt 193.0375 -4.4625
vt 193.0375 -3.0375
vt 194.4625 -3.0375
vt 194.4625 -4.4625
vt 193.0375 -4.4625
vt 194.4625 -4.4625
vt 194.4625 -3.0375
vt 193.0375 -3.0375
vt 193.0375 0.0000
vt 194.4625 0.0000
vt 194.4625 1.5000
vt 193.0375 1.5000
vt 194.4625 0.0000
vt 193.0375 0.0000
vt 193.0375 1.5000
vt 194.4625 1.5000
vt -4.4625 0.0000
vt -3.0375 0.0000
vt -3.0375 1.5000
vt -4.4625 1.5000
vt -3.0375 0.0000
vt -4.4625 0.0000
vt -4.4625 1.5000
vt -3.0375 1.5000
vt 195.5375 -4.4625
vt 195.5375 -3.0375
vt 196.9625 -3.0375
vt 196.9625 -4.4625
vt 195.5375 -4.4625
vt 196.9625 -4.4625
vt 196.9625 -3.0375
vt 195.5375 -3.0375
vt 195.5375 0.0000
vt 196.9625 0.0000
vt 196.9625 1.5000
vt 195.5375 1.5000
vt 196.9625 0.0000
vt 195.5375 0.0000
vt 195.5375 1.5000
vt 196.9625 1.5000
vt -4.4625 0.0000
vt -3.0375 0.0000
vt -3.0375 1.5000
vt -4.4625 1.5000
vt -3.0375 0.0000
vt -4.4625 0.0000
vt -4.4625 1.5000
vt -3.0375 1.5000
vt 198.0375 -4.4625
vt 198.0375 -3.0375
vt 199.4625 -3.0375
vt 199.4625 -4.4625
vt 198.0375 -4.4625
vt 199.4625 -4.4625
vt 199.4625 -3.0375
vt 198.0375 -3.0375
vt 198.0375 0.0000
vt 199.4625 0.0000
vt 199.4625 1.5000
vt 198.0375 1.5000
vt 199.4625 0.0000
vt 198.0375 0.0000
vt 198.0375 1.5000
vt 199.4625 1.5000
vt -4.4625 0.0000
vt -3.0375 0.0000
vt -3.0375 1.5000
vt -4.4625 1.5000
vt -3.0375 0.0000
vt -4.4625 0.0000
vt -4.4625 1.5000
vt -3.0375 1.5000
vt 200.5375 -4.4625
vt 200.5375 -3.0375
vt 201.9625 -3.0375
vt 201.9625 -4.4625
vt 200.5375 -4.4625
vt 201.9625 -4.4625
vt 201.9625 -3.0375
vt 200.5375 -3.0375
vt 200.5375 0.0000
vt 201.9625 0.0000
vt 201.9625 1.5000
vt 200.5375 1.5000
vt 201.9625 0.0000
vt 200.5375 0.0000
vt 200.5375 1.5000
vt 201.9625 1.5000
vt -4.4625 0.0000
vt -3.0375 0.0000
vt -3.0375 1.5000
vt -4.4625 1.5000
vt -3.0375 0.0000
vt -4.4625 0.0000
vt -4.4625 1.5000
vt -3.0375 1.5000
vt 198.0375 -3.2125
vt 198.0375 -1.7875
vt 199.4625 -1.7875
vt 199.4625 -3.2125
vt 198.0375 -3.2125
vt 199.4625 -3.2125
vt 199.4625 -1.7875
vt 198.0375 -1.7875
vt 198.0375 0.0000
vt 199.4625 0.0000
vt 199.4625 1.5000
vt 198.0375 1.5000
vt 199.4625 0.0000
vt 198.0375 0.0000
vt 198.0375 1.5000
vt 199.4625 1.5000
vt -3.2125 0.0000
vt -1.7875 0.0000
vt -1.7875 1.5000
vt -3.2125 1.5000
vt -1.7875 0.0000
vt -3.2125 0.0000
vt -3.2125 1.5000
vt -1.7875 1.5000
vt 188.0375 -1.9625
vt 188.0375 -0.5375
vt 189.4625 -0.5375
vt 189.4625 -1.9625
vt 188.0375 -1.9625
vt 189.4625 -1.9625
vt 189.4625 -0.5375
vt 188.0375 -0.5375
vt 188.0375 0.0000
vt 189.4625 0.0000
vt 189.4625 1.5000
vt 188.0375 1.5000
vt 189.4625 0.0000
vt 188.0375 0.0000
vt 188.0375 1.5000
vt 189.4625 1.5000
vt -1.9625 0.0000
vt -0.5375 0.0000
vt -0.5375 1.5000
vt -1.9625 1.5000
vt -0.5375 0.0000
vt -1.9625 0.0000
vt -1.9625 1.5000
vt -0.5375 1.5000
vt 190.5375 -1.9625
vt 190.5375 -0.5375
vt 191.9625 -0.5375
vt 191.9625 -1.9625
vt 190.5375 -1.9625
vt 191.9625 -1.9625
vt 191.9625 -0.5375
vt 190.5375 -0.5375
vt 190.5375 0.0000
vt 191.9625 0.0000
vt 191.9625 1.5000
vt 190.5375 1.5000
vt 191.9625 0.0000
vt 190.5375 0.0000
vt 190.5375 1.5000
vt 191.9625 1.5000
vt -1.9625 0.0000
vt -0.5375 0.0000
vt -0.5375 1.5000
vt -1.9625 1.5000
vt -0.5375 0.0000
vt -1.9625 0.0000
vt -1.9625 1.5000
vt -0.5375 1.5000
vt 195.5375 -1.9625
vt 195.5375 -0.5375
vt 196.9625 -0.5375
vt 196.9625 -1.9625
vt 195.5375 -1.9625
vt 196.9625 -1.9625
vt 196.9625 -0.5375
vt 195.5375 -0.5375
vt 195.5375 0.0000
vt 196.9625 0.0000
vt 196.9625 1.5000
vt 195.5375 1.5000
vt 196.9625 0.0000
vt 195.5375 0.0000
vt 195.5375 1.5000
vt 196.9625 1.5000
vt -1.9625 0.0000
vt -0.5375 0.0000
vt -0.5375 1.5000
vt -1.9625 1.5000
vt -0.5375 0.0000
vt -1.9625 0.0000
vt -1.9625 1.5000
vt -0.5375 1.5000
vt 201.7875 -1.9625
vt 201.7875 -0.5375
vt 203.2125 -0.5375
vt 203.2125 -1.9625
vt 201.7875 -1.9625
vt 203.2125 -1.9625
vt 203.2125 -0.5375
vt 201.7875 -0.5375
vt 201.7875 0.0000
vt 203.2125 0.0000
vt 203.2125 1.5000
vt 201.7875 1.5000
vt 203.2125 0.0000
vt 201.7875 0.0000
vt 201.7875 1.5000
vt 203.2125 1.5000
vt -1.9625 0.0000
vt -0.5375 0.0000
vt -0.5375 1.5000
vt -1.9625 1.5000
vt -0.5375 0.0000
vt -1.9625 0.0000
vt -1.9625 1.5000
vt -0.5375 1.5000
vt 195.5375 -0.7125
vt 195.5375 0.7125
vt 196.9625 0.7125
vt 196.9625 -0.7125
vt 195.5375 -0.7125
vt 196.9625 -0.7125
vt 196.9625 0.7125
vt 195.5375 0.7125
vt 195.5375 0.0000
vt 196.9625 0.0000
vt 196.9625 1.5000
vt 195.5375 1.5000
vt 196.9625 0.0000
vt 195.5375 0.0000
vt 195.5375 1.5000
vt 196.9625 1.5000
vt -0.7125 0.0000
vt 0.7125 0.0000
vt 0.7125 1.5000
vt -0.7125 1.5000
vt 0.7125 0.0000
vt -0.7125 0.0000
vt -0.7125 1.5000
vt 0.7125 1.5000
vt 188.0375 0.5375
vt 188.0375 1.9625
vt 189.4625 1.9625
vt 189.4625 0.5375
vt 188.0375 0.5375
vt 189.4625 0.5375
vt 189.4625 1.9625
vt 188.0375 1.9625
vt 188.0375 0.0000
vt 189.4625 0.0000
vt 189.4625 1.5000
vt 188.0375 1.5000
vt 189.4625 0.0000
vt 188.0375 0.0000
vt 188.0375 1.5000
vt 189.4625 1.5000
vt 0.5375 0.0000
vt 1.9625 0.0000
vt 1.9625 1.5000
vt 0.5375 1.5000
vt 1.9625 0.0000
vt 0.5375 0.0000
vt 0.5375 1.5000
vt 1.9625 1.5000
vt 194.2875 0.5375
vt 194.2875 1.9625
vt 195.7125 1.9625
vt 195.7125 0.5375
vt 194.2875 0.5375
vt 195.7125 0.5375
vt 195.7125 1.9625
vt 194.2875 1.9625
vt 194.2875 0.0000
vt 195.7125 0.0000
vt 195.7125 1.5000
vt 194.2875 1.5000
vt 195.7125 0.0000
vt 194.2875 0.0000
vt 194.2875 1.5000
vt 195.7125 1.5000
vt 0.5375 0.0000
vt 1.9625 0.0000
vt 1.9625 1.5000
vt 0.5375 1.5000
vt 1.9625 0.0000
vt 0.5375 0.0000
vt 0.5375 1.5000
vt 1.9625 1.5000
vt 196.7875 0.5375
vt 196.7875 1.9625
vt 198.2125 1.9625
vt 198.2125 0.5375
vt 196.7875 0.5375
vt 198.2125 0.5375
vt 198.2125 1.9625
vt 196.7875 1.9625
vt 196.7875 0.0000
vt 198.2125 0.0000
vt 198.2125 1.5000
vt 196.7875 1.5000
vt 198.2125 0.0000
vt 196.7875 0.0000
vt 196.7875 1.5000
vt 198.2125 1.5000
vt 0.5375 0.0000
vt 1.9625 0.0000
vt 1.9625 1.5000
vt 0.5375 1.5000
vt 1.9625 0.0000
vt 0.5375 0.0000
vt 0.5375 1.5000
vt 1.9625 1.5000
vt 200.5375 0.5375
vt 200.5375 1.9625
vt 201.9625 1.9625
vt 201.9625 0.5375
vt 200.5375 0.5375
vt 201.9625 0.5375
vt 201.9625 1.9625
vt 200.5375 1.9625
vt 200.5375 0.0000
vt 201.9625 0.0000
vt 201.9625 1.5000
vt 200.5375 1.5000
vt 201.9625 0.0000
vt 200.5375 0.0000
vt 200.5375 1.5000
vt 201.9625 1.5000
vt 0.5375 0.0000
vt 1.9625 0.0000
vt 1.9625 1.5000
vt 0.5375 1.5000
vt 1.9625 0.0000
vt 0.5375 0.0000
vt 0.5375 1.5000
vt 1.9625 1.5000
vt 190.5375 1.7875
vt 190.5375 3.2125
vt 191.9625 3.2125
vt 191.9625 1.7875
vt 190.5375 1.7875
vt 191.9625 1.7875
vt 191.9625 3.2125
vt 190.5375 3.2125
vt 190.5375 0.0000
vt 191.9625 0.0000
vt 191.9625 1.5000
vt 190.5375 1.5000
vt 191.9625 0.0000
vt 190.5375 0.0000
vt 190.5375 1.5000
vt 191.9625 1.5000
vt 1.7875 0.0000
vt 3.2125 0.0000
vt 3.2125 1.5000
vt 1.7875 1.5000
vt 3.2125 0.0000
vt 1.7875 0.0000
vt 1.7875 1.5000
vt 3.2125 1.5000
vt 198.0375 1.7875
vt 198.0375 3.2125
vt 199.4625 3.2125
vt 199.4625 1.7875
vt 198.0375 1.7875
vt 199.4625 1.7875
vt 199.4625 3.2125
vt 198.0375 3.2125
vt 198.0375 0.0000
vt 199.4625 0.0000
vt 199.4625 1.5000
vt 198.0375 1.5000
vt 199.4625 0.0000
vt 198.0375 0.0000
vt 198.0375 1.5000
vt 199.4625 1.5000
vt 1.7875 0.0000
vt 3.2125 0.0000
vt 3.2125 1.5000
vt 1.7875 1.5000
vt 3.2125 0.0000
vt 1.7875 0.0000
vt 1.7875 1.5000
vt 3.2125 1.5000
vt 200.5375 1.7875
vt 200.5375 3.2125
vt 201.9625 3.2125
vt 201.9625 1.7875
vt 200.5375 1.7875
vt 201.9625 1.7875
vt 201.9625 3.2125
vt 200.5375 3.2125
vt 200.5375 0.0000
vt 201.9625 0.0000
vt 201.9625 1.5000
vt 200.5375 1.5000
vt 201.9625 0.0000
vt 200.5375 0.0000
vt 200.5375 1.5000
vt 201.9625 1.5000
vt 1.7875 0.0000
vt 3.2125 0.0000
vt 3.2125 1.5000
vt 1.7875 1.5000
vt 3.2125 0.0000
vt 1.7875 0.0000
vt 1.7875 1.5000
vt 3.2125 1.5000
usemtl rust
f 145 148 147 146
f 149 150 151 152
f 145 146 150 149
f 147 148 152 151
f 146 147 151 150
f 148 145 149 152
f 249 252 251 250
f 253 254 255 256
f 249 250 254 253
f 251 252 256 255
f 250 251 255 254
f 252 249 253 256
f 377 380 379 378
f 381 382 383 384
f 377 378 382 381
f 379 380 384 383
f 378 379 383 382
f 380 377 381 384
f 481 484 483 482
f 485 486 487 488
f 481 482 486 485
f 483 484 488 487
f 482 483 487 486
f 484 481 485 488
f 609 612 611 610
f 613 614 615 616
f 609 610 614 613
f 611 612 616 615
f 610 611 615 614
f 612 609 613 616
f 689 692 691 690
f 693 694 695 696
f 689 690 694 693
f 691 692 696 695
f 690 691 695 694
f 692 689 693 696
f 817 820 819 818
f 821 822 823 824
f 817 818 822 821
f 819 820 824 823
f 818 819 823 822
f 820 817 821 824
f 945 948 947 946
f 949 950 951 952
f 945 946 950 949
f 947 948 952 951
f 946 947 951 950
f 948 945 949 952
f 953 956 955 954
f 957 958 959 960
f 953 954 958 957
f 955 956 960 959
f 954 955 959 958
f 956 953 957 960
f 1033 1036 1035 1034
f 1037 1038 1039 1040
f 1033 1034 1038 1037
f 1035 1036 1040 1039
f 1034 1035 1039 1038
f 1036 1033 1037 1040
f 1041 1044 1043 1042
f 1045 1046 1047 1048
f 1041 1042 1046 1045
f 1043 1044 1048 1047
f 1042 1043 1047 1046
f 1044 1041 1045 1048
f 1073 1076 1075 1074
f 1077 1078 1079 1080
f 1073 1074 1078 1077
f 1075 1076 1080 1079
f 1074 1075 1079 1078
f 1076 1073 1077 1080
f 1105 1108 1107 1106
f 1109 1110 1111 1112
f 1105 1106 1110 1109
f 1107 1108 1112 1111
f 1106 1107 1111 1110
f 1108 1105 1109 1112
usemtl lamp_sick
f 1209 1212 1211 1210
f 1213 1214 1215 1216
f 1209 1210 1214 1213
f 1211 1212 1216 1215
f 1210 1211 1215 1214
f 1212 1209 1213 1216
f 1217 1220 1219 1218
f 1221 1222 1223 1224
f 1217 1218 1222 1221
f 1219 1220 1224 1223
f 1218 1219 1223 1222
f 1220 1217 1221 1224
f 1225 1228 1227 1226
f 1229 1230 1231 1232
f 1225 1226 1230 1229
f 1227 1228 1232 1231
f 1226 1227 1231 1230
f 1228 1225 1229 1232
f 1233 1236 1235 1234
f 1237 1238 1239 1240
f 1233 1234 1238 1237
f 1235 1236 1240 1239
f 1234 1235 1239 1238
f 1236 1233 1237 1240
f 1241 1244 1243 1242
f 1245 1246 1247 1248
f 1241 1242 1246 1245
f 1243 1244 1248 1247
f 1242 1243 1247 1246
f 1244 1241 1245 1248
f 1249 1252 1251 1250
f 1253 1254 1255 1256
f 1249 1250 1254 1253
f 1251 1252 1256 1255
f 1250 1251 1255 1254
f 1252 1249 1253 1256
f 1257 1260 1259 1258
f 1261 1262 1263 1264
f 1257 1258 1262 1261
f 1259 1260 1264 1263
f 1258 1259 1263 1262
f 1260 1257 1261 1264
f 1265 1268 1267 1266
f 1269 1270 1271 1272
f 1265 1266 1270 1269
f 1267 1268 1272 1271
f 1266 1267 1271 1270
f 1268 1265 1269 1272
f 1273 1276 1275 1274
f 1277 1278 1279 1280
f 1273 1274 1278 1277
f 1275 1276 1280 1279
f 1274 1275 1279 1278
f 1276 1273 1277 1280
f 1281 1284 1283 1282
f 1285 1286 1287 1288
f 1281 1282 1286 1285
f 1283 1284 1288 1287
f 1282 1283 1287 1286
f 1284 1281 1285 1288
f 1289 1292 1291 1290
f 1293 1294 1295 1296
f 1289 1290 1294 1293
f 1291 1292 1296 1295
f 1290 1291 1295 1294
f 1292 1289 1293 1296
f 1297 1300 1299 1298
f 1301 1302 1303 1304
f 1297 1298 1302 1301
f 1299 1300 1304 1303
f 1298 1299 1303 1302
f 1300 1297 1301 1304
usemtl pipe
f 1305 1307 1308 1306
f 1307 1309 1310 1308
f 1309 1311 1312 1310
f 1311 1313 1314 1312
f 1313 1315 1316 1314
f 1315 1317 1318 1316
f 1317 1319 1320 1318
f 1319 1305 1306 1320
f 1321 1306 1308
f 1322 1307 1305
f 1321 1308 1310
f 1322 1309 1307
f 1321 1310 1312
f 1322 1311 1309
f 1321 1312 1314
f 1322 1313 1311
f 1321 1314 1316
f 1322 1315 1313
f 1321 1316 1318
f 1322 1317 1315
f 1321 1318 1320
f 1322 1319 1317
f 1321 1320 1306
f 1322 1305 1319
f 1323 1326 1325 1324
f 1327 1328 1329 1330
f 1323 1324 1328 1327
f 1325 1326 1330 1329
f 1324 1325 1329 1328
f 1326 1323 1327 1330
f 1331 1333 1334 1332
f 1333 1335 1336 1334
f 1335 1337 1338 1336
f 1337 1339 1340 1338
f 1339 1341 1342 1340
f 1341 1343 1344 1342
f 1343 1345 1346 1344
f 1345 1331 1332 1346
f 1347 1332 1334
f 1348 1333 1331
f 1347 1334 1336
f 1348 1335 1333
f 1347 1336 1338
f 1348 1337 1335
f 1347 1338 1340
f 1348 1339 1337
f 1347 1340 1342
f 1348 1341 1339
f 1347 1342 1344
f 1348 1343 1341
f 1347 1344 1346
f 1348 1345 1343
f 1347 1346 1332
f 1348 1331 1345
f 1349 1352 1351 1350
f 1353 1354 1355 1356
f 1349 1350 1354 1353
f 1351 1352 1356 1355
f 1350 1351 1355 1354
f 1352 1349 1353 1356
usemtl rust
f 1357 1359 1360 1358
f 1359 1361 1362 1360
f 1361 1363 1364 1362
f 1363 1365 1366 1364
f 1365 1367 1368 1366
f 1367 1369 1370 1368
f 1369 1371 1372 1370
f 1371 1357 1358 1372
f 1373 1358 1360
f 1374 1359 1357
f 1373 1360 1362
f 1374 1361 1359
f 1373 1362 1364
f 1374 1363 1361
f 1373 1364 1366
f 1374 1365 1363
f 1373 1366 1368
f 1374 1367 1365
f 1373 1368 1370
f 1374 1369 1367
f 1373 1370 1372
f 1374 1371 1369
f 1373 1372 1358
f 1374 1357 1371
f 1375 1378 1377 1376
f 1379 1380 1381 1382
f 1375 1376 1380 1379
f 1377 1378 1382 1381
f 1376 1377 1381 1380
f 1378 1375 1379 1382
f 1383 1385 1386 1384
f 1385 1387 1388 1386
f 1387 1389 1390 1388
f 1389 1391 1392 1390
f 1391 1393 1394 1392
f 1393 1395 1396 1394
f 1395 1397 1398 1396
f 1397 1383 1384 1398
f 1399 1384 1386
f 1400 1385 1383
f 1399 1386 1388
f 1400 1387 1385
f 1399 1388 1390
f 1400 1389 1387
f 1399 1390 1392
f 1400 1391 1389
f 1399 1392 1394
f 1400 1393 1391
f 1399 1394 1396
f 1400 1395 1393
f 1399 1396 1398
f 1400 1397 1395
f 1399 1398 1384
f 1400 1383 1397
f 1401 1404 1403 1402
f 1405 1406 1407 1408
f 1401 1402 1406 1405
f 1403 1404 1408 1407
f 1402 1403 1407 1406
f 1404 1401 1405 1408
usemtl pipe
f 1409 1411 1412 1410
f 1411 1413 1414 1412
f 1413 1415 1416 1414
f 1415 1417 1418 1416
f 1417 1419 1420 1418
f 1419 1421 1422 1420
f 1421 1423 1424 1422
f 1423 1409 1410 1424
f 1425 1410 1412
f 1426 1411 1409
f 1425 1412 1414
f 1426 1413 1411
f 1425 1414 1416
f 1426 1415 1413
f 1425 1416 1418
f 1426 1417 1415
f 1425 1418 1420
f 1426 1419 1417
f 1425 1420 1422
f 1426 1421 1419
f 1425 1422 1424
f 1426 1423 1421
f 1425 1424 1410
f 1426 1409 1423
f 1427 1430 1429 1428
f 1431 1432 1433 1434
f 1427 1428 1432 1431
f 1429 1430 1434 1433
f 1428 1429 1433 1432
f 1430 1427 1431 1434
usemtl grime_wall
f 1/1 2/2 3/3 4/4
f 5/5 6/6 7/7 8/8
f 9/9 10/10 11/11 12/12
f 13/13 14/14 15/15 16/16
f 17/17 18/18 19/19 20/20
f 21/21 22/22 23/23 24/24
f 25/25 26/26 27/27 28/28
f 29/29 30/30 31/31 32/32
f 33/33 34/34 35/35 36/36
f 37/37 38/38 39/39 40/40
f 41/41 42/42 43/43 44/44
f 45/45 46/46 47/47 48/48
f 49/49 50/50 51/51 52/52
f 53/53 54/54 55/55 56/56
f 57/57 58/58 59/59 60/60
f 61/61 62/62 63/63 64/64
f 65/65 66/66 67/67 68/68
f 69/69 70/70 71/71 72/72
f 73/73 74/74 75/75 76/76
f 77/77 78/78 79/79 80/80
f 81/81 82/82 83/83 84/84
f 85/85 86/86 87/87 88/88
f 89/89 90/90 91/91 92/92
f 93/93 94/94 95/95 96/96
f 97/97 98/98 99/99 100/100
f 101/101 102/102 103/103 104/104
f 105/105 106/106 107/107 108/108
f 109/109 110/110 111/111 112/112
f 113/113 114/114 115/115 116/116
f 117/117 118/118 119/119 120/120
f 121/121 122/122 123/123 124/124
f 125/125 126/126 127/127 128/128
f 129/129 130/130 131/131 132/132
f 133/133 134/134 135/135 136/136
f 137/137 138/138 139/139 140/140
f 141/141 142/142 143/143 144/144
f 153/145 154/146 155/147 156/148
f 157/149 158/150 159/151 160/152
f 161/153 162/154 163/155 164/156
f 165/157 166/158 167/159 168/160
f 169/161 170/162 171/163 172/164
f 173/165 174/166 175/167 176/168
f 177/169 178/170 179/171 180/172
f 181/173 182/174 183/175 184/176
f 185/177 186/178 187/179 188/180
f 189/181 190/182 191/183 192/184
f 193/185 194/186 195/187 196/188
f 197/189 198/190 199/191 200/192
f 201/193 202/194 203/195 204/196
f 205/197 206/198 207/199 208/200
f 209/201 210/202 211/203 212/204
f 213/205 214/206 215/207 216/208
f 217/209 218/210 219/211 220/212
f 221/213 222/214 223/215 224/216
f 225/217 226/218 227/219 228/220
f 229/221 230/222 231/223 232/224
f 233/225 234/226 235/227 236/228
f 237/229 238/230 239/231 240/232
f 241/233 242/234 243/235 244/236
f 245/237 246/238 247/239 248/240
f 257/241 258/242 259/243 260/244
f 261/245 262/246 263/247 264/248
f 265/249 266/250 267/251 268/252
f 269/253 270/254 271/255 272/256
f 273/257 274/258 275/259 276/260
f 277/261 278/262 279/263 280/264
f 281/265 282/266 283/267 284/268
f 285/269 286/270 287/271 288/272
f 289/273 290/274 291/275 292/276
f 293/277 294/278 295/279 296/280
f 297/281 298/282 299/283 300/284
f 301/285 302/286 303/287 304/288
f 305/289 306/290 307/291 308/292
f 309/293 310/294 311/295 312/296
f 313/297 314/298 315/299 316/300
f 317/301 318/302 319/303 320/304
f 321/305 322/306 323/307 324/308
f 325/309 326/310 327/311 328/312
f 329/313 330/314 331/315 332/316
f 333/317 334/318 335/319 336/320
f 337/321 338/322 339/323 340/324
f 341/325 342/326 343/327 344/328
f 345/329 346/330 347/331 348/332
f 349/333 350/334 351/335 352/336
f 353/337 354/338 355/339 356/340
f 357/341 358/342 359/343 360/344
f 361/345 362/346 363/347 364/348
f 365/349 366/350 367/351 368/352
f 369/353 370/354 371/355 372/356
f 373/357 374/358 375/359 376/360
f 385/361 386/362 387/363 388/364
f 389/365 390/366 391/367 392/368
f 393/369 394/370 395/371 396/372
f 397/373 398/374 399/375 400/376
f 401/377 402/378 403/379 404/380
f 405/381 406/382 407/383 408/384
f 409/385 410/386 411/387 412/388
f 413/389 414/390 415/391 416/392
f 417/393 418/394 419/395 420/396
f 421/397 422/398 423/399 424/400
f 425/401 426/402 427/403 428/404
f 429/405 430/406 431/407 432/408
f 433/409 434/410 435/411 436/412
f 437/413 438/414 439/415 440/416
f 441/417 442/418 443/419 444/420
f 445/421 446/422 447/423 448/424
f 449/425 450/426 451/427 452/428
f 453/429 454/430 455/431 456/432
f 457/433 458/434 459/435 460/436
f 461/437 462/438 463/439 464/440
f 465/441 466/442 467/443 468/444
f 469/445 470/446 471/447 472/448
f 473/449 474/450 475/451 476/452
f 477/453 478/454 479/455 480/456
f 489/457 490/458 491/459 492/460
f 493/461 494/462 495/463 496/464
f 497/465 498/466 499/467 500/468
f 501/469 502/470 503/471 504/472
f 505/473 506/474 507/475 508/476
f 509/477 510/478 511/479 512/480
f 513/481 514/482 515/483 516/484
f 517/485 518/486 519/487 520/488
f 521/489 522/490 523/491 524/492
f 525/493 526/494 527/495 528/496
f 529/497 530/498 531/499 532/500
f 533/501 534/502 535/503 536/504
f 537/505 538/506 539/507 540/508
f 541/509 542/510 543/511 544/512
f 545/513 546/514 547/515 548/516
f 549/517 550/518 551/519 552/520
f 553/521 554/522 555/523 556/524
f 557/525 558/526 559/527 560/528
f 561/529 562/530 563/531 564/532
f 565/533 566/534 567/535 568/536
f 569/537 570/538 571/539 572/540
f 573/541 574/542 575/543 576/544
f 577/545 578/546 579/547 580/548
f 581/549 582/550 583/551 584/552
f 585/553 586/554 587/555 588/556
f 589/557 590/558 591/559 592/560
f 593/561 594/562 595/563 596/564
f 597/565 598/566 599/567 600/568
f 601/569 602/570 603/571 604/572
f 605/573 606/574 607/575 608/576
f 617/577 618/578 619/579 620/580
f 621/581 622/582 623/583 624/584
f 625/585 626/586 627/587 628/588
f 629/589 630/590 631/591 632/592
f 633/593 634/594 635/595 636/596
f 637/597 638/598 639/599 640/600
f 641/601 642/602 643/603 644/604
f 645/605 646/606 647/607 648/608
f 649/609 650/610 651/611 652/612
f 653/613 654/614 655/615 656/616
f 657/617 658/618 659/619 660/620
f 661/621 662/622 663/623 664/624
f 665/625 666/626 667/627 668/628
f 669/629 670/630 671/631 672/632
f 673/633 674/634 675/635 676/636
f 677/637 678/638 679/639 680/640
f 681/641 682/642 683/643 684/644
f 685/645 686/646 687/647 688/648
f 697/649 698/650 699/651 700/652
f 701/653 702/654 703/655 704/656
f 705/657 706/658 707/659 708/660
f 709/661 710/662 711/663 712/664
f 713/665 714/666 715/667 716/668
f 717/669 718/670 719/671 720/672
f 721/673 722/674 723/675 724/676
f 725/677 726/678 727/679 728/680
f 729/681 730/682 731/683 732/684
f 733/685 734/686 735/687 736/688
f 737/689 738/690 739/691 740/692
f 741/693 742/694 743/695 744/696
f 745/697 746/698 747/699 748/700
f 749/701 750/702 751/703 752/704
f 753/705 754/706 755/707 756/708
f 757/709 758/710 759/711 760/712
f 761/713 762/714 763/715 764/716
f 765/717 766/718 767/719 768/720
f 769/721 770/722 771/723 772/724
f 773/725 774/726 775/727 776/728
f 777/729 778/730 779/731 780/732
f 781/733 782/734 783/735 784/736
f 785/737 786/738 787/739 788/740
f 789/741 790/742 791/743 792/744
f 793/745 794/746 795/747 796/748
f 797/749 798/750 799/751 800/752
f 801/753 802/754 803/755 804/756
f 805/757 806/758 807/759 808/760
f 809/761 810/762 811/763 812/764
f 813/765 814/766 815/767 816/768
f 825/769 826/770 827/771 828/772
f 829/773 830/774 831/775 832/776
f 833/777 834/778 835/779 836/780
f 837/781 838/782 839/783 840/784
f 841/785 842/786 843/787 844/788
f 845/789 846/790 847/791 848/792
f 849/793 850/794 851/795 852/796
f 853/797 854/798 855/799 856/800
f 857/801 858/802 859/803 860/804
f 861/805 862/806 863/807 864/808
f 865/809 866/810 867/811 868/812
f 869/813 870/814 871/815 872/816
f 873/817 874/818 875/819 876/820
f 877/821 878/822 879/823 880/824
f 881/825 882/826 883/827 884/828
f 885/829 886/830 887/831 888/832
f 889/833 890/834 891/835 892/836
f 893/837 894/838 895/839 896/840
f 897/841 898/842 899/843 900/844
f 901/845 902/846 903/847 904/848
f 905/849 906/850 907/851 908/852
f 909/853 910/854 911/855 912/856
f 913/857 914/858 915/859 916/860
f 917/861 918/862 919/863 920/864
f 921/865 922/866 923/867 924/868
f 925/869 926/870 927/871 928/872
f 929/873 930/874 931/875 932/876
f 933/877 934/878 935/879 936/880
f 937/881 938/882 939/883 940/884
f 941/885 942/886 943/887 944/888
f 961/889 962/890 963/891 964/892
f 965/893 966/894 967/895 968/896
f 969/897 970/898 971/899 972/900
f 973/901 974/902 975/903 976/904
f 977/905 978/906 979/907 980/908
f 981/909 982/910 983/911 984/912
f 985/913 986/914 987/915 988/916
f 989/917 990/918 991/919 992/920
f 993/921 994/922 995/923 996/924
f 997/925 998/926 999/927 1000/928
f 1001/929 1002/930 1003/931 1004/932
f 1005/933 1006/934 1007/935 1008/936
f 1009/937 1010/938 1011/939 1012/940
f 1013/941 1014/942 1015/943 1016/944
f 1017/945 1018/946 1019/947 1020/948
f 1021/949 1022/950 1023/951 1024/952
f 1025/953 1026/954 1027/955 1028/956
f 1029/957 1030/958 1031/959 1032/960
f 1049/961 1050/962 1051/963 1052/964
f 1053/965 1054/966 1055/967 1056/968
f 1057/969 1058/970 1059/971 1060/972
f 1061/973 1062/974 1063/975 1064/976
f 1065/977 1066/978 1067/979 1068/980
f 1069/981 1070/982 1071/983 1072/984
f 1081/985 1082/986 1083/987 1084/988
f 1085/989 1086/990 1087/991 1088/992
f 1089/993 1090/994 1091/995 1092/996
f 1093/997 1094/998 1095/999 1096/1000
f 1097/1001 1098/1002 1099/1003 1100/1004
f 1101/1005 1102/1006 1103/1007 1104/1008
f 1113/1009 1114/1010 1115/1011 1116/1012
f 1117/1013 1118/1014 1119/1015 1120/1016
f 1121/1017 1122/1018 1123/1019 1124/1020
f 1125/1021 1126/1022 1127/1023 1128/1024
f 1129/1025 1130/1026 1131/1027 1132/1028
f 1133/1029 1134/1030 1135/1031 1136/1032
f 1137/1033 1138/1034 1139/1035 1140/1036
f 1141/1037 1142/1038 1143/1039 1144/1040
f 1145/1041 1146/1042 1147/1043 1148/1044
f 1149/1045 1150/1046 1151/1047 1152/1048
f 1153/1049 1154/1050 1155/1051 1156/1052
f 1157/1053 1158/1054 1159/1055 1160/1056
f 1161/1057 1162/1058 1163/1059 1164/1060
f 1165/1061 1166/1062 1167/1063 1168/1064
f 1169/1065 1170/1066 1171/1067 1172/1068
f 1173/1069 1174/1070 1175/1071 1176/1072
f 1177/1073 1178/1074 1179/1075 1180/1076
f 1181/1077 1182/1078 1183/1079 1184/1080
f 1185/1081 1186/1082 1187/1083 1188/1084
f 1189/1085 1190/1086 1191/1087 1192/1088
f 1193/1089 1194/1090 1195/1091 1196/1092
f 1197/1093 1198/1094 1199/1095 1200/1096
f 1201/1097 1202/1098 1203/1099 1204/1100
f 1205/1101 1206/1102 1207/1103 1208/1104
