# RoastEngine Backrooms level
mtllib backrooms.mtl
v 782.9500 0.0000 36.9500
v 782.9500 0.0000 39.5500
v 785.5500 0.0000 39.5500
v 785.5500 0.0000 36.9500
v 782.9500 3.0000 36.9500
v 785.5500 3.0000 36.9500
v 785.5500 3.0000 39.5500
v 782.9500 3.0000 39.5500
v 782.9500 0.0000 36.9500
v 785.5500 0.0000 36.9500
v 785.5500 3.0000 36.9500
v 782.9500 3.0000 36.9500
v 785.5500 0.0000 39.5500
v 782.9500 0.0000 39.5500
v 782.9500 3.0000 39.5500
v 785.5500 3.0000 39.5500
v 785.5500 0.0000 36.9500
v 785.5500 0.0000 39.5500
v 785.5500 3.0000 39.5500
v 785.5500 3.0000 36.9500
v 782.9500 0.0000 39.5500
v 782.9500 0.0000 36.9500
v 782.9500 3.0000 36.9500
v 782.9500 3.0000 39.5500
v 787.4500 0.0000 36.9500
v 787.4500 0.0000 39.5500
v 790.0500 0.0000 39.5500
v 790.0500 0.0000 36.9500
v 787.4500 3.0000 36.9500
v 790.0500 3.0000 36.9500
v 790.0500 3.0000 39.5500
v 787.4500 3.0000 39.5500
v 787.4500 0.0000 36.9500
v 790.0500 0.0000 36.9500
v 790.0500 3.0000 36.9500
v 787.4500 3.0000 36.9500
v 790.0500 0.0000 39.5500
v 787.4500 0.0000 39.5500
v 787.4500 3.0000 39.5500
v 790.0500 3.0000 39.5500
v 790.0500 0.0000 36.9500
v 790.0500 0.0000 39.5500
v 790.0500 3.0000 39.5500
v 790.0500 3.0000 36.9500
v 787.4500 0.0000 39.5500
v 787.4500 0.0000 36.9500
v 787.4500 3.0000 36.9500
v 787.4500 3.0000 39.5500
v 789.7000 0.0000 36.9500
v 789.7000 0.0000 39.5500
v 792.3000 0.0000 39.5500
v 792.3000 0.0000 36.9500
v 789.7000 3.0000 36.9500
v 792.3000 3.0000 36.9500
v 792.3000 3.0000 39.5500
v 789.7000 3.0000 39.5500
v 789.7000 0.0000 36.9500
v 792.3000 0.0000 36.9500
v 792.3000 3.0000 36.9500
v 789.7000 3.0000 36.9500
v 792.3000 0.0000 39.5500
v 789.7000 0.0000 39.5500
v 789.7000 3.0000 39.5500
v 792.3000 3.0000 39.5500
v 792.3000 0.0000 36.9500
v 792.3000 0.0000 39.5500
v 792.3000 3.0000 39.5500
v 792.3000 3.0000 36.9500
v 789.7000 0.0000 39.5500
v 789.7000 0.0000 36.9500
v 789.7000 3.0000 36.9500
v 789.7000 3.0000 39.5500
v 791.9500 0.0000 36.9500
v 791.9500 0.0000 39.5500
v 794.5500 0.0000 39.5500
v 794.5500 0.0000 36.9500
v 791.9500 3.0000 36.9500
v 794.5500 3.0000 36.9500
v 794.5500 3.0000 39.5500
v 791.9500 3.0000 39.5500
v 791.9500 0.0000 36.9500
v 794.5500 0.0000 36.9500
v 794.5500 3.0000 36.9500
v 791.9500 3.0000 36.9500
v 794.5500 0.0000 39.5500
v 791.9500 0.0000 39.5500
v 791.9500 3.0000 39.5500
v 794.5500 3.0000 39.5500
v 794.5500 0.0000 36.9500
v 794.5500 0.0000 39.5500
v 794.5500 3.0000 39.5500
v 794.5500 3.0000 36.9500
v 791.9500 0.0000 39.5500
v 791.9500 0.0000 36.9500
v 791.9500 3.0000 36.9500
v 791.9500 3.0000 39.5500
v 796.4500 0.0000 36.9500
v 796.4500 0.0000 39.5500
v 799.0500 0.0000 39.5500
v 799.0500 0.0000 36.9500
v 796.4500 3.0000 36.9500
v 799.0500 3.0000 36.9500
v 799.0500 3.0000 39.5500
v 796.4500 3.0000 39.5500
v 796.4500 0.0000 36.9500
v 799.0500 0.0000 36.9500
v 799.0500 3.0000 36.9500
v 796.4500 3.0000 36.9500
v 799.0500 0.0000 39.5500
v 796.4500 0.0000 39.5500
v 796.4500 3.0000 39.5500
v 799.0500 3.0000 39.5500
v 799.0500 0.0000 36.9500
v 799.0500 0.0000 39.5500
v 799.0500 3.0000 39.5500
v 799.0500 3.0000 36.9500
v 796.4500 0.0000 39.5500
v 796.4500 0.0000 36.9500
v 796.4500 3.0000 36.9500
v 796.4500 3.0000 39.5500
v 805.4500 0.0000 36.9500
v 805.4500 0.0000 39.5500
v 808.0500 0.0000 39.5500
v 808.0500 0.0000 36.9500
v 805.4500 3.0000 36.9500
v 808.0500 3.0000 36.9500
v 808.0500 3.0000 39.5500
v 805.4500 3.0000 39.5500
v 805.4500 0.0000 36.9500
v 808.0500 0.0000 36.9500
v 808.0500 3.0000 36.9500
v 805.4500 3.0000 36.9500
v 808.0500 0.0000 39.5500
v 805.4500 0.0000 39.5500
v 805.4500 3.0000 39.5500
v 808.0500 3.0000 39.5500
v 808.0500 0.0000 36.9500
v 808.0500 0.0000 39.5500
v 808.0500 3.0000 39.5500
v 808.0500 3.0000 36.9500
v 805.4500 0.0000 39.5500
v 805.4500 0.0000 36.9500
v 805.4500 3.0000 36.9500
v 805.4500 3.0000 39.5500
v 796.4500 0.0000 39.2000
v 796.4500 0.0000 41.8000
v 799.0500 0.0000 41.8000
v 799.0500 0.0000 39.2000
v 796.4500 3.0000 39.2000
v 799.0500 3.0000 39.2000
v 799.0500 3.0000 41.8000
v 796.4500 3.0000 41.8000
v 796.4500 0.0000 39.2000
v 799.0500 0.0000 39.2000
v 799.0500 3.0000 39.2000
v 796.4500 3.0000 39.2000
v 799.0500 0.0000 41.8000
v 796.4500 0.0000 41.8000
v 796.4500 3.0000 41.8000
v 799.0500 3.0000 41.8000
v 799.0500 0.0000 39.2000
v 799.0500 0.0000 41.8000
v 799.0500 3.0000 41.8000
v 799.0500 3.0000 39.2000
v 796.4500 0.0000 41.8000
v 796.4500 0.0000 39.2000
v 796.4500 3.0000 39.2000
v 796.4500 3.0000 41.8000
v 799.8500 2.7000 40.3500
v 800.1500 2.7000 40.3500
v 800.1500 2.7000 40.6500
v 799.8500 2.7000 40.6500
v 799.8500 2.8600 40.3500
v 800.1500 2.8600 40.3500
v 800.1500 2.8600 40.6500
v 799.8500 2.8600 40.6500
v 799.8100 2.8600 40.3100
v 800.1900 2.8600 40.3100
v 800.1900 2.8600 40.6900
v 799.8100 2.8600 40.6900
v 799.8100 2.9400 40.3100
v 800.1900 2.9400 40.3100
v 800.1900 2.9400 40.6900
v 799.8100 2.9400 40.6900
v 804.0000 0.0000 37.9750
v 805.0000 0.0000 37.9750
v 805.0000 0.0000 38.5250
v 804.0000 0.0000 38.5250
v 804.0000 1.7000 37.9750
v 805.0000 1.7000 37.9750
v 805.0000 1.7000 38.5250
v 804.0000 1.7000 38.5250
v 804.0500 1.4900 37.9350
v 804.9500 1.4900 37.9350
v 804.9500 1.4900 37.9650
v 804.0500 1.4900 37.9650
v 804.0500 1.6100 37.9350
v 804.9500 1.6100 37.9350
v 804.9500 1.6100 37.9650
v 804.0500 1.6100 37.9650
v 801.7500 0.0000 40.2250
v 802.7500 0.0000 40.2250
v 802.7500 0.0000 40.7750
v 801.7500 0.0000 40.7750
v 801.7500 1.7000 40.2250
v 802.7500 1.7000 40.2250
v 802.7500 1.7000 40.7750
v 801.7500 1.7000 40.7750
v 801.8000 1.4900 40.1850
v 802.7000 1.4900 40.1850
v 802.7000 1.4900 40.2150
v 801.8000 1.4900 40.2150
v 801.8000 1.6100 40.1850
v 802.7000 1.6100 40.1850
v 802.7000 1.6100 40.2150
v 801.8000 1.6100 40.2150
v 784.3700 2.6000 42.7500
v 784.3700 2.6000 42.7500
v 784.3349 2.6000 42.8349
v 784.3349 2.6000 42.8349
v 784.2500 2.6000 42.8700
v 784.2500 2.6000 42.8700
v 784.1651 2.6000 42.8349
v 784.1651 2.6000 42.8349
v 784.1300 2.6000 42.7500
v 784.1300 2.6000 42.7500
v 784.1651 2.6000 42.6651
v 784.1651 2.6000 42.6651
v 784.2500 2.6000 42.6300
v 784.2500 2.6000 42.6300
v 784.3349 2.6000 42.6651
v 784.3349 2.6000 42.6651
v 784.2500 2.6000 42.7500
v 784.2500 2.6000 42.7500
v 784.2500 2.4800 42.6300
v 809.0000 2.4800 42.6300
v 809.0000 2.4800 42.8700
v 784.2500 2.4800 42.8700
v 784.2500 2.7200 42.6300
v 809.0000 2.7200 42.6300
v 809.0000 2.7200 42.8700
v 784.2500 2.7200 42.8700
vt 326.2292 15.3958
vt 326.2292 16.4792
vt 327.3125 16.4792
vt 327.3125 15.3958
vt 326.2292 15.3958
vt 327.3125 15.3958
vt 327.3125 16.4792
vt 326.2292 16.4792
vt 326.2292 0.0000
vt 327.3125 0.0000
vt 327.3125 1.2500
vt 326.2292 1.2500
vt 327.3125 0.0000
vt 326.2292 0.0000
vt 326.2292 1.2500
vt 327.3125 1.2500
vt 15.3958 0.0000
vt 16.4792 0.0000
vt 16.4792 1.2500
vt 15.3958 1.2500
vt 16.4792 0.0000
vt 15.3958 0.0000
vt 15.3958 1.2500
vt 16.4792 1.2500
vt 328.1042 15.3958
vt 328.1042 16.4792
vt 329.1875 16.4792
vt 329.1875 15.3958
vt 328.1042 15.3958
vt 329.1875 15.3958
vt 329.1875 16.4792
vt 328.1042 16.4792
vt 328.1042 0.0000
vt 329.1875 0.0000
vt 329.1875 1.2500
vt 328.1042 1.2500
vt 329.1875 0.0000
vt 328.1042 0.0000
vt 328.1042 1.2500
vt 329.1875 1.2500
vt 15.3958 0.0000
vt 16.4792 0.0000
vt 16.4792 1.2500
vt 15.3958 1.2500
vt 16.4792 0.0000
vt 15.3958 0.0000
vt 15.3958 1.2500
vt 16.4792 1.2500
vt 329.0417 15.3958
vt 329.0417 16.4792
vt 330.1250 16.4792
vt 330.1250 15.3958
vt 329.0417 15.3958
vt 330.1250 15.3958
vt 330.1250 16.4792
vt 329.0417 16.4792
vt 329.0417 0.0000
vt 330.1250 0.0000
vt 330.1250 1.2500
vt 329.0417 1.2500
vt 330.1250 0.0000
vt 329.0417 0.0000
vt 329.0417 1.2500
vt 330.1250 1.2500
vt 15.3958 0.0000
vt 16.4792 0.0000
vt 16.4792 1.2500
vt 15.3958 1.2500
vt 16.4792 0.0000
vt 15.3958 0.0000
vt 15.3958 1.2500
vt 16.4792 1.2500
vt 329.9792 15.3958
vt 329.9792 16.4792
vt 331.0625 16.4792
vt 331.0625 15.3958
vt 329.9792 15.3958
vt 331.0625 15.3958
vt 331.0625 16.4792
vt 329.9792 16.4792
vt 329.9792 0.0000
vt 331.0625 0.0000
vt 331.0625 1.2500
vt 329.9792 1.2500
vt 331.0625 0.0000
vt 329.9792 0.0000
vt 329.9792 1.2500
vt 331.0625 1.2500
vt 15.3958 0.0000
vt 16.4792 0.0000
vt 16.4792 1.2500
vt 15.3958 1.2500
vt 16.4792 0.0000
vt 15.3958 0.0000
vt 15.3958 1.2500
vt 16.4792 1.2500
vt 331.8542 15.3958
vt 331.8542 16.4792
vt 332.9375 16.4792
vt 332.9375 15.3958
vt 331.8542 15.3958
vt 332.9375 15.3958
vt 332.9375 16.4792
vt 331.8542 16.4792
vt 331.8542 0.0000
vt 332.9375 0.0000
vt 332.9375 1.2500
vt 331.8542 1.2500
vt 332.9375 0.0000
vt 331.8542 0.0000
vt 331.8542 1.2500
vt 332.9375 1.2500
vt 15.3958 0.0000
vt 16.4792 0.0000
vt 16.4792 1.2500
vt 15.3958 1.2500
vt 16.4792 0.0000
vt 15.3958 0.0000
vt 15.3958 1.2500
vt 16.4792 1.2500
vt 335.6042 15.3958
vt 335.6042 16.4792
vt 336.6875 16.4792
vt 336.6875 15.3958
vt 335.6042 15.3958
vt 336.6875 15.3958
vt 336.6875 16.4792
vt 335.6042 16.4792
vt 335.6042 0.0000
vt 336.6875 0.0000
vt 336.6875 1.2500
vt 335.6042 1.2500
vt 336.6875 0.0000
vt 335.6042 0.0000
vt 335.6042 1.2500
vt 336.6875 1.2500
vt 15.3958 0.0000
vt 16.4792 0.0000
vt 16.4792 1.2500
vt 15.3958 1.2500
vt 16.4792 0.0000
vt 15.3958 0.0000
vt 15.3958 1.2500
vt 16.4792 1.2500
vt 331.8542 16.3333
vt 331.8542 17.4167
vt 332.9375 17.4167
vt 332.9375 16.3333
vt 331.8542 16.3333
vt 332.9375 16.3333
vt 332.9375 17.4167
vt 331.8542 17.4167
vt 331.8542 0.0000
vt 332.9375 0.0000
vt 332.9375 1.2500
vt 331.8542 1.2500
vt 332.9375 0.0000
vt 331.8542 0.0000
vt 331.8542 1.2500
vt 332.9375 1.2500
vt 16.3333 0.0000
vt 17.4167 0.0000
vt 17.4167 1.2500
vt 16.3333 1.2500
vt 17.4167 0.0000
vt 16.3333 0.0000
vt 16.3333 1.2500
vt 17.4167 1.2500
usemtl lamp_caged
f 169 172 171 170
f 173 174 175 176
f 169 170 174 173
f 171 172 176 175
f 170 171 175 174
f 172 169 173 176
usemtl steel
f 177 180 179 178
f 181 182 183 184
f 177 178 182 181
f 179 180 184 183
f 178 179 183 182
f 180 177 181 184
usemtl switchgear
f 185 188 187 186
f 189 190 191 192
f 185 186 190 189
f 187 188 192 191
f 186 187 191 190
f 188 185 189 192
usemtl warning
f 193 196 195 194
f 197 198 199 200
f 193 194 198 197
f 195 196 200 199
f 194 195 199 198
f 196 193 197 200
usemtl switchgear
f 201 204 203 202
f 205 206 207 208
f 201 202 206 205
f 203 204 208 207
f 202 203 207 206
f 204 201 205 208
usemtl warning
f 209 212 211 210
f 213 214 215 216
f 209 210 214 213
f 211 212 216 215
f 210 211 215 214
f 212 209 213 216
usemtl rust
f 217 219 220 218
f 219 221 222 220
f 221 223 224 222
f 223 225 226 224
f 225 227 228 226
f 227 229 230 228
f 229 231 232 230
f 231 217 218 232
f 233 218 220
f 234 219 217
f 233 220 222
f 234 221 219
f 233 222 224
f 234 223 221
f 233 224 226
f 234 225 223
f 233 226 228
f 234 227 225
f 233 228 230
f 234 229 227
f 233 230 232
f 234 231 229
f 233 232 218
f 234 217 231
f 235 238 237 236
f 239 240 241 242
f 235 236 240 239
f 237 238 242 241
f 236 237 241 240
f 238 235 239 242
usemtl brick
f 1/1 2/2 3/3 4/4
f 5/5 6/6 7/7 8/8
f 9/9 10/10 11/11 12/12
f 13/13 14/14 15/15 16/16
f 17/17 18/18 19/19 20/20
f 21/21 22/22 23/23 24/24
f 25/25 26/26 27/27 28/28
f 29/29 30/30 31/31 32/32
f 33/33 34/34 35/35 36/36
f 37/37 38/38 39/39 40/40
f 41/41 42/42 43/43 44/44
f 45/45 46/46 47/47 48/48
f 49/49 50/50 51/51 52/52
f 53/53 54/54 55/55 56/56
f 57/57 58/58 59/59 60/60
f 61/61 62/62 63/63 64/64
f 65/65 66/66 67/67 68/68
f 69/69 70/70 71/71 72/72
f 73/73 74/74 75/75 76/76
f 77/77 78/78 79/79 80/80
f 81/81 82/82 83/83 84/84
f 85/85 86/86 87/87 88/88
f 89/89 90/90 91/91 92/92
f 93/93 94/94 95/95 96/96
f 97/97 98/98 99/99 100/100
f 101/101 102/102 103/103 104/104
f 105/105 106/106 107/107 108/108
f 109/109 110/110 111/111 112/112
f 113/113 114/114 115/115 116/116
f 117/117 118/118 119/119 120/120
f 121/121 122/122 123/123 124/124
f 125/125 126/126 127/127 128/128
f 129/129 130/130 131/131 132/132
f 133/133 134/134 135/135 136/136
f 137/137 138/138 139/139 140/140
f 141/141 142/142 143/143 144/144
f 145/145 146/146 147/147 148/148
f 149/149 150/150 151/151 152/152
f 153/153 154/154 155/155 156/156
f 157/157 158/158 159/159 160/160
f 161/161 162/162 163/163 164/164
f 165/165 166/166 167/167 168/168
