# RoastEngine Backrooms level
mtllib backrooms.mtl
v 22.5750 0.0000 -54.4250
v 22.5750 0.0000 -50.5750
v 26.4250 0.0000 -50.5750
v 26.4250 0.0000 -54.4250
v 22.5750 4.0000 -54.4250
v 26.4250 4.0000 -54.4250
v 26.4250 4.0000 -50.5750
v 22.5750 4.0000 -50.5750
v 22.5750 0.0000 -54.4250
v 26.4250 0.0000 -54.4250
v 26.4250 4.0000 -54.4250
v 22.5750 4.0000 -54.4250
v 26.4250 0.0000 -50.5750
v 22.5750 0.0000 -50.5750
v 22.5750 4.0000 -50.5750
v 26.4250 4.0000 -50.5750
v 26.4250 0.0000 -54.4250
v 26.4250 0.0000 -50.5750
v 26.4250 4.0000 -50.5750
v 26.4250 4.0000 -54.4250
v 22.5750 0.0000 -50.5750
v 22.5750 0.0000 -54.4250
v 22.5750 4.0000 -54.4250
v 22.5750 4.0000 -50.5750
v 29.5750 0.0000 -54.4250
v 29.5750 0.0000 -50.5750
v 33.4250 0.0000 -50.5750
v 33.4250 0.0000 -54.4250
v 29.5750 4.0000 -54.4250
v 33.4250 4.0000 -54.4250
v 33.4250 4.0000 -50.5750
v 29.5750 4.0000 -50.5750
v 29.5750 0.0000 -54.4250
v 33.4250 0.0000 -54.4250
v 33.4250 4.0000 -54.4250
v 29.5750 4.0000 -54.4250
v 33.4250 0.0000 -50.5750
v 29.5750 0.0000 -50.5750
v 29.5750 4.0000 -50.5750
v 33.4250 4.0000 -50.5750
v 33.4250 0.0000 -54.4250
v 33.4250 0.0000 -50.5750
v 33.4250 4.0000 -50.5750
v 33.4250 4.0000 -54.4250
v 29.5750 0.0000 -50.5750
v 29.5750 0.0000 -54.4250
v 29.5750 4.0000 -54.4250
v 29.5750 4.0000 -50.5750
v 33.0750 0.0000 -54.4250
v 33.0750 0.0000 -50.5750
v 36.9250 0.0000 -50.5750
v 36.9250 0.0000 -54.4250
v 33.0750 4.0000 -54.4250
v 36.9250 4.0000 -54.4250
v 36.9250 4.0000 -50.5750
v 33.0750 4.0000 -50.5750
v 33.0750 0.0000 -54.4250
v 36.9250 0.0000 -54.4250
v 36.9250 4.0000 -54.4250
v 33.0750 4.0000 -54.4250
v 36.9250 0.0000 -50.5750
v 33.0750 0.0000 -50.5750
v 33.0750 4.0000 -50.5750
v 36.9250 4.0000 -50.5750
v 36.9250 0.0000 -54.4250
v 36.9250 0.0000 -50.5750
v 36.9250 4.0000 -50.5750
v 36.9250 4.0000 -54.4250
v 33.0750 0.0000 -50.5750
v 33.0750 0.0000 -54.4250
v 33.0750 4.0000 -54.4250
v 33.0750 4.0000 -50.5750
v 36.5750 0.0000 -54.4250
v 36.5750 0.0000 -50.5750
v 40.4250 0.0000 -50.5750
v 40.4250 0.0000 -54.4250
v 36.5750 4.0000 -54.4250
v 40.4250 4.0000 -54.4250
v 40.4250 4.0000 -50.5750
v 36.5750 4.0000 -50.5750
v 36.5750 0.0000 -54.4250
v 40.4250 0.0000 -54.4250
v 40.4250 4.0000 -54.4250
v 36.5750 4.0000 -54.4250
v 40.4250 0.0000 -50.5750
v 36.5750 0.0000 -50.5750
v 36.5750 4.0000 -50.5750
v 40.4250 4.0000 -50.5750
v 40.4250 0.0000 -54.4250
v 40.4250 0.0000 -50.5750
v 40.4250 4.0000 -50.5750
v 40.4250 4.0000 -54.4250
v 36.5750 0.0000 -50.5750
v 36.5750 0.0000 -54.4250
v 36.5750 4.0000 -54.4250
v 36.5750 4.0000 -50.5750
v 43.5750 0.0000 -54.4250
v 43.5750 0.0000 -50.5750
v 47.4250 0.0000 -50.5750
v 47.4250 0.0000 -54.4250
v 43.5750 4.0000 -54.4250
v 47.4250 4.0000 -54.4250
v 47.4250 4.0000 -50.5750
v 43.5750 4.0000 -50.5750
v 43.5750 0.0000 -54.4250
v 47.4250 0.0000 -54.4250
v 47.4250 4.0000 -54.4250
v 43.5750 4.0000 -54.4250
v 47.4250 0.0000 -50.5750
v 43.5750 0.0000 -50.5750
v 43.5750 4.0000 -50.5750
v 47.4250 4.0000 -50.5750
v 47.4250 0.0000 -54.4250
v 47.4250 0.0000 -50.5750
v 47.4250 4.0000 -50.5750
v 47.4250 4.0000 -54.4250
v 43.5750 0.0000 -50.5750
v 43.5750 0.0000 -54.4250
v 43.5750 4.0000 -54.4250
v 43.5750 4.0000 -50.5750
v 50.5750 0.0000 -54.4250
v 50.5750 0.0000 -50.5750
v 54.4250 0.0000 -50.5750
v 54.4250 0.0000 -54.4250
v 50.5750 4.0000 -54.4250
v 54.4250 4.0000 -54.4250
v 54.4250 4.0000 -50.5750
v 50.5750 4.0000 -50.5750
v 50.5750 0.0000 -54.4250
v 54.4250 0.0000 -54.4250
v 54.4250 4.0000 -54.4250
v 50.5750 4.0000 -54.4250
v 54.4250 0.0000 -50.5750
v 50.5750 0.0000 -50.5750
v 50.5750 4.0000 -50.5750
v 54.4250 4.0000 -50.5750
v 54.4250 0.0000 -54.4250
v 54.4250 0.0000 -50.5750
v 54.4250 4.0000 -50.5750
v 54.4250 4.0000 -54.4250
v 50.5750 0.0000 -50.5750
v 50.5750 0.0000 -54.4250
v 50.5750 4.0000 -54.4250
v 50.5750 4.0000 -50.5750
v 22.5750 0.0000 -50.9250
v 22.5750 0.0000 -47.0750
v 26.4250 0.0000 -47.0750
v 26.4250 0.0000 -50.9250
v 22.5750 4.0000 -50.9250
v 26.4250 4.0000 -50.9250
v 26.4250 4.0000 -47.0750
v 22.5750 4.0000 -47.0750
v 22.5750 0.0000 -50.9250
v 26.4250 0.0000 -50.9250
v 26.4250 4.0000 -50.9250
v 22.5750 4.0000 -50.9250
v 26.4250 0.0000 -47.0750
v 22.5750 0.0000 -47.0750
v 22.5750 4.0000 -47.0750
v 26.4250 4.0000 -47.0750
v 26.4250 0.0000 -50.9250
v 26.4250 0.0000 -47.0750
v 26.4250 4.0000 -47.0750
v 26.4250 4.0000 -50.9250
v 22.5750 0.0000 -47.0750
v 22.5750 0.0000 -50.9250
v 22.5750 4.0000 -50.9250
v 22.5750 4.0000 -47.0750
v 22.5750 0.0000 -47.4250
v 22.5750 0.0000 -43.5750
v 26.4250 0.0000 -43.5750
v 26.4250 0.0000 -47.4250
v 22.5750 4.0000 -47.4250
v 26.4250 4.0000 -47.4250
v 26.4250 4.0000 -43.5750
v 22.5750 4.0000 -43.5750
v 22.5750 0.0000 -47.4250
v 26.4250 0.0000 -47.4250
v 26.4250 4.0000 -47.4250
v 22.5750 4.0000 -47.4250
v 26.4250 0.0000 -43.5750
v 22.5750 0.0000 -43.5750
v 22.5750 4.0000 -43.5750
v 26.4250 4.0000 -43.5750
v 26.4250 0.0000 -47.4250
v 26.4250 0.0000 -43.5750
v 26.4250 4.0000 -43.5750
v 26.4250 4.0000 -47.4250
v 22.5750 0.0000 -43.5750
v 22.5750 0.0000 -47.4250
v 22.5750 4.0000 -47.4250
v 22.5750 4.0000 -43.5750
v 29.5750 0.0000 -47.4250
v 29.5750 0.0000 -43.5750
v 33.4250 0.0000 -43.5750
v 33.4250 0.0000 -47.4250
v 29.5750 4.0000 -47.4250
v 33.4250 4.0000 -47.4250
v 33.4250 4.0000 -43.5750
v 29.5750 4.0000 -43.5750
v 29.5750 0.0000 -47.4250
v 33.4250 0.0000 -47.4250
v 33.4250 4.0000 -47.4250
v 29.5750 4.0000 -47.4250
v 33.4250 0.0000 -43.5750
v 29.5750 0.0000 -43.5750
v 29.5750 4.0000 -43.5750
v 33.4250 4.0000 -43.5750
v 33.4250 0.0000 -47.4250
v 33.4250 0.0000 -43.5750
v 33.4250 4.0000 -43.5750
v 33.4250 4.0000 -47.4250
v 29.5750 0.0000 -43.5750
v 29.5750 0.0000 -47.4250
v 29.5750 4.0000 -47.4250
v 29.5750 4.0000 -43.5750
v 36.5750 0.0000 -47.4250
v 36.5750 0.0000 -43.5750
v 40.4250 0.0000 -43.5750
v 40.4250 0.0000 -47.4250
v 36.5750 4.0000 -47.4250
v 40.4250 4.0000 -47.4250
v 40.4250 4.0000 -43.5750
v 36.5750 4.0000 -43.5750
v 36.5750 0.0000 -47.4250
v 40.4250 0.0000 -47.4250
v 40.4250 4.0000 -47.4250
v 36.5750 4.0000 -47.4250
v 40.4250 0.0000 -43.5750
v 36.5750 0.0000 -43.5750
v 36.5750 4.0000 -43.5750
v 40.4250 4.0000 -43.5750
v 40.4250 0.0000 -47.4250
v 40.4250 0.0000 -43.5750
v 40.4250 4.0000 -43.5750
v 40.4250 4.0000 -47.4250
v 36.5750 0.0000 -43.5750
v 36.5750 0.0000 -47.4250
v 36.5750 4.0000 -47.4250
v 36.5750 4.0000 -43.5750
v 43.5750 0.0000 -47.4250
v 43.5750 0.0000 -43.5750
v 47.4250 0.0000 -43.5750
v 47.4250 0.0000 -47.4250
v 43.5750 4.0000 -47.4250
v 47.4250 4.0000 -47.4250
v 47.4250 4.0000 -43.5750
v 43.5750 4.0000 -43.5750
v 43.5750 0.0000 -47.4250
v 47.4250 0.0000 -47.4250
v 47.4250 4.0000 -47.4250
v 43.5750 4.0000 -47.4250
v 47.4250 0.0000 -43.5750
v 43.5750 0.0000 -43.5750
v 43.5750 4.0000 -43.5750
v 47.4250 4.0000 -43.5750
v 47.4250 0.0000 -47.4250
v 47.4250 0.0000 -43.5750
v 47.4250 4.0000 -43.5750
v 47.4250 4.0000 -47.4250
v 43.5750 0.0000 -43.5750
v 43.5750 0.0000 -47.4250
v 43.5750 4.0000 -47.4250
v 43.5750 4.0000 -43.5750
v 47.0750 0.0000 -47.4250
v 47.0750 0.0000 -43.5750
v 50.9250 0.0000 -43.5750
v 50.9250 0.0000 -47.4250
v 47.0750 4.0000 -47.4250
v 50.9250 4.0000 -47.4250
v 50.9250 4.0000 -43.5750
v 47.0750 4.0000 -43.5750
v 47.0750 0.0000 -47.4250
v 50.9250 0.0000 -47.4250
v 50.9250 4.0000 -47.4250
v 47.0750 4.0000 -47.4250
v 50.9250 0.0000 -43.5750
v 47.0750 0.0000 -43.5750
v 47.0750 4.0000 -43.5750
v 50.9250 4.0000 -43.5750
v 50.9250 0.0000 -47.4250
v 50.9250 0.0000 -43.5750
v 50.9250 4.0000 -43.5750
v 50.9250 4.0000 -47.4250
v 47.0750 0.0000 -43.5750
v 47.0750 0.0000 -47.4250
v 47.0750 4.0000 -47.4250
v 47.0750 4.0000 -43.5750
v 50.5750 0.0000 -47.4250
v 50.5750 0.0000 -43.5750
v 54.4250 0.0000 -43.5750
v 54.4250 0.0000 -47.4250
v 50.5750 4.0000 -47.4250
v 54.4250 4.0000 -47.4250
v 54.4250 4.0000 -43.5750
v 50.5750 4.0000 -43.5750
v 50.5750 0.0000 -47.4250
v 54.4250 0.0000 -47.4250
v 54.4250 4.0000 -47.4250
v 50.5750 4.0000 -47.4250
v 54.4250 0.0000 -43.5750
v 50.5750 0.0000 -43.5750
v 50.5750 4.0000 -43.5750
v 54.4250 4.0000 -43.5750
v 54.4250 0.0000 -47.4250
v 54.4250 0.0000 -43.5750
v 54.4250 4.0000 -43.5750
v 54.4250 4.0000 -47.4250
v 50.5750 0.0000 -43.5750
v 50.5750 0.0000 -47.4250
v 50.5750 4.0000 -47.4250
v 50.5750 4.0000 -43.5750
v 50.5750 0.0000 -43.9250
v 50.5750 0.0000 -40.0750
v 54.4250 0.0000 -40.0750
v 54.4250 0.0000 -43.9250
v 50.5750 4.0000 -43.9250
v 54.4250 4.0000 -43.9250
v 54.4250 4.0000 -40.0750
v 50.5750 4.0000 -40.0750
v 50.5750 0.0000 -43.9250
v 54.4250 0.0000 -43.9250
v 54.4250 4.0000 -43.9250
v 50.5750 4.0000 -43.9250
v 54.4250 0.0000 -40.0750
v 50.5750 0.0000 -40.0750
v 50.5750 4.0000 -40.0750
v 54.4250 4.0000 -40.0750
v 54.4250 0.0000 -43.9250
v 54.4250 0.0000 -40.0750
v 54.4250 4.0000 -40.0750
v 54.4250 4.0000 -43.9250
v 50.5750 0.0000 -40.0750
v 50.5750 0.0000 -43.9250
v 50.5750 4.0000 -43.9250
v 50.5750 4.0000 -40.0750
v 22.5750 0.0000 -40.4250
v 22.5750 0.0000 -36.5750
v 26.4250 0.0000 -36.5750
v 26.4250 0.0000 -40.4250
v 22.5750 4.0000 -40.4250
v 26.4250 4.0000 -40.4250
v 26.4250 4.0000 -36.5750
v 22.5750 4.0000 -36.5750
v 22.5750 0.0000 -40.4250
v 26.4250 0.0000 -40.4250
v 26.4250 4.0000 -40.4250
v 22.5750 4.0000 -40.4250
v 26.4250 0.0000 -36.5750
v 22.5750 0.0000 -36.5750
v 22.5750 4.0000 -36.5750
v 26.4250 4.0000 -36.5750
v 26.4250 0.0000 -40.4250
v 26.4250 0.0000 -36.5750
v 26.4250 4.0000 -36.5750
v 26.4250 4.0000 -40.4250
v 22.5750 0.0000 -36.5750
v 22.5750 0.0000 -40.4250
v 22.5750 4.0000 -40.4250
v 22.5750 4.0000 -36.5750
v 29.5750 0.0000 -40.4250
v 29.5750 0.0000 -36.5750
v 33.4250 0.0000 -36.5750
v 33.4250 0.0000 -40.4250
v 29.5750 4.0000 -40.4250
v 33.4250 4.0000 -40.4250
v 33.4250 4.0000 -36.5750
v 29.5750 4.0000 -36.5750
v 29.5750 0.0000 -40.4250
v 33.4250 0.0000 -40.4250
v 33.4250 4.0000 -40.4250
v 29.5750 4.0000 -40.4250
v 33.4250 0.0000 -36.5750
v 29.5750 0.0000 -36.5750
v 29.5750 4.0000 -36.5750
v 33.4250 4.0000 -36.5750
v 33.4250 0.0000 -40.4250
v 33.4250 0.0000 -36.5750
v 33.4250 4.0000 -36.5750
v 33.4250 4.0000 -40.4250
v 29.5750 0.0000 -36.5750
v 29.5750 0.0000 -40.4250
v 29.5750 4.0000 -40.4250
v 29.5750 4.0000 -36.5750
v 36.5750 0.0000 -40.4250
v 36.5750 0.0000 -36.5750
v 40.4250 0.0000 -36.5750
v 40.4250 0.0000 -40.4250
v 36.5750 4.0000 -40.4250
v 40.4250 4.0000 -40.4250
v 40.4250 4.0000 -36.5750
v 36.5750 4.0000 -36.5750
v 36.5750 0.0000 -40.4250
v 40.4250 0.0000 -40.4250
v 40.4250 4.0000 -40.4250
v 36.5750 4.0000 -40.4250
v 40.4250 0.0000 -36.5750
v 36.5750 0.0000 -36.5750
v 36.5750 4.0000 -36.5750
v 40.4250 4.0000 -36.5750
v 40.4250 0.0000 -40.4250
v 40.4250 0.0000 -36.5750
v 40.4250 4.0000 -36.5750
v 40.4250 4.0000 -40.4250
v 36.5750 0.0000 -36.5750
v 36.5750 0.0000 -40.4250
v 36.5750 4.0000 -40.4250
v 36.5750 4.0000 -36.5750
v 43.5750 0.0000 -40.4250
v 43.5750 0.0000 -36.5750
v 47.4250 0.0000 -36.5750
v 47.4250 0.0000 -40.4250
v 43.5750 4.0000 -40.4250
v 47.4250 4.0000 -40.4250
v 47.4250 4.0000 -36.5750
v 43.5750 4.0000 -36.5750
v 43.5750 0.0000 -40.4250
v 47.4250 0.0000 -40.4250
v 47.4250 4.0000 -40.4250
v 43.5750 4.0000 -40.4250
v 47.4250 0.0000 -36.5750
v 43.5750 0.0000 -36.5750
v 43.5750 4.0000 -36.5750
v 47.4250 4.0000 -36.5750
v 47.4250 0.0000 -40.4250
v 47.4250 0.0000 -36.5750
v 47.4250 4.0000 -36.5750
v 47.4250 4.0000 -40.4250
v 43.5750 0.0000 -36.5750
v 43.5750 0.0000 -40.4250
v 43.5750 4.0000 -40.4250
v 43.5750 4.0000 -36.5750
v 50.5750 0.0000 -40.4250
v 50.5750 0.0000 -36.5750
v 54.4250 0.0000 -36.5750
v 54.4250 0.0000 -40.4250
v 50.5750 4.0000 -40.4250
v 54.4250 4.0000 -40.4250
v 54.4250 4.0000 -36.5750
v 50.5750 4.0000 -36.5750
v 50.5750 0.0000 -40.4250
v 54.4250 0.0000 -40.4250
v 54.4250 4.0000 -40.4250
v 50.5750 4.0000 -40.4250
v 54.4250 0.0000 -36.5750
v 50.5750 0.0000 -36.5750
v 50.5750 4.0000 -36.5750
v 54.4250 4.0000 -36.5750
v 54.4250 0.0000 -40.4250
v 54.4250 0.0000 -36.5750
v 54.4250 4.0000 -36.5750
v 54.4250 4.0000 -40.4250
v 50.5750 0.0000 -36.5750
v 50.5750 0.0000 -40.4250
v 50.5750 4.0000 -40.4250
v 50.5750 4.0000 -36.5750
v 50.5750 0.0000 -36.9250
v 50.5750 0.0000 -33.0750
v 54.4250 0.0000 -33.0750
v 54.4250 0.0000 -36.9250
v 50.5750 4.0000 -36.9250
v 54.4250 4.0000 -36.9250
v 54.4250 4.0000 -33.0750
v 50.5750 4.0000 -33.0750
v 50.5750 0.0000 -36.9250
v 54.4250 0.0000 -36.9250
v 54.4250 4.0000 -36.9250
v 50.5750 4.0000 -36.9250
v 54.4250 0.0000 -33.0750
v 50.5750 0.0000 -33.0750
v 50.5750 4.0000 -33.0750
v 54.4250 4.0000 -33.0750
v 54.4250 0.0000 -36.9250
v 54.4250 0.0000 -33.0750
v 54.4250 4.0000 -33.0750
v 54.4250 4.0000 -36.9250
v 50.5750 0.0000 -33.0750
v 50.5750 0.0000 -36.9250
v 50.5750 4.0000 -36.9250
v 50.5750 4.0000 -33.0750
v 22.5750 0.0000 -33.4250
v 22.5750 0.0000 -29.5750
v 26.4250 0.0000 -29.5750
v 26.4250 0.0000 -33.4250
v 22.5750 4.0000 -33.4250
v 26.4250 4.0000 -33.4250
v 26.4250 4.0000 -29.5750
v 22.5750 4.0000 -29.5750
v 22.5750 0.0000 -33.4250
v 26.4250 0.0000 -33.4250
v 26.4250 4.0000 -33.4250
v 22.5750 4.0000 -33.4250
v 26.4250 0.0000 -29.5750
v 22.5750 0.0000 -29.5750
v 22.5750 4.0000 -29.5750
v 26.4250 4.0000 -29.5750
v 26.4250 0.0000 -33.4250
v 26.4250 0.0000 -29.5750
v 26.4250 4.0000 -29.5750
v 26.4250 4.0000 -33.4250
v 22.5750 0.0000 -29.5750
v 22.5750 0.0000 -33.4250
v 22.5750 4.0000 -33.4250
v 22.5750 4.0000 -29.5750
v 29.5750 0.0000 -33.4250
v 29.5750 0.0000 -29.5750
v 33.4250 0.0000 -29.5750
v 33.4250 0.0000 -33.4250
v 29.5750 4.0000 -33.4250
v 33.4250 4.0000 -33.4250
v 33.4250 4.0000 -29.5750
v 29.5750 4.0000 -29.5750
v 29.5750 0.0000 -33.4250
v 33.4250 0.0000 -33.4250
v 33.4250 4.0000 -33.4250
v 29.5750 4.0000 -33.4250
v 33.4250 0.0000 -29.5750
v 29.5750 0.0000 -29.5750
v 29.5750 4.0000 -29.5750
v 33.4250 4.0000 -29.5750
v 33.4250 0.0000 -33.4250
v 33.4250 0.0000 -29.5750
v 33.4250 4.0000 -29.5750
v 33.4250 4.0000 -33.4250
v 29.5750 0.0000 -29.5750
v 29.5750 0.0000 -33.4250
v 29.5750 4.0000 -33.4250
v 29.5750 4.0000 -29.5750
v 36.5750 0.0000 -33.4250
v 36.5750 0.0000 -29.5750
v 40.4250 0.0000 -29.5750
v 40.4250 0.0000 -33.4250
v 36.5750 4.0000 -33.4250
v 40.4250 4.0000 -33.4250
v 40.4250 4.0000 -29.5750
v 36.5750 4.0000 -29.5750
v 36.5750 0.0000 -33.4250
v 40.4250 0.0000 -33.4250
v 40.4250 4.0000 -33.4250
v 36.5750 4.0000 -33.4250
v 40.4250 0.0000 -29.5750
v 36.5750 0.0000 -29.5750
v 36.5750 4.0000 -29.5750
v 40.4250 4.0000 -29.5750
v 40.4250 0.0000 -33.4250
v 40.4250 0.0000 -29.5750
v 40.4250 4.0000 -29.5750
v 40.4250 4.0000 -33.4250
v 36.5750 0.0000 -29.5750
v 36.5750 0.0000 -33.4250
v 36.5750 4.0000 -33.4250
v 36.5750 4.0000 -29.5750
v 43.5750 0.0000 -33.4250
v 43.5750 0.0000 -29.5750
v 47.4250 0.0000 -29.5750
v 47.4250 0.0000 -33.4250
v 43.5750 4.0000 -33.4250
v 47.4250 4.0000 -33.4250
v 47.4250 4.0000 -29.5750
v 43.5750 4.0000 -29.5750
v 43.5750 0.0000 -33.4250
v 47.4250 0.0000 -33.4250
v 47.4250 4.0000 -33.4250
v 43.5750 4.0000 -33.4250
v 47.4250 0.0000 -29.5750
v 43.5750 0.0000 -29.5750
v 43.5750 4.0000 -29.5750
v 47.4250 4.0000 -29.5750
v 47.4250 0.0000 -33.4250
v 47.4250 0.0000 -29.5750
v 47.4250 4.0000 -29.5750
v 47.4250 4.0000 -33.4250
v 43.5750 0.0000 -29.5750
v 43.5750 0.0000 -33.4250
v 43.5750 4.0000 -33.4250
v 43.5750 4.0000 -29.5750
v 50.5750 0.0000 -33.4250
v 50.5750 0.0000 -29.5750
v 54.4250 0.0000 -29.5750
v 54.4250 0.0000 -33.4250
v 50.5750 4.0000 -33.4250
v 54.4250 4.0000 -33.4250
v 54.4250 4.0000 -29.5750
v 50.5750 4.0000 -29.5750
v 50.5750 0.0000 -33.4250
v 54.4250 0.0000 -33.4250
v 54.4250 4.0000 -33.4250
v 50.5750 4.0000 -33.4250
v 54.4250 0.0000 -29.5750
v 50.5750 0.0000 -29.5750
v 50.5750 4.0000 -29.5750
v 54.4250 4.0000 -29.5750
v 54.4250 0.0000 -33.4250
v 54.4250 0.0000 -29.5750
v 54.4250 4.0000 -29.5750
v 54.4250 4.0000 -33.4250
v 50.5750 0.0000 -29.5750
v 50.5750 0.0000 -33.4250
v 50.5750 4.0000 -33.4250
v 50.5750 4.0000 -29.5750
v 22.5750 0.0000 -26.4250
v 22.5750 0.0000 -22.5750
v 26.4250 0.0000 -22.5750
v 26.4250 0.0000 -26.4250
v 22.5750 4.0000 -26.4250
v 26.4250 4.0000 -26.4250
v 26.4250 4.0000 -22.5750
v 22.5750 4.0000 -22.5750
v 22.5750 0.0000 -26.4250
v 26.4250 0.0000 -26.4250
v 26.4250 4.0000 -26.4250
v 22.5750 4.0000 -26.4250
v 26.4250 0.0000 -22.5750
v 22.5750 0.0000 -22.5750
v 22.5750 4.0000 -22.5750
v 26.4250 4.0000 -22.5750
v 26.4250 0.0000 -26.4250
v 26.4250 0.0000 -22.5750
v 26.4250 4.0000 -22.5750
v 26.4250 4.0000 -26.4250
v 22.5750 0.0000 -22.5750
v 22.5750 0.0000 -26.4250
v 22.5750 4.0000 -26.4250
v 22.5750 4.0000 -22.5750
v 29.5750 0.0000 -26.4250
v 29.5750 0.0000 -22.5750
v 33.4250 0.0000 -22.5750
v 33.4250 0.0000 -26.4250
v 29.5750 4.0000 -26.4250
v 33.4250 4.0000 -26.4250
v 33.4250 4.0000 -22.5750
v 29.5750 4.0000 -22.5750
v 29.5750 0.0000 -26.4250
v 33.4250 0.0000 -26.4250
v 33.4250 4.0000 -26.4250
v 29.5750 4.0000 -26.4250
v 33.4250 0.0000 -22.5750
v 29.5750 0.0000 -22.5750
v 29.5750 4.0000 -22.5750
v 33.4250 4.0000 -22.5750
v 33.4250 0.0000 -26.4250
v 33.4250 0.0000 -22.5750
v 33.4250 4.0000 -22.5750
v 33.4250 4.0000 -26.4250
v 29.5750 0.0000 -22.5750
v 29.5750 0.0000 -26.4250
v 29.5750 4.0000 -26.4250
v 29.5750 4.0000 -22.5750
v 36.5750 0.0000 -26.4250
v 36.5750 0.0000 -22.5750
v 40.4250 0.0000 -22.5750
v 40.4250 0.0000 -26.4250
v 36.5750 4.0000 -26.4250
v 40.4250 4.0000 -26.4250
v 40.4250 4.0000 -22.5750
v 36.5750 4.0000 -22.5750
v 36.5750 0.0000 -26.4250
v 40.4250 0.0000 -26.4250
v 40.4250 4.0000 -26.4250
v 36.5750 4.0000 -26.4250
v 40.4250 0.0000 -22.5750
v 36.5750 0.0000 -22.5750
v 36.5750 4.0000 -22.5750
v 40.4250 4.0000 -22.5750
v 40.4250 0.0000 -26.4250
v 40.4250 0.0000 -22.5750
v 40.4250 4.0000 -22.5750
v 40.4250 4.0000 -26.4250
v 36.5750 0.0000 -22.5750
v 36.5750 0.0000 -26.4250
v 36.5750 4.0000 -26.4250
v 36.5750 4.0000 -22.5750
v 43.5750 0.0000 -26.4250
v 43.5750 0.0000 -22.5750
v 47.4250 0.0000 -22.5750
v 47.4250 0.0000 -26.4250
v 43.5750 4.0000 -26.4250
v 47.4250 4.0000 -26.4250
v 47.4250 4.0000 -22.5750
v 43.5750 4.0000 -22.5750
v 43.5750 0.0000 -26.4250
v 47.4250 0.0000 -26.4250
v 47.4250 4.0000 -26.4250
v 43.5750 4.0000 -26.4250
v 47.4250 0.0000 -22.5750
v 43.5750 0.0000 -22.5750
v 43.5750 4.0000 -22.5750
v 47.4250 4.0000 -22.5750
v 47.4250 0.0000 -26.4250
v 47.4250 0.0000 -22.5750
v 47.4250 4.0000 -22.5750
v 47.4250 4.0000 -26.4250
v 43.5750 0.0000 -22.5750
v 43.5750 0.0000 -26.4250
v 43.5750 4.0000 -26.4250
v 43.5750 4.0000 -22.5750
v 50.5750 0.0000 -26.4250
v 50.5750 0.0000 -22.5750
v 54.4250 0.0000 -22.5750
v 54.4250 0.0000 -26.4250
v 50.5750 4.0000 -26.4250
v 54.4250 4.0000 -26.4250
v 54.4250 4.0000 -22.5750
v 50.5750 4.0000 -22.5750
v 50.5750 0.0000 -26.4250
v 54.4250 0.0000 -26.4250
v 54.4250 4.0000 -26.4250
v 50.5750 4.0000 -26.4250
v 54.4250 0.0000 -22.5750
v 50.5750 0.0000 -22.5750
v 50.5750 4.0000 -22.5750
v 54.4250 4.0000 -22.5750
v 54.4250 0.0000 -26.4250
v 54.4250 0.0000 -22.5750
v 54.4250 4.0000 -22.5750
v 54.4250 4.0000 -26.4250
v 50.5750 0.0000 -22.5750
v 50.5750 0.0000 -26.4250
v 50.5750 4.0000 -26.4250
v 50.5750 4.0000 -22.5750
v 36.5750 0.0000 -22.9250
v 36.5750 0.0000 -19.0750
v 40.4250 0.0000 -19.0750
v 40.4250 0.0000 -22.9250
v 36.5750 4.0000 -22.9250
v 40.4250 4.0000 -22.9250
v 40.4250 4.0000 -19.0750
v 36.5750 4.0000 -19.0750
v 36.5750 0.0000 -22.9250
v 40.4250 0.0000 -22.9250
v 40.4250 4.0000 -22.9250
v 36.5750 4.0000 -22.9250
v 40.4250 0.0000 -19.0750
v 36.5750 0.0000 -19.0750
v 36.5750 4.0000 -19.0750
v 40.4250 4.0000 -19.0750
v 40.4250 0.0000 -22.9250
v 40.4250 0.0000 -19.0750
v 40.4250 4.0000 -19.0750
v 40.4250 4.0000 -22.9250
v 36.5750 0.0000 -19.0750
v 36.5750 0.0000 -22.9250
v 36.5750 4.0000 -22.9250
v 36.5750 4.0000 -19.0750
v 34.2000 3.8300 -56.1750
v 35.8000 3.8300 -56.1750
v 35.8000 3.8300 -55.8250
v 34.2000 3.8300 -55.8250
v 34.2000 3.9300 -56.1750
v 35.8000 3.9300 -56.1750
v 35.8000 3.9300 -55.8250
v 34.2000 3.9300 -55.8250
v 34.0500 3.9100 -56.3000
v 34.0500 3.9100 -55.7000
v 35.9500 3.9100 -55.7000
v 35.9500 3.9100 -56.3000
v 34.0500 3.9900 -56.3000
v 35.9500 3.9900 -56.3000
v 35.9500 3.9900 -55.7000
v 34.0500 3.9900 -55.7000
v 34.0500 3.9100 -56.3000
v 35.9500 3.9100 -56.3000
v 35.9500 3.9900 -56.3000
v 34.0500 3.9900 -56.3000
v 35.9500 3.9100 -55.7000
v 34.0500 3.9100 -55.7000
v 34.0500 3.9900 -55.7000
v 35.9500 3.9900 -55.7000
v 35.9500 3.9100 -56.3000
v 35.9500 3.9100 -55.7000
v 35.9500 3.9900 -55.7000
v 35.9500 3.9900 -56.3000
v 34.0500 3.9100 -55.7000
v 34.0500 3.9100 -56.3000
v 34.0500 3.9900 -56.3000
v 34.0500 3.9900 -55.7000
v 48.2000 3.8300 -49.1750
v 49.8000 3.8300 -49.1750
v 49.8000 3.8300 -48.8250
v 48.2000 3.8300 -48.8250
v 48.2000 3.9300 -49.1750
v 49.8000 3.9300 -49.1750
v 49.8000 3.9300 -48.8250
v 48.2000 3.9300 -48.8250
v 48.0500 3.9100 -49.3000
v 48.0500 3.9100 -48.7000
v 49.9500 3.9100 -48.7000
v 49.9500 3.9100 -49.3000
v 48.0500 3.9900 -49.3000
v 49.9500 3.9900 -49.3000
v 49.9500 3.9900 -48.7000
v 48.0500 3.9900 -48.7000
v 48.0500 3.9100 -49.3000
v 49.9500 3.9100 -49.3000
v 49.9500 3.9900 -49.3000
v 48.0500 3.9900 -49.3000
v 49.9500 3.9100 -48.7000
v 48.0500 3.9100 -48.7000
v 48.0500 3.9900 -48.7000
v 49.9500 3.9900 -48.7000
v 49.9500 3.9100 -49.3000
v 49.9500 3.9100 -48.7000
v 49.9500 3.9900 -48.7000
v 49.9500 3.9900 -49.3000
v 48.0500 3.9100 -48.7000
v 48.0500 3.9100 -49.3000
v 48.0500 3.9900 -49.3000
v 48.0500 3.9900 -48.7000
v 27.2000 3.8300 -42.1750
v 28.8000 3.8300 -42.1750
v 28.8000 3.8300 -41.8250
v 27.2000 3.8300 -41.8250
v 27.2000 3.9300 -42.1750
v 28.8000 3.9300 -42.1750
v 28.8000 3.9300 -41.8250
v 27.2000 3.9300 -41.8250
v 27.0500 3.9100 -42.3000
v 27.0500 3.9100 -41.7000
v 28.9500 3.9100 -41.7000
v 28.9500 3.9100 -42.3000
v 27.0500 3.9900 -42.3000
v 28.9500 3.9900 -42.3000
v 28.9500 3.9900 -41.7000
v 27.0500 3.9900 -41.7000
v 27.0500 3.9100 -42.3000
v 28.9500 3.9100 -42.3000
v 28.9500 3.9900 -42.3000
v 27.0500 3.9900 -42.3000
v 28.9500 3.9100 -41.7000
v 27.0500 3.9100 -41.7000
v 27.0500 3.9900 -41.7000
v 28.9500 3.9900 -41.7000
v 28.9500 3.9100 -42.3000
v 28.9500 3.9100 -41.7000
v 28.9500 3.9900 -41.7000
v 28.9500 3.9900 -42.3000
v 27.0500 3.9100 -41.7000
v 27.0500 3.9100 -42.3000
v 27.0500 3.9900 -42.3000
v 27.0500 3.9900 -41.7000
v 48.2000 3.8300 -42.1750
v 49.8000 3.8300 -42.1750
v 49.8000 3.8300 -41.8250
v 48.2000 3.8300 -41.8250
v 48.2000 3.9300 -42.1750
v 49.8000 3.9300 -42.1750
v 49.8000 3.9300 -41.8250
v 48.2000 3.9300 -41.8250
v 48.0500 3.9100 -42.3000
v 48.0500 3.9100 -41.7000
v 49.9500 3.9100 -41.7000
v 49.9500 3.9100 -42.3000
v 48.0500 3.9900 -42.3000
v 49.9500 3.9900 -42.3000
v 49.9500 3.9900 -41.7000
v 48.0500 3.9900 -41.7000
v 48.0500 3.9100 -42.3000
v 49.9500 3.9100 -42.3000
v 49.9500 3.9900 -42.3000
v 48.0500 3.9900 -42.3000
v 49.9500 3.9100 -41.7000
v 48.0500 3.9100 -41.7000
v 48.0500 3.9900 -41.7000
v 49.9500 3.9900 -41.7000
v 49.9500 3.9100 -42.3000
v 49.9500 3.9100 -41.7000
v 49.9500 3.9900 -41.7000
v 49.9500 3.9900 -42.3000
v 48.0500 3.9100 -41.7000
v 48.0500 3.9100 -42.3000
v 48.0500 3.9900 -42.3000
v 48.0500 3.9900 -41.7000
v 34.2000 3.8300 -35.1750
v 35.8000 3.8300 -35.1750
v 35.8000 3.8300 -34.8250
v 34.2000 3.8300 -34.8250
v 34.2000 3.9300 -35.1750
v 35.8000 3.9300 -35.1750
v 35.8000 3.9300 -34.8250
v 34.2000 3.9300 -34.8250
v 34.0500 3.9100 -35.3000
v 34.0500 3.9100 -34.7000
v 35.9500 3.9100 -34.7000
v 35.9500 3.9100 -35.3000
v 34.0500 3.9900 -35.3000
v 35.9500 3.9900 -35.3000
v 35.9500 3.9900 -34.7000
v 34.0500 3.9900 -34.7000
v 34.0500 3.9100 -35.3000
v 35.9500 3.9100 -35.3000
v 35.9500 3.9900 -35.3000
v 34.0500 3.9900 -35.3000
v 35.9500 3.9100 -34.7000
v 34.0500 3.9100 -34.7000
v 34.0500 3.9900 -34.7000
v 35.9500 3.9900 -34.7000
v 35.9500 3.9100 -35.3000
v 35.9500 3.9100 -34.7000
v 35.9500 3.9900 -34.7000
v 35.9500 3.9900 -35.3000
v 34.0500 3.9100 -34.7000
v 34.0500 3.9100 -35.3000
v 34.0500 3.9900 -35.3000
v 34.0500 3.9900 -34.7000
v 48.2000 3.8300 -35.1750
v 49.8000 3.8300 -35.1750
v 49.8000 3.8300 -34.8250
v 48.2000 3.8300 -34.8250
v 48.2000 3.9300 -35.1750
v 49.8000 3.9300 -35.1750
v 49.8000 3.9300 -34.8250
v 48.2000 3.9300 -34.8250
v 48.0500 3.9100 -35.3000
v 48.0500 3.9100 -34.7000
v 49.9500 3.9100 -34.7000
v 49.9500 3.9100 -35.3000
v 48.0500 3.9900 -35.3000
v 49.9500 3.9900 -35.3000
v 49.9500 3.9900 -34.7000
v 48.0500 3.9900 -34.7000
v 48.0500 3.9100 -35.3000
v 49.9500 3.9100 -35.3000
v 49.9500 3.9900 -35.3000
v 48.0500 3.9900 -35.3000
v 49.9500 3.9100 -34.7000
v 48.0500 3.9100 -34.7000
v 48.0500 3.9900 -34.7000
v 49.9500 3.9900 -34.7000
v 49.9500 3.9100 -35.3000
v 49.9500 3.9100 -34.7000
v 49.9500 3.9900 -34.7000
v 49.9500 3.9900 -35.3000
v 48.0500 3.9100 -34.7000
v 48.0500 3.9100 -35.3000
v 48.0500 3.9900 -35.3000
v 48.0500 3.9900 -34.7000
v 55.2000 3.8300 -35.1750
v 56.8000 3.8300 -35.1750
v 56.8000 3.8300 -34.8250
v 55.2000 3.8300 -34.8250
v 55.2000 3.9300 -35.1750
v 56.8000 3.9300 -35.1750
v 56.8000 3.9300 -34.8250
v 55.2000 3.9300 -34.8250
v 55.0500 3.9100 -35.3000
v 55.0500 3.9100 -34.7000
v 56.9500 3.9100 -34.7000
v 56.9500 3.9100 -35.3000
v 55.0500 3.9900 -35.3000
v 56.9500 3.9900 -35.3000
v 56.9500 3.9900 -34.7000
v 55.0500 3.9900 -34.7000
v 55.0500 3.9100 -35.3000
v 56.9500 3.9100 -35.3000
v 56.9500 3.9900 -35.3000
v 55.0500 3.9900 -35.3000
v 56.9500 3.9100 -34.7000
v 55.0500 3.9100 -34.7000
v 55.0500 3.9900 -34.7000
v 56.9500 3.9900 -34.7000
v 56.9500 3.9100 -35.3000
v 56.9500 3.9100 -34.7000
v 56.9500 3.9900 -34.7000
v 56.9500 3.9900 -35.3000
v 55.0500 3.9100 -34.7000
v 55.0500 3.9100 -35.3000
v 55.0500 3.9900 -35.3000
v 55.0500 3.9900 -34.7000
v 27.2000 3.8300 -28.1750
v 28.8000 3.8300 -28.1750
v 28.8000 3.8300 -27.8250
v 27.2000 3.8300 -27.8250
v 27.2000 3.9300 -28.1750
v 28.8000 3.9300 -28.1750
v 28.8000 3.9300 -27.8250
v 27.2000 3.9300 -27.8250
v 27.0500 3.9100 -28.3000
v 27.0500 3.9100 -27.7000
v 28.9500 3.9100 -27.7000
v 28.9500 3.9100 -28.3000
v 27.0500 3.9900 -28.3000
v 28.9500 3.9900 -28.3000
v 28.9500 3.9900 -27.7000
v 27.0500 3.9900 -27.7000
v 27.0500 3.9100 -28.3000
v 28.9500 3.9100 -28.3000
v 28.9500 3.9900 -28.3000
v 27.0500 3.9900 -28.3000
v 28.9500 3.9100 -27.7000
v 27.0500 3.9100 -27.7000
v 27.0500 3.9900 -27.7000
v 28.9500 3.9900 -27.7000
v 28.9500 3.9100 -28.3000
v 28.9500 3.9100 -27.7000
v 28.9500 3.9900 -27.7000
v 28.9500 3.9900 -28.3000
v 27.0500 3.9100 -27.7000
v 27.0500 3.9100 -28.3000
v 27.0500 3.9900 -28.3000
v 27.0500 3.9900 -27.7000
v 34.2000 3.8300 -28.1750
v 35.8000 3.8300 -28.1750
v 35.8000 3.8300 -27.8250
v 34.2000 3.8300 -27.8250
v 34.2000 3.9300 -28.1750
v 35.8000 3.9300 -28.1750
v 35.8000 3.9300 -27.8250
v 34.2000 3.9300 -27.8250
v 34.0500 3.9100 -28.3000
v 34.0500 3.9100 -27.7000
v 35.9500 3.9100 -27.7000
v 35.9500 3.9100 -28.3000
v 34.0500 3.9900 -28.3000
v 35.9500 3.9900 -28.3000
v 35.9500 3.9900 -27.7000
v 34.0500 3.9900 -27.7000
v 34.0500 3.9100 -28.3000
v 35.9500 3.9100 -28.3000
v 35.9500 3.9900 -28.3000
v 34.0500 3.9900 -28.3000
v 35.9500 3.9100 -27.7000
v 34.0500 3.9100 -27.7000
v 34.0500 3.9900 -27.7000
v 35.9500 3.9900 -27.7000
v 35.9500 3.9100 -28.3000
v 35.9500 3.9100 -27.7000
v 35.9500 3.9900 -27.7000
v 35.9500 3.9900 -28.3000
v 34.0500 3.9100 -27.7000
v 34.0500 3.9100 -28.3000
v 34.0500 3.9900 -28.3000
v 34.0500 3.9900 -27.7000
v 55.2000 3.8300 -28.1750
v 56.8000 3.8300 -28.1750
v 56.8000 3.8300 -27.8250
v 55.2000 3.8300 -27.8250
v 55.2000 3.9300 -28.1750
v 56.8000 3.9300 -28.1750
v 56.8000 3.9300 -27.8250
v 55.2000 3.9300 -27.8250
v 55.0500 3.9100 -28.3000
v 55.0500 3.9100 -27.7000
v 56.9500 3.9100 -27.7000
v 56.9500 3.9100 -28.3000
v 55.0500 3.9900 -28.3000
v 56.9500 3.9900 -28.3000
v 56.9500 3.9900 -27.7000
v 55.0500 3.9900 -27.7000
v 55.0500 3.9100 -28.3000
v 56.9500 3.9100 -28.3000
v 56.9500 3.9900 -28.3000
v 55.0500 3.9900 -28.3000
v 56.9500 3.9100 -27.7000
v 55.0500 3.9100 -27.7000
v 55.0500 3.9900 -27.7000
v 56.9500 3.9900 -27.7000
v 56.9500 3.9100 -28.3000
v 56.9500 3.9100 -27.7000
v 56.9500 3.9900 -27.7000
v 56.9500 3.9900 -28.3000
v 55.0500 3.9100 -27.7000
v 55.0500 3.9100 -28.3000
v 55.0500 3.9900 -28.3000
v 55.0500 3.9900 -27.7000
v 27.2000 3.8300 -21.1750
v 28.8000 3.8300 -21.1750
v 28.8000 3.8300 -20.8250
v 27.2000 3.8300 -20.8250
v 27.2000 3.9300 -21.1750
v 28.8000 3.9300 -21.1750
v 28.8000 3.9300 -20.8250
v 27.2000 3.9300 -20.8250
v 27.0500 3.9100 -21.3000
v 27.0500 3.9100 -20.7000
v 28.9500 3.9100 -20.7000
v 28.9500 3.9100 -21.3000
v 27.0500 3.9900 -21.3000
v 28.9500 3.9900 -21.3000
v 28.9500 3.9900 -20.7000
v 27.0500 3.9900 -20.7000
v 27.0500 3.9100 -21.3000
v 28.9500 3.9100 -21.3000
v 28.9500 3.9900 -21.3000
v 27.0500 3.9900 -21.3000
v 28.9500 3.9100 -20.7000
v 27.0500 3.9100 -20.7000
v 27.0500 3.9900 -20.7000
v 28.9500 3.9900 -20.7000
v 28.9500 3.9100 -21.3000
v 28.9500 3.9100 -20.7000
v 28.9500 3.9900 -20.7000
v 28.9500 3.9900 -21.3000
v 27.0500 3.9100 -20.7000
v 27.0500 3.9100 -21.3000
v 27.0500 3.9900 -21.3000
v 27.0500 3.9900 -20.7000
v 34.2000 3.8300 -21.1750
v 35.8000 3.8300 -21.1750
v 35.8000 3.8300 -20.8250
v 34.2000 3.8300 -20.8250
v 34.2000 3.9300 -21.1750
v 35.8000 3.9300 -21.1750
v 35.8000 3.9300 -20.8250
v 34.2000 3.9300 -20.8250
v 34.0500 3.9100 -21.3000
v 34.0500 3.9100 -20.7000
v 35.9500 3.9100 -20.7000
v 35.9500 3.9100 -21.3000
v 34.0500 3.9900 -21.3000
v 35.9500 3.9900 -21.3000
v 35.9500 3.9900 -20.7000
v 34.0500 3.9900 -20.7000
v 34.0500 3.9100 -21.3000
v 35.9500 3.9100 -21.3000
v 35.9500 3.9900 -21.3000
v 34.0500 3.9900 -21.3000
v 35.9500 3.9100 -20.7000
v 34.0500 3.9100 -20.7000
v 34.0500 3.9900 -20.7000
v 35.9500 3.9900 -20.7000
v 35.9500 3.9100 -21.3000
v 35.9500 3.9100 -20.7000
v 35.9500 3.9900 -20.7000
v 35.9500 3.9900 -21.3000
v 34.0500 3.9100 -20.7000
v 34.0500 3.9100 -21.3000
v 34.0500 3.9900 -21.3000
v 34.0500 3.9900 -20.7000
v 41.2000 3.8300 -21.1750
v 42.8000 3.8300 -21.1750
v 42.8000 3.8300 -20.8250
v 41.2000 3.8300 -20.8250
v 41.2000 3.9300 -21.1750
v 42.8000 3.9300 -21.1750
v 42.8000 3.9300 -20.8250
v 41.2000 3.9300 -20.8250
v 41.0500 3.9100 -21.3000
v 41.0500 3.9100 -20.7000
v 42.9500 3.9100 -20.7000
v 42.9500 3.9100 -21.3000
v 41.0500 3.9900 -21.3000
v 42.9500 3.9900 -21.3000
v 42.9500 3.9900 -20.7000
v 41.0500 3.9900 -20.7000
v 41.0500 3.9100 -21.3000
v 42.9500 3.9100 -21.3000
v 42.9500 3.9900 -21.3000
v 41.0500 3.9900 -21.3000
v 42.9500 3.9100 -20.7000
v 41.0500 3.9100 -20.7000
v 41.0500 3.9900 -20.7000
v 42.9500 3.9900 -20.7000
v 42.9500 3.9100 -21.3000
v 42.9500 3.9100 -20.7000
v 42.9500 3.9900 -20.7000
v 42.9500 3.9900 -21.3000
v 41.0500 3.9100 -20.7000
v 41.0500 3.9100 -21.3000
v 41.0500 3.9900 -21.3000
v 41.0500 3.9900 -20.7000
v 48.2000 3.8300 -21.1750
v 49.8000 3.8300 -21.1750
v 49.8000 3.8300 -20.8250
v 48.2000 3.8300 -20.8250
v 48.2000 3.9300 -21.1750
v 49.8000 3.9300 -21.1750
v 49.8000 3.9300 -20.8250
v 48.2000 3.9300 -20.8250
v 48.0500 3.9100 -21.3000
v 48.0500 3.9100 -20.7000
v 49.9500 3.9100 -20.7000
v 49.9500 3.9100 -21.3000
v 48.0500 3.9900 -21.3000
v 49.9500 3.9900 -21.3000
v 49.9500 3.9900 -20.7000
v 48.0500 3.9900 -20.7000
v 48.0500 3.9100 -21.3000
v 49.9500 3.9100 -21.3000
v 49.9500 3.9900 -21.3000
v 48.0500 3.9900 -21.3000
v 49.9500 3.9100 -20.7000
v 48.0500 3.9100 -20.7000
v 48.0500 3.9900 -20.7000
v 49.9500 3.9900 -20.7000
v 49.9500 3.9100 -21.3000
v 49.9500 3.9100 -20.7000
v 49.9500 3.9900 -20.7000
v 49.9500 3.9900 -21.3000
v 48.0500 3.9100 -20.7000
v 48.0500 3.9100 -21.3000
v 48.0500 3.9900 -21.3000
v 48.0500 3.9900 -20.7000
v 55.2000 3.8300 -21.1750
v 56.8000 3.8300 -21.1750
v 56.8000 3.8300 -20.8250
v 55.2000 3.8300 -20.8250
v 55.2000 3.9300 -21.1750
v 56.8000 3.9300 -21.1750
v 56.8000 3.9300 -20.8250
v 55.2000 3.9300 -20.8250
v 55.0500 3.9100 -21.3000
v 55.0500 3.9100 -20.7000
v 56.9500 3.9100 -20.7000
v 56.9500 3.9100 -21.3000
v 55.0500 3.9900 -21.3000
v 56.9500 3.9900 -21.3000
v 56.9500 3.9900 -20.7000
v 55.0500 3.9900 -20.7000
v 55.0500 3.9100 -21.3000
v 56.9500 3.9100 -21.3000
v 56.9500 3.9900 -21.3000
v 55.0500 3.9900 -21.3000
v 56.9500 3.9100 -20.7000
v 55.0500 3.9100 -20.7000
v 55.0500 3.9900 -20.7000
v 56.9500 3.9900 -20.7000
v 56.9500 3.9100 -21.3000
v 56.9500 3.9100 -20.7000
v 56.9500 3.9900 -20.7000
v 56.9500 3.9900 -21.3000
v 55.0500 3.9100 -20.7000
v 55.0500 3.9100 -21.3000
v 55.0500 3.9900 -21.3000
v 55.0500 3.9900 -20.7000
vt 9.0300 -21.7700
vt 9.0300 -20.2300
vt 10.5700 -20.2300
vt 10.5700 -21.7700
vt 9.0300 -21.7700
vt 10.5700 -21.7700
vt 10.5700 -20.2300
vt 9.0300 -20.2300
vt 9.0300 0.0000
vt 10.5700 0.0000
vt 10.5700 1.6000
vt 9.0300 1.6000
vt 10.5700 0.0000
vt 9.0300 0.0000
vt 9.0300 1.6000
vt 10.5700 1.6000
vt -21.7700 0.0000
vt -20.2300 0.0000
vt -20.2300 1.6000
vt -21.7700 1.6000
vt -20.2300 0.0000
vt -21.7700 0.0000
vt -21.7700 1.6000
vt -20.2300 1.6000
vt 11.8300 -21.7700
vt 11.8300 -20.2300
vt 13.3700 -20.2300
vt 13.3700 -21.7700
vt 11.8300 -21.7700
vt 13.3700 -21.7700
vt 13.3700 -20.2300
vt 11.8300 -20.2300
vt 11.8300 0.0000
vt 13.3700 0.0000
vt 13.3700 1.6000
vt 11.8300 1.6000
vt 13.3700 0.0000
vt 11.8300 0.0000
vt 11.8300 1.6000
vt 13.3700 1.6000
vt -21.7700 0.0000
vt -20.2300 0.0000
vt -20.2300 1.6000
vt -21.7700 1.6000
vt -20.2300 0.0000
vt -21.7700 0.0000
vt -21.7700 1.6000
vt -20.2300 1.6000
vt 13.2300 -21.7700
vt 13.2300 -20.2300
vt 14.7700 -20.2300
vt 14.7700 -21.7700
vt 13.2300 -21.7700
vt 14.7700 -21.7700
vt 14.7700 -20.2300
vt 13.2300 -20.2300
vt 13.2300 0.0000
vt 14.7700 0.0000
vt 14.7700 1.6000
vt 13.2300 1.6000
vt 14.7700 0.0000
vt 13.2300 0.0000
vt 13.2300 1.6000
vt 14.7700 1.6000
vt -21.7700 0.0000
vt -20.2300 0.0000
vt -20.2300 1.6000
vt -21.7700 1.6000
vt -20.2300 0.0000
vt -21.7700 0.0000
vt -21.7700 1.6000
vt -20.2300 1.6000
vt 14.6300 -21.7700
vt 14.6300 -20.2300
vt 16.1700 -20.2300
vt 16.1700 -21.7700
vt 14.6300 -21.7700
vt 16.1700 -21.7700
vt 16.1700 -20.2300
vt 14.6300 -20.2300
vt 14.6300 0.0000
vt 16.1700 0.0000
vt 16.1700 1.6000
vt 14.6300 1.6000
vt 16.1700 0.0000
vt 14.6300 0.0000
vt 14.6300 1.6000
vt 16.1700 1.6000
vt -21.7700 0.0000
vt -20.2300 0.0000
vt -20.2300 1.6000
vt -21.7700 1.6000
vt -20.2300 0.0000
vt -21.7700 0.0000
vt -21.7700 1.6000
vt -20.2300 1.6000
vt 17.4300 -21.7700
vt 17.4300 -20.2300
vt 18.9700 -20.2300
vt 18.9700 -21.7700
vt 17.4300 -21.7700
vt 18.9700 -21.7700
vt 18.9700 -20.2300
vt 17.4300 -20.2300
vt 17.4300 0.0000
vt 18.9700 0.0000
vt 18.9700 1.6000
vt 17.4300 1.6000
vt 18.9700 0.0000
vt 17.4300 0.0000
vt 17.4300 1.6000
vt 18.9700 1.6000
vt -21.7700 0.0000
vt -20.2300 0.0000
vt -20.2300 1.6000
vt -21.7700 1.6000
vt -20.2300 0.0000
vt -21.7700 0.0000
vt -21.7700 1.6000
vt -20.2300 1.6000
vt 20.2300 -21.7700
vt 20.2300 -20.2300
vt 21.7700 -20.2300
vt 21.7700 -21.7700
vt 20.2300 -21.7700
vt 21.7700 -21.7700
vt 21.7700 -20.2300
vt 20.2300 -20.2300
vt 20.2300 0.0000
vt 21.7700 0.0000
vt 21.7700 1.6000
vt 20.2300 1.6000
vt 21.7700 0.0000
vt 20.2300 0.0000
vt 20.2300 1.6000
vt 21.7700 1.6000
vt -21.7700 0.0000
vt -20.2300 0.0000
vt -20.2300 1.6000
vt -21.7700 1.6000
vt -20.2300 0.0000
vt -21.7700 0.0000
vt -21.7700 1.6000
vt -20.2300 1.6000
vt 9.0300 -20.3700
vt 9.0300 -18.8300
vt 10.5700 -18.8300
vt 10.5700 -20.3700
vt 9.0300 -20.3700
vt 10.5700 -20.3700
vt 10.5700 -18.8300
vt 9.0300 -18.8300
vt 9.0300 0.0000
vt 10.5700 0.0000
vt 10.5700 1.6000
vt 9.0300 1.6000
vt 10.5700 0.0000
vt 9.0300 0.0000
vt 9.0300 1.6000
vt 10.5700 1.6000
vt -20.3700 0.0000
vt -18.8300 0.0000
vt -18.8300 1.6000
vt -20.3700 1.6000
vt -18.8300 0.0000
vt -20.3700 0.0000
vt -20.3700 1.6000
vt -18.8300 1.6000
vt 9.0300 -18.9700
vt 9.0300 -17.4300
vt 10.5700 -17.4300
vt 10.5700 -18.9700
vt 9.0300 -18.9700
vt 10.5700 -18.9700
vt 10.5700 -17.4300
vt 9.0300 -17.4300
vt 9.0300 0.0000
vt 10.5700 0.0000
vt 10.5700 1.6000
vt 9.0300 1.6000
vt 10.5700 0.0000
vt 9.0300 0.0000
vt 9.0300 1.6000
vt 10.5700 1.6000
vt -18.9700 0.0000
vt -17.4300 0.0000
vt -17.4300 1.6000
vt -18.9700 1.6000
vt -17.4300 0.0000
vt -18.9700 0.0000
vt -18.9700 1.6000
vt -17.4300 1.6000
vt 11.8300 -18.9700
vt 11.8300 -17.4300
vt 13.3700 -17.4300
vt 13.3700 -18.9700
vt 11.8300 -18.9700
vt 13.3700 -18.9700
vt 13.3700 -17.4300
vt 11.8300 -17.4300
vt 11.8300 0.0000
vt 13.3700 0.0000
vt 13.3700 1.6000
vt 11.8300 1.6000
vt 13.3700 0.0000
vt 11.8300 0.0000
vt 11.8300 1.6000
vt 13.3700 1.6000
vt -18.9700 0.0000
vt -17.4300 0.0000
vt -17.4300 1.6000
vt -18.9700 1.6000
vt -17.4300 0.0000
vt -18.9700 0.0000
vt -18.9700 1.6000
vt -17.4300 1.6000
vt 14.6300 -18.9700
vt 14.6300 -17.4300
vt 16.1700 -17.4300
vt 16.1700 -18.9700
vt 14.6300 -18.9700
vt 16.1700 -18.9700
vt 16.1700 -17.4300
vt 14.6300 -17.4300
vt 14.6300 0.0000
vt 16.1700 0.0000
vt 16.1700 1.6000
vt 14.6300 1.6000
vt 16.1700 0.0000
vt 14.6300 0.0000
vt 14.6300 1.6000
vt 16.1700 1.6000
vt -18.9700 0.0000
vt -17.4300 0.0000
vt -17.4300 1.6000
vt -18.9700 1.6000
vt -17.4300 0.0000
vt -18.9700 0.0000
vt -18.9700 1.6000
vt -17.4300 1.6000
vt 17.4300 -18.9700
vt 17.4300 -17.4300
vt 18.9700 -17.4300
vt 18.9700 -18.9700
vt 17.4300 -18.9700
vt 18.9700 -18.9700
vt 18.9700 -17.4300
vt 17.4300 -17.4300
vt 17.4300 0.0000
vt 18.9700 0.0000
vt 18.9700 1.6000
vt 17.4300 1.6000
vt 18.9700 0.0000
vt 17.4300 0.0000
vt 17.4300 1.6000
vt 18.9700 1.6000
vt -18.9700 0.0000
vt -17.4300 0.0000
vt -17.4300 1.6000
vt -18.9700 1.6000
vt -17.4300 0.0000
vt -18.9700 0.0000
vt -18.9700 1.6000
vt -17.4300 1.6000
vt 18.8300 -18.9700
vt 18.8300 -17.4300
vt 20.3700 -17.4300
vt 20.3700 -18.9700
vt 18.8300 -18.9700
vt 20.3700 -18.9700
vt 20.3700 -17.4300
vt 18.8300 -17.4300
vt 18.8300 0.0000
vt 20.3700 0.0000
vt 20.3700 1.6000
vt 18.8300 1.6000
vt 20.3700 0.0000
vt 18.8300 0.0000
vt 18.8300 1.6000
vt 20.3700 1.6000
vt -18.9700 0.0000
vt -17.4300 0.0000
vt -17.4300 1.6000
vt -18.9700 1.6000
vt -17.4300 0.0000
vt -18.9700 0.0000
vt -18.9700 1.6000
vt -17.4300 1.6000
vt 20.2300 -18.9700
vt 20.2300 -17.4300
vt 21.7700 -17.4300
vt 21.7700 -18.9700
vt 20.2300 -18.9700
vt 21.7700 -18.9700
vt 21.7700 -17.4300
vt 20.2300 -17.4300
vt 20.2300 0.0000
vt 21.7700 0.0000
vt 21.7700 1.6000
vt 20.2300 1.6000
vt 21.7700 0.0000
vt 20.2300 0.0000
vt 20.2300 1.6000
vt 21.7700 1.6000
vt -18.9700 0.0000
vt -17.4300 0.0000
vt -17.4300 1.6000
vt -18.9700 1.6000
vt -17.4300 0.0000
vt -18.9700 0.0000
vt -18.9700 1.6000
vt -17.4300 1.6000
vt 20.2300 -17.5700
vt 20.2300 -16.0300
vt 21.7700 -16.0300
vt 21.7700 -17.5700
vt 20.2300 -17.5700
vt 21.7700 -17.5700
vt 21.7700 -16.0300
vt 20.2300 -16.0300
vt 20.2300 0.0000
vt 21.7700 0.0000
vt 21.7700 1.6000
vt 20.2300 1.6000
vt 21.7700 0.0000
vt 20.2300 0.0000
vt 20.2300 1.6000
vt 21.7700 1.6000
vt -17.5700 0.0000
vt -16.0300 0.0000
vt -16.0300 1.6000
vt -17.5700 1.6000
vt -16.0300 0.0000
vt -17.5700 0.0000
vt -17.5700 1.6000
vt -16.0300 1.6000
vt 9.0300 -16.1700
vt 9.0300 -14.6300
vt 10.5700 -14.6300
vt 10.5700 -16.1700
vt 9.0300 -16.1700
vt 10.5700 -16.1700
vt 10.5700 -14.6300
vt 9.0300 -14.6300
vt 9.0300 0.0000
vt 10.5700 0.0000
vt 10.5700 1.6000
vt 9.0300 1.6000
vt 10.5700 0.0000
vt 9.0300 0.0000
vt 9.0300 1.6000
vt 10.5700 1.6000
vt -16.1700 0.0000
vt -14.6300 0.0000
vt -14.6300 1.6000
vt -16.1700 1.6000
vt -14.6300 0.0000
vt -16.1700 0.0000
vt -16.1700 1.6000
vt -14.6300 1.6000
vt 11.8300 -16.1700
vt 11.8300 -14.6300
vt 13.3700 -14.6300
vt 13.3700 -16.1700
vt 11.8300 -16.1700
vt 13.3700 -16.1700
vt 13.3700 -14.6300
vt 11.8300 -14.6300
vt 11.8300 0.0000
vt 13.3700 0.0000
vt 13.3700 1.6000
vt 11.8300 1.6000
vt 13.3700 0.0000
vt 11.8300 0.0000
vt 11.8300 1.6000
vt 13.3700 1.6000
vt -16.1700 0.0000
vt -14.6300 0.0000
vt -14.6300 1.6000
vt -16.1700 1.6000
vt -14.6300 0.0000
vt -16.1700 0.0000
vt -16.1700 1.6000
vt -14.6300 1.6000
vt 14.6300 -16.1700
vt 14.6300 -14.6300
vt 16.1700 -14.6300
vt 16.1700 -16.1700
vt 14.6300 -16.1700
vt 16.1700 -16.1700
vt 16.1700 -14.6300
vt 14.6300 -14.6300
vt 14.6300 0.0000
vt 16.1700 0.0000
vt 16.1700 1.6000
vt 14.6300 1.6000
vt 16.1700 0.0000
vt 14.6300 0.0000
vt 14.6300 1.6000
vt 16.1700 1.6000
vt -16.1700 0.0000
vt -14.6300 0.0000
vt -14.6300 1.6000
vt -16.1700 1.6000
vt -14.6300 0.0000
vt -16.1700 0.0000
vt -16.1700 1.6000
vt -14.6300 1.6000
vt 17.4300 -16.1700
vt 17.4300 -14.6300
vt 18.9700 -14.6300
vt 18.9700 -16.1700
vt 17.4300 -16.1700
vt 18.9700 -16.1700
vt 18.9700 -14.6300
vt 17.4300 -14.6300
vt 17.4300 0.0000
vt 18.9700 0.0000
vt 18.9700 1.6000
vt 17.4300 1.6000
vt 18.9700 0.0000
vt 17.4300 0.0000
vt 17.4300 1.6000
vt 18.9700 1.6000
vt -16.1700 0.0000
vt -14.6300 0.0000
vt -14.6300 1.6000
vt -16.1700 1.6000
vt -14.6300 0.0000
vt -16.1700 0.0000
vt -16.1700 1.6000
vt -14.6300 1.6000
vt 20.2300 -16.1700
vt 20.2300 -14.6300
vt 21.7700 -14.6300
vt 21.7700 -16.1700
vt 20.2300 -16.1700
vt 21.7700 -16.1700
vt 21.7700 -14.6300
vt 20.2300 -14.6300
vt 20.2300 0.0000
vt 21.7700 0.0000
vt 21.7700 1.6000
vt 20.2300 1.6000
vt 21.7700 0.0000
vt 20.2300 0.0000
vt 20.2300 1.6000
vt 21.7700 1.6000
vt -16.1700 0.0000
vt -14.6300 0.0000
vt -14.6300 1.6000
vt -16.1700 1.6000
vt -14.6300 0.0000
vt -16.1700 0.0000
vt -16.1700 1.6000
vt -14.6300 1.6000
vt 20.2300 -14.7700
vt 20.2300 -13.2300
vt 21.7700 -13.2300
vt 21.7700 -14.7700
vt 20.2300 -14.7700
vt 21.7700 -14.7700
vt 21.7700 -13.2300
vt 20.2300 -13.2300
vt 20.2300 0.0000
vt 21.7700 0.0000
vt 21.7700 1.6000
vt 20.2300 1.6000
vt 21.7700 0.0000
vt 20.2300 0.0000
vt 20.2300 1.6000
vt 21.7700 1.6000
vt -14.7700 0.0000
vt -13.2300 0.0000
vt -13.2300 1.6000
vt -14.7700 1.6000
vt -13.2300 0.0000
vt -14.7700 0.0000
vt -14.7700 1.6000
vt -13.2300 1.6000
vt 9.0300 -13.3700
vt 9.0300 -11.8300
vt 10.5700 -11.8300
vt 10.5700 -13.3700
vt 9.0300 -13.3700
vt 10.5700 -13.3700
vt 10.5700 -11.8300
vt 9.0300 -11.8300
vt 9.0300 0.0000
vt 10.5700 0.0000
vt 10.5700 1.6000
vt 9.0300 1.6000
vt 10.5700 0.0000
vt 9.0300 0.0000
vt 9.0300 1.6000
vt 10.5700 1.6000
vt -13.3700 0.0000
vt -11.8300 0.0000
vt -11.8300 1.6000
vt -13.3700 1.6000
vt -11.8300 0.0000
vt -13.3700 0.0000
vt -13.3700 1.6000
vt -11.8300 1.6000
vt 11.8300 -13.3700
vt 11.8300 -11.8300
vt 13.3700 -11.8300
vt 13.3700 -13.3700
vt 11.8300 -13.3700
vt 13.3700 -13.3700
vt 13.3700 -11.8300
vt 11.8300 -11.8300
vt 11.8300 0.0000
vt 13.3700 0.0000
vt 13.3700 1.6000
vt 11.8300 1.6000
vt 13.3700 0.0000
vt 11.8300 0.0000
vt 11.8300 1.6000
vt 13.3700 1.6000
vt -13.3700 0.0000
vt -11.8300 0.0000
vt -11.8300 1.6000
vt -13.3700 1.6000
vt -11.8300 0.0000
vt -13.3700 0.0000
vt -13.3700 1.6000
vt -11.8300 1.6000
vt 14.6300 -13.3700
vt 14.6300 -11.8300
vt 16.1700 -11.8300
vt 16.1700 -13.3700
vt 14.6300 -13.3700
vt 16.1700 -13.3700
vt 16.1700 -11.8300
vt 14.6300 -11.8300
vt 14.6300 0.0000
vt 16.1700 0.0000
vt 16.1700 1.6000
vt 14.6300 1.6000
vt 16.1700 0.0000
vt 14.6300 0.0000
vt 14.6300 1.6000
vt 16.1700 1.6000
vt -13.3700 0.0000
vt -11.8300 0.0000
vt -11.8300 1.6000
vt -13.3700 1.6000
vt -11.8300 0.0000
vt -13.3700 0.0000
vt -13.3700 1.6000
vt -11.8300 1.6000
vt 17.4300 -13.3700
vt 17.4300 -11.8300
vt 18.9700 -11.8300
vt 18.9700 -13.3700
vt 17.4300 -13.3700
vt 18.9700 -13.3700
vt 18.9700 -11.8300
vt 17.4300 -11.8300
vt 17.4300 0.0000
vt 18.9700 0.0000
vt 18.9700 1.6000
vt 17.4300 1.6000
vt 18.9700 0.0000
vt 17.4300 0.0000
vt 17.4300 1.6000
vt 18.9700 1.6000
vt -13.3700 0.0000
vt -11.8300 0.0000
vt -11.8300 1.6000
vt -13.3700 1.6000
vt -11.8300 0.0000
vt -13.3700 0.0000
vt -13.3700 1.6000
vt -11.8300 1.6000
vt 20.2300 -13.3700
vt 20.2300 -11.8300
vt 21.7700 -11.8300
vt 21.7700 -13.3700
vt 20.2300 -13.3700
vt 21.7700 -13.3700
vt 21.7700 -11.8300
vt 20.2300 -11.8300
vt 20.2300 0.0000
vt 21.7700 0.0000
vt 21.7700 1.6000
vt 20.2300 1.6000
vt 21.7700 0.0000
vt 20.2300 0.0000
vt 20.2300 1.6000
vt 21.7700 1.6000
vt -13.3700 0.0000
vt -11.8300 0.0000
vt -11.8300 1.6000
vt -13.3700 1.6000
vt -11.8300 0.0000
vt -13.3700 0.0000
vt -13.3700 1.6000
vt -11.8300 1.6000
vt 9.0300 -10.5700
vt 9.0300 -9.0300
vt 10.5700 -9.0300
vt 10.5700 -10.5700
vt 9.0300 -10.5700
vt 10.5700 -10.5700
vt 10.5700 -9.0300
vt 9.0300 -9.0300
vt 9.0300 0.0000
vt 10.5700 0.0000
vt 10.5700 1.6000
vt 9.0300 1.6000
vt 10.5700 0.0000
vt 9.0300 0.0000
vt 9.0300 1.6000
vt 10.5700 1.6000
vt -10.5700 0.0000
vt -9.0300 0.0000
vt -9.0300 1.6000
vt -10.5700 1.6000
vt -9.0300 0.0000
vt -10.5700 0.0000
vt -10.5700 1.6000
vt -9.0300 1.6000
vt 11.8300 -10.5700
vt 11.8300 -9.0300
vt 13.3700 -9.0300
vt 13.3700 -10.5700
vt 11.8300 -10.5700
vt 13.3700 -10.5700
vt 13.3700 -9.0300
vt 11.8300 -9.0300
vt 11.8300 0.0000
vt 13.3700 0.0000
vt 13.3700 1.6000
vt 11.8300 1.6000
vt 13.3700 0.0000
vt 11.8300 0.0000
vt 11.8300 1.6000
vt 13.3700 1.6000
vt -10.5700 0.0000
vt -9.0300 0.0000
vt -9.0300 1.6000
vt -10.5700 1.6000
vt -9.0300 0.0000
vt -10.5700 0.0000
vt -10.5700 1.6000
vt -9.0300 1.6000
vt 14.6300 -10.5700
vt 14.6300 -9.0300
vt 16.1700 -9.0300
vt 16.1700 -10.5700
vt 14.6300 -10.5700
vt 16.1700 -10.5700
vt 16.1700 -9.0300
vt 14.6300 -9.0300
vt 14.6300 0.0000
vt 16.1700 0.0000
vt 16.1700 1.6000
vt 14.6300 1.6000
vt 16.1700 0.0000
vt 14.6300 0.0000
vt 14.6300 1.6000
vt 16.1700 1.6000
vt -10.5700 0.0000
vt -9.0300 0.0000
vt -9.0300 1.6000
vt -10.5700 1.6000
vt -9.0300 0.0000
vt -10.5700 0.0000
vt -10.5700 1.6000
vt -9.0300 1.6000
vt 17.4300 -10.5700
vt 17.4300 -9.0300
vt 18.9700 -9.0300
vt 18.9700 -10.5700
vt 17.4300 -10.5700
vt 18.9700 -10.5700
vt 18.9700 -9.0300
vt 17.4300 -9.0300
vt 17.4300 0.0000
vt 18.9700 0.0000
vt 18.9700 1.6000
vt 17.4300 1.6000
vt 18.9700 0.0000
vt 17.4300 0.0000
vt 17.4300 1.6000
vt 18.9700 1.6000
vt -10.5700 0.0000
vt -9.0300 0.0000
vt -9.0300 1.6000
vt -10.5700 1.6000
vt -9.0300 0.0000
vt -10.5700 0.0000
vt -10.5700 1.6000
vt -9.0300 1.6000
vt 20.2300 -10.5700
vt 20.2300 -9.0300
vt 21.7700 -9.0300
vt 21.7700 -10.5700
vt 20.2300 -10.5700
vt 21.7700 -10.5700
vt 21.7700 -9.0300
vt 20.2300 -9.0300
vt 20.2300 0.0000
vt 21.7700 0.0000
vt 21.7700 1.6000
vt 20.2300 1.6000
vt 21.7700 0.0000
vt 20.2300 0.0000
vt 20.2300 1.6000
vt 21.7700 1.6000
vt -10.5700 0.0000
vt -9.0300 0.0000
vt -9.0300 1.6000
vt -10.5700 1.6000
vt -9.0300 0.0000
vt -10.5700 0.0000
vt -10.5700 1.6000
vt -9.0300 1.6000
vt 14.6300 -9.1700
vt 14.6300 -7.6300
vt 16.1700 -7.6300
vt 16.1700 -9.1700
vt 14.6300 -9.1700
vt 16.1700 -9.1700
vt 16.1700 -7.6300
vt 14.6300 -7.6300
vt 14.6300 0.0000
vt 16.1700 0.0000
vt 16.1700 1.6000
vt 14.6300 1.6000
vt 16.1700 0.0000
vt 14.6300 0.0000
vt 14.6300 1.6000
vt 16.1700 1.6000
vt -9.1700 0.0000
vt -7.6300 0.0000
vt -7.6300 1.6000
vt -9.1700 1.6000
vt -7.6300 0.0000
vt -9.1700 0.0000
vt -9.1700 1.6000
vt -7.6300 1.6000
vt 13.6200 -22.5200
vt 13.6200 -22.2800
vt 14.3800 -22.2800
vt 14.3800 -22.5200
vt 13.6200 -22.5200
vt 14.3800 -22.5200
vt 14.3800 -22.2800
vt 13.6200 -22.2800
vt 13.6200 1.5640
vt 14.3800 1.5640
vt 14.3800 1.5960
vt 13.6200 1.5960
vt 14.3800 1.5640
vt 13.6200 1.5640
vt 13.6200 1.5960
vt 14.3800 1.5960
vt -22.5200 1.5640
vt -22.2800 1.5640
vt -22.2800 1.5960
vt -22.5200 1.5960
vt -22.2800 1.5640
vt -22.5200 1.5640
vt -22.5200 1.5960
vt -22.2800 1.5960
vt 19.2200 -19.7200
vt 19.2200 -19.4800
vt 19.9800 -19.4800
vt 19.9800 -19.7200
vt 19.2200 -19.7200
vt 19.9800 -19.7200
vt 19.9800 -19.4800
vt 19.2200 -19.4800
vt 19.2200 1.5640
vt 19.9800 1.5640
vt 19.9800 1.5960
vt 19.2200 1.5960
vt 19.9800 1.5640
vt 19.2200 1.5640
vt 19.2200 1.5960
vt 19.9800 1.5960
vt -19.7200 1.5640
vt -19.4800 1.5640
vt -19.4800 1.5960
vt -19.7200 1.5960
vt -19.4800 1.5640
vt -19.7200 1.5640
vt -19.7200 1.5960
vt -19.4800 1.5960
vt 10.8200 -16.9200
vt 10.8200 -16.6800
vt 11.5800 -16.6800
vt 11.5800 -16.9200
vt 10.8200 -16.9200
vt 11.5800 -16.9200
vt 11.5800 -16.6800
vt 10.8200 -16.6800
vt 10.8200 1.5640
vt 11.5800 1.5640
vt 11.5800 1.5960
vt 10.8200 1.5960
vt 11.5800 1.5640
vt 10.8200 1.5640
vt 10.8200 1.5960
vt 11.5800 1.5960
vt -16.9200 1.5640
vt -16.6800 1.5640
vt -16.6800 1.5960
vt -16.9200 1.5960
vt -16.6800 1.5640
vt -16.9200 1.5640
vt -16.9200 1.5960
vt -16.6800 1.5960
vt 19.2200 -16.9200
vt 19.2200 -16.6800
vt 19.9800 -16.6800
vt 19.9800 -16.9200
vt 19.2200 -16.9200
vt 19.9800 -16.9200
vt 19.9800 -16.6800
vt 19.2200 -16.6800
vt 19.2200 1.5640
vt 19.9800 1.5640
vt 19.9800 1.5960
vt 19.2200 1.5960
vt 19.9800 1.5640
vt 19.2200 1.5640
vt 19.2200 1.5960
vt 19.9800 1.5960
vt -16.9200 1.5640
vt -16.6800 1.5640
vt -16.6800 1.5960
vt -16.9200 1.5960
vt -16.6800 1.5640
vt -16.9200 1.5640
vt -16.9200 1.5960
vt -16.6800 1.5960
vt 13.6200 -14.1200
vt 13.6200 -13.8800
vt 14.3800 -13.8800
vt 14.3800 -14.1200
vt 13.6200 -14.1200
vt 14.3800 -14.1200
vt 14.3800 -13.8800
vt 13.6200 -13.8800
vt 13.6200 1.5640
vt 14.3800 1.5640
vt 14.3800 1.5960
vt 13.6200 1.5960
vt 14.3800 1.5640
vt 13.6200 1.5640
vt 13.6200 1.5960
vt 14.3800 1.5960
vt -14.1200 1.5640
vt -13.8800 1.5640
vt -13.8800 1.5960
vt -14.1200 1.5960
vt -13.8800 1.5640
vt -14.1200 1.5640
vt -14.1200 1.5960
vt -13.8800 1.5960
vt 19.2200 -14.1200
vt 19.2200 -13.8800
vt 19.9800 -13.8800
vt 19.9800 -14.1200
vt 19.2200 -14.1200
vt 19.9800 -14.1200
vt 19.9800 -13.8800
vt 19.2200 -13.8800
vt 19.2200 1.5640
vt 19.9800 1.5640
vt 19.9800 1.5960
vt 19.2200 1.5960
vt 19.9800 1.5640
vt 19.2200 1.5640
vt 19.2200 1.5960
vt 19.9800 1.5960
vt -14.1200 1.5640
vt -13.8800 1.5640
vt -13.8800 1.5960
vt -14.1200 1.5960
vt -13.8800 1.5640
vt -14.1200 1.5640
vt -14.1200 1.5960
vt -13.8800 1.5960
vt 22.0200 -14.1200
vt 22.0200 -13.8800
vt 22.7800 -13.8800
vt 22.7800 -14.1200
vt 22.0200 -14.1200
vt 22.7800 -14.1200
vt 22.7800 -13.8800
vt 22.0200 -13.8800
vt 22.0200 1.5640
vt 22.7800 1.5640
vt 22.7800 1.5960
vt 22.0200 1.5960
vt 22.7800 1.5640
vt 22.0200 1.5640
vt 22.0200 1.5960
vt 22.7800 1.5960
vt -14.1200 1.5640
vt -13.8800 1.5640
vt -13.8800 1.5960
vt -14.1200 1.5960
vt -13.8800 1.5640
vt -14.1200 1.5640
vt -14.1200 1.5960
vt -13.8800 1.5960
vt 10.8200 -11.3200
vt 10.8200 -11.0800
vt 11.5800 -11.0800
vt 11.5800 -11.3200
vt 10.8200 -11.3200
vt 11.5800 -11.3200
vt 11.5800 -11.0800
vt 10.8200 -11.0800
vt 10.8200 1.5640
vt 11.5800 1.5640
vt 11.5800 1.5960
vt 10.8200 1.5960
vt 11.5800 1.5640
vt 10.8200 1.5640
vt 10.8200 1.5960
vt 11.5800 1.5960
vt -11.3200 1.5640
vt -11.0800 1.5640
vt -11.0800 1.5960
vt -11.3200 1.5960
vt -11.0800 1.5640
vt -11.3200 1.5640
vt -11.3200 1.5960
vt -11.0800 1.5960
vt 13.6200 -11.3200
vt 13.6200 -11.0800
vt 14.3800 -11.0800
vt 14.3800 -11.3200
vt 13.6200 -11.3200
vt 14.3800 -11.3200
vt 14.3800 -11.0800
vt 13.6200 -11.0800
vt 13.6200 1.5640
vt 14.3800 1.5640
vt 14.3800 1.5960
vt 13.6200 1.5960
vt 14.3800 1.5640
vt 13.6200 1.5640
vt 13.6200 1.5960
vt 14.3800 1.5960
vt -11.3200 1.5640
vt -11.0800 1.5640
vt -11.0800 1.5960
vt -11.3200 1.5960
vt -11.0800 1.5640
vt -11.3200 1.5640
vt -11.3200 1.5960
vt -11.0800 1.5960
vt 22.0200 -11.3200
vt 22.0200 -11.0800
vt 22.7800 -11.0800
vt 22.7800 -11.3200
vt 22.0200 -11.3200
vt 22.7800 -11.3200
vt 22.7800 -11.0800
vt 22.0200 -11.0800
vt 22.0200 1.5640
vt 22.7800 1.5640
vt 22.7800 1.5960
vt 22.0200 1.5960
vt 22.7800 1.5640
vt 22.0200 1.5640
vt 22.0200 1.5960
vt 22.7800 1.5960
vt -11.3200 1.5640
vt -11.0800 1.5640
vt -11.0800 1.5960
vt -11.3200 1.5960
vt -11.0800 1.5640
vt -11.3200 1.5640
vt -11.3200 1.5960
vt -11.0800 1.5960
vt 10.8200 -8.5200
vt 10.8200 -8.2800
vt 11.5800 -8.2800
vt 11.5800 -8.5200
vt 10.8200 -8.5200
vt 11.5800 -8.5200
vt 11.5800 -8.2800
vt 10.8200 -8.2800
vt 10.8200 1.5640
vt 11.5800 1.5640
vt 11.5800 1.5960
vt 10.8200 1.5960
vt 11.5800 1.5640
vt 10.8200 1.5640
vt 10.8200 1.5960
vt 11.5800 1.5960
vt -8.5200 1.5640
vt -8.2800 1.5640
vt -8.2800 1.5960
vt -8.5200 1.5960
vt -8.2800 1.5640
vt -8.5200 1.5640
vt -8.5200 1.5960
vt -8.2800 1.5960
vt 13.6200 -8.5200
vt 13.6200 -8.2800
vt 14.3800 -8.2800
vt 14.3800 -8.5200
vt 13.6200 -8.5200
vt 14.3800 -8.5200
vt 14.3800 -8.2800
vt 13.6200 -8.2800
vt 13.6200 1.5640
vt 14.3800 1.5640
vt 14.3800 1.5960
vt 13.6200 1.5960
vt 14.3800 1.5640
vt 13.6200 1.5640
vt 13.6200 1.5960
vt 14.3800 1.5960
vt -8.5200 1.5640
vt -8.2800 1.5640
vt -8.2800 1.5960
vt -8.5200 1.5960
vt -8.2800 1.5640
vt -8.5200 1.5640
vt -8.5200 1.5960
vt -8.2800 1.5960
vt 16.4200 -8.5200
vt 16.4200 -8.2800
vt 17.1800 -8.2800
vt 17.1800 -8.5200
vt 16.4200 -8.5200
vt 17.1800 -8.5200
vt 17.1800 -8.2800
vt 16.4200 -8.2800
vt 16.4200 1.5640
vt 17.1800 1.5640
vt 17.1800 1.5960
vt 16.4200 1.5960
vt 17.1800 1.5640
vt 16.4200 1.5640
vt 16.4200 1.5960
vt 17.1800 1.5960
vt -8.5200 1.5640
vt -8.2800 1.5640
vt -8.2800 1.5960
vt -8.5200 1.5960
vt -8.2800 1.5640
vt -8.5200 1.5640
vt -8.5200 1.5960
vt -8.2800 1.5960
vt 19.2200 -8.5200
vt 19.2200 -8.2800
vt 19.9800 -8.2800
vt 19.9800 -8.5200
vt 19.2200 -8.5200
vt 19.9800 -8.5200
vt 19.9800 -8.2800
vt 19.2200 -8.2800
vt 19.2200 1.5640
vt 19.9800 1.5640
vt 19.9800 1.5960
vt 19.2200 1.5960
vt 19.9800 1.5640
vt 19.2200 1.5640
vt 19.2200 1.5960
vt 19.9800 1.5960
vt -8.5200 1.5640
vt -8.2800 1.5640
vt -8.2800 1.5960
vt -8.5200 1.5960
vt -8.2800 1.5640
vt -8.5200 1.5640
vt -8.5200 1.5960
vt -8.2800 1.5960
vt 22.0200 -8.5200
vt 22.0200 -8.2800
vt 22.7800 -8.2800
vt 22.7800 -8.5200
vt 22.0200 -8.5200
vt 22.7800 -8.5200
vt 22.7800 -8.2800
vt 22.0200 -8.2800
vt 22.0200 1.5640
vt 22.7800 1.5640
vt 22.7800 1.5960
vt 22.0200 1.5960
vt 22.7800 1.5640
vt 22.0200 1.5640
vt 22.0200 1.5960
vt 22.7800 1.5960
vt -8.5200 1.5640
vt -8.2800 1.5640
vt -8.2800 1.5960
vt -8.5200 1.5960
vt -8.2800 1.5640
vt -8.5200 1.5640
vt -8.5200 1.5960
vt -8.2800 1.5960
usemtl lamp_cold
f 745 748 747 746
f 749 750 751 752
f 745 746 750 749
f 747 748 752 751
f 746 747 751 750
f 748 745 749 752
f 777 780 779 778
f 781 782 783 784
f 777 778 782 781
f 779 780 784 783
f 778 779 783 782
f 780 777 781 784
f 809 812 811 810
f 813 814 815 816
f 809 810 814 813
f 811 812 816 815
f 810 811 815 814
f 812 809 813 816
f 841 844 843 842
f 845 846 847 848
f 841 842 846 845
f 843 844 848 847
f 842 843 847 846
f 844 841 845 848
f 873 876 875 874
f 877 878 879 880
f 873 874 878 877
f 875 876 880 879
f 874 875 879 878
f 876 873 877 880
f 905 908 907 906
f 909 910 911 912
f 905 906 910 909
f 907 908 912 911
f 906 907 911 910
f 908 905 909 912
f 937 940 939 938
f 941 942 943 944
f 937 938 942 941
f 939 940 944 943
f 938 939 943 942
f 940 937 941 944
f 969 972 971 970
f 973 974 975 976
f 969 970 974 973
f 971 972 976 975
f 970 971 975 974
f 972 969 973 976
f 1001 1004 1003 1002
f 1005 1006 1007 1008
f 1001 1002 1006 1005
f 1003 1004 1008 1007
f 1002 1003 1007 1006
f 1004 1001 1005 1008
f 1033 1036 1035 1034
f 1037 1038 1039 1040
f 1033 1034 1038 1037
f 1035 1036 1040 1039
f 1034 1035 1039 1038
f 1036 1033 1037 1040
f 1065 1068 1067 1066
f 1069 1070 1071 1072
f 1065 1066 1070 1069
f 1067 1068 1072 1071
f 1066 1067 1071 1070
f 1068 1065 1069 1072
f 1097 1100 1099 1098
f 1101 1102 1103 1104
f 1097 1098 1102 1101
f 1099 1100 1104 1103
f 1098 1099 1103 1102
f 1100 1097 1101 1104
f 1129 1132 1131 1130
f 1133 1134 1135 1136
f 1129 1130 1134 1133
f 1131 1132 1136 1135
f 1130 1131 1135 1134
f 1132 1129 1133 1136
f 1161 1164 1163 1162
f 1165 1166 1167 1168
f 1161 1162 1166 1165
f 1163 1164 1168 1167
f 1162 1163 1167 1166
f 1164 1161 1165 1168
f 1193 1196 1195 1194
f 1197 1198 1199 1200
f 1193 1194 1198 1197
f 1195 1196 1200 1199
f 1194 1195 1199 1198
f 1196 1193 1197 1200
usemtl concrete
f 1/1 2/2 3/3 4/4
f 5/5 6/6 7/7 8/8
f 9/9 10/10 11/11 12/12
f 13/13 14/14 15/15 16/16
f 17/17 18/18 19/19 20/20
f 21/21 22/22 23/23 24/24
f 25/25 26/26 27/27 28/28
f 29/29 30/30 31/31 32/32
f 33/33 34/34 35/35 36/36
f 37/37 38/38 39/39 40/40
f 41/41 42/42 43/43 44/44
f 45/45 46/46 47/47 48/48
f 49/49 50/50 51/51 52/52
f 53/53 54/54 55/55 56/56
f 57/57 58/58 59/59 60/60
f 61/61 62/62 63/63 64/64
f 65/65 66/66 67/67 68/68
f 69/69 70/70 71/71 72/72
f 73/73 74/74 75/75 76/76
f 77/77 78/78 79/79 80/80
f 81/81 82/82 83/83 84/84
f 85/85 86/86 87/87 88/88
f 89/89 90/90 91/91 92/92
f 93/93 94/94 95/95 96/96
f 97/97 98/98 99/99 100/100
f 101/101 102/102 103/103 104/104
f 105/105 106/106 107/107 108/108
f 109/109 110/110 111/111 112/112
f 113/113 114/114 115/115 116/116
f 117/117 118/118 119/119 120/120
f 121/121 122/122 123/123 124/124
f 125/125 126/126 127/127 128/128
f 129/129 130/130 131/131 132/132
f 133/133 134/134 135/135 136/136
f 137/137 138/138 139/139 140/140
f 141/141 142/142 143/143 144/144
f 145/145 146/146 147/147 148/148
f 149/149 150/150 151/151 152/152
f 153/153 154/154 155/155 156/156
f 157/157 158/158 159/159 160/160
f 161/161 162/162 163/163 164/164
f 165/165 166/166 167/167 168/168
usemtl concrete_dark
f 169/169 170/170 171/171 172/172
f 173/173 174/174 175/175 176/176
f 177/177 178/178 179/179 180/180
f 181/181 182/182 183/183 184/184
f 185/185 186/186 187/187 188/188
f 189/189 190/190 191/191 192/192
usemtl concrete
f 193/193 194/194 195/195 196/196
f 197/197 198/198 199/199 200/200
f 201/201 202/202 203/203 204/204
f 205/205 206/206 207/207 208/208
f 209/209 210/210 211/211 212/212
f 213/213 214/214 215/215 216/216
f 217/217 218/218 219/219 220/220
f 221/221 222/222 223/223 224/224
f 225/225 226/226 227/227 228/228
f 229/229 230/230 231/231 232/232
f 233/233 234/234 235/235 236/236
f 237/237 238/238 239/239 240/240
f 241/241 242/242 243/243 244/244
f 245/245 246/246 247/247 248/248
f 249/249 250/250 251/251 252/252
f 253/253 254/254 255/255 256/256
f 257/257 258/258 259/259 260/260
f 261/261 262/262 263/263 264/264
f 265/265 266/266 267/267 268/268
f 269/269 270/270 271/271 272/272
f 273/273 274/274 275/275 276/276
f 277/277 278/278 279/279 280/280
f 281/281 282/282 283/283 284/284
f 285/285 286/286 287/287 288/288
f 289/289 290/290 291/291 292/292
f 293/293 294/294 295/295 296/296
f 297/297 298/298 299/299 300/300
f 301/301 302/302 303/303 304/304
f 305/305 306/306 307/307 308/308
f 309/309 310/310 311/311 312/312
f 313/313 314/314 315/315 316/316
f 317/317 318/318 319/319 320/320
f 321/321 322/322 323/323 324/324
f 325/325 326/326 327/327 328/328
f 329/329 330/330 331/331 332/332
f 333/333 334/334 335/335 336/336
usemtl concrete_dark
f 337/337 338/338 339/339 340/340
f 341/341 342/342 343/343 344/344
f 345/345 346/346 347/347 348/348
f 349/349 350/350 351/351 352/352
f 353/353 354/354 355/355 356/356
f 357/357 358/358 359/359 360/360
f 361/361 362/362 363/363 364/364
f 365/365 366/366 367/367 368/368
f 369/369 370/370 371/371 372/372
f 373/373 374/374 375/375 376/376
f 377/377 378/378 379/379 380/380
f 381/381 382/382 383/383 384/384
usemtl concrete
f 385/385 386/386 387/387 388/388
f 389/389 390/390 391/391 392/392
f 393/393 394/394 395/395 396/396
f 397/397 398/398 399/399 400/400
f 401/401 402/402 403/403 404/404
f 405/405 406/406 407/407 408/408
f 409/409 410/410 411/411 412/412
f 413/413 414/414 415/415 416/416
f 417/417 418/418 419/419 420/420
f 421/421 422/422 423/423 424/424
f 425/425 426/426 427/427 428/428
f 429/429 430/430 431/431 432/432
usemtl concrete_dark
f 433/433 434/434 435/435 436/436
f 437/437 438/438 439/439 440/440
f 441/441 442/442 443/443 444/444
f 445/445 446/446 447/447 448/448
f 449/449 450/450 451/451 452/452
f 453/453 454/454 455/455 456/456
usemtl concrete
f 457/457 458/458 459/459 460/460
f 461/461 462/462 463/463 464/464
f 465/465 466/466 467/467 468/468
f 469/469 470/470 471/471 472/472
f 473/473 474/474 475/475 476/476
f 477/477 478/478 479/479 480/480
f 481/481 482/482 483/483 484/484
f 485/485 486/486 487/487 488/488
f 489/489 490/490 491/491 492/492
f 493/493 494/494 495/495 496/496
f 497/497 498/498 499/499 500/500
f 501/501 502/502 503/503 504/504
usemtl concrete_dark
f 505/505 506/506 507/507 508/508
f 509/509 510/510 511/511 512/512
f 513/513 514/514 515/515 516/516
f 517/517 518/518 519/519 520/520
f 521/521 522/522 523/523 524/524
f 525/525 526/526 527/527 528/528
usemtl concrete
f 529/529 530/530 531/531 532/532
f 533/533 534/534 535/535 536/536
f 537/537 538/538 539/539 540/540
f 541/541 542/542 543/543 544/544
f 545/545 546/546 547/547 548/548
f 549/549 550/550 551/551 552/552
f 553/553 554/554 555/555 556/556
f 557/557 558/558 559/559 560/560
f 561/561 562/562 563/563 564/564
f 565/565 566/566 567/567 568/568
f 569/569 570/570 571/571 572/572
f 573/573 574/574 575/575 576/576
f 577/577 578/578 579/579 580/580
f 581/581 582/582 583/583 584/584
f 585/585 586/586 587/587 588/588
f 589/589 590/590 591/591 592/592
f 593/593 594/594 595/595 596/596
f 597/597 598/598 599/599 600/600
f 601/601 602/602 603/603 604/604
f 605/605 606/606 607/607 608/608
f 609/609 610/610 611/611 612/612
f 613/613 614/614 615/615 616/616
f 617/617 618/618 619/619 620/620
f 621/621 622/622 623/623 624/624
f 625/625 626/626 627/627 628/628
f 629/629 630/630 631/631 632/632
f 633/633 634/634 635/635 636/636
f 637/637 638/638 639/639 640/640
f 641/641 642/642 643/643 644/644
f 645/645 646/646 647/647 648/648
f 649/649 650/650 651/651 652/652
f 653/653 654/654 655/655 656/656
f 657/657 658/658 659/659 660/660
f 661/661 662/662 663/663 664/664
f 665/665 666/666 667/667 668/668
f 669/669 670/670 671/671 672/672
f 673/673 674/674 675/675 676/676
f 677/677 678/678 679/679 680/680
f 681/681 682/682 683/683 684/684
f 685/685 686/686 687/687 688/688
f 689/689 690/690 691/691 692/692
f 693/693 694/694 695/695 696/696
f 697/697 698/698 699/699 700/700
f 701/701 702/702 703/703 704/704
f 705/705 706/706 707/707 708/708
f 709/709 710/710 711/711 712/712
f 713/713 714/714 715/715 716/716
f 717/717 718/718 719/719 720/720
usemtl concrete_dark
f 721/721 722/722 723/723 724/724
f 725/725 726/726 727/727 728/728
f 729/729 730/730 731/731 732/732
f 733/733 734/734 735/735 736/736
f 737/737 738/738 739/739 740/740
f 741/741 742/742 743/743 744/744
f 753/745 754/746 755/747 756/748
f 757/749 758/750 759/751 760/752
f 761/753 762/754 763/755 764/756
f 765/757 766/758 767/759 768/760
f 769/761 770/762 771/763 772/764
f 773/765 774/766 775/767 776/768
f 785/769 786/770 787/771 788/772
f 789/773 790/774 791/775 792/776
f 793/777 794/778 795/779 796/780
f 797/781 798/782 799/783 800/784
f 801/785 802/786 803/787 804/788
f 805/789 806/790 807/791 808/792
f 817/793 818/794 819/795 820/796
f 821/797 822/798 823/799 824/800
f 825/801 826/802 827/803 828/804
f 829/805 830/806 831/807 832/808
f 833/809 834/810 835/811 836/812
f 837/813 838/814 839/815 840/816
f 849/817 850/818 851/819 852/820
f 853/821 854/822 855/823 856/824
f 857/825 858/826 859/827 860/828
f 861/829 862/830 863/831 864/832
f 865/833 866/834 867/835 868/836
f 869/837 870/838 871/839 872/840
f 881/841 882/842 883/843 884/844
f 885/845 886/846 887/847 888/848
f 889/849 890/850 891/851 892/852
f 893/853 894/854 895/855 896/856
f 897/857 898/858 899/859 900/860
f 901/861 902/862 903/863 904/864
f 913/865 914/866 915/867 916/868
f 917/869 918/870 919/871 920/872
f 921/873 922/874 923/875 924/876
f 925/877 926/878 927/879 928/880
f 929/881 930/882 931/883 932/884
f 933/885 934/886 935/887 936/888
f 945/889 946/890 947/891 948/892
f 949/893 950/894 951/895 952/896
f 953/897 954/898 955/899 956/900
f 957/901 958/902 959/903 960/904
f 961/905 962/906 963/907 964/908
f 965/909 966/910 967/911 968/912
f 977/913 978/914 979/915 980/916
f 981/917 982/918 983/919 984/920
f 985/921 986/922 987/923 988/924
f 989/925 990/926 991/927 992/928
f 993/929 994/930 995/931 996/932
f 997/933 998/934 999/935 1000/936
f 1009/937 1010/938 1011/939 1012/940
f 1013/941 1014/942 1015/943 1016/944
f 1017/945 1018/946 1019/947 1020/948
f 1021/949 1022/950 1023/951 1024/952
f 1025/953 1026/954 1027/955 1028/956
f 1029/957 1030/958 1031/959 1032/960
f 1041/961 1042/962 1043/963 1044/964
f 1045/965 1046/966 1047/967 1048/968
f 1049/969 1050/970 1051/971 1052/972
f 1053/973 1054/974 1055/975 1056/976
f 1057/977 1058/978 1059/979 1060/980
f 1061/981 1062/982 1063/983 1064/984
f 1073/985 1074/986 1075/987 1076/988
f 1077/989 1078/990 1079/991 1080/992
f 1081/993 1082/994 1083/995 1084/996
f 1085/997 1086/998 1087/999 1088/1000
f 1089/1001 1090/1002 1091/1003 1092/1004
f 1093/1005 1094/1006 1095/1007 1096/1008
f 1105/1009 1106/1010 1107/1011 1108/1012
f 1109/1013 1110/1014 1111/1015 1112/1016
f 1113/1017 1114/1018 1115/1019 1116/1020
f 1117/1021 1118/1022 1119/1023 1120/1024
f 1121/1025 1122/1026 1123/1027 1124/1028
f 1125/1029 1126/1030 1127/1031 1128/1032
f 1137/1033 1138/1034 1139/1035 1140/1036
f 1141/1037 1142/1038 1143/1039 1144/1040
f 1145/1041 1146/1042 1147/1043 1148/1044
f 1149/1045 1150/1046 1151/1047 1152/1048
f 1153/1049 1154/1050 1155/1051 1156/1052
f 1157/1053 1158/1054 1159/1055 1160/1056
f 1169/1057 1170/1058 1171/1059 1172/1060
f 1173/1061 1174/1062 1175/1063 1176/1064
f 1177/1065 1178/1066 1179/1067 1180/1068
f 1181/1069 1182/1070 1183/1071 1184/1072
f 1185/1073 1186/1074 1187/1075 1188/1076
f 1189/1077 1190/1078 1191/1079 1192/1080
f 1201/1081 1202/1082 1203/1083 1204/1084
f 1205/1085 1206/1086 1207/1087 1208/1088
f 1209/1089 1210/1090 1211/1091 1212/1092
f 1213/1093 1214/1094 1215/1095 1216/1096
f 1217/1097 1218/1098 1219/1099 1220/1100
f 1221/1101 1222/1102 1223/1103 1224/1104
