# RoastEngine Backrooms level
mtllib backrooms.mtl
v -0.1900 0.5200 -0.4750
v 0.1900 0.5200 -0.4750
v 0.1900 0.5200 0.5750
v -0.1900 0.5200 0.5750
v -0.1900 0.9200 -0.4750
v 0.1900 0.9200 -0.4750
v 0.1900 0.9200 0.5750
v -0.1900 0.9200 0.5750
v -0.2100 0.5300 -0.2500
v 0.2100 0.5300 -0.2500
v 0.2100 0.5300 0.4500
v -0.2100 0.5300 0.4500
v -0.2100 0.7900 -0.2500
v 0.2100 0.7900 -0.2500
v 0.2100 0.7900 0.4500
v -0.2100 0.7900 0.4500
v -0.1300 0.6700 -0.7300
v 0.1300 0.6700 -0.7300
v 0.1300 0.6700 -0.4300
v -0.1300 0.6700 -0.4300
v -0.1300 0.9300 -0.7300
v 0.1300 0.9300 -0.7300
v 0.1300 0.9300 -0.4300
v -0.1300 0.9300 -0.4300
v -0.1100 0.6200 -1.0800
v 0.1100 0.6200 -1.0800
v 0.1100 0.6200 -0.6800
v -0.1100 0.6200 -0.6800
v -0.1100 0.8600 -1.0800
v 0.1100 0.8600 -1.0800
v 0.1100 0.8600 -0.6800
v -0.1100 0.8600 -0.6800
v -0.0950 0.5800 -1.1500
v 0.0950 0.5800 -1.1500
v 0.0950 0.5800 -0.8900
v -0.0950 0.5800 -0.8900
v -0.0950 0.7000 -1.1500
v 0.0950 0.7000 -1.1500
v 0.0950 0.7000 -0.8900
v -0.0950 0.7000 -0.8900
v -0.0850 0.5750 -1.1550
v 0.0850 0.5750 -1.1550
v 0.0850 0.5750 -1.1050
v -0.0850 0.5750 -1.1050
v -0.0850 0.6250 -1.1550
v 0.0850 0.6250 -1.1550
v 0.0850 0.6250 -1.1050
v -0.0850 0.6250 -1.1050
v -0.1050 0.7750 -1.1100
v -0.0350 0.7750 -1.1100
v -0.0350 0.7750 -1.0900
v -0.1050 0.7750 -1.0900
v -0.1050 0.8250 -1.1100
v -0.0350 0.8250 -1.1100
v -0.0350 0.8250 -1.0900
v -0.1050 0.8250 -1.0900
v 0.0350 0.7750 -1.1100
v 0.1050 0.7750 -1.1100
v 0.1050 0.7750 -1.0900
v 0.0350 0.7750 -1.0900
v 0.0350 0.8250 -1.1100
v 0.1050 0.8250 -1.1100
v 0.1050 0.8250 -1.0900
v 0.0350 0.8250 -1.0900
v -0.1000 0.0000 -0.3600
v -0.1000 0.5600 -0.3600
v -0.1146 0.0000 -0.3246
v -0.1146 0.5600 -0.3246
v -0.1500 0.0000 -0.3100
v -0.1500 0.5600 -0.3100
v -0.1854 0.0000 -0.3246
v -0.1854 0.5600 -0.3246
v -0.2000 0.0000 -0.3600
v -0.2000 0.5600 -0.3600
v -0.1854 0.0000 -0.3954
v -0.1854 0.5600 -0.3954
v -0.1500 0.0000 -0.4100
v -0.1500 0.5600 -0.4100
v -0.1146 0.0000 -0.3954
v -0.1146 0.5600 -0.3954
v -0.1500 0.5600 -0.3600
v -0.1500 0.0000 -0.3600
v -0.0950 0.0000 0.4200
v -0.0950 0.5400 0.4200
v -0.1111 0.0000 0.4589
v -0.1111 0.5400 0.4589
v -0.1500 0.0000 0.4750
v -0.1500 0.5400 0.4750
v -0.1889 0.0000 0.4589
v -0.1889 0.5400 0.4589
v -0.2050 0.0000 0.4200
v -0.2050 0.5400 0.4200
v -0.1889 0.0000 0.3811
v -0.1889 0.5400 0.3811
v -0.1500 0.0000 0.3650
v -0.1500 0.5400 0.3650
v -0.1111 0.0000 0.3811
v -0.1111 0.5400 0.3811
v -0.1500 0.5400 0.4200
v -0.1500 0.0000 0.4200
v 0.2000 0.0000 -0.3600
v 0.2000 0.5600 -0.3600
v 0.1854 0.0000 -0.3246
v 0.1854 0.5600 -0.3246
v 0.1500 0.0000 -0.3100
v 0.1500 0.5600 -0.3100
v 0.1146 0.0000 -0.3246
v 0.1146 0.5600 -0.3246
v 0.1000 0.0000 -0.3600
v 0.1000 0.5600 -0.3600
v 0.1146 0.0000 -0.3954
v 0.1146 0.5600 -0.3954
v 0.1500 0.0000 -0.4100
v 0.1500 0.5600 -0.4100
v 0.1854 0.0000 -0.3954
v 0.1854 0.5600 -0.3954
v 0.1500 0.5600 -0.3600
v 0.1500 0.0000 -0.3600
v 0.2050 0.0000 0.4200
v 0.2050 0.5400 0.4200
v 0.1889 0.0000 0.4589
v 0.1889 0.5400 0.4589
v 0.1500 0.0000 0.4750
v 0.1500 0.5400 0.4750
v 0.1111 0.0000 0.4589
v 0.1111 0.5400 0.4589
v 0.0950 0.0000 0.4200
v 0.0950 0.5400 0.4200
v 0.1111 0.0000 0.3811
v 0.1111 0.5400 0.3811
v 0.1500 0.0000 0.3650
v 0.1500 0.5400 0.3650
v 0.1889 0.0000 0.3811
v 0.1889 0.5400 0.3811
v 0.1500 0.5400 0.4200
v 0.1500 0.0000 0.4200
v -0.0400 0.7600 0.4400
v 0.0400 0.7600 0.4400
v 0.0400 0.7600 0.8000
v -0.0400 0.7600 0.8000
v -0.0400 0.8400 0.4400
v 0.0400 0.8400 0.4400
v 0.0400 0.8400 0.8000
v -0.0400 0.8400 0.8000
usemtl hound_hide
f 1 4 3 2
f 5 6 7 8
f 1 2 6 5
f 3 4 8 7
f 2 3 7 6
f 4 1 5 8
f 9 12 11 10
f 13 14 15 16
f 9 10 14 13
f 11 12 16 15
f 10 11 15 14
f 12 9 13 16
f 17 20 19 18
f 21 22 23 24
f 17 18 22 21
f 19 20 24 23
f 18 19 23 22
f 20 17 21 24
f 25 28 27 26
f 29 30 31 32
f 25 26 30 29
f 27 28 32 31
f 26 27 31 30
f 28 25 29 32
f 33 36 35 34
f 37 38 39 40
f 33 34 38 37
f 35 36 40 39
f 34 35 39 38
f 36 33 37 40
usemtl hound_teeth
f 41 44 43 42
f 45 46 47 48
f 41 42 46 45
f 43 44 48 47
f 42 43 47 46
f 44 41 45 48
usemtl hound_eye
f 49 52 51 50
f 53 54 55 56
f 49 50 54 53
f 51 52 56 55
f 50 51 55 54
f 52 49 53 56
f 57 60 59 58
f 61 62 63 64
f 57 58 62 61
f 59 60 64 63
f 58 59 63 62
f 60 57 61 64
usemtl hound_hide
f 65 67 68 66
f 67 69 70 68
f 69 71 72 70
f 71 73 74 72
f 73 75 76 74
f 75 77 78 76
f 77 79 80 78
f 79 65 66 80
f 81 66 68
f 82 67 65
f 81 68 70
f 82 69 67
f 81 70 72
f 82 71 69
f 81 72 74
f 82 73 71
f 81 74 76
f 82 75 73
f 81 76 78
f 82 77 75
f 81 78 80
f 82 79 77
f 81 80 66
f 82 65 79
f 83 85 86 84
f 85 87 88 86
f 87 89 90 88
f 89 91 92 90
f 91 93 94 92
f 93 95 96 94
f 95 97 98 96
f 97 83 84 98
f 99 84 86
f 100 85 83
f 99 86 88
f 100 87 85
f 99 88 90
f 100 89 87
f 99 90 92
f 100 91 89
f 99 92 94
f 100 93 91
f 99 94 96
f 100 95 93
f 99 96 98
f 100 97 95
f 99 98 84
f 100 83 97
f 101 103 104 102
f 103 105 106 104
f 105 107 108 106
f 107 109 110 108
f 109 111 112 110
f 111 113 114 112
f 113 115 116 114
f 115 101 102 116
f 117 102 104
f 118 103 101
f 117 104 106
f 118 105 103
f 117 106 108
f 118 107 105
f 117 108 110
f 118 109 107
f 117 110 112
f 118 111 109
f 117 112 114
f 118 113 111
f 117 114 116
f 118 115 113
f 117 116 102
f 118 101 115
f 119 121 122 120
f 121 123 124 122
f 123 125 126 124
f 125 127 128 126
f 127 129 130 128
f 129 131 132 130
f 131 133 134 132
f 133 119 120 134
f 135 120 122
f 136 121 119
f 135 122 124
f 136 123 121
f 135 124 126
f 136 125 123
f 135 126 128
f 136 127 125
f 135 128 130
f 136 129 127
f 135 130 132
f 136 131 129
f 135 132 134
f 136 133 131
f 135 134 120
f 136 119 133
f 137 140 139 138
f 141 142 143 144
f 137 138 142 141
f 139 140 144 143
f 138 139 143 142
f 140 137 141 144
