# RoastEngine Backrooms level
mtllib backrooms.mtl
v 391.0750 0.0000 -51.4250
v 393.9250 0.0000 -51.4250
v 393.9250 0.0000 -48.5750
v 391.0750 0.0000 -48.5750
v 391.0750 3.0000 -51.4250
v 393.9250 3.0000 -51.4250
v 393.9250 3.0000 -48.5750
v 391.0750 3.0000 -48.5750
v 401.0750 0.0000 -51.4250
v 403.9250 0.0000 -51.4250
v 403.9250 0.0000 -48.5750
v 401.0750 0.0000 -48.5750
v 401.0750 3.0000 -51.4250
v 403.9250 3.0000 -51.4250
v 403.9250 3.0000 -48.5750
v 401.0750 3.0000 -48.5750
v 376.0750 0.0000 -48.9250
v 376.0750 0.0000 -46.0750
v 378.9250 0.0000 -46.0750
v 378.9250 0.0000 -48.9250
v 376.0750 3.0000 -48.9250
v 378.9250 3.0000 -48.9250
v 378.9250 3.0000 -46.0750
v 376.0750 3.0000 -46.0750
v 376.0750 0.0000 -48.9250
v 378.9250 0.0000 -48.9250
v 378.9250 3.0000 -48.9250
v 376.0750 3.0000 -48.9250
v 378.9250 0.0000 -46.0750
v 376.0750 0.0000 -46.0750
v 376.0750 3.0000 -46.0750
v 378.9250 3.0000 -46.0750
v 378.9250 0.0000 -48.9250
v 378.9250 0.0000 -46.0750
v 378.9250 3.0000 -46.0750
v 378.9250 3.0000 -48.9250
v 376.0750 0.0000 -46.0750
v 376.0750 0.0000 -48.9250
v 376.0750 3.0000 -48.9250
v 376.0750 3.0000 -46.0750
v 378.5750 0.0000 -48.9250
v 378.5750 0.0000 -46.0750
v 381.4250 0.0000 -46.0750
v 381.4250 0.0000 -48.9250
v 378.5750 3.0000 -48.9250
v 381.4250 3.0000 -48.9250
v 381.4250 3.0000 -46.0750
v 378.5750 3.0000 -46.0750
v 378.5750 0.0000 -48.9250
v 381.4250 0.0000 -48.9250
v 381.4250 3.0000 -48.9250
v 378.5750 3.0000 -48.9250
v 381.4250 0.0000 -46.0750
v 378.5750 0.0000 -46.0750
v 378.5750 3.0000 -46.0750
v 381.4250 3.0000 -46.0750
v 381.4250 0.0000 -48.9250
v 381.4250 0.0000 -46.0750
v 381.4250 3.0000 -46.0750
v 381.4250 3.0000 -48.9250
v 378.5750 0.0000 -46.0750
v 378.5750 0.0000 -48.9250
v 378.5750 3.0000 -48.9250
v 378.5750 3.0000 -46.0750
v 381.0750 0.0000 -48.9250
v 381.0750 0.0000 -46.0750
v 383.9250 0.0000 -46.0750
v 383.9250 0.0000 -48.9250
v 381.0750 3.0000 -48.9250
v 383.9250 3.0000 -48.9250
v 383.9250 3.0000 -46.0750
v 381.0750 3.0000 -46.0750
v 381.0750 0.0000 -48.9250
v 383.9250 0.0000 -48.9250
v 383.9250 3.0000 -48.9250
v 381.0750 3.0000 -48.9250
v 383.9250 0.0000 -46.0750
v 381.0750 0.0000 -46.0750
v 381.0750 3.0000 -46.0750
v 383.9250 3.0000 -46.0750
v 383.9250 0.0000 -48.9250
v 383.9250 0.0000 -46.0750
v 383.9250 3.0000 -46.0750
v 383.9250 3.0000 -48.9250
v 381.0750 0.0000 -46.0750
v 381.0750 0.0000 -48.9250
v 381.0750 3.0000 -48.9250
v 381.0750 3.0000 -46.0750
v 383.5750 0.0000 -48.9250
v 386.4250 0.0000 -48.9250
v 386.4250 0.0000 -46.0750
v 383.5750 0.0000 -46.0750
v 383.5750 3.0000 -48.9250
v 386.4250 3.0000 -48.9250
v 386.4250 3.0000 -46.0750
v 383.5750 3.0000 -46.0750
v 386.0750 0.0000 -48.9250
v 386.0750 0.0000 -46.0750
v 388.9250 0.0000 -46.0750
v 388.9250 0.0000 -48.9250
v 386.0750 3.0000 -48.9250
v 388.9250 3.0000 -48.9250
v 388.9250 3.0000 -46.0750
v 386.0750 3.0000 -46.0750
v 386.0750 0.0000 -48.9250
v 388.9250 0.0000 -48.9250
v 388.9250 3.0000 -48.9250
v 386.0750 3.0000 -48.9250
v 388.9250 0.0000 -46.0750
v 386.0750 0.0000 -46.0750
v 386.0750 3.0000 -46.0750
v 388.9250 3.0000 -46.0750
v 388.9250 0.0000 -48.9250
v 388.9250 0.0000 -46.0750
v 388.9250 3.0000 -46.0750
v 388.9250 3.0000 -48.9250
v 386.0750 0.0000 -46.0750
v 386.0750 0.0000 -48.9250
v 386.0750 3.0000 -48.9250
v 386.0750 3.0000 -46.0750
v 391.0750 0.0000 -48.9250
v 391.0750 0.0000 -46.0750
v 393.9250 0.0000 -46.0750
v 393.9250 0.0000 -48.9250
v 391.0750 3.0000 -48.9250
v 393.9250 3.0000 -48.9250
v 393.9250 3.0000 -46.0750
v 391.0750 3.0000 -46.0750
v 391.0750 0.0000 -48.9250
v 393.9250 0.0000 -48.9250
v 393.9250 3.0000 -48.9250
v 391.0750 3.0000 -48.9250
v 393.9250 0.0000 -46.0750
v 391.0750 0.0000 -46.0750
v 391.0750 3.0000 -46.0750
v 393.9250 3.0000 -46.0750
v 393.9250 0.0000 -48.9250
v 393.9250 0.0000 -46.0750
v 393.9250 3.0000 -46.0750
v 393.9250 3.0000 -48.9250
v 391.0750 0.0000 -46.0750
v 391.0750 0.0000 -48.9250
v 391.0750 3.0000 -48.9250
v 391.0750 3.0000 -46.0750
v 396.0750 0.0000 -48.9250
v 398.9250 0.0000 -48.9250
v 398.9250 0.0000 -46.0750
v 396.0750 0.0000 -46.0750
v 396.0750 3.0000 -48.9250
v 398.9250 3.0000 -48.9250
v 398.9250 3.0000 -46.0750
v 396.0750 3.0000 -46.0750
v 401.0750 0.0000 -48.9250
v 401.0750 0.0000 -46.0750
v 403.9250 0.0000 -46.0750
v 403.9250 0.0000 -48.9250
v 401.0750 3.0000 -48.9250
v 403.9250 3.0000 -48.9250
v 403.9250 3.0000 -46.0750
v 401.0750 3.0000 -46.0750
v 401.0750 0.0000 -48.9250
v 403.9250 0.0000 -48.9250
v 403.9250 3.0000 -48.9250
v 401.0750 3.0000 -48.9250
v 403.9250 0.0000 -46.0750
v 401.0750 0.0000 -46.0750
v 401.0750 3.0000 -46.0750
v 403.9250 3.0000 -46.0750
v 403.9250 0.0000 -48.9250
v 403.9250 0.0000 -46.0750
v 403.9250 3.0000 -46.0750
v 403.9250 3.0000 -48.9250
v 401.0750 0.0000 -46.0750
v 401.0750 0.0000 -48.9250
v 401.0750 3.0000 -48.9250
v 401.0750 3.0000 -46.0750
v 381.0750 0.0000 -46.4250
v 381.0750 0.0000 -43.5750
v 383.9250 0.0000 -43.5750
v 383.9250 0.0000 -46.4250
v 381.0750 3.0000 -46.4250
v 383.9250 3.0000 -46.4250
v 383.9250 3.0000 -43.5750
v 381.0750 3.0000 -43.5750
v 381.0750 0.0000 -46.4250
v 383.9250 0.0000 -46.4250
v 383.9250 3.0000 -46.4250
v 381.0750 3.0000 -46.4250
v 383.9250 0.0000 -43.5750
v 381.0750 0.0000 -43.5750
v 381.0750 3.0000 -43.5750
v 383.9250 3.0000 -43.5750
v 383.9250 0.0000 -46.4250
v 383.9250 0.0000 -43.5750
v 383.9250 3.0000 -43.5750
v 383.9250 3.0000 -46.4250
v 381.0750 0.0000 -43.5750
v 381.0750 0.0000 -46.4250
v 381.0750 3.0000 -46.4250
v 381.0750 3.0000 -43.5750
v 391.0750 0.0000 -46.4250
v 393.9250 0.0000 -46.4250
v 393.9250 0.0000 -43.5750
v 391.0750 0.0000 -43.5750
v 391.0750 3.0000 -46.4250
v 393.9250 3.0000 -46.4250
v 393.9250 3.0000 -43.5750
v 391.0750 3.0000 -43.5750
v 396.0750 0.0000 -46.4250
v 396.0750 0.0000 -43.5750
v 398.9250 0.0000 -43.5750
v 398.9250 0.0000 -46.4250
v 396.0750 3.0000 -46.4250
v 398.9250 3.0000 -46.4250
v 398.9250 3.0000 -43.5750
v 396.0750 3.0000 -43.5750
v 396.0750 0.0000 -46.4250
v 398.9250 0.0000 -46.4250
v 398.9250 3.0000 -46.4250
v 396.0750 3.0000 -46.4250
v 398.9250 0.0000 -43.5750
v 396.0750 0.0000 -43.5750
v 396.0750 3.0000 -43.5750
v 398.9250 3.0000 -43.5750
v 398.9250 0.0000 -46.4250
v 398.9250 0.0000 -43.5750
v 398.9250 3.0000 -43.5750
v 398.9250 3.0000 -46.4250
v 396.0750 0.0000 -43.5750
v 396.0750 0.0000 -46.4250
v 396.0750 3.0000 -46.4250
v 396.0750 3.0000 -43.5750
v 376.0750 0.0000 -43.9250
v 376.0750 0.0000 -41.0750
v 378.9250 0.0000 -41.0750
v 378.9250 0.0000 -43.9250
v 376.0750 3.0000 -43.9250
v 378.9250 3.0000 -43.9250
v 378.9250 3.0000 -41.0750
v 376.0750 3.0000 -41.0750
v 376.0750 0.0000 -43.9250
v 378.9250 0.0000 -43.9250
v 378.9250 3.0000 -43.9250
v 376.0750 3.0000 -43.9250
v 378.9250 0.0000 -41.0750
v 376.0750 0.0000 -41.0750
v 376.0750 3.0000 -41.0750
v 378.9250 3.0000 -41.0750
v 378.9250 0.0000 -43.9250
v 378.9250 0.0000 -41.0750
v 378.9250 3.0000 -41.0750
v 378.9250 3.0000 -43.9250
v 376.0750 0.0000 -41.0750
v 376.0750 0.0000 -43.9250
v 376.0750 3.0000 -43.9250
v 376.0750 3.0000 -41.0750
v 381.0750 0.0000 -43.9250
v 381.0750 0.0000 -41.0750
v 383.9250 0.0000 -41.0750
v 383.9250 0.0000 -43.9250
v 381.0750 3.0000 -43.9250
v 383.9250 3.0000 -43.9250
v 383.9250 3.0000 -41.0750
v 381.0750 3.0000 -41.0750
v 381.0750 0.0000 -43.9250
v 383.9250 0.0000 -43.9250
v 383.9250 3.0000 -43.9250
v 381.0750 3.0000 -43.9250
v 383.9250 0.0000 -41.0750
v 381.0750 0.0000 -41.0750
v 381.0750 3.0000 -41.0750
v 383.9250 3.0000 -41.0750
v 383.9250 0.0000 -43.9250
v 383.9250 0.0000 -41.0750
v 383.9250 3.0000 -41.0750
v 383.9250 3.0000 -43.9250
v 381.0750 0.0000 -41.0750
v 381.0750 0.0000 -43.9250
v 381.0750 3.0000 -43.9250
v 381.0750 3.0000 -41.0750
v 386.0750 0.0000 -43.9250
v 386.0750 0.0000 -41.0750
v 388.9250 0.0000 -41.0750
v 388.9250 0.0000 -43.9250
v 386.0750 3.0000 -43.9250
v 388.9250 3.0000 -43.9250
v 388.9250 3.0000 -41.0750
v 386.0750 3.0000 -41.0750
v 386.0750 0.0000 -43.9250
v 388.9250 0.0000 -43.9250
v 388.9250 3.0000 -43.9250
v 386.0750 3.0000 -43.9250
v 388.9250 0.0000 -41.0750
v 386.0750 0.0000 -41.0750
v 386.0750 3.0000 -41.0750
v 388.9250 3.0000 -41.0750
v 388.9250 0.0000 -43.9250
v 388.9250 0.0000 -41.0750
v 388.9250 3.0000 -41.0750
v 388.9250 3.0000 -43.9250
v 386.0750 0.0000 -41.0750
v 386.0750 0.0000 -43.9250
v 386.0750 3.0000 -43.9250
v 386.0750 3.0000 -41.0750
v 391.0750 0.0000 -43.9250
v 391.0750 0.0000 -41.0750
v 393.9250 0.0000 -41.0750
v 393.9250 0.0000 -43.9250
v 391.0750 3.0000 -43.9250
v 393.9250 3.0000 -43.9250
v 393.9250 3.0000 -41.0750
v 391.0750 3.0000 -41.0750
v 391.0750 0.0000 -43.9250
v 393.9250 0.0000 -43.9250
v 393.9250 3.0000 -43.9250
v 391.0750 3.0000 -43.9250
v 393.9250 0.0000 -41.0750
v 391.0750 0.0000 -41.0750
v 391.0750 3.0000 -41.0750
v 393.9250 3.0000 -41.0750
v 393.9250 0.0000 -43.9250
v 393.9250 0.0000 -41.0750
v 393.9250 3.0000 -41.0750
v 393.9250 3.0000 -43.9250
v 391.0750 0.0000 -41.0750
v 391.0750 0.0000 -43.9250
v 391.0750 3.0000 -43.9250
v 391.0750 3.0000 -41.0750
v 396.0750 0.0000 -43.9250
v 398.9250 0.0000 -43.9250
v 398.9250 0.0000 -41.0750
v 396.0750 0.0000 -41.0750
v 396.0750 3.0000 -43.9250
v 398.9250 3.0000 -43.9250
v 398.9250 3.0000 -41.0750
v 396.0750 3.0000 -41.0750
v 401.0750 0.0000 -43.9250
v 401.0750 0.0000 -41.0750
v 403.9250 0.0000 -41.0750
v 403.9250 0.0000 -43.9250
v 401.0750 3.0000 -43.9250
v 403.9250 3.0000 -43.9250
v 403.9250 3.0000 -41.0750
v 401.0750 3.0000 -41.0750
v 401.0750 0.0000 -43.9250
v 403.9250 0.0000 -43.9250
v 403.9250 3.0000 -43.9250
v 401.0750 3.0000 -43.9250
v 403.9250 0.0000 -41.0750
v 401.0750 0.0000 -41.0750
v 401.0750 3.0000 -41.0750
v 403.9250 3.0000 -41.0750
v 403.9250 0.0000 -43.9250
v 403.9250 0.0000 -41.0750
v 403.9250 3.0000 -41.0750
v 403.9250 3.0000 -43.9250
v 401.0750 0.0000 -41.0750
v 401.0750 0.0000 -43.9250
v 401.0750 3.0000 -43.9250
v 401.0750 3.0000 -41.0750
v 403.5750 0.0000 -43.9250
v 403.5750 0.0000 -41.0750
v 406.4250 0.0000 -41.0750
v 406.4250 0.0000 -43.9250
v 403.5750 3.0000 -43.9250
v 406.4250 3.0000 -43.9250
v 406.4250 3.0000 -41.0750
v 403.5750 3.0000 -41.0750
v 403.5750 0.0000 -43.9250
v 406.4250 0.0000 -43.9250
v 406.4250 3.0000 -43.9250
v 403.5750 3.0000 -43.9250
v 406.4250 0.0000 -41.0750
v 403.5750 0.0000 -41.0750
v 403.5750 3.0000 -41.0750
v 406.4250 3.0000 -41.0750
v 406.4250 0.0000 -43.9250
v 406.4250 0.0000 -41.0750
v 406.4250 3.0000 -41.0750
v 406.4250 3.0000 -43.9250
v 403.5750 0.0000 -41.0750
v 403.5750 0.0000 -43.9250
v 403.5750 3.0000 -43.9250
v 403.5750 3.0000 -41.0750
v 391.0750 0.0000 -41.4250
v 391.0750 0.0000 -38.5750
v 393.9250 0.0000 -38.5750
v 393.9250 0.0000 -41.4250
v 391.0750 3.0000 -41.4250
v 393.9250 3.0000 -41.4250
v 393.9250 3.0000 -38.5750
v 391.0750 3.0000 -38.5750
v 391.0750 0.0000 -41.4250
v 393.9250 0.0000 -41.4250
v 393.9250 3.0000 -41.4250
v 391.0750 3.0000 -41.4250
v 393.9250 0.0000 -38.5750
v 391.0750 0.0000 -38.5750
v 391.0750 3.0000 -38.5750
v 393.9250 3.0000 -38.5750
v 393.9250 0.0000 -41.4250
v 393.9250 0.0000 -38.5750
v 393.9250 3.0000 -38.5750
v 393.9250 3.0000 -41.4250
v 391.0750 0.0000 -38.5750
v 391.0750 0.0000 -41.4250
v 391.0750 3.0000 -41.4250
v 391.0750 3.0000 -38.5750
v 401.0750 0.0000 -41.4250
v 401.0750 0.0000 -38.5750
v 403.9250 0.0000 -38.5750
v 403.9250 0.0000 -41.4250
v 401.0750 3.0000 -41.4250
v 403.9250 3.0000 -41.4250
v 403.9250 3.0000 -38.5750
v 401.0750 3.0000 -38.5750
v 401.0750 0.0000 -41.4250
v 403.9250 0.0000 -41.4250
v 403.9250 3.0000 -41.4250
v 401.0750 3.0000 -41.4250
v 403.9250 0.0000 -38.5750
v 401.0750 0.0000 -38.5750
v 401.0750 3.0000 -38.5750
v 403.9250 3.0000 -38.5750
v 403.9250 0.0000 -41.4250
v 403.9250 0.0000 -38.5750
v 403.9250 3.0000 -38.5750
v 403.9250 3.0000 -41.4250
v 401.0750 0.0000 -38.5750
v 401.0750 0.0000 -41.4250
v 401.0750 3.0000 -41.4250
v 401.0750 3.0000 -38.5750
v 376.0750 0.0000 -38.9250
v 376.0750 0.0000 -36.0750
v 378.9250 0.0000 -36.0750
v 378.9250 0.0000 -38.9250
v 376.0750 3.0000 -38.9250
v 378.9250 3.0000 -38.9250
v 378.9250 3.0000 -36.0750
v 376.0750 3.0000 -36.0750
v 376.0750 0.0000 -38.9250
v 378.9250 0.0000 -38.9250
v 378.9250 3.0000 -38.9250
v 376.0750 3.0000 -38.9250
v 378.9250 0.0000 -36.0750
v 376.0750 0.0000 -36.0750
v 376.0750 3.0000 -36.0750
v 378.9250 3.0000 -36.0750
v 378.9250 0.0000 -38.9250
v 378.9250 0.0000 -36.0750
v 378.9250 3.0000 -36.0750
v 378.9250 3.0000 -38.9250
v 376.0750 0.0000 -36.0750
v 376.0750 0.0000 -38.9250
v 376.0750 3.0000 -38.9250
v 376.0750 3.0000 -36.0750
v 386.0750 0.0000 -38.9250
v 386.0750 0.0000 -36.0750
v 388.9250 0.0000 -36.0750
v 388.9250 0.0000 -38.9250
v 386.0750 3.0000 -38.9250
v 388.9250 3.0000 -38.9250
v 388.9250 3.0000 -36.0750
v 386.0750 3.0000 -36.0750
v 386.0750 0.0000 -38.9250
v 388.9250 0.0000 -38.9250
v 388.9250 3.0000 -38.9250
v 386.0750 3.0000 -38.9250
v 388.9250 0.0000 -36.0750
v 386.0750 0.0000 -36.0750
v 386.0750 3.0000 -36.0750
v 388.9250 3.0000 -36.0750
v 388.9250 0.0000 -38.9250
v 388.9250 0.0000 -36.0750
v 388.9250 3.0000 -36.0750
v 388.9250 3.0000 -38.9250
v 386.0750 0.0000 -36.0750
v 386.0750 0.0000 -38.9250
v 386.0750 3.0000 -38.9250
v 386.0750 3.0000 -36.0750
v 388.5750 0.0000 -38.9250
v 388.5750 0.0000 -36.0750
v 391.4250 0.0000 -36.0750
v 391.4250 0.0000 -38.9250
v 388.5750 3.0000 -38.9250
v 391.4250 3.0000 -38.9250
v 391.4250 3.0000 -36.0750
v 388.5750 3.0000 -36.0750
v 388.5750 0.0000 -38.9250
v 391.4250 0.0000 -38.9250
v 391.4250 3.0000 -38.9250
v 388.5750 3.0000 -38.9250
v 391.4250 0.0000 -36.0750
v 388.5750 0.0000 -36.0750
v 388.5750 3.0000 -36.0750
v 391.4250 3.0000 -36.0750
v 391.4250 0.0000 -38.9250
v 391.4250 0.0000 -36.0750
v 391.4250 3.0000 -36.0750
v 391.4250 3.0000 -38.9250
v 388.5750 0.0000 -36.0750
v 388.5750 0.0000 -38.9250
v 388.5750 3.0000 -38.9250
v 388.5750 3.0000 -36.0750
v 391.0750 0.0000 -38.9250
v 391.0750 0.0000 -36.0750
v 393.9250 0.0000 -36.0750
v 393.9250 0.0000 -38.9250
v 391.0750 3.0000 -38.9250
v 393.9250 3.0000 -38.9250
v 393.9250 3.0000 -36.0750
v 391.0750 3.0000 -36.0750
v 391.0750 0.0000 -38.9250
v 393.9250 0.0000 -38.9250
v 393.9250 3.0000 -38.9250
v 391.0750 3.0000 -38.9250
v 393.9250 0.0000 -36.0750
v 391.0750 0.0000 -36.0750
v 391.0750 3.0000 -36.0750
v 393.9250 3.0000 -36.0750
v 393.9250 0.0000 -38.9250
v 393.9250 0.0000 -36.0750
v 393.9250 3.0000 -36.0750
v 393.9250 3.0000 -38.9250
v 391.0750 0.0000 -36.0750
v 391.0750 0.0000 -38.9250
v 391.0750 3.0000 -38.9250
v 391.0750 3.0000 -36.0750
v 393.5750 0.0000 -38.9250
v 393.5750 0.0000 -36.0750
v 396.4250 0.0000 -36.0750
v 396.4250 0.0000 -38.9250
v 393.5750 3.0000 -38.9250
v 396.4250 3.0000 -38.9250
v 396.4250 3.0000 -36.0750
v 393.5750 3.0000 -36.0750
v 393.5750 0.0000 -38.9250
v 396.4250 0.0000 -38.9250
v 396.4250 3.0000 -38.9250
v 393.5750 3.0000 -38.9250
v 396.4250 0.0000 -36.0750
v 393.5750 0.0000 -36.0750
v 393.5750 3.0000 -36.0750
v 396.4250 3.0000 -36.0750
v 396.4250 0.0000 -38.9250
v 396.4250 0.0000 -36.0750
v 396.4250 3.0000 -36.0750
v 396.4250 3.0000 -38.9250
v 393.5750 0.0000 -36.0750
v 393.5750 0.0000 -38.9250
v 393.5750 3.0000 -38.9250
v 393.5750 3.0000 -36.0750
v 396.0750 0.0000 -38.9250
v 396.0750 0.0000 -36.0750
v 398.9250 0.0000 -36.0750
v 398.9250 0.0000 -38.9250
v 396.0750 3.0000 -38.9250
v 398.9250 3.0000 -38.9250
v 398.9250 3.0000 -36.0750
v 396.0750 3.0000 -36.0750
v 396.0750 0.0000 -38.9250
v 398.9250 0.0000 -38.9250
v 398.9250 3.0000 -38.9250
v 396.0750 3.0000 -38.9250
v 398.9250 0.0000 -36.0750
v 396.0750 0.0000 -36.0750
v 396.0750 3.0000 -36.0750
v 398.9250 3.0000 -36.0750
v 398.9250 0.0000 -38.9250
v 398.9250 0.0000 -36.0750
v 398.9250 3.0000 -36.0750
v 398.9250 3.0000 -38.9250
v 396.0750 0.0000 -36.0750
v 396.0750 0.0000 -38.9250
v 396.0750 3.0000 -38.9250
v 396.0750 3.0000 -36.0750
v 401.0750 0.0000 -38.9250
v 401.0750 0.0000 -36.0750
v 403.9250 0.0000 -36.0750
v 403.9250 0.0000 -38.9250
v 401.0750 3.0000 -38.9250
v 403.9250 3.0000 -38.9250
v 403.9250 3.0000 -36.0750
v 401.0750 3.0000 -36.0750
v 401.0750 0.0000 -38.9250
v 403.9250 0.0000 -38.9250
v 403.9250 3.0000 -38.9250
v 401.0750 3.0000 -38.9250
v 403.9250 0.0000 -36.0750
v 401.0750 0.0000 -36.0750
v 401.0750 3.0000 -36.0750
v 403.9250 3.0000 -36.0750
v 403.9250 0.0000 -38.9250
v 403.9250 0.0000 -36.0750
v 403.9250 3.0000 -36.0750
v 403.9250 3.0000 -38.9250
v 401.0750 0.0000 -36.0750
v 401.0750 0.0000 -38.9250
v 401.0750 3.0000 -38.9250
v 401.0750 3.0000 -36.0750
v 403.5750 0.0000 -38.9250
v 403.5750 0.0000 -36.0750
v 406.4250 0.0000 -36.0750
v 406.4250 0.0000 -38.9250
v 403.5750 3.0000 -38.9250
v 406.4250 3.0000 -38.9250
v 406.4250 3.0000 -36.0750
v 403.5750 3.0000 -36.0750
v 403.5750 0.0000 -38.9250
v 406.4250 0.0000 -38.9250
v 406.4250 3.0000 -38.9250
v 403.5750 3.0000 -38.9250
v 406.4250 0.0000 -36.0750
v 403.5750 0.0000 -36.0750
v 403.5750 3.0000 -36.0750
v 406.4250 3.0000 -36.0750
v 406.4250 0.0000 -38.9250
v 406.4250 0.0000 -36.0750
v 406.4250 3.0000 -36.0750
v 406.4250 3.0000 -38.9250
v 403.5750 0.0000 -36.0750
v 403.5750 0.0000 -38.9250
v 403.5750 3.0000 -38.9250
v 403.5750 3.0000 -36.0750
v 386.0750 0.0000 -36.4250
v 388.9250 0.0000 -36.4250
v 388.9250 0.0000 -33.5750
v 386.0750 0.0000 -33.5750
v 386.0750 3.0000 -36.4250
v 388.9250 3.0000 -36.4250
v 388.9250 3.0000 -33.5750
v 386.0750 3.0000 -33.5750
v 376.0750 0.0000 -33.9250
v 376.0750 0.0000 -31.0750
v 378.9250 0.0000 -31.0750
v 378.9250 0.0000 -33.9250
v 376.0750 3.0000 -33.9250
v 378.9250 3.0000 -33.9250
v 378.9250 3.0000 -31.0750
v 376.0750 3.0000 -31.0750
v 376.0750 0.0000 -33.9250
v 378.9250 0.0000 -33.9250
v 378.9250 3.0000 -33.9250
v 376.0750 3.0000 -33.9250
v 378.9250 0.0000 -31.0750
v 376.0750 0.0000 -31.0750
v 376.0750 3.0000 -31.0750
v 378.9250 3.0000 -31.0750
v 378.9250 0.0000 -33.9250
v 378.9250 0.0000 -31.0750
v 378.9250 3.0000 -31.0750
v 378.9250 3.0000 -33.9250
v 376.0750 0.0000 -31.0750
v 376.0750 0.0000 -33.9250
v 376.0750 3.0000 -33.9250
v 376.0750 3.0000 -31.0750
v 381.0750 0.0000 -33.9250
v 381.0750 0.0000 -31.0750
v 383.9250 0.0000 -31.0750
v 383.9250 0.0000 -33.9250
v 381.0750 3.0000 -33.9250
v 383.9250 3.0000 -33.9250
v 383.9250 3.0000 -31.0750
v 381.0750 3.0000 -31.0750
v 381.0750 0.0000 -33.9250
v 383.9250 0.0000 -33.9250
v 383.9250 3.0000 -33.9250
v 381.0750 3.0000 -33.9250
v 383.9250 0.0000 -31.0750
v 381.0750 0.0000 -31.0750
v 381.0750 3.0000 -31.0750
v 383.9250 3.0000 -31.0750
v 383.9250 0.0000 -33.9250
v 383.9250 0.0000 -31.0750
v 383.9250 3.0000 -31.0750
v 383.9250 3.0000 -33.9250
v 381.0750 0.0000 -31.0750
v 381.0750 0.0000 -33.9250
v 381.0750 3.0000 -33.9250
v 381.0750 3.0000 -31.0750
v 383.5750 0.0000 -33.9250
v 383.5750 0.0000 -31.0750
v 386.4250 0.0000 -31.0750
v 386.4250 0.0000 -33.9250
v 383.5750 3.0000 -33.9250
v 386.4250 3.0000 -33.9250
v 386.4250 3.0000 -31.0750
v 383.5750 3.0000 -31.0750
v 383.5750 0.0000 -33.9250
v 386.4250 0.0000 -33.9250
v 386.4250 3.0000 -33.9250
v 383.5750 3.0000 -33.9250
v 386.4250 0.0000 -31.0750
v 383.5750 0.0000 -31.0750
v 383.5750 3.0000 -31.0750
v 386.4250 3.0000 -31.0750
v 386.4250 0.0000 -33.9250
v 386.4250 0.0000 -31.0750
v 386.4250 3.0000 -31.0750
v 386.4250 3.0000 -33.9250
v 383.5750 0.0000 -31.0750
v 383.5750 0.0000 -33.9250
v 383.5750 3.0000 -33.9250
v 383.5750 3.0000 -31.0750
v 386.0750 0.0000 -33.9250
v 386.0750 0.0000 -31.0750
v 388.9250 0.0000 -31.0750
v 388.9250 0.0000 -33.9250
v 386.0750 3.0000 -33.9250
v 388.9250 3.0000 -33.9250
v 388.9250 3.0000 -31.0750
v 386.0750 3.0000 -31.0750
v 386.0750 0.0000 -33.9250
v 388.9250 0.0000 -33.9250
v 388.9250 3.0000 -33.9250
v 386.0750 3.0000 -33.9250
v 388.9250 0.0000 -31.0750
v 386.0750 0.0000 -31.0750
v 386.0750 3.0000 -31.0750
v 388.9250 3.0000 -31.0750
v 388.9250 0.0000 -33.9250
v 388.9250 0.0000 -31.0750
v 388.9250 3.0000 -31.0750
v 388.9250 3.0000 -33.9250
v 386.0750 0.0000 -31.0750
v 386.0750 0.0000 -33.9250
v 386.0750 3.0000 -33.9250
v 386.0750 3.0000 -31.0750
v 391.0750 0.0000 -33.9250
v 391.0750 0.0000 -31.0750
v 393.9250 0.0000 -31.0750
v 393.9250 0.0000 -33.9250
v 391.0750 3.0000 -33.9250
v 393.9250 3.0000 -33.9250
v 393.9250 3.0000 -31.0750
v 391.0750 3.0000 -31.0750
v 391.0750 0.0000 -33.9250
v 393.9250 0.0000 -33.9250
v 393.9250 3.0000 -33.9250
v 391.0750 3.0000 -33.9250
v 393.9250 0.0000 -31.0750
v 391.0750 0.0000 -31.0750
v 391.0750 3.0000 -31.0750
v 393.9250 3.0000 -31.0750
v 393.9250 0.0000 -33.9250
v 393.9250 0.0000 -31.0750
v 393.9250 3.0000 -31.0750
v 393.9250 3.0000 -33.9250
v 391.0750 0.0000 -31.0750
v 391.0750 0.0000 -33.9250
v 391.0750 3.0000 -33.9250
v 391.0750 3.0000 -31.0750
v 393.5750 0.0000 -33.9250
v 393.5750 0.0000 -31.0750
v 396.4250 0.0000 -31.0750
v 396.4250 0.0000 -33.9250
v 393.5750 3.0000 -33.9250
v 396.4250 3.0000 -33.9250
v 396.4250 3.0000 -31.0750
v 393.5750 3.0000 -31.0750
v 393.5750 0.0000 -33.9250
v 396.4250 0.0000 -33.9250
v 396.4250 3.0000 -33.9250
v 393.5750 3.0000 -33.9250
v 396.4250 0.0000 -31.0750
v 393.5750 0.0000 -31.0750
v 393.5750 3.0000 -31.0750
v 396.4250 3.0000 -31.0750
v 396.4250 0.0000 -33.9250
v 396.4250 0.0000 -31.0750
v 396.4250 3.0000 -31.0750
v 396.4250 3.0000 -33.9250
v 393.5750 0.0000 -31.0750
v 393.5750 0.0000 -33.9250
v 393.5750 3.0000 -33.9250
v 393.5750 3.0000 -31.0750
v 396.0750 0.0000 -33.9250
v 396.0750 0.0000 -31.0750
v 398.9250 0.0000 -31.0750
v 398.9250 0.0000 -33.9250
v 396.0750 3.0000 -33.9250
v 398.9250 3.0000 -33.9250
v 398.9250 3.0000 -31.0750
v 396.0750 3.0000 -31.0750
v 396.0750 0.0000 -33.9250
v 398.9250 0.0000 -33.9250
v 398.9250 3.0000 -33.9250
v 396.0750 3.0000 -33.9250
v 398.9250 0.0000 -31.0750
v 396.0750 0.0000 -31.0750
v 396.0750 3.0000 -31.0750
v 398.9250 3.0000 -31.0750
v 398.9250 0.0000 -33.9250
v 398.9250 0.0000 -31.0750
v 398.9250 3.0000 -31.0750
v 398.9250 3.0000 -33.9250
v 396.0750 0.0000 -31.0750
v 396.0750 0.0000 -33.9250
v 396.0750 3.0000 -33.9250
v 396.0750 3.0000 -31.0750
v 398.5750 0.0000 -33.9250
v 398.5750 0.0000 -31.0750
v 401.4250 0.0000 -31.0750
v 401.4250 0.0000 -33.9250
v 398.5750 3.0000 -33.9250
v 401.4250 3.0000 -33.9250
v 401.4250 3.0000 -31.0750
v 398.5750 3.0000 -31.0750
v 398.5750 0.0000 -33.9250
v 401.4250 0.0000 -33.9250
v 401.4250 3.0000 -33.9250
v 398.5750 3.0000 -33.9250
v 401.4250 0.0000 -31.0750
v 398.5750 0.0000 -31.0750
v 398.5750 3.0000 -31.0750
v 401.4250 3.0000 -31.0750
v 401.4250 0.0000 -33.9250
v 401.4250 0.0000 -31.0750
v 401.4250 3.0000 -31.0750
v 401.4250 3.0000 -33.9250
v 398.5750 0.0000 -31.0750
v 398.5750 0.0000 -33.9250
v 398.5750 3.0000 -33.9250
v 398.5750 3.0000 -31.0750
v 401.0750 0.0000 -33.9250
v 403.9250 0.0000 -33.9250
v 403.9250 0.0000 -31.0750
v 401.0750 0.0000 -31.0750
v 401.0750 3.0000 -33.9250
v 403.9250 3.0000 -33.9250
v 403.9250 3.0000 -31.0750
v 401.0750 3.0000 -31.0750
v 403.5750 0.0000 -33.9250
v 403.5750 0.0000 -31.0750
v 406.4250 0.0000 -31.0750
v 406.4250 0.0000 -33.9250
v 403.5750 3.0000 -33.9250
v 406.4250 3.0000 -33.9250
v 406.4250 3.0000 -31.0750
v 403.5750 3.0000 -31.0750
v 403.5750 0.0000 -33.9250
v 406.4250 0.0000 -33.9250
v 406.4250 3.0000 -33.9250
v 403.5750 3.0000 -33.9250
v 406.4250 0.0000 -31.0750
v 403.5750 0.0000 -31.0750
v 403.5750 3.0000 -31.0750
v 406.4250 3.0000 -31.0750
v 406.4250 0.0000 -33.9250
v 406.4250 0.0000 -31.0750
v 406.4250 3.0000 -31.0750
v 406.4250 3.0000 -33.9250
v 403.5750 0.0000 -31.0750
v 403.5750 0.0000 -33.9250
v 403.5750 3.0000 -33.9250
v 403.5750 3.0000 -31.0750
v 376.0750 0.0000 -31.4250
v 376.0750 0.0000 -28.5750
v 378.9250 0.0000 -28.5750
v 378.9250 0.0000 -31.4250
v 376.0750 3.0000 -31.4250
v 378.9250 3.0000 -31.4250
v 378.9250 3.0000 -28.5750
v 376.0750 3.0000 -28.5750
v 376.0750 0.0000 -31.4250
v 378.9250 0.0000 -31.4250
v 378.9250 3.0000 -31.4250
v 376.0750 3.0000 -31.4250
v 378.9250 0.0000 -28.5750
v 376.0750 0.0000 -28.5750
v 376.0750 3.0000 -28.5750
v 378.9250 3.0000 -28.5750
v 378.9250 0.0000 -31.4250
v 378.9250 0.0000 -28.5750
v 378.9250 3.0000 -28.5750
v 378.9250 3.0000 -31.4250
v 376.0750 0.0000 -28.5750
v 376.0750 0.0000 -31.4250
v 376.0750 3.0000 -31.4250
v 376.0750 3.0000 -28.5750
v 386.0750 0.0000 -31.4250
v 386.0750 0.0000 -28.5750
v 388.9250 0.0000 -28.5750
v 388.9250 0.0000 -31.4250
v 386.0750 3.0000 -31.4250
v 388.9250 3.0000 -31.4250
v 388.9250 3.0000 -28.5750
v 386.0750 3.0000 -28.5750
v 386.0750 0.0000 -31.4250
v 388.9250 0.0000 -31.4250
v 388.9250 3.0000 -31.4250
v 386.0750 3.0000 -31.4250
v 388.9250 0.0000 -28.5750
v 386.0750 0.0000 -28.5750
v 386.0750 3.0000 -28.5750
v 388.9250 3.0000 -28.5750
v 388.9250 0.0000 -31.4250
v 388.9250 0.0000 -28.5750
v 388.9250 3.0000 -28.5750
v 388.9250 3.0000 -31.4250
v 386.0750 0.0000 -28.5750
v 386.0750 0.0000 -31.4250
v 386.0750 3.0000 -31.4250
v 386.0750 3.0000 -28.5750
v 396.0750 0.0000 -31.4250
v 396.0750 0.0000 -28.5750
v 398.9250 0.0000 -28.5750
v 398.9250 0.0000 -31.4250
v 396.0750 3.0000 -31.4250
v 398.9250 3.0000 -31.4250
v 398.9250 3.0000 -28.5750
v 396.0750 3.0000 -28.5750
v 396.0750 0.0000 -31.4250
v 398.9250 0.0000 -31.4250
v 398.9250 3.0000 -31.4250
v 396.0750 3.0000 -31.4250
v 398.9250 0.0000 -28.5750
v 396.0750 0.0000 -28.5750
v 396.0750 3.0000 -28.5750
v 398.9250 3.0000 -28.5750
v 398.9250 0.0000 -31.4250
v 398.9250 0.0000 -28.5750
v 398.9250 3.0000 -28.5750
v 398.9250 3.0000 -31.4250
v 396.0750 0.0000 -28.5750
v 396.0750 0.0000 -31.4250
v 396.0750 3.0000 -31.4250
v 396.0750 3.0000 -28.5750
v 376.0750 0.0000 -28.9250
v 376.0750 0.0000 -26.0750
v 378.9250 0.0000 -26.0750
v 378.9250 0.0000 -28.9250
v 376.0750 3.0000 -28.9250
v 378.9250 3.0000 -28.9250
v 378.9250 3.0000 -26.0750
v 376.0750 3.0000 -26.0750
v 376.0750 0.0000 -28.9250
v 378.9250 0.0000 -28.9250
v 378.9250 3.0000 -28.9250
v 376.0750 3.0000 -28.9250
v 378.9250 0.0000 -26.0750
v 376.0750 0.0000 -26.0750
v 376.0750 3.0000 -26.0750
v 378.9250 3.0000 -26.0750
v 378.9250 0.0000 -28.9250
v 378.9250 0.0000 -26.0750
v 378.9250 3.0000 -26.0750
v 378.9250 3.0000 -28.9250
v 376.0750 0.0000 -26.0750
v 376.0750 0.0000 -28.9250
v 376.0750 3.0000 -28.9250
v 376.0750 3.0000 -26.0750
v 378.5750 0.0000 -28.9250
v 378.5750 0.0000 -26.0750
v 381.4250 0.0000 -26.0750
v 381.4250 0.0000 -28.9250
v 378.5750 3.0000 -28.9250
v 381.4250 3.0000 -28.9250
v 381.4250 3.0000 -26.0750
v 378.5750 3.0000 -26.0750
v 378.5750 0.0000 -28.9250
v 381.4250 0.0000 -28.9250
v 381.4250 3.0000 -28.9250
v 378.5750 3.0000 -28.9250
v 381.4250 0.0000 -26.0750
v 378.5750 0.0000 -26.0750
v 378.5750 3.0000 -26.0750
v 381.4250 3.0000 -26.0750
v 381.4250 0.0000 -28.9250
v 381.4250 0.0000 -26.0750
v 381.4250 3.0000 -26.0750
v 381.4250 3.0000 -28.9250
v 378.5750 0.0000 -26.0750
v 378.5750 0.0000 -28.9250
v 378.5750 3.0000 -28.9250
v 378.5750 3.0000 -26.0750
v 381.0750 0.0000 -28.9250
v 381.0750 0.0000 -26.0750
v 383.9250 0.0000 -26.0750
v 383.9250 0.0000 -28.9250
v 381.0750 3.0000 -28.9250
v 383.9250 3.0000 -28.9250
v 383.9250 3.0000 -26.0750
v 381.0750 3.0000 -26.0750
v 381.0750 0.0000 -28.9250
v 383.9250 0.0000 -28.9250
v 383.9250 3.0000 -28.9250
v 381.0750 3.0000 -28.9250
v 383.9250 0.0000 -26.0750
v 381.0750 0.0000 -26.0750
v 381.0750 3.0000 -26.0750
v 383.9250 3.0000 -26.0750
v 383.9250 0.0000 -28.9250
v 383.9250 0.0000 -26.0750
v 383.9250 3.0000 -26.0750
v 383.9250 3.0000 -28.9250
v 381.0750 0.0000 -26.0750
v 381.0750 0.0000 -28.9250
v 381.0750 3.0000 -28.9250
v 381.0750 3.0000 -26.0750
v 386.0750 0.0000 -28.9250
v 386.0750 0.0000 -26.0750
v 388.9250 0.0000 -26.0750
v 388.9250 0.0000 -28.9250
v 386.0750 3.0000 -28.9250
v 388.9250 3.0000 -28.9250
v 388.9250 3.0000 -26.0750
v 386.0750 3.0000 -26.0750
v 386.0750 0.0000 -28.9250
v 388.9250 0.0000 -28.9250
v 388.9250 3.0000 -28.9250
v 386.0750 3.0000 -28.9250
v 388.9250 0.0000 -26.0750
v 386.0750 0.0000 -26.0750
v 386.0750 3.0000 -26.0750
v 388.9250 3.0000 -26.0750
v 388.9250 0.0000 -28.9250
v 388.9250 0.0000 -26.0750
v 388.9250 3.0000 -26.0750
v 388.9250 3.0000 -28.9250
v 386.0750 0.0000 -26.0750
v 386.0750 0.0000 -28.9250
v 386.0750 3.0000 -28.9250
v 386.0750 3.0000 -26.0750
v 388.5750 0.0000 -28.9250
v 388.5750 0.0000 -26.0750
v 391.4250 0.0000 -26.0750
v 391.4250 0.0000 -28.9250
v 388.5750 3.0000 -28.9250
v 391.4250 3.0000 -28.9250
v 391.4250 3.0000 -26.0750
v 388.5750 3.0000 -26.0750
v 388.5750 0.0000 -28.9250
v 391.4250 0.0000 -28.9250
v 391.4250 3.0000 -28.9250
v 388.5750 3.0000 -28.9250
v 391.4250 0.0000 -26.0750
v 388.5750 0.0000 -26.0750
v 388.5750 3.0000 -26.0750
v 391.4250 3.0000 -26.0750
v 391.4250 0.0000 -28.9250
v 391.4250 0.0000 -26.0750
v 391.4250 3.0000 -26.0750
v 391.4250 3.0000 -28.9250
v 388.5750 0.0000 -26.0750
v 388.5750 0.0000 -28.9250
v 388.5750 3.0000 -28.9250
v 388.5750 3.0000 -26.0750
v 391.0750 0.0000 -28.9250
v 391.0750 0.0000 -26.0750
v 393.9250 0.0000 -26.0750
v 393.9250 0.0000 -28.9250
v 391.0750 3.0000 -28.9250
v 393.9250 3.0000 -28.9250
v 393.9250 3.0000 -26.0750
v 391.0750 3.0000 -26.0750
v 391.0750 0.0000 -28.9250
v 393.9250 0.0000 -28.9250
v 393.9250 3.0000 -28.9250
v 391.0750 3.0000 -28.9250
v 393.9250 0.0000 -26.0750
v 391.0750 0.0000 -26.0750
v 391.0750 3.0000 -26.0750
v 393.9250 3.0000 -26.0750
v 393.9250 0.0000 -28.9250
v 393.9250 0.0000 -26.0750
v 393.9250 3.0000 -26.0750
v 393.9250 3.0000 -28.9250
v 391.0750 0.0000 -26.0750
v 391.0750 0.0000 -28.9250
v 391.0750 3.0000 -28.9250
v 391.0750 3.0000 -26.0750
v 396.0750 0.0000 -28.9250
v 398.9250 0.0000 -28.9250
v 398.9250 0.0000 -26.0750
v 396.0750 0.0000 -26.0750
v 396.0750 3.0000 -28.9250
v 398.9250 3.0000 -28.9250
v 398.9250 3.0000 -26.0750
v 396.0750 3.0000 -26.0750
v 401.0750 0.0000 -28.9250
v 401.0750 0.0000 -26.0750
v 403.9250 0.0000 -26.0750
v 403.9250 0.0000 -28.9250
v 401.0750 3.0000 -28.9250
v 403.9250 3.0000 -28.9250
v 403.9250 3.0000 -26.0750
v 401.0750 3.0000 -26.0750
v 401.0750 0.0000 -28.9250
v 403.9250 0.0000 -28.9250
v 403.9250 3.0000 -28.9250
v 401.0750 3.0000 -28.9250
v 403.9250 0.0000 -26.0750
v 401.0750 0.0000 -26.0750
v 401.0750 3.0000 -26.0750
v 403.9250 3.0000 -26.0750
v 403.9250 0.0000 -28.9250
v 403.9250 0.0000 -26.0750
v 403.9250 3.0000 -26.0750
v 403.9250 3.0000 -28.9250
v 401.0750 0.0000 -26.0750
v 401.0750 0.0000 -28.9250
v 401.0750 3.0000 -28.9250
v 401.0750 3.0000 -26.0750
v 403.5750 0.0000 -28.9250
v 406.4250 0.0000 -28.9250
v 406.4250 0.0000 -26.0750
v 403.5750 0.0000 -26.0750
v 403.5750 3.0000 -28.9250
v 406.4250 3.0000 -28.9250
v 406.4250 3.0000 -26.0750
v 403.5750 3.0000 -26.0750
v 381.0750 0.0000 -26.4250
v 381.0750 0.0000 -23.5750
v 383.9250 0.0000 -23.5750
v 383.9250 0.0000 -26.4250
v 381.0750 3.0000 -26.4250
v 383.9250 3.0000 -26.4250
v 383.9250 3.0000 -23.5750
v 381.0750 3.0000 -23.5750
v 381.0750 0.0000 -26.4250
v 383.9250 0.0000 -26.4250
v 383.9250 3.0000 -26.4250
v 381.0750 3.0000 -26.4250
v 383.9250 0.0000 -23.5750
v 381.0750 0.0000 -23.5750
v 381.0750 3.0000 -23.5750
v 383.9250 3.0000 -23.5750
v 383.9250 0.0000 -26.4250
v 383.9250 0.0000 -23.5750
v 383.9250 3.0000 -23.5750
v 383.9250 3.0000 -26.4250
v 381.0750 0.0000 -23.5750
v 381.0750 0.0000 -26.4250
v 381.0750 3.0000 -26.4250
v 381.0750 3.0000 -23.5750
v 386.0750 0.0000 -26.4250
v 386.0750 0.0000 -23.5750
v 388.9250 0.0000 -23.5750
v 388.9250 0.0000 -26.4250
v 386.0750 3.0000 -26.4250
v 388.9250 3.0000 -26.4250
v 388.9250 3.0000 -23.5750
v 386.0750 3.0000 -23.5750
v 386.0750 0.0000 -26.4250
v 388.9250 0.0000 -26.4250
v 388.9250 3.0000 -26.4250
v 386.0750 3.0000 -26.4250
v 388.9250 0.0000 -23.5750
v 386.0750 0.0000 -23.5750
v 386.0750 3.0000 -23.5750
v 388.9250 3.0000 -23.5750
v 388.9250 0.0000 -26.4250
v 388.9250 0.0000 -23.5750
v 388.9250 3.0000 -23.5750
v 388.9250 3.0000 -26.4250
v 386.0750 0.0000 -23.5750
v 386.0750 0.0000 -26.4250
v 386.0750 3.0000 -26.4250
v 386.0750 3.0000 -23.5750
v 401.0750 0.0000 -26.4250
v 401.0750 0.0000 -23.5750
v 403.9250 0.0000 -23.5750
v 403.9250 0.0000 -26.4250
v 401.0750 3.0000 -26.4250
v 403.9250 3.0000 -26.4250
v 403.9250 3.0000 -23.5750
v 401.0750 3.0000 -23.5750
v 401.0750 0.0000 -26.4250
v 403.9250 0.0000 -26.4250
v 403.9250 3.0000 -26.4250
v 401.0750 3.0000 -26.4250
v 403.9250 0.0000 -23.5750
v 401.0750 0.0000 -23.5750
v 401.0750 3.0000 -23.5750
v 403.9250 3.0000 -23.5750
v 403.9250 0.0000 -26.4250
v 403.9250 0.0000 -23.5750
v 403.9250 3.0000 -23.5750
v 403.9250 3.0000 -26.4250
v 401.0750 0.0000 -23.5750
v 401.0750 0.0000 -26.4250
v 401.0750 3.0000 -26.4250
v 401.0750 3.0000 -23.5750
v 379.8250 2.7600 -50.1750
v 380.1750 2.7600 -50.1750
v 380.1750 2.7600 -49.8250
v 379.8250 2.7600 -49.8250
v 379.8250 2.8800 -50.1750
v 380.1750 2.8800 -50.1750
v 380.1750 2.8800 -49.8250
v 379.8250 2.8800 -49.8250
v 399.8250 2.7600 -50.1750
v 400.1750 2.7600 -50.1750
v 400.1750 2.7600 -49.8250
v 399.8250 2.7600 -49.8250
v 399.8250 2.8800 -50.1750
v 400.1750 2.8800 -50.1750
v 400.1750 2.8800 -49.8250
v 399.8250 2.8800 -49.8250
v 389.8250 2.7600 -45.1750
v 390.1750 2.7600 -45.1750
v 390.1750 2.7600 -44.8250
v 389.8250 2.7600 -44.8250
v 389.8250 2.8800 -45.1750
v 390.1750 2.8800 -45.1750
v 390.1750 2.8800 -44.8250
v 389.8250 2.8800 -44.8250
v 394.8250 2.7600 -45.1750
v 395.1750 2.7600 -45.1750
v 395.1750 2.7600 -44.8250
v 394.8250 2.7600 -44.8250
v 394.8250 2.8800 -45.1750
v 395.1750 2.8800 -45.1750
v 395.1750 2.8800 -44.8250
v 394.8250 2.8800 -44.8250
v 404.8250 2.7600 -45.1750
v 405.1750 2.7600 -45.1750
v 405.1750 2.7600 -44.8250
v 404.8250 2.7600 -44.8250
v 404.8250 2.8800 -45.1750
v 405.1750 2.8800 -45.1750
v 405.1750 2.8800 -44.8250
v 404.8250 2.8800 -44.8250
v 379.8250 2.7600 -40.1750
v 380.1750 2.7600 -40.1750
v 380.1750 2.7600 -39.8250
v 379.8250 2.7600 -39.8250
v 379.8250 2.8800 -40.1750
v 380.1750 2.8800 -40.1750
v 380.1750 2.8800 -39.8250
v 379.8250 2.8800 -39.8250
v 394.8250 2.7600 -40.1750
v 395.1750 2.7600 -40.1750
v 395.1750 2.7600 -39.8250
v 394.8250 2.7600 -39.8250
v 394.8250 2.8800 -40.1750
v 395.1750 2.8800 -40.1750
v 395.1750 2.8800 -39.8250
v 394.8250 2.8800 -39.8250
v 389.8250 2.7600 -35.1750
v 390.1750 2.7600 -35.1750
v 390.1750 2.7600 -34.8250
v 389.8250 2.7600 -34.8250
v 389.8250 2.8800 -35.1750
v 390.1750 2.8800 -35.1750
v 390.1750 2.8800 -34.8250
v 389.8250 2.8800 -34.8250
v 394.8250 2.7600 -35.1750
v 395.1750 2.7600 -35.1750
v 395.1750 2.7600 -34.8250
v 394.8250 2.7600 -34.8250
v 394.8250 2.8800 -35.1750
v 395.1750 2.8800 -35.1750
v 395.1750 2.8800 -34.8250
v 394.8250 2.8800 -34.8250
v 379.8250 2.7600 -30.1750
v 380.1750 2.7600 -30.1750
v 380.1750 2.7600 -29.8250
v 379.8250 2.7600 -29.8250
v 379.8250 2.8800 -30.1750
v 380.1750 2.8800 -30.1750
v 380.1750 2.8800 -29.8250
v 379.8250 2.8800 -29.8250
v 379.8250 2.7600 -25.1750
v 380.1750 2.7600 -25.1750
v 380.1750 2.7600 -24.8250
v 379.8250 2.7600 -24.8250
v 379.8250 2.8800 -25.1750
v 380.1750 2.8800 -25.1750
v 380.1750 2.8800 -24.8250
v 379.8250 2.8800 -24.8250
v 404.8250 2.7600 -25.1750
v 405.1750 2.7600 -25.1750
v 405.1750 2.7600 -24.8250
v 404.8250 2.7600 -24.8250
v 404.8250 2.8800 -25.1750
v 405.1750 2.8800 -25.1750
v 405.1750 2.8800 -24.8250
v 404.8250 2.8800 -24.8250
v 377.6200 2.6000 -47.5000
v 377.6200 2.6000 -47.5000
v 377.5849 2.6000 -47.4151
v 377.5849 2.6000 -47.4151
v 377.5000 2.6000 -47.3800
v 377.5000 2.6000 -47.3800
v 377.4151 2.6000 -47.4151
v 377.4151 2.6000 -47.4151
v 377.3800 2.6000 -47.5000
v 377.3800 2.6000 -47.5000
v 377.4151 2.6000 -47.5849
v 377.4151 2.6000 -47.5849
v 377.5000 2.6000 -47.6200
v 377.5000 2.6000 -47.6200
v 377.5849 2.6000 -47.5849
v 377.5849 2.6000 -47.5849
v 377.5000 2.6000 -47.5000
v 377.5000 2.6000 -47.5000
v 377.5000 2.4800 -47.6200
v 405.0000 2.4800 -47.6200
v 405.0000 2.4800 -47.3800
v 377.5000 2.4800 -47.3800
v 377.5000 2.7200 -47.6200
v 405.0000 2.7200 -47.6200
v 405.0000 2.7200 -47.3800
v 377.5000 2.7200 -47.3800
v 377.6200 2.6000 -42.5000
v 377.6200 2.6000 -42.5000
v 377.5849 2.6000 -42.4151
v 377.5849 2.6000 -42.4151
v 377.5000 2.6000 -42.3800
v 377.5000 2.6000 -42.3800
v 377.4151 2.6000 -42.4151
v 377.4151 2.6000 -42.4151
v 377.3800 2.6000 -42.5000
v 377.3800 2.6000 -42.5000
v 377.4151 2.6000 -42.5849
v 377.4151 2.6000 -42.5849
v 377.5000 2.6000 -42.6200
v 377.5000 2.6000 -42.6200
v 377.5849 2.6000 -42.5849
v 377.5849 2.6000 -42.5849
v 377.5000 2.6000 -42.5000
v 377.5000 2.6000 -42.5000
v 377.5000 2.4800 -42.6200
v 405.0000 2.4800 -42.6200
v 405.0000 2.4800 -42.3800
v 377.5000 2.4800 -42.3800
v 377.5000 2.7200 -42.6200
v 405.0000 2.7200 -42.6200
v 405.0000 2.7200 -42.3800
v 377.5000 2.7200 -42.3800
v 377.6200 2.6000 -37.5000
v 377.6200 2.6000 -37.5000
v 377.5849 2.6000 -37.4151
v 377.5849 2.6000 -37.4151
v 377.5000 2.6000 -37.3800
v 377.5000 2.6000 -37.3800
v 377.4151 2.6000 -37.4151
v 377.4151 2.6000 -37.4151
v 377.3800 2.6000 -37.5000
v 377.3800 2.6000 -37.5000
v 377.4151 2.6000 -37.5849
v 377.4151 2.6000 -37.5849
v 377.5000 2.6000 -37.6200
v 377.5000 2.6000 -37.6200
v 377.5849 2.6000 -37.5849
v 377.5849 2.6000 -37.5849
v 377.5000 2.6000 -37.5000
v 377.5000 2.6000 -37.5000
v 377.5000 2.4800 -37.6200
v 405.0000 2.4800 -37.6200
v 405.0000 2.4800 -37.3800
v 377.5000 2.4800 -37.3800
v 377.5000 2.7200 -37.6200
v 405.0000 2.7200 -37.6200
v 405.0000 2.7200 -37.3800
v 377.5000 2.7200 -37.3800
vt 188.0375 -24.4625
vt 188.0375 -23.0375
vt 189.4625 -23.0375
vt 189.4625 -24.4625
vt 188.0375 -24.4625
vt 189.4625 -24.4625
vt 189.4625 -23.0375
vt 188.0375 -23.0375
vt 188.0375 0.0000
vt 189.4625 0.0000
vt 189.4625 1.5000
vt 188.0375 1.5000
vt 189.4625 0.0000
vt 188.0375 0.0000
vt 188.0375 1.5000
vt 189.4625 1.5000
vt -24.4625 0.0000
vt -23.0375 0.0000
vt -23.0375 1.5000
vt -24.4625 1.5000
vt -23.0375 0.0000
vt -24.4625 0.0000
vt -24.4625 1.5000
vt -23.0375 1.5000
vt 189.2875 -24.4625
vt 189.2875 -23.0375
vt 190.7125 -23.0375
vt 190.7125 -24.4625
vt 189.2875 -24.4625
vt 190.7125 -24.4625
vt 190.7125 -23.0375
vt 189.2875 -23.0375
vt 189.2875 0.0000
vt 190.7125 0.0000
vt 190.7125 1.5000
vt 189.2875 1.5000
vt 190.7125 0.0000
vt 189.2875 0.0000
vt 189.2875 1.5000
vt 190.7125 1.5000
vt -24.4625 0.0000
vt -23.0375 0.0000
vt -23.0375 1.5000
vt -24.4625 1.5000
vt -23.0375 0.0000
vt -24.4625 0.0000
vt -24.4625 1.5000
vt -23.0375 1.5000
vt 190.5375 -24.4625
vt 190.5375 -23.0375
vt 191.9625 -23.0375
vt 191.9625 -24.4625
vt 190.5375 -24.4625
vt 191.9625 -24.4625
vt 191.9625 -23.0375
vt 190.5375 -23.0375
vt 190.5375 0.0000
vt 191.9625 0.0000
vt 191.9625 1.5000
vt 190.5375 1.5000
vt 191.9625 0.0000
vt 190.5375 0.0000
vt 190.5375 1.5000
vt 191.9625 1.5000
vt -24.4625 0.0000
vt -23.0375 0.0000
vt -23.0375 1.5000
vt -24.4625 1.5000
vt -23.0375 0.0000
vt -24.4625 0.0000
vt -24.4625 1.5000
vt -23.0375 1.5000
vt 193.0375 -24.4625
vt 193.0375 -23.0375
vt 194.4625 -23.0375
vt 194.4625 -24.4625
vt 193.0375 -24.4625
vt 194.4625 -24.4625
vt 194.4625 -23.0375
vt 193.0375 -23.0375
vt 193.0375 0.0000
vt 194.4625 0.0000
vt 194.4625 1.5000
vt 193.0375 1.5000
vt 194.4625 0.0000
vt 193.0375 0.0000
vt 193.0375 1.5000
vt 194.4625 1.5000
vt -24.4625 0.0000
vt -23.0375 0.0000
vt -23.0375 1.5000
vt -24.4625 1.5000
vt -23.0375 0.0000
vt -24.4625 0.0000
vt -24.4625 1.5000
vt -23.0375 1.5000
vt 195.5375 -24.4625
vt 195.5375 -23.0375
vt 196.9625 -23.0375
vt 196.9625 -24.4625
vt 195.5375 -24.4625
vt 196.9625 -24.4625
vt 196.9625 -23.0375
vt 195.5375 -23.0375
vt 195.5375 0.0000
vt 196.9625 0.0000
vt 196.9625 1.5000
vt 195.5375 1.5000
vt 196.9625 0.0000
vt 195.5375 0.0000
vt 195.5375 1.5000
vt 196.9625 1.5000
vt -24.4625 0.0000
vt -23.0375 0.0000
vt -23.0375 1.5000
vt -24.4625 1.5000
vt -23.0375 0.0000
vt -24.4625 0.0000
vt -24.4625 1.5000
vt -23.0375 1.5000
vt 200.5375 -24.4625
vt 200.5375 -23.0375
vt 201.9625 -23.0375
vt 201.9625 -24.4625
vt 200.5375 -24.4625
vt 201.9625 -24.4625
vt 201.9625 -23.0375
vt 200.5375 -23.0375
vt 200.5375 0.0000
vt 201.9625 0.0000
vt 201.9625 1.5000
vt 200.5375 1.5000
vt 201.9625 0.0000
vt 200.5375 0.0000
vt 200.5375 1.5000
vt 201.9625 1.5000
vt -24.4625 0.0000
vt -23.0375 0.0000
vt -23.0375 1.5000
vt -24.4625 1.5000
vt -23.0375 0.0000
vt -24.4625 0.0000
vt -24.4625 1.5000
vt -23.0375 1.5000
vt 190.5375 -23.2125
vt 190.5375 -21.7875
vt 191.9625 -21.7875
vt 191.9625 -23.2125
vt 190.5375 -23.2125
vt 191.9625 -23.2125
vt 191.9625 -21.7875
vt 190.5375 -21.7875
vt 190.5375 0.0000
vt 191.9625 0.0000
vt 191.9625 1.5000
vt 190.5375 1.5000
vt 191.9625 0.0000
vt 190.5375 0.0000
vt 190.5375 1.5000
vt 191.9625 1.5000
vt -23.2125 0.0000
vt -21.7875 0.0000
vt -21.7875 1.5000
vt -23.2125 1.5000
vt -21.7875 0.0000
vt -23.2125 0.0000
vt -23.2125 1.5000
vt -21.7875 1.5000
vt 198.0375 -23.2125
vt 198.0375 -21.7875
vt 199.4625 -21.7875
vt 199.4625 -23.2125
vt 198.0375 -23.2125
vt 199.4625 -23.2125
vt 199.4625 -21.7875
vt 198.0375 -21.7875
vt 198.0375 0.0000
vt 199.4625 0.0000
vt 199.4625 1.5000
vt 198.0375 1.5000
vt 199.4625 0.0000
vt 198.0375 0.0000
vt 198.0375 1.5000
vt 199.4625 1.5000
vt -23.2125 0.0000
vt -21.7875 0.0000
vt -21.7875 1.5000
vt -23.2125 1.5000
vt -21.7875 0.0000
vt -23.2125 0.0000
vt -23.2125 1.5000
vt -21.7875 1.5000
vt 188.0375 -21.9625
vt 188.0375 -20.5375
vt 189.4625 -20.5375
vt 189.4625 -21.9625
vt 188.0375 -21.9625
vt 189.4625 -21.9625
vt 189.4625 -20.5375
vt 188.0375 -20.5375
vt 188.0375 0.0000
vt 189.4625 0.0000
vt 189.4625 1.5000
vt 188.0375 1.5000
vt 189.4625 0.0000
vt 188.0375 0.0000
vt 188.0375 1.5000
vt 189.4625 1.5000
vt -21.9625 0.0000
vt -20.5375 0.0000
vt -20.5375 1.5000
vt -21.9625 1.5000
vt -20.5375 0.0000
vt -21.9625 0.0000
vt -21.9625 1.5000
vt -20.5375 1.5000
vt 190.5375 -21.9625
vt 190.5375 -20.5375
vt 191.9625 -20.5375
vt 191.9625 -21.9625
vt 190.5375 -21.9625
vt 191.9625 -21.9625
vt 191.9625 -20.5375
vt 190.5375 -20.5375
vt 190.5375 0.0000
vt 191.9625 0.0000
vt 191.9625 1.5000
vt 190.5375 1.5000
vt 191.9625 0.0000
vt 190.5375 0.0000
vt 190.5375 1.5000
vt 191.9625 1.5000
vt -21.9625 0.0000
vt -20.5375 0.0000
vt -20.5375 1.5000
vt -21.9625 1.5000
vt -20.5375 0.0000
vt -21.9625 0.0000
vt -21.9625 1.5000
vt -20.5375 1.5000
vt 193.0375 -21.9625
vt 193.0375 -20.5375
vt 194.4625 -20.5375
vt 194.4625 -21.9625
vt 193.0375 -21.9625
vt 194.4625 -21.9625
vt 194.4625 -20.5375
vt 193.0375 -20.5375
vt 193.0375 0.0000
vt 194.4625 0.0000
vt 194.4625 1.5000
vt 193.0375 1.5000
vt 194.4625 0.0000
vt 193.0375 0.0000
vt 193.0375 1.5000
vt 194.4625 1.5000
vt -21.9625 0.0000
vt -20.5375 0.0000
vt -20.5375 1.5000
vt -21.9625 1.5000
vt -20.5375 0.0000
vt -21.9625 0.0000
vt -21.9625 1.5000
vt -20.5375 1.5000
vt 195.5375 -21.9625
vt 195.5375 -20.5375
vt 196.9625 -20.5375
vt 196.9625 -21.9625
vt 195.5375 -21.9625
vt 196.9625 -21.9625
vt 196.9625 -20.5375
vt 195.5375 -20.5375
vt 195.5375 0.0000
vt 196.9625 0.0000
vt 196.9625 1.5000
vt 195.5375 1.5000
vt 196.9625 0.0000
vt 195.5375 0.0000
vt 195.5375 1.5000
vt 196.9625 1.5000
vt -21.9625 0.0000
vt -20.5375 0.0000
vt -20.5375 1.5000
vt -21.9625 1.5000
vt -20.5375 0.0000
vt -21.9625 0.0000
vt -21.9625 1.5000
vt -20.5375 1.5000
vt 200.5375 -21.9625
vt 200.5375 -20.5375
vt 201.9625 -20.5375
vt 201.9625 -21.9625
vt 200.5375 -21.9625
vt 201.9625 -21.9625
vt 201.9625 -20.5375
vt 200.5375 -20.5375
vt 200.5375 0.0000
vt 201.9625 0.0000
vt 201.9625 1.5000
vt 200.5375 1.5000
vt 201.9625 0.0000
vt 200.5375 0.0000
vt 200.5375 1.5000
vt 201.9625 1.5000
vt -21.9625 0.0000
vt -20.5375 0.0000
vt -20.5375 1.5000
vt -21.9625 1.5000
vt -20.5375 0.0000
vt -21.9625 0.0000
vt -21.9625 1.5000
vt -20.5375 1.5000
vt 201.7875 -21.9625
vt 201.7875 -20.5375
vt 203.2125 -20.5375
vt 203.2125 -21.9625
vt 201.7875 -21.9625
vt 203.2125 -21.9625
vt 203.2125 -20.5375
vt 201.7875 -20.5375
vt 201.7875 0.0000
vt 203.2125 0.0000
vt 203.2125 1.5000
vt 201.7875 1.5000
vt 203.2125 0.0000
vt 201.7875 0.0000
vt 201.7875 1.5000
vt 203.2125 1.5000
vt -21.9625 0.0000
vt -20.5375 0.0000
vt -20.5375 1.5000
vt -21.9625 1.5000
vt -20.5375 0.0000
vt -21.9625 0.0000
vt -21.9625 1.5000
vt -20.5375 1.5000
vt 195.5375 -20.7125
vt 195.5375 -19.2875
vt 196.9625 -19.2875
vt 196.9625 -20.7125
vt 195.5375 -20.7125
vt 196.9625 -20.7125
vt 196.9625 -19.2875
vt 195.5375 -19.2875
vt 195.5375 0.0000
vt 196.9625 0.0000
vt 196.9625 1.5000
vt 195.5375 1.5000
vt 196.9625 0.0000
vt 195.5375 0.0000
vt 195.5375 1.5000
vt 196.9625 1.5000
vt -20.7125 0.0000
vt -19.2875 0.0000
vt -19.2875 1.5000
vt -20.7125 1.5000
vt -19.2875 0.0000
vt -20.7125 0.0000
vt -20.7125 1.5000
vt -19.2875 1.5000
vt 200.5375 -20.7125
vt 200.5375 -19.2875
vt 201.9625 -19.2875
vt 201.9625 -20.7125
vt 200.5375 -20.7125
vt 201.9625 -20.7125
vt 201.9625 -19.2875
vt 200.5375 -19.2875
vt 200.5375 0.0000
vt 201.9625 0.0000
vt 201.9625 1.5000
vt 200.5375 1.5000
vt 201.9625 0.0000
vt 200.5375 0.0000
vt 200.5375 1.5000
vt 201.9625 1.5000
vt -20.7125 0.0000
vt -19.2875 0.0000
vt -19.2875 1.5000
vt -20.7125 1.5000
vt -19.2875 0.0000
vt -20.7125 0.0000
vt -20.7125 1.5000
vt -19.2875 1.5000
vt 188.0375 -19.4625
vt 188.0375 -18.0375
vt 189.4625 -18.0375
vt 189.4625 -19.4625
vt 188.0375 -19.4625
vt 189.4625 -19.4625
vt 189.4625 -18.0375
vt 188.0375 -18.0375
vt 188.0375 0.0000
vt 189.4625 0.0000
vt 189.4625 1.5000
vt 188.0375 1.5000
vt 189.4625 0.0000
vt 188.0375 0.0000
vt 188.0375 1.5000
vt 189.4625 1.5000
vt -19.4625 0.0000
vt -18.0375 0.0000
vt -18.0375 1.5000
vt -19.4625 1.5000
vt -18.0375 0.0000
vt -19.4625 0.0000
vt -19.4625 1.5000
vt -18.0375 1.5000
vt 193.0375 -19.4625
vt 193.0375 -18.0375
vt 194.4625 -18.0375
vt 194.4625 -19.4625
vt 193.0375 -19.4625
vt 194.4625 -19.4625
vt 194.4625 -18.0375
vt 193.0375 -18.0375
vt 193.0375 0.0000
vt 194.4625 0.0000
vt 194.4625 1.5000
vt 193.0375 1.5000
vt 194.4625 0.0000
vt 193.0375 0.0000
vt 193.0375 1.5000
vt 194.4625 1.5000
vt -19.4625 0.0000
vt -18.0375 0.0000
vt -18.0375 1.5000
vt -19.4625 1.5000
vt -18.0375 0.0000
vt -19.4625 0.0000
vt -19.4625 1.5000
vt -18.0375 1.5000
vt 194.2875 -19.4625
vt 194.2875 -18.0375
vt 195.7125 -18.0375
vt 195.7125 -19.4625
vt 194.2875 -19.4625
vt 195.7125 -19.4625
vt 195.7125 -18.0375
vt 194.2875 -18.0375
vt 194.2875 0.0000
vt 195.7125 0.0000
vt 195.7125 1.5000
vt 194.2875 1.5000
vt 195.7125 0.0000
vt 194.2875 0.0000
vt 194.2875 1.5000
vt 195.7125 1.5000
vt -19.4625 0.0000
vt -18.0375 0.0000
vt -18.0375 1.5000
vt -19.4625 1.5000
vt -18.0375 0.0000
vt -19.4625 0.0000
vt -19.4625 1.5000
vt -18.0375 1.5000
vt 195.5375 -19.4625
vt 195.5375 -18.0375
vt 196.9625 -18.0375
vt 196.9625 -19.4625
vt 195.5375 -19.4625
vt 196.9625 -19.4625
vt 196.9625 -18.0375
vt 195.5375 -18.0375
vt 195.5375 0.0000
vt 196.9625 0.0000
vt 196.9625 1.5000
vt 195.5375 1.5000
vt 196.9625 0.0000
vt 195.5375 0.0000
vt 195.5375 1.5000
vt 196.9625 1.5000
vt -19.4625 0.0000
vt -18.0375 0.0000
vt -18.0375 1.5000
vt -19.4625 1.5000
vt -18.0375 0.0000
vt -19.4625 0.0000
vt -19.4625 1.5000
vt -18.0375 1.5000
vt 196.7875 -19.4625
vt 196.7875 -18.0375
vt 198.2125 -18.0375
vt 198.2125 -19.4625
vt 196.7875 -19.4625
vt 198.2125 -19.4625
vt 198.2125 -18.0375
vt 196.7875 -18.0375
vt 196.7875 0.0000
vt 198.2125 0.0000
vt 198.2125 1.5000
vt 196.7875 1.5000
vt 198.2125 0.0000
vt 196.7875 0.0000
vt 196.7875 1.5000
vt 198.2125 1.5000
vt -19.4625 0.0000
vt -18.0375 0.0000
vt -18.0375 1.5000
vt -19.4625 1.5000
vt -18.0375 0.0000
vt -19.4625 0.0000
vt -19.4625 1.5000
vt -18.0375 1.5000
vt 198.0375 -19.4625
vt 198.0375 -18.0375
vt 199.4625 -18.0375
vt 199.4625 -19.4625
vt 198.0375 -19.4625
vt 199.4625 -19.4625
vt 199.4625 -18.0375
vt 198.0375 -18.0375
vt 198.0375 0.0000
vt 199.4625 0.0000
vt 199.4625 1.5000
vt 198.0375 1.5000
vt 199.4625 0.0000
vt 198.0375 0.0000
vt 198.0375 1.5000
vt 199.4625 1.5000
vt -19.4625 0.0000
vt -18.0375 0.0000
vt -18.0375 1.5000
vt -19.4625 1.5000
vt -18.0375 0.0000
vt -19.4625 0.0000
vt -19.4625 1.5000
vt -18.0375 1.5000
vt 200.5375 -19.4625
vt 200.5375 -18.0375
vt 201.9625 -18.0375
vt 201.9625 -19.4625
vt 200.5375 -19.4625
vt 201.9625 -19.4625
vt 201.9625 -18.0375
vt 200.5375 -18.0375
vt 200.5375 0.0000
vt 201.9625 0.0000
vt 201.9625 1.5000
vt 200.5375 1.5000
vt 201.9625 0.0000
vt 200.5375 0.0000
vt 200.5375 1.5000
vt 201.9625 1.5000
vt -19.4625 0.0000
vt -18.0375 0.0000
vt -18.0375 1.5000
vt -19.4625 1.5000
vt -18.0375 0.0000
vt -19.4625 0.0000
vt -19.4625 1.5000
vt -18.0375 1.5000
vt 201.7875 -19.4625
vt 201.7875 -18.0375
vt 203.2125 -18.0375
vt 203.2125 -19.4625
vt 201.7875 -19.4625
vt 203.2125 -19.4625
vt 203.2125 -18.0375
vt 201.7875 -18.0375
vt 201.7875 0.0000
vt 203.2125 0.0000
vt 203.2125 1.5000
vt 201.7875 1.5000
vt 203.2125 0.0000
vt 201.7875 0.0000
vt 201.7875 1.5000
vt 203.2125 1.5000
vt -19.4625 0.0000
vt -18.0375 0.0000
vt -18.0375 1.5000
vt -19.4625 1.5000
vt -18.0375 0.0000
vt -19.4625 0.0000
vt -19.4625 1.5000
vt -18.0375 1.5000
vt 188.0375 -16.9625
vt 188.0375 -15.5375
vt 189.4625 -15.5375
vt 189.4625 -16.9625
vt 188.0375 -16.9625
vt 189.4625 -16.9625
vt 189.4625 -15.5375
vt 188.0375 -15.5375
vt 188.0375 0.0000
vt 189.4625 0.0000
vt 189.4625 1.5000
vt 188.0375 1.5000
vt 189.4625 0.0000
vt 188.0375 0.0000
vt 188.0375 1.5000
vt 189.4625 1.5000
vt -16.9625 0.0000
vt -15.5375 0.0000
vt -15.5375 1.5000
vt -16.9625 1.5000
vt -15.5375 0.0000
vt -16.9625 0.0000
vt -16.9625 1.5000
vt -15.5375 1.5000
vt 190.5375 -16.9625
vt 190.5375 -15.5375
vt 191.9625 -15.5375
vt 191.9625 -16.9625
vt 190.5375 -16.9625
vt 191.9625 -16.9625
vt 191.9625 -15.5375
vt 190.5375 -15.5375
vt 190.5375 0.0000
vt 191.9625 0.0000
vt 191.9625 1.5000
vt 190.5375 1.5000
vt 191.9625 0.0000
vt 190.5375 0.0000
vt 190.5375 1.5000
vt 191.9625 1.5000
vt -16.9625 0.0000
vt -15.5375 0.0000
vt -15.5375 1.5000
vt -16.9625 1.5000
vt -15.5375 0.0000
vt -16.9625 0.0000
vt -16.9625 1.5000
vt -15.5375 1.5000
vt 191.7875 -16.9625
vt 191.7875 -15.5375
vt 193.2125 -15.5375
vt 193.2125 -16.9625
vt 191.7875 -16.9625
vt 193.2125 -16.9625
vt 193.2125 -15.5375
vt 191.7875 -15.5375
vt 191.7875 0.0000
vt 193.2125 0.0000
vt 193.2125 1.5000
vt 191.7875 1.5000
vt 193.2125 0.0000
vt 191.7875 0.0000
vt 191.7875 1.5000
vt 193.2125 1.5000
vt -16.9625 0.0000
vt -15.5375 0.0000
vt -15.5375 1.5000
vt -16.9625 1.5000
vt -15.5375 0.0000
vt -16.9625 0.0000
vt -16.9625 1.5000
vt -15.5375 1.5000
vt 193.0375 -16.9625
vt 193.0375 -15.5375
vt 194.4625 -15.5375
vt 194.4625 -16.9625
vt 193.0375 -16.9625
vt 194.4625 -16.9625
vt 194.4625 -15.5375
vt 193.0375 -15.5375
vt 193.0375 0.0000
vt 194.4625 0.0000
vt 194.4625 1.5000
vt 193.0375 1.5000
vt 194.4625 0.0000
vt 193.0375 0.0000
vt 193.0375 1.5000
vt 194.4625 1.5000
vt -16.9625 0.0000
vt -15.5375 0.0000
vt -15.5375 1.5000
vt -16.9625 1.5000
vt -15.5375 0.0000
vt -16.9625 0.0000
vt -16.9625 1.5000
vt -15.5375 1.5000
vt 195.5375 -16.9625
vt 195.5375 -15.5375
vt 196.9625 -15.5375
vt 196.9625 -16.9625
vt 195.5375 -16.9625
vt 196.9625 -16.9625
vt 196.9625 -15.5375
vt 195.5375 -15.5375
vt 195.5375 0.0000
vt 196.9625 0.0000
vt 196.9625 1.5000
vt 195.5375 1.5000
vt 196.9625 0.0000
vt 195.5375 0.0000
vt 195.5375 1.5000
vt 196.9625 1.5000
vt -16.9625 0.0000
vt -15.5375 0.0000
vt -15.5375 1.5000
vt -16.9625 1.5000
vt -15.5375 0.0000
vt -16.9625 0.0000
vt -16.9625 1.5000
vt -15.5375 1.5000
vt 196.7875 -16.9625
vt 196.7875 -15.5375
vt 198.2125 -15.5375
vt 198.2125 -16.9625
vt 196.7875 -16.9625
vt 198.2125 -16.9625
vt 198.2125 -15.5375
vt 196.7875 -15.5375
vt 196.7875 0.0000
vt 198.2125 0.0000
vt 198.2125 1.5000
vt 196.7875 1.5000
vt 198.2125 0.0000
vt 196.7875 0.0000
vt 196.7875 1.5000
vt 198.2125 1.5000
vt -16.9625 0.0000
vt -15.5375 0.0000
vt -15.5375 1.5000
vt -16.9625 1.5000
vt -15.5375 0.0000
vt -16.9625 0.0000
vt -16.9625 1.5000
vt -15.5375 1.5000
vt 198.0375 -16.9625
vt 198.0375 -15.5375
vt 199.4625 -15.5375
vt 199.4625 -16.9625
vt 198.0375 -16.9625
vt 199.4625 -16.9625
vt 199.4625 -15.5375
vt 198.0375 -15.5375
vt 198.0375 0.0000
vt 199.4625 0.0000
vt 199.4625 1.5000
vt 198.0375 1.5000
vt 199.4625 0.0000
vt 198.0375 0.0000
vt 198.0375 1.5000
vt 199.4625 1.5000
vt -16.9625 0.0000
vt -15.5375 0.0000
vt -15.5375 1.5000
vt -16.9625 1.5000
vt -15.5375 0.0000
vt -16.9625 0.0000
vt -16.9625 1.5000
vt -15.5375 1.5000
vt 199.2875 -16.9625
vt 199.2875 -15.5375
vt 200.7125 -15.5375
vt 200.7125 -16.9625
vt 199.2875 -16.9625
vt 200.7125 -16.9625
vt 200.7125 -15.5375
vt 199.2875 -15.5375
vt 199.2875 0.0000
vt 200.7125 0.0000
vt 200.7125 1.5000
vt 199.2875 1.5000
vt 200.7125 0.0000
vt 199.2875 0.0000
vt 199.2875 1.5000
vt 200.7125 1.5000
vt -16.9625 0.0000
vt -15.5375 0.0000
vt -15.5375 1.5000
vt -16.9625 1.5000
vt -15.5375 0.0000
vt -16.9625 0.0000
vt -16.9625 1.5000
vt -15.5375 1.5000
vt 201.7875 -16.9625
vt 201.7875 -15.5375
vt 203.2125 -15.5375
vt 203.2125 -16.9625
vt 201.7875 -16.9625
vt 203.2125 -16.9625
vt 203.2125 -15.5375
vt 201.7875 -15.5375
vt 201.7875 0.0000
vt 203.2125 0.0000
vt 203.2125 1.5000
vt 201.7875 1.5000
vt 203.2125 0.0000
vt 201.7875 0.0000
vt 201.7875 1.5000
vt 203.2125 1.5000
vt -16.9625 0.0000
vt -15.5375 0.0000
vt -15.5375 1.5000
vt -16.9625 1.5000
vt -15.5375 0.0000
vt -16.9625 0.0000
vt -16.9625 1.5000
vt -15.5375 1.5000
vt 188.0375 -15.7125
vt 188.0375 -14.2875
vt 189.4625 -14.2875
vt 189.4625 -15.7125
vt 188.0375 -15.7125
vt 189.4625 -15.7125
vt 189.4625 -14.2875
vt 188.0375 -14.2875
vt 188.0375 0.0000
vt 189.4625 0.0000
vt 189.4625 1.5000
vt 188.0375 1.5000
vt 189.4625 0.0000
vt 188.0375 0.0000
vt 188.0375 1.5000
vt 189.4625 1.5000
vt -15.7125 0.0000
vt -14.2875 0.0000
vt -14.2875 1.5000
vt -15.7125 1.5000
vt -14.2875 0.0000
vt -15.7125 0.0000
vt -15.7125 1.5000
vt -14.2875 1.5000
vt 193.0375 -15.7125
vt 193.0375 -14.2875
vt 194.4625 -14.2875
vt 194.4625 -15.7125
vt 193.0375 -15.7125
vt 194.4625 -15.7125
vt 194.4625 -14.2875
vt 193.0375 -14.2875
vt 193.0375 0.0000
vt 194.4625 0.0000
vt 194.4625 1.5000
vt 193.0375 1.5000
vt 194.4625 0.0000
vt 193.0375 0.0000
vt 193.0375 1.5000
vt 194.4625 1.5000
vt -15.7125 0.0000
vt -14.2875 0.0000
vt -14.2875 1.5000
vt -15.7125 1.5000
vt -14.2875 0.0000
vt -15.7125 0.0000
vt -15.7125 1.5000
vt -14.2875 1.5000
vt 198.0375 -15.7125
vt 198.0375 -14.2875
vt 199.4625 -14.2875
vt 199.4625 -15.7125
vt 198.0375 -15.7125
vt 199.4625 -15.7125
vt 199.4625 -14.2875
vt 198.0375 -14.2875
vt 198.0375 0.0000
vt 199.4625 0.0000
vt 199.4625 1.5000
vt 198.0375 1.5000
vt 199.4625 0.0000
vt 198.0375 0.0000
vt 198.0375 1.5000
vt 199.4625 1.5000
vt -15.7125 0.0000
vt -14.2875 0.0000
vt -14.2875 1.5000
vt -15.7125 1.5000
vt -14.2875 0.0000
vt -15.7125 0.0000
vt -15.7125 1.5000
vt -14.2875 1.5000
vt 188.0375 -14.4625
vt 188.0375 -13.0375
vt 189.4625 -13.0375
vt 189.4625 -14.4625
vt 188.0375 -14.4625
vt 189.4625 -14.4625
vt 189.4625 -13.0375
vt 188.0375 -13.0375
vt 188.0375 0.0000
vt 189.4625 0.0000
vt 189.4625 1.5000
vt 188.0375 1.5000
vt 189.4625 0.0000
vt 188.0375 0.0000
vt 188.0375 1.5000
vt 189.4625 1.5000
vt -14.4625 0.0000
vt -13.0375 0.0000
vt -13.0375 1.5000
vt -14.4625 1.5000
vt -13.0375 0.0000
vt -14.4625 0.0000
vt -14.4625 1.5000
vt -13.0375 1.5000
vt 189.2875 -14.4625
vt 189.2875 -13.0375
vt 190.7125 -13.0375
vt 190.7125 -14.4625
vt 189.2875 -14.4625
vt 190.7125 -14.4625
vt 190.7125 -13.0375
vt 189.2875 -13.0375
vt 189.2875 0.0000
vt 190.7125 0.0000
vt 190.7125 1.5000
vt 189.2875 1.5000
vt 190.7125 0.0000
vt 189.2875 0.0000
vt 189.2875 1.5000
vt 190.7125 1.5000
vt -14.4625 0.0000
vt -13.0375 0.0000
vt -13.0375 1.5000
vt -14.4625 1.5000
vt -13.0375 0.0000
vt -14.4625 0.0000
vt -14.4625 1.5000
vt -13.0375 1.5000
vt 190.5375 -14.4625
vt 190.5375 -13.0375
vt 191.9625 -13.0375
vt 191.9625 -14.4625
vt 190.5375 -14.4625
vt 191.9625 -14.4625
vt 191.9625 -13.0375
vt 190.5375 -13.0375
vt 190.5375 0.0000
vt 191.9625 0.0000
vt 191.9625 1.5000
vt 190.5375 1.5000
vt 191.9625 0.0000
vt 190.5375 0.0000
vt 190.5375 1.5000
vt 191.9625 1.5000
vt -14.4625 0.0000
vt -13.0375 0.0000
vt -13.0375 1.5000
vt -14.4625 1.5000
vt -13.0375 0.0000
vt -14.4625 0.0000
vt -14.4625 1.5000
vt -13.0375 1.5000
vt 193.0375 -14.4625
vt 193.0375 -13.0375
vt 194.4625 -13.0375
vt 194.4625 -14.4625
vt 193.0375 -14.4625
vt 194.4625 -14.4625
vt 194.4625 -13.0375
vt 193.0375 -13.0375
vt 193.0375 0.0000
vt 194.4625 0.0000
vt 194.4625 1.5000
vt 193.0375 1.5000
vt 194.4625 0.0000
vt 193.0375 0.0000
vt 193.0375 1.5000
vt 194.4625 1.5000
vt -14.4625 0.0000
vt -13.0375 0.0000
vt -13.0375 1.5000
vt -14.4625 1.5000
vt -13.0375 0.0000
vt -14.4625 0.0000
vt -14.4625 1.5000
vt -13.0375 1.5000
vt 194.2875 -14.4625
vt 194.2875 -13.0375
vt 195.7125 -13.0375
vt 195.7125 -14.4625
vt 194.2875 -14.4625
vt 195.7125 -14.4625
vt 195.7125 -13.0375
vt 194.2875 -13.0375
vt 194.2875 0.0000
vt 195.7125 0.0000
vt 195.7125 1.5000
vt 194.2875 1.5000
vt 195.7125 0.0000
vt 194.2875 0.0000
vt 194.2875 1.5000
vt 195.7125 1.5000
vt -14.4625 0.0000
vt -13.0375 0.0000
vt -13.0375 1.5000
vt -14.4625 1.5000
vt -13.0375 0.0000
vt -14.4625 0.0000
vt -14.4625 1.5000
vt -13.0375 1.5000
vt 195.5375 -14.4625
vt 195.5375 -13.0375
vt 196.9625 -13.0375
vt 196.9625 -14.4625
vt 195.5375 -14.4625
vt 196.9625 -14.4625
vt 196.9625 -13.0375
vt 195.5375 -13.0375
vt 195.5375 0.0000
vt 196.9625 0.0000
vt 196.9625 1.5000
vt 195.5375 1.5000
vt 196.9625 0.0000
vt 195.5375 0.0000
vt 195.5375 1.5000
vt 196.9625 1.5000
vt -14.4625 0.0000
vt -13.0375 0.0000
vt -13.0375 1.5000
vt -14.4625 1.5000
vt -13.0375 0.0000
vt -14.4625 0.0000
vt -14.4625 1.5000
vt -13.0375 1.5000
vt 200.5375 -14.4625
vt 200.5375 -13.0375
vt 201.9625 -13.0375
vt 201.9625 -14.4625
vt 200.5375 -14.4625
vt 201.9625 -14.4625
vt 201.9625 -13.0375
vt 200.5375 -13.0375
vt 200.5375 0.0000
vt 201.9625 0.0000
vt 201.9625 1.5000
vt 200.5375 1.5000
vt 201.9625 0.0000
vt 200.5375 0.0000
vt 200.5375 1.5000
vt 201.9625 1.5000
vt -14.4625 0.0000
vt -13.0375 0.0000
vt -13.0375 1.5000
vt -14.4625 1.5000
vt -13.0375 0.0000
vt -14.4625 0.0000
vt -14.4625 1.5000
vt -13.0375 1.5000
vt 190.5375 -13.2125
vt 190.5375 -11.7875
vt 191.9625 -11.7875
vt 191.9625 -13.2125
vt 190.5375 -13.2125
vt 191.9625 -13.2125
vt 191.9625 -11.7875
vt 190.5375 -11.7875
vt 190.5375 0.0000
vt 191.9625 0.0000
vt 191.9625 1.5000
vt 190.5375 1.5000
vt 191.9625 0.0000
vt 190.5375 0.0000
vt 190.5375 1.5000
vt 191.9625 1.5000
vt -13.2125 0.0000
vt -11.7875 0.0000
vt -11.7875 1.5000
vt -13.2125 1.5000
vt -11.7875 0.0000
vt -13.2125 0.0000
vt -13.2125 1.5000
vt -11.7875 1.5000
vt 193.0375 -13.2125
vt 193.0375 -11.7875
vt 194.4625 -11.7875
vt 194.4625 -13.2125
vt 193.0375 -13.2125
vt 194.4625 -13.2125
vt 194.4625 -11.7875
vt 193.0375 -11.7875
vt 193.0375 0.0000
vt 194.4625 0.0000
vt 194.4625 1.5000
vt 193.0375 1.5000
vt 194.4625 0.0000
vt 193.0375 0.0000
vt 193.0375 1.5000
vt 194.4625 1.5000
vt -13.2125 0.0000
vt -11.7875 0.0000
vt -11.7875 1.5000
vt -13.2125 1.5000
vt -11.7875 0.0000
vt -13.2125 0.0000
vt -13.2125 1.5000
vt -11.7875 1.5000
vt 200.5375 -13.2125
vt 200.5375 -11.7875
vt 201.9625 -11.7875
vt 201.9625 -13.2125
vt 200.5375 -13.2125
vt 201.9625 -13.2125
vt 201.9625 -11.7875
vt 200.5375 -11.7875
vt 200.5375 0.0000
vt 201.9625 0.0000
vt 201.9625 1.5000
vt 200.5375 1.5000
vt 201.9625 0.0000
vt 200.5375 0.0000
vt 200.5375 1.5000
vt 201.9625 1.5000
vt -13.2125 0.0000
vt -11.7875 0.0000
vt -11.7875 1.5000
vt -13.2125 1.5000
vt -11.7875 0.0000
vt -13.2125 0.0000
vt -13.2125 1.5000
vt -11.7875 1.5000
usemtl rust
f 1 4 3 2
f 5 6 7 8
f 1 2 6 5
f 3 4 8 7
f 2 3 7 6
f 4 1 5 8
f 9 12 11 10
f 13 14 15 16
f 9 10 14 13
f 11 12 16 15
f 10 11 15 14
f 12 9 13 16
f 89 92 91 90
f 93 94 95 96
f 89 90 94 93
f 91 92 96 95
f 90 91 95 94
f 92 89 93 96
f 145 148 147 146
f 149 150 151 152
f 145 146 150 149
f 147 148 152 151
f 146 147 151 150
f 148 145 149 152
f 201 204 203 202
f 205 206 207 208
f 201 202 206 205
f 203 204 208 207
f 202 203 207 206
f 204 201 205 208
f 329 332 331 330
f 333 334 335 336
f 329 330 334 333
f 331 332 336 335
f 330 331 335 334
f 332 329 333 336
f 625 628 627 626
f 629 630 631 632
f 625 626 630 629
f 627 628 632 631
f 626 627 631 630
f 628 625 629 632
f 825 828 827 826
f 829 830 831 832
f 825 826 830 829
f 827 828 832 831
f 826 827 831 830
f 828 825 829 832
f 1073 1076 1075 1074
f 1077 1078 1079 1080
f 1073 1074 1078 1077
f 1075 1076 1080 1079
f 1074 1075 1079 1078
f 1076 1073 1077 1080
f 1105 1108 1107 1106
f 1109 1110 1111 1112
f 1105 1106 1110 1109
f 1107 1108 1112 1111
f 1106 1107 1111 1110
f 1108 1105 1109 1112
usemtl lamp_sick
f 1185 1188 1187 1186
f 1189 1190 1191 1192
f 1185 1186 1190 1189
f 1187 1188 1192 1191
f 1186 1187 1191 1190
f 1188 1185 1189 1192
f 1193 1196 1195 1194
f 1197 1198 1199 1200
f 1193 1194 1198 1197
f 1195 1196 1200 1199
f 1194 1195 1199 1198
f 1196 1193 1197 1200
f 1201 1204 1203 1202
f 1205 1206 1207 1208
f 1201 1202 1206 1205
f 1203 1204 1208 1207
f 1202 1203 1207 1206
f 1204 1201 1205 1208
f 1209 1212 1211 1210
f 1213 1214 1215 1216
f 1209 1210 1214 1213
f 1211 1212 1216 1215
f 1210 1211 1215 1214
f 1212 1209 1213 1216
f 1217 1220 1219 1218
f 1221 1222 1223 1224
f 1217 1218 1222 1221
f 1219 1220 1224 1223
f 1218 1219 1223 1222
f 1220 1217 1221 1224
f 1225 1228 1227 1226
f 1229 1230 1231 1232
f 1225 1226 1230 1229
f 1227 1228 1232 1231
f 1226 1227 1231 1230
f 1228 1225 1229 1232
f 1233 1236 1235 1234
f 1237 1238 1239 1240
f 1233 1234 1238 1237
f 1235 1236 1240 1239
f 1234 1235 1239 1238
f 1236 1233 1237 1240
f 1241 1244 1243 1242
f 1245 1246 1247 1248
f 1241 1242 1246 1245
f 1243 1244 1248 1247
f 1242 1243 1247 1246
f 1244 1241 1245 1248
f 1249 1252 1251 1250
f 1253 1254 1255 1256
f 1249 1250 1254 1253
f 1251 1252 1256 1255
f 1250 1251 1255 1254
f 1252 1249 1253 1256
f 1257 1260 1259 1258
f 1261 1262 1263 1264
f 1257 1258 1262 1261
f 1259 1260 1264 1263
f 1258 1259 1263 1262
f 1260 1257 1261 1264
f 1265 1268 1267 1266
f 1269 1270 1271 1272
f 1265 1266 1270 1269
f 1267 1268 1272 1271
f 1266 1267 1271 1270
f 1268 1265 1269 1272
f 1273 1276 1275 1274
f 1277 1278 1279 1280
f 1273 1274 1278 1277
f 1275 1276 1280 1279
f 1274 1275 1279 1278
f 1276 1273 1277 1280
usemtl rust
f 1281 1283 1284 1282
f 1283 1285 1286 1284
f 1285 1287 1288 1286
f 1287 1289 1290 1288
f 1289 1291 1292 1290
f 1291 1293 1294 1292
f 1293 1295 1296 1294
f 1295 1281 1282 1296
f 1297 1282 1284
f 1298 1283 1281
f 1297 1284 1286
f 1298 1285 1283
f 1297 1286 1288
f 1298 1287 1285
f 1297 1288 1290
f 1298 1289 1287
f 1297 1290 1292
f 1298 1291 1289
f 1297 1292 1294
f 1298 1293 1291
f 1297 1294 1296
f 1298 1295 1293
f 1297 1296 1282
f 1298 1281 1295
f 1299 1302 1301 1300
f 1303 1304 1305 1306
f 1299 1300 1304 1303
f 1301 1302 1306 1305
f 1300 1301 1305 1304
f 1302 1299 1303 1306
usemtl pipe
f 1307 1309 1310 1308
f 1309 1311 1312 1310
f 1311 1313 1314 1312
f 1313 1315 1316 1314
f 1315 1317 1318 1316
f 1317 1319 1320 1318
f 1319 1321 1322 1320
f 1321 1307 1308 1322
f 1323 1308 1310
f 1324 1309 1307
f 1323 1310 1312
f 1324 1311 1309
f 1323 1312 1314
f 1324 1313 1311
f 1323 1314 1316
f 1324 1315 1313
f 1323 1316 1318
f 1324 1317 1315
f 1323 1318 1320
f 1324 1319 1317
f 1323 1320 1322
f 1324 1321 1319
f 1323 1322 1308
f 1324 1307 1321
f 1325 1328 1327 1326
f 1329 1330 1331 1332
f 1325 1326 1330 1329
f 1327 1328 1332 1331
f 1326 1327 1331 1330
f 1328 1325 1329 1332
f 1333 1335 1336 1334
f 1335 1337 1338 1336
f 1337 1339 1340 1338
f 1339 1341 1342 1340
f 1341 1343 1344 1342
f 1343 1345 1346 1344
f 1345 1347 1348 1346
f 1347 1333 1334 1348
f 1349 1334 1336
f 1350 1335 1333
f 1349 1336 1338
f 1350 1337 1335
f 1349 1338 1340
f 1350 1339 1337
f 1349 1340 1342
f 1350 1341 1339
f 1349 1342 1344
f 1350 1343 1341
f 1349 1344 1346
f 1350 1345 1343
f 1349 1346 1348
f 1350 1347 1345
f 1349 1348 1334
f 1350 1333 1347
f 1351 1354 1353 1352
f 1355 1356 1357 1358
f 1351 1352 1356 1355
f 1353 1354 1358 1357
f 1352 1353 1357 1356
f 1354 1351 1355 1358
usemtl grime_wall
f 17/1 18/2 19/3 20/4
f 21/5 22/6 23/7 24/8
f 25/9 26/10 27/11 28/12
f 29/13 30/14 31/15 32/16
f 33/17 34/18 35/19 36/20
f 37/21 38/22 39/23 40/24
f 41/25 42/26 43/27 44/28
f 45/29 46/30 47/31 48/32
f 49/33 50/34 51/35 52/36
f 53/37 54/38 55/39 56/40
f 57/41 58/42 59/43 60/44
f 61/45 62/46 63/47 64/48
f 65/49 66/50 67/51 68/52
f 69/53 70/54 71/55 72/56
f 73/57 74/58 75/59 76/60
f 77/61 78/62 79/63 80/64
f 81/65 82/66 83/67 84/68
f 85/69 86/70 87/71 88/72
f 97/73 98/74 99/75 100/76
f 101/77 102/78 103/79 104/80
f 105/81 106/82 107/83 108/84
f 109/85 110/86 111/87 112/88
f 113/89 114/90 115/91 116/92
f 117/93 118/94 119/95 120/96
f 121/97 122/98 123/99 124/100
f 125/101 126/102 127/103 128/104
f 129/105 130/106 131/107 132/108
f 133/109 134/110 135/111 136/112
f 137/113 138/114 139/115 140/116
f 141/117 142/118 143/119 144/120
f 153/121 154/122 155/123 156/124
f 157/125 158/126 159/127 160/128
f 161/129 162/130 163/131 164/132
f 165/133 166/134 167/135 168/136
f 169/137 170/138 171/139 172/140
f 173/141 174/142 175/143 176/144
f 177/145 178/146 179/147 180/148
f 181/149 182/150 183/151 184/152
f 185/153 186/154 187/155 188/156
f 189/157 190/158 191/159 192/160
f 193/161 194/162 195/163 196/164
f 197/165 198/166 199/167 200/168
f 209/169 210/170 211/171 212/172
f 213/173 214/174 215/175 216/176
f 217/177 218/178 219/179 220/180
f 221/181 222/182 223/183 224/184
f 225/185 226/186 227/187 228/188
f 229/189 230/190 231/191 232/192
f 233/193 234/194 235/195 236/196
f 237/197 238/198 239/199 240/200
f 241/201 242/202 243/203 244/204
f 245/205 246/206 247/207 248/208
f 249/209 250/210 251/211 252/212
f 253/213 254/214 255/215 256/216
f 257/217 258/218 259/219 260/220
f 261/221 262/222 263/223 264/224
f 265/225 266/226 267/227 268/228
f 269/229 270/230 271/231 272/232
f 273/233 274/234 275/235 276/236
f 277/237 278/238 279/239 280/240
f 281/241 282/242 283/243 284/244
f 285/245 286/246 287/247 288/248
f 289/249 290/250 291/251 292/252
f 293/253 294/254 295/255 296/256
f 297/257 298/258 299/259 300/260
f 301/261 302/262 303/263 304/264
f 305/265 306/266 307/267 308/268
f 309/269 310/270 311/271 312/272
f 313/273 314/274 315/275 316/276
f 317/277 318/278 319/279 320/280
f 321/281 322/282 323/283 324/284
f 325/285 326/286 327/287 328/288
f 337/289 338/290 339/291 340/292
f 341/293 342/294 343/295 344/296
f 345/297 346/298 347/299 348/300
f 349/301 350/302 351/303 352/304
f 353/305 354/306 355/307 356/308
f 357/309 358/310 359/311 360/312
f 361/313 362/314 363/315 364/316
f 365/317 366/318 367/319 368/320
f 369/321 370/322 371/323 372/324
f 373/325 374/326 375/327 376/328
f 377/329 378/330 379/331 380/332
f 381/333 382/334 383/335 384/336
f 385/337 386/338 387/339 388/340
f 389/341 390/342 391/343 392/344
f 393/345 394/346 395/347 396/348
f 397/349 398/350 399/351 400/352
f 401/353 402/354 403/355 404/356
f 405/357 406/358 407/359 408/360
f 409/361 410/362 411/363 412/364
f 413/365 414/366 415/367 416/368
f 417/369 418/370 419/371 420/372
f 421/373 422/374 423/375 424/376
f 425/377 426/378 427/379 428/380
f 429/381 430/382 431/383 432/384
f 433/385 434/386 435/387 436/388
f 437/389 438/390 439/391 440/392
f 441/393 442/394 443/395 444/396
f 445/397 446/398 447/399 448/400
f 449/401 450/402 451/403 452/404
f 453/405 454/406 455/407 456/408
f 457/409 458/410 459/411 460/412
f 461/413 462/414 463/415 464/416
f 465/417 466/418 467/419 468/420
f 469/421 470/422 471/423 472/424
f 473/425 474/426 475/427 476/428
f 477/429 478/430 479/431 480/432
f 481/433 482/434 483/435 484/436
f 485/437 486/438 487/439 488/440
f 489/441 490/442 491/443 492/444
f 493/445 494/446 495/447 496/448
f 497/449 498/450 499/451 500/452
f 501/453 502/454 503/455 504/456
f 505/457 506/458 507/459 508/460
f 509/461 510/462 511/463 512/464
f 513/465 514/466 515/467 516/468
f 517/469 518/470 519/471 520/472
f 521/473 522/474 523/475 524/476
f 525/477 526/478 527/479 528/480
f 529/481 530/482 531/483 532/484
f 533/485 534/486 535/487 536/488
f 537/489 538/490 539/491 540/492
f 541/493 542/494 543/495 544/496
f 545/497 546/498 547/499 548/500
f 549/501 550/502 551/503 552/504
f 553/505 554/506 555/507 556/508
f 557/509 558/510 559/511 560/512
f 561/513 562/514 563/515 564/516
f 565/517 566/518 567/519 568/520
f 569/521 570/522 571/523 572/524
f 573/525 574/526 575/527 576/528
f 577/529 578/530 579/531 580/532
f 581/533 582/534 583/535 584/536
f 585/537 586/538 587/539 588/540
f 589/541 590/542 591/543 592/544
f 593/545 594/546 595/547 596/548
f 597/549 598/550 599/551 600/552
f 601/553 602/554 603/555 604/556
f 605/557 606/558 607/559 608/560
f 609/561 610/562 611/563 612/564
f 613/565 614/566 615/567 616/568
f 617/569 618/570 619/571 620/572
f 621/573 622/574 623/575 624/576
f 633/577 634/578 635/579 636/580
f 637/581 638/582 639/583 640/584
f 641/585 642/586 643/587 644/588
f 645/589 646/590 647/591 648/592
f 649/593 650/594 651/595 652/596
f 653/597 654/598 655/599 656/600
f 657/601 658/602 659/603 660/604
f 661/605 662/606 663/607 664/608
f 665/609 666/610 667/611 668/612
f 669/613 670/614 671/615 672/616
f 673/617 674/618 675/619 676/620
f 677/621 678/622 679/623 680/624
f 681/625 682/626 683/627 684/628
f 685/629 686/630 687/631 688/632
f 689/633 690/634 691/635 692/636
f 693/637 694/638 695/639 696/640
f 697/641 698/642 699/643 700/644
f 701/645 702/646 703/647 704/648
f 705/649 706/650 707/651 708/652
f 709/653 710/654 711/655 712/656
f 713/657 714/658 715/659 716/660
f 717/661 718/662 719/663 720/664
f 721/665 722/666 723/667 724/668
f 725/669 726/670 727/671 728/672
f 729/673 730/674 731/675 732/676
f 733/677 734/678 735/679 736/680
f 737/681 738/682 739/683 740/684
f 741/685 742/686 743/687 744/688
f 745/689 746/690 747/691 748/692
f 749/693 750/694 751/695 752/696
f 753/697 754/698 755/699 756/700
f 757/701 758/702 759/703 760/704
f 761/705 762/706 763/707 764/708
f 765/709 766/710 767/711 768/712
f 769/713 770/714 771/715 772/716
f 773/717 774/718 775/719 776/720
f 777/721 778/722 779/723 780/724
f 781/725 782/726 783/727 784/728
f 785/729 786/730 787/731 788/732
f 789/733 790/734 791/735 792/736
f 793/737 794/738 795/739 796/740
f 797/741 798/742 799/743 800/744
f 801/745 802/746 803/747 804/748
f 805/749 806/750 807/751 808/752
f 809/753 810/754 811/755 812/756
f 813/757 814/758 815/759 816/760
f 817/761 818/762 819/763 820/764
f 821/765 822/766 823/767 824/768
f 833/769 834/770 835/771 836/772
f 837/773 838/774 839/775 840/776
f 841/777 842/778 843/779 844/780
f 845/781 846/782 847/783 848/784
f 849/785 850/786 851/787 852/788
f 853/789 854/790 855/791 856/792
f 857/793 858/794 859/795 860/796
f 861/797 862/798 863/799 864/800
f 865/801 866/802 867/803 868/804
f 869/805 870/806 871/807 872/808
f 873/809 874/810 875/811 876/812
f 877/813 878/814 879/815 880/816
f 881/817 882/818 883/819 884/820
f 885/821 886/822 887/823 888/824
f 889/825 890/826 891/827 892/828
f 893/829 894/830 895/831 896/832
f 897/833 898/834 899/835 900/836
f 901/837 902/838 903/839 904/840
f 905/841 906/842 907/843 908/844
f 909/845 910/846 911/847 912/848
f 913/849 914/850 915/851 916/852
f 917/853 918/854 919/855 920/856
f 921/857 922/858 923/859 924/860
f 925/861 926/862 927/863 928/864
f 929/865 930/866 931/867 932/868
f 933/869 934/870 935/871 936/872
f 937/873 938/874 939/875 940/876
f 941/877 942/878 943/879 944/880
f 945/881 946/882 947/883 948/884
f 949/885 950/886 951/887 952/888
f 953/889 954/890 955/891 956/892
f 957/893 958/894 959/895 960/896
f 961/897 962/898 963/899 964/900
f 965/901 966/902 967/903 968/904
f 969/905 970/906 971/907 972/908
f 973/909 974/910 975/911 976/912
f 977/913 978/914 979/915 980/916
f 981/917 982/918 983/919 984/920
f 985/921 986/922 987/923 988/924
f 989/925 990/926 991/927 992/928
f 993/929 994/930 995/931 996/932
f 997/933 998/934 999/935 1000/936
f 1001/937 1002/938 1003/939 1004/940
f 1005/941 1006/942 1007/943 1008/944
f 1009/945 1010/946 1011/947 1012/948
f 1013/949 1014/950 1015/951 1016/952
f 1017/953 1018/954 1019/955 1020/956
f 1021/957 1022/958 1023/959 1024/960
f 1025/961 1026/962 1027/963 1028/964
f 1029/965 1030/966 1031/967 1032/968
f 1033/969 1034/970 1035/971 1036/972
f 1037/973 1038/974 1039/975 1040/976
f 1041/977 1042/978 1043/979 1044/980
f 1045/981 1046/982 1047/983 1048/984
f 1049/985 1050/986 1051/987 1052/988
f 1053/989 1054/990 1055/991 1056/992
f 1057/993 1058/994 1059/995 1060/996
f 1061/997 1062/998 1063/999 1064/1000
f 1065/1001 1066/1002 1067/1003 1068/1004
f 1069/1005 1070/1006 1071/1007 1072/1008
f 1081/1009 1082/1010 1083/1011 1084/1012
f 1085/1013 1086/1014 1087/1015 1088/1016
f 1089/1017 1090/1018 1091/1019 1092/1020
f 1093/1021 1094/1022 1095/1023 1096/1024
f 1097/1025 1098/1026 1099/1027 1100/1028
f 1101/1029 1102/1030 1103/1031 1104/1032
f 1113/1033 1114/1034 1115/1035 1116/1036
f 1117/1037 1118/1038 1119/1039 1120/1040
f 1121/1041 1122/1042 1123/1043 1124/1044
f 1125/1045 1126/1046 1127/1047 1128/1048
f 1129/1049 1130/1050 1131/1051 1132/1052
f 1133/1053 1134/1054 1135/1055 1136/1056
f 1137/1057 1138/1058 1139/1059 1140/1060
f 1141/1061 1142/1062 1143/1063 1144/1064
f 1145/1065 1146/1066 1147/1067 1148/1068
f 1149/1069 1150/1070 1151/1071 1152/1072
f 1153/1073 1154/1074 1155/1075 1156/1076
f 1157/1077 1158/1078 1159/1079 1160/1080
f 1161/1081 1162/1082 1163/1083 1164/1084
f 1165/1085 1166/1086 1167/1087 1168/1088
f 1169/1089 1170/1090 1171/1091 1172/1092
f 1173/1093 1174/1094 1175/1095 1176/1096
f 1177/1097 1178/1098 1179/1099 1180/1100
f 1181/1101 1182/1102 1183/1103 1184/1104
