# RoastEngine Backrooms level
mtllib backrooms.mtl
v 2011.0750 0.0000 41.0750
v 2013.9250 0.0000 41.0750
v 2013.9250 0.0000 43.9250
v 2011.0750 0.0000 43.9250
v 2011.0750 3.0000 41.0750
v 2013.9250 3.0000 41.0750
v 2013.9250 3.0000 43.9250
v 2011.0750 3.0000 43.9250
v 2021.0750 0.0000 41.0750
v 2023.9250 0.0000 41.0750
v 2023.9250 0.0000 43.9250
v 2021.0750 0.0000 43.9250
v 2021.0750 3.0000 41.0750
v 2023.9250 3.0000 41.0750
v 2023.9250 3.0000 43.9250
v 2021.0750 3.0000 43.9250
v 2023.5750 0.0000 41.0750
v 2026.4250 0.0000 41.0750
v 2026.4250 0.0000 43.9250
v 2023.5750 0.0000 43.9250
v 2023.5750 3.0000 41.0750
v 2026.4250 3.0000 41.0750
v 2026.4250 3.0000 43.9250
v 2023.5750 3.0000 43.9250
v 2026.0750 0.0000 41.0750
v 2028.9250 0.0000 41.0750
v 2028.9250 0.0000 43.9250
v 2026.0750 0.0000 43.9250
v 2026.0750 3.0000 41.0750
v 2028.9250 3.0000 41.0750
v 2028.9250 3.0000 43.9250
v 2026.0750 3.0000 43.9250
v 2031.0750 0.0000 41.0750
v 2033.9250 0.0000 41.0750
v 2033.9250 0.0000 43.9250
v 2031.0750 0.0000 43.9250
v 2031.0750 3.0000 41.0750
v 2033.9250 3.0000 41.0750
v 2033.9250 3.0000 43.9250
v 2031.0750 3.0000 43.9250
v 2033.5750 0.0000 41.0750
v 2036.4250 0.0000 41.0750
v 2036.4250 0.0000 43.9250
v 2033.5750 0.0000 43.9250
v 2033.5750 3.0000 41.0750
v 2036.4250 3.0000 41.0750
v 2036.4250 3.0000 43.9250
v 2033.5750 3.0000 43.9250
v 2036.0750 0.0000 41.0750
v 2038.9250 0.0000 41.0750
v 2038.9250 0.0000 43.9250
v 2036.0750 0.0000 43.9250
v 2036.0750 3.0000 41.0750
v 2038.9250 3.0000 41.0750
v 2038.9250 3.0000 43.9250
v 2036.0750 3.0000 43.9250
v 2024.7400 2.4400 44.9750
v 2025.2600 2.4400 44.9750
v 2025.2600 2.4400 45.0250
v 2024.7400 2.4400 45.0250
v 2024.7400 2.6600 44.9750
v 2025.2600 2.6600 44.9750
v 2025.2600 2.6600 45.0250
v 2024.7400 2.6600 45.0250
usemtl black_wall
f 1 4 3 2
f 5 6 7 8
f 1 2 6 5
f 3 4 8 7
f 2 3 7 6
f 4 1 5 8
f 9 12 11 10
f 13 14 15 16
f 9 10 14 13
f 11 12 16 15
f 10 11 15 14
f 12 9 13 16
f 17 20 19 18
f 21 22 23 24
f 17 18 22 21
f 19 20 24 23
f 18 19 23 22
f 20 17 21 24
f 25 28 27 26
f 29 30 31 32
f 25 26 30 29
f 27 28 32 31
f 26 27 31 30
f 28 25 29 32
f 33 36 35 34
f 37 38 39 40
f 33 34 38 37
f 35 36 40 39
f 34 35 39 38
f 36 33 37 40
f 41 44 43 42
f 45 46 47 48
f 41 42 46 45
f 43 44 48 47
f 42 43 47 46
f 44 41 45 48
f 49 52 51 50
f 53 54 55 56
f 49 50 54 53
f 51 52 56 55
f 50 51 55 54
f 52 49 53 56
usemtl exit_sign
f 57 60 59 58
f 61 62 63 64
f 57 58 62 61
f 59 60 64 63
f 58 59 63 62
f 60 57 61 64
