# RoastEngine Backrooms level
mtllib backrooms.mtl
v 1144.2500 -0.5000 -55.7500
v 1144.2500 -0.5000 55.7500
v 1255.7500 -0.5000 55.7500
v 1255.7500 -0.5000 -55.7500
v 1144.2500 0.0000 -55.7500
v 1255.7500 0.0000 -55.7500
v 1255.7500 0.0000 55.7500
v 1144.2500 0.0000 55.7500
v 1144.2500 -0.5000 -55.7500
v 1255.7500 -0.5000 -55.7500
v 1255.7500 0.0000 -55.7500
v 1144.2500 0.0000 -55.7500
v 1255.7500 -0.5000 55.7500
v 1144.2500 -0.5000 55.7500
v 1144.2500 0.0000 55.7500
v 1255.7500 0.0000 55.7500
v 1255.7500 -0.5000 -55.7500
v 1255.7500 -0.5000 55.7500
v 1255.7500 0.0000 55.7500
v 1255.7500 0.0000 -55.7500
v 1144.2500 -0.5000 55.7500
v 1144.2500 -0.5000 -55.7500
v 1144.2500 0.0000 -55.7500
v 1144.2500 0.0000 55.7500
v 1144.2500 3.1000 -55.7500
v 1144.2500 3.1000 55.7500
v 1255.7500 3.1000 55.7500
v 1255.7500 3.1000 -55.7500
v 1144.2500 3.6000 -55.7500
v 1255.7500 3.6000 -55.7500
v 1255.7500 3.6000 55.7500
v 1144.2500 3.6000 55.7500
v 1144.2500 3.1000 -55.7500
v 1255.7500 3.1000 -55.7500
v 1255.7500 3.6000 -55.7500
v 1144.2500 3.6000 -55.7500
v 1255.7500 3.1000 55.7500
v 1144.2500 3.1000 55.7500
v 1144.2500 3.6000 55.7500
v 1255.7500 3.6000 55.7500
v 1255.7500 3.1000 -55.7500
v 1255.7500 3.1000 55.7500
v 1255.7500 3.6000 55.7500
v 1255.7500 3.6000 -55.7500
v 1144.2500 3.1000 55.7500
v 1144.2500 3.1000 -55.7500
v 1144.2500 3.6000 -55.7500
v 1144.2500 3.6000 55.7500
v 1144.2500 0.0000 -55.7500
v 1144.2500 0.0000 55.7500
v 1144.7500 0.0000 55.7500
v 1144.7500 0.0000 -55.7500
v 1144.2500 3.1000 -55.7500
v 1144.7500 3.1000 -55.7500
v 1144.7500 3.1000 55.7500
v 1144.2500 3.1000 55.7500
v 1144.2500 0.0000 -55.7500
v 1144.7500 0.0000 -55.7500
v 1144.7500 3.1000 -55.7500
v 1144.2500 3.1000 -55.7500
v 1144.7500 0.0000 55.7500
v 1144.2500 0.0000 55.7500
v 1144.2500 3.1000 55.7500
v 1144.7500 3.1000 55.7500
v 1144.7500 0.0000 -55.7500
v 1144.7500 0.0000 55.7500
v 1144.7500 3.1000 55.7500
v 1144.7500 3.1000 -55.7500
v 1144.2500 0.0000 55.7500
v 1144.2500 0.0000 -55.7500
v 1144.2500 3.1000 -55.7500
v 1144.2500 3.1000 55.7500
v 1144.2500 0.0000 -55.7500
v 1144.2500 0.0000 -55.2500
v 1255.7500 0.0000 -55.2500
v 1255.7500 0.0000 -55.7500
v 1144.2500 3.1000 -55.7500
v 1255.7500 3.1000 -55.7500
v 1255.7500 3.1000 -55.2500
v 1144.2500 3.1000 -55.2500
v 1144.2500 0.0000 -55.7500
v 1255.7500 0.0000 -55.7500
v 1255.7500 3.1000 -55.7500
v 1144.2500 3.1000 -55.7500
v 1255.7500 0.0000 -55.2500
v 1144.2500 0.0000 -55.2500
v 1144.2500 3.1000 -55.2500
v 1255.7500 3.1000 -55.2500
v 1255.7500 0.0000 -55.7500
v 1255.7500 0.0000 -55.2500
v 1255.7500 3.1000 -55.2500
v 1255.7500 3.1000 -55.7500
v 1144.2500 0.0000 -55.2500
v 1144.2500 0.0000 -55.7500
v 1144.2500 3.1000 -55.7500
v 1144.2500 3.1000 -55.2500
v 1255.2500 0.0000 -55.7500
v 1255.2500 0.0000 55.7500
v 1255.7500 0.0000 55.7500
v 1255.7500 0.0000 -55.7500
v 1255.2500 3.1000 -55.7500
v 1255.7500 3.1000 -55.7500
v 1255.7500 3.1000 55.7500
v 1255.2500 3.1000 55.7500
v 1255.2500 0.0000 -55.7500
v 1255.7500 0.0000 -55.7500
v 1255.7500 3.1000 -55.7500
v 1255.2500 3.1000 -55.7500
v 1255.7500 0.0000 55.7500
v 1255.2500 0.0000 55.7500
v 1255.2500 3.1000 55.7500
v 1255.7500 3.1000 55.7500
v 1255.7500 0.0000 -55.7500
v 1255.7500 0.0000 55.7500
v 1255.7500 3.1000 55.7500
v 1255.7500 3.1000 -55.7500
v 1255.2500 0.0000 55.7500
v 1255.2500 0.0000 -55.7500
v 1255.2500 3.1000 -55.7500
v 1255.2500 3.1000 55.7500
v 1144.2500 0.0000 55.2500
v 1144.2500 0.0000 55.7500
v 1255.7500 0.0000 55.7500
v 1255.7500 0.0000 55.2500
v 1144.2500 3.1000 55.2500
v 1255.7500 3.1000 55.2500
v 1255.7500 3.1000 55.7500
v 1144.2500 3.1000 55.7500
v 1144.2500 0.0000 55.2500
v 1255.7500 0.0000 55.2500
v 1255.7500 3.1000 55.2500
v 1144.2500 3.1000 55.2500
v 1255.7500 0.0000 55.7500
v 1144.2500 0.0000 55.7500
v 1144.2500 3.1000 55.7500
v 1255.7500 3.1000 55.7500
v 1255.7500 0.0000 55.2500
v 1255.7500 0.0000 55.7500
v 1255.7500 3.1000 55.7500
v 1255.7500 3.1000 55.2500
v 1144.2500 0.0000 55.7500
v 1144.2500 0.0000 55.2500
v 1144.2500 3.1000 55.2500
v 1144.2500 3.1000 55.7500
v 1178.7161 0.0000 -13.0483
v 1178.7161 0.0000 -10.7976
v 1180.4461 0.0000 -10.7976
v 1180.4461 0.0000 -13.0483
v 1178.7161 0.0100 -13.0483
v 1180.4461 0.0100 -13.0483
v 1180.4461 0.0100 -10.7976
v 1178.7161 0.0100 -10.7976
v 1178.7161 0.0000 -13.0483
v 1180.4461 0.0000 -13.0483
v 1180.4461 0.0100 -13.0483
v 1178.7161 0.0100 -13.0483
v 1180.4461 0.0000 -10.7976
v 1178.7161 0.0000 -10.7976
v 1178.7161 0.0100 -10.7976
v 1180.4461 0.0100 -10.7976
v 1180.4461 0.0000 -13.0483
v 1180.4461 0.0000 -10.7976
v 1180.4461 0.0100 -10.7976
v 1180.4461 0.0100 -13.0483
v 1178.7161 0.0000 -10.7976
v 1178.7161 0.0000 -13.0483
v 1178.7161 0.0100 -13.0483
v 1178.7161 0.0100 -10.7976
v 1173.7846 0.0000 -15.4602
v 1173.7846 0.0000 -14.2173
v 1175.7891 0.0000 -14.2173
v 1175.7891 0.0000 -15.4602
v 1173.7846 0.0100 -15.4602
v 1175.7891 0.0100 -15.4602
v 1175.7891 0.0100 -14.2173
v 1173.7846 0.0100 -14.2173
v 1173.7846 0.0000 -15.4602
v 1175.7891 0.0000 -15.4602
v 1175.7891 0.0100 -15.4602
v 1173.7846 0.0100 -15.4602
v 1175.7891 0.0000 -14.2173
v 1173.7846 0.0000 -14.2173
v 1173.7846 0.0100 -14.2173
v 1175.7891 0.0100 -14.2173
v 1175.7891 0.0000 -15.4602
v 1175.7891 0.0000 -14.2173
v 1175.7891 0.0100 -14.2173
v 1175.7891 0.0100 -15.4602
v 1173.7846 0.0000 -14.2173
v 1173.7846 0.0000 -15.4602
v 1173.7846 0.0100 -15.4602
v 1173.7846 0.0100 -14.2173
v 1217.8199 0.0000 22.0235
v 1217.8199 0.0000 23.6233
v 1219.2559 0.0000 23.6233
v 1219.2559 0.0000 22.0235
v 1217.8199 0.0100 22.0235
v 1219.2559 0.0100 22.0235
v 1219.2559 0.0100 23.6233
v 1217.8199 0.0100 23.6233
v 1217.8199 0.0000 22.0235
v 1219.2559 0.0000 22.0235
v 1219.2559 0.0100 22.0235
v 1217.8199 0.0100 22.0235
v 1219.2559 0.0000 23.6233
v 1217.8199 0.0000 23.6233
v 1217.8199 0.0100 23.6233
v 1219.2559 0.0100 23.6233
v 1219.2559 0.0000 22.0235
v 1219.2559 0.0000 23.6233
v 1219.2559 0.0100 23.6233
v 1219.2559 0.0100 22.0235
v 1217.8199 0.0000 23.6233
v 1217.8199 0.0000 22.0235
v 1217.8199 0.0100 22.0235
v 1217.8199 0.0100 23.6233
v 1150.6683 0.0000 -38.3658
v 1150.6683 0.0000 -36.6436
v 1153.0258 0.0000 -36.6436
v 1153.0258 0.0000 -38.3658
v 1150.6683 0.0100 -38.3658
v 1153.0258 0.0100 -38.3658
v 1153.0258 0.0100 -36.6436
v 1150.6683 0.0100 -36.6436
v 1150.6683 0.0000 -38.3658
v 1153.0258 0.0000 -38.3658
v 1153.0258 0.0100 -38.3658
v 1150.6683 0.0100 -38.3658
v 1153.0258 0.0000 -36.6436
v 1150.6683 0.0000 -36.6436
v 1150.6683 0.0100 -36.6436
v 1153.0258 0.0100 -36.6436
v 1153.0258 0.0000 -38.3658
v 1153.0258 0.0000 -36.6436
v 1153.0258 0.0100 -36.6436
v 1153.0258 0.0100 -38.3658
v 1150.6683 0.0000 -36.6436
v 1150.6683 0.0000 -38.3658
v 1150.6683 0.0100 -38.3658
v 1150.6683 0.0100 -36.6436
v 1222.4609 0.0000 -9.0895
v 1222.4609 0.0000 -7.1963
v 1224.2410 0.0000 -7.1963
v 1224.2410 0.0000 -9.0895
v 1222.4609 0.0100 -9.0895
v 1224.2410 0.0100 -9.0895
v 1224.2410 0.0100 -7.1963
v 1222.4609 0.0100 -7.1963
v 1222.4609 0.0000 -9.0895
v 1224.2410 0.0000 -9.0895
v 1224.2410 0.0100 -9.0895
v 1222.4609 0.0100 -9.0895
v 1224.2410 0.0000 -7.1963
v 1222.4609 0.0000 -7.1963
v 1222.4609 0.0100 -7.1963
v 1224.2410 0.0100 -7.1963
v 1224.2410 0.0000 -9.0895
v 1224.2410 0.0000 -7.1963
v 1224.2410 0.0100 -7.1963
v 1224.2410 0.0100 -9.0895
v 1222.4609 0.0000 -7.1963
v 1222.4609 0.0000 -9.0895
v 1222.4609 0.0100 -9.0895
v 1222.4609 0.0100 -7.1963
v 1239.7338 0.0000 53.1763
v 1239.7338 0.0000 55.2600
v 1241.6222 0.0000 55.2600
v 1241.6222 0.0000 53.1763
v 1239.7338 0.0100 53.1763
v 1241.6222 0.0100 53.1763
v 1241.6222 0.0100 55.2600
v 1239.7338 0.0100 55.2600
v 1239.7338 0.0000 53.1763
v 1241.6222 0.0000 53.1763
v 1241.6222 0.0100 53.1763
v 1239.7338 0.0100 53.1763
v 1241.6222 0.0000 55.2600
v 1239.7338 0.0000 55.2600
v 1239.7338 0.0100 55.2600
v 1241.6222 0.0100 55.2600
v 1241.6222 0.0000 53.1763
v 1241.6222 0.0000 55.2600
v 1241.6222 0.0100 55.2600
v 1241.6222 0.0100 53.1763
v 1239.7338 0.0000 55.2600
v 1239.7338 0.0000 53.1763
v 1239.7338 0.0100 53.1763
v 1239.7338 0.0100 55.2600
v 1241.3374 0.0000 34.0299
v 1241.3374 0.0000 37.8626
v 1244.2648 0.0000 37.8626
v 1244.2648 0.0000 34.0299
v 1241.3374 0.0100 34.0299
v 1244.2648 0.0100 34.0299
v 1244.2648 0.0100 37.8626
v 1241.3374 0.0100 37.8626
v 1241.3374 0.0000 34.0299
v 1244.2648 0.0000 34.0299
v 1244.2648 0.0100 34.0299
v 1241.3374 0.0100 34.0299
v 1244.2648 0.0000 37.8626
v 1241.3374 0.0000 37.8626
v 1241.3374 0.0100 37.8626
v 1244.2648 0.0100 37.8626
v 1244.2648 0.0000 34.0299
v 1244.2648 0.0000 37.8626
v 1244.2648 0.0100 37.8626
v 1244.2648 0.0100 34.0299
v 1241.3374 0.0000 37.8626
v 1241.3374 0.0000 34.0299
v 1241.3374 0.0100 34.0299
v 1241.3374 0.0100 37.8626
v 1163.2714 0.0000 -48.7565
v 1163.2714 0.0000 -44.7134
v 1166.5113 0.0000 -44.7134
v 1166.5113 0.0000 -48.7565
v 1163.2714 0.0100 -48.7565
v 1166.5113 0.0100 -48.7565
v 1166.5113 0.0100 -44.7134
v 1163.2714 0.0100 -44.7134
v 1163.2714 0.0000 -48.7565
v 1166.5113 0.0000 -48.7565
v 1166.5113 0.0100 -48.7565
v 1163.2714 0.0100 -48.7565
v 1166.5113 0.0000 -44.7134
v 1163.2714 0.0000 -44.7134
v 1163.2714 0.0100 -44.7134
v 1166.5113 0.0100 -44.7134
v 1166.5113 0.0000 -48.7565
v 1166.5113 0.0000 -44.7134
v 1166.5113 0.0100 -44.7134
v 1166.5113 0.0100 -48.7565
v 1163.2714 0.0000 -44.7134
v 1163.2714 0.0000 -48.7565
v 1163.2714 0.0100 -48.7565
v 1163.2714 0.0100 -44.7134
v 1249.8957 0.0000 -49.8391
v 1249.8957 0.0000 -47.7012
v 1251.9696 0.0000 -47.7012
v 1251.9696 0.0000 -49.8391
v 1249.8957 0.0100 -49.8391
v 1251.9696 0.0100 -49.8391
v 1251.9696 0.0100 -47.7012
v 1249.8957 0.0100 -47.7012
v 1249.8957 0.0000 -49.8391
v 1251.9696 0.0000 -49.8391
v 1251.9696 0.0100 -49.8391
v 1249.8957 0.0100 -49.8391
v 1251.9696 0.0000 -47.7012
v 1249.8957 0.0000 -47.7012
v 1249.8957 0.0100 -47.7012
v 1251.9696 0.0100 -47.7012
v 1251.9696 0.0000 -49.8391
v 1251.9696 0.0000 -47.7012
v 1251.9696 0.0100 -47.7012
v 1251.9696 0.0100 -49.8391
v 1249.8957 0.0000 -47.7012
v 1249.8957 0.0000 -49.8391
v 1249.8957 0.0100 -49.8391
v 1249.8957 0.0100 -47.7012
v 1227.6536 0.0000 36.4159
v 1227.6536 0.0000 38.4923
v 1229.2102 0.0000 38.4923
v 1229.2102 0.0000 36.4159
v 1227.6536 0.0100 36.4159
v 1229.2102 0.0100 36.4159
v 1229.2102 0.0100 38.4923
v 1227.6536 0.0100 38.4923
v 1227.6536 0.0000 36.4159
v 1229.2102 0.0000 36.4159
v 1229.2102 0.0100 36.4159
v 1227.6536 0.0100 36.4159
v 1229.2102 0.0000 38.4923
v 1227.6536 0.0000 38.4923
v 1227.6536 0.0100 38.4923
v 1229.2102 0.0100 38.4923
v 1229.2102 0.0000 36.4159
v 1229.2102 0.0000 38.4923
v 1229.2102 0.0100 38.4923
v 1229.2102 0.0100 36.4159
v 1227.6536 0.0000 38.4923
v 1227.6536 0.0000 36.4159
v 1227.6536 0.0100 36.4159
v 1227.6536 0.0100 38.4923
v 1170.3703 0.0000 -12.9722
v 1170.3703 0.0000 -10.7730
v 1172.9015 0.0000 -10.7730
v 1172.9015 0.0000 -12.9722
v 1170.3703 0.0100 -12.9722
v 1172.9015 0.0100 -12.9722
v 1172.9015 0.0100 -10.7730
v 1170.3703 0.0100 -10.7730
v 1170.3703 0.0000 -12.9722
v 1172.9015 0.0000 -12.9722
v 1172.9015 0.0100 -12.9722
v 1170.3703 0.0100 -12.9722
v 1172.9015 0.0000 -10.7730
v 1170.3703 0.0000 -10.7730
v 1170.3703 0.0100 -10.7730
v 1172.9015 0.0100 -10.7730
v 1172.9015 0.0000 -12.9722
v 1172.9015 0.0000 -10.7730
v 1172.9015 0.0100 -10.7730
v 1172.9015 0.0100 -12.9722
v 1170.3703 0.0000 -10.7730
v 1170.3703 0.0000 -12.9722
v 1170.3703 0.0100 -12.9722
v 1170.3703 0.0100 -10.7730
v 1172.5740 0.0000 53.2272
v 1172.5740 0.0000 55.0749
v 1174.2373 0.0000 55.0749
v 1174.2373 0.0000 53.2272
v 1172.5740 0.0100 53.2272
v 1174.2373 0.0100 53.2272
v 1174.2373 0.0100 55.0749
v 1172.5740 0.0100 55.0749
v 1172.5740 0.0000 53.2272
v 1174.2373 0.0000 53.2272
v 1174.2373 0.0100 53.2272
v 1172.5740 0.0100 53.2272
v 1174.2373 0.0000 55.0749
v 1172.5740 0.0000 55.0749
v 1172.5740 0.0100 55.0749
v 1174.2373 0.0100 55.0749
v 1174.2373 0.0000 53.2272
v 1174.2373 0.0000 55.0749
v 1174.2373 0.0100 55.0749
v 1174.2373 0.0100 53.2272
v 1172.5740 0.0000 55.0749
v 1172.5740 0.0000 53.2272
v 1172.5740 0.0100 53.2272
v 1172.5740 0.0100 55.0749
v 1146.8881 0.0000 53.3778
v 1146.8881 0.0000 54.4978
v 1148.2895 0.0000 54.4978
v 1148.2895 0.0000 53.3778
v 1146.8881 0.0100 53.3778
v 1148.2895 0.0100 53.3778
v 1148.2895 0.0100 54.4978
v 1146.8881 0.0100 54.4978
v 1146.8881 0.0000 53.3778
v 1148.2895 0.0000 53.3778
v 1148.2895 0.0100 53.3778
v 1146.8881 0.0100 53.3778
v 1148.2895 0.0000 54.4978
v 1146.8881 0.0000 54.4978
v 1146.8881 0.0100 54.4978
v 1148.2895 0.0100 54.4978
v 1148.2895 0.0000 53.3778
v 1148.2895 0.0000 54.4978
v 1148.2895 0.0100 54.4978
v 1148.2895 0.0100 53.3778
v 1146.8881 0.0000 54.4978
v 1146.8881 0.0000 53.3778
v 1146.8881 0.0100 53.3778
v 1146.8881 0.0100 54.4978
v 1187.7026 0.0000 -0.8211
v 1187.7026 0.0000 2.6652
v 1190.5028 0.0000 2.6652
v 1190.5028 0.0000 -0.8211
v 1187.7026 0.0100 -0.8211
v 1190.5028 0.0100 -0.8211
v 1190.5028 0.0100 2.6652
v 1187.7026 0.0100 2.6652
v 1187.7026 0.0000 -0.8211
v 1190.5028 0.0000 -0.8211
v 1190.5028 0.0100 -0.8211
v 1187.7026 0.0100 -0.8211
v 1190.5028 0.0000 2.6652
v 1187.7026 0.0000 2.6652
v 1187.7026 0.0100 2.6652
v 1190.5028 0.0100 2.6652
v 1190.5028 0.0000 -0.8211
v 1190.5028 0.0000 2.6652
v 1190.5028 0.0100 2.6652
v 1190.5028 0.0100 -0.8211
v 1187.7026 0.0000 2.6652
v 1187.7026 0.0000 -0.8211
v 1187.7026 0.0100 -0.8211
v 1187.7026 0.0100 2.6652
v 1236.5969 0.0000 21.0017
v 1236.5969 0.0000 23.1991
v 1239.3878 0.0000 23.1991
v 1239.3878 0.0000 21.0017
v 1236.5969 0.0100 21.0017
v 1239.3878 0.0100 21.0017
v 1239.3878 0.0100 23.1991
v 1236.5969 0.0100 23.1991
v 1236.5969 0.0000 21.0017
v 1239.3878 0.0000 21.0017
v 1239.3878 0.0100 21.0017
v 1236.5969 0.0100 21.0017
v 1239.3878 0.0000 23.1991
v 1236.5969 0.0000 23.1991
v 1236.5969 0.0100 23.1991
v 1239.3878 0.0100 23.1991
v 1239.3878 0.0000 21.0017
v 1239.3878 0.0000 23.1991
v 1239.3878 0.0100 23.1991
v 1239.3878 0.0100 21.0017
v 1236.5969 0.0000 23.1991
v 1236.5969 0.0000 21.0017
v 1236.5969 0.0100 21.0017
v 1236.5969 0.0100 23.1991
v 1185.2485 0.0000 28.8634
v 1185.2485 0.0000 31.6182
v 1188.0575 0.0000 31.6182
v 1188.0575 0.0000 28.8634
v 1185.2485 0.0100 28.8634
v 1188.0575 0.0100 28.8634
v 1188.0575 0.0100 31.6182
v 1185.2485 0.0100 31.6182
v 1185.2485 0.0000 28.8634
v 1188.0575 0.0000 28.8634
v 1188.0575 0.0100 28.8634
v 1185.2485 0.0100 28.8634
v 1188.0575 0.0000 31.6182
v 1185.2485 0.0000 31.6182
v 1185.2485 0.0100 31.6182
v 1188.0575 0.0100 31.6182
v 1188.0575 0.0000 28.8634
v 1188.0575 0.0000 31.6182
v 1188.0575 0.0100 31.6182
v 1188.0575 0.0100 28.8634
v 1185.2485 0.0000 31.6182
v 1185.2485 0.0000 28.8634
v 1185.2485 0.0100 28.8634
v 1185.2485 0.0100 31.6182
v 1180.9622 0.0000 44.1358
v 1180.9622 0.0000 45.6632
v 1183.4449 0.0000 45.6632
v 1183.4449 0.0000 44.1358
v 1180.9622 0.0100 44.1358
v 1183.4449 0.0100 44.1358
v 1183.4449 0.0100 45.6632
v 1180.9622 0.0100 45.6632
v 1180.9622 0.0000 44.1358
v 1183.4449 0.0000 44.1358
v 1183.4449 0.0100 44.1358
v 1180.9622 0.0100 44.1358
v 1183.4449 0.0000 45.6632
v 1180.9622 0.0000 45.6632
v 1180.9622 0.0100 45.6632
v 1183.4449 0.0100 45.6632
v 1183.4449 0.0000 44.1358
v 1183.4449 0.0000 45.6632
v 1183.4449 0.0100 45.6632
v 1183.4449 0.0100 44.1358
v 1180.9622 0.0000 45.6632
v 1180.9622 0.0000 44.1358
v 1180.9622 0.0100 44.1358
v 1180.9622 0.0100 45.6632
v 1167.9132 0.0000 -23.6684
v 1167.9132 0.0000 -21.2418
v 1170.8919 0.0000 -21.2418
v 1170.8919 0.0000 -23.6684
v 1167.9132 0.0100 -23.6684
v 1170.8919 0.0100 -23.6684
v 1170.8919 0.0100 -21.2418
v 1167.9132 0.0100 -21.2418
v 1167.9132 0.0000 -23.6684
v 1170.8919 0.0000 -23.6684
v 1170.8919 0.0100 -23.6684
v 1167.9132 0.0100 -23.6684
v 1170.8919 0.0000 -21.2418
v 1167.9132 0.0000 -21.2418
v 1167.9132 0.0100 -21.2418
v 1170.8919 0.0100 -21.2418
v 1170.8919 0.0000 -23.6684
v 1170.8919 0.0000 -21.2418
v 1170.8919 0.0100 -21.2418
v 1170.8919 0.0100 -23.6684
v 1167.9132 0.0000 -21.2418
v 1167.9132 0.0000 -23.6684
v 1167.9132 0.0100 -23.6684
v 1167.9132 0.0100 -21.2418
v 1227.2548 0.0000 -45.8218
v 1227.2548 0.0000 -43.7691
v 1229.5960 0.0000 -43.7691
v 1229.5960 0.0000 -45.8218
v 1227.2548 0.0100 -45.8218
v 1229.5960 0.0100 -45.8218
v 1229.5960 0.0100 -43.7691
v 1227.2548 0.0100 -43.7691
v 1227.2548 0.0000 -45.8218
v 1229.5960 0.0000 -45.8218
v 1229.5960 0.0100 -45.8218
v 1227.2548 0.0100 -45.8218
v 1229.5960 0.0000 -43.7691
v 1227.2548 0.0000 -43.7691
v 1227.2548 0.0100 -43.7691
v 1229.5960 0.0100 -43.7691
v 1229.5960 0.0000 -45.8218
v 1229.5960 0.0000 -43.7691
v 1229.5960 0.0100 -43.7691
v 1229.5960 0.0100 -45.8218
v 1227.2548 0.0000 -43.7691
v 1227.2548 0.0000 -45.8218
v 1227.2548 0.0100 -45.8218
v 1227.2548 0.0100 -43.7691
v 1218.4486 0.0000 -9.7855
v 1218.4486 0.0000 -5.4713
v 1221.9141 0.0000 -5.4713
v 1221.9141 0.0000 -9.7855
v 1218.4486 0.0100 -9.7855
v 1221.9141 0.0100 -9.7855
v 1221.9141 0.0100 -5.4713
v 1218.4486 0.0100 -5.4713
v 1218.4486 0.0000 -9.7855
v 1221.9141 0.0000 -9.7855
v 1221.9141 0.0100 -9.7855
v 1218.4486 0.0100 -9.7855
v 1221.9141 0.0000 -5.4713
v 1218.4486 0.0000 -5.4713
v 1218.4486 0.0100 -5.4713
v 1221.9141 0.0100 -5.4713
v 1221.9141 0.0000 -9.7855
v 1221.9141 0.0000 -5.4713
v 1221.9141 0.0100 -5.4713
v 1221.9141 0.0100 -9.7855
v 1218.4486 0.0000 -5.4713
v 1218.4486 0.0000 -9.7855
v 1218.4486 0.0100 -9.7855
v 1218.4486 0.0100 -5.4713
v 1190.6365 0.0000 16.7130
v 1190.6365 0.0000 21.3677
v 1194.0163 0.0000 21.3677
v 1194.0163 0.0000 16.7130
v 1190.6365 0.0100 16.7130
v 1194.0163 0.0100 16.7130
v 1194.0163 0.0100 21.3677
v 1190.6365 0.0100 21.3677
v 1190.6365 0.0000 16.7130
v 1194.0163 0.0000 16.7130
v 1194.0163 0.0100 16.7130
v 1190.6365 0.0100 16.7130
v 1194.0163 0.0000 21.3677
v 1190.6365 0.0000 21.3677
v 1190.6365 0.0100 21.3677
v 1194.0163 0.0100 21.3677
v 1194.0163 0.0000 16.7130
v 1194.0163 0.0000 21.3677
v 1194.0163 0.0100 21.3677
v 1194.0163 0.0100 16.7130
v 1190.6365 0.0000 21.3677
v 1190.6365 0.0000 16.7130
v 1190.6365 0.0100 16.7130
v 1190.6365 0.0100 21.3677
v 1169.9160 0.0000 -47.8776
v 1169.9160 0.0000 -45.8079
v 1171.5317 0.0000 -45.8079
v 1171.5317 0.0000 -47.8776
v 1169.9160 0.0100 -47.8776
v 1171.5317 0.0100 -47.8776
v 1171.5317 0.0100 -45.8079
v 1169.9160 0.0100 -45.8079
v 1169.9160 0.0000 -47.8776
v 1171.5317 0.0000 -47.8776
v 1171.5317 0.0100 -47.8776
v 1169.9160 0.0100 -47.8776
v 1171.5317 0.0000 -45.8079
v 1169.9160 0.0000 -45.8079
v 1169.9160 0.0100 -45.8079
v 1171.5317 0.0100 -45.8079
v 1171.5317 0.0000 -47.8776
v 1171.5317 0.0000 -45.8079
v 1171.5317 0.0100 -45.8079
v 1171.5317 0.0100 -47.8776
v 1169.9160 0.0000 -45.8079
v 1169.9160 0.0000 -47.8776
v 1169.9160 0.0100 -47.8776
v 1169.9160 0.0100 -45.8079
v 1186.1777 0.0000 42.3383
v 1186.1777 0.0000 44.2180
v 1187.8763 0.0000 44.2180
v 1187.8763 0.0000 42.3383
v 1186.1777 0.0100 42.3383
v 1187.8763 0.0100 42.3383
v 1187.8763 0.0100 44.2180
v 1186.1777 0.0100 44.2180
v 1186.1777 0.0000 42.3383
v 1187.8763 0.0000 42.3383
v 1187.8763 0.0100 42.3383
v 1186.1777 0.0100 42.3383
v 1187.8763 0.0000 44.2180
v 1186.1777 0.0000 44.2180
v 1186.1777 0.0100 44.2180
v 1187.8763 0.0100 44.2180
v 1187.8763 0.0000 42.3383
v 1187.8763 0.0000 44.2180
v 1187.8763 0.0100 44.2180
v 1187.8763 0.0100 42.3383
v 1186.1777 0.0000 44.2180
v 1186.1777 0.0000 42.3383
v 1186.1777 0.0100 42.3383
v 1186.1777 0.0100 44.2180
v 1182.1514 0.0000 -23.5194
v 1182.1514 0.0000 -19.6153
v 1185.5426 0.0000 -19.6153
v 1185.5426 0.0000 -23.5194
v 1182.1514 0.0100 -23.5194
v 1185.5426 0.0100 -23.5194
v 1185.5426 0.0100 -19.6153
v 1182.1514 0.0100 -19.6153
v 1182.1514 0.0000 -23.5194
v 1185.5426 0.0000 -23.5194
v 1185.5426 0.0100 -23.5194
v 1182.1514 0.0100 -23.5194
v 1185.5426 0.0000 -19.6153
v 1182.1514 0.0000 -19.6153
v 1182.1514 0.0100 -19.6153
v 1185.5426 0.0100 -19.6153
v 1185.5426 0.0000 -23.5194
v 1185.5426 0.0000 -19.6153
v 1185.5426 0.0100 -19.6153
v 1185.5426 0.0100 -23.5194
v 1182.1514 0.0000 -19.6153
v 1182.1514 0.0000 -23.5194
v 1182.1514 0.0100 -23.5194
v 1182.1514 0.0100 -19.6153
v 1210.5900 0.0000 15.8542
v 1210.5900 0.0000 19.2767
v 1213.2581 0.0000 19.2767
v 1213.2581 0.0000 15.8542
v 1210.5900 0.0100 15.8542
v 1213.2581 0.0100 15.8542
v 1213.2581 0.0100 19.2767
v 1210.5900 0.0100 19.2767
v 1210.5900 0.0000 15.8542
v 1213.2581 0.0000 15.8542
v 1213.2581 0.0100 15.8542
v 1210.5900 0.0100 15.8542
v 1213.2581 0.0000 19.2767
v 1210.5900 0.0000 19.2767
v 1210.5900 0.0100 19.2767
v 1213.2581 0.0100 19.2767
v 1213.2581 0.0000 15.8542
v 1213.2581 0.0000 19.2767
v 1213.2581 0.0100 19.2767
v 1213.2581 0.0100 15.8542
v 1210.5900 0.0000 19.2767
v 1210.5900 0.0000 15.8542
v 1210.5900 0.0100 15.8542
v 1210.5900 0.0100 19.2767
v 1234.0208 0.0000 16.5044
v 1234.0208 0.0000 19.7150
v 1237.1337 0.0000 19.7150
v 1237.1337 0.0000 16.5044
v 1234.0208 0.0100 16.5044
v 1237.1337 0.0100 16.5044
v 1237.1337 0.0100 19.7150
v 1234.0208 0.0100 19.7150
v 1234.0208 0.0000 16.5044
v 1237.1337 0.0000 16.5044
v 1237.1337 0.0100 16.5044
v 1234.0208 0.0100 16.5044
v 1237.1337 0.0000 19.7150
v 1234.0208 0.0000 19.7150
v 1234.0208 0.0100 19.7150
v 1237.1337 0.0100 19.7150
v 1237.1337 0.0000 16.5044
v 1237.1337 0.0000 19.7150
v 1237.1337 0.0100 19.7150
v 1237.1337 0.0100 16.5044
v 1234.0208 0.0000 19.7150
v 1234.0208 0.0000 16.5044
v 1234.0208 0.0100 16.5044
v 1234.0208 0.0100 19.7150
v 1196.9673 0.0000 -28.5932
v 1196.9673 0.0000 -25.5636
v 1199.6291 0.0000 -25.5636
v 1199.6291 0.0000 -28.5932
v 1196.9673 0.0100 -28.5932
v 1199.6291 0.0100 -28.5932
v 1199.6291 0.0100 -25.5636
v 1196.9673 0.0100 -25.5636
v 1196.9673 0.0000 -28.5932
v 1199.6291 0.0000 -28.5932
v 1199.6291 0.0100 -28.5932
v 1196.9673 0.0100 -28.5932
v 1199.6291 0.0000 -25.5636
v 1196.9673 0.0000 -25.5636
v 1196.9673 0.0100 -25.5636
v 1199.6291 0.0100 -25.5636
v 1199.6291 0.0000 -28.5932
v 1199.6291 0.0000 -25.5636
v 1199.6291 0.0100 -25.5636
v 1199.6291 0.0100 -28.5932
v 1196.9673 0.0000 -25.5636
v 1196.9673 0.0000 -28.5932
v 1196.9673 0.0100 -28.5932
v 1196.9673 0.0100 -25.5636
v 1149.9348 0.0000 34.7248
v 1149.9348 0.0000 38.4843
v 1153.1462 0.0000 38.4843
v 1153.1462 0.0000 34.7248
v 1149.9348 0.0100 34.7248
v 1153.1462 0.0100 34.7248
v 1153.1462 0.0100 38.4843
v 1149.9348 0.0100 38.4843
v 1149.9348 0.0000 34.7248
v 1153.1462 0.0000 34.7248
v 1153.1462 0.0100 34.7248
v 1149.9348 0.0100 34.7248
v 1153.1462 0.0000 38.4843
v 1149.9348 0.0000 38.4843
v 1149.9348 0.0100 38.4843
v 1153.1462 0.0100 38.4843
v 1153.1462 0.0000 34.7248
v 1153.1462 0.0000 38.4843
v 1153.1462 0.0100 38.4843
v 1153.1462 0.0100 34.7248
v 1149.9348 0.0000 38.4843
v 1149.9348 0.0000 34.7248
v 1149.9348 0.0100 34.7248
v 1149.9348 0.0100 38.4843
v 1195.7220 0.0000 -6.7351
v 1195.7220 0.0000 -3.8828
v 1198.1856 0.0000 -3.8828
v 1198.1856 0.0000 -6.7351
v 1195.7220 0.0100 -6.7351
v 1198.1856 0.0100 -6.7351
v 1198.1856 0.0100 -3.8828
v 1195.7220 0.0100 -3.8828
v 1195.7220 0.0000 -6.7351
v 1198.1856 0.0000 -6.7351
v 1198.1856 0.0100 -6.7351
v 1195.7220 0.0100 -6.7351
v 1198.1856 0.0000 -3.8828
v 1195.7220 0.0000 -3.8828
v 1195.7220 0.0100 -3.8828
v 1198.1856 0.0100 -3.8828
v 1198.1856 0.0000 -6.7351
v 1198.1856 0.0000 -3.8828
v 1198.1856 0.0100 -3.8828
v 1198.1856 0.0100 -6.7351
v 1195.7220 0.0000 -3.8828
v 1195.7220 0.0000 -6.7351
v 1195.7220 0.0100 -6.7351
v 1195.7220 0.0100 -3.8828
v 1185.6708 0.0000 20.3649
v 1185.6708 0.0000 22.2279
v 1187.1372 0.0000 22.2279
v 1187.1372 0.0000 20.3649
v 1185.6708 0.0100 20.3649
v 1187.1372 0.0100 20.3649
v 1187.1372 0.0100 22.2279
v 1185.6708 0.0100 22.2279
v 1185.6708 0.0000 20.3649
v 1187.1372 0.0000 20.3649
v 1187.1372 0.0100 20.3649
v 1185.6708 0.0100 20.3649
v 1187.1372 0.0000 22.2279
v 1185.6708 0.0000 22.2279
v 1185.6708 0.0100 22.2279
v 1187.1372 0.0100 22.2279
v 1187.1372 0.0000 20.3649
v 1187.1372 0.0000 22.2279
v 1187.1372 0.0100 22.2279
v 1187.1372 0.0100 20.3649
v 1185.6708 0.0000 22.2279
v 1185.6708 0.0000 20.3649
v 1185.6708 0.0100 20.3649
v 1185.6708 0.0100 22.2279
v 1194.7802 0.0000 1.2019
v 1194.7802 0.0000 2.8170
v 1196.7596 0.0000 2.8170
v 1196.7596 0.0000 1.2019
v 1194.7802 0.0100 1.2019
v 1196.7596 0.0100 1.2019
v 1196.7596 0.0100 2.8170
v 1194.7802 0.0100 2.8170
v 1194.7802 0.0000 1.2019
v 1196.7596 0.0000 1.2019
v 1196.7596 0.0100 1.2019
v 1194.7802 0.0100 1.2019
v 1196.7596 0.0000 2.8170
v 1194.7802 0.0000 2.8170
v 1194.7802 0.0100 2.8170
v 1196.7596 0.0100 2.8170
v 1196.7596 0.0000 1.2019
v 1196.7596 0.0000 2.8170
v 1196.7596 0.0100 2.8170
v 1196.7596 0.0100 1.2019
v 1194.7802 0.0000 2.8170
v 1194.7802 0.0000 1.2019
v 1194.7802 0.0100 1.2019
v 1194.7802 0.0100 2.8170
v 1163.6361 0.0000 -37.3872
v 1163.6361 0.0000 -36.1531
v 1164.7621 0.0000 -36.1531
v 1164.7621 0.0000 -37.3872
v 1163.6361 0.0100 -37.3872
v 1164.7621 0.0100 -37.3872
v 1164.7621 0.0100 -36.1531
v 1163.6361 0.0100 -36.1531
v 1163.6361 0.0000 -37.3872
v 1164.7621 0.0000 -37.3872
v 1164.7621 0.0100 -37.3872
v 1163.6361 0.0100 -37.3872
v 1164.7621 0.0000 -36.1531
v 1163.6361 0.0000 -36.1531
v 1163.6361 0.0100 -36.1531
v 1164.7621 0.0100 -36.1531
v 1164.7621 0.0000 -37.3872
v 1164.7621 0.0000 -36.1531
v 1164.7621 0.0100 -36.1531
v 1164.7621 0.0100 -37.3872
v 1163.6361 0.0000 -36.1531
v 1163.6361 0.0000 -37.3872
v 1163.6361 0.0100 -37.3872
v 1163.6361 0.0100 -36.1531
v 1227.9744 0.0000 -38.9433
v 1227.9744 0.0000 -36.1789
v 1230.0057 0.0000 -36.1789
v 1230.0057 0.0000 -38.9433
v 1227.9744 0.0100 -38.9433
v 1230.0057 0.0100 -38.9433
v 1230.0057 0.0100 -36.1789
v 1227.9744 0.0100 -36.1789
v 1227.9744 0.0000 -38.9433
v 1230.0057 0.0000 -38.9433
v 1230.0057 0.0100 -38.9433
v 1227.9744 0.0100 -38.9433
v 1230.0057 0.0000 -36.1789
v 1227.9744 0.0000 -36.1789
v 1227.9744 0.0100 -36.1789
v 1230.0057 0.0100 -36.1789
v 1230.0057 0.0000 -38.9433
v 1230.0057 0.0000 -36.1789
v 1230.0057 0.0100 -36.1789
v 1230.0057 0.0100 -38.9433
v 1227.9744 0.0000 -36.1789
v 1227.9744 0.0000 -38.9433
v 1227.9744 0.0100 -38.9433
v 1227.9744 0.0100 -36.1789
v 1166.4902 0.0000 -18.8116
v 1166.4902 0.0000 -14.8826
v 1169.3607 0.0000 -14.8826
v 1169.3607 0.0000 -18.8116
v 1166.4902 0.0100 -18.8116
v 1169.3607 0.0100 -18.8116
v 1169.3607 0.0100 -14.8826
v 1166.4902 0.0100 -14.8826
v 1166.4902 0.0000 -18.8116
v 1169.3607 0.0000 -18.8116
v 1169.3607 0.0100 -18.8116
v 1166.4902 0.0100 -18.8116
v 1169.3607 0.0000 -14.8826
v 1166.4902 0.0000 -14.8826
v 1166.4902 0.0100 -14.8826
v 1169.3607 0.0100 -14.8826
v 1169.3607 0.0000 -18.8116
v 1169.3607 0.0000 -14.8826
v 1169.3607 0.0100 -14.8826
v 1169.3607 0.0100 -18.8116
v 1166.4902 0.0000 -14.8826
v 1166.4902 0.0000 -18.8116
v 1166.4902 0.0100 -18.8116
v 1166.4902 0.0100 -14.8826
v 1239.3802 0.0000 8.1796
v 1239.3802 0.0000 9.1217
v 1240.7837 0.0000 9.1217
v 1240.7837 0.0000 8.1796
v 1239.3802 0.0100 8.1796
v 1240.7837 0.0100 8.1796
v 1240.7837 0.0100 9.1217
v 1239.3802 0.0100 9.1217
v 1239.3802 0.0000 8.1796
v 1240.7837 0.0000 8.1796
v 1240.7837 0.0100 8.1796
v 1239.3802 0.0100 8.1796
v 1240.7837 0.0000 9.1217
v 1239.3802 0.0000 9.1217
v 1239.3802 0.0100 9.1217
v 1240.7837 0.0100 9.1217
v 1240.7837 0.0000 8.1796
v 1240.7837 0.0000 9.1217
v 1240.7837 0.0100 9.1217
v 1240.7837 0.0100 8.1796
v 1239.3802 0.0000 9.1217
v 1239.3802 0.0000 8.1796
v 1239.3802 0.0100 8.1796
v 1239.3802 0.0100 9.1217
v 1238.2692 0.0000 19.4473
v 1238.2692 0.0000 20.7600
v 1240.2188 0.0000 20.7600
v 1240.2188 0.0000 19.4473
v 1238.2692 0.0100 19.4473
v 1240.2188 0.0100 19.4473
v 1240.2188 0.0100 20.7600
v 1238.2692 0.0100 20.7600
v 1238.2692 0.0000 19.4473
v 1240.2188 0.0000 19.4473
v 1240.2188 0.0100 19.4473
v 1238.2692 0.0100 19.4473
v 1240.2188 0.0000 20.7600
v 1238.2692 0.0000 20.7600
v 1238.2692 0.0100 20.7600
v 1240.2188 0.0100 20.7600
v 1240.2188 0.0000 19.4473
v 1240.2188 0.0000 20.7600
v 1240.2188 0.0100 20.7600
v 1240.2188 0.0100 19.4473
v 1238.2692 0.0000 20.7600
v 1238.2692 0.0000 19.4473
v 1238.2692 0.0100 19.4473
v 1238.2692 0.0100 20.7600
v 1215.6135 0.0000 -50.8101
v 1215.6135 0.0000 -47.9349
v 1217.8355 0.0000 -47.9349
v 1217.8355 0.0000 -50.8101
v 1215.6135 0.0100 -50.8101
v 1217.8355 0.0100 -50.8101
v 1217.8355 0.0100 -47.9349
v 1215.6135 0.0100 -47.9349
v 1215.6135 0.0000 -50.8101
v 1217.8355 0.0000 -50.8101
v 1217.8355 0.0100 -50.8101
v 1215.6135 0.0100 -50.8101
v 1217.8355 0.0000 -47.9349
v 1215.6135 0.0000 -47.9349
v 1215.6135 0.0100 -47.9349
v 1217.8355 0.0100 -47.9349
v 1217.8355 0.0000 -50.8101
v 1217.8355 0.0000 -47.9349
v 1217.8355 0.0100 -47.9349
v 1217.8355 0.0100 -50.8101
v 1215.6135 0.0000 -47.9349
v 1215.6135 0.0000 -50.8101
v 1215.6135 0.0100 -50.8101
v 1215.6135 0.0100 -47.9349
v 1226.8017 0.0000 44.1259
v 1226.8017 0.0000 45.6412
v 1228.7612 0.0000 45.6412
v 1228.7612 0.0000 44.1259
v 1226.8017 0.0100 44.1259
v 1228.7612 0.0100 44.1259
v 1228.7612 0.0100 45.6412
v 1226.8017 0.0100 45.6412
v 1226.8017 0.0000 44.1259
v 1228.7612 0.0000 44.1259
v 1228.7612 0.0100 44.1259
v 1226.8017 0.0100 44.1259
v 1228.7612 0.0000 45.6412
v 1226.8017 0.0000 45.6412
v 1226.8017 0.0100 45.6412
v 1228.7612 0.0100 45.6412
v 1228.7612 0.0000 44.1259
v 1228.7612 0.0000 45.6412
v 1228.7612 0.0100 45.6412
v 1228.7612 0.0100 44.1259
v 1226.8017 0.0000 45.6412
v 1226.8017 0.0000 44.1259
v 1226.8017 0.0100 44.1259
v 1226.8017 0.0100 45.6412
v 1226.1484 0.0000 -42.4322
v 1226.1484 0.0000 -40.7251
v 1227.5532 0.0000 -40.7251
v 1227.5532 0.0000 -42.4322
v 1226.1484 0.0100 -42.4322
v 1227.5532 0.0100 -42.4322
v 1227.5532 0.0100 -40.7251
v 1226.1484 0.0100 -40.7251
v 1226.1484 0.0000 -42.4322
v 1227.5532 0.0000 -42.4322
v 1227.5532 0.0100 -42.4322
v 1226.1484 0.0100 -42.4322
v 1227.5532 0.0000 -40.7251
v 1226.1484 0.0000 -40.7251
v 1226.1484 0.0100 -40.7251
v 1227.5532 0.0100 -40.7251
v 1227.5532 0.0000 -42.4322
v 1227.5532 0.0000 -40.7251
v 1227.5532 0.0100 -40.7251
v 1227.5532 0.0100 -42.4322
v 1226.1484 0.0000 -40.7251
v 1226.1484 0.0000 -42.4322
v 1226.1484 0.0100 -42.4322
v 1226.1484 0.0100 -40.7251
v 1240.4003 0.0000 41.5262
v 1240.4003 0.0000 42.8052
v 1242.1153 0.0000 42.8052
v 1242.1153 0.0000 41.5262
v 1240.4003 0.0100 41.5262
v 1242.1153 0.0100 41.5262
v 1242.1153 0.0100 42.8052
v 1240.4003 0.0100 42.8052
v 1240.4003 0.0000 41.5262
v 1242.1153 0.0000 41.5262
v 1242.1153 0.0100 41.5262
v 1240.4003 0.0100 41.5262
v 1242.1153 0.0000 42.8052
v 1240.4003 0.0000 42.8052
v 1240.4003 0.0100 42.8052
v 1242.1153 0.0100 42.8052
v 1242.1153 0.0000 41.5262
v 1242.1153 0.0000 42.8052
v 1242.1153 0.0100 42.8052
v 1242.1153 0.0100 41.5262
v 1240.4003 0.0000 42.8052
v 1240.4003 0.0000 41.5262
v 1240.4003 0.0100 41.5262
v 1240.4003 0.0100 42.8052
v 1252.0772 0.0000 -18.6275
v 1252.0772 0.0000 -17.0969
v 1254.1296 0.0000 -17.0969
v 1254.1296 0.0000 -18.6275
v 1252.0772 0.0100 -18.6275
v 1254.1296 0.0100 -18.6275
v 1254.1296 0.0100 -17.0969
v 1252.0772 0.0100 -17.0969
v 1252.0772 0.0000 -18.6275
v 1254.1296 0.0000 -18.6275
v 1254.1296 0.0100 -18.6275
v 1252.0772 0.0100 -18.6275
v 1254.1296 0.0000 -17.0969
v 1252.0772 0.0000 -17.0969
v 1252.0772 0.0100 -17.0969
v 1254.1296 0.0100 -17.0969
v 1254.1296 0.0000 -18.6275
v 1254.1296 0.0000 -17.0969
v 1254.1296 0.0100 -17.0969
v 1254.1296 0.0100 -18.6275
v 1252.0772 0.0000 -17.0969
v 1252.0772 0.0000 -18.6275
v 1252.0772 0.0100 -18.6275
v 1252.0772 0.0100 -17.0969
v 1182.2953 0.0000 -30.7505
v 1182.2953 0.0000 -30.0362
v 1183.3809 0.0000 -30.0362
v 1183.3809 0.0000 -30.7505
v 1182.2953 0.0100 -30.7505
v 1183.3809 0.0100 -30.7505
v 1183.3809 0.0100 -30.0362
v 1182.2953 0.0100 -30.0362
v 1182.2953 0.0000 -30.7505
v 1183.3809 0.0000 -30.7505
v 1183.3809 0.0100 -30.7505
v 1182.2953 0.0100 -30.7505
v 1183.3809 0.0000 -30.0362
v 1182.2953 0.0000 -30.0362
v 1182.2953 0.0100 -30.0362
v 1183.3809 0.0100 -30.0362
v 1183.3809 0.0000 -30.7505
v 1183.3809 0.0000 -30.0362
v 1183.3809 0.0100 -30.0362
v 1183.3809 0.0100 -30.7505
v 1182.2953 0.0000 -30.0362
v 1182.2953 0.0000 -30.7505
v 1182.2953 0.0100 -30.7505
v 1182.2953 0.0100 -30.0362
vt 953.5417 -46.4583
vt 953.5417 46.4583
vt 1046.4583 46.4583
vt 1046.4583 -46.4583
vt 953.5417 -46.4583
vt 1046.4583 -46.4583
vt 1046.4583 46.4583
vt 953.5417 46.4583
vt 953.5417 -0.4167
vt 1046.4583 -0.4167
vt 1046.4583 0.0000
vt 953.5417 0.0000
vt 1046.4583 -0.4167
vt 953.5417 -0.4167
vt 953.5417 0.0000
vt 1046.4583 0.0000
vt -46.4583 -0.4167
vt 46.4583 -0.4167
vt 46.4583 0.0000
vt -46.4583 0.0000
vt 46.4583 -0.4167
vt -46.4583 -0.4167
vt -46.4583 0.0000
vt 46.4583 0.0000
vt 937.9098 -45.6967
vt 937.9098 45.6967
vt 1029.3033 45.6967
vt 1029.3033 -45.6967
vt 937.9098 -45.6967
vt 1029.3033 -45.6967
vt 1029.3033 45.6967
vt 937.9098 45.6967
vt 937.9098 2.5410
vt 1029.3033 2.5410
vt 1029.3033 2.9508
vt 937.9098 2.9508
vt 1029.3033 2.5410
vt 937.9098 2.5410
vt 937.9098 2.9508
vt 1029.3033 2.9508
vt -45.6967 2.5410
vt 45.6967 2.5410
vt 45.6967 2.9508
vt -45.6967 2.9508
vt 45.6967 2.5410
vt -45.6967 2.5410
vt -45.6967 2.9508
vt 45.6967 2.9508
vt 520.1136 -25.3409
vt 520.1136 25.3409
vt 520.3409 25.3409
vt 520.3409 -25.3409
vt 520.1136 -25.3409
vt 520.3409 -25.3409
vt 520.3409 25.3409
vt 520.1136 25.3409
vt 520.1136 0.0000
vt 520.3409 0.0000
vt 520.3409 1.4091
vt 520.1136 1.4091
vt 520.3409 0.0000
vt 520.1136 0.0000
vt 520.1136 1.4091
vt 520.3409 1.4091
vt -25.3409 0.0000
vt 25.3409 0.0000
vt 25.3409 1.4091
vt -25.3409 1.4091
vt 25.3409 0.0000
vt -25.3409 0.0000
vt -25.3409 1.4091
vt 25.3409 1.4091
vt 520.1136 -25.3409
vt 520.1136 -25.1136
vt 570.7955 -25.1136
vt 570.7955 -25.3409
vt 520.1136 -25.3409
vt 570.7955 -25.3409
vt 570.7955 -25.1136
vt 520.1136 -25.1136
vt 520.1136 0.0000
vt 570.7955 0.0000
vt 570.7955 1.4091
vt 520.1136 1.4091
vt 570.7955 0.0000
vt 520.1136 0.0000
vt 520.1136 1.4091
vt 570.7955 1.4091
vt -25.3409 0.0000
vt -25.1136 0.0000
vt -25.1136 1.4091
vt -25.3409 1.4091
vt -25.1136 0.0000
vt -25.3409 0.0000
vt -25.3409 1.4091
vt -25.1136 1.4091
vt 570.5682 -25.3409
vt 570.5682 25.3409
vt 570.7955 25.3409
vt 570.7955 -25.3409
vt 570.5682 -25.3409
vt 570.7955 -25.3409
vt 570.7955 25.3409
vt 570.5682 25.3409
vt 570.5682 0.0000
vt 570.7955 0.0000
vt 570.7955 1.4091
vt 570.5682 1.4091
vt 570.7955 0.0000
vt 570.5682 0.0000
vt 570.5682 1.4091
vt 570.7955 1.4091
vt -25.3409 0.0000
vt 25.3409 0.0000
vt 25.3409 1.4091
vt -25.3409 1.4091
vt 25.3409 0.0000
vt -25.3409 0.0000
vt -25.3409 1.4091
vt 25.3409 1.4091
vt 520.1136 25.1136
vt 520.1136 25.3409
vt 570.7955 25.3409
vt 570.7955 25.1136
vt 520.1136 25.1136
vt 570.7955 25.1136
vt 570.7955 25.3409
vt 520.1136 25.3409
vt 520.1136 0.0000
vt 570.7955 0.0000
vt 570.7955 1.4091
vt 520.1136 1.4091
vt 570.7955 0.0000
vt 520.1136 0.0000
vt 520.1136 1.4091
vt 570.7955 1.4091
vt 25.1136 0.0000
vt 25.3409 0.0000
vt 25.3409 1.4091
vt 25.1136 1.4091
vt 25.3409 0.0000
vt 25.1136 0.0000
vt 25.1136 1.4091
vt 25.3409 1.4091
vt 982.2634 -10.8736
vt 982.2634 -8.9980
vt 983.7051 -8.9980
vt 983.7051 -10.8736
vt 982.2634 -10.8736
vt 983.7051 -10.8736
vt 983.7051 -8.9980
vt 982.2634 -8.9980
vt 982.2634 0.0000
vt 983.7051 0.0000
vt 983.7051 0.0083
vt 982.2634 0.0083
vt 983.7051 0.0000
vt 982.2634 0.0000
vt 982.2634 0.0083
vt 983.7051 0.0083
vt -10.8736 0.0000
vt -8.9980 0.0000
vt -8.9980 0.0083
vt -10.8736 0.0083
vt -8.9980 0.0000
vt -10.8736 0.0000
vt -10.8736 0.0083
vt -8.9980 0.0083
vt 978.1539 -12.8835
vt 978.1539 -11.8478
vt 979.8243 -11.8478
vt 979.8243 -12.8835
vt 978.1539 -12.8835
vt 979.8243 -12.8835
vt 979.8243 -11.8478
vt 978.1539 -11.8478
vt 978.1539 0.0000
vt 979.8243 0.0000
vt 979.8243 0.0083
vt 978.1539 0.0083
vt 979.8243 0.0000
vt 978.1539 0.0000
vt 978.1539 0.0083
vt 979.8243 0.0083
vt -12.8835 0.0000
vt -11.8478 0.0000
vt -11.8478 0.0083
vt -12.8835 0.0083
vt -11.8478 0.0000
vt -12.8835 0.0000
vt -12.8835 0.0083
vt -11.8478 0.0083
vt 1014.8499 18.3530
vt 1014.8499 19.6861
vt 1016.0466 19.6861
vt 1016.0466 18.3530
vt 1014.8499 18.3530
vt 1016.0466 18.3530
vt 1016.0466 19.6861
vt 1014.8499 19.6861
vt 1014.8499 0.0000
vt 1016.0466 0.0000
vt 1016.0466 0.0083
vt 1014.8499 0.0083
vt 1016.0466 0.0000
vt 1014.8499 0.0000
vt 1014.8499 0.0083
vt 1016.0466 0.0083
vt 18.3530 0.0000
vt 19.6861 0.0000
vt 19.6861 0.0083
vt 18.3530 0.0083
vt 19.6861 0.0000
vt 18.3530 0.0000
vt 18.3530 0.0083
vt 19.6861 0.0083
vt 958.8902 -31.9715
vt 958.8902 -30.5363
vt 960.8548 -30.5363
vt 960.8548 -31.9715
vt 958.8902 -31.9715
vt 960.8548 -31.9715
vt 960.8548 -30.5363
vt 958.8902 -30.5363
vt 958.8902 0.0000
vt 960.8548 0.0000
vt 960.8548 0.0083
vt 958.8902 0.0083
vt 960.8548 0.0000
vt 958.8902 0.0000
vt 958.8902 0.0083
vt 960.8548 0.0083
vt -31.9715 0.0000
vt -30.5363 0.0000
vt -30.5363 0.0083
vt -31.9715 0.0083
vt -30.5363 0.0000
vt -31.9715 0.0000
vt -31.9715 0.0083
vt -30.5363 0.0083
vt 1018.7174 -7.5746
vt 1018.7174 -5.9970
vt 1020.2008 -5.9970
vt 1020.2008 -7.5746
vt 1018.7174 -7.5746
vt 1020.2008 -7.5746
vt 1020.2008 -5.9970
vt 1018.7174 -5.9970
vt 1018.7174 0.0000
vt 1020.2008 0.0000
vt 1020.2008 0.0083
vt 1018.7174 0.0083
vt 1020.2008 0.0000
vt 1018.7174 0.0000
vt 1018.7174 0.0083
vt 1020.2008 0.0083
vt -7.5746 0.0000
vt -5.9970 0.0000
vt -5.9970 0.0083
vt -7.5746 0.0083
vt -5.9970 0.0000
vt -7.5746 0.0000
vt -7.5746 0.0083
vt -5.9970 0.0083
vt 1033.1115 44.3136
vt 1033.1115 46.0500
vt 1034.6852 46.0500
vt 1034.6852 44.3136
vt 1033.1115 44.3136
vt 1034.6852 44.3136
vt 1034.6852 46.0500
vt 1033.1115 46.0500
vt 1033.1115 0.0000
vt 1034.6852 0.0000
vt 1034.6852 0.0083
vt 1033.1115 0.0083
vt 1034.6852 0.0000
vt 1033.1115 0.0000
vt 1033.1115 0.0083
vt 1034.6852 0.0083
vt 44.3136 0.0000
vt 46.0500 0.0000
vt 46.0500 0.0083
vt 44.3136 0.0083
vt 46.0500 0.0000
vt 44.3136 0.0000
vt 44.3136 0.0083
vt 46.0500 0.0083
vt 1034.4479 28.3582
vt 1034.4479 31.5522
vt 1036.8873 31.5522
vt 1036.8873 28.3582
vt 1034.4479 28.3582
vt 1036.8873 28.3582
vt 1036.8873 31.5522
vt 1034.4479 31.5522
vt 1034.4479 0.0000
vt 1036.8873 0.0000
vt 1036.8873 0.0083
vt 1034.4479 0.0083
vt 1036.8873 0.0000
vt 1034.4479 0.0000
vt 1034.4479 0.0083
vt 1036.8873 0.0083
vt 28.3582 0.0000
vt 31.5522 0.0000
vt 31.5522 0.0083
vt 28.3582 0.0083
vt 31.5522 0.0000
vt 28.3582 0.0000
vt 28.3582 0.0083
vt 31.5522 0.0083
vt 969.3928 -40.6304
vt 969.3928 -37.2612
vt 972.0927 -37.2612
vt 972.0927 -40.6304
vt 969.3928 -40.6304
vt 972.0927 -40.6304
vt 972.0927 -37.2612
vt 969.3928 -37.2612
vt 969.3928 0.0000
vt 972.0927 0.0000
vt 972.0927 0.0083
vt 969.3928 0.0083
vt 972.0927 0.0000
vt 969.3928 0.0000
vt 969.3928 0.0083
vt 972.0927 0.0083
vt -40.6304 0.0000
vt -37.2612 0.0000
vt -37.2612 0.0083
vt -40.6304 0.0083
vt -37.2612 0.0000
vt -40.6304 0.0000
vt -40.6304 0.0083
vt -37.2612 0.0083
vt 1041.5797 -41.5326
vt 1041.5797 -39.7510
vt 1043.3080 -39.7510
vt 1043.3080 -41.5326
vt 1041.5797 -41.5326
vt 1043.3080 -41.5326
vt 1043.3080 -39.7510
vt 1041.5797 -39.7510
vt 1041.5797 0.0000
vt 1043.3080 0.0000
vt 1043.3080 0.0083
vt 1041.5797 0.0083
vt 1043.3080 0.0000
vt 1041.5797 0.0000
vt 1041.5797 0.0083
vt 1043.3080 0.0083
vt -41.5326 0.0000
vt -39.7510 0.0000
vt -39.7510 0.0083
vt -41.5326 0.0083
vt -39.7510 0.0000
vt -41.5326 0.0000
vt -41.5326 0.0083
vt -39.7510 0.0083
vt 1023.0447 30.3466
vt 1023.0447 32.0769
vt 1024.3418 32.0769
vt 1024.3418 30.3466
vt 1023.0447 30.3466
vt 1024.3418 30.3466
vt 1024.3418 32.0769
vt 1023.0447 32.0769
vt 1023.0447 0.0000
vt 1024.3418 0.0000
vt 1024.3418 0.0083
vt 1023.0447 0.0083
vt 1024.3418 0.0000
vt 1023.0447 0.0000
vt 1023.0447 0.0083
vt 1024.3418 0.0083
vt 30.3466 0.0000
vt 32.0769 0.0000
vt 32.0769 0.0083
vt 30.3466 0.0083
vt 32.0769 0.0000
vt 30.3466 0.0000
vt 30.3466 0.0083
vt 32.0769 0.0083
vt 975.3086 -10.8102
vt 975.3086 -8.9775
vt 977.4179 -8.9775
vt 977.4179 -10.8102
vt 975.3086 -10.8102
vt 977.4179 -10.8102
vt 977.4179 -8.9775
vt 975.3086 -8.9775
vt 975.3086 0.0000
vt 977.4179 0.0000
vt 977.4179 0.0083
vt 975.3086 0.0083
vt 977.4179 0.0000
vt 975.3086 0.0000
vt 975.3086 0.0083
vt 977.4179 0.0083
vt -10.8102 0.0000
vt -8.9775 0.0000
vt -8.9775 0.0083
vt -10.8102 0.0083
vt -8.9775 0.0000
vt -10.8102 0.0000
vt -10.8102 0.0083
vt -8.9775 0.0083
vt 977.1450 44.3560
vt 977.1450 45.8957
vt 978.5310 45.8957
vt 978.5310 44.3560
vt 977.1450 44.3560
vt 978.5310 44.3560
vt 978.5310 45.8957
vt 977.1450 45.8957
vt 977.1450 0.0000
vt 978.5310 0.0000
vt 978.5310 0.0083
vt 977.1450 0.0083
vt 978.5310 0.0000
vt 977.1450 0.0000
vt 977.1450 0.0083
vt 978.5310 0.0083
vt 44.3560 0.0000
vt 45.8957 0.0000
vt 45.8957 0.0083
vt 44.3560 0.0083
vt 45.8957 0.0000
vt 44.3560 0.0000
vt 44.3560 0.0083
vt 45.8957 0.0083
vt 955.7401 44.4815
vt 955.7401 45.4148
vt 956.9079 45.4148
vt 956.9079 44.4815
vt 955.7401 44.4815
vt 956.9079 44.4815
vt 956.9079 45.4148
vt 955.7401 45.4148
vt 955.7401 0.0000
vt 956.9079 0.0000
vt 956.9079 0.0083
vt 955.7401 0.0083
vt 956.9079 0.0000
vt 955.7401 0.0000
vt 955.7401 0.0083
vt 956.9079 0.0083
vt 44.4815 0.0000
vt 45.4148 0.0000
vt 45.4148 0.0083
vt 44.4815 0.0083
vt 45.4148 0.0000
vt 44.4815 0.0000
vt 44.4815 0.0083
vt 45.4148 0.0083
vt 989.7522 -0.6843
vt 989.7522 2.2210
vt 992.0856 2.2210
vt 992.0856 -0.6843
vt 989.7522 -0.6843
vt 992.0856 -0.6843
vt 992.0856 2.2210
vt 989.7522 2.2210
vt 989.7522 0.0000
vt 992.0856 0.0000
vt 992.0856 0.0083
vt 989.7522 0.0083
vt 992.0856 0.0000
vt 989.7522 0.0000
vt 989.7522 0.0083
vt 992.0856 0.0083
vt -0.6843 0.0000
vt 2.2210 0.0000
vt 2.2210 0.0083
vt -0.6843 0.0083
vt 2.2210 0.0000
vt -0.6843 0.0000
vt -0.6843 0.0083
vt 2.2210 0.0083
vt 1030.4974 17.5014
vt 1030.4974 19.3326
vt 1032.8232 19.3326
vt 1032.8232 17.5014
vt 1030.4974 17.5014
vt 1032.8232 17.5014
vt 1032.8232 19.3326
vt 1030.4974 19.3326
vt 1030.4974 0.0000
vt 1032.8232 0.0000
vt 1032.8232 0.0083
vt 1030.4974 0.0083
vt 1032.8232 0.0000
vt 1030.4974 0.0000
vt 1030.4974 0.0083
vt 1032.8232 0.0083
vt 17.5014 0.0000
vt 19.3326 0.0000
vt 19.3326 0.0083
vt 17.5014 0.0083
vt 19.3326 0.0000
vt 17.5014 0.0000
vt 17.5014 0.0083
vt 19.3326 0.0083
vt 987.7071 24.0529
vt 987.7071 26.3485
vt 990.0479 26.3485
vt 990.0479 24.0529
vt 987.7071 24.0529
vt 990.0479 24.0529
vt 990.0479 26.3485
vt 987.7071 26.3485
vt 987.7071 0.0000
vt 990.0479 0.0000
vt 990.0479 0.0083
vt 987.7071 0.0083
vt 990.0479 0.0000
vt 987.7071 0.0000
vt 987.7071 0.0083
vt 990.0479 0.0083
vt 24.0529 0.0000
vt 26.3485 0.0000
vt 26.3485 0.0083
vt 24.0529 0.0083
vt 26.3485 0.0000
vt 24.0529 0.0000
vt 24.0529 0.0083
vt 26.3485 0.0083
vt 984.1352 36.7798
vt 984.1352 38.0526
vt 986.2041 38.0526
vt 986.2041 36.7798
vt 984.1352 36.7798
vt 986.2041 36.7798
vt 986.2041 38.0526
vt 984.1352 38.0526
vt 984.1352 0.0000
vt 986.2041 0.0000
vt 986.2041 0.0083
vt 984.1352 0.0083
vt 986.2041 0.0000
vt 984.1352 0.0000
vt 984.1352 0.0083
vt 986.2041 0.0083
vt 36.7798 0.0000
vt 38.0526 0.0000
vt 38.0526 0.0083
vt 36.7798 0.0083
vt 38.0526 0.0000
vt 36.7798 0.0000
vt 36.7798 0.0083
vt 38.0526 0.0083
vt 973.2610 -19.7237
vt 973.2610 -17.7015
vt 975.7433 -17.7015
vt 975.7433 -19.7237
vt 973.2610 -19.7237
vt 975.7433 -19.7237
vt 975.7433 -17.7015
vt 973.2610 -17.7015
vt 973.2610 0.0000
vt 975.7433 0.0000
vt 975.7433 0.0083
vt 973.2610 0.0083
vt 975.7433 0.0000
vt 973.2610 0.0000
vt 973.2610 0.0083
vt 975.7433 0.0083
vt -19.7237 0.0000
vt -17.7015 0.0000
vt -17.7015 0.0083
vt -19.7237 0.0083
vt -17.7015 0.0000
vt -19.7237 0.0000
vt -19.7237 0.0083
vt -17.7015 0.0083
vt 1022.7124 -38.1849
vt 1022.7124 -36.4742
vt 1024.6633 -36.4742
vt 1024.6633 -38.1849
vt 1022.7124 -38.1849
vt 1024.6633 -38.1849
vt 1024.6633 -36.4742
vt 1022.7124 -36.4742
vt 1022.7124 0.0000
vt 1024.6633 0.0000
vt 1024.6633 0.0083
vt 1022.7124 0.0083
vt 1024.6633 0.0000
vt 1022.7124 0.0000
vt 1022.7124 0.0083
vt 1024.6633 0.0083
vt -38.1849 0.0000
vt -36.4742 0.0000
vt -36.4742 0.0083
vt -38.1849 0.0083
vt -36.4742 0.0000
vt -38.1849 0.0000
vt -38.1849 0.0083
vt -36.4742 0.0083
vt 1015.3738 -8.1546
vt 1015.3738 -4.5594
vt 1018.2618 -4.5594
vt 1018.2618 -8.1546
vt 1015.3738 -8.1546
vt 1018.2618 -8.1546
vt 1018.2618 -4.5594
vt 1015.3738 -4.5594
vt 1015.3738 0.0000
vt 1018.2618 0.0000
vt 1018.2618 0.0083
vt 1015.3738 0.0083
vt 1018.2618 0.0000
vt 1015.3738 0.0000
vt 1015.3738 0.0083
vt 1018.2618 0.0083
vt -8.1546 0.0000
vt -4.5594 0.0000
vt -4.5594 0.0083
vt -8.1546 0.0083
vt -4.5594 0.0000
vt -8.1546 0.0000
vt -8.1546 0.0083
vt -4.5594 0.0083
vt 992.1971 13.9275
vt 992.1971 17.8064
vt 995.0136 17.8064
vt 995.0136 13.9275
vt 992.1971 13.9275
vt 995.0136 13.9275
vt 995.0136 17.8064
vt 992.1971 17.8064
vt 992.1971 0.0000
vt 995.0136 0.0000
vt 995.0136 0.0083
vt 992.1971 0.0083
vt 995.0136 0.0000
vt 992.1971 0.0000
vt 992.1971 0.0083
vt 995.0136 0.0083
vt 13.9275 0.0000
vt 17.8064 0.0000
vt 17.8064 0.0083
vt 13.9275 0.0083
vt 17.8064 0.0000
vt 13.9275 0.0000
vt 13.9275 0.0083
vt 17.8064 0.0083
vt 974.9300 -39.8980
vt 974.9300 -38.1733
vt 976.2764 -38.1733
vt 976.2764 -39.8980
vt 974.9300 -39.8980
vt 976.2764 -39.8980
vt 976.2764 -38.1733
vt 974.9300 -38.1733
vt 974.9300 0.0000
vt 976.2764 0.0000
vt 976.2764 0.0083
vt 974.9300 0.0083
vt 976.2764 0.0000
vt 974.9300 0.0000
vt 974.9300 0.0083
vt 976.2764 0.0083
vt -39.8980 0.0000
vt -38.1733 0.0000
vt -38.1733 0.0083
vt -39.8980 0.0083
vt -38.1733 0.0000
vt -39.8980 0.0000
vt -39.8980 0.0083
vt -38.1733 0.0083
vt 988.4814 35.2819
vt 988.4814 36.8483
vt 989.8969 36.8483
vt 989.8969 35.2819
vt 988.4814 35.2819
vt 989.8969 35.2819
vt 989.8969 36.8483
vt 988.4814 36.8483
vt 988.4814 0.0000
vt 989.8969 0.0000
vt 989.8969 0.0083
vt 988.4814 0.0083
vt 989.8969 0.0000
vt 988.4814 0.0000
vt 988.4814 0.0083
vt 989.8969 0.0083
vt 35.2819 0.0000
vt 36.8483 0.0000
vt 36.8483 0.0083
vt 35.2819 0.0083
vt 36.8483 0.0000
vt 35.2819 0.0000
vt 35.2819 0.0083
vt 36.8483 0.0083
vt 985.1261 -19.5995
vt 985.1261 -16.3460
vt 987.9522 -16.3460
vt 987.9522 -19.5995
vt 985.1261 -19.5995
vt 987.9522 -19.5995
vt 987.9522 -16.3460
vt 985.1261 -16.3460
vt 985.1261 0.0000
vt 987.9522 0.0000
vt 987.9522 0.0083
vt 985.1261 0.0083
vt 987.9522 0.0000
vt 985.1261 0.0000
vt 985.1261 0.0083
vt 987.9522 0.0083
vt -19.5995 0.0000
vt -16.3460 0.0000
vt -16.3460 0.0083
vt -19.5995 0.0083
vt -16.3460 0.0000
vt -19.5995 0.0000
vt -19.5995 0.0083
vt -16.3460 0.0083
vt 1008.8250 13.2118
vt 1008.8250 16.0639
vt 1011.0485 16.0639
vt 1011.0485 13.2118
vt 1008.8250 13.2118
vt 1011.0485 13.2118
vt 1011.0485 16.0639
vt 1008.8250 16.0639
vt 1008.8250 0.0000
vt 1011.0485 0.0000
vt 1011.0485 0.0083
vt 1008.8250 0.0083
vt 1011.0485 0.0000
vt 1008.8250 0.0000
vt 1008.8250 0.0083
vt 1011.0485 0.0083
vt 13.2118 0.0000
vt 16.0639 0.0000
vt 16.0639 0.0083
vt 13.2118 0.0083
vt 16.0639 0.0000
vt 13.2118 0.0000
vt 13.2118 0.0083
vt 16.0639 0.0083
vt 1028.3507 13.7536
vt 1028.3507 16.4292
vt 1030.9448 16.4292
vt 1030.9448 13.7536
vt 1028.3507 13.7536
vt 1030.9448 13.7536
vt 1030.9448 16.4292
vt 1028.3507 16.4292
vt 1028.3507 0.0000
vt 1030.9448 0.0000
vt 1030.9448 0.0083
vt 1028.3507 0.0083
vt 1030.9448 0.0000
vt 1028.3507 0.0000
vt 1028.3507 0.0083
vt 1030.9448 0.0083
vt 13.7536 0.0000
vt 16.4292 0.0000
vt 16.4292 0.0083
vt 13.7536 0.0083
vt 16.4292 0.0000
vt 13.7536 0.0000
vt 13.7536 0.0083
vt 16.4292 0.0083
vt 997.4727 -23.8277
vt 997.4727 -21.3030
vt 999.6909 -21.3030
vt 999.6909 -23.8277
vt 997.4727 -23.8277
vt 999.6909 -23.8277
vt 999.6909 -21.3030
vt 997.4727 -21.3030
vt 997.4727 0.0000
vt 999.6909 0.0000
vt 999.6909 0.0083
vt 997.4727 0.0083
vt 999.6909 0.0000
vt 997.4727 0.0000
vt 997.4727 0.0083
vt 999.6909 0.0083
vt -23.8277 0.0000
vt -21.3030 0.0000
vt -21.3030 0.0083
vt -23.8277 0.0083
vt -21.3030 0.0000
vt -23.8277 0.0000
vt -23.8277 0.0083
vt -21.3030 0.0083
vt 958.2790 28.9373
vt 958.2790 32.0703
vt 960.9552 32.0703
vt 960.9552 28.9373
vt 958.2790 28.9373
vt 960.9552 28.9373
vt 960.9552 32.0703
vt 958.2790 32.0703
vt 958.2790 0.0000
vt 960.9552 0.0000
vt 960.9552 0.0083
vt 958.2790 0.0083
vt 960.9552 0.0000
vt 958.2790 0.0000
vt 958.2790 0.0083
vt 960.9552 0.0083
vt 28.9373 0.0000
vt 32.0703 0.0000
vt 32.0703 0.0083
vt 28.9373 0.0083
vt 32.0703 0.0000
vt 28.9373 0.0000
vt 28.9373 0.0083
vt 32.0703 0.0083
vt 996.4350 -5.6126
vt 996.4350 -3.2356
vt 998.4880 -3.2356
vt 998.4880 -5.6126
vt 996.4350 -5.6126
vt 998.4880 -5.6126
vt 998.4880 -3.2356
vt 996.4350 -3.2356
vt 996.4350 0.0000
vt 998.4880 0.0000
vt 998.4880 0.0083
vt 996.4350 0.0083
vt 998.4880 0.0000
vt 996.4350 0.0000
vt 996.4350 0.0083
vt 998.4880 0.0083
vt -5.6126 0.0000
vt -3.2356 0.0000
vt -3.2356 0.0083
vt -5.6126 0.0083
vt -3.2356 0.0000
vt -5.6126 0.0000
vt -5.6126 0.0083
vt -3.2356 0.0083
vt 988.0590 16.9708
vt 988.0590 18.5233
vt 989.2810 18.5233
vt 989.2810 16.9708
vt 988.0590 16.9708
vt 989.2810 16.9708
vt 989.2810 18.5233
vt 988.0590 18.5233
vt 988.0590 0.0000
vt 989.2810 0.0000
vt 989.2810 0.0083
vt 988.0590 0.0083
vt 989.2810 0.0000
vt 988.0590 0.0000
vt 988.0590 0.0083
vt 989.2810 0.0083
vt 16.9708 0.0000
vt 18.5233 0.0000
vt 18.5233 0.0083
vt 16.9708 0.0083
vt 18.5233 0.0000
vt 16.9708 0.0000
vt 16.9708 0.0083
vt 18.5233 0.0083
vt 995.6502 1.0016
vt 995.6502 2.3475
vt 997.2997 2.3475
vt 997.2997 1.0016
vt 995.6502 1.0016
vt 997.2997 1.0016
vt 997.2997 2.3475
vt 995.6502 2.3475
vt 995.6502 0.0000
vt 997.2997 0.0000
vt 997.2997 0.0083
vt 995.6502 0.0083
vt 997.2997 0.0000
vt 995.6502 0.0000
vt 995.6502 0.0083
vt 997.2997 0.0083
vt 1.0016 0.0000
vt 2.3475 0.0000
vt 2.3475 0.0083
vt 1.0016 0.0083
vt 2.3475 0.0000
vt 1.0016 0.0000
vt 1.0016 0.0083
vt 2.3475 0.0083
vt 969.6968 -31.1560
vt 969.6968 -30.1276
vt 970.6351 -30.1276
vt 970.6351 -31.1560
vt 969.6968 -31.1560
vt 970.6351 -31.1560
vt 970.6351 -30.1276
vt 969.6968 -30.1276
vt 969.6968 0.0000
vt 970.6351 0.0000
vt 970.6351 0.0083
vt 969.6968 0.0083
vt 970.6351 0.0000
vt 969.6968 0.0000
vt 969.6968 0.0083
vt 970.6351 0.0083
vt -31.1560 0.0000
vt -30.1276 0.0000
vt -30.1276 0.0083
vt -31.1560 0.0083
vt -30.1276 0.0000
vt -31.1560 0.0000
vt -31.1560 0.0083
vt -30.1276 0.0083
vt 1023.3120 -32.4527
vt 1023.3120 -30.1491
vt 1025.0048 -30.1491
vt 1025.0048 -32.4527
vt 1023.3120 -32.4527
vt 1025.0048 -32.4527
vt 1025.0048 -30.1491
vt 1023.3120 -30.1491
vt 1023.3120 0.0000
vt 1025.0048 0.0000
vt 1025.0048 0.0083
vt 1023.3120 0.0083
vt 1025.0048 0.0000
vt 1023.3120 0.0000
vt 1023.3120 0.0083
vt 1025.0048 0.0083
vt -32.4527 0.0000
vt -30.1491 0.0000
vt -30.1491 0.0083
vt -32.4527 0.0083
vt -30.1491 0.0000
vt -32.4527 0.0000
vt -32.4527 0.0083
vt -30.1491 0.0083
vt 972.0752 -15.6763
vt 972.0752 -12.4022
vt 974.4673 -12.4022
vt 974.4673 -15.6763
vt 972.0752 -15.6763
vt 974.4673 -15.6763
vt 974.4673 -12.4022
vt 972.0752 -12.4022
vt 972.0752 0.0000
vt 974.4673 0.0000
vt 974.4673 0.0083
vt 972.0752 0.0083
vt 974.4673 0.0000
vt 972.0752 0.0000
vt 972.0752 0.0083
vt 974.4673 0.0083
vt -15.6763 0.0000
vt -12.4022 0.0000
vt -12.4022 0.0083
vt -15.6763 0.0083
vt -12.4022 0.0000
vt -15.6763 0.0000
vt -15.6763 0.0083
vt -12.4022 0.0083
vt 1032.8168 6.8163
vt 1032.8168 7.6015
vt 1033.9864 7.6015
vt 1033.9864 6.8163
vt 1032.8168 6.8163
vt 1033.9864 6.8163
vt 1033.9864 7.6015
vt 1032.8168 7.6015
vt 1032.8168 0.0000
vt 1033.9864 0.0000
vt 1033.9864 0.0083
vt 1032.8168 0.0083
vt 1033.9864 0.0000
vt 1032.8168 0.0000
vt 1032.8168 0.0083
vt 1033.9864 0.0083
vt 6.8163 0.0000
vt 7.6015 0.0000
vt 7.6015 0.0083
vt 6.8163 0.0083
vt 7.6015 0.0000
vt 6.8163 0.0000
vt 6.8163 0.0083
vt 7.6015 0.0083
vt 1031.8910 16.2061
vt 1031.8910 17.3000
vt 1033.5156 17.3000
vt 1033.5156 16.2061
vt 1031.8910 16.2061
vt 1033.5156 16.2061
vt 1033.5156 17.3000
vt 1031.8910 17.3000
vt 1031.8910 0.0000
vt 1033.5156 0.0000
vt 1033.5156 0.0083
vt 1031.8910 0.0083
vt 1033.5156 0.0000
vt 1031.8910 0.0000
vt 1031.8910 0.0083
vt 1033.5156 0.0083
vt 16.2061 0.0000
vt 17.3000 0.0000
vt 17.3000 0.0083
vt 16.2061 0.0083
vt 17.3000 0.0000
vt 16.2061 0.0000
vt 16.2061 0.0083
vt 17.3000 0.0083
vt 1013.0113 -42.3418
vt 1013.0113 -39.9458
vt 1014.8629 -39.9458
vt 1014.8629 -42.3418
vt 1013.0113 -42.3418
vt 1014.8629 -42.3418
vt 1014.8629 -39.9458
vt 1013.0113 -39.9458
vt 1013.0113 0.0000
vt 1014.8629 0.0000
vt 1014.8629 0.0083
vt 1013.0113 0.0083
vt 1014.8629 0.0000
vt 1013.0113 0.0000
vt 1013.0113 0.0083
vt 1014.8629 0.0083
vt -42.3418 0.0000
vt -39.9458 0.0000
vt -39.9458 0.0083
vt -42.3418 0.0083
vt -39.9458 0.0000
vt -42.3418 0.0000
vt -42.3418 0.0083
vt -39.9458 0.0083
vt 1022.3347 36.7716
vt 1022.3347 38.0343
vt 1023.9677 38.0343
vt 1023.9677 36.7716
vt 1022.3347 36.7716
vt 1023.9677 36.7716
vt 1023.9677 38.0343
vt 1022.3347 38.0343
vt 1022.3347 0.0000
vt 1023.9677 0.0000
vt 1023.9677 0.0083
vt 1022.3347 0.0083
vt 1023.9677 0.0000
vt 1022.3347 0.0000
vt 1022.3347 0.0083
vt 1023.9677 0.0083
vt 36.7716 0.0000
vt 38.0343 0.0000
vt 38.0343 0.0083
vt 36.7716 0.0083
vt 38.0343 0.0000
vt 36.7716 0.0000
vt 36.7716 0.0083
vt 38.0343 0.0083
vt 1021.7904 -35.3602
vt 1021.7904 -33.9376
vt 1022.9610 -33.9376
vt 1022.9610 -35.3602
vt 1021.7904 -35.3602
vt 1022.9610 -35.3602
vt 1022.9610 -33.9376
vt 1021.7904 -33.9376
vt 1021.7904 0.0000
vt 1022.9610 0.0000
vt 1022.9610 0.0083
vt 1021.7904 0.0083
vt 1022.9610 0.0000
vt 1021.7904 0.0000
vt 1021.7904 0.0083
vt 1022.9610 0.0083
vt -35.3602 0.0000
vt -33.9376 0.0000
vt -33.9376 0.0083
vt -35.3602 0.0083
vt -33.9376 0.0000
vt -35.3602 0.0000
vt -35.3602 0.0083
vt -33.9376 0.0083
vt 1033.6669 34.6052
vt 1033.6669 35.6710
vt 1035.0961 35.6710
vt 1035.0961 34.6052
vt 1033.6669 34.6052
vt 1035.0961 34.6052
vt 1035.0961 35.6710
vt 1033.6669 35.6710
vt 1033.6669 0.0000
vt 1035.0961 0.0000
vt 1035.0961 0.0083
vt 1033.6669 0.0083
vt 1035.0961 0.0000
vt 1033.6669 0.0000
vt 1033.6669 0.0083
vt 1035.0961 0.0083
vt 34.6052 0.0000
vt 35.6710 0.0000
vt 35.6710 0.0083
vt 34.6052 0.0083
vt 35.6710 0.0000
vt 34.6052 0.0000
vt 34.6052 0.0083
vt 35.6710 0.0083
vt 1043.3977 -15.5229
vt 1043.3977 -14.2474
vt 1045.1080 -14.2474
vt 1045.1080 -15.5229
vt 1043.3977 -15.5229
vt 1045.1080 -15.5229
vt 1045.1080 -14.2474
vt 1043.3977 -14.2474
vt 1043.3977 0.0000
vt 1045.1080 0.0000
vt 1045.1080 0.0083
vt 1043.3977 0.0083
vt 1045.1080 0.0000
vt 1043.3977 0.0000
vt 1043.3977 0.0083
vt 1045.1080 0.0083
vt -15.5229 0.0000
vt -14.2474 0.0000
vt -14.2474 0.0083
vt -15.5229 0.0083
vt -14.2474 0.0000
vt -15.5229 0.0000
vt -15.5229 0.0083
vt -14.2474 0.0083
vt 985.2461 -25.6254
vt 985.2461 -25.0302
vt 986.1508 -25.0302
vt 986.1508 -25.6254
vt 985.2461 -25.6254
vt 986.1508 -25.6254
vt 986.1508 -25.0302
vt 985.2461 -25.0302
vt 985.2461 0.0000
vt 986.1508 0.0000
vt 986.1508 0.0083
vt 985.2461 0.0083
vt 986.1508 0.0000
vt 985.2461 0.0000
vt 985.2461 0.0083
vt 986.1508 0.0083
vt -25.6254 0.0000
vt -25.0302 0.0000
vt -25.0302 0.0083
vt -25.6254 0.0083
vt -25.0302 0.0000
vt -25.6254 0.0000
vt -25.6254 0.0083
vt -25.0302 0.0083
usemtl office_carpet
f 1/1 2/2 3/3 4/4
f 5/5 6/6 7/7 8/8
f 9/9 10/10 11/11 12/12
f 13/13 14/14 15/15 16/16
f 17/17 18/18 19/19 20/20
f 21/21 22/22 23/23 24/24
usemtl ceiling_tile
f 25/25 26/26 27/27 28/28
f 29/29 30/30 31/31 32/32
f 33/33 34/34 35/35 36/36
f 37/37 38/38 39/39 40/40
f 41/41 42/42 43/43 44/44
f 45/45 46/46 47/47 48/48
usemtl office_wall
f 49/49 50/50 51/51 52/52
f 53/53 54/54 55/55 56/56
f 57/57 58/58 59/59 60/60
f 61/61 62/62 63/63 64/64
f 65/65 66/66 67/67 68/68
f 69/69 70/70 71/71 72/72
f 73/73 74/74 75/75 76/76
f 77/77 78/78 79/79 80/80
f 81/81 82/82 83/83 84/84
f 85/85 86/86 87/87 88/88
f 89/89 90/90 91/91 92/92
f 93/93 94/94 95/95 96/96
f 97/97 98/98 99/99 100/100
f 101/101 102/102 103/103 104/104
f 105/105 106/106 107/107 108/108
f 109/109 110/110 111/111 112/112
f 113/113 114/114 115/115 116/116
f 117/117 118/118 119/119 120/120
f 121/121 122/122 123/123 124/124
f 125/125 126/126 127/127 128/128
f 129/129 130/130 131/131 132/132
f 133/133 134/134 135/135 136/136
f 137/137 138/138 139/139 140/140
f 141/141 142/142 143/143 144/144
usemtl office_carpet
f 145/145 146/146 147/147 148/148
f 149/149 150/150 151/151 152/152
f 153/153 154/154 155/155 156/156
f 157/157 158/158 159/159 160/160
f 161/161 162/162 163/163 164/164
f 165/165 166/166 167/167 168/168
f 169/169 170/170 171/171 172/172
f 173/173 174/174 175/175 176/176
f 177/177 178/178 179/179 180/180
f 181/181 182/182 183/183 184/184
f 185/185 186/186 187/187 188/188
f 189/189 190/190 191/191 192/192
f 193/193 194/194 195/195 196/196
f 197/197 198/198 199/199 200/200
f 201/201 202/202 203/203 204/204
f 205/205 206/206 207/207 208/208
f 209/209 210/210 211/211 212/212
f 213/213 214/214 215/215 216/216
f 217/217 218/218 219/219 220/220
f 221/221 222/222 223/223 224/224
f 225/225 226/226 227/227 228/228
f 229/229 230/230 231/231 232/232
f 233/233 234/234 235/235 236/236
f 237/237 238/238 239/239 240/240
f 241/241 242/242 243/243 244/244
f 245/245 246/246 247/247 248/248
f 249/249 250/250 251/251 252/252
f 253/253 254/254 255/255 256/256
f 257/257 258/258 259/259 260/260
f 261/261 262/262 263/263 264/264
f 265/265 266/266 267/267 268/268
f 269/269 270/270 271/271 272/272
f 273/273 274/274 275/275 276/276
f 277/277 278/278 279/279 280/280
f 281/281 282/282 283/283 284/284
f 285/285 286/286 287/287 288/288
f 289/289 290/290 291/291 292/292
f 293/293 294/294 295/295 296/296
f 297/297 298/298 299/299 300/300
f 301/301 302/302 303/303 304/304
f 305/305 306/306 307/307 308/308
f 309/309 310/310 311/311 312/312
f 313/313 314/314 315/315 316/316
f 317/317 318/318 319/319 320/320
f 321/321 322/322 323/323 324/324
f 325/325 326/326 327/327 328/328
f 329/329 330/330 331/331 332/332
f 333/333 334/334 335/335 336/336
f 337/337 338/338 339/339 340/340
f 341/341 342/342 343/343 344/344
f 345/345 346/346 347/347 348/348
f 349/349 350/350 351/351 352/352
f 353/353 354/354 355/355 356/356
f 357/357 358/358 359/359 360/360
f 361/361 362/362 363/363 364/364
f 365/365 366/366 367/367 368/368
f 369/369 370/370 371/371 372/372
f 373/373 374/374 375/375 376/376
f 377/377 378/378 379/379 380/380
f 381/381 382/382 383/383 384/384
f 385/385 386/386 387/387 388/388
f 389/389 390/390 391/391 392/392
f 393/393 394/394 395/395 396/396
f 397/397 398/398 399/399 400/400
f 401/401 402/402 403/403 404/404
f 405/405 406/406 407/407 408/408
f 409/409 410/410 411/411 412/412
f 413/413 414/414 415/415 416/416
f 417/417 418/418 419/419 420/420
f 421/421 422/422 423/423 424/424
f 425/425 426/426 427/427 428/428
f 429/429 430/430 431/431 432/432
f 433/433 434/434 435/435 436/436
f 437/437 438/438 439/439 440/440
f 441/441 442/442 443/443 444/444
f 445/445 446/446 447/447 448/448
f 449/449 450/450 451/451 452/452
f 453/453 454/454 455/455 456/456
f 457/457 458/458 459/459 460/460
f 461/461 462/462 463/463 464/464
f 465/465 466/466 467/467 468/468
f 469/469 470/470 471/471 472/472
f 473/473 474/474 475/475 476/476
f 477/477 478/478 479/479 480/480
f 481/481 482/482 483/483 484/484
f 485/485 486/486 487/487 488/488
f 489/489 490/490 491/491 492/492
f 493/493 494/494 495/495 496/496
f 497/497 498/498 499/499 500/500
f 501/501 502/502 503/503 504/504
f 505/505 506/506 507/507 508/508
f 509/509 510/510 511/511 512/512
f 513/513 514/514 515/515 516/516
f 517/517 518/518 519/519 520/520
f 521/521 522/522 523/523 524/524
f 525/525 526/526 527/527 528/528
f 529/529 530/530 531/531 532/532
f 533/533 534/534 535/535 536/536
f 537/537 538/538 539/539 540/540
f 541/541 542/542 543/543 544/544
f 545/545 546/546 547/547 548/548
f 549/549 550/550 551/551 552/552
f 553/553 554/554 555/555 556/556
f 557/557 558/558 559/559 560/560
f 561/561 562/562 563/563 564/564
f 565/565 566/566 567/567 568/568
f 569/569 570/570 571/571 572/572
f 573/573 574/574 575/575 576/576
f 577/577 578/578 579/579 580/580
f 581/581 582/582 583/583 584/584
f 585/585 586/586 587/587 588/588
f 589/589 590/590 591/591 592/592
f 593/593 594/594 595/595 596/596
f 597/597 598/598 599/599 600/600
f 601/601 602/602 603/603 604/604
f 605/605 606/606 607/607 608/608
f 609/609 610/610 611/611 612/612
f 613/613 614/614 615/615 616/616
f 617/617 618/618 619/619 620/620
f 621/621 622/622 623/623 624/624
f 625/625 626/626 627/627 628/628
f 629/629 630/630 631/631 632/632
f 633/633 634/634 635/635 636/636
f 637/637 638/638 639/639 640/640
f 641/641 642/642 643/643 644/644
f 645/645 646/646 647/647 648/648
f 649/649 650/650 651/651 652/652
f 653/653 654/654 655/655 656/656
f 657/657 658/658 659/659 660/660
f 661/661 662/662 663/663 664/664
f 665/665 666/666 667/667 668/668
f 669/669 670/670 671/671 672/672
f 673/673 674/674 675/675 676/676
f 677/677 678/678 679/679 680/680
f 681/681 682/682 683/683 684/684
f 685/685 686/686 687/687 688/688
f 689/689 690/690 691/691 692/692
f 693/693 694/694 695/695 696/696
f 697/697 698/698 699/699 700/700
f 701/701 702/702 703/703 704/704
f 705/705 706/706 707/707 708/708
f 709/709 710/710 711/711 712/712
f 713/713 714/714 715/715 716/716
f 717/717 718/718 719/719 720/720
f 721/721 722/722 723/723 724/724
f 725/725 726/726 727/727 728/728
f 729/729 730/730 731/731 732/732
f 733/733 734/734 735/735 736/736
f 737/737 738/738 739/739 740/740
f 741/741 742/742 743/743 744/744
f 745/745 746/746 747/747 748/748
f 749/749 750/750 751/751 752/752
f 753/753 754/754 755/755 756/756
f 757/757 758/758 759/759 760/760
f 761/761 762/762 763/763 764/764
f 765/765 766/766 767/767 768/768
f 769/769 770/770 771/771 772/772
f 773/773 774/774 775/775 776/776
f 777/777 778/778 779/779 780/780
f 781/781 782/782 783/783 784/784
f 785/785 786/786 787/787 788/788
f 789/789 790/790 791/791 792/792
f 793/793 794/794 795/795 796/796
f 797/797 798/798 799/799 800/800
f 801/801 802/802 803/803 804/804
f 805/805 806/806 807/807 808/808
f 809/809 810/810 811/811 812/812
f 813/813 814/814 815/815 816/816
f 817/817 818/818 819/819 820/820
f 821/821 822/822 823/823 824/824
f 825/825 826/826 827/827 828/828
f 829/829 830/830 831/831 832/832
f 833/833 834/834 835/835 836/836
f 837/837 838/838 839/839 840/840
f 841/841 842/842 843/843 844/844
f 845/845 846/846 847/847 848/848
f 849/849 850/850 851/851 852/852
f 853/853 854/854 855/855 856/856
f 857/857 858/858 859/859 860/860
f 861/861 862/862 863/863 864/864
f 865/865 866/866 867/867 868/868
f 869/869 870/870 871/871 872/872
f 873/873 874/874 875/875 876/876
f 877/877 878/878 879/879 880/880
f 881/881 882/882 883/883 884/884
f 885/885 886/886 887/887 888/888
f 889/889 890/890 891/891 892/892
f 893/893 894/894 895/895 896/896
f 897/897 898/898 899/899 900/900
f 901/901 902/902 903/903 904/904
f 905/905 906/906 907/907 908/908
f 909/909 910/910 911/911 912/912
f 913/913 914/914 915/915 916/916
f 917/917 918/918 919/919 920/920
f 921/921 922/922 923/923 924/924
f 925/925 926/926 927/927 928/928
f 929/929 930/930 931/931 932/932
f 933/933 934/934 935/935 936/936
f 937/937 938/938 939/939 940/940
f 941/941 942/942 943/943 944/944
f 945/945 946/946 947/947 948/948
f 949/949 950/950 951/951 952/952
f 953/953 954/954 955/955 956/956
f 957/957 958/958 959/959 960/960
f 961/961 962/962 963/963 964/964
f 965/965 966/966 967/967 968/968
f 969/969 970/970 971/971 972/972
f 973/973 974/974 975/975 976/976
f 977/977 978/978 979/979 980/980
f 981/981 982/982 983/983 984/984
f 985/985 986/986 987/987 988/988
f 989/989 990/990 991/991 992/992
f 993/993 994/994 995/995 996/996
f 997/997 998/998 999/999 1000/1000
f 1001/1001 1002/1002 1003/1003 1004/1004
f 1005/1005 1006/1006 1007/1007 1008/1008
f 1009/1009 1010/1010 1011/1011 1012/1012
f 1013/1013 1014/1014 1015/1015 1016/1016
f 1017/1017 1018/1018 1019/1019 1020/1020
f 1021/1021 1022/1022 1023/1023 1024/1024
f 1025/1025 1026/1026 1027/1027 1028/1028
f 1029/1029 1030/1030 1031/1031 1032/1032
f 1033/1033 1034/1034 1035/1035 1036/1036
f 1037/1037 1038/1038 1039/1039 1040/1040
f 1041/1041 1042/1042 1043/1043 1044/1044
f 1045/1045 1046/1046 1047/1047 1048/1048
f 1049/1049 1050/1050 1051/1051 1052/1052
f 1053/1053 1054/1054 1055/1055 1056/1056
f 1057/1057 1058/1058 1059/1059 1060/1060
f 1061/1061 1062/1062 1063/1063 1064/1064
f 1065/1065 1066/1066 1067/1067 1068/1068
f 1069/1069 1070/1070 1071/1071 1072/1072
f 1073/1073 1074/1074 1075/1075 1076/1076
f 1077/1077 1078/1078 1079/1079 1080/1080
f 1081/1081 1082/1082 1083/1083 1084/1084
f 1085/1085 1086/1086 1087/1087 1088/1088
f 1089/1089 1090/1090 1091/1091 1092/1092
f 1093/1093 1094/1094 1095/1095 1096/1096
f 1097/1097 1098/1098 1099/1099 1100/1100
f 1101/1101 1102/1102 1103/1103 1104/1104
f 1105/1105 1106/1106 1107/1107 1108/1108
f 1109/1109 1110/1110 1111/1111 1112/1112
f 1113/1113 1114/1114 1115/1115 1116/1116
f 1117/1117 1118/1118 1119/1119 1120/1120
f 1121/1121 1122/1122 1123/1123 1124/1124
f 1125/1125 1126/1126 1127/1127 1128/1128
f 1129/1129 1130/1130 1131/1131 1132/1132
f 1133/1133 1134/1134 1135/1135 1136/1136
f 1137/1137 1138/1138 1139/1139 1140/1140
f 1141/1141 1142/1142 1143/1143 1144/1144
f 1145/1145 1146/1146 1147/1147 1148/1148
f 1149/1149 1150/1150 1151/1151 1152/1152
