# RoastEngine Backrooms level
mtllib backrooms.mtl
v 406.0750 0.0000 36.0750
v 408.9250 0.0000 36.0750
v 408.9250 0.0000 38.9250
v 406.0750 0.0000 38.9250
v 406.0750 3.0000 36.0750
v 408.9250 3.0000 36.0750
v 408.9250 3.0000 38.9250
v 406.0750 3.0000 38.9250
v 408.5750 0.0000 36.0750
v 408.5750 0.0000 38.9250
v 411.4250 0.0000 38.9250
v 411.4250 0.0000 36.0750
v 408.5750 3.0000 36.0750
v 411.4250 3.0000 36.0750
v 411.4250 3.0000 38.9250
v 408.5750 3.0000 38.9250
v 408.5750 0.0000 36.0750
v 411.4250 0.0000 36.0750
v 411.4250 3.0000 36.0750
v 408.5750 3.0000 36.0750
v 411.4250 0.0000 38.9250
v 408.5750 0.0000 38.9250
v 408.5750 3.0000 38.9250
v 411.4250 3.0000 38.9250
v 411.4250 0.0000 36.0750
v 411.4250 0.0000 38.9250
v 411.4250 3.0000 38.9250
v 411.4250 3.0000 36.0750
v 408.5750 0.0000 38.9250
v 408.5750 0.0000 36.0750
v 408.5750 3.0000 36.0750
v 408.5750 3.0000 38.9250
v 411.0750 0.0000 36.0750
v 411.0750 0.0000 38.9250
v 413.9250 0.0000 38.9250
v 413.9250 0.0000 36.0750
v 411.0750 3.0000 36.0750
v 413.9250 3.0000 36.0750
v 413.9250 3.0000 38.9250
v 411.0750 3.0000 38.9250
v 411.0750 0.0000 36.0750
v 413.9250 0.0000 36.0750
v 413.9250 3.0000 36.0750
v 411.0750 3.0000 36.0750
v 413.9250 0.0000 38.9250
v 411.0750 0.0000 38.9250
v 411.0750 3.0000 38.9250
v 413.9250 3.0000 38.9250
v 413.9250 0.0000 36.0750
v 413.9250 0.0000 38.9250
v 413.9250 3.0000 38.9250
v 413.9250 3.0000 36.0750
v 411.0750 0.0000 38.9250
v 411.0750 0.0000 36.0750
v 411.0750 3.0000 36.0750
v 411.0750 3.0000 38.9250
v 416.0750 0.0000 36.0750
v 416.0750 0.0000 38.9250
v 418.9250 0.0000 38.9250
v 418.9250 0.0000 36.0750
v 416.0750 3.0000 36.0750
v 418.9250 3.0000 36.0750
v 418.9250 3.0000 38.9250
v 416.0750 3.0000 38.9250
v 416.0750 0.0000 36.0750
v 418.9250 0.0000 36.0750
v 418.9250 3.0000 36.0750
v 416.0750 3.0000 36.0750
v 418.9250 0.0000 38.9250
v 416.0750 0.0000 38.9250
v 416.0750 3.0000 38.9250
v 418.9250 3.0000 38.9250
v 418.9250 0.0000 36.0750
v 418.9250 0.0000 38.9250
v 418.9250 3.0000 38.9250
v 418.9250 3.0000 36.0750
v 416.0750 0.0000 38.9250
v 416.0750 0.0000 36.0750
v 416.0750 3.0000 36.0750
v 416.0750 3.0000 38.9250
v 421.0750 0.0000 36.0750
v 421.0750 0.0000 38.9250
v 423.9250 0.0000 38.9250
v 423.9250 0.0000 36.0750
v 421.0750 3.0000 36.0750
v 423.9250 3.0000 36.0750
v 423.9250 3.0000 38.9250
v 421.0750 3.0000 38.9250
v 421.0750 0.0000 36.0750
v 423.9250 0.0000 36.0750
v 423.9250 3.0000 36.0750
v 421.0750 3.0000 36.0750
v 423.9250 0.0000 38.9250
v 421.0750 0.0000 38.9250
v 421.0750 3.0000 38.9250
v 423.9250 3.0000 38.9250
v 423.9250 0.0000 36.0750
v 423.9250 0.0000 38.9250
v 423.9250 3.0000 38.9250
v 423.9250 3.0000 36.0750
v 421.0750 0.0000 38.9250
v 421.0750 0.0000 36.0750
v 421.0750 3.0000 36.0750
v 421.0750 3.0000 38.9250
v 426.0750 0.0000 36.0750
v 426.0750 0.0000 38.9250
v 428.9250 0.0000 38.9250
v 428.9250 0.0000 36.0750
v 426.0750 3.0000 36.0750
v 428.9250 3.0000 36.0750
v 428.9250 3.0000 38.9250
v 426.0750 3.0000 38.9250
v 426.0750 0.0000 36.0750
v 428.9250 0.0000 36.0750
v 428.9250 3.0000 36.0750
v 426.0750 3.0000 36.0750
v 428.9250 0.0000 38.9250
v 426.0750 0.0000 38.9250
v 426.0750 3.0000 38.9250
v 428.9250 3.0000 38.9250
v 428.9250 0.0000 36.0750
v 428.9250 0.0000 38.9250
v 428.9250 3.0000 38.9250
v 428.9250 3.0000 36.0750
v 426.0750 0.0000 38.9250
v 426.0750 0.0000 36.0750
v 426.0750 3.0000 36.0750
v 426.0750 3.0000 38.9250
v 431.0750 0.0000 36.0750
v 431.0750 0.0000 38.9250
v 433.9250 0.0000 38.9250
v 433.9250 0.0000 36.0750
v 431.0750 3.0000 36.0750
v 433.9250 3.0000 36.0750
v 433.9250 3.0000 38.9250
v 431.0750 3.0000 38.9250
v 431.0750 0.0000 36.0750
v 433.9250 0.0000 36.0750
v 433.9250 3.0000 36.0750
v 431.0750 3.0000 36.0750
v 433.9250 0.0000 38.9250
v 431.0750 0.0000 38.9250
v 431.0750 3.0000 38.9250
v 433.9250 3.0000 38.9250
v 433.9250 0.0000 36.0750
v 433.9250 0.0000 38.9250
v 433.9250 3.0000 38.9250
v 433.9250 3.0000 36.0750
v 431.0750 0.0000 38.9250
v 431.0750 0.0000 36.0750
v 431.0750 3.0000 36.0750
v 431.0750 3.0000 38.9250
v 416.0750 0.0000 38.5750
v 416.0750 0.0000 41.4250
v 418.9250 0.0000 41.4250
v 418.9250 0.0000 38.5750
v 416.0750 3.0000 38.5750
v 418.9250 3.0000 38.5750
v 418.9250 3.0000 41.4250
v 416.0750 3.0000 41.4250
v 416.0750 0.0000 38.5750
v 418.9250 0.0000 38.5750
v 418.9250 3.0000 38.5750
v 416.0750 3.0000 38.5750
v 418.9250 0.0000 41.4250
v 416.0750 0.0000 41.4250
v 416.0750 3.0000 41.4250
v 418.9250 3.0000 41.4250
v 418.9250 0.0000 38.5750
v 418.9250 0.0000 41.4250
v 418.9250 3.0000 41.4250
v 418.9250 3.0000 38.5750
v 416.0750 0.0000 41.4250
v 416.0750 0.0000 38.5750
v 416.0750 3.0000 38.5750
v 416.0750 3.0000 41.4250
v 426.0750 0.0000 38.5750
v 426.0750 0.0000 41.4250
v 428.9250 0.0000 41.4250
v 428.9250 0.0000 38.5750
v 426.0750 3.0000 38.5750
v 428.9250 3.0000 38.5750
v 428.9250 3.0000 41.4250
v 426.0750 3.0000 41.4250
v 426.0750 0.0000 38.5750
v 428.9250 0.0000 38.5750
v 428.9250 3.0000 38.5750
v 426.0750 3.0000 38.5750
v 428.9250 0.0000 41.4250
v 426.0750 0.0000 41.4250
v 426.0750 3.0000 41.4250
v 428.9250 3.0000 41.4250
v 428.9250 0.0000 38.5750
v 428.9250 0.0000 41.4250
v 428.9250 3.0000 41.4250
v 428.9250 3.0000 38.5750
v 426.0750 0.0000 41.4250
v 426.0750 0.0000 38.5750
v 426.0750 3.0000 38.5750
v 426.0750 3.0000 41.4250
v 431.0750 0.0000 38.5750
v 431.0750 0.0000 41.4250
v 433.9250 0.0000 41.4250
v 433.9250 0.0000 38.5750
v 431.0750 3.0000 38.5750
v 433.9250 3.0000 38.5750
v 433.9250 3.0000 41.4250
v 431.0750 3.0000 41.4250
v 431.0750 0.0000 38.5750
v 433.9250 0.0000 38.5750
v 433.9250 3.0000 38.5750
v 431.0750 3.0000 38.5750
v 433.9250 0.0000 41.4250
v 431.0750 0.0000 41.4250
v 431.0750 3.0000 41.4250
v 433.9250 3.0000 41.4250
v 433.9250 0.0000 38.5750
v 433.9250 0.0000 41.4250
v 433.9250 3.0000 41.4250
v 433.9250 3.0000 38.5750
v 431.0750 0.0000 41.4250
v 431.0750 0.0000 38.5750
v 431.0750 3.0000 38.5750
v 431.0750 3.0000 41.4250
v 406.0750 0.0000 41.0750
v 406.0750 0.0000 43.9250
v 408.9250 0.0000 43.9250
v 408.9250 0.0000 41.0750
v 406.0750 3.0000 41.0750
v 408.9250 3.0000 41.0750
v 408.9250 3.0000 43.9250
v 406.0750 3.0000 43.9250
v 406.0750 0.0000 41.0750
v 408.9250 0.0000 41.0750
v 408.9250 3.0000 41.0750
v 406.0750 3.0000 41.0750
v 408.9250 0.0000 43.9250
v 406.0750 0.0000 43.9250
v 406.0750 3.0000 43.9250
v 408.9250 3.0000 43.9250
v 408.9250 0.0000 41.0750
v 408.9250 0.0000 43.9250
v 408.9250 3.0000 43.9250
v 408.9250 3.0000 41.0750
v 406.0750 0.0000 43.9250
v 406.0750 0.0000 41.0750
v 406.0750 3.0000 41.0750
v 406.0750 3.0000 43.9250
v 411.0750 0.0000 41.0750
v 411.0750 0.0000 43.9250
v 413.9250 0.0000 43.9250
v 413.9250 0.0000 41.0750
v 411.0750 3.0000 41.0750
v 413.9250 3.0000 41.0750
v 413.9250 3.0000 43.9250
v 411.0750 3.0000 43.9250
v 411.0750 0.0000 41.0750
v 413.9250 0.0000 41.0750
v 413.9250 3.0000 41.0750
v 411.0750 3.0000 41.0750
v 413.9250 0.0000 43.9250
v 411.0750 0.0000 43.9250
v 411.0750 3.0000 43.9250
v 413.9250 3.0000 43.9250
v 413.9250 0.0000 41.0750
v 413.9250 0.0000 43.9250
v 413.9250 3.0000 43.9250
v 413.9250 3.0000 41.0750
v 411.0750 0.0000 43.9250
v 411.0750 0.0000 41.0750
v 411.0750 3.0000 41.0750
v 411.0750 3.0000 43.9250
v 416.0750 0.0000 41.0750
v 416.0750 0.0000 43.9250
v 418.9250 0.0000 43.9250
v 418.9250 0.0000 41.0750
v 416.0750 3.0000 41.0750
v 418.9250 3.0000 41.0750
v 418.9250 3.0000 43.9250
v 416.0750 3.0000 43.9250
v 416.0750 0.0000 41.0750
v 418.9250 0.0000 41.0750
v 418.9250 3.0000 41.0750
v 416.0750 3.0000 41.0750
v 418.9250 0.0000 43.9250
v 416.0750 0.0000 43.9250
v 416.0750 3.0000 43.9250
v 418.9250 3.0000 43.9250
v 418.9250 0.0000 41.0750
v 418.9250 0.0000 43.9250
v 418.9250 3.0000 43.9250
v 418.9250 3.0000 41.0750
v 416.0750 0.0000 43.9250
v 416.0750 0.0000 41.0750
v 416.0750 3.0000 41.0750
v 416.0750 3.0000 43.9250
v 421.0750 0.0000 41.0750
v 421.0750 0.0000 43.9250
v 423.9250 0.0000 43.9250
v 423.9250 0.0000 41.0750
v 421.0750 3.0000 41.0750
v 423.9250 3.0000 41.0750
v 423.9250 3.0000 43.9250
v 421.0750 3.0000 43.9250
v 421.0750 0.0000 41.0750
v 423.9250 0.0000 41.0750
v 423.9250 3.0000 41.0750
v 421.0750 3.0000 41.0750
v 423.9250 0.0000 43.9250
v 421.0750 0.0000 43.9250
v 421.0750 3.0000 43.9250
v 423.9250 3.0000 43.9250
v 423.9250 0.0000 41.0750
v 423.9250 0.0000 43.9250
v 423.9250 3.0000 43.9250
v 423.9250 3.0000 41.0750
v 421.0750 0.0000 43.9250
v 421.0750 0.0000 41.0750
v 421.0750 3.0000 41.0750
v 421.0750 3.0000 43.9250
v 423.5750 0.0000 41.0750
v 423.5750 0.0000 43.9250
v 426.4250 0.0000 43.9250
v 426.4250 0.0000 41.0750
v 423.5750 3.0000 41.0750
v 426.4250 3.0000 41.0750
v 426.4250 3.0000 43.9250
v 423.5750 3.0000 43.9250
v 423.5750 0.0000 41.0750
v 426.4250 0.0000 41.0750
v 426.4250 3.0000 41.0750
v 423.5750 3.0000 41.0750
v 426.4250 0.0000 43.9250
v 423.5750 0.0000 43.9250
v 423.5750 3.0000 43.9250
v 426.4250 3.0000 43.9250
v 426.4250 0.0000 41.0750
v 426.4250 0.0000 43.9250
v 426.4250 3.0000 43.9250
v 426.4250 3.0000 41.0750
v 423.5750 0.0000 43.9250
v 423.5750 0.0000 41.0750
v 423.5750 3.0000 41.0750
v 423.5750 3.0000 43.9250
v 426.0750 0.0000 41.0750
v 426.0750 0.0000 43.9250
v 428.9250 0.0000 43.9250
v 428.9250 0.0000 41.0750
v 426.0750 3.0000 41.0750
v 428.9250 3.0000 41.0750
v 428.9250 3.0000 43.9250
v 426.0750 3.0000 43.9250
v 426.0750 0.0000 41.0750
v 428.9250 0.0000 41.0750
v 428.9250 3.0000 41.0750
v 426.0750 3.0000 41.0750
v 428.9250 0.0000 43.9250
v 426.0750 0.0000 43.9250
v 426.0750 3.0000 43.9250
v 428.9250 3.0000 43.9250
v 428.9250 0.0000 41.0750
v 428.9250 0.0000 43.9250
v 428.9250 3.0000 43.9250
v 428.9250 3.0000 41.0750
v 426.0750 0.0000 43.9250
v 426.0750 0.0000 41.0750
v 426.0750 3.0000 41.0750
v 426.0750 3.0000 43.9250
v 431.0750 0.0000 41.0750
v 433.9250 0.0000 41.0750
v 433.9250 0.0000 43.9250
v 431.0750 0.0000 43.9250
v 431.0750 3.0000 41.0750
v 433.9250 3.0000 41.0750
v 433.9250 3.0000 43.9250
v 431.0750 3.0000 43.9250
v 406.0750 0.0000 43.5750
v 406.0750 0.0000 46.4250
v 408.9250 0.0000 46.4250
v 408.9250 0.0000 43.5750
v 406.0750 3.0000 43.5750
v 408.9250 3.0000 43.5750
v 408.9250 3.0000 46.4250
v 406.0750 3.0000 46.4250
v 406.0750 0.0000 43.5750
v 408.9250 0.0000 43.5750
v 408.9250 3.0000 43.5750
v 406.0750 3.0000 43.5750
v 408.9250 0.0000 46.4250
v 406.0750 0.0000 46.4250
v 406.0750 3.0000 46.4250
v 408.9250 3.0000 46.4250
v 408.9250 0.0000 43.5750
v 408.9250 0.0000 46.4250
v 408.9250 3.0000 46.4250
v 408.9250 3.0000 43.5750
v 406.0750 0.0000 46.4250
v 406.0750 0.0000 43.5750
v 406.0750 3.0000 43.5750
v 406.0750 3.0000 46.4250
v 411.0750 0.0000 43.5750
v 411.0750 0.0000 46.4250
v 413.9250 0.0000 46.4250
v 413.9250 0.0000 43.5750
v 411.0750 3.0000 43.5750
v 413.9250 3.0000 43.5750
v 413.9250 3.0000 46.4250
v 411.0750 3.0000 46.4250
v 411.0750 0.0000 43.5750
v 413.9250 0.0000 43.5750
v 413.9250 3.0000 43.5750
v 411.0750 3.0000 43.5750
v 413.9250 0.0000 46.4250
v 411.0750 0.0000 46.4250
v 411.0750 3.0000 46.4250
v 413.9250 3.0000 46.4250
v 413.9250 0.0000 43.5750
v 413.9250 0.0000 46.4250
v 413.9250 3.0000 46.4250
v 413.9250 3.0000 43.5750
v 411.0750 0.0000 46.4250
v 411.0750 0.0000 43.5750
v 411.0750 3.0000 43.5750
v 411.0750 3.0000 46.4250
v 431.0750 0.0000 43.5750
v 431.0750 0.0000 46.4250
v 433.9250 0.0000 46.4250
v 433.9250 0.0000 43.5750
v 431.0750 3.0000 43.5750
v 433.9250 3.0000 43.5750
v 433.9250 3.0000 46.4250
v 431.0750 3.0000 46.4250
v 431.0750 0.0000 43.5750
v 433.9250 0.0000 43.5750
v 433.9250 3.0000 43.5750
v 431.0750 3.0000 43.5750
v 433.9250 0.0000 46.4250
v 431.0750 0.0000 46.4250
v 431.0750 3.0000 46.4250
v 433.9250 3.0000 46.4250
v 433.9250 0.0000 43.5750
v 433.9250 0.0000 46.4250
v 433.9250 3.0000 46.4250
v 433.9250 3.0000 43.5750
v 431.0750 0.0000 46.4250
v 431.0750 0.0000 43.5750
v 431.0750 3.0000 43.5750
v 431.0750 3.0000 46.4250
v 406.0750 0.0000 46.0750
v 406.0750 0.0000 48.9250
v 408.9250 0.0000 48.9250
v 408.9250 0.0000 46.0750
v 406.0750 3.0000 46.0750
v 408.9250 3.0000 46.0750
v 408.9250 3.0000 48.9250
v 406.0750 3.0000 48.9250
v 406.0750 0.0000 46.0750
v 408.9250 0.0000 46.0750
v 408.9250 3.0000 46.0750
v 406.0750 3.0000 46.0750
v 408.9250 0.0000 48.9250
v 406.0750 0.0000 48.9250
v 406.0750 3.0000 48.9250
v 408.9250 3.0000 48.9250
v 408.9250 0.0000 46.0750
v 408.9250 0.0000 48.9250
v 408.9250 3.0000 48.9250
v 408.9250 3.0000 46.0750
v 406.0750 0.0000 48.9250
v 406.0750 0.0000 46.0750
v 406.0750 3.0000 46.0750
v 406.0750 3.0000 48.9250
v 411.0750 0.0000 46.0750
v 413.9250 0.0000 46.0750
v 413.9250 0.0000 48.9250
v 411.0750 0.0000 48.9250
v 411.0750 3.0000 46.0750
v 413.9250 3.0000 46.0750
v 413.9250 3.0000 48.9250
v 411.0750 3.0000 48.9250
v 413.5750 0.0000 46.0750
v 413.5750 0.0000 48.9250
v 416.4250 0.0000 48.9250
v 416.4250 0.0000 46.0750
v 413.5750 3.0000 46.0750
v 416.4250 3.0000 46.0750
v 416.4250 3.0000 48.9250
v 413.5750 3.0000 48.9250
v 413.5750 0.0000 46.0750
v 416.4250 0.0000 46.0750
v 416.4250 3.0000 46.0750
v 413.5750 3.0000 46.0750
v 416.4250 0.0000 48.9250
v 413.5750 0.0000 48.9250
v 413.5750 3.0000 48.9250
v 416.4250 3.0000 48.9250
v 416.4250 0.0000 46.0750
v 416.4250 0.0000 48.9250
v 416.4250 3.0000 48.9250
v 416.4250 3.0000 46.0750
v 413.5750 0.0000 48.9250
v 413.5750 0.0000 46.0750
v 413.5750 3.0000 46.0750
v 413.5750 3.0000 48.9250
v 416.0750 0.0000 46.0750
v 418.9250 0.0000 46.0750
v 418.9250 0.0000 48.9250
v 416.0750 0.0000 48.9250
v 416.0750 3.0000 46.0750
v 418.9250 3.0000 46.0750
v 418.9250 3.0000 48.9250
v 416.0750 3.0000 48.9250
v 418.5750 0.0000 46.0750
v 418.5750 0.0000 48.9250
v 421.4250 0.0000 48.9250
v 421.4250 0.0000 46.0750
v 418.5750 3.0000 46.0750
v 421.4250 3.0000 46.0750
v 421.4250 3.0000 48.9250
v 418.5750 3.0000 48.9250
v 418.5750 0.0000 46.0750
v 421.4250 0.0000 46.0750
v 421.4250 3.0000 46.0750
v 418.5750 3.0000 46.0750
v 421.4250 0.0000 48.9250
v 418.5750 0.0000 48.9250
v 418.5750 3.0000 48.9250
v 421.4250 3.0000 48.9250
v 421.4250 0.0000 46.0750
v 421.4250 0.0000 48.9250
v 421.4250 3.0000 48.9250
v 421.4250 3.0000 46.0750
v 418.5750 0.0000 48.9250
v 418.5750 0.0000 46.0750
v 418.5750 3.0000 46.0750
v 418.5750 3.0000 48.9250
v 421.0750 0.0000 46.0750
v 421.0750 0.0000 48.9250
v 423.9250 0.0000 48.9250
v 423.9250 0.0000 46.0750
v 421.0750 3.0000 46.0750
v 423.9250 3.0000 46.0750
v 423.9250 3.0000 48.9250
v 421.0750 3.0000 48.9250
v 421.0750 0.0000 46.0750
v 423.9250 0.0000 46.0750
v 423.9250 3.0000 46.0750
v 421.0750 3.0000 46.0750
v 423.9250 0.0000 48.9250
v 421.0750 0.0000 48.9250
v 421.0750 3.0000 48.9250
v 423.9250 3.0000 48.9250
v 423.9250 0.0000 46.0750
v 423.9250 0.0000 48.9250
v 423.9250 3.0000 48.9250
v 423.9250 3.0000 46.0750
v 421.0750 0.0000 48.9250
v 421.0750 0.0000 46.0750
v 421.0750 3.0000 46.0750
v 421.0750 3.0000 48.9250
v 423.5750 0.0000 46.0750
v 423.5750 0.0000 48.9250
v 426.4250 0.0000 48.9250
v 426.4250 0.0000 46.0750
v 423.5750 3.0000 46.0750
v 426.4250 3.0000 46.0750
v 426.4250 3.0000 48.9250
v 423.5750 3.0000 48.9250
v 423.5750 0.0000 46.0750
v 426.4250 0.0000 46.0750
v 426.4250 3.0000 46.0750
v 423.5750 3.0000 46.0750
v 426.4250 0.0000 48.9250
v 423.5750 0.0000 48.9250
v 423.5750 3.0000 48.9250
v 426.4250 3.0000 48.9250
v 426.4250 0.0000 46.0750
v 426.4250 0.0000 48.9250
v 426.4250 3.0000 48.9250
v 426.4250 3.0000 46.0750
v 423.5750 0.0000 48.9250
v 423.5750 0.0000 46.0750
v 423.5750 3.0000 46.0750
v 423.5750 3.0000 48.9250
v 426.0750 0.0000 46.0750
v 426.0750 0.0000 48.9250
v 428.9250 0.0000 48.9250
v 428.9250 0.0000 46.0750
v 426.0750 3.0000 46.0750
v 428.9250 3.0000 46.0750
v 428.9250 3.0000 48.9250
v 426.0750 3.0000 48.9250
v 426.0750 0.0000 46.0750
v 428.9250 0.0000 46.0750
v 428.9250 3.0000 46.0750
v 426.0750 3.0000 46.0750
v 428.9250 0.0000 48.9250
v 426.0750 0.0000 48.9250
v 426.0750 3.0000 48.9250
v 428.9250 3.0000 48.9250
v 428.9250 0.0000 46.0750
v 428.9250 0.0000 48.9250
v 428.9250 3.0000 48.9250
v 428.9250 3.0000 46.0750
v 426.0750 0.0000 48.9250
v 426.0750 0.0000 46.0750
v 426.0750 3.0000 46.0750
v 426.0750 3.0000 48.9250
v 428.5750 0.0000 46.0750
v 428.5750 0.0000 48.9250
v 431.4250 0.0000 48.9250
v 431.4250 0.0000 46.0750
v 428.5750 3.0000 46.0750
v 431.4250 3.0000 46.0750
v 431.4250 3.0000 48.9250
v 428.5750 3.0000 48.9250
v 428.5750 0.0000 46.0750
v 431.4250 0.0000 46.0750
v 431.4250 3.0000 46.0750
v 428.5750 3.0000 46.0750
v 431.4250 0.0000 48.9250
v 428.5750 0.0000 48.9250
v 428.5750 3.0000 48.9250
v 431.4250 3.0000 48.9250
v 431.4250 0.0000 46.0750
v 431.4250 0.0000 48.9250
v 431.4250 3.0000 48.9250
v 431.4250 3.0000 46.0750
v 428.5750 0.0000 48.9250
v 428.5750 0.0000 46.0750
v 428.5750 3.0000 46.0750
v 428.5750 3.0000 48.9250
v 431.0750 0.0000 46.0750
v 431.0750 0.0000 48.9250
v 433.9250 0.0000 48.9250
v 433.9250 0.0000 46.0750
v 431.0750 3.0000 46.0750
v 433.9250 3.0000 46.0750
v 433.9250 3.0000 48.9250
v 431.0750 3.0000 48.9250
v 431.0750 0.0000 46.0750
v 433.9250 0.0000 46.0750
v 433.9250 3.0000 46.0750
v 431.0750 3.0000 46.0750
v 433.9250 0.0000 48.9250
v 431.0750 0.0000 48.9250
v 431.0750 3.0000 48.9250
v 433.9250 3.0000 48.9250
v 433.9250 0.0000 46.0750
v 433.9250 0.0000 48.9250
v 433.9250 3.0000 48.9250
v 433.9250 3.0000 46.0750
v 431.0750 0.0000 48.9250
v 431.0750 0.0000 46.0750
v 431.0750 3.0000 46.0750
v 431.0750 3.0000 48.9250
v 433.5750 0.0000 46.0750
v 433.5750 0.0000 48.9250
v 436.4250 0.0000 48.9250
v 436.4250 0.0000 46.0750
v 433.5750 3.0000 46.0750
v 436.4250 3.0000 46.0750
v 436.4250 3.0000 48.9250
v 433.5750 3.0000 48.9250
v 433.5750 0.0000 46.0750
v 436.4250 0.0000 46.0750
v 436.4250 3.0000 46.0750
v 433.5750 3.0000 46.0750
v 436.4250 0.0000 48.9250
v 433.5750 0.0000 48.9250
v 433.5750 3.0000 48.9250
v 436.4250 3.0000 48.9250
v 436.4250 0.0000 46.0750
v 436.4250 0.0000 48.9250
v 436.4250 3.0000 48.9250
v 436.4250 3.0000 46.0750
v 433.5750 0.0000 48.9250
v 433.5750 0.0000 46.0750
v 433.5750 3.0000 46.0750
v 433.5750 3.0000 48.9250
v 406.0750 0.0000 48.5750
v 406.0750 0.0000 51.4250
v 408.9250 0.0000 51.4250
v 408.9250 0.0000 48.5750
v 406.0750 3.0000 48.5750
v 408.9250 3.0000 48.5750
v 408.9250 3.0000 51.4250
v 406.0750 3.0000 51.4250
v 406.0750 0.0000 48.5750
v 408.9250 0.0000 48.5750
v 408.9250 3.0000 48.5750
v 406.0750 3.0000 48.5750
v 408.9250 0.0000 51.4250
v 406.0750 0.0000 51.4250
v 406.0750 3.0000 51.4250
v 408.9250 3.0000 51.4250
v 408.9250 0.0000 48.5750
v 408.9250 0.0000 51.4250
v 408.9250 3.0000 51.4250
v 408.9250 3.0000 48.5750
v 406.0750 0.0000 51.4250
v 406.0750 0.0000 48.5750
v 406.0750 3.0000 48.5750
v 406.0750 3.0000 51.4250
v 424.8250 2.7600 39.8250
v 425.1750 2.7600 39.8250
v 425.1750 2.7600 40.1750
v 424.8250 2.7600 40.1750
v 424.8250 2.8800 39.8250
v 425.1750 2.8800 39.8250
v 425.1750 2.8800 40.1750
v 424.8250 2.8800 40.1750
v 414.8250 2.7600 44.8250
v 415.1750 2.7600 44.8250
v 415.1750 2.7600 45.1750
v 414.8250 2.7600 45.1750
v 414.8250 2.8800 44.8250
v 415.1750 2.8800 44.8250
v 415.1750 2.8800 45.1750
v 414.8250 2.8800 45.1750
v 419.8250 2.7600 44.8250
v 420.1750 2.7600 44.8250
v 420.1750 2.7600 45.1750
v 419.8250 2.7600 45.1750
v 419.8250 2.8800 44.8250
v 420.1750 2.8800 44.8250
v 420.1750 2.8800 45.1750
v 419.8250 2.8800 45.1750
v 424.8250 2.7600 44.8250
v 425.1750 2.7600 44.8250
v 425.1750 2.7600 45.1750
v 424.8250 2.7600 45.1750
v 424.8250 2.8800 44.8250
v 425.1750 2.8800 44.8250
v 425.1750 2.8800 45.1750
v 424.8250 2.8800 45.1750
v 429.8250 2.7600 44.8250
v 430.1750 2.7600 44.8250
v 430.1750 2.7600 45.1750
v 429.8250 2.7600 45.1750
v 429.8250 2.8800 44.8250
v 430.1750 2.8800 44.8250
v 430.1750 2.8800 45.1750
v 429.8250 2.8800 45.1750
v 434.8250 2.7600 44.8250
v 435.1750 2.7600 44.8250
v 435.1750 2.7600 45.1750
v 434.8250 2.7600 45.1750
v 434.8250 2.8800 44.8250
v 435.1750 2.8800 44.8250
v 435.1750 2.8800 45.1750
v 434.8250 2.8800 45.1750
v 409.8250 2.7600 49.8250
v 410.1750 2.7600 49.8250
v 410.1750 2.7600 50.1750
v 409.8250 2.7600 50.1750
v 409.8250 2.8800 49.8250
v 410.1750 2.8800 49.8250
v 410.1750 2.8800 50.1750
v 409.8250 2.8800 50.1750
v 419.8250 2.7600 49.8250
v 420.1750 2.7600 49.8250
v 420.1750 2.7600 50.1750
v 419.8250 2.7600 50.1750
v 419.8250 2.8800 49.8250
v 420.1750 2.8800 49.8250
v 420.1750 2.8800 50.1750
v 419.8250 2.8800 50.1750
v 434.8250 2.7600 49.8250
v 435.1750 2.7600 49.8250
v 435.1750 2.7600 50.1750
v 434.8250 2.7600 50.1750
v 434.8250 2.8800 49.8250
v 435.1750 2.8800 49.8250
v 435.1750 2.8800 50.1750
v 434.8250 2.8800 50.1750
v 407.6200 2.6000 37.5000
v 407.6200 2.6000 37.5000
v 407.5849 2.6000 37.5849
v 407.5849 2.6000 37.5849
v 407.5000 2.6000 37.6200
v 407.5000 2.6000 37.6200
v 407.4151 2.6000 37.5849
v 407.4151 2.6000 37.5849
v 407.3800 2.6000 37.5000
v 407.3800 2.6000 37.5000
v 407.4151 2.6000 37.4151
v 407.4151 2.6000 37.4151
v 407.5000 2.6000 37.3800
v 407.5000 2.6000 37.3800
v 407.5849 2.6000 37.4151
v 407.5849 2.6000 37.4151
v 407.5000 2.6000 37.5000
v 407.5000 2.6000 37.5000
v 407.5000 2.4800 37.3800
v 435.0000 2.4800 37.3800
v 435.0000 2.4800 37.6200
v 407.5000 2.4800 37.6200
v 407.5000 2.7200 37.3800
v 435.0000 2.7200 37.3800
v 435.0000 2.7200 37.6200
v 407.5000 2.7200 37.6200
v 407.6200 2.6000 42.5000
v 407.6200 2.6000 42.5000
v 407.5849 2.6000 42.5849
v 407.5849 2.6000 42.5849
v 407.5000 2.6000 42.6200
v 407.5000 2.6000 42.6200
v 407.4151 2.6000 42.5849
v 407.4151 2.6000 42.5849
v 407.3800 2.6000 42.5000
v 407.3800 2.6000 42.5000
v 407.4151 2.6000 42.4151
v 407.4151 2.6000 42.4151
v 407.5000 2.6000 42.3800
v 407.5000 2.6000 42.3800
v 407.5849 2.6000 42.4151
v 407.5849 2.6000 42.4151
v 407.5000 2.6000 42.5000
v 407.5000 2.6000 42.5000
v 407.5000 2.4800 42.3800
v 435.0000 2.4800 42.3800
v 435.0000 2.4800 42.6200
v 407.5000 2.4800 42.6200
v 407.5000 2.7200 42.3800
v 435.0000 2.7200 42.3800
v 435.0000 2.7200 42.6200
v 407.5000 2.7200 42.6200
v 407.6200 2.6000 52.5000
v 407.6200 2.6000 52.5000
v 407.5849 2.6000 52.5849
v 407.5849 2.6000 52.5849
v 407.5000 2.6000 52.6200
v 407.5000 2.6000 52.6200
v 407.4151 2.6000 52.5849
v 407.4151 2.6000 52.5849
v 407.3800 2.6000 52.5000
v 407.3800 2.6000 52.5000
v 407.4151 2.6000 52.4151
v 407.4151 2.6000 52.4151
v 407.5000 2.6000 52.3800
v 407.5000 2.6000 52.3800
v 407.5849 2.6000 52.4151
v 407.5849 2.6000 52.4151
v 407.5000 2.6000 52.5000
v 407.5000 2.6000 52.5000
v 407.5000 2.4800 52.3800
v 435.0000 2.4800 52.3800
v 435.0000 2.4800 52.6200
v 407.5000 2.4800 52.6200
v 407.5000 2.7200 52.3800
v 435.0000 2.7200 52.3800
v 435.0000 2.7200 52.6200
v 407.5000 2.7200 52.6200
vt 204.2875 18.0375
vt 204.2875 19.4625
vt 205.7125 19.4625
vt 205.7125 18.0375
vt 204.2875 18.0375
vt 205.7125 18.0375
vt 205.7125 19.4625
vt 204.2875 19.4625
vt 204.2875 0.0000
vt 205.7125 0.0000
vt 205.7125 1.5000
vt 204.2875 1.5000
vt 205.7125 0.0000
vt 204.2875 0.0000
vt 204.2875 1.5000
vt 205.7125 1.5000
vt 18.0375 0.0000
vt 19.4625 0.0000
vt 19.4625 1.5000
vt 18.0375 1.5000
vt 19.4625 0.0000
vt 18.0375 0.0000
vt 18.0375 1.5000
vt 19.4625 1.5000
vt 205.5375 18.0375
vt 205.5375 19.4625
vt 206.9625 19.4625
vt 206.9625 18.0375
vt 205.5375 18.0375
vt 206.9625 18.0375
vt 206.9625 19.4625
vt 205.5375 19.4625
vt 205.5375 0.0000
vt 206.9625 0.0000
vt 206.9625 1.5000
vt 205.5375 1.5000
vt 206.9625 0.0000
vt 205.5375 0.0000
vt 205.5375 1.5000
vt 206.9625 1.5000
vt 18.0375 0.0000
vt 19.4625 0.0000
vt 19.4625 1.5000
vt 18.0375 1.5000
vt 19.4625 0.0000
vt 18.0375 0.0000
vt 18.0375 1.5000
vt 19.4625 1.5000
vt 208.0375 18.0375
vt 208.0375 19.4625
vt 209.4625 19.4625
vt 209.4625 18.0375
vt 208.0375 18.0375
vt 209.4625 18.0375
vt 209.4625 19.4625
vt 208.0375 19.4625
vt 208.0375 0.0000
vt 209.4625 0.0000
vt 209.4625 1.5000
vt 208.0375 1.5000
vt 209.4625 0.0000
vt 208.0375 0.0000
vt 208.0375 1.5000
vt 209.4625 1.5000
vt 18.0375 0.0000
vt 19.4625 0.0000
vt 19.4625 1.5000
vt 18.0375 1.5000
vt 19.4625 0.0000
vt 18.0375 0.0000
vt 18.0375 1.5000
vt 19.4625 1.5000
vt 210.5375 18.0375
vt 210.5375 19.4625
vt 211.9625 19.4625
vt 211.9625 18.0375
vt 210.5375 18.0375
vt 211.9625 18.0375
vt 211.9625 19.4625
vt 210.5375 19.4625
vt 210.5375 0.0000
vt 211.9625 0.0000
vt 211.9625 1.5000
vt 210.5375 1.5000
vt 211.9625 0.0000
vt 210.5375 0.0000
vt 210.5375 1.5000
vt 211.9625 1.5000
vt 18.0375 0.0000
vt 19.4625 0.0000
vt 19.4625 1.5000
vt 18.0375 1.5000
vt 19.4625 0.0000
vt 18.0375 0.0000
vt 18.0375 1.5000
vt 19.4625 1.5000
vt 213.0375 18.0375
vt 213.0375 19.4625
vt 214.4625 19.4625
vt 214.4625 18.0375
vt 213.0375 18.0375
vt 214.4625 18.0375
vt 214.4625 19.4625
vt 213.0375 19.4625
vt 213.0375 0.0000
vt 214.4625 0.0000
vt 214.4625 1.5000
vt 213.0375 1.5000
vt 214.4625 0.0000
vt 213.0375 0.0000
vt 213.0375 1.5000
vt 214.4625 1.5000
vt 18.0375 0.0000
vt 19.4625 0.0000
vt 19.4625 1.5000
vt 18.0375 1.5000
vt 19.4625 0.0000
vt 18.0375 0.0000
vt 18.0375 1.5000
vt 19.4625 1.5000
vt 215.5375 18.0375
vt 215.5375 19.4625
vt 216.9625 19.4625
vt 216.9625 18.0375
vt 215.5375 18.0375
vt 216.9625 18.0375
vt 216.9625 19.4625
vt 215.5375 19.4625
vt 215.5375 0.0000
vt 216.9625 0.0000
vt 216.9625 1.5000
vt 215.5375 1.5000
vt 216.9625 0.0000
vt 215.5375 0.0000
vt 215.5375 1.5000
vt 216.9625 1.5000
vt 18.0375 0.0000
vt 19.4625 0.0000
vt 19.4625 1.5000
vt 18.0375 1.5000
vt 19.4625 0.0000
vt 18.0375 0.0000
vt 18.0375 1.5000
vt 19.4625 1.5000
vt 208.0375 19.2875
vt 208.0375 20.7125
vt 209.4625 20.7125
vt 209.4625 19.2875
vt 208.0375 19.2875
vt 209.4625 19.2875
vt 209.4625 20.7125
vt 208.0375 20.7125
vt 208.0375 0.0000
vt 209.4625 0.0000
vt 209.4625 1.5000
vt 208.0375 1.5000
vt 209.4625 0.0000
vt 208.0375 0.0000
vt 208.0375 1.5000
vt 209.4625 1.5000
vt 19.2875 0.0000
vt 20.7125 0.0000
vt 20.7125 1.5000
vt 19.2875 1.5000
vt 20.7125 0.0000
vt 19.2875 0.0000
vt 19.2875 1.5000
vt 20.7125 1.5000
vt 213.0375 19.2875
vt 213.0375 20.7125
vt 214.4625 20.7125
vt 214.4625 19.2875
vt 213.0375 19.2875
vt 214.4625 19.2875
vt 214.4625 20.7125
vt 213.0375 20.7125
vt 213.0375 0.0000
vt 214.4625 0.0000
vt 214.4625 1.5000
vt 213.0375 1.5000
vt 214.4625 0.0000
vt 213.0375 0.0000
vt 213.0375 1.5000
vt 214.4625 1.5000
vt 19.2875 0.0000
vt 20.7125 0.0000
vt 20.7125 1.5000
vt 19.2875 1.5000
vt 20.7125 0.0000
vt 19.2875 0.0000
vt 19.2875 1.5000
vt 20.7125 1.5000
vt 215.5375 19.2875
vt 215.5375 20.7125
vt 216.9625 20.7125
vt 216.9625 19.2875
vt 215.5375 19.2875
vt 216.9625 19.2875
vt 216.9625 20.7125
vt 215.5375 20.7125
vt 215.5375 0.0000
vt 216.9625 0.0000
vt 216.9625 1.5000
vt 215.5375 1.5000
vt 216.9625 0.0000
vt 215.5375 0.0000
vt 215.5375 1.5000
vt 216.9625 1.5000
vt 19.2875 0.0000
vt 20.7125 0.0000
vt 20.7125 1.5000
vt 19.2875 1.5000
vt 20.7125 0.0000
vt 19.2875 0.0000
vt 19.2875 1.5000
vt 20.7125 1.5000
vt 203.0375 20.5375
vt 203.0375 21.9625
vt 204.4625 21.9625
vt 204.4625 20.5375
vt 203.0375 20.5375
vt 204.4625 20.5375
vt 204.4625 21.9625
vt 203.0375 21.9625
vt 203.0375 0.0000
vt 204.4625 0.0000
vt 204.4625 1.5000
vt 203.0375 1.5000
vt 204.4625 0.0000
vt 203.0375 0.0000
vt 203.0375 1.5000
vt 204.4625 1.5000
vt 20.5375 0.0000
vt 21.9625 0.0000
vt 21.9625 1.5000
vt 20.5375 1.5000
vt 21.9625 0.0000
vt 20.5375 0.0000
vt 20.5375 1.5000
vt 21.9625 1.5000
vt 205.5375 20.5375
vt 205.5375 21.9625
vt 206.9625 21.9625
vt 206.9625 20.5375
vt 205.5375 20.5375
vt 206.9625 20.5375
vt 206.9625 21.9625
vt 205.5375 21.9625
vt 205.5375 0.0000
vt 206.9625 0.0000
vt 206.9625 1.5000
vt 205.5375 1.5000
vt 206.9625 0.0000
vt 205.5375 0.0000
vt 205.5375 1.5000
vt 206.9625 1.5000
vt 20.5375 0.0000
vt 21.9625 0.0000
vt 21.9625 1.5000
vt 20.5375 1.5000
vt 21.9625 0.0000
vt 20.5375 0.0000
vt 20.5375 1.5000
vt 21.9625 1.5000
vt 208.0375 20.5375
vt 208.0375 21.9625
vt 209.4625 21.9625
vt 209.4625 20.5375
vt 208.0375 20.5375
vt 209.4625 20.5375
vt 209.4625 21.9625
vt 208.0375 21.9625
vt 208.0375 0.0000
vt 209.4625 0.0000
vt 209.4625 1.5000
vt 208.0375 1.5000
vt 209.4625 0.0000
vt 208.0375 0.0000
vt 208.0375 1.5000
vt 209.4625 1.5000
vt 20.5375 0.0000
vt 21.9625 0.0000
vt 21.9625 1.5000
vt 20.5375 1.5000
vt 21.9625 0.0000
vt 20.5375 0.0000
vt 20.5375 1.5000
vt 21.9625 1.5000
vt 210.5375 20.5375
vt 210.5375 21.9625
vt 211.9625 21.9625
vt 211.9625 20.5375
vt 210.5375 20.5375
vt 211.9625 20.5375
vt 211.9625 21.9625
vt 210.5375 21.9625
vt 210.5375 0.0000
vt 211.9625 0.0000
vt 211.9625 1.5000
vt 210.5375 1.5000
vt 211.9625 0.0000
vt 210.5375 0.0000
vt 210.5375 1.5000
vt 211.9625 1.5000
vt 20.5375 0.0000
vt 21.9625 0.0000
vt 21.9625 1.5000
vt 20.5375 1.5000
vt 21.9625 0.0000
vt 20.5375 0.0000
vt 20.5375 1.5000
vt 21.9625 1.5000
vt 211.7875 20.5375
vt 211.7875 21.9625
vt 213.2125 21.9625
vt 213.2125 20.5375
vt 211.7875 20.5375
vt 213.2125 20.5375
vt 213.2125 21.9625
vt 211.7875 21.9625
vt 211.7875 0.0000
vt 213.2125 0.0000
vt 213.2125 1.5000
vt 211.7875 1.5000
vt 213.2125 0.0000
vt 211.7875 0.0000
vt 211.7875 1.5000
vt 213.2125 1.5000
vt 20.5375 0.0000
vt 21.9625 0.0000
vt 21.9625 1.5000
vt 20.5375 1.5000
vt 21.9625 0.0000
vt 20.5375 0.0000
vt 20.5375 1.5000
vt 21.9625 1.5000
vt 213.0375 20.5375
vt 213.0375 21.9625
vt 214.4625 21.9625
vt 214.4625 20.5375
vt 213.0375 20.5375
vt 214.4625 20.5375
vt 214.4625 21.9625
vt 213.0375 21.9625
vt 213.0375 0.0000
vt 214.4625 0.0000
vt 214.4625 1.5000
vt 213.0375 1.5000
vt 214.4625 0.0000
vt 213.0375 0.0000
vt 213.0375 1.5000
vt 214.4625 1.5000
vt 20.5375 0.0000
vt 21.9625 0.0000
vt 21.9625 1.5000
vt 20.5375 1.5000
vt 21.9625 0.0000
vt 20.5375 0.0000
vt 20.5375 1.5000
vt 21.9625 1.5000
vt 203.0375 21.7875
vt 203.0375 23.2125
vt 204.4625 23.2125
vt 204.4625 21.7875
vt 203.0375 21.7875
vt 204.4625 21.7875
vt 204.4625 23.2125
vt 203.0375 23.2125
vt 203.0375 0.0000
vt 204.4625 0.0000
vt 204.4625 1.5000
vt 203.0375 1.5000
vt 204.4625 0.0000
vt 203.0375 0.0000
vt 203.0375 1.5000
vt 204.4625 1.5000
vt 21.7875 0.0000
vt 23.2125 0.0000
vt 23.2125 1.5000
vt 21.7875 1.5000
vt 23.2125 0.0000
vt 21.7875 0.0000
vt 21.7875 1.5000
vt 23.2125 1.5000
vt 205.5375 21.7875
vt 205.5375 23.2125
vt 206.9625 23.2125
vt 206.9625 21.7875
vt 205.5375 21.7875
vt 206.9625 21.7875
vt 206.9625 23.2125
vt 205.5375 23.2125
vt 205.5375 0.0000
vt 206.9625 0.0000
vt 206.9625 1.5000
vt 205.5375 1.5000
vt 206.9625 0.0000
vt 205.5375 0.0000
vt 205.5375 1.5000
vt 206.9625 1.5000
vt 21.7875 0.0000
vt 23.2125 0.0000
vt 23.2125 1.5000
vt 21.7875 1.5000
vt 23.2125 0.0000
vt 21.7875 0.0000
vt 21.7875 1.5000
vt 23.2125 1.5000
vt 215.5375 21.7875
vt 215.5375 23.2125
vt 216.9625 23.2125
vt 216.9625 21.7875
vt 215.5375 21.7875
vt 216.9625 21.7875
vt 216.9625 23.2125
vt 215.5375 23.2125
vt 215.5375 0.0000
vt 216.9625 0.0000
vt 216.9625 1.5000
vt 215.5375 1.5000
vt 216.9625 0.0000
vt 215.5375 0.0000
vt 215.5375 1.5000
vt 216.9625 1.5000
vt 21.7875 0.0000
vt 23.2125 0.0000
vt 23.2125 1.5000
vt 21.7875 1.5000
vt 23.2125 0.0000
vt 21.7875 0.0000
vt 21.7875 1.5000
vt 23.2125 1.5000
vt 203.0375 23.0375
vt 203.0375 24.4625
vt 204.4625 24.4625
vt 204.4625 23.0375
vt 203.0375 23.0375
vt 204.4625 23.0375
vt 204.4625 24.4625
vt 203.0375 24.4625
vt 203.0375 0.0000
vt 204.4625 0.0000
vt 204.4625 1.5000
vt 203.0375 1.5000
vt 204.4625 0.0000
vt 203.0375 0.0000
vt 203.0375 1.5000
vt 204.4625 1.5000
vt 23.0375 0.0000
vt 24.4625 0.0000
vt 24.4625 1.5000
vt 23.0375 1.5000
vt 24.4625 0.0000
vt 23.0375 0.0000
vt 23.0375 1.5000
vt 24.4625 1.5000
vt 206.7875 23.0375
vt 206.7875 24.4625
vt 208.2125 24.4625
vt 208.2125 23.0375
vt 206.7875 23.0375
vt 208.2125 23.0375
vt 208.2125 24.4625
vt 206.7875 24.4625
vt 206.7875 0.0000
vt 208.2125 0.0000
vt 208.2125 1.5000
vt 206.7875 1.5000
vt 208.2125 0.0000
vt 206.7875 0.0000
vt 206.7875 1.5000
vt 208.2125 1.5000
vt 23.0375 0.0000
vt 24.4625 0.0000
vt 24.4625 1.5000
vt 23.0375 1.5000
vt 24.4625 0.0000
vt 23.0375 0.0000
vt 23.0375 1.5000
vt 24.4625 1.5000
vt 209.2875 23.0375
vt 209.2875 24.4625
vt 210.7125 24.4625
vt 210.7125 23.0375
vt 209.2875 23.0375
vt 210.7125 23.0375
vt 210.7125 24.4625
vt 209.2875 24.4625
vt 209.2875 0.0000
vt 210.7125 0.0000
vt 210.7125 1.5000
vt 209.2875 1.5000
vt 210.7125 0.0000
vt 209.2875 0.0000
vt 209.2875 1.5000
vt 210.7125 1.5000
vt 23.0375 0.0000
vt 24.4625 0.0000
vt 24.4625 1.5000
vt 23.0375 1.5000
vt 24.4625 0.0000
vt 23.0375 0.0000
vt 23.0375 1.5000
vt 24.4625 1.5000
vt 210.5375 23.0375
vt 210.5375 24.4625
vt 211.9625 24.4625
vt 211.9625 23.0375
vt 210.5375 23.0375
vt 211.9625 23.0375
vt 211.9625 24.4625
vt 210.5375 24.4625
vt 210.5375 0.0000
vt 211.9625 0.0000
vt 211.9625 1.5000
vt 210.5375 1.5000
vt 211.9625 0.0000
vt 210.5375 0.0000
vt 210.5375 1.5000
vt 211.9625 1.5000
vt 23.0375 0.0000
vt 24.4625 0.0000
vt 24.4625 1.5000
vt 23.0375 1.5000
vt 24.4625 0.0000
vt 23.0375 0.0000
vt 23.0375 1.5000
vt 24.4625 1.5000
vt 211.7875 23.0375
vt 211.7875 24.4625
vt 213.2125 24.4625
vt 213.2125 23.0375
vt 211.7875 23.0375
vt 213.2125 23.0375
vt 213.2125 24.4625
vt 211.7875 24.4625
vt 211.7875 0.0000
vt 213.2125 0.0000
vt 213.2125 1.5000
vt 211.7875 1.5000
vt 213.2125 0.0000
vt 211.7875 0.0000
vt 211.7875 1.5000
vt 213.2125 1.5000
vt 23.0375 0.0000
vt 24.4625 0.0000
vt 24.4625 1.5000
vt 23.0375 1.5000
vt 24.4625 0.0000
vt 23.0375 0.0000
vt 23.0375 1.5000
vt 24.4625 1.5000
vt 213.0375 23.0375
vt 213.0375 24.4625
vt 214.4625 24.4625
vt 214.4625 23.0375
vt 213.0375 23.0375
vt 214.4625 23.0375
vt 214.4625 24.4625
vt 213.0375 24.4625
vt 213.0375 0.0000
vt 214.4625 0.0000
vt 214.4625 1.5000
vt 213.0375 1.5000
vt 214.4625 0.0000
vt 213.0375 0.0000
vt 213.0375 1.5000
vt 214.4625 1.5000
vt 23.0375 0.0000
vt 24.4625 0.0000
vt 24.4625 1.5000
vt 23.0375 1.5000
vt 24.4625 0.0000
vt 23.0375 0.0000
vt 23.0375 1.5000
vt 24.4625 1.5000
vt 214.2875 23.0375
vt 214.2875 24.4625
vt 215.7125 24.4625
vt 215.7125 23.0375
vt 214.2875 23.0375
vt 215.7125 23.0375
vt 215.7125 24.4625
vt 214.2875 24.4625
vt 214.2875 0.0000
vt 215.7125 0.0000
vt 215.7125 1.5000
vt 214.2875 1.5000
vt 215.7125 0.0000
vt 214.2875 0.0000
vt 214.2875 1.5000
vt 215.7125 1.5000
vt 23.0375 0.0000
vt 24.4625 0.0000
vt 24.4625 1.5000
vt 23.0375 1.5000
vt 24.4625 0.0000
vt 23.0375 0.0000
vt 23.0375 1.5000
vt 24.4625 1.5000
vt 215.5375 23.0375
vt 215.5375 24.4625
vt 216.9625 24.4625
vt 216.9625 23.0375
vt 215.5375 23.0375
vt 216.9625 23.0375
vt 216.9625 24.4625
vt 215.5375 24.4625
vt 215.5375 0.0000
vt 216.9625 0.0000
vt 216.9625 1.5000
vt 215.5375 1.5000
vt 216.9625 0.0000
vt 215.5375 0.0000
vt 215.5375 1.5000
vt 216.9625 1.5000
vt 23.0375 0.0000
vt 24.4625 0.0000
vt 24.4625 1.5000
vt 23.0375 1.5000
vt 24.4625 0.0000
vt 23.0375 0.0000
vt 23.0375 1.5000
vt 24.4625 1.5000
vt 216.7875 23.0375
vt 216.7875 24.4625
vt 218.2125 24.4625
vt 218.2125 23.0375
vt 216.7875 23.0375
vt 218.2125 23.0375
vt 218.2125 24.4625
vt 216.7875 24.4625
vt 216.7875 0.0000
vt 218.2125 0.0000
vt 218.2125 1.5000
vt 216.7875 1.5000
vt 218.2125 0.0000
vt 216.7875 0.0000
vt 216.7875 1.5000
vt 218.2125 1.5000
vt 23.0375 0.0000
vt 24.4625 0.0000
vt 24.4625 1.5000
vt 23.0375 1.5000
vt 24.4625 0.0000
vt 23.0375 0.0000
vt 23.0375 1.5000
vt 24.4625 1.5000
vt 203.0375 24.2875
vt 203.0375 25.7125
vt 204.4625 25.7125
vt 204.4625 24.2875
vt 203.0375 24.2875
vt 204.4625 24.2875
vt 204.4625 25.7125
vt 203.0375 25.7125
vt 203.0375 0.0000
vt 204.4625 0.0000
vt 204.4625 1.5000
vt 203.0375 1.5000
vt 204.4625 0.0000
vt 203.0375 0.0000
vt 203.0375 1.5000
vt 204.4625 1.5000
vt 24.2875 0.0000
vt 25.7125 0.0000
vt 25.7125 1.5000
vt 24.2875 1.5000
vt 25.7125 0.0000
vt 24.2875 0.0000
vt 24.2875 1.5000
vt 25.7125 1.5000
usemtl rust
f 1 4 3 2
f 5 6 7 8
f 1 2 6 5
f 3 4 8 7
f 2 3 7 6
f 4 1 5 8
f 369 372 371 370
f 373 374 375 376
f 369 370 374 373
f 371 372 376 375
f 370 371 375 374
f 372 369 373 376
f 473 476 475 474
f 477 478 479 480
f 473 474 478 477
f 475 476 480 479
f 474 475 479 478
f 476 473 477 480
f 505 508 507 506
f 509 510 511 512
f 505 506 510 509
f 507 508 512 511
f 506 507 511 510
f 508 505 509 512
usemtl lamp_sick
f 705 708 707 706
f 709 710 711 712
f 705 706 710 709
f 707 708 712 711
f 706 707 711 710
f 708 705 709 712
f 713 716 715 714
f 717 718 719 720
f 713 714 718 717
f 715 716 720 719
f 714 715 719 718
f 716 713 717 720
f 721 724 723 722
f 725 726 727 728
f 721 722 726 725
f 723 724 728 727
f 722 723 727 726
f 724 721 725 728
f 729 732 731 730
f 733 734 735 736
f 729 730 734 733
f 731 732 736 735
f 730 731 735 734
f 732 729 733 736
f 737 740 739 738
f 741 742 743 744
f 737 738 742 741
f 739 740 744 743
f 738 739 743 742
f 740 737 741 744
f 745 748 747 746
f 749 750 751 752
f 745 746 750 749
f 747 748 752 751
f 746 747 751 750
f 748 745 749 752
f 753 756 755 754
f 757 758 759 760
f 753 754 758 757
f 755 756 760 759
f 754 755 759 758
f 756 753 757 760
f 761 764 763 762
f 765 766 767 768
f 761 762 766 765
f 763 764 768 767
f 762 763 767 766
f 764 761 765 768
f 769 772 771 770
f 773 774 775 776
f 769 770 774 773
f 771 772 776 775
f 770 771 775 774
f 772 769 773 776
usemtl rust
f 777 779 780 778
f 779 781 782 780
f 781 783 784 782
f 783 785 786 784
f 785 787 788 786
f 787 789 790 788
f 789 791 792 790
f 791 777 778 792
f 793 778 780
f 794 779 777
f 793 780 782
f 794 781 779
f 793 782 784
f 794 783 781
f 793 784 786
f 794 785 783
f 793 786 788
f 794 787 785
f 793 788 790
f 794 789 787
f 793 790 792
f 794 791 789
f 793 792 778
f 794 777 791
f 795 798 797 796
f 799 800 801 802
f 795 796 800 799
f 797 798 802 801
f 796 797 801 800
f 798 795 799 802
usemtl pipe
f 803 805 806 804
f 805 807 808 806
f 807 809 810 808
f 809 811 812 810
f 811 813 814 812
f 813 815 816 814
f 815 817 818 816
f 817 803 804 818
f 819 804 806
f 820 805 803
f 819 806 808
f 820 807 805
f 819 808 810
f 820 809 807
f 819 810 812
f 820 811 809
f 819 812 814
f 820 813 811
f 819 814 816
f 820 815 813
f 819 816 818
f 820 817 815
f 819 818 804
f 820 803 817
f 821 824 823 822
f 825 826 827 828
f 821 822 826 825
f 823 824 828 827
f 822 823 827 826
f 824 821 825 828
f 829 831 832 830
f 831 833 834 832
f 833 835 836 834
f 835 837 838 836
f 837 839 840 838
f 839 841 842 840
f 841 843 844 842
f 843 829 830 844
f 845 830 832
f 846 831 829
f 845 832 834
f 846 833 831
f 845 834 836
f 846 835 833
f 845 836 838
f 846 837 835
f 845 838 840
f 846 839 837
f 845 840 842
f 846 841 839
f 845 842 844
f 846 843 841
f 845 844 830
f 846 829 843
f 847 850 849 848
f 851 852 853 854
f 847 848 852 851
f 849 850 854 853
f 848 849 853 852
f 850 847 851 854
usemtl grime_wall
f 9/1 10/2 11/3 12/4
f 13/5 14/6 15/7 16/8
f 17/9 18/10 19/11 20/12
f 21/13 22/14 23/15 24/16
f 25/17 26/18 27/19 28/20
f 29/21 30/22 31/23 32/24
f 33/25 34/26 35/27 36/28
f 37/29 38/30 39/31 40/32
f 41/33 42/34 43/35 44/36
f 45/37 46/38 47/39 48/40
f 49/41 50/42 51/43 52/44
f 53/45 54/46 55/47 56/48
f 57/49 58/50 59/51 60/52
f 61/53 62/54 63/55 64/56
f 65/57 66/58 67/59 68/60
f 69/61 70/62 71/63 72/64
f 73/65 74/66 75/67 76/68
f 77/69 78/70 79/71 80/72
f 81/73 82/74 83/75 84/76
f 85/77 86/78 87/79 88/80
f 89/81 90/82 91/83 92/84
f 93/85 94/86 95/87 96/88
f 97/89 98/90 99/91 100/92
f 101/93 102/94 103/95 104/96
f 105/97 106/98 107/99 108/100
f 109/101 110/102 111/103 112/104
f 113/105 114/106 115/107 116/108
f 117/109 118/110 119/111 120/112
f 121/113 122/114 123/115 124/116
f 125/117 126/118 127/119 128/120
f 129/121 130/122 131/123 132/124
f 133/125 134/126 135/127 136/128
f 137/129 138/130 139/131 140/132
f 141/133 142/134 143/135 144/136
f 145/137 146/138 147/139 148/140
f 149/141 150/142 151/143 152/144
f 153/145 154/146 155/147 156/148
f 157/149 158/150 159/151 160/152
f 161/153 162/154 163/155 164/156
f 165/157 166/158 167/159 168/160
f 169/161 170/162 171/163 172/164
f 173/165 174/166 175/167 176/168
f 177/169 178/170 179/171 180/172
f 181/173 182/174 183/175 184/176
f 185/177 186/178 187/179 188/180
f 189/181 190/182 191/183 192/184
f 193/185 194/186 195/187 196/188
f 197/189 198/190 199/191 200/192
f 201/193 202/194 203/195 204/196
f 205/197 206/198 207/199 208/200
f 209/201 210/202 211/203 212/204
f 213/205 214/206 215/207 216/208
f 217/209 218/210 219/211 220/212
f 221/213 222/214 223/215 224/216
f 225/217 226/218 227/219 228/220
f 229/221 230/222 231/223 232/224
f 233/225 234/226 235/227 236/228
f 237/229 238/230 239/231 240/232
f 241/233 242/234 243/235 244/236
f 245/237 246/238 247/239 248/240
f 249/241 250/242 251/243 252/244
f 253/245 254/246 255/247 256/248
f 257/249 258/250 259/251 260/252
f 261/253 262/254 263/255 264/256
f 265/257 266/258 267/259 268/260
f 269/261 270/262 271/263 272/264
f 273/265 274/266 275/267 276/268
f 277/269 278/270 279/271 280/272
f 281/273 282/274 283/275 284/276
f 285/277 286/278 287/279 288/280
f 289/281 290/282 291/283 292/284
f 293/285 294/286 295/287 296/288
f 297/289 298/290 299/291 300/292
f 301/293 302/294 303/295 304/296
f 305/297 306/298 307/299 308/300
f 309/301 310/302 311/303 312/304
f 313/305 314/306 315/307 316/308
f 317/309 318/310 319/311 320/312
f 321/313 322/314 323/315 324/316
f 325/317 326/318 327/319 328/320
f 329/321 330/322 331/323 332/324
f 333/325 334/326 335/327 336/328
f 337/329 338/330 339/331 340/332
f 341/333 342/334 343/335 344/336
f 345/337 346/338 347/339 348/340
f 349/341 350/342 351/343 352/344
f 353/345 354/346 355/347 356/348
f 357/349 358/350 359/351 360/352
f 361/353 362/354 363/355 364/356
f 365/357 366/358 367/359 368/360
f 377/361 378/362 379/363 380/364
f 381/365 382/366 383/367 384/368
f 385/369 386/370 387/371 388/372
f 389/373 390/374 391/375 392/376
f 393/377 394/378 395/379 396/380
f 397/381 398/382 399/383 400/384
f 401/385 402/386 403/387 404/388
f 405/389 406/390 407/391 408/392
f 409/393 410/394 411/395 412/396
f 413/397 414/398 415/399 416/400
f 417/401 418/402 419/403 420/404
f 421/405 422/406 423/407 424/408
f 425/409 426/410 427/411 428/412
f 429/413 430/414 431/415 432/416
f 433/417 434/418 435/419 436/420
f 437/421 438/422 439/423 440/424
f 441/425 442/426 443/427 444/428
f 445/429 446/430 447/431 448/432
f 449/433 450/434 451/435 452/436
f 453/437 454/438 455/439 456/440
f 457/441 458/442 459/443 460/444
f 461/445 462/446 463/447 464/448
f 465/449 466/450 467/451 468/452
f 469/453 470/454 471/455 472/456
f 481/457 482/458 483/459 484/460
f 485/461 486/462 487/463 488/464
f 489/465 490/466 491/467 492/468
f 493/469 494/470 495/471 496/472
f 497/473 498/474 499/475 500/476
f 501/477 502/478 503/479 504/480
f 513/481 514/482 515/483 516/484
f 517/485 518/486 519/487 520/488
f 521/489 522/490 523/491 524/492
f 525/493 526/494 527/495 528/496
f 529/497 530/498 531/499 532/500
f 533/501 534/502 535/503 536/504
f 537/505 538/506 539/507 540/508
f 541/509 542/510 543/511 544/512
f 545/513 546/514 547/515 548/516
f 549/517 550/518 551/519 552/520
f 553/521 554/522 555/523 556/524
f 557/525 558/526 559/527 560/528
f 561/529 562/530 563/531 564/532
f 565/533 566/534 567/535 568/536
f 569/537 570/538 571/539 572/540
f 573/541 574/542 575/543 576/544
f 577/545 578/546 579/547 580/548
f 581/549 582/550 583/551 584/552
f 585/553 586/554 587/555 588/556
f 589/557 590/558 591/559 592/560
f 593/561 594/562 595/563 596/564
f 597/565 598/566 599/567 600/568
f 601/569 602/570 603/571 604/572
f 605/573 606/574 607/575 608/576
f 609/577 610/578 611/579 612/580
f 613/581 614/582 615/583 616/584
f 617/585 618/586 619/587 620/588
f 621/589 622/590 623/591 624/592
f 625/593 626/594 627/595 628/596
f 629/597 630/598 631/599 632/600
f 633/601 634/602 635/603 636/604
f 637/605 638/606 639/607 640/608
f 641/609 642/610 643/611 644/612
f 645/613 646/614 647/615 648/616
f 649/617 650/618 651/619 652/620
f 653/621 654/622 655/623 656/624
f 657/625 658/626 659/627 660/628
f 661/629 662/630 663/631 664/632
f 665/633 666/634 667/635 668/636
f 669/637 670/638 671/639 672/640
f 673/641 674/642 675/643 676/644
f 677/645 678/646 679/647 680/648
f 681/649 682/650 683/651 684/652
f 685/653 686/654 687/655 688/656
f 689/657 690/658 691/659 692/660
f 693/661 694/662 695/663 696/664
f 697/665 698/666 699/667 700/668
f 701/669 702/670 703/671 704/672
