# RoastEngine Backrooms level
mtllib backrooms.mtl
v 1162.4500 0.0000 -50.5500
v 1162.4500 0.0000 -46.9500
v 1166.0500 0.0000 -46.9500
v 1166.0500 0.0000 -50.5500
v 1162.4500 3.1000 -50.5500
v 1166.0500 3.1000 -50.5500
v 1166.0500 3.1000 -46.9500
v 1162.4500 3.1000 -46.9500
v 1162.4500 0.0000 -50.5500
v 1166.0500 0.0000 -50.5500
v 1166.0500 3.1000 -50.5500
v 1162.4500 3.1000 -50.5500
v 1166.0500 0.0000 -46.9500
v 1162.4500 0.0000 -46.9500
v 1162.4500 3.1000 -46.9500
v 1166.0500 3.1000 -46.9500
v 1166.0500 0.0000 -50.5500
v 1166.0500 0.0000 -46.9500
v 1166.0500 3.1000 -46.9500
v 1166.0500 3.1000 -50.5500
v 1162.4500 0.0000 -46.9500
v 1162.4500 0.0000 -50.5500
v 1162.4500 3.1000 -50.5500
v 1162.4500 3.1000 -46.9500
v 1175.4500 0.0000 -50.5500
v 1179.0500 0.0000 -50.5500
v 1179.0500 0.0000 -46.9500
v 1175.4500 0.0000 -46.9500
v 1175.4500 1.6000 -50.5500
v 1179.0500 1.6000 -50.5500
v 1179.0500 1.6000 -46.9500
v 1175.4500 1.6000 -46.9500
v 1149.4500 0.0000 -44.0500
v 1153.0500 0.0000 -44.0500
v 1153.0500 0.0000 -40.4500
v 1149.4500 0.0000 -40.4500
v 1149.4500 1.6000 -44.0500
v 1153.0500 1.6000 -44.0500
v 1153.0500 1.6000 -40.4500
v 1149.4500 1.6000 -40.4500
v 1152.7000 0.0000 -44.0500
v 1156.3000 0.0000 -44.0500
v 1156.3000 0.0000 -40.4500
v 1152.7000 0.0000 -40.4500
v 1152.7000 1.6000 -44.0500
v 1156.3000 1.6000 -44.0500
v 1156.3000 1.6000 -40.4500
v 1152.7000 1.6000 -40.4500
v 1155.9500 0.0000 -44.0500
v 1159.5500 0.0000 -44.0500
v 1159.5500 0.0000 -40.4500
v 1155.9500 0.0000 -40.4500
v 1155.9500 1.6000 -44.0500
v 1159.5500 1.6000 -44.0500
v 1159.5500 1.6000 -40.4500
v 1155.9500 1.6000 -40.4500
v 1168.9500 0.0000 -44.0500
v 1172.5500 0.0000 -44.0500
v 1172.5500 0.0000 -40.4500
v 1168.9500 0.0000 -40.4500
v 1168.9500 1.6000 -44.0500
v 1172.5500 1.6000 -44.0500
v 1172.5500 1.6000 -40.4500
v 1168.9500 1.6000 -40.4500
v 1172.2000 0.0000 -44.0500
v 1172.2000 0.0000 -40.4500
v 1175.8000 0.0000 -40.4500
v 1175.8000 0.0000 -44.0500
v 1172.2000 3.1000 -44.0500
v 1175.8000 3.1000 -44.0500
v 1175.8000 3.1000 -40.4500
v 1172.2000 3.1000 -40.4500
v 1172.2000 0.0000 -44.0500
v 1175.8000 0.0000 -44.0500
v 1175.8000 3.1000 -44.0500
v 1172.2000 3.1000 -44.0500
v 1175.8000 0.0000 -40.4500
v 1172.2000 0.0000 -40.4500
v 1172.2000 3.1000 -40.4500
v 1175.8000 3.1000 -40.4500
v 1175.8000 0.0000 -44.0500
v 1175.8000 0.0000 -40.4500
v 1175.8000 3.1000 -40.4500
v 1175.8000 3.1000 -44.0500
v 1172.2000 0.0000 -40.4500
v 1172.2000 0.0000 -44.0500
v 1172.2000 3.1000 -44.0500
v 1172.2000 3.1000 -40.4500
v 1175.4500 0.0000 -44.0500
v 1179.0500 0.0000 -44.0500
v 1179.0500 0.0000 -40.4500
v 1175.4500 0.0000 -40.4500
v 1175.4500 1.6000 -44.0500
v 1179.0500 1.6000 -44.0500
v 1179.0500 1.6000 -40.4500
v 1175.4500 1.6000 -40.4500
v 1162.4500 0.0000 -37.5500
v 1166.0500 0.0000 -37.5500
v 1166.0500 0.0000 -33.9500
v 1162.4500 0.0000 -33.9500
v 1162.4500 1.6000 -37.5500
v 1166.0500 1.6000 -37.5500
v 1166.0500 1.6000 -33.9500
v 1162.4500 1.6000 -33.9500
v 1175.4500 0.0000 -37.5500
v 1179.0500 0.0000 -37.5500
v 1179.0500 0.0000 -33.9500
v 1175.4500 0.0000 -33.9500
v 1175.4500 1.6000 -37.5500
v 1179.0500 1.6000 -37.5500
v 1179.0500 1.6000 -33.9500
v 1175.4500 1.6000 -33.9500
v 1175.4500 0.0000 -34.3000
v 1175.4500 0.0000 -30.7000
v 1179.0500 0.0000 -30.7000
v 1179.0500 0.0000 -34.3000
v 1175.4500 3.1000 -34.3000
v 1179.0500 3.1000 -34.3000
v 1179.0500 3.1000 -30.7000
v 1175.4500 3.1000 -30.7000
v 1175.4500 0.0000 -34.3000
v 1179.0500 0.0000 -34.3000
v 1179.0500 3.1000 -34.3000
v 1175.4500 3.1000 -34.3000
v 1179.0500 0.0000 -30.7000
v 1175.4500 0.0000 -30.7000
v 1175.4500 3.1000 -30.7000
v 1179.0500 3.1000 -30.7000
v 1179.0500 0.0000 -34.3000
v 1179.0500 0.0000 -30.7000
v 1179.0500 3.1000 -30.7000
v 1179.0500 3.1000 -34.3000
v 1175.4500 0.0000 -30.7000
v 1175.4500 0.0000 -34.3000
v 1175.4500 3.1000 -34.3000
v 1175.4500 3.1000 -30.7000
v 1168.9500 0.0000 -31.0500
v 1172.5500 0.0000 -31.0500
v 1172.5500 0.0000 -27.4500
v 1168.9500 0.0000 -27.4500
v 1168.9500 1.6000 -31.0500
v 1172.5500 1.6000 -31.0500
v 1172.5500 1.6000 -27.4500
v 1168.9500 1.6000 -27.4500
v 1175.4500 0.0000 -31.0500
v 1175.4500 0.0000 -27.4500
v 1179.0500 0.0000 -27.4500
v 1179.0500 0.0000 -31.0500
v 1175.4500 3.1000 -31.0500
v 1179.0500 3.1000 -31.0500
v 1179.0500 3.1000 -27.4500
v 1175.4500 3.1000 -27.4500
v 1175.4500 0.0000 -31.0500
v 1179.0500 0.0000 -31.0500
v 1179.0500 3.1000 -31.0500
v 1175.4500 3.1000 -31.0500
v 1179.0500 0.0000 -27.4500
v 1175.4500 0.0000 -27.4500
v 1175.4500 3.1000 -27.4500
v 1179.0500 3.1000 -27.4500
v 1179.0500 0.0000 -31.0500
v 1179.0500 0.0000 -27.4500
v 1179.0500 3.1000 -27.4500
v 1179.0500 3.1000 -31.0500
v 1175.4500 0.0000 -27.4500
v 1175.4500 0.0000 -31.0500
v 1175.4500 3.1000 -31.0500
v 1175.4500 3.1000 -27.4500
v 1168.9500 0.0000 -24.5500
v 1168.9500 0.0000 -20.9500
v 1172.5500 0.0000 -20.9500
v 1172.5500 0.0000 -24.5500
v 1168.9500 3.1000 -24.5500
v 1172.5500 3.1000 -24.5500
v 1172.5500 3.1000 -20.9500
v 1168.9500 3.1000 -20.9500
v 1168.9500 0.0000 -24.5500
v 1172.5500 0.0000 -24.5500
v 1172.5500 3.1000 -24.5500
v 1168.9500 3.1000 -24.5500
v 1172.5500 0.0000 -20.9500
v 1168.9500 0.0000 -20.9500
v 1168.9500 3.1000 -20.9500
v 1172.5500 3.1000 -20.9500
v 1172.5500 0.0000 -24.5500
v 1172.5500 0.0000 -20.9500
v 1172.5500 3.1000 -20.9500
v 1172.5500 3.1000 -24.5500
v 1168.9500 0.0000 -20.9500
v 1168.9500 0.0000 -24.5500
v 1168.9500 3.1000 -24.5500
v 1168.9500 3.1000 -20.9500
v 1172.2000 0.0000 -24.5500
v 1175.8000 0.0000 -24.5500
v 1175.8000 0.0000 -20.9500
v 1172.2000 0.0000 -20.9500
v 1172.2000 1.6000 -24.5500
v 1175.8000 1.6000 -24.5500
v 1175.8000 1.6000 -20.9500
v 1172.2000 1.6000 -20.9500
v 1175.4500 0.0000 -24.5500
v 1179.0500 0.0000 -24.5500
v 1179.0500 0.0000 -20.9500
v 1175.4500 0.0000 -20.9500
v 1175.4500 1.6000 -24.5500
v 1179.0500 1.6000 -24.5500
v 1179.0500 1.6000 -20.9500
v 1175.4500 1.6000 -20.9500
v 1153.7000 2.9300 -52.1750
v 1155.3000 2.9300 -52.1750
v 1155.3000 2.9300 -51.8250
v 1153.7000 2.9300 -51.8250
v 1153.7000 3.0300 -52.1750
v 1155.3000 3.0300 -52.1750
v 1155.3000 3.0300 -51.8250
v 1153.7000 3.0300 -51.8250
v 1153.5500 3.0100 -52.3000
v 1153.5500 3.0100 -51.7000
v 1155.4500 3.0100 -51.7000
v 1155.4500 3.0100 -52.3000
v 1153.5500 3.0900 -52.3000
v 1155.4500 3.0900 -52.3000
v 1155.4500 3.0900 -51.7000
v 1153.5500 3.0900 -51.7000
v 1153.5500 3.0100 -52.3000
v 1155.4500 3.0100 -52.3000
v 1155.4500 3.0900 -52.3000
v 1153.5500 3.0900 -52.3000
v 1155.4500 3.0100 -51.7000
v 1153.5500 3.0100 -51.7000
v 1153.5500 3.0900 -51.7000
v 1155.4500 3.0900 -51.7000
v 1155.4500 3.0100 -52.3000
v 1155.4500 3.0100 -51.7000
v 1155.4500 3.0900 -51.7000
v 1155.4500 3.0900 -52.3000
v 1153.5500 3.0100 -51.7000
v 1153.5500 3.0100 -52.3000
v 1153.5500 3.0900 -52.3000
v 1153.5500 3.0900 -51.7000
v 1160.2000 2.9300 -52.1750
v 1161.8000 2.9300 -52.1750
v 1161.8000 2.9300 -51.8250
v 1160.2000 2.9300 -51.8250
v 1160.2000 3.0300 -52.1750
v 1161.8000 3.0300 -52.1750
v 1161.8000 3.0300 -51.8250
v 1160.2000 3.0300 -51.8250
v 1160.0500 3.0100 -52.3000
v 1160.0500 3.0100 -51.7000
v 1161.9500 3.0100 -51.7000
v 1161.9500 3.0100 -52.3000
v 1160.0500 3.0900 -52.3000
v 1161.9500 3.0900 -52.3000
v 1161.9500 3.0900 -51.7000
v 1160.0500 3.0900 -51.7000
v 1160.0500 3.0100 -52.3000
v 1161.9500 3.0100 -52.3000
v 1161.9500 3.0900 -52.3000
v 1160.0500 3.0900 -52.3000
v 1161.9500 3.0100 -51.7000
v 1160.0500 3.0100 -51.7000
v 1160.0500 3.0900 -51.7000
v 1161.9500 3.0900 -51.7000
v 1161.9500 3.0100 -52.3000
v 1161.9500 3.0100 -51.7000
v 1161.9500 3.0900 -51.7000
v 1161.9500 3.0900 -52.3000
v 1160.0500 3.0100 -51.7000
v 1160.0500 3.0100 -52.3000
v 1160.0500 3.0900 -52.3000
v 1160.0500 3.0900 -51.7000
v 1166.7000 2.9300 -52.1750
v 1168.3000 2.9300 -52.1750
v 1168.3000 2.9300 -51.8250
v 1166.7000 2.9300 -51.8250
v 1166.7000 3.0300 -52.1750
v 1168.3000 3.0300 -52.1750
v 1168.3000 3.0300 -51.8250
v 1166.7000 3.0300 -51.8250
v 1166.5500 3.0100 -52.3000
v 1166.5500 3.0100 -51.7000
v 1168.4500 3.0100 -51.7000
v 1168.4500 3.0100 -52.3000
v 1166.5500 3.0900 -52.3000
v 1168.4500 3.0900 -52.3000
v 1168.4500 3.0900 -51.7000
v 1166.5500 3.0900 -51.7000
v 1166.5500 3.0100 -52.3000
v 1168.4500 3.0100 -52.3000
v 1168.4500 3.0900 -52.3000
v 1166.5500 3.0900 -52.3000
v 1168.4500 3.0100 -51.7000
v 1166.5500 3.0100 -51.7000
v 1166.5500 3.0900 -51.7000
v 1168.4500 3.0900 -51.7000
v 1168.4500 3.0100 -52.3000
v 1168.4500 3.0100 -51.7000
v 1168.4500 3.0900 -51.7000
v 1168.4500 3.0900 -52.3000
v 1166.5500 3.0100 -51.7000
v 1166.5500 3.0100 -52.3000
v 1166.5500 3.0900 -52.3000
v 1166.5500 3.0900 -51.7000
v 1147.2000 2.9300 -45.6750
v 1148.8000 2.9300 -45.6750
v 1148.8000 2.9300 -45.3250
v 1147.2000 2.9300 -45.3250
v 1147.2000 3.0300 -45.6750
v 1148.8000 3.0300 -45.6750
v 1148.8000 3.0300 -45.3250
v 1147.2000 3.0300 -45.3250
v 1147.0500 3.0100 -45.8000
v 1147.0500 3.0100 -45.2000
v 1148.9500 3.0100 -45.2000
v 1148.9500 3.0100 -45.8000
v 1147.0500 3.0900 -45.8000
v 1148.9500 3.0900 -45.8000
v 1148.9500 3.0900 -45.2000
v 1147.0500 3.0900 -45.2000
v 1147.0500 3.0100 -45.8000
v 1148.9500 3.0100 -45.8000
v 1148.9500 3.0900 -45.8000
v 1147.0500 3.0900 -45.8000
v 1148.9500 3.0100 -45.2000
v 1147.0500 3.0100 -45.2000
v 1147.0500 3.0900 -45.2000
v 1148.9500 3.0900 -45.2000
v 1148.9500 3.0100 -45.8000
v 1148.9500 3.0100 -45.2000
v 1148.9500 3.0900 -45.2000
v 1148.9500 3.0900 -45.8000
v 1147.0500 3.0100 -45.2000
v 1147.0500 3.0100 -45.8000
v 1147.0500 3.0900 -45.8000
v 1147.0500 3.0900 -45.2000
v 1153.7000 2.9300 -45.6750
v 1155.3000 2.9300 -45.6750
v 1155.3000 2.9300 -45.3250
v 1153.7000 2.9300 -45.3250
v 1153.7000 3.0300 -45.6750
v 1155.3000 3.0300 -45.6750
v 1155.3000 3.0300 -45.3250
v 1153.7000 3.0300 -45.3250
v 1153.5500 3.0100 -45.8000
v 1153.5500 3.0100 -45.2000
v 1155.4500 3.0100 -45.2000
v 1155.4500 3.0100 -45.8000
v 1153.5500 3.0900 -45.8000
v 1155.4500 3.0900 -45.8000
v 1155.4500 3.0900 -45.2000
v 1153.5500 3.0900 -45.2000
v 1153.5500 3.0100 -45.8000
v 1155.4500 3.0100 -45.8000
v 1155.4500 3.0900 -45.8000
v 1153.5500 3.0900 -45.8000
v 1155.4500 3.0100 -45.2000
v 1153.5500 3.0100 -45.2000
v 1153.5500 3.0900 -45.2000
v 1155.4500 3.0900 -45.2000
v 1155.4500 3.0100 -45.8000
v 1155.4500 3.0100 -45.2000
v 1155.4500 3.0900 -45.2000
v 1155.4500 3.0900 -45.8000
v 1153.5500 3.0100 -45.2000
v 1153.5500 3.0100 -45.8000
v 1153.5500 3.0900 -45.8000
v 1153.5500 3.0900 -45.2000
v 1160.2000 2.9300 -45.6750
v 1161.8000 2.9300 -45.6750
v 1161.8000 2.9300 -45.3250
v 1160.2000 2.9300 -45.3250
v 1160.2000 3.0300 -45.6750
v 1161.8000 3.0300 -45.6750
v 1161.8000 3.0300 -45.3250
v 1160.2000 3.0300 -45.3250
v 1160.0500 3.0100 -45.8000
v 1160.0500 3.0100 -45.2000
v 1161.9500 3.0100 -45.2000
v 1161.9500 3.0100 -45.8000
v 1160.0500 3.0900 -45.8000
v 1161.9500 3.0900 -45.8000
v 1161.9500 3.0900 -45.2000
v 1160.0500 3.0900 -45.2000
v 1160.0500 3.0100 -45.8000
v 1161.9500 3.0100 -45.8000
v 1161.9500 3.0900 -45.8000
v 1160.0500 3.0900 -45.8000
v 1161.9500 3.0100 -45.2000
v 1160.0500 3.0100 -45.2000
v 1160.0500 3.0900 -45.2000
v 1161.9500 3.0900 -45.2000
v 1161.9500 3.0100 -45.8000
v 1161.9500 3.0100 -45.2000
v 1161.9500 3.0900 -45.2000
v 1161.9500 3.0900 -45.8000
v 1160.0500 3.0100 -45.2000
v 1160.0500 3.0100 -45.8000
v 1160.0500 3.0900 -45.8000
v 1160.0500 3.0900 -45.2000
v 1173.2000 2.9300 -45.6750
v 1174.8000 2.9300 -45.6750
v 1174.8000 2.9300 -45.3250
v 1173.2000 2.9300 -45.3250
v 1173.2000 3.0300 -45.6750
v 1174.8000 3.0300 -45.6750
v 1174.8000 3.0300 -45.3250
v 1173.2000 3.0300 -45.3250
v 1173.0500 3.0100 -45.8000
v 1173.0500 3.0100 -45.2000
v 1174.9500 3.0100 -45.2000
v 1174.9500 3.0100 -45.8000
v 1173.0500 3.0900 -45.8000
v 1174.9500 3.0900 -45.8000
v 1174.9500 3.0900 -45.2000
v 1173.0500 3.0900 -45.2000
v 1173.0500 3.0100 -45.8000
v 1174.9500 3.0100 -45.8000
v 1174.9500 3.0900 -45.8000
v 1173.0500 3.0900 -45.8000
v 1174.9500 3.0100 -45.2000
v 1173.0500 3.0100 -45.2000
v 1173.0500 3.0900 -45.2000
v 1174.9500 3.0900 -45.2000
v 1174.9500 3.0100 -45.8000
v 1174.9500 3.0100 -45.2000
v 1174.9500 3.0900 -45.2000
v 1174.9500 3.0900 -45.8000
v 1173.0500 3.0100 -45.2000
v 1173.0500 3.0100 -45.8000
v 1173.0500 3.0900 -45.8000
v 1173.0500 3.0900 -45.2000
v 1179.7000 2.9300 -45.6750
v 1181.3000 2.9300 -45.6750
v 1181.3000 2.9300 -45.3250
v 1179.7000 2.9300 -45.3250
v 1179.7000 3.0300 -45.6750
v 1181.3000 3.0300 -45.6750
v 1181.3000 3.0300 -45.3250
v 1179.7000 3.0300 -45.3250
v 1179.5500 3.0100 -45.8000
v 1179.5500 3.0100 -45.2000
v 1181.4500 3.0100 -45.2000
v 1181.4500 3.0100 -45.8000
v 1179.5500 3.0900 -45.8000
v 1181.4500 3.0900 -45.8000
v 1181.4500 3.0900 -45.2000
v 1179.5500 3.0900 -45.2000
v 1179.5500 3.0100 -45.8000
v 1181.4500 3.0100 -45.8000
v 1181.4500 3.0900 -45.8000
v 1179.5500 3.0900 -45.8000
v 1181.4500 3.0100 -45.2000
v 1179.5500 3.0100 -45.2000
v 1179.5500 3.0900 -45.2000
v 1181.4500 3.0900 -45.2000
v 1181.4500 3.0100 -45.8000
v 1181.4500 3.0100 -45.2000
v 1181.4500 3.0900 -45.2000
v 1181.4500 3.0900 -45.8000
v 1179.5500 3.0100 -45.2000
v 1179.5500 3.0100 -45.8000
v 1179.5500 3.0900 -45.8000
v 1179.5500 3.0900 -45.2000
v 1147.2000 2.9300 -39.1750
v 1148.8000 2.9300 -39.1750
v 1148.8000 2.9300 -38.8250
v 1147.2000 2.9300 -38.8250
v 1147.2000 3.0300 -39.1750
v 1148.8000 3.0300 -39.1750
v 1148.8000 3.0300 -38.8250
v 1147.2000 3.0300 -38.8250
v 1147.0500 3.0100 -39.3000
v 1147.0500 3.0100 -38.7000
v 1148.9500 3.0100 -38.7000
v 1148.9500 3.0100 -39.3000
v 1147.0500 3.0900 -39.3000
v 1148.9500 3.0900 -39.3000
v 1148.9500 3.0900 -38.7000
v 1147.0500 3.0900 -38.7000
v 1147.0500 3.0100 -39.3000
v 1148.9500 3.0100 -39.3000
v 1148.9500 3.0900 -39.3000
v 1147.0500 3.0900 -39.3000
v 1148.9500 3.0100 -38.7000
v 1147.0500 3.0100 -38.7000
v 1147.0500 3.0900 -38.7000
v 1148.9500 3.0900 -38.7000
v 1148.9500 3.0100 -39.3000
v 1148.9500 3.0100 -38.7000
v 1148.9500 3.0900 -38.7000
v 1148.9500 3.0900 -39.3000
v 1147.0500 3.0100 -38.7000
v 1147.0500 3.0100 -39.3000
v 1147.0500 3.0900 -39.3000
v 1147.0500 3.0900 -38.7000
v 1179.7000 2.9300 -39.1750
v 1181.3000 2.9300 -39.1750
v 1181.3000 2.9300 -38.8250
v 1179.7000 2.9300 -38.8250
v 1179.7000 3.0300 -39.1750
v 1181.3000 3.0300 -39.1750
v 1181.3000 3.0300 -38.8250
v 1179.7000 3.0300 -38.8250
v 1179.5500 3.0100 -39.3000
v 1179.5500 3.0100 -38.7000
v 1181.4500 3.0100 -38.7000
v 1181.4500 3.0100 -39.3000
v 1179.5500 3.0900 -39.3000
v 1181.4500 3.0900 -39.3000
v 1181.4500 3.0900 -38.7000
v 1179.5500 3.0900 -38.7000
v 1179.5500 3.0100 -39.3000
v 1181.4500 3.0100 -39.3000
v 1181.4500 3.0900 -39.3000
v 1179.5500 3.0900 -39.3000
v 1181.4500 3.0100 -38.7000
v 1179.5500 3.0100 -38.7000
v 1179.5500 3.0900 -38.7000
v 1181.4500 3.0900 -38.7000
v 1181.4500 3.0100 -39.3000
v 1181.4500 3.0100 -38.7000
v 1181.4500 3.0900 -38.7000
v 1181.4500 3.0900 -39.3000
v 1179.5500 3.0100 -38.7000
v 1179.5500 3.0100 -39.3000
v 1179.5500 3.0900 -39.3000
v 1179.5500 3.0900 -38.7000
v 1147.2000 2.9300 -32.6750
v 1148.8000 2.9300 -32.6750
v 1148.8000 2.9300 -32.3250
v 1147.2000 2.9300 -32.3250
v 1147.2000 3.0300 -32.6750
v 1148.8000 3.0300 -32.6750
v 1148.8000 3.0300 -32.3250
v 1147.2000 3.0300 -32.3250
v 1147.0500 3.0100 -32.8000
v 1147.0500 3.0100 -32.2000
v 1148.9500 3.0100 -32.2000
v 1148.9500 3.0100 -32.8000
v 1147.0500 3.0900 -32.8000
v 1148.9500 3.0900 -32.8000
v 1148.9500 3.0900 -32.2000
v 1147.0500 3.0900 -32.2000
v 1147.0500 3.0100 -32.8000
v 1148.9500 3.0100 -32.8000
v 1148.9500 3.0900 -32.8000
v 1147.0500 3.0900 -32.8000
v 1148.9500 3.0100 -32.2000
v 1147.0500 3.0100 -32.2000
v 1147.0500 3.0900 -32.2000
v 1148.9500 3.0900 -32.2000
v 1148.9500 3.0100 -32.8000
v 1148.9500 3.0100 -32.2000
v 1148.9500 3.0900 -32.2000
v 1148.9500 3.0900 -32.8000
v 1147.0500 3.0100 -32.2000
v 1147.0500 3.0100 -32.8000
v 1147.0500 3.0900 -32.8000
v 1147.0500 3.0900 -32.2000
v 1153.7000 2.9300 -32.6750
v 1155.3000 2.9300 -32.6750
v 1155.3000 2.9300 -32.3250
v 1153.7000 2.9300 -32.3250
v 1153.7000 3.0300 -32.6750
v 1155.3000 3.0300 -32.6750
v 1155.3000 3.0300 -32.3250
v 1153.7000 3.0300 -32.3250
v 1153.5500 3.0100 -32.8000
v 1153.5500 3.0100 -32.2000
v 1155.4500 3.0100 -32.2000
v 1155.4500 3.0100 -32.8000
v 1153.5500 3.0900 -32.8000
v 1155.4500 3.0900 -32.8000
v 1155.4500 3.0900 -32.2000
v 1153.5500 3.0900 -32.2000
v 1153.5500 3.0100 -32.8000
v 1155.4500 3.0100 -32.8000
v 1155.4500 3.0900 -32.8000
v 1153.5500 3.0900 -32.8000
v 1155.4500 3.0100 -32.2000
v 1153.5500 3.0100 -32.2000
v 1153.5500 3.0900 -32.2000
v 1155.4500 3.0900 -32.2000
v 1155.4500 3.0100 -32.8000
v 1155.4500 3.0100 -32.2000
v 1155.4500 3.0900 -32.2000
v 1155.4500 3.0900 -32.8000
v 1153.5500 3.0100 -32.2000
v 1153.5500 3.0100 -32.8000
v 1153.5500 3.0900 -32.8000
v 1153.5500 3.0900 -32.2000
v 1160.2000 2.9300 -32.6750
v 1161.8000 2.9300 -32.6750
v 1161.8000 2.9300 -32.3250
v 1160.2000 2.9300 -32.3250
v 1160.2000 3.0300 -32.6750
v 1161.8000 3.0300 -32.6750
v 1161.8000 3.0300 -32.3250
v 1160.2000 3.0300 -32.3250
v 1160.0500 3.0100 -32.8000
v 1160.0500 3.0100 -32.2000
v 1161.9500 3.0100 -32.2000
v 1161.9500 3.0100 -32.8000
v 1160.0500 3.0900 -32.8000
v 1161.9500 3.0900 -32.8000
v 1161.9500 3.0900 -32.2000
v 1160.0500 3.0900 -32.2000
v 1160.0500 3.0100 -32.8000
v 1161.9500 3.0100 -32.8000
v 1161.9500 3.0900 -32.8000
v 1160.0500 3.0900 -32.8000
v 1161.9500 3.0100 -32.2000
v 1160.0500 3.0100 -32.2000
v 1160.0500 3.0900 -32.2000
v 1161.9500 3.0900 -32.2000
v 1161.9500 3.0100 -32.8000
v 1161.9500 3.0100 -32.2000
v 1161.9500 3.0900 -32.2000
v 1161.9500 3.0900 -32.8000
v 1160.0500 3.0100 -32.2000
v 1160.0500 3.0100 -32.8000
v 1160.0500 3.0900 -32.8000
v 1160.0500 3.0900 -32.2000
v 1179.7000 2.9300 -32.6750
v 1181.3000 2.9300 -32.6750
v 1181.3000 2.9300 -32.3250
v 1179.7000 2.9300 -32.3250
v 1179.7000 3.0300 -32.6750
v 1181.3000 3.0300 -32.6750
v 1181.3000 3.0300 -32.3250
v 1179.7000 3.0300 -32.3250
v 1179.5500 3.0100 -32.8000
v 1179.5500 3.0100 -32.2000
v 1181.4500 3.0100 -32.2000
v 1181.4500 3.0100 -32.8000
v 1179.5500 3.0900 -32.8000
v 1181.4500 3.0900 -32.8000
v 1181.4500 3.0900 -32.2000
v 1179.5500 3.0900 -32.2000
v 1179.5500 3.0100 -32.8000
v 1181.4500 3.0100 -32.8000
v 1181.4500 3.0900 -32.8000
v 1179.5500 3.0900 -32.8000
v 1181.4500 3.0100 -32.2000
v 1179.5500 3.0100 -32.2000
v 1179.5500 3.0900 -32.2000
v 1181.4500 3.0900 -32.2000
v 1181.4500 3.0100 -32.8000
v 1181.4500 3.0100 -32.2000
v 1181.4500 3.0900 -32.2000
v 1181.4500 3.0900 -32.8000
v 1179.5500 3.0100 -32.2000
v 1179.5500 3.0100 -32.8000
v 1179.5500 3.0900 -32.8000
v 1179.5500 3.0900 -32.2000
v 1153.7000 2.9300 -26.1750
v 1155.3000 2.9300 -26.1750
v 1155.3000 2.9300 -25.8250
v 1153.7000 2.9300 -25.8250
v 1153.7000 3.0300 -26.1750
v 1155.3000 3.0300 -26.1750
v 1155.3000 3.0300 -25.8250
v 1153.7000 3.0300 -25.8250
v 1153.5500 3.0100 -26.3000
v 1153.5500 3.0100 -25.7000
v 1155.4500 3.0100 -25.7000
v 1155.4500 3.0100 -26.3000
v 1153.5500 3.0900 -26.3000
v 1155.4500 3.0900 -26.3000
v 1155.4500 3.0900 -25.7000
v 1153.5500 3.0900 -25.7000
v 1153.5500 3.0100 -26.3000
v 1155.4500 3.0100 -26.3000
v 1155.4500 3.0900 -26.3000
v 1153.5500 3.0900 -26.3000
v 1155.4500 3.0100 -25.7000
v 1153.5500 3.0100 -25.7000
v 1153.5500 3.0900 -25.7000
v 1155.4500 3.0900 -25.7000
v 1155.4500 3.0100 -26.3000
v 1155.4500 3.0100 -25.7000
v 1155.4500 3.0900 -25.7000
v 1155.4500 3.0900 -26.3000
v 1153.5500 3.0100 -25.7000
v 1153.5500 3.0100 -26.3000
v 1153.5500 3.0900 -26.3000
v 1153.5500 3.0900 -25.7000
v 1147.2000 2.9300 -19.6750
v 1148.8000 2.9300 -19.6750
v 1148.8000 2.9300 -19.3250
v 1147.2000 2.9300 -19.3250
v 1147.2000 3.0300 -19.6750
v 1148.8000 3.0300 -19.6750
v 1148.8000 3.0300 -19.3250
v 1147.2000 3.0300 -19.3250
v 1147.0500 3.0100 -19.8000
v 1147.0500 3.0100 -19.2000
v 1148.9500 3.0100 -19.2000
v 1148.9500 3.0100 -19.8000
v 1147.0500 3.0900 -19.8000
v 1148.9500 3.0900 -19.8000
v 1148.9500 3.0900 -19.2000
v 1147.0500 3.0900 -19.2000
v 1147.0500 3.0100 -19.8000
v 1148.9500 3.0100 -19.8000
v 1148.9500 3.0900 -19.8000
v 1147.0500 3.0900 -19.8000
v 1148.9500 3.0100 -19.2000
v 1147.0500 3.0100 -19.2000
v 1147.0500 3.0900 -19.2000
v 1148.9500 3.0900 -19.2000
v 1148.9500 3.0100 -19.8000
v 1148.9500 3.0100 -19.2000
v 1148.9500 3.0900 -19.2000
v 1148.9500 3.0900 -19.8000
v 1147.0500 3.0100 -19.2000
v 1147.0500 3.0100 -19.8000
v 1147.0500 3.0900 -19.8000
v 1147.0500 3.0900 -19.2000
v 1153.7000 2.9300 -19.6750
v 1155.3000 2.9300 -19.6750
v 1155.3000 2.9300 -19.3250
v 1153.7000 2.9300 -19.3250
v 1153.7000 3.0300 -19.6750
v 1155.3000 3.0300 -19.6750
v 1155.3000 3.0300 -19.3250
v 1153.7000 3.0300 -19.3250
v 1153.5500 3.0100 -19.8000
v 1153.5500 3.0100 -19.2000
v 1155.4500 3.0100 -19.2000
v 1155.4500 3.0100 -19.8000
v 1153.5500 3.0900 -19.8000
v 1155.4500 3.0900 -19.8000
v 1155.4500 3.0900 -19.2000
v 1153.5500 3.0900 -19.2000
v 1153.5500 3.0100 -19.8000
v 1155.4500 3.0100 -19.8000
v 1155.4500 3.0900 -19.8000
v 1153.5500 3.0900 -19.8000
v 1155.4500 3.0100 -19.2000
v 1153.5500 3.0100 -19.2000
v 1153.5500 3.0900 -19.2000
v 1155.4500 3.0900 -19.2000
v 1155.4500 3.0100 -19.8000
v 1155.4500 3.0100 -19.2000
v 1155.4500 3.0900 -19.2000
v 1155.4500 3.0900 -19.8000
v 1153.5500 3.0100 -19.2000
v 1153.5500 3.0100 -19.8000
v 1153.5500 3.0900 -19.8000
v 1153.5500 3.0900 -19.2000
v 1160.2000 2.9300 -19.6750
v 1161.8000 2.9300 -19.6750
v 1161.8000 2.9300 -19.3250
v 1160.2000 2.9300 -19.3250
v 1160.2000 3.0300 -19.6750
v 1161.8000 3.0300 -19.6750
v 1161.8000 3.0300 -19.3250
v 1160.2000 3.0300 -19.3250
v 1160.0500 3.0100 -19.8000
v 1160.0500 3.0100 -19.2000
v 1161.9500 3.0100 -19.2000
v 1161.9500 3.0100 -19.8000
v 1160.0500 3.0900 -19.8000
v 1161.9500 3.0900 -19.8000
v 1161.9500 3.0900 -19.2000
v 1160.0500 3.0900 -19.2000
v 1160.0500 3.0100 -19.8000
v 1161.9500 3.0100 -19.8000
v 1161.9500 3.0900 -19.8000
v 1160.0500 3.0900 -19.8000
v 1161.9500 3.0100 -19.2000
v 1160.0500 3.0100 -19.2000
v 1160.0500 3.0900 -19.2000
v 1161.9500 3.0900 -19.2000
v 1161.9500 3.0100 -19.8000
v 1161.9500 3.0100 -19.2000
v 1161.9500 3.0900 -19.2000
v 1161.9500 3.0900 -19.8000
v 1160.0500 3.0100 -19.2000
v 1160.0500 3.0100 -19.8000
v 1160.0500 3.0900 -19.8000
v 1160.0500 3.0900 -19.2000
v 1166.7000 2.9300 -19.6750
v 1168.3000 2.9300 -19.6750
v 1168.3000 2.9300 -19.3250
v 1166.7000 2.9300 -19.3250
v 1166.7000 3.0300 -19.6750
v 1168.3000 3.0300 -19.6750
v 1168.3000 3.0300 -19.3250
v 1166.7000 3.0300 -19.3250
v 1166.5500 3.0100 -19.8000
v 1166.5500 3.0100 -19.2000
v 1168.4500 3.0100 -19.2000
v 1168.4500 3.0100 -19.8000
v 1166.5500 3.0900 -19.8000
v 1168.4500 3.0900 -19.8000
v 1168.4500 3.0900 -19.2000
v 1166.5500 3.0900 -19.2000
v 1166.5500 3.0100 -19.8000
v 1168.4500 3.0100 -19.8000
v 1168.4500 3.0900 -19.8000
v 1166.5500 3.0900 -19.8000
v 1168.4500 3.0100 -19.2000
v 1166.5500 3.0100 -19.2000
v 1166.5500 3.0900 -19.2000
v 1168.4500 3.0900 -19.2000
v 1168.4500 3.0100 -19.8000
v 1168.4500 3.0100 -19.2000
v 1168.4500 3.0900 -19.2000
v 1168.4500 3.0900 -19.8000
v 1166.5500 3.0100 -19.2000
v 1166.5500 3.0100 -19.8000
v 1166.5500 3.0900 -19.8000
v 1166.5500 3.0900 -19.2000
v 1147.2500 0.3300 -45.8750
v 1148.7500 0.3300 -45.8750
v 1148.7500 0.3300 -45.1250
v 1147.2500 0.3300 -45.1250
v 1147.2500 0.3900 -45.8750
v 1148.7500 0.3900 -45.8750
v 1148.7500 0.3900 -45.1250
v 1147.2500 0.3900 -45.1250
v 1147.3100 0.0000 -45.8500
v 1147.3900 0.0000 -45.8500
v 1147.3900 0.0000 -45.1500
v 1147.3100 0.0000 -45.1500
v 1147.3100 0.3600 -45.8500
v 1147.3900 0.3600 -45.8500
v 1147.3900 0.3600 -45.1500
v 1147.3100 0.3600 -45.1500
v 1148.6100 0.0000 -45.8500
v 1148.6900 0.0000 -45.8500
v 1148.6900 0.0000 -45.1500
v 1148.6100 0.0000 -45.1500
v 1148.6100 0.3600 -45.8500
v 1148.6900 0.3600 -45.8500
v 1148.6900 0.3600 -45.1500
v 1148.6100 0.3600 -45.1500
v 1147.7700 0.3900 -45.4600
v 1148.2300 0.3900 -45.4600
v 1148.2300 0.3900 -45.3000
v 1147.7700 0.3900 -45.3000
v 1147.7700 0.7700 -45.4600
v 1148.2300 0.7700 -45.4600
v 1148.2300 0.7700 -45.3000
v 1147.7700 0.7700 -45.3000
v 1166.7500 0.3300 -45.8750
v 1168.2500 0.3300 -45.8750
v 1168.2500 0.3300 -45.1250
v 1166.7500 0.3300 -45.1250
v 1166.7500 0.3900 -45.8750
v 1168.2500 0.3900 -45.8750
v 1168.2500 0.3900 -45.1250
v 1166.7500 0.3900 -45.1250
v 1166.8100 0.0000 -45.8500
v 1166.8900 0.0000 -45.8500
v 1166.8900 0.0000 -45.1500
v 1166.8100 0.0000 -45.1500
v 1166.8100 0.3600 -45.8500
v 1166.8900 0.3600 -45.8500
v 1166.8900 0.3600 -45.1500
v 1166.8100 0.3600 -45.1500
v 1168.1100 0.0000 -45.8500
v 1168.1900 0.0000 -45.8500
v 1168.1900 0.0000 -45.1500
v 1168.1100 0.0000 -45.1500
v 1168.1100 0.3600 -45.8500
v 1168.1900 0.3600 -45.8500
v 1168.1900 0.3600 -45.1500
v 1168.1100 0.3600 -45.1500
v 1167.2700 0.3900 -45.4600
v 1167.7300 0.3900 -45.4600
v 1167.7300 0.3900 -45.3000
v 1167.2700 0.3900 -45.3000
v 1167.2700 0.7700 -45.4600
v 1167.7300 0.7700 -45.4600
v 1167.7300 0.7700 -45.3000
v 1167.2700 0.7700 -45.3000
v 1173.2500 0.3300 -45.8750
v 1174.7500 0.3300 -45.8750
v 1174.7500 0.3300 -45.1250
v 1173.2500 0.3300 -45.1250
v 1173.2500 0.3900 -45.8750
v 1174.7500 0.3900 -45.8750
v 1174.7500 0.3900 -45.1250
v 1173.2500 0.3900 -45.1250
v 1173.3100 0.0000 -45.8500
v 1173.3900 0.0000 -45.8500
v 1173.3900 0.0000 -45.1500
v 1173.3100 0.0000 -45.1500
v 1173.3100 0.3600 -45.8500
v 1173.3900 0.3600 -45.8500
v 1173.3900 0.3600 -45.1500
v 1173.3100 0.3600 -45.1500
v 1174.6100 0.0000 -45.8500
v 1174.6900 0.0000 -45.8500
v 1174.6900 0.0000 -45.1500
v 1174.6100 0.0000 -45.1500
v 1174.6100 0.3600 -45.8500
v 1174.6900 0.3600 -45.8500
v 1174.6900 0.3600 -45.1500
v 1174.6100 0.3600 -45.1500
v 1173.7700 0.3900 -45.4600
v 1174.2300 0.3900 -45.4600
v 1174.2300 0.3900 -45.3000
v 1173.7700 0.3900 -45.3000
v 1173.7700 0.7700 -45.4600
v 1174.2300 0.7700 -45.4600
v 1174.2300 0.7700 -45.3000
v 1173.7700 0.7700 -45.3000
v 1166.7500 0.3300 -39.3750
v 1168.2500 0.3300 -39.3750
v 1168.2500 0.3300 -38.6250
v 1166.7500 0.3300 -38.6250
v 1166.7500 0.3900 -39.3750
v 1168.2500 0.3900 -39.3750
v 1168.2500 0.3900 -38.6250
v 1166.7500 0.3900 -38.6250
v 1166.8100 0.0000 -39.3500
v 1166.8900 0.0000 -39.3500
v 1166.8900 0.0000 -38.6500
v 1166.8100 0.0000 -38.6500
v 1166.8100 0.3600 -39.3500
v 1166.8900 0.3600 -39.3500
v 1166.8900 0.3600 -38.6500
v 1166.8100 0.3600 -38.6500
v 1168.1100 0.0000 -39.3500
v 1168.1900 0.0000 -39.3500
v 1168.1900 0.0000 -38.6500
v 1168.1100 0.0000 -38.6500
v 1168.1100 0.3600 -39.3500
v 1168.1900 0.3600 -39.3500
v 1168.1900 0.3600 -38.6500
v 1168.1100 0.3600 -38.6500
v 1167.2700 0.3900 -38.9600
v 1167.7300 0.3900 -38.9600
v 1167.7300 0.3900 -38.8000
v 1167.2700 0.3900 -38.8000
v 1167.2700 0.7700 -38.9600
v 1167.7300 0.7700 -38.9600
v 1167.7300 0.7700 -38.8000
v 1167.2700 0.7700 -38.8000
v 1173.2500 0.3300 -39.3750
v 1174.7500 0.3300 -39.3750
v 1174.7500 0.3300 -38.6250
v 1173.2500 0.3300 -38.6250
v 1173.2500 0.3900 -39.3750
v 1174.7500 0.3900 -39.3750
v 1174.7500 0.3900 -38.6250
v 1173.2500 0.3900 -38.6250
v 1173.3100 0.0000 -39.3500
v 1173.3900 0.0000 -39.3500
v 1173.3900 0.0000 -38.6500
v 1173.3100 0.0000 -38.6500
v 1173.3100 0.3600 -39.3500
v 1173.3900 0.3600 -39.3500
v 1173.3900 0.3600 -38.6500
v 1173.3100 0.3600 -38.6500
v 1174.6100 0.0000 -39.3500
v 1174.6900 0.0000 -39.3500
v 1174.6900 0.0000 -38.6500
v 1174.6100 0.0000 -38.6500
v 1174.6100 0.3600 -39.3500
v 1174.6900 0.3600 -39.3500
v 1174.6900 0.3600 -38.6500
v 1174.6100 0.3600 -38.6500
v 1173.7700 0.3900 -38.9600
v 1174.2300 0.3900 -38.9600
v 1174.2300 0.3900 -38.8000
v 1173.7700 0.3900 -38.8000
v 1173.7700 0.7700 -38.9600
v 1174.2300 0.7700 -38.9600
v 1174.2300 0.7700 -38.8000
v 1173.7700 0.7700 -38.8000
v 1160.2500 0.3300 -32.8750
v 1161.7500 0.3300 -32.8750
v 1161.7500 0.3300 -32.1250
v 1160.2500 0.3300 -32.1250
v 1160.2500 0.3900 -32.8750
v 1161.7500 0.3900 -32.8750
v 1161.7500 0.3900 -32.1250
v 1160.2500 0.3900 -32.1250
v 1160.3100 0.0000 -32.8500
v 1160.3900 0.0000 -32.8500
v 1160.3900 0.0000 -32.1500
v 1160.3100 0.0000 -32.1500
v 1160.3100 0.3600 -32.8500
v 1160.3900 0.3600 -32.8500
v 1160.3900 0.3600 -32.1500
v 1160.3100 0.3600 -32.1500
v 1161.6100 0.0000 -32.8500
v 1161.6900 0.0000 -32.8500
v 1161.6900 0.0000 -32.1500
v 1161.6100 0.0000 -32.1500
v 1161.6100 0.3600 -32.8500
v 1161.6900 0.3600 -32.8500
v 1161.6900 0.3600 -32.1500
v 1161.6100 0.3600 -32.1500
v 1160.7700 0.3900 -32.4600
v 1161.2300 0.3900 -32.4600
v 1161.2300 0.3900 -32.3000
v 1160.7700 0.3900 -32.3000
v 1160.7700 0.7700 -32.4600
v 1161.2300 0.7700 -32.4600
v 1161.2300 0.7700 -32.3000
v 1160.7700 0.7700 -32.3000
v 1173.2500 0.3300 -32.8750
v 1174.7500 0.3300 -32.8750
v 1174.7500 0.3300 -32.1250
v 1173.2500 0.3300 -32.1250
v 1173.2500 0.3900 -32.8750
v 1174.7500 0.3900 -32.8750
v 1174.7500 0.3900 -32.1250
v 1173.2500 0.3900 -32.1250
v 1173.3100 0.0000 -32.8500
v 1173.3900 0.0000 -32.8500
v 1173.3900 0.0000 -32.1500
v 1173.3100 0.0000 -32.1500
v 1173.3100 0.3600 -32.8500
v 1173.3900 0.3600 -32.8500
v 1173.3900 0.3600 -32.1500
v 1173.3100 0.3600 -32.1500
v 1174.6100 0.0000 -32.8500
v 1174.6900 0.0000 -32.8500
v 1174.6900 0.0000 -32.1500
v 1174.6100 0.0000 -32.1500
v 1174.6100 0.3600 -32.8500
v 1174.6900 0.3600 -32.8500
v 1174.6900 0.3600 -32.1500
v 1174.6100 0.3600 -32.1500
v 1173.7700 0.3900 -32.4600
v 1174.2300 0.3900 -32.4600
v 1174.2300 0.3900 -32.3000
v 1173.7700 0.3900 -32.3000
v 1173.7700 0.7700 -32.4600
v 1174.2300 0.7700 -32.4600
v 1174.2300 0.7700 -32.3000
v 1173.7700 0.7700 -32.3000
v 1179.7500 0.3300 -32.8750
v 1181.2500 0.3300 -32.8750
v 1181.2500 0.3300 -32.1250
v 1179.7500 0.3300 -32.1250
v 1179.7500 0.3900 -32.8750
v 1181.2500 0.3900 -32.8750
v 1181.2500 0.3900 -32.1250
v 1179.7500 0.3900 -32.1250
v 1179.8100 0.0000 -32.8500
v 1179.8900 0.0000 -32.8500
v 1179.8900 0.0000 -32.1500
v 1179.8100 0.0000 -32.1500
v 1179.8100 0.3600 -32.8500
v 1179.8900 0.3600 -32.8500
v 1179.8900 0.3600 -32.1500
v 1179.8100 0.3600 -32.1500
v 1181.1100 0.0000 -32.8500
v 1181.1900 0.0000 -32.8500
v 1181.1900 0.0000 -32.1500
v 1181.1100 0.0000 -32.1500
v 1181.1100 0.3600 -32.8500
v 1181.1900 0.3600 -32.8500
v 1181.1900 0.3600 -32.1500
v 1181.1100 0.3600 -32.1500
v 1180.2700 0.3900 -32.4600
v 1180.7300 0.3900 -32.4600
v 1180.7300 0.3900 -32.3000
v 1180.2700 0.3900 -32.3000
v 1180.2700 0.7700 -32.4600
v 1180.7300 0.7700 -32.4600
v 1180.7300 0.7700 -32.3000
v 1180.2700 0.7700 -32.3000
v 1153.7500 0.3300 -26.3750
v 1155.2500 0.3300 -26.3750
v 1155.2500 0.3300 -25.6250
v 1153.7500 0.3300 -25.6250
v 1153.7500 0.3900 -26.3750
v 1155.2500 0.3900 -26.3750
v 1155.2500 0.3900 -25.6250
v 1153.7500 0.3900 -25.6250
v 1153.8100 0.0000 -26.3500
v 1153.8900 0.0000 -26.3500
v 1153.8900 0.0000 -25.6500
v 1153.8100 0.0000 -25.6500
v 1153.8100 0.3600 -26.3500
v 1153.8900 0.3600 -26.3500
v 1153.8900 0.3600 -25.6500
v 1153.8100 0.3600 -25.6500
v 1155.1100 0.0000 -26.3500
v 1155.1900 0.0000 -26.3500
v 1155.1900 0.0000 -25.6500
v 1155.1100 0.0000 -25.6500
v 1155.1100 0.3600 -26.3500
v 1155.1900 0.3600 -26.3500
v 1155.1900 0.3600 -25.6500
v 1155.1100 0.3600 -25.6500
v 1154.2700 0.3900 -25.9600
v 1154.7300 0.3900 -25.9600
v 1154.7300 0.3900 -25.8000
v 1154.2700 0.3900 -25.8000
v 1154.2700 0.7700 -25.9600
v 1154.7300 0.7700 -25.9600
v 1154.7300 0.7700 -25.8000
v 1154.2700 0.7700 -25.8000
v 1153.7500 0.3300 -19.8750
v 1155.2500 0.3300 -19.8750
v 1155.2500 0.3300 -19.1250
v 1153.7500 0.3300 -19.1250
v 1153.7500 0.3900 -19.8750
v 1155.2500 0.3900 -19.8750
v 1155.2500 0.3900 -19.1250
v 1153.7500 0.3900 -19.1250
v 1153.8100 0.0000 -19.8500
v 1153.8900 0.0000 -19.8500
v 1153.8900 0.0000 -19.1500
v 1153.8100 0.0000 -19.1500
v 1153.8100 0.3600 -19.8500
v 1153.8900 0.3600 -19.8500
v 1153.8900 0.3600 -19.1500
v 1153.8100 0.3600 -19.1500
v 1155.1100 0.0000 -19.8500
v 1155.1900 0.0000 -19.8500
v 1155.1900 0.0000 -19.1500
v 1155.1100 0.0000 -19.1500
v 1155.1100 0.3600 -19.8500
v 1155.1900 0.3600 -19.8500
v 1155.1900 0.3600 -19.1500
v 1155.1100 0.3600 -19.1500
v 1154.2700 0.3900 -19.4600
v 1154.7300 0.3900 -19.4600
v 1154.7300 0.3900 -19.3000
v 1154.2700 0.3900 -19.3000
v 1154.2700 0.7700 -19.4600
v 1154.7300 0.7700 -19.4600
v 1154.7300 0.7700 -19.3000
v 1154.2700 0.7700 -19.3000
v 1166.7500 0.3300 -19.8750
v 1168.2500 0.3300 -19.8750
v 1168.2500 0.3300 -19.1250
v 1166.7500 0.3300 -19.1250
v 1166.7500 0.3900 -19.8750
v 1168.2500 0.3900 -19.8750
v 1168.2500 0.3900 -19.1250
v 1166.7500 0.3900 -19.1250
v 1166.8100 0.0000 -19.8500
v 1166.8900 0.0000 -19.8500
v 1166.8900 0.0000 -19.1500
v 1166.8100 0.0000 -19.1500
v 1166.8100 0.3600 -19.8500
v 1166.8900 0.3600 -19.8500
v 1166.8900 0.3600 -19.1500
v 1166.8100 0.3600 -19.1500
v 1168.1100 0.0000 -19.8500
v 1168.1900 0.0000 -19.8500
v 1168.1900 0.0000 -19.1500
v 1168.1100 0.0000 -19.1500
v 1168.1100 0.3600 -19.8500
v 1168.1900 0.3600 -19.8500
v 1168.1900 0.3600 -19.1500
v 1168.1100 0.3600 -19.1500
v 1167.2700 0.3900 -19.4600
v 1167.7300 0.3900 -19.4600
v 1167.7300 0.3900 -19.3000
v 1167.2700 0.3900 -19.3000
v 1167.2700 0.7700 -19.4600
v 1167.7300 0.7700 -19.4600
v 1167.7300 0.7700 -19.3000
v 1167.2700 0.7700 -19.3000
v 1179.7500 0.3300 -19.8750
v 1181.2500 0.3300 -19.8750
v 1181.2500 0.3300 -19.1250
v 1179.7500 0.3300 -19.1250
v 1179.7500 0.3900 -19.8750
v 1181.2500 0.3900 -19.8750
v 1181.2500 0.3900 -19.1250
v 1179.7500 0.3900 -19.1250
v 1179.8100 0.0000 -19.8500
v 1179.8900 0.0000 -19.8500
v 1179.8900 0.0000 -19.1500
v 1179.8100 0.0000 -19.1500
v 1179.8100 0.3600 -19.8500
v 1179.8900 0.3600 -19.8500
v 1179.8900 0.3600 -19.1500
v 1179.8100 0.3600 -19.1500
v 1181.1100 0.0000 -19.8500
v 1181.1900 0.0000 -19.8500
v 1181.1900 0.0000 -19.1500
v 1181.1100 0.0000 -19.1500
v 1181.1100 0.3600 -19.8500
v 1181.1900 0.3600 -19.8500
v 1181.1900 0.3600 -19.1500
v 1181.1100 0.3600 -19.1500
v 1180.2700 0.3900 -19.4600
v 1180.7300 0.3900 -19.4600
v 1180.7300 0.3900 -19.3000
v 1180.2700 0.3900 -19.3000
v 1180.2700 0.7700 -19.4600
v 1180.7300 0.7700 -19.4600
v 1180.7300 0.7700 -19.3000
v 1180.2700 0.7700 -19.3000
vt 528.3864 -22.9773
vt 528.3864 -21.3409
vt 530.0227 -21.3409
vt 530.0227 -22.9773
vt 528.3864 -22.9773
vt 530.0227 -22.9773
vt 530.0227 -21.3409
vt 528.3864 -21.3409
vt 528.3864 0.0000
vt 530.0227 0.0000
vt 530.0227 1.4091
vt 528.3864 1.4091
vt 530.0227 0.0000
vt 528.3864 0.0000
vt 528.3864 1.4091
vt 530.0227 1.4091
vt -22.9773 0.0000
vt -21.3409 0.0000
vt -21.3409 1.4091
vt -22.9773 1.4091
vt -21.3409 0.0000
vt -22.9773 0.0000
vt -22.9773 1.4091
vt -21.3409 1.4091
vt 532.8182 -20.0227
vt 532.8182 -18.3864
vt 534.4545 -18.3864
vt 534.4545 -20.0227
vt 532.8182 -20.0227
vt 534.4545 -20.0227
vt 534.4545 -18.3864
vt 532.8182 -18.3864
vt 532.8182 0.0000
vt 534.4545 0.0000
vt 534.4545 1.4091
vt 532.8182 1.4091
vt 534.4545 0.0000
vt 532.8182 0.0000
vt 532.8182 1.4091
vt 534.4545 1.4091
vt -20.0227 0.0000
vt -18.3864 0.0000
vt -18.3864 1.4091
vt -20.0227 1.4091
vt -18.3864 0.0000
vt -20.0227 0.0000
vt -20.0227 1.4091
vt -18.3864 1.4091
vt 534.2955 -15.5909
vt 534.2955 -13.9545
vt 535.9318 -13.9545
vt 535.9318 -15.5909
vt 534.2955 -15.5909
vt 535.9318 -15.5909
vt 535.9318 -13.9545
vt 534.2955 -13.9545
vt 534.2955 0.0000
vt 535.9318 0.0000
vt 535.9318 1.4091
vt 534.2955 1.4091
vt 535.9318 0.0000
vt 534.2955 0.0000
vt 534.2955 1.4091
vt 535.9318 1.4091
vt -15.5909 0.0000
vt -13.9545 0.0000
vt -13.9545 1.4091
vt -15.5909 1.4091
vt -13.9545 0.0000
vt -15.5909 0.0000
vt -15.5909 1.4091
vt -13.9545 1.4091
vt 534.2955 -14.1136
vt 534.2955 -12.4773
vt 535.9318 -12.4773
vt 535.9318 -14.1136
vt 534.2955 -14.1136
vt 535.9318 -14.1136
vt 535.9318 -12.4773
vt 534.2955 -12.4773
vt 534.2955 0.0000
vt 535.9318 0.0000
vt 535.9318 1.4091
vt 534.2955 1.4091
vt 535.9318 0.0000
vt 534.2955 0.0000
vt 534.2955 1.4091
vt 535.9318 1.4091
vt -14.1136 0.0000
vt -12.4773 0.0000
vt -12.4773 1.4091
vt -14.1136 1.4091
vt -12.4773 0.0000
vt -14.1136 0.0000
vt -14.1136 1.4091
vt -12.4773 1.4091
vt 531.3409 -11.1591
vt 531.3409 -9.5227
vt 532.9773 -9.5227
vt 532.9773 -11.1591
vt 531.3409 -11.1591
vt 532.9773 -11.1591
vt 532.9773 -9.5227
vt 531.3409 -9.5227
vt 531.3409 0.0000
vt 532.9773 0.0000
vt 532.9773 1.4091
vt 531.3409 1.4091
vt 532.9773 0.0000
vt 531.3409 0.0000
vt 531.3409 1.4091
vt 532.9773 1.4091
vt -11.1591 0.0000
vt -9.5227 0.0000
vt -9.5227 1.4091
vt -11.1591 1.4091
vt -9.5227 0.0000
vt -11.1591 0.0000
vt -11.1591 1.4091
vt -9.5227 1.4091
vt 945.5328 -42.8689
vt 945.5328 -42.3770
vt 947.0902 -42.3770
vt 947.0902 -42.8689
vt 945.5328 -42.8689
vt 947.0902 -42.8689
vt 947.0902 -42.3770
vt 945.5328 -42.3770
vt 945.5328 2.4672
vt 947.0902 2.4672
vt 947.0902 2.5328
vt 945.5328 2.5328
vt 947.0902 2.4672
vt 945.5328 2.4672
vt 945.5328 2.5328
vt 947.0902 2.5328
vt -42.8689 2.4672
vt -42.3770 2.4672
vt -42.3770 2.5328
vt -42.8689 2.5328
vt -42.3770 2.4672
vt -42.8689 2.4672
vt -42.8689 2.5328
vt -42.3770 2.5328
vt 950.8607 -42.8689
vt 950.8607 -42.3770
vt 952.4180 -42.3770
vt 952.4180 -42.8689
vt 950.8607 -42.8689
vt 952.4180 -42.8689
vt 952.4180 -42.3770
vt 950.8607 -42.3770
vt 950.8607 2.4672
vt 952.4180 2.4672
vt 952.4180 2.5328
vt 950.8607 2.5328
vt 952.4180 2.4672
vt 950.8607 2.4672
vt 950.8607 2.5328
vt 952.4180 2.5328
vt -42.8689 2.4672
vt -42.3770 2.4672
vt -42.3770 2.5328
vt -42.8689 2.5328
vt -42.3770 2.4672
vt -42.8689 2.4672
vt -42.8689 2.5328
vt -42.3770 2.5328
vt 956.1885 -42.8689
vt 956.1885 -42.3770
vt 957.7459 -42.3770
vt 957.7459 -42.8689
vt 956.1885 -42.8689
vt 957.7459 -42.8689
vt 957.7459 -42.3770
vt 956.1885 -42.3770
vt 956.1885 2.4672
vt 957.7459 2.4672
vt 957.7459 2.5328
vt 956.1885 2.5328
vt 957.7459 2.4672
vt 956.1885 2.4672
vt 956.1885 2.5328
vt 957.7459 2.5328
vt -42.8689 2.4672
vt -42.3770 2.4672
vt -42.3770 2.5328
vt -42.8689 2.5328
vt -42.3770 2.4672
vt -42.8689 2.4672
vt -42.8689 2.5328
vt -42.3770 2.5328
vt 940.2049 -37.5410
vt 940.2049 -37.0492
vt 941.7623 -37.0492
vt 941.7623 -37.5410
vt 940.2049 -37.5410
vt 941.7623 -37.5410
vt 941.7623 -37.0492
vt 940.2049 -37.0492
vt 940.2049 2.4672
vt 941.7623 2.4672
vt 941.7623 2.5328
vt 940.2049 2.5328
vt 941.7623 2.4672
vt 940.2049 2.4672
vt 940.2049 2.5328
vt 941.7623 2.5328
vt -37.5410 2.4672
vt -37.0492 2.4672
vt -37.0492 2.5328
vt -37.5410 2.5328
vt -37.0492 2.4672
vt -37.5410 2.4672
vt -37.5410 2.5328
vt -37.0492 2.5328
vt 945.5328 -37.5410
vt 945.5328 -37.0492
vt 947.0902 -37.0492
vt 947.0902 -37.5410
vt 945.5328 -37.5410
vt 947.0902 -37.5410
vt 947.0902 -37.0492
vt 945.5328 -37.0492
vt 945.5328 2.4672
vt 947.0902 2.4672
vt 947.0902 2.5328
vt 945.5328 2.5328
vt 947.0902 2.4672
vt 945.5328 2.4672
vt 945.5328 2.5328
vt 947.0902 2.5328
vt -37.5410 2.4672
vt -37.0492 2.4672
vt -37.0492 2.5328
vt -37.5410 2.5328
vt -37.0492 2.4672
vt -37.5410 2.4672
vt -37.5410 2.5328
vt -37.0492 2.5328
vt 950.8607 -37.5410
vt 950.8607 -37.0492
vt 952.4180 -37.0492
vt 952.4180 -37.5410
vt 950.8607 -37.5410
vt 952.4180 -37.5410
vt 952.4180 -37.0492
vt 950.8607 -37.0492
vt 950.8607 2.4672
vt 952.4180 2.4672
vt 952.4180 2.5328
vt 950.8607 2.5328
vt 952.4180 2.4672
vt 950.8607 2.4672
vt 950.8607 2.5328
vt 952.4180 2.5328
vt -37.5410 2.4672
vt -37.0492 2.4672
vt -37.0492 2.5328
vt -37.5410 2.5328
vt -37.0492 2.4672
vt -37.5410 2.4672
vt -37.5410 2.5328
vt -37.0492 2.5328
vt 961.5164 -37.5410
vt 961.5164 -37.0492
vt 963.0738 -37.0492
vt 963.0738 -37.5410
vt 961.5164 -37.5410
vt 963.0738 -37.5410
vt 963.0738 -37.0492
vt 961.5164 -37.0492
vt 961.5164 2.4672
vt 963.0738 2.4672
vt 963.0738 2.5328
vt 961.5164 2.5328
vt 963.0738 2.4672
vt 961.5164 2.4672
vt 961.5164 2.5328
vt 963.0738 2.5328
vt -37.5410 2.4672
vt -37.0492 2.4672
vt -37.0492 2.5328
vt -37.5410 2.5328
vt -37.0492 2.4672
vt -37.5410 2.4672
vt -37.5410 2.5328
vt -37.0492 2.5328
vt 966.8443 -37.5410
vt 966.8443 -37.0492
vt 968.4016 -37.0492
vt 968.4016 -37.5410
vt 966.8443 -37.5410
vt 968.4016 -37.5410
vt 968.4016 -37.0492
vt 966.8443 -37.0492
vt 966.8443 2.4672
vt 968.4016 2.4672
vt 968.4016 2.5328
vt 966.8443 2.5328
vt 968.4016 2.4672
vt 966.8443 2.4672
vt 966.8443 2.5328
vt 968.4016 2.5328
vt -37.5410 2.4672
vt -37.0492 2.4672
vt -37.0492 2.5328
vt -37.5410 2.5328
vt -37.0492 2.4672
vt -37.5410 2.4672
vt -37.5410 2.5328
vt -37.0492 2.5328
vt 940.2049 -32.2131
vt 940.2049 -31.7213
vt 941.7623 -31.7213
vt 941.7623 -32.2131
vt 940.2049 -32.2131
vt 941.7623 -32.2131
vt 941.7623 -31.7213
vt 940.2049 -31.7213
vt 940.2049 2.4672
vt 941.7623 2.4672
vt 941.7623 2.5328
vt 940.2049 2.5328
vt 941.7623 2.4672
vt 940.2049 2.4672
vt 940.2049 2.5328
vt 941.7623 2.5328
vt -32.2131 2.4672
vt -31.7213 2.4672
vt -31.7213 2.5328
vt -32.2131 2.5328
vt -31.7213 2.4672
vt -32.2131 2.4672
vt -32.2131 2.5328
vt -31.7213 2.5328
vt 966.8443 -32.2131
vt 966.8443 -31.7213
vt 968.4016 -31.7213
vt 968.4016 -32.2131
vt 966.8443 -32.2131
vt 968.4016 -32.2131
vt 968.4016 -31.7213
vt 966.8443 -31.7213
vt 966.8443 2.4672
vt 968.4016 2.4672
vt 968.4016 2.5328
vt 966.8443 2.5328
vt 968.4016 2.4672
vt 966.8443 2.4672
vt 966.8443 2.5328
vt 968.4016 2.5328
vt -32.2131 2.4672
vt -31.7213 2.4672
vt -31.7213 2.5328
vt -32.2131 2.5328
vt -31.7213 2.4672
vt -32.2131 2.4672
vt -32.2131 2.5328
vt -31.7213 2.5328
vt 940.2049 -26.8852
vt 940.2049 -26.3934
vt 941.7623 -26.3934
vt 941.7623 -26.8852
vt 940.2049 -26.8852
vt 941.7623 -26.8852
vt 941.7623 -26.3934
vt 940.2049 -26.3934
vt 940.2049 2.4672
vt 941.7623 2.4672
vt 941.7623 2.5328
vt 940.2049 2.5328
vt 941.7623 2.4672
vt 940.2049 2.4672
vt 940.2049 2.5328
vt 941.7623 2.5328
vt -26.8852 2.4672
vt -26.3934 2.4672
vt -26.3934 2.5328
vt -26.8852 2.5328
vt -26.3934 2.4672
vt -26.8852 2.4672
vt -26.8852 2.5328
vt -26.3934 2.5328
vt 945.5328 -26.8852
vt 945.5328 -26.3934
vt 947.0902 -26.3934
vt 947.0902 -26.8852
vt 945.5328 -26.8852
vt 947.0902 -26.8852
vt 947.0902 -26.3934
vt 945.5328 -26.3934
vt 945.5328 2.4672
vt 947.0902 2.4672
vt 947.0902 2.5328
vt 945.5328 2.5328
vt 947.0902 2.4672
vt 945.5328 2.4672
vt 945.5328 2.5328
vt 947.0902 2.5328
vt -26.8852 2.4672
vt -26.3934 2.4672
vt -26.3934 2.5328
vt -26.8852 2.5328
vt -26.3934 2.4672
vt -26.8852 2.4672
vt -26.8852 2.5328
vt -26.3934 2.5328
vt 950.8607 -26.8852
vt 950.8607 -26.3934
vt 952.4180 -26.3934
vt 952.4180 -26.8852
vt 950.8607 -26.8852
vt 952.4180 -26.8852
vt 952.4180 -26.3934
vt 950.8607 -26.3934
vt 950.8607 2.4672
vt 952.4180 2.4672
vt 952.4180 2.5328
vt 950.8607 2.5328
vt 952.4180 2.4672
vt 950.8607 2.4672
vt 950.8607 2.5328
vt 952.4180 2.5328
vt -26.8852 2.4672
vt -26.3934 2.4672
vt -26.3934 2.5328
vt -26.8852 2.5328
vt -26.3934 2.4672
vt -26.8852 2.4672
vt -26.8852 2.5328
vt -26.3934 2.5328
vt 966.8443 -26.8852
vt 966.8443 -26.3934
vt 968.4016 -26.3934
vt 968.4016 -26.8852
vt 966.8443 -26.8852
vt 968.4016 -26.8852
vt 968.4016 -26.3934
vt 966.8443 -26.3934
vt 966.8443 2.4672
vt 968.4016 2.4672
vt 968.4016 2.5328
vt 966.8443 2.5328
vt 968.4016 2.4672
vt 966.8443 2.4672
vt 966.8443 2.5328
vt 968.4016 2.5328
vt -26.8852 2.4672
vt -26.3934 2.4672
vt -26.3934 2.5328
vt -26.8852 2.5328
vt -26.3934 2.4672
vt -26.8852 2.4672
vt -26.8852 2.5328
vt -26.3934 2.5328
vt 945.5328 -21.5574
vt 945.5328 -21.0656
vt 947.0902 -21.0656
vt 947.0902 -21.5574
vt 945.5328 -21.5574
vt 947.0902 -21.5574
vt 947.0902 -21.0656
vt 945.5328 -21.0656
vt 945.5328 2.4672
vt 947.0902 2.4672
vt 947.0902 2.5328
vt 945.5328 2.5328
vt 947.0902 2.4672
vt 945.5328 2.4672
vt 945.5328 2.5328
vt 947.0902 2.5328
vt -21.5574 2.4672
vt -21.0656 2.4672
vt -21.0656 2.5328
vt -21.5574 2.5328
vt -21.0656 2.4672
vt -21.5574 2.4672
vt -21.5574 2.5328
vt -21.0656 2.5328
vt 940.2049 -16.2295
vt 940.2049 -15.7377
vt 941.7623 -15.7377
vt 941.7623 -16.2295
vt 940.2049 -16.2295
vt 941.7623 -16.2295
vt 941.7623 -15.7377
vt 940.2049 -15.7377
vt 940.2049 2.4672
vt 941.7623 2.4672
vt 941.7623 2.5328
vt 940.2049 2.5328
vt 941.7623 2.4672
vt 940.2049 2.4672
vt 940.2049 2.5328
vt 941.7623 2.5328
vt -16.2295 2.4672
vt -15.7377 2.4672
vt -15.7377 2.5328
vt -16.2295 2.5328
vt -15.7377 2.4672
vt -16.2295 2.4672
vt -16.2295 2.5328
vt -15.7377 2.5328
vt 945.5328 -16.2295
vt 945.5328 -15.7377
vt 947.0902 -15.7377
vt 947.0902 -16.2295
vt 945.5328 -16.2295
vt 947.0902 -16.2295
vt 947.0902 -15.7377
vt 945.5328 -15.7377
vt 945.5328 2.4672
vt 947.0902 2.4672
vt 947.0902 2.5328
vt 945.5328 2.5328
vt 947.0902 2.4672
vt 945.5328 2.4672
vt 945.5328 2.5328
vt 947.0902 2.5328
vt -16.2295 2.4672
vt -15.7377 2.4672
vt -15.7377 2.5328
vt -16.2295 2.5328
vt -15.7377 2.4672
vt -16.2295 2.4672
vt -16.2295 2.5328
vt -15.7377 2.5328
vt 950.8607 -16.2295
vt 950.8607 -15.7377
vt 952.4180 -15.7377
vt 952.4180 -16.2295
vt 950.8607 -16.2295
vt 952.4180 -16.2295
vt 952.4180 -15.7377
vt 950.8607 -15.7377
vt 950.8607 2.4672
vt 952.4180 2.4672
vt 952.4180 2.5328
vt 950.8607 2.5328
vt 952.4180 2.4672
vt 950.8607 2.4672
vt 950.8607 2.5328
vt 952.4180 2.5328
vt -16.2295 2.4672
vt -15.7377 2.4672
vt -15.7377 2.5328
vt -16.2295 2.5328
vt -15.7377 2.4672
vt -16.2295 2.4672
vt -16.2295 2.5328
vt -15.7377 2.5328
vt 956.1885 -16.2295
vt 956.1885 -15.7377
vt 957.7459 -15.7377
vt 957.7459 -16.2295
vt 956.1885 -16.2295
vt 957.7459 -16.2295
vt 957.7459 -15.7377
vt 956.1885 -15.7377
vt 956.1885 2.4672
vt 957.7459 2.4672
vt 957.7459 2.5328
vt 956.1885 2.5328
vt 957.7459 2.4672
vt 956.1885 2.4672
vt 956.1885 2.5328
vt 957.7459 2.5328
vt -16.2295 2.4672
vt -15.7377 2.4672
vt -15.7377 2.5328
vt -16.2295 2.5328
vt -15.7377 2.4672
vt -16.2295 2.4672
vt -16.2295 2.5328
vt -15.7377 2.5328
usemtl cubicle
f 25 28 27 26
f 29 30 31 32
f 25 26 30 29
f 27 28 32 31
f 26 27 31 30
f 28 25 29 32
f 33 36 35 34
f 37 38 39 40
f 33 34 38 37
f 35 36 40 39
f 34 35 39 38
f 36 33 37 40
f 41 44 43 42
f 45 46 47 48
f 41 42 46 45
f 43 44 48 47
f 42 43 47 46
f 44 41 45 48
f 49 52 51 50
f 53 54 55 56
f 49 50 54 53
f 51 52 56 55
f 50 51 55 54
f 52 49 53 56
f 57 60 59 58
f 61 62 63 64
f 57 58 62 61
f 59 60 64 63
f 58 59 63 62
f 60 57 61 64
f 89 92 91 90
f 93 94 95 96
f 89 90 94 93
f 91 92 96 95
f 90 91 95 94
f 92 89 93 96
f 97 100 99 98
f 101 102 103 104
f 97 98 102 101
f 99 100 104 103
f 98 99 103 102
f 100 97 101 104
f 105 108 107 106
f 109 110 111 112
f 105 106 110 109
f 107 108 112 111
f 106 107 111 110
f 108 105 109 112
f 137 140 139 138
f 141 142 143 144
f 137 138 142 141
f 139 140 144 143
f 138 139 143 142
f 140 137 141 144
f 193 196 195 194
f 197 198 199 200
f 193 194 198 197
f 195 196 200 199
f 194 195 199 198
f 196 193 197 200
f 201 204 203 202
f 205 206 207 208
f 201 202 206 205
f 203 204 208 207
f 202 203 207 206
f 204 201 205 208
usemtl fluorescent
f 209 212 211 210
f 213 214 215 216
f 209 210 214 213
f 211 212 216 215
f 210 211 215 214
f 212 209 213 216
f 241 244 243 242
f 245 246 247 248
f 241 242 246 245
f 243 244 248 247
f 242 243 247 246
f 244 241 245 248
f 273 276 275 274
f 277 278 279 280
f 273 274 278 277
f 275 276 280 279
f 274 275 279 278
f 276 273 277 280
f 305 308 307 306
f 309 310 311 312
f 305 306 310 309
f 307 308 312 311
f 306 307 311 310
f 308 305 309 312
f 337 340 339 338
f 341 342 343 344
f 337 338 342 341
f 339 340 344 343
f 338 339 343 342
f 340 337 341 344
f 369 372 371 370
f 373 374 375 376
f 369 370 374 373
f 371 372 376 375
f 370 371 375 374
f 372 369 373 376
f 401 404 403 402
f 405 406 407 408
f 401 402 406 405
f 403 404 408 407
f 402 403 407 406
f 404 401 405 408
f 433 436 435 434
f 437 438 439 440
f 433 434 438 437
f 435 436 440 439
f 434 435 439 438
f 436 433 437 440
f 465 468 467 466
f 469 470 471 472
f 465 466 470 469
f 467 468 472 471
f 466 467 471 470
f 468 465 469 472
f 497 500 499 498
f 501 502 503 504
f 497 498 502 501
f 499 500 504 503
f 498 499 503 502
f 500 497 501 504
f 529 532 531 530
f 533 534 535 536
f 529 530 534 533
f 531 532 536 535
f 530 531 535 534
f 532 529 533 536
f 561 564 563 562
f 565 566 567 568
f 561 562 566 565
f 563 564 568 567
f 562 563 567 566
f 564 561 565 568
f 593 596 595 594
f 597 598 599 600
f 593 594 598 597
f 595 596 600 599
f 594 595 599 598
f 596 593 597 600
f 625 628 627 626
f 629 630 631 632
f 625 626 630 629
f 627 628 632 631
f 626 627 631 630
f 628 625 629 632
f 657 660 659 658
f 661 662 663 664
f 657 658 662 661
f 659 660 664 663
f 658 659 663 662
f 660 657 661 664
f 689 692 691 690
f 693 694 695 696
f 689 690 694 693
f 691 692 696 695
f 690 691 695 694
f 692 689 693 696
f 721 724 723 722
f 725 726 727 728
f 721 722 726 725
f 723 724 728 727
f 722 723 727 726
f 724 721 725 728
f 753 756 755 754
f 757 758 759 760
f 753 754 758 757
f 755 756 760 759
f 754 755 759 758
f 756 753 757 760
f 785 788 787 786
f 789 790 791 792
f 785 786 790 789
f 787 788 792 791
f 786 787 791 790
f 788 785 789 792
usemtl desk
f 817 820 819 818
f 821 822 823 824
f 817 818 822 821
f 819 820 824 823
f 818 819 823 822
f 820 817 821 824
f 825 828 827 826
f 829 830 831 832
f 825 826 830 829
f 827 828 832 831
f 826 827 831 830
f 828 825 829 832
f 833 836 835 834
f 837 838 839 840
f 833 834 838 837
f 835 836 840 839
f 834 835 839 838
f 836 833 837 840
usemtl monitor
f 841 844 843 842
f 845 846 847 848
f 841 842 846 845
f 843 844 848 847
f 842 843 847 846
f 844 841 845 848
usemtl desk
f 849 852 851 850
f 853 854 855 856
f 849 850 854 853
f 851 852 856 855
f 850 851 855 854
f 852 849 853 856
f 857 860 859 858
f 861 862 863 864
f 857 858 862 861
f 859 860 864 863
f 858 859 863 862
f 860 857 861 864
f 865 868 867 866
f 869 870 871 872
f 865 866 870 869
f 867 868 872 871
f 866 867 871 870
f 868 865 869 872
usemtl monitor
f 873 876 875 874
f 877 878 879 880
f 873 874 878 877
f 875 876 880 879
f 874 875 879 878
f 876 873 877 880
usemtl desk
f 881 884 883 882
f 885 886 887 888
f 881 882 886 885
f 883 884 888 887
f 882 883 887 886
f 884 881 885 888
f 889 892 891 890
f 893 894 895 896
f 889 890 894 893
f 891 892 896 895
f 890 891 895 894
f 892 889 893 896
f 897 900 899 898
f 901 902 903 904
f 897 898 902 901
f 899 900 904 903
f 898 899 903 902
f 900 897 901 904
usemtl monitor
f 905 908 907 906
f 909 910 911 912
f 905 906 910 909
f 907 908 912 911
f 906 907 911 910
f 908 905 909 912
usemtl desk
f 913 916 915 914
f 917 918 919 920
f 913 914 918 917
f 915 916 920 919
f 914 915 919 918
f 916 913 917 920
f 921 924 923 922
f 925 926 927 928
f 921 922 926 925
f 923 924 928 927
f 922 923 927 926
f 924 921 925 928
f 929 932 931 930
f 933 934 935 936
f 929 930 934 933
f 931 932 936 935
f 930 931 935 934
f 932 929 933 936
usemtl monitor
f 937 940 939 938
f 941 942 943 944
f 937 938 942 941
f 939 940 944 943
f 938 939 943 942
f 940 937 941 944
usemtl desk
f 945 948 947 946
f 949 950 951 952
f 945 946 950 949
f 947 948 952 951
f 946 947 951 950
f 948 945 949 952
f 953 956 955 954
f 957 958 959 960
f 953 954 958 957
f 955 956 960 959
f 954 955 959 958
f 956 953 957 960
f 961 964 963 962
f 965 966 967 968
f 961 962 966 965
f 963 964 968 967
f 962 963 967 966
f 964 961 965 968
usemtl monitor
f 969 972 971 970
f 973 974 975 976
f 969 970 974 973
f 971 972 976 975
f 970 971 975 974
f 972 969 973 976
usemtl desk
f 977 980 979 978
f 981 982 983 984
f 977 978 982 981
f 979 980 984 983
f 978 979 983 982
f 980 977 981 984
f 985 988 987 986
f 989 990 991 992
f 985 986 990 989
f 987 988 992 991
f 986 987 991 990
f 988 985 989 992
f 993 996 995 994
f 997 998 999 1000
f 993 994 998 997
f 995 996 1000 999
f 994 995 999 998
f 996 993 997 1000
usemtl monitor
f 1001 1004 1003 1002
f 1005 1006 1007 1008
f 1001 1002 1006 1005
f 1003 1004 1008 1007
f 1002 1003 1007 1006
f 1004 1001 1005 1008
usemtl desk
f 1009 1012 1011 1010
f 1013 1014 1015 1016
f 1009 1010 1014 1013
f 1011 1012 1016 1015
f 1010 1011 1015 1014
f 1012 1009 1013 1016
f 1017 1020 1019 1018
f 1021 1022 1023 1024
f 1017 1018 1022 1021
f 1019 1020 1024 1023
f 1018 1019 1023 1022
f 1020 1017 1021 1024
f 1025 1028 1027 1026
f 1029 1030 1031 1032
f 1025 1026 1030 1029
f 1027 1028 1032 1031
f 1026 1027 1031 1030
f 1028 1025 1029 1032
usemtl monitor
f 1033 1036 1035 1034
f 1037 1038 1039 1040
f 1033 1034 1038 1037
f 1035 1036 1040 1039
f 1034 1035 1039 1038
f 1036 1033 1037 1040
usemtl desk
f 1041 1044 1043 1042
f 1045 1046 1047 1048
f 1041 1042 1046 1045
f 1043 1044 1048 1047
f 1042 1043 1047 1046
f 1044 1041 1045 1048
f 1049 1052 1051 1050
f 1053 1054 1055 1056
f 1049 1050 1054 1053
f 1051 1052 1056 1055
f 1050 1051 1055 1054
f 1052 1049 1053 1056
f 1057 1060 1059 1058
f 1061 1062 1063 1064
f 1057 1058 1062 1061
f 1059 1060 1064 1063
f 1058 1059 1063 1062
f 1060 1057 1061 1064
usemtl monitor
f 1065 1068 1067 1066
f 1069 1070 1071 1072
f 1065 1066 1070 1069
f 1067 1068 1072 1071
f 1066 1067 1071 1070
f 1068 1065 1069 1072
usemtl desk
f 1073 1076 1075 1074
f 1077 1078 1079 1080
f 1073 1074 1078 1077
f 1075 1076 1080 1079
f 1074 1075 1079 1078
f 1076 1073 1077 1080
f 1081 1084 1083 1082
f 1085 1086 1087 1088
f 1081 1082 1086 1085
f 1083 1084 1088 1087
f 1082 1083 1087 1086
f 1084 1081 1085 1088
f 1089 1092 1091 1090
f 1093 1094 1095 1096
f 1089 1090 1094 1093
f 1091 1092 1096 1095
f 1090 1091 1095 1094
f 1092 1089 1093 1096
usemtl monitor
f 1097 1100 1099 1098
f 1101 1102 1103 1104
f 1097 1098 1102 1101
f 1099 1100 1104 1103
f 1098 1099 1103 1102
f 1100 1097 1101 1104
usemtl desk
f 1105 1108 1107 1106
f 1109 1110 1111 1112
f 1105 1106 1110 1109
f 1107 1108 1112 1111
f 1106 1107 1111 1110
f 1108 1105 1109 1112
f 1113 1116 1115 1114
f 1117 1118 1119 1120
f 1113 1114 1118 1117
f 1115 1116 1120 1119
f 1114 1115 1119 1118
f 1116 1113 1117 1120
f 1121 1124 1123 1122
f 1125 1126 1127 1128
f 1121 1122 1126 1125
f 1123 1124 1128 1127
f 1122 1123 1127 1126
f 1124 1121 1125 1128
usemtl monitor
f 1129 1132 1131 1130
f 1133 1134 1135 1136
f 1129 1130 1134 1133
f 1131 1132 1136 1135
f 1130 1131 1135 1134
f 1132 1129 1133 1136
usemtl desk
f 1137 1140 1139 1138
f 1141 1142 1143 1144
f 1137 1138 1142 1141
f 1139 1140 1144 1143
f 1138 1139 1143 1142
f 1140 1137 1141 1144
f 1145 1148 1147 1146
f 1149 1150 1151 1152
f 1145 1146 1150 1149
f 1147 1148 1152 1151
f 1146 1147 1151 1150
f 1148 1145 1149 1152
f 1153 1156 1155 1154
f 1157 1158 1159 1160
f 1153 1154 1158 1157
f 1155 1156 1160 1159
f 1154 1155 1159 1158
f 1156 1153 1157 1160
usemtl monitor
f 1161 1164 1163 1162
f 1165 1166 1167 1168
f 1161 1162 1166 1165
f 1163 1164 1168 1167
f 1162 1163 1167 1166
f 1164 1161 1165 1168
usemtl desk
f 1169 1172 1171 1170
f 1173 1174 1175 1176
f 1169 1170 1174 1173
f 1171 1172 1176 1175
f 1170 1171 1175 1174
f 1172 1169 1173 1176
f 1177 1180 1179 1178
f 1181 1182 1183 1184
f 1177 1178 1182 1181
f 1179 1180 1184 1183
f 1178 1179 1183 1182
f 1180 1177 1181 1184
f 1185 1188 1187 1186
f 1189 1190 1191 1192
f 1185 1186 1190 1189
f 1187 1188 1192 1191
f 1186 1187 1191 1190
f 1188 1185 1189 1192
usemtl monitor
f 1193 1196 1195 1194
f 1197 1198 1199 1200
f 1193 1194 1198 1197
f 1195 1196 1200 1199
f 1194 1195 1199 1198
f 1196 1193 1197 1200
usemtl office_wall
f 1/1 2/2 3/3 4/4
f 5/5 6/6 7/7 8/8
f 9/9 10/10 11/11 12/12
f 13/13 14/14 15/15 16/16
f 17/17 18/18 19/19 20/20
f 21/21 22/22 23/23 24/24
f 65/25 66/26 67/27 68/28
f 69/29 70/30 71/31 72/32
f 73/33 74/34 75/35 76/36
f 77/37 78/38 79/39 80/40
f 81/41 82/42 83/43 84/44
f 85/45 86/46 87/47 88/48
f 113/49 114/50 115/51 116/52
f 117/53 118/54 119/55 120/56
f 121/57 122/58 123/59 124/60
f 125/61 126/62 127/63 128/64
f 129/65 130/66 131/67 132/68
f 133/69 134/70 135/71 136/72
f 145/73 146/74 147/75 148/76
f 149/77 150/78 151/79 152/80
f 153/81 154/82 155/83 156/84
f 157/85 158/86 159/87 160/88
f 161/89 162/90 163/91 164/92
f 165/93 166/94 167/95 168/96
f 169/97 170/98 171/99 172/100
f 173/101 174/102 175/103 176/104
f 177/105 178/106 179/107 180/108
f 181/109 182/110 183/111 184/112
f 185/113 186/114 187/115 188/116
f 189/117 190/118 191/119 192/120
usemtl ceiling_tile
f 217/121 218/122 219/123 220/124
f 221/125 222/126 223/127 224/128
f 225/129 226/130 227/131 228/132
f 229/133 230/134 231/135 232/136
f 233/137 234/138 235/139 236/140
f 237/141 238/142 239/143 240/144
f 249/145 250/146 251/147 252/148
f 253/149 254/150 255/151 256/152
f 257/153 258/154 259/155 260/156
f 261/157 262/158 263/159 264/160
f 265/161 266/162 267/163 268/164
f 269/165 270/166 271/167 272/168
f 281/169 282/170 283/171 284/172
f 285/173 286/174 287/175 288/176
f 289/177 290/178 291/179 292/180
f 293/181 294/182 295/183 296/184
f 297/185 298/186 299/187 300/188
f 301/189 302/190 303/191 304/192
f 313/193 314/194 315/195 316/196
f 317/197 318/198 319/199 320/200
f 321/201 322/202 323/203 324/204
f 325/205 326/206 327/207 328/208
f 329/209 330/210 331/211 332/212
f 333/213 334/214 335/215 336/216
f 345/217 346/218 347/219 348/220
f 349/221 350/222 351/223 352/224
f 353/225 354/226 355/227 356/228
f 357/229 358/230 359/231 360/232
f 361/233 362/234 363/235 364/236
f 365/237 366/238 367/239 368/240
f 377/241 378/242 379/243 380/244
f 381/245 382/246 383/247 384/248
f 385/249 386/250 387/251 388/252
f 389/253 390/254 391/255 392/256
f 393/257 394/258 395/259 396/260
f 397/261 398/262 399/263 400/264
f 409/265 410/266 411/267 412/268
f 413/269 414/270 415/271 416/272
f 417/273 418/274 419/275 420/276
f 421/277 422/278 423/279 424/280
f 425/281 426/282 427/283 428/284
f 429/285 430/286 431/287 432/288
f 441/289 442/290 443/291 444/292
f 445/293 446/294 447/295 448/296
f 449/297 450/298 451/299 452/300
f 453/301 454/302 455/303 456/304
f 457/305 458/306 459/307 460/308
f 461/309 462/310 463/311 464/312
f 473/313 474/314 475/315 476/316
f 477/317 478/318 479/319 480/320
f 481/321 482/322 483/323 484/324
f 485/325 486/326 487/327 488/328
f 489/329 490/330 491/331 492/332
f 493/333 494/334 495/335 496/336
f 505/337 506/338 507/339 508/340
f 509/341 510/342 511/343 512/344
f 513/345 514/346 515/347 516/348
f 517/349 518/350 519/351 520/352
f 521/353 522/354 523/355 524/356
f 525/357 526/358 527/359 528/360
f 537/361 538/362 539/363 540/364
f 541/365 542/366 543/367 544/368
f 545/369 546/370 547/371 548/372
f 549/373 550/374 551/375 552/376
f 553/377 554/378 555/379 556/380
f 557/381 558/382 559/383 560/384
f 569/385 570/386 571/387 572/388
f 573/389 574/390 575/391 576/392
f 577/393 578/394 579/395 580/396
f 581/397 582/398 583/399 584/400
f 585/401 586/402 587/403 588/404
f 589/405 590/406 591/407 592/408
f 601/409 602/410 603/411 604/412
f 605/413 606/414 607/415 608/416
f 609/417 610/418 611/419 612/420
f 613/421 614/422 615/423 616/424
f 617/425 618/426 619/427 620/428
f 621/429 622/430 623/431 624/432
f 633/433 634/434 635/435 636/436
f 637/437 638/438 639/439 640/440
f 641/441 642/442 643/443 644/444
f 645/445 646/446 647/447 648/448
f 649/449 650/450 651/451 652/452
f 653/453 654/454 655/455 656/456
f 665/457 666/458 667/459 668/460
f 669/461 670/462 671/463 672/464
f 673/465 674/466 675/467 676/468
f 677/469 678/470 679/471 680/472
f 681/473 682/474 683/475 684/476
f 685/477 686/478 687/479 688/480
f 697/481 698/482 699/483 700/484
f 701/485 702/486 703/487 704/488
f 705/489 706/490 707/491 708/492
f 709/493 710/494 711/495 712/496
f 713/497 714/498 715/499 716/500
f 717/501 718/502 719/503 720/504
f 729/505 730/506 731/507 732/508
f 733/509 734/510 735/511 736/512
f 737/513 738/514 739/515 740/516
f 741/517 742/518 743/519 744/520
f 745/521 746/522 747/523 748/524
f 749/525 750/526 751/527 752/528
f 761/529 762/530 763/531 764/532
f 765/533 766/534 767/535 768/536
f 769/537 770/538 771/539 772/540
f 773/541 774/542 775/543 776/544
f 777/545 778/546 779/547 780/548
f 781/549 782/550 783/551 784/552
f 793/553 794/554 795/555 796/556
f 797/557 798/558 799/559 800/560
f 801/561 802/562 803/563 804/564
f 805/565 806/566 807/567 808/568
f 809/569 810/570 811/571 812/572
f 813/573 814/574 815/575 816/576
