# RoastEngine Backrooms level
mtllib backrooms.mtl
v 406.0750 0.0000 -23.9250
v 406.0750 0.0000 -21.0750
v 408.9250 0.0000 -21.0750
v 408.9250 0.0000 -23.9250
v 406.0750 3.0000 -23.9250
v 408.9250 3.0000 -23.9250
v 408.9250 3.0000 -21.0750
v 406.0750 3.0000 -21.0750
v 406.0750 0.0000 -23.9250
v 408.9250 0.0000 -23.9250
v 408.9250 3.0000 -23.9250
v 406.0750 3.0000 -23.9250
v 408.9250 0.0000 -21.0750
v 406.0750 0.0000 -21.0750
v 406.0750 3.0000 -21.0750
v 408.9250 3.0000 -21.0750
v 408.9250 0.0000 -23.9250
v 408.9250 0.0000 -21.0750
v 408.9250 3.0000 -21.0750
v 408.9250 3.0000 -23.9250
v 406.0750 0.0000 -21.0750
v 406.0750 0.0000 -23.9250
v 406.0750 3.0000 -23.9250
v 406.0750 3.0000 -21.0750
v 408.5750 0.0000 -23.9250
v 411.4250 0.0000 -23.9250
v 411.4250 0.0000 -21.0750
v 408.5750 0.0000 -21.0750
v 408.5750 3.0000 -23.9250
v 411.4250 3.0000 -23.9250
v 411.4250 3.0000 -21.0750
v 408.5750 3.0000 -21.0750
v 411.0750 0.0000 -23.9250
v 411.0750 0.0000 -21.0750
v 413.9250 0.0000 -21.0750
v 413.9250 0.0000 -23.9250
v 411.0750 3.0000 -23.9250
v 413.9250 3.0000 -23.9250
v 413.9250 3.0000 -21.0750
v 411.0750 3.0000 -21.0750
v 411.0750 0.0000 -23.9250
v 413.9250 0.0000 -23.9250
v 413.9250 3.0000 -23.9250
v 411.0750 3.0000 -23.9250
v 413.9250 0.0000 -21.0750
v 411.0750 0.0000 -21.0750
v 411.0750 3.0000 -21.0750
v 413.9250 3.0000 -21.0750
v 413.9250 0.0000 -23.9250
v 413.9250 0.0000 -21.0750
v 413.9250 3.0000 -21.0750
v 413.9250 3.0000 -23.9250
v 411.0750 0.0000 -21.0750
v 411.0750 0.0000 -23.9250
v 411.0750 3.0000 -23.9250
v 411.0750 3.0000 -21.0750
v 416.0750 0.0000 -23.9250
v 416.0750 0.0000 -21.0750
v 418.9250 0.0000 -21.0750
v 418.9250 0.0000 -23.9250
v 416.0750 3.0000 -23.9250
v 418.9250 3.0000 -23.9250
v 418.9250 3.0000 -21.0750
v 416.0750 3.0000 -21.0750
v 416.0750 0.0000 -23.9250
v 418.9250 0.0000 -23.9250
v 418.9250 3.0000 -23.9250
v 416.0750 3.0000 -23.9250
v 418.9250 0.0000 -21.0750
v 416.0750 0.0000 -21.0750
v 416.0750 3.0000 -21.0750
v 418.9250 3.0000 -21.0750
v 418.9250 0.0000 -23.9250
v 418.9250 0.0000 -21.0750
v 418.9250 3.0000 -21.0750
v 418.9250 3.0000 -23.9250
v 416.0750 0.0000 -21.0750
v 416.0750 0.0000 -23.9250
v 416.0750 3.0000 -23.9250
v 416.0750 3.0000 -21.0750
v 418.5750 0.0000 -23.9250
v 421.4250 0.0000 -23.9250
v 421.4250 0.0000 -21.0750
v 418.5750 0.0000 -21.0750
v 418.5750 3.0000 -23.9250
v 421.4250 3.0000 -23.9250
v 421.4250 3.0000 -21.0750
v 418.5750 3.0000 -21.0750
v 421.0750 0.0000 -23.9250
v 421.0750 0.0000 -21.0750
v 423.9250 0.0000 -21.0750
v 423.9250 0.0000 -23.9250
v 421.0750 3.0000 -23.9250
v 423.9250 3.0000 -23.9250
v 423.9250 3.0000 -21.0750
v 421.0750 3.0000 -21.0750
v 421.0750 0.0000 -23.9250
v 423.9250 0.0000 -23.9250
v 423.9250 3.0000 -23.9250
v 421.0750 3.0000 -23.9250
v 423.9250 0.0000 -21.0750
v 421.0750 0.0000 -21.0750
v 421.0750 3.0000 -21.0750
v 423.9250 3.0000 -21.0750
v 423.9250 0.0000 -23.9250
v 423.9250 0.0000 -21.0750
v 423.9250 3.0000 -21.0750
v 423.9250 3.0000 -23.9250
v 421.0750 0.0000 -21.0750
v 421.0750 0.0000 -23.9250
v 421.0750 3.0000 -23.9250
v 421.0750 3.0000 -21.0750
v 426.0750 0.0000 -23.9250
v 426.0750 0.0000 -21.0750
v 428.9250 0.0000 -21.0750
v 428.9250 0.0000 -23.9250
v 426.0750 3.0000 -23.9250
v 428.9250 3.0000 -23.9250
v 428.9250 3.0000 -21.0750
v 426.0750 3.0000 -21.0750
v 426.0750 0.0000 -23.9250
v 428.9250 0.0000 -23.9250
v 428.9250 3.0000 -23.9250
v 426.0750 3.0000 -23.9250
v 428.9250 0.0000 -21.0750
v 426.0750 0.0000 -21.0750
v 426.0750 3.0000 -21.0750
v 428.9250 3.0000 -21.0750
v 428.9250 0.0000 -23.9250
v 428.9250 0.0000 -21.0750
v 428.9250 3.0000 -21.0750
v 428.9250 3.0000 -23.9250
v 426.0750 0.0000 -21.0750
v 426.0750 0.0000 -23.9250
v 426.0750 3.0000 -23.9250
v 426.0750 3.0000 -21.0750
v 431.0750 0.0000 -23.9250
v 431.0750 0.0000 -21.0750
v 433.9250 0.0000 -21.0750
v 433.9250 0.0000 -23.9250
v 431.0750 3.0000 -23.9250
v 433.9250 3.0000 -23.9250
v 433.9250 3.0000 -21.0750
v 431.0750 3.0000 -21.0750
v 431.0750 0.0000 -23.9250
v 433.9250 0.0000 -23.9250
v 433.9250 3.0000 -23.9250
v 431.0750 3.0000 -23.9250
v 433.9250 0.0000 -21.0750
v 431.0750 0.0000 -21.0750
v 431.0750 3.0000 -21.0750
v 433.9250 3.0000 -21.0750
v 433.9250 0.0000 -23.9250
v 433.9250 0.0000 -21.0750
v 433.9250 3.0000 -21.0750
v 433.9250 3.0000 -23.9250
v 431.0750 0.0000 -21.0750
v 431.0750 0.0000 -23.9250
v 431.0750 3.0000 -23.9250
v 431.0750 3.0000 -21.0750
v 426.0750 0.0000 -21.4250
v 426.0750 0.0000 -18.5750
v 428.9250 0.0000 -18.5750
v 428.9250 0.0000 -21.4250
v 426.0750 3.0000 -21.4250
v 428.9250 3.0000 -21.4250
v 428.9250 3.0000 -18.5750
v 426.0750 3.0000 -18.5750
v 426.0750 0.0000 -21.4250
v 428.9250 0.0000 -21.4250
v 428.9250 3.0000 -21.4250
v 426.0750 3.0000 -21.4250
v 428.9250 0.0000 -18.5750
v 426.0750 0.0000 -18.5750
v 426.0750 3.0000 -18.5750
v 428.9250 3.0000 -18.5750
v 428.9250 0.0000 -21.4250
v 428.9250 0.0000 -18.5750
v 428.9250 3.0000 -18.5750
v 428.9250 3.0000 -21.4250
v 426.0750 0.0000 -18.5750
v 426.0750 0.0000 -21.4250
v 426.0750 3.0000 -21.4250
v 426.0750 3.0000 -18.5750
v 431.0750 0.0000 -21.4250
v 431.0750 0.0000 -18.5750
v 433.9250 0.0000 -18.5750
v 433.9250 0.0000 -21.4250
v 431.0750 3.0000 -21.4250
v 433.9250 3.0000 -21.4250
v 433.9250 3.0000 -18.5750
v 431.0750 3.0000 -18.5750
v 431.0750 0.0000 -21.4250
v 433.9250 0.0000 -21.4250
v 433.9250 3.0000 -21.4250
v 431.0750 3.0000 -21.4250
v 433.9250 0.0000 -18.5750
v 431.0750 0.0000 -18.5750
v 431.0750 3.0000 -18.5750
v 433.9250 3.0000 -18.5750
v 433.9250 0.0000 -21.4250
v 433.9250 0.0000 -18.5750
v 433.9250 3.0000 -18.5750
v 433.9250 3.0000 -21.4250
v 431.0750 0.0000 -18.5750
v 431.0750 0.0000 -21.4250
v 431.0750 3.0000 -21.4250
v 431.0750 3.0000 -18.5750
v 406.0750 0.0000 -18.9250
v 406.0750 0.0000 -16.0750
v 408.9250 0.0000 -16.0750
v 408.9250 0.0000 -18.9250
v 406.0750 3.0000 -18.9250
v 408.9250 3.0000 -18.9250
v 408.9250 3.0000 -16.0750
v 406.0750 3.0000 -16.0750
v 406.0750 0.0000 -18.9250
v 408.9250 0.0000 -18.9250
v 408.9250 3.0000 -18.9250
v 406.0750 3.0000 -18.9250
v 408.9250 0.0000 -16.0750
v 406.0750 0.0000 -16.0750
v 406.0750 3.0000 -16.0750
v 408.9250 3.0000 -16.0750
v 408.9250 0.0000 -18.9250
v 408.9250 0.0000 -16.0750
v 408.9250 3.0000 -16.0750
v 408.9250 3.0000 -18.9250
v 406.0750 0.0000 -16.0750
v 406.0750 0.0000 -18.9250
v 406.0750 3.0000 -18.9250
v 406.0750 3.0000 -16.0750
v 411.0750 0.0000 -18.9250
v 413.9250 0.0000 -18.9250
v 413.9250 0.0000 -16.0750
v 411.0750 0.0000 -16.0750
v 411.0750 3.0000 -18.9250
v 413.9250 3.0000 -18.9250
v 413.9250 3.0000 -16.0750
v 411.0750 3.0000 -16.0750
v 413.5750 0.0000 -18.9250
v 413.5750 0.0000 -16.0750
v 416.4250 0.0000 -16.0750
v 416.4250 0.0000 -18.9250
v 413.5750 3.0000 -18.9250
v 416.4250 3.0000 -18.9250
v 416.4250 3.0000 -16.0750
v 413.5750 3.0000 -16.0750
v 413.5750 0.0000 -18.9250
v 416.4250 0.0000 -18.9250
v 416.4250 3.0000 -18.9250
v 413.5750 3.0000 -18.9250
v 416.4250 0.0000 -16.0750
v 413.5750 0.0000 -16.0750
v 413.5750 3.0000 -16.0750
v 416.4250 3.0000 -16.0750
v 416.4250 0.0000 -18.9250
v 416.4250 0.0000 -16.0750
v 416.4250 3.0000 -16.0750
v 416.4250 3.0000 -18.9250
v 413.5750 0.0000 -16.0750
v 413.5750 0.0000 -18.9250
v 413.5750 3.0000 -18.9250
v 413.5750 3.0000 -16.0750
v 416.0750 0.0000 -18.9250
v 416.0750 0.0000 -16.0750
v 418.9250 0.0000 -16.0750
v 418.9250 0.0000 -18.9250
v 416.0750 3.0000 -18.9250
v 418.9250 3.0000 -18.9250
v 418.9250 3.0000 -16.0750
v 416.0750 3.0000 -16.0750
v 416.0750 0.0000 -18.9250
v 418.9250 0.0000 -18.9250
v 418.9250 3.0000 -18.9250
v 416.0750 3.0000 -18.9250
v 418.9250 0.0000 -16.0750
v 416.0750 0.0000 -16.0750
v 416.0750 3.0000 -16.0750
v 418.9250 3.0000 -16.0750
v 418.9250 0.0000 -18.9250
v 418.9250 0.0000 -16.0750
v 418.9250 3.0000 -16.0750
v 418.9250 3.0000 -18.9250
v 416.0750 0.0000 -16.0750
v 416.0750 0.0000 -18.9250
v 416.0750 3.0000 -18.9250
v 416.0750 3.0000 -16.0750
v 426.0750 0.0000 -18.9250
v 426.0750 0.0000 -16.0750
v 428.9250 0.0000 -16.0750
v 428.9250 0.0000 -18.9250
v 426.0750 3.0000 -18.9250
v 428.9250 3.0000 -18.9250
v 428.9250 3.0000 -16.0750
v 426.0750 3.0000 -16.0750
v 426.0750 0.0000 -18.9250
v 428.9250 0.0000 -18.9250
v 428.9250 3.0000 -18.9250
v 426.0750 3.0000 -18.9250
v 428.9250 0.0000 -16.0750
v 426.0750 0.0000 -16.0750
v 426.0750 3.0000 -16.0750
v 428.9250 3.0000 -16.0750
v 428.9250 0.0000 -18.9250
v 428.9250 0.0000 -16.0750
v 428.9250 3.0000 -16.0750
v 428.9250 3.0000 -18.9250
v 426.0750 0.0000 -16.0750
v 426.0750 0.0000 -18.9250
v 426.0750 3.0000 -18.9250
v 426.0750 3.0000 -16.0750
v 431.0750 0.0000 -18.9250
v 431.0750 0.0000 -16.0750
v 433.9250 0.0000 -16.0750
v 433.9250 0.0000 -18.9250
v 431.0750 3.0000 -18.9250
v 433.9250 3.0000 -18.9250
v 433.9250 3.0000 -16.0750
v 431.0750 3.0000 -16.0750
v 431.0750 0.0000 -18.9250
v 433.9250 0.0000 -18.9250
v 433.9250 3.0000 -18.9250
v 431.0750 3.0000 -18.9250
v 433.9250 0.0000 -16.0750
v 431.0750 0.0000 -16.0750
v 431.0750 3.0000 -16.0750
v 433.9250 3.0000 -16.0750
v 433.9250 0.0000 -18.9250
v 433.9250 0.0000 -16.0750
v 433.9250 3.0000 -16.0750
v 433.9250 3.0000 -18.9250
v 431.0750 0.0000 -16.0750
v 431.0750 0.0000 -18.9250
v 431.0750 3.0000 -18.9250
v 431.0750 3.0000 -16.0750
v 416.0750 0.0000 -16.4250
v 416.0750 0.0000 -13.5750
v 418.9250 0.0000 -13.5750
v 418.9250 0.0000 -16.4250
v 416.0750 3.0000 -16.4250
v 418.9250 3.0000 -16.4250
v 418.9250 3.0000 -13.5750
v 416.0750 3.0000 -13.5750
v 416.0750 0.0000 -16.4250
v 418.9250 0.0000 -16.4250
v 418.9250 3.0000 -16.4250
v 416.0750 3.0000 -16.4250
v 418.9250 0.0000 -13.5750
v 416.0750 0.0000 -13.5750
v 416.0750 3.0000 -13.5750
v 418.9250 3.0000 -13.5750
v 418.9250 0.0000 -16.4250
v 418.9250 0.0000 -13.5750
v 418.9250 3.0000 -13.5750
v 418.9250 3.0000 -16.4250
v 416.0750 0.0000 -13.5750
v 416.0750 0.0000 -16.4250
v 416.0750 3.0000 -16.4250
v 416.0750 3.0000 -13.5750
v 431.0750 0.0000 -16.4250
v 431.0750 0.0000 -13.5750
v 433.9250 0.0000 -13.5750
v 433.9250 0.0000 -16.4250
v 431.0750 3.0000 -16.4250
v 433.9250 3.0000 -16.4250
v 433.9250 3.0000 -13.5750
v 431.0750 3.0000 -13.5750
v 431.0750 0.0000 -16.4250
v 433.9250 0.0000 -16.4250
v 433.9250 3.0000 -16.4250
v 431.0750 3.0000 -16.4250
v 433.9250 0.0000 -13.5750
v 431.0750 0.0000 -13.5750
v 431.0750 3.0000 -13.5750
v 433.9250 3.0000 -13.5750
v 433.9250 0.0000 -16.4250
v 433.9250 0.0000 -13.5750
v 433.9250 3.0000 -13.5750
v 433.9250 3.0000 -16.4250
v 431.0750 0.0000 -13.5750
v 431.0750 0.0000 -16.4250
v 431.0750 3.0000 -16.4250
v 431.0750 3.0000 -13.5750
v 411.0750 0.0000 -13.9250
v 411.0750 0.0000 -11.0750
v 413.9250 0.0000 -11.0750
v 413.9250 0.0000 -13.9250
v 411.0750 3.0000 -13.9250
v 413.9250 3.0000 -13.9250
v 413.9250 3.0000 -11.0750
v 411.0750 3.0000 -11.0750
v 411.0750 0.0000 -13.9250
v 413.9250 0.0000 -13.9250
v 413.9250 3.0000 -13.9250
v 411.0750 3.0000 -13.9250
v 413.9250 0.0000 -11.0750
v 411.0750 0.0000 -11.0750
v 411.0750 3.0000 -11.0750
v 413.9250 3.0000 -11.0750
v 413.9250 0.0000 -13.9250
v 413.9250 0.0000 -11.0750
v 413.9250 3.0000 -11.0750
v 413.9250 3.0000 -13.9250
v 411.0750 0.0000 -11.0750
v 411.0750 0.0000 -13.9250
v 411.0750 3.0000 -13.9250
v 411.0750 3.0000 -11.0750
v 416.0750 0.0000 -13.9250
v 416.0750 0.0000 -11.0750
v 418.9250 0.0000 -11.0750
v 418.9250 0.0000 -13.9250
v 416.0750 3.0000 -13.9250
v 418.9250 3.0000 -13.9250
v 418.9250 3.0000 -11.0750
v 416.0750 3.0000 -11.0750
v 416.0750 0.0000 -13.9250
v 418.9250 0.0000 -13.9250
v 418.9250 3.0000 -13.9250
v 416.0750 3.0000 -13.9250
v 418.9250 0.0000 -11.0750
v 416.0750 0.0000 -11.0750
v 416.0750 3.0000 -11.0750
v 418.9250 3.0000 -11.0750
v 418.9250 0.0000 -13.9250
v 418.9250 0.0000 -11.0750
v 418.9250 3.0000 -11.0750
v 418.9250 3.0000 -13.9250
v 416.0750 0.0000 -11.0750
v 416.0750 0.0000 -13.9250
v 416.0750 3.0000 -13.9250
v 416.0750 3.0000 -11.0750
v 421.0750 0.0000 -13.9250
v 421.0750 0.0000 -11.0750
v 423.9250 0.0000 -11.0750
v 423.9250 0.0000 -13.9250
v 421.0750 3.0000 -13.9250
v 423.9250 3.0000 -13.9250
v 423.9250 3.0000 -11.0750
v 421.0750 3.0000 -11.0750
v 421.0750 0.0000 -13.9250
v 423.9250 0.0000 -13.9250
v 423.9250 3.0000 -13.9250
v 421.0750 3.0000 -13.9250
v 423.9250 0.0000 -11.0750
v 421.0750 0.0000 -11.0750
v 421.0750 3.0000 -11.0750
v 423.9250 3.0000 -11.0750
v 423.9250 0.0000 -13.9250
v 423.9250 0.0000 -11.0750
v 423.9250 3.0000 -11.0750
v 423.9250 3.0000 -13.9250
v 421.0750 0.0000 -11.0750
v 421.0750 0.0000 -13.9250
v 421.0750 3.0000 -13.9250
v 421.0750 3.0000 -11.0750
v 426.0750 0.0000 -13.9250
v 426.0750 0.0000 -11.0750
v 428.9250 0.0000 -11.0750
v 428.9250 0.0000 -13.9250
v 426.0750 3.0000 -13.9250
v 428.9250 3.0000 -13.9250
v 428.9250 3.0000 -11.0750
v 426.0750 3.0000 -11.0750
v 426.0750 0.0000 -13.9250
v 428.9250 0.0000 -13.9250
v 428.9250 3.0000 -13.9250
v 426.0750 3.0000 -13.9250
v 428.9250 0.0000 -11.0750
v 426.0750 0.0000 -11.0750
v 426.0750 3.0000 -11.0750
v 428.9250 3.0000 -11.0750
v 428.9250 0.0000 -13.9250
v 428.9250 0.0000 -11.0750
v 428.9250 3.0000 -11.0750
v 428.9250 3.0000 -13.9250
v 426.0750 0.0000 -11.0750
v 426.0750 0.0000 -13.9250
v 426.0750 3.0000 -13.9250
v 426.0750 3.0000 -11.0750
v 431.0750 0.0000 -13.9250
v 431.0750 0.0000 -11.0750
v 433.9250 0.0000 -11.0750
v 433.9250 0.0000 -13.9250
v 431.0750 3.0000 -13.9250
v 433.9250 3.0000 -13.9250
v 433.9250 3.0000 -11.0750
v 431.0750 3.0000 -11.0750
v 431.0750 0.0000 -13.9250
v 433.9250 0.0000 -13.9250
v 433.9250 3.0000 -13.9250
v 431.0750 3.0000 -13.9250
v 433.9250 0.0000 -11.0750
v 431.0750 0.0000 -11.0750
v 431.0750 3.0000 -11.0750
v 433.9250 3.0000 -11.0750
v 433.9250 0.0000 -13.9250
v 433.9250 0.0000 -11.0750
v 433.9250 3.0000 -11.0750
v 433.9250 3.0000 -13.9250
v 431.0750 0.0000 -11.0750
v 431.0750 0.0000 -13.9250
v 431.0750 3.0000 -13.9250
v 431.0750 3.0000 -11.0750
v 411.0750 0.0000 -11.4250
v 411.0750 0.0000 -8.5750
v 413.9250 0.0000 -8.5750
v 413.9250 0.0000 -11.4250
v 411.0750 3.0000 -11.4250
v 413.9250 3.0000 -11.4250
v 413.9250 3.0000 -8.5750
v 411.0750 3.0000 -8.5750
v 411.0750 0.0000 -11.4250
v 413.9250 0.0000 -11.4250
v 413.9250 3.0000 -11.4250
v 411.0750 3.0000 -11.4250
v 413.9250 0.0000 -8.5750
v 411.0750 0.0000 -8.5750
v 411.0750 3.0000 -8.5750
v 413.9250 3.0000 -8.5750
v 413.9250 0.0000 -11.4250
v 413.9250 0.0000 -8.5750
v 413.9250 3.0000 -8.5750
v 413.9250 3.0000 -11.4250
v 411.0750 0.0000 -8.5750
v 411.0750 0.0000 -11.4250
v 411.0750 3.0000 -11.4250
v 411.0750 3.0000 -8.5750
v 426.0750 0.0000 -11.4250
v 426.0750 0.0000 -8.5750
v 428.9250 0.0000 -8.5750
v 428.9250 0.0000 -11.4250
v 426.0750 3.0000 -11.4250
v 428.9250 3.0000 -11.4250
v 428.9250 3.0000 -8.5750
v 426.0750 3.0000 -8.5750
v 426.0750 0.0000 -11.4250
v 428.9250 0.0000 -11.4250
v 428.9250 3.0000 -11.4250
v 426.0750 3.0000 -11.4250
v 428.9250 0.0000 -8.5750
v 426.0750 0.0000 -8.5750
v 426.0750 3.0000 -8.5750
v 428.9250 3.0000 -8.5750
v 428.9250 0.0000 -11.4250
v 428.9250 0.0000 -8.5750
v 428.9250 3.0000 -8.5750
v 428.9250 3.0000 -11.4250
v 426.0750 0.0000 -8.5750
v 426.0750 0.0000 -11.4250
v 426.0750 3.0000 -11.4250
v 426.0750 3.0000 -8.5750
v 431.0750 0.0000 -11.4250
v 431.0750 0.0000 -8.5750
v 433.9250 0.0000 -8.5750
v 433.9250 0.0000 -11.4250
v 431.0750 3.0000 -11.4250
v 433.9250 3.0000 -11.4250
v 433.9250 3.0000 -8.5750
v 431.0750 3.0000 -8.5750
v 431.0750 0.0000 -11.4250
v 433.9250 0.0000 -11.4250
v 433.9250 3.0000 -11.4250
v 431.0750 3.0000 -11.4250
v 433.9250 0.0000 -8.5750
v 431.0750 0.0000 -8.5750
v 431.0750 3.0000 -8.5750
v 433.9250 3.0000 -8.5750
v 433.9250 0.0000 -11.4250
v 433.9250 0.0000 -8.5750
v 433.9250 3.0000 -8.5750
v 433.9250 3.0000 -11.4250
v 431.0750 0.0000 -8.5750
v 431.0750 0.0000 -11.4250
v 431.0750 3.0000 -11.4250
v 431.0750 3.0000 -8.5750
v 406.0750 0.0000 -8.9250
v 406.0750 0.0000 -6.0750
v 408.9250 0.0000 -6.0750
v 408.9250 0.0000 -8.9250
v 406.0750 3.0000 -8.9250
v 408.9250 3.0000 -8.9250
v 408.9250 3.0000 -6.0750
v 406.0750 3.0000 -6.0750
v 406.0750 0.0000 -8.9250
v 408.9250 0.0000 -8.9250
v 408.9250 3.0000 -8.9250
v 406.0750 3.0000 -8.9250
v 408.9250 0.0000 -6.0750
v 406.0750 0.0000 -6.0750
v 406.0750 3.0000 -6.0750
v 408.9250 3.0000 -6.0750
v 408.9250 0.0000 -8.9250
v 408.9250 0.0000 -6.0750
v 408.9250 3.0000 -6.0750
v 408.9250 3.0000 -8.9250
v 406.0750 0.0000 -6.0750
v 406.0750 0.0000 -8.9250
v 406.0750 3.0000 -8.9250
v 406.0750 3.0000 -6.0750
v 411.0750 0.0000 -8.9250
v 411.0750 0.0000 -6.0750
v 413.9250 0.0000 -6.0750
v 413.9250 0.0000 -8.9250
v 411.0750 3.0000 -8.9250
v 413.9250 3.0000 -8.9250
v 413.9250 3.0000 -6.0750
v 411.0750 3.0000 -6.0750
v 411.0750 0.0000 -8.9250
v 413.9250 0.0000 -8.9250
v 413.9250 3.0000 -8.9250
v 411.0750 3.0000 -8.9250
v 413.9250 0.0000 -6.0750
v 411.0750 0.0000 -6.0750
v 411.0750 3.0000 -6.0750
v 413.9250 3.0000 -6.0750
v 413.9250 0.0000 -8.9250
v 413.9250 0.0000 -6.0750
v 413.9250 3.0000 -6.0750
v 413.9250 3.0000 -8.9250
v 411.0750 0.0000 -6.0750
v 411.0750 0.0000 -8.9250
v 411.0750 3.0000 -8.9250
v 411.0750 3.0000 -6.0750
v 416.0750 0.0000 -8.9250
v 416.0750 0.0000 -6.0750
v 418.9250 0.0000 -6.0750
v 418.9250 0.0000 -8.9250
v 416.0750 3.0000 -8.9250
v 418.9250 3.0000 -8.9250
v 418.9250 3.0000 -6.0750
v 416.0750 3.0000 -6.0750
v 416.0750 0.0000 -8.9250
v 418.9250 0.0000 -8.9250
v 418.9250 3.0000 -8.9250
v 416.0750 3.0000 -8.9250
v 418.9250 0.0000 -6.0750
v 416.0750 0.0000 -6.0750
v 416.0750 3.0000 -6.0750
v 418.9250 3.0000 -6.0750
v 418.9250 0.0000 -8.9250
v 418.9250 0.0000 -6.0750
v 418.9250 3.0000 -6.0750
v 418.9250 3.0000 -8.9250
v 416.0750 0.0000 -6.0750
v 416.0750 0.0000 -8.9250
v 416.0750 3.0000 -8.9250
v 416.0750 3.0000 -6.0750
v 418.5750 0.0000 -8.9250
v 418.5750 0.0000 -6.0750
v 421.4250 0.0000 -6.0750
v 421.4250 0.0000 -8.9250
v 418.5750 3.0000 -8.9250
v 421.4250 3.0000 -8.9250
v 421.4250 3.0000 -6.0750
v 418.5750 3.0000 -6.0750
v 418.5750 0.0000 -8.9250
v 421.4250 0.0000 -8.9250
v 421.4250 3.0000 -8.9250
v 418.5750 3.0000 -8.9250
v 421.4250 0.0000 -6.0750
v 418.5750 0.0000 -6.0750
v 418.5750 3.0000 -6.0750
v 421.4250 3.0000 -6.0750
v 421.4250 0.0000 -8.9250
v 421.4250 0.0000 -6.0750
v 421.4250 3.0000 -6.0750
v 421.4250 3.0000 -8.9250
v 418.5750 0.0000 -6.0750
v 418.5750 0.0000 -8.9250
v 418.5750 3.0000 -8.9250
v 418.5750 3.0000 -6.0750
v 421.0750 0.0000 -8.9250
v 421.0750 0.0000 -6.0750
v 423.9250 0.0000 -6.0750
v 423.9250 0.0000 -8.9250
v 421.0750 3.0000 -8.9250
v 423.9250 3.0000 -8.9250
v 423.9250 3.0000 -6.0750
v 421.0750 3.0000 -6.0750
v 421.0750 0.0000 -8.9250
v 423.9250 0.0000 -8.9250
v 423.9250 3.0000 -8.9250
v 421.0750 3.0000 -8.9250
v 423.9250 0.0000 -6.0750
v 421.0750 0.0000 -6.0750
v 421.0750 3.0000 -6.0750
v 423.9250 3.0000 -6.0750
v 423.9250 0.0000 -8.9250
v 423.9250 0.0000 -6.0750
v 423.9250 3.0000 -6.0750
v 423.9250 3.0000 -8.9250
v 421.0750 0.0000 -6.0750
v 421.0750 0.0000 -8.9250
v 421.0750 3.0000 -8.9250
v 421.0750 3.0000 -6.0750
v 426.0750 0.0000 -8.9250
v 426.0750 0.0000 -6.0750
v 428.9250 0.0000 -6.0750
v 428.9250 0.0000 -8.9250
v 426.0750 3.0000 -8.9250
v 428.9250 3.0000 -8.9250
v 428.9250 3.0000 -6.0750
v 426.0750 3.0000 -6.0750
v 426.0750 0.0000 -8.9250
v 428.9250 0.0000 -8.9250
v 428.9250 3.0000 -8.9250
v 426.0750 3.0000 -8.9250
v 428.9250 0.0000 -6.0750
v 426.0750 0.0000 -6.0750
v 426.0750 3.0000 -6.0750
v 428.9250 3.0000 -6.0750
v 428.9250 0.0000 -8.9250
v 428.9250 0.0000 -6.0750
v 428.9250 3.0000 -6.0750
v 428.9250 3.0000 -8.9250
v 426.0750 0.0000 -6.0750
v 426.0750 0.0000 -8.9250
v 426.0750 3.0000 -8.9250
v 426.0750 3.0000 -6.0750
v 431.0750 0.0000 -8.9250
v 431.0750 0.0000 -6.0750
v 433.9250 0.0000 -6.0750
v 433.9250 0.0000 -8.9250
v 431.0750 3.0000 -8.9250
v 433.9250 3.0000 -8.9250
v 433.9250 3.0000 -6.0750
v 431.0750 3.0000 -6.0750
v 431.0750 0.0000 -8.9250
v 433.9250 0.0000 -8.9250
v 433.9250 3.0000 -8.9250
v 431.0750 3.0000 -8.9250
v 433.9250 0.0000 -6.0750
v 431.0750 0.0000 -6.0750
v 431.0750 3.0000 -6.0750
v 433.9250 3.0000 -6.0750
v 433.9250 0.0000 -8.9250
v 433.9250 0.0000 -6.0750
v 433.9250 3.0000 -6.0750
v 433.9250 3.0000 -8.9250
v 431.0750 0.0000 -6.0750
v 431.0750 0.0000 -8.9250
v 431.0750 3.0000 -8.9250
v 431.0750 3.0000 -6.0750
v 406.0750 0.0000 -6.4250
v 406.0750 0.0000 -3.5750
v 408.9250 0.0000 -3.5750
v 408.9250 0.0000 -6.4250
v 406.0750 3.0000 -6.4250
v 408.9250 3.0000 -6.4250
v 408.9250 3.0000 -3.5750
v 406.0750 3.0000 -3.5750
v 406.0750 0.0000 -6.4250
v 408.9250 0.0000 -6.4250
v 408.9250 3.0000 -6.4250
v 406.0750 3.0000 -6.4250
v 408.9250 0.0000 -3.5750
v 406.0750 0.0000 -3.5750
v 406.0750 3.0000 -3.5750
v 408.9250 3.0000 -3.5750
v 408.9250 0.0000 -6.4250
v 408.9250 0.0000 -3.5750
v 408.9250 3.0000 -3.5750
v 408.9250 3.0000 -6.4250
v 406.0750 0.0000 -3.5750
v 406.0750 0.0000 -6.4250
v 406.0750 3.0000 -6.4250
v 406.0750 3.0000 -3.5750
v 411.0750 0.0000 -6.4250
v 411.0750 0.0000 -3.5750
v 413.9250 0.0000 -3.5750
v 413.9250 0.0000 -6.4250
v 411.0750 3.0000 -6.4250
v 413.9250 3.0000 -6.4250
v 413.9250 3.0000 -3.5750
v 411.0750 3.0000 -3.5750
v 411.0750 0.0000 -6.4250
v 413.9250 0.0000 -6.4250
v 413.9250 3.0000 -6.4250
v 411.0750 3.0000 -6.4250
v 413.9250 0.0000 -3.5750
v 411.0750 0.0000 -3.5750
v 411.0750 3.0000 -3.5750
v 413.9250 3.0000 -3.5750
v 413.9250 0.0000 -6.4250
v 413.9250 0.0000 -3.5750
v 413.9250 3.0000 -3.5750
v 413.9250 3.0000 -6.4250
v 411.0750 0.0000 -3.5750
v 411.0750 0.0000 -6.4250
v 411.0750 3.0000 -6.4250
v 411.0750 3.0000 -3.5750
v 431.0750 0.0000 -6.4250
v 431.0750 0.0000 -3.5750
v 433.9250 0.0000 -3.5750
v 433.9250 0.0000 -6.4250
v 431.0750 3.0000 -6.4250
v 433.9250 3.0000 -6.4250
v 433.9250 3.0000 -3.5750
v 431.0750 3.0000 -3.5750
v 431.0750 0.0000 -6.4250
v 433.9250 0.0000 -6.4250
v 433.9250 3.0000 -6.4250
v 431.0750 3.0000 -6.4250
v 433.9250 0.0000 -3.5750
v 431.0750 0.0000 -3.5750
v 431.0750 3.0000 -3.5750
v 433.9250 3.0000 -3.5750
v 433.9250 0.0000 -6.4250
v 433.9250 0.0000 -3.5750
v 433.9250 3.0000 -3.5750
v 433.9250 3.0000 -6.4250
v 431.0750 0.0000 -3.5750
v 431.0750 0.0000 -6.4250
v 431.0750 3.0000 -6.4250
v 431.0750 3.0000 -3.5750
v 406.0750 0.0000 -3.9250
v 406.0750 0.0000 -1.0750
v 408.9250 0.0000 -1.0750
v 408.9250 0.0000 -3.9250
v 406.0750 3.0000 -3.9250
v 408.9250 3.0000 -3.9250
v 408.9250 3.0000 -1.0750
v 406.0750 3.0000 -1.0750
v 406.0750 0.0000 -3.9250
v 408.9250 0.0000 -3.9250
v 408.9250 3.0000 -3.9250
v 406.0750 3.0000 -3.9250
v 408.9250 0.0000 -1.0750
v 406.0750 0.0000 -1.0750
v 406.0750 3.0000 -1.0750
v 408.9250 3.0000 -1.0750
v 408.9250 0.0000 -3.9250
v 408.9250 0.0000 -1.0750
v 408.9250 3.0000 -1.0750
v 408.9250 3.0000 -3.9250
v 406.0750 0.0000 -1.0750
v 406.0750 0.0000 -3.9250
v 406.0750 3.0000 -3.9250
v 406.0750 3.0000 -1.0750
v 411.0750 0.0000 -3.9250
v 411.0750 0.0000 -1.0750
v 413.9250 0.0000 -1.0750
v 413.9250 0.0000 -3.9250
v 411.0750 3.0000 -3.9250
v 413.9250 3.0000 -3.9250
v 413.9250 3.0000 -1.0750
v 411.0750 3.0000 -1.0750
v 411.0750 0.0000 -3.9250
v 413.9250 0.0000 -3.9250
v 413.9250 3.0000 -3.9250
v 411.0750 3.0000 -3.9250
v 413.9250 0.0000 -1.0750
v 411.0750 0.0000 -1.0750
v 411.0750 3.0000 -1.0750
v 413.9250 3.0000 -1.0750
v 413.9250 0.0000 -3.9250
v 413.9250 0.0000 -1.0750
v 413.9250 3.0000 -1.0750
v 413.9250 3.0000 -3.9250
v 411.0750 0.0000 -1.0750
v 411.0750 0.0000 -3.9250
v 411.0750 3.0000 -3.9250
v 411.0750 3.0000 -1.0750
v 416.0750 0.0000 -3.9250
v 418.9250 0.0000 -3.9250
v 418.9250 0.0000 -1.0750
v 416.0750 0.0000 -1.0750
v 416.0750 3.0000 -3.9250
v 418.9250 3.0000 -3.9250
v 418.9250 3.0000 -1.0750
v 416.0750 3.0000 -1.0750
v 421.0750 0.0000 -3.9250
v 421.0750 0.0000 -1.0750
v 423.9250 0.0000 -1.0750
v 423.9250 0.0000 -3.9250
v 421.0750 3.0000 -3.9250
v 423.9250 3.0000 -3.9250
v 423.9250 3.0000 -1.0750
v 421.0750 3.0000 -1.0750
v 421.0750 0.0000 -3.9250
v 423.9250 0.0000 -3.9250
v 423.9250 3.0000 -3.9250
v 421.0750 3.0000 -3.9250
v 423.9250 0.0000 -1.0750
v 421.0750 0.0000 -1.0750
v 421.0750 3.0000 -1.0750
v 423.9250 3.0000 -1.0750
v 423.9250 0.0000 -3.9250
v 423.9250 0.0000 -1.0750
v 423.9250 3.0000 -1.0750
v 423.9250 3.0000 -3.9250
v 421.0750 0.0000 -1.0750
v 421.0750 0.0000 -3.9250
v 421.0750 3.0000 -3.9250
v 421.0750 3.0000 -1.0750
v 423.5750 0.0000 -3.9250
v 423.5750 0.0000 -1.0750
v 426.4250 0.0000 -1.0750
v 426.4250 0.0000 -3.9250
v 423.5750 3.0000 -3.9250
v 426.4250 3.0000 -3.9250
v 426.4250 3.0000 -1.0750
v 423.5750 3.0000 -1.0750
v 423.5750 0.0000 -3.9250
v 426.4250 0.0000 -3.9250
v 426.4250 3.0000 -3.9250
v 423.5750 3.0000 -3.9250
v 426.4250 0.0000 -1.0750
v 423.5750 0.0000 -1.0750
v 423.5750 3.0000 -1.0750
v 426.4250 3.0000 -1.0750
v 426.4250 0.0000 -3.9250
v 426.4250 0.0000 -1.0750
v 426.4250 3.0000 -1.0750
v 426.4250 3.0000 -3.9250
v 423.5750 0.0000 -1.0750
v 423.5750 0.0000 -3.9250
v 423.5750 3.0000 -3.9250
v 423.5750 3.0000 -1.0750
v 426.0750 0.0000 -3.9250
v 426.0750 0.0000 -1.0750
v 428.9250 0.0000 -1.0750
v 428.9250 0.0000 -3.9250
v 426.0750 3.0000 -3.9250
v 428.9250 3.0000 -3.9250
v 428.9250 3.0000 -1.0750
v 426.0750 3.0000 -1.0750
v 426.0750 0.0000 -3.9250
v 428.9250 0.0000 -3.9250
v 428.9250 3.0000 -3.9250
v 426.0750 3.0000 -3.9250
v 428.9250 0.0000 -1.0750
v 426.0750 0.0000 -1.0750
v 426.0750 3.0000 -1.0750
v 428.9250 3.0000 -1.0750
v 428.9250 0.0000 -3.9250
v 428.9250 0.0000 -1.0750
v 428.9250 3.0000 -1.0750
v 428.9250 3.0000 -3.9250
v 426.0750 0.0000 -1.0750
v 426.0750 0.0000 -3.9250
v 426.0750 3.0000 -3.9250
v 426.0750 3.0000 -1.0750
v 431.0750 0.0000 -3.9250
v 431.0750 0.0000 -1.0750
v 433.9250 0.0000 -1.0750
v 433.9250 0.0000 -3.9250
v 431.0750 3.0000 -3.9250
v 433.9250 3.0000 -3.9250
v 433.9250 3.0000 -1.0750
v 431.0750 3.0000 -1.0750
v 431.0750 0.0000 -3.9250
v 433.9250 0.0000 -3.9250
v 433.9250 3.0000 -3.9250
v 431.0750 3.0000 -3.9250
v 433.9250 0.0000 -1.0750
v 431.0750 0.0000 -1.0750
v 431.0750 3.0000 -1.0750
v 433.9250 3.0000 -1.0750
v 433.9250 0.0000 -3.9250
v 433.9250 0.0000 -1.0750
v 433.9250 3.0000 -1.0750
v 433.9250 3.0000 -3.9250
v 431.0750 0.0000 -1.0750
v 431.0750 0.0000 -3.9250
v 431.0750 3.0000 -3.9250
v 431.0750 3.0000 -1.0750
v 433.5750 0.0000 -3.9250
v 436.4250 0.0000 -3.9250
v 436.4250 0.0000 -1.0750
v 433.5750 0.0000 -1.0750
v 433.5750 3.0000 -3.9250
v 436.4250 3.0000 -3.9250
v 436.4250 3.0000 -1.0750
v 433.5750 3.0000 -1.0750
v 406.0750 0.0000 -1.4250
v 406.0750 0.0000 1.4250
v 408.9250 0.0000 1.4250
v 408.9250 0.0000 -1.4250
v 406.0750 3.0000 -1.4250
v 408.9250 3.0000 -1.4250
v 408.9250 3.0000 1.4250
v 406.0750 3.0000 1.4250
v 406.0750 0.0000 -1.4250
v 408.9250 0.0000 -1.4250
v 408.9250 3.0000 -1.4250
v 406.0750 3.0000 -1.4250
v 408.9250 0.0000 1.4250
v 406.0750 0.0000 1.4250
v 406.0750 3.0000 1.4250
v 408.9250 3.0000 1.4250
v 408.9250 0.0000 -1.4250
v 408.9250 0.0000 1.4250
v 408.9250 3.0000 1.4250
v 408.9250 3.0000 -1.4250
v 406.0750 0.0000 1.4250
v 406.0750 0.0000 -1.4250
v 406.0750 3.0000 -1.4250
v 406.0750 3.0000 1.4250
v 411.0750 0.0000 -1.4250
v 411.0750 0.0000 1.4250
v 413.9250 0.0000 1.4250
v 413.9250 0.0000 -1.4250
v 411.0750 3.0000 -1.4250
v 413.9250 3.0000 -1.4250
v 413.9250 3.0000 1.4250
v 411.0750 3.0000 1.4250
v 411.0750 0.0000 -1.4250
v 413.9250 0.0000 -1.4250
v 413.9250 3.0000 -1.4250
v 411.0750 3.0000 -1.4250
v 413.9250 0.0000 1.4250
v 411.0750 0.0000 1.4250
v 411.0750 3.0000 1.4250
v 413.9250 3.0000 1.4250
v 413.9250 0.0000 -1.4250
v 413.9250 0.0000 1.4250
v 413.9250 3.0000 1.4250
v 413.9250 3.0000 -1.4250
v 411.0750 0.0000 1.4250
v 411.0750 0.0000 -1.4250
v 411.0750 3.0000 -1.4250
v 411.0750 3.0000 1.4250
v 416.0750 0.0000 -1.4250
v 418.9250 0.0000 -1.4250
v 418.9250 0.0000 1.4250
v 416.0750 0.0000 1.4250
v 416.0750 3.0000 -1.4250
v 418.9250 3.0000 -1.4250
v 418.9250 3.0000 1.4250
v 416.0750 3.0000 1.4250
v 426.0750 0.0000 -1.4250
v 426.0750 0.0000 1.4250
v 428.9250 0.0000 1.4250
v 428.9250 0.0000 -1.4250
v 426.0750 3.0000 -1.4250
v 428.9250 3.0000 -1.4250
v 428.9250 3.0000 1.4250
v 426.0750 3.0000 1.4250
v 426.0750 0.0000 -1.4250
v 428.9250 0.0000 -1.4250
v 428.9250 3.0000 -1.4250
v 426.0750 3.0000 -1.4250
v 428.9250 0.0000 1.4250
v 426.0750 0.0000 1.4250
v 426.0750 3.0000 1.4250
v 428.9250 3.0000 1.4250
v 428.9250 0.0000 -1.4250
v 428.9250 0.0000 1.4250
v 428.9250 3.0000 1.4250
v 428.9250 3.0000 -1.4250
v 426.0750 0.0000 1.4250
v 426.0750 0.0000 -1.4250
v 426.0750 3.0000 -1.4250
v 426.0750 3.0000 1.4250
v 406.0750 0.0000 1.0750
v 406.0750 0.0000 3.9250
v 408.9250 0.0000 3.9250
v 408.9250 0.0000 1.0750
v 406.0750 3.0000 1.0750
v 408.9250 3.0000 1.0750
v 408.9250 3.0000 3.9250
v 406.0750 3.0000 3.9250
v 406.0750 0.0000 1.0750
v 408.9250 0.0000 1.0750
v 408.9250 3.0000 1.0750
v 406.0750 3.0000 1.0750
v 408.9250 0.0000 3.9250
v 406.0750 0.0000 3.9250
v 406.0750 3.0000 3.9250
v 408.9250 3.0000 3.9250
v 408.9250 0.0000 1.0750
v 408.9250 0.0000 3.9250
v 408.9250 3.0000 3.9250
v 408.9250 3.0000 1.0750
v 406.0750 0.0000 3.9250
v 406.0750 0.0000 1.0750
v 406.0750 3.0000 1.0750
v 406.0750 3.0000 3.9250
v 411.0750 0.0000 1.0750
v 413.9250 0.0000 1.0750
v 413.9250 0.0000 3.9250
v 411.0750 0.0000 3.9250
v 411.0750 3.0000 1.0750
v 413.9250 3.0000 1.0750
v 413.9250 3.0000 3.9250
v 411.0750 3.0000 3.9250
v 416.0750 0.0000 1.0750
v 416.0750 0.0000 3.9250
v 418.9250 0.0000 3.9250
v 418.9250 0.0000 1.0750
v 416.0750 3.0000 1.0750
v 418.9250 3.0000 1.0750
v 418.9250 3.0000 3.9250
v 416.0750 3.0000 3.9250
v 416.0750 0.0000 1.0750
v 418.9250 0.0000 1.0750
v 418.9250 3.0000 1.0750
v 416.0750 3.0000 1.0750
v 418.9250 0.0000 3.9250
v 416.0750 0.0000 3.9250
v 416.0750 3.0000 3.9250
v 418.9250 3.0000 3.9250
v 418.9250 0.0000 1.0750
v 418.9250 0.0000 3.9250
v 418.9250 3.0000 3.9250
v 418.9250 3.0000 1.0750
v 416.0750 0.0000 3.9250
v 416.0750 0.0000 1.0750
v 416.0750 3.0000 1.0750
v 416.0750 3.0000 3.9250
v 421.0750 0.0000 1.0750
v 421.0750 0.0000 3.9250
v 423.9250 0.0000 3.9250
v 423.9250 0.0000 1.0750
v 421.0750 3.0000 1.0750
v 423.9250 3.0000 1.0750
v 423.9250 3.0000 3.9250
v 421.0750 3.0000 3.9250
v 421.0750 0.0000 1.0750
v 423.9250 0.0000 1.0750
v 423.9250 3.0000 1.0750
v 421.0750 3.0000 1.0750
v 423.9250 0.0000 3.9250
v 421.0750 0.0000 3.9250
v 421.0750 3.0000 3.9250
v 423.9250 3.0000 3.9250
v 423.9250 0.0000 1.0750
v 423.9250 0.0000 3.9250
v 423.9250 3.0000 3.9250
v 423.9250 3.0000 1.0750
v 421.0750 0.0000 3.9250
v 421.0750 0.0000 1.0750
v 421.0750 3.0000 1.0750
v 421.0750 3.0000 3.9250
v 426.0750 0.0000 1.0750
v 426.0750 0.0000 3.9250
v 428.9250 0.0000 3.9250
v 428.9250 0.0000 1.0750
v 426.0750 3.0000 1.0750
v 428.9250 3.0000 1.0750
v 428.9250 3.0000 3.9250
v 426.0750 3.0000 3.9250
v 426.0750 0.0000 1.0750
v 428.9250 0.0000 1.0750
v 428.9250 3.0000 1.0750
v 426.0750 3.0000 1.0750
v 428.9250 0.0000 3.9250
v 426.0750 0.0000 3.9250
v 426.0750 3.0000 3.9250
v 428.9250 3.0000 3.9250
v 428.9250 0.0000 1.0750
v 428.9250 0.0000 3.9250
v 428.9250 3.0000 3.9250
v 428.9250 3.0000 1.0750
v 426.0750 0.0000 3.9250
v 426.0750 0.0000 1.0750
v 426.0750 3.0000 1.0750
v 426.0750 3.0000 3.9250
v 431.0750 0.0000 1.0750
v 433.9250 0.0000 1.0750
v 433.9250 0.0000 3.9250
v 431.0750 0.0000 3.9250
v 431.0750 3.0000 1.0750
v 433.9250 3.0000 1.0750
v 433.9250 3.0000 3.9250
v 431.0750 3.0000 3.9250
v 433.5750 0.0000 1.0750
v 436.4250 0.0000 1.0750
v 436.4250 0.0000 3.9250
v 433.5750 0.0000 3.9250
v 433.5750 3.0000 1.0750
v 436.4250 3.0000 1.0750
v 436.4250 3.0000 3.9250
v 433.5750 3.0000 3.9250
v 406.0750 0.0000 3.5750
v 408.9250 0.0000 3.5750
v 408.9250 0.0000 6.4250
v 406.0750 0.0000 6.4250
v 406.0750 3.0000 3.5750
v 408.9250 3.0000 3.5750
v 408.9250 3.0000 6.4250
v 406.0750 3.0000 6.4250
v 411.0750 0.0000 3.5750
v 411.0750 0.0000 6.4250
v 413.9250 0.0000 6.4250
v 413.9250 0.0000 3.5750
v 411.0750 3.0000 3.5750
v 413.9250 3.0000 3.5750
v 413.9250 3.0000 6.4250
v 411.0750 3.0000 6.4250
v 411.0750 0.0000 3.5750
v 413.9250 0.0000 3.5750
v 413.9250 3.0000 3.5750
v 411.0750 3.0000 3.5750
v 413.9250 0.0000 6.4250
v 411.0750 0.0000 6.4250
v 411.0750 3.0000 6.4250
v 413.9250 3.0000 6.4250
v 413.9250 0.0000 3.5750
v 413.9250 0.0000 6.4250
v 413.9250 3.0000 6.4250
v 413.9250 3.0000 3.5750
v 411.0750 0.0000 6.4250
v 411.0750 0.0000 3.5750
v 411.0750 3.0000 3.5750
v 411.0750 3.0000 6.4250
v 421.0750 0.0000 3.5750
v 421.0750 0.0000 6.4250
v 423.9250 0.0000 6.4250
v 423.9250 0.0000 3.5750
v 421.0750 3.0000 3.5750
v 423.9250 3.0000 3.5750
v 423.9250 3.0000 6.4250
v 421.0750 3.0000 6.4250
v 421.0750 0.0000 3.5750
v 423.9250 0.0000 3.5750
v 423.9250 3.0000 3.5750
v 421.0750 3.0000 3.5750
v 423.9250 0.0000 6.4250
v 421.0750 0.0000 6.4250
v 421.0750 3.0000 6.4250
v 423.9250 3.0000 6.4250
v 423.9250 0.0000 3.5750
v 423.9250 0.0000 6.4250
v 423.9250 3.0000 6.4250
v 423.9250 3.0000 3.5750
v 421.0750 0.0000 6.4250
v 421.0750 0.0000 3.5750
v 421.0750 3.0000 3.5750
v 421.0750 3.0000 6.4250
v 409.8250 2.7600 -20.1750
v 410.1750 2.7600 -20.1750
v 410.1750 2.7600 -19.8250
v 409.8250 2.7600 -19.8250
v 409.8250 2.8800 -20.1750
v 410.1750 2.8800 -20.1750
v 410.1750 2.8800 -19.8250
v 409.8250 2.8800 -19.8250
v 419.8250 2.7600 -20.1750
v 420.1750 2.7600 -20.1750
v 420.1750 2.7600 -19.8250
v 419.8250 2.7600 -19.8250
v 419.8250 2.8800 -20.1750
v 420.1750 2.8800 -20.1750
v 420.1750 2.8800 -19.8250
v 419.8250 2.8800 -19.8250
v 434.8250 2.7600 -20.1750
v 435.1750 2.7600 -20.1750
v 435.1750 2.7600 -19.8250
v 434.8250 2.7600 -19.8250
v 434.8250 2.8800 -20.1750
v 435.1750 2.8800 -20.1750
v 435.1750 2.8800 -19.8250
v 434.8250 2.8800 -19.8250
v 409.8250 2.7600 -15.1750
v 410.1750 2.7600 -15.1750
v 410.1750 2.7600 -14.8250
v 409.8250 2.7600 -14.8250
v 409.8250 2.8800 -15.1750
v 410.1750 2.8800 -15.1750
v 410.1750 2.8800 -14.8250
v 409.8250 2.8800 -14.8250
v 424.8250 2.7600 -15.1750
v 425.1750 2.7600 -15.1750
v 425.1750 2.7600 -14.8250
v 424.8250 2.7600 -14.8250
v 424.8250 2.8800 -15.1750
v 425.1750 2.8800 -15.1750
v 425.1750 2.8800 -14.8250
v 424.8250 2.8800 -14.8250
v 429.8250 2.7600 -15.1750
v 430.1750 2.7600 -15.1750
v 430.1750 2.7600 -14.8250
v 429.8250 2.7600 -14.8250
v 429.8250 2.8800 -15.1750
v 430.1750 2.8800 -15.1750
v 430.1750 2.8800 -14.8250
v 429.8250 2.8800 -14.8250
v 414.8250 2.7600 -10.1750
v 415.1750 2.7600 -10.1750
v 415.1750 2.7600 -9.8250
v 414.8250 2.7600 -9.8250
v 414.8250 2.8800 -10.1750
v 415.1750 2.8800 -10.1750
v 415.1750 2.8800 -9.8250
v 414.8250 2.8800 -9.8250
v 419.8250 2.7600 -10.1750
v 420.1750 2.7600 -10.1750
v 420.1750 2.7600 -9.8250
v 419.8250 2.7600 -9.8250
v 419.8250 2.8800 -10.1750
v 420.1750 2.8800 -10.1750
v 420.1750 2.8800 -9.8250
v 419.8250 2.8800 -9.8250
v 419.8250 2.7600 -5.1750
v 420.1750 2.7600 -5.1750
v 420.1750 2.7600 -4.8250
v 419.8250 2.7600 -4.8250
v 419.8250 2.8800 -5.1750
v 420.1750 2.8800 -5.1750
v 420.1750 2.8800 -4.8250
v 419.8250 2.8800 -4.8250
v 434.8250 2.7600 -5.1750
v 435.1750 2.7600 -5.1750
v 435.1750 2.7600 -4.8250
v 434.8250 2.7600 -4.8250
v 434.8250 2.8800 -5.1750
v 435.1750 2.8800 -5.1750
v 435.1750 2.8800 -4.8250
v 434.8250 2.8800 -4.8250
v 409.8250 2.7600 4.8250
v 410.1750 2.7600 4.8250
v 410.1750 2.7600 5.1750
v 409.8250 2.7600 5.1750
v 409.8250 2.8800 4.8250
v 410.1750 2.8800 4.8250
v 410.1750 2.8800 5.1750
v 409.8250 2.8800 5.1750
v 424.8250 2.7600 4.8250
v 425.1750 2.7600 4.8250
v 425.1750 2.7600 5.1750
v 424.8250 2.7600 5.1750
v 424.8250 2.8800 4.8250
v 425.1750 2.8800 4.8250
v 425.1750 2.8800 5.1750
v 424.8250 2.8800 5.1750
v 407.6200 2.6000 -7.5000
v 407.6200 2.6000 -7.5000
v 407.5849 2.6000 -7.4151
v 407.5849 2.6000 -7.4151
v 407.5000 2.6000 -7.3800
v 407.5000 2.6000 -7.3800
v 407.4151 2.6000 -7.4151
v 407.4151 2.6000 -7.4151
v 407.3800 2.6000 -7.5000
v 407.3800 2.6000 -7.5000
v 407.4151 2.6000 -7.5849
v 407.4151 2.6000 -7.5849
v 407.5000 2.6000 -7.6200
v 407.5000 2.6000 -7.6200
v 407.5849 2.6000 -7.5849
v 407.5849 2.6000 -7.5849
v 407.5000 2.6000 -7.5000
v 407.5000 2.6000 -7.5000
v 407.5000 2.4800 -7.6200
v 435.0000 2.4800 -7.6200
v 435.0000 2.4800 -7.3800
v 407.5000 2.4800 -7.3800
v 407.5000 2.7200 -7.6200
v 435.0000 2.7200 -7.6200
v 435.0000 2.7200 -7.3800
v 407.5000 2.7200 -7.3800
vt 203.0375 -11.9625
vt 203.0375 -10.5375
vt 204.4625 -10.5375
vt 204.4625 -11.9625
vt 203.0375 -11.9625
vt 204.4625 -11.9625
vt 204.4625 -10.5375
vt 203.0375 -10.5375
vt 203.0375 0.0000
vt 204.4625 0.0000
vt 204.4625 1.5000
vt 203.0375 1.5000
vt 204.4625 0.0000
vt 203.0375 0.0000
vt 203.0375 1.5000
vt 204.4625 1.5000
vt -11.9625 0.0000
vt -10.5375 0.0000
vt -10.5375 1.5000
vt -11.9625 1.5000
vt -10.5375 0.0000
vt -11.9625 0.0000
vt -11.9625 1.5000
vt -10.5375 1.5000
vt 205.5375 -11.9625
vt 205.5375 -10.5375
vt 206.9625 -10.5375
vt 206.9625 -11.9625
vt 205.5375 -11.9625
vt 206.9625 -11.9625
vt 206.9625 -10.5375
vt 205.5375 -10.5375
vt 205.5375 0.0000
vt 206.9625 0.0000
vt 206.9625 1.5000
vt 205.5375 1.5000
vt 206.9625 0.0000
vt 205.5375 0.0000
vt 205.5375 1.5000
vt 206.9625 1.5000
vt -11.9625 0.0000
vt -10.5375 0.0000
vt -10.5375 1.5000
vt -11.9625 1.5000
vt -10.5375 0.0000
vt -11.9625 0.0000
vt -11.9625 1.5000
vt -10.5375 1.5000
vt 208.0375 -11.9625
vt 208.0375 -10.5375
vt 209.4625 -10.5375
vt 209.4625 -11.9625
vt 208.0375 -11.9625
vt 209.4625 -11.9625
vt 209.4625 -10.5375
vt 208.0375 -10.5375
vt 208.0375 0.0000
vt 209.4625 0.0000
vt 209.4625 1.5000
vt 208.0375 1.5000
vt 209.4625 0.0000
vt 208.0375 0.0000
vt 208.0375 1.5000
vt 209.4625 1.5000
vt -11.9625 0.0000
vt -10.5375 0.0000
vt -10.5375 1.5000
vt -11.9625 1.5000
vt -10.5375 0.0000
vt -11.9625 0.0000
vt -11.9625 1.5000
vt -10.5375 1.5000
vt 210.5375 -11.9625
vt 210.5375 -10.5375
vt 211.9625 -10.5375
vt 211.9625 -11.9625
vt 210.5375 -11.9625
vt 211.9625 -11.9625
vt 211.9625 -10.5375
vt 210.5375 -10.5375
vt 210.5375 0.0000
vt 211.9625 0.0000
vt 211.9625 1.5000
vt 210.5375 1.5000
vt 211.9625 0.0000
vt 210.5375 0.0000
vt 210.5375 1.5000
vt 211.9625 1.5000
vt -11.9625 0.0000
vt -10.5375 0.0000
vt -10.5375 1.5000
vt -11.9625 1.5000
vt -10.5375 0.0000
vt -11.9625 0.0000
vt -11.9625 1.5000
vt -10.5375 1.5000
vt 213.0375 -11.9625
vt 213.0375 -10.5375
vt 214.4625 -10.5375
vt 214.4625 -11.9625
vt 213.0375 -11.9625
vt 214.4625 -11.9625
vt 214.4625 -10.5375
vt 213.0375 -10.5375
vt 213.0375 0.0000
vt 214.4625 0.0000
vt 214.4625 1.5000
vt 213.0375 1.5000
vt 214.4625 0.0000
vt 213.0375 0.0000
vt 213.0375 1.5000
vt 214.4625 1.5000
vt -11.9625 0.0000
vt -10.5375 0.0000
vt -10.5375 1.5000
vt -11.9625 1.5000
vt -10.5375 0.0000
vt -11.9625 0.0000
vt -11.9625 1.5000
vt -10.5375 1.5000
vt 215.5375 -11.9625
vt 215.5375 -10.5375
vt 216.9625 -10.5375
vt 216.9625 -11.9625
vt 215.5375 -11.9625
vt 216.9625 -11.9625
vt 216.9625 -10.5375
vt 215.5375 -10.5375
vt 215.5375 0.0000
vt 216.9625 0.0000
vt 216.9625 1.5000
vt 215.5375 1.5000
vt 216.9625 0.0000
vt 215.5375 0.0000
vt 215.5375 1.5000
vt 216.9625 1.5000
vt -11.9625 0.0000
vt -10.5375 0.0000
vt -10.5375 1.5000
vt -11.9625 1.5000
vt -10.5375 0.0000
vt -11.9625 0.0000
vt -11.9625 1.5000
vt -10.5375 1.5000
vt 213.0375 -10.7125
vt 213.0375 -9.2875
vt 214.4625 -9.2875
vt 214.4625 -10.7125
vt 213.0375 -10.7125
vt 214.4625 -10.7125
vt 214.4625 -9.2875
vt 213.0375 -9.2875
vt 213.0375 0.0000
vt 214.4625 0.0000
vt 214.4625 1.5000
vt 213.0375 1.5000
vt 214.4625 0.0000
vt 213.0375 0.0000
vt 213.0375 1.5000
vt 214.4625 1.5000
vt -10.7125 0.0000
vt -9.2875 0.0000
vt -9.2875 1.5000
vt -10.7125 1.5000
vt -9.2875 0.0000
vt -10.7125 0.0000
vt -10.7125 1.5000
vt -9.2875 1.5000
vt 215.5375 -10.7125
vt 215.5375 -9.2875
vt 216.9625 -9.2875
vt 216.9625 -10.7125
vt 215.5375 -10.7125
vt 216.9625 -10.7125
vt 216.9625 -9.2875
vt 215.5375 -9.2875
vt 215.5375 0.0000
vt 216.9625 0.0000
vt 216.9625 1.5000
vt 215.5375 1.5000
vt 216.9625 0.0000
vt 215.5375 0.0000
vt 215.5375 1.5000
vt 216.9625 1.5000
vt -10.7125 0.0000
vt -9.2875 0.0000
vt -9.2875 1.5000
vt -10.7125 1.5000
vt -9.2875 0.0000
vt -10.7125 0.0000
vt -10.7125 1.5000
vt -9.2875 1.5000
vt 203.0375 -9.4625
vt 203.0375 -8.0375
vt 204.4625 -8.0375
vt 204.4625 -9.4625
vt 203.0375 -9.4625
vt 204.4625 -9.4625
vt 204.4625 -8.0375
vt 203.0375 -8.0375
vt 203.0375 0.0000
vt 204.4625 0.0000
vt 204.4625 1.5000
vt 203.0375 1.5000
vt 204.4625 0.0000
vt 203.0375 0.0000
vt 203.0375 1.5000
vt 204.4625 1.5000
vt -9.4625 0.0000
vt -8.0375 0.0000
vt -8.0375 1.5000
vt -9.4625 1.5000
vt -8.0375 0.0000
vt -9.4625 0.0000
vt -9.4625 1.5000
vt -8.0375 1.5000
vt 206.7875 -9.4625
vt 206.7875 -8.0375
vt 208.2125 -8.0375
vt 208.2125 -9.4625
vt 206.7875 -9.4625
vt 208.2125 -9.4625
vt 208.2125 -8.0375
vt 206.7875 -8.0375
vt 206.7875 0.0000
vt 208.2125 0.0000
vt 208.2125 1.5000
vt 206.7875 1.5000
vt 208.2125 0.0000
vt 206.7875 0.0000
vt 206.7875 1.5000
vt 208.2125 1.5000
vt -9.4625 0.0000
vt -8.0375 0.0000
vt -8.0375 1.5000
vt -9.4625 1.5000
vt -8.0375 0.0000
vt -9.4625 0.0000
vt -9.4625 1.5000
vt -8.0375 1.5000
vt 208.0375 -9.4625
vt 208.0375 -8.0375
vt 209.4625 -8.0375
vt 209.4625 -9.4625
vt 208.0375 -9.4625
vt 209.4625 -9.4625
vt 209.4625 -8.0375
vt 208.0375 -8.0375
vt 208.0375 0.0000
vt 209.4625 0.0000
vt 209.4625 1.5000
vt 208.0375 1.5000
vt 209.4625 0.0000
vt 208.0375 0.0000
vt 208.0375 1.5000
vt 209.4625 1.5000
vt -9.4625 0.0000
vt -8.0375 0.0000
vt -8.0375 1.5000
vt -9.4625 1.5000
vt -8.0375 0.0000
vt -9.4625 0.0000
vt -9.4625 1.5000
vt -8.0375 1.5000
vt 213.0375 -9.4625
vt 213.0375 -8.0375
vt 214.4625 -8.0375
vt 214.4625 -9.4625
vt 213.0375 -9.4625
vt 214.4625 -9.4625
vt 214.4625 -8.0375
vt 213.0375 -8.0375
vt 213.0375 0.0000
vt 214.4625 0.0000
vt 214.4625 1.5000
vt 213.0375 1.5000
vt 214.4625 0.0000
vt 213.0375 0.0000
vt 213.0375 1.5000
vt 214.4625 1.5000
vt -9.4625 0.0000
vt -8.0375 0.0000
vt -8.0375 1.5000
vt -9.4625 1.5000
vt -8.0375 0.0000
vt -9.4625 0.0000
vt -9.4625 1.5000
vt -8.0375 1.5000
vt 215.5375 -9.4625
vt 215.5375 -8.0375
vt 216.9625 -8.0375
vt 216.9625 -9.4625
vt 215.5375 -9.4625
vt 216.9625 -9.4625
vt 216.9625 -8.0375
vt 215.5375 -8.0375
vt 215.5375 0.0000
vt 216.9625 0.0000
vt 216.9625 1.5000
vt 215.5375 1.5000
vt 216.9625 0.0000
vt 215.5375 0.0000
vt 215.5375 1.5000
vt 216.9625 1.5000
vt -9.4625 0.0000
vt -8.0375 0.0000
vt -8.0375 1.5000
vt -9.4625 1.5000
vt -8.0375 0.0000
vt -9.4625 0.0000
vt -9.4625 1.5000
vt -8.0375 1.5000
vt 208.0375 -8.2125
vt 208.0375 -6.7875
vt 209.4625 -6.7875
vt 209.4625 -8.2125
vt 208.0375 -8.2125
vt 209.4625 -8.2125
vt 209.4625 -6.7875
vt 208.0375 -6.7875
vt 208.0375 0.0000
vt 209.4625 0.0000
vt 209.4625 1.5000
vt 208.0375 1.5000
vt 209.4625 0.0000
vt 208.0375 0.0000
vt 208.0375 1.5000
vt 209.4625 1.5000
vt -8.2125 0.0000
vt -6.7875 0.0000
vt -6.7875 1.5000
vt -8.2125 1.5000
vt -6.7875 0.0000
vt -8.2125 0.0000
vt -8.2125 1.5000
vt -6.7875 1.5000
vt 215.5375 -8.2125
vt 215.5375 -6.7875
vt 216.9625 -6.7875
vt 216.9625 -8.2125
vt 215.5375 -8.2125
vt 216.9625 -8.2125
vt 216.9625 -6.7875
vt 215.5375 -6.7875
vt 215.5375 0.0000
vt 216.9625 0.0000
vt 216.9625 1.5000
vt 215.5375 1.5000
vt 216.9625 0.0000
vt 215.5375 0.0000
vt 215.5375 1.5000
vt 216.9625 1.5000
vt -8.2125 0.0000
vt -6.7875 0.0000
vt -6.7875 1.5000
vt -8.2125 1.5000
vt -6.7875 0.0000
vt -8.2125 0.0000
vt -8.2125 1.5000
vt -6.7875 1.5000
vt 205.5375 -6.9625
vt 205.5375 -5.5375
vt 206.9625 -5.5375
vt 206.9625 -6.9625
vt 205.5375 -6.9625
vt 206.9625 -6.9625
vt 206.9625 -5.5375
vt 205.5375 -5.5375
vt 205.5375 0.0000
vt 206.9625 0.0000
vt 206.9625 1.5000
vt 205.5375 1.5000
vt 206.9625 0.0000
vt 205.5375 0.0000
vt 205.5375 1.5000
vt 206.9625 1.5000
vt -6.9625 0.0000
vt -5.5375 0.0000
vt -5.5375 1.5000
vt -6.9625 1.5000
vt -5.5375 0.0000
vt -6.9625 0.0000
vt -6.9625 1.5000
vt -5.5375 1.5000
vt 208.0375 -6.9625
vt 208.0375 -5.5375
vt 209.4625 -5.5375
vt 209.4625 -6.9625
vt 208.0375 -6.9625
vt 209.4625 -6.9625
vt 209.4625 -5.5375
vt 208.0375 -5.5375
vt 208.0375 0.0000
vt 209.4625 0.0000
vt 209.4625 1.5000
vt 208.0375 1.5000
vt 209.4625 0.0000
vt 208.0375 0.0000
vt 208.0375 1.5000
vt 209.4625 1.5000
vt -6.9625 0.0000
vt -5.5375 0.0000
vt -5.5375 1.5000
vt -6.9625 1.5000
vt -5.5375 0.0000
vt -6.9625 0.0000
vt -6.9625 1.5000
vt -5.5375 1.5000
vt 210.5375 -6.9625
vt 210.5375 -5.5375
vt 211.9625 -5.5375
vt 211.9625 -6.9625
vt 210.5375 -6.9625
vt 211.9625 -6.9625
vt 211.9625 -5.5375
vt 210.5375 -5.5375
vt 210.5375 0.0000
vt 211.9625 0.0000
vt 211.9625 1.5000
vt 210.5375 1.5000
vt 211.9625 0.0000
vt 210.5375 0.0000
vt 210.5375 1.5000
vt 211.9625 1.5000
vt -6.9625 0.0000
vt -5.5375 0.0000
vt -5.5375 1.5000
vt -6.9625 1.5000
vt -5.5375 0.0000
vt -6.9625 0.0000
vt -6.9625 1.5000
vt -5.5375 1.5000
vt 213.0375 -6.9625
vt 213.0375 -5.5375
vt 214.4625 -5.5375
vt 214.4625 -6.9625
vt 213.0375 -6.9625
vt 214.4625 -6.9625
vt 214.4625 -5.5375
vt 213.0375 -5.5375
vt 213.0375 0.0000
vt 214.4625 0.0000
vt 214.4625 1.5000
vt 213.0375 1.5000
vt 214.4625 0.0000
vt 213.0375 0.0000
vt 213.0375 1.5000
vt 214.4625 1.5000
vt -6.9625 0.0000
vt -5.5375 0.0000
vt -5.5375 1.5000
vt -6.9625 1.5000
vt -5.5375 0.0000
vt -6.9625 0.0000
vt -6.9625 1.5000
vt -5.5375 1.5000
vt 215.5375 -6.9625
vt 215.5375 -5.5375
vt 216.9625 -5.5375
vt 216.9625 -6.9625
vt 215.5375 -6.9625
vt 216.9625 -6.9625
vt 216.9625 -5.5375
vt 215.5375 -5.5375
vt 215.5375 0.0000
vt 216.9625 0.0000
vt 216.9625 1.5000
vt 215.5375 1.5000
vt 216.9625 0.0000
vt 215.5375 0.0000
vt 215.5375 1.5000
vt 216.9625 1.5000
vt -6.9625 0.0000
vt -5.5375 0.0000
vt -5.5375 1.5000
vt -6.9625 1.5000
vt -5.5375 0.0000
vt -6.9625 0.0000
vt -6.9625 1.5000
vt -5.5375 1.5000
vt 205.5375 -5.7125
vt 205.5375 -4.2875
vt 206.9625 -4.2875
vt 206.9625 -5.7125
vt 205.5375 -5.7125
vt 206.9625 -5.7125
vt 206.9625 -4.2875
vt 205.5375 -4.2875
vt 205.5375 0.0000
vt 206.9625 0.0000
vt 206.9625 1.5000
vt 205.5375 1.5000
vt 206.9625 0.0000
vt 205.5375 0.0000
vt 205.5375 1.5000
vt 206.9625 1.5000
vt -5.7125 0.0000
vt -4.2875 0.0000
vt -4.2875 1.5000
vt -5.7125 1.5000
vt -4.2875 0.0000
vt -5.7125 0.0000
vt -5.7125 1.5000
vt -4.2875 1.5000
vt 213.0375 -5.7125
vt 213.0375 -4.2875
vt 214.4625 -4.2875
vt 214.4625 -5.7125
vt 213.0375 -5.7125
vt 214.4625 -5.7125
vt 214.4625 -4.2875
vt 213.0375 -4.2875
vt 213.0375 0.0000
vt 214.4625 0.0000
vt 214.4625 1.5000
vt 213.0375 1.5000
vt 214.4625 0.0000
vt 213.0375 0.0000
vt 213.0375 1.5000
vt 214.4625 1.5000
vt -5.7125 0.0000
vt -4.2875 0.0000
vt -4.2875 1.5000
vt -5.7125 1.5000
vt -4.2875 0.0000
vt -5.7125 0.0000
vt -5.7125 1.5000
vt -4.2875 1.5000
vt 215.5375 -5.7125
vt 215.5375 -4.2875
vt 216.9625 -4.2875
vt 216.9625 -5.7125
vt 215.5375 -5.7125
vt 216.9625 -5.7125
vt 216.9625 -4.2875
vt 215.5375 -4.2875
vt 215.5375 0.0000
vt 216.9625 0.0000
vt 216.9625 1.5000
vt 215.5375 1.5000
vt 216.9625 0.0000
vt 215.5375 0.0000
vt 215.5375 1.5000
vt 216.9625 1.5000
vt -5.7125 0.0000
vt -4.2875 0.0000
vt -4.2875 1.5000
vt -5.7125 1.5000
vt -4.2875 0.0000
vt -5.7125 0.0000
vt -5.7125 1.5000
vt -4.2875 1.5000
vt 203.0375 -4.4625
vt 203.0375 -3.0375
vt 204.4625 -3.0375
vt 204.4625 -4.4625
vt 203.0375 -4.4625
vt 204.4625 -4.4625
vt 204.4625 -3.0375
vt 203.0375 -3.0375
vt 203.0375 0.0000
vt 204.4625 0.0000
vt 204.4625 1.5000
vt 203.0375 1.5000
vt 204.4625 0.0000
vt 203.0375 0.0000
vt 203.0375 1.5000
vt 204.4625 1.5000
vt -4.4625 0.0000
vt -3.0375 0.0000
vt -3.0375 1.5000
vt -4.4625 1.5000
vt -3.0375 0.0000
vt -4.4625 0.0000
vt -4.4625 1.5000
vt -3.0375 1.5000
vt 205.5375 -4.4625
vt 205.5375 -3.0375
vt 206.9625 -3.0375
vt 206.9625 -4.4625
vt 205.5375 -4.4625
vt 206.9625 -4.4625
vt 206.9625 -3.0375
vt 205.5375 -3.0375
vt 205.5375 0.0000
vt 206.9625 0.0000
vt 206.9625 1.5000
vt 205.5375 1.5000
vt 206.9625 0.0000
vt 205.5375 0.0000
vt 205.5375 1.5000
vt 206.9625 1.5000
vt -4.4625 0.0000
vt -3.0375 0.0000
vt -3.0375 1.5000
vt -4.4625 1.5000
vt -3.0375 0.0000
vt -4.4625 0.0000
vt -4.4625 1.5000
vt -3.0375 1.5000
vt 208.0375 -4.4625
vt 208.0375 -3.0375
vt 209.4625 -3.0375
vt 209.4625 -4.4625
vt 208.0375 -4.4625
vt 209.4625 -4.4625
vt 209.4625 -3.0375
vt 208.0375 -3.0375
vt 208.0375 0.0000
vt 209.4625 0.0000
vt 209.4625 1.5000
vt 208.0375 1.5000
vt 209.4625 0.0000
vt 208.0375 0.0000
vt 208.0375 1.5000
vt 209.4625 1.5000
vt -4.4625 0.0000
vt -3.0375 0.0000
vt -3.0375 1.5000
vt -4.4625 1.5000
vt -3.0375 0.0000
vt -4.4625 0.0000
vt -4.4625 1.5000
vt -3.0375 1.5000
vt 209.2875 -4.4625
vt 209.2875 -3.0375
vt 210.7125 -3.0375
vt 210.7125 -4.4625
vt 209.2875 -4.4625
vt 210.7125 -4.4625
vt 210.7125 -3.0375
vt 209.2875 -3.0375
vt 209.2875 0.0000
vt 210.7125 0.0000
vt 210.7125 1.5000
vt 209.2875 1.5000
vt 210.7125 0.0000
vt 209.2875 0.0000
vt 209.2875 1.5000
vt 210.7125 1.5000
vt -4.4625 0.0000
vt -3.0375 0.0000
vt -3.0375 1.5000
vt -4.4625 1.5000
vt -3.0375 0.0000
vt -4.4625 0.0000
vt -4.4625 1.5000
vt -3.0375 1.5000
vt 210.5375 -4.4625
vt 210.5375 -3.0375
vt 211.9625 -3.0375
vt 211.9625 -4.4625
vt 210.5375 -4.4625
vt 211.9625 -4.4625
vt 211.9625 -3.0375
vt 210.5375 -3.0375
vt 210.5375 0.0000
vt 211.9625 0.0000
vt 211.9625 1.5000
vt 210.5375 1.5000
vt 211.9625 0.0000
vt 210.5375 0.0000
vt 210.5375 1.5000
vt 211.9625 1.5000
vt -4.4625 0.0000
vt -3.0375 0.0000
vt -3.0375 1.5000
vt -4.4625 1.5000
vt -3.0375 0.0000
vt -4.4625 0.0000
vt -4.4625 1.5000
vt -3.0375 1.5000
vt 213.0375 -4.4625
vt 213.0375 -3.0375
vt 214.4625 -3.0375
vt 214.4625 -4.4625
vt 213.0375 -4.4625
vt 214.4625 -4.4625
vt 214.4625 -3.0375
vt 213.0375 -3.0375
vt 213.0375 0.0000
vt 214.4625 0.0000
vt 214.4625 1.5000
vt 213.0375 1.5000
vt 214.4625 0.0000
vt 213.0375 0.0000
vt 213.0375 1.5000
vt 214.4625 1.5000
vt -4.4625 0.0000
vt -3.0375 0.0000
vt -3.0375 1.5000
vt -4.4625 1.5000
vt -3.0375 0.0000
vt -4.4625 0.0000
vt -4.4625 1.5000
vt -3.0375 1.5000
vt 215.5375 -4.4625
vt 215.5375 -3.0375
vt 216.9625 -3.0375
vt 216.9625 -4.4625
vt 215.5375 -4.4625
vt 216.9625 -4.4625
vt 216.9625 -3.0375
vt 215.5375 -3.0375
vt 215.5375 0.0000
vt 216.9625 0.0000
vt 216.9625 1.5000
vt 215.5375 1.5000
vt 216.9625 0.0000
vt 215.5375 0.0000
vt 215.5375 1.5000
vt 216.9625 1.5000
vt -4.4625 0.0000
vt -3.0375 0.0000
vt -3.0375 1.5000
vt -4.4625 1.5000
vt -3.0375 0.0000
vt -4.4625 0.0000
vt -4.4625 1.5000
vt -3.0375 1.5000
vt 203.0375 -3.2125
vt 203.0375 -1.7875
vt 204.4625 -1.7875
vt 204.4625 -3.2125
vt 203.0375 -3.2125
vt 204.4625 -3.2125
vt 204.4625 -1.7875
vt 203.0375 -1.7875
vt 203.0375 0.0000
vt 204.4625 0.0000
vt 204.4625 1.5000
vt 203.0375 1.5000
vt 204.4625 0.0000
vt 203.0375 0.0000
vt 203.0375 1.5000
vt 204.4625 1.5000
vt -3.2125 0.0000
vt -1.7875 0.0000
vt -1.7875 1.5000
vt -3.2125 1.5000
vt -1.7875 0.0000
vt -3.2125 0.0000
vt -3.2125 1.5000
vt -1.7875 1.5000
vt 205.5375 -3.2125
vt 205.5375 -1.7875
vt 206.9625 -1.7875
vt 206.9625 -3.2125
vt 205.5375 -3.2125
vt 206.9625 -3.2125
vt 206.9625 -1.7875
vt 205.5375 -1.7875
vt 205.5375 0.0000
vt 206.9625 0.0000
vt 206.9625 1.5000
vt 205.5375 1.5000
vt 206.9625 0.0000
vt 205.5375 0.0000
vt 205.5375 1.5000
vt 206.9625 1.5000
vt -3.2125 0.0000
vt -1.7875 0.0000
vt -1.7875 1.5000
vt -3.2125 1.5000
vt -1.7875 0.0000
vt -3.2125 0.0000
vt -3.2125 1.5000
vt -1.7875 1.5000
vt 215.5375 -3.2125
vt 215.5375 -1.7875
vt 216.9625 -1.7875
vt 216.9625 -3.2125
vt 215.5375 -3.2125
vt 216.9625 -3.2125
vt 216.9625 -1.7875
vt 215.5375 -1.7875
vt 215.5375 0.0000
vt 216.9625 0.0000
vt 216.9625 1.5000
vt 215.5375 1.5000
vt 216.9625 0.0000
vt 215.5375 0.0000
vt 215.5375 1.5000
vt 216.9625 1.5000
vt -3.2125 0.0000
vt -1.7875 0.0000
vt -1.7875 1.5000
vt -3.2125 1.5000
vt -1.7875 0.0000
vt -3.2125 0.0000
vt -3.2125 1.5000
vt -1.7875 1.5000
vt 203.0375 -1.9625
vt 203.0375 -0.5375
vt 204.4625 -0.5375
vt 204.4625 -1.9625
vt 203.0375 -1.9625
vt 204.4625 -1.9625
vt 204.4625 -0.5375
vt 203.0375 -0.5375
vt 203.0375 0.0000
vt 204.4625 0.0000
vt 204.4625 1.5000
vt 203.0375 1.5000
vt 204.4625 0.0000
vt 203.0375 0.0000
vt 203.0375 1.5000
vt 204.4625 1.5000
vt -1.9625 0.0000
vt -0.5375 0.0000
vt -0.5375 1.5000
vt -1.9625 1.5000
vt -0.5375 0.0000
vt -1.9625 0.0000
vt -1.9625 1.5000
vt -0.5375 1.5000
vt 205.5375 -1.9625
vt 205.5375 -0.5375
vt 206.9625 -0.5375
vt 206.9625 -1.9625
vt 205.5375 -1.9625
vt 206.9625 -1.9625
vt 206.9625 -0.5375
vt 205.5375 -0.5375
vt 205.5375 0.0000
vt 206.9625 0.0000
vt 206.9625 1.5000
vt 205.5375 1.5000
vt 206.9625 0.0000
vt 205.5375 0.0000
vt 205.5375 1.5000
vt 206.9625 1.5000
vt -1.9625 0.0000
vt -0.5375 0.0000
vt -0.5375 1.5000
vt -1.9625 1.5000
vt -0.5375 0.0000
vt -1.9625 0.0000
vt -1.9625 1.5000
vt -0.5375 1.5000
vt 210.5375 -1.9625
vt 210.5375 -0.5375
vt 211.9625 -0.5375
vt 211.9625 -1.9625
vt 210.5375 -1.9625
vt 211.9625 -1.9625
vt 211.9625 -0.5375
vt 210.5375 -0.5375
vt 210.5375 0.0000
vt 211.9625 0.0000
vt 211.9625 1.5000
vt 210.5375 1.5000
vt 211.9625 0.0000
vt 210.5375 0.0000
vt 210.5375 1.5000
vt 211.9625 1.5000
vt -1.9625 0.0000
vt -0.5375 0.0000
vt -0.5375 1.5000
vt -1.9625 1.5000
vt -0.5375 0.0000
vt -1.9625 0.0000
vt -1.9625 1.5000
vt -0.5375 1.5000
vt 211.7875 -1.9625
vt 211.7875 -0.5375
vt 213.2125 -0.5375
vt 213.2125 -1.9625
vt 211.7875 -1.9625
vt 213.2125 -1.9625
vt 213.2125 -0.5375
vt 211.7875 -0.5375
vt 211.7875 0.0000
vt 213.2125 0.0000
vt 213.2125 1.5000
vt 211.7875 1.5000
vt 213.2125 0.0000
vt 211.7875 0.0000
vt 211.7875 1.5000
vt 213.2125 1.5000
vt -1.9625 0.0000
vt -0.5375 0.0000
vt -0.5375 1.5000
vt -1.9625 1.5000
vt -0.5375 0.0000
vt -1.9625 0.0000
vt -1.9625 1.5000
vt -0.5375 1.5000
vt 213.0375 -1.9625
vt 213.0375 -0.5375
vt 214.4625 -0.5375
vt 214.4625 -1.9625
vt 213.0375 -1.9625
vt 214.4625 -1.9625
vt 214.4625 -0.5375
vt 213.0375 -0.5375
vt 213.0375 0.0000
vt 214.4625 0.0000
vt 214.4625 1.5000
vt 213.0375 1.5000
vt 214.4625 0.0000
vt 213.0375 0.0000
vt 213.0375 1.5000
vt 214.4625 1.5000
vt -1.9625 0.0000
vt -0.5375 0.0000
vt -0.5375 1.5000
vt -1.9625 1.5000
vt -0.5375 0.0000
vt -1.9625 0.0000
vt -1.9625 1.5000
vt -0.5375 1.5000
vt 215.5375 -1.9625
vt 215.5375 -0.5375
vt 216.9625 -0.5375
vt 216.9625 -1.9625
vt 215.5375 -1.9625
vt 216.9625 -1.9625
vt 216.9625 -0.5375
vt 215.5375 -0.5375
vt 215.5375 0.0000
vt 216.9625 0.0000
vt 216.9625 1.5000
vt 215.5375 1.5000
vt 216.9625 0.0000
vt 215.5375 0.0000
vt 215.5375 1.5000
vt 216.9625 1.5000
vt -1.9625 0.0000
vt -0.5375 0.0000
vt -0.5375 1.5000
vt -1.9625 1.5000
vt -0.5375 0.0000
vt -1.9625 0.0000
vt -1.9625 1.5000
vt -0.5375 1.5000
vt 203.0375 -0.7125
vt 203.0375 0.7125
vt 204.4625 0.7125
vt 204.4625 -0.7125
vt 203.0375 -0.7125
vt 204.4625 -0.7125
vt 204.4625 0.7125
vt 203.0375 0.7125
vt 203.0375 0.0000
vt 204.4625 0.0000
vt 204.4625 1.5000
vt 203.0375 1.5000
vt 204.4625 0.0000
vt 203.0375 0.0000
vt 203.0375 1.5000
vt 204.4625 1.5000
vt -0.7125 0.0000
vt 0.7125 0.0000
vt 0.7125 1.5000
vt -0.7125 1.5000
vt 0.7125 0.0000
vt -0.7125 0.0000
vt -0.7125 1.5000
vt 0.7125 1.5000
vt 205.5375 -0.7125
vt 205.5375 0.7125
vt 206.9625 0.7125
vt 206.9625 -0.7125
vt 205.5375 -0.7125
vt 206.9625 -0.7125
vt 206.9625 0.7125
vt 205.5375 0.7125
vt 205.5375 0.0000
vt 206.9625 0.0000
vt 206.9625 1.5000
vt 205.5375 1.5000
vt 206.9625 0.0000
vt 205.5375 0.0000
vt 205.5375 1.5000
vt 206.9625 1.5000
vt -0.7125 0.0000
vt 0.7125 0.0000
vt 0.7125 1.5000
vt -0.7125 1.5000
vt 0.7125 0.0000
vt -0.7125 0.0000
vt -0.7125 1.5000
vt 0.7125 1.5000
vt 213.0375 -0.7125
vt 213.0375 0.7125
vt 214.4625 0.7125
vt 214.4625 -0.7125
vt 213.0375 -0.7125
vt 214.4625 -0.7125
vt 214.4625 0.7125
vt 213.0375 0.7125
vt 213.0375 0.0000
vt 214.4625 0.0000
vt 214.4625 1.5000
vt 213.0375 1.5000
vt 214.4625 0.0000
vt 213.0375 0.0000
vt 213.0375 1.5000
vt 214.4625 1.5000
vt -0.7125 0.0000
vt 0.7125 0.0000
vt 0.7125 1.5000
vt -0.7125 1.5000
vt 0.7125 0.0000
vt -0.7125 0.0000
vt -0.7125 1.5000
vt 0.7125 1.5000
vt 203.0375 0.5375
vt 203.0375 1.9625
vt 204.4625 1.9625
vt 204.4625 0.5375
vt 203.0375 0.5375
vt 204.4625 0.5375
vt 204.4625 1.9625
vt 203.0375 1.9625
vt 203.0375 0.0000
vt 204.4625 0.0000
vt 204.4625 1.5000
vt 203.0375 1.5000
vt 204.4625 0.0000
vt 203.0375 0.0000
vt 203.0375 1.5000
vt 204.4625 1.5000
vt 0.5375 0.0000
vt 1.9625 0.0000
vt 1.9625 1.5000
vt 0.5375 1.5000
vt 1.9625 0.0000
vt 0.5375 0.0000
vt 0.5375 1.5000
vt 1.9625 1.5000
vt 208.0375 0.5375
vt 208.0375 1.9625
vt 209.4625 1.9625
vt 209.4625 0.5375
vt 208.0375 0.5375
vt 209.4625 0.5375
vt 209.4625 1.9625
vt 208.0375 1.9625
vt 208.0375 0.0000
vt 209.4625 0.0000
vt 209.4625 1.5000
vt 208.0375 1.5000
vt 209.4625 0.0000
vt 208.0375 0.0000
vt 208.0375 1.5000
vt 209.4625 1.5000
vt 0.5375 0.0000
vt 1.9625 0.0000
vt 1.9625 1.5000
vt 0.5375 1.5000
vt 1.9625 0.0000
vt 0.5375 0.0000
vt 0.5375 1.5000
vt 1.9625 1.5000
vt 210.5375 0.5375
vt 210.5375 1.9625
vt 211.9625 1.9625
vt 211.9625 0.5375
vt 210.5375 0.5375
vt 211.9625 0.5375
vt 211.9625 1.9625
vt 210.5375 1.9625
vt 210.5375 0.0000
vt 211.9625 0.0000
vt 211.9625 1.5000
vt 210.5375 1.5000
vt 211.9625 0.0000
vt 210.5375 0.0000
vt 210.5375 1.5000
vt 211.9625 1.5000
vt 0.5375 0.0000
vt 1.9625 0.0000
vt 1.9625 1.5000
vt 0.5375 1.5000
vt 1.9625 0.0000
vt 0.5375 0.0000
vt 0.5375 1.5000
vt 1.9625 1.5000
vt 213.0375 0.5375
vt 213.0375 1.9625
vt 214.4625 1.9625
vt 214.4625 0.5375
vt 213.0375 0.5375
vt 214.4625 0.5375
vt 214.4625 1.9625
vt 213.0375 1.9625
vt 213.0375 0.0000
vt 214.4625 0.0000
vt 214.4625 1.5000
vt 213.0375 1.5000
vt 214.4625 0.0000
vt 213.0375 0.0000
vt 213.0375 1.5000
vt 214.4625 1.5000
vt 0.5375 0.0000
vt 1.9625 0.0000
vt 1.9625 1.5000
vt 0.5375 1.5000
vt 1.9625 0.0000
vt 0.5375 0.0000
vt 0.5375 1.5000
vt 1.9625 1.5000
vt 205.5375 1.7875
vt 205.5375 3.2125
vt 206.9625 3.2125
vt 206.9625 1.7875
vt 205.5375 1.7875
vt 206.9625 1.7875
vt 206.9625 3.2125
vt 205.5375 3.2125
vt 205.5375 0.0000
vt 206.9625 0.0000
vt 206.9625 1.5000
vt 205.5375 1.5000
vt 206.9625 0.0000
vt 205.5375 0.0000
vt 205.5375 1.5000
vt 206.9625 1.5000
vt 1.7875 0.0000
vt 3.2125 0.0000
vt 3.2125 1.5000
vt 1.7875 1.5000
vt 3.2125 0.0000
vt 1.7875 0.0000
vt 1.7875 1.5000
vt 3.2125 1.5000
vt 210.5375 1.7875
vt 210.5375 3.2125
vt 211.9625 3.2125
vt 211.9625 1.7875
vt 210.5375 1.7875
vt 211.9625 1.7875
vt 211.9625 3.2125
vt 210.5375 3.2125
vt 210.5375 0.0000
vt 211.9625 0.0000
vt 211.9625 1.5000
vt 210.5375 1.5000
vt 211.9625 0.0000
vt 210.5375 0.0000
vt 210.5375 1.5000
vt 211.9625 1.5000
vt 1.7875 0.0000
vt 3.2125 0.0000
vt 3.2125 1.5000
vt 1.7875 1.5000
vt 3.2125 0.0000
vt 1.7875 0.0000
vt 1.7875 1.5000
vt 3.2125 1.5000
usemtl rust
f 25 28 27 26
f 29 30 31 32
f 25 26 30 29
f 27 28 32 31
f 26 27 31 30
f 28 25 29 32
f 81 84 83 82
f 85 86 87 88
f 81 82 86 85
f 83 84 88 87
f 82 83 87 86
f 84 81 85 88
f 233 236 235 234
f 237 238 239 240
f 233 234 238 237
f 235 236 240 239
f 234 235 239 238
f 236 233 237 240
f 865 868 867 866
f 869 870 871 872
f 865 866 870 869
f 867 868 872 871
f 866 867 871 870
f 868 865 869 872
f 969 972 971 970
f 973 974 975 976
f 969 970 974 973
f 971 972 976 975
f 970 971 975 974
f 972 969 973 976
f 1025 1028 1027 1026
f 1029 1030 1031 1032
f 1025 1026 1030 1029
f 1027 1028 1032 1031
f 1026 1027 1031 1030
f 1028 1025 1029 1032
f 1081 1084 1083 1082
f 1085 1086 1087 1088
f 1081 1082 1086 1085
f 1083 1084 1088 1087
f 1082 1083 1087 1086
f 1084 1081 1085 1088
f 1161 1164 1163 1162
f 1165 1166 1167 1168
f 1161 1162 1166 1165
f 1163 1164 1168 1167
f 1162 1163 1167 1166
f 1164 1161 1165 1168
f 1169 1172 1171 1170
f 1173 1174 1175 1176
f 1169 1170 1174 1173
f 1171 1172 1176 1175
f 1170 1171 1175 1174
f 1172 1169 1173 1176
f 1177 1180 1179 1178
f 1181 1182 1183 1184
f 1177 1178 1182 1181
f 1179 1180 1184 1183
f 1178 1179 1183 1182
f 1180 1177 1181 1184
usemtl lamp_sick
f 1233 1236 1235 1234
f 1237 1238 1239 1240
f 1233 1234 1238 1237
f 1235 1236 1240 1239
f 1234 1235 1239 1238
f 1236 1233 1237 1240
f 1241 1244 1243 1242
f 1245 1246 1247 1248
f 1241 1242 1246 1245
f 1243 1244 1248 1247
f 1242 1243 1247 1246
f 1244 1241 1245 1248
f 1249 1252 1251 1250
f 1253 1254 1255 1256
f 1249 1250 1254 1253
f 1251 1252 1256 1255
f 1250 1251 1255 1254
f 1252 1249 1253 1256
f 1257 1260 1259 1258
f 1261 1262 1263 1264
f 1257 1258 1262 1261
f 1259 1260 1264 1263
f 1258 1259 1263 1262
f 1260 1257 1261 1264
f 1265 1268 1267 1266
f 1269 1270 1271 1272
f 1265 1266 1270 1269
f 1267 1268 1272 1271
f 1266 1267 1271 1270
f 1268 1265 1269 1272
f 1273 1276 1275 1274
f 1277 1278 1279 1280
f 1273 1274 1278 1277
f 1275 1276 1280 1279
f 1274 1275 1279 1278
f 1276 1273 1277 1280
f 1281 1284 1283 1282
f 1285 1286 1287 1288
f 1281 1282 1286 1285
f 1283 1284 1288 1287
f 1282 1283 1287 1286
f 1284 1281 1285 1288
f 1289 1292 1291 1290
f 1293 1294 1295 1296
f 1289 1290 1294 1293
f 1291 1292 1296 1295
f 1290 1291 1295 1294
f 1292 1289 1293 1296
f 1297 1300 1299 1298
f 1301 1302 1303 1304
f 1297 1298 1302 1301
f 1299 1300 1304 1303
f 1298 1299 1303 1302
f 1300 1297 1301 1304
f 1305 1308 1307 1306
f 1309 1310 1311 1312
f 1305 1306 1310 1309
f 1307 1308 1312 1311
f 1306 1307 1311 1310
f 1308 1305 1309 1312
f 1313 1316 1315 1314
f 1317 1318 1319 1320
f 1313 1314 1318 1317
f 1315 1316 1320 1319
f 1314 1315 1319 1318
f 1316 1313 1317 1320
f 1321 1324 1323 1322
f 1325 1326 1327 1328
f 1321 1322 1326 1325
f 1323 1324 1328 1327
f 1322 1323 1327 1326
f 1324 1321 1325 1328
usemtl pipe
f 1329 1331 1332 1330
f 1331 1333 1334 1332
f 1333 1335 1336 1334
f 1335 1337 1338 1336
f 1337 1339 1340 1338
f 1339 1341 1342 1340
f 1341 1343 1344 1342
f 1343 1329 1330 1344
f 1345 1330 1332
f 1346 1331 1329
f 1345 1332 1334
f 1346 1333 1331
f 1345 1334 1336
f 1346 1335 1333
f 1345 1336 1338
f 1346 1337 1335
f 1345 1338 1340
f 1346 1339 1337
f 1345 1340 1342
f 1346 1341 1339
f 1345 1342 1344
f 1346 1343 1341
f 1345 1344 1330
f 1346 1329 1343
f 1347 1350 1349 1348
f 1351 1352 1353 1354
f 1347 1348 1352 1351
f 1349 1350 1354 1353
f 1348 1349 1353 1352
f 1350 1347 1351 1354
usemtl grime_wall
f 1/1 2/2 3/3 4/4
f 5/5 6/6 7/7 8/8
f 9/9 10/10 11/11 12/12
f 13/13 14/14 15/15 16/16
f 17/17 18/18 19/19 20/20
f 21/21 22/22 23/23 24/24
f 33/25 34/26 35/27 36/28
f 37/29 38/30 39/31 40/32
f 41/33 42/34 43/35 44/36
f 45/37 46/38 47/39 48/40
f 49/41 50/42 51/43 52/44
f 53/45 54/46 55/47 56/48
f 57/49 58/50 59/51 60/52
f 61/53 62/54 63/55 64/56
f 65/57 66/58 67/59 68/60
f 69/61 70/62 71/63 72/64
f 73/65 74/66 75/67 76/68
f 77/69 78/70 79/71 80/72
f 89/73 90/74 91/75 92/76
f 93/77 94/78 95/79 96/80
f 97/81 98/82 99/83 100/84
f 101/85 102/86 103/87 104/88
f 105/89 106/90 107/91 108/92
f 109/93 110/94 111/95 112/96
f 113/97 114/98 115/99 116/100
f 117/101 118/102 119/103 120/104
f 121/105 122/106 123/107 124/108
f 125/109 126/110 127/111 128/112
f 129/113 130/114 131/115 132/116
f 133/117 134/118 135/119 136/120
f 137/121 138/122 139/123 140/124
f 141/125 142/126 143/127 144/128
f 145/129 146/130 147/131 148/132
f 149/133 150/134 151/135 152/136
f 153/137 154/138 155/139 156/140
f 157/141 158/142 159/143 160/144
f 161/145 162/146 163/147 164/148
f 165/149 166/150 167/151 168/152
f 169/153 170/154 171/155 172/156
f 173/157 174/158 175/159 176/160
f 177/161 178/162 179/163 180/164
f 181/165 182/166 183/167 184/168
f 185/169 186/170 187/171 188/172
f 189/173 190/174 191/175 192/176
f 193/177 194/178 195/179 196/180
f 197/181 198/182 199/183 200/184
f 201/185 202/186 203/187 204/188
f 205/189 206/190 207/191 208/192
f 209/193 210/194 211/195 212/196
f 213/197 214/198 215/199 216/200
f 217/201 218/202 219/203 220/204
f 221/205 222/206 223/207 224/208
f 225/209 226/210 227/211 228/212
f 229/213 230/214 231/215 232/216
f 241/217 242/218 243/219 244/220
f 245/221 246/222 247/223 248/224
f 249/225 250/226 251/227 252/228
f 253/229 254/230 255/231 256/232
f 257/233 258/234 259/235 260/236
f 261/237 262/238 263/239 264/240
f 265/241 266/242 267/243 268/244
f 269/245 270/246 271/247 272/248
f 273/249 274/250 275/251 276/252
f 277/253 278/254 279/255 280/256
f 281/257 282/258 283/259 284/260
f 285/261 286/262 287/263 288/264
f 289/265 290/266 291/267 292/268
f 293/269 294/270 295/271 296/272
f 297/273 298/274 299/275 300/276
f 301/277 302/278 303/279 304/280
f 305/281 306/282 307/283 308/284
f 309/285 310/286 311/287 312/288
f 313/289 314/290 315/291 316/292
f 317/293 318/294 319/295 320/296
f 321/297 322/298 323/299 324/300
f 325/301 326/302 327/303 328/304
f 329/305 330/306 331/307 332/308
f 333/309 334/310 335/311 336/312
f 337/313 338/314 339/315 340/316
f 341/317 342/318 343/319 344/320
f 345/321 346/322 347/323 348/324
f 349/325 350/326 351/327 352/328
f 353/329 354/330 355/331 356/332
f 357/333 358/334 359/335 360/336
f 361/337 362/338 363/339 364/340
f 365/341 366/342 367/343 368/344
f 369/345 370/346 371/347 372/348
f 373/349 374/350 375/351 376/352
f 377/353 378/354 379/355 380/356
f 381/357 382/358 383/359 384/360
f 385/361 386/362 387/363 388/364
f 389/365 390/366 391/367 392/368
f 393/369 394/370 395/371 396/372
f 397/373 398/374 399/375 400/376
f 401/377 402/378 403/379 404/380
f 405/381 406/382 407/383 408/384
f 409/385 410/386 411/387 412/388
f 413/389 414/390 415/391 416/392
f 417/393 418/394 419/395 420/396
f 421/397 422/398 423/399 424/400
f 425/401 426/402 427/403 428/404
f 429/405 430/406 431/407 432/408
f 433/409 434/410 435/411 436/412
f 437/413 438/414 439/415 440/416
f 441/417 442/418 443/419 444/420
f 445/421 446/422 447/423 448/424
f 449/425 450/426 451/427 452/428
f 453/429 454/430 455/431 456/432
f 457/433 458/434 459/435 460/436
f 461/437 462/438 463/439 464/440
f 465/441 466/442 467/443 468/444
f 469/445 470/446 471/447 472/448
f 473/449 474/450 475/451 476/452
f 477/453 478/454 479/455 480/456
f 481/457 482/458 483/459 484/460
f 485/461 486/462 487/463 488/464
f 489/465 490/466 491/467 492/468
f 493/469 494/470 495/471 496/472
f 497/473 498/474 499/475 500/476
f 501/477 502/478 503/479 504/480
f 505/481 506/482 507/483 508/484
f 509/485 510/486 511/487 512/488
f 513/489 514/490 515/491 516/492
f 517/493 518/494 519/495 520/496
f 521/497 522/498 523/499 524/500
f 525/501 526/502 527/503 528/504
f 529/505 530/506 531/507 532/508
f 533/509 534/510 535/511 536/512
f 537/513 538/514 539/515 540/516
f 541/517 542/518 543/519 544/520
f 545/521 546/522 547/523 548/524
f 549/525 550/526 551/527 552/528
f 553/529 554/530 555/531 556/532
f 557/533 558/534 559/535 560/536
f 561/537 562/538 563/539 564/540
f 565/541 566/542 567/543 568/544
f 569/545 570/546 571/547 572/548
f 573/549 574/550 575/551 576/552
f 577/553 578/554 579/555 580/556
f 581/557 582/558 583/559 584/560
f 585/561 586/562 587/563 588/564
f 589/565 590/566 591/567 592/568
f 593/569 594/570 595/571 596/572
f 597/573 598/574 599/575 600/576
f 601/577 602/578 603/579 604/580
f 605/581 606/582 607/583 608/584
f 609/585 610/586 611/587 612/588
f 613/589 614/590 615/591 616/592
f 617/593 618/594 619/595 620/596
f 621/597 622/598 623/599 624/600
f 625/601 626/602 627/603 628/604
f 629/605 630/606 631/607 632/608
f 633/609 634/610 635/611 636/612
f 637/613 638/614 639/615 640/616
f 641/617 642/618 643/619 644/620
f 645/621 646/622 647/623 648/624
f 649/625 650/626 651/627 652/628
f 653/629 654/630 655/631 656/632
f 657/633 658/634 659/635 660/636
f 661/637 662/638 663/639 664/640
f 665/641 666/642 667/643 668/644
f 669/645 670/646 671/647 672/648
f 673/649 674/650 675/651 676/652
f 677/653 678/654 679/655 680/656
f 681/657 682/658 683/659 684/660
f 685/661 686/662 687/663 688/664
f 689/665 690/666 691/667 692/668
f 693/669 694/670 695/671 696/672
f 697/673 698/674 699/675 700/676
f 701/677 702/678 703/679 704/680
f 705/681 706/682 707/683 708/684
f 709/685 710/686 711/687 712/688
f 713/689 714/690 715/691 716/692
f 717/693 718/694 719/695 720/696
f 721/697 722/698 723/699 724/700
f 725/701 726/702 727/703 728/704
f 729/705 730/706 731/707 732/708
f 733/709 734/710 735/711 736/712
f 737/713 738/714 739/715 740/716
f 741/717 742/718 743/719 744/720
f 745/721 746/722 747/723 748/724
f 749/725 750/726 751/727 752/728
f 753/729 754/730 755/731 756/732
f 757/733 758/734 759/735 760/736
f 761/737 762/738 763/739 764/740
f 765/741 766/742 767/743 768/744
f 769/745 770/746 771/747 772/748
f 773/749 774/750 775/751 776/752
f 777/753 778/754 779/755 780/756
f 781/757 782/758 783/759 784/760
f 785/761 786/762 787/763 788/764
f 789/765 790/766 791/767 792/768
f 793/769 794/770 795/771 796/772
f 797/773 798/774 799/775 800/776
f 801/777 802/778 803/779 804/780
f 805/781 806/782 807/783 808/784
f 809/785 810/786 811/787 812/788
f 813/789 814/790 815/791 816/792
f 817/793 818/794 819/795 820/796
f 821/797 822/798 823/799 824/800
f 825/801 826/802 827/803 828/804
f 829/805 830/806 831/807 832/808
f 833/809 834/810 835/811 836/812
f 837/813 838/814 839/815 840/816
f 841/817 842/818 843/819 844/820
f 845/821 846/822 847/823 848/824
f 849/825 850/826 851/827 852/828
f 853/829 854/830 855/831 856/832
f 857/833 858/834 859/835 860/836
f 861/837 862/838 863/839 864/840
f 873/841 874/842 875/843 876/844
f 877/845 878/846 879/847 880/848
f 881/849 882/850 883/851 884/852
f 885/853 886/854 887/855 888/856
f 889/857 890/858 891/859 892/860
f 893/861 894/862 895/863 896/864
f 897/865 898/866 899/867 900/868
f 901/869 902/870 903/871 904/872
f 905/873 906/874 907/875 908/876
f 909/877 910/878 911/879 912/880
f 913/881 914/882 915/883 916/884
f 917/885 918/886 919/887 920/888
f 921/889 922/890 923/891 924/892
f 925/893 926/894 927/895 928/896
f 929/897 930/898 931/899 932/900
f 933/901 934/902 935/903 936/904
f 937/905 938/906 939/907 940/908
f 941/909 942/910 943/911 944/912
f 945/913 946/914 947/915 948/916
f 949/917 950/918 951/919 952/920
f 953/921 954/922 955/923 956/924
f 957/925 958/926 959/927 960/928
f 961/929 962/930 963/931 964/932
f 965/933 966/934 967/935 968/936
f 977/937 978/938 979/939 980/940
f 981/941 982/942 983/943 984/944
f 985/945 986/946 987/947 988/948
f 989/949 990/950 991/951 992/952
f 993/953 994/954 995/955 996/956
f 997/957 998/958 999/959 1000/960
f 1001/961 1002/962 1003/963 1004/964
f 1005/965 1006/966 1007/967 1008/968
f 1009/969 1010/970 1011/971 1012/972
f 1013/973 1014/974 1015/975 1016/976
f 1017/977 1018/978 1019/979 1020/980
f 1021/981 1022/982 1023/983 1024/984
f 1033/985 1034/986 1035/987 1036/988
f 1037/989 1038/990 1039/991 1040/992
f 1041/993 1042/994 1043/995 1044/996
f 1045/997 1046/998 1047/999 1048/1000
f 1049/1001 1050/1002 1051/1003 1052/1004
f 1053/1005 1054/1006 1055/1007 1056/1008
f 1057/1009 1058/1010 1059/1011 1060/1012
f 1061/1013 1062/1014 1063/1015 1064/1016
f 1065/1017 1066/1018 1067/1019 1068/1020
f 1069/1021 1070/1022 1071/1023 1072/1024
f 1073/1025 1074/1026 1075/1027 1076/1028
f 1077/1029 1078/1030 1079/1031 1080/1032
f 1089/1033 1090/1034 1091/1035 1092/1036
f 1093/1037 1094/1038 1095/1039 1096/1040
f 1097/1041 1098/1042 1099/1043 1100/1044
f 1101/1045 1102/1046 1103/1047 1104/1048
f 1105/1049 1106/1050 1107/1051 1108/1052
f 1109/1053 1110/1054 1111/1055 1112/1056
f 1113/1057 1114/1058 1115/1059 1116/1060
f 1117/1061 1118/1062 1119/1063 1120/1064
f 1121/1065 1122/1066 1123/1067 1124/1068
f 1125/1069 1126/1070 1127/1071 1128/1072
f 1129/1073 1130/1074 1131/1075 1132/1076
f 1133/1077 1134/1078 1135/1079 1136/1080
f 1137/1081 1138/1082 1139/1083 1140/1084
f 1141/1085 1142/1086 1143/1087 1144/1088
f 1145/1089 1146/1090 1147/1091 1148/1092
f 1149/1093 1150/1094 1151/1095 1152/1096
f 1153/1097 1154/1098 1155/1099 1156/1100
f 1157/1101 1158/1102 1159/1103 1160/1104
f 1185/1105 1186/1106 1187/1107 1188/1108
f 1189/1109 1190/1110 1191/1111 1192/1112
f 1193/1113 1194/1114 1195/1115 1196/1116
f 1197/1117 1198/1118 1199/1119 1200/1120
f 1201/1121 1202/1122 1203/1123 1204/1124
f 1205/1125 1206/1126 1207/1127 1208/1128
f 1209/1129 1210/1130 1211/1131 1212/1132
f 1213/1133 1214/1134 1215/1135 1216/1136
f 1217/1137 1218/1138 1219/1139 1220/1140
f 1221/1141 1222/1142 1223/1143 1224/1144
f 1225/1145 1226/1146 1227/1147 1228/1148
f 1229/1149 1230/1150 1231/1151 1232/1152
