# RoastEngine Backrooms level
mtllib backrooms.mtl
v 836.9500 0.0000 9.9500
v 836.9500 0.0000 12.5500
v 839.5500 0.0000 12.5500
v 839.5500 0.0000 9.9500
v 836.9500 3.0000 9.9500
v 839.5500 3.0000 9.9500
v 839.5500 3.0000 12.5500
v 836.9500 3.0000 12.5500
v 836.9500 0.0000 9.9500
v 839.5500 0.0000 9.9500
v 839.5500 3.0000 9.9500
v 836.9500 3.0000 9.9500
v 839.5500 0.0000 12.5500
v 836.9500 0.0000 12.5500
v 836.9500 3.0000 12.5500
v 839.5500 3.0000 12.5500
v 839.5500 0.0000 9.9500
v 839.5500 0.0000 12.5500
v 839.5500 3.0000 12.5500
v 839.5500 3.0000 9.9500
v 836.9500 0.0000 12.5500
v 836.9500 0.0000 9.9500
v 836.9500 3.0000 9.9500
v 836.9500 3.0000 12.5500
v 836.9500 0.0000 18.9500
v 836.9500 0.0000 21.5500
v 839.5500 0.0000 21.5500
v 839.5500 0.0000 18.9500
v 836.9500 3.0000 18.9500
v 839.5500 3.0000 18.9500
v 839.5500 3.0000 21.5500
v 836.9500 3.0000 21.5500
v 836.9500 0.0000 18.9500
v 839.5500 0.0000 18.9500
v 839.5500 3.0000 18.9500
v 836.9500 3.0000 18.9500
v 839.5500 0.0000 21.5500
v 836.9500 0.0000 21.5500
v 836.9500 3.0000 21.5500
v 839.5500 3.0000 21.5500
v 839.5500 0.0000 18.9500
v 839.5500 0.0000 21.5500
v 839.5500 3.0000 21.5500
v 839.5500 3.0000 18.9500
v 836.9500 0.0000 21.5500
v 836.9500 0.0000 18.9500
v 836.9500 3.0000 18.9500
v 836.9500 3.0000 21.5500
v 839.2000 0.0000 18.9500
v 839.2000 0.0000 21.5500
v 841.8000 0.0000 21.5500
v 841.8000 0.0000 18.9500
v 839.2000 3.0000 18.9500
v 841.8000 3.0000 18.9500
v 841.8000 3.0000 21.5500
v 839.2000 3.0000 21.5500
v 839.2000 0.0000 18.9500
v 841.8000 0.0000 18.9500
v 841.8000 3.0000 18.9500
v 839.2000 3.0000 18.9500
v 841.8000 0.0000 21.5500
v 839.2000 0.0000 21.5500
v 839.2000 3.0000 21.5500
v 841.8000 3.0000 21.5500
v 841.8000 0.0000 18.9500
v 841.8000 0.0000 21.5500
v 841.8000 3.0000 21.5500
v 841.8000 3.0000 18.9500
v 839.2000 0.0000 21.5500
v 839.2000 0.0000 18.9500
v 839.2000 3.0000 18.9500
v 839.2000 3.0000 21.5500
v 836.9500 0.0000 27.9500
v 836.9500 0.0000 30.5500
v 839.5500 0.0000 30.5500
v 839.5500 0.0000 27.9500
v 836.9500 3.0000 27.9500
v 839.5500 3.0000 27.9500
v 839.5500 3.0000 30.5500
v 836.9500 3.0000 30.5500
v 836.9500 0.0000 27.9500
v 839.5500 0.0000 27.9500
v 839.5500 3.0000 27.9500
v 836.9500 3.0000 27.9500
v 839.5500 0.0000 30.5500
v 836.9500 0.0000 30.5500
v 836.9500 3.0000 30.5500
v 839.5500 3.0000 30.5500
v 839.5500 0.0000 27.9500
v 839.5500 0.0000 30.5500
v 839.5500 3.0000 30.5500
v 839.5500 3.0000 27.9500
v 836.9500 0.0000 30.5500
v 836.9500 0.0000 27.9500
v 836.9500 3.0000 27.9500
v 836.9500 3.0000 30.5500
v 836.9500 0.0000 32.4500
v 836.9500 0.0000 35.0500
v 839.5500 0.0000 35.0500
v 839.5500 0.0000 32.4500
v 836.9500 3.0000 32.4500
v 839.5500 3.0000 32.4500
v 839.5500 3.0000 35.0500
v 836.9500 3.0000 35.0500
v 836.9500 0.0000 32.4500
v 839.5500 0.0000 32.4500
v 839.5500 3.0000 32.4500
v 836.9500 3.0000 32.4500
v 839.5500 0.0000 35.0500
v 836.9500 0.0000 35.0500
v 836.9500 3.0000 35.0500
v 839.5500 3.0000 35.0500
v 839.5500 0.0000 32.4500
v 839.5500 0.0000 35.0500
v 839.5500 3.0000 35.0500
v 839.5500 3.0000 32.4500
v 836.9500 0.0000 35.0500
v 836.9500 0.0000 32.4500
v 836.9500 3.0000 32.4500
v 836.9500 3.0000 35.0500
v 836.9500 0.0000 34.7000
v 836.9500 0.0000 37.3000
v 839.5500 0.0000 37.3000
v 839.5500 0.0000 34.7000
v 836.9500 3.0000 34.7000
v 839.5500 3.0000 34.7000
v 839.5500 3.0000 37.3000
v 836.9500 3.0000 37.3000
v 836.9500 0.0000 34.7000
v 839.5500 0.0000 34.7000
v 839.5500 3.0000 34.7000
v 836.9500 3.0000 34.7000
v 839.5500 0.0000 37.3000
v 836.9500 0.0000 37.3000
v 836.9500 3.0000 37.3000
v 839.5500 3.0000 37.3000
v 839.5500 0.0000 34.7000
v 839.5500 0.0000 37.3000
v 839.5500 3.0000 37.3000
v 839.5500 3.0000 34.7000
v 836.9500 0.0000 37.3000
v 836.9500 0.0000 34.7000
v 836.9500 3.0000 34.7000
v 836.9500 3.0000 37.3000
v 840.3500 2.7000 13.3500
v 840.6500 2.7000 13.3500
v 840.6500 2.7000 13.6500
v 840.3500 2.7000 13.6500
v 840.3500 2.8600 13.3500
v 840.6500 2.8600 13.3500
v 840.6500 2.8600 13.6500
v 840.3500 2.8600 13.6500
v 840.3100 2.8600 13.3100
v 840.6900 2.8600 13.3100
v 840.6900 2.8600 13.6900
v 840.3100 2.8600 13.6900
v 840.3100 2.9400 13.3100
v 840.6900 2.9400 13.3100
v 840.6900 2.9400 13.6900
v 840.3100 2.9400 13.6900
v 840.3500 2.7000 17.8500
v 840.6500 2.7000 17.8500
v 840.6500 2.7000 18.1500
v 840.3500 2.7000 18.1500
v 840.3500 2.8600 17.8500
v 840.6500 2.8600 17.8500
v 840.6500 2.8600 18.1500
v 840.3500 2.8600 18.1500
v 840.3100 2.8600 17.8100
v 840.6900 2.8600 17.8100
v 840.6900 2.8600 18.1900
v 840.3100 2.8600 18.1900
v 840.3100 2.9400 17.8100
v 840.6900 2.9400 17.8100
v 840.6900 2.9400 18.1900
v 840.3100 2.9400 18.1900
v 840.0000 0.0000 28.9750
v 841.0000 0.0000 28.9750
v 841.0000 0.0000 29.5250
v 840.0000 0.0000 29.5250
v 840.0000 1.7000 28.9750
v 841.0000 1.7000 28.9750
v 841.0000 1.7000 29.5250
v 840.0000 1.7000 29.5250
v 840.0500 1.4900 28.9350
v 840.9500 1.4900 28.9350
v 840.9500 1.4900 28.9650
v 840.0500 1.4900 28.9650
v 840.0500 1.6100 28.9350
v 840.9500 1.6100 28.9350
v 840.9500 1.6100 28.9650
v 840.0500 1.6100 28.9650
v 840.0000 0.0000 33.4750
v 841.0000 0.0000 33.4750
v 841.0000 0.0000 34.0250
v 840.0000 0.0000 34.0250
v 840.0000 1.7000 33.4750
v 841.0000 1.7000 33.4750
v 841.0000 1.7000 34.0250
v 840.0000 1.7000 34.0250
v 840.0500 1.4900 33.4350
v 840.9500 1.4900 33.4350
v 840.9500 1.4900 33.4650
v 840.0500 1.4900 33.4650
v 840.0500 1.6100 33.4350
v 840.9500 1.6100 33.4350
v 840.9500 1.6100 33.4650
v 840.0500 1.6100 33.4650
v 838.3700 2.6000 20.2500
v 838.3700 2.6000 20.2500
v 838.3349 2.6000 20.3349
v 838.3349 2.6000 20.3349
v 838.2500 2.6000 20.3700
v 838.2500 2.6000 20.3700
v 838.1651 2.6000 20.3349
v 838.1651 2.6000 20.3349
v 838.1300 2.6000 20.2500
v 838.1300 2.6000 20.2500
v 838.1651 2.6000 20.1651
v 838.1651 2.6000 20.1651
v 838.2500 2.6000 20.1300
v 838.2500 2.6000 20.1300
v 838.3349 2.6000 20.1651
v 838.3349 2.6000 20.1651
v 838.2500 2.6000 20.2500
v 838.2500 2.6000 20.2500
v 838.2500 2.4800 20.1300
v 842.7500 2.4800 20.1300
v 842.7500 2.4800 20.3700
v 838.2500 2.4800 20.3700
v 838.2500 2.7200 20.1300
v 842.7500 2.7200 20.1300
v 842.7500 2.7200 20.3700
v 838.2500 2.7200 20.3700
v 838.3700 2.6000 24.7500
v 838.3700 2.6000 24.7500
v 838.3349 2.6000 24.8349
v 838.3349 2.6000 24.8349
v 838.2500 2.6000 24.8700
v 838.2500 2.6000 24.8700
v 838.1651 2.6000 24.8349
v 838.1651 2.6000 24.8349
v 838.1300 2.6000 24.7500
v 838.1300 2.6000 24.7500
v 838.1651 2.6000 24.6651
v 838.1651 2.6000 24.6651
v 838.2500 2.6000 24.6300
v 838.2500 2.6000 24.6300
v 838.3349 2.6000 24.6651
v 838.3349 2.6000 24.6651
v 838.2500 2.6000 24.7500
v 838.2500 2.6000 24.7500
v 838.2500 2.4800 24.6300
v 842.7500 2.4800 24.6300
v 842.7500 2.4800 24.8700
v 838.2500 2.4800 24.8700
v 838.2500 2.7200 24.6300
v 842.7500 2.7200 24.6300
v 842.7500 2.7200 24.8700
v 838.2500 2.7200 24.8700
v 838.3700 2.6000 29.2500
v 838.3700 2.6000 29.2500
v 838.3349 2.6000 29.3349
v 838.3349 2.6000 29.3349
v 838.2500 2.6000 29.3700
v 838.2500 2.6000 29.3700
v 838.1651 2.6000 29.3349
v 838.1651 2.6000 29.3349
v 838.1300 2.6000 29.2500
v 838.1300 2.6000 29.2500
v 838.1651 2.6000 29.1651
v 838.1651 2.6000 29.1651
v 838.2500 2.6000 29.1300
v 838.2500 2.6000 29.1300
v 838.3349 2.6000 29.1651
v 838.3349 2.6000 29.1651
v 838.2500 2.6000 29.2500
v 838.2500 2.6000 29.2500
v 838.2500 2.4800 29.1300
v 842.7500 2.4800 29.1300
v 842.7500 2.4800 29.3700
v 838.2500 2.4800 29.3700
v 838.2500 2.7200 29.1300
v 842.7500 2.7200 29.1300
v 842.7500 2.7200 29.3700
v 838.2500 2.7200 29.3700
vt 348.7292 4.1458
vt 348.7292 5.2292
vt 349.8125 5.2292
vt 349.8125 4.1458
vt 348.7292 4.1458
vt 349.8125 4.1458
vt 349.8125 5.2292
vt 348.7292 5.2292
vt 348.7292 0.0000
vt 349.8125 0.0000
vt 349.8125 1.2500
vt 348.7292 1.2500
vt 349.8125 0.0000
vt 348.7292 0.0000
vt 348.7292 1.2500
vt 349.8125 1.2500
vt 4.1458 0.0000
vt 5.2292 0.0000
vt 5.2292 1.2500
vt 4.1458 1.2500
vt 5.2292 0.0000
vt 4.1458 0.0000
vt 4.1458 1.2500
vt 5.2292 1.2500
vt 348.7292 7.8958
vt 348.7292 8.9792
vt 349.8125 8.9792
vt 349.8125 7.8958
vt 348.7292 7.8958
vt 349.8125 7.8958
vt 349.8125 8.9792
vt 348.7292 8.9792
vt 348.7292 0.0000
vt 349.8125 0.0000
vt 349.8125 1.2500
vt 348.7292 1.2500
vt 349.8125 0.0000
vt 348.7292 0.0000
vt 348.7292 1.2500
vt 349.8125 1.2500
vt 7.8958 0.0000
vt 8.9792 0.0000
vt 8.9792 1.2500
vt 7.8958 1.2500
vt 8.9792 0.0000
vt 7.8958 0.0000
vt 7.8958 1.2500
vt 8.9792 1.2500
vt 349.6667 7.8958
vt 349.6667 8.9792
vt 350.7500 8.9792
vt 350.7500 7.8958
vt 349.6667 7.8958
vt 350.7500 7.8958
vt 350.7500 8.9792
vt 349.6667 8.9792
vt 349.6667 0.0000
vt 350.7500 0.0000
vt 350.7500 1.2500
vt 349.6667 1.2500
vt 350.7500 0.0000
vt 349.6667 0.0000
vt 349.6667 1.2500
vt 350.7500 1.2500
vt 7.8958 0.0000
vt 8.9792 0.0000
vt 8.9792 1.2500
vt 7.8958 1.2500
vt 8.9792 0.0000
vt 7.8958 0.0000
vt 7.8958 1.2500
vt 8.9792 1.2500
vt 348.7292 11.6458
vt 348.7292 12.7292
vt 349.8125 12.7292
vt 349.8125 11.6458
vt 348.7292 11.6458
vt 349.8125 11.6458
vt 349.8125 12.7292
vt 348.7292 12.7292
vt 348.7292 0.0000
vt 349.8125 0.0000
vt 349.8125 1.2500
vt 348.7292 1.2500
vt 349.8125 0.0000
vt 348.7292 0.0000
vt 348.7292 1.2500
vt 349.8125 1.2500
vt 11.6458 0.0000
vt 12.7292 0.0000
vt 12.7292 1.2500
vt 11.6458 1.2500
vt 12.7292 0.0000
vt 11.6458 0.0000
vt 11.6458 1.2500
vt 12.7292 1.2500
vt 348.7292 13.5208
vt 348.7292 14.6042
vt 349.8125 14.6042
vt 349.8125 13.5208
vt 348.7292 13.5208
vt 349.8125 13.5208
vt 349.8125 14.6042
vt 348.7292 14.6042
vt 348.7292 0.0000
vt 349.8125 0.0000
vt 349.8125 1.2500
vt 348.7292 1.2500
vt 349.8125 0.0000
vt 348.7292 0.0000
vt 348.7292 1.2500
vt 349.8125 1.2500
vt 13.5208 0.0000
vt 14.6042 0.0000
vt 14.6042 1.2500
vt 13.5208 1.2500
vt 14.6042 0.0000
vt 13.5208 0.0000
vt 13.5208 1.2500
vt 14.6042 1.2500
vt 348.7292 14.4583
vt 348.7292 15.5417
vt 349.8125 15.5417
vt 349.8125 14.4583
vt 348.7292 14.4583
vt 349.8125 14.4583
vt 349.8125 15.5417
vt 348.7292 15.5417
vt 348.7292 0.0000
vt 349.8125 0.0000
vt 349.8125 1.2500
vt 348.7292 1.2500
vt 349.8125 0.0000
vt 348.7292 0.0000
vt 348.7292 1.2500
vt 349.8125 1.2500
vt 14.4583 0.0000
vt 15.5417 0.0000
vt 15.5417 1.2500
vt 14.4583 1.2500
vt 15.5417 0.0000
vt 14.4583 0.0000
vt 14.4583 1.2500
vt 15.5417 1.2500
usemtl lamp_caged
f 145 148 147 146
f 149 150 151 152
f 145 146 150 149
f 147 148 152 151
f 146 147 151 150
f 148 145 149 152
usemtl steel
f 153 156 155 154
f 157 158 159 160
f 153 154 158 157
f 155 156 160 159
f 154 155 159 158
f 156 153 157 160
usemtl lamp_caged
f 161 164 163 162
f 165 166 167 168
f 161 162 166 165
f 163 164 168 167
f 162 163 167 166
f 164 161 165 168
usemtl steel
f 169 172 171 170
f 173 174 175 176
f 169 170 174 173
f 171 172 176 175
f 170 171 175 174
f 172 169 173 176
usemtl switchgear
f 177 180 179 178
f 181 182 183 184
f 177 178 182 181
f 179 180 184 183
f 178 179 183 182
f 180 177 181 184
usemtl warning
f 185 188 187 186
f 189 190 191 192
f 185 186 190 189
f 187 188 192 191
f 186 187 191 190
f 188 185 189 192
usemtl switchgear
f 193 196 195 194
f 197 198 199 200
f 193 194 198 197
f 195 196 200 199
f 194 195 199 198
f 196 193 197 200
usemtl warning
f 201 204 203 202
f 205 206 207 208
f 201 202 206 205
f 203 204 208 207
f 202 203 207 206
f 204 201 205 208
usemtl rust
f 209 211 212 210
f 211 213 214 212
f 213 215 216 214
f 215 217 218 216
f 217 219 220 218
f 219 221 222 220
f 221 223 224 222
f 223 209 210 224
f 225 210 212
f 226 211 209
f 225 212 214
f 226 213 211
f 225 214 216
f 226 215 213
f 225 216 218
f 226 217 215
f 225 218 220
f 226 219 217
f 225 220 222
f 226 221 219
f 225 222 224
f 226 223 221
f 225 224 210
f 226 209 223
f 227 230 229 228
f 231 232 233 234
f 227 228 232 231
f 229 230 234 233
f 228 229 233 232
f 230 227 231 234
usemtl pipe
f 235 237 238 236
f 237 239 240 238
f 239 241 242 240
f 241 243 244 242
f 243 245 246 244
f 245 247 248 246
f 247 249 250 248
f 249 235 236 250
f 251 236 238
f 252 237 235
f 251 238 240
f 252 239 237
f 251 240 242
f 252 241 239
f 251 242 244
f 252 243 241
f 251 244 246
f 252 245 243
f 251 246 248
f 252 247 245
f 251 248 250
f 252 249 247
f 251 250 236
f 252 235 249
f 253 256 255 254
f 257 258 259 260
f 253 254 258 257
f 255 256 260 259
f 254 255 259 258
f 256 253 257 260
f 261 263 264 262
f 263 265 266 264
f 265 267 268 266
f 267 269 270 268
f 269 271 272 270
f 271 273 274 272
f 273 275 276 274
f 275 261 262 276
f 277 262 264
f 278 263 261
f 277 264 266
f 278 265 263
f 277 266 268
f 278 267 265
f 277 268 270
f 278 269 267
f 277 270 272
f 278 271 269
f 277 272 274
f 278 273 271
f 277 274 276
f 278 275 273
f 277 276 262
f 278 261 275
f 279 282 281 280
f 283 284 285 286
f 279 280 284 283
f 281 282 286 285
f 280 281 285 284
f 282 279 283 286
usemtl brick
f 1/1 2/2 3/3 4/4
f 5/5 6/6 7/7 8/8
f 9/9 10/10 11/11 12/12
f 13/13 14/14 15/15 16/16
f 17/17 18/18 19/19 20/20
f 21/21 22/22 23/23 24/24
f 25/25 26/26 27/27 28/28
f 29/29 30/30 31/31 32/32
f 33/33 34/34 35/35 36/36
f 37/37 38/38 39/39 40/40
f 41/41 42/42 43/43 44/44
f 45/45 46/46 47/47 48/48
f 49/49 50/50 51/51 52/52
f 53/53 54/54 55/55 56/56
f 57/57 58/58 59/59 60/60
f 61/61 62/62 63/63 64/64
f 65/65 66/66 67/67 68/68
f 69/69 70/70 71/71 72/72
f 73/73 74/74 75/75 76/76
f 77/77 78/78 79/79 80/80
f 81/81 82/82 83/83 84/84
f 85/85 86/86 87/87 88/88
f 89/89 90/90 91/91 92/92
f 93/93 94/94 95/95 96/96
f 97/97 98/98 99/99 100/100
f 101/101 102/102 103/103 104/104
f 105/105 106/106 107/107 108/108
f 109/109 110/110 111/111 112/112
f 113/113 114/114 115/115 116/116
f 117/117 118/118 119/119 120/120
usemtl brick_dark
f 121/121 122/122 123/123 124/124
f 125/125 126/126 127/127 128/128
f 129/129 130/130 131/131 132/132
f 133/133 134/134 135/135 136/136
f 137/137 138/138 139/139 140/140
f 141/141 142/142 143/143 144/144
