# RoastEngine Backrooms level
mtllib backrooms.mtl
v 1558.2500 -0.5000 -41.7500
v 1558.2500 -0.5000 41.7500
v 1641.7500 -0.5000 41.7500
v 1641.7500 -0.5000 -41.7500
v 1558.2500 0.0000 -41.7500
v 1641.7500 0.0000 -41.7500
v 1641.7500 0.0000 41.7500
v 1558.2500 0.0000 41.7500
v 1558.2500 -0.5000 -41.7500
v 1641.7500 -0.5000 -41.7500
v 1641.7500 0.0000 -41.7500
v 1558.2500 0.0000 -41.7500
v 1641.7500 -0.5000 41.7500
v 1558.2500 -0.5000 41.7500
v 1558.2500 0.0000 41.7500
v 1641.7500 0.0000 41.7500
v 1641.7500 -0.5000 -41.7500
v 1641.7500 -0.5000 41.7500
v 1641.7500 0.0000 41.7500
v 1641.7500 0.0000 -41.7500
v 1558.2500 -0.5000 41.7500
v 1558.2500 -0.5000 -41.7500
v 1558.2500 0.0000 -41.7500
v 1558.2500 0.0000 41.7500
v 1558.2500 3.4000 -41.7500
v 1558.2500 3.4000 41.7500
v 1641.7500 3.4000 41.7500
v 1641.7500 3.4000 -41.7500
v 1558.2500 3.9000 -41.7500
v 1641.7500 3.9000 -41.7500
v 1641.7500 3.9000 41.7500
v 1558.2500 3.9000 41.7500
v 1558.2500 3.4000 -41.7500
v 1641.7500 3.4000 -41.7500
v 1641.7500 3.9000 -41.7500
v 1558.2500 3.9000 -41.7500
v 1641.7500 3.4000 41.7500
v 1558.2500 3.4000 41.7500
v 1558.2500 3.9000 41.7500
v 1641.7500 3.9000 41.7500
v 1641.7500 3.4000 -41.7500
v 1641.7500 3.4000 41.7500
v 1641.7500 3.9000 41.7500
v 1641.7500 3.9000 -41.7500
v 1558.2500 3.4000 41.7500
v 1558.2500 3.4000 -41.7500
v 1558.2500 3.9000 -41.7500
v 1558.2500 3.9000 41.7500
v 1558.2500 0.0000 -41.7500
v 1558.2500 0.0000 41.7500
v 1558.7500 0.0000 41.7500
v 1558.7500 0.0000 -41.7500
v 1558.2500 3.4000 -41.7500
v 1558.7500 3.4000 -41.7500
v 1558.7500 3.4000 41.7500
v 1558.2500 3.4000 41.7500
v 1558.2500 0.0000 -41.7500
v 1558.7500 0.0000 -41.7500
v 1558.7500 3.4000 -41.7500
v 1558.2500 3.4000 -41.7500
v 1558.7500 0.0000 41.7500
v 1558.2500 0.0000 41.7500
v 1558.2500 3.4000 41.7500
v 1558.7500 3.4000 41.7500
v 1558.7500 0.0000 -41.7500
v 1558.7500 0.0000 41.7500
v 1558.7500 3.4000 41.7500
v 1558.7500 3.4000 -41.7500
v 1558.2500 0.0000 41.7500
v 1558.2500 0.0000 -41.7500
v 1558.2500 3.4000 -41.7500
v 1558.2500 3.4000 41.7500
v 1558.2500 0.0000 -41.7500
v 1558.2500 0.0000 -41.2500
v 1641.7500 0.0000 -41.2500
v 1641.7500 0.0000 -41.7500
v 1558.2500 3.4000 -41.7500
v 1641.7500 3.4000 -41.7500
v 1641.7500 3.4000 -41.2500
v 1558.2500 3.4000 -41.2500
v 1558.2500 0.0000 -41.7500
v 1641.7500 0.0000 -41.7500
v 1641.7500 3.4000 -41.7500
v 1558.2500 3.4000 -41.7500
v 1641.7500 0.0000 -41.2500
v 1558.2500 0.0000 -41.2500
v 1558.2500 3.4000 -41.2500
v 1641.7500 3.4000 -41.2500
v 1641.7500 0.0000 -41.7500
v 1641.7500 0.0000 -41.2500
v 1641.7500 3.4000 -41.2500
v 1641.7500 3.4000 -41.7500
v 1558.2500 0.0000 -41.2500
v 1558.2500 0.0000 -41.7500
v 1558.2500 3.4000 -41.7500
v 1558.2500 3.4000 -41.2500
v 1641.2500 0.0000 -41.7500
v 1641.2500 0.0000 41.7500
v 1641.7500 0.0000 41.7500
v 1641.7500 0.0000 -41.7500
v 1641.2500 3.4000 -41.7500
v 1641.7500 3.4000 -41.7500
v 1641.7500 3.4000 41.7500
v 1641.2500 3.4000 41.7500
v 1641.2500 0.0000 -41.7500
v 1641.7500 0.0000 -41.7500
v 1641.7500 3.4000 -41.7500
v 1641.2500 3.4000 -41.7500
v 1641.7500 0.0000 41.7500
v 1641.2500 0.0000 41.7500
v 1641.2500 3.4000 41.7500
v 1641.7500 3.4000 41.7500
v 1641.7500 0.0000 -41.7500
v 1641.7500 0.0000 41.7500
v 1641.7500 3.4000 41.7500
v 1641.7500 3.4000 -41.7500
v 1641.2500 0.0000 41.7500
v 1641.2500 0.0000 -41.7500
v 1641.2500 3.4000 -41.7500
v 1641.2500 3.4000 41.7500
v 1558.2500 0.0000 41.2500
v 1558.2500 0.0000 41.7500
v 1641.7500 0.0000 41.7500
v 1641.7500 0.0000 41.2500
v 1558.2500 3.4000 41.2500
v 1641.7500 3.4000 41.2500
v 1641.7500 3.4000 41.7500
v 1558.2500 3.4000 41.7500
v 1558.2500 0.0000 41.2500
v 1641.7500 0.0000 41.2500
v 1641.7500 3.4000 41.2500
v 1558.2500 3.4000 41.2500
v 1641.7500 0.0000 41.7500
v 1558.2500 0.0000 41.7500
v 1558.2500 3.4000 41.7500
v 1641.7500 3.4000 41.7500
v 1641.7500 0.0000 41.2500
v 1641.7500 0.0000 41.7500
v 1641.7500 3.4000 41.7500
v 1641.7500 3.4000 41.2500
v 1558.2500 0.0000 41.7500
v 1558.2500 0.0000 41.2500
v 1558.2500 3.4000 41.2500
v 1558.2500 3.4000 41.7500
v 1594.2844 0.0000 36.8840
v 1597.6219 0.0000 36.8840
v 1597.6219 0.0000 39.0567
v 1594.2844 0.0000 39.0567
v 1594.2844 0.0100 36.8840
v 1597.6219 0.0100 36.8840
v 1597.6219 0.0100 39.0567
v 1594.2844 0.0100 39.0567
v 1577.2286 0.0000 30.6450
v 1578.8661 0.0000 30.6450
v 1578.8661 0.0000 32.5705
v 1577.2286 0.0000 32.5705
v 1577.2286 0.0100 30.6450
v 1578.8661 0.0100 30.6450
v 1578.8661 0.0100 32.5705
v 1577.2286 0.0100 32.5705
v 1568.8533 0.0000 -8.8108
v 1571.4853 0.0000 -8.8108
v 1571.4853 0.0000 -6.2391
v 1568.8533 0.0000 -6.2391
v 1568.8533 0.0100 -8.8108
v 1571.4853 0.0100 -8.8108
v 1571.4853 0.0100 -6.2391
v 1568.8533 0.0100 -6.2391
v 1576.4143 0.0000 -17.9558
v 1579.0549 0.0000 -17.9558
v 1579.0549 0.0000 -16.0045
v 1576.4143 0.0000 -16.0045
v 1576.4143 0.0100 -17.9558
v 1579.0549 0.0100 -17.9558
v 1579.0549 0.0100 -16.0045
v 1576.4143 0.0100 -16.0045
v 1603.3056 0.0000 -21.5913
v 1606.1561 0.0000 -21.5913
v 1606.1561 0.0000 -19.4040
v 1603.3056 0.0000 -19.4040
v 1603.3056 0.0100 -21.5913
v 1606.1561 0.0100 -21.5913
v 1606.1561 0.0100 -19.4040
v 1603.3056 0.0100 -19.4040
v 1568.7810 0.0000 31.6296
v 1572.1554 0.0000 31.6296
v 1572.1554 0.0000 34.5201
v 1568.7810 0.0000 34.5201
v 1568.7810 0.0100 31.6296
v 1572.1554 0.0100 31.6296
v 1572.1554 0.0100 34.5201
v 1568.7810 0.0100 34.5201
v 1598.5284 0.0000 -5.8355
v 1600.6817 0.0000 -5.8355
v 1600.6817 0.0000 -3.4712
v 1598.5284 0.0000 -3.4712
v 1598.5284 0.0100 -5.8355
v 1600.6817 0.0100 -5.8355
v 1600.6817 0.0100 -3.4712
v 1598.5284 0.0100 -3.4712
v 1625.0386 0.0000 -27.6394
v 1627.3076 0.0000 -27.6394
v 1627.3076 0.0000 -24.7978
v 1625.0386 0.0000 -24.7978
v 1625.0386 0.0100 -27.6394
v 1627.3076 0.0100 -27.6394
v 1627.3076 0.0100 -24.7978
v 1625.0386 0.0100 -24.7978
v 1568.2992 0.0000 -30.0731
v 1571.1031 0.0000 -30.0731
v 1571.1031 0.0000 -26.4281
v 1568.2992 0.0000 -26.4281
v 1568.2992 0.0100 -30.0731
v 1571.1031 0.0100 -30.0731
v 1571.1031 0.0100 -26.4281
v 1568.2992 0.0100 -26.4281
v 1603.4616 0.0000 40.1982
v 1605.0853 0.0000 40.1982
v 1605.0853 0.0000 41.9559
v 1603.4616 0.0000 41.9559
v 1603.4616 0.0100 40.1982
v 1605.0853 0.0100 40.1982
v 1605.0853 0.0100 41.9559
v 1603.4616 0.0100 41.9559
v 1618.7787 0.0000 37.4093
v 1621.3693 0.0000 37.4093
v 1621.3693 0.0000 39.2490
v 1618.7787 0.0000 39.2490
v 1618.7787 0.0100 37.4093
v 1621.3693 0.0100 37.4093
v 1621.3693 0.0100 39.2490
v 1618.7787 0.0100 39.2490
v 1560.8881 0.0000 37.8380
v 1562.0132 0.0000 37.8380
v 1562.0132 0.0000 39.1766
v 1560.8881 0.0000 39.1766
v 1560.8881 0.0100 37.8380
v 1562.0132 0.0100 37.8380
v 1562.0132 0.0100 39.1766
v 1560.8881 0.0100 39.1766
v 1608.7461 0.0000 36.5573
v 1609.7514 0.0000 36.5573
v 1609.7514 0.0000 37.8334
v 1608.7461 0.0000 37.8334
v 1608.7461 0.0100 36.5573
v 1609.7514 0.0100 36.5573
v 1609.7514 0.0100 37.8334
v 1608.7461 0.0100 37.8334
v 1586.4364 0.0000 -18.9906
v 1589.7530 0.0000 -18.9906
v 1589.7530 0.0000 -14.4475
v 1586.4364 0.0000 -14.4475
v 1586.4364 0.0100 -18.9906
v 1589.7530 0.0100 -18.9906
v 1589.7530 0.0100 -14.4475
v 1586.4364 0.0100 -14.4475
v 1624.3618 0.0000 -0.7505
v 1626.1883 0.0000 -0.7505
v 1626.1883 0.0000 0.8053
v 1624.3618 0.0000 0.8053
v 1624.3618 0.0100 -0.7505
v 1626.1883 0.0100 -0.7505
v 1626.1883 0.0100 0.8053
v 1624.3618 0.0100 0.8053
v 1607.9066 0.0000 -30.6823
v 1610.2207 0.0000 -30.6823
v 1610.2207 0.0000 -28.0256
v 1607.9066 0.0000 -28.0256
v 1607.9066 0.0100 -30.6823
v 1610.2207 0.0100 -30.6823
v 1610.2207 0.0100 -28.0256
v 1607.9066 0.0100 -28.0256
v 1585.4756 0.0000 -31.2623
v 1587.1210 0.0000 -31.2623
v 1587.1210 0.0000 -29.7141
v 1585.4756 0.0000 -29.7141
v 1585.4756 0.0100 -31.2623
v 1587.1210 0.0100 -31.2623
v 1587.1210 0.0100 -29.7141
v 1585.4756 0.0100 -29.7141
v 1575.9552 0.0000 24.5033
v 1577.2973 0.0000 24.5033
v 1577.2973 0.0000 26.1316
v 1575.9552 0.0000 26.1316
v 1575.9552 0.0100 24.5033
v 1577.2973 0.0100 24.5033
v 1577.2973 0.0100 26.1316
v 1575.9552 0.0100 26.1316
v 1560.2492 0.0000 -16.5704
v 1561.7840 0.0000 -16.5704
v 1561.7840 0.0000 -15.2246
v 1560.2492 0.0000 -15.2246
v 1560.2492 0.0100 -16.5704
v 1561.7840 0.0100 -16.5704
v 1561.7840 0.0100 -15.2246
v 1560.2492 0.0100 -15.2246
v 1572.3822 0.0000 7.0989
v 1575.4401 0.0000 7.0989
v 1575.4401 0.0000 9.4470
v 1572.3822 0.0000 9.4470
v 1572.3822 0.0100 7.0989
v 1575.4401 0.0100 7.0989
v 1575.4401 0.0100 9.4470
v 1572.3822 0.0100 9.4470
v 1600.8218 0.0000 -41.3083
v 1602.8073 0.0000 -41.3083
v 1602.8073 0.0000 -39.2279
v 1600.8218 0.0000 -39.2279
v 1600.8218 0.0100 -41.3083
v 1602.8073 0.0100 -41.3083
v 1602.8073 0.0100 -39.2279
v 1600.8218 0.0100 -39.2279
v 1609.6753 0.0000 -32.5658
v 1611.3162 0.0000 -32.5658
v 1611.3162 0.0000 -30.5017
v 1609.6753 0.0000 -30.5017
v 1609.6753 0.0100 -32.5658
v 1611.3162 0.0100 -32.5658
v 1611.3162 0.0100 -30.5017
v 1609.6753 0.0100 -30.5017
v 1617.5590 0.0000 -37.1856
v 1619.3092 0.0000 -37.1856
v 1619.3092 0.0000 -35.8917
v 1617.5590 0.0000 -35.8917
v 1617.5590 0.0100 -37.1856
v 1619.3092 0.0100 -37.1856
v 1619.3092 0.0100 -35.8917
v 1617.5590 0.0100 -35.8917
v 1634.4558 0.0000 4.5773
v 1636.8428 0.0000 4.5773
v 1636.8428 0.0000 6.7339
v 1634.4558 0.0000 6.7339
v 1634.4558 0.0100 4.5773
v 1636.8428 0.0100 4.5773
v 1636.8428 0.0100 6.7339
v 1634.4558 0.0100 6.7339
v 1574.5771 0.0000 27.8412
v 1577.5051 0.0000 27.8412
v 1577.5051 0.0000 30.7631
v 1574.5771 0.0000 30.7631
v 1574.5771 0.0100 27.8412
v 1577.5051 0.0100 27.8412
v 1577.5051 0.0100 30.7631
v 1574.5771 0.0100 30.7631
v 1633.9741 0.0000 22.2348
v 1635.0672 0.0000 22.2348
v 1635.0672 0.0000 22.9864
v 1633.9741 0.0000 22.9864
v 1633.9741 0.0100 22.2348
v 1635.0672 0.0100 22.2348
v 1635.0672 0.0100 22.9864
v 1633.9741 0.0100 22.9864
v 1573.1841 0.0000 27.5483
v 1576.2526 0.0000 27.5483
v 1576.2526 0.0000 29.9710
v 1573.1841 0.0000 29.9710
v 1573.1841 0.0100 27.5483
v 1576.2526 0.0100 27.5483
v 1576.2526 0.0100 29.9710
v 1573.1841 0.0100 29.9710
v 1595.9109 0.0000 -29.1084
v 1598.6981 0.0000 -29.1084
v 1598.6981 0.0000 -25.9388
v 1595.9109 0.0000 -25.9388
v 1595.9109 0.0100 -29.1084
v 1598.6981 0.0100 -29.1084
v 1598.6981 0.0100 -25.9388
v 1595.9109 0.0100 -25.9388
v 1576.5440 0.0000 5.4969
v 1578.8710 0.0000 5.4969
v 1578.8710 0.0000 8.1751
v 1576.5440 0.0000 8.1751
v 1576.5440 0.0100 5.4969
v 1578.8710 0.0100 5.4969
v 1578.8710 0.0100 8.1751
v 1576.5440 0.0100 8.1751
v 1630.1236 0.0000 20.5068
v 1632.8151 0.0000 20.5068
v 1632.8151 0.0000 22.6068
v 1630.1236 0.0000 22.6068
v 1630.1236 0.0100 20.5068
v 1632.8151 0.0100 20.5068
v 1632.8151 0.0100 22.6068
v 1630.1236 0.0100 22.6068
v 1613.5966 0.0000 9.9879
v 1615.7353 0.0000 9.9879
v 1615.7353 0.0000 12.5253
v 1613.5966 0.0000 12.5253
v 1613.5966 0.0100 9.9879
v 1615.7353 0.0100 9.9879
v 1615.7353 0.0100 12.5253
v 1613.5966 0.0100 12.5253
v 1618.1427 0.0000 -21.0229
v 1619.4142 0.0000 -21.0229
v 1619.4142 0.0000 -19.9465
v 1618.1427 0.0000 -19.9465
v 1618.1427 0.0100 -21.0229
v 1619.4142 0.0100 -21.0229
v 1619.4142 0.0100 -19.9465
v 1618.1427 0.0100 -19.9465
v 1609.2090 0.0000 -25.9023
v 1611.8402 0.0000 -25.9023
v 1611.8402 0.0000 -22.8635
v 1609.2090 0.0000 -22.8635
v 1609.2090 0.0100 -25.9023
v 1611.8402 0.0100 -25.9023
v 1611.8402 0.0100 -22.8635
v 1609.2090 0.0100 -22.8635
v 1587.5105 0.0000 1.6732
v 1590.9802 0.0000 1.6732
v 1590.9802 0.0000 4.9882
v 1587.5105 0.0000 4.9882
v 1587.5105 0.0100 1.6732
v 1590.9802 0.0100 1.6732
v 1590.9802 0.0100 4.9882
v 1587.5105 0.0100 4.9882
v 1624.3657 0.0000 1.3537
v 1627.1802 0.0000 1.3537
v 1627.1802 0.0000 5.0090
v 1624.3657 0.0000 5.0090
v 1624.3657 0.0100 1.3537
v 1627.1802 0.0100 1.3537
v 1627.1802 0.0100 5.0090
v 1624.3657 0.0100 5.0090
v 1572.7820 0.0000 -33.4767
v 1575.9617 0.0000 -33.4767
v 1575.9617 0.0000 -30.8095
v 1572.7820 0.0000 -30.8095
v 1572.7820 0.0100 -33.4767
v 1575.9617 0.0100 -33.4767
v 1575.9617 0.0100 -30.8095
v 1572.7820 0.0100 -30.8095
v 1567.0056 0.0000 3.0556
v 1569.4371 0.0000 3.0556
v 1569.4371 0.0000 4.7354
v 1567.0056 0.0000 4.7354
v 1567.0056 0.0100 3.0556
v 1569.4371 0.0100 3.0556
v 1569.4371 0.0100 4.7354
v 1567.0056 0.0100 4.7354
vt 865.6944 -23.1944
vt 865.6944 23.1944
vt 912.0833 23.1944
vt 912.0833 -23.1944
vt 865.6944 -23.1944
vt 912.0833 -23.1944
vt 912.0833 23.1944
vt 865.6944 23.1944
vt 865.6944 -0.2778
vt 912.0833 -0.2778
vt 912.0833 0.0000
vt 865.6944 0.0000
vt 912.0833 -0.2778
vt 865.6944 -0.2778
vt 865.6944 0.0000
vt 912.0833 0.0000
vt -23.1944 -0.2778
vt 23.1944 -0.2778
vt 23.1944 0.0000
vt -23.1944 0.0000
vt 23.1944 -0.2778
vt -23.1944 -0.2778
vt -23.1944 0.0000
vt 23.1944 0.0000
vt 1277.2541 -34.2213
vt 1277.2541 34.2213
vt 1345.6967 34.2213
vt 1345.6967 -34.2213
vt 1277.2541 -34.2213
vt 1345.6967 -34.2213
vt 1345.6967 34.2213
vt 1277.2541 34.2213
vt 1277.2541 2.7869
vt 1345.6967 2.7869
vt 1345.6967 3.1967
vt 1277.2541 3.1967
vt 1345.6967 2.7869
vt 1277.2541 2.7869
vt 1277.2541 3.1967
vt 1345.6967 3.1967
vt -34.2213 2.7869
vt 34.2213 2.7869
vt 34.2213 3.1967
vt -34.2213 3.1967
vt 34.2213 2.7869
vt -34.2213 2.7869
vt -34.2213 3.1967
vt 34.2213 3.1967
vt 973.9062 -26.0938
vt 973.9062 26.0938
vt 974.2188 26.0938
vt 974.2188 -26.0938
vt 973.9062 -26.0938
vt 974.2188 -26.0938
vt 974.2188 26.0938
vt 973.9062 26.0938
vt 973.9062 0.0000
vt 974.2188 0.0000
vt 974.2188 2.1250
vt 973.9062 2.1250
vt 974.2188 0.0000
vt 973.9062 0.0000
vt 973.9062 2.1250
vt 974.2188 2.1250
vt -26.0938 0.0000
vt 26.0938 0.0000
vt 26.0938 2.1250
vt -26.0938 2.1250
vt 26.0938 0.0000
vt -26.0938 0.0000
vt -26.0938 2.1250
vt 26.0938 2.1250
vt 973.9062 -26.0938
vt 973.9062 -25.7812
vt 1026.0938 -25.7812
vt 1026.0938 -26.0938
vt 973.9062 -26.0938
vt 1026.0938 -26.0938
vt 1026.0938 -25.7812
vt 973.9062 -25.7812
vt 973.9062 0.0000
vt 1026.0938 0.0000
vt 1026.0938 2.1250
vt 973.9062 2.1250
vt 1026.0938 0.0000
vt 973.9062 0.0000
vt 973.9062 2.1250
vt 1026.0938 2.1250
vt -26.0938 0.0000
vt -25.7812 0.0000
vt -25.7812 2.1250
vt -26.0938 2.1250
vt -25.7812 0.0000
vt -26.0938 0.0000
vt -26.0938 2.1250
vt -25.7812 2.1250
vt 1025.7812 -26.0938
vt 1025.7812 26.0938
vt 1026.0938 26.0938
vt 1026.0938 -26.0938
vt 1025.7812 -26.0938
vt 1026.0938 -26.0938
vt 1026.0938 26.0938
vt 1025.7812 26.0938
vt 1025.7812 0.0000
vt 1026.0938 0.0000
vt 1026.0938 2.1250
vt 1025.7812 2.1250
vt 1026.0938 0.0000
vt 1025.7812 0.0000
vt 1025.7812 2.1250
vt 1026.0938 2.1250
vt -26.0938 0.0000
vt 26.0938 0.0000
vt 26.0938 2.1250
vt -26.0938 2.1250
vt 26.0938 0.0000
vt -26.0938 0.0000
vt -26.0938 2.1250
vt 26.0938 2.1250
vt 973.9062 25.7812
vt 973.9062 26.0938
vt 1026.0938 26.0938
vt 1026.0938 25.7812
vt 973.9062 25.7812
vt 1026.0938 25.7812
vt 1026.0938 26.0938
vt 973.9062 26.0938
vt 973.9062 0.0000
vt 1026.0938 0.0000
vt 1026.0938 2.1250
vt 973.9062 2.1250
vt 1026.0938 0.0000
vt 973.9062 0.0000
vt 973.9062 2.1250
vt 1026.0938 2.1250
vt 25.7812 0.0000
vt 26.0938 0.0000
vt 26.0938 2.1250
vt 25.7812 2.1250
vt 26.0938 0.0000
vt 25.7812 0.0000
vt 25.7812 2.1250
vt 26.0938 2.1250
usemtl hotel_trim
f 145 148 147 146
f 149 150 151 152
f 145 146 150 149
f 147 148 152 151
f 146 147 151 150
f 148 145 149 152
f 153 156 155 154
f 157 158 159 160
f 153 154 158 157
f 155 156 160 159
f 154 155 159 158
f 156 153 157 160
f 161 164 163 162
f 165 166 167 168
f 161 162 166 165
f 163 164 168 167
f 162 163 167 166
f 164 161 165 168
f 169 172 171 170
f 173 174 175 176
f 169 170 174 173
f 171 172 176 175
f 170 171 175 174
f 172 169 173 176
f 177 180 179 178
f 181 182 183 184
f 177 178 182 181
f 179 180 184 183
f 178 179 183 182
f 180 177 181 184
f 185 188 187 186
f 189 190 191 192
f 185 186 190 189
f 187 188 192 191
f 186 187 191 190
f 188 185 189 192
f 193 196 195 194
f 197 198 199 200
f 193 194 198 197
f 195 196 200 199
f 194 195 199 198
f 196 193 197 200
f 201 204 203 202
f 205 206 207 208
f 201 202 206 205
f 203 204 208 207
f 202 203 207 206
f 204 201 205 208
f 209 212 211 210
f 213 214 215 216
f 209 210 214 213
f 211 212 216 215
f 210 211 215 214
f 212 209 213 216
f 217 220 219 218
f 221 222 223 224
f 217 218 222 221
f 219 220 224 223
f 218 219 223 222
f 220 217 221 224
f 225 228 227 226
f 229 230 231 232
f 225 226 230 229
f 227 228 232 231
f 226 227 231 230
f 228 225 229 232
f 233 236 235 234
f 237 238 239 240
f 233 234 238 237
f 235 236 240 239
f 234 235 239 238
f 236 233 237 240
f 241 244 243 242
f 245 246 247 248
f 241 242 246 245
f 243 244 248 247
f 242 243 247 246
f 244 241 245 248
f 249 252 251 250
f 253 254 255 256
f 249 250 254 253
f 251 252 256 255
f 250 251 255 254
f 252 249 253 256
f 257 260 259 258
f 261 262 263 264
f 257 258 262 261
f 259 260 264 263
f 258 259 263 262
f 260 257 261 264
f 265 268 267 266
f 269 270 271 272
f 265 266 270 269
f 267 268 272 271
f 266 267 271 270
f 268 265 269 272
f 273 276 275 274
f 277 278 279 280
f 273 274 278 277
f 275 276 280 279
f 274 275 279 278
f 276 273 277 280
f 281 284 283 282
f 285 286 287 288
f 281 282 286 285
f 283 284 288 287
f 282 283 287 286
f 284 281 285 288
f 289 292 291 290
f 293 294 295 296
f 289 290 294 293
f 291 292 296 295
f 290 291 295 294
f 292 289 293 296
f 297 300 299 298
f 301 302 303 304
f 297 298 302 301
f 299 300 304 303
f 298 299 303 302
f 300 297 301 304
f 305 308 307 306
f 309 310 311 312
f 305 306 310 309
f 307 308 312 311
f 306 307 311 310
f 308 305 309 312
f 313 316 315 314
f 317 318 319 320
f 313 314 318 317
f 315 316 320 319
f 314 315 319 318
f 316 313 317 320
f 321 324 323 322
f 325 326 327 328
f 321 322 326 325
f 323 324 328 327
f 322 323 327 326
f 324 321 325 328
f 329 332 331 330
f 333 334 335 336
f 329 330 334 333
f 331 332 336 335
f 330 331 335 334
f 332 329 333 336
f 337 340 339 338
f 341 342 343 344
f 337 338 342 341
f 339 340 344 343
f 338 339 343 342
f 340 337 341 344
f 345 348 347 346
f 349 350 351 352
f 345 346 350 349
f 347 348 352 351
f 346 347 351 350
f 348 345 349 352
f 353 356 355 354
f 357 358 359 360
f 353 354 358 357
f 355 356 360 359
f 354 355 359 358
f 356 353 357 360
f 361 364 363 362
f 365 366 367 368
f 361 362 366 365
f 363 364 368 367
f 362 363 367 366
f 364 361 365 368
f 369 372 371 370
f 373 374 375 376
f 369 370 374 373
f 371 372 376 375
f 370 371 375 374
f 372 369 373 376
f 377 380 379 378
f 381 382 383 384
f 377 378 382 381
f 379 380 384 383
f 378 379 383 382
f 380 377 381 384
f 385 388 387 386
f 389 390 391 392
f 385 386 390 389
f 387 388 392 391
f 386 387 391 390
f 388 385 389 392
f 393 396 395 394
f 397 398 399 400
f 393 394 398 397
f 395 396 400 399
f 394 395 399 398
f 396 393 397 400
f 401 404 403 402
f 405 406 407 408
f 401 402 406 405
f 403 404 408 407
f 402 403 407 406
f 404 401 405 408
f 409 412 411 410
f 413 414 415 416
f 409 410 414 413
f 411 412 416 415
f 410 411 415 414
f 412 409 413 416
f 417 420 419 418
f 421 422 423 424
f 417 418 422 421
f 419 420 424 423
f 418 419 423 422
f 420 417 421 424
f 425 428 427 426
f 429 430 431 432
f 425 426 430 429
f 427 428 432 431
f 426 427 431 430
f 428 425 429 432
f 433 436 435 434
f 437 438 439 440
f 433 434 438 437
f 435 436 440 439
f 434 435 439 438
f 436 433 437 440
usemtl hotel_carpet
f 1/1 2/2 3/3 4/4
f 5/5 6/6 7/7 8/8
f 9/9 10/10 11/11 12/12
f 13/13 14/14 15/15 16/16
f 17/17 18/18 19/19 20/20
f 21/21 22/22 23/23 24/24
usemtl ceiling_tile
f 25/25 26/26 27/27 28/28
f 29/29 30/30 31/31 32/32
f 33/33 34/34 35/35 36/36
f 37/37 38/38 39/39 40/40
f 41/41 42/42 43/43 44/44
f 45/45 46/46 47/47 48/48
usemtl hotel_paper
f 49/49 50/50 51/51 52/52
f 53/53 54/54 55/55 56/56
f 57/57 58/58 59/59 60/60
f 61/61 62/62 63/63 64/64
f 65/65 66/66 67/67 68/68
f 69/69 70/70 71/71 72/72
f 73/73 74/74 75/75 76/76
f 77/77 78/78 79/79 80/80
f 81/81 82/82 83/83 84/84
f 85/85 86/86 87/87 88/88
f 89/89 90/90 91/91 92/92
f 93/93 94/94 95/95 96/96
f 97/97 98/98 99/99 100/100
f 101/101 102/102 103/103 104/104
f 105/105 106/106 107/107 108/108
f 109/109 110/110 111/111 112/112
f 113/113 114/114 115/115 116/116
f 117/117 118/118 119/119 120/120
f 121/121 122/122 123/123 124/124
f 125/125 126/126 127/127 128/128
f 129/129 130/130 131/131 132/132
f 133/133 134/134 135/135 136/136
f 137/137 138/138 139/139 140/140
f 141/141 142/142 143/143 144/144
