# RoastEngine Backrooms level
mtllib backrooms.mtl
v 1201.4500 0.0000 20.9500
v 1205.0500 0.0000 20.9500
v 1205.0500 0.0000 24.5500
v 1201.4500 0.0000 24.5500
v 1201.4500 1.6000 20.9500
v 1205.0500 1.6000 20.9500
v 1205.0500 1.6000 24.5500
v 1201.4500 1.6000 24.5500
v 1214.4500 0.0000 20.9500
v 1218.0500 0.0000 20.9500
v 1218.0500 0.0000 24.5500
v 1214.4500 0.0000 24.5500
v 1214.4500 1.6000 20.9500
v 1218.0500 1.6000 20.9500
v 1218.0500 1.6000 24.5500
v 1214.4500 1.6000 24.5500
v 1201.4500 0.0000 24.2000
v 1205.0500 0.0000 24.2000
v 1205.0500 0.0000 27.8000
v 1201.4500 0.0000 27.8000
v 1201.4500 1.6000 24.2000
v 1205.0500 1.6000 24.2000
v 1205.0500 1.6000 27.8000
v 1201.4500 1.6000 27.8000
v 1181.9500 0.0000 27.4500
v 1185.5500 0.0000 27.4500
v 1185.5500 0.0000 31.0500
v 1181.9500 0.0000 31.0500
v 1181.9500 1.6000 27.4500
v 1185.5500 1.6000 27.4500
v 1185.5500 1.6000 31.0500
v 1181.9500 1.6000 31.0500
v 1188.4500 0.0000 27.4500
v 1192.0500 0.0000 27.4500
v 1192.0500 0.0000 31.0500
v 1188.4500 0.0000 31.0500
v 1188.4500 1.6000 27.4500
v 1192.0500 1.6000 27.4500
v 1192.0500 1.6000 31.0500
v 1188.4500 1.6000 31.0500
v 1201.4500 0.0000 27.4500
v 1201.4500 0.0000 31.0500
v 1205.0500 0.0000 31.0500
v 1205.0500 0.0000 27.4500
v 1201.4500 3.1000 27.4500
v 1205.0500 3.1000 27.4500
v 1205.0500 3.1000 31.0500
v 1201.4500 3.1000 31.0500
v 1201.4500 0.0000 27.4500
v 1205.0500 0.0000 27.4500
v 1205.0500 3.1000 27.4500
v 1201.4500 3.1000 27.4500
v 1205.0500 0.0000 31.0500
v 1201.4500 0.0000 31.0500
v 1201.4500 3.1000 31.0500
v 1205.0500 3.1000 31.0500
v 1205.0500 0.0000 27.4500
v 1205.0500 0.0000 31.0500
v 1205.0500 3.1000 31.0500
v 1205.0500 3.1000 27.4500
v 1201.4500 0.0000 31.0500
v 1201.4500 0.0000 27.4500
v 1201.4500 3.1000 27.4500
v 1201.4500 3.1000 31.0500
v 1204.7000 0.0000 27.4500
v 1208.3000 0.0000 27.4500
v 1208.3000 0.0000 31.0500
v 1204.7000 0.0000 31.0500
v 1204.7000 1.6000 27.4500
v 1208.3000 1.6000 27.4500
v 1208.3000 1.6000 31.0500
v 1204.7000 1.6000 31.0500
v 1207.9500 0.0000 27.4500
v 1211.5500 0.0000 27.4500
v 1211.5500 0.0000 31.0500
v 1207.9500 0.0000 31.0500
v 1207.9500 1.6000 27.4500
v 1211.5500 1.6000 27.4500
v 1211.5500 1.6000 31.0500
v 1207.9500 1.6000 31.0500
v 1211.2000 0.0000 27.4500
v 1211.2000 0.0000 31.0500
v 1214.8000 0.0000 31.0500
v 1214.8000 0.0000 27.4500
v 1211.2000 3.1000 27.4500
v 1214.8000 3.1000 27.4500
v 1214.8000 3.1000 31.0500
v 1211.2000 3.1000 31.0500
v 1211.2000 0.0000 27.4500
v 1214.8000 0.0000 27.4500
v 1214.8000 3.1000 27.4500
v 1211.2000 3.1000 27.4500
v 1214.8000 0.0000 31.0500
v 1211.2000 0.0000 31.0500
v 1211.2000 3.1000 31.0500
v 1214.8000 3.1000 31.0500
v 1214.8000 0.0000 27.4500
v 1214.8000 0.0000 31.0500
v 1214.8000 3.1000 31.0500
v 1214.8000 3.1000 27.4500
v 1211.2000 0.0000 31.0500
v 1211.2000 0.0000 27.4500
v 1211.2000 3.1000 27.4500
v 1211.2000 3.1000 31.0500
v 1214.4500 0.0000 27.4500
v 1218.0500 0.0000 27.4500
v 1218.0500 0.0000 31.0500
v 1214.4500 0.0000 31.0500
v 1214.4500 1.6000 27.4500
v 1218.0500 1.6000 27.4500
v 1218.0500 1.6000 31.0500
v 1214.4500 1.6000 31.0500
v 1181.9500 0.0000 33.9500
v 1181.9500 0.0000 37.5500
v 1185.5500 0.0000 37.5500
v 1185.5500 0.0000 33.9500
v 1181.9500 3.1000 33.9500
v 1185.5500 3.1000 33.9500
v 1185.5500 3.1000 37.5500
v 1181.9500 3.1000 37.5500
v 1181.9500 0.0000 33.9500
v 1185.5500 0.0000 33.9500
v 1185.5500 3.1000 33.9500
v 1181.9500 3.1000 33.9500
v 1185.5500 0.0000 37.5500
v 1181.9500 0.0000 37.5500
v 1181.9500 3.1000 37.5500
v 1185.5500 3.1000 37.5500
v 1185.5500 0.0000 33.9500
v 1185.5500 0.0000 37.5500
v 1185.5500 3.1000 37.5500
v 1185.5500 3.1000 33.9500
v 1181.9500 0.0000 37.5500
v 1181.9500 0.0000 33.9500
v 1181.9500 3.1000 33.9500
v 1181.9500 3.1000 37.5500
v 1188.4500 0.0000 33.9500
v 1188.4500 0.0000 37.5500
v 1192.0500 0.0000 37.5500
v 1192.0500 0.0000 33.9500
v 1188.4500 3.1000 33.9500
v 1192.0500 3.1000 33.9500
v 1192.0500 3.1000 37.5500
v 1188.4500 3.1000 37.5500
v 1188.4500 0.0000 33.9500
v 1192.0500 0.0000 33.9500
v 1192.0500 3.1000 33.9500
v 1188.4500 3.1000 33.9500
v 1192.0500 0.0000 37.5500
v 1188.4500 0.0000 37.5500
v 1188.4500 3.1000 37.5500
v 1192.0500 3.1000 37.5500
v 1192.0500 0.0000 33.9500
v 1192.0500 0.0000 37.5500
v 1192.0500 3.1000 37.5500
v 1192.0500 3.1000 33.9500
v 1188.4500 0.0000 37.5500
v 1188.4500 0.0000 33.9500
v 1188.4500 3.1000 33.9500
v 1188.4500 3.1000 37.5500
v 1207.9500 0.0000 33.9500
v 1211.5500 0.0000 33.9500
v 1211.5500 0.0000 37.5500
v 1207.9500 0.0000 37.5500
v 1207.9500 1.6000 33.9500
v 1211.5500 1.6000 33.9500
v 1211.5500 1.6000 37.5500
v 1207.9500 1.6000 37.5500
v 1181.9500 0.0000 40.4500
v 1185.5500 0.0000 40.4500
v 1185.5500 0.0000 44.0500
v 1181.9500 0.0000 44.0500
v 1181.9500 1.6000 40.4500
v 1185.5500 1.6000 40.4500
v 1185.5500 1.6000 44.0500
v 1181.9500 1.6000 44.0500
v 1188.4500 0.0000 40.4500
v 1192.0500 0.0000 40.4500
v 1192.0500 0.0000 44.0500
v 1188.4500 0.0000 44.0500
v 1188.4500 1.6000 40.4500
v 1192.0500 1.6000 40.4500
v 1192.0500 1.6000 44.0500
v 1188.4500 1.6000 44.0500
v 1191.7000 0.0000 40.4500
v 1195.3000 0.0000 40.4500
v 1195.3000 0.0000 44.0500
v 1191.7000 0.0000 44.0500
v 1191.7000 1.6000 40.4500
v 1195.3000 1.6000 40.4500
v 1195.3000 1.6000 44.0500
v 1191.7000 1.6000 44.0500
v 1194.9500 0.0000 40.4500
v 1194.9500 0.0000 44.0500
v 1198.5500 0.0000 44.0500
v 1198.5500 0.0000 40.4500
v 1194.9500 3.1000 40.4500
v 1198.5500 3.1000 40.4500
v 1198.5500 3.1000 44.0500
v 1194.9500 3.1000 44.0500
v 1194.9500 0.0000 40.4500
v 1198.5500 0.0000 40.4500
v 1198.5500 3.1000 40.4500
v 1194.9500 3.1000 40.4500
v 1198.5500 0.0000 44.0500
v 1194.9500 0.0000 44.0500
v 1194.9500 3.1000 44.0500
v 1198.5500 3.1000 44.0500
v 1198.5500 0.0000 40.4500
v 1198.5500 0.0000 44.0500
v 1198.5500 3.1000 44.0500
v 1198.5500 3.1000 40.4500
v 1194.9500 0.0000 44.0500
v 1194.9500 0.0000 40.4500
v 1194.9500 3.1000 40.4500
v 1194.9500 3.1000 44.0500
v 1201.4500 0.0000 40.4500
v 1205.0500 0.0000 40.4500
v 1205.0500 0.0000 44.0500
v 1201.4500 0.0000 44.0500
v 1201.4500 1.6000 40.4500
v 1205.0500 1.6000 40.4500
v 1205.0500 1.6000 44.0500
v 1201.4500 1.6000 44.0500
v 1204.7000 0.0000 40.4500
v 1204.7000 0.0000 44.0500
v 1208.3000 0.0000 44.0500
v 1208.3000 0.0000 40.4500
v 1204.7000 3.1000 40.4500
v 1208.3000 3.1000 40.4500
v 1208.3000 3.1000 44.0500
v 1204.7000 3.1000 44.0500
v 1204.7000 0.0000 40.4500
v 1208.3000 0.0000 40.4500
v 1208.3000 3.1000 40.4500
v 1204.7000 3.1000 40.4500
v 1208.3000 0.0000 44.0500
v 1204.7000 0.0000 44.0500
v 1204.7000 3.1000 44.0500
v 1208.3000 3.1000 44.0500
v 1208.3000 0.0000 40.4500
v 1208.3000 0.0000 44.0500
v 1208.3000 3.1000 44.0500
v 1208.3000 3.1000 40.4500
v 1204.7000 0.0000 44.0500
v 1204.7000 0.0000 40.4500
v 1204.7000 3.1000 40.4500
v 1204.7000 3.1000 44.0500
v 1207.9500 0.0000 40.4500
v 1207.9500 0.0000 44.0500
v 1211.5500 0.0000 44.0500
v 1211.5500 0.0000 40.4500
v 1207.9500 3.1000 40.4500
v 1211.5500 3.1000 40.4500
v 1211.5500 3.1000 44.0500
v 1207.9500 3.1000 44.0500
v 1207.9500 0.0000 40.4500
v 1211.5500 0.0000 40.4500
v 1211.5500 3.1000 40.4500
v 1207.9500 3.1000 40.4500
v 1211.5500 0.0000 44.0500
v 1207.9500 0.0000 44.0500
v 1207.9500 3.1000 44.0500
v 1211.5500 3.1000 44.0500
v 1211.5500 0.0000 40.4500
v 1211.5500 0.0000 44.0500
v 1211.5500 3.1000 44.0500
v 1211.5500 3.1000 40.4500
v 1207.9500 0.0000 44.0500
v 1207.9500 0.0000 40.4500
v 1207.9500 3.1000 40.4500
v 1207.9500 3.1000 44.0500
v 1181.9500 0.0000 43.7000
v 1181.9500 0.0000 47.3000
v 1185.5500 0.0000 47.3000
v 1185.5500 0.0000 43.7000
v 1181.9500 3.1000 43.7000
v 1185.5500 3.1000 43.7000
v 1185.5500 3.1000 47.3000
v 1181.9500 3.1000 47.3000
v 1181.9500 0.0000 43.7000
v 1185.5500 0.0000 43.7000
v 1185.5500 3.1000 43.7000
v 1181.9500 3.1000 43.7000
v 1185.5500 0.0000 47.3000
v 1181.9500 0.0000 47.3000
v 1181.9500 3.1000 47.3000
v 1185.5500 3.1000 47.3000
v 1185.5500 0.0000 43.7000
v 1185.5500 0.0000 47.3000
v 1185.5500 3.1000 47.3000
v 1185.5500 3.1000 43.7000
v 1181.9500 0.0000 47.3000
v 1181.9500 0.0000 43.7000
v 1181.9500 3.1000 43.7000
v 1181.9500 3.1000 47.3000
v 1181.9500 0.0000 46.9500
v 1181.9500 0.0000 50.5500
v 1185.5500 0.0000 50.5500
v 1185.5500 0.0000 46.9500
v 1181.9500 3.1000 46.9500
v 1185.5500 3.1000 46.9500
v 1185.5500 3.1000 50.5500
v 1181.9500 3.1000 50.5500
v 1181.9500 0.0000 46.9500
v 1185.5500 0.0000 46.9500
v 1185.5500 3.1000 46.9500
v 1181.9500 3.1000 46.9500
v 1185.5500 0.0000 50.5500
v 1181.9500 0.0000 50.5500
v 1181.9500 3.1000 50.5500
v 1185.5500 3.1000 50.5500
v 1185.5500 0.0000 46.9500
v 1185.5500 0.0000 50.5500
v 1185.5500 3.1000 50.5500
v 1185.5500 3.1000 46.9500
v 1181.9500 0.0000 50.5500
v 1181.9500 0.0000 46.9500
v 1181.9500 3.1000 46.9500
v 1181.9500 3.1000 50.5500
v 1194.9500 0.0000 46.9500
v 1194.9500 0.0000 50.5500
v 1198.5500 0.0000 50.5500
v 1198.5500 0.0000 46.9500
v 1194.9500 3.1000 46.9500
v 1198.5500 3.1000 46.9500
v 1198.5500 3.1000 50.5500
v 1194.9500 3.1000 50.5500
v 1194.9500 0.0000 46.9500
v 1198.5500 0.0000 46.9500
v 1198.5500 3.1000 46.9500
v 1194.9500 3.1000 46.9500
v 1198.5500 0.0000 50.5500
v 1194.9500 0.0000 50.5500
v 1194.9500 3.1000 50.5500
v 1198.5500 3.1000 50.5500
v 1198.5500 0.0000 46.9500
v 1198.5500 0.0000 50.5500
v 1198.5500 3.1000 50.5500
v 1198.5500 3.1000 46.9500
v 1194.9500 0.0000 50.5500
v 1194.9500 0.0000 46.9500
v 1194.9500 3.1000 46.9500
v 1194.9500 3.1000 50.5500
v 1214.4500 0.0000 46.9500
v 1214.4500 0.0000 50.5500
v 1218.0500 0.0000 50.5500
v 1218.0500 0.0000 46.9500
v 1214.4500 3.1000 46.9500
v 1218.0500 3.1000 46.9500
v 1218.0500 3.1000 50.5500
v 1214.4500 3.1000 50.5500
v 1214.4500 0.0000 46.9500
v 1218.0500 0.0000 46.9500
v 1218.0500 3.1000 46.9500
v 1214.4500 3.1000 46.9500
v 1218.0500 0.0000 50.5500
v 1214.4500 0.0000 50.5500
v 1214.4500 3.1000 50.5500
v 1218.0500 3.1000 50.5500
v 1218.0500 0.0000 46.9500
v 1218.0500 0.0000 50.5500
v 1218.0500 3.1000 50.5500
v 1218.0500 3.1000 46.9500
v 1214.4500 0.0000 50.5500
v 1214.4500 0.0000 46.9500
v 1214.4500 3.1000 46.9500
v 1214.4500 3.1000 50.5500
v 1199.2000 2.9300 25.8250
v 1200.8000 2.9300 25.8250
v 1200.8000 2.9300 26.1750
v 1199.2000 2.9300 26.1750
v 1199.2000 3.0300 25.8250
v 1200.8000 3.0300 25.8250
v 1200.8000 3.0300 26.1750
v 1199.2000 3.0300 26.1750
v 1199.0500 3.0100 25.7000
v 1199.0500 3.0100 26.3000
v 1200.9500 3.0100 26.3000
v 1200.9500 3.0100 25.7000
v 1199.0500 3.0900 25.7000
v 1200.9500 3.0900 25.7000
v 1200.9500 3.0900 26.3000
v 1199.0500 3.0900 26.3000
v 1199.0500 3.0100 25.7000
v 1200.9500 3.0100 25.7000
v 1200.9500 3.0900 25.7000
v 1199.0500 3.0900 25.7000
v 1200.9500 3.0100 26.3000
v 1199.0500 3.0100 26.3000
v 1199.0500 3.0900 26.3000
v 1200.9500 3.0900 26.3000
v 1200.9500 3.0100 25.7000
v 1200.9500 3.0100 26.3000
v 1200.9500 3.0900 26.3000
v 1200.9500 3.0900 25.7000
v 1199.0500 3.0100 26.3000
v 1199.0500 3.0100 25.7000
v 1199.0500 3.0900 25.7000
v 1199.0500 3.0900 26.3000
v 1205.7000 2.9300 25.8250
v 1207.3000 2.9300 25.8250
v 1207.3000 2.9300 26.1750
v 1205.7000 2.9300 26.1750
v 1205.7000 3.0300 25.8250
v 1207.3000 3.0300 25.8250
v 1207.3000 3.0300 26.1750
v 1205.7000 3.0300 26.1750
v 1205.5500 3.0100 25.7000
v 1205.5500 3.0100 26.3000
v 1207.4500 3.0100 26.3000
v 1207.4500 3.0100 25.7000
v 1205.5500 3.0900 25.7000
v 1207.4500 3.0900 25.7000
v 1207.4500 3.0900 26.3000
v 1205.5500 3.0900 26.3000
v 1205.5500 3.0100 25.7000
v 1207.4500 3.0100 25.7000
v 1207.4500 3.0900 25.7000
v 1205.5500 3.0900 25.7000
v 1207.4500 3.0100 26.3000
v 1205.5500 3.0100 26.3000
v 1205.5500 3.0900 26.3000
v 1207.4500 3.0900 26.3000
v 1207.4500 3.0100 25.7000
v 1207.4500 3.0100 26.3000
v 1207.4500 3.0900 26.3000
v 1207.4500 3.0900 25.7000
v 1205.5500 3.0100 26.3000
v 1205.5500 3.0100 25.7000
v 1205.5500 3.0900 25.7000
v 1205.5500 3.0900 26.3000
v 1212.2000 2.9300 25.8250
v 1213.8000 2.9300 25.8250
v 1213.8000 2.9300 26.1750
v 1212.2000 2.9300 26.1750
v 1212.2000 3.0300 25.8250
v 1213.8000 3.0300 25.8250
v 1213.8000 3.0300 26.1750
v 1212.2000 3.0300 26.1750
v 1212.0500 3.0100 25.7000
v 1212.0500 3.0100 26.3000
v 1213.9500 3.0100 26.3000
v 1213.9500 3.0100 25.7000
v 1212.0500 3.0900 25.7000
v 1213.9500 3.0900 25.7000
v 1213.9500 3.0900 26.3000
v 1212.0500 3.0900 26.3000
v 1212.0500 3.0100 25.7000
v 1213.9500 3.0100 25.7000
v 1213.9500 3.0900 25.7000
v 1212.0500 3.0900 25.7000
v 1213.9500 3.0100 26.3000
v 1212.0500 3.0100 26.3000
v 1212.0500 3.0900 26.3000
v 1213.9500 3.0900 26.3000
v 1213.9500 3.0100 25.7000
v 1213.9500 3.0100 26.3000
v 1213.9500 3.0900 26.3000
v 1213.9500 3.0900 25.7000
v 1212.0500 3.0100 26.3000
v 1212.0500 3.0100 25.7000
v 1212.0500 3.0900 25.7000
v 1212.0500 3.0900 26.3000
v 1218.7000 2.9300 25.8250
v 1220.3000 2.9300 25.8250
v 1220.3000 2.9300 26.1750
v 1218.7000 2.9300 26.1750
v 1218.7000 3.0300 25.8250
v 1220.3000 3.0300 25.8250
v 1220.3000 3.0300 26.1750
v 1218.7000 3.0300 26.1750
v 1218.5500 3.0100 25.7000
v 1218.5500 3.0100 26.3000
v 1220.4500 3.0100 26.3000
v 1220.4500 3.0100 25.7000
v 1218.5500 3.0900 25.7000
v 1220.4500 3.0900 25.7000
v 1220.4500 3.0900 26.3000
v 1218.5500 3.0900 26.3000
v 1218.5500 3.0100 25.7000
v 1220.4500 3.0100 25.7000
v 1220.4500 3.0900 25.7000
v 1218.5500 3.0900 25.7000
v 1220.4500 3.0100 26.3000
v 1218.5500 3.0100 26.3000
v 1218.5500 3.0900 26.3000
v 1220.4500 3.0900 26.3000
v 1220.4500 3.0100 25.7000
v 1220.4500 3.0100 26.3000
v 1220.4500 3.0900 26.3000
v 1220.4500 3.0900 25.7000
v 1218.5500 3.0100 26.3000
v 1218.5500 3.0100 25.7000
v 1218.5500 3.0900 25.7000
v 1218.5500 3.0900 26.3000
v 1192.7000 2.9300 32.3250
v 1194.3000 2.9300 32.3250
v 1194.3000 2.9300 32.6750
v 1192.7000 2.9300 32.6750
v 1192.7000 3.0300 32.3250
v 1194.3000 3.0300 32.3250
v 1194.3000 3.0300 32.6750
v 1192.7000 3.0300 32.6750
v 1192.5500 3.0100 32.2000
v 1192.5500 3.0100 32.8000
v 1194.4500 3.0100 32.8000
v 1194.4500 3.0100 32.2000
v 1192.5500 3.0900 32.2000
v 1194.4500 3.0900 32.2000
v 1194.4500 3.0900 32.8000
v 1192.5500 3.0900 32.8000
v 1192.5500 3.0100 32.2000
v 1194.4500 3.0100 32.2000
v 1194.4500 3.0900 32.2000
v 1192.5500 3.0900 32.2000
v 1194.4500 3.0100 32.8000
v 1192.5500 3.0100 32.8000
v 1192.5500 3.0900 32.8000
v 1194.4500 3.0900 32.8000
v 1194.4500 3.0100 32.2000
v 1194.4500 3.0100 32.8000
v 1194.4500 3.0900 32.8000
v 1194.4500 3.0900 32.2000
v 1192.5500 3.0100 32.8000
v 1192.5500 3.0100 32.2000
v 1192.5500 3.0900 32.2000
v 1192.5500 3.0900 32.8000
v 1212.2000 2.9300 32.3250
v 1213.8000 2.9300 32.3250
v 1213.8000 2.9300 32.6750
v 1212.2000 2.9300 32.6750
v 1212.2000 3.0300 32.3250
v 1213.8000 3.0300 32.3250
v 1213.8000 3.0300 32.6750
v 1212.2000 3.0300 32.6750
v 1212.0500 3.0100 32.2000
v 1212.0500 3.0100 32.8000
v 1213.9500 3.0100 32.8000
v 1213.9500 3.0100 32.2000
v 1212.0500 3.0900 32.2000
v 1213.9500 3.0900 32.2000
v 1213.9500 3.0900 32.8000
v 1212.0500 3.0900 32.8000
v 1212.0500 3.0100 32.2000
v 1213.9500 3.0100 32.2000
v 1213.9500 3.0900 32.2000
v 1212.0500 3.0900 32.2000
v 1213.9500 3.0100 32.8000
v 1212.0500 3.0100 32.8000
v 1212.0500 3.0900 32.8000
v 1213.9500 3.0900 32.8000
v 1213.9500 3.0100 32.2000
v 1213.9500 3.0100 32.8000
v 1213.9500 3.0900 32.8000
v 1213.9500 3.0900 32.2000
v 1212.0500 3.0100 32.8000
v 1212.0500 3.0100 32.2000
v 1212.0500 3.0900 32.2000
v 1212.0500 3.0900 32.8000
v 1218.7000 2.9300 32.3250
v 1220.3000 2.9300 32.3250
v 1220.3000 2.9300 32.6750
v 1218.7000 2.9300 32.6750
v 1218.7000 3.0300 32.3250
v 1220.3000 3.0300 32.3250
v 1220.3000 3.0300 32.6750
v 1218.7000 3.0300 32.6750
v 1218.5500 3.0100 32.2000
v 1218.5500 3.0100 32.8000
v 1220.4500 3.0100 32.8000
v 1220.4500 3.0100 32.2000
v 1218.5500 3.0900 32.2000
v 1220.4500 3.0900 32.2000
v 1220.4500 3.0900 32.8000
v 1218.5500 3.0900 32.8000
v 1218.5500 3.0100 32.2000
v 1220.4500 3.0100 32.2000
v 1220.4500 3.0900 32.2000
v 1218.5500 3.0900 32.2000
v 1220.4500 3.0100 32.8000
v 1218.5500 3.0100 32.8000
v 1218.5500 3.0900 32.8000
v 1220.4500 3.0900 32.8000
v 1220.4500 3.0100 32.2000
v 1220.4500 3.0100 32.8000
v 1220.4500 3.0900 32.8000
v 1220.4500 3.0900 32.2000
v 1218.5500 3.0100 32.8000
v 1218.5500 3.0100 32.2000
v 1218.5500 3.0900 32.2000
v 1218.5500 3.0900 32.8000
v 1186.2000 2.9300 38.8250
v 1187.8000 2.9300 38.8250
v 1187.8000 2.9300 39.1750
v 1186.2000 2.9300 39.1750
v 1186.2000 3.0300 38.8250
v 1187.8000 3.0300 38.8250
v 1187.8000 3.0300 39.1750
v 1186.2000 3.0300 39.1750
v 1186.0500 3.0100 38.7000
v 1186.0500 3.0100 39.3000
v 1187.9500 3.0100 39.3000
v 1187.9500 3.0100 38.7000
v 1186.0500 3.0900 38.7000
v 1187.9500 3.0900 38.7000
v 1187.9500 3.0900 39.3000
v 1186.0500 3.0900 39.3000
v 1186.0500 3.0100 38.7000
v 1187.9500 3.0100 38.7000
v 1187.9500 3.0900 38.7000
v 1186.0500 3.0900 38.7000
v 1187.9500 3.0100 39.3000
v 1186.0500 3.0100 39.3000
v 1186.0500 3.0900 39.3000
v 1187.9500 3.0900 39.3000
v 1187.9500 3.0100 38.7000
v 1187.9500 3.0100 39.3000
v 1187.9500 3.0900 39.3000
v 1187.9500 3.0900 38.7000
v 1186.0500 3.0100 39.3000
v 1186.0500 3.0100 38.7000
v 1186.0500 3.0900 38.7000
v 1186.0500 3.0900 39.3000
v 1192.7000 2.9300 38.8250
v 1194.3000 2.9300 38.8250
v 1194.3000 2.9300 39.1750
v 1192.7000 2.9300 39.1750
v 1192.7000 3.0300 38.8250
v 1194.3000 3.0300 38.8250
v 1194.3000 3.0300 39.1750
v 1192.7000 3.0300 39.1750
v 1192.5500 3.0100 38.7000
v 1192.5500 3.0100 39.3000
v 1194.4500 3.0100 39.3000
v 1194.4500 3.0100 38.7000
v 1192.5500 3.0900 38.7000
v 1194.4500 3.0900 38.7000
v 1194.4500 3.0900 39.3000
v 1192.5500 3.0900 39.3000
v 1192.5500 3.0100 38.7000
v 1194.4500 3.0100 38.7000
v 1194.4500 3.0900 38.7000
v 1192.5500 3.0900 38.7000
v 1194.4500 3.0100 39.3000
v 1192.5500 3.0100 39.3000
v 1192.5500 3.0900 39.3000
v 1194.4500 3.0900 39.3000
v 1194.4500 3.0100 38.7000
v 1194.4500 3.0100 39.3000
v 1194.4500 3.0900 39.3000
v 1194.4500 3.0900 38.7000
v 1192.5500 3.0100 39.3000
v 1192.5500 3.0100 38.7000
v 1192.5500 3.0900 38.7000
v 1192.5500 3.0900 39.3000
v 1205.7000 2.9300 38.8250
v 1207.3000 2.9300 38.8250
v 1207.3000 2.9300 39.1750
v 1205.7000 2.9300 39.1750
v 1205.7000 3.0300 38.8250
v 1207.3000 3.0300 38.8250
v 1207.3000 3.0300 39.1750
v 1205.7000 3.0300 39.1750
v 1205.5500 3.0100 38.7000
v 1205.5500 3.0100 39.3000
v 1207.4500 3.0100 39.3000
v 1207.4500 3.0100 38.7000
v 1205.5500 3.0900 38.7000
v 1207.4500 3.0900 38.7000
v 1207.4500 3.0900 39.3000
v 1205.5500 3.0900 39.3000
v 1205.5500 3.0100 38.7000
v 1207.4500 3.0100 38.7000
v 1207.4500 3.0900 38.7000
v 1205.5500 3.0900 38.7000
v 1207.4500 3.0100 39.3000
v 1205.5500 3.0100 39.3000
v 1205.5500 3.0900 39.3000
v 1207.4500 3.0900 39.3000
v 1207.4500 3.0100 38.7000
v 1207.4500 3.0100 39.3000
v 1207.4500 3.0900 39.3000
v 1207.4500 3.0900 38.7000
v 1205.5500 3.0100 39.3000
v 1205.5500 3.0100 38.7000
v 1205.5500 3.0900 38.7000
v 1205.5500 3.0900 39.3000
v 1212.2000 2.9300 38.8250
v 1213.8000 2.9300 38.8250
v 1213.8000 2.9300 39.1750
v 1212.2000 2.9300 39.1750
v 1212.2000 3.0300 38.8250
v 1213.8000 3.0300 38.8250
v 1213.8000 3.0300 39.1750
v 1212.2000 3.0300 39.1750
v 1212.0500 3.0100 38.7000
v 1212.0500 3.0100 39.3000
v 1213.9500 3.0100 39.3000
v 1213.9500 3.0100 38.7000
v 1212.0500 3.0900 38.7000
v 1213.9500 3.0900 38.7000
v 1213.9500 3.0900 39.3000
v 1212.0500 3.0900 39.3000
v 1212.0500 3.0100 38.7000
v 1213.9500 3.0100 38.7000
v 1213.9500 3.0900 38.7000
v 1212.0500 3.0900 38.7000
v 1213.9500 3.0100 39.3000
v 1212.0500 3.0100 39.3000
v 1212.0500 3.0900 39.3000
v 1213.9500 3.0900 39.3000
v 1213.9500 3.0100 38.7000
v 1213.9500 3.0100 39.3000
v 1213.9500 3.0900 39.3000
v 1213.9500 3.0900 38.7000
v 1212.0500 3.0100 39.3000
v 1212.0500 3.0100 38.7000
v 1212.0500 3.0900 38.7000
v 1212.0500 3.0900 39.3000
v 1186.2000 2.9300 45.3250
v 1187.8000 2.9300 45.3250
v 1187.8000 2.9300 45.6750
v 1186.2000 2.9300 45.6750
v 1186.2000 3.0300 45.3250
v 1187.8000 3.0300 45.3250
v 1187.8000 3.0300 45.6750
v 1186.2000 3.0300 45.6750
v 1186.0500 3.0100 45.2000
v 1186.0500 3.0100 45.8000
v 1187.9500 3.0100 45.8000
v 1187.9500 3.0100 45.2000
v 1186.0500 3.0900 45.2000
v 1187.9500 3.0900 45.2000
v 1187.9500 3.0900 45.8000
v 1186.0500 3.0900 45.8000
v 1186.0500 3.0100 45.2000
v 1187.9500 3.0100 45.2000
v 1187.9500 3.0900 45.2000
v 1186.0500 3.0900 45.2000
v 1187.9500 3.0100 45.8000
v 1186.0500 3.0100 45.8000
v 1186.0500 3.0900 45.8000
v 1187.9500 3.0900 45.8000
v 1187.9500 3.0100 45.2000
v 1187.9500 3.0100 45.8000
v 1187.9500 3.0900 45.8000
v 1187.9500 3.0900 45.2000
v 1186.0500 3.0100 45.8000
v 1186.0500 3.0100 45.2000
v 1186.0500 3.0900 45.2000
v 1186.0500 3.0900 45.8000
v 1192.7000 2.9300 45.3250
v 1194.3000 2.9300 45.3250
v 1194.3000 2.9300 45.6750
v 1192.7000 2.9300 45.6750
v 1192.7000 3.0300 45.3250
v 1194.3000 3.0300 45.3250
v 1194.3000 3.0300 45.6750
v 1192.7000 3.0300 45.6750
v 1192.5500 3.0100 45.2000
v 1192.5500 3.0100 45.8000
v 1194.4500 3.0100 45.8000
v 1194.4500 3.0100 45.2000
v 1192.5500 3.0900 45.2000
v 1194.4500 3.0900 45.2000
v 1194.4500 3.0900 45.8000
v 1192.5500 3.0900 45.8000
v 1192.5500 3.0100 45.2000
v 1194.4500 3.0100 45.2000
v 1194.4500 3.0900 45.2000
v 1192.5500 3.0900 45.2000
v 1194.4500 3.0100 45.8000
v 1192.5500 3.0100 45.8000
v 1192.5500 3.0900 45.8000
v 1194.4500 3.0900 45.8000
v 1194.4500 3.0100 45.2000
v 1194.4500 3.0100 45.8000
v 1194.4500 3.0900 45.8000
v 1194.4500 3.0900 45.2000
v 1192.5500 3.0100 45.8000
v 1192.5500 3.0100 45.2000
v 1192.5500 3.0900 45.2000
v 1192.5500 3.0900 45.8000
v 1199.2000 2.9300 45.3250
v 1200.8000 2.9300 45.3250
v 1200.8000 2.9300 45.6750
v 1199.2000 2.9300 45.6750
v 1199.2000 3.0300 45.3250
v 1200.8000 3.0300 45.3250
v 1200.8000 3.0300 45.6750
v 1199.2000 3.0300 45.6750
v 1199.0500 3.0100 45.2000
v 1199.0500 3.0100 45.8000
v 1200.9500 3.0100 45.8000
v 1200.9500 3.0100 45.2000
v 1199.0500 3.0900 45.2000
v 1200.9500 3.0900 45.2000
v 1200.9500 3.0900 45.8000
v 1199.0500 3.0900 45.8000
v 1199.0500 3.0100 45.2000
v 1200.9500 3.0100 45.2000
v 1200.9500 3.0900 45.2000
v 1199.0500 3.0900 45.2000
v 1200.9500 3.0100 45.8000
v 1199.0500 3.0100 45.8000
v 1199.0500 3.0900 45.8000
v 1200.9500 3.0900 45.8000
v 1200.9500 3.0100 45.2000
v 1200.9500 3.0100 45.8000
v 1200.9500 3.0900 45.8000
v 1200.9500 3.0900 45.2000
v 1199.0500 3.0100 45.8000
v 1199.0500 3.0100 45.2000
v 1199.0500 3.0900 45.2000
v 1199.0500 3.0900 45.8000
v 1205.7000 2.9300 45.3250
v 1207.3000 2.9300 45.3250
v 1207.3000 2.9300 45.6750
v 1205.7000 2.9300 45.6750
v 1205.7000 3.0300 45.3250
v 1207.3000 3.0300 45.3250
v 1207.3000 3.0300 45.6750
v 1205.7000 3.0300 45.6750
v 1205.5500 3.0100 45.2000
v 1205.5500 3.0100 45.8000
v 1207.4500 3.0100 45.8000
v 1207.4500 3.0100 45.2000
v 1205.5500 3.0900 45.2000
v 1207.4500 3.0900 45.2000
v 1207.4500 3.0900 45.8000
v 1205.5500 3.0900 45.8000
v 1205.5500 3.0100 45.2000
v 1207.4500 3.0100 45.2000
v 1207.4500 3.0900 45.2000
v 1205.5500 3.0900 45.2000
v 1207.4500 3.0100 45.8000
v 1205.5500 3.0100 45.8000
v 1205.5500 3.0900 45.8000
v 1207.4500 3.0900 45.8000
v 1207.4500 3.0100 45.2000
v 1207.4500 3.0100 45.8000
v 1207.4500 3.0900 45.8000
v 1207.4500 3.0900 45.2000
v 1205.5500 3.0100 45.8000
v 1205.5500 3.0100 45.2000
v 1205.5500 3.0900 45.2000
v 1205.5500 3.0900 45.8000
v 1212.2000 2.9300 45.3250
v 1213.8000 2.9300 45.3250
v 1213.8000 2.9300 45.6750
v 1212.2000 2.9300 45.6750
v 1212.2000 3.0300 45.3250
v 1213.8000 3.0300 45.3250
v 1213.8000 3.0300 45.6750
v 1212.2000 3.0300 45.6750
v 1212.0500 3.0100 45.2000
v 1212.0500 3.0100 45.8000
v 1213.9500 3.0100 45.8000
v 1213.9500 3.0100 45.2000
v 1212.0500 3.0900 45.2000
v 1213.9500 3.0900 45.2000
v 1213.9500 3.0900 45.8000
v 1212.0500 3.0900 45.8000
v 1212.0500 3.0100 45.2000
v 1213.9500 3.0100 45.2000
v 1213.9500 3.0900 45.2000
v 1212.0500 3.0900 45.2000
v 1213.9500 3.0100 45.8000
v 1212.0500 3.0100 45.8000
v 1212.0500 3.0900 45.8000
v 1213.9500 3.0900 45.8000
v 1213.9500 3.0100 45.2000
v 1213.9500 3.0100 45.8000
v 1213.9500 3.0900 45.8000
v 1213.9500 3.0900 45.2000
v 1212.0500 3.0100 45.8000
v 1212.0500 3.0100 45.2000
v 1212.0500 3.0900 45.2000
v 1212.0500 3.0900 45.8000
v 1186.2000 2.9300 51.8250
v 1187.8000 2.9300 51.8250
v 1187.8000 2.9300 52.1750
v 1186.2000 2.9300 52.1750
v 1186.2000 3.0300 51.8250
v 1187.8000 3.0300 51.8250
v 1187.8000 3.0300 52.1750
v 1186.2000 3.0300 52.1750
v 1186.0500 3.0100 51.7000
v 1186.0500 3.0100 52.3000
v 1187.9500 3.0100 52.3000
v 1187.9500 3.0100 51.7000
v 1186.0500 3.0900 51.7000
v 1187.9500 3.0900 51.7000
v 1187.9500 3.0900 52.3000
v 1186.0500 3.0900 52.3000
v 1186.0500 3.0100 51.7000
v 1187.9500 3.0100 51.7000
v 1187.9500 3.0900 51.7000
v 1186.0500 3.0900 51.7000
v 1187.9500 3.0100 52.3000
v 1186.0500 3.0100 52.3000
v 1186.0500 3.0900 52.3000
v 1187.9500 3.0900 52.3000
v 1187.9500 3.0100 51.7000
v 1187.9500 3.0100 52.3000
v 1187.9500 3.0900 52.3000
v 1187.9500 3.0900 51.7000
v 1186.0500 3.0100 52.3000
v 1186.0500 3.0100 51.7000
v 1186.0500 3.0900 51.7000
v 1186.0500 3.0900 52.3000
v 1192.7000 2.9300 51.8250
v 1194.3000 2.9300 51.8250
v 1194.3000 2.9300 52.1750
v 1192.7000 2.9300 52.1750
v 1192.7000 3.0300 51.8250
v 1194.3000 3.0300 51.8250
v 1194.3000 3.0300 52.1750
v 1192.7000 3.0300 52.1750
v 1192.5500 3.0100 51.7000
v 1192.5500 3.0100 52.3000
v 1194.4500 3.0100 52.3000
v 1194.4500 3.0100 51.7000
v 1192.5500 3.0900 51.7000
v 1194.4500 3.0900 51.7000
v 1194.4500 3.0900 52.3000
v 1192.5500 3.0900 52.3000
v 1192.5500 3.0100 51.7000
v 1194.4500 3.0100 51.7000
v 1194.4500 3.0900 51.7000
v 1192.5500 3.0900 51.7000
v 1194.4500 3.0100 52.3000
v 1192.5500 3.0100 52.3000
v 1192.5500 3.0900 52.3000
v 1194.4500 3.0900 52.3000
v 1194.4500 3.0100 51.7000
v 1194.4500 3.0100 52.3000
v 1194.4500 3.0900 52.3000
v 1194.4500 3.0900 51.7000
v 1192.5500 3.0100 52.3000
v 1192.5500 3.0100 51.7000
v 1192.5500 3.0900 51.7000
v 1192.5500 3.0900 52.3000
v 1199.2000 2.9300 51.8250
v 1200.8000 2.9300 51.8250
v 1200.8000 2.9300 52.1750
v 1199.2000 2.9300 52.1750
v 1199.2000 3.0300 51.8250
v 1200.8000 3.0300 51.8250
v 1200.8000 3.0300 52.1750
v 1199.2000 3.0300 52.1750
v 1199.0500 3.0100 51.7000
v 1199.0500 3.0100 52.3000
v 1200.9500 3.0100 52.3000
v 1200.9500 3.0100 51.7000
v 1199.0500 3.0900 51.7000
v 1200.9500 3.0900 51.7000
v 1200.9500 3.0900 52.3000
v 1199.0500 3.0900 52.3000
v 1199.0500 3.0100 51.7000
v 1200.9500 3.0100 51.7000
v 1200.9500 3.0900 51.7000
v 1199.0500 3.0900 51.7000
v 1200.9500 3.0100 52.3000
v 1199.0500 3.0100 52.3000
v 1199.0500 3.0900 52.3000
v 1200.9500 3.0900 52.3000
v 1200.9500 3.0100 51.7000
v 1200.9500 3.0100 52.3000
v 1200.9500 3.0900 52.3000
v 1200.9500 3.0900 51.7000
v 1199.0500 3.0100 52.3000
v 1199.0500 3.0100 51.7000
v 1199.0500 3.0900 51.7000
v 1199.0500 3.0900 52.3000
v 1205.7000 2.9300 51.8250
v 1207.3000 2.9300 51.8250
v 1207.3000 2.9300 52.1750
v 1205.7000 2.9300 52.1750
v 1205.7000 3.0300 51.8250
v 1207.3000 3.0300 51.8250
v 1207.3000 3.0300 52.1750
v 1205.7000 3.0300 52.1750
v 1205.5500 3.0100 51.7000
v 1205.5500 3.0100 52.3000
v 1207.4500 3.0100 52.3000
v 1207.4500 3.0100 51.7000
v 1205.5500 3.0900 51.7000
v 1207.4500 3.0900 51.7000
v 1207.4500 3.0900 52.3000
v 1205.5500 3.0900 52.3000
v 1205.5500 3.0100 51.7000
v 1207.4500 3.0100 51.7000
v 1207.4500 3.0900 51.7000
v 1205.5500 3.0900 51.7000
v 1207.4500 3.0100 52.3000
v 1205.5500 3.0100 52.3000
v 1205.5500 3.0900 52.3000
v 1207.4500 3.0900 52.3000
v 1207.4500 3.0100 51.7000
v 1207.4500 3.0100 52.3000
v 1207.4500 3.0900 52.3000
v 1207.4500 3.0900 51.7000
v 1205.5500 3.0100 52.3000
v 1205.5500 3.0100 51.7000
v 1205.5500 3.0900 51.7000
v 1205.5500 3.0900 52.3000
v 1186.2500 0.3300 25.6250
v 1187.7500 0.3300 25.6250
v 1187.7500 0.3300 26.3750
v 1186.2500 0.3300 26.3750
v 1186.2500 0.3900 25.6250
v 1187.7500 0.3900 25.6250
v 1187.7500 0.3900 26.3750
v 1186.2500 0.3900 26.3750
v 1186.3100 0.0000 25.6500
v 1186.3900 0.0000 25.6500
v 1186.3900 0.0000 26.3500
v 1186.3100 0.0000 26.3500
v 1186.3100 0.3600 25.6500
v 1186.3900 0.3600 25.6500
v 1186.3900 0.3600 26.3500
v 1186.3100 0.3600 26.3500
v 1187.6100 0.0000 25.6500
v 1187.6900 0.0000 25.6500
v 1187.6900 0.0000 26.3500
v 1187.6100 0.0000 26.3500
v 1187.6100 0.3600 25.6500
v 1187.6900 0.3600 25.6500
v 1187.6900 0.3600 26.3500
v 1187.6100 0.3600 26.3500
v 1186.7700 0.3900 26.0400
v 1187.2300 0.3900 26.0400
v 1187.2300 0.3900 26.2000
v 1186.7700 0.3900 26.2000
v 1186.7700 0.7700 26.0400
v 1187.2300 0.7700 26.0400
v 1187.2300 0.7700 26.2000
v 1186.7700 0.7700 26.2000
v 1205.7500 0.3300 25.6250
v 1207.2500 0.3300 25.6250
v 1207.2500 0.3300 26.3750
v 1205.7500 0.3300 26.3750
v 1205.7500 0.3900 25.6250
v 1207.2500 0.3900 25.6250
v 1207.2500 0.3900 26.3750
v 1205.7500 0.3900 26.3750
v 1205.8100 0.0000 25.6500
v 1205.8900 0.0000 25.6500
v 1205.8900 0.0000 26.3500
v 1205.8100 0.0000 26.3500
v 1205.8100 0.3600 25.6500
v 1205.8900 0.3600 25.6500
v 1205.8900 0.3600 26.3500
v 1205.8100 0.3600 26.3500
v 1207.1100 0.0000 25.6500
v 1207.1900 0.0000 25.6500
v 1207.1900 0.0000 26.3500
v 1207.1100 0.0000 26.3500
v 1207.1100 0.3600 25.6500
v 1207.1900 0.3600 25.6500
v 1207.1900 0.3600 26.3500
v 1207.1100 0.3600 26.3500
v 1206.2700 0.3900 26.0400
v 1206.7300 0.3900 26.0400
v 1206.7300 0.3900 26.2000
v 1206.2700 0.3900 26.2000
v 1206.2700 0.7700 26.0400
v 1206.7300 0.7700 26.0400
v 1206.7300 0.7700 26.2000
v 1206.2700 0.7700 26.2000
v 1212.2500 0.3300 25.6250
v 1213.7500 0.3300 25.6250
v 1213.7500 0.3300 26.3750
v 1212.2500 0.3300 26.3750
v 1212.2500 0.3900 25.6250
v 1213.7500 0.3900 25.6250
v 1213.7500 0.3900 26.3750
v 1212.2500 0.3900 26.3750
v 1212.3100 0.0000 25.6500
v 1212.3900 0.0000 25.6500
v 1212.3900 0.0000 26.3500
v 1212.3100 0.0000 26.3500
v 1212.3100 0.3600 25.6500
v 1212.3900 0.3600 25.6500
v 1212.3900 0.3600 26.3500
v 1212.3100 0.3600 26.3500
v 1213.6100 0.0000 25.6500
v 1213.6900 0.0000 25.6500
v 1213.6900 0.0000 26.3500
v 1213.6100 0.0000 26.3500
v 1213.6100 0.3600 25.6500
v 1213.6900 0.3600 25.6500
v 1213.6900 0.3600 26.3500
v 1213.6100 0.3600 26.3500
v 1212.7700 0.3900 26.0400
v 1213.2300 0.3900 26.0400
v 1213.2300 0.3900 26.2000
v 1212.7700 0.3900 26.2000
v 1212.7700 0.7700 26.0400
v 1213.2300 0.7700 26.0400
v 1213.2300 0.7700 26.2000
v 1212.7700 0.7700 26.2000
v 1218.7500 0.3300 32.1250
v 1220.2500 0.3300 32.1250
v 1220.2500 0.3300 32.8750
v 1218.7500 0.3300 32.8750
v 1218.7500 0.3900 32.1250
v 1220.2500 0.3900 32.1250
v 1220.2500 0.3900 32.8750
v 1218.7500 0.3900 32.8750
v 1218.8100 0.0000 32.1500
v 1218.8900 0.0000 32.1500
v 1218.8900 0.0000 32.8500
v 1218.8100 0.0000 32.8500
v 1218.8100 0.3600 32.1500
v 1218.8900 0.3600 32.1500
v 1218.8900 0.3600 32.8500
v 1218.8100 0.3600 32.8500
v 1220.1100 0.0000 32.1500
v 1220.1900 0.0000 32.1500
v 1220.1900 0.0000 32.8500
v 1220.1100 0.0000 32.8500
v 1220.1100 0.3600 32.1500
v 1220.1900 0.3600 32.1500
v 1220.1900 0.3600 32.8500
v 1220.1100 0.3600 32.8500
v 1219.2700 0.3900 32.5400
v 1219.7300 0.3900 32.5400
v 1219.7300 0.3900 32.7000
v 1219.2700 0.3900 32.7000
v 1219.2700 0.7700 32.5400
v 1219.7300 0.7700 32.5400
v 1219.7300 0.7700 32.7000
v 1219.2700 0.7700 32.7000
v 1205.7500 0.3300 38.6250
v 1207.2500 0.3300 38.6250
v 1207.2500 0.3300 39.3750
v 1205.7500 0.3300 39.3750
v 1205.7500 0.3900 38.6250
v 1207.2500 0.3900 38.6250
v 1207.2500 0.3900 39.3750
v 1205.7500 0.3900 39.3750
v 1205.8100 0.0000 38.6500
v 1205.8900 0.0000 38.6500
v 1205.8900 0.0000 39.3500
v 1205.8100 0.0000 39.3500
v 1205.8100 0.3600 38.6500
v 1205.8900 0.3600 38.6500
v 1205.8900 0.3600 39.3500
v 1205.8100 0.3600 39.3500
v 1207.1100 0.0000 38.6500
v 1207.1900 0.0000 38.6500
v 1207.1900 0.0000 39.3500
v 1207.1100 0.0000 39.3500
v 1207.1100 0.3600 38.6500
v 1207.1900 0.3600 38.6500
v 1207.1900 0.3600 39.3500
v 1207.1100 0.3600 39.3500
v 1206.2700 0.3900 39.0400
v 1206.7300 0.3900 39.0400
v 1206.7300 0.3900 39.2000
v 1206.2700 0.3900 39.2000
v 1206.2700 0.7700 39.0400
v 1206.7300 0.7700 39.0400
v 1206.7300 0.7700 39.2000
v 1206.2700 0.7700 39.2000
v 1186.2500 0.3300 45.1250
v 1187.7500 0.3300 45.1250
v 1187.7500 0.3300 45.8750
v 1186.2500 0.3300 45.8750
v 1186.2500 0.3900 45.1250
v 1187.7500 0.3900 45.1250
v 1187.7500 0.3900 45.8750
v 1186.2500 0.3900 45.8750
v 1186.3100 0.0000 45.1500
v 1186.3900 0.0000 45.1500
v 1186.3900 0.0000 45.8500
v 1186.3100 0.0000 45.8500
v 1186.3100 0.3600 45.1500
v 1186.3900 0.3600 45.1500
v 1186.3900 0.3600 45.8500
v 1186.3100 0.3600 45.8500
v 1187.6100 0.0000 45.1500
v 1187.6900 0.0000 45.1500
v 1187.6900 0.0000 45.8500
v 1187.6100 0.0000 45.8500
v 1187.6100 0.3600 45.1500
v 1187.6900 0.3600 45.1500
v 1187.6900 0.3600 45.8500
v 1187.6100 0.3600 45.8500
v 1186.7700 0.3900 45.5400
v 1187.2300 0.3900 45.5400
v 1187.2300 0.3900 45.7000
v 1186.7700 0.3900 45.7000
v 1186.7700 0.7700 45.5400
v 1187.2300 0.7700 45.5400
v 1187.2300 0.7700 45.7000
v 1186.7700 0.7700 45.7000
v 1199.2500 0.3300 45.1250
v 1200.7500 0.3300 45.1250
v 1200.7500 0.3300 45.8750
v 1199.2500 0.3300 45.8750
v 1199.2500 0.3900 45.1250
v 1200.7500 0.3900 45.1250
v 1200.7500 0.3900 45.8750
v 1199.2500 0.3900 45.8750
v 1199.3100 0.0000 45.1500
v 1199.3900 0.0000 45.1500
v 1199.3900 0.0000 45.8500
v 1199.3100 0.0000 45.8500
v 1199.3100 0.3600 45.1500
v 1199.3900 0.3600 45.1500
v 1199.3900 0.3600 45.8500
v 1199.3100 0.3600 45.8500
v 1200.6100 0.0000 45.1500
v 1200.6900 0.0000 45.1500
v 1200.6900 0.0000 45.8500
v 1200.6100 0.0000 45.8500
v 1200.6100 0.3600 45.1500
v 1200.6900 0.3600 45.1500
v 1200.6900 0.3600 45.8500
v 1200.6100 0.3600 45.8500
v 1199.7700 0.3900 45.5400
v 1200.2300 0.3900 45.5400
v 1200.2300 0.3900 45.7000
v 1199.7700 0.3900 45.7000
v 1199.7700 0.7700 45.5400
v 1200.2300 0.7700 45.5400
v 1200.2300 0.7700 45.7000
v 1199.7700 0.7700 45.7000
v 1205.7500 0.3300 45.1250
v 1207.2500 0.3300 45.1250
v 1207.2500 0.3300 45.8750
v 1205.7500 0.3300 45.8750
v 1205.7500 0.3900 45.1250
v 1207.2500 0.3900 45.1250
v 1207.2500 0.3900 45.8750
v 1205.7500 0.3900 45.8750
v 1205.8100 0.0000 45.1500
v 1205.8900 0.0000 45.1500
v 1205.8900 0.0000 45.8500
v 1205.8100 0.0000 45.8500
v 1205.8100 0.3600 45.1500
v 1205.8900 0.3600 45.1500
v 1205.8900 0.3600 45.8500
v 1205.8100 0.3600 45.8500
v 1207.1100 0.0000 45.1500
v 1207.1900 0.0000 45.1500
v 1207.1900 0.0000 45.8500
v 1207.1100 0.0000 45.8500
v 1207.1100 0.3600 45.1500
v 1207.1900 0.3600 45.1500
v 1207.1900 0.3600 45.8500
v 1207.1100 0.3600 45.8500
v 1206.2700 0.3900 45.5400
v 1206.7300 0.3900 45.5400
v 1206.7300 0.3900 45.7000
v 1206.2700 0.3900 45.7000
v 1206.2700 0.7700 45.5400
v 1206.7300 0.7700 45.5400
v 1206.7300 0.7700 45.7000
v 1206.2700 0.7700 45.7000
v 1212.2500 0.3300 45.1250
v 1213.7500 0.3300 45.1250
v 1213.7500 0.3300 45.8750
v 1212.2500 0.3300 45.8750
v 1212.2500 0.3900 45.1250
v 1213.7500 0.3900 45.1250
v 1213.7500 0.3900 45.8750
v 1212.2500 0.3900 45.8750
v 1212.3100 0.0000 45.1500
v 1212.3900 0.0000 45.1500
v 1212.3900 0.0000 45.8500
v 1212.3100 0.0000 45.8500
v 1212.3100 0.3600 45.1500
v 1212.3900 0.3600 45.1500
v 1212.3900 0.3600 45.8500
v 1212.3100 0.3600 45.8500
v 1213.6100 0.0000 45.1500
v 1213.6900 0.0000 45.1500
v 1213.6900 0.0000 45.8500
v 1213.6100 0.0000 45.8500
v 1213.6100 0.3600 45.1500
v 1213.6900 0.3600 45.1500
v 1213.6900 0.3600 45.8500
v 1213.6100 0.3600 45.8500
v 1212.7700 0.3900 45.5400
v 1213.2300 0.3900 45.5400
v 1213.2300 0.3900 45.7000
v 1212.7700 0.3900 45.7000
v 1212.7700 0.7700 45.5400
v 1213.2300 0.7700 45.5400
v 1213.2300 0.7700 45.7000
v 1212.7700 0.7700 45.7000
v 1205.7500 0.3300 51.6250
v 1207.2500 0.3300 51.6250
v 1207.2500 0.3300 52.3750
v 1205.7500 0.3300 52.3750
v 1205.7500 0.3900 51.6250
v 1207.2500 0.3900 51.6250
v 1207.2500 0.3900 52.3750
v 1205.7500 0.3900 52.3750
v 1205.8100 0.0000 51.6500
v 1205.8900 0.0000 51.6500
v 1205.8900 0.0000 52.3500
v 1205.8100 0.0000 52.3500
v 1205.8100 0.3600 51.6500
v 1205.8900 0.3600 51.6500
v 1205.8900 0.3600 52.3500
v 1205.8100 0.3600 52.3500
v 1207.1100 0.0000 51.6500
v 1207.1900 0.0000 51.6500
v 1207.1900 0.0000 52.3500
v 1207.1100 0.0000 52.3500
v 1207.1100 0.3600 51.6500
v 1207.1900 0.3600 51.6500
v 1207.1900 0.3600 52.3500
v 1207.1100 0.3600 52.3500
v 1206.2700 0.3900 52.0400
v 1206.7300 0.3900 52.0400
v 1206.7300 0.3900 52.2000
v 1206.2700 0.3900 52.2000
v 1206.2700 0.7700 52.0400
v 1206.7300 0.7700 52.0400
v 1206.7300 0.7700 52.2000
v 1206.2700 0.7700 52.2000
vt 546.1136 12.4773
vt 546.1136 14.1136
vt 547.7500 14.1136
vt 547.7500 12.4773
vt 546.1136 12.4773
vt 547.7500 12.4773
vt 547.7500 14.1136
vt 546.1136 14.1136
vt 546.1136 0.0000
vt 547.7500 0.0000
vt 547.7500 1.4091
vt 546.1136 1.4091
vt 547.7500 0.0000
vt 546.1136 0.0000
vt 546.1136 1.4091
vt 547.7500 1.4091
vt 12.4773 0.0000
vt 14.1136 0.0000
vt 14.1136 1.4091
vt 12.4773 1.4091
vt 14.1136 0.0000
vt 12.4773 0.0000
vt 12.4773 1.4091
vt 14.1136 1.4091
vt 550.5455 12.4773
vt 550.5455 14.1136
vt 552.1818 14.1136
vt 552.1818 12.4773
vt 550.5455 12.4773
vt 552.1818 12.4773
vt 552.1818 14.1136
vt 550.5455 14.1136
vt 550.5455 0.0000
vt 552.1818 0.0000
vt 552.1818 1.4091
vt 550.5455 1.4091
vt 552.1818 0.0000
vt 550.5455 0.0000
vt 550.5455 1.4091
vt 552.1818 1.4091
vt 12.4773 0.0000
vt 14.1136 0.0000
vt 14.1136 1.4091
vt 12.4773 1.4091
vt 14.1136 0.0000
vt 12.4773 0.0000
vt 12.4773 1.4091
vt 14.1136 1.4091
vt 537.2500 15.4318
vt 537.2500 17.0682
vt 538.8864 17.0682
vt 538.8864 15.4318
vt 537.2500 15.4318
vt 538.8864 15.4318
vt 538.8864 17.0682
vt 537.2500 17.0682
vt 537.2500 0.0000
vt 538.8864 0.0000
vt 538.8864 1.4091
vt 537.2500 1.4091
vt 538.8864 0.0000
vt 537.2500 0.0000
vt 537.2500 1.4091
vt 538.8864 1.4091
vt 15.4318 0.0000
vt 17.0682 0.0000
vt 17.0682 1.4091
vt 15.4318 1.4091
vt 17.0682 0.0000
vt 15.4318 0.0000
vt 15.4318 1.4091
vt 17.0682 1.4091
vt 540.2045 15.4318
vt 540.2045 17.0682
vt 541.8409 17.0682
vt 541.8409 15.4318
vt 540.2045 15.4318
vt 541.8409 15.4318
vt 541.8409 17.0682
vt 540.2045 17.0682
vt 540.2045 0.0000
vt 541.8409 0.0000
vt 541.8409 1.4091
vt 540.2045 1.4091
vt 541.8409 0.0000
vt 540.2045 0.0000
vt 540.2045 1.4091
vt 541.8409 1.4091
vt 15.4318 0.0000
vt 17.0682 0.0000
vt 17.0682 1.4091
vt 15.4318 1.4091
vt 17.0682 0.0000
vt 15.4318 0.0000
vt 15.4318 1.4091
vt 17.0682 1.4091
vt 543.1591 18.3864
vt 543.1591 20.0227
vt 544.7955 20.0227
vt 544.7955 18.3864
vt 543.1591 18.3864
vt 544.7955 18.3864
vt 544.7955 20.0227
vt 543.1591 20.0227
vt 543.1591 0.0000
vt 544.7955 0.0000
vt 544.7955 1.4091
vt 543.1591 1.4091
vt 544.7955 0.0000
vt 543.1591 0.0000
vt 543.1591 1.4091
vt 544.7955 1.4091
vt 18.3864 0.0000
vt 20.0227 0.0000
vt 20.0227 1.4091
vt 18.3864 1.4091
vt 20.0227 0.0000
vt 18.3864 0.0000
vt 18.3864 1.4091
vt 20.0227 1.4091
vt 547.5909 18.3864
vt 547.5909 20.0227
vt 549.2273 20.0227
vt 549.2273 18.3864
vt 547.5909 18.3864
vt 549.2273 18.3864
vt 549.2273 20.0227
vt 547.5909 20.0227
vt 547.5909 0.0000
vt 549.2273 0.0000
vt 549.2273 1.4091
vt 547.5909 1.4091
vt 549.2273 0.0000
vt 547.5909 0.0000
vt 547.5909 1.4091
vt 549.2273 1.4091
vt 18.3864 0.0000
vt 20.0227 0.0000
vt 20.0227 1.4091
vt 18.3864 1.4091
vt 20.0227 0.0000
vt 18.3864 0.0000
vt 18.3864 1.4091
vt 20.0227 1.4091
vt 549.0682 18.3864
vt 549.0682 20.0227
vt 550.7045 20.0227
vt 550.7045 18.3864
vt 549.0682 18.3864
vt 550.7045 18.3864
vt 550.7045 20.0227
vt 549.0682 20.0227
vt 549.0682 0.0000
vt 550.7045 0.0000
vt 550.7045 1.4091
vt 549.0682 1.4091
vt 550.7045 0.0000
vt 549.0682 0.0000
vt 549.0682 1.4091
vt 550.7045 1.4091
vt 18.3864 0.0000
vt 20.0227 0.0000
vt 20.0227 1.4091
vt 18.3864 1.4091
vt 20.0227 0.0000
vt 18.3864 0.0000
vt 18.3864 1.4091
vt 20.0227 1.4091
vt 537.2500 19.8636
vt 537.2500 21.5000
vt 538.8864 21.5000
vt 538.8864 19.8636
vt 537.2500 19.8636
vt 538.8864 19.8636
vt 538.8864 21.5000
vt 537.2500 21.5000
vt 537.2500 0.0000
vt 538.8864 0.0000
vt 538.8864 1.4091
vt 537.2500 1.4091
vt 538.8864 0.0000
vt 537.2500 0.0000
vt 537.2500 1.4091
vt 538.8864 1.4091
vt 19.8636 0.0000
vt 21.5000 0.0000
vt 21.5000 1.4091
vt 19.8636 1.4091
vt 21.5000 0.0000
vt 19.8636 0.0000
vt 19.8636 1.4091
vt 21.5000 1.4091
vt 537.2500 21.3409
vt 537.2500 22.9773
vt 538.8864 22.9773
vt 538.8864 21.3409
vt 537.2500 21.3409
vt 538.8864 21.3409
vt 538.8864 22.9773
vt 537.2500 22.9773
vt 537.2500 0.0000
vt 538.8864 0.0000
vt 538.8864 1.4091
vt 537.2500 1.4091
vt 538.8864 0.0000
vt 537.2500 0.0000
vt 537.2500 1.4091
vt 538.8864 1.4091
vt 21.3409 0.0000
vt 22.9773 0.0000
vt 22.9773 1.4091
vt 21.3409 1.4091
vt 22.9773 0.0000
vt 21.3409 0.0000
vt 21.3409 1.4091
vt 22.9773 1.4091
vt 543.1591 21.3409
vt 543.1591 22.9773
vt 544.7955 22.9773
vt 544.7955 21.3409
vt 543.1591 21.3409
vt 544.7955 21.3409
vt 544.7955 22.9773
vt 543.1591 22.9773
vt 543.1591 0.0000
vt 544.7955 0.0000
vt 544.7955 1.4091
vt 543.1591 1.4091
vt 544.7955 0.0000
vt 543.1591 0.0000
vt 543.1591 1.4091
vt 544.7955 1.4091
vt 21.3409 0.0000
vt 22.9773 0.0000
vt 22.9773 1.4091
vt 21.3409 1.4091
vt 22.9773 0.0000
vt 21.3409 0.0000
vt 21.3409 1.4091
vt 22.9773 1.4091
vt 552.0227 21.3409
vt 552.0227 22.9773
vt 553.6591 22.9773
vt 553.6591 21.3409
vt 552.0227 21.3409
vt 553.6591 21.3409
vt 553.6591 22.9773
vt 552.0227 22.9773
vt 552.0227 0.0000
vt 553.6591 0.0000
vt 553.6591 1.4091
vt 552.0227 1.4091
vt 553.6591 0.0000
vt 552.0227 0.0000
vt 552.0227 1.4091
vt 553.6591 1.4091
vt 21.3409 0.0000
vt 22.9773 0.0000
vt 22.9773 1.4091
vt 21.3409 1.4091
vt 22.9773 0.0000
vt 21.3409 0.0000
vt 21.3409 1.4091
vt 22.9773 1.4091
vt 982.8279 21.0656
vt 982.8279 21.5574
vt 984.3852 21.5574
vt 984.3852 21.0656
vt 982.8279 21.0656
vt 984.3852 21.0656
vt 984.3852 21.5574
vt 982.8279 21.5574
vt 982.8279 2.4672
vt 984.3852 2.4672
vt 984.3852 2.5328
vt 982.8279 2.5328
vt 984.3852 2.4672
vt 982.8279 2.4672
vt 982.8279 2.5328
vt 984.3852 2.5328
vt 21.0656 2.4672
vt 21.5574 2.4672
vt 21.5574 2.5328
vt 21.0656 2.5328
vt 21.5574 2.4672
vt 21.0656 2.4672
vt 21.0656 2.5328
vt 21.5574 2.5328
vt 988.1557 21.0656
vt 988.1557 21.5574
vt 989.7131 21.5574
vt 989.7131 21.0656
vt 988.1557 21.0656
vt 989.7131 21.0656
vt 989.7131 21.5574
vt 988.1557 21.5574
vt 988.1557 2.4672
vt 989.7131 2.4672
vt 989.7131 2.5328
vt 988.1557 2.5328
vt 989.7131 2.4672
vt 988.1557 2.4672
vt 988.1557 2.5328
vt 989.7131 2.5328
vt 21.0656 2.4672
vt 21.5574 2.4672
vt 21.5574 2.5328
vt 21.0656 2.5328
vt 21.5574 2.4672
vt 21.0656 2.4672
vt 21.0656 2.5328
vt 21.5574 2.5328
vt 993.4836 21.0656
vt 993.4836 21.5574
vt 995.0410 21.5574
vt 995.0410 21.0656
vt 993.4836 21.0656
vt 995.0410 21.0656
vt 995.0410 21.5574
vt 993.4836 21.5574
vt 993.4836 2.4672
vt 995.0410 2.4672
vt 995.0410 2.5328
vt 993.4836 2.5328
vt 995.0410 2.4672
vt 993.4836 2.4672
vt 993.4836 2.5328
vt 995.0410 2.5328
vt 21.0656 2.4672
vt 21.5574 2.4672
vt 21.5574 2.5328
vt 21.0656 2.5328
vt 21.5574 2.4672
vt 21.0656 2.4672
vt 21.0656 2.5328
vt 21.5574 2.5328
vt 998.8115 21.0656
vt 998.8115 21.5574
vt 1000.3689 21.5574
vt 1000.3689 21.0656
vt 998.8115 21.0656
vt 1000.3689 21.0656
vt 1000.3689 21.5574
vt 998.8115 21.5574
vt 998.8115 2.4672
vt 1000.3689 2.4672
vt 1000.3689 2.5328
vt 998.8115 2.5328
vt 1000.3689 2.4672
vt 998.8115 2.4672
vt 998.8115 2.5328
vt 1000.3689 2.5328
vt 21.0656 2.4672
vt 21.5574 2.4672
vt 21.5574 2.5328
vt 21.0656 2.5328
vt 21.5574 2.4672
vt 21.0656 2.4672
vt 21.0656 2.5328
vt 21.5574 2.5328
vt 977.5000 26.3934
vt 977.5000 26.8852
vt 979.0574 26.8852
vt 979.0574 26.3934
vt 977.5000 26.3934
vt 979.0574 26.3934
vt 979.0574 26.8852
vt 977.5000 26.8852
vt 977.5000 2.4672
vt 979.0574 2.4672
vt 979.0574 2.5328
vt 977.5000 2.5328
vt 979.0574 2.4672
vt 977.5000 2.4672
vt 977.5000 2.5328
vt 979.0574 2.5328
vt 26.3934 2.4672
vt 26.8852 2.4672
vt 26.8852 2.5328
vt 26.3934 2.5328
vt 26.8852 2.4672
vt 26.3934 2.4672
vt 26.3934 2.5328
vt 26.8852 2.5328
vt 993.4836 26.3934
vt 993.4836 26.8852
vt 995.0410 26.8852
vt 995.0410 26.3934
vt 993.4836 26.3934
vt 995.0410 26.3934
vt 995.0410 26.8852
vt 993.4836 26.8852
vt 993.4836 2.4672
vt 995.0410 2.4672
vt 995.0410 2.5328
vt 993.4836 2.5328
vt 995.0410 2.4672
vt 993.4836 2.4672
vt 993.4836 2.5328
vt 995.0410 2.5328
vt 26.3934 2.4672
vt 26.8852 2.4672
vt 26.8852 2.5328
vt 26.3934 2.5328
vt 26.8852 2.4672
vt 26.3934 2.4672
vt 26.3934 2.5328
vt 26.8852 2.5328
vt 998.8115 26.3934
vt 998.8115 26.8852
vt 1000.3689 26.8852
vt 1000.3689 26.3934
vt 998.8115 26.3934
vt 1000.3689 26.3934
vt 1000.3689 26.8852
vt 998.8115 26.8852
vt 998.8115 2.4672
vt 1000.3689 2.4672
vt 1000.3689 2.5328
vt 998.8115 2.5328
vt 1000.3689 2.4672
vt 998.8115 2.4672
vt 998.8115 2.5328
vt 1000.3689 2.5328
vt 26.3934 2.4672
vt 26.8852 2.4672
vt 26.8852 2.5328
vt 26.3934 2.5328
vt 26.8852 2.4672
vt 26.3934 2.4672
vt 26.3934 2.5328
vt 26.8852 2.5328
vt 972.1721 31.7213
vt 972.1721 32.2131
vt 973.7295 32.2131
vt 973.7295 31.7213
vt 972.1721 31.7213
vt 973.7295 31.7213
vt 973.7295 32.2131
vt 972.1721 32.2131
vt 972.1721 2.4672
vt 973.7295 2.4672
vt 973.7295 2.5328
vt 972.1721 2.5328
vt 973.7295 2.4672
vt 972.1721 2.4672
vt 972.1721 2.5328
vt 973.7295 2.5328
vt 31.7213 2.4672
vt 32.2131 2.4672
vt 32.2131 2.5328
vt 31.7213 2.5328
vt 32.2131 2.4672
vt 31.7213 2.4672
vt 31.7213 2.5328
vt 32.2131 2.5328
vt 977.5000 31.7213
vt 977.5000 32.2131
vt 979.0574 32.2131
vt 979.0574 31.7213
vt 977.5000 31.7213
vt 979.0574 31.7213
vt 979.0574 32.2131
vt 977.5000 32.2131
vt 977.5000 2.4672
vt 979.0574 2.4672
vt 979.0574 2.5328
vt 977.5000 2.5328
vt 979.0574 2.4672
vt 977.5000 2.4672
vt 977.5000 2.5328
vt 979.0574 2.5328
vt 31.7213 2.4672
vt 32.2131 2.4672
vt 32.2131 2.5328
vt 31.7213 2.5328
vt 32.2131 2.4672
vt 31.7213 2.4672
vt 31.7213 2.5328
vt 32.2131 2.5328
vt 988.1557 31.7213
vt 988.1557 32.2131
vt 989.7131 32.2131
vt 989.7131 31.7213
vt 988.1557 31.7213
vt 989.7131 31.7213
vt 989.7131 32.2131
vt 988.1557 32.2131
vt 988.1557 2.4672
vt 989.7131 2.4672
vt 989.7131 2.5328
vt 988.1557 2.5328
vt 989.7131 2.4672
vt 988.1557 2.4672
vt 988.1557 2.5328
vt 989.7131 2.5328
vt 31.7213 2.4672
vt 32.2131 2.4672
vt 32.2131 2.5328
vt 31.7213 2.5328
vt 32.2131 2.4672
vt 31.7213 2.4672
vt 31.7213 2.5328
vt 32.2131 2.5328
vt 993.4836 31.7213
vt 993.4836 32.2131
vt 995.0410 32.2131
vt 995.0410 31.7213
vt 993.4836 31.7213
vt 995.0410 31.7213
vt 995.0410 32.2131
vt 993.4836 32.2131
vt 993.4836 2.4672
vt 995.0410 2.4672
vt 995.0410 2.5328
vt 993.4836 2.5328
vt 995.0410 2.4672
vt 993.4836 2.4672
vt 993.4836 2.5328
vt 995.0410 2.5328
vt 31.7213 2.4672
vt 32.2131 2.4672
vt 32.2131 2.5328
vt 31.7213 2.5328
vt 32.2131 2.4672
vt 31.7213 2.4672
vt 31.7213 2.5328
vt 32.2131 2.5328
vt 972.1721 37.0492
vt 972.1721 37.5410
vt 973.7295 37.5410
vt 973.7295 37.0492
vt 972.1721 37.0492
vt 973.7295 37.0492
vt 973.7295 37.5410
vt 972.1721 37.5410
vt 972.1721 2.4672
vt 973.7295 2.4672
vt 973.7295 2.5328
vt 972.1721 2.5328
vt 973.7295 2.4672
vt 972.1721 2.4672
vt 972.1721 2.5328
vt 973.7295 2.5328
vt 37.0492 2.4672
vt 37.5410 2.4672
vt 37.5410 2.5328
vt 37.0492 2.5328
vt 37.5410 2.4672
vt 37.0492 2.4672
vt 37.0492 2.5328
vt 37.5410 2.5328
vt 977.5000 37.0492
vt 977.5000 37.5410
vt 979.0574 37.5410
vt 979.0574 37.0492
vt 977.5000 37.0492
vt 979.0574 37.0492
vt 979.0574 37.5410
vt 977.5000 37.5410
vt 977.5000 2.4672
vt 979.0574 2.4672
vt 979.0574 2.5328
vt 977.5000 2.5328
vt 979.0574 2.4672
vt 977.5000 2.4672
vt 977.5000 2.5328
vt 979.0574 2.5328
vt 37.0492 2.4672
vt 37.5410 2.4672
vt 37.5410 2.5328
vt 37.0492 2.5328
vt 37.5410 2.4672
vt 37.0492 2.4672
vt 37.0492 2.5328
vt 37.5410 2.5328
vt 982.8279 37.0492
vt 982.8279 37.5410
vt 984.3852 37.5410
vt 984.3852 37.0492
vt 982.8279 37.0492
vt 984.3852 37.0492
vt 984.3852 37.5410
vt 982.8279 37.5410
vt 982.8279 2.4672
vt 984.3852 2.4672
vt 984.3852 2.5328
vt 982.8279 2.5328
vt 984.3852 2.4672
vt 982.8279 2.4672
vt 982.8279 2.5328
vt 984.3852 2.5328
vt 37.0492 2.4672
vt 37.5410 2.4672
vt 37.5410 2.5328
vt 37.0492 2.5328
vt 37.5410 2.4672
vt 37.0492 2.4672
vt 37.0492 2.5328
vt 37.5410 2.5328
vt 988.1557 37.0492
vt 988.1557 37.5410
vt 989.7131 37.5410
vt 989.7131 37.0492
vt 988.1557 37.0492
vt 989.7131 37.0492
vt 989.7131 37.5410
vt 988.1557 37.5410
vt 988.1557 2.4672
vt 989.7131 2.4672
vt 989.7131 2.5328
vt 988.1557 2.5328
vt 989.7131 2.4672
vt 988.1557 2.4672
vt 988.1557 2.5328
vt 989.7131 2.5328
vt 37.0492 2.4672
vt 37.5410 2.4672
vt 37.5410 2.5328
vt 37.0492 2.5328
vt 37.5410 2.4672
vt 37.0492 2.4672
vt 37.0492 2.5328
vt 37.5410 2.5328
vt 993.4836 37.0492
vt 993.4836 37.5410
vt 995.0410 37.5410
vt 995.0410 37.0492
vt 993.4836 37.0492
vt 995.0410 37.0492
vt 995.0410 37.5410
vt 993.4836 37.5410
vt 993.4836 2.4672
vt 995.0410 2.4672
vt 995.0410 2.5328
vt 993.4836 2.5328
vt 995.0410 2.4672
vt 993.4836 2.4672
vt 993.4836 2.5328
vt 995.0410 2.5328
vt 37.0492 2.4672
vt 37.5410 2.4672
vt 37.5410 2.5328
vt 37.0492 2.5328
vt 37.5410 2.4672
vt 37.0492 2.4672
vt 37.0492 2.5328
vt 37.5410 2.5328
vt 972.1721 42.3770
vt 972.1721 42.8689
vt 973.7295 42.8689
vt 973.7295 42.3770
vt 972.1721 42.3770
vt 973.7295 42.3770
vt 973.7295 42.8689
vt 972.1721 42.8689
vt 972.1721 2.4672
vt 973.7295 2.4672
vt 973.7295 2.5328
vt 972.1721 2.5328
vt 973.7295 2.4672
vt 972.1721 2.4672
vt 972.1721 2.5328
vt 973.7295 2.5328
vt 42.3770 2.4672
vt 42.8689 2.4672
vt 42.8689 2.5328
vt 42.3770 2.5328
vt 42.8689 2.4672
vt 42.3770 2.4672
vt 42.3770 2.5328
vt 42.8689 2.5328
vt 977.5000 42.3770
vt 977.5000 42.8689
vt 979.0574 42.8689
vt 979.0574 42.3770
vt 977.5000 42.3770
vt 979.0574 42.3770
vt 979.0574 42.8689
vt 977.5000 42.8689
vt 977.5000 2.4672
vt 979.0574 2.4672
vt 979.0574 2.5328
vt 977.5000 2.5328
vt 979.0574 2.4672
vt 977.5000 2.4672
vt 977.5000 2.5328
vt 979.0574 2.5328
vt 42.3770 2.4672
vt 42.8689 2.4672
vt 42.8689 2.5328
vt 42.3770 2.5328
vt 42.8689 2.4672
vt 42.3770 2.4672
vt 42.3770 2.5328
vt 42.8689 2.5328
vt 982.8279 42.3770
vt 982.8279 42.8689
vt 984.3852 42.8689
vt 984.3852 42.3770
vt 982.8279 42.3770
vt 984.3852 42.3770
vt 984.3852 42.8689
vt 982.8279 42.8689
vt 982.8279 2.4672
vt 984.3852 2.4672
vt 984.3852 2.5328
vt 982.8279 2.5328
vt 984.3852 2.4672
vt 982.8279 2.4672
vt 982.8279 2.5328
vt 984.3852 2.5328
vt 42.3770 2.4672
vt 42.8689 2.4672
vt 42.8689 2.5328
vt 42.3770 2.5328
vt 42.8689 2.4672
vt 42.3770 2.4672
vt 42.3770 2.5328
vt 42.8689 2.5328
vt 988.1557 42.3770
vt 988.1557 42.8689
vt 989.7131 42.8689
vt 989.7131 42.3770
vt 988.1557 42.3770
vt 989.7131 42.3770
vt 989.7131 42.8689
vt 988.1557 42.8689
vt 988.1557 2.4672
vt 989.7131 2.4672
vt 989.7131 2.5328
vt 988.1557 2.5328
vt 989.7131 2.4672
vt 988.1557 2.4672
vt 988.1557 2.5328
vt 989.7131 2.5328
vt 42.3770 2.4672
vt 42.8689 2.4672
vt 42.8689 2.5328
vt 42.3770 2.5328
vt 42.8689 2.4672
vt 42.3770 2.4672
vt 42.3770 2.5328
vt 42.8689 2.5328
usemtl cubicle
f 1 4 3 2
f 5 6 7 8
f 1 2 6 5
f 3 4 8 7
f 2 3 7 6
f 4 1 5 8
f 9 12 11 10
f 13 14 15 16
f 9 10 14 13
f 11 12 16 15
f 10 11 15 14
f 12 9 13 16
f 17 20 19 18
f 21 22 23 24
f 17 18 22 21
f 19 20 24 23
f 18 19 23 22
f 20 17 21 24
f 25 28 27 26
f 29 30 31 32
f 25 26 30 29
f 27 28 32 31
f 26 27 31 30
f 28 25 29 32
f 33 36 35 34
f 37 38 39 40
f 33 34 38 37
f 35 36 40 39
f 34 35 39 38
f 36 33 37 40
f 65 68 67 66
f 69 70 71 72
f 65 66 70 69
f 67 68 72 71
f 66 67 71 70
f 68 65 69 72
f 73 76 75 74
f 77 78 79 80
f 73 74 78 77
f 75 76 80 79
f 74 75 79 78
f 76 73 77 80
f 105 108 107 106
f 109 110 111 112
f 105 106 110 109
f 107 108 112 111
f 106 107 111 110
f 108 105 109 112
f 161 164 163 162
f 165 166 167 168
f 161 162 166 165
f 163 164 168 167
f 162 163 167 166
f 164 161 165 168
f 169 172 171 170
f 173 174 175 176
f 169 170 174 173
f 171 172 176 175
f 170 171 175 174
f 172 169 173 176
f 177 180 179 178
f 181 182 183 184
f 177 178 182 181
f 179 180 184 183
f 178 179 183 182
f 180 177 181 184
f 185 188 187 186
f 189 190 191 192
f 185 186 190 189
f 187 188 192 191
f 186 187 191 190
f 188 185 189 192
f 217 220 219 218
f 221 222 223 224
f 217 218 222 221
f 219 220 224 223
f 218 219 223 222
f 220 217 221 224
usemtl fluorescent
f 369 372 371 370
f 373 374 375 376
f 369 370 374 373
f 371 372 376 375
f 370 371 375 374
f 372 369 373 376
f 401 404 403 402
f 405 406 407 408
f 401 402 406 405
f 403 404 408 407
f 402 403 407 406
f 404 401 405 408
f 433 436 435 434
f 437 438 439 440
f 433 434 438 437
f 435 436 440 439
f 434 435 439 438
f 436 433 437 440
f 465 468 467 466
f 469 470 471 472
f 465 466 470 469
f 467 468 472 471
f 466 467 471 470
f 468 465 469 472
f 497 500 499 498
f 501 502 503 504
f 497 498 502 501
f 499 500 504 503
f 498 499 503 502
f 500 497 501 504
f 529 532 531 530
f 533 534 535 536
f 529 530 534 533
f 531 532 536 535
f 530 531 535 534
f 532 529 533 536
f 561 564 563 562
f 565 566 567 568
f 561 562 566 565
f 563 564 568 567
f 562 563 567 566
f 564 561 565 568
f 593 596 595 594
f 597 598 599 600
f 593 594 598 597
f 595 596 600 599
f 594 595 599 598
f 596 593 597 600
f 625 628 627 626
f 629 630 631 632
f 625 626 630 629
f 627 628 632 631
f 626 627 631 630
f 628 625 629 632
f 657 660 659 658
f 661 662 663 664
f 657 658 662 661
f 659 660 664 663
f 658 659 663 662
f 660 657 661 664
f 689 692 691 690
f 693 694 695 696
f 689 690 694 693
f 691 692 696 695
f 690 691 695 694
f 692 689 693 696
f 721 724 723 722
f 725 726 727 728
f 721 722 726 725
f 723 724 728 727
f 722 723 727 726
f 724 721 725 728
f 753 756 755 754
f 757 758 759 760
f 753 754 758 757
f 755 756 760 759
f 754 755 759 758
f 756 753 757 760
f 785 788 787 786
f 789 790 791 792
f 785 786 790 789
f 787 788 792 791
f 786 787 791 790
f 788 785 789 792
f 817 820 819 818
f 821 822 823 824
f 817 818 822 821
f 819 820 824 823
f 818 819 823 822
f 820 817 821 824
f 849 852 851 850
f 853 854 855 856
f 849 850 854 853
f 851 852 856 855
f 850 851 855 854
f 852 849 853 856
f 881 884 883 882
f 885 886 887 888
f 881 882 886 885
f 883 884 888 887
f 882 883 887 886
f 884 881 885 888
f 913 916 915 914
f 917 918 919 920
f 913 914 918 917
f 915 916 920 919
f 914 915 919 918
f 916 913 917 920
f 945 948 947 946
f 949 950 951 952
f 945 946 950 949
f 947 948 952 951
f 946 947 951 950
f 948 945 949 952
f 977 980 979 978
f 981 982 983 984
f 977 978 982 981
f 979 980 984 983
f 978 979 983 982
f 980 977 981 984
usemtl desk
f 1009 1012 1011 1010
f 1013 1014 1015 1016
f 1009 1010 1014 1013
f 1011 1012 1016 1015
f 1010 1011 1015 1014
f 1012 1009 1013 1016
f 1017 1020 1019 1018
f 1021 1022 1023 1024
f 1017 1018 1022 1021
f 1019 1020 1024 1023
f 1018 1019 1023 1022
f 1020 1017 1021 1024
f 1025 1028 1027 1026
f 1029 1030 1031 1032
f 1025 1026 1030 1029
f 1027 1028 1032 1031
f 1026 1027 1031 1030
f 1028 1025 1029 1032
usemtl monitor
f 1033 1036 1035 1034
f 1037 1038 1039 1040
f 1033 1034 1038 1037
f 1035 1036 1040 1039
f 1034 1035 1039 1038
f 1036 1033 1037 1040
usemtl desk
f 1041 1044 1043 1042
f 1045 1046 1047 1048
f 1041 1042 1046 1045
f 1043 1044 1048 1047
f 1042 1043 1047 1046
f 1044 1041 1045 1048
f 1049 1052 1051 1050
f 1053 1054 1055 1056
f 1049 1050 1054 1053
f 1051 1052 1056 1055
f 1050 1051 1055 1054
f 1052 1049 1053 1056
f 1057 1060 1059 1058
f 1061 1062 1063 1064
f 1057 1058 1062 1061
f 1059 1060 1064 1063
f 1058 1059 1063 1062
f 1060 1057 1061 1064
usemtl monitor
f 1065 1068 1067 1066
f 1069 1070 1071 1072
f 1065 1066 1070 1069
f 1067 1068 1072 1071
f 1066 1067 1071 1070
f 1068 1065 1069 1072
usemtl desk
f 1073 1076 1075 1074
f 1077 1078 1079 1080
f 1073 1074 1078 1077
f 1075 1076 1080 1079
f 1074 1075 1079 1078
f 1076 1073 1077 1080
f 1081 1084 1083 1082
f 1085 1086 1087 1088
f 1081 1082 1086 1085
f 1083 1084 1088 1087
f 1082 1083 1087 1086
f 1084 1081 1085 1088
f 1089 1092 1091 1090
f 1093 1094 1095 1096
f 1089 1090 1094 1093
f 1091 1092 1096 1095
f 1090 1091 1095 1094
f 1092 1089 1093 1096
usemtl monitor
f 1097 1100 1099 1098
f 1101 1102 1103 1104
f 1097 1098 1102 1101
f 1099 1100 1104 1103
f 1098 1099 1103 1102
f 1100 1097 1101 1104
usemtl desk
f 1105 1108 1107 1106
f 1109 1110 1111 1112
f 1105 1106 1110 1109
f 1107 1108 1112 1111
f 1106 1107 1111 1110
f 1108 1105 1109 1112
f 1113 1116 1115 1114
f 1117 1118 1119 1120
f 1113 1114 1118 1117
f 1115 1116 1120 1119
f 1114 1115 1119 1118
f 1116 1113 1117 1120
f 1121 1124 1123 1122
f 1125 1126 1127 1128
f 1121 1122 1126 1125
f 1123 1124 1128 1127
f 1122 1123 1127 1126
f 1124 1121 1125 1128
usemtl monitor
f 1129 1132 1131 1130
f 1133 1134 1135 1136
f 1129 1130 1134 1133
f 1131 1132 1136 1135
f 1130 1131 1135 1134
f 1132 1129 1133 1136
usemtl desk
f 1137 1140 1139 1138
f 1141 1142 1143 1144
f 1137 1138 1142 1141
f 1139 1140 1144 1143
f 1138 1139 1143 1142
f 1140 1137 1141 1144
f 1145 1148 1147 1146
f 1149 1150 1151 1152
f 1145 1146 1150 1149
f 1147 1148 1152 1151
f 1146 1147 1151 1150
f 1148 1145 1149 1152
f 1153 1156 1155 1154
f 1157 1158 1159 1160
f 1153 1154 1158 1157
f 1155 1156 1160 1159
f 1154 1155 1159 1158
f 1156 1153 1157 1160
usemtl monitor
f 1161 1164 1163 1162
f 1165 1166 1167 1168
f 1161 1162 1166 1165
f 1163 1164 1168 1167
f 1162 1163 1167 1166
f 1164 1161 1165 1168
usemtl desk
f 1169 1172 1171 1170
f 1173 1174 1175 1176
f 1169 1170 1174 1173
f 1171 1172 1176 1175
f 1170 1171 1175 1174
f 1172 1169 1173 1176
f 1177 1180 1179 1178
f 1181 1182 1183 1184
f 1177 1178 1182 1181
f 1179 1180 1184 1183
f 1178 1179 1183 1182
f 1180 1177 1181 1184
f 1185 1188 1187 1186
f 1189 1190 1191 1192
f 1185 1186 1190 1189
f 1187 1188 1192 1191
f 1186 1187 1191 1190
f 1188 1185 1189 1192
usemtl monitor
f 1193 1196 1195 1194
f 1197 1198 1199 1200
f 1193 1194 1198 1197
f 1195 1196 1200 1199
f 1194 1195 1199 1198
f 1196 1193 1197 1200
usemtl desk
f 1201 1204 1203 1202
f 1205 1206 1207 1208
f 1201 1202 1206 1205
f 1203 1204 1208 1207
f 1202 1203 1207 1206
f 1204 1201 1205 1208
f 1209 1212 1211 1210
f 1213 1214 1215 1216
f 1209 1210 1214 1213
f 1211 1212 1216 1215
f 1210 1211 1215 1214
f 1212 1209 1213 1216
f 1217 1220 1219 1218
f 1221 1222 1223 1224
f 1217 1218 1222 1221
f 1219 1220 1224 1223
f 1218 1219 1223 1222
f 1220 1217 1221 1224
usemtl monitor
f 1225 1228 1227 1226
f 1229 1230 1231 1232
f 1225 1226 1230 1229
f 1227 1228 1232 1231
f 1226 1227 1231 1230
f 1228 1225 1229 1232
usemtl desk
f 1233 1236 1235 1234
f 1237 1238 1239 1240
f 1233 1234 1238 1237
f 1235 1236 1240 1239
f 1234 1235 1239 1238
f 1236 1233 1237 1240
f 1241 1244 1243 1242
f 1245 1246 1247 1248
f 1241 1242 1246 1245
f 1243 1244 1248 1247
f 1242 1243 1247 1246
f 1244 1241 1245 1248
f 1249 1252 1251 1250
f 1253 1254 1255 1256
f 1249 1250 1254 1253
f 1251 1252 1256 1255
f 1250 1251 1255 1254
f 1252 1249 1253 1256
usemtl monitor
f 1257 1260 1259 1258
f 1261 1262 1263 1264
f 1257 1258 1262 1261
f 1259 1260 1264 1263
f 1258 1259 1263 1262
f 1260 1257 1261 1264
usemtl desk
f 1265 1268 1267 1266
f 1269 1270 1271 1272
f 1265 1266 1270 1269
f 1267 1268 1272 1271
f 1266 1267 1271 1270
f 1268 1265 1269 1272
f 1273 1276 1275 1274
f 1277 1278 1279 1280
f 1273 1274 1278 1277
f 1275 1276 1280 1279
f 1274 1275 1279 1278
f 1276 1273 1277 1280
f 1281 1284 1283 1282
f 1285 1286 1287 1288
f 1281 1282 1286 1285
f 1283 1284 1288 1287
f 1282 1283 1287 1286
f 1284 1281 1285 1288
usemtl monitor
f 1289 1292 1291 1290
f 1293 1294 1295 1296
f 1289 1290 1294 1293
f 1291 1292 1296 1295
f 1290 1291 1295 1294
f 1292 1289 1293 1296
usemtl desk
f 1297 1300 1299 1298
f 1301 1302 1303 1304
f 1297 1298 1302 1301
f 1299 1300 1304 1303
f 1298 1299 1303 1302
f 1300 1297 1301 1304
f 1305 1308 1307 1306
f 1309 1310 1311 1312
f 1305 1306 1310 1309
f 1307 1308 1312 1311
f 1306 1307 1311 1310
f 1308 1305 1309 1312
f 1313 1316 1315 1314
f 1317 1318 1319 1320
f 1313 1314 1318 1317
f 1315 1316 1320 1319
f 1314 1315 1319 1318
f 1316 1313 1317 1320
usemtl monitor
f 1321 1324 1323 1322
f 1325 1326 1327 1328
f 1321 1322 1326 1325
f 1323 1324 1328 1327
f 1322 1323 1327 1326
f 1324 1321 1325 1328
usemtl office_wall
f 41/1 42/2 43/3 44/4
f 45/5 46/6 47/7 48/8
f 49/9 50/10 51/11 52/12
f 53/13 54/14 55/15 56/16
f 57/17 58/18 59/19 60/20
f 61/21 62/22 63/23 64/24
f 81/25 82/26 83/27 84/28
f 85/29 86/30 87/31 88/32
f 89/33 90/34 91/35 92/36
f 93/37 94/38 95/39 96/40
f 97/41 98/42 99/43 100/44
f 101/45 102/46 103/47 104/48
f 113/49 114/50 115/51 116/52
f 117/53 118/54 119/55 120/56
f 121/57 122/58 123/59 124/60
f 125/61 126/62 127/63 128/64
f 129/65 130/66 131/67 132/68
f 133/69 134/70 135/71 136/72
f 137/73 138/74 139/75 140/76
f 141/77 142/78 143/79 144/80
f 145/81 146/82 147/83 148/84
f 149/85 150/86 151/87 152/88
f 153/89 154/90 155/91 156/92
f 157/93 158/94 159/95 160/96
f 193/97 194/98 195/99 196/100
f 197/101 198/102 199/103 200/104
f 201/105 202/106 203/107 204/108
f 205/109 206/110 207/111 208/112
f 209/113 210/114 211/115 212/116
f 213/117 214/118 215/119 216/120
f 225/121 226/122 227/123 228/124
f 229/125 230/126 231/127 232/128
f 233/129 234/130 235/131 236/132
f 237/133 238/134 239/135 240/136
f 241/137 242/138 243/139 244/140
f 245/141 246/142 247/143 248/144
f 249/145 250/146 251/147 252/148
f 253/149 254/150 255/151 256/152
f 257/153 258/154 259/155 260/156
f 261/157 262/158 263/159 264/160
f 265/161 266/162 267/163 268/164
f 269/165 270/166 271/167 272/168
f 273/169 274/170 275/171 276/172
f 277/173 278/174 279/175 280/176
f 281/177 282/178 283/179 284/180
f 285/181 286/182 287/183 288/184
f 289/185 290/186 291/187 292/188
f 293/189 294/190 295/191 296/192
f 297/193 298/194 299/195 300/196
f 301/197 302/198 303/199 304/200
f 305/201 306/202 307/203 308/204
f 309/205 310/206 311/207 312/208
f 313/209 314/210 315/211 316/212
f 317/213 318/214 319/215 320/216
f 321/217 322/218 323/219 324/220
f 325/221 326/222 327/223 328/224
f 329/225 330/226 331/227 332/228
f 333/229 334/230 335/231 336/232
f 337/233 338/234 339/235 340/236
f 341/237 342/238 343/239 344/240
f 345/241 346/242 347/243 348/244
f 349/245 350/246 351/247 352/248
f 353/249 354/250 355/251 356/252
f 357/253 358/254 359/255 360/256
f 361/257 362/258 363/259 364/260
f 365/261 366/262 367/263 368/264
usemtl ceiling_tile
f 377/265 378/266 379/267 380/268
f 381/269 382/270 383/271 384/272
f 385/273 386/274 387/275 388/276
f 389/277 390/278 391/279 392/280
f 393/281 394/282 395/283 396/284
f 397/285 398/286 399/287 400/288
f 409/289 410/290 411/291 412/292
f 413/293 414/294 415/295 416/296
f 417/297 418/298 419/299 420/300
f 421/301 422/302 423/303 424/304
f 425/305 426/306 427/307 428/308
f 429/309 430/310 431/311 432/312
f 441/313 442/314 443/315 444/316
f 445/317 446/318 447/319 448/320
f 449/321 450/322 451/323 452/324
f 453/325 454/326 455/327 456/328
f 457/329 458/330 459/331 460/332
f 461/333 462/334 463/335 464/336
f 473/337 474/338 475/339 476/340
f 477/341 478/342 479/343 480/344
f 481/345 482/346 483/347 484/348
f 485/349 486/350 487/351 488/352
f 489/353 490/354 491/355 492/356
f 493/357 494/358 495/359 496/360
f 505/361 506/362 507/363 508/364
f 509/365 510/366 511/367 512/368
f 513/369 514/370 515/371 516/372
f 517/373 518/374 519/375 520/376
f 521/377 522/378 523/379 524/380
f 525/381 526/382 527/383 528/384
f 537/385 538/386 539/387 540/388
f 541/389 542/390 543/391 544/392
f 545/393 546/394 547/395 548/396
f 549/397 550/398 551/399 552/400
f 553/401 554/402 555/403 556/404
f 557/405 558/406 559/407 560/408
f 569/409 570/410 571/411 572/412
f 573/413 574/414 575/415 576/416
f 577/417 578/418 579/419 580/420
f 581/421 582/422 583/423 584/424
f 585/425 586/426 587/427 588/428
f 589/429 590/430 591/431 592/432
f 601/433 602/434 603/435 604/436
f 605/437 606/438 607/439 608/440
f 609/441 610/442 611/443 612/444
f 613/445 614/446 615/447 616/448
f 617/449 618/450 619/451 620/452
f 621/453 622/454 623/455 624/456
f 633/457 634/458 635/459 636/460
f 637/461 638/462 639/463 640/464
f 641/465 642/466 643/467 644/468
f 645/469 646/470 647/471 648/472
f 649/473 650/474 651/475 652/476
f 653/477 654/478 655/479 656/480
f 665/481 666/482 667/483 668/484
f 669/485 670/486 671/487 672/488
f 673/489 674/490 675/491 676/492
f 677/493 678/494 679/495 680/496
f 681/497 682/498 683/499 684/500
f 685/501 686/502 687/503 688/504
f 697/505 698/506 699/507 700/508
f 701/509 702/510 703/511 704/512
f 705/513 706/514 707/515 708/516
f 709/517 710/518 711/519 712/520
f 713/521 714/522 715/523 716/524
f 717/525 718/526 719/527 720/528
f 729/529 730/530 731/531 732/532
f 733/533 734/534 735/535 736/536
f 737/537 738/538 739/539 740/540
f 741/541 742/542 743/543 744/544
f 745/545 746/546 747/547 748/548
f 749/549 750/550 751/551 752/552
f 761/553 762/554 763/555 764/556
f 765/557 766/558 767/559 768/560
f 769/561 770/562 771/563 772/564
f 773/565 774/566 775/567 776/568
f 777/569 778/570 779/571 780/572
f 781/573 782/574 783/575 784/576
f 793/577 794/578 795/579 796/580
f 797/581 798/582 799/583 800/584
f 801/585 802/586 803/587 804/588
f 805/589 806/590 807/591 808/592
f 809/593 810/594 811/595 812/596
f 813/597 814/598 815/599 816/600
f 825/601 826/602 827/603 828/604
f 829/605 830/606 831/607 832/608
f 833/609 834/610 835/611 836/612
f 837/613 838/614 839/615 840/616
f 841/617 842/618 843/619 844/620
f 845/621 846/622 847/623 848/624
f 857/625 858/626 859/627 860/628
f 861/629 862/630 863/631 864/632
f 865/633 866/634 867/635 868/636
f 869/637 870/638 871/639 872/640
f 873/641 874/642 875/643 876/644
f 877/645 878/646 879/647 880/648
f 889/649 890/650 891/651 892/652
f 893/653 894/654 895/655 896/656
f 897/657 898/658 899/659 900/660
f 901/661 902/662 903/663 904/664
f 905/665 906/666 907/667 908/668
f 909/669 910/670 911/671 912/672
f 921/673 922/674 923/675 924/676
f 925/677 926/678 927/679 928/680
f 929/681 930/682 931/683 932/684
f 933/685 934/686 935/687 936/688
f 937/689 938/690 939/691 940/692
f 941/693 942/694 943/695 944/696
f 953/697 954/698 955/699 956/700
f 957/701 958/702 959/703 960/704
f 961/705 962/706 963/707 964/708
f 965/709 966/710 967/711 968/712
f 969/713 970/714 971/715 972/716
f 973/717 974/718 975/719 976/720
f 985/721 986/722 987/723 988/724
f 989/725 990/726 991/727 992/728
f 993/729 994/730 995/731 996/732
f 997/733 998/734 999/735 1000/736
f 1001/737 1002/738 1003/739 1004/740
f 1005/741 1006/742 1007/743 1008/744
