# RoastEngine Backrooms level
mtllib backrooms.mtl
v 1207.9500 0.0000 -53.8000
v 1211.5500 0.0000 -53.8000
v 1211.5500 0.0000 -50.2000
v 1207.9500 0.0000 -50.2000
v 1207.9500 1.6000 -53.8000
v 1211.5500 1.6000 -53.8000
v 1211.5500 1.6000 -50.2000
v 1207.9500 1.6000 -50.2000
v 1181.9500 0.0000 -50.5500
v 1181.9500 0.0000 -46.9500
v 1185.5500 0.0000 -46.9500
v 1185.5500 0.0000 -50.5500
v 1181.9500 3.1000 -50.5500
v 1185.5500 3.1000 -50.5500
v 1185.5500 3.1000 -46.9500
v 1181.9500 3.1000 -46.9500
v 1181.9500 0.0000 -50.5500
v 1185.5500 0.0000 -50.5500
v 1185.5500 3.1000 -50.5500
v 1181.9500 3.1000 -50.5500
v 1185.5500 0.0000 -46.9500
v 1181.9500 0.0000 -46.9500
v 1181.9500 3.1000 -46.9500
v 1185.5500 3.1000 -46.9500
v 1185.5500 0.0000 -50.5500
v 1185.5500 0.0000 -46.9500
v 1185.5500 3.1000 -46.9500
v 1185.5500 3.1000 -50.5500
v 1181.9500 0.0000 -46.9500
v 1181.9500 0.0000 -50.5500
v 1181.9500 3.1000 -50.5500
v 1181.9500 3.1000 -46.9500
v 1185.2000 0.0000 -50.5500
v 1188.8000 0.0000 -50.5500
v 1188.8000 0.0000 -46.9500
v 1185.2000 0.0000 -46.9500
v 1185.2000 1.6000 -50.5500
v 1188.8000 1.6000 -50.5500
v 1188.8000 1.6000 -46.9500
v 1185.2000 1.6000 -46.9500
v 1188.4500 0.0000 -50.5500
v 1192.0500 0.0000 -50.5500
v 1192.0500 0.0000 -46.9500
v 1188.4500 0.0000 -46.9500
v 1188.4500 1.6000 -50.5500
v 1192.0500 1.6000 -50.5500
v 1192.0500 1.6000 -46.9500
v 1188.4500 1.6000 -46.9500
v 1201.4500 0.0000 -50.5500
v 1205.0500 0.0000 -50.5500
v 1205.0500 0.0000 -46.9500
v 1201.4500 0.0000 -46.9500
v 1201.4500 1.6000 -50.5500
v 1205.0500 1.6000 -50.5500
v 1205.0500 1.6000 -46.9500
v 1201.4500 1.6000 -46.9500
v 1207.9500 0.0000 -50.5500
v 1207.9500 0.0000 -46.9500
v 1211.5500 0.0000 -46.9500
v 1211.5500 0.0000 -50.5500
v 1207.9500 3.1000 -50.5500
v 1211.5500 3.1000 -50.5500
v 1211.5500 3.1000 -46.9500
v 1207.9500 3.1000 -46.9500
v 1207.9500 0.0000 -50.5500
v 1211.5500 0.0000 -50.5500
v 1211.5500 3.1000 -50.5500
v 1207.9500 3.1000 -50.5500
v 1211.5500 0.0000 -46.9500
v 1207.9500 0.0000 -46.9500
v 1207.9500 3.1000 -46.9500
v 1211.5500 3.1000 -46.9500
v 1211.5500 0.0000 -50.5500
v 1211.5500 0.0000 -46.9500
v 1211.5500 3.1000 -46.9500
v 1211.5500 3.1000 -50.5500
v 1207.9500 0.0000 -46.9500
v 1207.9500 0.0000 -50.5500
v 1207.9500 3.1000 -50.5500
v 1207.9500 3.1000 -46.9500
v 1201.4500 0.0000 -47.3000
v 1205.0500 0.0000 -47.3000
v 1205.0500 0.0000 -43.7000
v 1201.4500 0.0000 -43.7000
v 1201.4500 1.6000 -47.3000
v 1205.0500 1.6000 -47.3000
v 1205.0500 1.6000 -43.7000
v 1201.4500 1.6000 -43.7000
v 1181.9500 0.0000 -44.0500
v 1181.9500 0.0000 -40.4500
v 1185.5500 0.0000 -40.4500
v 1185.5500 0.0000 -44.0500
v 1181.9500 3.1000 -44.0500
v 1185.5500 3.1000 -44.0500
v 1185.5500 3.1000 -40.4500
v 1181.9500 3.1000 -40.4500
v 1181.9500 0.0000 -44.0500
v 1185.5500 0.0000 -44.0500
v 1185.5500 3.1000 -44.0500
v 1181.9500 3.1000 -44.0500
v 1185.5500 0.0000 -40.4500
v 1181.9500 0.0000 -40.4500
v 1181.9500 3.1000 -40.4500
v 1185.5500 3.1000 -40.4500
v 1185.5500 0.0000 -44.0500
v 1185.5500 0.0000 -40.4500
v 1185.5500 3.1000 -40.4500
v 1185.5500 3.1000 -44.0500
v 1181.9500 0.0000 -40.4500
v 1181.9500 0.0000 -44.0500
v 1181.9500 3.1000 -44.0500
v 1181.9500 3.1000 -40.4500
v 1194.9500 0.0000 -44.0500
v 1194.9500 0.0000 -40.4500
v 1198.5500 0.0000 -40.4500
v 1198.5500 0.0000 -44.0500
v 1194.9500 3.1000 -44.0500
v 1198.5500 3.1000 -44.0500
v 1198.5500 3.1000 -40.4500
v 1194.9500 3.1000 -40.4500
v 1194.9500 0.0000 -44.0500
v 1198.5500 0.0000 -44.0500
v 1198.5500 3.1000 -44.0500
v 1194.9500 3.1000 -44.0500
v 1198.5500 0.0000 -40.4500
v 1194.9500 0.0000 -40.4500
v 1194.9500 3.1000 -40.4500
v 1198.5500 3.1000 -40.4500
v 1198.5500 0.0000 -44.0500
v 1198.5500 0.0000 -40.4500
v 1198.5500 3.1000 -40.4500
v 1198.5500 3.1000 -44.0500
v 1194.9500 0.0000 -40.4500
v 1194.9500 0.0000 -44.0500
v 1194.9500 3.1000 -44.0500
v 1194.9500 3.1000 -40.4500
v 1198.2000 0.0000 -44.0500
v 1201.8000 0.0000 -44.0500
v 1201.8000 0.0000 -40.4500
v 1198.2000 0.0000 -40.4500
v 1198.2000 1.6000 -44.0500
v 1201.8000 1.6000 -44.0500
v 1201.8000 1.6000 -40.4500
v 1198.2000 1.6000 -40.4500
v 1201.4500 0.0000 -44.0500
v 1205.0500 0.0000 -44.0500
v 1205.0500 0.0000 -40.4500
v 1201.4500 0.0000 -40.4500
v 1201.4500 1.6000 -44.0500
v 1205.0500 1.6000 -44.0500
v 1205.0500 1.6000 -40.4500
v 1201.4500 1.6000 -40.4500
v 1214.4500 0.0000 -44.0500
v 1214.4500 0.0000 -40.4500
v 1218.0500 0.0000 -40.4500
v 1218.0500 0.0000 -44.0500
v 1214.4500 3.1000 -44.0500
v 1218.0500 3.1000 -44.0500
v 1218.0500 3.1000 -40.4500
v 1214.4500 3.1000 -40.4500
v 1214.4500 0.0000 -44.0500
v 1218.0500 0.0000 -44.0500
v 1218.0500 3.1000 -44.0500
v 1214.4500 3.1000 -44.0500
v 1218.0500 0.0000 -40.4500
v 1214.4500 0.0000 -40.4500
v 1214.4500 3.1000 -40.4500
v 1218.0500 3.1000 -40.4500
v 1218.0500 0.0000 -44.0500
v 1218.0500 0.0000 -40.4500
v 1218.0500 3.1000 -40.4500
v 1218.0500 3.1000 -44.0500
v 1214.4500 0.0000 -40.4500
v 1214.4500 0.0000 -44.0500
v 1214.4500 3.1000 -44.0500
v 1214.4500 3.1000 -40.4500
v 1181.9500 0.0000 -40.8000
v 1185.5500 0.0000 -40.8000
v 1185.5500 0.0000 -37.2000
v 1181.9500 0.0000 -37.2000
v 1181.9500 1.6000 -40.8000
v 1185.5500 1.6000 -40.8000
v 1185.5500 1.6000 -37.2000
v 1181.9500 1.6000 -37.2000
v 1214.4500 0.0000 -40.8000
v 1214.4500 0.0000 -37.2000
v 1218.0500 0.0000 -37.2000
v 1218.0500 0.0000 -40.8000
v 1214.4500 3.1000 -40.8000
v 1218.0500 3.1000 -40.8000
v 1218.0500 3.1000 -37.2000
v 1214.4500 3.1000 -37.2000
v 1214.4500 0.0000 -40.8000
v 1218.0500 0.0000 -40.8000
v 1218.0500 3.1000 -40.8000
v 1214.4500 3.1000 -40.8000
v 1218.0500 0.0000 -37.2000
v 1214.4500 0.0000 -37.2000
v 1214.4500 3.1000 -37.2000
v 1218.0500 3.1000 -37.2000
v 1218.0500 0.0000 -40.8000
v 1218.0500 0.0000 -37.2000
v 1218.0500 3.1000 -37.2000
v 1218.0500 3.1000 -40.8000
v 1214.4500 0.0000 -37.2000
v 1214.4500 0.0000 -40.8000
v 1214.4500 3.1000 -40.8000
v 1214.4500 3.1000 -37.2000
v 1181.9500 0.0000 -37.5500
v 1185.5500 0.0000 -37.5500
v 1185.5500 0.0000 -33.9500
v 1181.9500 0.0000 -33.9500
v 1181.9500 1.6000 -37.5500
v 1185.5500 1.6000 -37.5500
v 1185.5500 1.6000 -33.9500
v 1181.9500 1.6000 -33.9500
v 1188.4500 0.0000 -37.5500
v 1188.4500 0.0000 -33.9500
v 1192.0500 0.0000 -33.9500
v 1192.0500 0.0000 -37.5500
v 1188.4500 3.1000 -37.5500
v 1192.0500 3.1000 -37.5500
v 1192.0500 3.1000 -33.9500
v 1188.4500 3.1000 -33.9500
v 1188.4500 0.0000 -37.5500
v 1192.0500 0.0000 -37.5500
v 1192.0500 3.1000 -37.5500
v 1188.4500 3.1000 -37.5500
v 1192.0500 0.0000 -33.9500
v 1188.4500 0.0000 -33.9500
v 1188.4500 3.1000 -33.9500
v 1192.0500 3.1000 -33.9500
v 1192.0500 0.0000 -37.5500
v 1192.0500 0.0000 -33.9500
v 1192.0500 3.1000 -33.9500
v 1192.0500 3.1000 -37.5500
v 1188.4500 0.0000 -33.9500
v 1188.4500 0.0000 -37.5500
v 1188.4500 3.1000 -37.5500
v 1188.4500 3.1000 -33.9500
v 1207.9500 0.0000 -37.5500
v 1211.5500 0.0000 -37.5500
v 1211.5500 0.0000 -33.9500
v 1207.9500 0.0000 -33.9500
v 1207.9500 1.6000 -37.5500
v 1211.5500 1.6000 -37.5500
v 1211.5500 1.6000 -33.9500
v 1207.9500 1.6000 -33.9500
v 1214.4500 0.0000 -37.5500
v 1218.0500 0.0000 -37.5500
v 1218.0500 0.0000 -33.9500
v 1214.4500 0.0000 -33.9500
v 1214.4500 1.6000 -37.5500
v 1218.0500 1.6000 -37.5500
v 1218.0500 1.6000 -33.9500
v 1214.4500 1.6000 -33.9500
v 1188.4500 0.0000 -34.3000
v 1188.4500 0.0000 -30.7000
v 1192.0500 0.0000 -30.7000
v 1192.0500 0.0000 -34.3000
v 1188.4500 3.1000 -34.3000
v 1192.0500 3.1000 -34.3000
v 1192.0500 3.1000 -30.7000
v 1188.4500 3.1000 -30.7000
v 1188.4500 0.0000 -34.3000
v 1192.0500 0.0000 -34.3000
v 1192.0500 3.1000 -34.3000
v 1188.4500 3.1000 -34.3000
v 1192.0500 0.0000 -30.7000
v 1188.4500 0.0000 -30.7000
v 1188.4500 3.1000 -30.7000
v 1192.0500 3.1000 -30.7000
v 1192.0500 0.0000 -34.3000
v 1192.0500 0.0000 -30.7000
v 1192.0500 3.1000 -30.7000
v 1192.0500 3.1000 -34.3000
v 1188.4500 0.0000 -30.7000
v 1188.4500 0.0000 -34.3000
v 1188.4500 3.1000 -34.3000
v 1188.4500 3.1000 -30.7000
v 1207.9500 0.0000 -34.3000
v 1211.5500 0.0000 -34.3000
v 1211.5500 0.0000 -30.7000
v 1207.9500 0.0000 -30.7000
v 1207.9500 1.6000 -34.3000
v 1211.5500 1.6000 -34.3000
v 1211.5500 1.6000 -30.7000
v 1207.9500 1.6000 -30.7000
v 1188.4500 0.0000 -31.0500
v 1188.4500 0.0000 -27.4500
v 1192.0500 0.0000 -27.4500
v 1192.0500 0.0000 -31.0500
v 1188.4500 3.1000 -31.0500
v 1192.0500 3.1000 -31.0500
v 1192.0500 3.1000 -27.4500
v 1188.4500 3.1000 -27.4500
v 1188.4500 0.0000 -31.0500
v 1192.0500 0.0000 -31.0500
v 1192.0500 3.1000 -31.0500
v 1188.4500 3.1000 -31.0500
v 1192.0500 0.0000 -27.4500
v 1188.4500 0.0000 -27.4500
v 1188.4500 3.1000 -27.4500
v 1192.0500 3.1000 -27.4500
v 1192.0500 0.0000 -31.0500
v 1192.0500 0.0000 -27.4500
v 1192.0500 3.1000 -27.4500
v 1192.0500 3.1000 -31.0500
v 1188.4500 0.0000 -27.4500
v 1188.4500 0.0000 -31.0500
v 1188.4500 3.1000 -31.0500
v 1188.4500 3.1000 -27.4500
v 1194.9500 0.0000 -31.0500
v 1198.5500 0.0000 -31.0500
v 1198.5500 0.0000 -27.4500
v 1194.9500 0.0000 -27.4500
v 1194.9500 1.6000 -31.0500
v 1198.5500 1.6000 -31.0500
v 1198.5500 1.6000 -27.4500
v 1194.9500 1.6000 -27.4500
v 1198.2000 0.0000 -31.0500
v 1201.8000 0.0000 -31.0500
v 1201.8000 0.0000 -27.4500
v 1198.2000 0.0000 -27.4500
v 1198.2000 1.6000 -31.0500
v 1201.8000 1.6000 -31.0500
v 1201.8000 1.6000 -27.4500
v 1198.2000 1.6000 -27.4500
v 1201.4500 0.0000 -31.0500
v 1201.4500 0.0000 -27.4500
v 1205.0500 0.0000 -27.4500
v 1205.0500 0.0000 -31.0500
v 1201.4500 3.1000 -31.0500
v 1205.0500 3.1000 -31.0500
v 1205.0500 3.1000 -27.4500
v 1201.4500 3.1000 -27.4500
v 1201.4500 0.0000 -31.0500
v 1205.0500 0.0000 -31.0500
v 1205.0500 3.1000 -31.0500
v 1201.4500 3.1000 -31.0500
v 1205.0500 0.0000 -27.4500
v 1201.4500 0.0000 -27.4500
v 1201.4500 3.1000 -27.4500
v 1205.0500 3.1000 -27.4500
v 1205.0500 0.0000 -31.0500
v 1205.0500 0.0000 -27.4500
v 1205.0500 3.1000 -27.4500
v 1205.0500 3.1000 -31.0500
v 1201.4500 0.0000 -27.4500
v 1201.4500 0.0000 -31.0500
v 1201.4500 3.1000 -31.0500
v 1201.4500 3.1000 -27.4500
v 1204.7000 0.0000 -31.0500
v 1204.7000 0.0000 -27.4500
v 1208.3000 0.0000 -27.4500
v 1208.3000 0.0000 -31.0500
v 1204.7000 3.1000 -31.0500
v 1208.3000 3.1000 -31.0500
v 1208.3000 3.1000 -27.4500
v 1204.7000 3.1000 -27.4500
v 1204.7000 0.0000 -31.0500
v 1208.3000 0.0000 -31.0500
v 1208.3000 3.1000 -31.0500
v 1204.7000 3.1000 -31.0500
v 1208.3000 0.0000 -27.4500
v 1204.7000 0.0000 -27.4500
v 1204.7000 3.1000 -27.4500
v 1208.3000 3.1000 -27.4500
v 1208.3000 0.0000 -31.0500
v 1208.3000 0.0000 -27.4500
v 1208.3000 3.1000 -27.4500
v 1208.3000 3.1000 -31.0500
v 1204.7000 0.0000 -27.4500
v 1204.7000 0.0000 -31.0500
v 1204.7000 3.1000 -31.0500
v 1204.7000 3.1000 -27.4500
v 1207.9500 0.0000 -31.0500
v 1207.9500 0.0000 -27.4500
v 1211.5500 0.0000 -27.4500
v 1211.5500 0.0000 -31.0500
v 1207.9500 3.1000 -31.0500
v 1211.5500 3.1000 -31.0500
v 1211.5500 3.1000 -27.4500
v 1207.9500 3.1000 -27.4500
v 1207.9500 0.0000 -31.0500
v 1211.5500 0.0000 -31.0500
v 1211.5500 3.1000 -31.0500
v 1207.9500 3.1000 -31.0500
v 1211.5500 0.0000 -27.4500
v 1207.9500 0.0000 -27.4500
v 1207.9500 3.1000 -27.4500
v 1211.5500 3.1000 -27.4500
v 1211.5500 0.0000 -31.0500
v 1211.5500 0.0000 -27.4500
v 1211.5500 3.1000 -27.4500
v 1211.5500 3.1000 -31.0500
v 1207.9500 0.0000 -27.4500
v 1207.9500 0.0000 -31.0500
v 1207.9500 3.1000 -31.0500
v 1207.9500 3.1000 -27.4500
v 1214.4500 0.0000 -31.0500
v 1218.0500 0.0000 -31.0500
v 1218.0500 0.0000 -27.4500
v 1214.4500 0.0000 -27.4500
v 1214.4500 1.6000 -31.0500
v 1218.0500 1.6000 -31.0500
v 1218.0500 1.6000 -27.4500
v 1214.4500 1.6000 -27.4500
v 1194.9500 0.0000 -24.5500
v 1194.9500 0.0000 -20.9500
v 1198.5500 0.0000 -20.9500
v 1198.5500 0.0000 -24.5500
v 1194.9500 3.1000 -24.5500
v 1198.5500 3.1000 -24.5500
v 1198.5500 3.1000 -20.9500
v 1194.9500 3.1000 -20.9500
v 1194.9500 0.0000 -24.5500
v 1198.5500 0.0000 -24.5500
v 1198.5500 3.1000 -24.5500
v 1194.9500 3.1000 -24.5500
v 1198.5500 0.0000 -20.9500
v 1194.9500 0.0000 -20.9500
v 1194.9500 3.1000 -20.9500
v 1198.5500 3.1000 -20.9500
v 1198.5500 0.0000 -24.5500
v 1198.5500 0.0000 -20.9500
v 1198.5500 3.1000 -20.9500
v 1198.5500 3.1000 -24.5500
v 1194.9500 0.0000 -20.9500
v 1194.9500 0.0000 -24.5500
v 1194.9500 3.1000 -24.5500
v 1194.9500 3.1000 -20.9500
v 1201.4500 0.0000 -24.5500
v 1201.4500 0.0000 -20.9500
v 1205.0500 0.0000 -20.9500
v 1205.0500 0.0000 -24.5500
v 1201.4500 3.1000 -24.5500
v 1205.0500 3.1000 -24.5500
v 1205.0500 3.1000 -20.9500
v 1201.4500 3.1000 -20.9500
v 1201.4500 0.0000 -24.5500
v 1205.0500 0.0000 -24.5500
v 1205.0500 3.1000 -24.5500
v 1201.4500 3.1000 -24.5500
v 1205.0500 0.0000 -20.9500
v 1201.4500 0.0000 -20.9500
v 1201.4500 3.1000 -20.9500
v 1205.0500 3.1000 -20.9500
v 1205.0500 0.0000 -24.5500
v 1205.0500 0.0000 -20.9500
v 1205.0500 3.1000 -20.9500
v 1205.0500 3.1000 -24.5500
v 1201.4500 0.0000 -20.9500
v 1201.4500 0.0000 -24.5500
v 1201.4500 3.1000 -24.5500
v 1201.4500 3.1000 -20.9500
v 1204.7000 0.0000 -24.5500
v 1204.7000 0.0000 -20.9500
v 1208.3000 0.0000 -20.9500
v 1208.3000 0.0000 -24.5500
v 1204.7000 3.1000 -24.5500
v 1208.3000 3.1000 -24.5500
v 1208.3000 3.1000 -20.9500
v 1204.7000 3.1000 -20.9500
v 1204.7000 0.0000 -24.5500
v 1208.3000 0.0000 -24.5500
v 1208.3000 3.1000 -24.5500
v 1204.7000 3.1000 -24.5500
v 1208.3000 0.0000 -20.9500
v 1204.7000 0.0000 -20.9500
v 1204.7000 3.1000 -20.9500
v 1208.3000 3.1000 -20.9500
v 1208.3000 0.0000 -24.5500
v 1208.3000 0.0000 -20.9500
v 1208.3000 3.1000 -20.9500
v 1208.3000 3.1000 -24.5500
v 1204.7000 0.0000 -20.9500
v 1204.7000 0.0000 -24.5500
v 1204.7000 3.1000 -24.5500
v 1204.7000 3.1000 -20.9500
v 1207.9500 0.0000 -24.5500
v 1207.9500 0.0000 -20.9500
v 1211.5500 0.0000 -20.9500
v 1211.5500 0.0000 -24.5500
v 1207.9500 3.1000 -24.5500
v 1211.5500 3.1000 -24.5500
v 1211.5500 3.1000 -20.9500
v 1207.9500 3.1000 -20.9500
v 1207.9500 0.0000 -24.5500
v 1211.5500 0.0000 -24.5500
v 1211.5500 3.1000 -24.5500
v 1207.9500 3.1000 -24.5500
v 1211.5500 0.0000 -20.9500
v 1207.9500 0.0000 -20.9500
v 1207.9500 3.1000 -20.9500
v 1211.5500 3.1000 -20.9500
v 1211.5500 0.0000 -24.5500
v 1211.5500 0.0000 -20.9500
v 1211.5500 3.1000 -20.9500
v 1211.5500 3.1000 -24.5500
v 1207.9500 0.0000 -20.9500
v 1207.9500 0.0000 -24.5500
v 1207.9500 3.1000 -24.5500
v 1207.9500 3.1000 -20.9500
v 1201.4500 0.0000 -21.3000
v 1201.4500 0.0000 -17.7000
v 1205.0500 0.0000 -17.7000
v 1205.0500 0.0000 -21.3000
v 1201.4500 3.1000 -21.3000
v 1205.0500 3.1000 -21.3000
v 1205.0500 3.1000 -17.7000
v 1201.4500 3.1000 -17.7000
v 1201.4500 0.0000 -21.3000
v 1205.0500 0.0000 -21.3000
v 1205.0500 3.1000 -21.3000
v 1201.4500 3.1000 -21.3000
v 1205.0500 0.0000 -17.7000
v 1201.4500 0.0000 -17.7000
v 1201.4500 3.1000 -17.7000
v 1205.0500 3.1000 -17.7000
v 1205.0500 0.0000 -21.3000
v 1205.0500 0.0000 -17.7000
v 1205.0500 3.1000 -17.7000
v 1205.0500 3.1000 -21.3000
v 1201.4500 0.0000 -17.7000
v 1201.4500 0.0000 -21.3000
v 1201.4500 3.1000 -21.3000
v 1201.4500 3.1000 -17.7000
v 1192.7000 2.9300 -52.1750
v 1194.3000 2.9300 -52.1750
v 1194.3000 2.9300 -51.8250
v 1192.7000 2.9300 -51.8250
v 1192.7000 3.0300 -52.1750
v 1194.3000 3.0300 -52.1750
v 1194.3000 3.0300 -51.8250
v 1192.7000 3.0300 -51.8250
v 1192.5500 3.0100 -52.3000
v 1192.5500 3.0100 -51.7000
v 1194.4500 3.0100 -51.7000
v 1194.4500 3.0100 -52.3000
v 1192.5500 3.0900 -52.3000
v 1194.4500 3.0900 -52.3000
v 1194.4500 3.0900 -51.7000
v 1192.5500 3.0900 -51.7000
v 1192.5500 3.0100 -52.3000
v 1194.4500 3.0100 -52.3000
v 1194.4500 3.0900 -52.3000
v 1192.5500 3.0900 -52.3000
v 1194.4500 3.0100 -51.7000
v 1192.5500 3.0100 -51.7000
v 1192.5500 3.0900 -51.7000
v 1194.4500 3.0900 -51.7000
v 1194.4500 3.0100 -52.3000
v 1194.4500 3.0100 -51.7000
v 1194.4500 3.0900 -51.7000
v 1194.4500 3.0900 -52.3000
v 1192.5500 3.0100 -51.7000
v 1192.5500 3.0100 -52.3000
v 1192.5500 3.0900 -52.3000
v 1192.5500 3.0900 -51.7000
v 1205.7000 2.9300 -52.1750
v 1207.3000 2.9300 -52.1750
v 1207.3000 2.9300 -51.8250
v 1205.7000 2.9300 -51.8250
v 1205.7000 3.0300 -52.1750
v 1207.3000 3.0300 -52.1750
v 1207.3000 3.0300 -51.8250
v 1205.7000 3.0300 -51.8250
v 1205.5500 3.0100 -52.3000
v 1205.5500 3.0100 -51.7000
v 1207.4500 3.0100 -51.7000
v 1207.4500 3.0100 -52.3000
v 1205.5500 3.0900 -52.3000
v 1207.4500 3.0900 -52.3000
v 1207.4500 3.0900 -51.7000
v 1205.5500 3.0900 -51.7000
v 1205.5500 3.0100 -52.3000
v 1207.4500 3.0100 -52.3000
v 1207.4500 3.0900 -52.3000
v 1205.5500 3.0900 -52.3000
v 1207.4500 3.0100 -51.7000
v 1205.5500 3.0100 -51.7000
v 1205.5500 3.0900 -51.7000
v 1207.4500 3.0900 -51.7000
v 1207.4500 3.0100 -52.3000
v 1207.4500 3.0100 -51.7000
v 1207.4500 3.0900 -51.7000
v 1207.4500 3.0900 -52.3000
v 1205.5500 3.0100 -51.7000
v 1205.5500 3.0100 -52.3000
v 1205.5500 3.0900 -52.3000
v 1205.5500 3.0900 -51.7000
v 1212.2000 2.9300 -52.1750
v 1213.8000 2.9300 -52.1750
v 1213.8000 2.9300 -51.8250
v 1212.2000 2.9300 -51.8250
v 1212.2000 3.0300 -52.1750
v 1213.8000 3.0300 -52.1750
v 1213.8000 3.0300 -51.8250
v 1212.2000 3.0300 -51.8250
v 1212.0500 3.0100 -52.3000
v 1212.0500 3.0100 -51.7000
v 1213.9500 3.0100 -51.7000
v 1213.9500 3.0100 -52.3000
v 1212.0500 3.0900 -52.3000
v 1213.9500 3.0900 -52.3000
v 1213.9500 3.0900 -51.7000
v 1212.0500 3.0900 -51.7000
v 1212.0500 3.0100 -52.3000
v 1213.9500 3.0100 -52.3000
v 1213.9500 3.0900 -52.3000
v 1212.0500 3.0900 -52.3000
v 1213.9500 3.0100 -51.7000
v 1212.0500 3.0100 -51.7000
v 1212.0500 3.0900 -51.7000
v 1213.9500 3.0900 -51.7000
v 1213.9500 3.0100 -52.3000
v 1213.9500 3.0100 -51.7000
v 1213.9500 3.0900 -51.7000
v 1213.9500 3.0900 -52.3000
v 1212.0500 3.0100 -51.7000
v 1212.0500 3.0100 -52.3000
v 1212.0500 3.0900 -52.3000
v 1212.0500 3.0900 -51.7000
v 1199.2000 2.9300 -45.6750
v 1200.8000 2.9300 -45.6750
v 1200.8000 2.9300 -45.3250
v 1199.2000 2.9300 -45.3250
v 1199.2000 3.0300 -45.6750
v 1200.8000 3.0300 -45.6750
v 1200.8000 3.0300 -45.3250
v 1199.2000 3.0300 -45.3250
v 1199.0500 3.0100 -45.8000
v 1199.0500 3.0100 -45.2000
v 1200.9500 3.0100 -45.2000
v 1200.9500 3.0100 -45.8000
v 1199.0500 3.0900 -45.8000
v 1200.9500 3.0900 -45.8000
v 1200.9500 3.0900 -45.2000
v 1199.0500 3.0900 -45.2000
v 1199.0500 3.0100 -45.8000
v 1200.9500 3.0100 -45.8000
v 1200.9500 3.0900 -45.8000
v 1199.0500 3.0900 -45.8000
v 1200.9500 3.0100 -45.2000
v 1199.0500 3.0100 -45.2000
v 1199.0500 3.0900 -45.2000
v 1200.9500 3.0900 -45.2000
v 1200.9500 3.0100 -45.8000
v 1200.9500 3.0100 -45.2000
v 1200.9500 3.0900 -45.2000
v 1200.9500 3.0900 -45.8000
v 1199.0500 3.0100 -45.2000
v 1199.0500 3.0100 -45.8000
v 1199.0500 3.0900 -45.8000
v 1199.0500 3.0900 -45.2000
v 1205.7000 2.9300 -45.6750
v 1207.3000 2.9300 -45.6750
v 1207.3000 2.9300 -45.3250
v 1205.7000 2.9300 -45.3250
v 1205.7000 3.0300 -45.6750
v 1207.3000 3.0300 -45.6750
v 1207.3000 3.0300 -45.3250
v 1205.7000 3.0300 -45.3250
v 1205.5500 3.0100 -45.8000
v 1205.5500 3.0100 -45.2000
v 1207.4500 3.0100 -45.2000
v 1207.4500 3.0100 -45.8000
v 1205.5500 3.0900 -45.8000
v 1207.4500 3.0900 -45.8000
v 1207.4500 3.0900 -45.2000
v 1205.5500 3.0900 -45.2000
v 1205.5500 3.0100 -45.8000
v 1207.4500 3.0100 -45.8000
v 1207.4500 3.0900 -45.8000
v 1205.5500 3.0900 -45.8000
v 1207.4500 3.0100 -45.2000
v 1205.5500 3.0100 -45.2000
v 1205.5500 3.0900 -45.2000
v 1207.4500 3.0900 -45.2000
v 1207.4500 3.0100 -45.8000
v 1207.4500 3.0100 -45.2000
v 1207.4500 3.0900 -45.2000
v 1207.4500 3.0900 -45.8000
v 1205.5500 3.0100 -45.2000
v 1205.5500 3.0100 -45.8000
v 1205.5500 3.0900 -45.8000
v 1205.5500 3.0900 -45.2000
v 1212.2000 2.9300 -45.6750
v 1213.8000 2.9300 -45.6750
v 1213.8000 2.9300 -45.3250
v 1212.2000 2.9300 -45.3250
v 1212.2000 3.0300 -45.6750
v 1213.8000 3.0300 -45.6750
v 1213.8000 3.0300 -45.3250
v 1212.2000 3.0300 -45.3250
v 1212.0500 3.0100 -45.8000
v 1212.0500 3.0100 -45.2000
v 1213.9500 3.0100 -45.2000
v 1213.9500 3.0100 -45.8000
v 1212.0500 3.0900 -45.8000
v 1213.9500 3.0900 -45.8000
v 1213.9500 3.0900 -45.2000
v 1212.0500 3.0900 -45.2000
v 1212.0500 3.0100 -45.8000
v 1213.9500 3.0100 -45.8000
v 1213.9500 3.0900 -45.8000
v 1212.0500 3.0900 -45.8000
v 1213.9500 3.0100 -45.2000
v 1212.0500 3.0100 -45.2000
v 1212.0500 3.0900 -45.2000
v 1213.9500 3.0900 -45.2000
v 1213.9500 3.0100 -45.8000
v 1213.9500 3.0100 -45.2000
v 1213.9500 3.0900 -45.2000
v 1213.9500 3.0900 -45.8000
v 1212.0500 3.0100 -45.2000
v 1212.0500 3.0100 -45.8000
v 1212.0500 3.0900 -45.8000
v 1212.0500 3.0900 -45.2000
v 1186.2000 2.9300 -39.1750
v 1187.8000 2.9300 -39.1750
v 1187.8000 2.9300 -38.8250
v 1186.2000 2.9300 -38.8250
v 1186.2000 3.0300 -39.1750
v 1187.8000 3.0300 -39.1750
v 1187.8000 3.0300 -38.8250
v 1186.2000 3.0300 -38.8250
v 1186.0500 3.0100 -39.3000
v 1186.0500 3.0100 -38.7000
v 1187.9500 3.0100 -38.7000
v 1187.9500 3.0100 -39.3000
v 1186.0500 3.0900 -39.3000
v 1187.9500 3.0900 -39.3000
v 1187.9500 3.0900 -38.7000
v 1186.0500 3.0900 -38.7000
v 1186.0500 3.0100 -39.3000
v 1187.9500 3.0100 -39.3000
v 1187.9500 3.0900 -39.3000
v 1186.0500 3.0900 -39.3000
v 1187.9500 3.0100 -38.7000
v 1186.0500 3.0100 -38.7000
v 1186.0500 3.0900 -38.7000
v 1187.9500 3.0900 -38.7000
v 1187.9500 3.0100 -39.3000
v 1187.9500 3.0100 -38.7000
v 1187.9500 3.0900 -38.7000
v 1187.9500 3.0900 -39.3000
v 1186.0500 3.0100 -38.7000
v 1186.0500 3.0100 -39.3000
v 1186.0500 3.0900 -39.3000
v 1186.0500 3.0900 -38.7000
v 1192.7000 2.9300 -39.1750
v 1194.3000 2.9300 -39.1750
v 1194.3000 2.9300 -38.8250
v 1192.7000 2.9300 -38.8250
v 1192.7000 3.0300 -39.1750
v 1194.3000 3.0300 -39.1750
v 1194.3000 3.0300 -38.8250
v 1192.7000 3.0300 -38.8250
v 1192.5500 3.0100 -39.3000
v 1192.5500 3.0100 -38.7000
v 1194.4500 3.0100 -38.7000
v 1194.4500 3.0100 -39.3000
v 1192.5500 3.0900 -39.3000
v 1194.4500 3.0900 -39.3000
v 1194.4500 3.0900 -38.7000
v 1192.5500 3.0900 -38.7000
v 1192.5500 3.0100 -39.3000
v 1194.4500 3.0100 -39.3000
v 1194.4500 3.0900 -39.3000
v 1192.5500 3.0900 -39.3000
v 1194.4500 3.0100 -38.7000
v 1192.5500 3.0100 -38.7000
v 1192.5500 3.0900 -38.7000
v 1194.4500 3.0900 -38.7000
v 1194.4500 3.0100 -39.3000
v 1194.4500 3.0100 -38.7000
v 1194.4500 3.0900 -38.7000
v 1194.4500 3.0900 -39.3000
v 1192.5500 3.0100 -38.7000
v 1192.5500 3.0100 -39.3000
v 1192.5500 3.0900 -39.3000
v 1192.5500 3.0900 -38.7000
v 1205.7000 2.9300 -39.1750
v 1207.3000 2.9300 -39.1750
v 1207.3000 2.9300 -38.8250
v 1205.7000 2.9300 -38.8250
v 1205.7000 3.0300 -39.1750
v 1207.3000 3.0300 -39.1750
v 1207.3000 3.0300 -38.8250
v 1205.7000 3.0300 -38.8250
v 1205.5500 3.0100 -39.3000
v 1205.5500 3.0100 -38.7000
v 1207.4500 3.0100 -38.7000
v 1207.4500 3.0100 -39.3000
v 1205.5500 3.0900 -39.3000
v 1207.4500 3.0900 -39.3000
v 1207.4500 3.0900 -38.7000
v 1205.5500 3.0900 -38.7000
v 1205.5500 3.0100 -39.3000
v 1207.4500 3.0100 -39.3000
v 1207.4500 3.0900 -39.3000
v 1205.5500 3.0900 -39.3000
v 1207.4500 3.0100 -38.7000
v 1205.5500 3.0100 -38.7000
v 1205.5500 3.0900 -38.7000
v 1207.4500 3.0900 -38.7000
v 1207.4500 3.0100 -39.3000
v 1207.4500 3.0100 -38.7000
v 1207.4500 3.0900 -38.7000
v 1207.4500 3.0900 -39.3000
v 1205.5500 3.0100 -38.7000
v 1205.5500 3.0100 -39.3000
v 1205.5500 3.0900 -39.3000
v 1205.5500 3.0900 -38.7000
v 1212.2000 2.9300 -39.1750
v 1213.8000 2.9300 -39.1750
v 1213.8000 2.9300 -38.8250
v 1212.2000 2.9300 -38.8250
v 1212.2000 3.0300 -39.1750
v 1213.8000 3.0300 -39.1750
v 1213.8000 3.0300 -38.8250
v 1212.2000 3.0300 -38.8250
v 1212.0500 3.0100 -39.3000
v 1212.0500 3.0100 -38.7000
v 1213.9500 3.0100 -38.7000
v 1213.9500 3.0100 -39.3000
v 1212.0500 3.0900 -39.3000
v 1213.9500 3.0900 -39.3000
v 1213.9500 3.0900 -38.7000
v 1212.0500 3.0900 -38.7000
v 1212.0500 3.0100 -39.3000
v 1213.9500 3.0100 -39.3000
v 1213.9500 3.0900 -39.3000
v 1212.0500 3.0900 -39.3000
v 1213.9500 3.0100 -38.7000
v 1212.0500 3.0100 -38.7000
v 1212.0500 3.0900 -38.7000
v 1213.9500 3.0900 -38.7000
v 1213.9500 3.0100 -39.3000
v 1213.9500 3.0100 -38.7000
v 1213.9500 3.0900 -38.7000
v 1213.9500 3.0900 -39.3000
v 1212.0500 3.0100 -38.7000
v 1212.0500 3.0100 -39.3000
v 1212.0500 3.0900 -39.3000
v 1212.0500 3.0900 -38.7000
v 1218.7000 2.9300 -39.1750
v 1220.3000 2.9300 -39.1750
v 1220.3000 2.9300 -38.8250
v 1218.7000 2.9300 -38.8250
v 1218.7000 3.0300 -39.1750
v 1220.3000 3.0300 -39.1750
v 1220.3000 3.0300 -38.8250
v 1218.7000 3.0300 -38.8250
v 1218.5500 3.0100 -39.3000
v 1218.5500 3.0100 -38.7000
v 1220.4500 3.0100 -38.7000
v 1220.4500 3.0100 -39.3000
v 1218.5500 3.0900 -39.3000
v 1220.4500 3.0900 -39.3000
v 1220.4500 3.0900 -38.7000
v 1218.5500 3.0900 -38.7000
v 1218.5500 3.0100 -39.3000
v 1220.4500 3.0100 -39.3000
v 1220.4500 3.0900 -39.3000
v 1218.5500 3.0900 -39.3000
v 1220.4500 3.0100 -38.7000
v 1218.5500 3.0100 -38.7000
v 1218.5500 3.0900 -38.7000
v 1220.4500 3.0900 -38.7000
v 1220.4500 3.0100 -39.3000
v 1220.4500 3.0100 -38.7000
v 1220.4500 3.0900 -38.7000
v 1220.4500 3.0900 -39.3000
v 1218.5500 3.0100 -38.7000
v 1218.5500 3.0100 -39.3000
v 1218.5500 3.0900 -39.3000
v 1218.5500 3.0900 -38.7000
v 1186.2000 2.9300 -32.6750
v 1187.8000 2.9300 -32.6750
v 1187.8000 2.9300 -32.3250
v 1186.2000 2.9300 -32.3250
v 1186.2000 3.0300 -32.6750
v 1187.8000 3.0300 -32.6750
v 1187.8000 3.0300 -32.3250
v 1186.2000 3.0300 -32.3250
v 1186.0500 3.0100 -32.8000
v 1186.0500 3.0100 -32.2000
v 1187.9500 3.0100 -32.2000
v 1187.9500 3.0100 -32.8000
v 1186.0500 3.0900 -32.8000
v 1187.9500 3.0900 -32.8000
v 1187.9500 3.0900 -32.2000
v 1186.0500 3.0900 -32.2000
v 1186.0500 3.0100 -32.8000
v 1187.9500 3.0100 -32.8000
v 1187.9500 3.0900 -32.8000
v 1186.0500 3.0900 -32.8000
v 1187.9500 3.0100 -32.2000
v 1186.0500 3.0100 -32.2000
v 1186.0500 3.0900 -32.2000
v 1187.9500 3.0900 -32.2000
v 1187.9500 3.0100 -32.8000
v 1187.9500 3.0100 -32.2000
v 1187.9500 3.0900 -32.2000
v 1187.9500 3.0900 -32.8000
v 1186.0500 3.0100 -32.2000
v 1186.0500 3.0100 -32.8000
v 1186.0500 3.0900 -32.8000
v 1186.0500 3.0900 -32.2000
v 1192.7000 2.9300 -32.6750
v 1194.3000 2.9300 -32.6750
v 1194.3000 2.9300 -32.3250
v 1192.7000 2.9300 -32.3250
v 1192.7000 3.0300 -32.6750
v 1194.3000 3.0300 -32.6750
v 1194.3000 3.0300 -32.3250
v 1192.7000 3.0300 -32.3250
v 1192.5500 3.0100 -32.8000
v 1192.5500 3.0100 -32.2000
v 1194.4500 3.0100 -32.2000
v 1194.4500 3.0100 -32.8000
v 1192.5500 3.0900 -32.8000
v 1194.4500 3.0900 -32.8000
v 1194.4500 3.0900 -32.2000
v 1192.5500 3.0900 -32.2000
v 1192.5500 3.0100 -32.8000
v 1194.4500 3.0100 -32.8000
v 1194.4500 3.0900 -32.8000
v 1192.5500 3.0900 -32.8000
v 1194.4500 3.0100 -32.2000
v 1192.5500 3.0100 -32.2000
v 1192.5500 3.0900 -32.2000
v 1194.4500 3.0900 -32.2000
v 1194.4500 3.0100 -32.8000
v 1194.4500 3.0100 -32.2000
v 1194.4500 3.0900 -32.2000
v 1194.4500 3.0900 -32.8000
v 1192.5500 3.0100 -32.2000
v 1192.5500 3.0100 -32.8000
v 1192.5500 3.0900 -32.8000
v 1192.5500 3.0900 -32.2000
v 1212.2000 2.9300 -32.6750
v 1213.8000 2.9300 -32.6750
v 1213.8000 2.9300 -32.3250
v 1212.2000 2.9300 -32.3250
v 1212.2000 3.0300 -32.6750
v 1213.8000 3.0300 -32.6750
v 1213.8000 3.0300 -32.3250
v 1212.2000 3.0300 -32.3250
v 1212.0500 3.0100 -32.8000
v 1212.0500 3.0100 -32.2000
v 1213.9500 3.0100 -32.2000
v 1213.9500 3.0100 -32.8000
v 1212.0500 3.0900 -32.8000
v 1213.9500 3.0900 -32.8000
v 1213.9500 3.0900 -32.2000
v 1212.0500 3.0900 -32.2000
v 1212.0500 3.0100 -32.8000
v 1213.9500 3.0100 -32.8000
v 1213.9500 3.0900 -32.8000
v 1212.0500 3.0900 -32.8000
v 1213.9500 3.0100 -32.2000
v 1212.0500 3.0100 -32.2000
v 1212.0500 3.0900 -32.2000
v 1213.9500 3.0900 -32.2000
v 1213.9500 3.0100 -32.8000
v 1213.9500 3.0100 -32.2000
v 1213.9500 3.0900 -32.2000
v 1213.9500 3.0900 -32.8000
v 1212.0500 3.0100 -32.2000
v 1212.0500 3.0100 -32.8000
v 1212.0500 3.0900 -32.8000
v 1212.0500 3.0900 -32.2000
v 1218.7000 2.9300 -32.6750
v 1220.3000 2.9300 -32.6750
v 1220.3000 2.9300 -32.3250
v 1218.7000 2.9300 -32.3250
v 1218.7000 3.0300 -32.6750
v 1220.3000 3.0300 -32.6750
v 1220.3000 3.0300 -32.3250
v 1218.7000 3.0300 -32.3250
v 1218.5500 3.0100 -32.8000
v 1218.5500 3.0100 -32.2000
v 1220.4500 3.0100 -32.2000
v 1220.4500 3.0100 -32.8000
v 1218.5500 3.0900 -32.8000
v 1220.4500 3.0900 -32.8000
v 1220.4500 3.0900 -32.2000
v 1218.5500 3.0900 -32.2000
v 1218.5500 3.0100 -32.8000
v 1220.4500 3.0100 -32.8000
v 1220.4500 3.0900 -32.8000
v 1218.5500 3.0900 -32.8000
v 1220.4500 3.0100 -32.2000
v 1218.5500 3.0100 -32.2000
v 1218.5500 3.0900 -32.2000
v 1220.4500 3.0900 -32.2000
v 1220.4500 3.0100 -32.8000
v 1220.4500 3.0100 -32.2000
v 1220.4500 3.0900 -32.2000
v 1220.4500 3.0900 -32.8000
v 1218.5500 3.0100 -32.2000
v 1218.5500 3.0100 -32.8000
v 1218.5500 3.0900 -32.8000
v 1218.5500 3.0900 -32.2000
v 1192.7000 2.9300 -26.1750
v 1194.3000 2.9300 -26.1750
v 1194.3000 2.9300 -25.8250
v 1192.7000 2.9300 -25.8250
v 1192.7000 3.0300 -26.1750
v 1194.3000 3.0300 -26.1750
v 1194.3000 3.0300 -25.8250
v 1192.7000 3.0300 -25.8250
v 1192.5500 3.0100 -26.3000
v 1192.5500 3.0100 -25.7000
v 1194.4500 3.0100 -25.7000
v 1194.4500 3.0100 -26.3000
v 1192.5500 3.0900 -26.3000
v 1194.4500 3.0900 -26.3000
v 1194.4500 3.0900 -25.7000
v 1192.5500 3.0900 -25.7000
v 1192.5500 3.0100 -26.3000
v 1194.4500 3.0100 -26.3000
v 1194.4500 3.0900 -26.3000
v 1192.5500 3.0900 -26.3000
v 1194.4500 3.0100 -25.7000
v 1192.5500 3.0100 -25.7000
v 1192.5500 3.0900 -25.7000
v 1194.4500 3.0900 -25.7000
v 1194.4500 3.0100 -26.3000
v 1194.4500 3.0100 -25.7000
v 1194.4500 3.0900 -25.7000
v 1194.4500 3.0900 -26.3000
v 1192.5500 3.0100 -25.7000
v 1192.5500 3.0100 -26.3000
v 1192.5500 3.0900 -26.3000
v 1192.5500 3.0900 -25.7000
v 1205.7000 2.9300 -26.1750
v 1207.3000 2.9300 -26.1750
v 1207.3000 2.9300 -25.8250
v 1205.7000 2.9300 -25.8250
v 1205.7000 3.0300 -26.1750
v 1207.3000 3.0300 -26.1750
v 1207.3000 3.0300 -25.8250
v 1205.7000 3.0300 -25.8250
v 1205.5500 3.0100 -26.3000
v 1205.5500 3.0100 -25.7000
v 1207.4500 3.0100 -25.7000
v 1207.4500 3.0100 -26.3000
v 1205.5500 3.0900 -26.3000
v 1207.4500 3.0900 -26.3000
v 1207.4500 3.0900 -25.7000
v 1205.5500 3.0900 -25.7000
v 1205.5500 3.0100 -26.3000
v 1207.4500 3.0100 -26.3000
v 1207.4500 3.0900 -26.3000
v 1205.5500 3.0900 -26.3000
v 1207.4500 3.0100 -25.7000
v 1205.5500 3.0100 -25.7000
v 1205.5500 3.0900 -25.7000
v 1207.4500 3.0900 -25.7000
v 1207.4500 3.0100 -26.3000
v 1207.4500 3.0100 -25.7000
v 1207.4500 3.0900 -25.7000
v 1207.4500 3.0900 -26.3000
v 1205.5500 3.0100 -25.7000
v 1205.5500 3.0100 -26.3000
v 1205.5500 3.0900 -26.3000
v 1205.5500 3.0900 -25.7000
v 1212.2000 2.9300 -26.1750
v 1213.8000 2.9300 -26.1750
v 1213.8000 2.9300 -25.8250
v 1212.2000 2.9300 -25.8250
v 1212.2000 3.0300 -26.1750
v 1213.8000 3.0300 -26.1750
v 1213.8000 3.0300 -25.8250
v 1212.2000 3.0300 -25.8250
v 1212.0500 3.0100 -26.3000
v 1212.0500 3.0100 -25.7000
v 1213.9500 3.0100 -25.7000
v 1213.9500 3.0100 -26.3000
v 1212.0500 3.0900 -26.3000
v 1213.9500 3.0900 -26.3000
v 1213.9500 3.0900 -25.7000
v 1212.0500 3.0900 -25.7000
v 1212.0500 3.0100 -26.3000
v 1213.9500 3.0100 -26.3000
v 1213.9500 3.0900 -26.3000
v 1212.0500 3.0900 -26.3000
v 1213.9500 3.0100 -25.7000
v 1212.0500 3.0100 -25.7000
v 1212.0500 3.0900 -25.7000
v 1213.9500 3.0900 -25.7000
v 1213.9500 3.0100 -26.3000
v 1213.9500 3.0100 -25.7000
v 1213.9500 3.0900 -25.7000
v 1213.9500 3.0900 -26.3000
v 1212.0500 3.0100 -25.7000
v 1212.0500 3.0100 -26.3000
v 1212.0500 3.0900 -26.3000
v 1212.0500 3.0900 -25.7000
v 1192.7000 2.9300 -19.6750
v 1194.3000 2.9300 -19.6750
v 1194.3000 2.9300 -19.3250
v 1192.7000 2.9300 -19.3250
v 1192.7000 3.0300 -19.6750
v 1194.3000 3.0300 -19.6750
v 1194.3000 3.0300 -19.3250
v 1192.7000 3.0300 -19.3250
v 1192.5500 3.0100 -19.8000
v 1192.5500 3.0100 -19.2000
v 1194.4500 3.0100 -19.2000
v 1194.4500 3.0100 -19.8000
v 1192.5500 3.0900 -19.8000
v 1194.4500 3.0900 -19.8000
v 1194.4500 3.0900 -19.2000
v 1192.5500 3.0900 -19.2000
v 1192.5500 3.0100 -19.8000
v 1194.4500 3.0100 -19.8000
v 1194.4500 3.0900 -19.8000
v 1192.5500 3.0900 -19.8000
v 1194.4500 3.0100 -19.2000
v 1192.5500 3.0100 -19.2000
v 1192.5500 3.0900 -19.2000
v 1194.4500 3.0900 -19.2000
v 1194.4500 3.0100 -19.8000
v 1194.4500 3.0100 -19.2000
v 1194.4500 3.0900 -19.2000
v 1194.4500 3.0900 -19.8000
v 1192.5500 3.0100 -19.2000
v 1192.5500 3.0100 -19.8000
v 1192.5500 3.0900 -19.8000
v 1192.5500 3.0900 -19.2000
v 1199.2000 2.9300 -19.6750
v 1200.8000 2.9300 -19.6750
v 1200.8000 2.9300 -19.3250
v 1199.2000 2.9300 -19.3250
v 1199.2000 3.0300 -19.6750
v 1200.8000 3.0300 -19.6750
v 1200.8000 3.0300 -19.3250
v 1199.2000 3.0300 -19.3250
v 1199.0500 3.0100 -19.8000
v 1199.0500 3.0100 -19.2000
v 1200.9500 3.0100 -19.2000
v 1200.9500 3.0100 -19.8000
v 1199.0500 3.0900 -19.8000
v 1200.9500 3.0900 -19.8000
v 1200.9500 3.0900 -19.2000
v 1199.0500 3.0900 -19.2000
v 1199.0500 3.0100 -19.8000
v 1200.9500 3.0100 -19.8000
v 1200.9500 3.0900 -19.8000
v 1199.0500 3.0900 -19.8000
v 1200.9500 3.0100 -19.2000
v 1199.0500 3.0100 -19.2000
v 1199.0500 3.0900 -19.2000
v 1200.9500 3.0900 -19.2000
v 1200.9500 3.0100 -19.8000
v 1200.9500 3.0100 -19.2000
v 1200.9500 3.0900 -19.2000
v 1200.9500 3.0900 -19.8000
v 1199.0500 3.0100 -19.2000
v 1199.0500 3.0100 -19.8000
v 1199.0500 3.0900 -19.8000
v 1199.0500 3.0900 -19.2000
v 1205.7000 2.9300 -19.6750
v 1207.3000 2.9300 -19.6750
v 1207.3000 2.9300 -19.3250
v 1205.7000 2.9300 -19.3250
v 1205.7000 3.0300 -19.6750
v 1207.3000 3.0300 -19.6750
v 1207.3000 3.0300 -19.3250
v 1205.7000 3.0300 -19.3250
v 1205.5500 3.0100 -19.8000
v 1205.5500 3.0100 -19.2000
v 1207.4500 3.0100 -19.2000
v 1207.4500 3.0100 -19.8000
v 1205.5500 3.0900 -19.8000
v 1207.4500 3.0900 -19.8000
v 1207.4500 3.0900 -19.2000
v 1205.5500 3.0900 -19.2000
v 1205.5500 3.0100 -19.8000
v 1207.4500 3.0100 -19.8000
v 1207.4500 3.0900 -19.8000
v 1205.5500 3.0900 -19.8000
v 1207.4500 3.0100 -19.2000
v 1205.5500 3.0100 -19.2000
v 1205.5500 3.0900 -19.2000
v 1207.4500 3.0900 -19.2000
v 1207.4500 3.0100 -19.8000
v 1207.4500 3.0100 -19.2000
v 1207.4500 3.0900 -19.2000
v 1207.4500 3.0900 -19.8000
v 1205.5500 3.0100 -19.2000
v 1205.5500 3.0100 -19.8000
v 1205.5500 3.0900 -19.8000
v 1205.5500 3.0900 -19.2000
v 1212.2000 2.9300 -19.6750
v 1213.8000 2.9300 -19.6750
v 1213.8000 2.9300 -19.3250
v 1212.2000 2.9300 -19.3250
v 1212.2000 3.0300 -19.6750
v 1213.8000 3.0300 -19.6750
v 1213.8000 3.0300 -19.3250
v 1212.2000 3.0300 -19.3250
v 1212.0500 3.0100 -19.8000
v 1212.0500 3.0100 -19.2000
v 1213.9500 3.0100 -19.2000
v 1213.9500 3.0100 -19.8000
v 1212.0500 3.0900 -19.8000
v 1213.9500 3.0900 -19.8000
v 1213.9500 3.0900 -19.2000
v 1212.0500 3.0900 -19.2000
v 1212.0500 3.0100 -19.8000
v 1213.9500 3.0100 -19.8000
v 1213.9500 3.0900 -19.8000
v 1212.0500 3.0900 -19.8000
v 1213.9500 3.0100 -19.2000
v 1212.0500 3.0100 -19.2000
v 1212.0500 3.0900 -19.2000
v 1213.9500 3.0900 -19.2000
v 1213.9500 3.0100 -19.8000
v 1213.9500 3.0100 -19.2000
v 1213.9500 3.0900 -19.2000
v 1213.9500 3.0900 -19.8000
v 1212.0500 3.0100 -19.2000
v 1212.0500 3.0100 -19.8000
v 1212.0500 3.0900 -19.8000
v 1212.0500 3.0900 -19.2000
v 1199.2500 0.3300 -52.3750
v 1200.7500 0.3300 -52.3750
v 1200.7500 0.3300 -51.6250
v 1199.2500 0.3300 -51.6250
v 1199.2500 0.3900 -52.3750
v 1200.7500 0.3900 -52.3750
v 1200.7500 0.3900 -51.6250
v 1199.2500 0.3900 -51.6250
v 1199.3100 0.0000 -52.3500
v 1199.3900 0.0000 -52.3500
v 1199.3900 0.0000 -51.6500
v 1199.3100 0.0000 -51.6500
v 1199.3100 0.3600 -52.3500
v 1199.3900 0.3600 -52.3500
v 1199.3900 0.3600 -51.6500
v 1199.3100 0.3600 -51.6500
v 1200.6100 0.0000 -52.3500
v 1200.6900 0.0000 -52.3500
v 1200.6900 0.0000 -51.6500
v 1200.6100 0.0000 -51.6500
v 1200.6100 0.3600 -52.3500
v 1200.6900 0.3600 -52.3500
v 1200.6900 0.3600 -51.6500
v 1200.6100 0.3600 -51.6500
v 1199.7700 0.3900 -51.9600
v 1200.2300 0.3900 -51.9600
v 1200.2300 0.3900 -51.8000
v 1199.7700 0.3900 -51.8000
v 1199.7700 0.7700 -51.9600
v 1200.2300 0.7700 -51.9600
v 1200.2300 0.7700 -51.8000
v 1199.7700 0.7700 -51.8000
v 1205.7500 0.3300 -52.3750
v 1207.2500 0.3300 -52.3750
v 1207.2500 0.3300 -51.6250
v 1205.7500 0.3300 -51.6250
v 1205.7500 0.3900 -52.3750
v 1207.2500 0.3900 -52.3750
v 1207.2500 0.3900 -51.6250
v 1205.7500 0.3900 -51.6250
v 1205.8100 0.0000 -52.3500
v 1205.8900 0.0000 -52.3500
v 1205.8900 0.0000 -51.6500
v 1205.8100 0.0000 -51.6500
v 1205.8100 0.3600 -52.3500
v 1205.8900 0.3600 -52.3500
v 1205.8900 0.3600 -51.6500
v 1205.8100 0.3600 -51.6500
v 1207.1100 0.0000 -52.3500
v 1207.1900 0.0000 -52.3500
v 1207.1900 0.0000 -51.6500
v 1207.1100 0.0000 -51.6500
v 1207.1100 0.3600 -52.3500
v 1207.1900 0.3600 -52.3500
v 1207.1900 0.3600 -51.6500
v 1207.1100 0.3600 -51.6500
v 1206.2700 0.3900 -51.9600
v 1206.7300 0.3900 -51.9600
v 1206.7300 0.3900 -51.8000
v 1206.2700 0.3900 -51.8000
v 1206.2700 0.7700 -51.9600
v 1206.7300 0.7700 -51.9600
v 1206.7300 0.7700 -51.8000
v 1206.2700 0.7700 -51.8000
v 1218.7500 0.3300 -52.3750
v 1220.2500 0.3300 -52.3750
v 1220.2500 0.3300 -51.6250
v 1218.7500 0.3300 -51.6250
v 1218.7500 0.3900 -52.3750
v 1220.2500 0.3900 -52.3750
v 1220.2500 0.3900 -51.6250
v 1218.7500 0.3900 -51.6250
v 1218.8100 0.0000 -52.3500
v 1218.8900 0.0000 -52.3500
v 1218.8900 0.0000 -51.6500
v 1218.8100 0.0000 -51.6500
v 1218.8100 0.3600 -52.3500
v 1218.8900 0.3600 -52.3500
v 1218.8900 0.3600 -51.6500
v 1218.8100 0.3600 -51.6500
v 1220.1100 0.0000 -52.3500
v 1220.1900 0.0000 -52.3500
v 1220.1900 0.0000 -51.6500
v 1220.1100 0.0000 -51.6500
v 1220.1100 0.3600 -52.3500
v 1220.1900 0.3600 -52.3500
v 1220.1900 0.3600 -51.6500
v 1220.1100 0.3600 -51.6500
v 1219.2700 0.3900 -51.9600
v 1219.7300 0.3900 -51.9600
v 1219.7300 0.3900 -51.8000
v 1219.2700 0.3900 -51.8000
v 1219.2700 0.7700 -51.9600
v 1219.7300 0.7700 -51.9600
v 1219.7300 0.7700 -51.8000
v 1219.2700 0.7700 -51.8000
v 1186.2500 0.3300 -45.8750
v 1187.7500 0.3300 -45.8750
v 1187.7500 0.3300 -45.1250
v 1186.2500 0.3300 -45.1250
v 1186.2500 0.3900 -45.8750
v 1187.7500 0.3900 -45.8750
v 1187.7500 0.3900 -45.1250
v 1186.2500 0.3900 -45.1250
v 1186.3100 0.0000 -45.8500
v 1186.3900 0.0000 -45.8500
v 1186.3900 0.0000 -45.1500
v 1186.3100 0.0000 -45.1500
v 1186.3100 0.3600 -45.8500
v 1186.3900 0.3600 -45.8500
v 1186.3900 0.3600 -45.1500
v 1186.3100 0.3600 -45.1500
v 1187.6100 0.0000 -45.8500
v 1187.6900 0.0000 -45.8500
v 1187.6900 0.0000 -45.1500
v 1187.6100 0.0000 -45.1500
v 1187.6100 0.3600 -45.8500
v 1187.6900 0.3600 -45.8500
v 1187.6900 0.3600 -45.1500
v 1187.6100 0.3600 -45.1500
v 1186.7700 0.3900 -45.4600
v 1187.2300 0.3900 -45.4600
v 1187.2300 0.3900 -45.3000
v 1186.7700 0.3900 -45.3000
v 1186.7700 0.7700 -45.4600
v 1187.2300 0.7700 -45.4600
v 1187.2300 0.7700 -45.3000
v 1186.7700 0.7700 -45.3000
v 1199.2500 0.3300 -45.8750
v 1200.7500 0.3300 -45.8750
v 1200.7500 0.3300 -45.1250
v 1199.2500 0.3300 -45.1250
v 1199.2500 0.3900 -45.8750
v 1200.7500 0.3900 -45.8750
v 1200.7500 0.3900 -45.1250
v 1199.2500 0.3900 -45.1250
v 1199.3100 0.0000 -45.8500
v 1199.3900 0.0000 -45.8500
v 1199.3900 0.0000 -45.1500
v 1199.3100 0.0000 -45.1500
v 1199.3100 0.3600 -45.8500
v 1199.3900 0.3600 -45.8500
v 1199.3900 0.3600 -45.1500
v 1199.3100 0.3600 -45.1500
v 1200.6100 0.0000 -45.8500
v 1200.6900 0.0000 -45.8500
v 1200.6900 0.0000 -45.1500
v 1200.6100 0.0000 -45.1500
v 1200.6100 0.3600 -45.8500
v 1200.6900 0.3600 -45.8500
v 1200.6900 0.3600 -45.1500
v 1200.6100 0.3600 -45.1500
v 1199.7700 0.3900 -45.4600
v 1200.2300 0.3900 -45.4600
v 1200.2300 0.3900 -45.3000
v 1199.7700 0.3900 -45.3000
v 1199.7700 0.7700 -45.4600
v 1200.2300 0.7700 -45.4600
v 1200.2300 0.7700 -45.3000
v 1199.7700 0.7700 -45.3000
v 1212.2500 0.3300 -45.8750
v 1213.7500 0.3300 -45.8750
v 1213.7500 0.3300 -45.1250
v 1212.2500 0.3300 -45.1250
v 1212.2500 0.3900 -45.8750
v 1213.7500 0.3900 -45.8750
v 1213.7500 0.3900 -45.1250
v 1212.2500 0.3900 -45.1250
v 1212.3100 0.0000 -45.8500
v 1212.3900 0.0000 -45.8500
v 1212.3900 0.0000 -45.1500
v 1212.3100 0.0000 -45.1500
v 1212.3100 0.3600 -45.8500
v 1212.3900 0.3600 -45.8500
v 1212.3900 0.3600 -45.1500
v 1212.3100 0.3600 -45.1500
v 1213.6100 0.0000 -45.8500
v 1213.6900 0.0000 -45.8500
v 1213.6900 0.0000 -45.1500
v 1213.6100 0.0000 -45.1500
v 1213.6100 0.3600 -45.8500
v 1213.6900 0.3600 -45.8500
v 1213.6900 0.3600 -45.1500
v 1213.6100 0.3600 -45.1500
v 1212.7700 0.3900 -45.4600
v 1213.2300 0.3900 -45.4600
v 1213.2300 0.3900 -45.3000
v 1212.7700 0.3900 -45.3000
v 1212.7700 0.7700 -45.4600
v 1213.2300 0.7700 -45.4600
v 1213.2300 0.7700 -45.3000
v 1212.7700 0.7700 -45.3000
v 1205.7500 0.3300 -39.3750
v 1207.2500 0.3300 -39.3750
v 1207.2500 0.3300 -38.6250
v 1205.7500 0.3300 -38.6250
v 1205.7500 0.3900 -39.3750
v 1207.2500 0.3900 -39.3750
v 1207.2500 0.3900 -38.6250
v 1205.7500 0.3900 -38.6250
v 1205.8100 0.0000 -39.3500
v 1205.8900 0.0000 -39.3500
v 1205.8900 0.0000 -38.6500
v 1205.8100 0.0000 -38.6500
v 1205.8100 0.3600 -39.3500
v 1205.8900 0.3600 -39.3500
v 1205.8900 0.3600 -38.6500
v 1205.8100 0.3600 -38.6500
v 1207.1100 0.0000 -39.3500
v 1207.1900 0.0000 -39.3500
v 1207.1900 0.0000 -38.6500
v 1207.1100 0.0000 -38.6500
v 1207.1100 0.3600 -39.3500
v 1207.1900 0.3600 -39.3500
v 1207.1900 0.3600 -38.6500
v 1207.1100 0.3600 -38.6500
v 1206.2700 0.3900 -38.9600
v 1206.7300 0.3900 -38.9600
v 1206.7300 0.3900 -38.8000
v 1206.2700 0.3900 -38.8000
v 1206.2700 0.7700 -38.9600
v 1206.7300 0.7700 -38.9600
v 1206.7300 0.7700 -38.8000
v 1206.2700 0.7700 -38.8000
v 1212.2500 0.3300 -39.3750
v 1213.7500 0.3300 -39.3750
v 1213.7500 0.3300 -38.6250
v 1212.2500 0.3300 -38.6250
v 1212.2500 0.3900 -39.3750
v 1213.7500 0.3900 -39.3750
v 1213.7500 0.3900 -38.6250
v 1212.2500 0.3900 -38.6250
v 1212.3100 0.0000 -39.3500
v 1212.3900 0.0000 -39.3500
v 1212.3900 0.0000 -38.6500
v 1212.3100 0.0000 -38.6500
v 1212.3100 0.3600 -39.3500
v 1212.3900 0.3600 -39.3500
v 1212.3900 0.3600 -38.6500
v 1212.3100 0.3600 -38.6500
v 1213.6100 0.0000 -39.3500
v 1213.6900 0.0000 -39.3500
v 1213.6900 0.0000 -38.6500
v 1213.6100 0.0000 -38.6500
v 1213.6100 0.3600 -39.3500
v 1213.6900 0.3600 -39.3500
v 1213.6900 0.3600 -38.6500
v 1213.6100 0.3600 -38.6500
v 1212.7700 0.3900 -38.9600
v 1213.2300 0.3900 -38.9600
v 1213.2300 0.3900 -38.8000
v 1212.7700 0.3900 -38.8000
v 1212.7700 0.7700 -38.9600
v 1213.2300 0.7700 -38.9600
v 1213.2300 0.7700 -38.8000
v 1212.7700 0.7700 -38.8000
v 1218.7500 0.3300 -39.3750
v 1220.2500 0.3300 -39.3750
v 1220.2500 0.3300 -38.6250
v 1218.7500 0.3300 -38.6250
v 1218.7500 0.3900 -39.3750
v 1220.2500 0.3900 -39.3750
v 1220.2500 0.3900 -38.6250
v 1218.7500 0.3900 -38.6250
v 1218.8100 0.0000 -39.3500
v 1218.8900 0.0000 -39.3500
v 1218.8900 0.0000 -38.6500
v 1218.8100 0.0000 -38.6500
v 1218.8100 0.3600 -39.3500
v 1218.8900 0.3600 -39.3500
v 1218.8900 0.3600 -38.6500
v 1218.8100 0.3600 -38.6500
v 1220.1100 0.0000 -39.3500
v 1220.1900 0.0000 -39.3500
v 1220.1900 0.0000 -38.6500
v 1220.1100 0.0000 -38.6500
v 1220.1100 0.3600 -39.3500
v 1220.1900 0.3600 -39.3500
v 1220.1900 0.3600 -38.6500
v 1220.1100 0.3600 -38.6500
v 1219.2700 0.3900 -38.9600
v 1219.7300 0.3900 -38.9600
v 1219.7300 0.3900 -38.8000
v 1219.2700 0.3900 -38.8000
v 1219.2700 0.7700 -38.9600
v 1219.7300 0.7700 -38.9600
v 1219.7300 0.7700 -38.8000
v 1219.2700 0.7700 -38.8000
v 1186.2500 0.3300 -32.8750
v 1187.7500 0.3300 -32.8750
v 1187.7500 0.3300 -32.1250
v 1186.2500 0.3300 -32.1250
v 1186.2500 0.3900 -32.8750
v 1187.7500 0.3900 -32.8750
v 1187.7500 0.3900 -32.1250
v 1186.2500 0.3900 -32.1250
v 1186.3100 0.0000 -32.8500
v 1186.3900 0.0000 -32.8500
v 1186.3900 0.0000 -32.1500
v 1186.3100 0.0000 -32.1500
v 1186.3100 0.3600 -32.8500
v 1186.3900 0.3600 -32.8500
v 1186.3900 0.3600 -32.1500
v 1186.3100 0.3600 -32.1500
v 1187.6100 0.0000 -32.8500
v 1187.6900 0.0000 -32.8500
v 1187.6900 0.0000 -32.1500
v 1187.6100 0.0000 -32.1500
v 1187.6100 0.3600 -32.8500
v 1187.6900 0.3600 -32.8500
v 1187.6900 0.3600 -32.1500
v 1187.6100 0.3600 -32.1500
v 1186.7700 0.3900 -32.4600
v 1187.2300 0.3900 -32.4600
v 1187.2300 0.3900 -32.3000
v 1186.7700 0.3900 -32.3000
v 1186.7700 0.7700 -32.4600
v 1187.2300 0.7700 -32.4600
v 1187.2300 0.7700 -32.3000
v 1186.7700 0.7700 -32.3000
v 1192.7500 0.3300 -32.8750
v 1194.2500 0.3300 -32.8750
v 1194.2500 0.3300 -32.1250
v 1192.7500 0.3300 -32.1250
v 1192.7500 0.3900 -32.8750
v 1194.2500 0.3900 -32.8750
v 1194.2500 0.3900 -32.1250
v 1192.7500 0.3900 -32.1250
v 1192.8100 0.0000 -32.8500
v 1192.8900 0.0000 -32.8500
v 1192.8900 0.0000 -32.1500
v 1192.8100 0.0000 -32.1500
v 1192.8100 0.3600 -32.8500
v 1192.8900 0.3600 -32.8500
v 1192.8900 0.3600 -32.1500
v 1192.8100 0.3600 -32.1500
v 1194.1100 0.0000 -32.8500
v 1194.1900 0.0000 -32.8500
v 1194.1900 0.0000 -32.1500
v 1194.1100 0.0000 -32.1500
v 1194.1100 0.3600 -32.8500
v 1194.1900 0.3600 -32.8500
v 1194.1900 0.3600 -32.1500
v 1194.1100 0.3600 -32.1500
v 1193.2700 0.3900 -32.4600
v 1193.7300 0.3900 -32.4600
v 1193.7300 0.3900 -32.3000
v 1193.2700 0.3900 -32.3000
v 1193.2700 0.7700 -32.4600
v 1193.7300 0.7700 -32.4600
v 1193.7300 0.7700 -32.3000
v 1193.2700 0.7700 -32.3000
v 1199.2500 0.3300 -32.8750
v 1200.7500 0.3300 -32.8750
v 1200.7500 0.3300 -32.1250
v 1199.2500 0.3300 -32.1250
v 1199.2500 0.3900 -32.8750
v 1200.7500 0.3900 -32.8750
v 1200.7500 0.3900 -32.1250
v 1199.2500 0.3900 -32.1250
v 1199.3100 0.0000 -32.8500
v 1199.3900 0.0000 -32.8500
v 1199.3900 0.0000 -32.1500
v 1199.3100 0.0000 -32.1500
v 1199.3100 0.3600 -32.8500
v 1199.3900 0.3600 -32.8500
v 1199.3900 0.3600 -32.1500
v 1199.3100 0.3600 -32.1500
v 1200.6100 0.0000 -32.8500
v 1200.6900 0.0000 -32.8500
v 1200.6900 0.0000 -32.1500
v 1200.6100 0.0000 -32.1500
v 1200.6100 0.3600 -32.8500
v 1200.6900 0.3600 -32.8500
v 1200.6900 0.3600 -32.1500
v 1200.6100 0.3600 -32.1500
v 1199.7700 0.3900 -32.4600
v 1200.2300 0.3900 -32.4600
v 1200.2300 0.3900 -32.3000
v 1199.7700 0.3900 -32.3000
v 1199.7700 0.7700 -32.4600
v 1200.2300 0.7700 -32.4600
v 1200.2300 0.7700 -32.3000
v 1199.7700 0.7700 -32.3000
v 1192.7500 0.3300 -26.3750
v 1194.2500 0.3300 -26.3750
v 1194.2500 0.3300 -25.6250
v 1192.7500 0.3300 -25.6250
v 1192.7500 0.3900 -26.3750
v 1194.2500 0.3900 -26.3750
v 1194.2500 0.3900 -25.6250
v 1192.7500 0.3900 -25.6250
v 1192.8100 0.0000 -26.3500
v 1192.8900 0.0000 -26.3500
v 1192.8900 0.0000 -25.6500
v 1192.8100 0.0000 -25.6500
v 1192.8100 0.3600 -26.3500
v 1192.8900 0.3600 -26.3500
v 1192.8900 0.3600 -25.6500
v 1192.8100 0.3600 -25.6500
v 1194.1100 0.0000 -26.3500
v 1194.1900 0.0000 -26.3500
v 1194.1900 0.0000 -25.6500
v 1194.1100 0.0000 -25.6500
v 1194.1100 0.3600 -26.3500
v 1194.1900 0.3600 -26.3500
v 1194.1900 0.3600 -25.6500
v 1194.1100 0.3600 -25.6500
v 1193.2700 0.3900 -25.9600
v 1193.7300 0.3900 -25.9600
v 1193.7300 0.3900 -25.8000
v 1193.2700 0.3900 -25.8000
v 1193.2700 0.7700 -25.9600
v 1193.7300 0.7700 -25.9600
v 1193.7300 0.7700 -25.8000
v 1193.2700 0.7700 -25.8000
v 1205.7500 0.3300 -19.8750
v 1207.2500 0.3300 -19.8750
v 1207.2500 0.3300 -19.1250
v 1205.7500 0.3300 -19.1250
v 1205.7500 0.3900 -19.8750
v 1207.2500 0.3900 -19.8750
v 1207.2500 0.3900 -19.1250
v 1205.7500 0.3900 -19.1250
v 1205.8100 0.0000 -19.8500
v 1205.8900 0.0000 -19.8500
v 1205.8900 0.0000 -19.1500
v 1205.8100 0.0000 -19.1500
v 1205.8100 0.3600 -19.8500
v 1205.8900 0.3600 -19.8500
v 1205.8900 0.3600 -19.1500
v 1205.8100 0.3600 -19.1500
v 1207.1100 0.0000 -19.8500
v 1207.1900 0.0000 -19.8500
v 1207.1900 0.0000 -19.1500
v 1207.1100 0.0000 -19.1500
v 1207.1100 0.3600 -19.8500
v 1207.1900 0.3600 -19.8500
v 1207.1900 0.3600 -19.1500
v 1207.1100 0.3600 -19.1500
v 1206.2700 0.3900 -19.4600
v 1206.7300 0.3900 -19.4600
v 1206.7300 0.3900 -19.3000
v 1206.2700 0.3900 -19.3000
v 1206.2700 0.7700 -19.4600
v 1206.7300 0.7700 -19.4600
v 1206.7300 0.7700 -19.3000
v 1206.2700 0.7700 -19.3000
vt 537.2500 -22.9773
vt 537.2500 -21.3409
vt 538.8864 -21.3409
vt 538.8864 -22.9773
vt 537.2500 -22.9773
vt 538.8864 -22.9773
vt 538.8864 -21.3409
vt 537.2500 -21.3409
vt 537.2500 0.0000
vt 538.8864 0.0000
vt 538.8864 1.4091
vt 537.2500 1.4091
vt 538.8864 0.0000
vt 537.2500 0.0000
vt 537.2500 1.4091
vt 538.8864 1.4091
vt -22.9773 0.0000
vt -21.3409 0.0000
vt -21.3409 1.4091
vt -22.9773 1.4091
vt -21.3409 0.0000
vt -22.9773 0.0000
vt -22.9773 1.4091
vt -21.3409 1.4091
vt 549.0682 -22.9773
vt 549.0682 -21.3409
vt 550.7045 -21.3409
vt 550.7045 -22.9773
vt 549.0682 -22.9773
vt 550.7045 -22.9773
vt 550.7045 -21.3409
vt 549.0682 -21.3409
vt 549.0682 0.0000
vt 550.7045 0.0000
vt 550.7045 1.4091
vt 549.0682 1.4091
vt 550.7045 0.0000
vt 549.0682 0.0000
vt 549.0682 1.4091
vt 550.7045 1.4091
vt -22.9773 0.0000
vt -21.3409 0.0000
vt -21.3409 1.4091
vt -22.9773 1.4091
vt -21.3409 0.0000
vt -22.9773 0.0000
vt -22.9773 1.4091
vt -21.3409 1.4091
vt 537.2500 -20.0227
vt 537.2500 -18.3864
vt 538.8864 -18.3864
vt 538.8864 -20.0227
vt 537.2500 -20.0227
vt 538.8864 -20.0227
vt 538.8864 -18.3864
vt 537.2500 -18.3864
vt 537.2500 0.0000
vt 538.8864 0.0000
vt 538.8864 1.4091
vt 537.2500 1.4091
vt 538.8864 0.0000
vt 537.2500 0.0000
vt 537.2500 1.4091
vt 538.8864 1.4091
vt -20.0227 0.0000
vt -18.3864 0.0000
vt -18.3864 1.4091
vt -20.0227 1.4091
vt -18.3864 0.0000
vt -20.0227 0.0000
vt -20.0227 1.4091
vt -18.3864 1.4091
vt 543.1591 -20.0227
vt 543.1591 -18.3864
vt 544.7955 -18.3864
vt 544.7955 -20.0227
vt 543.1591 -20.0227
vt 544.7955 -20.0227
vt 544.7955 -18.3864
vt 543.1591 -18.3864
vt 543.1591 0.0000
vt 544.7955 0.0000
vt 544.7955 1.4091
vt 543.1591 1.4091
vt 544.7955 0.0000
vt 543.1591 0.0000
vt 543.1591 1.4091
vt 544.7955 1.4091
vt -20.0227 0.0000
vt -18.3864 0.0000
vt -18.3864 1.4091
vt -20.0227 1.4091
vt -18.3864 0.0000
vt -20.0227 0.0000
vt -20.0227 1.4091
vt -18.3864 1.4091
vt 552.0227 -20.0227
vt 552.0227 -18.3864
vt 553.6591 -18.3864
vt 553.6591 -20.0227
vt 552.0227 -20.0227
vt 553.6591 -20.0227
vt 553.6591 -18.3864
vt 552.0227 -18.3864
vt 552.0227 0.0000
vt 553.6591 0.0000
vt 553.6591 1.4091
vt 552.0227 1.4091
vt 553.6591 0.0000
vt 552.0227 0.0000
vt 552.0227 1.4091
vt 553.6591 1.4091
vt -20.0227 0.0000
vt -18.3864 0.0000
vt -18.3864 1.4091
vt -20.0227 1.4091
vt -18.3864 0.0000
vt -20.0227 0.0000
vt -20.0227 1.4091
vt -18.3864 1.4091
vt 552.0227 -18.5455
vt 552.0227 -16.9091
vt 553.6591 -16.9091
vt 553.6591 -18.5455
vt 552.0227 -18.5455
vt 553.6591 -18.5455
vt 553.6591 -16.9091
vt 552.0227 -16.9091
vt 552.0227 0.0000
vt 553.6591 0.0000
vt 553.6591 1.4091
vt 552.0227 1.4091
vt 553.6591 0.0000
vt 552.0227 0.0000
vt 552.0227 1.4091
vt 553.6591 1.4091
vt -18.5455 0.0000
vt -16.9091 0.0000
vt -16.9091 1.4091
vt -18.5455 1.4091
vt -16.9091 0.0000
vt -18.5455 0.0000
vt -18.5455 1.4091
vt -16.9091 1.4091
vt 540.2045 -17.0682
vt 540.2045 -15.4318
vt 541.8409 -15.4318
vt 541.8409 -17.0682
vt 540.2045 -17.0682
vt 541.8409 -17.0682
vt 541.8409 -15.4318
vt 540.2045 -15.4318
vt 540.2045 0.0000
vt 541.8409 0.0000
vt 541.8409 1.4091
vt 540.2045 1.4091
vt 541.8409 0.0000
vt 540.2045 0.0000
vt 540.2045 1.4091
vt 541.8409 1.4091
vt -17.0682 0.0000
vt -15.4318 0.0000
vt -15.4318 1.4091
vt -17.0682 1.4091
vt -15.4318 0.0000
vt -17.0682 0.0000
vt -17.0682 1.4091
vt -15.4318 1.4091
vt 540.2045 -15.5909
vt 540.2045 -13.9545
vt 541.8409 -13.9545
vt 541.8409 -15.5909
vt 540.2045 -15.5909
vt 541.8409 -15.5909
vt 541.8409 -13.9545
vt 540.2045 -13.9545
vt 540.2045 0.0000
vt 541.8409 0.0000
vt 541.8409 1.4091
vt 540.2045 1.4091
vt 541.8409 0.0000
vt 540.2045 0.0000
vt 540.2045 1.4091
vt 541.8409 1.4091
vt -15.5909 0.0000
vt -13.9545 0.0000
vt -13.9545 1.4091
vt -15.5909 1.4091
vt -13.9545 0.0000
vt -15.5909 0.0000
vt -15.5909 1.4091
vt -13.9545 1.4091
vt 540.2045 -14.1136
vt 540.2045 -12.4773
vt 541.8409 -12.4773
vt 541.8409 -14.1136
vt 540.2045 -14.1136
vt 541.8409 -14.1136
vt 541.8409 -12.4773
vt 540.2045 -12.4773
vt 540.2045 0.0000
vt 541.8409 0.0000
vt 541.8409 1.4091
vt 540.2045 1.4091
vt 541.8409 0.0000
vt 540.2045 0.0000
vt 540.2045 1.4091
vt 541.8409 1.4091
vt -14.1136 0.0000
vt -12.4773 0.0000
vt -12.4773 1.4091
vt -14.1136 1.4091
vt -12.4773 0.0000
vt -14.1136 0.0000
vt -14.1136 1.4091
vt -12.4773 1.4091
vt 546.1136 -14.1136
vt 546.1136 -12.4773
vt 547.7500 -12.4773
vt 547.7500 -14.1136
vt 546.1136 -14.1136
vt 547.7500 -14.1136
vt 547.7500 -12.4773
vt 546.1136 -12.4773
vt 546.1136 0.0000
vt 547.7500 0.0000
vt 547.7500 1.4091
vt 546.1136 1.4091
vt 547.7500 0.0000
vt 546.1136 0.0000
vt 546.1136 1.4091
vt 547.7500 1.4091
vt -14.1136 0.0000
vt -12.4773 0.0000
vt -12.4773 1.4091
vt -14.1136 1.4091
vt -12.4773 0.0000
vt -14.1136 0.0000
vt -14.1136 1.4091
vt -12.4773 1.4091
vt 547.5909 -14.1136
vt 547.5909 -12.4773
vt 549.2273 -12.4773
vt 549.2273 -14.1136
vt 547.5909 -14.1136
vt 549.2273 -14.1136
vt 549.2273 -12.4773
vt 547.5909 -12.4773
vt 547.5909 0.0000
vt 549.2273 0.0000
vt 549.2273 1.4091
vt 547.5909 1.4091
vt 549.2273 0.0000
vt 547.5909 0.0000
vt 547.5909 1.4091
vt 549.2273 1.4091
vt -14.1136 0.0000
vt -12.4773 0.0000
vt -12.4773 1.4091
vt -14.1136 1.4091
vt -12.4773 0.0000
vt -14.1136 0.0000
vt -14.1136 1.4091
vt -12.4773 1.4091
vt 549.0682 -14.1136
vt 549.0682 -12.4773
vt 550.7045 -12.4773
vt 550.7045 -14.1136
vt 549.0682 -14.1136
vt 550.7045 -14.1136
vt 550.7045 -12.4773
vt 549.0682 -12.4773
vt 549.0682 0.0000
vt 550.7045 0.0000
vt 550.7045 1.4091
vt 549.0682 1.4091
vt 550.7045 0.0000
vt 549.0682 0.0000
vt 549.0682 1.4091
vt 550.7045 1.4091
vt -14.1136 0.0000
vt -12.4773 0.0000
vt -12.4773 1.4091
vt -14.1136 1.4091
vt -12.4773 0.0000
vt -14.1136 0.0000
vt -14.1136 1.4091
vt -12.4773 1.4091
vt 543.1591 -11.1591
vt 543.1591 -9.5227
vt 544.7955 -9.5227
vt 544.7955 -11.1591
vt 543.1591 -11.1591
vt 544.7955 -11.1591
vt 544.7955 -9.5227
vt 543.1591 -9.5227
vt 543.1591 0.0000
vt 544.7955 0.0000
vt 544.7955 1.4091
vt 543.1591 1.4091
vt 544.7955 0.0000
vt 543.1591 0.0000
vt 543.1591 1.4091
vt 544.7955 1.4091
vt -11.1591 0.0000
vt -9.5227 0.0000
vt -9.5227 1.4091
vt -11.1591 1.4091
vt -9.5227 0.0000
vt -11.1591 0.0000
vt -11.1591 1.4091
vt -9.5227 1.4091
vt 546.1136 -11.1591
vt 546.1136 -9.5227
vt 547.7500 -9.5227
vt 547.7500 -11.1591
vt 546.1136 -11.1591
vt 547.7500 -11.1591
vt 547.7500 -9.5227
vt 546.1136 -9.5227
vt 546.1136 0.0000
vt 547.7500 0.0000
vt 547.7500 1.4091
vt 546.1136 1.4091
vt 547.7500 0.0000
vt 546.1136 0.0000
vt 546.1136 1.4091
vt 547.7500 1.4091
vt -11.1591 0.0000
vt -9.5227 0.0000
vt -9.5227 1.4091
vt -11.1591 1.4091
vt -9.5227 0.0000
vt -11.1591 0.0000
vt -11.1591 1.4091
vt -9.5227 1.4091
vt 547.5909 -11.1591
vt 547.5909 -9.5227
vt 549.2273 -9.5227
vt 549.2273 -11.1591
vt 547.5909 -11.1591
vt 549.2273 -11.1591
vt 549.2273 -9.5227
vt 547.5909 -9.5227
vt 547.5909 0.0000
vt 549.2273 0.0000
vt 549.2273 1.4091
vt 547.5909 1.4091
vt 549.2273 0.0000
vt 547.5909 0.0000
vt 547.5909 1.4091
vt 549.2273 1.4091
vt -11.1591 0.0000
vt -9.5227 0.0000
vt -9.5227 1.4091
vt -11.1591 1.4091
vt -9.5227 0.0000
vt -11.1591 0.0000
vt -11.1591 1.4091
vt -9.5227 1.4091
vt 549.0682 -11.1591
vt 549.0682 -9.5227
vt 550.7045 -9.5227
vt 550.7045 -11.1591
vt 549.0682 -11.1591
vt 550.7045 -11.1591
vt 550.7045 -9.5227
vt 549.0682 -9.5227
vt 549.0682 0.0000
vt 550.7045 0.0000
vt 550.7045 1.4091
vt 549.0682 1.4091
vt 550.7045 0.0000
vt 549.0682 0.0000
vt 549.0682 1.4091
vt 550.7045 1.4091
vt -11.1591 0.0000
vt -9.5227 0.0000
vt -9.5227 1.4091
vt -11.1591 1.4091
vt -9.5227 0.0000
vt -11.1591 0.0000
vt -11.1591 1.4091
vt -9.5227 1.4091
vt 546.1136 -9.6818
vt 546.1136 -8.0455
vt 547.7500 -8.0455
vt 547.7500 -9.6818
vt 546.1136 -9.6818
vt 547.7500 -9.6818
vt 547.7500 -8.0455
vt 546.1136 -8.0455
vt 546.1136 0.0000
vt 547.7500 0.0000
vt 547.7500 1.4091
vt 546.1136 1.4091
vt 547.7500 0.0000
vt 546.1136 0.0000
vt 546.1136 1.4091
vt 547.7500 1.4091
vt -9.6818 0.0000
vt -8.0455 0.0000
vt -8.0455 1.4091
vt -9.6818 1.4091
vt -8.0455 0.0000
vt -9.6818 0.0000
vt -9.6818 1.4091
vt -8.0455 1.4091
vt 977.5000 -42.8689
vt 977.5000 -42.3770
vt 979.0574 -42.3770
vt 979.0574 -42.8689
vt 977.5000 -42.8689
vt 979.0574 -42.8689
vt 979.0574 -42.3770
vt 977.5000 -42.3770
vt 977.5000 2.4672
vt 979.0574 2.4672
vt 979.0574 2.5328
vt 977.5000 2.5328
vt 979.0574 2.4672
vt 977.5000 2.4672
vt 977.5000 2.5328
vt 979.0574 2.5328
vt -42.8689 2.4672
vt -42.3770 2.4672
vt -42.3770 2.5328
vt -42.8689 2.5328
vt -42.3770 2.4672
vt -42.8689 2.4672
vt -42.8689 2.5328
vt -42.3770 2.5328
vt 988.1557 -42.8689
vt 988.1557 -42.3770
vt 989.7131 -42.3770
vt 989.7131 -42.8689
vt 988.1557 -42.8689
vt 989.7131 -42.8689
vt 989.7131 -42.3770
vt 988.1557 -42.3770
vt 988.1557 2.4672
vt 989.7131 2.4672
vt 989.7131 2.5328
vt 988.1557 2.5328
vt 989.7131 2.4672
vt 988.1557 2.4672
vt 988.1557 2.5328
vt 989.7131 2.5328
vt -42.8689 2.4672
vt -42.3770 2.4672
vt -42.3770 2.5328
vt -42.8689 2.5328
vt -42.3770 2.4672
vt -42.8689 2.4672
vt -42.8689 2.5328
vt -42.3770 2.5328
vt 993.4836 -42.8689
vt 993.4836 -42.3770
vt 995.0410 -42.3770
vt 995.0410 -42.8689
vt 993.4836 -42.8689
vt 995.0410 -42.8689
vt 995.0410 -42.3770
vt 993.4836 -42.3770
vt 993.4836 2.4672
vt 995.0410 2.4672
vt 995.0410 2.5328
vt 993.4836 2.5328
vt 995.0410 2.4672
vt 993.4836 2.4672
vt 993.4836 2.5328
vt 995.0410 2.5328
vt -42.8689 2.4672
vt -42.3770 2.4672
vt -42.3770 2.5328
vt -42.8689 2.5328
vt -42.3770 2.4672
vt -42.8689 2.4672
vt -42.8689 2.5328
vt -42.3770 2.5328
vt 982.8279 -37.5410
vt 982.8279 -37.0492
vt 984.3852 -37.0492
vt 984.3852 -37.5410
vt 982.8279 -37.5410
vt 984.3852 -37.5410
vt 984.3852 -37.0492
vt 982.8279 -37.0492
vt 982.8279 2.4672
vt 984.3852 2.4672
vt 984.3852 2.5328
vt 982.8279 2.5328
vt 984.3852 2.4672
vt 982.8279 2.4672
vt 982.8279 2.5328
vt 984.3852 2.5328
vt -37.5410 2.4672
vt -37.0492 2.4672
vt -37.0492 2.5328
vt -37.5410 2.5328
vt -37.0492 2.4672
vt -37.5410 2.4672
vt -37.5410 2.5328
vt -37.0492 2.5328
vt 988.1557 -37.5410
vt 988.1557 -37.0492
vt 989.7131 -37.0492
vt 989.7131 -37.5410
vt 988.1557 -37.5410
vt 989.7131 -37.5410
vt 989.7131 -37.0492
vt 988.1557 -37.0492
vt 988.1557 2.4672
vt 989.7131 2.4672
vt 989.7131 2.5328
vt 988.1557 2.5328
vt 989.7131 2.4672
vt 988.1557 2.4672
vt 988.1557 2.5328
vt 989.7131 2.5328
vt -37.5410 2.4672
vt -37.0492 2.4672
vt -37.0492 2.5328
vt -37.5410 2.5328
vt -37.0492 2.4672
vt -37.5410 2.4672
vt -37.5410 2.5328
vt -37.0492 2.5328
vt 993.4836 -37.5410
vt 993.4836 -37.0492
vt 995.0410 -37.0492
vt 995.0410 -37.5410
vt 993.4836 -37.5410
vt 995.0410 -37.5410
vt 995.0410 -37.0492
vt 993.4836 -37.0492
vt 993.4836 2.4672
vt 995.0410 2.4672
vt 995.0410 2.5328
vt 993.4836 2.5328
vt 995.0410 2.4672
vt 993.4836 2.4672
vt 993.4836 2.5328
vt 995.0410 2.5328
vt -37.5410 2.4672
vt -37.0492 2.4672
vt -37.0492 2.5328
vt -37.5410 2.5328
vt -37.0492 2.4672
vt -37.5410 2.4672
vt -37.5410 2.5328
vt -37.0492 2.5328
vt 972.1721 -32.2131
vt 972.1721 -31.7213
vt 973.7295 -31.7213
vt 973.7295 -32.2131
vt 972.1721 -32.2131
vt 973.7295 -32.2131
vt 973.7295 -31.7213
vt 972.1721 -31.7213
vt 972.1721 2.4672
vt 973.7295 2.4672
vt 973.7295 2.5328
vt 972.1721 2.5328
vt 973.7295 2.4672
vt 972.1721 2.4672
vt 972.1721 2.5328
vt 973.7295 2.5328
vt -32.2131 2.4672
vt -31.7213 2.4672
vt -31.7213 2.5328
vt -32.2131 2.5328
vt -31.7213 2.4672
vt -32.2131 2.4672
vt -32.2131 2.5328
vt -31.7213 2.5328
vt 977.5000 -32.2131
vt 977.5000 -31.7213
vt 979.0574 -31.7213
vt 979.0574 -32.2131
vt 977.5000 -32.2131
vt 979.0574 -32.2131
vt 979.0574 -31.7213
vt 977.5000 -31.7213
vt 977.5000 2.4672
vt 979.0574 2.4672
vt 979.0574 2.5328
vt 977.5000 2.5328
vt 979.0574 2.4672
vt 977.5000 2.4672
vt 977.5000 2.5328
vt 979.0574 2.5328
vt -32.2131 2.4672
vt -31.7213 2.4672
vt -31.7213 2.5328
vt -32.2131 2.5328
vt -31.7213 2.4672
vt -32.2131 2.4672
vt -32.2131 2.5328
vt -31.7213 2.5328
vt 988.1557 -32.2131
vt 988.1557 -31.7213
vt 989.7131 -31.7213
vt 989.7131 -32.2131
vt 988.1557 -32.2131
vt 989.7131 -32.2131
vt 989.7131 -31.7213
vt 988.1557 -31.7213
vt 988.1557 2.4672
vt 989.7131 2.4672
vt 989.7131 2.5328
vt 988.1557 2.5328
vt 989.7131 2.4672
vt 988.1557 2.4672
vt 988.1557 2.5328
vt 989.7131 2.5328
vt -32.2131 2.4672
vt -31.7213 2.4672
vt -31.7213 2.5328
vt -32.2131 2.5328
vt -31.7213 2.4672
vt -32.2131 2.4672
vt -32.2131 2.5328
vt -31.7213 2.5328
vt 993.4836 -32.2131
vt 993.4836 -31.7213
vt 995.0410 -31.7213
vt 995.0410 -32.2131
vt 993.4836 -32.2131
vt 995.0410 -32.2131
vt 995.0410 -31.7213
vt 993.4836 -31.7213
vt 993.4836 2.4672
vt 995.0410 2.4672
vt 995.0410 2.5328
vt 993.4836 2.5328
vt 995.0410 2.4672
vt 993.4836 2.4672
vt 993.4836 2.5328
vt 995.0410 2.5328
vt -32.2131 2.4672
vt -31.7213 2.4672
vt -31.7213 2.5328
vt -32.2131 2.5328
vt -31.7213 2.4672
vt -32.2131 2.4672
vt -32.2131 2.5328
vt -31.7213 2.5328
vt 998.8115 -32.2131
vt 998.8115 -31.7213
vt 1000.3689 -31.7213
vt 1000.3689 -32.2131
vt 998.8115 -32.2131
vt 1000.3689 -32.2131
vt 1000.3689 -31.7213
vt 998.8115 -31.7213
vt 998.8115 2.4672
vt 1000.3689 2.4672
vt 1000.3689 2.5328
vt 998.8115 2.5328
vt 1000.3689 2.4672
vt 998.8115 2.4672
vt 998.8115 2.5328
vt 1000.3689 2.5328
vt -32.2131 2.4672
vt -31.7213 2.4672
vt -31.7213 2.5328
vt -32.2131 2.5328
vt -31.7213 2.4672
vt -32.2131 2.4672
vt -32.2131 2.5328
vt -31.7213 2.5328
vt 972.1721 -26.8852
vt 972.1721 -26.3934
vt 973.7295 -26.3934
vt 973.7295 -26.8852
vt 972.1721 -26.8852
vt 973.7295 -26.8852
vt 973.7295 -26.3934
vt 972.1721 -26.3934
vt 972.1721 2.4672
vt 973.7295 2.4672
vt 973.7295 2.5328
vt 972.1721 2.5328
vt 973.7295 2.4672
vt 972.1721 2.4672
vt 972.1721 2.5328
vt 973.7295 2.5328
vt -26.8852 2.4672
vt -26.3934 2.4672
vt -26.3934 2.5328
vt -26.8852 2.5328
vt -26.3934 2.4672
vt -26.8852 2.4672
vt -26.8852 2.5328
vt -26.3934 2.5328
vt 977.5000 -26.8852
vt 977.5000 -26.3934
vt 979.0574 -26.3934
vt 979.0574 -26.8852
vt 977.5000 -26.8852
vt 979.0574 -26.8852
vt 979.0574 -26.3934
vt 977.5000 -26.3934
vt 977.5000 2.4672
vt 979.0574 2.4672
vt 979.0574 2.5328
vt 977.5000 2.5328
vt 979.0574 2.4672
vt 977.5000 2.4672
vt 977.5000 2.5328
vt 979.0574 2.5328
vt -26.8852 2.4672
vt -26.3934 2.4672
vt -26.3934 2.5328
vt -26.8852 2.5328
vt -26.3934 2.4672
vt -26.8852 2.4672
vt -26.8852 2.5328
vt -26.3934 2.5328
vt 993.4836 -26.8852
vt 993.4836 -26.3934
vt 995.0410 -26.3934
vt 995.0410 -26.8852
vt 993.4836 -26.8852
vt 995.0410 -26.8852
vt 995.0410 -26.3934
vt 993.4836 -26.3934
vt 993.4836 2.4672
vt 995.0410 2.4672
vt 995.0410 2.5328
vt 993.4836 2.5328
vt 995.0410 2.4672
vt 993.4836 2.4672
vt 993.4836 2.5328
vt 995.0410 2.5328
vt -26.8852 2.4672
vt -26.3934 2.4672
vt -26.3934 2.5328
vt -26.8852 2.5328
vt -26.3934 2.4672
vt -26.8852 2.4672
vt -26.8852 2.5328
vt -26.3934 2.5328
vt 998.8115 -26.8852
vt 998.8115 -26.3934
vt 1000.3689 -26.3934
vt 1000.3689 -26.8852
vt 998.8115 -26.8852
vt 1000.3689 -26.8852
vt 1000.3689 -26.3934
vt 998.8115 -26.3934
vt 998.8115 2.4672
vt 1000.3689 2.4672
vt 1000.3689 2.5328
vt 998.8115 2.5328
vt 1000.3689 2.4672
vt 998.8115 2.4672
vt 998.8115 2.5328
vt 1000.3689 2.5328
vt -26.8852 2.4672
vt -26.3934 2.4672
vt -26.3934 2.5328
vt -26.8852 2.5328
vt -26.3934 2.4672
vt -26.8852 2.4672
vt -26.8852 2.5328
vt -26.3934 2.5328
vt 977.5000 -21.5574
vt 977.5000 -21.0656
vt 979.0574 -21.0656
vt 979.0574 -21.5574
vt 977.5000 -21.5574
vt 979.0574 -21.5574
vt 979.0574 -21.0656
vt 977.5000 -21.0656
vt 977.5000 2.4672
vt 979.0574 2.4672
vt 979.0574 2.5328
vt 977.5000 2.5328
vt 979.0574 2.4672
vt 977.5000 2.4672
vt 977.5000 2.5328
vt 979.0574 2.5328
vt -21.5574 2.4672
vt -21.0656 2.4672
vt -21.0656 2.5328
vt -21.5574 2.5328
vt -21.0656 2.4672
vt -21.5574 2.4672
vt -21.5574 2.5328
vt -21.0656 2.5328
vt 988.1557 -21.5574
vt 988.1557 -21.0656
vt 989.7131 -21.0656
vt 989.7131 -21.5574
vt 988.1557 -21.5574
vt 989.7131 -21.5574
vt 989.7131 -21.0656
vt 988.1557 -21.0656
vt 988.1557 2.4672
vt 989.7131 2.4672
vt 989.7131 2.5328
vt 988.1557 2.5328
vt 989.7131 2.4672
vt 988.1557 2.4672
vt 988.1557 2.5328
vt 989.7131 2.5328
vt -21.5574 2.4672
vt -21.0656 2.4672
vt -21.0656 2.5328
vt -21.5574 2.5328
vt -21.0656 2.4672
vt -21.5574 2.4672
vt -21.5574 2.5328
vt -21.0656 2.5328
vt 993.4836 -21.5574
vt 993.4836 -21.0656
vt 995.0410 -21.0656
vt 995.0410 -21.5574
vt 993.4836 -21.5574
vt 995.0410 -21.5574
vt 995.0410 -21.0656
vt 993.4836 -21.0656
vt 993.4836 2.4672
vt 995.0410 2.4672
vt 995.0410 2.5328
vt 993.4836 2.5328
vt 995.0410 2.4672
vt 993.4836 2.4672
vt 993.4836 2.5328
vt 995.0410 2.5328
vt -21.5574 2.4672
vt -21.0656 2.4672
vt -21.0656 2.5328
vt -21.5574 2.5328
vt -21.0656 2.4672
vt -21.5574 2.4672
vt -21.5574 2.5328
vt -21.0656 2.5328
vt 977.5000 -16.2295
vt 977.5000 -15.7377
vt 979.0574 -15.7377
vt 979.0574 -16.2295
vt 977.5000 -16.2295
vt 979.0574 -16.2295
vt 979.0574 -15.7377
vt 977.5000 -15.7377
vt 977.5000 2.4672
vt 979.0574 2.4672
vt 979.0574 2.5328
vt 977.5000 2.5328
vt 979.0574 2.4672
vt 977.5000 2.4672
vt 977.5000 2.5328
vt 979.0574 2.5328
vt -16.2295 2.4672
vt -15.7377 2.4672
vt -15.7377 2.5328
vt -16.2295 2.5328
vt -15.7377 2.4672
vt -16.2295 2.4672
vt -16.2295 2.5328
vt -15.7377 2.5328
vt 982.8279 -16.2295
vt 982.8279 -15.7377
vt 984.3852 -15.7377
vt 984.3852 -16.2295
vt 982.8279 -16.2295
vt 984.3852 -16.2295
vt 984.3852 -15.7377
vt 982.8279 -15.7377
vt 982.8279 2.4672
vt 984.3852 2.4672
vt 984.3852 2.5328
vt 982.8279 2.5328
vt 984.3852 2.4672
vt 982.8279 2.4672
vt 982.8279 2.5328
vt 984.3852 2.5328
vt -16.2295 2.4672
vt -15.7377 2.4672
vt -15.7377 2.5328
vt -16.2295 2.5328
vt -15.7377 2.4672
vt -16.2295 2.4672
vt -16.2295 2.5328
vt -15.7377 2.5328
vt 988.1557 -16.2295
vt 988.1557 -15.7377
vt 989.7131 -15.7377
vt 989.7131 -16.2295
vt 988.1557 -16.2295
vt 989.7131 -16.2295
vt 989.7131 -15.7377
vt 988.1557 -15.7377
vt 988.1557 2.4672
vt 989.7131 2.4672
vt 989.7131 2.5328
vt 988.1557 2.5328
vt 989.7131 2.4672
vt 988.1557 2.4672
vt 988.1557 2.5328
vt 989.7131 2.5328
vt -16.2295 2.4672
vt -15.7377 2.4672
vt -15.7377 2.5328
vt -16.2295 2.5328
vt -15.7377 2.4672
vt -16.2295 2.4672
vt -16.2295 2.5328
vt -15.7377 2.5328
vt 993.4836 -16.2295
vt 993.4836 -15.7377
vt 995.0410 -15.7377
vt 995.0410 -16.2295
vt 993.4836 -16.2295
vt 995.0410 -16.2295
vt 995.0410 -15.7377
vt 993.4836 -15.7377
vt 993.4836 2.4672
vt 995.0410 2.4672
vt 995.0410 2.5328
vt 993.4836 2.5328
vt 995.0410 2.4672
vt 993.4836 2.4672
vt 993.4836 2.5328
vt 995.0410 2.5328
vt -16.2295 2.4672
vt -15.7377 2.4672
vt -15.7377 2.5328
vt -16.2295 2.5328
vt -15.7377 2.4672
vt -16.2295 2.4672
vt -16.2295 2.5328
vt -15.7377 2.5328
usemtl cubicle
f 1 4 3 2
f 5 6 7 8
f 1 2 6 5
f 3 4 8 7
f 2 3 7 6
f 4 1 5 8
f 33 36 35 34
f 37 38 39 40
f 33 34 38 37
f 35 36 40 39
f 34 35 39 38
f 36 33 37 40
f 41 44 43 42
f 45 46 47 48
f 41 42 46 45
f 43 44 48 47
f 42 43 47 46
f 44 41 45 48
f 49 52 51 50
f 53 54 55 56
f 49 50 54 53
f 51 52 56 55
f 50 51 55 54
f 52 49 53 56
f 81 84 83 82
f 85 86 87 88
f 81 82 86 85
f 83 84 88 87
f 82 83 87 86
f 84 81 85 88
f 137 140 139 138
f 141 142 143 144
f 137 138 142 141
f 139 140 144 143
f 138 139 143 142
f 140 137 141 144
f 145 148 147 146
f 149 150 151 152
f 145 146 150 149
f 147 148 152 151
f 146 147 151 150
f 148 145 149 152
f 177 180 179 178
f 181 182 183 184
f 177 178 182 181
f 179 180 184 183
f 178 179 183 182
f 180 177 181 184
f 209 212 211 210
f 213 214 215 216
f 209 210 214 213
f 211 212 216 215
f 210 211 215 214
f 212 209 213 216
f 241 244 243 242
f 245 246 247 248
f 241 242 246 245
f 243 244 248 247
f 242 243 247 246
f 244 241 245 248
f 249 252 251 250
f 253 254 255 256
f 249 250 254 253
f 251 252 256 255
f 250 251 255 254
f 252 249 253 256
f 281 284 283 282
f 285 286 287 288
f 281 282 286 285
f 283 284 288 287
f 282 283 287 286
f 284 281 285 288
f 313 316 315 314
f 317 318 319 320
f 313 314 318 317
f 315 316 320 319
f 314 315 319 318
f 316 313 317 320
f 321 324 323 322
f 325 326 327 328
f 321 322 326 325
f 323 324 328 327
f 322 323 327 326
f 324 321 325 328
f 401 404 403 402
f 405 406 407 408
f 401 402 406 405
f 403 404 408 407
f 402 403 407 406
f 404 401 405 408
usemtl fluorescent
f 529 532 531 530
f 533 534 535 536
f 529 530 534 533
f 531 532 536 535
f 530 531 535 534
f 532 529 533 536
f 561 564 563 562
f 565 566 567 568
f 561 562 566 565
f 563 564 568 567
f 562 563 567 566
f 564 561 565 568
f 593 596 595 594
f 597 598 599 600
f 593 594 598 597
f 595 596 600 599
f 594 595 599 598
f 596 593 597 600
f 625 628 627 626
f 629 630 631 632
f 625 626 630 629
f 627 628 632 631
f 626 627 631 630
f 628 625 629 632
f 657 660 659 658
f 661 662 663 664
f 657 658 662 661
f 659 660 664 663
f 658 659 663 662
f 660 657 661 664
f 689 692 691 690
f 693 694 695 696
f 689 690 694 693
f 691 692 696 695
f 690 691 695 694
f 692 689 693 696
f 721 724 723 722
f 725 726 727 728
f 721 722 726 725
f 723 724 728 727
f 722 723 727 726
f 724 721 725 728
f 753 756 755 754
f 757 758 759 760
f 753 754 758 757
f 755 756 760 759
f 754 755 759 758
f 756 753 757 760
f 785 788 787 786
f 789 790 791 792
f 785 786 790 789
f 787 788 792 791
f 786 787 791 790
f 788 785 789 792
f 817 820 819 818
f 821 822 823 824
f 817 818 822 821
f 819 820 824 823
f 818 819 823 822
f 820 817 821 824
f 849 852 851 850
f 853 854 855 856
f 849 850 854 853
f 851 852 856 855
f 850 851 855 854
f 852 849 853 856
f 881 884 883 882
f 885 886 887 888
f 881 882 886 885
f 883 884 888 887
f 882 883 887 886
f 884 881 885 888
f 913 916 915 914
f 917 918 919 920
f 913 914 918 917
f 915 916 920 919
f 914 915 919 918
f 916 913 917 920
f 945 948 947 946
f 949 950 951 952
f 945 946 950 949
f 947 948 952 951
f 946 947 951 950
f 948 945 949 952
f 977 980 979 978
f 981 982 983 984
f 977 978 982 981
f 979 980 984 983
f 978 979 983 982
f 980 977 981 984
f 1009 1012 1011 1010
f 1013 1014 1015 1016
f 1009 1010 1014 1013
f 1011 1012 1016 1015
f 1010 1011 1015 1014
f 1012 1009 1013 1016
f 1041 1044 1043 1042
f 1045 1046 1047 1048
f 1041 1042 1046 1045
f 1043 1044 1048 1047
f 1042 1043 1047 1046
f 1044 1041 1045 1048
f 1073 1076 1075 1074
f 1077 1078 1079 1080
f 1073 1074 1078 1077
f 1075 1076 1080 1079
f 1074 1075 1079 1078
f 1076 1073 1077 1080
f 1105 1108 1107 1106
f 1109 1110 1111 1112
f 1105 1106 1110 1109
f 1107 1108 1112 1111
f 1106 1107 1111 1110
f 1108 1105 1109 1112
f 1137 1140 1139 1138
f 1141 1142 1143 1144
f 1137 1138 1142 1141
f 1139 1140 1144 1143
f 1138 1139 1143 1142
f 1140 1137 1141 1144
f 1169 1172 1171 1170
f 1173 1174 1175 1176
f 1169 1170 1174 1173
f 1171 1172 1176 1175
f 1170 1171 1175 1174
f 1172 1169 1173 1176
f 1201 1204 1203 1202
f 1205 1206 1207 1208
f 1201 1202 1206 1205
f 1203 1204 1208 1207
f 1202 1203 1207 1206
f 1204 1201 1205 1208
usemtl desk
f 1233 1236 1235 1234
f 1237 1238 1239 1240
f 1233 1234 1238 1237
f 1235 1236 1240 1239
f 1234 1235 1239 1238
f 1236 1233 1237 1240
f 1241 1244 1243 1242
f 1245 1246 1247 1248
f 1241 1242 1246 1245
f 1243 1244 1248 1247
f 1242 1243 1247 1246
f 1244 1241 1245 1248
f 1249 1252 1251 1250
f 1253 1254 1255 1256
f 1249 1250 1254 1253
f 1251 1252 1256 1255
f 1250 1251 1255 1254
f 1252 1249 1253 1256
usemtl monitor
f 1257 1260 1259 1258
f 1261 1262 1263 1264
f 1257 1258 1262 1261
f 1259 1260 1264 1263
f 1258 1259 1263 1262
f 1260 1257 1261 1264
usemtl desk
f 1265 1268 1267 1266
f 1269 1270 1271 1272
f 1265 1266 1270 1269
f 1267 1268 1272 1271
f 1266 1267 1271 1270
f 1268 1265 1269 1272
f 1273 1276 1275 1274
f 1277 1278 1279 1280
f 1273 1274 1278 1277
f 1275 1276 1280 1279
f 1274 1275 1279 1278
f 1276 1273 1277 1280
f 1281 1284 1283 1282
f 1285 1286 1287 1288
f 1281 1282 1286 1285
f 1283 1284 1288 1287
f 1282 1283 1287 1286
f 1284 1281 1285 1288
usemtl monitor
f 1289 1292 1291 1290
f 1293 1294 1295 1296
f 1289 1290 1294 1293
f 1291 1292 1296 1295
f 1290 1291 1295 1294
f 1292 1289 1293 1296
usemtl desk
f 1297 1300 1299 1298
f 1301 1302 1303 1304
f 1297 1298 1302 1301
f 1299 1300 1304 1303
f 1298 1299 1303 1302
f 1300 1297 1301 1304
f 1305 1308 1307 1306
f 1309 1310 1311 1312
f 1305 1306 1310 1309
f 1307 1308 1312 1311
f 1306 1307 1311 1310
f 1308 1305 1309 1312
f 1313 1316 1315 1314
f 1317 1318 1319 1320
f 1313 1314 1318 1317
f 1315 1316 1320 1319
f 1314 1315 1319 1318
f 1316 1313 1317 1320
usemtl monitor
f 1321 1324 1323 1322
f 1325 1326 1327 1328
f 1321 1322 1326 1325
f 1323 1324 1328 1327
f 1322 1323 1327 1326
f 1324 1321 1325 1328
usemtl desk
f 1329 1332 1331 1330
f 1333 1334 1335 1336
f 1329 1330 1334 1333
f 1331 1332 1336 1335
f 1330 1331 1335 1334
f 1332 1329 1333 1336
f 1337 1340 1339 1338
f 1341 1342 1343 1344
f 1337 1338 1342 1341
f 1339 1340 1344 1343
f 1338 1339 1343 1342
f 1340 1337 1341 1344
f 1345 1348 1347 1346
f 1349 1350 1351 1352
f 1345 1346 1350 1349
f 1347 1348 1352 1351
f 1346 1347 1351 1350
f 1348 1345 1349 1352
usemtl monitor
f 1353 1356 1355 1354
f 1357 1358 1359 1360
f 1353 1354 1358 1357
f 1355 1356 1360 1359
f 1354 1355 1359 1358
f 1356 1353 1357 1360
usemtl desk
f 1361 1364 1363 1362
f 1365 1366 1367 1368
f 1361 1362 1366 1365
f 1363 1364 1368 1367
f 1362 1363 1367 1366
f 1364 1361 1365 1368
f 1369 1372 1371 1370
f 1373 1374 1375 1376
f 1369 1370 1374 1373
f 1371 1372 1376 1375
f 1370 1371 1375 1374
f 1372 1369 1373 1376
f 1377 1380 1379 1378
f 1381 1382 1383 1384
f 1377 1378 1382 1381
f 1379 1380 1384 1383
f 1378 1379 1383 1382
f 1380 1377 1381 1384
usemtl monitor
f 1385 1388 1387 1386
f 1389 1390 1391 1392
f 1385 1386 1390 1389
f 1387 1388 1392 1391
f 1386 1387 1391 1390
f 1388 1385 1389 1392
usemtl desk
f 1393 1396 1395 1394
f 1397 1398 1399 1400
f 1393 1394 1398 1397
f 1395 1396 1400 1399
f 1394 1395 1399 1398
f 1396 1393 1397 1400
f 1401 1404 1403 1402
f 1405 1406 1407 1408
f 1401 1402 1406 1405
f 1403 1404 1408 1407
f 1402 1403 1407 1406
f 1404 1401 1405 1408
f 1409 1412 1411 1410
f 1413 1414 1415 1416
f 1409 1410 1414 1413
f 1411 1412 1416 1415
f 1410 1411 1415 1414
f 1412 1409 1413 1416
usemtl monitor
f 1417 1420 1419 1418
f 1421 1422 1423 1424
f 1417 1418 1422 1421
f 1419 1420 1424 1423
f 1418 1419 1423 1422
f 1420 1417 1421 1424
usemtl desk
f 1425 1428 1427 1426
f 1429 1430 1431 1432
f 1425 1426 1430 1429
f 1427 1428 1432 1431
f 1426 1427 1431 1430
f 1428 1425 1429 1432
f 1433 1436 1435 1434
f 1437 1438 1439 1440
f 1433 1434 1438 1437
f 1435 1436 1440 1439
f 1434 1435 1439 1438
f 1436 1433 1437 1440
f 1441 1444 1443 1442
f 1445 1446 1447 1448
f 1441 1442 1446 1445
f 1443 1444 1448 1447
f 1442 1443 1447 1446
f 1444 1441 1445 1448
usemtl monitor
f 1449 1452 1451 1450
f 1453 1454 1455 1456
f 1449 1450 1454 1453
f 1451 1452 1456 1455
f 1450 1451 1455 1454
f 1452 1449 1453 1456
usemtl desk
f 1457 1460 1459 1458
f 1461 1462 1463 1464
f 1457 1458 1462 1461
f 1459 1460 1464 1463
f 1458 1459 1463 1462
f 1460 1457 1461 1464
f 1465 1468 1467 1466
f 1469 1470 1471 1472
f 1465 1466 1470 1469
f 1467 1468 1472 1471
f 1466 1467 1471 1470
f 1468 1465 1469 1472
f 1473 1476 1475 1474
f 1477 1478 1479 1480
f 1473 1474 1478 1477
f 1475 1476 1480 1479
f 1474 1475 1479 1478
f 1476 1473 1477 1480
usemtl monitor
f 1481 1484 1483 1482
f 1485 1486 1487 1488
f 1481 1482 1486 1485
f 1483 1484 1488 1487
f 1482 1483 1487 1486
f 1484 1481 1485 1488
usemtl desk
f 1489 1492 1491 1490
f 1493 1494 1495 1496
f 1489 1490 1494 1493
f 1491 1492 1496 1495
f 1490 1491 1495 1494
f 1492 1489 1493 1496
f 1497 1500 1499 1498
f 1501 1502 1503 1504
f 1497 1498 1502 1501
f 1499 1500 1504 1503
f 1498 1499 1503 1502
f 1500 1497 1501 1504
f 1505 1508 1507 1506
f 1509 1510 1511 1512
f 1505 1506 1510 1509
f 1507 1508 1512 1511
f 1506 1507 1511 1510
f 1508 1505 1509 1512
usemtl monitor
f 1513 1516 1515 1514
f 1517 1518 1519 1520
f 1513 1514 1518 1517
f 1515 1516 1520 1519
f 1514 1515 1519 1518
f 1516 1513 1517 1520
usemtl desk
f 1521 1524 1523 1522
f 1525 1526 1527 1528
f 1521 1522 1526 1525
f 1523 1524 1528 1527
f 1522 1523 1527 1526
f 1524 1521 1525 1528
f 1529 1532 1531 1530
f 1533 1534 1535 1536
f 1529 1530 1534 1533
f 1531 1532 1536 1535
f 1530 1531 1535 1534
f 1532 1529 1533 1536
f 1537 1540 1539 1538
f 1541 1542 1543 1544
f 1537 1538 1542 1541
f 1539 1540 1544 1543
f 1538 1539 1543 1542
f 1540 1537 1541 1544
usemtl monitor
f 1545 1548 1547 1546
f 1549 1550 1551 1552
f 1545 1546 1550 1549
f 1547 1548 1552 1551
f 1546 1547 1551 1550
f 1548 1545 1549 1552
usemtl desk
f 1553 1556 1555 1554
f 1557 1558 1559 1560
f 1553 1554 1558 1557
f 1555 1556 1560 1559
f 1554 1555 1559 1558
f 1556 1553 1557 1560
f 1561 1564 1563 1562
f 1565 1566 1567 1568
f 1561 1562 1566 1565
f 1563 1564 1568 1567
f 1562 1563 1567 1566
f 1564 1561 1565 1568
f 1569 1572 1571 1570
f 1573 1574 1575 1576
f 1569 1570 1574 1573
f 1571 1572 1576 1575
f 1570 1571 1575 1574
f 1572 1569 1573 1576
usemtl monitor
f 1577 1580 1579 1578
f 1581 1582 1583 1584
f 1577 1578 1582 1581
f 1579 1580 1584 1583
f 1578 1579 1583 1582
f 1580 1577 1581 1584
usemtl desk
f 1585 1588 1587 1586
f 1589 1590 1591 1592
f 1585 1586 1590 1589
f 1587 1588 1592 1591
f 1586 1587 1591 1590
f 1588 1585 1589 1592
f 1593 1596 1595 1594
f 1597 1598 1599 1600
f 1593 1594 1598 1597
f 1595 1596 1600 1599
f 1594 1595 1599 1598
f 1596 1593 1597 1600
f 1601 1604 1603 1602
f 1605 1606 1607 1608
f 1601 1602 1606 1605
f 1603 1604 1608 1607
f 1602 1603 1607 1606
f 1604 1601 1605 1608
usemtl monitor
f 1609 1612 1611 1610
f 1613 1614 1615 1616
f 1609 1610 1614 1613
f 1611 1612 1616 1615
f 1610 1611 1615 1614
f 1612 1609 1613 1616
usemtl desk
f 1617 1620 1619 1618
f 1621 1622 1623 1624
f 1617 1618 1622 1621
f 1619 1620 1624 1623
f 1618 1619 1623 1622
f 1620 1617 1621 1624
f 1625 1628 1627 1626
f 1629 1630 1631 1632
f 1625 1626 1630 1629
f 1627 1628 1632 1631
f 1626 1627 1631 1630
f 1628 1625 1629 1632
f 1633 1636 1635 1634
f 1637 1638 1639 1640
f 1633 1634 1638 1637
f 1635 1636 1640 1639
f 1634 1635 1639 1638
f 1636 1633 1637 1640
usemtl monitor
f 1641 1644 1643 1642
f 1645 1646 1647 1648
f 1641 1642 1646 1645
f 1643 1644 1648 1647
f 1642 1643 1647 1646
f 1644 1641 1645 1648
usemtl desk
f 1649 1652 1651 1650
f 1653 1654 1655 1656
f 1649 1650 1654 1653
f 1651 1652 1656 1655
f 1650 1651 1655 1654
f 1652 1649 1653 1656
f 1657 1660 1659 1658
f 1661 1662 1663 1664
f 1657 1658 1662 1661
f 1659 1660 1664 1663
f 1658 1659 1663 1662
f 1660 1657 1661 1664
f 1665 1668 1667 1666
f 1669 1670 1671 1672
f 1665 1666 1670 1669
f 1667 1668 1672 1671
f 1666 1667 1671 1670
f 1668 1665 1669 1672
usemtl monitor
f 1673 1676 1675 1674
f 1677 1678 1679 1680
f 1673 1674 1678 1677
f 1675 1676 1680 1679
f 1674 1675 1679 1678
f 1676 1673 1677 1680
usemtl office_wall
f 9/1 10/2 11/3 12/4
f 13/5 14/6 15/7 16/8
f 17/9 18/10 19/11 20/12
f 21/13 22/14 23/15 24/16
f 25/17 26/18 27/19 28/20
f 29/21 30/22 31/23 32/24
f 57/25 58/26 59/27 60/28
f 61/29 62/30 63/31 64/32
f 65/33 66/34 67/35 68/36
f 69/37 70/38 71/39 72/40
f 73/41 74/42 75/43 76/44
f 77/45 78/46 79/47 80/48
f 89/49 90/50 91/51 92/52
f 93/53 94/54 95/55 96/56
f 97/57 98/58 99/59 100/60
f 101/61 102/62 103/63 104/64
f 105/65 106/66 107/67 108/68
f 109/69 110/70 111/71 112/72
f 113/73 114/74 115/75 116/76
f 117/77 118/78 119/79 120/80
f 121/81 122/82 123/83 124/84
f 125/85 126/86 127/87 128/88
f 129/89 130/90 131/91 132/92
f 133/93 134/94 135/95 136/96
f 153/97 154/98 155/99 156/100
f 157/101 158/102 159/103 160/104
f 161/105 162/106 163/107 164/108
f 165/109 166/110 167/111 168/112
f 169/113 170/114 171/115 172/116
f 173/117 174/118 175/119 176/120
f 185/121 186/122 187/123 188/124
f 189/125 190/126 191/127 192/128
f 193/129 194/130 195/131 196/132
f 197/133 198/134 199/135 200/136
f 201/137 202/138 203/139 204/140
f 205/141 206/142 207/143 208/144
f 217/145 218/146 219/147 220/148
f 221/149 222/150 223/151 224/152
f 225/153 226/154 227/155 228/156
f 229/157 230/158 231/159 232/160
f 233/161 234/162 235/163 236/164
f 237/165 238/166 239/167 240/168
f 257/169 258/170 259/171 260/172
f 261/173 262/174 263/175 264/176
f 265/177 266/178 267/179 268/180
f 269/181 270/182 271/183 272/184
f 273/185 274/186 275/187 276/188
f 277/189 278/190 279/191 280/192
f 289/193 290/194 291/195 292/196
f 293/197 294/198 295/199 296/200
f 297/201 298/202 299/203 300/204
f 301/205 302/206 303/207 304/208
f 305/209 306/210 307/211 308/212
f 309/213 310/214 311/215 312/216
f 329/217 330/218 331/219 332/220
f 333/221 334/222 335/223 336/224
f 337/225 338/226 339/227 340/228
f 341/229 342/230 343/231 344/232
f 345/233 346/234 347/235 348/236
f 349/237 350/238 351/239 352/240
f 353/241 354/242 355/243 356/244
f 357/245 358/246 359/247 360/248
f 361/249 362/250 363/251 364/252
f 365/253 366/254 367/255 368/256
f 369/257 370/258 371/259 372/260
f 373/261 374/262 375/263 376/264
f 377/265 378/266 379/267 380/268
f 381/269 382/270 383/271 384/272
f 385/273 386/274 387/275 388/276
f 389/277 390/278 391/279 392/280
f 393/281 394/282 395/283 396/284
f 397/285 398/286 399/287 400/288
f 409/289 410/290 411/291 412/292
f 413/293 414/294 415/295 416/296
f 417/297 418/298 419/299 420/300
f 421/301 422/302 423/303 424/304
f 425/305 426/306 427/307 428/308
f 429/309 430/310 431/311 432/312
f 433/313 434/314 435/315 436/316
f 437/317 438/318 439/319 440/320
f 441/321 442/322 443/323 444/324
f 445/325 446/326 447/327 448/328
f 449/329 450/330 451/331 452/332
f 453/333 454/334 455/335 456/336
f 457/337 458/338 459/339 460/340
f 461/341 462/342 463/343 464/344
f 465/345 466/346 467/347 468/348
f 469/349 470/350 471/351 472/352
f 473/353 474/354 475/355 476/356
f 477/357 478/358 479/359 480/360
f 481/361 482/362 483/363 484/364
f 485/365 486/366 487/367 488/368
f 489/369 490/370 491/371 492/372
f 493/373 494/374 495/375 496/376
f 497/377 498/378 499/379 500/380
f 501/381 502/382 503/383 504/384
f 505/385 506/386 507/387 508/388
f 509/389 510/390 511/391 512/392
f 513/393 514/394 515/395 516/396
f 517/397 518/398 519/399 520/400
f 521/401 522/402 523/403 524/404
f 525/405 526/406 527/407 528/408
usemtl ceiling_tile
f 537/409 538/410 539/411 540/412
f 541/413 542/414 543/415 544/416
f 545/417 546/418 547/419 548/420
f 549/421 550/422 551/423 552/424
f 553/425 554/426 555/427 556/428
f 557/429 558/430 559/431 560/432
f 569/433 570/434 571/435 572/436
f 573/437 574/438 575/439 576/440
f 577/441 578/442 579/443 580/444
f 581/445 582/446 583/447 584/448
f 585/449 586/450 587/451 588/452
f 589/453 590/454 591/455 592/456
f 601/457 602/458 603/459 604/460
f 605/461 606/462 607/463 608/464
f 609/465 610/466 611/467 612/468
f 613/469 614/470 615/471 616/472
f 617/473 618/474 619/475 620/476
f 621/477 622/478 623/479 624/480
f 633/481 634/482 635/483 636/484
f 637/485 638/486 639/487 640/488
f 641/489 642/490 643/491 644/492
f 645/493 646/494 647/495 648/496
f 649/497 650/498 651/499 652/500
f 653/501 654/502 655/503 656/504
f 665/505 666/506 667/507 668/508
f 669/509 670/510 671/511 672/512
f 673/513 674/514 675/515 676/516
f 677/517 678/518 679/519 680/520
f 681/521 682/522 683/523 684/524
f 685/525 686/526 687/527 688/528
f 697/529 698/530 699/531 700/532
f 701/533 702/534 703/535 704/536
f 705/537 706/538 707/539 708/540
f 709/541 710/542 711/543 712/544
f 713/545 714/546 715/547 716/548
f 717/549 718/550 719/551 720/552
f 729/553 730/554 731/555 732/556
f 733/557 734/558 735/559 736/560
f 737/561 738/562 739/563 740/564
f 741/565 742/566 743/567 744/568
f 745/569 746/570 747/571 748/572
f 749/573 750/574 751/575 752/576
f 761/577 762/578 763/579 764/580
f 765/581 766/582 767/583 768/584
f 769/585 770/586 771/587 772/588
f 773/589 774/590 775/591 776/592
f 777/593 778/594 779/595 780/596
f 781/597 782/598 783/599 784/600
f 793/601 794/602 795/603 796/604
f 797/605 798/606 799/607 800/608
f 801/609 802/610 803/611 804/612
f 805/613 806/614 807/615 808/616
f 809/617 810/618 811/619 812/620
f 813/621 814/622 815/623 816/624
f 825/625 826/626 827/627 828/628
f 829/629 830/630 831/631 832/632
f 833/633 834/634 835/635 836/636
f 837/637 838/638 839/639 840/640
f 841/641 842/642 843/643 844/644
f 845/645 846/646 847/647 848/648
f 857/649 858/650 859/651 860/652
f 861/653 862/654 863/655 864/656
f 865/657 866/658 867/659 868/660
f 869/661 870/662 871/663 872/664
f 873/665 874/666 875/667 876/668
f 877/669 878/670 879/671 880/672
f 889/673 890/674 891/675 892/676
f 893/677 894/678 895/679 896/680
f 897/681 898/682 899/683 900/684
f 901/685 902/686 903/687 904/688
f 905/689 906/690 907/691 908/692
f 909/693 910/694 911/695 912/696
f 921/697 922/698 923/699 924/700
f 925/701 926/702 927/703 928/704
f 929/705 930/706 931/707 932/708
f 933/709 934/710 935/711 936/712
f 937/713 938/714 939/715 940/716
f 941/717 942/718 943/719 944/720
f 953/721 954/722 955/723 956/724
f 957/725 958/726 959/727 960/728
f 961/729 962/730 963/731 964/732
f 965/733 966/734 967/735 968/736
f 969/737 970/738 971/739 972/740
f 973/741 974/742 975/743 976/744
f 985/745 986/746 987/747 988/748
f 989/749 990/750 991/751 992/752
f 993/753 994/754 995/755 996/756
f 997/757 998/758 999/759 1000/760
f 1001/761 1002/762 1003/763 1004/764
f 1005/765 1006/766 1007/767 1008/768
f 1017/769 1018/770 1019/771 1020/772
f 1021/773 1022/774 1023/775 1024/776
f 1025/777 1026/778 1027/779 1028/780
f 1029/781 1030/782 1031/783 1032/784
f 1033/785 1034/786 1035/787 1036/788
f 1037/789 1038/790 1039/791 1040/792
f 1049/793 1050/794 1051/795 1052/796
f 1053/797 1054/798 1055/799 1056/800
f 1057/801 1058/802 1059/803 1060/804
f 1061/805 1062/806 1063/807 1064/808
f 1065/809 1066/810 1067/811 1068/812
f 1069/813 1070/814 1071/815 1072/816
f 1081/817 1082/818 1083/819 1084/820
f 1085/821 1086/822 1087/823 1088/824
f 1089/825 1090/826 1091/827 1092/828
f 1093/829 1094/830 1095/831 1096/832
f 1097/833 1098/834 1099/835 1100/836
f 1101/837 1102/838 1103/839 1104/840
f 1113/841 1114/842 1115/843 1116/844
f 1117/845 1118/846 1119/847 1120/848
f 1121/849 1122/850 1123/851 1124/852
f 1125/853 1126/854 1127/855 1128/856
f 1129/857 1130/858 1131/859 1132/860
f 1133/861 1134/862 1135/863 1136/864
f 1145/865 1146/866 1147/867 1148/868
f 1149/869 1150/870 1151/871 1152/872
f 1153/873 1154/874 1155/875 1156/876
f 1157/877 1158/878 1159/879 1160/880
f 1161/881 1162/882 1163/883 1164/884
f 1165/885 1166/886 1167/887 1168/888
f 1177/889 1178/890 1179/891 1180/892
f 1181/893 1182/894 1183/895 1184/896
f 1185/897 1186/898 1187/899 1188/900
f 1189/901 1190/902 1191/903 1192/904
f 1193/905 1194/906 1195/907 1196/908
f 1197/909 1198/910 1199/911 1200/912
f 1209/913 1210/914 1211/915 1212/916
f 1213/917 1214/918 1215/919 1216/920
f 1217/921 1218/922 1219/923 1220/924
f 1221/925 1222/926 1223/927 1224/928
f 1225/929 1226/930 1227/931 1228/932
f 1229/933 1230/934 1231/935 1232/936
