# RoastEngine Backrooms level
mtllib backrooms.mtl
v -404.6750 0.0000 -4.6750
v -404.6750 0.0000 -1.3250
v -401.3250 0.0000 -1.3250
v -401.3250 0.0000 -4.6750
v -404.6750 3.2000 -4.6750
v -401.3250 3.2000 -4.6750
v -401.3250 3.2000 -1.3250
v -404.6750 3.2000 -1.3250
v -404.6750 0.0000 -4.6750
v -401.3250 0.0000 -4.6750
v -401.3250 3.2000 -4.6750
v -404.6750 3.2000 -4.6750
v -401.3250 0.0000 -1.3250
v -404.6750 0.0000 -1.3250
v -404.6750 3.2000 -1.3250
v -401.3250 3.2000 -1.3250
v -401.3250 0.0000 -4.6750
v -401.3250 0.0000 -1.3250
v -401.3250 3.2000 -1.3250
v -401.3250 3.2000 -4.6750
v -404.6750 0.0000 -1.3250
v -404.6750 0.0000 -4.6750
v -404.6750 3.2000 -4.6750
v -404.6750 3.2000 -1.3250
v -386.6750 0.0000 -4.6750
v -386.6750 0.0000 -1.3250
v -383.3250 0.0000 -1.3250
v -383.3250 0.0000 -4.6750
v -386.6750 3.2000 -4.6750
v -383.3250 3.2000 -4.6750
v -383.3250 3.2000 -1.3250
v -386.6750 3.2000 -1.3250
v -386.6750 0.0000 -4.6750
v -383.3250 0.0000 -4.6750
v -383.3250 3.2000 -4.6750
v -386.6750 3.2000 -4.6750
v -383.3250 0.0000 -1.3250
v -386.6750 0.0000 -1.3250
v -386.6750 3.2000 -1.3250
v -383.3250 3.2000 -1.3250
v -383.3250 0.0000 -4.6750
v -383.3250 0.0000 -1.3250
v -383.3250 3.2000 -1.3250
v -383.3250 3.2000 -4.6750
v -386.6750 0.0000 -1.3250
v -386.6750 0.0000 -4.6750
v -386.6750 3.2000 -4.6750
v -386.6750 3.2000 -1.3250
v -374.6750 0.0000 -4.6750
v -374.6750 0.0000 -1.3250
v -371.3250 0.0000 -1.3250
v -371.3250 0.0000 -4.6750
v -374.6750 3.2000 -4.6750
v -371.3250 3.2000 -4.6750
v -371.3250 3.2000 -1.3250
v -374.6750 3.2000 -1.3250
v -374.6750 0.0000 -4.6750
v -371.3250 0.0000 -4.6750
v -371.3250 3.2000 -4.6750
v -374.6750 3.2000 -4.6750
v -371.3250 0.0000 -1.3250
v -374.6750 0.0000 -1.3250
v -374.6750 3.2000 -1.3250
v -371.3250 3.2000 -1.3250
v -371.3250 0.0000 -4.6750
v -371.3250 0.0000 -1.3250
v -371.3250 3.2000 -1.3250
v -371.3250 3.2000 -4.6750
v -374.6750 0.0000 -1.3250
v -374.6750 0.0000 -4.6750
v -374.6750 3.2000 -4.6750
v -374.6750 3.2000 -1.3250
v -371.6750 0.0000 -4.6750
v -371.6750 0.0000 -1.3250
v -368.3250 0.0000 -1.3250
v -368.3250 0.0000 -4.6750
v -371.6750 3.2000 -4.6750
v -368.3250 3.2000 -4.6750
v -368.3250 3.2000 -1.3250
v -371.6750 3.2000 -1.3250
v -371.6750 0.0000 -4.6750
v -368.3250 0.0000 -4.6750
v -368.3250 3.2000 -4.6750
v -371.6750 3.2000 -4.6750
v -368.3250 0.0000 -1.3250
v -371.6750 0.0000 -1.3250
v -371.6750 3.2000 -1.3250
v -368.3250 3.2000 -1.3250
v -368.3250 0.0000 -4.6750
v -368.3250 0.0000 -1.3250
v -368.3250 3.2000 -1.3250
v -368.3250 3.2000 -4.6750
v -371.6750 0.0000 -1.3250
v -371.6750 0.0000 -4.6750
v -371.6750 3.2000 -4.6750
v -371.6750 3.2000 -1.3250
v -386.6750 0.0000 -1.6750
v -386.6750 0.0000 1.6750
v -383.3250 0.0000 1.6750
v -383.3250 0.0000 -1.6750
v -386.6750 3.2000 -1.6750
v -383.3250 3.2000 -1.6750
v -383.3250 3.2000 1.6750
v -386.6750 3.2000 1.6750
v -386.6750 0.0000 -1.6750
v -383.3250 0.0000 -1.6750
v -383.3250 3.2000 -1.6750
v -386.6750 3.2000 -1.6750
v -383.3250 0.0000 1.6750
v -386.6750 0.0000 1.6750
v -386.6750 3.2000 1.6750
v -383.3250 3.2000 1.6750
v -383.3250 0.0000 -1.6750
v -383.3250 0.0000 1.6750
v -383.3250 3.2000 1.6750
v -383.3250 3.2000 -1.6750
v -386.6750 0.0000 1.6750
v -386.6750 0.0000 -1.6750
v -386.6750 3.2000 -1.6750
v -386.6750 3.2000 1.6750
v -398.6750 0.0000 1.3250
v -398.6750 0.0000 4.6750
v -395.3250 0.0000 4.6750
v -395.3250 0.0000 1.3250
v -398.6750 3.2000 1.3250
v -395.3250 3.2000 1.3250
v -395.3250 3.2000 4.6750
v -398.6750 3.2000 4.6750
v -398.6750 0.0000 1.3250
v -395.3250 0.0000 1.3250
v -395.3250 3.2000 1.3250
v -398.6750 3.2000 1.3250
v -395.3250 0.0000 4.6750
v -398.6750 0.0000 4.6750
v -398.6750 3.2000 4.6750
v -395.3250 3.2000 4.6750
v -395.3250 0.0000 1.3250
v -395.3250 0.0000 4.6750
v -395.3250 3.2000 4.6750
v -395.3250 3.2000 1.3250
v -398.6750 0.0000 4.6750
v -398.6750 0.0000 1.3250
v -398.6750 3.2000 1.3250
v -398.6750 3.2000 4.6750
v -392.6750 0.0000 1.3250
v -392.6750 0.0000 4.6750
v -389.3250 0.0000 4.6750
v -389.3250 0.0000 1.3250
v -392.6750 3.2000 1.3250
v -389.3250 3.2000 1.3250
v -389.3250 3.2000 4.6750
v -392.6750 3.2000 4.6750
v -392.6750 0.0000 1.3250
v -389.3250 0.0000 1.3250
v -389.3250 3.2000 1.3250
v -392.6750 3.2000 1.3250
v -389.3250 0.0000 4.6750
v -392.6750 0.0000 4.6750
v -392.6750 3.2000 4.6750
v -389.3250 3.2000 4.6750
v -389.3250 0.0000 1.3250
v -389.3250 0.0000 4.6750
v -389.3250 3.2000 4.6750
v -389.3250 3.2000 1.3250
v -392.6750 0.0000 4.6750
v -392.6750 0.0000 1.3250
v -392.6750 3.2000 1.3250
v -392.6750 3.2000 4.6750
v -386.6750 0.0000 1.3250
v -386.6750 0.0000 4.6750
v -383.3250 0.0000 4.6750
v -383.3250 0.0000 1.3250
v -386.6750 3.2000 1.3250
v -383.3250 3.2000 1.3250
v -383.3250 3.2000 4.6750
v -386.6750 3.2000 4.6750
v -386.6750 0.0000 1.3250
v -383.3250 0.0000 1.3250
v -383.3250 3.2000 1.3250
v -386.6750 3.2000 1.3250
v -383.3250 0.0000 4.6750
v -386.6750 0.0000 4.6750
v -386.6750 3.2000 4.6750
v -383.3250 3.2000 4.6750
v -383.3250 0.0000 1.3250
v -383.3250 0.0000 4.6750
v -383.3250 3.2000 4.6750
v -383.3250 3.2000 1.3250
v -386.6750 0.0000 4.6750
v -386.6750 0.0000 1.3250
v -386.6750 3.2000 1.3250
v -386.6750 3.2000 4.6750
v -380.6750 0.0000 1.3250
v -380.6750 0.0000 4.6750
v -377.3250 0.0000 4.6750
v -377.3250 0.0000 1.3250
v -380.6750 3.2000 1.3250
v -377.3250 3.2000 1.3250
v -377.3250 3.2000 4.6750
v -380.6750 3.2000 4.6750
v -380.6750 0.0000 1.3250
v -377.3250 0.0000 1.3250
v -377.3250 3.2000 1.3250
v -380.6750 3.2000 1.3250
v -377.3250 0.0000 4.6750
v -380.6750 0.0000 4.6750
v -380.6750 3.2000 4.6750
v -377.3250 3.2000 4.6750
v -377.3250 0.0000 1.3250
v -377.3250 0.0000 4.6750
v -377.3250 3.2000 4.6750
v -377.3250 3.2000 1.3250
v -380.6750 0.0000 4.6750
v -380.6750 0.0000 1.3250
v -380.6750 3.2000 1.3250
v -380.6750 3.2000 4.6750
v -377.6750 0.0000 1.3250
v -377.6750 0.0000 4.6750
v -374.3250 0.0000 4.6750
v -374.3250 0.0000 1.3250
v -377.6750 3.2000 1.3250
v -374.3250 3.2000 1.3250
v -374.3250 3.2000 4.6750
v -377.6750 3.2000 4.6750
v -377.6750 0.0000 1.3250
v -374.3250 0.0000 1.3250
v -374.3250 3.2000 1.3250
v -377.6750 3.2000 1.3250
v -374.3250 0.0000 4.6750
v -377.6750 0.0000 4.6750
v -377.6750 3.2000 4.6750
v -374.3250 3.2000 4.6750
v -374.3250 0.0000 1.3250
v -374.3250 0.0000 4.6750
v -374.3250 3.2000 4.6750
v -374.3250 3.2000 1.3250
v -377.6750 0.0000 4.6750
v -377.6750 0.0000 1.3250
v -377.6750 3.2000 1.3250
v -377.6750 3.2000 4.6750
v -374.6750 0.0000 1.3250
v -374.6750 0.0000 4.6750
v -371.3250 0.0000 4.6750
v -371.3250 0.0000 1.3250
v -374.6750 3.2000 1.3250
v -371.3250 3.2000 1.3250
v -371.3250 3.2000 4.6750
v -374.6750 3.2000 4.6750
v -374.6750 0.0000 1.3250
v -371.3250 0.0000 1.3250
v -371.3250 3.2000 1.3250
v -374.6750 3.2000 1.3250
v -371.3250 0.0000 4.6750
v -374.6750 0.0000 4.6750
v -374.6750 3.2000 4.6750
v -371.3250 3.2000 4.6750
v -371.3250 0.0000 1.3250
v -371.3250 0.0000 4.6750
v -371.3250 3.2000 4.6750
v -371.3250 3.2000 1.3250
v -374.6750 0.0000 4.6750
v -374.6750 0.0000 1.3250
v -374.6750 3.2000 1.3250
v -374.6750 3.2000 4.6750
v -371.6750 0.0000 1.3250
v -371.6750 0.0000 4.6750
v -368.3250 0.0000 4.6750
v -368.3250 0.0000 1.3250
v -371.6750 3.2000 1.3250
v -368.3250 3.2000 1.3250
v -368.3250 3.2000 4.6750
v -371.6750 3.2000 4.6750
v -371.6750 0.0000 1.3250
v -368.3250 0.0000 1.3250
v -368.3250 3.2000 1.3250
v -371.6750 3.2000 1.3250
v -368.3250 0.0000 4.6750
v -371.6750 0.0000 4.6750
v -371.6750 3.2000 4.6750
v -368.3250 3.2000 4.6750
v -368.3250 0.0000 1.3250
v -368.3250 0.0000 4.6750
v -368.3250 3.2000 4.6750
v -368.3250 3.2000 1.3250
v -371.6750 0.0000 4.6750
v -371.6750 0.0000 1.3250
v -371.6750 3.2000 1.3250
v -371.6750 3.2000 4.6750
v -398.6750 0.0000 4.3250
v -398.6750 0.0000 7.6750
v -395.3250 0.0000 7.6750
v -395.3250 0.0000 4.3250
v -398.6750 3.2000 4.3250
v -395.3250 3.2000 4.3250
v -395.3250 3.2000 7.6750
v -398.6750 3.2000 7.6750
v -398.6750 0.0000 4.3250
v -395.3250 0.0000 4.3250
v -395.3250 3.2000 4.3250
v -398.6750 3.2000 4.3250
v -395.3250 0.0000 7.6750
v -398.6750 0.0000 7.6750
v -398.6750 3.2000 7.6750
v -395.3250 3.2000 7.6750
v -395.3250 0.0000 4.3250
v -395.3250 0.0000 7.6750
v -395.3250 3.2000 7.6750
v -395.3250 3.2000 4.3250
v -398.6750 0.0000 7.6750
v -398.6750 0.0000 4.3250
v -398.6750 3.2000 4.3250
v -398.6750 3.2000 7.6750
v -380.6750 0.0000 4.3250
v -380.6750 0.0000 7.6750
v -377.3250 0.0000 7.6750
v -377.3250 0.0000 4.3250
v -380.6750 3.2000 4.3250
v -377.3250 3.2000 4.3250
v -377.3250 3.2000 7.6750
v -380.6750 3.2000 7.6750
v -380.6750 0.0000 4.3250
v -377.3250 0.0000 4.3250
v -377.3250 3.2000 4.3250
v -380.6750 3.2000 4.3250
v -377.3250 0.0000 7.6750
v -380.6750 0.0000 7.6750
v -380.6750 3.2000 7.6750
v -377.3250 3.2000 7.6750
v -377.3250 0.0000 4.3250
v -377.3250 0.0000 7.6750
v -377.3250 3.2000 7.6750
v -377.3250 3.2000 4.3250
v -380.6750 0.0000 7.6750
v -380.6750 0.0000 4.3250
v -380.6750 3.2000 4.3250
v -380.6750 3.2000 7.6750
v -398.6750 0.0000 7.3250
v -398.6750 0.0000 10.6750
v -395.3250 0.0000 10.6750
v -395.3250 0.0000 7.3250
v -398.6750 3.2000 7.3250
v -395.3250 3.2000 7.3250
v -395.3250 3.2000 10.6750
v -398.6750 3.2000 10.6750
v -398.6750 0.0000 7.3250
v -395.3250 0.0000 7.3250
v -395.3250 3.2000 7.3250
v -398.6750 3.2000 7.3250
v -395.3250 0.0000 10.6750
v -398.6750 0.0000 10.6750
v -398.6750 3.2000 10.6750
v -395.3250 3.2000 10.6750
v -395.3250 0.0000 7.3250
v -395.3250 0.0000 10.6750
v -395.3250 3.2000 10.6750
v -395.3250 3.2000 7.3250
v -398.6750 0.0000 10.6750
v -398.6750 0.0000 7.3250
v -398.6750 3.2000 7.3250
v -398.6750 3.2000 10.6750
v -386.6750 0.0000 7.3250
v -386.6750 0.0000 10.6750
v -383.3250 0.0000 10.6750
v -383.3250 0.0000 7.3250
v -386.6750 3.2000 7.3250
v -383.3250 3.2000 7.3250
v -383.3250 3.2000 10.6750
v -386.6750 3.2000 10.6750
v -386.6750 0.0000 7.3250
v -383.3250 0.0000 7.3250
v -383.3250 3.2000 7.3250
v -386.6750 3.2000 7.3250
v -383.3250 0.0000 10.6750
v -386.6750 0.0000 10.6750
v -386.6750 3.2000 10.6750
v -383.3250 3.2000 10.6750
v -383.3250 0.0000 7.3250
v -383.3250 0.0000 10.6750
v -383.3250 3.2000 10.6750
v -383.3250 3.2000 7.3250
v -386.6750 0.0000 10.6750
v -386.6750 0.0000 7.3250
v -386.6750 3.2000 7.3250
v -386.6750 3.2000 10.6750
v -380.6750 0.0000 7.3250
v -380.6750 0.0000 10.6750
v -377.3250 0.0000 10.6750
v -377.3250 0.0000 7.3250
v -380.6750 3.2000 7.3250
v -377.3250 3.2000 7.3250
v -377.3250 3.2000 10.6750
v -380.6750 3.2000 10.6750
v -380.6750 0.0000 7.3250
v -377.3250 0.0000 7.3250
v -377.3250 3.2000 7.3250
v -380.6750 3.2000 7.3250
v -377.3250 0.0000 10.6750
v -380.6750 0.0000 10.6750
v -380.6750 3.2000 10.6750
v -377.3250 3.2000 10.6750
v -377.3250 0.0000 7.3250
v -377.3250 0.0000 10.6750
v -377.3250 3.2000 10.6750
v -377.3250 3.2000 7.3250
v -380.6750 0.0000 10.6750
v -380.6750 0.0000 7.3250
v -380.6750 3.2000 7.3250
v -380.6750 3.2000 10.6750
v -386.6750 0.0000 10.3250
v -386.6750 0.0000 13.6750
v -383.3250 0.0000 13.6750
v -383.3250 0.0000 10.3250
v -386.6750 3.2000 10.3250
v -383.3250 3.2000 10.3250
v -383.3250 3.2000 13.6750
v -386.6750 3.2000 13.6750
v -386.6750 0.0000 10.3250
v -383.3250 0.0000 10.3250
v -383.3250 3.2000 10.3250
v -386.6750 3.2000 10.3250
v -383.3250 0.0000 13.6750
v -386.6750 0.0000 13.6750
v -386.6750 3.2000 13.6750
v -383.3250 3.2000 13.6750
v -383.3250 0.0000 10.3250
v -383.3250 0.0000 13.6750
v -383.3250 3.2000 13.6750
v -383.3250 3.2000 10.3250
v -386.6750 0.0000 13.6750
v -386.6750 0.0000 10.3250
v -386.6750 3.2000 10.3250
v -386.6750 3.2000 13.6750
v -404.6750 0.0000 13.3250
v -404.6750 0.0000 16.6750
v -401.3250 0.0000 16.6750
v -401.3250 0.0000 13.3250
v -404.6750 3.2000 13.3250
v -401.3250 3.2000 13.3250
v -401.3250 3.2000 16.6750
v -404.6750 3.2000 16.6750
v -404.6750 0.0000 13.3250
v -401.3250 0.0000 13.3250
v -401.3250 3.2000 13.3250
v -404.6750 3.2000 13.3250
v -401.3250 0.0000 16.6750
v -404.6750 0.0000 16.6750
v -404.6750 3.2000 16.6750
v -401.3250 3.2000 16.6750
v -401.3250 0.0000 13.3250
v -401.3250 0.0000 16.6750
v -401.3250 3.2000 16.6750
v -401.3250 3.2000 13.3250
v -404.6750 0.0000 16.6750
v -404.6750 0.0000 13.3250
v -404.6750 3.2000 13.3250
v -404.6750 3.2000 16.6750
v -386.6750 0.0000 13.3250
v -386.6750 0.0000 16.6750
v -383.3250 0.0000 16.6750
v -383.3250 0.0000 13.3250
v -386.6750 3.2000 13.3250
v -383.3250 3.2000 13.3250
v -383.3250 3.2000 16.6750
v -386.6750 3.2000 16.6750
v -386.6750 0.0000 13.3250
v -383.3250 0.0000 13.3250
v -383.3250 3.2000 13.3250
v -386.6750 3.2000 13.3250
v -383.3250 0.0000 16.6750
v -386.6750 0.0000 16.6750
v -386.6750 3.2000 16.6750
v -383.3250 3.2000 16.6750
v -383.3250 0.0000 13.3250
v -383.3250 0.0000 16.6750
v -383.3250 3.2000 16.6750
v -383.3250 3.2000 13.3250
v -386.6750 0.0000 16.6750
v -386.6750 0.0000 13.3250
v -386.6750 3.2000 13.3250
v -386.6750 3.2000 16.6750
v -380.6750 0.0000 13.3250
v -380.6750 0.0000 16.6750
v -377.3250 0.0000 16.6750
v -377.3250 0.0000 13.3250
v -380.6750 3.2000 13.3250
v -377.3250 3.2000 13.3250
v -377.3250 3.2000 16.6750
v -380.6750 3.2000 16.6750
v -380.6750 0.0000 13.3250
v -377.3250 0.0000 13.3250
v -377.3250 3.2000 13.3250
v -380.6750 3.2000 13.3250
v -377.3250 0.0000 16.6750
v -380.6750 0.0000 16.6750
v -380.6750 3.2000 16.6750
v -377.3250 3.2000 16.6750
v -377.3250 0.0000 13.3250
v -377.3250 0.0000 16.6750
v -377.3250 3.2000 16.6750
v -377.3250 3.2000 13.3250
v -380.6750 0.0000 16.6750
v -380.6750 0.0000 13.3250
v -380.6750 3.2000 13.3250
v -380.6750 3.2000 16.6750
v -377.6750 0.0000 13.3250
v -377.6750 0.0000 16.6750
v -374.3250 0.0000 16.6750
v -374.3250 0.0000 13.3250
v -377.6750 3.2000 13.3250
v -374.3250 3.2000 13.3250
v -374.3250 3.2000 16.6750
v -377.6750 3.2000 16.6750
v -377.6750 0.0000 13.3250
v -374.3250 0.0000 13.3250
v -374.3250 3.2000 13.3250
v -377.6750 3.2000 13.3250
v -374.3250 0.0000 16.6750
v -377.6750 0.0000 16.6750
v -377.6750 3.2000 16.6750
v -374.3250 3.2000 16.6750
v -374.3250 0.0000 13.3250
v -374.3250 0.0000 16.6750
v -374.3250 3.2000 16.6750
v -374.3250 3.2000 13.3250
v -377.6750 0.0000 16.6750
v -377.6750 0.0000 13.3250
v -377.6750 3.2000 13.3250
v -377.6750 3.2000 16.6750
v -374.6750 0.0000 13.3250
v -374.6750 0.0000 16.6750
v -371.3250 0.0000 16.6750
v -371.3250 0.0000 13.3250
v -374.6750 3.2000 13.3250
v -371.3250 3.2000 13.3250
v -371.3250 3.2000 16.6750
v -374.6750 3.2000 16.6750
v -374.6750 0.0000 13.3250
v -371.3250 0.0000 13.3250
v -371.3250 3.2000 13.3250
v -374.6750 3.2000 13.3250
v -371.3250 0.0000 16.6750
v -374.6750 0.0000 16.6750
v -374.6750 3.2000 16.6750
v -371.3250 3.2000 16.6750
v -371.3250 0.0000 13.3250
v -371.3250 0.0000 16.6750
v -371.3250 3.2000 16.6750
v -371.3250 3.2000 13.3250
v -374.6750 0.0000 16.6750
v -374.6750 0.0000 13.3250
v -374.6750 3.2000 13.3250
v -374.6750 3.2000 16.6750
v -398.6750 0.0000 19.3250
v -398.6750 0.0000 22.6750
v -395.3250 0.0000 22.6750
v -395.3250 0.0000 19.3250
v -398.6750 3.2000 19.3250
v -395.3250 3.2000 19.3250
v -395.3250 3.2000 22.6750
v -398.6750 3.2000 22.6750
v -398.6750 0.0000 19.3250
v -395.3250 0.0000 19.3250
v -395.3250 3.2000 19.3250
v -398.6750 3.2000 19.3250
v -395.3250 0.0000 22.6750
v -398.6750 0.0000 22.6750
v -398.6750 3.2000 22.6750
v -395.3250 3.2000 22.6750
v -395.3250 0.0000 19.3250
v -395.3250 0.0000 22.6750
v -395.3250 3.2000 22.6750
v -395.3250 3.2000 19.3250
v -398.6750 0.0000 22.6750
v -398.6750 0.0000 19.3250
v -398.6750 3.2000 19.3250
v -398.6750 3.2000 22.6750
v -386.6750 0.0000 19.3250
v -386.6750 0.0000 22.6750
v -383.3250 0.0000 22.6750
v -383.3250 0.0000 19.3250
v -386.6750 3.2000 19.3250
v -383.3250 3.2000 19.3250
v -383.3250 3.2000 22.6750
v -386.6750 3.2000 22.6750
v -386.6750 0.0000 19.3250
v -383.3250 0.0000 19.3250
v -383.3250 3.2000 19.3250
v -386.6750 3.2000 19.3250
v -383.3250 0.0000 22.6750
v -386.6750 0.0000 22.6750
v -386.6750 3.2000 22.6750
v -383.3250 3.2000 22.6750
v -383.3250 0.0000 19.3250
v -383.3250 0.0000 22.6750
v -383.3250 3.2000 22.6750
v -383.3250 3.2000 19.3250
v -386.6750 0.0000 22.6750
v -386.6750 0.0000 19.3250
v -386.6750 3.2000 19.3250
v -386.6750 3.2000 22.6750
v -383.6750 0.0000 19.3250
v -383.6750 0.0000 22.6750
v -380.3250 0.0000 22.6750
v -380.3250 0.0000 19.3250
v -383.6750 3.2000 19.3250
v -380.3250 3.2000 19.3250
v -380.3250 3.2000 22.6750
v -383.6750 3.2000 22.6750
v -383.6750 0.0000 19.3250
v -380.3250 0.0000 19.3250
v -380.3250 3.2000 19.3250
v -383.6750 3.2000 19.3250
v -380.3250 0.0000 22.6750
v -383.6750 0.0000 22.6750
v -383.6750 3.2000 22.6750
v -380.3250 3.2000 22.6750
v -380.3250 0.0000 19.3250
v -380.3250 0.0000 22.6750
v -380.3250 3.2000 22.6750
v -380.3250 3.2000 19.3250
v -383.6750 0.0000 22.6750
v -383.6750 0.0000 19.3250
v -383.6750 3.2000 19.3250
v -383.6750 3.2000 22.6750
v -380.6750 0.0000 19.3250
v -380.6750 0.0000 22.6750
v -377.3250 0.0000 22.6750
v -377.3250 0.0000 19.3250
v -380.6750 3.2000 19.3250
v -377.3250 3.2000 19.3250
v -377.3250 3.2000 22.6750
v -380.6750 3.2000 22.6750
v -380.6750 0.0000 19.3250
v -377.3250 0.0000 19.3250
v -377.3250 3.2000 19.3250
v -380.6750 3.2000 19.3250
v -377.3250 0.0000 22.6750
v -380.6750 0.0000 22.6750
v -380.6750 3.2000 22.6750
v -377.3250 3.2000 22.6750
v -377.3250 0.0000 19.3250
v -377.3250 0.0000 22.6750
v -377.3250 3.2000 22.6750
v -377.3250 3.2000 19.3250
v -380.6750 0.0000 22.6750
v -380.6750 0.0000 19.3250
v -380.6750 3.2000 19.3250
v -380.6750 3.2000 22.6750
v -374.6750 0.0000 19.3250
v -374.6750 0.0000 22.6750
v -371.3250 0.0000 22.6750
v -371.3250 0.0000 19.3250
v -374.6750 3.2000 19.3250
v -371.3250 3.2000 19.3250
v -371.3250 3.2000 22.6750
v -374.6750 3.2000 22.6750
v -374.6750 0.0000 19.3250
v -371.3250 0.0000 19.3250
v -371.3250 3.2000 19.3250
v -374.6750 3.2000 19.3250
v -371.3250 0.0000 22.6750
v -374.6750 0.0000 22.6750
v -374.6750 3.2000 22.6750
v -371.3250 3.2000 22.6750
v -371.3250 0.0000 19.3250
v -371.3250 0.0000 22.6750
v -371.3250 3.2000 22.6750
v -371.3250 3.2000 19.3250
v -374.6750 0.0000 22.6750
v -374.6750 0.0000 19.3250
v -374.6750 3.2000 19.3250
v -374.6750 3.2000 22.6750
v -371.6750 0.0000 19.3250
v -371.6750 0.0000 22.6750
v -368.3250 0.0000 22.6750
v -368.3250 0.0000 19.3250
v -371.6750 3.2000 19.3250
v -368.3250 3.2000 19.3250
v -368.3250 3.2000 22.6750
v -371.6750 3.2000 22.6750
v -371.6750 0.0000 19.3250
v -368.3250 0.0000 19.3250
v -368.3250 3.2000 19.3250
v -371.6750 3.2000 19.3250
v -368.3250 0.0000 22.6750
v -371.6750 0.0000 22.6750
v -371.6750 3.2000 22.6750
v -368.3250 3.2000 22.6750
v -368.3250 0.0000 19.3250
v -368.3250 0.0000 22.6750
v -368.3250 3.2000 22.6750
v -368.3250 3.2000 19.3250
v -371.6750 0.0000 22.6750
v -371.6750 0.0000 19.3250
v -371.6750 3.2000 19.3250
v -371.6750 3.2000 22.6750
v -380.6750 0.0000 22.3250
v -380.6750 0.0000 25.6750
v -377.3250 0.0000 25.6750
v -377.3250 0.0000 22.3250
v -380.6750 3.2000 22.3250
v -377.3250 3.2000 22.3250
v -377.3250 3.2000 25.6750
v -380.6750 3.2000 25.6750
v -380.6750 0.0000 22.3250
v -377.3250 0.0000 22.3250
v -377.3250 3.2000 22.3250
v -380.6750 3.2000 22.3250
v -377.3250 0.0000 25.6750
v -380.6750 0.0000 25.6750
v -380.6750 3.2000 25.6750
v -377.3250 3.2000 25.6750
v -377.3250 0.0000 22.3250
v -377.3250 0.0000 25.6750
v -377.3250 3.2000 25.6750
v -377.3250 3.2000 22.3250
v -380.6750 0.0000 25.6750
v -380.6750 0.0000 22.3250
v -380.6750 3.2000 22.3250
v -380.6750 3.2000 25.6750
v -374.6750 0.0000 22.3250
v -374.6750 0.0000 25.6750
v -371.3250 0.0000 25.6750
v -371.3250 0.0000 22.3250
v -374.6750 3.2000 22.3250
v -371.3250 3.2000 22.3250
v -371.3250 3.2000 25.6750
v -374.6750 3.2000 25.6750
v -374.6750 0.0000 22.3250
v -371.3250 0.0000 22.3250
v -371.3250 3.2000 22.3250
v -374.6750 3.2000 22.3250
v -371.3250 0.0000 25.6750
v -374.6750 0.0000 25.6750
v -374.6750 3.2000 25.6750
v -371.3250 3.2000 25.6750
v -371.3250 0.0000 22.3250
v -371.3250 0.0000 25.6750
v -371.3250 3.2000 25.6750
v -371.3250 3.2000 22.3250
v -374.6750 0.0000 25.6750
v -374.6750 0.0000 22.3250
v -374.6750 3.2000 22.3250
v -374.6750 3.2000 25.6750
v -404.6750 0.0000 25.3250
v -404.6750 0.0000 28.6750
v -401.3250 0.0000 28.6750
v -401.3250 0.0000 25.3250
v -404.6750 3.2000 25.3250
v -401.3250 3.2000 25.3250
v -401.3250 3.2000 28.6750
v -404.6750 3.2000 28.6750
v -404.6750 0.0000 25.3250
v -401.3250 0.0000 25.3250
v -401.3250 3.2000 25.3250
v -404.6750 3.2000 25.3250
v -401.3250 0.0000 28.6750
v -404.6750 0.0000 28.6750
v -404.6750 3.2000 28.6750
v -401.3250 3.2000 28.6750
v -401.3250 0.0000 25.3250
v -401.3250 0.0000 28.6750
v -401.3250 3.2000 28.6750
v -401.3250 3.2000 25.3250
v -404.6750 0.0000 28.6750
v -404.6750 0.0000 25.3250
v -404.6750 3.2000 25.3250
v -404.6750 3.2000 28.6750
v -398.6750 0.0000 25.3250
v -398.6750 0.0000 28.6750
v -395.3250 0.0000 28.6750
v -395.3250 0.0000 25.3250
v -398.6750 3.2000 25.3250
v -395.3250 3.2000 25.3250
v -395.3250 3.2000 28.6750
v -398.6750 3.2000 28.6750
v -398.6750 0.0000 25.3250
v -395.3250 0.0000 25.3250
v -395.3250 3.2000 25.3250
v -398.6750 3.2000 25.3250
v -395.3250 0.0000 28.6750
v -398.6750 0.0000 28.6750
v -398.6750 3.2000 28.6750
v -395.3250 3.2000 28.6750
v -395.3250 0.0000 25.3250
v -395.3250 0.0000 28.6750
v -395.3250 3.2000 28.6750
v -395.3250 3.2000 25.3250
v -398.6750 0.0000 28.6750
v -398.6750 0.0000 25.3250
v -398.6750 3.2000 25.3250
v -398.6750 3.2000 28.6750
v -392.6750 0.0000 25.3250
v -392.6750 0.0000 28.6750
v -389.3250 0.0000 28.6750
v -389.3250 0.0000 25.3250
v -392.6750 3.2000 25.3250
v -389.3250 3.2000 25.3250
v -389.3250 3.2000 28.6750
v -392.6750 3.2000 28.6750
v -392.6750 0.0000 25.3250
v -389.3250 0.0000 25.3250
v -389.3250 3.2000 25.3250
v -392.6750 3.2000 25.3250
v -389.3250 0.0000 28.6750
v -392.6750 0.0000 28.6750
v -392.6750 3.2000 28.6750
v -389.3250 3.2000 28.6750
v -389.3250 0.0000 25.3250
v -389.3250 0.0000 28.6750
v -389.3250 3.2000 28.6750
v -389.3250 3.2000 25.3250
v -392.6750 0.0000 28.6750
v -392.6750 0.0000 25.3250
v -392.6750 3.2000 25.3250
v -392.6750 3.2000 28.6750
v -380.6750 0.0000 25.3250
v -380.6750 0.0000 28.6750
v -377.3250 0.0000 28.6750
v -377.3250 0.0000 25.3250
v -380.6750 3.2000 25.3250
v -377.3250 3.2000 25.3250
v -377.3250 3.2000 28.6750
v -380.6750 3.2000 28.6750
v -380.6750 0.0000 25.3250
v -377.3250 0.0000 25.3250
v -377.3250 3.2000 25.3250
v -380.6750 3.2000 25.3250
v -377.3250 0.0000 28.6750
v -380.6750 0.0000 28.6750
v -380.6750 3.2000 28.6750
v -377.3250 3.2000 28.6750
v -377.3250 0.0000 25.3250
v -377.3250 0.0000 28.6750
v -377.3250 3.2000 28.6750
v -377.3250 3.2000 25.3250
v -380.6750 0.0000 28.6750
v -380.6750 0.0000 25.3250
v -380.6750 3.2000 25.3250
v -380.6750 3.2000 28.6750
v -374.6750 0.0000 25.3250
v -374.6750 0.0000 28.6750
v -371.3250 0.0000 28.6750
v -371.3250 0.0000 25.3250
v -374.6750 3.2000 25.3250
v -371.3250 3.2000 25.3250
v -371.3250 3.2000 28.6750
v -374.6750 3.2000 28.6750
v -374.6750 0.0000 25.3250
v -371.3250 0.0000 25.3250
v -371.3250 3.2000 25.3250
v -374.6750 3.2000 25.3250
v -371.3250 0.0000 28.6750
v -374.6750 0.0000 28.6750
v -374.6750 3.2000 28.6750
v -371.3250 3.2000 28.6750
v -371.3250 0.0000 25.3250
v -371.3250 0.0000 28.6750
v -371.3250 3.2000 28.6750
v -371.3250 3.2000 25.3250
v -374.6750 0.0000 28.6750
v -374.6750 0.0000 25.3250
v -374.6750 3.2000 25.3250
v -374.6750 3.2000 28.6750
v -404.6750 0.0000 28.3250
v -404.6750 0.0000 31.6750
v -401.3250 0.0000 31.6750
v -401.3250 0.0000 28.3250
v -404.6750 3.2000 28.3250
v -401.3250 3.2000 28.3250
v -401.3250 3.2000 31.6750
v -404.6750 3.2000 31.6750
v -404.6750 0.0000 28.3250
v -401.3250 0.0000 28.3250
v -401.3250 3.2000 28.3250
v -404.6750 3.2000 28.3250
v -401.3250 0.0000 31.6750
v -404.6750 0.0000 31.6750
v -404.6750 3.2000 31.6750
v -401.3250 3.2000 31.6750
v -401.3250 0.0000 28.3250
v -401.3250 0.0000 31.6750
v -401.3250 3.2000 31.6750
v -401.3250 3.2000 28.3250
v -404.6750 0.0000 31.6750
v -404.6750 0.0000 28.3250
v -404.6750 3.2000 28.3250
v -404.6750 3.2000 31.6750
v -398.6750 0.0000 28.3250
v -398.6750 0.0000 31.6750
v -395.3250 0.0000 31.6750
v -395.3250 0.0000 28.3250
v -398.6750 3.2000 28.3250
v -395.3250 3.2000 28.3250
v -395.3250 3.2000 31.6750
v -398.6750 3.2000 31.6750
v -398.6750 0.0000 28.3250
v -395.3250 0.0000 28.3250
v -395.3250 3.2000 28.3250
v -398.6750 3.2000 28.3250
v -395.3250 0.0000 31.6750
v -398.6750 0.0000 31.6750
v -398.6750 3.2000 31.6750
v -395.3250 3.2000 31.6750
v -395.3250 0.0000 28.3250
v -395.3250 0.0000 31.6750
v -395.3250 3.2000 31.6750
v -395.3250 3.2000 28.3250
v -398.6750 0.0000 31.6750
v -398.6750 0.0000 28.3250
v -398.6750 3.2000 28.3250
v -398.6750 3.2000 31.6750
v -392.6750 0.0000 28.3250
v -392.6750 0.0000 31.6750
v -389.3250 0.0000 31.6750
v -389.3250 0.0000 28.3250
v -392.6750 3.2000 28.3250
v -389.3250 3.2000 28.3250
v -389.3250 3.2000 31.6750
v -392.6750 3.2000 31.6750
v -392.6750 0.0000 28.3250
v -389.3250 0.0000 28.3250
v -389.3250 3.2000 28.3250
v -392.6750 3.2000 28.3250
v -389.3250 0.0000 31.6750
v -392.6750 0.0000 31.6750
v -392.6750 3.2000 31.6750
v -389.3250 3.2000 31.6750
v -389.3250 0.0000 28.3250
v -389.3250 0.0000 31.6750
v -389.3250 3.2000 31.6750
v -389.3250 3.2000 28.3250
v -392.6750 0.0000 31.6750
v -392.6750 0.0000 28.3250
v -392.6750 3.2000 28.3250
v -392.6750 3.2000 31.6750
v -380.6750 0.0000 28.3250
v -380.6750 0.0000 31.6750
v -377.3250 0.0000 31.6750
v -377.3250 0.0000 28.3250
v -380.6750 3.2000 28.3250
v -377.3250 3.2000 28.3250
v -377.3250 3.2000 31.6750
v -380.6750 3.2000 31.6750
v -380.6750 0.0000 28.3250
v -377.3250 0.0000 28.3250
v -377.3250 3.2000 28.3250
v -380.6750 3.2000 28.3250
v -377.3250 0.0000 31.6750
v -380.6750 0.0000 31.6750
v -380.6750 3.2000 31.6750
v -377.3250 3.2000 31.6750
v -377.3250 0.0000 28.3250
v -377.3250 0.0000 31.6750
v -377.3250 3.2000 31.6750
v -377.3250 3.2000 28.3250
v -380.6750 0.0000 31.6750
v -380.6750 0.0000 28.3250
v -380.6750 3.2000 28.3250
v -380.6750 3.2000 31.6750
v -400.8000 3.0300 -0.1750
v -399.2000 3.0300 -0.1750
v -399.2000 3.0300 0.1750
v -400.8000 3.0300 0.1750
v -400.8000 3.1300 -0.1750
v -399.2000 3.1300 -0.1750
v -399.2000 3.1300 0.1750
v -400.8000 3.1300 0.1750
v -400.9500 3.1100 -0.3000
v -400.9500 3.1100 0.3000
v -399.0500 3.1100 0.3000
v -399.0500 3.1100 -0.3000
v -400.9500 3.1900 -0.3000
v -399.0500 3.1900 -0.3000
v -399.0500 3.1900 0.3000
v -400.9500 3.1900 0.3000
v -400.9500 3.1100 -0.3000
v -399.0500 3.1100 -0.3000
v -399.0500 3.1900 -0.3000
v -400.9500 3.1900 -0.3000
v -399.0500 3.1100 0.3000
v -400.9500 3.1100 0.3000
v -400.9500 3.1900 0.3000
v -399.0500 3.1900 0.3000
v -399.0500 3.1100 -0.3000
v -399.0500 3.1100 0.3000
v -399.0500 3.1900 0.3000
v -399.0500 3.1900 -0.3000
v -400.9500 3.1100 0.3000
v -400.9500 3.1100 -0.3000
v -400.9500 3.1900 -0.3000
v -400.9500 3.1900 0.3000
v -388.8000 3.0300 -0.1750
v -387.2000 3.0300 -0.1750
v -387.2000 3.0300 0.1750
v -388.8000 3.0300 0.1750
v -388.8000 3.1300 -0.1750
v -387.2000 3.1300 -0.1750
v -387.2000 3.1300 0.1750
v -388.8000 3.1300 0.1750
v -388.9500 3.1100 -0.3000
v -388.9500 3.1100 0.3000
v -387.0500 3.1100 0.3000
v -387.0500 3.1100 -0.3000
v -388.9500 3.1900 -0.3000
v -387.0500 3.1900 -0.3000
v -387.0500 3.1900 0.3000
v -388.9500 3.1900 0.3000
v -388.9500 3.1100 -0.3000
v -387.0500 3.1100 -0.3000
v -387.0500 3.1900 -0.3000
v -388.9500 3.1900 -0.3000
v -387.0500 3.1100 0.3000
v -388.9500 3.1100 0.3000
v -388.9500 3.1900 0.3000
v -387.0500 3.1900 0.3000
v -387.0500 3.1100 -0.3000
v -387.0500 3.1100 0.3000
v -387.0500 3.1900 0.3000
v -387.0500 3.1900 -0.3000
v -388.9500 3.1100 0.3000
v -388.9500 3.1100 -0.3000
v -388.9500 3.1900 -0.3000
v -388.9500 3.1900 0.3000
v -394.8000 3.0300 5.8250
v -393.2000 3.0300 5.8250
v -393.2000 3.0300 6.1750
v -394.8000 3.0300 6.1750
v -394.8000 3.1300 5.8250
v -393.2000 3.1300 5.8250
v -393.2000 3.1300 6.1750
v -394.8000 3.1300 6.1750
v -394.9500 3.1100 5.7000
v -394.9500 3.1100 6.3000
v -393.0500 3.1100 6.3000
v -393.0500 3.1100 5.7000
v -394.9500 3.1900 5.7000
v -393.0500 3.1900 5.7000
v -393.0500 3.1900 6.3000
v -394.9500 3.1900 6.3000
v -394.9500 3.1100 5.7000
v -393.0500 3.1100 5.7000
v -393.0500 3.1900 5.7000
v -394.9500 3.1900 5.7000
v -393.0500 3.1100 6.3000
v -394.9500 3.1100 6.3000
v -394.9500 3.1900 6.3000
v -393.0500 3.1900 6.3000
v -393.0500 3.1100 5.7000
v -393.0500 3.1100 6.3000
v -393.0500 3.1900 6.3000
v -393.0500 3.1900 5.7000
v -394.9500 3.1100 6.3000
v -394.9500 3.1100 5.7000
v -394.9500 3.1900 5.7000
v -394.9500 3.1900 6.3000
v -400.8000 3.0300 11.8250
v -399.2000 3.0300 11.8250
v -399.2000 3.0300 12.1750
v -400.8000 3.0300 12.1750
v -400.8000 3.1300 11.8250
v -399.2000 3.1300 11.8250
v -399.2000 3.1300 12.1750
v -400.8000 3.1300 12.1750
v -400.9500 3.1100 11.7000
v -400.9500 3.1100 12.3000
v -399.0500 3.1100 12.3000
v -399.0500 3.1100 11.7000
v -400.9500 3.1900 11.7000
v -399.0500 3.1900 11.7000
v -399.0500 3.1900 12.3000
v -400.9500 3.1900 12.3000
v -400.9500 3.1100 11.7000
v -399.0500 3.1100 11.7000
v -399.0500 3.1900 11.7000
v -400.9500 3.1900 11.7000
v -399.0500 3.1100 12.3000
v -400.9500 3.1100 12.3000
v -400.9500 3.1900 12.3000
v -399.0500 3.1900 12.3000
v -399.0500 3.1100 11.7000
v -399.0500 3.1100 12.3000
v -399.0500 3.1900 12.3000
v -399.0500 3.1900 11.7000
v -400.9500 3.1100 12.3000
v -400.9500 3.1100 11.7000
v -400.9500 3.1900 11.7000
v -400.9500 3.1900 12.3000
v -382.8000 3.0300 11.8250
v -381.2000 3.0300 11.8250
v -381.2000 3.0300 12.1750
v -382.8000 3.0300 12.1750
v -382.8000 3.1300 11.8250
v -381.2000 3.1300 11.8250
v -381.2000 3.1300 12.1750
v -382.8000 3.1300 12.1750
v -382.9500 3.1100 11.7000
v -382.9500 3.1100 12.3000
v -381.0500 3.1100 12.3000
v -381.0500 3.1100 11.7000
v -382.9500 3.1900 11.7000
v -381.0500 3.1900 11.7000
v -381.0500 3.1900 12.3000
v -382.9500 3.1900 12.3000
v -382.9500 3.1100 11.7000
v -381.0500 3.1100 11.7000
v -381.0500 3.1900 11.7000
v -382.9500 3.1900 11.7000
v -381.0500 3.1100 12.3000
v -382.9500 3.1100 12.3000
v -382.9500 3.1900 12.3000
v -381.0500 3.1900 12.3000
v -381.0500 3.1100 11.7000
v -381.0500 3.1100 12.3000
v -381.0500 3.1900 12.3000
v -381.0500 3.1900 11.7000
v -382.9500 3.1100 12.3000
v -382.9500 3.1100 11.7000
v -382.9500 3.1900 11.7000
v -382.9500 3.1900 12.3000
v -376.8000 3.0300 11.8250
v -375.2000 3.0300 11.8250
v -375.2000 3.0300 12.1750
v -376.8000 3.0300 12.1750
v -376.8000 3.1300 11.8250
v -375.2000 3.1300 11.8250
v -375.2000 3.1300 12.1750
v -376.8000 3.1300 12.1750
v -376.9500 3.1100 11.7000
v -376.9500 3.1100 12.3000
v -375.0500 3.1100 12.3000
v -375.0500 3.1100 11.7000
v -376.9500 3.1900 11.7000
v -375.0500 3.1900 11.7000
v -375.0500 3.1900 12.3000
v -376.9500 3.1900 12.3000
v -376.9500 3.1100 11.7000
v -375.0500 3.1100 11.7000
v -375.0500 3.1900 11.7000
v -376.9500 3.1900 11.7000
v -375.0500 3.1100 12.3000
v -376.9500 3.1100 12.3000
v -376.9500 3.1900 12.3000
v -375.0500 3.1900 12.3000
v -375.0500 3.1100 11.7000
v -375.0500 3.1100 12.3000
v -375.0500 3.1900 12.3000
v -375.0500 3.1900 11.7000
v -376.9500 3.1100 12.3000
v -376.9500 3.1100 11.7000
v -376.9500 3.1900 11.7000
v -376.9500 3.1900 12.3000
v -382.8000 3.0300 17.8250
v -381.2000 3.0300 17.8250
v -381.2000 3.0300 18.1750
v -382.8000 3.0300 18.1750
v -382.8000 3.1300 17.8250
v -381.2000 3.1300 17.8250
v -381.2000 3.1300 18.1750
v -382.8000 3.1300 18.1750
v -382.9500 3.1100 17.7000
v -382.9500 3.1100 18.3000
v -381.0500 3.1100 18.3000
v -381.0500 3.1100 17.7000
v -382.9500 3.1900 17.7000
v -381.0500 3.1900 17.7000
v -381.0500 3.1900 18.3000
v -382.9500 3.1900 18.3000
v -382.9500 3.1100 17.7000
v -381.0500 3.1100 17.7000
v -381.0500 3.1900 17.7000
v -382.9500 3.1900 17.7000
v -381.0500 3.1100 18.3000
v -382.9500 3.1100 18.3000
v -382.9500 3.1900 18.3000
v -381.0500 3.1900 18.3000
v -381.0500 3.1100 17.7000
v -381.0500 3.1100 18.3000
v -381.0500 3.1900 18.3000
v -381.0500 3.1900 17.7000
v -382.9500 3.1100 18.3000
v -382.9500 3.1100 17.7000
v -382.9500 3.1900 17.7000
v -382.9500 3.1900 18.3000
v -376.8000 3.0300 17.8250
v -375.2000 3.0300 17.8250
v -375.2000 3.0300 18.1750
v -376.8000 3.0300 18.1750
v -376.8000 3.1300 17.8250
v -375.2000 3.1300 17.8250
v -375.2000 3.1300 18.1750
v -376.8000 3.1300 18.1750
v -376.9500 3.1100 17.7000
v -376.9500 3.1100 18.3000
v -375.0500 3.1100 18.3000
v -375.0500 3.1100 17.7000
v -376.9500 3.1900 17.7000
v -375.0500 3.1900 17.7000
v -375.0500 3.1900 18.3000
v -376.9500 3.1900 18.3000
v -376.9500 3.1100 17.7000
v -375.0500 3.1100 17.7000
v -375.0500 3.1900 17.7000
v -376.9500 3.1900 17.7000
v -375.0500 3.1100 18.3000
v -376.9500 3.1100 18.3000
v -376.9500 3.1900 18.3000
v -375.0500 3.1900 18.3000
v -375.0500 3.1100 17.7000
v -375.0500 3.1100 18.3000
v -375.0500 3.1900 18.3000
v -375.0500 3.1900 17.7000
v -376.9500 3.1100 18.3000
v -376.9500 3.1100 17.7000
v -376.9500 3.1900 17.7000
v -376.9500 3.1900 18.3000
v -370.8000 3.0300 17.8250
v -369.2000 3.0300 17.8250
v -369.2000 3.0300 18.1750
v -370.8000 3.0300 18.1750
v -370.8000 3.1300 17.8250
v -369.2000 3.1300 17.8250
v -369.2000 3.1300 18.1750
v -370.8000 3.1300 18.1750
v -370.9500 3.1100 17.7000
v -370.9500 3.1100 18.3000
v -369.0500 3.1100 18.3000
v -369.0500 3.1100 17.7000
v -370.9500 3.1900 17.7000
v -369.0500 3.1900 17.7000
v -369.0500 3.1900 18.3000
v -370.9500 3.1900 18.3000
v -370.9500 3.1100 17.7000
v -369.0500 3.1100 17.7000
v -369.0500 3.1900 17.7000
v -370.9500 3.1900 17.7000
v -369.0500 3.1100 18.3000
v -370.9500 3.1100 18.3000
v -370.9500 3.1900 18.3000
v -369.0500 3.1900 18.3000
v -369.0500 3.1100 17.7000
v -369.0500 3.1100 18.3000
v -369.0500 3.1900 18.3000
v -369.0500 3.1900 17.7000
v -370.9500 3.1100 18.3000
v -370.9500 3.1100 17.7000
v -370.9500 3.1900 17.7000
v -370.9500 3.1900 18.3000
v -394.8000 3.0300 23.8250
v -393.2000 3.0300 23.8250
v -393.2000 3.0300 24.1750
v -394.8000 3.0300 24.1750
v -394.8000 3.1300 23.8250
v -393.2000 3.1300 23.8250
v -393.2000 3.1300 24.1750
v -394.8000 3.1300 24.1750
v -394.9500 3.1100 23.7000
v -394.9500 3.1100 24.3000
v -393.0500 3.1100 24.3000
v -393.0500 3.1100 23.7000
v -394.9500 3.1900 23.7000
v -393.0500 3.1900 23.7000
v -393.0500 3.1900 24.3000
v -394.9500 3.1900 24.3000
v -394.9500 3.1100 23.7000
v -393.0500 3.1100 23.7000
v -393.0500 3.1900 23.7000
v -394.9500 3.1900 23.7000
v -393.0500 3.1100 24.3000
v -394.9500 3.1100 24.3000
v -394.9500 3.1900 24.3000
v -393.0500 3.1900 24.3000
v -393.0500 3.1100 23.7000
v -393.0500 3.1100 24.3000
v -393.0500 3.1900 24.3000
v -393.0500 3.1900 23.7000
v -394.9500 3.1100 24.3000
v -394.9500 3.1100 23.7000
v -394.9500 3.1900 23.7000
v -394.9500 3.1900 24.3000
v -388.8000 3.0300 23.8250
v -387.2000 3.0300 23.8250
v -387.2000 3.0300 24.1750
v -388.8000 3.0300 24.1750
v -388.8000 3.1300 23.8250
v -387.2000 3.1300 23.8250
v -387.2000 3.1300 24.1750
v -388.8000 3.1300 24.1750
v -388.9500 3.1100 23.7000
v -388.9500 3.1100 24.3000
v -387.0500 3.1100 24.3000
v -387.0500 3.1100 23.7000
v -388.9500 3.1900 23.7000
v -387.0500 3.1900 23.7000
v -387.0500 3.1900 24.3000
v -388.9500 3.1900 24.3000
v -388.9500 3.1100 23.7000
v -387.0500 3.1100 23.7000
v -387.0500 3.1900 23.7000
v -388.9500 3.1900 23.7000
v -387.0500 3.1100 24.3000
v -388.9500 3.1100 24.3000
v -388.9500 3.1900 24.3000
v -387.0500 3.1900 24.3000
v -387.0500 3.1100 23.7000
v -387.0500 3.1100 24.3000
v -387.0500 3.1900 24.3000
v -387.0500 3.1900 23.7000
v -388.9500 3.1100 24.3000
v -388.9500 3.1100 23.7000
v -388.9500 3.1900 23.7000
v -388.9500 3.1900 24.3000
v -376.8000 3.0300 23.8250
v -375.2000 3.0300 23.8250
v -375.2000 3.0300 24.1750
v -376.8000 3.0300 24.1750
v -376.8000 3.1300 23.8250
v -375.2000 3.1300 23.8250
v -375.2000 3.1300 24.1750
v -376.8000 3.1300 24.1750
v -376.9500 3.1100 23.7000
v -376.9500 3.1100 24.3000
v -375.0500 3.1100 24.3000
v -375.0500 3.1100 23.7000
v -376.9500 3.1900 23.7000
v -375.0500 3.1900 23.7000
v -375.0500 3.1900 24.3000
v -376.9500 3.1900 24.3000
v -376.9500 3.1100 23.7000
v -375.0500 3.1100 23.7000
v -375.0500 3.1900 23.7000
v -376.9500 3.1900 23.7000
v -375.0500 3.1100 24.3000
v -376.9500 3.1100 24.3000
v -376.9500 3.1900 24.3000
v -375.0500 3.1900 24.3000
v -375.0500 3.1100 23.7000
v -375.0500 3.1100 24.3000
v -375.0500 3.1900 24.3000
v -375.0500 3.1900 23.7000
v -376.9500 3.1100 24.3000
v -376.9500 3.1100 23.7000
v -376.9500 3.1900 23.7000
v -376.9500 3.1900 24.3000
v -370.8000 3.0300 23.8250
v -369.2000 3.0300 23.8250
v -369.2000 3.0300 24.1750
v -370.8000 3.0300 24.1750
v -370.8000 3.1300 23.8250
v -369.2000 3.1300 23.8250
v -369.2000 3.1300 24.1750
v -370.8000 3.1300 24.1750
v -370.9500 3.1100 23.7000
v -370.9500 3.1100 24.3000
v -369.0500 3.1100 24.3000
v -369.0500 3.1100 23.7000
v -370.9500 3.1900 23.7000
v -369.0500 3.1900 23.7000
v -369.0500 3.1900 24.3000
v -370.9500 3.1900 24.3000
v -370.9500 3.1100 23.7000
v -369.0500 3.1100 23.7000
v -369.0500 3.1900 23.7000
v -370.9500 3.1900 23.7000
v -369.0500 3.1100 24.3000
v -370.9500 3.1100 24.3000
v -370.9500 3.1900 24.3000
v -369.0500 3.1900 24.3000
v -369.0500 3.1100 23.7000
v -369.0500 3.1100 24.3000
v -369.0500 3.1900 24.3000
v -369.0500 3.1900 23.7000
v -370.9500 3.1100 24.3000
v -370.9500 3.1100 23.7000
v -370.9500 3.1900 23.7000
v -370.9500 3.1900 24.3000
v -394.8000 3.0300 29.8250
v -393.2000 3.0300 29.8250
v -393.2000 3.0300 30.1750
v -394.8000 3.0300 30.1750
v -394.8000 3.1300 29.8250
v -393.2000 3.1300 29.8250
v -393.2000 3.1300 30.1750
v -394.8000 3.1300 30.1750
v -394.9500 3.1100 29.7000
v -394.9500 3.1100 30.3000
v -393.0500 3.1100 30.3000
v -393.0500 3.1100 29.7000
v -394.9500 3.1900 29.7000
v -393.0500 3.1900 29.7000
v -393.0500 3.1900 30.3000
v -394.9500 3.1900 30.3000
v -394.9500 3.1100 29.7000
v -393.0500 3.1100 29.7000
v -393.0500 3.1900 29.7000
v -394.9500 3.1900 29.7000
v -393.0500 3.1100 30.3000
v -394.9500 3.1100 30.3000
v -394.9500 3.1900 30.3000
v -393.0500 3.1900 30.3000
v -393.0500 3.1100 29.7000
v -393.0500 3.1100 30.3000
v -393.0500 3.1900 30.3000
v -393.0500 3.1900 29.7000
v -394.9500 3.1100 30.3000
v -394.9500 3.1100 29.7000
v -394.9500 3.1900 29.7000
v -394.9500 3.1900 30.3000
v -382.8000 3.0300 29.8250
v -381.2000 3.0300 29.8250
v -381.2000 3.0300 30.1750
v -382.8000 3.0300 30.1750
v -382.8000 3.1300 29.8250
v -381.2000 3.1300 29.8250
v -381.2000 3.1300 30.1750
v -382.8000 3.1300 30.1750
v -382.9500 3.1100 29.7000
v -382.9500 3.1100 30.3000
v -381.0500 3.1100 30.3000
v -381.0500 3.1100 29.7000
v -382.9500 3.1900 29.7000
v -381.0500 3.1900 29.7000
v -381.0500 3.1900 30.3000
v -382.9500 3.1900 30.3000
v -382.9500 3.1100 29.7000
v -381.0500 3.1100 29.7000
v -381.0500 3.1900 29.7000
v -382.9500 3.1900 29.7000
v -381.0500 3.1100 30.3000
v -382.9500 3.1100 30.3000
v -382.9500 3.1900 30.3000
v -381.0500 3.1900 30.3000
v -381.0500 3.1100 29.7000
v -381.0500 3.1100 30.3000
v -381.0500 3.1900 30.3000
v -381.0500 3.1900 29.7000
v -382.9500 3.1100 30.3000
v -382.9500 3.1100 29.7000
v -382.9500 3.1900 29.7000
v -382.9500 3.1900 30.3000
v -376.8000 3.0300 29.8250
v -375.2000 3.0300 29.8250
v -375.2000 3.0300 30.1750
v -376.8000 3.0300 30.1750
v -376.8000 3.1300 29.8250
v -375.2000 3.1300 29.8250
v -375.2000 3.1300 30.1750
v -376.8000 3.1300 30.1750
v -376.9500 3.1100 29.7000
v -376.9500 3.1100 30.3000
v -375.0500 3.1100 30.3000
v -375.0500 3.1100 29.7000
v -376.9500 3.1900 29.7000
v -375.0500 3.1900 29.7000
v -375.0500 3.1900 30.3000
v -376.9500 3.1900 30.3000
v -376.9500 3.1100 29.7000
v -375.0500 3.1100 29.7000
v -375.0500 3.1900 29.7000
v -376.9500 3.1900 29.7000
v -375.0500 3.1100 30.3000
v -376.9500 3.1100 30.3000
v -376.9500 3.1900 30.3000
v -375.0500 3.1900 30.3000
v -375.0500 3.1100 29.7000
v -375.0500 3.1100 30.3000
v -375.0500 3.1900 30.3000
v -375.0500 3.1900 29.7000
v -376.9500 3.1100 30.3000
v -376.9500 3.1100 29.7000
v -376.9500 3.1900 29.7000
v -376.9500 3.1900 30.3000
vt -269.7833 -3.1167
vt -269.7833 -0.8833
vt -267.5500 -0.8833
vt -267.5500 -3.1167
vt -269.7833 -3.1167
vt -267.5500 -3.1167
vt -267.5500 -0.8833
vt -269.7833 -0.8833
vt -269.7833 0.0000
vt -267.5500 0.0000
vt -267.5500 2.1333
vt -269.7833 2.1333
vt -267.5500 0.0000
vt -269.7833 0.0000
vt -269.7833 2.1333
vt -267.5500 2.1333
vt -3.1167 0.0000
vt -0.8833 0.0000
vt -0.8833 2.1333
vt -3.1167 2.1333
vt -0.8833 0.0000
vt -3.1167 0.0000
vt -3.1167 2.1333
vt -0.8833 2.1333
vt -257.7833 -3.1167
vt -257.7833 -0.8833
vt -255.5500 -0.8833
vt -255.5500 -3.1167
vt -257.7833 -3.1167
vt -255.5500 -3.1167
vt -255.5500 -0.8833
vt -257.7833 -0.8833
vt -257.7833 0.0000
vt -255.5500 0.0000
vt -255.5500 2.1333
vt -257.7833 2.1333
vt -255.5500 0.0000
vt -257.7833 0.0000
vt -257.7833 2.1333
vt -255.5500 2.1333
vt -3.1167 0.0000
vt -0.8833 0.0000
vt -0.8833 2.1333
vt -3.1167 2.1333
vt -0.8833 0.0000
vt -3.1167 0.0000
vt -3.1167 2.1333
vt -0.8833 2.1333
vt -249.7833 -3.1167
vt -249.7833 -0.8833
vt -247.5500 -0.8833
vt -247.5500 -3.1167
vt -249.7833 -3.1167
vt -247.5500 -3.1167
vt -247.5500 -0.8833
vt -249.7833 -0.8833
vt -249.7833 0.0000
vt -247.5500 0.0000
vt -247.5500 2.1333
vt -249.7833 2.1333
vt -247.5500 0.0000
vt -249.7833 0.0000
vt -249.7833 2.1333
vt -247.5500 2.1333
vt -3.1167 0.0000
vt -0.8833 0.0000
vt -0.8833 2.1333
vt -3.1167 2.1333
vt -0.8833 0.0000
vt -3.1167 0.0000
vt -3.1167 2.1333
vt -0.8833 2.1333
vt -247.7833 -3.1167
vt -247.7833 -0.8833
vt -245.5500 -0.8833
vt -245.5500 -3.1167
vt -247.7833 -3.1167
vt -245.5500 -3.1167
vt -245.5500 -0.8833
vt -247.7833 -0.8833
vt -247.7833 0.0000
vt -245.5500 0.0000
vt -245.5500 2.1333
vt -247.7833 2.1333
vt -245.5500 0.0000
vt -247.7833 0.0000
vt -247.7833 2.1333
vt -245.5500 2.1333
vt -3.1167 0.0000
vt -0.8833 0.0000
vt -0.8833 2.1333
vt -3.1167 2.1333
vt -0.8833 0.0000
vt -3.1167 0.0000
vt -3.1167 2.1333
vt -0.8833 2.1333
vt -257.7833 -1.1167
vt -257.7833 1.1167
vt -255.5500 1.1167
vt -255.5500 -1.1167
vt -257.7833 -1.1167
vt -255.5500 -1.1167
vt -255.5500 1.1167
vt -257.7833 1.1167
vt -257.7833 0.0000
vt -255.5500 0.0000
vt -255.5500 2.1333
vt -257.7833 2.1333
vt -255.5500 0.0000
vt -257.7833 0.0000
vt -257.7833 2.1333
vt -255.5500 2.1333
vt -1.1167 0.0000
vt 1.1167 0.0000
vt 1.1167 2.1333
vt -1.1167 2.1333
vt 1.1167 0.0000
vt -1.1167 0.0000
vt -1.1167 2.1333
vt 1.1167 2.1333
vt -265.7833 0.8833
vt -265.7833 3.1167
vt -263.5500 3.1167
vt -263.5500 0.8833
vt -265.7833 0.8833
vt -263.5500 0.8833
vt -263.5500 3.1167
vt -265.7833 3.1167
vt -265.7833 0.0000
vt -263.5500 0.0000
vt -263.5500 2.1333
vt -265.7833 2.1333
vt -263.5500 0.0000
vt -265.7833 0.0000
vt -265.7833 2.1333
vt -263.5500 2.1333
vt 0.8833 0.0000
vt 3.1167 0.0000
vt 3.1167 2.1333
vt 0.8833 2.1333
vt 3.1167 0.0000
vt 0.8833 0.0000
vt 0.8833 2.1333
vt 3.1167 2.1333
vt -261.7833 0.8833
vt -261.7833 3.1167
vt -259.5500 3.1167
vt -259.5500 0.8833
vt -261.7833 0.8833
vt -259.5500 0.8833
vt -259.5500 3.1167
vt -261.7833 3.1167
vt -261.7833 0.0000
vt -259.5500 0.0000
vt -259.5500 2.1333
vt -261.7833 2.1333
vt -259.5500 0.0000
vt -261.7833 0.0000
vt -261.7833 2.1333
vt -259.5500 2.1333
vt 0.8833 0.0000
vt 3.1167 0.0000
vt 3.1167 2.1333
vt 0.8833 2.1333
vt 3.1167 0.0000
vt 0.8833 0.0000
vt 0.8833 2.1333
vt 3.1167 2.1333
vt -257.7833 0.8833
vt -257.7833 3.1167
vt -255.5500 3.1167
vt -255.5500 0.8833
vt -257.7833 0.8833
vt -255.5500 0.8833
vt -255.5500 3.1167
vt -257.7833 3.1167
vt -257.7833 0.0000
vt -255.5500 0.0000
vt -255.5500 2.1333
vt -257.7833 2.1333
vt -255.5500 0.0000
vt -257.7833 0.0000
vt -257.7833 2.1333
vt -255.5500 2.1333
vt 0.8833 0.0000
vt 3.1167 0.0000
vt 3.1167 2.1333
vt 0.8833 2.1333
vt 3.1167 0.0000
vt 0.8833 0.0000
vt 0.8833 2.1333
vt 3.1167 2.1333
vt -253.7833 0.8833
vt -253.7833 3.1167
vt -251.5500 3.1167
vt -251.5500 0.8833
vt -253.7833 0.8833
vt -251.5500 0.8833
vt -251.5500 3.1167
vt -253.7833 3.1167
vt -253.7833 0.0000
vt -251.5500 0.0000
vt -251.5500 2.1333
vt -253.7833 2.1333
vt -251.5500 0.0000
vt -253.7833 0.0000
vt -253.7833 2.1333
vt -251.5500 2.1333
vt 0.8833 0.0000
vt 3.1167 0.0000
vt 3.1167 2.1333
vt 0.8833 2.1333
vt 3.1167 0.0000
vt 0.8833 0.0000
vt 0.8833 2.1333
vt 3.1167 2.1333
vt -251.7833 0.8833
vt -251.7833 3.1167
vt -249.5500 3.1167
vt -249.5500 0.8833
vt -251.7833 0.8833
vt -249.5500 0.8833
vt -249.5500 3.1167
vt -251.7833 3.1167
vt -251.7833 0.0000
vt -249.5500 0.0000
vt -249.5500 2.1333
vt -251.7833 2.1333
vt -249.5500 0.0000
vt -251.7833 0.0000
vt -251.7833 2.1333
vt -249.5500 2.1333
vt 0.8833 0.0000
vt 3.1167 0.0000
vt 3.1167 2.1333
vt 0.8833 2.1333
vt 3.1167 0.0000
vt 0.8833 0.0000
vt 0.8833 2.1333
vt 3.1167 2.1333
vt -249.7833 0.8833
vt -249.7833 3.1167
vt -247.5500 3.1167
vt -247.5500 0.8833
vt -249.7833 0.8833
vt -247.5500 0.8833
vt -247.5500 3.1167
vt -249.7833 3.1167
vt -249.7833 0.0000
vt -247.5500 0.0000
vt -247.5500 2.1333
vt -249.7833 2.1333
vt -247.5500 0.0000
vt -249.7833 0.0000
vt -249.7833 2.1333
vt -247.5500 2.1333
vt 0.8833 0.0000
vt 3.1167 0.0000
vt 3.1167 2.1333
vt 0.8833 2.1333
vt 3.1167 0.0000
vt 0.8833 0.0000
vt 0.8833 2.1333
vt 3.1167 2.1333
vt -247.7833 0.8833
vt -247.7833 3.1167
vt -245.5500 3.1167
vt -245.5500 0.8833
vt -247.7833 0.8833
vt -245.5500 0.8833
vt -245.5500 3.1167
vt -247.7833 3.1167
vt -247.7833 0.0000
vt -245.5500 0.0000
vt -245.5500 2.1333
vt -247.7833 2.1333
vt -245.5500 0.0000
vt -247.7833 0.0000
vt -247.7833 2.1333
vt -245.5500 2.1333
vt 0.8833 0.0000
vt 3.1167 0.0000
vt 3.1167 2.1333
vt 0.8833 2.1333
vt 3.1167 0.0000
vt 0.8833 0.0000
vt 0.8833 2.1333
vt 3.1167 2.1333
vt -265.7833 2.8833
vt -265.7833 5.1167
vt -263.5500 5.1167
vt -263.5500 2.8833
vt -265.7833 2.8833
vt -263.5500 2.8833
vt -263.5500 5.1167
vt -265.7833 5.1167
vt -265.7833 0.0000
vt -263.5500 0.0000
vt -263.5500 2.1333
vt -265.7833 2.1333
vt -263.5500 0.0000
vt -265.7833 0.0000
vt -265.7833 2.1333
vt -263.5500 2.1333
vt 2.8833 0.0000
vt 5.1167 0.0000
vt 5.1167 2.1333
vt 2.8833 2.1333
vt 5.1167 0.0000
vt 2.8833 0.0000
vt 2.8833 2.1333
vt 5.1167 2.1333
vt -253.7833 2.8833
vt -253.7833 5.1167
vt -251.5500 5.1167
vt -251.5500 2.8833
vt -253.7833 2.8833
vt -251.5500 2.8833
vt -251.5500 5.1167
vt -253.7833 5.1167
vt -253.7833 0.0000
vt -251.5500 0.0000
vt -251.5500 2.1333
vt -253.7833 2.1333
vt -251.5500 0.0000
vt -253.7833 0.0000
vt -253.7833 2.1333
vt -251.5500 2.1333
vt 2.8833 0.0000
vt 5.1167 0.0000
vt 5.1167 2.1333
vt 2.8833 2.1333
vt 5.1167 0.0000
vt 2.8833 0.0000
vt 2.8833 2.1333
vt 5.1167 2.1333
vt -265.7833 4.8833
vt -265.7833 7.1167
vt -263.5500 7.1167
vt -263.5500 4.8833
vt -265.7833 4.8833
vt -263.5500 4.8833
vt -263.5500 7.1167
vt -265.7833 7.1167
vt -265.7833 0.0000
vt -263.5500 0.0000
vt -263.5500 2.1333
vt -265.7833 2.1333
vt -263.5500 0.0000
vt -265.7833 0.0000
vt -265.7833 2.1333
vt -263.5500 2.1333
vt 4.8833 0.0000
vt 7.1167 0.0000
vt 7.1167 2.1333
vt 4.8833 2.1333
vt 7.1167 0.0000
vt 4.8833 0.0000
vt 4.8833 2.1333
vt 7.1167 2.1333
vt -257.7833 4.8833
vt -257.7833 7.1167
vt -255.5500 7.1167
vt -255.5500 4.8833
vt -257.7833 4.8833
vt -255.5500 4.8833
vt -255.5500 7.1167
vt -257.7833 7.1167
vt -257.7833 0.0000
vt -255.5500 0.0000
vt -255.5500 2.1333
vt -257.7833 2.1333
vt -255.5500 0.0000
vt -257.7833 0.0000
vt -257.7833 2.1333
vt -255.5500 2.1333
vt 4.8833 0.0000
vt 7.1167 0.0000
vt 7.1167 2.1333
vt 4.8833 2.1333
vt 7.1167 0.0000
vt 4.8833 0.0000
vt 4.8833 2.1333
vt 7.1167 2.1333
vt -253.7833 4.8833
vt -253.7833 7.1167
vt -251.5500 7.1167
vt -251.5500 4.8833
vt -253.7833 4.8833
vt -251.5500 4.8833
vt -251.5500 7.1167
vt -253.7833 7.1167
vt -253.7833 0.0000
vt -251.5500 0.0000
vt -251.5500 2.1333
vt -253.7833 2.1333
vt -251.5500 0.0000
vt -253.7833 0.0000
vt -253.7833 2.1333
vt -251.5500 2.1333
vt 4.8833 0.0000
vt 7.1167 0.0000
vt 7.1167 2.1333
vt 4.8833 2.1333
vt 7.1167 0.0000
vt 4.8833 0.0000
vt 4.8833 2.1333
vt 7.1167 2.1333
vt -257.7833 6.8833
vt -257.7833 9.1167
vt -255.5500 9.1167
vt -255.5500 6.8833
vt -257.7833 6.8833
vt -255.5500 6.8833
vt -255.5500 9.1167
vt -257.7833 9.1167
vt -257.7833 0.0000
vt -255.5500 0.0000
vt -255.5500 2.1333
vt -257.7833 2.1333
vt -255.5500 0.0000
vt -257.7833 0.0000
vt -257.7833 2.1333
vt -255.5500 2.1333
vt 6.8833 0.0000
vt 9.1167 0.0000
vt 9.1167 2.1333
vt 6.8833 2.1333
vt 9.1167 0.0000
vt 6.8833 0.0000
vt 6.8833 2.1333
vt 9.1167 2.1333
vt -269.7833 8.8833
vt -269.7833 11.1167
vt -267.5500 11.1167
vt -267.5500 8.8833
vt -269.7833 8.8833
vt -267.5500 8.8833
vt -267.5500 11.1167
vt -269.7833 11.1167
vt -269.7833 0.0000
vt -267.5500 0.0000
vt -267.5500 2.1333
vt -269.7833 2.1333
vt -267.5500 0.0000
vt -269.7833 0.0000
vt -269.7833 2.1333
vt -267.5500 2.1333
vt 8.8833 0.0000
vt 11.1167 0.0000
vt 11.1167 2.1333
vt 8.8833 2.1333
vt 11.1167 0.0000
vt 8.8833 0.0000
vt 8.8833 2.1333
vt 11.1167 2.1333
vt -257.7833 8.8833
vt -257.7833 11.1167
vt -255.5500 11.1167
vt -255.5500 8.8833
vt -257.7833 8.8833
vt -255.5500 8.8833
vt -255.5500 11.1167
vt -257.7833 11.1167
vt -257.7833 0.0000
vt -255.5500 0.0000
vt -255.5500 2.1333
vt -257.7833 2.1333
vt -255.5500 0.0000
vt -257.7833 0.0000
vt -257.7833 2.1333
vt -255.5500 2.1333
vt 8.8833 0.0000
vt 11.1167 0.0000
vt 11.1167 2.1333
vt 8.8833 2.1333
vt 11.1167 0.0000
vt 8.8833 0.0000
vt 8.8833 2.1333
vt 11.1167 2.1333
vt -253.7833 8.8833
vt -253.7833 11.1167
vt -251.5500 11.1167
vt -251.5500 8.8833
vt -253.7833 8.8833
vt -251.5500 8.8833
vt -251.5500 11.1167
vt -253.7833 11.1167
vt -253.7833 0.0000
vt -251.5500 0.0000
vt -251.5500 2.1333
vt -253.7833 2.1333
vt -251.5500 0.0000
vt -253.7833 0.0000
vt -253.7833 2.1333
vt -251.5500 2.1333
vt 8.8833 0.0000
vt 11.1167 0.0000
vt 11.1167 2.1333
vt 8.8833 2.1333
vt 11.1167 0.0000
vt 8.8833 0.0000
vt 8.8833 2.1333
vt 11.1167 2.1333
vt -251.7833 8.8833
vt -251.7833 11.1167
vt -249.5500 11.1167
vt -249.5500 8.8833
vt -251.7833 8.8833
vt -249.5500 8.8833
vt -249.5500 11.1167
vt -251.7833 11.1167
vt -251.7833 0.0000
vt -249.5500 0.0000
vt -249.5500 2.1333
vt -251.7833 2.1333
vt -249.5500 0.0000
vt -251.7833 0.0000
vt -251.7833 2.1333
vt -249.5500 2.1333
vt 8.8833 0.0000
vt 11.1167 0.0000
vt 11.1167 2.1333
vt 8.8833 2.1333
vt 11.1167 0.0000
vt 8.8833 0.0000
vt 8.8833 2.1333
vt 11.1167 2.1333
vt -249.7833 8.8833
vt -249.7833 11.1167
vt -247.5500 11.1167
vt -247.5500 8.8833
vt -249.7833 8.8833
vt -247.5500 8.8833
vt -247.5500 11.1167
vt -249.7833 11.1167
vt -249.7833 0.0000
vt -247.5500 0.0000
vt -247.5500 2.1333
vt -249.7833 2.1333
vt -247.5500 0.0000
vt -249.7833 0.0000
vt -249.7833 2.1333
vt -247.5500 2.1333
vt 8.8833 0.0000
vt 11.1167 0.0000
vt 11.1167 2.1333
vt 8.8833 2.1333
vt 11.1167 0.0000
vt 8.8833 0.0000
vt 8.8833 2.1333
vt 11.1167 2.1333
vt -265.7833 12.8833
vt -265.7833 15.1167
vt -263.5500 15.1167
vt -263.5500 12.8833
vt -265.7833 12.8833
vt -263.5500 12.8833
vt -263.5500 15.1167
vt -265.7833 15.1167
vt -265.7833 0.0000
vt -263.5500 0.0000
vt -263.5500 2.1333
vt -265.7833 2.1333
vt -263.5500 0.0000
vt -265.7833 0.0000
vt -265.7833 2.1333
vt -263.5500 2.1333
vt 12.8833 0.0000
vt 15.1167 0.0000
vt 15.1167 2.1333
vt 12.8833 2.1333
vt 15.1167 0.0000
vt 12.8833 0.0000
vt 12.8833 2.1333
vt 15.1167 2.1333
vt -257.7833 12.8833
vt -257.7833 15.1167
vt -255.5500 15.1167
vt -255.5500 12.8833
vt -257.7833 12.8833
vt -255.5500 12.8833
vt -255.5500 15.1167
vt -257.7833 15.1167
vt -257.7833 0.0000
vt -255.5500 0.0000
vt -255.5500 2.1333
vt -257.7833 2.1333
vt -255.5500 0.0000
vt -257.7833 0.0000
vt -257.7833 2.1333
vt -255.5500 2.1333
vt 12.8833 0.0000
vt 15.1167 0.0000
vt 15.1167 2.1333
vt 12.8833 2.1333
vt 15.1167 0.0000
vt 12.8833 0.0000
vt 12.8833 2.1333
vt 15.1167 2.1333
vt -255.7833 12.8833
vt -255.7833 15.1167
vt -253.5500 15.1167
vt -253.5500 12.8833
vt -255.7833 12.8833
vt -253.5500 12.8833
vt -253.5500 15.1167
vt -255.7833 15.1167
vt -255.7833 0.0000
vt -253.5500 0.0000
vt -253.5500 2.1333
vt -255.7833 2.1333
vt -253.5500 0.0000
vt -255.7833 0.0000
vt -255.7833 2.1333
vt -253.5500 2.1333
vt 12.8833 0.0000
vt 15.1167 0.0000
vt 15.1167 2.1333
vt 12.8833 2.1333
vt 15.1167 0.0000
vt 12.8833 0.0000
vt 12.8833 2.1333
vt 15.1167 2.1333
vt -253.7833 12.8833
vt -253.7833 15.1167
vt -251.5500 15.1167
vt -251.5500 12.8833
vt -253.7833 12.8833
vt -251.5500 12.8833
vt -251.5500 15.1167
vt -253.7833 15.1167
vt -253.7833 0.0000
vt -251.5500 0.0000
vt -251.5500 2.1333
vt -253.7833 2.1333
vt -251.5500 0.0000
vt -253.7833 0.0000
vt -253.7833 2.1333
vt -251.5500 2.1333
vt 12.8833 0.0000
vt 15.1167 0.0000
vt 15.1167 2.1333
vt 12.8833 2.1333
vt 15.1167 0.0000
vt 12.8833 0.0000
vt 12.8833 2.1333
vt 15.1167 2.1333
vt -249.7833 12.8833
vt -249.7833 15.1167
vt -247.5500 15.1167
vt -247.5500 12.8833
vt -249.7833 12.8833
vt -247.5500 12.8833
vt -247.5500 15.1167
vt -249.7833 15.1167
vt -249.7833 0.0000
vt -247.5500 0.0000
vt -247.5500 2.1333
vt -249.7833 2.1333
vt -247.5500 0.0000
vt -249.7833 0.0000
vt -249.7833 2.1333
vt -247.5500 2.1333
vt 12.8833 0.0000
vt 15.1167 0.0000
vt 15.1167 2.1333
vt 12.8833 2.1333
vt 15.1167 0.0000
vt 12.8833 0.0000
vt 12.8833 2.1333
vt 15.1167 2.1333
vt -247.7833 12.8833
vt -247.7833 15.1167
vt -245.5500 15.1167
vt -245.5500 12.8833
vt -247.7833 12.8833
vt -245.5500 12.8833
vt -245.5500 15.1167
vt -247.7833 15.1167
vt -247.7833 0.0000
vt -245.5500 0.0000
vt -245.5500 2.1333
vt -247.7833 2.1333
vt -245.5500 0.0000
vt -247.7833 0.0000
vt -247.7833 2.1333
vt -245.5500 2.1333
vt 12.8833 0.0000
vt 15.1167 0.0000
vt 15.1167 2.1333
vt 12.8833 2.1333
vt 15.1167 0.0000
vt 12.8833 0.0000
vt 12.8833 2.1333
vt 15.1167 2.1333
vt -253.7833 14.8833
vt -253.7833 17.1167
vt -251.5500 17.1167
vt -251.5500 14.8833
vt -253.7833 14.8833
vt -251.5500 14.8833
vt -251.5500 17.1167
vt -253.7833 17.1167
vt -253.7833 0.0000
vt -251.5500 0.0000
vt -251.5500 2.1333
vt -253.7833 2.1333
vt -251.5500 0.0000
vt -253.7833 0.0000
vt -253.7833 2.1333
vt -251.5500 2.1333
vt 14.8833 0.0000
vt 17.1167 0.0000
vt 17.1167 2.1333
vt 14.8833 2.1333
vt 17.1167 0.0000
vt 14.8833 0.0000
vt 14.8833 2.1333
vt 17.1167 2.1333
vt -249.7833 14.8833
vt -249.7833 17.1167
vt -247.5500 17.1167
vt -247.5500 14.8833
vt -249.7833 14.8833
vt -247.5500 14.8833
vt -247.5500 17.1167
vt -249.7833 17.1167
vt -249.7833 0.0000
vt -247.5500 0.0000
vt -247.5500 2.1333
vt -249.7833 2.1333
vt -247.5500 0.0000
vt -249.7833 0.0000
vt -249.7833 2.1333
vt -247.5500 2.1333
vt 14.8833 0.0000
vt 17.1167 0.0000
vt 17.1167 2.1333
vt 14.8833 2.1333
vt 17.1167 0.0000
vt 14.8833 0.0000
vt 14.8833 2.1333
vt 17.1167 2.1333
vt -269.7833 16.8833
vt -269.7833 19.1167
vt -267.5500 19.1167
vt -267.5500 16.8833
vt -269.7833 16.8833
vt -267.5500 16.8833
vt -267.5500 19.1167
vt -269.7833 19.1167
vt -269.7833 0.0000
vt -267.5500 0.0000
vt -267.5500 2.1333
vt -269.7833 2.1333
vt -267.5500 0.0000
vt -269.7833 0.0000
vt -269.7833 2.1333
vt -267.5500 2.1333
vt 16.8833 0.0000
vt 19.1167 0.0000
vt 19.1167 2.1333
vt 16.8833 2.1333
vt 19.1167 0.0000
vt 16.8833 0.0000
vt 16.8833 2.1333
vt 19.1167 2.1333
vt -265.7833 16.8833
vt -265.7833 19.1167
vt -263.5500 19.1167
vt -263.5500 16.8833
vt -265.7833 16.8833
vt -263.5500 16.8833
vt -263.5500 19.1167
vt -265.7833 19.1167
vt -265.7833 0.0000
vt -263.5500 0.0000
vt -263.5500 2.1333
vt -265.7833 2.1333
vt -263.5500 0.0000
vt -265.7833 0.0000
vt -265.7833 2.1333
vt -263.5500 2.1333
vt 16.8833 0.0000
vt 19.1167 0.0000
vt 19.1167 2.1333
vt 16.8833 2.1333
vt 19.1167 0.0000
vt 16.8833 0.0000
vt 16.8833 2.1333
vt 19.1167 2.1333
vt -261.7833 16.8833
vt -261.7833 19.1167
vt -259.5500 19.1167
vt -259.5500 16.8833
vt -261.7833 16.8833
vt -259.5500 16.8833
vt -259.5500 19.1167
vt -261.7833 19.1167
vt -261.7833 0.0000
vt -259.5500 0.0000
vt -259.5500 2.1333
vt -261.7833 2.1333
vt -259.5500 0.0000
vt -261.7833 0.0000
vt -261.7833 2.1333
vt -259.5500 2.1333
vt 16.8833 0.0000
vt 19.1167 0.0000
vt 19.1167 2.1333
vt 16.8833 2.1333
vt 19.1167 0.0000
vt 16.8833 0.0000
vt 16.8833 2.1333
vt 19.1167 2.1333
vt -253.7833 16.8833
vt -253.7833 19.1167
vt -251.5500 19.1167
vt -251.5500 16.8833
vt -253.7833 16.8833
vt -251.5500 16.8833
vt -251.5500 19.1167
vt -253.7833 19.1167
vt -253.7833 0.0000
vt -251.5500 0.0000
vt -251.5500 2.1333
vt -253.7833 2.1333
vt -251.5500 0.0000
vt -253.7833 0.0000
vt -253.7833 2.1333
vt -251.5500 2.1333
vt 16.8833 0.0000
vt 19.1167 0.0000
vt 19.1167 2.1333
vt 16.8833 2.1333
vt 19.1167 0.0000
vt 16.8833 0.0000
vt 16.8833 2.1333
vt 19.1167 2.1333
vt -249.7833 16.8833
vt -249.7833 19.1167
vt -247.5500 19.1167
vt -247.5500 16.8833
vt -249.7833 16.8833
vt -247.5500 16.8833
vt -247.5500 19.1167
vt -249.7833 19.1167
vt -249.7833 0.0000
vt -247.5500 0.0000
vt -247.5500 2.1333
vt -249.7833 2.1333
vt -247.5500 0.0000
vt -249.7833 0.0000
vt -249.7833 2.1333
vt -247.5500 2.1333
vt 16.8833 0.0000
vt 19.1167 0.0000
vt 19.1167 2.1333
vt 16.8833 2.1333
vt 19.1167 0.0000
vt 16.8833 0.0000
vt 16.8833 2.1333
vt 19.1167 2.1333
vt -269.7833 18.8833
vt -269.7833 21.1167
vt -267.5500 21.1167
vt -267.5500 18.8833
vt -269.7833 18.8833
vt -267.5500 18.8833
vt -267.5500 21.1167
vt -269.7833 21.1167
vt -269.7833 0.0000
vt -267.5500 0.0000
vt -267.5500 2.1333
vt -269.7833 2.1333
vt -267.5500 0.0000
vt -269.7833 0.0000
vt -269.7833 2.1333
vt -267.5500 2.1333
vt 18.8833 0.0000
vt 21.1167 0.0000
vt 21.1167 2.1333
vt 18.8833 2.1333
vt 21.1167 0.0000
vt 18.8833 0.0000
vt 18.8833 2.1333
vt 21.1167 2.1333
vt -265.7833 18.8833
vt -265.7833 21.1167
vt -263.5500 21.1167
vt -263.5500 18.8833
vt -265.7833 18.8833
vt -263.5500 18.8833
vt -263.5500 21.1167
vt -265.7833 21.1167
vt -265.7833 0.0000
vt -263.5500 0.0000
vt -263.5500 2.1333
vt -265.7833 2.1333
vt -263.5500 0.0000
vt -265.7833 0.0000
vt -265.7833 2.1333
vt -263.5500 2.1333
vt 18.8833 0.0000
vt 21.1167 0.0000
vt 21.1167 2.1333
vt 18.8833 2.1333
vt 21.1167 0.0000
vt 18.8833 0.0000
vt 18.8833 2.1333
vt 21.1167 2.1333
vt -261.7833 18.8833
vt -261.7833 21.1167
vt -259.5500 21.1167
vt -259.5500 18.8833
vt -261.7833 18.8833
vt -259.5500 18.8833
vt -259.5500 21.1167
vt -261.7833 21.1167
vt -261.7833 0.0000
vt -259.5500 0.0000
vt -259.5500 2.1333
vt -261.7833 2.1333
vt -259.5500 0.0000
vt -261.7833 0.0000
vt -261.7833 2.1333
vt -259.5500 2.1333
vt 18.8833 0.0000
vt 21.1167 0.0000
vt 21.1167 2.1333
vt 18.8833 2.1333
vt 21.1167 0.0000
vt 18.8833 0.0000
vt 18.8833 2.1333
vt 21.1167 2.1333
vt -253.7833 18.8833
vt -253.7833 21.1167
vt -251.5500 21.1167
vt -251.5500 18.8833
vt -253.7833 18.8833
vt -251.5500 18.8833
vt -251.5500 21.1167
vt -253.7833 21.1167
vt -253.7833 0.0000
vt -251.5500 0.0000
vt -251.5500 2.1333
vt -253.7833 2.1333
vt -251.5500 0.0000
vt -253.7833 0.0000
vt -253.7833 2.1333
vt -251.5500 2.1333
vt 18.8833 0.0000
vt 21.1167 0.0000
vt 21.1167 2.1333
vt 18.8833 2.1333
vt 21.1167 0.0000
vt 18.8833 0.0000
vt 18.8833 2.1333
vt 21.1167 2.1333
vt -328.6475 -0.2459
vt -328.6475 0.2459
vt -327.0902 0.2459
vt -327.0902 -0.2459
vt -328.6475 -0.2459
vt -327.0902 -0.2459
vt -327.0902 0.2459
vt -328.6475 0.2459
vt -328.6475 2.5492
vt -327.0902 2.5492
vt -327.0902 2.6148
vt -328.6475 2.6148
vt -327.0902 2.5492
vt -328.6475 2.5492
vt -328.6475 2.6148
vt -327.0902 2.6148
vt -0.2459 2.5492
vt 0.2459 2.5492
vt 0.2459 2.6148
vt -0.2459 2.6148
vt 0.2459 2.5492
vt -0.2459 2.5492
vt -0.2459 2.6148
vt 0.2459 2.6148
vt -318.8115 -0.2459
vt -318.8115 0.2459
vt -317.2541 0.2459
vt -317.2541 -0.2459
vt -318.8115 -0.2459
vt -317.2541 -0.2459
vt -317.2541 0.2459
vt -318.8115 0.2459
vt -318.8115 2.5492
vt -317.2541 2.5492
vt -317.2541 2.6148
vt -318.8115 2.6148
vt -317.2541 2.5492
vt -318.8115 2.5492
vt -318.8115 2.6148
vt -317.2541 2.6148
vt -0.2459 2.5492
vt 0.2459 2.5492
vt 0.2459 2.6148
vt -0.2459 2.6148
vt 0.2459 2.5492
vt -0.2459 2.5492
vt -0.2459 2.6148
vt 0.2459 2.6148
vt -323.7295 4.6721
vt -323.7295 5.1639
vt -322.1721 5.1639
vt -322.1721 4.6721
vt -323.7295 4.6721
vt -322.1721 4.6721
vt -322.1721 5.1639
vt -323.7295 5.1639
vt -323.7295 2.5492
vt -322.1721 2.5492
vt -322.1721 2.6148
vt -323.7295 2.6148
vt -322.1721 2.5492
vt -323.7295 2.5492
vt -323.7295 2.6148
vt -322.1721 2.6148
vt 4.6721 2.5492
vt 5.1639 2.5492
vt 5.1639 2.6148
vt 4.6721 2.6148
vt 5.1639 2.5492
vt 4.6721 2.5492
vt 4.6721 2.6148
vt 5.1639 2.6148
vt -328.6475 9.5902
vt -328.6475 10.0820
vt -327.0902 10.0820
vt -327.0902 9.5902
vt -328.6475 9.5902
vt -327.0902 9.5902
vt -327.0902 10.0820
vt -328.6475 10.0820
vt -328.6475 2.5492
vt -327.0902 2.5492
vt -327.0902 2.6148
vt -328.6475 2.6148
vt -327.0902 2.5492
vt -328.6475 2.5492
vt -328.6475 2.6148
vt -327.0902 2.6148
vt 9.5902 2.5492
vt 10.0820 2.5492
vt 10.0820 2.6148
vt 9.5902 2.6148
vt 10.0820 2.5492
vt 9.5902 2.5492
vt 9.5902 2.6148
vt 10.0820 2.6148
vt -313.8934 9.5902
vt -313.8934 10.0820
vt -312.3361 10.0820
vt -312.3361 9.5902
vt -313.8934 9.5902
vt -312.3361 9.5902
vt -312.3361 10.0820
vt -313.8934 10.0820
vt -313.8934 2.5492
vt -312.3361 2.5492
vt -312.3361 2.6148
vt -313.8934 2.6148
vt -312.3361 2.5492
vt -313.8934 2.5492
vt -313.8934 2.6148
vt -312.3361 2.6148
vt 9.5902 2.5492
vt 10.0820 2.5492
vt 10.0820 2.6148
vt 9.5902 2.6148
vt 10.0820 2.5492
vt 9.5902 2.5492
vt 9.5902 2.6148
vt 10.0820 2.6148
vt -308.9754 9.5902
vt -308.9754 10.0820
vt -307.4180 10.0820
vt -307.4180 9.5902
vt -308.9754 9.5902
vt -307.4180 9.5902
vt -307.4180 10.0820
vt -308.9754 10.0820
vt -308.9754 2.5492
vt -307.4180 2.5492
vt -307.4180 2.6148
vt -308.9754 2.6148
vt -307.4180 2.5492
vt -308.9754 2.5492
vt -308.9754 2.6148
vt -307.4180 2.6148
vt 9.5902 2.5492
vt 10.0820 2.5492
vt 10.0820 2.6148
vt 9.5902 2.6148
vt 10.0820 2.5492
vt 9.5902 2.5492
vt 9.5902 2.6148
vt 10.0820 2.6148
vt -313.8934 14.5082
vt -313.8934 15.0000
vt -312.3361 15.0000
vt -312.3361 14.5082
vt -313.8934 14.5082
vt -312.3361 14.5082
vt -312.3361 15.0000
vt -313.8934 15.0000
vt -313.8934 2.5492
vt -312.3361 2.5492
vt -312.3361 2.6148
vt -313.8934 2.6148
vt -312.3361 2.5492
vt -313.8934 2.5492
vt -313.8934 2.6148
vt -312.3361 2.6148
vt 14.5082 2.5492
vt 15.0000 2.5492
vt 15.0000 2.6148
vt 14.5082 2.6148
vt 15.0000 2.5492
vt 14.5082 2.5492
vt 14.5082 2.6148
vt 15.0000 2.6148
vt -308.9754 14.5082
vt -308.9754 15.0000
vt -307.4180 15.0000
vt -307.4180 14.5082
vt -308.9754 14.5082
vt -307.4180 14.5082
vt -307.4180 15.0000
vt -308.9754 15.0000
vt -308.9754 2.5492
vt -307.4180 2.5492
vt -307.4180 2.6148
vt -308.9754 2.6148
vt -307.4180 2.5492
vt -308.9754 2.5492
vt -308.9754 2.6148
vt -307.4180 2.6148
vt 14.5082 2.5492
vt 15.0000 2.5492
vt 15.0000 2.6148
vt 14.5082 2.6148
vt 15.0000 2.5492
vt 14.5082 2.5492
vt 14.5082 2.6148
vt 15.0000 2.6148
vt -304.0574 14.5082
vt -304.0574 15.0000
vt -302.5000 15.0000
vt -302.5000 14.5082
vt -304.0574 14.5082
vt -302.5000 14.5082
vt -302.5000 15.0000
vt -304.0574 15.0000
vt -304.0574 2.5492
vt -302.5000 2.5492
vt -302.5000 2.6148
vt -304.0574 2.6148
vt -302.5000 2.5492
vt -304.0574 2.5492
vt -304.0574 2.6148
vt -302.5000 2.6148
vt 14.5082 2.5492
vt 15.0000 2.5492
vt 15.0000 2.6148
vt 14.5082 2.6148
vt 15.0000 2.5492
vt 14.5082 2.5492
vt 14.5082 2.6148
vt 15.0000 2.6148
vt -323.7295 19.4262
vt -323.7295 19.9180
vt -322.1721 19.9180
vt -322.1721 19.4262
vt -323.7295 19.4262
vt -322.1721 19.4262
vt -322.1721 19.9180
vt -323.7295 19.9180
vt -323.7295 2.5492
vt -322.1721 2.5492
vt -322.1721 2.6148
vt -323.7295 2.6148
vt -322.1721 2.5492
vt -323.7295 2.5492
vt -323.7295 2.6148
vt -322.1721 2.6148
vt 19.4262 2.5492
vt 19.9180 2.5492
vt 19.9180 2.6148
vt 19.4262 2.6148
vt 19.9180 2.5492
vt 19.4262 2.5492
vt 19.4262 2.6148
vt 19.9180 2.6148
vt -318.8115 19.4262
vt -318.8115 19.9180
vt -317.2541 19.9180
vt -317.2541 19.4262
vt -318.8115 19.4262
vt -317.2541 19.4262
vt -317.2541 19.9180
vt -318.8115 19.9180
vt -318.8115 2.5492
vt -317.2541 2.5492
vt -317.2541 2.6148
vt -318.8115 2.6148
vt -317.2541 2.5492
vt -318.8115 2.5492
vt -318.8115 2.6148
vt -317.2541 2.6148
vt 19.4262 2.5492
vt 19.9180 2.5492
vt 19.9180 2.6148
vt 19.4262 2.6148
vt 19.9180 2.5492
vt 19.4262 2.5492
vt 19.4262 2.6148
vt 19.9180 2.6148
vt -308.9754 19.4262
vt -308.9754 19.9180
vt -307.4180 19.9180
vt -307.4180 19.4262
vt -308.9754 19.4262
vt -307.4180 19.4262
vt -307.4180 19.9180
vt -308.9754 19.9180
vt -308.9754 2.5492
vt -307.4180 2.5492
vt -307.4180 2.6148
vt -308.9754 2.6148
vt -307.4180 2.5492
vt -308.9754 2.5492
vt -308.9754 2.6148
vt -307.4180 2.6148
vt 19.4262 2.5492
vt 19.9180 2.5492
vt 19.9180 2.6148
vt 19.4262 2.6148
vt 19.9180 2.5492
vt 19.4262 2.5492
vt 19.4262 2.6148
vt 19.9180 2.6148
vt -304.0574 19.4262
vt -304.0574 19.9180
vt -302.5000 19.9180
vt -302.5000 19.4262
vt -304.0574 19.4262
vt -302.5000 19.4262
vt -302.5000 19.9180
vt -304.0574 19.9180
vt -304.0574 2.5492
vt -302.5000 2.5492
vt -302.5000 2.6148
vt -304.0574 2.6148
vt -302.5000 2.5492
vt -304.0574 2.5492
vt -304.0574 2.6148
vt -302.5000 2.6148
vt 19.4262 2.5492
vt 19.9180 2.5492
vt 19.9180 2.6148
vt 19.4262 2.6148
vt 19.9180 2.5492
vt 19.4262 2.5492
vt 19.4262 2.6148
vt 19.9180 2.6148
vt -323.7295 24.3443
vt -323.7295 24.8361
vt -322.1721 24.8361
vt -322.1721 24.3443
vt -323.7295 24.3443
vt -322.1721 24.3443
vt -322.1721 24.8361
vt -323.7295 24.8361
vt -323.7295 2.5492
vt -322.1721 2.5492
vt -322.1721 2.6148
vt -323.7295 2.6148
vt -322.1721 2.5492
vt -323.7295 2.5492
vt -323.7295 2.6148
vt -322.1721 2.6148
vt 24.3443 2.5492
vt 24.8361 2.5492
vt 24.8361 2.6148
vt 24.3443 2.6148
vt 24.8361 2.5492
vt 24.3443 2.5492
vt 24.3443 2.6148
vt 24.8361 2.6148
vt -313.8934 24.3443
vt -313.8934 24.8361
vt -312.3361 24.8361
vt -312.3361 24.3443
vt -313.8934 24.3443
vt -312.3361 24.3443
vt -312.3361 24.8361
vt -313.8934 24.8361
vt -313.8934 2.5492
vt -312.3361 2.5492
vt -312.3361 2.6148
vt -313.8934 2.6148
vt -312.3361 2.5492
vt -313.8934 2.5492
vt -313.8934 2.6148
vt -312.3361 2.6148
vt 24.3443 2.5492
vt 24.8361 2.5492
vt 24.8361 2.6148
vt 24.3443 2.6148
vt 24.8361 2.5492
vt 24.3443 2.5492
vt 24.3443 2.6148
vt 24.8361 2.6148
vt -308.9754 24.3443
vt -308.9754 24.8361
vt -307.4180 24.8361
vt -307.4180 24.3443
vt -308.9754 24.3443
vt -307.4180 24.3443
vt -307.4180 24.8361
vt -308.9754 24.8361
vt -308.9754 2.5492
vt -307.4180 2.5492
vt -307.4180 2.6148
vt -308.9754 2.6148
vt -307.4180 2.5492
vt -308.9754 2.5492
vt -308.9754 2.6148
vt -307.4180 2.6148
vt 24.3443 2.5492
vt 24.8361 2.5492
vt 24.8361 2.6148
vt 24.3443 2.6148
vt 24.8361 2.5492
vt 24.3443 2.5492
vt 24.3443 2.6148
vt 24.8361 2.6148
usemtl fluorescent
f 961 964 963 962
f 965 966 967 968
f 961 962 966 965
f 963 964 968 967
f 962 963 967 966
f 964 961 965 968
f 993 996 995 994
f 997 998 999 1000
f 993 994 998 997
f 995 996 1000 999
f 994 995 999 998
f 996 993 997 1000
f 1025 1028 1027 1026
f 1029 1030 1031 1032
f 1025 1026 1030 1029
f 1027 1028 1032 1031
f 1026 1027 1031 1030
f 1028 1025 1029 1032
f 1057 1060 1059 1058
f 1061 1062 1063 1064
f 1057 1058 1062 1061
f 1059 1060 1064 1063
f 1058 1059 1063 1062
f 1060 1057 1061 1064
f 1089 1092 1091 1090
f 1093 1094 1095 1096
f 1089 1090 1094 1093
f 1091 1092 1096 1095
f 1090 1091 1095 1094
f 1092 1089 1093 1096
f 1121 1124 1123 1122
f 1125 1126 1127 1128
f 1121 1122 1126 1125
f 1123 1124 1128 1127
f 1122 1123 1127 1126
f 1124 1121 1125 1128
f 1153 1156 1155 1154
f 1157 1158 1159 1160
f 1153 1154 1158 1157
f 1155 1156 1160 1159
f 1154 1155 1159 1158
f 1156 1153 1157 1160
f 1185 1188 1187 1186
f 1189 1190 1191 1192
f 1185 1186 1190 1189
f 1187 1188 1192 1191
f 1186 1187 1191 1190
f 1188 1185 1189 1192
f 1217 1220 1219 1218
f 1221 1222 1223 1224
f 1217 1218 1222 1221
f 1219 1220 1224 1223
f 1218 1219 1223 1222
f 1220 1217 1221 1224
f 1249 1252 1251 1250
f 1253 1254 1255 1256
f 1249 1250 1254 1253
f 1251 1252 1256 1255
f 1250 1251 1255 1254
f 1252 1249 1253 1256
f 1281 1284 1283 1282
f 1285 1286 1287 1288
f 1281 1282 1286 1285
f 1283 1284 1288 1287
f 1282 1283 1287 1286
f 1284 1281 1285 1288
f 1313 1316 1315 1314
f 1317 1318 1319 1320
f 1313 1314 1318 1317
f 1315 1316 1320 1319
f 1314 1315 1319 1318
f 1316 1313 1317 1320
f 1345 1348 1347 1346
f 1349 1350 1351 1352
f 1345 1346 1350 1349
f 1347 1348 1352 1351
f 1346 1347 1351 1350
f 1348 1345 1349 1352
f 1377 1380 1379 1378
f 1381 1382 1383 1384
f 1377 1378 1382 1381
f 1379 1380 1384 1383
f 1378 1379 1383 1382
f 1380 1377 1381 1384
f 1409 1412 1411 1410
f 1413 1414 1415 1416
f 1409 1410 1414 1413
f 1411 1412 1416 1415
f 1410 1411 1415 1414
f 1412 1409 1413 1416
f 1441 1444 1443 1442
f 1445 1446 1447 1448
f 1441 1442 1446 1445
f 1443 1444 1448 1447
f 1442 1443 1447 1446
f 1444 1441 1445 1448
usemtl wallpaper
f 1/1 2/2 3/3 4/4
f 5/5 6/6 7/7 8/8
f 9/9 10/10 11/11 12/12
f 13/13 14/14 15/15 16/16
f 17/17 18/18 19/19 20/20
f 21/21 22/22 23/23 24/24
usemtl wallpaper_damp
f 25/25 26/26 27/27 28/28
f 29/29 30/30 31/31 32/32
f 33/33 34/34 35/35 36/36
f 37/37 38/38 39/39 40/40
f 41/41 42/42 43/43 44/44
f 45/45 46/46 47/47 48/48
f 49/49 50/50 51/51 52/52
f 53/53 54/54 55/55 56/56
f 57/57 58/58 59/59 60/60
f 61/61 62/62 63/63 64/64
f 65/65 66/66 67/67 68/68
f 69/69 70/70 71/71 72/72
f 73/73 74/74 75/75 76/76
f 77/77 78/78 79/79 80/80
f 81/81 82/82 83/83 84/84
f 85/85 86/86 87/87 88/88
f 89/89 90/90 91/91 92/92
f 93/93 94/94 95/95 96/96
usemtl wallpaper
f 97/97 98/98 99/99 100/100
f 101/101 102/102 103/103 104/104
f 105/105 106/106 107/107 108/108
f 109/109 110/110 111/111 112/112
f 113/113 114/114 115/115 116/116
f 117/117 118/118 119/119 120/120
f 121/121 122/122 123/123 124/124
f 125/125 126/126 127/127 128/128
f 129/129 130/130 131/131 132/132
f 133/133 134/134 135/135 136/136
f 137/137 138/138 139/139 140/140
f 141/141 142/142 143/143 144/144
f 145/145 146/146 147/147 148/148
f 149/149 150/150 151/151 152/152
f 153/153 154/154 155/155 156/156
f 157/157 158/158 159/159 160/160
f 161/161 162/162 163/163 164/164
f 165/165 166/166 167/167 168/168
usemtl wallpaper_damp
f 169/169 170/170 171/171 172/172
f 173/173 174/174 175/175 176/176
f 177/177 178/178 179/179 180/180
f 181/181 182/182 183/183 184/184
f 185/185 186/186 187/187 188/188
f 189/189 190/190 191/191 192/192
usemtl wallpaper
f 193/193 194/194 195/195 196/196
f 197/197 198/198 199/199 200/200
f 201/201 202/202 203/203 204/204
f 205/205 206/206 207/207 208/208
f 209/209 210/210 211/211 212/212
f 213/213 214/214 215/215 216/216
usemtl wallpaper_damp
f 217/217 218/218 219/219 220/220
f 221/221 222/222 223/223 224/224
f 225/225 226/226 227/227 228/228
f 229/229 230/230 231/231 232/232
f 233/233 234/234 235/235 236/236
f 237/237 238/238 239/239 240/240
usemtl wallpaper
f 241/241 242/242 243/243 244/244
f 245/245 246/246 247/247 248/248
f 249/249 250/250 251/251 252/252
f 253/253 254/254 255/255 256/256
f 257/257 258/258 259/259 260/260
f 261/261 262/262 263/263 264/264
f 265/265 266/266 267/267 268/268
f 269/269 270/270 271/271 272/272
f 273/273 274/274 275/275 276/276
f 277/277 278/278 279/279 280/280
f 281/281 282/282 283/283 284/284
f 285/285 286/286 287/287 288/288
f 289/289 290/290 291/291 292/292
f 293/293 294/294 295/295 296/296
f 297/297 298/298 299/299 300/300
f 301/301 302/302 303/303 304/304
f 305/305 306/306 307/307 308/308
f 309/309 310/310 311/311 312/312
f 313/313 314/314 315/315 316/316
f 317/317 318/318 319/319 320/320
f 321/321 322/322 323/323 324/324
f 325/325 326/326 327/327 328/328
f 329/329 330/330 331/331 332/332
f 333/333 334/334 335/335 336/336
usemtl wallpaper_damp
f 337/337 338/338 339/339 340/340
f 341/341 342/342 343/343 344/344
f 345/345 346/346 347/347 348/348
f 349/349 350/350 351/351 352/352
f 353/353 354/354 355/355 356/356
f 357/357 358/358 359/359 360/360
usemtl wallpaper
f 361/361 362/362 363/363 364/364
f 365/365 366/366 367/367 368/368
f 369/369 370/370 371/371 372/372
f 373/373 374/374 375/375 376/376
f 377/377 378/378 379/379 380/380
f 381/381 382/382 383/383 384/384
f 385/385 386/386 387/387 388/388
f 389/389 390/390 391/391 392/392
f 393/393 394/394 395/395 396/396
f 397/397 398/398 399/399 400/400
f 401/401 402/402 403/403 404/404
f 405/405 406/406 407/407 408/408
f 409/409 410/410 411/411 412/412
f 413/413 414/414 415/415 416/416
f 417/417 418/418 419/419 420/420
f 421/421 422/422 423/423 424/424
f 425/425 426/426 427/427 428/428
f 429/429 430/430 431/431 432/432
usemtl wallpaper_damp
f 433/433 434/434 435/435 436/436
f 437/437 438/438 439/439 440/440
f 441/441 442/442 443/443 444/444
f 445/445 446/446 447/447 448/448
f 449/449 450/450 451/451 452/452
f 453/453 454/454 455/455 456/456
usemtl wallpaper
f 457/457 458/458 459/459 460/460
f 461/461 462/462 463/463 464/464
f 465/465 466/466 467/467 468/468
f 469/469 470/470 471/471 472/472
f 473/473 474/474 475/475 476/476
f 477/477 478/478 479/479 480/480
f 481/481 482/482 483/483 484/484
f 485/485 486/486 487/487 488/488
f 489/489 490/490 491/491 492/492
f 493/493 494/494 495/495 496/496
f 497/497 498/498 499/499 500/500
f 501/501 502/502 503/503 504/504
usemtl wallpaper_damp
f 505/505 506/506 507/507 508/508
f 509/509 510/510 511/511 512/512
f 513/513 514/514 515/515 516/516
f 517/517 518/518 519/519 520/520
f 521/521 522/522 523/523 524/524
f 525/525 526/526 527/527 528/528
usemtl wallpaper
f 529/529 530/530 531/531 532/532
f 533/533 534/534 535/535 536/536
f 537/537 538/538 539/539 540/540
f 541/541 542/542 543/543 544/544
f 545/545 546/546 547/547 548/548
f 549/549 550/550 551/551 552/552
f 553/553 554/554 555/555 556/556
f 557/557 558/558 559/559 560/560
f 561/561 562/562 563/563 564/564
f 565/565 566/566 567/567 568/568
f 569/569 570/570 571/571 572/572
f 573/573 574/574 575/575 576/576
f 577/577 578/578 579/579 580/580
f 581/581 582/582 583/583 584/584
f 585/585 586/586 587/587 588/588
f 589/589 590/590 591/591 592/592
f 593/593 594/594 595/595 596/596
f 597/597 598/598 599/599 600/600
f 601/601 602/602 603/603 604/604
f 605/605 606/606 607/607 608/608
f 609/609 610/610 611/611 612/612
f 613/613 614/614 615/615 616/616
f 617/617 618/618 619/619 620/620
f 621/621 622/622 623/623 624/624
f 625/625 626/626 627/627 628/628
f 629/629 630/630 631/631 632/632
f 633/633 634/634 635/635 636/636
f 637/637 638/638 639/639 640/640
f 641/641 642/642 643/643 644/644
f 645/645 646/646 647/647 648/648
usemtl wallpaper_damp
f 649/649 650/650 651/651 652/652
f 653/653 654/654 655/655 656/656
f 657/657 658/658 659/659 660/660
f 661/661 662/662 663/663 664/664
f 665/665 666/666 667/667 668/668
f 669/669 670/670 671/671 672/672
usemtl wallpaper
f 673/673 674/674 675/675 676/676
f 677/677 678/678 679/679 680/680
f 681/681 682/682 683/683 684/684
f 685/685 686/686 687/687 688/688
f 689/689 690/690 691/691 692/692
f 693/693 694/694 695/695 696/696
f 697/697 698/698 699/699 700/700
f 701/701 702/702 703/703 704/704
f 705/705 706/706 707/707 708/708
f 709/709 710/710 711/711 712/712
f 713/713 714/714 715/715 716/716
f 717/717 718/718 719/719 720/720
f 721/721 722/722 723/723 724/724
f 725/725 726/726 727/727 728/728
f 729/729 730/730 731/731 732/732
f 733/733 734/734 735/735 736/736
f 737/737 738/738 739/739 740/740
f 741/741 742/742 743/743 744/744
f 745/745 746/746 747/747 748/748
f 749/749 750/750 751/751 752/752
f 753/753 754/754 755/755 756/756
f 757/757 758/758 759/759 760/760
f 761/761 762/762 763/763 764/764
f 765/765 766/766 767/767 768/768
f 769/769 770/770 771/771 772/772
f 773/773 774/774 775/775 776/776
f 777/777 778/778 779/779 780/780
f 781/781 782/782 783/783 784/784
f 785/785 786/786 787/787 788/788
f 789/789 790/790 791/791 792/792
f 793/793 794/794 795/795 796/796
f 797/797 798/798 799/799 800/800
f 801/801 802/802 803/803 804/804
f 805/805 806/806 807/807 808/808
f 809/809 810/810 811/811 812/812
f 813/813 814/814 815/815 816/816
f 817/817 818/818 819/819 820/820
f 821/821 822/822 823/823 824/824
f 825/825 826/826 827/827 828/828
f 829/829 830/830 831/831 832/832
f 833/833 834/834 835/835 836/836
f 837/837 838/838 839/839 840/840
f 841/841 842/842 843/843 844/844
f 845/845 846/846 847/847 848/848
f 849/849 850/850 851/851 852/852
f 853/853 854/854 855/855 856/856
f 857/857 858/858 859/859 860/860
f 861/861 862/862 863/863 864/864
f 865/865 866/866 867/867 868/868
f 869/869 870/870 871/871 872/872
f 873/873 874/874 875/875 876/876
f 877/877 878/878 879/879 880/880
f 881/881 882/882 883/883 884/884
f 885/885 886/886 887/887 888/888
f 889/889 890/890 891/891 892/892
f 893/893 894/894 895/895 896/896
f 897/897 898/898 899/899 900/900
f 901/901 902/902 903/903 904/904
f 905/905 906/906 907/907 908/908
f 909/909 910/910 911/911 912/912
f 913/913 914/914 915/915 916/916
f 917/917 918/918 919/919 920/920
f 921/921 922/922 923/923 924/924
f 925/925 926/926 927/927 928/928
f 929/929 930/930 931/931 932/932
f 933/933 934/934 935/935 936/936
f 937/937 938/938 939/939 940/940
f 941/941 942/942 943/943 944/944
f 945/945 946/946 947/947 948/948
f 949/949 950/950 951/951 952/952
f 953/953 954/954 955/955 956/956
f 957/957 958/958 959/959 960/960
usemtl ceiling_tile
f 969/961 970/962 971/963 972/964
f 973/965 974/966 975/967 976/968
f 977/969 978/970 979/971 980/972
f 981/973 982/974 983/975 984/976
f 985/977 986/978 987/979 988/980
f 989/981 990/982 991/983 992/984
f 1001/985 1002/986 1003/987 1004/988
f 1005/989 1006/990 1007/991 1008/992
f 1009/993 1010/994 1011/995 1012/996
f 1013/997 1014/998 1015/999 1016/1000
f 1017/1001 1018/1002 1019/1003 1020/1004
f 1021/1005 1022/1006 1023/1007 1024/1008
f 1033/1009 1034/1010 1035/1011 1036/1012
f 1037/1013 1038/1014 1039/1015 1040/1016
f 1041/1017 1042/1018 1043/1019 1044/1020
f 1045/1021 1046/1022 1047/1023 1048/1024
f 1049/1025 1050/1026 1051/1027 1052/1028
f 1053/1029 1054/1030 1055/1031 1056/1032
f 1065/1033 1066/1034 1067/1035 1068/1036
f 1069/1037 1070/1038 1071/1039 1072/1040
f 1073/1041 1074/1042 1075/1043 1076/1044
f 1077/1045 1078/1046 1079/1047 1080/1048
f 1081/1049 1082/1050 1083/1051 1084/1052
f 1085/1053 1086/1054 1087/1055 1088/1056
f 1097/1057 1098/1058 1099/1059 1100/1060
f 1101/1061 1102/1062 1103/1063 1104/1064
f 1105/1065 1106/1066 1107/1067 1108/1068
f 1109/1069 1110/1070 1111/1071 1112/1072
f 1113/1073 1114/1074 1115/1075 1116/1076
f 1117/1077 1118/1078 1119/1079 1120/1080
f 1129/1081 1130/1082 1131/1083 1132/1084
f 1133/1085 1134/1086 1135/1087 1136/1088
f 1137/1089 1138/1090 1139/1091 1140/1092
f 1141/1093 1142/1094 1143/1095 1144/1096
f 1145/1097 1146/1098 1147/1099 1148/1100
f 1149/1101 1150/1102 1151/1103 1152/1104
f 1161/1105 1162/1106 1163/1107 1164/1108
f 1165/1109 1166/1110 1167/1111 1168/1112
f 1169/1113 1170/1114 1171/1115 1172/1116
f 1173/1117 1174/1118 1175/1119 1176/1120
f 1177/1121 1178/1122 1179/1123 1180/1124
f 1181/1125 1182/1126 1183/1127 1184/1128
f 1193/1129 1194/1130 1195/1131 1196/1132
f 1197/1133 1198/1134 1199/1135 1200/1136
f 1201/1137 1202/1138 1203/1139 1204/1140
f 1205/1141 1206/1142 1207/1143 1208/1144
f 1209/1145 1210/1146 1211/1147 1212/1148
f 1213/1149 1214/1150 1215/1151 1216/1152
f 1225/1153 1226/1154 1227/1155 1228/1156
f 1229/1157 1230/1158 1231/1159 1232/1160
f 1233/1161 1234/1162 1235/1163 1236/1164
f 1237/1165 1238/1166 1239/1167 1240/1168
f 1241/1169 1242/1170 1243/1171 1244/1172
f 1245/1173 1246/1174 1247/1175 1248/1176
f 1257/1177 1258/1178 1259/1179 1260/1180
f 1261/1181 1262/1182 1263/1183 1264/1184
f 1265/1185 1266/1186 1267/1187 1268/1188
f 1269/1189 1270/1190 1271/1191 1272/1192
f 1273/1193 1274/1194 1275/1195 1276/1196
f 1277/1197 1278/1198 1279/1199 1280/1200
f 1289/1201 1290/1202 1291/1203 1292/1204
f 1293/1205 1294/1206 1295/1207 1296/1208
f 1297/1209 1298/1210 1299/1211 1300/1212
f 1301/1213 1302/1214 1303/1215 1304/1216
f 1305/1217 1306/1218 1307/1219 1308/1220
f 1309/1221 1310/1222 1311/1223 1312/1224
f 1321/1225 1322/1226 1323/1227 1324/1228
f 1325/1229 1326/1230 1327/1231 1328/1232
f 1329/1233 1330/1234 1331/1235 1332/1236
f 1333/1237 1334/1238 1335/1239 1336/1240
f 1337/1241 1338/1242 1339/1243 1340/1244
f 1341/1245 1342/1246 1343/1247 1344/1248
f 1353/1249 1354/1250 1355/1251 1356/1252
f 1357/1253 1358/1254 1359/1255 1360/1256
f 1361/1257 1362/1258 1363/1259 1364/1260
f 1365/1261 1366/1262 1367/1263 1368/1264
f 1369/1265 1370/1266 1371/1267 1372/1268
f 1373/1269 1374/1270 1375/1271 1376/1272
f 1385/1273 1386/1274 1387/1275 1388/1276
f 1389/1277 1390/1278 1391/1279 1392/1280
f 1393/1281 1394/1282 1395/1283 1396/1284
f 1397/1285 1398/1286 1399/1287 1400/1288
f 1401/1289 1402/1290 1403/1291 1404/1292
f 1405/1293 1406/1294 1407/1295 1408/1296
f 1417/1297 1418/1298 1419/1299 1420/1300
f 1421/1301 1422/1302 1423/1303 1424/1304
f 1425/1305 1426/1306 1427/1307 1428/1308
f 1429/1309 1430/1310 1431/1311 1432/1312
f 1433/1313 1434/1314 1435/1315 1436/1316
f 1437/1317 1438/1318 1439/1319 1440/1320
f 1449/1321 1450/1322 1451/1323 1452/1324
f 1453/1325 1454/1326 1455/1327 1456/1328
f 1457/1329 1458/1330 1459/1331 1460/1332
f 1461/1333 1462/1334 1463/1335 1464/1336
f 1465/1337 1466/1338 1467/1339 1468/1340
f 1469/1341 1470/1342 1471/1343 1472/1344
