# RoastEngine Backrooms level
mtllib backrooms.mtl
v -60.0000 -0.5000 -60.0000
v -60.0000 -0.5000 60.0000
v 60.0000 -0.5000 60.0000
v 60.0000 -0.5000 -60.0000
v -60.0000 0.0000 -60.0000
v 60.0000 0.0000 -60.0000
v 60.0000 0.0000 60.0000
v -60.0000 0.0000 60.0000
v -60.0000 -0.5000 -60.0000
v 60.0000 -0.5000 -60.0000
v 60.0000 0.0000 -60.0000
v -60.0000 0.0000 -60.0000
v 60.0000 -0.5000 60.0000
v -60.0000 -0.5000 60.0000
v -60.0000 0.0000 60.0000
v 60.0000 0.0000 60.0000
v 60.0000 -0.5000 -60.0000
v 60.0000 -0.5000 60.0000
v 60.0000 0.0000 60.0000
v 60.0000 0.0000 -60.0000
v -60.0000 -0.5000 60.0000
v -60.0000 -0.5000 -60.0000
v -60.0000 0.0000 -60.0000
v -60.0000 0.0000 60.0000
v -60.0000 4.0000 -60.0000
v -60.0000 4.0000 60.0000
v 60.0000 4.0000 60.0000
v 60.0000 4.0000 -60.0000
v -60.0000 4.5000 -60.0000
v 60.0000 4.5000 -60.0000
v 60.0000 4.5000 60.0000
v -60.0000 4.5000 60.0000
v -60.0000 4.0000 -60.0000
v 60.0000 4.0000 -60.0000
v 60.0000 4.5000 -60.0000
v -60.0000 4.5000 -60.0000
v 60.0000 4.0000 60.0000
v -60.0000 4.0000 60.0000
v -60.0000 4.5000 60.0000
v 60.0000 4.5000 60.0000
v 60.0000 4.0000 -60.0000
v 60.0000 4.0000 60.0000
v 60.0000 4.5000 60.0000
v 60.0000 4.5000 -60.0000
v -60.0000 4.0000 60.0000
v -60.0000 4.0000 -60.0000
v -60.0000 4.5000 -60.0000
v -60.0000 4.5000 60.0000
v -60.0000 0.0000 -60.0000
v -60.0000 0.0000 60.0000
v -59.5000 0.0000 60.0000
v -59.5000 0.0000 -60.0000
v -60.0000 4.0000 -60.0000
v -59.5000 4.0000 -60.0000
v -59.5000 4.0000 60.0000
v -60.0000 4.0000 60.0000
v -60.0000 0.0000 -60.0000
v -59.5000 0.0000 -60.0000
v -59.5000 4.0000 -60.0000
v -60.0000 4.0000 -60.0000
v -59.5000 0.0000 60.0000
v -60.0000 0.0000 60.0000
v -60.0000 4.0000 60.0000
v -59.5000 4.0000 60.0000
v -59.5000 0.0000 -60.0000
v -59.5000 0.0000 60.0000
v -59.5000 4.0000 60.0000
v -59.5000 4.0000 -60.0000
v -60.0000 0.0000 60.0000
v -60.0000 0.0000 -60.0000
v -60.0000 4.0000 -60.0000
v -60.0000 4.0000 60.0000
v -60.0000 0.0000 -60.0000
v -60.0000 0.0000 -59.5000
v 60.0000 0.0000 -59.5000
v 60.0000 0.0000 -60.0000
v -60.0000 4.0000 -60.0000
v 60.0000 4.0000 -60.0000
v 60.0000 4.0000 -59.5000
v -60.0000 4.0000 -59.5000
v -60.0000 0.0000 -60.0000
v 60.0000 0.0000 -60.0000
v 60.0000 4.0000 -60.0000
v -60.0000 4.0000 -60.0000
v 60.0000 0.0000 -59.5000
v -60.0000 0.0000 -59.5000
v -60.0000 4.0000 -59.5000
v 60.0000 4.0000 -59.5000
v 60.0000 0.0000 -60.0000
v 60.0000 0.0000 -59.5000
v 60.0000 4.0000 -59.5000
v 60.0000 4.0000 -60.0000
v -60.0000 0.0000 -59.5000
v -60.0000 0.0000 -60.0000
v -60.0000 4.0000 -60.0000
v -60.0000 4.0000 -59.5000
v 59.5000 0.0000 -60.0000
v 59.5000 0.0000 60.0000
v 60.0000 0.0000 60.0000
v 60.0000 0.0000 -60.0000
v 59.5000 4.0000 -60.0000
v 60.0000 4.0000 -60.0000
v 60.0000 4.0000 60.0000
v 59.5000 4.0000 60.0000
v 59.5000 0.0000 -60.0000
v 60.0000 0.0000 -60.0000
v 60.0000 4.0000 -60.0000
v 59.5000 4.0000 -60.0000
v 60.0000 0.0000 60.0000
v 59.5000 0.0000 60.0000
v 59.5000 4.0000 60.0000
v 60.0000 4.0000 60.0000
v 60.0000 0.0000 -60.0000
v 60.0000 0.0000 60.0000
v 60.0000 4.0000 60.0000
v 60.0000 4.0000 -60.0000
v 59.5000 0.0000 60.0000
v 59.5000 0.0000 -60.0000
v 59.5000 4.0000 -60.0000
v 59.5000 4.0000 60.0000
v -60.0000 0.0000 59.5000
v -60.0000 0.0000 60.0000
v 60.0000 0.0000 60.0000
v 60.0000 0.0000 59.5000
v -60.0000 4.0000 59.5000
v 60.0000 4.0000 59.5000
v 60.0000 4.0000 60.0000
v -60.0000 4.0000 60.0000
v -60.0000 0.0000 59.5000
v 60.0000 0.0000 59.5000
v 60.0000 4.0000 59.5000
v -60.0000 4.0000 59.5000
v 60.0000 0.0000 60.0000
v -60.0000 0.0000 60.0000
v -60.0000 4.0000 60.0000
v 60.0000 4.0000 60.0000
v 60.0000 0.0000 59.5000
v 60.0000 0.0000 60.0000
v 60.0000 4.0000 60.0000
v 60.0000 4.0000 59.5000
v -60.0000 0.0000 60.0000
v -60.0000 0.0000 59.5000
v -60.0000 4.0000 59.5000
v -60.0000 4.0000 60.0000
v -13.6238 0.0000 30.7227
v -13.6238 0.0000 32.6496
v -11.9146 0.0000 32.6496
v -11.9146 0.0000 30.7227
v -13.6238 0.0100 30.7227
v -11.9146 0.0100 30.7227
v -11.9146 0.0100 32.6496
v -13.6238 0.0100 32.6496
v -13.6238 0.0000 30.7227
v -11.9146 0.0000 30.7227
v -11.9146 0.0100 30.7227
v -13.6238 0.0100 30.7227
v -11.9146 0.0000 32.6496
v -13.6238 0.0000 32.6496
v -13.6238 0.0100 32.6496
v -11.9146 0.0100 32.6496
v -11.9146 0.0000 30.7227
v -11.9146 0.0000 32.6496
v -11.9146 0.0100 32.6496
v -11.9146 0.0100 30.7227
v -13.6238 0.0000 32.6496
v -13.6238 0.0000 30.7227
v -13.6238 0.0100 30.7227
v -13.6238 0.0100 32.6496
v -44.3629 0.0000 42.8194
v -44.3629 0.0000 45.5842
v -41.8247 0.0000 45.5842
v -41.8247 0.0000 42.8194
v -44.3629 0.0100 42.8194
v -41.8247 0.0100 42.8194
v -41.8247 0.0100 45.5842
v -44.3629 0.0100 45.5842
v -44.3629 0.0000 42.8194
v -41.8247 0.0000 42.8194
v -41.8247 0.0100 42.8194
v -44.3629 0.0100 42.8194
v -41.8247 0.0000 45.5842
v -44.3629 0.0000 45.5842
v -44.3629 0.0100 45.5842
v -41.8247 0.0100 45.5842
v -41.8247 0.0000 42.8194
v -41.8247 0.0000 45.5842
v -41.8247 0.0100 45.5842
v -41.8247 0.0100 42.8194
v -44.3629 0.0000 45.5842
v -44.3629 0.0000 42.8194
v -44.3629 0.0100 42.8194
v -44.3629 0.0100 45.5842
v -4.7737 0.0000 -3.8083
v -4.7737 0.0000 -1.5131
v -2.2241 0.0000 -1.5131
v -2.2241 0.0000 -3.8083
v -4.7737 0.0100 -3.8083
v -2.2241 0.0100 -3.8083
v -2.2241 0.0100 -1.5131
v -4.7737 0.0100 -1.5131
v -4.7737 0.0000 -3.8083
v -2.2241 0.0000 -3.8083
v -2.2241 0.0100 -3.8083
v -4.7737 0.0100 -3.8083
v -2.2241 0.0000 -1.5131
v -4.7737 0.0000 -1.5131
v -4.7737 0.0100 -1.5131
v -2.2241 0.0100 -1.5131
v -2.2241 0.0000 -3.8083
v -2.2241 0.0000 -1.5131
v -2.2241 0.0100 -1.5131
v -2.2241 0.0100 -3.8083
v -4.7737 0.0000 -1.5131
v -4.7737 0.0000 -3.8083
v -4.7737 0.0100 -3.8083
v -4.7737 0.0100 -1.5131
v -35.1017 0.0000 -13.3037
v -35.1017 0.0000 -12.0882
v -33.5254 0.0000 -12.0882
v -33.5254 0.0000 -13.3037
v -35.1017 0.0100 -13.3037
v -33.5254 0.0100 -13.3037
v -33.5254 0.0100 -12.0882
v -35.1017 0.0100 -12.0882
v -35.1017 0.0000 -13.3037
v -33.5254 0.0000 -13.3037
v -33.5254 0.0100 -13.3037
v -35.1017 0.0100 -13.3037
v -33.5254 0.0000 -12.0882
v -35.1017 0.0000 -12.0882
v -35.1017 0.0100 -12.0882
v -33.5254 0.0100 -12.0882
v -33.5254 0.0000 -13.3037
v -33.5254 0.0000 -12.0882
v -33.5254 0.0100 -12.0882
v -33.5254 0.0100 -13.3037
v -35.1017 0.0000 -12.0882
v -35.1017 0.0000 -13.3037
v -35.1017 0.0100 -13.3037
v -35.1017 0.0100 -12.0882
v 32.0811 0.0000 36.3769
v 32.0811 0.0000 39.3862
v 35.5536 0.0000 39.3862
v 35.5536 0.0000 36.3769
v 32.0811 0.0100 36.3769
v 35.5536 0.0100 36.3769
v 35.5536 0.0100 39.3862
v 32.0811 0.0100 39.3862
v 32.0811 0.0000 36.3769
v 35.5536 0.0000 36.3769
v 35.5536 0.0100 36.3769
v 32.0811 0.0100 36.3769
v 35.5536 0.0000 39.3862
v 32.0811 0.0000 39.3862
v 32.0811 0.0100 39.3862
v 35.5536 0.0100 39.3862
v 35.5536 0.0000 36.3769
v 35.5536 0.0000 39.3862
v 35.5536 0.0100 39.3862
v 35.5536 0.0100 36.3769
v 32.0811 0.0000 39.3862
v 32.0811 0.0000 36.3769
v 32.0811 0.0100 36.3769
v 32.0811 0.0100 39.3862
v 6.5158 0.0000 35.7831
v 6.5158 0.0000 37.1578
v 8.0159 0.0000 37.1578
v 8.0159 0.0000 35.7831
v 6.5158 0.0100 35.7831
v 8.0159 0.0100 35.7831
v 8.0159 0.0100 37.1578
v 6.5158 0.0100 37.1578
v 6.5158 0.0000 35.7831
v 8.0159 0.0000 35.7831
v 8.0159 0.0100 35.7831
v 6.5158 0.0100 35.7831
v 8.0159 0.0000 37.1578
v 6.5158 0.0000 37.1578
v 6.5158 0.0100 37.1578
v 8.0159 0.0100 37.1578
v 8.0159 0.0000 35.7831
v 8.0159 0.0000 37.1578
v 8.0159 0.0100 37.1578
v 8.0159 0.0100 35.7831
v 6.5158 0.0000 37.1578
v 6.5158 0.0000 35.7831
v 6.5158 0.0100 35.7831
v 6.5158 0.0100 37.1578
v -45.5523 0.0000 -32.4905
v -45.5523 0.0000 -30.4518
v -43.9482 0.0000 -30.4518
v -43.9482 0.0000 -32.4905
v -45.5523 0.0100 -32.4905
v -43.9482 0.0100 -32.4905
v -43.9482 0.0100 -30.4518
v -45.5523 0.0100 -30.4518
v -45.5523 0.0000 -32.4905
v -43.9482 0.0000 -32.4905
v -43.9482 0.0100 -32.4905
v -45.5523 0.0100 -32.4905
v -43.9482 0.0000 -30.4518
v -45.5523 0.0000 -30.4518
v -45.5523 0.0100 -30.4518
v -43.9482 0.0100 -30.4518
v -43.9482 0.0000 -32.4905
v -43.9482 0.0000 -30.4518
v -43.9482 0.0100 -30.4518
v -43.9482 0.0100 -32.4905
v -45.5523 0.0000 -30.4518
v -45.5523 0.0000 -32.4905
v -45.5523 0.0100 -32.4905
v -45.5523 0.0100 -30.4518
v -42.0839 0.0000 9.5890
v -42.0839 0.0000 10.5387
v -40.7704 0.0000 10.5387
v -40.7704 0.0000 9.5890
v -42.0839 0.0100 9.5890
v -40.7704 0.0100 9.5890
v -40.7704 0.0100 10.5387
v -42.0839 0.0100 10.5387
v -42.0839 0.0000 9.5890
v -40.7704 0.0000 9.5890
v -40.7704 0.0100 9.5890
v -42.0839 0.0100 9.5890
v -40.7704 0.0000 10.5387
v -42.0839 0.0000 10.5387
v -42.0839 0.0100 10.5387
v -40.7704 0.0100 10.5387
v -40.7704 0.0000 9.5890
v -40.7704 0.0000 10.5387
v -40.7704 0.0100 10.5387
v -40.7704 0.0100 9.5890
v -42.0839 0.0000 10.5387
v -42.0839 0.0000 9.5890
v -42.0839 0.0100 9.5890
v -42.0839 0.0100 10.5387
v -4.7234 0.0000 -35.8470
v -4.7234 0.0000 -33.4963
v -2.8000 0.0000 -33.4963
v -2.8000 0.0000 -35.8470
v -4.7234 0.0100 -35.8470
v -2.8000 0.0100 -35.8470
v -2.8000 0.0100 -33.4963
v -4.7234 0.0100 -33.4963
v -4.7234 0.0000 -35.8470
v -2.8000 0.0000 -35.8470
v -2.8000 0.0100 -35.8470
v -4.7234 0.0100 -35.8470
v -2.8000 0.0000 -33.4963
v -4.7234 0.0000 -33.4963
v -4.7234 0.0100 -33.4963
v -2.8000 0.0100 -33.4963
v -2.8000 0.0000 -35.8470
v -2.8000 0.0000 -33.4963
v -2.8000 0.0100 -33.4963
v -2.8000 0.0100 -35.8470
v -4.7234 0.0000 -33.4963
v -4.7234 0.0000 -35.8470
v -4.7234 0.0100 -35.8470
v -4.7234 0.0100 -33.4963
v 18.4389 0.0000 -54.2399
v 18.4389 0.0000 -51.9010
v 21.4651 0.0000 -51.9010
v 21.4651 0.0000 -54.2399
v 18.4389 0.0100 -54.2399
v 21.4651 0.0100 -54.2399
v 21.4651 0.0100 -51.9010
v 18.4389 0.0100 -51.9010
v 18.4389 0.0000 -54.2399
v 21.4651 0.0000 -54.2399
v 21.4651 0.0100 -54.2399
v 18.4389 0.0100 -54.2399
v 21.4651 0.0000 -51.9010
v 18.4389 0.0000 -51.9010
v 18.4389 0.0100 -51.9010
v 21.4651 0.0100 -51.9010
v 21.4651 0.0000 -54.2399
v 21.4651 0.0000 -51.9010
v 21.4651 0.0100 -51.9010
v 21.4651 0.0100 -54.2399
v 18.4389 0.0000 -51.9010
v 18.4389 0.0000 -54.2399
v 18.4389 0.0100 -54.2399
v 18.4389 0.0100 -51.9010
v 19.8861 0.0000 30.7026
v 19.8861 0.0000 33.2530
v 22.3767 0.0000 33.2530
v 22.3767 0.0000 30.7026
v 19.8861 0.0100 30.7026
v 22.3767 0.0100 30.7026
v 22.3767 0.0100 33.2530
v 19.8861 0.0100 33.2530
v 19.8861 0.0000 30.7026
v 22.3767 0.0000 30.7026
v 22.3767 0.0100 30.7026
v 19.8861 0.0100 30.7026
v 22.3767 0.0000 33.2530
v 19.8861 0.0000 33.2530
v 19.8861 0.0100 33.2530
v 22.3767 0.0100 33.2530
v 22.3767 0.0000 30.7026
v 22.3767 0.0000 33.2530
v 22.3767 0.0100 33.2530
v 22.3767 0.0100 30.7026
v 19.8861 0.0000 33.2530
v 19.8861 0.0000 30.7026
v 19.8861 0.0100 30.7026
v 19.8861 0.0100 33.2530
v 28.0220 0.0000 -15.2990
v 28.0220 0.0000 -13.4595
v 29.5671 0.0000 -13.4595
v 29.5671 0.0000 -15.2990
v 28.0220 0.0100 -15.2990
v 29.5671 0.0100 -15.2990
v 29.5671 0.0100 -13.4595
v 28.0220 0.0100 -13.4595
v 28.0220 0.0000 -15.2990
v 29.5671 0.0000 -15.2990
v 29.5671 0.0100 -15.2990
v 28.0220 0.0100 -15.2990
v 29.5671 0.0000 -13.4595
v 28.0220 0.0000 -13.4595
v 28.0220 0.0100 -13.4595
v 29.5671 0.0100 -13.4595
v 29.5671 0.0000 -15.2990
v 29.5671 0.0000 -13.4595
v 29.5671 0.0100 -13.4595
v 29.5671 0.0100 -15.2990
v 28.0220 0.0000 -13.4595
v 28.0220 0.0000 -15.2990
v 28.0220 0.0100 -15.2990
v 28.0220 0.0100 -13.4595
v 12.6731 0.0000 -56.2994
v 12.6731 0.0000 -55.5527
v 13.7928 0.0000 -55.5527
v 13.7928 0.0000 -56.2994
v 12.6731 0.0100 -56.2994
v 13.7928 0.0100 -56.2994
v 13.7928 0.0100 -55.5527
v 12.6731 0.0100 -55.5527
v 12.6731 0.0000 -56.2994
v 13.7928 0.0000 -56.2994
v 13.7928 0.0100 -56.2994
v 12.6731 0.0100 -56.2994
v 13.7928 0.0000 -55.5527
v 12.6731 0.0000 -55.5527
v 12.6731 0.0100 -55.5527
v 13.7928 0.0100 -55.5527
v 13.7928 0.0000 -56.2994
v 13.7928 0.0000 -55.5527
v 13.7928 0.0100 -55.5527
v 13.7928 0.0100 -56.2994
v 12.6731 0.0000 -55.5527
v 12.6731 0.0000 -56.2994
v 12.6731 0.0100 -56.2994
v 12.6731 0.0100 -55.5527
v 14.4503 0.0000 -23.9995
v 14.4503 0.0000 -22.5529
v 15.7783 0.0000 -22.5529
v 15.7783 0.0000 -23.9995
v 14.4503 0.0100 -23.9995
v 15.7783 0.0100 -23.9995
v 15.7783 0.0100 -22.5529
v 14.4503 0.0100 -22.5529
v 14.4503 0.0000 -23.9995
v 15.7783 0.0000 -23.9995
v 15.7783 0.0100 -23.9995
v 14.4503 0.0100 -23.9995
v 15.7783 0.0000 -22.5529
v 14.4503 0.0000 -22.5529
v 14.4503 0.0100 -22.5529
v 15.7783 0.0100 -22.5529
v 15.7783 0.0000 -23.9995
v 15.7783 0.0000 -22.5529
v 15.7783 0.0100 -22.5529
v 15.7783 0.0100 -23.9995
v 14.4503 0.0000 -22.5529
v 14.4503 0.0000 -23.9995
v 14.4503 0.0100 -23.9995
v 14.4503 0.0100 -22.5529
v -42.2470 0.0000 43.6198
v -42.2470 0.0000 46.4318
v -39.5486 0.0000 46.4318
v -39.5486 0.0000 43.6198
v -42.2470 0.0100 43.6198
v -39.5486 0.0100 43.6198
v -39.5486 0.0100 46.4318
v -42.2470 0.0100 46.4318
v -42.2470 0.0000 43.6198
v -39.5486 0.0000 43.6198
v -39.5486 0.0100 43.6198
v -42.2470 0.0100 43.6198
v -39.5486 0.0000 46.4318
v -42.2470 0.0000 46.4318
v -42.2470 0.0100 46.4318
v -39.5486 0.0100 46.4318
v -39.5486 0.0000 43.6198
v -39.5486 0.0000 46.4318
v -39.5486 0.0100 46.4318
v -39.5486 0.0100 43.6198
v -42.2470 0.0000 46.4318
v -42.2470 0.0000 43.6198
v -42.2470 0.0100 43.6198
v -42.2470 0.0100 46.4318
v -28.2674 0.0000 -45.4395
v -28.2674 0.0000 -42.9494
v -25.7542 0.0000 -42.9494
v -25.7542 0.0000 -45.4395
v -28.2674 0.0100 -45.4395
v -25.7542 0.0100 -45.4395
v -25.7542 0.0100 -42.9494
v -28.2674 0.0100 -42.9494
v -28.2674 0.0000 -45.4395
v -25.7542 0.0000 -45.4395
v -25.7542 0.0100 -45.4395
v -28.2674 0.0100 -45.4395
v -25.7542 0.0000 -42.9494
v -28.2674 0.0000 -42.9494
v -28.2674 0.0100 -42.9494
v -25.7542 0.0100 -42.9494
v -25.7542 0.0000 -45.4395
v -25.7542 0.0000 -42.9494
v -25.7542 0.0100 -42.9494
v -25.7542 0.0100 -45.4395
v -28.2674 0.0000 -42.9494
v -28.2674 0.0000 -45.4395
v -28.2674 0.0100 -45.4395
v -28.2674 0.0100 -42.9494
v 34.5251 0.0000 32.7169
v 34.5251 0.0000 36.5046
v 37.9403 0.0000 36.5046
v 37.9403 0.0000 32.7169
v 34.5251 0.0100 32.7169
v 37.9403 0.0100 32.7169
v 37.9403 0.0100 36.5046
v 34.5251 0.0100 36.5046
v 34.5251 0.0000 32.7169
v 37.9403 0.0000 32.7169
v 37.9403 0.0100 32.7169
v 34.5251 0.0100 32.7169
v 37.9403 0.0000 36.5046
v 34.5251 0.0000 36.5046
v 34.5251 0.0100 36.5046
v 37.9403 0.0100 36.5046
v 37.9403 0.0000 32.7169
v 37.9403 0.0000 36.5046
v 37.9403 0.0100 36.5046
v 37.9403 0.0100 32.7169
v 34.5251 0.0000 36.5046
v 34.5251 0.0000 32.7169
v 34.5251 0.0100 32.7169
v 34.5251 0.0100 36.5046
v 36.3097 0.0000 -43.8753
v 36.3097 0.0000 -42.0656
v 37.6092 0.0000 -42.0656
v 37.6092 0.0000 -43.8753
v 36.3097 0.0100 -43.8753
v 37.6092 0.0100 -43.8753
v 37.6092 0.0100 -42.0656
v 36.3097 0.0100 -42.0656
v 36.3097 0.0000 -43.8753
v 37.6092 0.0000 -43.8753
v 37.6092 0.0100 -43.8753
v 36.3097 0.0100 -43.8753
v 37.6092 0.0000 -42.0656
v 36.3097 0.0000 -42.0656
v 36.3097 0.0100 -42.0656
v 37.6092 0.0100 -42.0656
v 37.6092 0.0000 -43.8753
v 37.6092 0.0000 -42.0656
v 37.6092 0.0100 -42.0656
v 37.6092 0.0100 -43.8753
v 36.3097 0.0000 -42.0656
v 36.3097 0.0000 -43.8753
v 36.3097 0.0100 -43.8753
v 36.3097 0.0100 -42.0656
v 46.0216 0.0000 -49.5123
v 46.0216 0.0000 -48.3031
v 47.2182 0.0000 -48.3031
v 47.2182 0.0000 -49.5123
v 46.0216 0.0100 -49.5123
v 47.2182 0.0100 -49.5123
v 47.2182 0.0100 -48.3031
v 46.0216 0.0100 -48.3031
v 46.0216 0.0000 -49.5123
v 47.2182 0.0000 -49.5123
v 47.2182 0.0100 -49.5123
v 46.0216 0.0100 -49.5123
v 47.2182 0.0000 -48.3031
v 46.0216 0.0000 -48.3031
v 46.0216 0.0100 -48.3031
v 47.2182 0.0100 -48.3031
v 47.2182 0.0000 -49.5123
v 47.2182 0.0000 -48.3031
v 47.2182 0.0100 -48.3031
v 47.2182 0.0100 -49.5123
v 46.0216 0.0000 -48.3031
v 46.0216 0.0000 -49.5123
v 46.0216 0.0100 -49.5123
v 46.0216 0.0100 -48.3031
v 33.5875 0.0000 7.4991
v 33.5875 0.0000 9.2231
v 35.2350 0.0000 9.2231
v 35.2350 0.0000 7.4991
v 33.5875 0.0100 7.4991
v 35.2350 0.0100 7.4991
v 35.2350 0.0100 9.2231
v 33.5875 0.0100 9.2231
v 33.5875 0.0000 7.4991
v 35.2350 0.0000 7.4991
v 35.2350 0.0100 7.4991
v 33.5875 0.0100 7.4991
v 35.2350 0.0000 9.2231
v 33.5875 0.0000 9.2231
v 33.5875 0.0100 9.2231
v 35.2350 0.0100 9.2231
v 35.2350 0.0000 7.4991
v 35.2350 0.0000 9.2231
v 35.2350 0.0100 9.2231
v 35.2350 0.0100 7.4991
v 33.5875 0.0000 9.2231
v 33.5875 0.0000 7.4991
v 33.5875 0.0100 7.4991
v 33.5875 0.0100 9.2231
v -24.9289 0.0000 55.1291
v -24.9289 0.0000 57.5433
v -22.1672 0.0000 57.5433
v -22.1672 0.0000 55.1291
v -24.9289 0.0100 55.1291
v -22.1672 0.0100 55.1291
v -22.1672 0.0100 57.5433
v -24.9289 0.0100 57.5433
v -24.9289 0.0000 55.1291
v -22.1672 0.0000 55.1291
v -22.1672 0.0100 55.1291
v -24.9289 0.0100 55.1291
v -22.1672 0.0000 57.5433
v -24.9289 0.0000 57.5433
v -24.9289 0.0100 57.5433
v -22.1672 0.0100 57.5433
v -22.1672 0.0000 55.1291
v -22.1672 0.0000 57.5433
v -22.1672 0.0100 57.5433
v -22.1672 0.0100 55.1291
v -24.9289 0.0000 57.5433
v -24.9289 0.0000 55.1291
v -24.9289 0.0100 55.1291
v -24.9289 0.0100 57.5433
v -38.0921 0.0000 21.3045
v -38.0921 0.0000 23.9719
v -35.9208 0.0000 23.9719
v -35.9208 0.0000 21.3045
v -38.0921 0.0100 21.3045
v -35.9208 0.0100 21.3045
v -35.9208 0.0100 23.9719
v -38.0921 0.0100 23.9719
v -38.0921 0.0000 21.3045
v -35.9208 0.0000 21.3045
v -35.9208 0.0100 21.3045
v -38.0921 0.0100 21.3045
v -35.9208 0.0000 23.9719
v -38.0921 0.0000 23.9719
v -38.0921 0.0100 23.9719
v -35.9208 0.0100 23.9719
v -35.9208 0.0000 21.3045
v -35.9208 0.0000 23.9719
v -35.9208 0.0100 23.9719
v -35.9208 0.0100 21.3045
v -38.0921 0.0000 23.9719
v -38.0921 0.0000 21.3045
v -38.0921 0.0100 21.3045
v -38.0921 0.0100 23.9719
v 10.1126 0.0000 -29.3329
v 10.1126 0.0000 -26.2586
v 12.8777 0.0000 -26.2586
v 12.8777 0.0000 -29.3329
v 10.1126 0.0100 -29.3329
v 12.8777 0.0100 -29.3329
v 12.8777 0.0100 -26.2586
v 10.1126 0.0100 -26.2586
v 10.1126 0.0000 -29.3329
v 12.8777 0.0000 -29.3329
v 12.8777 0.0100 -29.3329
v 10.1126 0.0100 -29.3329
v 12.8777 0.0000 -26.2586
v 10.1126 0.0000 -26.2586
v 10.1126 0.0100 -26.2586
v 12.8777 0.0100 -26.2586
v 12.8777 0.0000 -29.3329
v 12.8777 0.0000 -26.2586
v 12.8777 0.0100 -26.2586
v 12.8777 0.0100 -29.3329
v 10.1126 0.0000 -26.2586
v 10.1126 0.0000 -29.3329
v 10.1126 0.0100 -29.3329
v 10.1126 0.0100 -26.2586
v 3.1203 0.0000 -56.3883
v 3.1203 0.0000 -54.9515
v 5.3401 0.0000 -54.9515
v 5.3401 0.0000 -56.3883
v 3.1203 0.0100 -56.3883
v 5.3401 0.0100 -56.3883
v 5.3401 0.0100 -54.9515
v 3.1203 0.0100 -54.9515
v 3.1203 0.0000 -56.3883
v 5.3401 0.0000 -56.3883
v 5.3401 0.0100 -56.3883
v 3.1203 0.0100 -56.3883
v 5.3401 0.0000 -54.9515
v 3.1203 0.0000 -54.9515
v 3.1203 0.0100 -54.9515
v 5.3401 0.0100 -54.9515
v 5.3401 0.0000 -56.3883
v 5.3401 0.0000 -54.9515
v 5.3401 0.0100 -54.9515
v 5.3401 0.0100 -56.3883
v 3.1203 0.0000 -54.9515
v 3.1203 0.0000 -56.3883
v 3.1203 0.0100 -56.3883
v 3.1203 0.0100 -54.9515
v 52.8914 0.0000 16.2440
v 52.8914 0.0000 18.7280
v 55.0437 0.0000 18.7280
v 55.0437 0.0000 16.2440
v 52.8914 0.0100 16.2440
v 55.0437 0.0100 16.2440
v 55.0437 0.0100 18.7280
v 52.8914 0.0100 18.7280
v 52.8914 0.0000 16.2440
v 55.0437 0.0000 16.2440
v 55.0437 0.0100 16.2440
v 52.8914 0.0100 16.2440
v 55.0437 0.0000 18.7280
v 52.8914 0.0000 18.7280
v 52.8914 0.0100 18.7280
v 55.0437 0.0100 18.7280
v 55.0437 0.0000 16.2440
v 55.0437 0.0000 18.7280
v 55.0437 0.0100 18.7280
v 55.0437 0.0100 16.2440
v 52.8914 0.0000 18.7280
v 52.8914 0.0000 16.2440
v 52.8914 0.0100 16.2440
v 52.8914 0.0100 18.7280
v 49.2369 0.0000 -20.8621
v 49.2369 0.0000 -17.6191
v 52.0604 0.0000 -17.6191
v 52.0604 0.0000 -20.8621
v 49.2369 0.0100 -20.8621
v 52.0604 0.0100 -20.8621
v 52.0604 0.0100 -17.6191
v 49.2369 0.0100 -17.6191
v 49.2369 0.0000 -20.8621
v 52.0604 0.0000 -20.8621
v 52.0604 0.0100 -20.8621
v 49.2369 0.0100 -20.8621
v 52.0604 0.0000 -17.6191
v 49.2369 0.0000 -17.6191
v 49.2369 0.0100 -17.6191
v 52.0604 0.0100 -17.6191
v 52.0604 0.0000 -20.8621
v 52.0604 0.0000 -17.6191
v 52.0604 0.0100 -17.6191
v 52.0604 0.0100 -20.8621
v 49.2369 0.0000 -17.6191
v 49.2369 0.0000 -20.8621
v 49.2369 0.0100 -20.8621
v 49.2369 0.0100 -17.6191
v 47.9762 0.0000 -21.5699
v 47.9762 0.0000 -19.7596
v 49.4175 0.0000 -19.7596
v 49.4175 0.0000 -21.5699
v 47.9762 0.0100 -21.5699
v 49.4175 0.0100 -21.5699
v 49.4175 0.0100 -19.7596
v 47.9762 0.0100 -19.7596
v 47.9762 0.0000 -21.5699
v 49.4175 0.0000 -21.5699
v 49.4175 0.0100 -21.5699
v 47.9762 0.0100 -21.5699
v 49.4175 0.0000 -19.7596
v 47.9762 0.0000 -19.7596
v 47.9762 0.0100 -19.7596
v 49.4175 0.0100 -19.7596
v 49.4175 0.0000 -21.5699
v 49.4175 0.0000 -19.7596
v 49.4175 0.0100 -19.7596
v 49.4175 0.0100 -21.5699
v 47.9762 0.0000 -19.7596
v 47.9762 0.0000 -21.5699
v 47.9762 0.0100 -21.5699
v 47.9762 0.0100 -19.7596
v 19.6907 0.0000 41.7117
v 19.6907 0.0000 43.1262
v 20.7879 0.0000 43.1262
v 20.7879 0.0000 41.7117
v 19.6907 0.0100 41.7117
v 20.7879 0.0100 41.7117
v 20.7879 0.0100 43.1262
v 19.6907 0.0100 43.1262
v 19.6907 0.0000 41.7117
v 20.7879 0.0000 41.7117
v 20.7879 0.0100 41.7117
v 19.6907 0.0100 41.7117
v 20.7879 0.0000 43.1262
v 19.6907 0.0000 43.1262
v 19.6907 0.0100 43.1262
v 20.7879 0.0100 43.1262
v 20.7879 0.0000 41.7117
v 20.7879 0.0000 43.1262
v 20.7879 0.0100 43.1262
v 20.7879 0.0100 41.7117
v 19.6907 0.0000 43.1262
v 19.6907 0.0000 41.7117
v 19.6907 0.0100 41.7117
v 19.6907 0.0100 43.1262
v 46.4906 0.0000 39.5742
v 46.4906 0.0000 42.8042
v 49.8315 0.0000 42.8042
v 49.8315 0.0000 39.5742
v 46.4906 0.0100 39.5742
v 49.8315 0.0100 39.5742
v 49.8315 0.0100 42.8042
v 46.4906 0.0100 42.8042
v 46.4906 0.0000 39.5742
v 49.8315 0.0000 39.5742
v 49.8315 0.0100 39.5742
v 46.4906 0.0100 39.5742
v 49.8315 0.0000 42.8042
v 46.4906 0.0000 42.8042
v 46.4906 0.0100 42.8042
v 49.8315 0.0100 42.8042
v 49.8315 0.0000 39.5742
v 49.8315 0.0000 42.8042
v 49.8315 0.0100 42.8042
v 49.8315 0.0100 39.5742
v 46.4906 0.0000 42.8042
v 46.4906 0.0000 39.5742
v 46.4906 0.0100 39.5742
v 46.4906 0.0100 42.8042
v 40.2402 0.0000 28.4094
v 40.2402 0.0000 31.2233
v 42.6693 0.0000 31.2233
v 42.6693 0.0000 28.4094
v 40.2402 0.0100 28.4094
v 42.6693 0.0100 28.4094
v 42.6693 0.0100 31.2233
v 40.2402 0.0100 31.2233
v 40.2402 0.0000 28.4094
v 42.6693 0.0000 28.4094
v 42.6693 0.0100 28.4094
v 40.2402 0.0100 28.4094
v 42.6693 0.0000 31.2233
v 40.2402 0.0000 31.2233
v 40.2402 0.0100 31.2233
v 42.6693 0.0100 31.2233
v 42.6693 0.0000 28.4094
v 42.6693 0.0000 31.2233
v 42.6693 0.0100 31.2233
v 42.6693 0.0100 28.4094
v 40.2402 0.0000 31.2233
v 40.2402 0.0000 28.4094
v 40.2402 0.0100 28.4094
v 40.2402 0.0100 31.2233
v 57.7881 0.0000 -42.4414
v 57.7881 0.0000 -40.6939
v 60.2553 0.0000 -40.6939
v 60.2553 0.0000 -42.4414
v 57.7881 0.0100 -42.4414
v 60.2553 0.0100 -42.4414
v 60.2553 0.0100 -40.6939
v 57.7881 0.0100 -40.6939
v 57.7881 0.0000 -42.4414
v 60.2553 0.0000 -42.4414
v 60.2553 0.0100 -42.4414
v 57.7881 0.0100 -42.4414
v 60.2553 0.0000 -40.6939
v 57.7881 0.0000 -40.6939
v 57.7881 0.0100 -40.6939
v 60.2553 0.0100 -40.6939
v 60.2553 0.0000 -42.4414
v 60.2553 0.0000 -40.6939
v 60.2553 0.0100 -40.6939
v 60.2553 0.0100 -42.4414
v 57.7881 0.0000 -40.6939
v 57.7881 0.0000 -42.4414
v 57.7881 0.0100 -42.4414
v 57.7881 0.0100 -40.6939
v -13.9275 0.0000 -24.8804
v -13.9275 0.0000 -23.8473
v -12.7399 0.0000 -23.8473
v -12.7399 0.0000 -24.8804
v -13.9275 0.0100 -24.8804
v -12.7399 0.0100 -24.8804
v -12.7399 0.0100 -23.8473
v -13.9275 0.0100 -23.8473
v -13.9275 0.0000 -24.8804
v -12.7399 0.0000 -24.8804
v -12.7399 0.0100 -24.8804
v -13.9275 0.0100 -24.8804
v -12.7399 0.0000 -23.8473
v -13.9275 0.0000 -23.8473
v -13.9275 0.0100 -23.8473
v -12.7399 0.0100 -23.8473
v -12.7399 0.0000 -24.8804
v -12.7399 0.0000 -23.8473
v -12.7399 0.0100 -23.8473
v -12.7399 0.0100 -24.8804
v -13.9275 0.0000 -23.8473
v -13.9275 0.0000 -24.8804
v -13.9275 0.0100 -24.8804
v -13.9275 0.0100 -23.8473
v 54.0101 0.0000 33.3075
v 54.0101 0.0000 34.8795
v 56.3845 0.0000 34.8795
v 56.3845 0.0000 33.3075
v 54.0101 0.0100 33.3075
v 56.3845 0.0100 33.3075
v 56.3845 0.0100 34.8795
v 54.0101 0.0100 34.8795
v 54.0101 0.0000 33.3075
v 56.3845 0.0000 33.3075
v 56.3845 0.0100 33.3075
v 54.0101 0.0100 33.3075
v 56.3845 0.0000 34.8795
v 54.0101 0.0000 34.8795
v 54.0101 0.0100 34.8795
v 56.3845 0.0100 34.8795
v 56.3845 0.0000 33.3075
v 56.3845 0.0000 34.8795
v 56.3845 0.0100 34.8795
v 56.3845 0.0100 33.3075
v 54.0101 0.0000 34.8795
v 54.0101 0.0000 33.3075
v 54.0101 0.0100 33.3075
v 54.0101 0.0100 34.8795
v 2.4784 0.0000 -54.2132
v 2.4784 0.0000 -52.7881
v 4.0803 0.0000 -52.7881
v 4.0803 0.0000 -54.2132
v 2.4784 0.0100 -54.2132
v 4.0803 0.0100 -54.2132
v 4.0803 0.0100 -52.7881
v 2.4784 0.0100 -52.7881
v 2.4784 0.0000 -54.2132
v 4.0803 0.0000 -54.2132
v 4.0803 0.0100 -54.2132
v 2.4784 0.0100 -54.2132
v 4.0803 0.0000 -52.7881
v 2.4784 0.0000 -52.7881
v 2.4784 0.0100 -52.7881
v 4.0803 0.0100 -52.7881
v 4.0803 0.0000 -54.2132
v 4.0803 0.0000 -52.7881
v 4.0803 0.0100 -52.7881
v 4.0803 0.0100 -54.2132
v 2.4784 0.0000 -52.7881
v 2.4784 0.0000 -54.2132
v 2.4784 0.0100 -54.2132
v 2.4784 0.0100 -52.7881
v 16.4086 0.0000 -30.0450
v 16.4086 0.0000 -28.5289
v 17.8549 0.0000 -28.5289
v 17.8549 0.0000 -30.0450
v 16.4086 0.0100 -30.0450
v 17.8549 0.0100 -30.0450
v 17.8549 0.0100 -28.5289
v 16.4086 0.0100 -28.5289
v 16.4086 0.0000 -30.0450
v 17.8549 0.0000 -30.0450
v 17.8549 0.0100 -30.0450
v 16.4086 0.0100 -30.0450
v 17.8549 0.0000 -28.5289
v 16.4086 0.0000 -28.5289
v 16.4086 0.0100 -28.5289
v 17.8549 0.0100 -28.5289
v 17.8549 0.0000 -30.0450
v 17.8549 0.0000 -28.5289
v 17.8549 0.0100 -28.5289
v 17.8549 0.0100 -30.0450
v 16.4086 0.0000 -28.5289
v 16.4086 0.0000 -30.0450
v 16.4086 0.0100 -30.0450
v 16.4086 0.0100 -28.5289
v 19.4663 0.0000 -56.9238
v 19.4663 0.0000 -55.0015
v 22.3108 0.0000 -55.0015
v 22.3108 0.0000 -56.9238
v 19.4663 0.0100 -56.9238
v 22.3108 0.0100 -56.9238
v 22.3108 0.0100 -55.0015
v 19.4663 0.0100 -55.0015
v 19.4663 0.0000 -56.9238
v 22.3108 0.0000 -56.9238
v 22.3108 0.0100 -56.9238
v 19.4663 0.0100 -56.9238
v 22.3108 0.0000 -55.0015
v 19.4663 0.0000 -55.0015
v 19.4663 0.0100 -55.0015
v 22.3108 0.0100 -55.0015
v 22.3108 0.0000 -56.9238
v 22.3108 0.0000 -55.0015
v 22.3108 0.0100 -55.0015
v 22.3108 0.0100 -56.9238
v 19.4663 0.0000 -55.0015
v 19.4663 0.0000 -56.9238
v 19.4663 0.0100 -56.9238
v 19.4663 0.0100 -55.0015
v 8.0418 0.0000 -10.9961
v 8.0418 0.0000 -8.2361
v 10.1399 0.0000 -8.2361
v 10.1399 0.0000 -10.9961
v 8.0418 0.0100 -10.9961
v 10.1399 0.0100 -10.9961
v 10.1399 0.0100 -8.2361
v 8.0418 0.0100 -8.2361
v 8.0418 0.0000 -10.9961
v 10.1399 0.0000 -10.9961
v 10.1399 0.0100 -10.9961
v 8.0418 0.0100 -10.9961
v 10.1399 0.0000 -8.2361
v 8.0418 0.0000 -8.2361
v 8.0418 0.0100 -8.2361
v 10.1399 0.0100 -8.2361
v 10.1399 0.0000 -10.9961
v 10.1399 0.0000 -8.2361
v 10.1399 0.0100 -8.2361
v 10.1399 0.0100 -10.9961
v 8.0418 0.0000 -8.2361
v 8.0418 0.0000 -10.9961
v 8.0418 0.0100 -10.9961
v 8.0418 0.0100 -8.2361
v -0.3246 0.0000 -54.1467
v -0.3246 0.0000 -52.9739
v 1.6079 0.0000 -52.9739
v 1.6079 0.0000 -54.1467
v -0.3246 0.0100 -54.1467
v 1.6079 0.0100 -54.1467
v 1.6079 0.0100 -52.9739
v -0.3246 0.0100 -52.9739
v -0.3246 0.0000 -54.1467
v 1.6079 0.0000 -54.1467
v 1.6079 0.0100 -54.1467
v -0.3246 0.0100 -54.1467
v 1.6079 0.0000 -52.9739
v -0.3246 0.0000 -52.9739
v -0.3246 0.0100 -52.9739
v 1.6079 0.0100 -52.9739
v 1.6079 0.0000 -54.1467
v 1.6079 0.0000 -52.9739
v 1.6079 0.0100 -52.9739
v 1.6079 0.0100 -54.1467
v -0.3246 0.0000 -52.9739
v -0.3246 0.0000 -54.1467
v -0.3246 0.0100 -54.1467
v -0.3246 0.0100 -52.9739
v 7.2495 0.0000 -36.5845
v 7.2495 0.0000 -33.1545
v 10.2969 0.0000 -33.1545
v 10.2969 0.0000 -36.5845
v 7.2495 0.0100 -36.5845
v 10.2969 0.0100 -36.5845
v 10.2969 0.0100 -33.1545
v 7.2495 0.0100 -33.1545
v 7.2495 0.0000 -36.5845
v 10.2969 0.0000 -36.5845
v 10.2969 0.0100 -36.5845
v 7.2495 0.0100 -36.5845
v 10.2969 0.0000 -33.1545
v 7.2495 0.0000 -33.1545
v 7.2495 0.0100 -33.1545
v 10.2969 0.0100 -33.1545
v 10.2969 0.0000 -36.5845
v 10.2969 0.0000 -33.1545
v 10.2969 0.0100 -33.1545
v 10.2969 0.0100 -36.5845
v 7.2495 0.0000 -33.1545
v 7.2495 0.0000 -36.5845
v 7.2495 0.0100 -36.5845
v 7.2495 0.0100 -33.1545
v 52.5340 0.0000 2.3534
v 52.5340 0.0000 3.5215
v 53.8160 0.0000 3.5215
v 53.8160 0.0000 2.3534
v 52.5340 0.0100 2.3534
v 53.8160 0.0100 2.3534
v 53.8160 0.0100 3.5215
v 52.5340 0.0100 3.5215
v 52.5340 0.0000 2.3534
v 53.8160 0.0000 2.3534
v 53.8160 0.0100 2.3534
v 52.5340 0.0100 2.3534
v 53.8160 0.0000 3.5215
v 52.5340 0.0000 3.5215
v 52.5340 0.0100 3.5215
v 53.8160 0.0100 3.5215
v 53.8160 0.0000 2.3534
v 53.8160 0.0000 3.5215
v 53.8160 0.0100 3.5215
v 53.8160 0.0100 2.3534
v 52.5340 0.0000 3.5215
v 52.5340 0.0000 2.3534
v 52.5340 0.0100 2.3534
v 52.5340 0.0100 3.5215
v -55.9800 0.0000 34.6313
v -55.9800 0.0000 37.8495
v -52.7932 0.0000 37.8495
v -52.7932 0.0000 34.6313
v -55.9800 0.0100 34.6313
v -52.7932 0.0100 34.6313
v -52.7932 0.0100 37.8495
v -55.9800 0.0100 37.8495
v -55.9800 0.0000 34.6313
v -52.7932 0.0000 34.6313
v -52.7932 0.0100 34.6313
v -55.9800 0.0100 34.6313
v -52.7932 0.0000 37.8495
v -55.9800 0.0000 37.8495
v -55.9800 0.0100 37.8495
v -52.7932 0.0100 37.8495
v -52.7932 0.0000 34.6313
v -52.7932 0.0000 37.8495
v -52.7932 0.0100 37.8495
v -52.7932 0.0100 34.6313
v -55.9800 0.0000 37.8495
v -55.9800 0.0000 34.6313
v -55.9800 0.0100 34.6313
v -55.9800 0.0100 37.8495
v 52.1547 0.0000 29.2622
v 52.1547 0.0000 30.8800
v 54.7900 0.0000 30.8800
v 54.7900 0.0000 29.2622
v 52.1547 0.0100 29.2622
v 54.7900 0.0100 29.2622
v 54.7900 0.0100 30.8800
v 52.1547 0.0100 30.8800
v 52.1547 0.0000 29.2622
v 54.7900 0.0000 29.2622
v 54.7900 0.0100 29.2622
v 52.1547 0.0100 29.2622
v 54.7900 0.0000 30.8800
v 52.1547 0.0000 30.8800
v 52.1547 0.0100 30.8800
v 54.7900 0.0100 30.8800
v 54.7900 0.0000 29.2622
v 54.7900 0.0000 30.8800
v 54.7900 0.0100 30.8800
v 54.7900 0.0100 29.2622
v 52.1547 0.0000 30.8800
v 52.1547 0.0000 29.2622
v 52.1547 0.0100 29.2622
v 52.1547 0.0100 30.8800
vt -24.0000 -24.0000
vt -24.0000 24.0000
vt 24.0000 24.0000
vt 24.0000 -24.0000
vt -24.0000 -24.0000
vt 24.0000 -24.0000
vt 24.0000 24.0000
vt -24.0000 24.0000
vt -24.0000 -0.2000
vt 24.0000 -0.2000
vt 24.0000 0.0000
vt -24.0000 0.0000
vt 24.0000 -0.2000
vt -24.0000 -0.2000
vt -24.0000 0.0000
vt 24.0000 0.0000
vt -24.0000 -0.2000
vt 24.0000 -0.2000
vt 24.0000 0.0000
vt -24.0000 0.0000
vt 24.0000 -0.2000
vt -24.0000 -0.2000
vt -24.0000 0.0000
vt 24.0000 0.0000
vt -24.0000 -24.0000
vt -24.0000 24.0000
vt 24.0000 24.0000
vt 24.0000 -24.0000
vt -24.0000 -24.0000
vt 24.0000 -24.0000
vt 24.0000 24.0000
vt -24.0000 24.0000
vt -24.0000 1.6000
vt 24.0000 1.6000
vt 24.0000 1.8000
vt -24.0000 1.8000
vt 24.0000 1.6000
vt -24.0000 1.6000
vt -24.0000 1.8000
vt 24.0000 1.8000
vt -24.0000 1.6000
vt 24.0000 1.6000
vt 24.0000 1.8000
vt -24.0000 1.8000
vt 24.0000 1.6000
vt -24.0000 1.6000
vt -24.0000 1.8000
vt 24.0000 1.8000
vt -24.0000 -24.0000
vt -24.0000 24.0000
vt -23.8000 24.0000
vt -23.8000 -24.0000
vt -24.0000 -24.0000
vt -23.8000 -24.0000
vt -23.8000 24.0000
vt -24.0000 24.0000
vt -24.0000 0.0000
vt -23.8000 0.0000
vt -23.8000 1.6000
vt -24.0000 1.6000
vt -23.8000 0.0000
vt -24.0000 0.0000
vt -24.0000 1.6000
vt -23.8000 1.6000
vt -24.0000 0.0000
vt 24.0000 0.0000
vt 24.0000 1.6000
vt -24.0000 1.6000
vt 24.0000 0.0000
vt -24.0000 0.0000
vt -24.0000 1.6000
vt 24.0000 1.6000
vt -24.0000 -24.0000
vt -24.0000 -23.8000
vt 24.0000 -23.8000
vt 24.0000 -24.0000
vt -24.0000 -24.0000
vt 24.0000 -24.0000
vt 24.0000 -23.8000
vt -24.0000 -23.8000
vt -24.0000 0.0000
vt 24.0000 0.0000
vt 24.0000 1.6000
vt -24.0000 1.6000
vt 24.0000 0.0000
vt -24.0000 0.0000
vt -24.0000 1.6000
vt 24.0000 1.6000
vt -24.0000 0.0000
vt -23.8000 0.0000
vt -23.8000 1.6000
vt -24.0000 1.6000
vt -23.8000 0.0000
vt -24.0000 0.0000
vt -24.0000 1.6000
vt -23.8000 1.6000
vt 23.8000 -24.0000
vt 23.8000 24.0000
vt 24.0000 24.0000
vt 24.0000 -24.0000
vt 23.8000 -24.0000
vt 24.0000 -24.0000
vt 24.0000 24.0000
vt 23.8000 24.0000
vt 23.8000 0.0000
vt 24.0000 0.0000
vt 24.0000 1.6000
vt 23.8000 1.6000
vt 24.0000 0.0000
vt 23.8000 0.0000
vt 23.8000 1.6000
vt 24.0000 1.6000
vt -24.0000 0.0000
vt 24.0000 0.0000
vt 24.0000 1.6000
vt -24.0000 1.6000
vt 24.0000 0.0000
vt -24.0000 0.0000
vt -24.0000 1.6000
vt 24.0000 1.6000
vt -24.0000 23.8000
vt -24.0000 24.0000
vt 24.0000 24.0000
vt 24.0000 23.8000
vt -24.0000 23.8000
vt 24.0000 23.8000
vt 24.0000 24.0000
vt -24.0000 24.0000
vt -24.0000 0.0000
vt 24.0000 0.0000
vt 24.0000 1.6000
vt -24.0000 1.6000
vt 24.0000 0.0000
vt -24.0000 0.0000
vt -24.0000 1.6000
vt 24.0000 1.6000
vt 23.8000 0.0000
vt 24.0000 0.0000
vt 24.0000 1.6000
vt 23.8000 1.6000
vt 24.0000 0.0000
vt 23.8000 0.0000
vt 23.8000 1.6000
vt 24.0000 1.6000
vt -5.4495 12.2891
vt -5.4495 13.0598
vt -4.7659 13.0598
vt -4.7659 12.2891
vt -5.4495 12.2891
vt -4.7659 12.2891
vt -4.7659 13.0598
vt -5.4495 13.0598
vt -5.4495 0.0000
vt -4.7659 0.0000
vt -4.7659 0.0040
vt -5.4495 0.0040
vt -4.7659 0.0000
vt -5.4495 0.0000
vt -5.4495 0.0040
vt -4.7659 0.0040
vt 12.2891 0.0000
vt 13.0598 0.0000
vt 13.0598 0.0040
vt 12.2891 0.0040
vt 13.0598 0.0000
vt 12.2891 0.0000
vt 12.2891 0.0040
vt 13.0598 0.0040
vt -17.7452 17.1278
vt -17.7452 18.2337
vt -16.7299 18.2337
vt -16.7299 17.1278
vt -17.7452 17.1278
vt -16.7299 17.1278
vt -16.7299 18.2337
vt -17.7452 18.2337
vt -17.7452 0.0000
vt -16.7299 0.0000
vt -16.7299 0.0040
vt -17.7452 0.0040
vt -16.7299 0.0000
vt -17.7452 0.0000
vt -17.7452 0.0040
vt -16.7299 0.0040
vt 17.1278 0.0000
vt 18.2337 0.0000
vt 18.2337 0.0040
vt 17.1278 0.0040
vt 18.2337 0.0000
vt 17.1278 0.0000
vt 17.1278 0.0040
vt 18.2337 0.0040
vt -1.9095 -1.5233
vt -1.9095 -0.6052
vt -0.8896 -0.6052
vt -0.8896 -1.5233
vt -1.9095 -1.5233
vt -0.8896 -1.5233
vt -0.8896 -0.6052
vt -1.9095 -0.6052
vt -1.9095 0.0000
vt -0.8896 0.0000
vt -0.8896 0.0040
vt -1.9095 0.0040
vt -0.8896 0.0000
vt -1.9095 0.0000
vt -1.9095 0.0040
vt -0.8896 0.0040
vt -1.5233 0.0000
vt -0.6052 0.0000
vt -0.6052 0.0040
vt -1.5233 0.0040
vt -0.6052 0.0000
vt -1.5233 0.0000
vt -1.5233 0.0040
vt -0.6052 0.0040
vt -14.0407 -5.3215
vt -14.0407 -4.8353
vt -13.4102 -4.8353
vt -13.4102 -5.3215
vt -14.0407 -5.3215
vt -13.4102 -5.3215
vt -13.4102 -4.8353
vt -14.0407 -4.8353
vt -14.0407 0.0000
vt -13.4102 0.0000
vt -13.4102 0.0040
vt -14.0407 0.0040
vt -13.4102 0.0000
vt -14.0407 0.0000
vt -14.0407 0.0040
vt -13.4102 0.0040
vt -5.3215 0.0000
vt -4.8353 0.0000
vt -4.8353 0.0040
vt -5.3215 0.0040
vt -4.8353 0.0000
vt -5.3215 0.0000
vt -5.3215 0.0040
vt -4.8353 0.0040
vt 12.8324 14.5508
vt 12.8324 15.7545
vt 14.2214 15.7545
vt 14.2214 14.5508
vt 12.8324 14.5508
vt 14.2214 14.5508
vt 14.2214 15.7545
vt 12.8324 15.7545
vt 12.8324 0.0000
vt 14.2214 0.0000
vt 14.2214 0.0040
vt 12.8324 0.0040
vt 14.2214 0.0000
vt 12.8324 0.0000
vt 12.8324 0.0040
vt 14.2214 0.0040
vt 14.5508 0.0000
vt 15.7545 0.0000
vt 15.7545 0.0040
vt 14.5508 0.0040
vt 15.7545 0.0000
vt 14.5508 0.0000
vt 14.5508 0.0040
vt 15.7545 0.0040
vt 2.6063 14.3133
vt 2.6063 14.8631
vt 3.2063 14.8631
vt 3.2063 14.3133
vt 2.6063 14.3133
vt 3.2063 14.3133
vt 3.2063 14.8631
vt 2.6063 14.8631
vt 2.6063 0.0000
vt 3.2063 0.0000
vt 3.2063 0.0040
vt 2.6063 0.0040
vt 3.2063 0.0000
vt 2.6063 0.0000
vt 2.6063 0.0040
vt 3.2063 0.0040
vt 14.3133 0.0000
vt 14.8631 0.0000
vt 14.8631 0.0040
vt 14.3133 0.0040
vt 14.8631 0.0000
vt 14.3133 0.0000
vt 14.3133 0.0040
vt 14.8631 0.0040
vt -18.2209 -12.9962
vt -18.2209 -12.1807
vt -17.5793 -12.1807
vt -17.5793 -12.9962
vt -18.2209 -12.9962
vt -17.5793 -12.9962
vt -17.5793 -12.1807
vt -18.2209 -12.1807
vt -18.2209 0.0000
vt -17.5793 0.0000
vt -17.5793 0.0040
vt -18.2209 0.0040
vt -17.5793 0.0000
vt -18.2209 0.0000
vt -18.2209 0.0040
vt -17.5793 0.0040
vt -12.9962 0.0000
vt -12.1807 0.0000
vt -12.1807 0.0040
vt -12.9962 0.0040
vt -12.1807 0.0000
vt -12.9962 0.0000
vt -12.9962 0.0040
vt -12.1807 0.0040
vt -16.8336 3.8356
vt -16.8336 4.2155
vt -16.3082 4.2155
vt -16.3082 3.8356
vt -16.8336 3.8356
vt -16.3082 3.8356
vt -16.3082 4.2155
vt -16.8336 4.2155
vt -16.8336 0.0000
vt -16.3082 0.0000
vt -16.3082 0.0040
vt -16.8336 0.0040
vt -16.3082 0.0000
vt -16.8336 0.0000
vt -16.8336 0.0040
vt -16.3082 0.0040
vt 3.8356 0.0000
vt 4.2155 0.0000
vt 4.2155 0.0040
vt 3.8356 0.0040
vt 4.2155 0.0000
vt 3.8356 0.0000
vt 3.8356 0.0040
vt 4.2155 0.0040
vt -1.8894 -14.3388
vt -1.8894 -13.3985
vt -1.1200 -13.3985
vt -1.1200 -14.3388
vt -1.8894 -14.3388
vt -1.1200 -14.3388
vt -1.1200 -13.3985
vt -1.8894 -13.3985
vt -1.8894 0.0000
vt -1.1200 0.0000
vt -1.1200 0.0040
vt -1.8894 0.0040
vt -1.1200 0.0000
vt -1.8894 0.0000
vt -1.8894 0.0040
vt -1.1200 0.0040
vt -14.3388 0.0000
vt -13.3985 0.0000
vt -13.3985 0.0040
vt -14.3388 0.0040
vt -13.3985 0.0000
vt -14.3388 0.0000
vt -14.3388 0.0040
vt -13.3985 0.0040
vt 7.3756 -21.6959
vt 7.3756 -20.7604
vt 8.5860 -20.7604
vt 8.5860 -21.6959
vt 7.3756 -21.6959
vt 8.5860 -21.6959
vt 8.5860 -20.7604
vt 7.3756 -20.7604
vt 7.3756 0.0000
vt 8.5860 0.0000
vt 8.5860 0.0040
vt 7.3756 0.0040
vt 8.5860 0.0000
vt 7.3756 0.0000
vt 7.3756 0.0040
vt 8.5860 0.0040
vt -21.6959 0.0000
vt -20.7604 0.0000
vt -20.7604 0.0040
vt -21.6959 0.0040
vt -20.7604 0.0000
vt -21.6959 0.0000
vt -21.6959 0.0040
vt -20.7604 0.0040
vt 7.9544 12.2810
vt 7.9544 13.3012
vt 8.9507 13.3012
vt 8.9507 12.2810
vt 7.9544 12.2810
vt 8.9507 12.2810
vt 8.9507 13.3012
vt 7.9544 13.3012
vt 7.9544 0.0000
vt 8.9507 0.0000
vt 8.9507 0.0040
vt 7.9544 0.0040
vt 8.9507 0.0000
vt 7.9544 0.0000
vt 7.9544 0.0040
vt 8.9507 0.0040
vt 12.2810 0.0000
vt 13.3012 0.0000
vt 13.3012 0.0040
vt 12.2810 0.0040
vt 13.3012 0.0000
vt 12.2810 0.0000
vt 12.2810 0.0040
vt 13.3012 0.0040
vt 11.2088 -6.1196
vt 11.2088 -5.3838
vt 11.8268 -5.3838
vt 11.8268 -6.1196
vt 11.2088 -6.1196
vt 11.8268 -6.1196
vt 11.8268 -5.3838
vt 11.2088 -5.3838
vt 11.2088 0.0000
vt 11.8268 0.0000
vt 11.8268 0.0040
vt 11.2088 0.0040
vt 11.8268 0.0000
vt 11.2088 0.0000
vt 11.2088 0.0040
vt 11.8268 0.0040
vt -6.1196 0.0000
vt -5.3838 0.0000
vt -5.3838 0.0040
vt -6.1196 0.0040
vt -5.3838 0.0000
vt -6.1196 0.0000
vt -6.1196 0.0040
vt -5.3838 0.0040
vt 5.0692 -22.5198
vt 5.0692 -22.2211
vt 5.5171 -22.2211
vt 5.5171 -22.5198
vt 5.0692 -22.5198
vt 5.5171 -22.5198
vt 5.5171 -22.2211
vt 5.0692 -22.2211
vt 5.0692 0.0000
vt 5.5171 0.0000
vt 5.5171 0.0040
vt 5.0692 0.0040
vt 5.5171 0.0000
vt 5.0692 0.0000
vt 5.0692 0.0040
vt 5.5171 0.0040
vt -22.5198 0.0000
vt -22.2211 0.0000
vt -22.2211 0.0040
vt -22.5198 0.0040
vt -22.2211 0.0000
vt -22.5198 0.0000
vt -22.5198 0.0040
vt -22.2211 0.0040
vt 5.7801 -9.5998
vt 5.7801 -9.0212
vt 6.3113 -9.0212
vt 6.3113 -9.5998
vt 5.7801 -9.5998
vt 6.3113 -9.5998
vt 6.3113 -9.0212
vt 5.7801 -9.0212
vt 5.7801 0.0000
vt 6.3113 0.0000
vt 6.3113 0.0040
vt 5.7801 0.0040
vt 6.3113 0.0000
vt 5.7801 0.0000
vt 5.7801 0.0040
vt 6.3113 0.0040
vt -9.5998 0.0000
vt -9.0212 0.0000
vt -9.0212 0.0040
vt -9.5998 0.0040
vt -9.0212 0.0000
vt -9.5998 0.0000
vt -9.5998 0.0040
vt -9.0212 0.0040
vt -16.8988 17.4479
vt -16.8988 18.5727
vt -15.8194 18.5727
vt -15.8194 17.4479
vt -16.8988 17.4479
vt -15.8194 17.4479
vt -15.8194 18.5727
vt -16.8988 18.5727
vt -16.8988 0.0000
vt -15.8194 0.0000
vt -15.8194 0.0040
vt -16.8988 0.0040
vt -15.8194 0.0000
vt -16.8988 0.0000
vt -16.8988 0.0040
vt -15.8194 0.0040
vt 17.4479 0.0000
vt 18.5727 0.0000
vt 18.5727 0.0040
vt 17.4479 0.0040
vt 18.5727 0.0000
vt 17.4479 0.0000
vt 17.4479 0.0040
vt 18.5727 0.0040
vt -11.3069 -18.1758
vt -11.3069 -17.1797
vt -10.3017 -17.1797
vt -10.3017 -18.1758
vt -11.3069 -18.1758
vt -10.3017 -18.1758
vt -10.3017 -17.1797
vt -11.3069 -17.1797
vt -11.3069 0.0000
vt -10.3017 0.0000
vt -10.3017 0.0040
vt -11.3069 0.0040
vt -10.3017 0.0000
vt -11.3069 0.0000
vt -11.3069 0.0040
vt -10.3017 0.0040
vt -18.1758 0.0000
vt -17.1797 0.0000
vt -17.1797 0.0040
vt -18.1758 0.0040
vt -17.1797 0.0000
vt -18.1758 0.0000
vt -18.1758 0.0040
vt -17.1797 0.0040
vt 13.8100 13.0868
vt 13.8100 14.6018
vt 15.1761 14.6018
vt 15.1761 13.0868
vt 13.8100 13.0868
vt 15.1761 13.0868
vt 15.1761 14.6018
vt 13.8100 14.6018
vt 13.8100 0.0000
vt 15.1761 0.0000
vt 15.1761 0.0040
vt 13.8100 0.0040
vt 15.1761 0.0000
vt 13.8100 0.0000
vt 13.8100 0.0040
vt 15.1761 0.0040
vt 13.0868 0.0000
vt 14.6018 0.0000
vt 14.6018 0.0040
vt 13.0868 0.0040
vt 14.6018 0.0000
vt 13.0868 0.0000
vt 13.0868 0.0040
vt 14.6018 0.0040
vt 14.5239 -17.5501
vt 14.5239 -16.8263
vt 15.0437 -16.8263
vt 15.0437 -17.5501
vt 14.5239 -17.5501
vt 15.0437 -17.5501
vt 15.0437 -16.8263
vt 14.5239 -16.8263
vt 14.5239 0.0000
vt 15.0437 0.0000
vt 15.0437 0.0040
vt 14.5239 0.0040
vt 15.0437 0.0000
vt 14.5239 0.0000
vt 14.5239 0.0040
vt 15.0437 0.0040
vt -17.5501 0.0000
vt -16.8263 0.0000
vt -16.8263 0.0040
vt -17.5501 0.0040
vt -16.8263 0.0000
vt -17.5501 0.0000
vt -17.5501 0.0040
vt -16.8263 0.0040
vt 18.4086 -19.8049
vt 18.4086 -19.3212
vt 18.8873 -19.3212
vt 18.8873 -19.8049
vt 18.4086 -19.8049
vt 18.8873 -19.8049
vt 18.8873 -19.3212
vt 18.4086 -19.3212
vt 18.4086 0.0000
vt 18.8873 0.0000
vt 18.8873 0.0040
vt 18.4086 0.0040
vt 18.8873 0.0000
vt 18.4086 0.0000
vt 18.4086 0.0040
vt 18.8873 0.0040
vt -19.8049 0.0000
vt -19.3212 0.0000
vt -19.3212 0.0040
vt -19.8049 0.0040
vt -19.3212 0.0000
vt -19.8049 0.0000
vt -19.8049 0.0040
vt -19.3212 0.0040
vt 13.4350 2.9996
vt 13.4350 3.6892
vt 14.0940 3.6892
vt 14.0940 2.9996
vt 13.4350 2.9996
vt 14.0940 2.9996
vt 14.0940 3.6892
vt 13.4350 3.6892
vt 13.4350 0.0000
vt 14.0940 0.0000
vt 14.0940 0.0040
vt 13.4350 0.0040
vt 14.0940 0.0000
vt 13.4350 0.0000
vt 13.4350 0.0040
vt 14.0940 0.0040
vt 2.9996 0.0000
vt 3.6892 0.0000
vt 3.6892 0.0040
vt 2.9996 0.0040
vt 3.6892 0.0000
vt 2.9996 0.0000
vt 2.9996 0.0040
vt 3.6892 0.0040
vt -9.9716 22.0516
vt -9.9716 23.0173
vt -8.8669 23.0173
vt -8.8669 22.0516
vt -9.9716 22.0516
vt -8.8669 22.0516
vt -8.8669 23.0173
vt -9.9716 23.0173
vt -9.9716 0.0000
vt -8.8669 0.0000
vt -8.8669 0.0040
vt -9.9716 0.0040
vt -8.8669 0.0000
vt -9.9716 0.0000
vt -9.9716 0.0040
vt -8.8669 0.0040
vt 22.0516 0.0000
vt 23.0173 0.0000
vt 23.0173 0.0040
vt 22.0516 0.0040
vt 23.0173 0.0000
vt 22.0516 0.0000
vt 22.0516 0.0040
vt 23.0173 0.0040
vt -15.2368 8.5218
vt -15.2368 9.5888
vt -14.3683 9.5888
vt -14.3683 8.5218
vt -15.2368 8.5218
vt -14.3683 8.5218
vt -14.3683 9.5888
vt -15.2368 9.5888
vt -15.2368 0.0000
vt -14.3683 0.0000
vt -14.3683 0.0040
vt -15.2368 0.0040
vt -14.3683 0.0000
vt -15.2368 0.0000
vt -15.2368 0.0040
vt -14.3683 0.0040
vt 8.5218 0.0000
vt 9.5888 0.0000
vt 9.5888 0.0040
vt 8.5218 0.0040
vt 9.5888 0.0000
vt 8.5218 0.0000
vt 8.5218 0.0040
vt 9.5888 0.0040
vt 4.0450 -11.7331
vt 4.0450 -10.5035
vt 5.1511 -10.5035
vt 5.1511 -11.7331
vt 4.0450 -11.7331
vt 5.1511 -11.7331
vt 5.1511 -10.5035
vt 4.0450 -10.5035
vt 4.0450 0.0000
vt 5.1511 0.0000
vt 5.1511 0.0040
vt 4.0450 0.0040
vt 5.1511 0.0000
vt 4.0450 0.0000
vt 4.0450 0.0040
vt 5.1511 0.0040
vt -11.7331 0.0000
vt -10.5035 0.0000
vt -10.5035 0.0040
vt -11.7331 0.0040
vt -10.5035 0.0000
vt -11.7331 0.0000
vt -11.7331 0.0040
vt -10.5035 0.0040
vt 1.2481 -22.5553
vt 1.2481 -21.9806
vt 2.1360 -21.9806
vt 2.1360 -22.5553
vt 1.2481 -22.5553
vt 2.1360 -22.5553
vt 2.1360 -21.9806
vt 1.2481 -21.9806
vt 1.2481 0.0000
vt 2.1360 0.0000
vt 2.1360 0.0040
vt 1.2481 0.0040
vt 2.1360 0.0000
vt 1.2481 0.0000
vt 1.2481 0.0040
vt 2.1360 0.0040
vt -22.5553 0.0000
vt -21.9806 0.0000
vt -21.9806 0.0040
vt -22.5553 0.0040
vt -21.9806 0.0000
vt -22.5553 0.0000
vt -22.5553 0.0040
vt -21.9806 0.0040
vt 21.1565 6.4976
vt 21.1565 7.4912
vt 22.0175 7.4912
vt 22.0175 6.4976
vt 21.1565 6.4976
vt 22.0175 6.4976
vt 22.0175 7.4912
vt 21.1565 7.4912
vt 21.1565 0.0000
vt 22.0175 0.0000
vt 22.0175 0.0040
vt 21.1565 0.0040
vt 22.0175 0.0000
vt 21.1565 0.0000
vt 21.1565 0.0040
vt 22.0175 0.0040
vt 6.4976 0.0000
vt 7.4912 0.0000
vt 7.4912 0.0040
vt 6.4976 0.0040
vt 7.4912 0.0000
vt 6.4976 0.0000
vt 6.4976 0.0040
vt 7.4912 0.0040
vt 19.6947 -8.3448
vt 19.6947 -7.0476
vt 20.8242 -7.0476
vt 20.8242 -8.3448
vt 19.6947 -8.3448
vt 20.8242 -8.3448
vt 20.8242 -7.0476
vt 19.6947 -7.0476
vt 19.6947 0.0000
vt 20.8242 0.0000
vt 20.8242 0.0040
vt 19.6947 0.0040
vt 20.8242 0.0000
vt 19.6947 0.0000
vt 19.6947 0.0040
vt 20.8242 0.0040
vt -8.3448 0.0000
vt -7.0476 0.0000
vt -7.0476 0.0040
vt -8.3448 0.0040
vt -7.0476 0.0000
vt -8.3448 0.0000
vt -8.3448 0.0040
vt -7.0476 0.0040
vt 19.1905 -8.6280
vt 19.1905 -7.9038
vt 19.7670 -7.9038
vt 19.7670 -8.6280
vt 19.1905 -8.6280
vt 19.7670 -8.6280
vt 19.7670 -7.9038
vt 19.1905 -7.9038
vt 19.1905 0.0000
vt 19.7670 0.0000
vt 19.7670 0.0040
vt 19.1905 0.0040
vt 19.7670 0.0000
vt 19.1905 0.0000
vt 19.1905 0.0040
vt 19.7670 0.0040
vt -8.6280 0.0000
vt -7.9038 0.0000
vt -7.9038 0.0040
vt -8.6280 0.0040
vt -7.9038 0.0000
vt -8.6280 0.0000
vt -8.6280 0.0040
vt -7.9038 0.0040
vt 7.8763 16.6847
vt 7.8763 17.2505
vt 8.3152 17.2505
vt 8.3152 16.6847
vt 7.8763 16.6847
vt 8.3152 16.6847
vt 8.3152 17.2505
vt 7.8763 17.2505
vt 7.8763 0.0000
vt 8.3152 0.0000
vt 8.3152 0.0040
vt 7.8763 0.0040
vt 8.3152 0.0000
vt 7.8763 0.0000
vt 7.8763 0.0040
vt 8.3152 0.0040
vt 16.6847 0.0000
vt 17.2505 0.0000
vt 17.2505 0.0040
vt 16.6847 0.0040
vt 17.2505 0.0000
vt 16.6847 0.0000
vt 16.6847 0.0040
vt 17.2505 0.0040
vt 18.5962 15.8297
vt 18.5962 17.1217
vt 19.9326 17.1217
vt 19.9326 15.8297
vt 18.5962 15.8297
vt 19.9326 15.8297
vt 19.9326 17.1217
vt 18.5962 17.1217
vt 18.5962 0.0000
vt 19.9326 0.0000
vt 19.9326 0.0040
vt 18.5962 0.0040
vt 19.9326 0.0000
vt 18.5962 0.0000
vt 18.5962 0.0040
vt 19.9326 0.0040
vt 15.8297 0.0000
vt 17.1217 0.0000
vt 17.1217 0.0040
vt 15.8297 0.0040
vt 17.1217 0.0000
vt 15.8297 0.0000
vt 15.8297 0.0040
vt 17.1217 0.0040
vt 16.0961 11.3638
vt 16.0961 12.4893
vt 17.0677 12.4893
vt 17.0677 11.3638
vt 16.0961 11.3638
vt 17.0677 11.3638
vt 17.0677 12.4893
vt 16.0961 12.4893
vt 16.0961 0.0000
vt 17.0677 0.0000
vt 17.0677 0.0040
vt 16.0961 0.0040
vt 17.0677 0.0000
vt 16.0961 0.0000
vt 16.0961 0.0040
vt 17.0677 0.0040
vt 11.3638 0.0000
vt 12.4893 0.0000
vt 12.4893 0.0040
vt 11.3638 0.0040
vt 12.4893 0.0000
vt 11.3638 0.0000
vt 11.3638 0.0040
vt 12.4893 0.0040
vt 23.1152 -16.9766
vt 23.1152 -16.2775
vt 24.1021 -16.2775
vt 24.1021 -16.9766
vt 23.1152 -16.9766
vt 24.1021 -16.9766
vt 24.1021 -16.2775
vt 23.1152 -16.2775
vt 23.1152 0.0000
vt 24.1021 0.0000
vt 24.1021 0.0040
vt 23.1152 0.0040
vt 24.1021 0.0000
vt 23.1152 0.0000
vt 23.1152 0.0040
vt 24.1021 0.0040
vt -16.9766 0.0000
vt -16.2775 0.0000
vt -16.2775 0.0040
vt -16.9766 0.0040
vt -16.2775 0.0000
vt -16.9766 0.0000
vt -16.9766 0.0040
vt -16.2775 0.0040
vt -5.5710 -9.9521
vt -5.5710 -9.5389
vt -5.0960 -9.5389
vt -5.0960 -9.9521
vt -5.5710 -9.9521
vt -5.0960 -9.9521
vt -5.0960 -9.5389
vt -5.5710 -9.5389
vt -5.5710 0.0000
vt -5.0960 0.0000
vt -5.0960 0.0040
vt -5.5710 0.0040
vt -5.0960 0.0000
vt -5.5710 0.0000
vt -5.5710 0.0040
vt -5.0960 0.0040
vt -9.9521 0.0000
vt -9.5389 0.0000
vt -9.5389 0.0040
vt -9.9521 0.0040
vt -9.5389 0.0000
vt -9.9521 0.0000
vt -9.9521 0.0040
vt -9.5389 0.0040
vt 21.6040 13.3230
vt 21.6040 13.9518
vt 22.5538 13.9518
vt 22.5538 13.3230
vt 21.6040 13.3230
vt 22.5538 13.3230
vt 22.5538 13.9518
vt 21.6040 13.9518
vt 21.6040 0.0000
vt 22.5538 0.0000
vt 22.5538 0.0040
vt 21.6040 0.0040
vt 22.5538 0.0000
vt 21.6040 0.0000
vt 21.6040 0.0040
vt 22.5538 0.0040
vt 13.3230 0.0000
vt 13.9518 0.0000
vt 13.9518 0.0040
vt 13.3230 0.0040
vt 13.9518 0.0000
vt 13.3230 0.0000
vt 13.3230 0.0040
vt 13.9518 0.0040
vt 0.9914 -21.6853
vt 0.9914 -21.1153
vt 1.6321 -21.1153
vt 1.6321 -21.6853
vt 0.9914 -21.6853
vt 1.6321 -21.6853
vt 1.6321 -21.1153
vt 0.9914 -21.1153
vt 0.9914 0.0000
vt 1.6321 0.0000
vt 1.6321 0.0040
vt 0.9914 0.0040
vt 1.6321 0.0000
vt 0.9914 0.0000
vt 0.9914 0.0040
vt 1.6321 0.0040
vt -21.6853 0.0000
vt -21.1153 0.0000
vt -21.1153 0.0040
vt -21.6853 0.0040
vt -21.1153 0.0000
vt -21.6853 0.0000
vt -21.6853 0.0040
vt -21.1153 0.0040
vt 6.5635 -12.0180
vt 6.5635 -11.4116
vt 7.1419 -11.4116
vt 7.1419 -12.0180
vt 6.5635 -12.0180
vt 7.1419 -12.0180
vt 7.1419 -11.4116
vt 6.5635 -11.4116
vt 6.5635 0.0000
vt 7.1419 0.0000
vt 7.1419 0.0040
vt 6.5635 0.0040
vt 7.1419 0.0000
vt 6.5635 0.0000
vt 6.5635 0.0040
vt 7.1419 0.0040
vt -12.0180 0.0000
vt -11.4116 0.0000
vt -11.4116 0.0040
vt -12.0180 0.0040
vt -11.4116 0.0000
vt -12.0180 0.0000
vt -12.0180 0.0040
vt -11.4116 0.0040
vt 7.7865 -22.7695
vt 7.7865 -22.0006
vt 8.9243 -22.0006
vt 8.9243 -22.7695
vt 7.7865 -22.7695
vt 8.9243 -22.7695
vt 8.9243 -22.0006
vt 7.7865 -22.0006
vt 7.7865 0.0000
vt 8.9243 0.0000
vt 8.9243 0.0040
vt 7.7865 0.0040
vt 8.9243 0.0000
vt 7.7865 0.0000
vt 7.7865 0.0040
vt 8.9243 0.0040
vt -22.7695 0.0000
vt -22.0006 0.0000
vt -22.0006 0.0040
vt -22.7695 0.0040
vt -22.0006 0.0000
vt -22.7695 0.0000
vt -22.7695 0.0040
vt -22.0006 0.0040
vt 3.2167 -4.3985
vt 3.2167 -3.2944
vt 4.0560 -3.2944
vt 4.0560 -4.3985
vt 3.2167 -4.3985
vt 4.0560 -4.3985
vt 4.0560 -3.2944
vt 3.2167 -3.2944
vt 3.2167 0.0000
vt 4.0560 0.0000
vt 4.0560 0.0040
vt 3.2167 0.0040
vt 4.0560 0.0000
vt 3.2167 0.0000
vt 3.2167 0.0040
vt 4.0560 0.0040
vt -4.3985 0.0000
vt -3.2944 0.0000
vt -3.2944 0.0040
vt -4.3985 0.0040
vt -3.2944 0.0000
vt -4.3985 0.0000
vt -4.3985 0.0040
vt -3.2944 0.0040
vt -0.1298 -21.6587
vt -0.1298 -21.1895
vt 0.6431 -21.1895
vt 0.6431 -21.6587
vt -0.1298 -21.6587
vt 0.6431 -21.6587
vt 0.6431 -21.1895
vt -0.1298 -21.1895
vt -0.1298 0.0000
vt 0.6431 0.0000
vt 0.6431 0.0040
vt -0.1298 0.0040
vt 0.6431 0.0000
vt -0.1298 0.0000
vt -0.1298 0.0040
vt 0.6431 0.0040
vt -21.6587 0.0000
vt -21.1895 0.0000
vt -21.1895 0.0040
vt -21.6587 0.0040
vt -21.1895 0.0000
vt -21.6587 0.0000
vt -21.6587 0.0040
vt -21.1895 0.0040
vt 2.8998 -14.6338
vt 2.8998 -13.2618
vt 4.1187 -13.2618
vt 4.1187 -14.6338
vt 2.8998 -14.6338
vt 4.1187 -14.6338
vt 4.1187 -13.2618
vt 2.8998 -13.2618
vt 2.8998 0.0000
vt 4.1187 0.0000
vt 4.1187 0.0040
vt 2.8998 0.0040
vt 4.1187 0.0000
vt 2.8998 0.0000
vt 2.8998 0.0040
vt 4.1187 0.0040
vt -14.6338 0.0000
vt -13.2618 0.0000
vt -13.2618 0.0040
vt -14.6338 0.0040
vt -13.2618 0.0000
vt -14.6338 0.0000
vt -14.6338 0.0040
vt -13.2618 0.0040
vt 21.0136 0.9414
vt 21.0136 1.4086
vt 21.5264 1.4086
vt 21.5264 0.9414
vt 21.0136 0.9414
vt 21.5264 0.9414
vt 21.5264 1.4086
vt 21.0136 1.4086
vt 21.0136 0.0000
vt 21.5264 0.0000
vt 21.5264 0.0040
vt 21.0136 0.0040
vt 21.5264 0.0000
vt 21.0136 0.0000
vt 21.0136 0.0040
vt 21.5264 0.0040
vt 0.9414 0.0000
vt 1.4086 0.0000
vt 1.4086 0.0040
vt 0.9414 0.0040
vt 1.4086 0.0000
vt 0.9414 0.0000
vt 0.9414 0.0040
vt 1.4086 0.0040
vt -22.3920 13.8525
vt -22.3920 15.1398
vt -21.1173 15.1398
vt -21.1173 13.8525
vt -22.3920 13.8525
vt -21.1173 13.8525
vt -21.1173 15.1398
vt -22.3920 15.1398
vt -22.3920 0.0000
vt -21.1173 0.0000
vt -21.1173 0.0040
vt -22.3920 0.0040
vt -21.1173 0.0000
vt -22.3920 0.0000
vt -22.3920 0.0040
vt -21.1173 0.0040
vt 13.8525 0.0000
vt 15.1398 0.0000
vt 15.1398 0.0040
vt 13.8525 0.0040
vt 15.1398 0.0000
vt 13.8525 0.0000
vt 13.8525 0.0040
vt 15.1398 0.0040
vt 20.8619 11.7049
vt 20.8619 12.3520
vt 21.9160 12.3520
vt 21.9160 11.7049
vt 20.8619 11.7049
vt 21.9160 11.7049
vt 21.9160 12.3520
vt 20.8619 12.3520
vt 20.8619 0.0000
vt 21.9160 0.0000
vt 21.9160 0.0040
vt 20.8619 0.0040
vt 21.9160 0.0000
vt 20.8619 0.0000
vt 20.8619 0.0040
vt 21.9160 0.0040
vt 11.7049 0.0000
vt 12.3520 0.0000
vt 12.3520 0.0040
vt 11.7049 0.0040
vt 12.3520 0.0000
vt 11.7049 0.0000
vt 11.7049 0.0040
vt 12.3520 0.0040
usemtl concrete_floor
f 1/1 2/2 3/3 4/4
f 5/5 6/6 7/7 8/8
f 9/9 10/10 11/11 12/12
f 13/13 14/14 15/15 16/16
f 17/17 18/18 19/19 20/20
f 21/21 22/22 23/23 24/24
usemtl concrete_dark
f 25/25 26/26 27/27 28/28
f 29/29 30/30 31/31 32/32
f 33/33 34/34 35/35 36/36
f 37/37 38/38 39/39 40/40
f 41/41 42/42 43/43 44/44
f 45/45 46/46 47/47 48/48
usemtl concrete
f 49/49 50/50 51/51 52/52
f 53/53 54/54 55/55 56/56
f 57/57 58/58 59/59 60/60
f 61/61 62/62 63/63 64/64
f 65/65 66/66 67/67 68/68
f 69/69 70/70 71/71 72/72
f 73/73 74/74 75/75 76/76
f 77/77 78/78 79/79 80/80
f 81/81 82/82 83/83 84/84
f 85/85 86/86 87/87 88/88
f 89/89 90/90 91/91 92/92
f 93/93 94/94 95/95 96/96
f 97/97 98/98 99/99 100/100
f 101/101 102/102 103/103 104/104
f 105/105 106/106 107/107 108/108
f 109/109 110/110 111/111 112/112
f 113/113 114/114 115/115 116/116
f 117/117 118/118 119/119 120/120
f 121/121 122/122 123/123 124/124
f 125/125 126/126 127/127 128/128
f 129/129 130/130 131/131 132/132
f 133/133 134/134 135/135 136/136
f 137/137 138/138 139/139 140/140
f 141/141 142/142 143/143 144/144
usemtl concrete_dark
f 145/145 146/146 147/147 148/148
f 149/149 150/150 151/151 152/152
f 153/153 154/154 155/155 156/156
f 157/157 158/158 159/159 160/160
f 161/161 162/162 163/163 164/164
f 165/165 166/166 167/167 168/168
f 169/169 170/170 171/171 172/172
f 173/173 174/174 175/175 176/176
f 177/177 178/178 179/179 180/180
f 181/181 182/182 183/183 184/184
f 185/185 186/186 187/187 188/188
f 189/189 190/190 191/191 192/192
f 193/193 194/194 195/195 196/196
f 197/197 198/198 199/199 200/200
f 201/201 202/202 203/203 204/204
f 205/205 206/206 207/207 208/208
f 209/209 210/210 211/211 212/212
f 213/213 214/214 215/215 216/216
f 217/217 218/218 219/219 220/220
f 221/221 222/222 223/223 224/224
f 225/225 226/226 227/227 228/228
f 229/229 230/230 231/231 232/232
f 233/233 234/234 235/235 236/236
f 237/237 238/238 239/239 240/240
f 241/241 242/242 243/243 244/244
f 245/245 246/246 247/247 248/248
f 249/249 250/250 251/251 252/252
f 253/253 254/254 255/255 256/256
f 257/257 258/258 259/259 260/260
f 261/261 262/262 263/263 264/264
f 265/265 266/266 267/267 268/268
f 269/269 270/270 271/271 272/272
f 273/273 274/274 275/275 276/276
f 277/277 278/278 279/279 280/280
f 281/281 282/282 283/283 284/284
f 285/285 286/286 287/287 288/288
f 289/289 290/290 291/291 292/292
f 293/293 294/294 295/295 296/296
f 297/297 298/298 299/299 300/300
f 301/301 302/302 303/303 304/304
f 305/305 306/306 307/307 308/308
f 309/309 310/310 311/311 312/312
f 313/313 314/314 315/315 316/316
f 317/317 318/318 319/319 320/320
f 321/321 322/322 323/323 324/324
f 325/325 326/326 327/327 328/328
f 329/329 330/330 331/331 332/332
f 333/333 334/334 335/335 336/336
f 337/337 338/338 339/339 340/340
f 341/341 342/342 343/343 344/344
f 345/345 346/346 347/347 348/348
f 349/349 350/350 351/351 352/352
f 353/353 354/354 355/355 356/356
f 357/357 358/358 359/359 360/360
f 361/361 362/362 363/363 364/364
f 365/365 366/366 367/367 368/368
f 369/369 370/370 371/371 372/372
f 373/373 374/374 375/375 376/376
f 377/377 378/378 379/379 380/380
f 381/381 382/382 383/383 384/384
f 385/385 386/386 387/387 388/388
f 389/389 390/390 391/391 392/392
f 393/393 394/394 395/395 396/396
f 397/397 398/398 399/399 400/400
f 401/401 402/402 403/403 404/404
f 405/405 406/406 407/407 408/408
f 409/409 410/410 411/411 412/412
f 413/413 414/414 415/415 416/416
f 417/417 418/418 419/419 420/420
f 421/421 422/422 423/423 424/424
f 425/425 426/426 427/427 428/428
f 429/429 430/430 431/431 432/432
f 433/433 434/434 435/435 436/436
f 437/437 438/438 439/439 440/440
f 441/441 442/442 443/443 444/444
f 445/445 446/446 447/447 448/448
f 449/449 450/450 451/451 452/452
f 453/453 454/454 455/455 456/456
f 457/457 458/458 459/459 460/460
f 461/461 462/462 463/463 464/464
f 465/465 466/466 467/467 468/468
f 469/469 470/470 471/471 472/472
f 473/473 474/474 475/475 476/476
f 477/477 478/478 479/479 480/480
f 481/481 482/482 483/483 484/484
f 485/485 486/486 487/487 488/488
f 489/489 490/490 491/491 492/492
f 493/493 494/494 495/495 496/496
f 497/497 498/498 499/499 500/500
f 501/501 502/502 503/503 504/504
f 505/505 506/506 507/507 508/508
f 509/509 510/510 511/511 512/512
f 513/513 514/514 515/515 516/516
f 517/517 518/518 519/519 520/520
f 521/521 522/522 523/523 524/524
f 525/525 526/526 527/527 528/528
f 529/529 530/530 531/531 532/532
f 533/533 534/534 535/535 536/536
f 537/537 538/538 539/539 540/540
f 541/541 542/542 543/543 544/544
f 545/545 546/546 547/547 548/548
f 549/549 550/550 551/551 552/552
f 553/553 554/554 555/555 556/556
f 557/557 558/558 559/559 560/560
f 561/561 562/562 563/563 564/564
f 565/565 566/566 567/567 568/568
f 569/569 570/570 571/571 572/572
f 573/573 574/574 575/575 576/576
f 577/577 578/578 579/579 580/580
f 581/581 582/582 583/583 584/584
f 585/585 586/586 587/587 588/588
f 589/589 590/590 591/591 592/592
f 593/593 594/594 595/595 596/596
f 597/597 598/598 599/599 600/600
f 601/601 602/602 603/603 604/604
f 605/605 606/606 607/607 608/608
f 609/609 610/610 611/611 612/612
f 613/613 614/614 615/615 616/616
f 617/617 618/618 619/619 620/620
f 621/621 622/622 623/623 624/624
f 625/625 626/626 627/627 628/628
f 629/629 630/630 631/631 632/632
f 633/633 634/634 635/635 636/636
f 637/637 638/638 639/639 640/640
f 641/641 642/642 643/643 644/644
f 645/645 646/646 647/647 648/648
f 649/649 650/650 651/651 652/652
f 653/653 654/654 655/655 656/656
f 657/657 658/658 659/659 660/660
f 661/661 662/662 663/663 664/664
f 665/665 666/666 667/667 668/668
f 669/669 670/670 671/671 672/672
f 673/673 674/674 675/675 676/676
f 677/677 678/678 679/679 680/680
f 681/681 682/682 683/683 684/684
f 685/685 686/686 687/687 688/688
f 689/689 690/690 691/691 692/692
f 693/693 694/694 695/695 696/696
f 697/697 698/698 699/699 700/700
f 701/701 702/702 703/703 704/704
f 705/705 706/706 707/707 708/708
f 709/709 710/710 711/711 712/712
f 713/713 714/714 715/715 716/716
f 717/717 718/718 719/719 720/720
f 721/721 722/722 723/723 724/724
f 725/725 726/726 727/727 728/728
f 729/729 730/730 731/731 732/732
f 733/733 734/734 735/735 736/736
f 737/737 738/738 739/739 740/740
f 741/741 742/742 743/743 744/744
f 745/745 746/746 747/747 748/748
f 749/749 750/750 751/751 752/752
f 753/753 754/754 755/755 756/756
f 757/757 758/758 759/759 760/760
f 761/761 762/762 763/763 764/764
f 765/765 766/766 767/767 768/768
f 769/769 770/770 771/771 772/772
f 773/773 774/774 775/775 776/776
f 777/777 778/778 779/779 780/780
f 781/781 782/782 783/783 784/784
f 785/785 786/786 787/787 788/788
f 789/789 790/790 791/791 792/792
f 793/793 794/794 795/795 796/796
f 797/797 798/798 799/799 800/800
f 801/801 802/802 803/803 804/804
f 805/805 806/806 807/807 808/808
f 809/809 810/810 811/811 812/812
f 813/813 814/814 815/815 816/816
f 817/817 818/818 819/819 820/820
f 821/821 822/822 823/823 824/824
f 825/825 826/826 827/827 828/828
f 829/829 830/830 831/831 832/832
f 833/833 834/834 835/835 836/836
f 837/837 838/838 839/839 840/840
f 841/841 842/842 843/843 844/844
f 845/845 846/846 847/847 848/848
f 849/849 850/850 851/851 852/852
f 853/853 854/854 855/855 856/856
f 857/857 858/858 859/859 860/860
f 861/861 862/862 863/863 864/864
f 865/865 866/866 867/867 868/868
f 869/869 870/870 871/871 872/872
f 873/873 874/874 875/875 876/876
f 877/877 878/878 879/879 880/880
f 881/881 882/882 883/883 884/884
f 885/885 886/886 887/887 888/888
f 889/889 890/890 891/891 892/892
f 893/893 894/894 895/895 896/896
f 897/897 898/898 899/899 900/900
f 901/901 902/902 903/903 904/904
f 905/905 906/906 907/907 908/908
f 909/909 910/910 911/911 912/912
f 913/913 914/914 915/915 916/916
f 917/917 918/918 919/919 920/920
f 921/921 922/922 923/923 924/924
f 925/925 926/926 927/927 928/928
f 929/929 930/930 931/931 932/932
f 933/933 934/934 935/935 936/936
f 937/937 938/938 939/939 940/940
f 941/941 942/942 943/943 944/944
f 945/945 946/946 947/947 948/948
f 949/949 950/950 951/951 952/952
f 953/953 954/954 955/955 956/956
f 957/957 958/958 959/959 960/960
f 961/961 962/962 963/963 964/964
f 965/965 966/966 967/967 968/968
f 969/969 970/970 971/971 972/972
f 973/973 974/974 975/975 976/976
f 977/977 978/978 979/979 980/980
f 981/981 982/982 983/983 984/984
f 985/985 986/986 987/987 988/988
f 989/989 990/990 991/991 992/992
f 993/993 994/994 995/995 996/996
f 997/997 998/998 999/999 1000/1000
f 1001/1001 1002/1002 1003/1003 1004/1004
f 1005/1005 1006/1006 1007/1007 1008/1008
f 1009/1009 1010/1010 1011/1011 1012/1012
f 1013/1013 1014/1014 1015/1015 1016/1016
f 1017/1017 1018/1018 1019/1019 1020/1020
f 1021/1021 1022/1022 1023/1023 1024/1024
f 1025/1025 1026/1026 1027/1027 1028/1028
f 1029/1029 1030/1030 1031/1031 1032/1032
f 1033/1033 1034/1034 1035/1035 1036/1036
f 1037/1037 1038/1038 1039/1039 1040/1040
f 1041/1041 1042/1042 1043/1043 1044/1044
f 1045/1045 1046/1046 1047/1047 1048/1048
f 1049/1049 1050/1050 1051/1051 1052/1052
f 1053/1053 1054/1054 1055/1055 1056/1056
f 1057/1057 1058/1058 1059/1059 1060/1060
f 1061/1061 1062/1062 1063/1063 1064/1064
f 1065/1065 1066/1066 1067/1067 1068/1068
f 1069/1069 1070/1070 1071/1071 1072/1072
f 1073/1073 1074/1074 1075/1075 1076/1076
f 1077/1077 1078/1078 1079/1079 1080/1080
f 1081/1081 1082/1082 1083/1083 1084/1084
f 1085/1085 1086/1086 1087/1087 1088/1088
f 1089/1089 1090/1090 1091/1091 1092/1092
f 1093/1093 1094/1094 1095/1095 1096/1096
f 1097/1097 1098/1098 1099/1099 1100/1100
f 1101/1101 1102/1102 1103/1103 1104/1104
f 1105/1105 1106/1106 1107/1107 1108/1108
f 1109/1109 1110/1110 1111/1111 1112/1112
f 1113/1113 1114/1114 1115/1115 1116/1116
f 1117/1117 1118/1118 1119/1119 1120/1120
f 1121/1121 1122/1122 1123/1123 1124/1124
f 1125/1125 1126/1126 1127/1127 1128/1128
f 1129/1129 1130/1130 1131/1131 1132/1132
f 1133/1133 1134/1134 1135/1135 1136/1136
f 1137/1137 1138/1138 1139/1139 1140/1140
f 1141/1141 1142/1142 1143/1143 1144/1144
f 1145/1145 1146/1146 1147/1147 1148/1148
f 1149/1149 1150/1150 1151/1151 1152/1152
