# RoastEngine Backrooms level
mtllib backrooms.mtl
v 2347.0000 -0.5000 -53.0000
v 2347.0000 -0.5000 53.0000
v 2453.0000 -0.5000 53.0000
v 2453.0000 -0.5000 -53.0000
v 2347.0000 0.0000 -53.0000
v 2453.0000 0.0000 -53.0000
v 2453.0000 0.0000 53.0000
v 2347.0000 0.0000 53.0000
v 2347.0000 -0.5000 -53.0000
v 2453.0000 -0.5000 -53.0000
v 2453.0000 0.0000 -53.0000
v 2347.0000 0.0000 -53.0000
v 2453.0000 -0.5000 53.0000
v 2347.0000 -0.5000 53.0000
v 2347.0000 0.0000 53.0000
v 2453.0000 0.0000 53.0000
v 2453.0000 -0.5000 -53.0000
v 2453.0000 -0.5000 53.0000
v 2453.0000 0.0000 53.0000
v 2453.0000 0.0000 -53.0000
v 2347.0000 -0.5000 53.0000
v 2347.0000 -0.5000 -53.0000
v 2347.0000 0.0000 -53.0000
v 2347.0000 0.0000 53.0000
v 2347.0000 3.6000 -53.0000
v 2453.0000 3.6000 -53.0000
v 2453.0000 3.6000 53.0000
v 2347.0000 3.6000 53.0000
v 2347.0000 4.1000 -53.0000
v 2453.0000 4.1000 -53.0000
v 2453.0000 4.1000 53.0000
v 2347.0000 4.1000 53.0000
v 2347.0000 0.0000 -53.0000
v 2347.0000 0.0000 53.0000
v 2347.5000 0.0000 53.0000
v 2347.5000 0.0000 -53.0000
v 2347.0000 3.6000 -53.0000
v 2347.5000 3.6000 -53.0000
v 2347.5000 3.6000 53.0000
v 2347.0000 3.6000 53.0000
v 2347.0000 0.0000 -53.0000
v 2347.5000 0.0000 -53.0000
v 2347.5000 3.6000 -53.0000
v 2347.0000 3.6000 -53.0000
v 2347.5000 0.0000 53.0000
v 2347.0000 0.0000 53.0000
v 2347.0000 3.6000 53.0000
v 2347.5000 3.6000 53.0000
v 2347.5000 0.0000 -53.0000
v 2347.5000 0.0000 53.0000
v 2347.5000 3.6000 53.0000
v 2347.5000 3.6000 -53.0000
v 2347.0000 0.0000 53.0000
v 2347.0000 0.0000 -53.0000
v 2347.0000 3.6000 -53.0000
v 2347.0000 3.6000 53.0000
v 2347.0000 0.0000 -53.0000
v 2347.0000 0.0000 -52.5000
v 2453.0000 0.0000 -52.5000
v 2453.0000 0.0000 -53.0000
v 2347.0000 3.6000 -53.0000
v 2453.0000 3.6000 -53.0000
v 2453.0000 3.6000 -52.5000
v 2347.0000 3.6000 -52.5000
v 2347.0000 0.0000 -53.0000
v 2453.0000 0.0000 -53.0000
v 2453.0000 3.6000 -53.0000
v 2347.0000 3.6000 -53.0000
v 2453.0000 0.0000 -52.5000
v 2347.0000 0.0000 -52.5000
v 2347.0000 3.6000 -52.5000
v 2453.0000 3.6000 -52.5000
v 2453.0000 0.0000 -53.0000
v 2453.0000 0.0000 -52.5000
v 2453.0000 3.6000 -52.5000
v 2453.0000 3.6000 -53.0000
v 2347.0000 0.0000 -52.5000
v 2347.0000 0.0000 -53.0000
v 2347.0000 3.6000 -53.0000
v 2347.0000 3.6000 -52.5000
v 2452.5000 0.0000 -53.0000
v 2452.5000 0.0000 53.0000
v 2453.0000 0.0000 53.0000
v 2453.0000 0.0000 -53.0000
v 2452.5000 3.6000 -53.0000
v 2453.0000 3.6000 -53.0000
v 2453.0000 3.6000 53.0000
v 2452.5000 3.6000 53.0000
v 2452.5000 0.0000 -53.0000
v 2453.0000 0.0000 -53.0000
v 2453.0000 3.6000 -53.0000
v 2452.5000 3.6000 -53.0000
v 2453.0000 0.0000 53.0000
v 2452.5000 0.0000 53.0000
v 2452.5000 3.6000 53.0000
v 2453.0000 3.6000 53.0000
v 2453.0000 0.0000 -53.0000
v 2453.0000 0.0000 53.0000
v 2453.0000 3.6000 53.0000
v 2453.0000 3.6000 -53.0000
v 2452.5000 0.0000 53.0000
v 2452.5000 0.0000 -53.0000
v 2452.5000 3.6000 -53.0000
v 2452.5000 3.6000 53.0000
v 2347.0000 0.0000 52.5000
v 2347.0000 0.0000 53.0000
v 2453.0000 0.0000 53.0000
v 2453.0000 0.0000 52.5000
v 2347.0000 3.6000 52.5000
v 2453.0000 3.6000 52.5000
v 2453.0000 3.6000 53.0000
v 2347.0000 3.6000 53.0000
v 2347.0000 0.0000 52.5000
v 2453.0000 0.0000 52.5000
v 2453.0000 3.6000 52.5000
v 2347.0000 3.6000 52.5000
v 2453.0000 0.0000 53.0000
v 2347.0000 0.0000 53.0000
v 2347.0000 3.6000 53.0000
v 2453.0000 3.6000 53.0000
v 2453.0000 0.0000 52.5000
v 2453.0000 0.0000 53.0000
v 2453.0000 3.6000 53.0000
v 2453.0000 3.6000 52.5000
v 2347.0000 0.0000 53.0000
v 2347.0000 0.0000 52.5000
v 2347.0000 3.6000 52.5000
v 2347.0000 3.6000 53.0000
v 2348.5086 0.0000 -4.2057
v 2348.5086 0.0000 -2.7399
v 2349.5614 0.0000 -2.7399
v 2349.5614 0.0000 -4.2057
v 2348.5086 0.0100 -4.2057
v 2349.5614 0.0100 -4.2057
v 2349.5614 0.0100 -2.7399
v 2348.5086 0.0100 -2.7399
v 2348.5086 0.0000 -4.2057
v 2349.5614 0.0000 -4.2057
v 2349.5614 0.0100 -4.2057
v 2348.5086 0.0100 -4.2057
v 2349.5614 0.0000 -2.7399
v 2348.5086 0.0000 -2.7399
v 2348.5086 0.0100 -2.7399
v 2349.5614 0.0100 -2.7399
v 2349.5614 0.0000 -4.2057
v 2349.5614 0.0000 -2.7399
v 2349.5614 0.0100 -2.7399
v 2349.5614 0.0100 -4.2057
v 2348.5086 0.0000 -2.7399
v 2348.5086 0.0000 -4.2057
v 2348.5086 0.0100 -4.2057
v 2348.5086 0.0100 -2.7399
v 2353.1645 0.0000 26.8842
v 2353.1645 0.0000 28.7874
v 2354.8628 0.0000 28.7874
v 2354.8628 0.0000 26.8842
v 2353.1645 0.0100 26.8842
v 2354.8628 0.0100 26.8842
v 2354.8628 0.0100 28.7874
v 2353.1645 0.0100 28.7874
v 2353.1645 0.0000 26.8842
v 2354.8628 0.0000 26.8842
v 2354.8628 0.0100 26.8842
v 2353.1645 0.0100 26.8842
v 2354.8628 0.0000 28.7874
v 2353.1645 0.0000 28.7874
v 2353.1645 0.0100 28.7874
v 2354.8628 0.0100 28.7874
v 2354.8628 0.0000 26.8842
v 2354.8628 0.0000 28.7874
v 2354.8628 0.0100 28.7874
v 2354.8628 0.0100 26.8842
v 2353.1645 0.0000 28.7874
v 2353.1645 0.0000 26.8842
v 2353.1645 0.0100 26.8842
v 2353.1645 0.0100 28.7874
v 2432.6738 0.0000 -43.1196
v 2432.6738 0.0000 -41.6064
v 2433.8931 0.0000 -41.6064
v 2433.8931 0.0000 -43.1196
v 2432.6738 0.0100 -43.1196
v 2433.8931 0.0100 -43.1196
v 2433.8931 0.0100 -41.6064
v 2432.6738 0.0100 -41.6064
v 2432.6738 0.0000 -43.1196
v 2433.8931 0.0000 -43.1196
v 2433.8931 0.0100 -43.1196
v 2432.6738 0.0100 -43.1196
v 2433.8931 0.0000 -41.6064
v 2432.6738 0.0000 -41.6064
v 2432.6738 0.0100 -41.6064
v 2433.8931 0.0100 -41.6064
v 2433.8931 0.0000 -43.1196
v 2433.8931 0.0000 -41.6064
v 2433.8931 0.0100 -41.6064
v 2433.8931 0.0100 -43.1196
v 2432.6738 0.0000 -41.6064
v 2432.6738 0.0000 -43.1196
v 2432.6738 0.0100 -43.1196
v 2432.6738 0.0100 -41.6064
v 2373.3027 0.0000 3.8725
v 2373.3027 0.0000 5.7008
v 2375.4254 0.0000 5.7008
v 2375.4254 0.0000 3.8725
v 2373.3027 0.0100 3.8725
v 2375.4254 0.0100 3.8725
v 2375.4254 0.0100 5.7008
v 2373.3027 0.0100 5.7008
v 2373.3027 0.0000 3.8725
v 2375.4254 0.0000 3.8725
v 2375.4254 0.0100 3.8725
v 2373.3027 0.0100 3.8725
v 2375.4254 0.0000 5.7008
v 2373.3027 0.0000 5.7008
v 2373.3027 0.0100 5.7008
v 2375.4254 0.0100 5.7008
v 2375.4254 0.0000 3.8725
v 2375.4254 0.0000 5.7008
v 2375.4254 0.0100 5.7008
v 2375.4254 0.0100 3.8725
v 2373.3027 0.0000 5.7008
v 2373.3027 0.0000 3.8725
v 2373.3027 0.0100 3.8725
v 2373.3027 0.0100 5.7008
v 2395.7101 0.0000 0.6260
v 2395.7101 0.0000 2.3090
v 2397.9066 0.0000 2.3090
v 2397.9066 0.0000 0.6260
v 2395.7101 0.0100 0.6260
v 2397.9066 0.0100 0.6260
v 2397.9066 0.0100 2.3090
v 2395.7101 0.0100 2.3090
v 2395.7101 0.0000 0.6260
v 2397.9066 0.0000 0.6260
v 2397.9066 0.0100 0.6260
v 2395.7101 0.0100 0.6260
v 2397.9066 0.0000 2.3090
v 2395.7101 0.0000 2.3090
v 2395.7101 0.0100 2.3090
v 2397.9066 0.0100 2.3090
v 2397.9066 0.0000 0.6260
v 2397.9066 0.0000 2.3090
v 2397.9066 0.0100 2.3090
v 2397.9066 0.0100 0.6260
v 2395.7101 0.0000 2.3090
v 2395.7101 0.0000 0.6260
v 2395.7101 0.0100 0.6260
v 2395.7101 0.0100 2.3090
v 2389.7938 0.0000 -37.2452
v 2389.7938 0.0000 -34.4806
v 2392.9555 0.0000 -34.4806
v 2392.9555 0.0000 -37.2452
v 2389.7938 0.0100 -37.2452
v 2392.9555 0.0100 -37.2452
v 2392.9555 0.0100 -34.4806
v 2389.7938 0.0100 -34.4806
v 2389.7938 0.0000 -37.2452
v 2392.9555 0.0000 -37.2452
v 2392.9555 0.0100 -37.2452
v 2389.7938 0.0100 -37.2452
v 2392.9555 0.0000 -34.4806
v 2389.7938 0.0000 -34.4806
v 2389.7938 0.0100 -34.4806
v 2392.9555 0.0100 -34.4806
v 2392.9555 0.0000 -37.2452
v 2392.9555 0.0000 -34.4806
v 2392.9555 0.0100 -34.4806
v 2392.9555 0.0100 -37.2452
v 2389.7938 0.0000 -34.4806
v 2389.7938 0.0000 -37.2452
v 2389.7938 0.0100 -37.2452
v 2389.7938 0.0100 -34.4806
v 2374.4947 0.0000 -9.4878
v 2374.4947 0.0000 -7.7866
v 2376.4883 0.0000 -7.7866
v 2376.4883 0.0000 -9.4878
v 2374.4947 0.0100 -9.4878
v 2376.4883 0.0100 -9.4878
v 2376.4883 0.0100 -7.7866
v 2374.4947 0.0100 -7.7866
v 2374.4947 0.0000 -9.4878
v 2376.4883 0.0000 -9.4878
v 2376.4883 0.0100 -9.4878
v 2374.4947 0.0100 -9.4878
v 2376.4883 0.0000 -7.7866
v 2374.4947 0.0000 -7.7866
v 2374.4947 0.0100 -7.7866
v 2376.4883 0.0100 -7.7866
v 2376.4883 0.0000 -9.4878
v 2376.4883 0.0000 -7.7866
v 2376.4883 0.0100 -7.7866
v 2376.4883 0.0100 -9.4878
v 2374.4947 0.0000 -7.7866
v 2374.4947 0.0000 -9.4878
v 2374.4947 0.0100 -9.4878
v 2374.4947 0.0100 -7.7866
v 2351.4532 0.0000 -8.6369
v 2351.4532 0.0000 -6.9091
v 2352.9732 0.0000 -6.9091
v 2352.9732 0.0000 -8.6369
v 2351.4532 0.0100 -8.6369
v 2352.9732 0.0100 -8.6369
v 2352.9732 0.0100 -6.9091
v 2351.4532 0.0100 -6.9091
v 2351.4532 0.0000 -8.6369
v 2352.9732 0.0000 -8.6369
v 2352.9732 0.0100 -8.6369
v 2351.4532 0.0100 -8.6369
v 2352.9732 0.0000 -6.9091
v 2351.4532 0.0000 -6.9091
v 2351.4532 0.0100 -6.9091
v 2352.9732 0.0100 -6.9091
v 2352.9732 0.0000 -8.6369
v 2352.9732 0.0000 -6.9091
v 2352.9732 0.0100 -6.9091
v 2352.9732 0.0100 -8.6369
v 2351.4532 0.0000 -6.9091
v 2351.4532 0.0000 -8.6369
v 2351.4532 0.0100 -8.6369
v 2351.4532 0.0100 -6.9091
v 2437.7633 0.0000 -31.0590
v 2437.7633 0.0000 -27.7608
v 2440.1605 0.0000 -27.7608
v 2440.1605 0.0000 -31.0590
v 2437.7633 0.0100 -31.0590
v 2440.1605 0.0100 -31.0590
v 2440.1605 0.0100 -27.7608
v 2437.7633 0.0100 -27.7608
v 2437.7633 0.0000 -31.0590
v 2440.1605 0.0000 -31.0590
v 2440.1605 0.0100 -31.0590
v 2437.7633 0.0100 -31.0590
v 2440.1605 0.0000 -27.7608
v 2437.7633 0.0000 -27.7608
v 2437.7633 0.0100 -27.7608
v 2440.1605 0.0100 -27.7608
v 2440.1605 0.0000 -31.0590
v 2440.1605 0.0000 -27.7608
v 2440.1605 0.0100 -27.7608
v 2440.1605 0.0100 -31.0590
v 2437.7633 0.0000 -27.7608
v 2437.7633 0.0000 -31.0590
v 2437.7633 0.0100 -31.0590
v 2437.7633 0.0100 -27.7608
v 2413.8479 0.0000 43.2445
v 2413.8479 0.0000 46.4392
v 2416.3094 0.0000 46.4392
v 2416.3094 0.0000 43.2445
v 2413.8479 0.0100 43.2445
v 2416.3094 0.0100 43.2445
v 2416.3094 0.0100 46.4392
v 2413.8479 0.0100 46.4392
v 2413.8479 0.0000 43.2445
v 2416.3094 0.0000 43.2445
v 2416.3094 0.0100 43.2445
v 2413.8479 0.0100 43.2445
v 2416.3094 0.0000 46.4392
v 2413.8479 0.0000 46.4392
v 2413.8479 0.0100 46.4392
v 2416.3094 0.0100 46.4392
v 2416.3094 0.0000 43.2445
v 2416.3094 0.0000 46.4392
v 2416.3094 0.0100 46.4392
v 2416.3094 0.0100 43.2445
v 2413.8479 0.0000 46.4392
v 2413.8479 0.0000 43.2445
v 2413.8479 0.0100 43.2445
v 2413.8479 0.0100 46.4392
v 2433.7404 0.0000 1.4594
v 2433.7404 0.0000 3.2483
v 2435.0852 0.0000 3.2483
v 2435.0852 0.0000 1.4594
v 2433.7404 0.0100 1.4594
v 2435.0852 0.0100 1.4594
v 2435.0852 0.0100 3.2483
v 2433.7404 0.0100 3.2483
v 2433.7404 0.0000 1.4594
v 2435.0852 0.0000 1.4594
v 2435.0852 0.0100 1.4594
v 2433.7404 0.0100 1.4594
v 2435.0852 0.0000 3.2483
v 2433.7404 0.0000 3.2483
v 2433.7404 0.0100 3.2483
v 2435.0852 0.0100 3.2483
v 2435.0852 0.0000 1.4594
v 2435.0852 0.0000 3.2483
v 2435.0852 0.0100 3.2483
v 2435.0852 0.0100 1.4594
v 2433.7404 0.0000 3.2483
v 2433.7404 0.0000 1.4594
v 2433.7404 0.0100 1.4594
v 2433.7404 0.0100 3.2483
v 2448.4469 0.0000 -17.8146
v 2448.4469 0.0000 -15.6846
v 2450.1741 0.0000 -15.6846
v 2450.1741 0.0000 -17.8146
v 2448.4469 0.0100 -17.8146
v 2450.1741 0.0100 -17.8146
v 2450.1741 0.0100 -15.6846
v 2448.4469 0.0100 -15.6846
v 2448.4469 0.0000 -17.8146
v 2450.1741 0.0000 -17.8146
v 2450.1741 0.0100 -17.8146
v 2448.4469 0.0100 -17.8146
v 2450.1741 0.0000 -15.6846
v 2448.4469 0.0000 -15.6846
v 2448.4469 0.0100 -15.6846
v 2450.1741 0.0100 -15.6846
v 2450.1741 0.0000 -17.8146
v 2450.1741 0.0000 -15.6846
v 2450.1741 0.0100 -15.6846
v 2450.1741 0.0100 -17.8146
v 2448.4469 0.0000 -15.6846
v 2448.4469 0.0000 -17.8146
v 2448.4469 0.0100 -17.8146
v 2448.4469 0.0100 -15.6846
v 2368.2820 0.0000 29.3544
v 2368.2820 0.0000 31.5877
v 2370.5563 0.0000 31.5877
v 2370.5563 0.0000 29.3544
v 2368.2820 0.0100 29.3544
v 2370.5563 0.0100 29.3544
v 2370.5563 0.0100 31.5877
v 2368.2820 0.0100 31.5877
v 2368.2820 0.0000 29.3544
v 2370.5563 0.0000 29.3544
v 2370.5563 0.0100 29.3544
v 2368.2820 0.0100 29.3544
v 2370.5563 0.0000 31.5877
v 2368.2820 0.0000 31.5877
v 2368.2820 0.0100 31.5877
v 2370.5563 0.0100 31.5877
v 2370.5563 0.0000 29.3544
v 2370.5563 0.0000 31.5877
v 2370.5563 0.0100 31.5877
v 2370.5563 0.0100 29.3544
v 2368.2820 0.0000 31.5877
v 2368.2820 0.0000 29.3544
v 2368.2820 0.0100 29.3544
v 2368.2820 0.0100 31.5877
v 2360.2778 0.0000 -44.3652
v 2360.2778 0.0000 -40.8506
v 2362.9243 0.0000 -40.8506
v 2362.9243 0.0000 -44.3652
v 2360.2778 0.0100 -44.3652
v 2362.9243 0.0100 -44.3652
v 2362.9243 0.0100 -40.8506
v 2360.2778 0.0100 -40.8506
v 2360.2778 0.0000 -44.3652
v 2362.9243 0.0000 -44.3652
v 2362.9243 0.0100 -44.3652
v 2360.2778 0.0100 -44.3652
v 2362.9243 0.0000 -40.8506
v 2360.2778 0.0000 -40.8506
v 2360.2778 0.0100 -40.8506
v 2362.9243 0.0100 -40.8506
v 2362.9243 0.0000 -44.3652
v 2362.9243 0.0000 -40.8506
v 2362.9243 0.0100 -40.8506
v 2362.9243 0.0100 -44.3652
v 2360.2778 0.0000 -40.8506
v 2360.2778 0.0000 -44.3652
v 2360.2778 0.0100 -44.3652
v 2360.2778 0.0100 -40.8506
v 2407.5765 0.0000 28.4594
v 2407.5765 0.0000 30.7107
v 2410.3589 0.0000 30.7107
v 2410.3589 0.0000 28.4594
v 2407.5765 0.0100 28.4594
v 2410.3589 0.0100 28.4594
v 2410.3589 0.0100 30.7107
v 2407.5765 0.0100 30.7107
v 2407.5765 0.0000 28.4594
v 2410.3589 0.0000 28.4594
v 2410.3589 0.0100 28.4594
v 2407.5765 0.0100 28.4594
v 2410.3589 0.0000 30.7107
v 2407.5765 0.0000 30.7107
v 2407.5765 0.0100 30.7107
v 2410.3589 0.0100 30.7107
v 2410.3589 0.0000 28.4594
v 2410.3589 0.0000 30.7107
v 2410.3589 0.0100 30.7107
v 2410.3589 0.0100 28.4594
v 2407.5765 0.0000 30.7107
v 2407.5765 0.0000 28.4594
v 2407.5765 0.0100 28.4594
v 2407.5765 0.0100 30.7107
v 2398.9195 0.0000 19.2418
v 2398.9195 0.0000 23.3166
v 2402.2020 0.0000 23.3166
v 2402.2020 0.0000 19.2418
v 2398.9195 0.0100 19.2418
v 2402.2020 0.0100 19.2418
v 2402.2020 0.0100 23.3166
v 2398.9195 0.0100 23.3166
v 2398.9195 0.0000 19.2418
v 2402.2020 0.0000 19.2418
v 2402.2020 0.0100 19.2418
v 2398.9195 0.0100 19.2418
v 2402.2020 0.0000 23.3166
v 2398.9195 0.0000 23.3166
v 2398.9195 0.0100 23.3166
v 2402.2020 0.0100 23.3166
v 2402.2020 0.0000 19.2418
v 2402.2020 0.0000 23.3166
v 2402.2020 0.0100 23.3166
v 2402.2020 0.0100 19.2418
v 2398.9195 0.0000 23.3166
v 2398.9195 0.0000 19.2418
v 2398.9195 0.0100 19.2418
v 2398.9195 0.0100 23.3166
v 2403.0824 0.0000 -16.3993
v 2403.0824 0.0000 -13.9691
v 2405.4955 0.0000 -13.9691
v 2405.4955 0.0000 -16.3993
v 2403.0824 0.0100 -16.3993
v 2405.4955 0.0100 -16.3993
v 2405.4955 0.0100 -13.9691
v 2403.0824 0.0100 -13.9691
v 2403.0824 0.0000 -16.3993
v 2405.4955 0.0000 -16.3993
v 2405.4955 0.0100 -16.3993
v 2403.0824 0.0100 -16.3993
v 2405.4955 0.0000 -13.9691
v 2403.0824 0.0000 -13.9691
v 2403.0824 0.0100 -13.9691
v 2405.4955 0.0100 -13.9691
v 2405.4955 0.0000 -16.3993
v 2405.4955 0.0000 -13.9691
v 2405.4955 0.0100 -13.9691
v 2405.4955 0.0100 -16.3993
v 2403.0824 0.0000 -13.9691
v 2403.0824 0.0000 -16.3993
v 2403.0824 0.0100 -16.3993
v 2403.0824 0.0100 -13.9691
v 2415.4180 0.0000 -7.7618
v 2415.4180 0.0000 -6.3277
v 2416.5193 0.0000 -6.3277
v 2416.5193 0.0000 -7.7618
v 2415.4180 0.0100 -7.7618
v 2416.5193 0.0100 -7.7618
v 2416.5193 0.0100 -6.3277
v 2415.4180 0.0100 -6.3277
v 2415.4180 0.0000 -7.7618
v 2416.5193 0.0000 -7.7618
v 2416.5193 0.0100 -7.7618
v 2415.4180 0.0100 -7.7618
v 2416.5193 0.0000 -6.3277
v 2415.4180 0.0000 -6.3277
v 2415.4180 0.0100 -6.3277
v 2416.5193 0.0100 -6.3277
v 2416.5193 0.0000 -7.7618
v 2416.5193 0.0000 -6.3277
v 2416.5193 0.0100 -6.3277
v 2416.5193 0.0100 -7.7618
v 2415.4180 0.0000 -6.3277
v 2415.4180 0.0000 -7.7618
v 2415.4180 0.0100 -7.7618
v 2415.4180 0.0100 -6.3277
v 2405.7959 0.0000 41.5973
v 2405.7959 0.0000 44.1327
v 2408.8698 0.0000 44.1327
v 2408.8698 0.0000 41.5973
v 2405.7959 0.0100 41.5973
v 2408.8698 0.0100 41.5973
v 2408.8698 0.0100 44.1327
v 2405.7959 0.0100 44.1327
v 2405.7959 0.0000 41.5973
v 2408.8698 0.0000 41.5973
v 2408.8698 0.0100 41.5973
v 2405.7959 0.0100 41.5973
v 2408.8698 0.0000 44.1327
v 2405.7959 0.0000 44.1327
v 2405.7959 0.0100 44.1327
v 2408.8698 0.0100 44.1327
v 2408.8698 0.0000 41.5973
v 2408.8698 0.0000 44.1327
v 2408.8698 0.0100 44.1327
v 2408.8698 0.0100 41.5973
v 2405.7959 0.0000 44.1327
v 2405.7959 0.0000 41.5973
v 2405.7959 0.0100 41.5973
v 2405.7959 0.0100 44.1327
v 2369.2768 0.0000 16.4116
v 2369.2768 0.0000 19.5574
v 2371.6026 0.0000 19.5574
v 2371.6026 0.0000 16.4116
v 2369.2768 0.0100 16.4116
v 2371.6026 0.0100 16.4116
v 2371.6026 0.0100 19.5574
v 2369.2768 0.0100 19.5574
v 2369.2768 0.0000 16.4116
v 2371.6026 0.0000 16.4116
v 2371.6026 0.0100 16.4116
v 2369.2768 0.0100 16.4116
v 2371.6026 0.0000 19.5574
v 2369.2768 0.0000 19.5574
v 2369.2768 0.0100 19.5574
v 2371.6026 0.0100 19.5574
v 2371.6026 0.0000 16.4116
v 2371.6026 0.0000 19.5574
v 2371.6026 0.0100 19.5574
v 2371.6026 0.0100 16.4116
v 2369.2768 0.0000 19.5574
v 2369.2768 0.0000 16.4116
v 2369.2768 0.0100 16.4116
v 2369.2768 0.0100 19.5574
v 2423.3119 0.0000 46.0786
v 2423.3119 0.0000 48.1740
v 2425.4984 0.0000 48.1740
v 2425.4984 0.0000 46.0786
v 2423.3119 0.0100 46.0786
v 2425.4984 0.0100 46.0786
v 2425.4984 0.0100 48.1740
v 2423.3119 0.0100 48.1740
v 2423.3119 0.0000 46.0786
v 2425.4984 0.0000 46.0786
v 2425.4984 0.0100 46.0786
v 2423.3119 0.0100 46.0786
v 2425.4984 0.0000 48.1740
v 2423.3119 0.0000 48.1740
v 2423.3119 0.0100 48.1740
v 2425.4984 0.0100 48.1740
v 2425.4984 0.0000 46.0786
v 2425.4984 0.0000 48.1740
v 2425.4984 0.0100 48.1740
v 2425.4984 0.0100 46.0786
v 2423.3119 0.0000 48.1740
v 2423.3119 0.0000 46.0786
v 2423.3119 0.0100 46.0786
v 2423.3119 0.0100 48.1740
v 2393.7292 0.0000 23.7245
v 2393.7292 0.0000 25.3021
v 2395.7301 0.0000 25.3021
v 2395.7301 0.0000 23.7245
v 2393.7292 0.0100 23.7245
v 2395.7301 0.0100 23.7245
v 2395.7301 0.0100 25.3021
v 2393.7292 0.0100 25.3021
v 2393.7292 0.0000 23.7245
v 2395.7301 0.0000 23.7245
v 2395.7301 0.0100 23.7245
v 2393.7292 0.0100 23.7245
v 2395.7301 0.0000 25.3021
v 2393.7292 0.0000 25.3021
v 2393.7292 0.0100 25.3021
v 2395.7301 0.0100 25.3021
v 2395.7301 0.0000 23.7245
v 2395.7301 0.0000 25.3021
v 2395.7301 0.0100 25.3021
v 2395.7301 0.0100 23.7245
v 2393.7292 0.0000 25.3021
v 2393.7292 0.0000 23.7245
v 2393.7292 0.0100 23.7245
v 2393.7292 0.0100 25.3021
v 2364.5820 0.0000 -30.9446
v 2364.5820 0.0000 -27.5956
v 2367.2906 0.0000 -27.5956
v 2367.2906 0.0000 -30.9446
v 2364.5820 0.0100 -30.9446
v 2367.2906 0.0100 -30.9446
v 2367.2906 0.0100 -27.5956
v 2364.5820 0.0100 -27.5956
v 2364.5820 0.0000 -30.9446
v 2367.2906 0.0000 -30.9446
v 2367.2906 0.0100 -30.9446
v 2364.5820 0.0100 -30.9446
v 2367.2906 0.0000 -27.5956
v 2364.5820 0.0000 -27.5956
v 2364.5820 0.0100 -27.5956
v 2367.2906 0.0100 -27.5956
v 2367.2906 0.0000 -30.9446
v 2367.2906 0.0000 -27.5956
v 2367.2906 0.0100 -27.5956
v 2367.2906 0.0100 -30.9446
v 2364.5820 0.0000 -27.5956
v 2364.5820 0.0000 -30.9446
v 2364.5820 0.0100 -30.9446
v 2364.5820 0.0100 -27.5956
v 2380.7808 0.0000 43.9426
v 2380.7808 0.0000 46.0560
v 2383.0240 0.0000 46.0560
v 2383.0240 0.0000 43.9426
v 2380.7808 0.0100 43.9426
v 2383.0240 0.0100 43.9426
v 2383.0240 0.0100 46.0560
v 2380.7808 0.0100 46.0560
v 2380.7808 0.0000 43.9426
v 2383.0240 0.0000 43.9426
v 2383.0240 0.0100 43.9426
v 2380.7808 0.0100 43.9426
v 2383.0240 0.0000 46.0560
v 2380.7808 0.0000 46.0560
v 2380.7808 0.0100 46.0560
v 2383.0240 0.0100 46.0560
v 2383.0240 0.0000 43.9426
v 2383.0240 0.0000 46.0560
v 2383.0240 0.0100 46.0560
v 2383.0240 0.0100 43.9426
v 2380.7808 0.0000 46.0560
v 2380.7808 0.0000 43.9426
v 2380.7808 0.0100 43.9426
v 2380.7808 0.0100 46.0560
v 2384.9397 0.0000 -40.8694
v 2384.9397 0.0000 -39.1862
v 2386.6688 0.0000 -39.1862
v 2386.6688 0.0000 -40.8694
v 2384.9397 0.0100 -40.8694
v 2386.6688 0.0100 -40.8694
v 2386.6688 0.0100 -39.1862
v 2384.9397 0.0100 -39.1862
v 2384.9397 0.0000 -40.8694
v 2386.6688 0.0000 -40.8694
v 2386.6688 0.0100 -40.8694
v 2384.9397 0.0100 -40.8694
v 2386.6688 0.0000 -39.1862
v 2384.9397 0.0000 -39.1862
v 2384.9397 0.0100 -39.1862
v 2386.6688 0.0100 -39.1862
v 2386.6688 0.0000 -40.8694
v 2386.6688 0.0000 -39.1862
v 2386.6688 0.0100 -39.1862
v 2386.6688 0.0100 -40.8694
v 2384.9397 0.0000 -39.1862
v 2384.9397 0.0000 -40.8694
v 2384.9397 0.0100 -40.8694
v 2384.9397 0.0100 -39.1862
v 2428.3834 0.0000 -20.6476
v 2428.3834 0.0000 -18.7633
v 2430.4867 0.0000 -18.7633
v 2430.4867 0.0000 -20.6476
v 2428.3834 0.0100 -20.6476
v 2430.4867 0.0100 -20.6476
v 2430.4867 0.0100 -18.7633
v 2428.3834 0.0100 -18.7633
v 2428.3834 0.0000 -20.6476
v 2430.4867 0.0000 -20.6476
v 2430.4867 0.0100 -20.6476
v 2428.3834 0.0100 -20.6476
v 2430.4867 0.0000 -18.7633
v 2428.3834 0.0000 -18.7633
v 2428.3834 0.0100 -18.7633
v 2430.4867 0.0100 -18.7633
v 2430.4867 0.0000 -20.6476
v 2430.4867 0.0000 -18.7633
v 2430.4867 0.0100 -18.7633
v 2430.4867 0.0100 -20.6476
v 2428.3834 0.0000 -18.7633
v 2428.3834 0.0000 -20.6476
v 2428.3834 0.0100 -20.6476
v 2428.3834 0.0100 -18.7633
v 2350.8047 0.0000 -51.5799
v 2350.8047 0.0000 -50.3871
v 2352.0607 0.0000 -50.3871
v 2352.0607 0.0000 -51.5799
v 2350.8047 0.0100 -51.5799
v 2352.0607 0.0100 -51.5799
v 2352.0607 0.0100 -50.3871
v 2350.8047 0.0100 -50.3871
v 2350.8047 0.0000 -51.5799
v 2352.0607 0.0000 -51.5799
v 2352.0607 0.0100 -51.5799
v 2350.8047 0.0100 -51.5799
v 2352.0607 0.0000 -50.3871
v 2350.8047 0.0000 -50.3871
v 2350.8047 0.0100 -50.3871
v 2352.0607 0.0100 -50.3871
v 2352.0607 0.0000 -51.5799
v 2352.0607 0.0000 -50.3871
v 2352.0607 0.0100 -50.3871
v 2352.0607 0.0100 -51.5799
v 2350.8047 0.0000 -50.3871
v 2350.8047 0.0000 -51.5799
v 2350.8047 0.0100 -51.5799
v 2350.8047 0.0100 -50.3871
v 2446.4507 0.0000 23.9770
v 2446.4507 0.0000 26.1524
v 2448.5587 0.0000 26.1524
v 2448.5587 0.0000 23.9770
v 2446.4507 0.0100 23.9770
v 2448.5587 0.0100 23.9770
v 2448.5587 0.0100 26.1524
v 2446.4507 0.0100 26.1524
v 2446.4507 0.0000 23.9770
v 2448.5587 0.0000 23.9770
v 2448.5587 0.0100 23.9770
v 2446.4507 0.0100 23.9770
v 2448.5587 0.0000 26.1524
v 2446.4507 0.0000 26.1524
v 2446.4507 0.0100 26.1524
v 2448.5587 0.0100 26.1524
v 2448.5587 0.0000 23.9770
v 2448.5587 0.0000 26.1524
v 2448.5587 0.0100 26.1524
v 2448.5587 0.0100 23.9770
v 2446.4507 0.0000 26.1524
v 2446.4507 0.0000 23.9770
v 2446.4507 0.0100 23.9770
v 2446.4507 0.0100 26.1524
v 2402.0700 0.0000 42.5123
v 2402.0700 0.0000 46.5808
v 2405.1331 0.0000 46.5808
v 2405.1331 0.0000 42.5123
v 2402.0700 0.0100 42.5123
v 2405.1331 0.0100 42.5123
v 2405.1331 0.0100 46.5808
v 2402.0700 0.0100 46.5808
v 2402.0700 0.0000 42.5123
v 2405.1331 0.0000 42.5123
v 2405.1331 0.0100 42.5123
v 2402.0700 0.0100 42.5123
v 2405.1331 0.0000 46.5808
v 2402.0700 0.0000 46.5808
v 2402.0700 0.0100 46.5808
v 2405.1331 0.0100 46.5808
v 2405.1331 0.0000 42.5123
v 2405.1331 0.0000 46.5808
v 2405.1331 0.0100 46.5808
v 2405.1331 0.0100 42.5123
v 2402.0700 0.0000 46.5808
v 2402.0700 0.0000 42.5123
v 2402.0700 0.0100 42.5123
v 2402.0700 0.0100 46.5808
v 2397.4161 0.0000 -1.3065
v 2397.4161 0.0000 -0.1162
v 2398.5833 0.0000 -0.1162
v 2398.5833 0.0000 -1.3065
v 2397.4161 0.0100 -1.3065
v 2398.5833 0.0100 -1.3065
v 2398.5833 0.0100 -0.1162
v 2397.4161 0.0100 -0.1162
v 2397.4161 0.0000 -1.3065
v 2398.5833 0.0000 -1.3065
v 2398.5833 0.0100 -1.3065
v 2397.4161 0.0100 -1.3065
v 2398.5833 0.0000 -0.1162
v 2397.4161 0.0000 -0.1162
v 2397.4161 0.0100 -0.1162
v 2398.5833 0.0100 -0.1162
v 2398.5833 0.0000 -1.3065
v 2398.5833 0.0000 -0.1162
v 2398.5833 0.0100 -0.1162
v 2398.5833 0.0100 -1.3065
v 2397.4161 0.0000 -0.1162
v 2397.4161 0.0000 -1.3065
v 2397.4161 0.0100 -1.3065
v 2397.4161 0.0100 -0.1162
v 2401.4534 0.0000 -36.3013
v 2401.4534 0.0000 -34.4065
v 2404.3554 0.0000 -34.4065
v 2404.3554 0.0000 -36.3013
v 2401.4534 0.0100 -36.3013
v 2404.3554 0.0100 -36.3013
v 2404.3554 0.0100 -34.4065
v 2401.4534 0.0100 -34.4065
v 2401.4534 0.0000 -36.3013
v 2404.3554 0.0000 -36.3013
v 2404.3554 0.0100 -36.3013
v 2401.4534 0.0100 -36.3013
v 2404.3554 0.0000 -34.4065
v 2401.4534 0.0000 -34.4065
v 2401.4534 0.0100 -34.4065
v 2404.3554 0.0100 -34.4065
v 2404.3554 0.0000 -36.3013
v 2404.3554 0.0000 -34.4065
v 2404.3554 0.0100 -34.4065
v 2404.3554 0.0100 -36.3013
v 2401.4534 0.0000 -34.4065
v 2401.4534 0.0000 -36.3013
v 2401.4534 0.0100 -36.3013
v 2401.4534 0.0100 -34.4065
v 2445.9305 0.0000 -37.4856
v 2445.9305 0.0000 -35.6869
v 2447.4697 0.0000 -35.6869
v 2447.4697 0.0000 -37.4856
v 2445.9305 0.0100 -37.4856
v 2447.4697 0.0100 -37.4856
v 2447.4697 0.0100 -35.6869
v 2445.9305 0.0100 -35.6869
v 2445.9305 0.0000 -37.4856
v 2447.4697 0.0000 -37.4856
v 2447.4697 0.0100 -37.4856
v 2445.9305 0.0100 -37.4856
v 2447.4697 0.0000 -35.6869
v 2445.9305 0.0000 -35.6869
v 2445.9305 0.0100 -35.6869
v 2447.4697 0.0100 -35.6869
v 2447.4697 0.0000 -37.4856
v 2447.4697 0.0000 -35.6869
v 2447.4697 0.0100 -35.6869
v 2447.4697 0.0100 -37.4856
v 2445.9305 0.0000 -35.6869
v 2445.9305 0.0000 -37.4856
v 2445.9305 0.0100 -37.4856
v 2445.9305 0.0100 -35.6869
v 2370.4975 0.0000 -42.6196
v 2370.4975 0.0000 -40.8155
v 2372.7569 0.0000 -40.8155
v 2372.7569 0.0000 -42.6196
v 2370.4975 0.0100 -42.6196
v 2372.7569 0.0100 -42.6196
v 2372.7569 0.0100 -40.8155
v 2370.4975 0.0100 -40.8155
v 2370.4975 0.0000 -42.6196
v 2372.7569 0.0000 -42.6196
v 2372.7569 0.0100 -42.6196
v 2370.4975 0.0100 -42.6196
v 2372.7569 0.0000 -40.8155
v 2370.4975 0.0000 -40.8155
v 2370.4975 0.0100 -40.8155
v 2372.7569 0.0100 -40.8155
v 2372.7569 0.0000 -42.6196
v 2372.7569 0.0000 -40.8155
v 2372.7569 0.0100 -40.8155
v 2372.7569 0.0100 -42.6196
v 2370.4975 0.0000 -40.8155
v 2370.4975 0.0000 -42.6196
v 2370.4975 0.0100 -42.6196
v 2370.4975 0.0100 -40.8155
v 2390.3046 0.0000 -2.1560
v 2390.3046 0.0000 1.4930
v 2393.1712 0.0000 1.4930
v 2393.1712 0.0000 -2.1560
v 2390.3046 0.0100 -2.1560
v 2393.1712 0.0100 -2.1560
v 2393.1712 0.0100 1.4930
v 2390.3046 0.0100 1.4930
v 2390.3046 0.0000 -2.1560
v 2393.1712 0.0000 -2.1560
v 2393.1712 0.0100 -2.1560
v 2390.3046 0.0100 -2.1560
v 2393.1712 0.0000 1.4930
v 2390.3046 0.0000 1.4930
v 2390.3046 0.0100 1.4930
v 2393.1712 0.0100 1.4930
v 2393.1712 0.0000 -2.1560
v 2393.1712 0.0000 1.4930
v 2393.1712 0.0100 1.4930
v 2393.1712 0.0100 -2.1560
v 2390.3046 0.0000 1.4930
v 2390.3046 0.0000 -2.1560
v 2390.3046 0.0100 -2.1560
v 2390.3046 0.0100 1.4930
v 2414.2672 0.0000 -17.7555
v 2414.2672 0.0000 -16.3589
v 2415.4558 0.0000 -16.3589
v 2415.4558 0.0000 -17.7555
v 2414.2672 0.0100 -17.7555
v 2415.4558 0.0100 -17.7555
v 2415.4558 0.0100 -16.3589
v 2414.2672 0.0100 -16.3589
v 2414.2672 0.0000 -17.7555
v 2415.4558 0.0000 -17.7555
v 2415.4558 0.0100 -17.7555
v 2414.2672 0.0100 -17.7555
v 2415.4558 0.0000 -16.3589
v 2414.2672 0.0000 -16.3589
v 2414.2672 0.0100 -16.3589
v 2415.4558 0.0100 -16.3589
v 2415.4558 0.0000 -17.7555
v 2415.4558 0.0000 -16.3589
v 2415.4558 0.0100 -16.3589
v 2415.4558 0.0100 -17.7555
v 2414.2672 0.0000 -16.3589
v 2414.2672 0.0000 -17.7555
v 2414.2672 0.0100 -17.7555
v 2414.2672 0.0100 -16.3589
v 2451.3663 0.0000 -16.2801
v 2451.3663 0.0000 -14.2958
v 2452.8628 0.0000 -14.2958
v 2452.8628 0.0000 -16.2801
v 2451.3663 0.0100 -16.2801
v 2452.8628 0.0100 -16.2801
v 2452.8628 0.0100 -14.2958
v 2451.3663 0.0100 -14.2958
v 2451.3663 0.0000 -16.2801
v 2452.8628 0.0000 -16.2801
v 2452.8628 0.0100 -16.2801
v 2451.3663 0.0100 -16.2801
v 2452.8628 0.0000 -14.2958
v 2451.3663 0.0000 -14.2958
v 2451.3663 0.0100 -14.2958
v 2452.8628 0.0100 -14.2958
v 2452.8628 0.0000 -16.2801
v 2452.8628 0.0000 -14.2958
v 2452.8628 0.0100 -14.2958
v 2452.8628 0.0100 -16.2801
v 2451.3663 0.0000 -14.2958
v 2451.3663 0.0000 -16.2801
v 2451.3663 0.0100 -16.2801
v 2451.3663 0.0100 -14.2958
v 2443.0525 0.0000 31.3454
v 2443.0525 0.0000 33.6337
v 2444.7531 0.0000 33.6337
v 2444.7531 0.0000 31.3454
v 2443.0525 0.0100 31.3454
v 2444.7531 0.0100 31.3454
v 2444.7531 0.0100 33.6337
v 2443.0525 0.0100 33.6337
v 2443.0525 0.0000 31.3454
v 2444.7531 0.0000 31.3454
v 2444.7531 0.0100 31.3454
v 2443.0525 0.0100 31.3454
v 2444.7531 0.0000 33.6337
v 2443.0525 0.0000 33.6337
v 2443.0525 0.0100 33.6337
v 2444.7531 0.0100 33.6337
v 2444.7531 0.0000 31.3454
v 2444.7531 0.0000 33.6337
v 2444.7531 0.0100 33.6337
v 2444.7531 0.0100 31.3454
v 2443.0525 0.0000 33.6337
v 2443.0525 0.0000 31.3454
v 2443.0525 0.0100 31.3454
v 2443.0525 0.0100 33.6337
vt 1955.8333 -44.1667
vt 1955.8333 44.1667
vt 2044.1667 44.1667
vt 2044.1667 -44.1667
vt 1955.8333 -44.1667
vt 2044.1667 -44.1667
vt 2044.1667 44.1667
vt 1955.8333 44.1667
vt 1955.8333 -0.4167
vt 2044.1667 -0.4167
vt 2044.1667 0.0000
vt 1955.8333 0.0000
vt 2044.1667 -0.4167
vt 1955.8333 -0.4167
vt 1955.8333 0.0000
vt 2044.1667 0.0000
vt -44.1667 -0.4167
vt 44.1667 -0.4167
vt 44.1667 0.0000
vt -44.1667 0.0000
vt 44.1667 -0.4167
vt -44.1667 -0.4167
vt -44.1667 0.0000
vt 44.1667 0.0000
vt 1955.8333 -44.1667
vt 1955.8333 44.1667
vt 1956.2500 44.1667
vt 1956.2500 -44.1667
vt 1955.8333 -44.1667
vt 1956.2500 -44.1667
vt 1956.2500 44.1667
vt 1955.8333 44.1667
vt 1955.8333 0.0000
vt 1956.2500 0.0000
vt 1956.2500 3.0000
vt 1955.8333 3.0000
vt 1956.2500 0.0000
vt 1955.8333 0.0000
vt 1955.8333 3.0000
vt 1956.2500 3.0000
vt -44.1667 0.0000
vt 44.1667 0.0000
vt 44.1667 3.0000
vt -44.1667 3.0000
vt 44.1667 0.0000
vt -44.1667 0.0000
vt -44.1667 3.0000
vt 44.1667 3.0000
vt 1955.8333 -44.1667
vt 1955.8333 -43.7500
vt 2044.1667 -43.7500
vt 2044.1667 -44.1667
vt 1955.8333 -44.1667
vt 2044.1667 -44.1667
vt 2044.1667 -43.7500
vt 1955.8333 -43.7500
vt 1955.8333 0.0000
vt 2044.1667 0.0000
vt 2044.1667 3.0000
vt 1955.8333 3.0000
vt 2044.1667 0.0000
vt 1955.8333 0.0000
vt 1955.8333 3.0000
vt 2044.1667 3.0000
vt -44.1667 0.0000
vt -43.7500 0.0000
vt -43.7500 3.0000
vt -44.1667 3.0000
vt -43.7500 0.0000
vt -44.1667 0.0000
vt -44.1667 3.0000
vt -43.7500 3.0000
vt 2043.7500 -44.1667
vt 2043.7500 44.1667
vt 2044.1667 44.1667
vt 2044.1667 -44.1667
vt 2043.7500 -44.1667
vt 2044.1667 -44.1667
vt 2044.1667 44.1667
vt 2043.7500 44.1667
vt 2043.7500 0.0000
vt 2044.1667 0.0000
vt 2044.1667 3.0000
vt 2043.7500 3.0000
vt 2044.1667 0.0000
vt 2043.7500 0.0000
vt 2043.7500 3.0000
vt 2044.1667 3.0000
vt -44.1667 0.0000
vt 44.1667 0.0000
vt 44.1667 3.0000
vt -44.1667 3.0000
vt 44.1667 0.0000
vt -44.1667 0.0000
vt -44.1667 3.0000
vt 44.1667 3.0000
vt 1955.8333 43.7500
vt 1955.8333 44.1667
vt 2044.1667 44.1667
vt 2044.1667 43.7500
vt 1955.8333 43.7500
vt 2044.1667 43.7500
vt 2044.1667 44.1667
vt 1955.8333 44.1667
vt 1955.8333 0.0000
vt 2044.1667 0.0000
vt 2044.1667 3.0000
vt 1955.8333 3.0000
vt 2044.1667 0.0000
vt 1955.8333 0.0000
vt 1955.8333 3.0000
vt 2044.1667 3.0000
vt 43.7500 0.0000
vt 44.1667 0.0000
vt 44.1667 3.0000
vt 43.7500 3.0000
vt 44.1667 0.0000
vt 43.7500 0.0000
vt 43.7500 3.0000
vt 44.1667 3.0000
vt 1957.0905 -3.5048
vt 1957.0905 -2.2832
vt 1957.9679 -2.2832
vt 1957.9679 -3.5048
vt 1957.0905 -3.5048
vt 1957.9679 -3.5048
vt 1957.9679 -2.2832
vt 1957.0905 -2.2832
vt 1957.0905 0.0000
vt 1957.9679 0.0000
vt 1957.9679 0.0083
vt 1957.0905 0.0083
vt 1957.9679 0.0000
vt 1957.0905 0.0000
vt 1957.0905 0.0083
vt 1957.9679 0.0083
vt -3.5048 0.0000
vt -2.2832 0.0000
vt -2.2832 0.0083
vt -3.5048 0.0083
vt -2.2832 0.0000
vt -3.5048 0.0000
vt -3.5048 0.0083
vt -2.2832 0.0083
vt 1960.9704 22.4035
vt 1960.9704 23.9895
vt 1962.3857 23.9895
vt 1962.3857 22.4035
vt 1960.9704 22.4035
vt 1962.3857 22.4035
vt 1962.3857 23.9895
vt 1960.9704 23.9895
vt 1960.9704 0.0000
vt 1962.3857 0.0000
vt 1962.3857 0.0083
vt 1960.9704 0.0083
vt 1962.3857 0.0000
vt 1960.9704 0.0000
vt 1960.9704 0.0083
vt 1962.3857 0.0083
vt 22.4035 0.0000
vt 23.9895 0.0000
vt 23.9895 0.0083
vt 22.4035 0.0083
vt 23.9895 0.0000
vt 22.4035 0.0000
vt 22.4035 0.0083
vt 23.9895 0.0083
vt 2027.2282 -35.9330
vt 2027.2282 -34.6720
vt 2028.2443 -34.6720
vt 2028.2443 -35.9330
vt 2027.2282 -35.9330
vt 2028.2443 -35.9330
vt 2028.2443 -34.6720
vt 2027.2282 -34.6720
vt 2027.2282 0.0000
vt 2028.2443 0.0000
vt 2028.2443 0.0083
vt 2027.2282 0.0083
vt 2028.2443 0.0000
vt 2027.2282 0.0000
vt 2027.2282 0.0083
vt 2028.2443 0.0083
vt -35.9330 0.0000
vt -34.6720 0.0000
vt -34.6720 0.0083
vt -35.9330 0.0083
vt -34.6720 0.0000
vt -35.9330 0.0000
vt -35.9330 0.0083
vt -34.6720 0.0083
vt 1977.7523 3.2271
vt 1977.7523 4.7506
vt 1979.5211 4.7506
vt 1979.5211 3.2271
vt 1977.7523 3.2271
vt 1979.5211 3.2271
vt 1979.5211 4.7506
vt 1977.7523 4.7506
vt 1977.7523 0.0000
vt 1979.5211 0.0000
vt 1979.5211 0.0083
vt 1977.7523 0.0083
vt 1979.5211 0.0000
vt 1977.7523 0.0000
vt 1977.7523 0.0083
vt 1979.5211 0.0083
vt 3.2271 0.0000
vt 4.7506 0.0000
vt 4.7506 0.0083
vt 3.2271 0.0083
vt 4.7506 0.0000
vt 3.2271 0.0000
vt 3.2271 0.0083
vt 4.7506 0.0083
vt 1996.4251 0.5217
vt 1996.4251 1.9242
vt 1998.2555 1.9242
vt 1998.2555 0.5217
vt 1996.4251 0.5217
vt 1998.2555 0.5217
vt 1998.2555 1.9242
vt 1996.4251 1.9242
vt 1996.4251 0.0000
vt 1998.2555 0.0000
vt 1998.2555 0.0083
vt 1996.4251 0.0083
vt 1998.2555 0.0000
vt 1996.4251 0.0000
vt 1996.4251 0.0083
vt 1998.2555 0.0083
vt 0.5217 0.0000
vt 1.9242 0.0000
vt 1.9242 0.0083
vt 0.5217 0.0083
vt 1.9242 0.0000
vt 0.5217 0.0000
vt 0.5217 0.0083
vt 1.9242 0.0083
vt 1991.4948 -31.0377
vt 1991.4948 -28.7339
vt 1994.1296 -28.7339
vt 1994.1296 -31.0377
vt 1991.4948 -31.0377
vt 1994.1296 -31.0377
vt 1994.1296 -28.7339
vt 1991.4948 -28.7339
vt 1991.4948 0.0000
vt 1994.1296 0.0000
vt 1994.1296 0.0083
vt 1991.4948 0.0083
vt 1994.1296 0.0000
vt 1991.4948 0.0000
vt 1991.4948 0.0083
vt 1994.1296 0.0083
vt -31.0377 0.0000
vt -28.7339 0.0000
vt -28.7339 0.0083
vt -31.0377 0.0083
vt -28.7339 0.0000
vt -31.0377 0.0000
vt -31.0377 0.0083
vt -28.7339 0.0083
vt 1978.7455 -7.9065
vt 1978.7455 -6.4888
vt 1980.4069 -6.4888
vt 1980.4069 -7.9065
vt 1978.7455 -7.9065
vt 1980.4069 -7.9065
vt 1980.4069 -6.4888
vt 1978.7455 -6.4888
vt 1978.7455 0.0000
vt 1980.4069 0.0000
vt 1980.4069 0.0083
vt 1978.7455 0.0083
vt 1980.4069 0.0000
vt 1978.7455 0.0000
vt 1978.7455 0.0083
vt 1980.4069 0.0083
vt -7.9065 0.0000
vt -6.4888 0.0000
vt -6.4888 0.0083
vt -7.9065 0.0083
vt -6.4888 0.0000
vt -7.9065 0.0000
vt -7.9065 0.0083
vt -6.4888 0.0083
vt 1959.5443 -7.1974
vt 1959.5443 -5.7576
vt 1960.8110 -5.7576
vt 1960.8110 -7.1974
vt 1959.5443 -7.1974
vt 1960.8110 -7.1974
vt 1960.8110 -5.7576
vt 1959.5443 -5.7576
vt 1959.5443 0.0000
vt 1960.8110 0.0000
vt 1960.8110 0.0083
vt 1959.5443 0.0083
vt 1960.8110 0.0000
vt 1959.5443 0.0000
vt 1959.5443 0.0083
vt 1960.8110 0.0083
vt -7.1974 0.0000
vt -5.7576 0.0000
vt -5.7576 0.0083
vt -7.1974 0.0083
vt -5.7576 0.0000
vt -7.1974 0.0000
vt -7.1974 0.0083
vt -5.7576 0.0083
vt 2031.4694 -25.8825
vt 2031.4694 -23.1340
vt 2033.4671 -23.1340
vt 2033.4671 -25.8825
vt 2031.4694 -25.8825
vt 2033.4671 -25.8825
vt 2033.4671 -23.1340
vt 2031.4694 -23.1340
vt 2031.4694 0.0000
vt 2033.4671 0.0000
vt 2033.4671 0.0083
vt 2031.4694 0.0083
vt 2033.4671 0.0000
vt 2031.4694 0.0000
vt 2031.4694 0.0083
vt 2033.4671 0.0083
vt -25.8825 0.0000
vt -23.1340 0.0000
vt -23.1340 0.0083
vt -25.8825 0.0083
vt -23.1340 0.0000
vt -25.8825 0.0000
vt -25.8825 0.0083
vt -23.1340 0.0083
vt 2011.5399 36.0371
vt 2011.5399 38.6993
vt 2013.5912 38.6993
vt 2013.5912 36.0371
vt 2011.5399 36.0371
vt 2013.5912 36.0371
vt 2013.5912 38.6993
vt 2011.5399 38.6993
vt 2011.5399 0.0000
vt 2013.5912 0.0000
vt 2013.5912 0.0083
vt 2011.5399 0.0083
vt 2013.5912 0.0000
vt 2011.5399 0.0000
vt 2011.5399 0.0083
vt 2013.5912 0.0083
vt 36.0371 0.0000
vt 38.6993 0.0000
vt 38.6993 0.0083
vt 36.0371 0.0083
vt 38.6993 0.0000
vt 36.0371 0.0000
vt 36.0371 0.0083
vt 38.6993 0.0083
vt 2028.1170 1.2161
vt 2028.1170 2.7069
vt 2029.2377 2.7069
vt 2029.2377 1.2161
vt 2028.1170 1.2161
vt 2029.2377 1.2161
vt 2029.2377 2.7069
vt 2028.1170 2.7069
vt 2028.1170 0.0000
vt 2029.2377 0.0000
vt 2029.2377 0.0083
vt 2028.1170 0.0083
vt 2029.2377 0.0000
vt 2028.1170 0.0000
vt 2028.1170 0.0083
vt 2029.2377 0.0083
vt 1.2161 0.0000
vt 2.7069 0.0000
vt 2.7069 0.0083
vt 1.2161 0.0083
vt 2.7069 0.0000
vt 1.2161 0.0000
vt 1.2161 0.0083
vt 2.7069 0.0083
vt 2040.3725 -14.8455
vt 2040.3725 -13.0705
vt 2041.8117 -13.0705
vt 2041.8117 -14.8455
vt 2040.3725 -14.8455
vt 2041.8117 -14.8455
vt 2041.8117 -13.0705
vt 2040.3725 -13.0705
vt 2040.3725 0.0000
vt 2041.8117 0.0000
vt 2041.8117 0.0083
vt 2040.3725 0.0083
vt 2041.8117 0.0000
vt 2040.3725 0.0000
vt 2040.3725 0.0083
vt 2041.8117 0.0083
vt -14.8455 0.0000
vt -13.0705 0.0000
vt -13.0705 0.0083
vt -14.8455 0.0083
vt -13.0705 0.0000
vt -14.8455 0.0000
vt -14.8455 0.0083
vt -13.0705 0.0083
vt 1973.5683 24.4620
vt 1973.5683 26.3231
vt 1975.4636 26.3231
vt 1975.4636 24.4620
vt 1973.5683 24.4620
vt 1975.4636 24.4620
vt 1975.4636 26.3231
vt 1973.5683 26.3231
vt 1973.5683 0.0000
vt 1975.4636 0.0000
vt 1975.4636 0.0083
vt 1973.5683 0.0083
vt 1975.4636 0.0000
vt 1973.5683 0.0000
vt 1973.5683 0.0083
vt 1975.4636 0.0083
vt 24.4620 0.0000
vt 26.3231 0.0000
vt 26.3231 0.0083
vt 24.4620 0.0083
vt 26.3231 0.0000
vt 24.4620 0.0000
vt 24.4620 0.0083
vt 26.3231 0.0083
vt 1966.8982 -36.9710
vt 1966.8982 -34.0422
vt 1969.1036 -34.0422
vt 1969.1036 -36.9710
vt 1966.8982 -36.9710
vt 1969.1036 -36.9710
vt 1969.1036 -34.0422
vt 1966.8982 -34.0422
vt 1966.8982 0.0000
vt 1969.1036 0.0000
vt 1969.1036 0.0083
vt 1966.8982 0.0083
vt 1969.1036 0.0000
vt 1966.8982 0.0000
vt 1966.8982 0.0083
vt 1969.1036 0.0083
vt -36.9710 0.0000
vt -34.0422 0.0000
vt -34.0422 0.0083
vt -36.9710 0.0083
vt -34.0422 0.0000
vt -36.9710 0.0000
vt -36.9710 0.0083
vt -34.0422 0.0083
vt 2006.3138 23.7162
vt 2006.3138 25.5922
vt 2008.6324 25.5922
vt 2008.6324 23.7162
vt 2006.3138 23.7162
vt 2008.6324 23.7162
vt 2008.6324 25.5922
vt 2006.3138 25.5922
vt 2006.3138 0.0000
vt 2008.6324 0.0000
vt 2008.6324 0.0083
vt 2006.3138 0.0083
vt 2008.6324 0.0000
vt 2006.3138 0.0000
vt 2006.3138 0.0083
vt 2008.6324 0.0083
vt 23.7162 0.0000
vt 25.5922 0.0000
vt 25.5922 0.0083
vt 23.7162 0.0083
vt 25.5922 0.0000
vt 23.7162 0.0000
vt 23.7162 0.0083
vt 25.5922 0.0083
vt 1999.0996 16.0348
vt 1999.0996 19.4305
vt 2001.8350 19.4305
vt 2001.8350 16.0348
vt 1999.0996 16.0348
vt 2001.8350 16.0348
vt 2001.8350 19.4305
vt 1999.0996 19.4305
vt 1999.0996 0.0000
vt 2001.8350 0.0000
vt 2001.8350 0.0083
vt 1999.0996 0.0083
vt 2001.8350 0.0000
vt 1999.0996 0.0000
vt 1999.0996 0.0083
vt 2001.8350 0.0083
vt 16.0348 0.0000
vt 19.4305 0.0000
vt 19.4305 0.0083
vt 16.0348 0.0083
vt 19.4305 0.0000
vt 16.0348 0.0000
vt 16.0348 0.0083
vt 19.4305 0.0083
vt 2002.5687 -13.6661
vt 2002.5687 -11.6409
vt 2004.5796 -11.6409
vt 2004.5796 -13.6661
vt 2002.5687 -13.6661
vt 2004.5796 -13.6661
vt 2004.5796 -11.6409
vt 2002.5687 -11.6409
vt 2002.5687 0.0000
vt 2004.5796 0.0000
vt 2004.5796 0.0083
vt 2002.5687 0.0083
vt 2004.5796 0.0000
vt 2002.5687 0.0000
vt 2002.5687 0.0083
vt 2004.5796 0.0083
vt -13.6661 0.0000
vt -11.6409 0.0000
vt -11.6409 0.0083
vt -13.6661 0.0083
vt -11.6409 0.0000
vt -13.6661 0.0000
vt -13.6661 0.0083
vt -11.6409 0.0083
vt 2012.8483 -6.4682
vt 2012.8483 -5.2731
vt 2013.7661 -5.2731
vt 2013.7661 -6.4682
vt 2012.8483 -6.4682
vt 2013.7661 -6.4682
vt 2013.7661 -5.2731
vt 2012.8483 -5.2731
vt 2012.8483 0.0000
vt 2013.7661 0.0000
vt 2013.7661 0.0083
vt 2012.8483 0.0083
vt 2013.7661 0.0000
vt 2012.8483 0.0000
vt 2012.8483 0.0083
vt 2013.7661 0.0083
vt -6.4682 0.0000
vt -5.2731 0.0000
vt -5.2731 0.0083
vt -6.4682 0.0083
vt -5.2731 0.0000
vt -6.4682 0.0000
vt -6.4682 0.0083
vt -5.2731 0.0083
vt 2004.8299 34.6644
vt 2004.8299 36.7773
vt 2007.3915 36.7773
vt 2007.3915 34.6644
vt 2004.8299 34.6644
vt 2007.3915 34.6644
vt 2007.3915 36.7773
vt 2004.8299 36.7773
vt 2004.8299 0.0000
vt 2007.3915 0.0000
vt 2007.3915 0.0083
vt 2004.8299 0.0083
vt 2007.3915 0.0000
vt 2004.8299 0.0000
vt 2004.8299 0.0083
vt 2007.3915 0.0083
vt 34.6644 0.0000
vt 36.7773 0.0000
vt 36.7773 0.0083
vt 34.6644 0.0083
vt 36.7773 0.0000
vt 34.6644 0.0000
vt 34.6644 0.0083
vt 36.7773 0.0083
vt 1974.3973 13.6764
vt 1974.3973 16.2979
vt 1976.3355 16.2979
vt 1976.3355 13.6764
vt 1974.3973 13.6764
vt 1976.3355 13.6764
vt 1976.3355 16.2979
vt 1974.3973 16.2979
vt 1974.3973 0.0000
vt 1976.3355 0.0000
vt 1976.3355 0.0083
vt 1974.3973 0.0083
vt 1976.3355 0.0000
vt 1974.3973 0.0000
vt 1974.3973 0.0083
vt 1976.3355 0.0083
vt 13.6764 0.0000
vt 16.2979 0.0000
vt 16.2979 0.0083
vt 13.6764 0.0083
vt 16.2979 0.0000
vt 13.6764 0.0000
vt 13.6764 0.0083
vt 16.2979 0.0083
vt 2019.4266 38.3989
vt 2019.4266 40.1450
vt 2021.2487 40.1450
vt 2021.2487 38.3989
vt 2019.4266 38.3989
vt 2021.2487 38.3989
vt 2021.2487 40.1450
vt 2019.4266 40.1450
vt 2019.4266 0.0000
vt 2021.2487 0.0000
vt 2021.2487 0.0083
vt 2019.4266 0.0083
vt 2021.2487 0.0000
vt 2019.4266 0.0000
vt 2019.4266 0.0083
vt 2021.2487 0.0083
vt 38.3989 0.0000
vt 40.1450 0.0000
vt 40.1450 0.0083
vt 38.3989 0.0083
vt 40.1450 0.0000
vt 38.3989 0.0000
vt 38.3989 0.0083
vt 40.1450 0.0083
vt 1994.7744 19.7704
vt 1994.7744 21.0851
vt 1996.4418 21.0851
vt 1996.4418 19.7704
vt 1994.7744 19.7704
vt 1996.4418 19.7704
vt 1996.4418 21.0851
vt 1994.7744 21.0851
vt 1994.7744 0.0000
vt 1996.4418 0.0000
vt 1996.4418 0.0083
vt 1994.7744 0.0083
vt 1996.4418 0.0000
vt 1994.7744 0.0000
vt 1994.7744 0.0083
vt 1996.4418 0.0083
vt 19.7704 0.0000
vt 21.0851 0.0000
vt 21.0851 0.0083
vt 19.7704 0.0083
vt 21.0851 0.0000
vt 19.7704 0.0000
vt 19.7704 0.0083
vt 21.0851 0.0083
vt 1970.4850 -25.7871
vt 1970.4850 -22.9963
vt 1972.7421 -22.9963
vt 1972.7421 -25.7871
vt 1970.4850 -25.7871
vt 1972.7421 -25.7871
vt 1972.7421 -22.9963
vt 1970.4850 -22.9963
vt 1970.4850 0.0000
vt 1972.7421 0.0000
vt 1972.7421 0.0083
vt 1970.4850 0.0083
vt 1972.7421 0.0000
vt 1970.4850 0.0000
vt 1970.4850 0.0083
vt 1972.7421 0.0083
vt -25.7871 0.0000
vt -22.9963 0.0000
vt -22.9963 0.0083
vt -25.7871 0.0083
vt -22.9963 0.0000
vt -25.7871 0.0000
vt -25.7871 0.0083
vt -22.9963 0.0083
vt 1983.9840 36.6189
vt 1983.9840 38.3800
vt 1985.8534 38.3800
vt 1985.8534 36.6189
vt 1983.9840 36.6189
vt 1985.8534 36.6189
vt 1985.8534 38.3800
vt 1983.9840 38.3800
vt 1983.9840 0.0000
vt 1985.8534 0.0000
vt 1985.8534 0.0083
vt 1983.9840 0.0083
vt 1985.8534 0.0000
vt 1983.9840 0.0000
vt 1983.9840 0.0083
vt 1985.8534 0.0083
vt 36.6189 0.0000
vt 38.3800 0.0000
vt 38.3800 0.0083
vt 36.6189 0.0083
vt 38.3800 0.0000
vt 36.6189 0.0000
vt 36.6189 0.0083
vt 38.3800 0.0083
vt 1987.4498 -34.0579
vt 1987.4498 -32.6551
vt 1988.8907 -32.6551
vt 1988.8907 -34.0579
vt 1987.4498 -34.0579
vt 1988.8907 -34.0579
vt 1988.8907 -32.6551
vt 1987.4498 -32.6551
vt 1987.4498 0.0000
vt 1988.8907 0.0000
vt 1988.8907 0.0083
vt 1987.4498 0.0083
vt 1988.8907 0.0000
vt 1987.4498 0.0000
vt 1987.4498 0.0083
vt 1988.8907 0.0083
vt -34.0579 0.0000
vt -32.6551 0.0000
vt -32.6551 0.0083
vt -34.0579 0.0083
vt -32.6551 0.0000
vt -34.0579 0.0000
vt -34.0579 0.0083
vt -32.6551 0.0083
vt 2023.6528 -17.2063
vt 2023.6528 -15.6361
vt 2025.4056 -15.6361
vt 2025.4056 -17.2063
vt 2023.6528 -17.2063
vt 2025.4056 -17.2063
vt 2025.4056 -15.6361
vt 2023.6528 -15.6361
vt 2023.6528 0.0000
vt 2025.4056 0.0000
vt 2025.4056 0.0083
vt 2023.6528 0.0083
vt 2025.4056 0.0000
vt 2023.6528 0.0000
vt 2023.6528 0.0083
vt 2025.4056 0.0083
vt -17.2063 0.0000
vt -15.6361 0.0000
vt -15.6361 0.0083
vt -17.2063 0.0083
vt -15.6361 0.0000
vt -17.2063 0.0000
vt -17.2063 0.0083
vt -15.6361 0.0083
vt 1959.0039 -42.9832
vt 1959.0039 -41.9892
vt 1960.0506 -41.9892
vt 1960.0506 -42.9832
vt 1959.0039 -42.9832
vt 1960.0506 -42.9832
vt 1960.0506 -41.9892
vt 1959.0039 -41.9892
vt 1959.0039 0.0000
vt 1960.0506 0.0000
vt 1960.0506 0.0083
vt 1959.0039 0.0083
vt 1960.0506 0.0000
vt 1959.0039 0.0000
vt 1959.0039 0.0083
vt 1960.0506 0.0083
vt -42.9832 0.0000
vt -41.9892 0.0000
vt -41.9892 0.0083
vt -42.9832 0.0083
vt -41.9892 0.0000
vt -42.9832 0.0000
vt -42.9832 0.0083
vt -41.9892 0.0083
vt 2038.7089 19.9808
vt 2038.7089 21.7936
vt 2040.4655 21.7936
vt 2040.4655 19.9808
vt 2038.7089 19.9808
vt 2040.4655 19.9808
vt 2040.4655 21.7936
vt 2038.7089 21.7936
vt 2038.7089 0.0000
vt 2040.4655 0.0000
vt 2040.4655 0.0083
vt 2038.7089 0.0083
vt 2040.4655 0.0000
vt 2038.7089 0.0000
vt 2038.7089 0.0083
vt 2040.4655 0.0083
vt 19.9808 0.0000
vt 21.7936 0.0000
vt 21.7936 0.0083
vt 19.9808 0.0083
vt 21.7936 0.0000
vt 19.9808 0.0000
vt 19.9808 0.0083
vt 21.7936 0.0083
vt 2001.7250 35.4270
vt 2001.7250 38.8173
vt 2004.2776 38.8173
vt 2004.2776 35.4270
vt 2001.7250 35.4270
vt 2004.2776 35.4270
vt 2004.2776 38.8173
vt 2001.7250 38.8173
vt 2001.7250 0.0000
vt 2004.2776 0.0000
vt 2004.2776 0.0083
vt 2001.7250 0.0083
vt 2004.2776 0.0000
vt 2001.7250 0.0000
vt 2001.7250 0.0083
vt 2004.2776 0.0083
vt 35.4270 0.0000
vt 38.8173 0.0000
vt 38.8173 0.0083
vt 35.4270 0.0083
vt 38.8173 0.0000
vt 35.4270 0.0000
vt 35.4270 0.0083
vt 38.8173 0.0083
vt 1997.8467 -1.0887
vt 1997.8467 -0.0968
vt 1998.8194 -0.0968
vt 1998.8194 -1.0887
vt 1997.8467 -1.0887
vt 1998.8194 -1.0887
vt 1998.8194 -0.0968
vt 1997.8467 -0.0968
vt 1997.8467 0.0000
vt 1998.8194 0.0000
vt 1998.8194 0.0083
vt 1997.8467 0.0083
vt 1998.8194 0.0000
vt 1997.8467 0.0000
vt 1997.8467 0.0083
vt 1998.8194 0.0083
vt -1.0887 0.0000
vt -0.0968 0.0000
vt -0.0968 0.0083
vt -1.0887 0.0083
vt -0.0968 0.0000
vt -1.0887 0.0000
vt -1.0887 0.0083
vt -0.0968 0.0083
vt 2001.2111 -30.2511
vt 2001.2111 -28.6721
vt 2003.6295 -28.6721
vt 2003.6295 -30.2511
vt 2001.2111 -30.2511
vt 2003.6295 -30.2511
vt 2003.6295 -28.6721
vt 2001.2111 -28.6721
vt 2001.2111 0.0000
vt 2003.6295 0.0000
vt 2003.6295 0.0083
vt 2001.2111 0.0083
vt 2003.6295 0.0000
vt 2001.2111 0.0000
vt 2001.2111 0.0083
vt 2003.6295 0.0083
vt -30.2511 0.0000
vt -28.6721 0.0000
vt -28.6721 0.0083
vt -30.2511 0.0083
vt -28.6721 0.0000
vt -30.2511 0.0000
vt -30.2511 0.0083
vt -28.6721 0.0083
vt 2038.2754 -31.2380
vt 2038.2754 -29.7391
vt 2039.5581 -29.7391
vt 2039.5581 -31.2380
vt 2038.2754 -31.2380
vt 2039.5581 -31.2380
vt 2039.5581 -29.7391
vt 2038.2754 -29.7391
vt 2038.2754 0.0000
vt 2039.5581 0.0000
vt 2039.5581 0.0083
vt 2038.2754 0.0083
vt 2039.5581 0.0000
vt 2038.2754 0.0000
vt 2038.2754 0.0083
vt 2039.5581 0.0083
vt -31.2380 0.0000
vt -29.7391 0.0000
vt -29.7391 0.0083
vt -31.2380 0.0083
vt -29.7391 0.0000
vt -31.2380 0.0000
vt -31.2380 0.0083
vt -29.7391 0.0083
vt 1975.4146 -35.5164
vt 1975.4146 -34.0129
vt 1977.2974 -34.0129
vt 1977.2974 -35.5164
vt 1975.4146 -35.5164
vt 1977.2974 -35.5164
vt 1977.2974 -34.0129
vt 1975.4146 -34.0129
vt 1975.4146 0.0000
vt 1977.2974 0.0000
vt 1977.2974 0.0083
vt 1975.4146 0.0083
vt 1977.2974 0.0000
vt 1975.4146 0.0000
vt 1975.4146 0.0083
vt 1977.2974 0.0083
vt -35.5164 0.0000
vt -34.0129 0.0000
vt -34.0129 0.0083
vt -35.5164 0.0083
vt -34.0129 0.0000
vt -35.5164 0.0000
vt -35.5164 0.0083
vt -34.0129 0.0083
vt 1991.9205 -1.7967
vt 1991.9205 1.2442
vt 1994.3093 1.2442
vt 1994.3093 -1.7967
vt 1991.9205 -1.7967
vt 1994.3093 -1.7967
vt 1994.3093 1.2442
vt 1991.9205 1.2442
vt 1991.9205 0.0000
vt 1994.3093 0.0000
vt 1994.3093 0.0083
vt 1991.9205 0.0083
vt 1994.3093 0.0000
vt 1991.9205 0.0000
vt 1991.9205 0.0083
vt 1994.3093 0.0083
vt -1.7967 0.0000
vt 1.2442 0.0000
vt 1.2442 0.0083
vt -1.7967 0.0083
vt 1.2442 0.0000
vt -1.7967 0.0000
vt -1.7967 0.0083
vt 1.2442 0.0083
vt 2011.8893 -14.7963
vt 2011.8893 -13.6324
vt 2012.8799 -13.6324
vt 2012.8799 -14.7963
vt 2011.8893 -14.7963
vt 2012.8799 -14.7963
vt 2012.8799 -13.6324
vt 2011.8893 -13.6324
vt 2011.8893 0.0000
vt 2012.8799 0.0000
vt 2012.8799 0.0083
vt 2011.8893 0.0083
vt 2012.8799 0.0000
vt 2011.8893 0.0000
vt 2011.8893 0.0083
vt 2012.8799 0.0083
vt -14.7963 0.0000
vt -13.6324 0.0000
vt -13.6324 0.0083
vt -14.7963 0.0083
vt -13.6324 0.0000
vt -14.7963 0.0000
vt -14.7963 0.0083
vt -13.6324 0.0083
vt 2042.8053 -13.5667
vt 2042.8053 -11.9132
vt 2044.0524 -11.9132
vt 2044.0524 -13.5667
vt 2042.8053 -13.5667
vt 2044.0524 -13.5667
vt 2044.0524 -11.9132
vt 2042.8053 -11.9132
vt 2042.8053 0.0000
vt 2044.0524 0.0000
vt 2044.0524 0.0083
vt 2042.8053 0.0083
vt 2044.0524 0.0000
vt 2042.8053 0.0000
vt 2042.8053 0.0083
vt 2044.0524 0.0083
vt -13.5667 0.0000
vt -11.9132 0.0000
vt -11.9132 0.0083
vt -13.5667 0.0083
vt -11.9132 0.0000
vt -13.5667 0.0000
vt -13.5667 0.0083
vt -11.9132 0.0083
vt 2035.8771 26.1212
vt 2035.8771 28.0281
vt 2037.2943 28.0281
vt 2037.2943 26.1212
vt 2035.8771 26.1212
vt 2037.2943 26.1212
vt 2037.2943 28.0281
vt 2035.8771 28.0281
vt 2035.8771 0.0000
vt 2037.2943 0.0000
vt 2037.2943 0.0083
vt 2035.8771 0.0083
vt 2037.2943 0.0000
vt 2035.8771 0.0000
vt 2035.8771 0.0083
vt 2037.2943 0.0083
vt 26.1212 0.0000
vt 28.0281 0.0000
vt 28.0281 0.0083
vt 26.1212 0.0083
vt 28.0281 0.0000
vt 26.1212 0.0000
vt 26.1212 0.0083
vt 28.0281 0.0083
usemtl pool_glow
f 25 28 27 26
f 29 30 31 32
f 25 26 30 29
f 27 28 32 31
f 26 27 31 30
f 28 25 29 32
usemtl pool_floor
f 1/1 2/2 3/3 4/4
f 5/5 6/6 7/7 8/8
f 9/9 10/10 11/11 12/12
f 13/13 14/14 15/15 16/16
f 17/17 18/18 19/19 20/20
f 21/21 22/22 23/23 24/24
usemtl pool_tile
f 33/25 34/26 35/27 36/28
f 37/29 38/30 39/31 40/32
f 41/33 42/34 43/35 44/36
f 45/37 46/38 47/39 48/40
f 49/41 50/42 51/43 52/44
f 53/45 54/46 55/47 56/48
f 57/49 58/50 59/51 60/52
f 61/53 62/54 63/55 64/56
f 65/57 66/58 67/59 68/60
f 69/61 70/62 71/63 72/64
f 73/65 74/66 75/67 76/68
f 77/69 78/70 79/71 80/72
f 81/73 82/74 83/75 84/76
f 85/77 86/78 87/79 88/80
f 89/81 90/82 91/83 92/84
f 93/85 94/86 95/87 96/88
f 97/89 98/90 99/91 100/92
f 101/93 102/94 103/95 104/96
f 105/97 106/98 107/99 108/100
f 109/101 110/102 111/103 112/104
f 113/105 114/106 115/107 116/108
f 117/109 118/110 119/111 120/112
f 121/113 122/114 123/115 124/116
f 125/117 126/118 127/119 128/120
usemtl pool_tile_alt
f 129/121 130/122 131/123 132/124
f 133/125 134/126 135/127 136/128
f 137/129 138/130 139/131 140/132
f 141/133 142/134 143/135 144/136
f 145/137 146/138 147/139 148/140
f 149/141 150/142 151/143 152/144
f 153/145 154/146 155/147 156/148
f 157/149 158/150 159/151 160/152
f 161/153 162/154 163/155 164/156
f 165/157 166/158 167/159 168/160
f 169/161 170/162 171/163 172/164
f 173/165 174/166 175/167 176/168
f 177/169 178/170 179/171 180/172
f 181/173 182/174 183/175 184/176
f 185/177 186/178 187/179 188/180
f 189/181 190/182 191/183 192/184
f 193/185 194/186 195/187 196/188
f 197/189 198/190 199/191 200/192
f 201/193 202/194 203/195 204/196
f 205/197 206/198 207/199 208/200
f 209/201 210/202 211/203 212/204
f 213/205 214/206 215/207 216/208
f 217/209 218/210 219/211 220/212
f 221/213 222/214 223/215 224/216
f 225/217 226/218 227/219 228/220
f 229/221 230/222 231/223 232/224
f 233/225 234/226 235/227 236/228
f 237/229 238/230 239/231 240/232
f 241/233 242/234 243/235 244/236
f 245/237 246/238 247/239 248/240
f 249/241 250/242 251/243 252/244
f 253/245 254/246 255/247 256/248
f 257/249 258/250 259/251 260/252
f 261/253 262/254 263/255 264/256
f 265/257 266/258 267/259 268/260
f 269/261 270/262 271/263 272/264
f 273/265 274/266 275/267 276/268
f 277/269 278/270 279/271 280/272
f 281/273 282/274 283/275 284/276
f 285/277 286/278 287/279 288/280
f 289/281 290/282 291/283 292/284
f 293/285 294/286 295/287 296/288
f 297/289 298/290 299/291 300/292
f 301/293 302/294 303/295 304/296
f 305/297 306/298 307/299 308/300
f 309/301 310/302 311/303 312/304
f 313/305 314/306 315/307 316/308
f 317/309 318/310 319/311 320/312
f 321/313 322/314 323/315 324/316
f 325/317 326/318 327/319 328/320
f 329/321 330/322 331/323 332/324
f 333/325 334/326 335/327 336/328
f 337/329 338/330 339/331 340/332
f 341/333 342/334 343/335 344/336
f 345/337 346/338 347/339 348/340
f 349/341 350/342 351/343 352/344
f 353/345 354/346 355/347 356/348
f 357/349 358/350 359/351 360/352
f 361/353 362/354 363/355 364/356
f 365/357 366/358 367/359 368/360
f 369/361 370/362 371/363 372/364
f 373/365 374/366 375/367 376/368
f 377/369 378/370 379/371 380/372
f 381/373 382/374 383/375 384/376
f 385/377 386/378 387/379 388/380
f 389/381 390/382 391/383 392/384
f 393/385 394/386 395/387 396/388
f 397/389 398/390 399/391 400/392
f 401/393 402/394 403/395 404/396
f 405/397 406/398 407/399 408/400
f 409/401 410/402 411/403 412/404
f 413/405 414/406 415/407 416/408
f 417/409 418/410 419/411 420/412
f 421/413 422/414 423/415 424/416
f 425/417 426/418 427/419 428/420
f 429/421 430/422 431/423 432/424
f 433/425 434/426 435/427 436/428
f 437/429 438/430 439/431 440/432
f 441/433 442/434 443/435 444/436
f 445/437 446/438 447/439 448/440
f 449/441 450/442 451/443 452/444
f 453/445 454/446 455/447 456/448
f 457/449 458/450 459/451 460/452
f 461/453 462/454 463/455 464/456
f 465/457 466/458 467/459 468/460
f 469/461 470/462 471/463 472/464
f 473/465 474/466 475/467 476/468
f 477/469 478/470 479/471 480/472
f 481/473 482/474 483/475 484/476
f 485/477 486/478 487/479 488/480
f 489/481 490/482 491/483 492/484
f 493/485 494/486 495/487 496/488
f 497/489 498/490 499/491 500/492
f 501/493 502/494 503/495 504/496
f 505/497 506/498 507/499 508/500
f 509/501 510/502 511/503 512/504
f 513/505 514/506 515/507 516/508
f 517/509 518/510 519/511 520/512
f 521/513 522/514 523/515 524/516
f 525/517 526/518 527/519 528/520
f 529/521 530/522 531/523 532/524
f 533/525 534/526 535/527 536/528
f 537/529 538/530 539/531 540/532
f 541/533 542/534 543/535 544/536
f 545/537 546/538 547/539 548/540
f 549/541 550/542 551/543 552/544
f 553/545 554/546 555/547 556/548
f 557/549 558/550 559/551 560/552
f 561/553 562/554 563/555 564/556
f 565/557 566/558 567/559 568/560
f 569/561 570/562 571/563 572/564
f 573/565 574/566 575/567 576/568
f 577/569 578/570 579/571 580/572
f 581/573 582/574 583/575 584/576
f 585/577 586/578 587/579 588/580
f 589/581 590/582 591/583 592/584
f 593/585 594/586 595/587 596/588
f 597/589 598/590 599/591 600/592
f 601/593 602/594 603/595 604/596
f 605/597 606/598 607/599 608/600
f 609/601 610/602 611/603 612/604
f 613/605 614/606 615/607 616/608
f 617/609 618/610 619/611 620/612
f 621/613 622/614 623/615 624/616
f 625/617 626/618 627/619 628/620
f 629/621 630/622 631/623 632/624
f 633/625 634/626 635/627 636/628
f 637/629 638/630 639/631 640/632
f 641/633 642/634 643/635 644/636
f 645/637 646/638 647/639 648/640
f 649/641 650/642 651/643 652/644
f 653/645 654/646 655/647 656/648
f 657/649 658/650 659/651 660/652
f 661/653 662/654 663/655 664/656
f 665/657 666/658 667/659 668/660
f 669/661 670/662 671/663 672/664
f 673/665 674/666 675/667 676/668
f 677/669 678/670 679/671 680/672
f 681/673 682/674 683/675 684/676
f 685/677 686/678 687/679 688/680
f 689/681 690/682 691/683 692/684
f 693/685 694/686 695/687 696/688
f 697/689 698/690 699/691 700/692
f 701/693 702/694 703/695 704/696
f 705/697 706/698 707/699 708/700
f 709/701 710/702 711/703 712/704
f 713/705 714/706 715/707 716/708
f 717/709 718/710 719/711 720/712
f 721/713 722/714 723/715 724/716
f 725/717 726/718 727/719 728/720
f 729/721 730/722 731/723 732/724
f 733/725 734/726 735/727 736/728
f 737/729 738/730 739/731 740/732
f 741/733 742/734 743/735 744/736
f 745/737 746/738 747/739 748/740
f 749/741 750/742 751/743 752/744
f 753/745 754/746 755/747 756/748
f 757/749 758/750 759/751 760/752
f 761/753 762/754 763/755 764/756
f 765/757 766/758 767/759 768/760
f 769/761 770/762 771/763 772/764
f 773/765 774/766 775/767 776/768
f 777/769 778/770 779/771 780/772
f 781/773 782/774 783/775 784/776
f 785/777 786/778 787/779 788/780
f 789/781 790/782 791/783 792/784
f 793/785 794/786 795/787 796/788
f 797/789 798/790 799/791 800/792
f 801/793 802/794 803/795 804/796
f 805/797 806/798 807/799 808/800
f 809/801 810/802 811/803 812/804
f 813/805 814/806 815/807 816/808
f 817/809 818/810 819/811 820/812
f 821/813 822/814 823/815 824/816
f 825/817 826/818 827/819 828/820
f 829/821 830/822 831/823 832/824
f 833/825 834/826 835/827 836/828
f 837/829 838/830 839/831 840/832
f 841/833 842/834 843/835 844/836
f 845/837 846/838 847/839 848/840
f 849/841 850/842 851/843 852/844
f 853/845 854/846 855/847 856/848
f 857/849 858/850 859/851 860/852
f 861/853 862/854 863/855 864/856
f 865/857 866/858 867/859 868/860
f 869/861 870/862 871/863 872/864
f 873/865 874/866 875/867 876/868
f 877/869 878/870 879/871 880/872
f 881/873 882/874 883/875 884/876
f 885/877 886/878 887/879 888/880
f 889/881 890/882 891/883 892/884
f 893/885 894/886 895/887 896/888
f 897/889 898/890 899/891 900/892
f 901/893 902/894 903/895 904/896
f 905/897 906/898 907/899 908/900
f 909/901 910/902 911/903 912/904
f 913/905 914/906 915/907 916/908
f 917/909 918/910 919/911 920/912
f 921/913 922/914 923/915 924/916
f 925/917 926/918 927/919 928/920
f 929/921 930/922 931/923 932/924
f 933/925 934/926 935/927 936/928
f 937/929 938/930 939/931 940/932
f 941/933 942/934 943/935 944/936
f 945/937 946/938 947/939 948/940
f 949/941 950/942 951/943 952/944
f 953/945 954/946 955/947 956/948
f 957/949 958/950 959/951 960/952
f 961/953 962/954 963/955 964/956
f 965/957 966/958 967/959 968/960
f 969/961 970/962 971/963 972/964
f 973/965 974/966 975/967 976/968
f 977/969 978/970 979/971 980/972
f 981/973 982/974 983/975 984/976
f 985/977 986/978 987/979 988/980
f 989/981 990/982 991/983 992/984
f 993/985 994/986 995/987 996/988
f 997/989 998/990 999/991 1000/992
f 1001/993 1002/994 1003/995 1004/996
f 1005/997 1006/998 1007/999 1008/1000
f 1009/1001 1010/1002 1011/1003 1012/1004
f 1013/1005 1014/1006 1015/1007 1016/1008
