# RoastEngine Backrooms level
mtllib backrooms.mtl
v -368.6750 0.0000 31.3250
v -368.6750 0.0000 34.6750
v -365.3250 0.0000 34.6750
v -365.3250 0.0000 31.3250
v -368.6750 3.2000 31.3250
v -365.3250 3.2000 31.3250
v -365.3250 3.2000 34.6750
v -368.6750 3.2000 34.6750
v -368.6750 0.0000 31.3250
v -365.3250 0.0000 31.3250
v -365.3250 3.2000 31.3250
v -368.6750 3.2000 31.3250
v -365.3250 0.0000 34.6750
v -368.6750 0.0000 34.6750
v -368.6750 3.2000 34.6750
v -365.3250 3.2000 34.6750
v -365.3250 0.0000 31.3250
v -365.3250 0.0000 34.6750
v -365.3250 3.2000 34.6750
v -365.3250 3.2000 31.3250
v -368.6750 0.0000 34.6750
v -368.6750 0.0000 31.3250
v -368.6750 3.2000 31.3250
v -368.6750 3.2000 34.6750
vt -245.7833 20.8833
vt -245.7833 23.1167
vt -243.5500 23.1167
vt -243.5500 20.8833
vt -245.7833 20.8833
vt -243.5500 20.8833
vt -243.5500 23.1167
vt -245.7833 23.1167
vt -245.7833 0.0000
vt -243.5500 0.0000
vt -243.5500 2.1333
vt -245.7833 2.1333
vt -243.5500 0.0000
vt -245.7833 0.0000
vt -245.7833 2.1333
vt -243.5500 2.1333
vt 20.8833 0.0000
vt 23.1167 0.0000
vt 23.1167 2.1333
vt 20.8833 2.1333
vt 23.1167 0.0000
vt 20.8833 0.0000
vt 20.8833 2.1333
vt 23.1167 2.1333
usemtl wallpaper_damp
f 1/1 2/2 3/3 4/4
f 5/5 6/6 7/7 8/8
f 9/9 10/10 11/11 12/12
f 13/13 14/14 15/15 16/16
f 17/17 18/18 19/19 20/20
f 21/21 22/22 23/23 24/24
