# RoastEngine Backrooms level
mtllib backrooms.mtl
v 356.0750 0.0000 6.0750
v 356.0750 0.0000 8.9250
v 358.9250 0.0000 8.9250
v 358.9250 0.0000 6.0750
v 356.0750 3.0000 6.0750
v 358.9250 3.0000 6.0750
v 358.9250 3.0000 8.9250
v 356.0750 3.0000 8.9250
v 356.0750 0.0000 6.0750
v 358.9250 0.0000 6.0750
v 358.9250 3.0000 6.0750
v 356.0750 3.0000 6.0750
v 358.9250 0.0000 8.9250
v 356.0750 0.0000 8.9250
v 356.0750 3.0000 8.9250
v 358.9250 3.0000 8.9250
v 358.9250 0.0000 6.0750
v 358.9250 0.0000 8.9250
v 358.9250 3.0000 8.9250
v 358.9250 3.0000 6.0750
v 356.0750 0.0000 8.9250
v 356.0750 0.0000 6.0750
v 356.0750 3.0000 6.0750
v 356.0750 3.0000 8.9250
v 361.0750 0.0000 6.0750
v 361.0750 0.0000 8.9250
v 363.9250 0.0000 8.9250
v 363.9250 0.0000 6.0750
v 361.0750 3.0000 6.0750
v 363.9250 3.0000 6.0750
v 363.9250 3.0000 8.9250
v 361.0750 3.0000 8.9250
v 361.0750 0.0000 6.0750
v 363.9250 0.0000 6.0750
v 363.9250 3.0000 6.0750
v 361.0750 3.0000 6.0750
v 363.9250 0.0000 8.9250
v 361.0750 0.0000 8.9250
v 361.0750 3.0000 8.9250
v 363.9250 3.0000 8.9250
v 363.9250 0.0000 6.0750
v 363.9250 0.0000 8.9250
v 363.9250 3.0000 8.9250
v 363.9250 3.0000 6.0750
v 361.0750 0.0000 8.9250
v 361.0750 0.0000 6.0750
v 361.0750 3.0000 6.0750
v 361.0750 3.0000 8.9250
v 366.0750 0.0000 6.0750
v 366.0750 0.0000 8.9250
v 368.9250 0.0000 8.9250
v 368.9250 0.0000 6.0750
v 366.0750 3.0000 6.0750
v 368.9250 3.0000 6.0750
v 368.9250 3.0000 8.9250
v 366.0750 3.0000 8.9250
v 366.0750 0.0000 6.0750
v 368.9250 0.0000 6.0750
v 368.9250 3.0000 6.0750
v 366.0750 3.0000 6.0750
v 368.9250 0.0000 8.9250
v 366.0750 0.0000 8.9250
v 366.0750 3.0000 8.9250
v 368.9250 3.0000 8.9250
v 368.9250 0.0000 6.0750
v 368.9250 0.0000 8.9250
v 368.9250 3.0000 8.9250
v 368.9250 3.0000 6.0750
v 366.0750 0.0000 8.9250
v 366.0750 0.0000 6.0750
v 366.0750 3.0000 6.0750
v 366.0750 3.0000 8.9250
v 368.5750 0.0000 6.0750
v 368.5750 0.0000 8.9250
v 371.4250 0.0000 8.9250
v 371.4250 0.0000 6.0750
v 368.5750 3.0000 6.0750
v 371.4250 3.0000 6.0750
v 371.4250 3.0000 8.9250
v 368.5750 3.0000 8.9250
v 368.5750 0.0000 6.0750
v 371.4250 0.0000 6.0750
v 371.4250 3.0000 6.0750
v 368.5750 3.0000 6.0750
v 371.4250 0.0000 8.9250
v 368.5750 0.0000 8.9250
v 368.5750 3.0000 8.9250
v 371.4250 3.0000 8.9250
v 371.4250 0.0000 6.0750
v 371.4250 0.0000 8.9250
v 371.4250 3.0000 8.9250
v 371.4250 3.0000 6.0750
v 368.5750 0.0000 8.9250
v 368.5750 0.0000 6.0750
v 368.5750 3.0000 6.0750
v 368.5750 3.0000 8.9250
v 371.0750 0.0000 6.0750
v 371.0750 0.0000 8.9250
v 373.9250 0.0000 8.9250
v 373.9250 0.0000 6.0750
v 371.0750 3.0000 6.0750
v 373.9250 3.0000 6.0750
v 373.9250 3.0000 8.9250
v 371.0750 3.0000 8.9250
v 371.0750 0.0000 6.0750
v 373.9250 0.0000 6.0750
v 373.9250 3.0000 6.0750
v 371.0750 3.0000 6.0750
v 373.9250 0.0000 8.9250
v 371.0750 0.0000 8.9250
v 371.0750 3.0000 8.9250
v 373.9250 3.0000 8.9250
v 373.9250 0.0000 6.0750
v 373.9250 0.0000 8.9250
v 373.9250 3.0000 8.9250
v 373.9250 3.0000 6.0750
v 371.0750 0.0000 8.9250
v 371.0750 0.0000 6.0750
v 371.0750 3.0000 6.0750
v 371.0750 3.0000 8.9250
v 356.0750 0.0000 8.5750
v 356.0750 0.0000 11.4250
v 358.9250 0.0000 11.4250
v 358.9250 0.0000 8.5750
v 356.0750 3.0000 8.5750
v 358.9250 3.0000 8.5750
v 358.9250 3.0000 11.4250
v 356.0750 3.0000 11.4250
v 356.0750 0.0000 8.5750
v 358.9250 0.0000 8.5750
v 358.9250 3.0000 8.5750
v 356.0750 3.0000 8.5750
v 358.9250 0.0000 11.4250
v 356.0750 0.0000 11.4250
v 356.0750 3.0000 11.4250
v 358.9250 3.0000 11.4250
v 358.9250 0.0000 8.5750
v 358.9250 0.0000 11.4250
v 358.9250 3.0000 11.4250
v 358.9250 3.0000 8.5750
v 356.0750 0.0000 11.4250
v 356.0750 0.0000 8.5750
v 356.0750 3.0000 8.5750
v 356.0750 3.0000 11.4250
v 361.0750 0.0000 8.5750
v 363.9250 0.0000 8.5750
v 363.9250 0.0000 11.4250
v 361.0750 0.0000 11.4250
v 361.0750 3.0000 8.5750
v 363.9250 3.0000 8.5750
v 363.9250 3.0000 11.4250
v 361.0750 3.0000 11.4250
v 366.0750 0.0000 8.5750
v 366.0750 0.0000 11.4250
v 368.9250 0.0000 11.4250
v 368.9250 0.0000 8.5750
v 366.0750 3.0000 8.5750
v 368.9250 3.0000 8.5750
v 368.9250 3.0000 11.4250
v 366.0750 3.0000 11.4250
v 366.0750 0.0000 8.5750
v 368.9250 0.0000 8.5750
v 368.9250 3.0000 8.5750
v 366.0750 3.0000 8.5750
v 368.9250 0.0000 11.4250
v 366.0750 0.0000 11.4250
v 366.0750 3.0000 11.4250
v 368.9250 3.0000 11.4250
v 368.9250 0.0000 8.5750
v 368.9250 0.0000 11.4250
v 368.9250 3.0000 11.4250
v 368.9250 3.0000 8.5750
v 366.0750 0.0000 11.4250
v 366.0750 0.0000 8.5750
v 366.0750 3.0000 8.5750
v 366.0750 3.0000 11.4250
v 351.0750 0.0000 11.0750
v 351.0750 0.0000 13.9250
v 353.9250 0.0000 13.9250
v 353.9250 0.0000 11.0750
v 351.0750 3.0000 11.0750
v 353.9250 3.0000 11.0750
v 353.9250 3.0000 13.9250
v 351.0750 3.0000 13.9250
v 351.0750 0.0000 11.0750
v 353.9250 0.0000 11.0750
v 353.9250 3.0000 11.0750
v 351.0750 3.0000 11.0750
v 353.9250 0.0000 13.9250
v 351.0750 0.0000 13.9250
v 351.0750 3.0000 13.9250
v 353.9250 3.0000 13.9250
v 353.9250 0.0000 11.0750
v 353.9250 0.0000 13.9250
v 353.9250 3.0000 13.9250
v 353.9250 3.0000 11.0750
v 351.0750 0.0000 13.9250
v 351.0750 0.0000 11.0750
v 351.0750 3.0000 11.0750
v 351.0750 3.0000 13.9250
v 356.0750 0.0000 11.0750
v 356.0750 0.0000 13.9250
v 358.9250 0.0000 13.9250
v 358.9250 0.0000 11.0750
v 356.0750 3.0000 11.0750
v 358.9250 3.0000 11.0750
v 358.9250 3.0000 13.9250
v 356.0750 3.0000 13.9250
v 356.0750 0.0000 11.0750
v 358.9250 0.0000 11.0750
v 358.9250 3.0000 11.0750
v 356.0750 3.0000 11.0750
v 358.9250 0.0000 13.9250
v 356.0750 0.0000 13.9250
v 356.0750 3.0000 13.9250
v 358.9250 3.0000 13.9250
v 358.9250 0.0000 11.0750
v 358.9250 0.0000 13.9250
v 358.9250 3.0000 13.9250
v 358.9250 3.0000 11.0750
v 356.0750 0.0000 13.9250
v 356.0750 0.0000 11.0750
v 356.0750 3.0000 11.0750
v 356.0750 3.0000 13.9250
v 361.0750 0.0000 11.0750
v 363.9250 0.0000 11.0750
v 363.9250 0.0000 13.9250
v 361.0750 0.0000 13.9250
v 361.0750 3.0000 11.0750
v 363.9250 3.0000 11.0750
v 363.9250 3.0000 13.9250
v 361.0750 3.0000 13.9250
v 366.0750 0.0000 11.0750
v 366.0750 0.0000 13.9250
v 368.9250 0.0000 13.9250
v 368.9250 0.0000 11.0750
v 366.0750 3.0000 11.0750
v 368.9250 3.0000 11.0750
v 368.9250 3.0000 13.9250
v 366.0750 3.0000 13.9250
v 366.0750 0.0000 11.0750
v 368.9250 0.0000 11.0750
v 368.9250 3.0000 11.0750
v 366.0750 3.0000 11.0750
v 368.9250 0.0000 13.9250
v 366.0750 0.0000 13.9250
v 366.0750 3.0000 13.9250
v 368.9250 3.0000 13.9250
v 368.9250 0.0000 11.0750
v 368.9250 0.0000 13.9250
v 368.9250 3.0000 13.9250
v 368.9250 3.0000 11.0750
v 366.0750 0.0000 13.9250
v 366.0750 0.0000 11.0750
v 366.0750 3.0000 11.0750
v 366.0750 3.0000 13.9250
v 361.0750 0.0000 13.5750
v 361.0750 0.0000 16.4250
v 363.9250 0.0000 16.4250
v 363.9250 0.0000 13.5750
v 361.0750 3.0000 13.5750
v 363.9250 3.0000 13.5750
v 363.9250 3.0000 16.4250
v 361.0750 3.0000 16.4250
v 361.0750 0.0000 13.5750
v 363.9250 0.0000 13.5750
v 363.9250 3.0000 13.5750
v 361.0750 3.0000 13.5750
v 363.9250 0.0000 16.4250
v 361.0750 0.0000 16.4250
v 361.0750 3.0000 16.4250
v 363.9250 3.0000 16.4250
v 363.9250 0.0000 13.5750
v 363.9250 0.0000 16.4250
v 363.9250 3.0000 16.4250
v 363.9250 3.0000 13.5750
v 361.0750 0.0000 16.4250
v 361.0750 0.0000 13.5750
v 361.0750 3.0000 13.5750
v 361.0750 3.0000 16.4250
v 366.0750 0.0000 13.5750
v 366.0750 0.0000 16.4250
v 368.9250 0.0000 16.4250
v 368.9250 0.0000 13.5750
v 366.0750 3.0000 13.5750
v 368.9250 3.0000 13.5750
v 368.9250 3.0000 16.4250
v 366.0750 3.0000 16.4250
v 366.0750 0.0000 13.5750
v 368.9250 0.0000 13.5750
v 368.9250 3.0000 13.5750
v 366.0750 3.0000 13.5750
v 368.9250 0.0000 16.4250
v 366.0750 0.0000 16.4250
v 366.0750 3.0000 16.4250
v 368.9250 3.0000 16.4250
v 368.9250 0.0000 13.5750
v 368.9250 0.0000 16.4250
v 368.9250 3.0000 16.4250
v 368.9250 3.0000 13.5750
v 366.0750 0.0000 16.4250
v 366.0750 0.0000 13.5750
v 366.0750 3.0000 13.5750
v 366.0750 3.0000 16.4250
v 351.0750 0.0000 16.0750
v 351.0750 0.0000 18.9250
v 353.9250 0.0000 18.9250
v 353.9250 0.0000 16.0750
v 351.0750 3.0000 16.0750
v 353.9250 3.0000 16.0750
v 353.9250 3.0000 18.9250
v 351.0750 3.0000 18.9250
v 351.0750 0.0000 16.0750
v 353.9250 0.0000 16.0750
v 353.9250 3.0000 16.0750
v 351.0750 3.0000 16.0750
v 353.9250 0.0000 18.9250
v 351.0750 0.0000 18.9250
v 351.0750 3.0000 18.9250
v 353.9250 3.0000 18.9250
v 353.9250 0.0000 16.0750
v 353.9250 0.0000 18.9250
v 353.9250 3.0000 18.9250
v 353.9250 3.0000 16.0750
v 351.0750 0.0000 18.9250
v 351.0750 0.0000 16.0750
v 351.0750 3.0000 16.0750
v 351.0750 3.0000 18.9250
v 353.5750 0.0000 16.0750
v 356.4250 0.0000 16.0750
v 356.4250 0.0000 18.9250
v 353.5750 0.0000 18.9250
v 353.5750 3.0000 16.0750
v 356.4250 3.0000 16.0750
v 356.4250 3.0000 18.9250
v 353.5750 3.0000 18.9250
v 356.0750 0.0000 16.0750
v 356.0750 0.0000 18.9250
v 358.9250 0.0000 18.9250
v 358.9250 0.0000 16.0750
v 356.0750 3.0000 16.0750
v 358.9250 3.0000 16.0750
v 358.9250 3.0000 18.9250
v 356.0750 3.0000 18.9250
v 356.0750 0.0000 16.0750
v 358.9250 0.0000 16.0750
v 358.9250 3.0000 16.0750
v 356.0750 3.0000 16.0750
v 358.9250 0.0000 18.9250
v 356.0750 0.0000 18.9250
v 356.0750 3.0000 18.9250
v 358.9250 3.0000 18.9250
v 358.9250 0.0000 16.0750
v 358.9250 0.0000 18.9250
v 358.9250 3.0000 18.9250
v 358.9250 3.0000 16.0750
v 356.0750 0.0000 18.9250
v 356.0750 0.0000 16.0750
v 356.0750 3.0000 16.0750
v 356.0750 3.0000 18.9250
v 358.5750 0.0000 16.0750
v 358.5750 0.0000 18.9250
v 361.4250 0.0000 18.9250
v 361.4250 0.0000 16.0750
v 358.5750 3.0000 16.0750
v 361.4250 3.0000 16.0750
v 361.4250 3.0000 18.9250
v 358.5750 3.0000 18.9250
v 358.5750 0.0000 16.0750
v 361.4250 0.0000 16.0750
v 361.4250 3.0000 16.0750
v 358.5750 3.0000 16.0750
v 361.4250 0.0000 18.9250
v 358.5750 0.0000 18.9250
v 358.5750 3.0000 18.9250
v 361.4250 3.0000 18.9250
v 361.4250 0.0000 16.0750
v 361.4250 0.0000 18.9250
v 361.4250 3.0000 18.9250
v 361.4250 3.0000 16.0750
v 358.5750 0.0000 18.9250
v 358.5750 0.0000 16.0750
v 358.5750 3.0000 16.0750
v 358.5750 3.0000 18.9250
v 361.0750 0.0000 16.0750
v 361.0750 0.0000 18.9250
v 363.9250 0.0000 18.9250
v 363.9250 0.0000 16.0750
v 361.0750 3.0000 16.0750
v 363.9250 3.0000 16.0750
v 363.9250 3.0000 18.9250
v 361.0750 3.0000 18.9250
v 361.0750 0.0000 16.0750
v 363.9250 0.0000 16.0750
v 363.9250 3.0000 16.0750
v 361.0750 3.0000 16.0750
v 363.9250 0.0000 18.9250
v 361.0750 0.0000 18.9250
v 361.0750 3.0000 18.9250
v 363.9250 3.0000 18.9250
v 363.9250 0.0000 16.0750
v 363.9250 0.0000 18.9250
v 363.9250 3.0000 18.9250
v 363.9250 3.0000 16.0750
v 361.0750 0.0000 18.9250
v 361.0750 0.0000 16.0750
v 361.0750 3.0000 16.0750
v 361.0750 3.0000 18.9250
v 366.0750 0.0000 16.0750
v 366.0750 0.0000 18.9250
v 368.9250 0.0000 18.9250
v 368.9250 0.0000 16.0750
v 366.0750 3.0000 16.0750
v 368.9250 3.0000 16.0750
v 368.9250 3.0000 18.9250
v 366.0750 3.0000 18.9250
v 366.0750 0.0000 16.0750
v 368.9250 0.0000 16.0750
v 368.9250 3.0000 16.0750
v 366.0750 3.0000 16.0750
v 368.9250 0.0000 18.9250
v 366.0750 0.0000 18.9250
v 366.0750 3.0000 18.9250
v 368.9250 3.0000 18.9250
v 368.9250 0.0000 16.0750
v 368.9250 0.0000 18.9250
v 368.9250 3.0000 18.9250
v 368.9250 3.0000 16.0750
v 366.0750 0.0000 18.9250
v 366.0750 0.0000 16.0750
v 366.0750 3.0000 16.0750
v 366.0750 3.0000 18.9250
v 371.0750 0.0000 16.0750
v 371.0750 0.0000 18.9250
v 373.9250 0.0000 18.9250
v 373.9250 0.0000 16.0750
v 371.0750 3.0000 16.0750
v 373.9250 3.0000 16.0750
v 373.9250 3.0000 18.9250
v 371.0750 3.0000 18.9250
v 371.0750 0.0000 16.0750
v 373.9250 0.0000 16.0750
v 373.9250 3.0000 16.0750
v 371.0750 3.0000 16.0750
v 373.9250 0.0000 18.9250
v 371.0750 0.0000 18.9250
v 371.0750 3.0000 18.9250
v 373.9250 3.0000 18.9250
v 373.9250 0.0000 16.0750
v 373.9250 0.0000 18.9250
v 373.9250 3.0000 18.9250
v 373.9250 3.0000 16.0750
v 371.0750 0.0000 18.9250
v 371.0750 0.0000 16.0750
v 371.0750 3.0000 16.0750
v 371.0750 3.0000 18.9250
v 366.0750 0.0000 18.5750
v 366.0750 0.0000 21.4250
v 368.9250 0.0000 21.4250
v 368.9250 0.0000 18.5750
v 366.0750 3.0000 18.5750
v 368.9250 3.0000 18.5750
v 368.9250 3.0000 21.4250
v 366.0750 3.0000 21.4250
v 366.0750 0.0000 18.5750
v 368.9250 0.0000 18.5750
v 368.9250 3.0000 18.5750
v 366.0750 3.0000 18.5750
v 368.9250 0.0000 21.4250
v 366.0750 0.0000 21.4250
v 366.0750 3.0000 21.4250
v 368.9250 3.0000 21.4250
v 368.9250 0.0000 18.5750
v 368.9250 0.0000 21.4250
v 368.9250 3.0000 21.4250
v 368.9250 3.0000 18.5750
v 366.0750 0.0000 21.4250
v 366.0750 0.0000 18.5750
v 366.0750 3.0000 18.5750
v 366.0750 3.0000 21.4250
v 371.0750 0.0000 18.5750
v 371.0750 0.0000 21.4250
v 373.9250 0.0000 21.4250
v 373.9250 0.0000 18.5750
v 371.0750 3.0000 18.5750
v 373.9250 3.0000 18.5750
v 373.9250 3.0000 21.4250
v 371.0750 3.0000 21.4250
v 371.0750 0.0000 18.5750
v 373.9250 0.0000 18.5750
v 373.9250 3.0000 18.5750
v 371.0750 3.0000 18.5750
v 373.9250 0.0000 21.4250
v 371.0750 0.0000 21.4250
v 371.0750 3.0000 21.4250
v 373.9250 3.0000 21.4250
v 373.9250 0.0000 18.5750
v 373.9250 0.0000 21.4250
v 373.9250 3.0000 21.4250
v 373.9250 3.0000 18.5750
v 371.0750 0.0000 21.4250
v 371.0750 0.0000 18.5750
v 371.0750 3.0000 18.5750
v 371.0750 3.0000 21.4250
v 348.5750 0.0000 21.0750
v 348.5750 0.0000 23.9250
v 351.4250 0.0000 23.9250
v 351.4250 0.0000 21.0750
v 348.5750 3.0000 21.0750
v 351.4250 3.0000 21.0750
v 351.4250 3.0000 23.9250
v 348.5750 3.0000 23.9250
v 348.5750 0.0000 21.0750
v 351.4250 0.0000 21.0750
v 351.4250 3.0000 21.0750
v 348.5750 3.0000 21.0750
v 351.4250 0.0000 23.9250
v 348.5750 0.0000 23.9250
v 348.5750 3.0000 23.9250
v 351.4250 3.0000 23.9250
v 351.4250 0.0000 21.0750
v 351.4250 0.0000 23.9250
v 351.4250 3.0000 23.9250
v 351.4250 3.0000 21.0750
v 348.5750 0.0000 23.9250
v 348.5750 0.0000 21.0750
v 348.5750 3.0000 21.0750
v 348.5750 3.0000 23.9250
v 351.0750 0.0000 21.0750
v 353.9250 0.0000 21.0750
v 353.9250 0.0000 23.9250
v 351.0750 0.0000 23.9250
v 351.0750 3.0000 21.0750
v 353.9250 3.0000 21.0750
v 353.9250 3.0000 23.9250
v 351.0750 3.0000 23.9250
v 361.0750 0.0000 21.0750
v 361.0750 0.0000 23.9250
v 363.9250 0.0000 23.9250
v 363.9250 0.0000 21.0750
v 361.0750 3.0000 21.0750
v 363.9250 3.0000 21.0750
v 363.9250 3.0000 23.9250
v 361.0750 3.0000 23.9250
v 361.0750 0.0000 21.0750
v 363.9250 0.0000 21.0750
v 363.9250 3.0000 21.0750
v 361.0750 3.0000 21.0750
v 363.9250 0.0000 23.9250
v 361.0750 0.0000 23.9250
v 361.0750 3.0000 23.9250
v 363.9250 3.0000 23.9250
v 363.9250 0.0000 21.0750
v 363.9250 0.0000 23.9250
v 363.9250 3.0000 23.9250
v 363.9250 3.0000 21.0750
v 361.0750 0.0000 23.9250
v 361.0750 0.0000 21.0750
v 361.0750 3.0000 21.0750
v 361.0750 3.0000 23.9250
v 363.5750 0.0000 21.0750
v 363.5750 0.0000 23.9250
v 366.4250 0.0000 23.9250
v 366.4250 0.0000 21.0750
v 363.5750 3.0000 21.0750
v 366.4250 3.0000 21.0750
v 366.4250 3.0000 23.9250
v 363.5750 3.0000 23.9250
v 363.5750 0.0000 21.0750
v 366.4250 0.0000 21.0750
v 366.4250 3.0000 21.0750
v 363.5750 3.0000 21.0750
v 366.4250 0.0000 23.9250
v 363.5750 0.0000 23.9250
v 363.5750 3.0000 23.9250
v 366.4250 3.0000 23.9250
v 366.4250 0.0000 21.0750
v 366.4250 0.0000 23.9250
v 366.4250 3.0000 23.9250
v 366.4250 3.0000 21.0750
v 363.5750 0.0000 23.9250
v 363.5750 0.0000 21.0750
v 363.5750 3.0000 21.0750
v 363.5750 3.0000 23.9250
v 366.0750 0.0000 21.0750
v 366.0750 0.0000 23.9250
v 368.9250 0.0000 23.9250
v 368.9250 0.0000 21.0750
v 366.0750 3.0000 21.0750
v 368.9250 3.0000 21.0750
v 368.9250 3.0000 23.9250
v 366.0750 3.0000 23.9250
v 366.0750 0.0000 21.0750
v 368.9250 0.0000 21.0750
v 368.9250 3.0000 21.0750
v 366.0750 3.0000 21.0750
v 368.9250 0.0000 23.9250
v 366.0750 0.0000 23.9250
v 366.0750 3.0000 23.9250
v 368.9250 3.0000 23.9250
v 368.9250 0.0000 21.0750
v 368.9250 0.0000 23.9250
v 368.9250 3.0000 23.9250
v 368.9250 3.0000 21.0750
v 366.0750 0.0000 23.9250
v 366.0750 0.0000 21.0750
v 366.0750 3.0000 21.0750
v 366.0750 3.0000 23.9250
v 371.0750 0.0000 21.0750
v 371.0750 0.0000 23.9250
v 373.9250 0.0000 23.9250
v 373.9250 0.0000 21.0750
v 371.0750 3.0000 21.0750
v 373.9250 3.0000 21.0750
v 373.9250 3.0000 23.9250
v 371.0750 3.0000 23.9250
v 371.0750 0.0000 21.0750
v 373.9250 0.0000 21.0750
v 373.9250 3.0000 21.0750
v 371.0750 3.0000 21.0750
v 373.9250 0.0000 23.9250
v 371.0750 0.0000 23.9250
v 371.0750 3.0000 23.9250
v 373.9250 3.0000 23.9250
v 373.9250 0.0000 21.0750
v 373.9250 0.0000 23.9250
v 373.9250 3.0000 23.9250
v 373.9250 3.0000 21.0750
v 371.0750 0.0000 23.9250
v 371.0750 0.0000 21.0750
v 371.0750 3.0000 21.0750
v 371.0750 3.0000 23.9250
v 351.0750 0.0000 23.5750
v 351.0750 0.0000 26.4250
v 353.9250 0.0000 26.4250
v 353.9250 0.0000 23.5750
v 351.0750 3.0000 23.5750
v 353.9250 3.0000 23.5750
v 353.9250 3.0000 26.4250
v 351.0750 3.0000 26.4250
v 351.0750 0.0000 23.5750
v 353.9250 0.0000 23.5750
v 353.9250 3.0000 23.5750
v 351.0750 3.0000 23.5750
v 353.9250 0.0000 26.4250
v 351.0750 0.0000 26.4250
v 351.0750 3.0000 26.4250
v 353.9250 3.0000 26.4250
v 353.9250 0.0000 23.5750
v 353.9250 0.0000 26.4250
v 353.9250 3.0000 26.4250
v 353.9250 3.0000 23.5750
v 351.0750 0.0000 26.4250
v 351.0750 0.0000 23.5750
v 351.0750 3.0000 23.5750
v 351.0750 3.0000 26.4250
v 361.0750 0.0000 23.5750
v 361.0750 0.0000 26.4250
v 363.9250 0.0000 26.4250
v 363.9250 0.0000 23.5750
v 361.0750 3.0000 23.5750
v 363.9250 3.0000 23.5750
v 363.9250 3.0000 26.4250
v 361.0750 3.0000 26.4250
v 361.0750 0.0000 23.5750
v 363.9250 0.0000 23.5750
v 363.9250 3.0000 23.5750
v 361.0750 3.0000 23.5750
v 363.9250 0.0000 26.4250
v 361.0750 0.0000 26.4250
v 361.0750 3.0000 26.4250
v 363.9250 3.0000 26.4250
v 363.9250 0.0000 23.5750
v 363.9250 0.0000 26.4250
v 363.9250 3.0000 26.4250
v 363.9250 3.0000 23.5750
v 361.0750 0.0000 26.4250
v 361.0750 0.0000 23.5750
v 361.0750 3.0000 23.5750
v 361.0750 3.0000 26.4250
v 351.0750 0.0000 26.0750
v 353.9250 0.0000 26.0750
v 353.9250 0.0000 28.9250
v 351.0750 0.0000 28.9250
v 351.0750 3.0000 26.0750
v 353.9250 3.0000 26.0750
v 353.9250 3.0000 28.9250
v 351.0750 3.0000 28.9250
v 353.5750 0.0000 26.0750
v 353.5750 0.0000 28.9250
v 356.4250 0.0000 28.9250
v 356.4250 0.0000 26.0750
v 353.5750 3.0000 26.0750
v 356.4250 3.0000 26.0750
v 356.4250 3.0000 28.9250
v 353.5750 3.0000 28.9250
v 353.5750 0.0000 26.0750
v 356.4250 0.0000 26.0750
v 356.4250 3.0000 26.0750
v 353.5750 3.0000 26.0750
v 356.4250 0.0000 28.9250
v 353.5750 0.0000 28.9250
v 353.5750 3.0000 28.9250
v 356.4250 3.0000 28.9250
v 356.4250 0.0000 26.0750
v 356.4250 0.0000 28.9250
v 356.4250 3.0000 28.9250
v 356.4250 3.0000 26.0750
v 353.5750 0.0000 28.9250
v 353.5750 0.0000 26.0750
v 353.5750 3.0000 26.0750
v 353.5750 3.0000 28.9250
v 356.0750 0.0000 26.0750
v 356.0750 0.0000 28.9250
v 358.9250 0.0000 28.9250
v 358.9250 0.0000 26.0750
v 356.0750 3.0000 26.0750
v 358.9250 3.0000 26.0750
v 358.9250 3.0000 28.9250
v 356.0750 3.0000 28.9250
v 356.0750 0.0000 26.0750
v 358.9250 0.0000 26.0750
v 358.9250 3.0000 26.0750
v 356.0750 3.0000 26.0750
v 358.9250 0.0000 28.9250
v 356.0750 0.0000 28.9250
v 356.0750 3.0000 28.9250
v 358.9250 3.0000 28.9250
v 358.9250 0.0000 26.0750
v 358.9250 0.0000 28.9250
v 358.9250 3.0000 28.9250
v 358.9250 3.0000 26.0750
v 356.0750 0.0000 28.9250
v 356.0750 0.0000 26.0750
v 356.0750 3.0000 26.0750
v 356.0750 3.0000 28.9250
v 358.5750 0.0000 26.0750
v 361.4250 0.0000 26.0750
v 361.4250 0.0000 28.9250
v 358.5750 0.0000 28.9250
v 358.5750 3.0000 26.0750
v 361.4250 3.0000 26.0750
v 361.4250 3.0000 28.9250
v 358.5750 3.0000 28.9250
v 361.0750 0.0000 26.0750
v 361.0750 0.0000 28.9250
v 363.9250 0.0000 28.9250
v 363.9250 0.0000 26.0750
v 361.0750 3.0000 26.0750
v 363.9250 3.0000 26.0750
v 363.9250 3.0000 28.9250
v 361.0750 3.0000 28.9250
v 361.0750 0.0000 26.0750
v 363.9250 0.0000 26.0750
v 363.9250 3.0000 26.0750
v 361.0750 3.0000 26.0750
v 363.9250 0.0000 28.9250
v 361.0750 0.0000 28.9250
v 361.0750 3.0000 28.9250
v 363.9250 3.0000 28.9250
v 363.9250 0.0000 26.0750
v 363.9250 0.0000 28.9250
v 363.9250 3.0000 28.9250
v 363.9250 3.0000 26.0750
v 361.0750 0.0000 28.9250
v 361.0750 0.0000 26.0750
v 361.0750 3.0000 26.0750
v 361.0750 3.0000 28.9250
v 366.0750 0.0000 26.0750
v 366.0750 0.0000 28.9250
v 368.9250 0.0000 28.9250
v 368.9250 0.0000 26.0750
v 366.0750 3.0000 26.0750
v 368.9250 3.0000 26.0750
v 368.9250 3.0000 28.9250
v 366.0750 3.0000 28.9250
v 366.0750 0.0000 26.0750
v 368.9250 0.0000 26.0750
v 368.9250 3.0000 26.0750
v 366.0750 3.0000 26.0750
v 368.9250 0.0000 28.9250
v 366.0750 0.0000 28.9250
v 366.0750 3.0000 28.9250
v 368.9250 3.0000 28.9250
v 368.9250 0.0000 26.0750
v 368.9250 0.0000 28.9250
v 368.9250 3.0000 28.9250
v 368.9250 3.0000 26.0750
v 366.0750 0.0000 28.9250
v 366.0750 0.0000 26.0750
v 366.0750 3.0000 26.0750
v 366.0750 3.0000 28.9250
v 368.5750 0.0000 26.0750
v 368.5750 0.0000 28.9250
v 371.4250 0.0000 28.9250
v 371.4250 0.0000 26.0750
v 368.5750 3.0000 26.0750
v 371.4250 3.0000 26.0750
v 371.4250 3.0000 28.9250
v 368.5750 3.0000 28.9250
v 368.5750 0.0000 26.0750
v 371.4250 0.0000 26.0750
v 371.4250 3.0000 26.0750
v 368.5750 3.0000 26.0750
v 371.4250 0.0000 28.9250
v 368.5750 0.0000 28.9250
v 368.5750 3.0000 28.9250
v 371.4250 3.0000 28.9250
v 371.4250 0.0000 26.0750
v 371.4250 0.0000 28.9250
v 371.4250 3.0000 28.9250
v 371.4250 3.0000 26.0750
v 368.5750 0.0000 28.9250
v 368.5750 0.0000 26.0750
v 368.5750 3.0000 26.0750
v 368.5750 3.0000 28.9250
v 371.0750 0.0000 26.0750
v 371.0750 0.0000 28.9250
v 373.9250 0.0000 28.9250
v 373.9250 0.0000 26.0750
v 371.0750 3.0000 26.0750
v 373.9250 3.0000 26.0750
v 373.9250 3.0000 28.9250
v 371.0750 3.0000 28.9250
v 371.0750 0.0000 26.0750
v 373.9250 0.0000 26.0750
v 373.9250 3.0000 26.0750
v 371.0750 3.0000 26.0750
v 373.9250 0.0000 28.9250
v 371.0750 0.0000 28.9250
v 371.0750 3.0000 28.9250
v 373.9250 3.0000 28.9250
v 373.9250 0.0000 26.0750
v 373.9250 0.0000 28.9250
v 373.9250 3.0000 28.9250
v 373.9250 3.0000 26.0750
v 371.0750 0.0000 28.9250
v 371.0750 0.0000 26.0750
v 371.0750 3.0000 26.0750
v 371.0750 3.0000 28.9250
v 351.0750 0.0000 31.0750
v 351.0750 0.0000 33.9250
v 353.9250 0.0000 33.9250
v 353.9250 0.0000 31.0750
v 351.0750 3.0000 31.0750
v 353.9250 3.0000 31.0750
v 353.9250 3.0000 33.9250
v 351.0750 3.0000 33.9250
v 351.0750 0.0000 31.0750
v 353.9250 0.0000 31.0750
v 353.9250 3.0000 31.0750
v 351.0750 3.0000 31.0750
v 353.9250 0.0000 33.9250
v 351.0750 0.0000 33.9250
v 351.0750 3.0000 33.9250
v 353.9250 3.0000 33.9250
v 353.9250 0.0000 31.0750
v 353.9250 0.0000 33.9250
v 353.9250 3.0000 33.9250
v 353.9250 3.0000 31.0750
v 351.0750 0.0000 33.9250
v 351.0750 0.0000 31.0750
v 351.0750 3.0000 31.0750
v 351.0750 3.0000 33.9250
v 353.5750 0.0000 31.0750
v 353.5750 0.0000 33.9250
v 356.4250 0.0000 33.9250
v 356.4250 0.0000 31.0750
v 353.5750 3.0000 31.0750
v 356.4250 3.0000 31.0750
v 356.4250 3.0000 33.9250
v 353.5750 3.0000 33.9250
v 353.5750 0.0000 31.0750
v 356.4250 0.0000 31.0750
v 356.4250 3.0000 31.0750
v 353.5750 3.0000 31.0750
v 356.4250 0.0000 33.9250
v 353.5750 0.0000 33.9250
v 353.5750 3.0000 33.9250
v 356.4250 3.0000 33.9250
v 356.4250 0.0000 31.0750
v 356.4250 0.0000 33.9250
v 356.4250 3.0000 33.9250
v 356.4250 3.0000 31.0750
v 353.5750 0.0000 33.9250
v 353.5750 0.0000 31.0750
v 353.5750 3.0000 31.0750
v 353.5750 3.0000 33.9250
v 356.0750 0.0000 31.0750
v 356.0750 0.0000 33.9250
v 358.9250 0.0000 33.9250
v 358.9250 0.0000 31.0750
v 356.0750 3.0000 31.0750
v 358.9250 3.0000 31.0750
v 358.9250 3.0000 33.9250
v 356.0750 3.0000 33.9250
v 356.0750 0.0000 31.0750
v 358.9250 0.0000 31.0750
v 358.9250 3.0000 31.0750
v 356.0750 3.0000 31.0750
v 358.9250 0.0000 33.9250
v 356.0750 0.0000 33.9250
v 356.0750 3.0000 33.9250
v 358.9250 3.0000 33.9250
v 358.9250 0.0000 31.0750
v 358.9250 0.0000 33.9250
v 358.9250 3.0000 33.9250
v 358.9250 3.0000 31.0750
v 356.0750 0.0000 33.9250
v 356.0750 0.0000 31.0750
v 356.0750 3.0000 31.0750
v 356.0750 3.0000 33.9250
v 361.0750 0.0000 31.0750
v 361.0750 0.0000 33.9250
v 363.9250 0.0000 33.9250
v 363.9250 0.0000 31.0750
v 361.0750 3.0000 31.0750
v 363.9250 3.0000 31.0750
v 363.9250 3.0000 33.9250
v 361.0750 3.0000 33.9250
v 361.0750 0.0000 31.0750
v 363.9250 0.0000 31.0750
v 363.9250 3.0000 31.0750
v 361.0750 3.0000 31.0750
v 363.9250 0.0000 33.9250
v 361.0750 0.0000 33.9250
v 361.0750 3.0000 33.9250
v 363.9250 3.0000 33.9250
v 363.9250 0.0000 31.0750
v 363.9250 0.0000 33.9250
v 363.9250 3.0000 33.9250
v 363.9250 3.0000 31.0750
v 361.0750 0.0000 33.9250
v 361.0750 0.0000 31.0750
v 361.0750 3.0000 31.0750
v 361.0750 3.0000 33.9250
v 363.5750 0.0000 31.0750
v 366.4250 0.0000 31.0750
v 366.4250 0.0000 33.9250
v 363.5750 0.0000 33.9250
v 363.5750 3.0000 31.0750
v 366.4250 3.0000 31.0750
v 366.4250 3.0000 33.9250
v 363.5750 3.0000 33.9250
v 366.0750 0.0000 31.0750
v 366.0750 0.0000 33.9250
v 368.9250 0.0000 33.9250
v 368.9250 0.0000 31.0750
v 366.0750 3.0000 31.0750
v 368.9250 3.0000 31.0750
v 368.9250 3.0000 33.9250
v 366.0750 3.0000 33.9250
v 366.0750 0.0000 31.0750
v 368.9250 0.0000 31.0750
v 368.9250 3.0000 31.0750
v 366.0750 3.0000 31.0750
v 368.9250 0.0000 33.9250
v 366.0750 0.0000 33.9250
v 366.0750 3.0000 33.9250
v 368.9250 3.0000 33.9250
v 368.9250 0.0000 31.0750
v 368.9250 0.0000 33.9250
v 368.9250 3.0000 33.9250
v 368.9250 3.0000 31.0750
v 366.0750 0.0000 33.9250
v 366.0750 0.0000 31.0750
v 366.0750 3.0000 31.0750
v 366.0750 3.0000 33.9250
v 368.5750 0.0000 31.0750
v 368.5750 0.0000 33.9250
v 371.4250 0.0000 33.9250
v 371.4250 0.0000 31.0750
v 368.5750 3.0000 31.0750
v 371.4250 3.0000 31.0750
v 371.4250 3.0000 33.9250
v 368.5750 3.0000 33.9250
v 368.5750 0.0000 31.0750
v 371.4250 0.0000 31.0750
v 371.4250 3.0000 31.0750
v 368.5750 3.0000 31.0750
v 371.4250 0.0000 33.9250
v 368.5750 0.0000 33.9250
v 368.5750 3.0000 33.9250
v 371.4250 3.0000 33.9250
v 371.4250 0.0000 31.0750
v 371.4250 0.0000 33.9250
v 371.4250 3.0000 33.9250
v 371.4250 3.0000 31.0750
v 368.5750 0.0000 33.9250
v 368.5750 0.0000 31.0750
v 368.5750 3.0000 31.0750
v 368.5750 3.0000 33.9250
v 371.0750 0.0000 31.0750
v 371.0750 0.0000 33.9250
v 373.9250 0.0000 33.9250
v 373.9250 0.0000 31.0750
v 371.0750 3.0000 31.0750
v 373.9250 3.0000 31.0750
v 373.9250 3.0000 33.9250
v 371.0750 3.0000 33.9250
v 371.0750 0.0000 31.0750
v 373.9250 0.0000 31.0750
v 373.9250 3.0000 31.0750
v 371.0750 3.0000 31.0750
v 373.9250 0.0000 33.9250
v 371.0750 0.0000 33.9250
v 371.0750 3.0000 33.9250
v 373.9250 3.0000 33.9250
v 373.9250 0.0000 31.0750
v 373.9250 0.0000 33.9250
v 373.9250 3.0000 33.9250
v 373.9250 3.0000 31.0750
v 371.0750 0.0000 33.9250
v 371.0750 0.0000 31.0750
v 371.0750 3.0000 31.0750
v 371.0750 3.0000 33.9250
v 351.0750 0.0000 33.5750
v 351.0750 0.0000 36.4250
v 353.9250 0.0000 36.4250
v 353.9250 0.0000 33.5750
v 351.0750 3.0000 33.5750
v 353.9250 3.0000 33.5750
v 353.9250 3.0000 36.4250
v 351.0750 3.0000 36.4250
v 351.0750 0.0000 33.5750
v 353.9250 0.0000 33.5750
v 353.9250 3.0000 33.5750
v 351.0750 3.0000 33.5750
v 353.9250 0.0000 36.4250
v 351.0750 0.0000 36.4250
v 351.0750 3.0000 36.4250
v 353.9250 3.0000 36.4250
v 353.9250 0.0000 33.5750
v 353.9250 0.0000 36.4250
v 353.9250 3.0000 36.4250
v 353.9250 3.0000 33.5750
v 351.0750 0.0000 36.4250
v 351.0750 0.0000 33.5750
v 351.0750 3.0000 33.5750
v 351.0750 3.0000 36.4250
v 356.0750 0.0000 33.5750
v 356.0750 0.0000 36.4250
v 358.9250 0.0000 36.4250
v 358.9250 0.0000 33.5750
v 356.0750 3.0000 33.5750
v 358.9250 3.0000 33.5750
v 358.9250 3.0000 36.4250
v 356.0750 3.0000 36.4250
v 356.0750 0.0000 33.5750
v 358.9250 0.0000 33.5750
v 358.9250 3.0000 33.5750
v 356.0750 3.0000 33.5750
v 358.9250 0.0000 36.4250
v 356.0750 0.0000 36.4250
v 356.0750 3.0000 36.4250
v 358.9250 3.0000 36.4250
v 358.9250 0.0000 33.5750
v 358.9250 0.0000 36.4250
v 358.9250 3.0000 36.4250
v 358.9250 3.0000 33.5750
v 356.0750 0.0000 36.4250
v 356.0750 0.0000 33.5750
v 356.0750 3.0000 33.5750
v 356.0750 3.0000 36.4250
v 354.8250 2.7600 9.8250
v 355.1750 2.7600 9.8250
v 355.1750 2.7600 10.1750
v 354.8250 2.7600 10.1750
v 354.8250 2.8800 9.8250
v 355.1750 2.8800 9.8250
v 355.1750 2.8800 10.1750
v 354.8250 2.8800 10.1750
v 349.8250 2.7600 19.8250
v 350.1750 2.7600 19.8250
v 350.1750 2.7600 20.1750
v 349.8250 2.7600 20.1750
v 349.8250 2.8800 19.8250
v 350.1750 2.8800 19.8250
v 350.1750 2.8800 20.1750
v 349.8250 2.8800 20.1750
v 354.8250 2.7600 19.8250
v 355.1750 2.7600 19.8250
v 355.1750 2.7600 20.1750
v 354.8250 2.7600 20.1750
v 354.8250 2.8800 19.8250
v 355.1750 2.8800 19.8250
v 355.1750 2.8800 20.1750
v 354.8250 2.8800 20.1750
v 369.8250 2.7600 19.8250
v 370.1750 2.7600 19.8250
v 370.1750 2.7600 20.1750
v 369.8250 2.7600 20.1750
v 369.8250 2.8800 19.8250
v 370.1750 2.8800 19.8250
v 370.1750 2.8800 20.1750
v 369.8250 2.8800 20.1750
v 374.8250 2.7600 24.8250
v 375.1750 2.7600 24.8250
v 375.1750 2.7600 25.1750
v 374.8250 2.7600 25.1750
v 374.8250 2.8800 24.8250
v 375.1750 2.8800 24.8250
v 375.1750 2.8800 25.1750
v 374.8250 2.8800 25.1750
v 349.8250 2.7600 29.8250
v 350.1750 2.7600 29.8250
v 350.1750 2.7600 30.1750
v 349.8250 2.7600 30.1750
v 349.8250 2.8800 29.8250
v 350.1750 2.8800 29.8250
v 350.1750 2.8800 30.1750
v 349.8250 2.8800 30.1750
v 354.8250 2.7600 29.8250
v 355.1750 2.7600 29.8250
v 355.1750 2.7600 30.1750
v 354.8250 2.7600 30.1750
v 354.8250 2.8800 29.8250
v 355.1750 2.8800 29.8250
v 355.1750 2.8800 30.1750
v 354.8250 2.8800 30.1750
v 359.8250 2.7600 29.8250
v 360.1750 2.7600 29.8250
v 360.1750 2.7600 30.1750
v 359.8250 2.7600 30.1750
v 359.8250 2.8800 29.8250
v 360.1750 2.8800 29.8250
v 360.1750 2.8800 30.1750
v 359.8250 2.8800 30.1750
v 354.8250 2.7600 34.8250
v 355.1750 2.7600 34.8250
v 355.1750 2.7600 35.1750
v 354.8250 2.7600 35.1750
v 354.8250 2.8800 34.8250
v 355.1750 2.8800 34.8250
v 355.1750 2.8800 35.1750
v 354.8250 2.8800 35.1750
v 369.8250 2.7600 34.8250
v 370.1750 2.7600 34.8250
v 370.1750 2.7600 35.1750
v 369.8250 2.7600 35.1750
v 369.8250 2.8800 34.8250
v 370.1750 2.8800 34.8250
v 370.1750 2.8800 35.1750
v 369.8250 2.8800 35.1750
v 347.6200 2.6000 7.5000
v 347.6200 2.6000 7.5000
v 347.5849 2.6000 7.5849
v 347.5849 2.6000 7.5849
v 347.5000 2.6000 7.6200
v 347.5000 2.6000 7.6200
v 347.4151 2.6000 7.5849
v 347.4151 2.6000 7.5849
v 347.3800 2.6000 7.5000
v 347.3800 2.6000 7.5000
v 347.4151 2.6000 7.4151
v 347.4151 2.6000 7.4151
v 347.5000 2.6000 7.3800
v 347.5000 2.6000 7.3800
v 347.5849 2.6000 7.4151
v 347.5849 2.6000 7.4151
v 347.5000 2.6000 7.5000
v 347.5000 2.6000 7.5000
v 347.5000 2.4800 7.3800
v 375.0000 2.4800 7.3800
v 375.0000 2.4800 7.6200
v 347.5000 2.4800 7.6200
v 347.5000 2.7200 7.3800
v 375.0000 2.7200 7.3800
v 375.0000 2.7200 7.6200
v 347.5000 2.7200 7.6200
v 347.6200 2.6000 22.5000
v 347.6200 2.6000 22.5000
v 347.5849 2.6000 22.5849
v 347.5849 2.6000 22.5849
v 347.5000 2.6000 22.6200
v 347.5000 2.6000 22.6200
v 347.4151 2.6000 22.5849
v 347.4151 2.6000 22.5849
v 347.3800 2.6000 22.5000
v 347.3800 2.6000 22.5000
v 347.4151 2.6000 22.4151
v 347.4151 2.6000 22.4151
v 347.5000 2.6000 22.3800
v 347.5000 2.6000 22.3800
v 347.5849 2.6000 22.4151
v 347.5849 2.6000 22.4151
v 347.5000 2.6000 22.5000
v 347.5000 2.6000 22.5000
v 347.5000 2.4800 22.3800
v 375.0000 2.4800 22.3800
v 375.0000 2.4800 22.6200
v 347.5000 2.4800 22.6200
v 347.5000 2.7200 22.3800
v 375.0000 2.7200 22.3800
v 375.0000 2.7200 22.6200
v 347.5000 2.7200 22.6200
v 347.6200 2.6000 27.5000
v 347.6200 2.6000 27.5000
v 347.5849 2.6000 27.5849
v 347.5849 2.6000 27.5849
v 347.5000 2.6000 27.6200
v 347.5000 2.6000 27.6200
v 347.4151 2.6000 27.5849
v 347.4151 2.6000 27.5849
v 347.3800 2.6000 27.5000
v 347.3800 2.6000 27.5000
v 347.4151 2.6000 27.4151
v 347.4151 2.6000 27.4151
v 347.5000 2.6000 27.3800
v 347.5000 2.6000 27.3800
v 347.5849 2.6000 27.4151
v 347.5849 2.6000 27.4151
v 347.5000 2.6000 27.5000
v 347.5000 2.6000 27.5000
v 347.5000 2.4800 27.3800
v 375.0000 2.4800 27.3800
v 375.0000 2.4800 27.6200
v 347.5000 2.4800 27.6200
v 347.5000 2.7200 27.3800
v 375.0000 2.7200 27.3800
v 375.0000 2.7200 27.6200
v 347.5000 2.7200 27.6200
vt 178.0375 3.0375
vt 178.0375 4.4625
vt 179.4625 4.4625
vt 179.4625 3.0375
vt 178.0375 3.0375
vt 179.4625 3.0375
vt 179.4625 4.4625
vt 178.0375 4.4625
vt 178.0375 0.0000
vt 179.4625 0.0000
vt 179.4625 1.5000
vt 178.0375 1.5000
vt 179.4625 0.0000
vt 178.0375 0.0000
vt 178.0375 1.5000
vt 179.4625 1.5000
vt 3.0375 0.0000
vt 4.4625 0.0000
vt 4.4625 1.5000
vt 3.0375 1.5000
vt 4.4625 0.0000
vt 3.0375 0.0000
vt 3.0375 1.5000
vt 4.4625 1.5000
vt 180.5375 3.0375
vt 180.5375 4.4625
vt 181.9625 4.4625
vt 181.9625 3.0375
vt 180.5375 3.0375
vt 181.9625 3.0375
vt 181.9625 4.4625
vt 180.5375 4.4625
vt 180.5375 0.0000
vt 181.9625 0.0000
vt 181.9625 1.5000
vt 180.5375 1.5000
vt 181.9625 0.0000
vt 180.5375 0.0000
vt 180.5375 1.5000
vt 181.9625 1.5000
vt 3.0375 0.0000
vt 4.4625 0.0000
vt 4.4625 1.5000
vt 3.0375 1.5000
vt 4.4625 0.0000
vt 3.0375 0.0000
vt 3.0375 1.5000
vt 4.4625 1.5000
vt 183.0375 3.0375
vt 183.0375 4.4625
vt 184.4625 4.4625
vt 184.4625 3.0375
vt 183.0375 3.0375
vt 184.4625 3.0375
vt 184.4625 4.4625
vt 183.0375 4.4625
vt 183.0375 0.0000
vt 184.4625 0.0000
vt 184.4625 1.5000
vt 183.0375 1.5000
vt 184.4625 0.0000
vt 183.0375 0.0000
vt 183.0375 1.5000
vt 184.4625 1.5000
vt 3.0375 0.0000
vt 4.4625 0.0000
vt 4.4625 1.5000
vt 3.0375 1.5000
vt 4.4625 0.0000
vt 3.0375 0.0000
vt 3.0375 1.5000
vt 4.4625 1.5000
vt 184.2875 3.0375
vt 184.2875 4.4625
vt 185.7125 4.4625
vt 185.7125 3.0375
vt 184.2875 3.0375
vt 185.7125 3.0375
vt 185.7125 4.4625
vt 184.2875 4.4625
vt 184.2875 0.0000
vt 185.7125 0.0000
vt 185.7125 1.5000
vt 184.2875 1.5000
vt 185.7125 0.0000
vt 184.2875 0.0000
vt 184.2875 1.5000
vt 185.7125 1.5000
vt 3.0375 0.0000
vt 4.4625 0.0000
vt 4.4625 1.5000
vt 3.0375 1.5000
vt 4.4625 0.0000
vt 3.0375 0.0000
vt 3.0375 1.5000
vt 4.4625 1.5000
vt 185.5375 3.0375
vt 185.5375 4.4625
vt 186.9625 4.4625
vt 186.9625 3.0375
vt 185.5375 3.0375
vt 186.9625 3.0375
vt 186.9625 4.4625
vt 185.5375 4.4625
vt 185.5375 0.0000
vt 186.9625 0.0000
vt 186.9625 1.5000
vt 185.5375 1.5000
vt 186.9625 0.0000
vt 185.5375 0.0000
vt 185.5375 1.5000
vt 186.9625 1.5000
vt 3.0375 0.0000
vt 4.4625 0.0000
vt 4.4625 1.5000
vt 3.0375 1.5000
vt 4.4625 0.0000
vt 3.0375 0.0000
vt 3.0375 1.5000
vt 4.4625 1.5000
vt 178.0375 4.2875
vt 178.0375 5.7125
vt 179.4625 5.7125
vt 179.4625 4.2875
vt 178.0375 4.2875
vt 179.4625 4.2875
vt 179.4625 5.7125
vt 178.0375 5.7125
vt 178.0375 0.0000
vt 179.4625 0.0000
vt 179.4625 1.5000
vt 178.0375 1.5000
vt 179.4625 0.0000
vt 178.0375 0.0000
vt 178.0375 1.5000
vt 179.4625 1.5000
vt 4.2875 0.0000
vt 5.7125 0.0000
vt 5.7125 1.5000
vt 4.2875 1.5000
vt 5.7125 0.0000
vt 4.2875 0.0000
vt 4.2875 1.5000
vt 5.7125 1.5000
vt 183.0375 4.2875
vt 183.0375 5.7125
vt 184.4625 5.7125
vt 184.4625 4.2875
vt 183.0375 4.2875
vt 184.4625 4.2875
vt 184.4625 5.7125
vt 183.0375 5.7125
vt 183.0375 0.0000
vt 184.4625 0.0000
vt 184.4625 1.5000
vt 183.0375 1.5000
vt 184.4625 0.0000
vt 183.0375 0.0000
vt 183.0375 1.5000
vt 184.4625 1.5000
vt 4.2875 0.0000
vt 5.7125 0.0000
vt 5.7125 1.5000
vt 4.2875 1.5000
vt 5.7125 0.0000
vt 4.2875 0.0000
vt 4.2875 1.5000
vt 5.7125 1.5000
vt 175.5375 5.5375
vt 175.5375 6.9625
vt 176.9625 6.9625
vt 176.9625 5.5375
vt 175.5375 5.5375
vt 176.9625 5.5375
vt 176.9625 6.9625
vt 175.5375 6.9625
vt 175.5375 0.0000
vt 176.9625 0.0000
vt 176.9625 1.5000
vt 175.5375 1.5000
vt 176.9625 0.0000
vt 175.5375 0.0000
vt 175.5375 1.5000
vt 176.9625 1.5000
vt 5.5375 0.0000
vt 6.9625 0.0000
vt 6.9625 1.5000
vt 5.5375 1.5000
vt 6.9625 0.0000
vt 5.5375 0.0000
vt 5.5375 1.5000
vt 6.9625 1.5000
vt 178.0375 5.5375
vt 178.0375 6.9625
vt 179.4625 6.9625
vt 179.4625 5.5375
vt 178.0375 5.5375
vt 179.4625 5.5375
vt 179.4625 6.9625
vt 178.0375 6.9625
vt 178.0375 0.0000
vt 179.4625 0.0000
vt 179.4625 1.5000
vt 178.0375 1.5000
vt 179.4625 0.0000
vt 178.0375 0.0000
vt 178.0375 1.5000
vt 179.4625 1.5000
vt 5.5375 0.0000
vt 6.9625 0.0000
vt 6.9625 1.5000
vt 5.5375 1.5000
vt 6.9625 0.0000
vt 5.5375 0.0000
vt 5.5375 1.5000
vt 6.9625 1.5000
vt 183.0375 5.5375
vt 183.0375 6.9625
vt 184.4625 6.9625
vt 184.4625 5.5375
vt 183.0375 5.5375
vt 184.4625 5.5375
vt 184.4625 6.9625
vt 183.0375 6.9625
vt 183.0375 0.0000
vt 184.4625 0.0000
vt 184.4625 1.5000
vt 183.0375 1.5000
vt 184.4625 0.0000
vt 183.0375 0.0000
vt 183.0375 1.5000
vt 184.4625 1.5000
vt 5.5375 0.0000
vt 6.9625 0.0000
vt 6.9625 1.5000
vt 5.5375 1.5000
vt 6.9625 0.0000
vt 5.5375 0.0000
vt 5.5375 1.5000
vt 6.9625 1.5000
vt 180.5375 6.7875
vt 180.5375 8.2125
vt 181.9625 8.2125
vt 181.9625 6.7875
vt 180.5375 6.7875
vt 181.9625 6.7875
vt 181.9625 8.2125
vt 180.5375 8.2125
vt 180.5375 0.0000
vt 181.9625 0.0000
vt 181.9625 1.5000
vt 180.5375 1.5000
vt 181.9625 0.0000
vt 180.5375 0.0000
vt 180.5375 1.5000
vt 181.9625 1.5000
vt 6.7875 0.0000
vt 8.2125 0.0000
vt 8.2125 1.5000
vt 6.7875 1.5000
vt 8.2125 0.0000
vt 6.7875 0.0000
vt 6.7875 1.5000
vt 8.2125 1.5000
vt 183.0375 6.7875
vt 183.0375 8.2125
vt 184.4625 8.2125
vt 184.4625 6.7875
vt 183.0375 6.7875
vt 184.4625 6.7875
vt 184.4625 8.2125
vt 183.0375 8.2125
vt 183.0375 0.0000
vt 184.4625 0.0000
vt 184.4625 1.5000
vt 183.0375 1.5000
vt 184.4625 0.0000
vt 183.0375 0.0000
vt 183.0375 1.5000
vt 184.4625 1.5000
vt 6.7875 0.0000
vt 8.2125 0.0000
vt 8.2125 1.5000
vt 6.7875 1.5000
vt 8.2125 0.0000
vt 6.7875 0.0000
vt 6.7875 1.5000
vt 8.2125 1.5000
vt 175.5375 8.0375
vt 175.5375 9.4625
vt 176.9625 9.4625
vt 176.9625 8.0375
vt 175.5375 8.0375
vt 176.9625 8.0375
vt 176.9625 9.4625
vt 175.5375 9.4625
vt 175.5375 0.0000
vt 176.9625 0.0000
vt 176.9625 1.5000
vt 175.5375 1.5000
vt 176.9625 0.0000
vt 175.5375 0.0000
vt 175.5375 1.5000
vt 176.9625 1.5000
vt 8.0375 0.0000
vt 9.4625 0.0000
vt 9.4625 1.5000
vt 8.0375 1.5000
vt 9.4625 0.0000
vt 8.0375 0.0000
vt 8.0375 1.5000
vt 9.4625 1.5000
vt 178.0375 8.0375
vt 178.0375 9.4625
vt 179.4625 9.4625
vt 179.4625 8.0375
vt 178.0375 8.0375
vt 179.4625 8.0375
vt 179.4625 9.4625
vt 178.0375 9.4625
vt 178.0375 0.0000
vt 179.4625 0.0000
vt 179.4625 1.5000
vt 178.0375 1.5000
vt 179.4625 0.0000
vt 178.0375 0.0000
vt 178.0375 1.5000
vt 179.4625 1.5000
vt 8.0375 0.0000
vt 9.4625 0.0000
vt 9.4625 1.5000
vt 8.0375 1.5000
vt 9.4625 0.0000
vt 8.0375 0.0000
vt 8.0375 1.5000
vt 9.4625 1.5000
vt 179.2875 8.0375
vt 179.2875 9.4625
vt 180.7125 9.4625
vt 180.7125 8.0375
vt 179.2875 8.0375
vt 180.7125 8.0375
vt 180.7125 9.4625
vt 179.2875 9.4625
vt 179.2875 0.0000
vt 180.7125 0.0000
vt 180.7125 1.5000
vt 179.2875 1.5000
vt 180.7125 0.0000
vt 179.2875 0.0000
vt 179.2875 1.5000
vt 180.7125 1.5000
vt 8.0375 0.0000
vt 9.4625 0.0000
vt 9.4625 1.5000
vt 8.0375 1.5000
vt 9.4625 0.0000
vt 8.0375 0.0000
vt 8.0375 1.5000
vt 9.4625 1.5000
vt 180.5375 8.0375
vt 180.5375 9.4625
vt 181.9625 9.4625
vt 181.9625 8.0375
vt 180.5375 8.0375
vt 181.9625 8.0375
vt 181.9625 9.4625
vt 180.5375 9.4625
vt 180.5375 0.0000
vt 181.9625 0.0000
vt 181.9625 1.5000
vt 180.5375 1.5000
vt 181.9625 0.0000
vt 180.5375 0.0000
vt 180.5375 1.5000
vt 181.9625 1.5000
vt 8.0375 0.0000
vt 9.4625 0.0000
vt 9.4625 1.5000
vt 8.0375 1.5000
vt 9.4625 0.0000
vt 8.0375 0.0000
vt 8.0375 1.5000
vt 9.4625 1.5000
vt 183.0375 8.0375
vt 183.0375 9.4625
vt 184.4625 9.4625
vt 184.4625 8.0375
vt 183.0375 8.0375
vt 184.4625 8.0375
vt 184.4625 9.4625
vt 183.0375 9.4625
vt 183.0375 0.0000
vt 184.4625 0.0000
vt 184.4625 1.5000
vt 183.0375 1.5000
vt 184.4625 0.0000
vt 183.0375 0.0000
vt 183.0375 1.5000
vt 184.4625 1.5000
vt 8.0375 0.0000
vt 9.4625 0.0000
vt 9.4625 1.5000
vt 8.0375 1.5000
vt 9.4625 0.0000
vt 8.0375 0.0000
vt 8.0375 1.5000
vt 9.4625 1.5000
vt 185.5375 8.0375
vt 185.5375 9.4625
vt 186.9625 9.4625
vt 186.9625 8.0375
vt 185.5375 8.0375
vt 186.9625 8.0375
vt 186.9625 9.4625
vt 185.5375 9.4625
vt 185.5375 0.0000
vt 186.9625 0.0000
vt 186.9625 1.5000
vt 185.5375 1.5000
vt 186.9625 0.0000
vt 185.5375 0.0000
vt 185.5375 1.5000
vt 186.9625 1.5000
vt 8.0375 0.0000
vt 9.4625 0.0000
vt 9.4625 1.5000
vt 8.0375 1.5000
vt 9.4625 0.0000
vt 8.0375 0.0000
vt 8.0375 1.5000
vt 9.4625 1.5000
vt 183.0375 9.2875
vt 183.0375 10.7125
vt 184.4625 10.7125
vt 184.4625 9.2875
vt 183.0375 9.2875
vt 184.4625 9.2875
vt 184.4625 10.7125
vt 183.0375 10.7125
vt 183.0375 0.0000
vt 184.4625 0.0000
vt 184.4625 1.5000
vt 183.0375 1.5000
vt 184.4625 0.0000
vt 183.0375 0.0000
vt 183.0375 1.5000
vt 184.4625 1.5000
vt 9.2875 0.0000
vt 10.7125 0.0000
vt 10.7125 1.5000
vt 9.2875 1.5000
vt 10.7125 0.0000
vt 9.2875 0.0000
vt 9.2875 1.5000
vt 10.7125 1.5000
vt 185.5375 9.2875
vt 185.5375 10.7125
vt 186.9625 10.7125
vt 186.9625 9.2875
vt 185.5375 9.2875
vt 186.9625 9.2875
vt 186.9625 10.7125
vt 185.5375 10.7125
vt 185.5375 0.0000
vt 186.9625 0.0000
vt 186.9625 1.5000
vt 185.5375 1.5000
vt 186.9625 0.0000
vt 185.5375 0.0000
vt 185.5375 1.5000
vt 186.9625 1.5000
vt 9.2875 0.0000
vt 10.7125 0.0000
vt 10.7125 1.5000
vt 9.2875 1.5000
vt 10.7125 0.0000
vt 9.2875 0.0000
vt 9.2875 1.5000
vt 10.7125 1.5000
vt 174.2875 10.5375
vt 174.2875 11.9625
vt 175.7125 11.9625
vt 175.7125 10.5375
vt 174.2875 10.5375
vt 175.7125 10.5375
vt 175.7125 11.9625
vt 174.2875 11.9625
vt 174.2875 0.0000
vt 175.7125 0.0000
vt 175.7125 1.5000
vt 174.2875 1.5000
vt 175.7125 0.0000
vt 174.2875 0.0000
vt 174.2875 1.5000
vt 175.7125 1.5000
vt 10.5375 0.0000
vt 11.9625 0.0000
vt 11.9625 1.5000
vt 10.5375 1.5000
vt 11.9625 0.0000
vt 10.5375 0.0000
vt 10.5375 1.5000
vt 11.9625 1.5000
vt 180.5375 10.5375
vt 180.5375 11.9625
vt 181.9625 11.9625
vt 181.9625 10.5375
vt 180.5375 10.5375
vt 181.9625 10.5375
vt 181.9625 11.9625
vt 180.5375 11.9625
vt 180.5375 0.0000
vt 181.9625 0.0000
vt 181.9625 1.5000
vt 180.5375 1.5000
vt 181.9625 0.0000
vt 180.5375 0.0000
vt 180.5375 1.5000
vt 181.9625 1.5000
vt 10.5375 0.0000
vt 11.9625 0.0000
vt 11.9625 1.5000
vt 10.5375 1.5000
vt 11.9625 0.0000
vt 10.5375 0.0000
vt 10.5375 1.5000
vt 11.9625 1.5000
vt 181.7875 10.5375
vt 181.7875 11.9625
vt 183.2125 11.9625
vt 183.2125 10.5375
vt 181.7875 10.5375
vt 183.2125 10.5375
vt 183.2125 11.9625
vt 181.7875 11.9625
vt 181.7875 0.0000
vt 183.2125 0.0000
vt 183.2125 1.5000
vt 181.7875 1.5000
vt 183.2125 0.0000
vt 181.7875 0.0000
vt 181.7875 1.5000
vt 183.2125 1.5000
vt 10.5375 0.0000
vt 11.9625 0.0000
vt 11.9625 1.5000
vt 10.5375 1.5000
vt 11.9625 0.0000
vt 10.5375 0.0000
vt 10.5375 1.5000
vt 11.9625 1.5000
vt 183.0375 10.5375
vt 183.0375 11.9625
vt 184.4625 11.9625
vt 184.4625 10.5375
vt 183.0375 10.5375
vt 184.4625 10.5375
vt 184.4625 11.9625
vt 183.0375 11.9625
vt 183.0375 0.0000
vt 184.4625 0.0000
vt 184.4625 1.5000
vt 183.0375 1.5000
vt 184.4625 0.0000
vt 183.0375 0.0000
vt 183.0375 1.5000
vt 184.4625 1.5000
vt 10.5375 0.0000
vt 11.9625 0.0000
vt 11.9625 1.5000
vt 10.5375 1.5000
vt 11.9625 0.0000
vt 10.5375 0.0000
vt 10.5375 1.5000
vt 11.9625 1.5000
vt 185.5375 10.5375
vt 185.5375 11.9625
vt 186.9625 11.9625
vt 186.9625 10.5375
vt 185.5375 10.5375
vt 186.9625 10.5375
vt 186.9625 11.9625
vt 185.5375 11.9625
vt 185.5375 0.0000
vt 186.9625 0.0000
vt 186.9625 1.5000
vt 185.5375 1.5000
vt 186.9625 0.0000
vt 185.5375 0.0000
vt 185.5375 1.5000
vt 186.9625 1.5000
vt 10.5375 0.0000
vt 11.9625 0.0000
vt 11.9625 1.5000
vt 10.5375 1.5000
vt 11.9625 0.0000
vt 10.5375 0.0000
vt 10.5375 1.5000
vt 11.9625 1.5000
vt 175.5375 11.7875
vt 175.5375 13.2125
vt 176.9625 13.2125
vt 176.9625 11.7875
vt 175.5375 11.7875
vt 176.9625 11.7875
vt 176.9625 13.2125
vt 175.5375 13.2125
vt 175.5375 0.0000
vt 176.9625 0.0000
vt 176.9625 1.5000
vt 175.5375 1.5000
vt 176.9625 0.0000
vt 175.5375 0.0000
vt 175.5375 1.5000
vt 176.9625 1.5000
vt 11.7875 0.0000
vt 13.2125 0.0000
vt 13.2125 1.5000
vt 11.7875 1.5000
vt 13.2125 0.0000
vt 11.7875 0.0000
vt 11.7875 1.5000
vt 13.2125 1.5000
vt 180.5375 11.7875
vt 180.5375 13.2125
vt 181.9625 13.2125
vt 181.9625 11.7875
vt 180.5375 11.7875
vt 181.9625 11.7875
vt 181.9625 13.2125
vt 180.5375 13.2125
vt 180.5375 0.0000
vt 181.9625 0.0000
vt 181.9625 1.5000
vt 180.5375 1.5000
vt 181.9625 0.0000
vt 180.5375 0.0000
vt 180.5375 1.5000
vt 181.9625 1.5000
vt 11.7875 0.0000
vt 13.2125 0.0000
vt 13.2125 1.5000
vt 11.7875 1.5000
vt 13.2125 0.0000
vt 11.7875 0.0000
vt 11.7875 1.5000
vt 13.2125 1.5000
vt 176.7875 13.0375
vt 176.7875 14.4625
vt 178.2125 14.4625
vt 178.2125 13.0375
vt 176.7875 13.0375
vt 178.2125 13.0375
vt 178.2125 14.4625
vt 176.7875 14.4625
vt 176.7875 0.0000
vt 178.2125 0.0000
vt 178.2125 1.5000
vt 176.7875 1.5000
vt 178.2125 0.0000
vt 176.7875 0.0000
vt 176.7875 1.5000
vt 178.2125 1.5000
vt 13.0375 0.0000
vt 14.4625 0.0000
vt 14.4625 1.5000
vt 13.0375 1.5000
vt 14.4625 0.0000
vt 13.0375 0.0000
vt 13.0375 1.5000
vt 14.4625 1.5000
vt 178.0375 13.0375
vt 178.0375 14.4625
vt 179.4625 14.4625
vt 179.4625 13.0375
vt 178.0375 13.0375
vt 179.4625 13.0375
vt 179.4625 14.4625
vt 178.0375 14.4625
vt 178.0375 0.0000
vt 179.4625 0.0000
vt 179.4625 1.5000
vt 178.0375 1.5000
vt 179.4625 0.0000
vt 178.0375 0.0000
vt 178.0375 1.5000
vt 179.4625 1.5000
vt 13.0375 0.0000
vt 14.4625 0.0000
vt 14.4625 1.5000
vt 13.0375 1.5000
vt 14.4625 0.0000
vt 13.0375 0.0000
vt 13.0375 1.5000
vt 14.4625 1.5000
vt 180.5375 13.0375
vt 180.5375 14.4625
vt 181.9625 14.4625
vt 181.9625 13.0375
vt 180.5375 13.0375
vt 181.9625 13.0375
vt 181.9625 14.4625
vt 180.5375 14.4625
vt 180.5375 0.0000
vt 181.9625 0.0000
vt 181.9625 1.5000
vt 180.5375 1.5000
vt 181.9625 0.0000
vt 180.5375 0.0000
vt 180.5375 1.5000
vt 181.9625 1.5000
vt 13.0375 0.0000
vt 14.4625 0.0000
vt 14.4625 1.5000
vt 13.0375 1.5000
vt 14.4625 0.0000
vt 13.0375 0.0000
vt 13.0375 1.5000
vt 14.4625 1.5000
vt 183.0375 13.0375
vt 183.0375 14.4625
vt 184.4625 14.4625
vt 184.4625 13.0375
vt 183.0375 13.0375
vt 184.4625 13.0375
vt 184.4625 14.4625
vt 183.0375 14.4625
vt 183.0375 0.0000
vt 184.4625 0.0000
vt 184.4625 1.5000
vt 183.0375 1.5000
vt 184.4625 0.0000
vt 183.0375 0.0000
vt 183.0375 1.5000
vt 184.4625 1.5000
vt 13.0375 0.0000
vt 14.4625 0.0000
vt 14.4625 1.5000
vt 13.0375 1.5000
vt 14.4625 0.0000
vt 13.0375 0.0000
vt 13.0375 1.5000
vt 14.4625 1.5000
vt 184.2875 13.0375
vt 184.2875 14.4625
vt 185.7125 14.4625
vt 185.7125 13.0375
vt 184.2875 13.0375
vt 185.7125 13.0375
vt 185.7125 14.4625
vt 184.2875 14.4625
vt 184.2875 0.0000
vt 185.7125 0.0000
vt 185.7125 1.5000
vt 184.2875 1.5000
vt 185.7125 0.0000
vt 184.2875 0.0000
vt 184.2875 1.5000
vt 185.7125 1.5000
vt 13.0375 0.0000
vt 14.4625 0.0000
vt 14.4625 1.5000
vt 13.0375 1.5000
vt 14.4625 0.0000
vt 13.0375 0.0000
vt 13.0375 1.5000
vt 14.4625 1.5000
vt 185.5375 13.0375
vt 185.5375 14.4625
vt 186.9625 14.4625
vt 186.9625 13.0375
vt 185.5375 13.0375
vt 186.9625 13.0375
vt 186.9625 14.4625
vt 185.5375 14.4625
vt 185.5375 0.0000
vt 186.9625 0.0000
vt 186.9625 1.5000
vt 185.5375 1.5000
vt 186.9625 0.0000
vt 185.5375 0.0000
vt 185.5375 1.5000
vt 186.9625 1.5000
vt 13.0375 0.0000
vt 14.4625 0.0000
vt 14.4625 1.5000
vt 13.0375 1.5000
vt 14.4625 0.0000
vt 13.0375 0.0000
vt 13.0375 1.5000
vt 14.4625 1.5000
vt 175.5375 15.5375
vt 175.5375 16.9625
vt 176.9625 16.9625
vt 176.9625 15.5375
vt 175.5375 15.5375
vt 176.9625 15.5375
vt 176.9625 16.9625
vt 175.5375 16.9625
vt 175.5375 0.0000
vt 176.9625 0.0000
vt 176.9625 1.5000
vt 175.5375 1.5000
vt 176.9625 0.0000
vt 175.5375 0.0000
vt 175.5375 1.5000
vt 176.9625 1.5000
vt 15.5375 0.0000
vt 16.9625 0.0000
vt 16.9625 1.5000
vt 15.5375 1.5000
vt 16.9625 0.0000
vt 15.5375 0.0000
vt 15.5375 1.5000
vt 16.9625 1.5000
vt 176.7875 15.5375
vt 176.7875 16.9625
vt 178.2125 16.9625
vt 178.2125 15.5375
vt 176.7875 15.5375
vt 178.2125 15.5375
vt 178.2125 16.9625
vt 176.7875 16.9625
vt 176.7875 0.0000
vt 178.2125 0.0000
vt 178.2125 1.5000
vt 176.7875 1.5000
vt 178.2125 0.0000
vt 176.7875 0.0000
vt 176.7875 1.5000
vt 178.2125 1.5000
vt 15.5375 0.0000
vt 16.9625 0.0000
vt 16.9625 1.5000
vt 15.5375 1.5000
vt 16.9625 0.0000
vt 15.5375 0.0000
vt 15.5375 1.5000
vt 16.9625 1.5000
vt 178.0375 15.5375
vt 178.0375 16.9625
vt 179.4625 16.9625
vt 179.4625 15.5375
vt 178.0375 15.5375
vt 179.4625 15.5375
vt 179.4625 16.9625
vt 178.0375 16.9625
vt 178.0375 0.0000
vt 179.4625 0.0000
vt 179.4625 1.5000
vt 178.0375 1.5000
vt 179.4625 0.0000
vt 178.0375 0.0000
vt 178.0375 1.5000
vt 179.4625 1.5000
vt 15.5375 0.0000
vt 16.9625 0.0000
vt 16.9625 1.5000
vt 15.5375 1.5000
vt 16.9625 0.0000
vt 15.5375 0.0000
vt 15.5375 1.5000
vt 16.9625 1.5000
vt 180.5375 15.5375
vt 180.5375 16.9625
vt 181.9625 16.9625
vt 181.9625 15.5375
vt 180.5375 15.5375
vt 181.9625 15.5375
vt 181.9625 16.9625
vt 180.5375 16.9625
vt 180.5375 0.0000
vt 181.9625 0.0000
vt 181.9625 1.5000
vt 180.5375 1.5000
vt 181.9625 0.0000
vt 180.5375 0.0000
vt 180.5375 1.5000
vt 181.9625 1.5000
vt 15.5375 0.0000
vt 16.9625 0.0000
vt 16.9625 1.5000
vt 15.5375 1.5000
vt 16.9625 0.0000
vt 15.5375 0.0000
vt 15.5375 1.5000
vt 16.9625 1.5000
vt 183.0375 15.5375
vt 183.0375 16.9625
vt 184.4625 16.9625
vt 184.4625 15.5375
vt 183.0375 15.5375
vt 184.4625 15.5375
vt 184.4625 16.9625
vt 183.0375 16.9625
vt 183.0375 0.0000
vt 184.4625 0.0000
vt 184.4625 1.5000
vt 183.0375 1.5000
vt 184.4625 0.0000
vt 183.0375 0.0000
vt 183.0375 1.5000
vt 184.4625 1.5000
vt 15.5375 0.0000
vt 16.9625 0.0000
vt 16.9625 1.5000
vt 15.5375 1.5000
vt 16.9625 0.0000
vt 15.5375 0.0000
vt 15.5375 1.5000
vt 16.9625 1.5000
vt 184.2875 15.5375
vt 184.2875 16.9625
vt 185.7125 16.9625
vt 185.7125 15.5375
vt 184.2875 15.5375
vt 185.7125 15.5375
vt 185.7125 16.9625
vt 184.2875 16.9625
vt 184.2875 0.0000
vt 185.7125 0.0000
vt 185.7125 1.5000
vt 184.2875 1.5000
vt 185.7125 0.0000
vt 184.2875 0.0000
vt 184.2875 1.5000
vt 185.7125 1.5000
vt 15.5375 0.0000
vt 16.9625 0.0000
vt 16.9625 1.5000
vt 15.5375 1.5000
vt 16.9625 0.0000
vt 15.5375 0.0000
vt 15.5375 1.5000
vt 16.9625 1.5000
vt 185.5375 15.5375
vt 185.5375 16.9625
vt 186.9625 16.9625
vt 186.9625 15.5375
vt 185.5375 15.5375
vt 186.9625 15.5375
vt 186.9625 16.9625
vt 185.5375 16.9625
vt 185.5375 0.0000
vt 186.9625 0.0000
vt 186.9625 1.5000
vt 185.5375 1.5000
vt 186.9625 0.0000
vt 185.5375 0.0000
vt 185.5375 1.5000
vt 186.9625 1.5000
vt 15.5375 0.0000
vt 16.9625 0.0000
vt 16.9625 1.5000
vt 15.5375 1.5000
vt 16.9625 0.0000
vt 15.5375 0.0000
vt 15.5375 1.5000
vt 16.9625 1.5000
vt 175.5375 16.7875
vt 175.5375 18.2125
vt 176.9625 18.2125
vt 176.9625 16.7875
vt 175.5375 16.7875
vt 176.9625 16.7875
vt 176.9625 18.2125
vt 175.5375 18.2125
vt 175.5375 0.0000
vt 176.9625 0.0000
vt 176.9625 1.5000
vt 175.5375 1.5000
vt 176.9625 0.0000
vt 175.5375 0.0000
vt 175.5375 1.5000
vt 176.9625 1.5000
vt 16.7875 0.0000
vt 18.2125 0.0000
vt 18.2125 1.5000
vt 16.7875 1.5000
vt 18.2125 0.0000
vt 16.7875 0.0000
vt 16.7875 1.5000
vt 18.2125 1.5000
vt 178.0375 16.7875
vt 178.0375 18.2125
vt 179.4625 18.2125
vt 179.4625 16.7875
vt 178.0375 16.7875
vt 179.4625 16.7875
vt 179.4625 18.2125
vt 178.0375 18.2125
vt 178.0375 0.0000
vt 179.4625 0.0000
vt 179.4625 1.5000
vt 178.0375 1.5000
vt 179.4625 0.0000
vt 178.0375 0.0000
vt 178.0375 1.5000
vt 179.4625 1.5000
vt 16.7875 0.0000
vt 18.2125 0.0000
vt 18.2125 1.5000
vt 16.7875 1.5000
vt 18.2125 0.0000
vt 16.7875 0.0000
vt 16.7875 1.5000
vt 18.2125 1.5000
usemtl rust
f 145 148 147 146
f 149 150 151 152
f 145 146 150 149
f 147 148 152 151
f 146 147 151 150
f 148 145 149 152
f 225 228 227 226
f 229 230 231 232
f 225 226 230 229
f 227 228 232 231
f 226 227 231 230
f 228 225 229 232
f 329 332 331 330
f 333 334 335 336
f 329 330 334 333
f 331 332 336 335
f 330 331 335 334
f 332 329 333 336
f 529 532 531 530
f 533 534 535 536
f 529 530 534 533
f 531 532 536 535
f 530 531 535 534
f 532 529 533 536
f 681 684 683 682
f 685 686 687 688
f 681 682 686 685
f 683 684 688 687
f 682 683 687 686
f 684 681 685 688
f 737 740 739 738
f 741 742 743 744
f 737 738 742 741
f 739 740 744 743
f 738 739 743 742
f 740 737 741 744
f 937 940 939 938
f 941 942 943 944
f 937 938 942 941
f 939 940 944 943
f 938 939 943 942
f 940 937 941 944
usemtl lamp_sick
f 1065 1068 1067 1066
f 1069 1070 1071 1072
f 1065 1066 1070 1069
f 1067 1068 1072 1071
f 1066 1067 1071 1070
f 1068 1065 1069 1072
f 1073 1076 1075 1074
f 1077 1078 1079 1080
f 1073 1074 1078 1077
f 1075 1076 1080 1079
f 1074 1075 1079 1078
f 1076 1073 1077 1080
f 1081 1084 1083 1082
f 1085 1086 1087 1088
f 1081 1082 1086 1085
f 1083 1084 1088 1087
f 1082 1083 1087 1086
f 1084 1081 1085 1088
f 1089 1092 1091 1090
f 1093 1094 1095 1096
f 1089 1090 1094 1093
f 1091 1092 1096 1095
f 1090 1091 1095 1094
f 1092 1089 1093 1096
f 1097 1100 1099 1098
f 1101 1102 1103 1104
f 1097 1098 1102 1101
f 1099 1100 1104 1103
f 1098 1099 1103 1102
f 1100 1097 1101 1104
f 1105 1108 1107 1106
f 1109 1110 1111 1112
f 1105 1106 1110 1109
f 1107 1108 1112 1111
f 1106 1107 1111 1110
f 1108 1105 1109 1112
f 1113 1116 1115 1114
f 1117 1118 1119 1120
f 1113 1114 1118 1117
f 1115 1116 1120 1119
f 1114 1115 1119 1118
f 1116 1113 1117 1120
f 1121 1124 1123 1122
f 1125 1126 1127 1128
f 1121 1122 1126 1125
f 1123 1124 1128 1127
f 1122 1123 1127 1126
f 1124 1121 1125 1128
f 1129 1132 1131 1130
f 1133 1134 1135 1136
f 1129 1130 1134 1133
f 1131 1132 1136 1135
f 1130 1131 1135 1134
f 1132 1129 1133 1136
f 1137 1140 1139 1138
f 1141 1142 1143 1144
f 1137 1138 1142 1141
f 1139 1140 1144 1143
f 1138 1139 1143 1142
f 1140 1137 1141 1144
usemtl pipe
f 1145 1147 1148 1146
f 1147 1149 1150 1148
f 1149 1151 1152 1150
f 1151 1153 1154 1152
f 1153 1155 1156 1154
f 1155 1157 1158 1156
f 1157 1159 1160 1158
f 1159 1145 1146 1160
f 1161 1146 1148
f 1162 1147 1145
f 1161 1148 1150
f 1162 1149 1147
f 1161 1150 1152
f 1162 1151 1149
f 1161 1152 1154
f 1162 1153 1151
f 1161 1154 1156
f 1162 1155 1153
f 1161 1156 1158
f 1162 1157 1155
f 1161 1158 1160
f 1162 1159 1157
f 1161 1160 1146
f 1162 1145 1159
f 1163 1166 1165 1164
f 1167 1168 1169 1170
f 1163 1164 1168 1167
f 1165 1166 1170 1169
f 1164 1165 1169 1168
f 1166 1163 1167 1170
f 1171 1173 1174 1172
f 1173 1175 1176 1174
f 1175 1177 1178 1176
f 1177 1179 1180 1178
f 1179 1181 1182 1180
f 1181 1183 1184 1182
f 1183 1185 1186 1184
f 1185 1171 1172 1186
f 1187 1172 1174
f 1188 1173 1171
f 1187 1174 1176
f 1188 1175 1173
f 1187 1176 1178
f 1188 1177 1175
f 1187 1178 1180
f 1188 1179 1177
f 1187 1180 1182
f 1188 1181 1179
f 1187 1182 1184
f 1188 1183 1181
f 1187 1184 1186
f 1188 1185 1183
f 1187 1186 1172
f 1188 1171 1185
f 1189 1192 1191 1190
f 1193 1194 1195 1196
f 1189 1190 1194 1193
f 1191 1192 1196 1195
f 1190 1191 1195 1194
f 1192 1189 1193 1196
usemtl rust
f 1197 1199 1200 1198
f 1199 1201 1202 1200
f 1201 1203 1204 1202
f 1203 1205 1206 1204
f 1205 1207 1208 1206
f 1207 1209 1210 1208
f 1209 1211 1212 1210
f 1211 1197 1198 1212
f 1213 1198 1200
f 1214 1199 1197
f 1213 1200 1202
f 1214 1201 1199
f 1213 1202 1204
f 1214 1203 1201
f 1213 1204 1206
f 1214 1205 1203
f 1213 1206 1208
f 1214 1207 1205
f 1213 1208 1210
f 1214 1209 1207
f 1213 1210 1212
f 1214 1211 1209
f 1213 1212 1198
f 1214 1197 1211
f 1215 1218 1217 1216
f 1219 1220 1221 1222
f 1215 1216 1220 1219
f 1217 1218 1222 1221
f 1216 1217 1221 1220
f 1218 1215 1219 1222
usemtl grime_wall
f 1/1 2/2 3/3 4/4
f 5/5 6/6 7/7 8/8
f 9/9 10/10 11/11 12/12
f 13/13 14/14 15/15 16/16
f 17/17 18/18 19/19 20/20
f 21/21 22/22 23/23 24/24
f 25/25 26/26 27/27 28/28
f 29/29 30/30 31/31 32/32
f 33/33 34/34 35/35 36/36
f 37/37 38/38 39/39 40/40
f 41/41 42/42 43/43 44/44
f 45/45 46/46 47/47 48/48
f 49/49 50/50 51/51 52/52
f 53/53 54/54 55/55 56/56
f 57/57 58/58 59/59 60/60
f 61/61 62/62 63/63 64/64
f 65/65 66/66 67/67 68/68
f 69/69 70/70 71/71 72/72
f 73/73 74/74 75/75 76/76
f 77/77 78/78 79/79 80/80
f 81/81 82/82 83/83 84/84
f 85/85 86/86 87/87 88/88
f 89/89 90/90 91/91 92/92
f 93/93 94/94 95/95 96/96
f 97/97 98/98 99/99 100/100
f 101/101 102/102 103/103 104/104
f 105/105 106/106 107/107 108/108
f 109/109 110/110 111/111 112/112
f 113/113 114/114 115/115 116/116
f 117/117 118/118 119/119 120/120
f 121/121 122/122 123/123 124/124
f 125/125 126/126 127/127 128/128
f 129/129 130/130 131/131 132/132
f 133/133 134/134 135/135 136/136
f 137/137 138/138 139/139 140/140
f 141/141 142/142 143/143 144/144
f 153/145 154/146 155/147 156/148
f 157/149 158/150 159/151 160/152
f 161/153 162/154 163/155 164/156
f 165/157 166/158 167/159 168/160
f 169/161 170/162 171/163 172/164
f 173/165 174/166 175/167 176/168
f 177/169 178/170 179/171 180/172
f 181/173 182/174 183/175 184/176
f 185/177 186/178 187/179 188/180
f 189/181 190/182 191/183 192/184
f 193/185 194/186 195/187 196/188
f 197/189 198/190 199/191 200/192
f 201/193 202/194 203/195 204/196
f 205/197 206/198 207/199 208/200
f 209/201 210/202 211/203 212/204
f 213/205 214/206 215/207 216/208
f 217/209 218/210 219/211 220/212
f 221/213 222/214 223/215 224/216
f 233/217 234/218 235/219 236/220
f 237/221 238/222 239/223 240/224
f 241/225 242/226 243/227 244/228
f 245/229 246/230 247/231 248/232
f 249/233 250/234 251/235 252/236
f 253/237 254/238 255/239 256/240
f 257/241 258/242 259/243 260/244
f 261/245 262/246 263/247 264/248
f 265/249 266/250 267/251 268/252
f 269/253 270/254 271/255 272/256
f 273/257 274/258 275/259 276/260
f 277/261 278/262 279/263 280/264
f 281/265 282/266 283/267 284/268
f 285/269 286/270 287/271 288/272
f 289/273 290/274 291/275 292/276
f 293/277 294/278 295/279 296/280
f 297/281 298/282 299/283 300/284
f 301/285 302/286 303/287 304/288
f 305/289 306/290 307/291 308/292
f 309/293 310/294 311/295 312/296
f 313/297 314/298 315/299 316/300
f 317/301 318/302 319/303 320/304
f 321/305 322/306 323/307 324/308
f 325/309 326/310 327/311 328/312
f 337/313 338/314 339/315 340/316
f 341/317 342/318 343/319 344/320
f 345/321 346/322 347/323 348/324
f 349/325 350/326 351/327 352/328
f 353/329 354/330 355/331 356/332
f 357/333 358/334 359/335 360/336
f 361/337 362/338 363/339 364/340
f 365/341 366/342 367/343 368/344
f 369/345 370/346 371/347 372/348
f 373/349 374/350 375/351 376/352
f 377/353 378/354 379/355 380/356
f 381/357 382/358 383/359 384/360
f 385/361 386/362 387/363 388/364
f 389/365 390/366 391/367 392/368
f 393/369 394/370 395/371 396/372
f 397/373 398/374 399/375 400/376
f 401/377 402/378 403/379 404/380
f 405/381 406/382 407/383 408/384
f 409/385 410/386 411/387 412/388
f 413/389 414/390 415/391 416/392
f 417/393 418/394 419/395 420/396
f 421/397 422/398 423/399 424/400
f 425/401 426/402 427/403 428/404
f 429/405 430/406 431/407 432/408
f 433/409 434/410 435/411 436/412
f 437/413 438/414 439/415 440/416
f 441/417 442/418 443/419 444/420
f 445/421 446/422 447/423 448/424
f 449/425 450/426 451/427 452/428
f 453/429 454/430 455/431 456/432
f 457/433 458/434 459/435 460/436
f 461/437 462/438 463/439 464/440
f 465/441 466/442 467/443 468/444
f 469/445 470/446 471/447 472/448
f 473/449 474/450 475/451 476/452
f 477/453 478/454 479/455 480/456
f 481/457 482/458 483/459 484/460
f 485/461 486/462 487/463 488/464
f 489/465 490/466 491/467 492/468
f 493/469 494/470 495/471 496/472
f 497/473 498/474 499/475 500/476
f 501/477 502/478 503/479 504/480
f 505/481 506/482 507/483 508/484
f 509/485 510/486 511/487 512/488
f 513/489 514/490 515/491 516/492
f 517/493 518/494 519/495 520/496
f 521/497 522/498 523/499 524/500
f 525/501 526/502 527/503 528/504
f 537/505 538/506 539/507 540/508
f 541/509 542/510 543/511 544/512
f 545/513 546/514 547/515 548/516
f 549/517 550/518 551/519 552/520
f 553/521 554/522 555/523 556/524
f 557/525 558/526 559/527 560/528
f 561/529 562/530 563/531 564/532
f 565/533 566/534 567/535 568/536
f 569/537 570/538 571/539 572/540
f 573/541 574/542 575/543 576/544
f 577/545 578/546 579/547 580/548
f 581/549 582/550 583/551 584/552
f 585/553 586/554 587/555 588/556
f 589/557 590/558 591/559 592/560
f 593/561 594/562 595/563 596/564
f 597/565 598/566 599/567 600/568
f 601/569 602/570 603/571 604/572
f 605/573 606/574 607/575 608/576
f 609/577 610/578 611/579 612/580
f 613/581 614/582 615/583 616/584
f 617/585 618/586 619/587 620/588
f 621/589 622/590 623/591 624/592
f 625/593 626/594 627/595 628/596
f 629/597 630/598 631/599 632/600
f 633/601 634/602 635/603 636/604
f 637/605 638/606 639/607 640/608
f 641/609 642/610 643/611 644/612
f 645/613 646/614 647/615 648/616
f 649/617 650/618 651/619 652/620
f 653/621 654/622 655/623 656/624
f 657/625 658/626 659/627 660/628
f 661/629 662/630 663/631 664/632
f 665/633 666/634 667/635 668/636
f 669/637 670/638 671/639 672/640
f 673/641 674/642 675/643 676/644
f 677/645 678/646 679/647 680/648
f 689/649 690/650 691/651 692/652
f 693/653 694/654 695/655 696/656
f 697/657 698/658 699/659 700/660
f 701/661 702/662 703/663 704/664
f 705/665 706/666 707/667 708/668
f 709/669 710/670 711/671 712/672
f 713/673 714/674 715/675 716/676
f 717/677 718/678 719/679 720/680
f 721/681 722/682 723/683 724/684
f 725/685 726/686 727/687 728/688
f 729/689 730/690 731/691 732/692
f 733/693 734/694 735/695 736/696
f 745/697 746/698 747/699 748/700
f 749/701 750/702 751/703 752/704
f 753/705 754/706 755/707 756/708
f 757/709 758/710 759/711 760/712
f 761/713 762/714 763/715 764/716
f 765/717 766/718 767/719 768/720
f 769/721 770/722 771/723 772/724
f 773/725 774/726 775/727 776/728
f 777/729 778/730 779/731 780/732
f 781/733 782/734 783/735 784/736
f 785/737 786/738 787/739 788/740
f 789/741 790/742 791/743 792/744
f 793/745 794/746 795/747 796/748
f 797/749 798/750 799/751 800/752
f 801/753 802/754 803/755 804/756
f 805/757 806/758 807/759 808/760
f 809/761 810/762 811/763 812/764
f 813/765 814/766 815/767 816/768
f 817/769 818/770 819/771 820/772
f 821/773 822/774 823/775 824/776
f 825/777 826/778 827/779 828/780
f 829/781 830/782 831/783 832/784
f 833/785 834/786 835/787 836/788
f 837/789 838/790 839/791 840/792
f 841/793 842/794 843/795 844/796
f 845/797 846/798 847/799 848/800
f 849/801 850/802 851/803 852/804
f 853/805 854/806 855/807 856/808
f 857/809 858/810 859/811 860/812
f 861/813 862/814 863/815 864/816
f 865/817 866/818 867/819 868/820
f 869/821 870/822 871/823 872/824
f 873/825 874/826 875/827 876/828
f 877/829 878/830 879/831 880/832
f 881/833 882/834 883/835 884/836
f 885/837 886/838 887/839 888/840
f 889/841 890/842 891/843 892/844
f 893/845 894/846 895/847 896/848
f 897/849 898/850 899/851 900/852
f 901/853 902/854 903/855 904/856
f 905/857 906/858 907/859 908/860
f 909/861 910/862 911/863 912/864
f 913/865 914/866 915/867 916/868
f 917/869 918/870 919/871 920/872
f 921/873 922/874 923/875 924/876
f 925/877 926/878 927/879 928/880
f 929/881 930/882 931/883 932/884
f 933/885 934/886 935/887 936/888
f 945/889 946/890 947/891 948/892
f 949/893 950/894 951/895 952/896
f 953/897 954/898 955/899 956/900
f 957/901 958/902 959/903 960/904
f 961/905 962/906 963/907 964/908
f 965/909 966/910 967/911 968/912
f 969/913 970/914 971/915 972/916
f 973/917 974/918 975/919 976/920
f 977/921 978/922 979/923 980/924
f 981/925 982/926 983/927 984/928
f 985/929 986/930 987/931 988/932
f 989/933 990/934 991/935 992/936
f 993/937 994/938 995/939 996/940
f 997/941 998/942 999/943 1000/944
f 1001/945 1002/946 1003/947 1004/948
f 1005/949 1006/950 1007/951 1008/952
f 1009/953 1010/954 1011/955 1012/956
f 1013/957 1014/958 1015/959 1016/960
f 1017/961 1018/962 1019/963 1020/964
f 1021/965 1022/966 1023/967 1024/968
f 1025/969 1026/970 1027/971 1028/972
f 1029/973 1030/974 1031/975 1032/976
f 1033/977 1034/978 1035/979 1036/980
f 1037/981 1038/982 1039/983 1040/984
f 1041/985 1042/986 1043/987 1044/988
f 1045/989 1046/990 1047/991 1048/992
f 1049/993 1050/994 1051/995 1052/996
f 1053/997 1054/998 1055/999 1056/1000
f 1057/1001 1058/1002 1059/1003 1060/1004
f 1061/1005 1062/1006 1063/1007 1064/1008
