# RoastEngine Backrooms level
mtllib backrooms.mtl
v 1220.9500 0.0000 -50.5500
v 1224.5500 0.0000 -50.5500
v 1224.5500 0.0000 -46.9500
v 1220.9500 0.0000 -46.9500
v 1220.9500 1.6000 -50.5500
v 1224.5500 1.6000 -50.5500
v 1224.5500 1.6000 -46.9500
v 1220.9500 1.6000 -46.9500
v 1233.9500 0.0000 -50.5500
v 1237.5500 0.0000 -50.5500
v 1237.5500 0.0000 -46.9500
v 1233.9500 0.0000 -46.9500
v 1233.9500 1.6000 -50.5500
v 1237.5500 1.6000 -50.5500
v 1237.5500 1.6000 -46.9500
v 1233.9500 1.6000 -46.9500
v 1246.9500 0.0000 -50.5500
v 1250.5500 0.0000 -50.5500
v 1250.5500 0.0000 -46.9500
v 1246.9500 0.0000 -46.9500
v 1246.9500 1.6000 -50.5500
v 1250.5500 1.6000 -50.5500
v 1250.5500 1.6000 -46.9500
v 1246.9500 1.6000 -46.9500
v 1250.2000 0.0000 -50.5500
v 1250.2000 0.0000 -46.9500
v 1253.8000 0.0000 -46.9500
v 1253.8000 0.0000 -50.5500
v 1250.2000 3.1000 -50.5500
v 1253.8000 3.1000 -50.5500
v 1253.8000 3.1000 -46.9500
v 1250.2000 3.1000 -46.9500
v 1250.2000 0.0000 -50.5500
v 1253.8000 0.0000 -50.5500
v 1253.8000 3.1000 -50.5500
v 1250.2000 3.1000 -50.5500
v 1253.8000 0.0000 -46.9500
v 1250.2000 0.0000 -46.9500
v 1250.2000 3.1000 -46.9500
v 1253.8000 3.1000 -46.9500
v 1253.8000 0.0000 -50.5500
v 1253.8000 0.0000 -46.9500
v 1253.8000 3.1000 -46.9500
v 1253.8000 3.1000 -50.5500
v 1250.2000 0.0000 -46.9500
v 1250.2000 0.0000 -50.5500
v 1250.2000 3.1000 -50.5500
v 1250.2000 3.1000 -46.9500
v 1220.9500 0.0000 -47.3000
v 1220.9500 0.0000 -43.7000
v 1224.5500 0.0000 -43.7000
v 1224.5500 0.0000 -47.3000
v 1220.9500 3.1000 -47.3000
v 1224.5500 3.1000 -47.3000
v 1224.5500 3.1000 -43.7000
v 1220.9500 3.1000 -43.7000
v 1220.9500 0.0000 -47.3000
v 1224.5500 0.0000 -47.3000
v 1224.5500 3.1000 -47.3000
v 1220.9500 3.1000 -47.3000
v 1224.5500 0.0000 -43.7000
v 1220.9500 0.0000 -43.7000
v 1220.9500 3.1000 -43.7000
v 1224.5500 3.1000 -43.7000
v 1224.5500 0.0000 -47.3000
v 1224.5500 0.0000 -43.7000
v 1224.5500 3.1000 -43.7000
v 1224.5500 3.1000 -47.3000
v 1220.9500 0.0000 -43.7000
v 1220.9500 0.0000 -47.3000
v 1220.9500 3.1000 -47.3000
v 1220.9500 3.1000 -43.7000
v 1233.9500 0.0000 -47.3000
v 1233.9500 0.0000 -43.7000
v 1237.5500 0.0000 -43.7000
v 1237.5500 0.0000 -47.3000
v 1233.9500 3.1000 -47.3000
v 1237.5500 3.1000 -47.3000
v 1237.5500 3.1000 -43.7000
v 1233.9500 3.1000 -43.7000
v 1233.9500 0.0000 -47.3000
v 1237.5500 0.0000 -47.3000
v 1237.5500 3.1000 -47.3000
v 1233.9500 3.1000 -47.3000
v 1237.5500 0.0000 -43.7000
v 1233.9500 0.0000 -43.7000
v 1233.9500 3.1000 -43.7000
v 1237.5500 3.1000 -43.7000
v 1237.5500 0.0000 -47.3000
v 1237.5500 0.0000 -43.7000
v 1237.5500 3.1000 -43.7000
v 1237.5500 3.1000 -47.3000
v 1233.9500 0.0000 -43.7000
v 1233.9500 0.0000 -47.3000
v 1233.9500 3.1000 -47.3000
v 1233.9500 3.1000 -43.7000
v 1220.9500 0.0000 -44.0500
v 1220.9500 0.0000 -40.4500
v 1224.5500 0.0000 -40.4500
v 1224.5500 0.0000 -44.0500
v 1220.9500 3.1000 -44.0500
v 1224.5500 3.1000 -44.0500
v 1224.5500 3.1000 -40.4500
v 1220.9500 3.1000 -40.4500
v 1220.9500 0.0000 -44.0500
v 1224.5500 0.0000 -44.0500
v 1224.5500 3.1000 -44.0500
v 1220.9500 3.1000 -44.0500
v 1224.5500 0.0000 -40.4500
v 1220.9500 0.0000 -40.4500
v 1220.9500 3.1000 -40.4500
v 1224.5500 3.1000 -40.4500
v 1224.5500 0.0000 -44.0500
v 1224.5500 0.0000 -40.4500
v 1224.5500 3.1000 -40.4500
v 1224.5500 3.1000 -44.0500
v 1220.9500 0.0000 -40.4500
v 1220.9500 0.0000 -44.0500
v 1220.9500 3.1000 -44.0500
v 1220.9500 3.1000 -40.4500
v 1224.2000 0.0000 -44.0500
v 1227.8000 0.0000 -44.0500
v 1227.8000 0.0000 -40.4500
v 1224.2000 0.0000 -40.4500
v 1224.2000 1.6000 -44.0500
v 1227.8000 1.6000 -44.0500
v 1227.8000 1.6000 -40.4500
v 1224.2000 1.6000 -40.4500
v 1227.4500 0.0000 -44.0500
v 1227.4500 0.0000 -40.4500
v 1231.0500 0.0000 -40.4500
v 1231.0500 0.0000 -44.0500
v 1227.4500 3.1000 -44.0500
v 1231.0500 3.1000 -44.0500
v 1231.0500 3.1000 -40.4500
v 1227.4500 3.1000 -40.4500
v 1227.4500 0.0000 -44.0500
v 1231.0500 0.0000 -44.0500
v 1231.0500 3.1000 -44.0500
v 1227.4500 3.1000 -44.0500
v 1231.0500 0.0000 -40.4500
v 1227.4500 0.0000 -40.4500
v 1227.4500 3.1000 -40.4500
v 1231.0500 3.1000 -40.4500
v 1231.0500 0.0000 -44.0500
v 1231.0500 0.0000 -40.4500
v 1231.0500 3.1000 -40.4500
v 1231.0500 3.1000 -44.0500
v 1227.4500 0.0000 -40.4500
v 1227.4500 0.0000 -44.0500
v 1227.4500 3.1000 -44.0500
v 1227.4500 3.1000 -40.4500
v 1230.7000 0.0000 -44.0500
v 1234.3000 0.0000 -44.0500
v 1234.3000 0.0000 -40.4500
v 1230.7000 0.0000 -40.4500
v 1230.7000 1.6000 -44.0500
v 1234.3000 1.6000 -44.0500
v 1234.3000 1.6000 -40.4500
v 1230.7000 1.6000 -40.4500
v 1233.9500 0.0000 -44.0500
v 1237.5500 0.0000 -44.0500
v 1237.5500 0.0000 -40.4500
v 1233.9500 0.0000 -40.4500
v 1233.9500 1.6000 -44.0500
v 1237.5500 1.6000 -44.0500
v 1237.5500 1.6000 -40.4500
v 1233.9500 1.6000 -40.4500
v 1240.4500 0.0000 -44.0500
v 1240.4500 0.0000 -40.4500
v 1244.0500 0.0000 -40.4500
v 1244.0500 0.0000 -44.0500
v 1240.4500 3.1000 -44.0500
v 1244.0500 3.1000 -44.0500
v 1244.0500 3.1000 -40.4500
v 1240.4500 3.1000 -40.4500
v 1240.4500 0.0000 -44.0500
v 1244.0500 0.0000 -44.0500
v 1244.0500 3.1000 -44.0500
v 1240.4500 3.1000 -44.0500
v 1244.0500 0.0000 -40.4500
v 1240.4500 0.0000 -40.4500
v 1240.4500 3.1000 -40.4500
v 1244.0500 3.1000 -40.4500
v 1244.0500 0.0000 -44.0500
v 1244.0500 0.0000 -40.4500
v 1244.0500 3.1000 -40.4500
v 1244.0500 3.1000 -44.0500
v 1240.4500 0.0000 -40.4500
v 1240.4500 0.0000 -44.0500
v 1240.4500 3.1000 -44.0500
v 1240.4500 3.1000 -40.4500
v 1240.4500 0.0000 -40.8000
v 1240.4500 0.0000 -37.2000
v 1244.0500 0.0000 -37.2000
v 1244.0500 0.0000 -40.8000
v 1240.4500 3.1000 -40.8000
v 1244.0500 3.1000 -40.8000
v 1244.0500 3.1000 -37.2000
v 1240.4500 3.1000 -37.2000
v 1240.4500 0.0000 -40.8000
v 1244.0500 0.0000 -40.8000
v 1244.0500 3.1000 -40.8000
v 1240.4500 3.1000 -40.8000
v 1244.0500 0.0000 -37.2000
v 1240.4500 0.0000 -37.2000
v 1240.4500 3.1000 -37.2000
v 1244.0500 3.1000 -37.2000
v 1244.0500 0.0000 -40.8000
v 1244.0500 0.0000 -37.2000
v 1244.0500 3.1000 -37.2000
v 1244.0500 3.1000 -40.8000
v 1240.4500 0.0000 -37.2000
v 1240.4500 0.0000 -40.8000
v 1240.4500 3.1000 -40.8000
v 1240.4500 3.1000 -37.2000
v 1233.9500 0.0000 -37.5500
v 1233.9500 0.0000 -33.9500
v 1237.5500 0.0000 -33.9500
v 1237.5500 0.0000 -37.5500
v 1233.9500 3.1000 -37.5500
v 1237.5500 3.1000 -37.5500
v 1237.5500 3.1000 -33.9500
v 1233.9500 3.1000 -33.9500
v 1233.9500 0.0000 -37.5500
v 1237.5500 0.0000 -37.5500
v 1237.5500 3.1000 -37.5500
v 1233.9500 3.1000 -37.5500
v 1237.5500 0.0000 -33.9500
v 1233.9500 0.0000 -33.9500
v 1233.9500 3.1000 -33.9500
v 1237.5500 3.1000 -33.9500
v 1237.5500 0.0000 -37.5500
v 1237.5500 0.0000 -33.9500
v 1237.5500 3.1000 -33.9500
v 1237.5500 3.1000 -37.5500
v 1233.9500 0.0000 -33.9500
v 1233.9500 0.0000 -37.5500
v 1233.9500 3.1000 -37.5500
v 1233.9500 3.1000 -33.9500
v 1240.4500 0.0000 -37.5500
v 1240.4500 0.0000 -33.9500
v 1244.0500 0.0000 -33.9500
v 1244.0500 0.0000 -37.5500
v 1240.4500 3.1000 -37.5500
v 1244.0500 3.1000 -37.5500
v 1244.0500 3.1000 -33.9500
v 1240.4500 3.1000 -33.9500
v 1240.4500 0.0000 -37.5500
v 1244.0500 0.0000 -37.5500
v 1244.0500 3.1000 -37.5500
v 1240.4500 3.1000 -37.5500
v 1244.0500 0.0000 -33.9500
v 1240.4500 0.0000 -33.9500
v 1240.4500 3.1000 -33.9500
v 1244.0500 3.1000 -33.9500
v 1244.0500 0.0000 -37.5500
v 1244.0500 0.0000 -33.9500
v 1244.0500 3.1000 -33.9500
v 1244.0500 3.1000 -37.5500
v 1240.4500 0.0000 -33.9500
v 1240.4500 0.0000 -37.5500
v 1240.4500 3.1000 -37.5500
v 1240.4500 3.1000 -33.9500
v 1233.9500 0.0000 -34.3000
v 1237.5500 0.0000 -34.3000
v 1237.5500 0.0000 -30.7000
v 1233.9500 0.0000 -30.7000
v 1233.9500 1.6000 -34.3000
v 1237.5500 1.6000 -34.3000
v 1237.5500 1.6000 -30.7000
v 1233.9500 1.6000 -30.7000
v 1227.4500 0.0000 -31.0500
v 1231.0500 0.0000 -31.0500
v 1231.0500 0.0000 -27.4500
v 1227.4500 0.0000 -27.4500
v 1227.4500 1.6000 -31.0500
v 1231.0500 1.6000 -31.0500
v 1231.0500 1.6000 -27.4500
v 1227.4500 1.6000 -27.4500
v 1233.9500 0.0000 -31.0500
v 1233.9500 0.0000 -27.4500
v 1237.5500 0.0000 -27.4500
v 1237.5500 0.0000 -31.0500
v 1233.9500 3.1000 -31.0500
v 1237.5500 3.1000 -31.0500
v 1237.5500 3.1000 -27.4500
v 1233.9500 3.1000 -27.4500
v 1233.9500 0.0000 -31.0500
v 1237.5500 0.0000 -31.0500
v 1237.5500 3.1000 -31.0500
v 1233.9500 3.1000 -31.0500
v 1237.5500 0.0000 -27.4500
v 1233.9500 0.0000 -27.4500
v 1233.9500 3.1000 -27.4500
v 1237.5500 3.1000 -27.4500
v 1237.5500 0.0000 -31.0500
v 1237.5500 0.0000 -27.4500
v 1237.5500 3.1000 -27.4500
v 1237.5500 3.1000 -31.0500
v 1233.9500 0.0000 -27.4500
v 1233.9500 0.0000 -31.0500
v 1233.9500 3.1000 -31.0500
v 1233.9500 3.1000 -27.4500
v 1240.4500 0.0000 -31.0500
v 1240.4500 0.0000 -27.4500
v 1244.0500 0.0000 -27.4500
v 1244.0500 0.0000 -31.0500
v 1240.4500 3.1000 -31.0500
v 1244.0500 3.1000 -31.0500
v 1244.0500 3.1000 -27.4500
v 1240.4500 3.1000 -27.4500
v 1240.4500 0.0000 -31.0500
v 1244.0500 0.0000 -31.0500
v 1244.0500 3.1000 -31.0500
v 1240.4500 3.1000 -31.0500
v 1244.0500 0.0000 -27.4500
v 1240.4500 0.0000 -27.4500
v 1240.4500 3.1000 -27.4500
v 1244.0500 3.1000 -27.4500
v 1244.0500 0.0000 -31.0500
v 1244.0500 0.0000 -27.4500
v 1244.0500 3.1000 -27.4500
v 1244.0500 3.1000 -31.0500
v 1240.4500 0.0000 -27.4500
v 1240.4500 0.0000 -31.0500
v 1240.4500 3.1000 -31.0500
v 1240.4500 3.1000 -27.4500
v 1243.7000 0.0000 -31.0500
v 1243.7000 0.0000 -27.4500
v 1247.3000 0.0000 -27.4500
v 1247.3000 0.0000 -31.0500
v 1243.7000 3.1000 -31.0500
v 1247.3000 3.1000 -31.0500
v 1247.3000 3.1000 -27.4500
v 1243.7000 3.1000 -27.4500
v 1243.7000 0.0000 -31.0500
v 1247.3000 0.0000 -31.0500
v 1247.3000 3.1000 -31.0500
v 1243.7000 3.1000 -31.0500
v 1247.3000 0.0000 -27.4500
v 1243.7000 0.0000 -27.4500
v 1243.7000 3.1000 -27.4500
v 1247.3000 3.1000 -27.4500
v 1247.3000 0.0000 -31.0500
v 1247.3000 0.0000 -27.4500
v 1247.3000 3.1000 -27.4500
v 1247.3000 3.1000 -31.0500
v 1243.7000 0.0000 -27.4500
v 1243.7000 0.0000 -31.0500
v 1243.7000 3.1000 -31.0500
v 1243.7000 3.1000 -27.4500
v 1246.9500 0.0000 -31.0500
v 1250.5500 0.0000 -31.0500
v 1250.5500 0.0000 -27.4500
v 1246.9500 0.0000 -27.4500
v 1246.9500 1.6000 -31.0500
v 1250.5500 1.6000 -31.0500
v 1250.5500 1.6000 -27.4500
v 1246.9500 1.6000 -27.4500
v 1227.4500 0.0000 -27.8000
v 1231.0500 0.0000 -27.8000
v 1231.0500 0.0000 -24.2000
v 1227.4500 0.0000 -24.2000
v 1227.4500 1.6000 -27.8000
v 1231.0500 1.6000 -27.8000
v 1231.0500 1.6000 -24.2000
v 1227.4500 1.6000 -24.2000
v 1227.4500 0.0000 -24.5500
v 1227.4500 0.0000 -20.9500
v 1231.0500 0.0000 -20.9500
v 1231.0500 0.0000 -24.5500
v 1227.4500 3.1000 -24.5500
v 1231.0500 3.1000 -24.5500
v 1231.0500 3.1000 -20.9500
v 1227.4500 3.1000 -20.9500
v 1227.4500 0.0000 -24.5500
v 1231.0500 0.0000 -24.5500
v 1231.0500 3.1000 -24.5500
v 1227.4500 3.1000 -24.5500
v 1231.0500 0.0000 -20.9500
v 1227.4500 0.0000 -20.9500
v 1227.4500 3.1000 -20.9500
v 1231.0500 3.1000 -20.9500
v 1231.0500 0.0000 -24.5500
v 1231.0500 0.0000 -20.9500
v 1231.0500 3.1000 -20.9500
v 1231.0500 3.1000 -24.5500
v 1227.4500 0.0000 -20.9500
v 1227.4500 0.0000 -24.5500
v 1227.4500 3.1000 -24.5500
v 1227.4500 3.1000 -20.9500
v 1246.9500 0.0000 -24.5500
v 1250.5500 0.0000 -24.5500
v 1250.5500 0.0000 -20.9500
v 1246.9500 0.0000 -20.9500
v 1246.9500 1.6000 -24.5500
v 1250.5500 1.6000 -24.5500
v 1250.5500 1.6000 -20.9500
v 1246.9500 1.6000 -20.9500
v 1250.2000 0.0000 -24.5500
v 1250.2000 0.0000 -20.9500
v 1253.8000 0.0000 -20.9500
v 1253.8000 0.0000 -24.5500
v 1250.2000 3.1000 -24.5500
v 1253.8000 3.1000 -24.5500
v 1253.8000 3.1000 -20.9500
v 1250.2000 3.1000 -20.9500
v 1250.2000 0.0000 -24.5500
v 1253.8000 0.0000 -24.5500
v 1253.8000 3.1000 -24.5500
v 1250.2000 3.1000 -24.5500
v 1253.8000 0.0000 -20.9500
v 1250.2000 0.0000 -20.9500
v 1250.2000 3.1000 -20.9500
v 1253.8000 3.1000 -20.9500
v 1253.8000 0.0000 -24.5500
v 1253.8000 0.0000 -20.9500
v 1253.8000 3.1000 -20.9500
v 1253.8000 3.1000 -24.5500
v 1250.2000 0.0000 -20.9500
v 1250.2000 0.0000 -24.5500
v 1250.2000 3.1000 -24.5500
v 1250.2000 3.1000 -20.9500
v 1225.2000 2.9300 -52.1750
v 1226.8000 2.9300 -52.1750
v 1226.8000 2.9300 -51.8250
v 1225.2000 2.9300 -51.8250
v 1225.2000 3.0300 -52.1750
v 1226.8000 3.0300 -52.1750
v 1226.8000 3.0300 -51.8250
v 1225.2000 3.0300 -51.8250
v 1225.0500 3.0100 -52.3000
v 1225.0500 3.0100 -51.7000
v 1226.9500 3.0100 -51.7000
v 1226.9500 3.0100 -52.3000
v 1225.0500 3.0900 -52.3000
v 1226.9500 3.0900 -52.3000
v 1226.9500 3.0900 -51.7000
v 1225.0500 3.0900 -51.7000
v 1225.0500 3.0100 -52.3000
v 1226.9500 3.0100 -52.3000
v 1226.9500 3.0900 -52.3000
v 1225.0500 3.0900 -52.3000
v 1226.9500 3.0100 -51.7000
v 1225.0500 3.0100 -51.7000
v 1225.0500 3.0900 -51.7000
v 1226.9500 3.0900 -51.7000
v 1226.9500 3.0100 -52.3000
v 1226.9500 3.0100 -51.7000
v 1226.9500 3.0900 -51.7000
v 1226.9500 3.0900 -52.3000
v 1225.0500 3.0100 -51.7000
v 1225.0500 3.0100 -52.3000
v 1225.0500 3.0900 -52.3000
v 1225.0500 3.0900 -51.7000
v 1251.2000 2.9300 -52.1750
v 1252.8000 2.9300 -52.1750
v 1252.8000 2.9300 -51.8250
v 1251.2000 2.9300 -51.8250
v 1251.2000 3.0300 -52.1750
v 1252.8000 3.0300 -52.1750
v 1252.8000 3.0300 -51.8250
v 1251.2000 3.0300 -51.8250
v 1251.0500 3.0100 -52.3000
v 1251.0500 3.0100 -51.7000
v 1252.9500 3.0100 -51.7000
v 1252.9500 3.0100 -52.3000
v 1251.0500 3.0900 -52.3000
v 1252.9500 3.0900 -52.3000
v 1252.9500 3.0900 -51.7000
v 1251.0500 3.0900 -51.7000
v 1251.0500 3.0100 -52.3000
v 1252.9500 3.0100 -52.3000
v 1252.9500 3.0900 -52.3000
v 1251.0500 3.0900 -52.3000
v 1252.9500 3.0100 -51.7000
v 1251.0500 3.0100 -51.7000
v 1251.0500 3.0900 -51.7000
v 1252.9500 3.0900 -51.7000
v 1252.9500 3.0100 -52.3000
v 1252.9500 3.0100 -51.7000
v 1252.9500 3.0900 -51.7000
v 1252.9500 3.0900 -52.3000
v 1251.0500 3.0100 -51.7000
v 1251.0500 3.0100 -52.3000
v 1251.0500 3.0900 -52.3000
v 1251.0500 3.0900 -51.7000
v 1231.7000 2.9300 -45.6750
v 1233.3000 2.9300 -45.6750
v 1233.3000 2.9300 -45.3250
v 1231.7000 2.9300 -45.3250
v 1231.7000 3.0300 -45.6750
v 1233.3000 3.0300 -45.6750
v 1233.3000 3.0300 -45.3250
v 1231.7000 3.0300 -45.3250
v 1231.5500 3.0100 -45.8000
v 1231.5500 3.0100 -45.2000
v 1233.4500 3.0100 -45.2000
v 1233.4500 3.0100 -45.8000
v 1231.5500 3.0900 -45.8000
v 1233.4500 3.0900 -45.8000
v 1233.4500 3.0900 -45.2000
v 1231.5500 3.0900 -45.2000
v 1231.5500 3.0100 -45.8000
v 1233.4500 3.0100 -45.8000
v 1233.4500 3.0900 -45.8000
v 1231.5500 3.0900 -45.8000
v 1233.4500 3.0100 -45.2000
v 1231.5500 3.0100 -45.2000
v 1231.5500 3.0900 -45.2000
v 1233.4500 3.0900 -45.2000
v 1233.4500 3.0100 -45.8000
v 1233.4500 3.0100 -45.2000
v 1233.4500 3.0900 -45.2000
v 1233.4500 3.0900 -45.8000
v 1231.5500 3.0100 -45.2000
v 1231.5500 3.0100 -45.8000
v 1231.5500 3.0900 -45.8000
v 1231.5500 3.0900 -45.2000
v 1238.2000 2.9300 -45.6750
v 1239.8000 2.9300 -45.6750
v 1239.8000 2.9300 -45.3250
v 1238.2000 2.9300 -45.3250
v 1238.2000 3.0300 -45.6750
v 1239.8000 3.0300 -45.6750
v 1239.8000 3.0300 -45.3250
v 1238.2000 3.0300 -45.3250
v 1238.0500 3.0100 -45.8000
v 1238.0500 3.0100 -45.2000
v 1239.9500 3.0100 -45.2000
v 1239.9500 3.0100 -45.8000
v 1238.0500 3.0900 -45.8000
v 1239.9500 3.0900 -45.8000
v 1239.9500 3.0900 -45.2000
v 1238.0500 3.0900 -45.2000
v 1238.0500 3.0100 -45.8000
v 1239.9500 3.0100 -45.8000
v 1239.9500 3.0900 -45.8000
v 1238.0500 3.0900 -45.8000
v 1239.9500 3.0100 -45.2000
v 1238.0500 3.0100 -45.2000
v 1238.0500 3.0900 -45.2000
v 1239.9500 3.0900 -45.2000
v 1239.9500 3.0100 -45.8000
v 1239.9500 3.0100 -45.2000
v 1239.9500 3.0900 -45.2000
v 1239.9500 3.0900 -45.8000
v 1238.0500 3.0100 -45.2000
v 1238.0500 3.0100 -45.8000
v 1238.0500 3.0900 -45.8000
v 1238.0500 3.0900 -45.2000
v 1244.7000 2.9300 -45.6750
v 1246.3000 2.9300 -45.6750
v 1246.3000 2.9300 -45.3250
v 1244.7000 2.9300 -45.3250
v 1244.7000 3.0300 -45.6750
v 1246.3000 3.0300 -45.6750
v 1246.3000 3.0300 -45.3250
v 1244.7000 3.0300 -45.3250
v 1244.5500 3.0100 -45.8000
v 1244.5500 3.0100 -45.2000
v 1246.4500 3.0100 -45.2000
v 1246.4500 3.0100 -45.8000
v 1244.5500 3.0900 -45.8000
v 1246.4500 3.0900 -45.8000
v 1246.4500 3.0900 -45.2000
v 1244.5500 3.0900 -45.2000
v 1244.5500 3.0100 -45.8000
v 1246.4500 3.0100 -45.8000
v 1246.4500 3.0900 -45.8000
v 1244.5500 3.0900 -45.8000
v 1246.4500 3.0100 -45.2000
v 1244.5500 3.0100 -45.2000
v 1244.5500 3.0900 -45.2000
v 1246.4500 3.0900 -45.2000
v 1246.4500 3.0100 -45.8000
v 1246.4500 3.0100 -45.2000
v 1246.4500 3.0900 -45.2000
v 1246.4500 3.0900 -45.8000
v 1244.5500 3.0100 -45.2000
v 1244.5500 3.0100 -45.8000
v 1244.5500 3.0900 -45.8000
v 1244.5500 3.0900 -45.2000
v 1251.2000 2.9300 -45.6750
v 1252.8000 2.9300 -45.6750
v 1252.8000 2.9300 -45.3250
v 1251.2000 2.9300 -45.3250
v 1251.2000 3.0300 -45.6750
v 1252.8000 3.0300 -45.6750
v 1252.8000 3.0300 -45.3250
v 1251.2000 3.0300 -45.3250
v 1251.0500 3.0100 -45.8000
v 1251.0500 3.0100 -45.2000
v 1252.9500 3.0100 -45.2000
v 1252.9500 3.0100 -45.8000
v 1251.0500 3.0900 -45.8000
v 1252.9500 3.0900 -45.8000
v 1252.9500 3.0900 -45.2000
v 1251.0500 3.0900 -45.2000
v 1251.0500 3.0100 -45.8000
v 1252.9500 3.0100 -45.8000
v 1252.9500 3.0900 -45.8000
v 1251.0500 3.0900 -45.8000
v 1252.9500 3.0100 -45.2000
v 1251.0500 3.0100 -45.2000
v 1251.0500 3.0900 -45.2000
v 1252.9500 3.0900 -45.2000
v 1252.9500 3.0100 -45.8000
v 1252.9500 3.0100 -45.2000
v 1252.9500 3.0900 -45.2000
v 1252.9500 3.0900 -45.8000
v 1251.0500 3.0100 -45.2000
v 1251.0500 3.0100 -45.8000
v 1251.0500 3.0900 -45.8000
v 1251.0500 3.0900 -45.2000
v 1244.7000 2.9300 -39.1750
v 1246.3000 2.9300 -39.1750
v 1246.3000 2.9300 -38.8250
v 1244.7000 2.9300 -38.8250
v 1244.7000 3.0300 -39.1750
v 1246.3000 3.0300 -39.1750
v 1246.3000 3.0300 -38.8250
v 1244.7000 3.0300 -38.8250
v 1244.5500 3.0100 -39.3000
v 1244.5500 3.0100 -38.7000
v 1246.4500 3.0100 -38.7000
v 1246.4500 3.0100 -39.3000
v 1244.5500 3.0900 -39.3000
v 1246.4500 3.0900 -39.3000
v 1246.4500 3.0900 -38.7000
v 1244.5500 3.0900 -38.7000
v 1244.5500 3.0100 -39.3000
v 1246.4500 3.0100 -39.3000
v 1246.4500 3.0900 -39.3000
v 1244.5500 3.0900 -39.3000
v 1246.4500 3.0100 -38.7000
v 1244.5500 3.0100 -38.7000
v 1244.5500 3.0900 -38.7000
v 1246.4500 3.0900 -38.7000
v 1246.4500 3.0100 -39.3000
v 1246.4500 3.0100 -38.7000
v 1246.4500 3.0900 -38.7000
v 1246.4500 3.0900 -39.3000
v 1244.5500 3.0100 -38.7000
v 1244.5500 3.0100 -39.3000
v 1244.5500 3.0900 -39.3000
v 1244.5500 3.0900 -38.7000
v 1251.2000 2.9300 -39.1750
v 1252.8000 2.9300 -39.1750
v 1252.8000 2.9300 -38.8250
v 1251.2000 2.9300 -38.8250
v 1251.2000 3.0300 -39.1750
v 1252.8000 3.0300 -39.1750
v 1252.8000 3.0300 -38.8250
v 1251.2000 3.0300 -38.8250
v 1251.0500 3.0100 -39.3000
v 1251.0500 3.0100 -38.7000
v 1252.9500 3.0100 -38.7000
v 1252.9500 3.0100 -39.3000
v 1251.0500 3.0900 -39.3000
v 1252.9500 3.0900 -39.3000
v 1252.9500 3.0900 -38.7000
v 1251.0500 3.0900 -38.7000
v 1251.0500 3.0100 -39.3000
v 1252.9500 3.0100 -39.3000
v 1252.9500 3.0900 -39.3000
v 1251.0500 3.0900 -39.3000
v 1252.9500 3.0100 -38.7000
v 1251.0500 3.0100 -38.7000
v 1251.0500 3.0900 -38.7000
v 1252.9500 3.0900 -38.7000
v 1252.9500 3.0100 -39.3000
v 1252.9500 3.0100 -38.7000
v 1252.9500 3.0900 -38.7000
v 1252.9500 3.0900 -39.3000
v 1251.0500 3.0100 -38.7000
v 1251.0500 3.0100 -39.3000
v 1251.0500 3.0900 -39.3000
v 1251.0500 3.0900 -38.7000
v 1225.2000 2.9300 -32.6750
v 1226.8000 2.9300 -32.6750
v 1226.8000 2.9300 -32.3250
v 1225.2000 2.9300 -32.3250
v 1225.2000 3.0300 -32.6750
v 1226.8000 3.0300 -32.6750
v 1226.8000 3.0300 -32.3250
v 1225.2000 3.0300 -32.3250
v 1225.0500 3.0100 -32.8000
v 1225.0500 3.0100 -32.2000
v 1226.9500 3.0100 -32.2000
v 1226.9500 3.0100 -32.8000
v 1225.0500 3.0900 -32.8000
v 1226.9500 3.0900 -32.8000
v 1226.9500 3.0900 -32.2000
v 1225.0500 3.0900 -32.2000
v 1225.0500 3.0100 -32.8000
v 1226.9500 3.0100 -32.8000
v 1226.9500 3.0900 -32.8000
v 1225.0500 3.0900 -32.8000
v 1226.9500 3.0100 -32.2000
v 1225.0500 3.0100 -32.2000
v 1225.0500 3.0900 -32.2000
v 1226.9500 3.0900 -32.2000
v 1226.9500 3.0100 -32.8000
v 1226.9500 3.0100 -32.2000
v 1226.9500 3.0900 -32.2000
v 1226.9500 3.0900 -32.8000
v 1225.0500 3.0100 -32.2000
v 1225.0500 3.0100 -32.8000
v 1225.0500 3.0900 -32.8000
v 1225.0500 3.0900 -32.2000
v 1244.7000 2.9300 -32.6750
v 1246.3000 2.9300 -32.6750
v 1246.3000 2.9300 -32.3250
v 1244.7000 2.9300 -32.3250
v 1244.7000 3.0300 -32.6750
v 1246.3000 3.0300 -32.6750
v 1246.3000 3.0300 -32.3250
v 1244.7000 3.0300 -32.3250
v 1244.5500 3.0100 -32.8000
v 1244.5500 3.0100 -32.2000
v 1246.4500 3.0100 -32.2000
v 1246.4500 3.0100 -32.8000
v 1244.5500 3.0900 -32.8000
v 1246.4500 3.0900 -32.8000
v 1246.4500 3.0900 -32.2000
v 1244.5500 3.0900 -32.2000
v 1244.5500 3.0100 -32.8000
v 1246.4500 3.0100 -32.8000
v 1246.4500 3.0900 -32.8000
v 1244.5500 3.0900 -32.8000
v 1246.4500 3.0100 -32.2000
v 1244.5500 3.0100 -32.2000
v 1244.5500 3.0900 -32.2000
v 1246.4500 3.0900 -32.2000
v 1246.4500 3.0100 -32.8000
v 1246.4500 3.0100 -32.2000
v 1246.4500 3.0900 -32.2000
v 1246.4500 3.0900 -32.8000
v 1244.5500 3.0100 -32.2000
v 1244.5500 3.0100 -32.8000
v 1244.5500 3.0900 -32.8000
v 1244.5500 3.0900 -32.2000
v 1251.2000 2.9300 -32.6750
v 1252.8000 2.9300 -32.6750
v 1252.8000 2.9300 -32.3250
v 1251.2000 2.9300 -32.3250
v 1251.2000 3.0300 -32.6750
v 1252.8000 3.0300 -32.6750
v 1252.8000 3.0300 -32.3250
v 1251.2000 3.0300 -32.3250
v 1251.0500 3.0100 -32.8000
v 1251.0500 3.0100 -32.2000
v 1252.9500 3.0100 -32.2000
v 1252.9500 3.0100 -32.8000
v 1251.0500 3.0900 -32.8000
v 1252.9500 3.0900 -32.8000
v 1252.9500 3.0900 -32.2000
v 1251.0500 3.0900 -32.2000
v 1251.0500 3.0100 -32.8000
v 1252.9500 3.0100 -32.8000
v 1252.9500 3.0900 -32.8000
v 1251.0500 3.0900 -32.8000
v 1252.9500 3.0100 -32.2000
v 1251.0500 3.0100 -32.2000
v 1251.0500 3.0900 -32.2000
v 1252.9500 3.0900 -32.2000
v 1252.9500 3.0100 -32.8000
v 1252.9500 3.0100 -32.2000
v 1252.9500 3.0900 -32.2000
v 1252.9500 3.0900 -32.8000
v 1251.0500 3.0100 -32.2000
v 1251.0500 3.0100 -32.8000
v 1251.0500 3.0900 -32.8000
v 1251.0500 3.0900 -32.2000
v 1244.7000 2.9300 -26.1750
v 1246.3000 2.9300 -26.1750
v 1246.3000 2.9300 -25.8250
v 1244.7000 2.9300 -25.8250
v 1244.7000 3.0300 -26.1750
v 1246.3000 3.0300 -26.1750
v 1246.3000 3.0300 -25.8250
v 1244.7000 3.0300 -25.8250
v 1244.5500 3.0100 -26.3000
v 1244.5500 3.0100 -25.7000
v 1246.4500 3.0100 -25.7000
v 1246.4500 3.0100 -26.3000
v 1244.5500 3.0900 -26.3000
v 1246.4500 3.0900 -26.3000
v 1246.4500 3.0900 -25.7000
v 1244.5500 3.0900 -25.7000
v 1244.5500 3.0100 -26.3000
v 1246.4500 3.0100 -26.3000
v 1246.4500 3.0900 -26.3000
v 1244.5500 3.0900 -26.3000
v 1246.4500 3.0100 -25.7000
v 1244.5500 3.0100 -25.7000
v 1244.5500 3.0900 -25.7000
v 1246.4500 3.0900 -25.7000
v 1246.4500 3.0100 -26.3000
v 1246.4500 3.0100 -25.7000
v 1246.4500 3.0900 -25.7000
v 1246.4500 3.0900 -26.3000
v 1244.5500 3.0100 -25.7000
v 1244.5500 3.0100 -26.3000
v 1244.5500 3.0900 -26.3000
v 1244.5500 3.0900 -25.7000
v 1251.2000 2.9300 -26.1750
v 1252.8000 2.9300 -26.1750
v 1252.8000 2.9300 -25.8250
v 1251.2000 2.9300 -25.8250
v 1251.2000 3.0300 -26.1750
v 1252.8000 3.0300 -26.1750
v 1252.8000 3.0300 -25.8250
v 1251.2000 3.0300 -25.8250
v 1251.0500 3.0100 -26.3000
v 1251.0500 3.0100 -25.7000
v 1252.9500 3.0100 -25.7000
v 1252.9500 3.0100 -26.3000
v 1251.0500 3.0900 -26.3000
v 1252.9500 3.0900 -26.3000
v 1252.9500 3.0900 -25.7000
v 1251.0500 3.0900 -25.7000
v 1251.0500 3.0100 -26.3000
v 1252.9500 3.0100 -26.3000
v 1252.9500 3.0900 -26.3000
v 1251.0500 3.0900 -26.3000
v 1252.9500 3.0100 -25.7000
v 1251.0500 3.0100 -25.7000
v 1251.0500 3.0900 -25.7000
v 1252.9500 3.0900 -25.7000
v 1252.9500 3.0100 -26.3000
v 1252.9500 3.0100 -25.7000
v 1252.9500 3.0900 -25.7000
v 1252.9500 3.0900 -26.3000
v 1251.0500 3.0100 -25.7000
v 1251.0500 3.0100 -26.3000
v 1251.0500 3.0900 -26.3000
v 1251.0500 3.0900 -25.7000
v 1225.2000 2.9300 -19.6750
v 1226.8000 2.9300 -19.6750
v 1226.8000 2.9300 -19.3250
v 1225.2000 2.9300 -19.3250
v 1225.2000 3.0300 -19.6750
v 1226.8000 3.0300 -19.6750
v 1226.8000 3.0300 -19.3250
v 1225.2000 3.0300 -19.3250
v 1225.0500 3.0100 -19.8000
v 1225.0500 3.0100 -19.2000
v 1226.9500 3.0100 -19.2000
v 1226.9500 3.0100 -19.8000
v 1225.0500 3.0900 -19.8000
v 1226.9500 3.0900 -19.8000
v 1226.9500 3.0900 -19.2000
v 1225.0500 3.0900 -19.2000
v 1225.0500 3.0100 -19.8000
v 1226.9500 3.0100 -19.8000
v 1226.9500 3.0900 -19.8000
v 1225.0500 3.0900 -19.8000
v 1226.9500 3.0100 -19.2000
v 1225.0500 3.0100 -19.2000
v 1225.0500 3.0900 -19.2000
v 1226.9500 3.0900 -19.2000
v 1226.9500 3.0100 -19.8000
v 1226.9500 3.0100 -19.2000
v 1226.9500 3.0900 -19.2000
v 1226.9500 3.0900 -19.8000
v 1225.0500 3.0100 -19.2000
v 1225.0500 3.0100 -19.8000
v 1225.0500 3.0900 -19.8000
v 1225.0500 3.0900 -19.2000
v 1244.7000 2.9300 -19.6750
v 1246.3000 2.9300 -19.6750
v 1246.3000 2.9300 -19.3250
v 1244.7000 2.9300 -19.3250
v 1244.7000 3.0300 -19.6750
v 1246.3000 3.0300 -19.6750
v 1246.3000 3.0300 -19.3250
v 1244.7000 3.0300 -19.3250
v 1244.5500 3.0100 -19.8000
v 1244.5500 3.0100 -19.2000
v 1246.4500 3.0100 -19.2000
v 1246.4500 3.0100 -19.8000
v 1244.5500 3.0900 -19.8000
v 1246.4500 3.0900 -19.8000
v 1246.4500 3.0900 -19.2000
v 1244.5500 3.0900 -19.2000
v 1244.5500 3.0100 -19.8000
v 1246.4500 3.0100 -19.8000
v 1246.4500 3.0900 -19.8000
v 1244.5500 3.0900 -19.8000
v 1246.4500 3.0100 -19.2000
v 1244.5500 3.0100 -19.2000
v 1244.5500 3.0900 -19.2000
v 1246.4500 3.0900 -19.2000
v 1246.4500 3.0100 -19.8000
v 1246.4500 3.0100 -19.2000
v 1246.4500 3.0900 -19.2000
v 1246.4500 3.0900 -19.8000
v 1244.5500 3.0100 -19.2000
v 1244.5500 3.0100 -19.8000
v 1244.5500 3.0900 -19.8000
v 1244.5500 3.0900 -19.2000
v 1225.2500 0.3300 -52.3750
v 1226.7500 0.3300 -52.3750
v 1226.7500 0.3300 -51.6250
v 1225.2500 0.3300 -51.6250
v 1225.2500 0.3900 -52.3750
v 1226.7500 0.3900 -52.3750
v 1226.7500 0.3900 -51.6250
v 1225.2500 0.3900 -51.6250
v 1225.3100 0.0000 -52.3500
v 1225.3900 0.0000 -52.3500
v 1225.3900 0.0000 -51.6500
v 1225.3100 0.0000 -51.6500
v 1225.3100 0.3600 -52.3500
v 1225.3900 0.3600 -52.3500
v 1225.3900 0.3600 -51.6500
v 1225.3100 0.3600 -51.6500
v 1226.6100 0.0000 -52.3500
v 1226.6900 0.0000 -52.3500
v 1226.6900 0.0000 -51.6500
v 1226.6100 0.0000 -51.6500
v 1226.6100 0.3600 -52.3500
v 1226.6900 0.3600 -52.3500
v 1226.6900 0.3600 -51.6500
v 1226.6100 0.3600 -51.6500
v 1225.7700 0.3900 -51.9600
v 1226.2300 0.3900 -51.9600
v 1226.2300 0.3900 -51.8000
v 1225.7700 0.3900 -51.8000
v 1225.7700 0.7700 -51.9600
v 1226.2300 0.7700 -51.9600
v 1226.2300 0.7700 -51.8000
v 1225.7700 0.7700 -51.8000
v 1231.7500 0.3300 -52.3750
v 1233.2500 0.3300 -52.3750
v 1233.2500 0.3300 -51.6250
v 1231.7500 0.3300 -51.6250
v 1231.7500 0.3900 -52.3750
v 1233.2500 0.3900 -52.3750
v 1233.2500 0.3900 -51.6250
v 1231.7500 0.3900 -51.6250
v 1231.8100 0.0000 -52.3500
v 1231.8900 0.0000 -52.3500
v 1231.8900 0.0000 -51.6500
v 1231.8100 0.0000 -51.6500
v 1231.8100 0.3600 -52.3500
v 1231.8900 0.3600 -52.3500
v 1231.8900 0.3600 -51.6500
v 1231.8100 0.3600 -51.6500
v 1233.1100 0.0000 -52.3500
v 1233.1900 0.0000 -52.3500
v 1233.1900 0.0000 -51.6500
v 1233.1100 0.0000 -51.6500
v 1233.1100 0.3600 -52.3500
v 1233.1900 0.3600 -52.3500
v 1233.1900 0.3600 -51.6500
v 1233.1100 0.3600 -51.6500
v 1232.2700 0.3900 -51.9600
v 1232.7300 0.3900 -51.9600
v 1232.7300 0.3900 -51.8000
v 1232.2700 0.3900 -51.8000
v 1232.2700 0.7700 -51.9600
v 1232.7300 0.7700 -51.9600
v 1232.7300 0.7700 -51.8000
v 1232.2700 0.7700 -51.8000
v 1244.7500 0.3300 -52.3750
v 1246.2500 0.3300 -52.3750
v 1246.2500 0.3300 -51.6250
v 1244.7500 0.3300 -51.6250
v 1244.7500 0.3900 -52.3750
v 1246.2500 0.3900 -52.3750
v 1246.2500 0.3900 -51.6250
v 1244.7500 0.3900 -51.6250
v 1244.8100 0.0000 -52.3500
v 1244.8900 0.0000 -52.3500
v 1244.8900 0.0000 -51.6500
v 1244.8100 0.0000 -51.6500
v 1244.8100 0.3600 -52.3500
v 1244.8900 0.3600 -52.3500
v 1244.8900 0.3600 -51.6500
v 1244.8100 0.3600 -51.6500
v 1246.1100 0.0000 -52.3500
v 1246.1900 0.0000 -52.3500
v 1246.1900 0.0000 -51.6500
v 1246.1100 0.0000 -51.6500
v 1246.1100 0.3600 -52.3500
v 1246.1900 0.3600 -52.3500
v 1246.1900 0.3600 -51.6500
v 1246.1100 0.3600 -51.6500
v 1245.2700 0.3900 -51.9600
v 1245.7300 0.3900 -51.9600
v 1245.7300 0.3900 -51.8000
v 1245.2700 0.3900 -51.8000
v 1245.2700 0.7700 -51.9600
v 1245.7300 0.7700 -51.9600
v 1245.7300 0.7700 -51.8000
v 1245.2700 0.7700 -51.8000
v 1244.7500 0.3300 -45.8750
v 1246.2500 0.3300 -45.8750
v 1246.2500 0.3300 -45.1250
v 1244.7500 0.3300 -45.1250
v 1244.7500 0.3900 -45.8750
v 1246.2500 0.3900 -45.8750
v 1246.2500 0.3900 -45.1250
v 1244.7500 0.3900 -45.1250
v 1244.8100 0.0000 -45.8500
v 1244.8900 0.0000 -45.8500
v 1244.8900 0.0000 -45.1500
v 1244.8100 0.0000 -45.1500
v 1244.8100 0.3600 -45.8500
v 1244.8900 0.3600 -45.8500
v 1244.8900 0.3600 -45.1500
v 1244.8100 0.3600 -45.1500
v 1246.1100 0.0000 -45.8500
v 1246.1900 0.0000 -45.8500
v 1246.1900 0.0000 -45.1500
v 1246.1100 0.0000 -45.1500
v 1246.1100 0.3600 -45.8500
v 1246.1900 0.3600 -45.8500
v 1246.1900 0.3600 -45.1500
v 1246.1100 0.3600 -45.1500
v 1245.2700 0.3900 -45.4600
v 1245.7300 0.3900 -45.4600
v 1245.7300 0.3900 -45.3000
v 1245.2700 0.3900 -45.3000
v 1245.2700 0.7700 -45.4600
v 1245.7300 0.7700 -45.4600
v 1245.7300 0.7700 -45.3000
v 1245.2700 0.7700 -45.3000
v 1251.2500 0.3300 -45.8750
v 1252.7500 0.3300 -45.8750
v 1252.7500 0.3300 -45.1250
v 1251.2500 0.3300 -45.1250
v 1251.2500 0.3900 -45.8750
v 1252.7500 0.3900 -45.8750
v 1252.7500 0.3900 -45.1250
v 1251.2500 0.3900 -45.1250
v 1251.3100 0.0000 -45.8500
v 1251.3900 0.0000 -45.8500
v 1251.3900 0.0000 -45.1500
v 1251.3100 0.0000 -45.1500
v 1251.3100 0.3600 -45.8500
v 1251.3900 0.3600 -45.8500
v 1251.3900 0.3600 -45.1500
v 1251.3100 0.3600 -45.1500
v 1252.6100 0.0000 -45.8500
v 1252.6900 0.0000 -45.8500
v 1252.6900 0.0000 -45.1500
v 1252.6100 0.0000 -45.1500
v 1252.6100 0.3600 -45.8500
v 1252.6900 0.3600 -45.8500
v 1252.6900 0.3600 -45.1500
v 1252.6100 0.3600 -45.1500
v 1251.7700 0.3900 -45.4600
v 1252.2300 0.3900 -45.4600
v 1252.2300 0.3900 -45.3000
v 1251.7700 0.3900 -45.3000
v 1251.7700 0.7700 -45.4600
v 1252.2300 0.7700 -45.4600
v 1252.2300 0.7700 -45.3000
v 1251.7700 0.7700 -45.3000
v 1244.7500 0.3300 -39.3750
v 1246.2500 0.3300 -39.3750
v 1246.2500 0.3300 -38.6250
v 1244.7500 0.3300 -38.6250
v 1244.7500 0.3900 -39.3750
v 1246.2500 0.3900 -39.3750
v 1246.2500 0.3900 -38.6250
v 1244.7500 0.3900 -38.6250
v 1244.8100 0.0000 -39.3500
v 1244.8900 0.0000 -39.3500
v 1244.8900 0.0000 -38.6500
v 1244.8100 0.0000 -38.6500
v 1244.8100 0.3600 -39.3500
v 1244.8900 0.3600 -39.3500
v 1244.8900 0.3600 -38.6500
v 1244.8100 0.3600 -38.6500
v 1246.1100 0.0000 -39.3500
v 1246.1900 0.0000 -39.3500
v 1246.1900 0.0000 -38.6500
v 1246.1100 0.0000 -38.6500
v 1246.1100 0.3600 -39.3500
v 1246.1900 0.3600 -39.3500
v 1246.1900 0.3600 -38.6500
v 1246.1100 0.3600 -38.6500
v 1245.2700 0.3900 -38.9600
v 1245.7300 0.3900 -38.9600
v 1245.7300 0.3900 -38.8000
v 1245.2700 0.3900 -38.8000
v 1245.2700 0.7700 -38.9600
v 1245.7300 0.7700 -38.9600
v 1245.7300 0.7700 -38.8000
v 1245.2700 0.7700 -38.8000
v 1231.7500 0.3300 -32.8750
v 1233.2500 0.3300 -32.8750
v 1233.2500 0.3300 -32.1250
v 1231.7500 0.3300 -32.1250
v 1231.7500 0.3900 -32.8750
v 1233.2500 0.3900 -32.8750
v 1233.2500 0.3900 -32.1250
v 1231.7500 0.3900 -32.1250
v 1231.8100 0.0000 -32.8500
v 1231.8900 0.0000 -32.8500
v 1231.8900 0.0000 -32.1500
v 1231.8100 0.0000 -32.1500
v 1231.8100 0.3600 -32.8500
v 1231.8900 0.3600 -32.8500
v 1231.8900 0.3600 -32.1500
v 1231.8100 0.3600 -32.1500
v 1233.1100 0.0000 -32.8500
v 1233.1900 0.0000 -32.8500
v 1233.1900 0.0000 -32.1500
v 1233.1100 0.0000 -32.1500
v 1233.1100 0.3600 -32.8500
v 1233.1900 0.3600 -32.8500
v 1233.1900 0.3600 -32.1500
v 1233.1100 0.3600 -32.1500
v 1232.2700 0.3900 -32.4600
v 1232.7300 0.3900 -32.4600
v 1232.7300 0.3900 -32.3000
v 1232.2700 0.3900 -32.3000
v 1232.2700 0.7700 -32.4600
v 1232.7300 0.7700 -32.4600
v 1232.7300 0.7700 -32.3000
v 1232.2700 0.7700 -32.3000
v 1225.2500 0.3300 -26.3750
v 1226.7500 0.3300 -26.3750
v 1226.7500 0.3300 -25.6250
v 1225.2500 0.3300 -25.6250
v 1225.2500 0.3900 -26.3750
v 1226.7500 0.3900 -26.3750
v 1226.7500 0.3900 -25.6250
v 1225.2500 0.3900 -25.6250
v 1225.3100 0.0000 -26.3500
v 1225.3900 0.0000 -26.3500
v 1225.3900 0.0000 -25.6500
v 1225.3100 0.0000 -25.6500
v 1225.3100 0.3600 -26.3500
v 1225.3900 0.3600 -26.3500
v 1225.3900 0.3600 -25.6500
v 1225.3100 0.3600 -25.6500
v 1226.6100 0.0000 -26.3500
v 1226.6900 0.0000 -26.3500
v 1226.6900 0.0000 -25.6500
v 1226.6100 0.0000 -25.6500
v 1226.6100 0.3600 -26.3500
v 1226.6900 0.3600 -26.3500
v 1226.6900 0.3600 -25.6500
v 1226.6100 0.3600 -25.6500
v 1225.7700 0.3900 -25.9600
v 1226.2300 0.3900 -25.9600
v 1226.2300 0.3900 -25.8000
v 1225.7700 0.3900 -25.8000
v 1225.7700 0.7700 -25.9600
v 1226.2300 0.7700 -25.9600
v 1226.2300 0.7700 -25.8000
v 1225.7700 0.7700 -25.8000
v 1231.7500 0.3300 -26.3750
v 1233.2500 0.3300 -26.3750
v 1233.2500 0.3300 -25.6250
v 1231.7500 0.3300 -25.6250
v 1231.7500 0.3900 -26.3750
v 1233.2500 0.3900 -26.3750
v 1233.2500 0.3900 -25.6250
v 1231.7500 0.3900 -25.6250
v 1231.8100 0.0000 -26.3500
v 1231.8900 0.0000 -26.3500
v 1231.8900 0.0000 -25.6500
v 1231.8100 0.0000 -25.6500
v 1231.8100 0.3600 -26.3500
v 1231.8900 0.3600 -26.3500
v 1231.8900 0.3600 -25.6500
v 1231.8100 0.3600 -25.6500
v 1233.1100 0.0000 -26.3500
v 1233.1900 0.0000 -26.3500
v 1233.1900 0.0000 -25.6500
v 1233.1100 0.0000 -25.6500
v 1233.1100 0.3600 -26.3500
v 1233.1900 0.3600 -26.3500
v 1233.1900 0.3600 -25.6500
v 1233.1100 0.3600 -25.6500
v 1232.2700 0.3900 -25.9600
v 1232.7300 0.3900 -25.9600
v 1232.7300 0.3900 -25.8000
v 1232.2700 0.3900 -25.8000
v 1232.2700 0.7700 -25.9600
v 1232.7300 0.7700 -25.9600
v 1232.7300 0.7700 -25.8000
v 1232.2700 0.7700 -25.8000
v 1244.7500 0.3300 -26.3750
v 1246.2500 0.3300 -26.3750
v 1246.2500 0.3300 -25.6250
v 1244.7500 0.3300 -25.6250
v 1244.7500 0.3900 -26.3750
v 1246.2500 0.3900 -26.3750
v 1246.2500 0.3900 -25.6250
v 1244.7500 0.3900 -25.6250
v 1244.8100 0.0000 -26.3500
v 1244.8900 0.0000 -26.3500
v 1244.8900 0.0000 -25.6500
v 1244.8100 0.0000 -25.6500
v 1244.8100 0.3600 -26.3500
v 1244.8900 0.3600 -26.3500
v 1244.8900 0.3600 -25.6500
v 1244.8100 0.3600 -25.6500
v 1246.1100 0.0000 -26.3500
v 1246.1900 0.0000 -26.3500
v 1246.1900 0.0000 -25.6500
v 1246.1100 0.0000 -25.6500
v 1246.1100 0.3600 -26.3500
v 1246.1900 0.3600 -26.3500
v 1246.1900 0.3600 -25.6500
v 1246.1100 0.3600 -25.6500
v 1245.2700 0.3900 -25.9600
v 1245.7300 0.3900 -25.9600
v 1245.7300 0.3900 -25.8000
v 1245.2700 0.3900 -25.8000
v 1245.2700 0.7700 -25.9600
v 1245.7300 0.7700 -25.9600
v 1245.7300 0.7700 -25.8000
v 1245.2700 0.7700 -25.8000
v 1225.2500 0.3300 -19.8750
v 1226.7500 0.3300 -19.8750
v 1226.7500 0.3300 -19.1250
v 1225.2500 0.3300 -19.1250
v 1225.2500 0.3900 -19.8750
v 1226.7500 0.3900 -19.8750
v 1226.7500 0.3900 -19.1250
v 1225.2500 0.3900 -19.1250
v 1225.3100 0.0000 -19.8500
v 1225.3900 0.0000 -19.8500
v 1225.3900 0.0000 -19.1500
v 1225.3100 0.0000 -19.1500
v 1225.3100 0.3600 -19.8500
v 1225.3900 0.3600 -19.8500
v 1225.3900 0.3600 -19.1500
v 1225.3100 0.3600 -19.1500
v 1226.6100 0.0000 -19.8500
v 1226.6900 0.0000 -19.8500
v 1226.6900 0.0000 -19.1500
v 1226.6100 0.0000 -19.1500
v 1226.6100 0.3600 -19.8500
v 1226.6900 0.3600 -19.8500
v 1226.6900 0.3600 -19.1500
v 1226.6100 0.3600 -19.1500
v 1225.7700 0.3900 -19.4600
v 1226.2300 0.3900 -19.4600
v 1226.2300 0.3900 -19.3000
v 1225.7700 0.3900 -19.3000
v 1225.7700 0.7700 -19.4600
v 1226.2300 0.7700 -19.4600
v 1226.2300 0.7700 -19.3000
v 1225.7700 0.7700 -19.3000
v 1244.7500 0.3300 -19.8750
v 1246.2500 0.3300 -19.8750
v 1246.2500 0.3300 -19.1250
v 1244.7500 0.3300 -19.1250
v 1244.7500 0.3900 -19.8750
v 1246.2500 0.3900 -19.8750
v 1246.2500 0.3900 -19.1250
v 1244.7500 0.3900 -19.1250
v 1244.8100 0.0000 -19.8500
v 1244.8900 0.0000 -19.8500
v 1244.8900 0.0000 -19.1500
v 1244.8100 0.0000 -19.1500
v 1244.8100 0.3600 -19.8500
v 1244.8900 0.3600 -19.8500
v 1244.8900 0.3600 -19.1500
v 1244.8100 0.3600 -19.1500
v 1246.1100 0.0000 -19.8500
v 1246.1900 0.0000 -19.8500
v 1246.1900 0.0000 -19.1500
v 1246.1100 0.0000 -19.1500
v 1246.1100 0.3600 -19.8500
v 1246.1900 0.3600 -19.8500
v 1246.1900 0.3600 -19.1500
v 1246.1100 0.3600 -19.1500
v 1245.2700 0.3900 -19.4600
v 1245.7300 0.3900 -19.4600
v 1245.7300 0.3900 -19.3000
v 1245.2700 0.3900 -19.3000
v 1245.2700 0.7700 -19.4600
v 1245.7300 0.7700 -19.4600
v 1245.7300 0.7700 -19.3000
v 1245.2700 0.7700 -19.3000
vt 568.2727 -22.9773
vt 568.2727 -21.3409
vt 569.9091 -21.3409
vt 569.9091 -22.9773
vt 568.2727 -22.9773
vt 569.9091 -22.9773
vt 569.9091 -21.3409
vt 568.2727 -21.3409
vt 568.2727 0.0000
vt 569.9091 0.0000
vt 569.9091 1.4091
vt 568.2727 1.4091
vt 569.9091 0.0000
vt 568.2727 0.0000
vt 568.2727 1.4091
vt 569.9091 1.4091
vt -22.9773 0.0000
vt -21.3409 0.0000
vt -21.3409 1.4091
vt -22.9773 1.4091
vt -21.3409 0.0000
vt -22.9773 0.0000
vt -22.9773 1.4091
vt -21.3409 1.4091
vt 554.9773 -21.5000
vt 554.9773 -19.8636
vt 556.6136 -19.8636
vt 556.6136 -21.5000
vt 554.9773 -21.5000
vt 556.6136 -21.5000
vt 556.6136 -19.8636
vt 554.9773 -19.8636
vt 554.9773 0.0000
vt 556.6136 0.0000
vt 556.6136 1.4091
vt 554.9773 1.4091
vt 556.6136 0.0000
vt 554.9773 0.0000
vt 554.9773 1.4091
vt 556.6136 1.4091
vt -21.5000 0.0000
vt -19.8636 0.0000
vt -19.8636 1.4091
vt -21.5000 1.4091
vt -19.8636 0.0000
vt -21.5000 0.0000
vt -21.5000 1.4091
vt -19.8636 1.4091
vt 560.8864 -21.5000
vt 560.8864 -19.8636
vt 562.5227 -19.8636
vt 562.5227 -21.5000
vt 560.8864 -21.5000
vt 562.5227 -21.5000
vt 562.5227 -19.8636
vt 560.8864 -19.8636
vt 560.8864 0.0000
vt 562.5227 0.0000
vt 562.5227 1.4091
vt 560.8864 1.4091
vt 562.5227 0.0000
vt 560.8864 0.0000
vt 560.8864 1.4091
vt 562.5227 1.4091
vt -21.5000 0.0000
vt -19.8636 0.0000
vt -19.8636 1.4091
vt -21.5000 1.4091
vt -19.8636 0.0000
vt -21.5000 0.0000
vt -21.5000 1.4091
vt -19.8636 1.4091
vt 554.9773 -20.0227
vt 554.9773 -18.3864
vt 556.6136 -18.3864
vt 556.6136 -20.0227
vt 554.9773 -20.0227
vt 556.6136 -20.0227
vt 556.6136 -18.3864
vt 554.9773 -18.3864
vt 554.9773 0.0000
vt 556.6136 0.0000
vt 556.6136 1.4091
vt 554.9773 1.4091
vt 556.6136 0.0000
vt 554.9773 0.0000
vt 554.9773 1.4091
vt 556.6136 1.4091
vt -20.0227 0.0000
vt -18.3864 0.0000
vt -18.3864 1.4091
vt -20.0227 1.4091
vt -18.3864 0.0000
vt -20.0227 0.0000
vt -20.0227 1.4091
vt -18.3864 1.4091
vt 557.9318 -20.0227
vt 557.9318 -18.3864
vt 559.5682 -18.3864
vt 559.5682 -20.0227
vt 557.9318 -20.0227
vt 559.5682 -20.0227
vt 559.5682 -18.3864
vt 557.9318 -18.3864
vt 557.9318 0.0000
vt 559.5682 0.0000
vt 559.5682 1.4091
vt 557.9318 1.4091
vt 559.5682 0.0000
vt 557.9318 0.0000
vt 557.9318 1.4091
vt 559.5682 1.4091
vt -20.0227 0.0000
vt -18.3864 0.0000
vt -18.3864 1.4091
vt -20.0227 1.4091
vt -18.3864 0.0000
vt -20.0227 0.0000
vt -20.0227 1.4091
vt -18.3864 1.4091
vt 563.8409 -20.0227
vt 563.8409 -18.3864
vt 565.4773 -18.3864
vt 565.4773 -20.0227
vt 563.8409 -20.0227
vt 565.4773 -20.0227
vt 565.4773 -18.3864
vt 563.8409 -18.3864
vt 563.8409 0.0000
vt 565.4773 0.0000
vt 565.4773 1.4091
vt 563.8409 1.4091
vt 565.4773 0.0000
vt 563.8409 0.0000
vt 563.8409 1.4091
vt 565.4773 1.4091
vt -20.0227 0.0000
vt -18.3864 0.0000
vt -18.3864 1.4091
vt -20.0227 1.4091
vt -18.3864 0.0000
vt -20.0227 0.0000
vt -20.0227 1.4091
vt -18.3864 1.4091
vt 563.8409 -18.5455
vt 563.8409 -16.9091
vt 565.4773 -16.9091
vt 565.4773 -18.5455
vt 563.8409 -18.5455
vt 565.4773 -18.5455
vt 565.4773 -16.9091
vt 563.8409 -16.9091
vt 563.8409 0.0000
vt 565.4773 0.0000
vt 565.4773 1.4091
vt 563.8409 1.4091
vt 565.4773 0.0000
vt 563.8409 0.0000
vt 563.8409 1.4091
vt 565.4773 1.4091
vt -18.5455 0.0000
vt -16.9091 0.0000
vt -16.9091 1.4091
vt -18.5455 1.4091
vt -16.9091 0.0000
vt -18.5455 0.0000
vt -18.5455 1.4091
vt -16.9091 1.4091
vt 560.8864 -17.0682
vt 560.8864 -15.4318
vt 562.5227 -15.4318
vt 562.5227 -17.0682
vt 560.8864 -17.0682
vt 562.5227 -17.0682
vt 562.5227 -15.4318
vt 560.8864 -15.4318
vt 560.8864 0.0000
vt 562.5227 0.0000
vt 562.5227 1.4091
vt 560.8864 1.4091
vt 562.5227 0.0000
vt 560.8864 0.0000
vt 560.8864 1.4091
vt 562.5227 1.4091
vt -17.0682 0.0000
vt -15.4318 0.0000
vt -15.4318 1.4091
vt -17.0682 1.4091
vt -15.4318 0.0000
vt -17.0682 0.0000
vt -17.0682 1.4091
vt -15.4318 1.4091
vt 563.8409 -17.0682
vt 563.8409 -15.4318
vt 565.4773 -15.4318
vt 565.4773 -17.0682
vt 563.8409 -17.0682
vt 565.4773 -17.0682
vt 565.4773 -15.4318
vt 563.8409 -15.4318
vt 563.8409 0.0000
vt 565.4773 0.0000
vt 565.4773 1.4091
vt 563.8409 1.4091
vt 565.4773 0.0000
vt 563.8409 0.0000
vt 563.8409 1.4091
vt 565.4773 1.4091
vt -17.0682 0.0000
vt -15.4318 0.0000
vt -15.4318 1.4091
vt -17.0682 1.4091
vt -15.4318 0.0000
vt -17.0682 0.0000
vt -17.0682 1.4091
vt -15.4318 1.4091
vt 560.8864 -14.1136
vt 560.8864 -12.4773
vt 562.5227 -12.4773
vt 562.5227 -14.1136
vt 560.8864 -14.1136
vt 562.5227 -14.1136
vt 562.5227 -12.4773
vt 560.8864 -12.4773
vt 560.8864 0.0000
vt 562.5227 0.0000
vt 562.5227 1.4091
vt 560.8864 1.4091
vt 562.5227 0.0000
vt 560.8864 0.0000
vt 560.8864 1.4091
vt 562.5227 1.4091
vt -14.1136 0.0000
vt -12.4773 0.0000
vt -12.4773 1.4091
vt -14.1136 1.4091
vt -12.4773 0.0000
vt -14.1136 0.0000
vt -14.1136 1.4091
vt -12.4773 1.4091
vt 563.8409 -14.1136
vt 563.8409 -12.4773
vt 565.4773 -12.4773
vt 565.4773 -14.1136
vt 563.8409 -14.1136
vt 565.4773 -14.1136
vt 565.4773 -12.4773
vt 563.8409 -12.4773
vt 563.8409 0.0000
vt 565.4773 0.0000
vt 565.4773 1.4091
vt 563.8409 1.4091
vt 565.4773 0.0000
vt 563.8409 0.0000
vt 563.8409 1.4091
vt 565.4773 1.4091
vt -14.1136 0.0000
vt -12.4773 0.0000
vt -12.4773 1.4091
vt -14.1136 1.4091
vt -12.4773 0.0000
vt -14.1136 0.0000
vt -14.1136 1.4091
vt -12.4773 1.4091
vt 565.3182 -14.1136
vt 565.3182 -12.4773
vt 566.9545 -12.4773
vt 566.9545 -14.1136
vt 565.3182 -14.1136
vt 566.9545 -14.1136
vt 566.9545 -12.4773
vt 565.3182 -12.4773
vt 565.3182 0.0000
vt 566.9545 0.0000
vt 566.9545 1.4091
vt 565.3182 1.4091
vt 566.9545 0.0000
vt 565.3182 0.0000
vt 565.3182 1.4091
vt 566.9545 1.4091
vt -14.1136 0.0000
vt -12.4773 0.0000
vt -12.4773 1.4091
vt -14.1136 1.4091
vt -12.4773 0.0000
vt -14.1136 0.0000
vt -14.1136 1.4091
vt -12.4773 1.4091
vt 557.9318 -11.1591
vt 557.9318 -9.5227
vt 559.5682 -9.5227
vt 559.5682 -11.1591
vt 557.9318 -11.1591
vt 559.5682 -11.1591
vt 559.5682 -9.5227
vt 557.9318 -9.5227
vt 557.9318 0.0000
vt 559.5682 0.0000
vt 559.5682 1.4091
vt 557.9318 1.4091
vt 559.5682 0.0000
vt 557.9318 0.0000
vt 557.9318 1.4091
vt 559.5682 1.4091
vt -11.1591 0.0000
vt -9.5227 0.0000
vt -9.5227 1.4091
vt -11.1591 1.4091
vt -9.5227 0.0000
vt -11.1591 0.0000
vt -11.1591 1.4091
vt -9.5227 1.4091
vt 568.2727 -11.1591
vt 568.2727 -9.5227
vt 569.9091 -9.5227
vt 569.9091 -11.1591
vt 568.2727 -11.1591
vt 569.9091 -11.1591
vt 569.9091 -9.5227
vt 568.2727 -9.5227
vt 568.2727 0.0000
vt 569.9091 0.0000
vt 569.9091 1.4091
vt 568.2727 1.4091
vt 569.9091 0.0000
vt 568.2727 0.0000
vt 568.2727 1.4091
vt 569.9091 1.4091
vt -11.1591 0.0000
vt -9.5227 0.0000
vt -9.5227 1.4091
vt -11.1591 1.4091
vt -9.5227 0.0000
vt -11.1591 0.0000
vt -11.1591 1.4091
vt -9.5227 1.4091
vt 1004.1393 -42.8689
vt 1004.1393 -42.3770
vt 1005.6967 -42.3770
vt 1005.6967 -42.8689
vt 1004.1393 -42.8689
vt 1005.6967 -42.8689
vt 1005.6967 -42.3770
vt 1004.1393 -42.3770
vt 1004.1393 2.4672
vt 1005.6967 2.4672
vt 1005.6967 2.5328
vt 1004.1393 2.5328
vt 1005.6967 2.4672
vt 1004.1393 2.4672
vt 1004.1393 2.5328
vt 1005.6967 2.5328
vt -42.8689 2.4672
vt -42.3770 2.4672
vt -42.3770 2.5328
vt -42.8689 2.5328
vt -42.3770 2.4672
vt -42.8689 2.4672
vt -42.8689 2.5328
vt -42.3770 2.5328
vt 1025.4508 -42.8689
vt 1025.4508 -42.3770
vt 1027.0082 -42.3770
vt 1027.0082 -42.8689
vt 1025.4508 -42.8689
vt 1027.0082 -42.8689
vt 1027.0082 -42.3770
vt 1025.4508 -42.3770
vt 1025.4508 2.4672
vt 1027.0082 2.4672
vt 1027.0082 2.5328
vt 1025.4508 2.5328
vt 1027.0082 2.4672
vt 1025.4508 2.4672
vt 1025.4508 2.5328
vt 1027.0082 2.5328
vt -42.8689 2.4672
vt -42.3770 2.4672
vt -42.3770 2.5328
vt -42.8689 2.5328
vt -42.3770 2.4672
vt -42.8689 2.4672
vt -42.8689 2.5328
vt -42.3770 2.5328
vt 1009.4672 -37.5410
vt 1009.4672 -37.0492
vt 1011.0246 -37.0492
vt 1011.0246 -37.5410
vt 1009.4672 -37.5410
vt 1011.0246 -37.5410
vt 1011.0246 -37.0492
vt 1009.4672 -37.0492
vt 1009.4672 2.4672
vt 1011.0246 2.4672
vt 1011.0246 2.5328
vt 1009.4672 2.5328
vt 1011.0246 2.4672
vt 1009.4672 2.4672
vt 1009.4672 2.5328
vt 1011.0246 2.5328
vt -37.5410 2.4672
vt -37.0492 2.4672
vt -37.0492 2.5328
vt -37.5410 2.5328
vt -37.0492 2.4672
vt -37.5410 2.4672
vt -37.5410 2.5328
vt -37.0492 2.5328
vt 1014.7951 -37.5410
vt 1014.7951 -37.0492
vt 1016.3525 -37.0492
vt 1016.3525 -37.5410
vt 1014.7951 -37.5410
vt 1016.3525 -37.5410
vt 1016.3525 -37.0492
vt 1014.7951 -37.0492
vt 1014.7951 2.4672
vt 1016.3525 2.4672
vt 1016.3525 2.5328
vt 1014.7951 2.5328
vt 1016.3525 2.4672
vt 1014.7951 2.4672
vt 1014.7951 2.5328
vt 1016.3525 2.5328
vt -37.5410 2.4672
vt -37.0492 2.4672
vt -37.0492 2.5328
vt -37.5410 2.5328
vt -37.0492 2.4672
vt -37.5410 2.4672
vt -37.5410 2.5328
vt -37.0492 2.5328
vt 1020.1230 -37.5410
vt 1020.1230 -37.0492
vt 1021.6803 -37.0492
vt 1021.6803 -37.5410
vt 1020.1230 -37.5410
vt 1021.6803 -37.5410
vt 1021.6803 -37.0492
vt 1020.1230 -37.0492
vt 1020.1230 2.4672
vt 1021.6803 2.4672
vt 1021.6803 2.5328
vt 1020.1230 2.5328
vt 1021.6803 2.4672
vt 1020.1230 2.4672
vt 1020.1230 2.5328
vt 1021.6803 2.5328
vt -37.5410 2.4672
vt -37.0492 2.4672
vt -37.0492 2.5328
vt -37.5410 2.5328
vt -37.0492 2.4672
vt -37.5410 2.4672
vt -37.5410 2.5328
vt -37.0492 2.5328
vt 1025.4508 -37.5410
vt 1025.4508 -37.0492
vt 1027.0082 -37.0492
vt 1027.0082 -37.5410
vt 1025.4508 -37.5410
vt 1027.0082 -37.5410
vt 1027.0082 -37.0492
vt 1025.4508 -37.0492
vt 1025.4508 2.4672
vt 1027.0082 2.4672
vt 1027.0082 2.5328
vt 1025.4508 2.5328
vt 1027.0082 2.4672
vt 1025.4508 2.4672
vt 1025.4508 2.5328
vt 1027.0082 2.5328
vt -37.5410 2.4672
vt -37.0492 2.4672
vt -37.0492 2.5328
vt -37.5410 2.5328
vt -37.0492 2.4672
vt -37.5410 2.4672
vt -37.5410 2.5328
vt -37.0492 2.5328
vt 1020.1230 -32.2131
vt 1020.1230 -31.7213
vt 1021.6803 -31.7213
vt 1021.6803 -32.2131
vt 1020.1230 -32.2131
vt 1021.6803 -32.2131
vt 1021.6803 -31.7213
vt 1020.1230 -31.7213
vt 1020.1230 2.4672
vt 1021.6803 2.4672
vt 1021.6803 2.5328
vt 1020.1230 2.5328
vt 1021.6803 2.4672
vt 1020.1230 2.4672
vt 1020.1230 2.5328
vt 1021.6803 2.5328
vt -32.2131 2.4672
vt -31.7213 2.4672
vt -31.7213 2.5328
vt -32.2131 2.5328
vt -31.7213 2.4672
vt -32.2131 2.4672
vt -32.2131 2.5328
vt -31.7213 2.5328
vt 1025.4508 -32.2131
vt 1025.4508 -31.7213
vt 1027.0082 -31.7213
vt 1027.0082 -32.2131
vt 1025.4508 -32.2131
vt 1027.0082 -32.2131
vt 1027.0082 -31.7213
vt 1025.4508 -31.7213
vt 1025.4508 2.4672
vt 1027.0082 2.4672
vt 1027.0082 2.5328
vt 1025.4508 2.5328
vt 1027.0082 2.4672
vt 1025.4508 2.4672
vt 1025.4508 2.5328
vt 1027.0082 2.5328
vt -32.2131 2.4672
vt -31.7213 2.4672
vt -31.7213 2.5328
vt -32.2131 2.5328
vt -31.7213 2.4672
vt -32.2131 2.4672
vt -32.2131 2.5328
vt -31.7213 2.5328
vt 1004.1393 -26.8852
vt 1004.1393 -26.3934
vt 1005.6967 -26.3934
vt 1005.6967 -26.8852
vt 1004.1393 -26.8852
vt 1005.6967 -26.8852
vt 1005.6967 -26.3934
vt 1004.1393 -26.3934
vt 1004.1393 2.4672
vt 1005.6967 2.4672
vt 1005.6967 2.5328
vt 1004.1393 2.5328
vt 1005.6967 2.4672
vt 1004.1393 2.4672
vt 1004.1393 2.5328
vt 1005.6967 2.5328
vt -26.8852 2.4672
vt -26.3934 2.4672
vt -26.3934 2.5328
vt -26.8852 2.5328
vt -26.3934 2.4672
vt -26.8852 2.4672
vt -26.8852 2.5328
vt -26.3934 2.5328
vt 1020.1230 -26.8852
vt 1020.1230 -26.3934
vt 1021.6803 -26.3934
vt 1021.6803 -26.8852
vt 1020.1230 -26.8852
vt 1021.6803 -26.8852
vt 1021.6803 -26.3934
vt 1020.1230 -26.3934
vt 1020.1230 2.4672
vt 1021.6803 2.4672
vt 1021.6803 2.5328
vt 1020.1230 2.5328
vt 1021.6803 2.4672
vt 1020.1230 2.4672
vt 1020.1230 2.5328
vt 1021.6803 2.5328
vt -26.8852 2.4672
vt -26.3934 2.4672
vt -26.3934 2.5328
vt -26.8852 2.5328
vt -26.3934 2.4672
vt -26.8852 2.4672
vt -26.8852 2.5328
vt -26.3934 2.5328
vt 1025.4508 -26.8852
vt 1025.4508 -26.3934
vt 1027.0082 -26.3934
vt 1027.0082 -26.8852
vt 1025.4508 -26.8852
vt 1027.0082 -26.8852
vt 1027.0082 -26.3934
vt 1025.4508 -26.3934
vt 1025.4508 2.4672
vt 1027.0082 2.4672
vt 1027.0082 2.5328
vt 1025.4508 2.5328
vt 1027.0082 2.4672
vt 1025.4508 2.4672
vt 1025.4508 2.5328
vt 1027.0082 2.5328
vt -26.8852 2.4672
vt -26.3934 2.4672
vt -26.3934 2.5328
vt -26.8852 2.5328
vt -26.3934 2.4672
vt -26.8852 2.4672
vt -26.8852 2.5328
vt -26.3934 2.5328
vt 1020.1230 -21.5574
vt 1020.1230 -21.0656
vt 1021.6803 -21.0656
vt 1021.6803 -21.5574
vt 1020.1230 -21.5574
vt 1021.6803 -21.5574
vt 1021.6803 -21.0656
vt 1020.1230 -21.0656
vt 1020.1230 2.4672
vt 1021.6803 2.4672
vt 1021.6803 2.5328
vt 1020.1230 2.5328
vt 1021.6803 2.4672
vt 1020.1230 2.4672
vt 1020.1230 2.5328
vt 1021.6803 2.5328
vt -21.5574 2.4672
vt -21.0656 2.4672
vt -21.0656 2.5328
vt -21.5574 2.5328
vt -21.0656 2.4672
vt -21.5574 2.4672
vt -21.5574 2.5328
vt -21.0656 2.5328
vt 1025.4508 -21.5574
vt 1025.4508 -21.0656
vt 1027.0082 -21.0656
vt 1027.0082 -21.5574
vt 1025.4508 -21.5574
vt 1027.0082 -21.5574
vt 1027.0082 -21.0656
vt 1025.4508 -21.0656
vt 1025.4508 2.4672
vt 1027.0082 2.4672
vt 1027.0082 2.5328
vt 1025.4508 2.5328
vt 1027.0082 2.4672
vt 1025.4508 2.4672
vt 1025.4508 2.5328
vt 1027.0082 2.5328
vt -21.5574 2.4672
vt -21.0656 2.4672
vt -21.0656 2.5328
vt -21.5574 2.5328
vt -21.0656 2.4672
vt -21.5574 2.4672
vt -21.5574 2.5328
vt -21.0656 2.5328
vt 1004.1393 -16.2295
vt 1004.1393 -15.7377
vt 1005.6967 -15.7377
vt 1005.6967 -16.2295
vt 1004.1393 -16.2295
vt 1005.6967 -16.2295
vt 1005.6967 -15.7377
vt 1004.1393 -15.7377
vt 1004.1393 2.4672
vt 1005.6967 2.4672
vt 1005.6967 2.5328
vt 1004.1393 2.5328
vt 1005.6967 2.4672
vt 1004.1393 2.4672
vt 1004.1393 2.5328
vt 1005.6967 2.5328
vt -16.2295 2.4672
vt -15.7377 2.4672
vt -15.7377 2.5328
vt -16.2295 2.5328
vt -15.7377 2.4672
vt -16.2295 2.4672
vt -16.2295 2.5328
vt -15.7377 2.5328
vt 1020.1230 -16.2295
vt 1020.1230 -15.7377
vt 1021.6803 -15.7377
vt 1021.6803 -16.2295
vt 1020.1230 -16.2295
vt 1021.6803 -16.2295
vt 1021.6803 -15.7377
vt 1020.1230 -15.7377
vt 1020.1230 2.4672
vt 1021.6803 2.4672
vt 1021.6803 2.5328
vt 1020.1230 2.5328
vt 1021.6803 2.4672
vt 1020.1230 2.4672
vt 1020.1230 2.5328
vt 1021.6803 2.5328
vt -16.2295 2.4672
vt -15.7377 2.4672
vt -15.7377 2.5328
vt -16.2295 2.5328
vt -15.7377 2.4672
vt -16.2295 2.4672
vt -16.2295 2.5328
vt -15.7377 2.5328
usemtl cubicle
f 1 4 3 2
f 5 6 7 8
f 1 2 6 5
f 3 4 8 7
f 2 3 7 6
f 4 1 5 8
f 9 12 11 10
f 13 14 15 16
f 9 10 14 13
f 11 12 16 15
f 10 11 15 14
f 12 9 13 16
f 17 20 19 18
f 21 22 23 24
f 17 18 22 21
f 19 20 24 23
f 18 19 23 22
f 20 17 21 24
f 121 124 123 122
f 125 126 127 128
f 121 122 126 125
f 123 124 128 127
f 122 123 127 126
f 124 121 125 128
f 153 156 155 154
f 157 158 159 160
f 153 154 158 157
f 155 156 160 159
f 154 155 159 158
f 156 153 157 160
f 161 164 163 162
f 165 166 167 168
f 161 162 166 165
f 163 164 168 167
f 162 163 167 166
f 164 161 165 168
f 265 268 267 266
f 269 270 271 272
f 265 266 270 269
f 267 268 272 271
f 266 267 271 270
f 268 265 269 272
f 273 276 275 274
f 277 278 279 280
f 273 274 278 277
f 275 276 280 279
f 274 275 279 278
f 276 273 277 280
f 353 356 355 354
f 357 358 359 360
f 353 354 358 357
f 355 356 360 359
f 354 355 359 358
f 356 353 357 360
f 361 364 363 362
f 365 366 367 368
f 361 362 366 365
f 363 364 368 367
f 362 363 367 366
f 364 361 365 368
f 393 396 395 394
f 397 398 399 400
f 393 394 398 397
f 395 396 400 399
f 394 395 399 398
f 396 393 397 400
usemtl fluorescent
f 425 428 427 426
f 429 430 431 432
f 425 426 430 429
f 427 428 432 431
f 426 427 431 430
f 428 425 429 432
f 457 460 459 458
f 461 462 463 464
f 457 458 462 461
f 459 460 464 463
f 458 459 463 462
f 460 457 461 464
f 489 492 491 490
f 493 494 495 496
f 489 490 494 493
f 491 492 496 495
f 490 491 495 494
f 492 489 493 496
f 521 524 523 522
f 525 526 527 528
f 521 522 526 525
f 523 524 528 527
f 522 523 527 526
f 524 521 525 528
f 553 556 555 554
f 557 558 559 560
f 553 554 558 557
f 555 556 560 559
f 554 555 559 558
f 556 553 557 560
f 585 588 587 586
f 589 590 591 592
f 585 586 590 589
f 587 588 592 591
f 586 587 591 590
f 588 585 589 592
f 617 620 619 618
f 621 622 623 624
f 617 618 622 621
f 619 620 624 623
f 618 619 623 622
f 620 617 621 624
f 649 652 651 650
f 653 654 655 656
f 649 650 654 653
f 651 652 656 655
f 650 651 655 654
f 652 649 653 656
f 681 684 683 682
f 685 686 687 688
f 681 682 686 685
f 683 684 688 687
f 682 683 687 686
f 684 681 685 688
f 713 716 715 714
f 717 718 719 720
f 713 714 718 717
f 715 716 720 719
f 714 715 719 718
f 716 713 717 720
f 745 748 747 746
f 749 750 751 752
f 745 746 750 749
f 747 748 752 751
f 746 747 751 750
f 748 745 749 752
f 777 780 779 778
f 781 782 783 784
f 777 778 782 781
f 779 780 784 783
f 778 779 783 782
f 780 777 781 784
f 809 812 811 810
f 813 814 815 816
f 809 810 814 813
f 811 812 816 815
f 810 811 815 814
f 812 809 813 816
f 841 844 843 842
f 845 846 847 848
f 841 842 846 845
f 843 844 848 847
f 842 843 847 846
f 844 841 845 848
f 873 876 875 874
f 877 878 879 880
f 873 874 878 877
f 875 876 880 879
f 874 875 879 878
f 876 873 877 880
usemtl desk
f 905 908 907 906
f 909 910 911 912
f 905 906 910 909
f 907 908 912 911
f 906 907 911 910
f 908 905 909 912
f 913 916 915 914
f 917 918 919 920
f 913 914 918 917
f 915 916 920 919
f 914 915 919 918
f 916 913 917 920
f 921 924 923 922
f 925 926 927 928
f 921 922 926 925
f 923 924 928 927
f 922 923 927 926
f 924 921 925 928
usemtl monitor
f 929 932 931 930
f 933 934 935 936
f 929 930 934 933
f 931 932 936 935
f 930 931 935 934
f 932 929 933 936
usemtl desk
f 937 940 939 938
f 941 942 943 944
f 937 938 942 941
f 939 940 944 943
f 938 939 943 942
f 940 937 941 944
f 945 948 947 946
f 949 950 951 952
f 945 946 950 949
f 947 948 952 951
f 946 947 951 950
f 948 945 949 952
f 953 956 955 954
f 957 958 959 960
f 953 954 958 957
f 955 956 960 959
f 954 955 959 958
f 956 953 957 960
usemtl monitor
f 961 964 963 962
f 965 966 967 968
f 961 962 966 965
f 963 964 968 967
f 962 963 967 966
f 964 961 965 968
usemtl desk
f 969 972 971 970
f 973 974 975 976
f 969 970 974 973
f 971 972 976 975
f 970 971 975 974
f 972 969 973 976
f 977 980 979 978
f 981 982 983 984
f 977 978 982 981
f 979 980 984 983
f 978 979 983 982
f 980 977 981 984
f 985 988 987 986
f 989 990 991 992
f 985 986 990 989
f 987 988 992 991
f 986 987 991 990
f 988 985 989 992
usemtl monitor
f 993 996 995 994
f 997 998 999 1000
f 993 994 998 997
f 995 996 1000 999
f 994 995 999 998
f 996 993 997 1000
usemtl desk
f 1001 1004 1003 1002
f 1005 1006 1007 1008
f 1001 1002 1006 1005
f 1003 1004 1008 1007
f 1002 1003 1007 1006
f 1004 1001 1005 1008
f 1009 1012 1011 1010
f 1013 1014 1015 1016
f 1009 1010 1014 1013
f 1011 1012 1016 1015
f 1010 1011 1015 1014
f 1012 1009 1013 1016
f 1017 1020 1019 1018
f 1021 1022 1023 1024
f 1017 1018 1022 1021
f 1019 1020 1024 1023
f 1018 1019 1023 1022
f 1020 1017 1021 1024
usemtl monitor
f 1025 1028 1027 1026
f 1029 1030 1031 1032
f 1025 1026 1030 1029
f 1027 1028 1032 1031
f 1026 1027 1031 1030
f 1028 1025 1029 1032
usemtl desk
f 1033 1036 1035 1034
f 1037 1038 1039 1040
f 1033 1034 1038 1037
f 1035 1036 1040 1039
f 1034 1035 1039 1038
f 1036 1033 1037 1040
f 1041 1044 1043 1042
f 1045 1046 1047 1048
f 1041 1042 1046 1045
f 1043 1044 1048 1047
f 1042 1043 1047 1046
f 1044 1041 1045 1048
f 1049 1052 1051 1050
f 1053 1054 1055 1056
f 1049 1050 1054 1053
f 1051 1052 1056 1055
f 1050 1051 1055 1054
f 1052 1049 1053 1056
usemtl monitor
f 1057 1060 1059 1058
f 1061 1062 1063 1064
f 1057 1058 1062 1061
f 1059 1060 1064 1063
f 1058 1059 1063 1062
f 1060 1057 1061 1064
usemtl desk
f 1065 1068 1067 1066
f 1069 1070 1071 1072
f 1065 1066 1070 1069
f 1067 1068 1072 1071
f 1066 1067 1071 1070
f 1068 1065 1069 1072
f 1073 1076 1075 1074
f 1077 1078 1079 1080
f 1073 1074 1078 1077
f 1075 1076 1080 1079
f 1074 1075 1079 1078
f 1076 1073 1077 1080
f 1081 1084 1083 1082
f 1085 1086 1087 1088
f 1081 1082 1086 1085
f 1083 1084 1088 1087
f 1082 1083 1087 1086
f 1084 1081 1085 1088
usemtl monitor
f 1089 1092 1091 1090
f 1093 1094 1095 1096
f 1089 1090 1094 1093
f 1091 1092 1096 1095
f 1090 1091 1095 1094
f 1092 1089 1093 1096
usemtl desk
f 1097 1100 1099 1098
f 1101 1102 1103 1104
f 1097 1098 1102 1101
f 1099 1100 1104 1103
f 1098 1099 1103 1102
f 1100 1097 1101 1104
f 1105 1108 1107 1106
f 1109 1110 1111 1112
f 1105 1106 1110 1109
f 1107 1108 1112 1111
f 1106 1107 1111 1110
f 1108 1105 1109 1112
f 1113 1116 1115 1114
f 1117 1118 1119 1120
f 1113 1114 1118 1117
f 1115 1116 1120 1119
f 1114 1115 1119 1118
f 1116 1113 1117 1120
usemtl monitor
f 1121 1124 1123 1122
f 1125 1126 1127 1128
f 1121 1122 1126 1125
f 1123 1124 1128 1127
f 1122 1123 1127 1126
f 1124 1121 1125 1128
usemtl desk
f 1129 1132 1131 1130
f 1133 1134 1135 1136
f 1129 1130 1134 1133
f 1131 1132 1136 1135
f 1130 1131 1135 1134
f 1132 1129 1133 1136
f 1137 1140 1139 1138
f 1141 1142 1143 1144
f 1137 1138 1142 1141
f 1139 1140 1144 1143
f 1138 1139 1143 1142
f 1140 1137 1141 1144
f 1145 1148 1147 1146
f 1149 1150 1151 1152
f 1145 1146 1150 1149
f 1147 1148 1152 1151
f 1146 1147 1151 1150
f 1148 1145 1149 1152
usemtl monitor
f 1153 1156 1155 1154
f 1157 1158 1159 1160
f 1153 1154 1158 1157
f 1155 1156 1160 1159
f 1154 1155 1159 1158
f 1156 1153 1157 1160
usemtl desk
f 1161 1164 1163 1162
f 1165 1166 1167 1168
f 1161 1162 1166 1165
f 1163 1164 1168 1167
f 1162 1163 1167 1166
f 1164 1161 1165 1168
f 1169 1172 1171 1170
f 1173 1174 1175 1176
f 1169 1170 1174 1173
f 1171 1172 1176 1175
f 1170 1171 1175 1174
f 1172 1169 1173 1176
f 1177 1180 1179 1178
f 1181 1182 1183 1184
f 1177 1178 1182 1181
f 1179 1180 1184 1183
f 1178 1179 1183 1182
f 1180 1177 1181 1184
usemtl monitor
f 1185 1188 1187 1186
f 1189 1190 1191 1192
f 1185 1186 1190 1189
f 1187 1188 1192 1191
f 1186 1187 1191 1190
f 1188 1185 1189 1192
usemtl desk
f 1193 1196 1195 1194
f 1197 1198 1199 1200
f 1193 1194 1198 1197
f 1195 1196 1200 1199
f 1194 1195 1199 1198
f 1196 1193 1197 1200
f 1201 1204 1203 1202
f 1205 1206 1207 1208
f 1201 1202 1206 1205
f 1203 1204 1208 1207
f 1202 1203 1207 1206
f 1204 1201 1205 1208
f 1209 1212 1211 1210
f 1213 1214 1215 1216
f 1209 1210 1214 1213
f 1211 1212 1216 1215
f 1210 1211 1215 1214
f 1212 1209 1213 1216
usemtl monitor
f 1217 1220 1219 1218
f 1221 1222 1223 1224
f 1217 1218 1222 1221
f 1219 1220 1224 1223
f 1218 1219 1223 1222
f 1220 1217 1221 1224
usemtl desk
f 1225 1228 1227 1226
f 1229 1230 1231 1232
f 1225 1226 1230 1229
f 1227 1228 1232 1231
f 1226 1227 1231 1230
f 1228 1225 1229 1232
f 1233 1236 1235 1234
f 1237 1238 1239 1240
f 1233 1234 1238 1237
f 1235 1236 1240 1239
f 1234 1235 1239 1238
f 1236 1233 1237 1240
f 1241 1244 1243 1242
f 1245 1246 1247 1248
f 1241 1242 1246 1245
f 1243 1244 1248 1247
f 1242 1243 1247 1246
f 1244 1241 1245 1248
usemtl monitor
f 1249 1252 1251 1250
f 1253 1254 1255 1256
f 1249 1250 1254 1253
f 1251 1252 1256 1255
f 1250 1251 1255 1254
f 1252 1249 1253 1256
usemtl desk
f 1257 1260 1259 1258
f 1261 1262 1263 1264
f 1257 1258 1262 1261
f 1259 1260 1264 1263
f 1258 1259 1263 1262
f 1260 1257 1261 1264
f 1265 1268 1267 1266
f 1269 1270 1271 1272
f 1265 1266 1270 1269
f 1267 1268 1272 1271
f 1266 1267 1271 1270
f 1268 1265 1269 1272
f 1273 1276 1275 1274
f 1277 1278 1279 1280
f 1273 1274 1278 1277
f 1275 1276 1280 1279
f 1274 1275 1279 1278
f 1276 1273 1277 1280
usemtl monitor
f 1281 1284 1283 1282
f 1285 1286 1287 1288
f 1281 1282 1286 1285
f 1283 1284 1288 1287
f 1282 1283 1287 1286
f 1284 1281 1285 1288
usemtl office_wall
f 25/1 26/2 27/3 28/4
f 29/5 30/6 31/7 32/8
f 33/9 34/10 35/11 36/12
f 37/13 38/14 39/15 40/16
f 41/17 42/18 43/19 44/20
f 45/21 46/22 47/23 48/24
f 49/25 50/26 51/27 52/28
f 53/29 54/30 55/31 56/32
f 57/33 58/34 59/35 60/36
f 61/37 62/38 63/39 64/40
f 65/41 66/42 67/43 68/44
f 69/45 70/46 71/47 72/48
f 73/49 74/50 75/51 76/52
f 77/53 78/54 79/55 80/56
f 81/57 82/58 83/59 84/60
f 85/61 86/62 87/63 88/64
f 89/65 90/66 91/67 92/68
f 93/69 94/70 95/71 96/72
f 97/73 98/74 99/75 100/76
f 101/77 102/78 103/79 104/80
f 105/81 106/82 107/83 108/84
f 109/85 110/86 111/87 112/88
f 113/89 114/90 115/91 116/92
f 117/93 118/94 119/95 120/96
f 129/97 130/98 131/99 132/100
f 133/101 134/102 135/103 136/104
f 137/105 138/106 139/107 140/108
f 141/109 142/110 143/111 144/112
f 145/113 146/114 147/115 148/116
f 149/117 150/118 151/119 152/120
f 169/121 170/122 171/123 172/124
f 173/125 174/126 175/127 176/128
f 177/129 178/130 179/131 180/132
f 181/133 182/134 183/135 184/136
f 185/137 186/138 187/139 188/140
f 189/141 190/142 191/143 192/144
f 193/145 194/146 195/147 196/148
f 197/149 198/150 199/151 200/152
f 201/153 202/154 203/155 204/156
f 205/157 206/158 207/159 208/160
f 209/161 210/162 211/163 212/164
f 213/165 214/166 215/167 216/168
f 217/169 218/170 219/171 220/172
f 221/173 222/174 223/175 224/176
f 225/177 226/178 227/179 228/180
f 229/181 230/182 231/183 232/184
f 233/185 234/186 235/187 236/188
f 237/189 238/190 239/191 240/192
f 241/193 242/194 243/195 244/196
f 245/197 246/198 247/199 248/200
f 249/201 250/202 251/203 252/204
f 253/205 254/206 255/207 256/208
f 257/209 258/210 259/211 260/212
f 261/213 262/214 263/215 264/216
f 281/217 282/218 283/219 284/220
f 285/221 286/222 287/223 288/224
f 289/225 290/226 291/227 292/228
f 293/229 294/230 295/231 296/232
f 297/233 298/234 299/235 300/236
f 301/237 302/238 303/239 304/240
f 305/241 306/242 307/243 308/244
f 309/245 310/246 311/247 312/248
f 313/249 314/250 315/251 316/252
f 317/253 318/254 319/255 320/256
f 321/257 322/258 323/259 324/260
f 325/261 326/262 327/263 328/264
f 329/265 330/266 331/267 332/268
f 333/269 334/270 335/271 336/272
f 337/273 338/274 339/275 340/276
f 341/277 342/278 343/279 344/280
f 345/281 346/282 347/283 348/284
f 349/285 350/286 351/287 352/288
f 369/289 370/290 371/291 372/292
f 373/293 374/294 375/295 376/296
f 377/297 378/298 379/299 380/300
f 381/301 382/302 383/303 384/304
f 385/305 386/306 387/307 388/308
f 389/309 390/310 391/311 392/312
f 401/313 402/314 403/315 404/316
f 405/317 406/318 407/319 408/320
f 409/321 410/322 411/323 412/324
f 413/325 414/326 415/327 416/328
f 417/329 418/330 419/331 420/332
f 421/333 422/334 423/335 424/336
usemtl ceiling_tile
f 433/337 434/338 435/339 436/340
f 437/341 438/342 439/343 440/344
f 441/345 442/346 443/347 444/348
f 445/349 446/350 447/351 448/352
f 449/353 450/354 451/355 452/356
f 453/357 454/358 455/359 456/360
f 465/361 466/362 467/363 468/364
f 469/365 470/366 471/367 472/368
f 473/369 474/370 475/371 476/372
f 477/373 478/374 479/375 480/376
f 481/377 482/378 483/379 484/380
f 485/381 486/382 487/383 488/384
f 497/385 498/386 499/387 500/388
f 501/389 502/390 503/391 504/392
f 505/393 506/394 507/395 508/396
f 509/397 510/398 511/399 512/400
f 513/401 514/402 515/403 516/404
f 517/405 518/406 519/407 520/408
f 529/409 530/410 531/411 532/412
f 533/413 534/414 535/415 536/416
f 537/417 538/418 539/419 540/420
f 541/421 542/422 543/423 544/424
f 545/425 546/426 547/427 548/428
f 549/429 550/430 551/431 552/432
f 561/433 562/434 563/435 564/436
f 565/437 566/438 567/439 568/440
f 569/441 570/442 571/443 572/444
f 573/445 574/446 575/447 576/448
f 577/449 578/450 579/451 580/452
f 581/453 582/454 583/455 584/456
f 593/457 594/458 595/459 596/460
f 597/461 598/462 599/463 600/464
f 601/465 602/466 603/467 604/468
f 605/469 606/470 607/471 608/472
f 609/473 610/474 611/475 612/476
f 613/477 614/478 615/479 616/480
f 625/481 626/482 627/483 628/484
f 629/485 630/486 631/487 632/488
f 633/489 634/490 635/491 636/492
f 637/493 638/494 639/495 640/496
f 641/497 642/498 643/499 644/500
f 645/501 646/502 647/503 648/504
f 657/505 658/506 659/507 660/508
f 661/509 662/510 663/511 664/512
f 665/513 666/514 667/515 668/516
f 669/517 670/518 671/519 672/520
f 673/521 674/522 675/523 676/524
f 677/525 678/526 679/527 680/528
f 689/529 690/530 691/531 692/532
f 693/533 694/534 695/535 696/536
f 697/537 698/538 699/539 700/540
f 701/541 702/542 703/543 704/544
f 705/545 706/546 707/547 708/548
f 709/549 710/550 711/551 712/552
f 721/553 722/554 723/555 724/556
f 725/557 726/558 727/559 728/560
f 729/561 730/562 731/563 732/564
f 733/565 734/566 735/567 736/568
f 737/569 738/570 739/571 740/572
f 741/573 742/574 743/575 744/576
f 753/577 754/578 755/579 756/580
f 757/581 758/582 759/583 760/584
f 761/585 762/586 763/587 764/588
f 765/589 766/590 767/591 768/592
f 769/593 770/594 771/595 772/596
f 773/597 774/598 775/599 776/600
f 785/601 786/602 787/603 788/604
f 789/605 790/606 791/607 792/608
f 793/609 794/610 795/611 796/612
f 797/613 798/614 799/615 800/616
f 801/617 802/618 803/619 804/620
f 805/621 806/622 807/623 808/624
f 817/625 818/626 819/627 820/628
f 821/629 822/630 823/631 824/632
f 825/633 826/634 827/635 828/636
f 829/637 830/638 831/639 832/640
f 833/641 834/642 835/643 836/644
f 837/645 838/646 839/647 840/648
f 849/649 850/650 851/651 852/652
f 853/653 854/654 855/655 856/656
f 857/657 858/658 859/659 860/660
f 861/661 862/662 863/663 864/664
f 865/665 866/666 867/667 868/668
f 869/669 870/670 871/671 872/672
f 881/673 882/674 883/675 884/676
f 885/677 886/678 887/679 888/680
f 889/681 890/682 891/683 892/684
f 893/685 894/686 895/687 896/688
f 897/689 898/690 899/691 900/692
f 901/693 902/694 903/695 904/696
