# RoastEngine Backrooms level
mtllib backrooms.mtl
v -368.6750 0.0000 -22.6750
v -368.6750 0.0000 -19.3250
v -365.3250 0.0000 -19.3250
v -365.3250 0.0000 -22.6750
v -368.6750 3.2000 -22.6750
v -365.3250 3.2000 -22.6750
v -365.3250 3.2000 -19.3250
v -368.6750 3.2000 -19.3250
v -368.6750 0.0000 -22.6750
v -365.3250 0.0000 -22.6750
v -365.3250 3.2000 -22.6750
v -368.6750 3.2000 -22.6750
v -365.3250 0.0000 -19.3250
v -368.6750 0.0000 -19.3250
v -368.6750 3.2000 -19.3250
v -365.3250 3.2000 -19.3250
v -365.3250 0.0000 -22.6750
v -365.3250 0.0000 -19.3250
v -365.3250 3.2000 -19.3250
v -365.3250 3.2000 -22.6750
v -368.6750 0.0000 -19.3250
v -368.6750 0.0000 -22.6750
v -368.6750 3.2000 -22.6750
v -368.6750 3.2000 -19.3250
v -368.6750 0.0000 -16.6750
v -368.6750 0.0000 -13.3250
v -365.3250 0.0000 -13.3250
v -365.3250 0.0000 -16.6750
v -368.6750 3.2000 -16.6750
v -365.3250 3.2000 -16.6750
v -365.3250 3.2000 -13.3250
v -368.6750 3.2000 -13.3250
v -368.6750 0.0000 -16.6750
v -365.3250 0.0000 -16.6750
v -365.3250 3.2000 -16.6750
v -368.6750 3.2000 -16.6750
v -365.3250 0.0000 -13.3250
v -368.6750 0.0000 -13.3250
v -368.6750 3.2000 -13.3250
v -365.3250 3.2000 -13.3250
v -365.3250 0.0000 -16.6750
v -365.3250 0.0000 -13.3250
v -365.3250 3.2000 -13.3250
v -365.3250 3.2000 -16.6750
v -368.6750 0.0000 -13.3250
v -368.6750 0.0000 -16.6750
v -368.6750 3.2000 -16.6750
v -368.6750 3.2000 -13.3250
v -368.6750 0.0000 -10.6750
v -368.6750 0.0000 -7.3250
v -365.3250 0.0000 -7.3250
v -365.3250 0.0000 -10.6750
v -368.6750 3.2000 -10.6750
v -365.3250 3.2000 -10.6750
v -365.3250 3.2000 -7.3250
v -368.6750 3.2000 -7.3250
v -368.6750 0.0000 -10.6750
v -365.3250 0.0000 -10.6750
v -365.3250 3.2000 -10.6750
v -368.6750 3.2000 -10.6750
v -365.3250 0.0000 -7.3250
v -368.6750 0.0000 -7.3250
v -368.6750 3.2000 -7.3250
v -365.3250 3.2000 -7.3250
v -365.3250 0.0000 -10.6750
v -365.3250 0.0000 -7.3250
v -365.3250 3.2000 -7.3250
v -365.3250 3.2000 -10.6750
v -368.6750 0.0000 -7.3250
v -368.6750 0.0000 -10.6750
v -368.6750 3.2000 -10.6750
v -368.6750 3.2000 -7.3250
v -368.6750 0.0000 -7.6750
v -368.6750 0.0000 -4.3250
v -365.3250 0.0000 -4.3250
v -365.3250 0.0000 -7.6750
v -368.6750 3.2000 -7.6750
v -365.3250 3.2000 -7.6750
v -365.3250 3.2000 -4.3250
v -368.6750 3.2000 -4.3250
v -368.6750 0.0000 -7.6750
v -365.3250 0.0000 -7.6750
v -365.3250 3.2000 -7.6750
v -368.6750 3.2000 -7.6750
v -365.3250 0.0000 -4.3250
v -368.6750 0.0000 -4.3250
v -368.6750 3.2000 -4.3250
v -365.3250 3.2000 -4.3250
v -365.3250 0.0000 -7.6750
v -365.3250 0.0000 -4.3250
v -365.3250 3.2000 -4.3250
v -365.3250 3.2000 -7.6750
v -368.6750 0.0000 -4.3250
v -368.6750 0.0000 -7.6750
v -368.6750 3.2000 -7.6750
v -368.6750 3.2000 -4.3250
v -364.8000 3.0300 -24.1750
v -363.2000 3.0300 -24.1750
v -363.2000 3.0300 -23.8250
v -364.8000 3.0300 -23.8250
v -364.8000 3.1300 -24.1750
v -363.2000 3.1300 -24.1750
v -363.2000 3.1300 -23.8250
v -364.8000 3.1300 -23.8250
v -364.9500 3.1100 -24.3000
v -364.9500 3.1100 -23.7000
v -363.0500 3.1100 -23.7000
v -363.0500 3.1100 -24.3000
v -364.9500 3.1900 -24.3000
v -363.0500 3.1900 -24.3000
v -363.0500 3.1900 -23.7000
v -364.9500 3.1900 -23.7000
v -364.9500 3.1100 -24.3000
v -363.0500 3.1100 -24.3000
v -363.0500 3.1900 -24.3000
v -364.9500 3.1900 -24.3000
v -363.0500 3.1100 -23.7000
v -364.9500 3.1100 -23.7000
v -364.9500 3.1900 -23.7000
v -363.0500 3.1900 -23.7000
v -363.0500 3.1100 -24.3000
v -363.0500 3.1100 -23.7000
v -363.0500 3.1900 -23.7000
v -363.0500 3.1900 -24.3000
v -364.9500 3.1100 -23.7000
v -364.9500 3.1100 -24.3000
v -364.9500 3.1900 -24.3000
v -364.9500 3.1900 -23.7000
v -364.8000 3.0300 -18.1750
v -363.2000 3.0300 -18.1750
v -363.2000 3.0300 -17.8250
v -364.8000 3.0300 -17.8250
v -364.8000 3.1300 -18.1750
v -363.2000 3.1300 -18.1750
v -363.2000 3.1300 -17.8250
v -364.8000 3.1300 -17.8250
v -364.9500 3.1100 -18.3000
v -364.9500 3.1100 -17.7000
v -363.0500 3.1100 -17.7000
v -363.0500 3.1100 -18.3000
v -364.9500 3.1900 -18.3000
v -363.0500 3.1900 -18.3000
v -363.0500 3.1900 -17.7000
v -364.9500 3.1900 -17.7000
v -364.9500 3.1100 -18.3000
v -363.0500 3.1100 -18.3000
v -363.0500 3.1900 -18.3000
v -364.9500 3.1900 -18.3000
v -363.0500 3.1100 -17.7000
v -364.9500 3.1100 -17.7000
v -364.9500 3.1900 -17.7000
v -363.0500 3.1900 -17.7000
v -363.0500 3.1100 -18.3000
v -363.0500 3.1100 -17.7000
v -363.0500 3.1900 -17.7000
v -363.0500 3.1900 -18.3000
v -364.9500 3.1100 -17.7000
v -364.9500 3.1100 -18.3000
v -364.9500 3.1900 -18.3000
v -364.9500 3.1900 -17.7000
vt -245.7833 -15.1167
vt -245.7833 -12.8833
vt -243.5500 -12.8833
vt -243.5500 -15.1167
vt -245.7833 -15.1167
vt -243.5500 -15.1167
vt -243.5500 -12.8833
vt -245.7833 -12.8833
vt -245.7833 0.0000
vt -243.5500 0.0000
vt -243.5500 2.1333
vt -245.7833 2.1333
vt -243.5500 0.0000
vt -245.7833 0.0000
vt -245.7833 2.1333
vt -243.5500 2.1333
vt -15.1167 0.0000
vt -12.8833 0.0000
vt -12.8833 2.1333
vt -15.1167 2.1333
vt -12.8833 0.0000
vt -15.1167 0.0000
vt -15.1167 2.1333
vt -12.8833 2.1333
vt -245.7833 -11.1167
vt -245.7833 -8.8833
vt -243.5500 -8.8833
vt -243.5500 -11.1167
vt -245.7833 -11.1167
vt -243.5500 -11.1167
vt -243.5500 -8.8833
vt -245.7833 -8.8833
vt -245.7833 0.0000
vt -243.5500 0.0000
vt -243.5500 2.1333
vt -245.7833 2.1333
vt -243.5500 0.0000
vt -245.7833 0.0000
vt -245.7833 2.1333
vt -243.5500 2.1333
vt -11.1167 0.0000
vt -8.8833 0.0000
vt -8.8833 2.1333
vt -11.1167 2.1333
vt -8.8833 0.0000
vt -11.1167 0.0000
vt -11.1167 2.1333
vt -8.8833 2.1333
vt -245.7833 -7.1167
vt -245.7833 -4.8833
vt -243.5500 -4.8833
vt -243.5500 -7.1167
vt -245.7833 -7.1167
vt -243.5500 -7.1167
vt -243.5500 -4.8833
vt -245.7833 -4.8833
vt -245.7833 0.0000
vt -243.5500 0.0000
vt -243.5500 2.1333
vt -245.7833 2.1333
vt -243.5500 0.0000
vt -245.7833 0.0000
vt -245.7833 2.1333
vt -243.5500 2.1333
vt -7.1167 0.0000
vt -4.8833 0.0000
vt -4.8833 2.1333
vt -7.1167 2.1333
vt -4.8833 0.0000
vt -7.1167 0.0000
vt -7.1167 2.1333
vt -4.8833 2.1333
vt -245.7833 -5.1167
vt -245.7833 -2.8833
vt -243.5500 -2.8833
vt -243.5500 -5.1167
vt -245.7833 -5.1167
vt -243.5500 -5.1167
vt -243.5500 -2.8833
vt -245.7833 -2.8833
vt -245.7833 0.0000
vt -243.5500 0.0000
vt -243.5500 2.1333
vt -245.7833 2.1333
vt -243.5500 0.0000
vt -245.7833 0.0000
vt -245.7833 2.1333
vt -243.5500 2.1333
vt -5.1167 0.0000
vt -2.8833 0.0000
vt -2.8833 2.1333
vt -5.1167 2.1333
vt -2.8833 0.0000
vt -5.1167 0.0000
vt -5.1167 2.1333
vt -2.8833 2.1333
vt -299.1393 -19.9180
vt -299.1393 -19.4262
vt -297.5820 -19.4262
vt -297.5820 -19.9180
vt -299.1393 -19.9180
vt -297.5820 -19.9180
vt -297.5820 -19.4262
vt -299.1393 -19.4262
vt -299.1393 2.5492
vt -297.5820 2.5492
vt -297.5820 2.6148
vt -299.1393 2.6148
vt -297.5820 2.5492
vt -299.1393 2.5492
vt -299.1393 2.6148
vt -297.5820 2.6148
vt -19.9180 2.5492
vt -19.4262 2.5492
vt -19.4262 2.6148
vt -19.9180 2.6148
vt -19.4262 2.5492
vt -19.9180 2.5492
vt -19.9180 2.6148
vt -19.4262 2.6148
vt -299.1393 -15.0000
vt -299.1393 -14.5082
vt -297.5820 -14.5082
vt -297.5820 -15.0000
vt -299.1393 -15.0000
vt -297.5820 -15.0000
vt -297.5820 -14.5082
vt -299.1393 -14.5082
vt -299.1393 2.5492
vt -297.5820 2.5492
vt -297.5820 2.6148
vt -299.1393 2.6148
vt -297.5820 2.5492
vt -299.1393 2.5492
vt -299.1393 2.6148
vt -297.5820 2.6148
vt -15.0000 2.5492
vt -14.5082 2.5492
vt -14.5082 2.6148
vt -15.0000 2.6148
vt -14.5082 2.5492
vt -15.0000 2.5492
vt -15.0000 2.6148
vt -14.5082 2.6148
usemtl fluorescent
f 97 100 99 98
f 101 102 103 104
f 97 98 102 101
f 99 100 104 103
f 98 99 103 102
f 100 97 101 104
f 129 132 131 130
f 133 134 135 136
f 129 130 134 133
f 131 132 136 135
f 130 131 135 134
f 132 129 133 136
usemtl wallpaper
f 1/1 2/2 3/3 4/4
f 5/5 6/6 7/7 8/8
f 9/9 10/10 11/11 12/12
f 13/13 14/14 15/15 16/16
f 17/17 18/18 19/19 20/20
f 21/21 22/22 23/23 24/24
f 25/25 26/26 27/27 28/28
f 29/29 30/30 31/31 32/32
f 33/33 34/34 35/35 36/36
f 37/37 38/38 39/39 40/40
f 41/41 42/42 43/43 44/44
f 45/45 46/46 47/47 48/48
f 49/49 50/50 51/51 52/52
f 53/53 54/54 55/55 56/56
f 57/57 58/58 59/59 60/60
f 61/61 62/62 63/63 64/64
f 65/65 66/66 67/67 68/68
f 69/69 70/70 71/71 72/72
f 73/73 74/74 75/75 76/76
f 77/77 78/78 79/79 80/80
f 81/81 82/82 83/83 84/84
f 85/85 86/86 87/87 88/88
f 89/89 90/90 91/91 92/92
f 93/93 94/94 95/95 96/96
usemtl ceiling_tile
f 105/97 106/98 107/99 108/100
f 109/101 110/102 111/103 112/104
f 113/105 114/106 115/107 116/108
f 117/109 118/110 119/111 120/112
f 121/113 122/114 123/115 124/116
f 125/117 126/118 127/119 128/120
f 137/121 138/122 139/123 140/124
f 141/125 142/126 143/127 144/128
f 145/129 146/130 147/131 148/132
f 149/133 150/134 151/135 152/136
f 153/137 154/138 155/139 156/140
f 157/141 158/142 159/143 160/144
