# RoastEngine Backrooms level
mtllib backrooms.mtl
v 1590.2000 0.0000 23.2000
v 1590.2000 0.0000 26.3000
v 1593.3000 0.0000 26.3000
v 1593.3000 0.0000 23.2000
v 1590.2000 3.4000 23.2000
v 1593.3000 3.4000 23.2000
v 1593.3000 3.4000 26.3000
v 1590.2000 3.4000 26.3000
v 1590.2000 0.0000 23.2000
v 1593.3000 0.0000 23.2000
v 1593.3000 3.4000 23.2000
v 1590.2000 3.4000 23.2000
v 1593.3000 0.0000 26.3000
v 1590.2000 0.0000 26.3000
v 1590.2000 3.4000 26.3000
v 1593.3000 3.4000 26.3000
v 1593.3000 0.0000 23.2000
v 1593.3000 0.0000 26.3000
v 1593.3000 3.4000 26.3000
v 1593.3000 3.4000 23.2000
v 1590.2000 0.0000 26.3000
v 1590.2000 0.0000 23.2000
v 1590.2000 3.4000 23.2000
v 1590.2000 3.4000 26.3000
v 1592.9500 0.0000 23.2000
v 1592.9500 0.0000 26.3000
v 1596.0500 0.0000 26.3000
v 1596.0500 0.0000 23.2000
v 1592.9500 3.4000 23.2000
v 1596.0500 3.4000 23.2000
v 1596.0500 3.4000 26.3000
v 1592.9500 3.4000 26.3000
v 1592.9500 0.0000 23.2000
v 1596.0500 0.0000 23.2000
v 1596.0500 3.4000 23.2000
v 1592.9500 3.4000 23.2000
v 1596.0500 0.0000 26.3000
v 1592.9500 0.0000 26.3000
v 1592.9500 3.4000 26.3000
v 1596.0500 3.4000 26.3000
v 1596.0500 0.0000 23.2000
v 1596.0500 0.0000 26.3000
v 1596.0500 3.4000 26.3000
v 1596.0500 3.4000 23.2000
v 1592.9500 0.0000 26.3000
v 1592.9500 0.0000 23.2000
v 1592.9500 3.4000 23.2000
v 1592.9500 3.4000 26.3000
v 1595.7000 0.0000 23.2000
v 1595.7000 0.0000 26.3000
v 1598.8000 0.0000 26.3000
v 1598.8000 0.0000 23.2000
v 1595.7000 3.4000 23.2000
v 1598.8000 3.4000 23.2000
v 1598.8000 3.4000 26.3000
v 1595.7000 3.4000 26.3000
v 1595.7000 0.0000 23.2000
v 1598.8000 0.0000 23.2000
v 1598.8000 3.4000 23.2000
v 1595.7000 3.4000 23.2000
v 1598.8000 0.0000 26.3000
v 1595.7000 0.0000 26.3000
v 1595.7000 3.4000 26.3000
v 1598.8000 3.4000 26.3000
v 1598.8000 0.0000 23.2000
v 1598.8000 0.0000 26.3000
v 1598.8000 3.4000 26.3000
v 1598.8000 3.4000 23.2000
v 1595.7000 0.0000 26.3000
v 1595.7000 0.0000 23.2000
v 1595.7000 3.4000 23.2000
v 1595.7000 3.4000 26.3000
v 1598.4500 0.0000 23.2000
v 1601.5500 0.0000 23.2000
v 1601.5500 0.0000 26.3000
v 1598.4500 0.0000 26.3000
v 1598.4500 3.4000 23.2000
v 1601.5500 3.4000 23.2000
v 1601.5500 3.4000 26.3000
v 1598.4500 3.4000 26.3000
v 1601.2000 0.0000 23.2000
v 1604.3000 0.0000 23.2000
v 1604.3000 0.0000 26.3000
v 1601.2000 0.0000 26.3000
v 1601.2000 3.4000 23.2000
v 1604.3000 3.4000 23.2000
v 1604.3000 3.4000 26.3000
v 1601.2000 3.4000 26.3000
v 1606.7000 0.0000 23.2000
v 1606.7000 0.0000 26.3000
v 1609.8000 0.0000 26.3000
v 1609.8000 0.0000 23.2000
v 1606.7000 3.4000 23.2000
v 1609.8000 3.4000 23.2000
v 1609.8000 3.4000 26.3000
v 1606.7000 3.4000 26.3000
v 1606.7000 0.0000 23.2000
v 1609.8000 0.0000 23.2000
v 1609.8000 3.4000 23.2000
v 1606.7000 3.4000 23.2000
v 1609.8000 0.0000 26.3000
v 1606.7000 0.0000 26.3000
v 1606.7000 3.4000 26.3000
v 1609.8000 3.4000 26.3000
v 1609.8000 0.0000 23.2000
v 1609.8000 0.0000 26.3000
v 1609.8000 3.4000 26.3000
v 1609.8000 3.4000 23.2000
v 1606.7000 0.0000 26.3000
v 1606.7000 0.0000 23.2000
v 1606.7000 3.4000 23.2000
v 1606.7000 3.4000 26.3000
v 1612.2000 0.0000 23.2000
v 1612.2000 0.0000 26.3000
v 1615.3000 0.0000 26.3000
v 1615.3000 0.0000 23.2000
v 1612.2000 3.4000 23.2000
v 1615.3000 3.4000 23.2000
v 1615.3000 3.4000 26.3000
v 1612.2000 3.4000 26.3000
v 1612.2000 0.0000 23.2000
v 1615.3000 0.0000 23.2000
v 1615.3000 3.4000 23.2000
v 1612.2000 3.4000 23.2000
v 1615.3000 0.0000 26.3000
v 1612.2000 0.0000 26.3000
v 1612.2000 3.4000 26.3000
v 1615.3000 3.4000 26.3000
v 1615.3000 0.0000 23.2000
v 1615.3000 0.0000 26.3000
v 1615.3000 3.4000 26.3000
v 1615.3000 3.4000 23.2000
v 1612.2000 0.0000 26.3000
v 1612.2000 0.0000 23.2000
v 1612.2000 3.4000 23.2000
v 1612.2000 3.4000 26.3000
v 1614.9500 0.0000 23.2000
v 1614.9500 0.0000 26.3000
v 1618.0500 0.0000 26.3000
v 1618.0500 0.0000 23.2000
v 1614.9500 3.4000 23.2000
v 1618.0500 3.4000 23.2000
v 1618.0500 3.4000 26.3000
v 1614.9500 3.4000 26.3000
v 1614.9500 0.0000 23.2000
v 1618.0500 0.0000 23.2000
v 1618.0500 3.4000 23.2000
v 1614.9500 3.4000 23.2000
v 1618.0500 0.0000 26.3000
v 1614.9500 0.0000 26.3000
v 1614.9500 3.4000 26.3000
v 1618.0500 3.4000 26.3000
v 1618.0500 0.0000 23.2000
v 1618.0500 0.0000 26.3000
v 1618.0500 3.4000 26.3000
v 1618.0500 3.4000 23.2000
v 1614.9500 0.0000 26.3000
v 1614.9500 0.0000 23.2000
v 1614.9500 3.4000 23.2000
v 1614.9500 3.4000 26.3000
v 1617.7000 0.0000 23.2000
v 1620.8000 0.0000 23.2000
v 1620.8000 0.0000 26.3000
v 1617.7000 0.0000 26.3000
v 1617.7000 3.4000 23.2000
v 1620.8000 3.4000 23.2000
v 1620.8000 3.4000 26.3000
v 1617.7000 3.4000 26.3000
v 1620.4500 0.0000 23.2000
v 1620.4500 0.0000 26.3000
v 1623.5500 0.0000 26.3000
v 1623.5500 0.0000 23.2000
v 1620.4500 3.4000 23.2000
v 1623.5500 3.4000 23.2000
v 1623.5500 3.4000 26.3000
v 1620.4500 3.4000 26.3000
v 1620.4500 0.0000 23.2000
v 1623.5500 0.0000 23.2000
v 1623.5500 3.4000 23.2000
v 1620.4500 3.4000 23.2000
v 1623.5500 0.0000 26.3000
v 1620.4500 0.0000 26.3000
v 1620.4500 3.4000 26.3000
v 1623.5500 3.4000 26.3000
v 1623.5500 0.0000 23.2000
v 1623.5500 0.0000 26.3000
v 1623.5500 3.4000 26.3000
v 1623.5500 3.4000 23.2000
v 1620.4500 0.0000 26.3000
v 1620.4500 0.0000 23.2000
v 1620.4500 3.4000 23.2000
v 1620.4500 3.4000 26.3000
v 1590.2000 0.0000 28.7000
v 1590.2000 0.0000 31.8000
v 1593.3000 0.0000 31.8000
v 1593.3000 0.0000 28.7000
v 1590.2000 3.4000 28.7000
v 1593.3000 3.4000 28.7000
v 1593.3000 3.4000 31.8000
v 1590.2000 3.4000 31.8000
v 1590.2000 0.0000 28.7000
v 1593.3000 0.0000 28.7000
v 1593.3000 3.4000 28.7000
v 1590.2000 3.4000 28.7000
v 1593.3000 0.0000 31.8000
v 1590.2000 0.0000 31.8000
v 1590.2000 3.4000 31.8000
v 1593.3000 3.4000 31.8000
v 1593.3000 0.0000 28.7000
v 1593.3000 0.0000 31.8000
v 1593.3000 3.4000 31.8000
v 1593.3000 3.4000 28.7000
v 1590.2000 0.0000 31.8000
v 1590.2000 0.0000 28.7000
v 1590.2000 3.4000 28.7000
v 1590.2000 3.4000 31.8000
v 1592.9500 0.0000 28.7000
v 1592.9500 0.0000 31.8000
v 1596.0500 0.0000 31.8000
v 1596.0500 0.0000 28.7000
v 1592.9500 3.4000 28.7000
v 1596.0500 3.4000 28.7000
v 1596.0500 3.4000 31.8000
v 1592.9500 3.4000 31.8000
v 1592.9500 0.0000 28.7000
v 1596.0500 0.0000 28.7000
v 1596.0500 3.4000 28.7000
v 1592.9500 3.4000 28.7000
v 1596.0500 0.0000 31.8000
v 1592.9500 0.0000 31.8000
v 1592.9500 3.4000 31.8000
v 1596.0500 3.4000 31.8000
v 1596.0500 0.0000 28.7000
v 1596.0500 0.0000 31.8000
v 1596.0500 3.4000 31.8000
v 1596.0500 3.4000 28.7000
v 1592.9500 0.0000 31.8000
v 1592.9500 0.0000 28.7000
v 1592.9500 3.4000 28.7000
v 1592.9500 3.4000 31.8000
v 1595.7000 0.0000 28.7000
v 1598.8000 0.0000 28.7000
v 1598.8000 0.0000 31.8000
v 1595.7000 0.0000 31.8000
v 1595.7000 3.4000 28.7000
v 1598.8000 3.4000 28.7000
v 1598.8000 3.4000 31.8000
v 1595.7000 3.4000 31.8000
v 1601.2000 0.0000 28.7000
v 1601.2000 0.0000 31.8000
v 1604.3000 0.0000 31.8000
v 1604.3000 0.0000 28.7000
v 1601.2000 3.4000 28.7000
v 1604.3000 3.4000 28.7000
v 1604.3000 3.4000 31.8000
v 1601.2000 3.4000 31.8000
v 1601.2000 0.0000 28.7000
v 1604.3000 0.0000 28.7000
v 1604.3000 3.4000 28.7000
v 1601.2000 3.4000 28.7000
v 1604.3000 0.0000 31.8000
v 1601.2000 0.0000 31.8000
v 1601.2000 3.4000 31.8000
v 1604.3000 3.4000 31.8000
v 1604.3000 0.0000 28.7000
v 1604.3000 0.0000 31.8000
v 1604.3000 3.4000 31.8000
v 1604.3000 3.4000 28.7000
v 1601.2000 0.0000 31.8000
v 1601.2000 0.0000 28.7000
v 1601.2000 3.4000 28.7000
v 1601.2000 3.4000 31.8000
v 1617.7000 0.0000 28.7000
v 1617.7000 0.0000 31.8000
v 1620.8000 0.0000 31.8000
v 1620.8000 0.0000 28.7000
v 1617.7000 3.4000 28.7000
v 1620.8000 3.4000 28.7000
v 1620.8000 3.4000 31.8000
v 1617.7000 3.4000 31.8000
v 1617.7000 0.0000 28.7000
v 1620.8000 0.0000 28.7000
v 1620.8000 3.4000 28.7000
v 1617.7000 3.4000 28.7000
v 1620.8000 0.0000 31.8000
v 1617.7000 0.0000 31.8000
v 1617.7000 3.4000 31.8000
v 1620.8000 3.4000 31.8000
v 1620.8000 0.0000 28.7000
v 1620.8000 0.0000 31.8000
v 1620.8000 3.4000 31.8000
v 1620.8000 3.4000 28.7000
v 1617.7000 0.0000 31.8000
v 1617.7000 0.0000 28.7000
v 1617.7000 3.4000 28.7000
v 1617.7000 3.4000 31.8000
v 1601.2000 0.0000 31.4500
v 1601.2000 0.0000 34.5500
v 1604.3000 0.0000 34.5500
v 1604.3000 0.0000 31.4500
v 1601.2000 3.4000 31.4500
v 1604.3000 3.4000 31.4500
v 1604.3000 3.4000 34.5500
v 1601.2000 3.4000 34.5500
v 1601.2000 0.0000 31.4500
v 1604.3000 0.0000 31.4500
v 1604.3000 3.4000 31.4500
v 1601.2000 3.4000 31.4500
v 1604.3000 0.0000 34.5500
v 1601.2000 0.0000 34.5500
v 1601.2000 3.4000 34.5500
v 1604.3000 3.4000 34.5500
v 1604.3000 0.0000 31.4500
v 1604.3000 0.0000 34.5500
v 1604.3000 3.4000 34.5500
v 1604.3000 3.4000 31.4500
v 1601.2000 0.0000 34.5500
v 1601.2000 0.0000 31.4500
v 1601.2000 3.4000 31.4500
v 1601.2000 3.4000 34.5500
v 1617.7000 0.0000 31.4500
v 1617.7000 0.0000 34.5500
v 1620.8000 0.0000 34.5500
v 1620.8000 0.0000 31.4500
v 1617.7000 3.4000 31.4500
v 1620.8000 3.4000 31.4500
v 1620.8000 3.4000 34.5500
v 1617.7000 3.4000 34.5500
v 1617.7000 0.0000 31.4500
v 1620.8000 0.0000 31.4500
v 1620.8000 3.4000 31.4500
v 1617.7000 3.4000 31.4500
v 1620.8000 0.0000 34.5500
v 1617.7000 0.0000 34.5500
v 1617.7000 3.4000 34.5500
v 1620.8000 3.4000 34.5500
v 1620.8000 0.0000 31.4500
v 1620.8000 0.0000 34.5500
v 1620.8000 3.4000 34.5500
v 1620.8000 3.4000 31.4500
v 1617.7000 0.0000 34.5500
v 1617.7000 0.0000 31.4500
v 1617.7000 3.4000 31.4500
v 1617.7000 3.4000 34.5500
v 1590.2000 0.0000 34.2000
v 1590.2000 0.0000 37.3000
v 1593.3000 0.0000 37.3000
v 1593.3000 0.0000 34.2000
v 1590.2000 3.4000 34.2000
v 1593.3000 3.4000 34.2000
v 1593.3000 3.4000 37.3000
v 1590.2000 3.4000 37.3000
v 1590.2000 0.0000 34.2000
v 1593.3000 0.0000 34.2000
v 1593.3000 3.4000 34.2000
v 1590.2000 3.4000 34.2000
v 1593.3000 0.0000 37.3000
v 1590.2000 0.0000 37.3000
v 1590.2000 3.4000 37.3000
v 1593.3000 3.4000 37.3000
v 1593.3000 0.0000 34.2000
v 1593.3000 0.0000 37.3000
v 1593.3000 3.4000 37.3000
v 1593.3000 3.4000 34.2000
v 1590.2000 0.0000 37.3000
v 1590.2000 0.0000 34.2000
v 1590.2000 3.4000 34.2000
v 1590.2000 3.4000 37.3000
v 1592.9500 0.0000 34.2000
v 1596.0500 0.0000 34.2000
v 1596.0500 0.0000 37.3000
v 1592.9500 0.0000 37.3000
v 1592.9500 3.4000 34.2000
v 1596.0500 3.4000 34.2000
v 1596.0500 3.4000 37.3000
v 1592.9500 3.4000 37.3000
v 1595.7000 0.0000 34.2000
v 1595.7000 0.0000 37.3000
v 1598.8000 0.0000 37.3000
v 1598.8000 0.0000 34.2000
v 1595.7000 3.4000 34.2000
v 1598.8000 3.4000 34.2000
v 1598.8000 3.4000 37.3000
v 1595.7000 3.4000 37.3000
v 1595.7000 0.0000 34.2000
v 1598.8000 0.0000 34.2000
v 1598.8000 3.4000 34.2000
v 1595.7000 3.4000 34.2000
v 1598.8000 0.0000 37.3000
v 1595.7000 0.0000 37.3000
v 1595.7000 3.4000 37.3000
v 1598.8000 3.4000 37.3000
v 1598.8000 0.0000 34.2000
v 1598.8000 0.0000 37.3000
v 1598.8000 3.4000 37.3000
v 1598.8000 3.4000 34.2000
v 1595.7000 0.0000 37.3000
v 1595.7000 0.0000 34.2000
v 1595.7000 3.4000 34.2000
v 1595.7000 3.4000 37.3000
v 1601.2000 0.0000 34.2000
v 1601.2000 0.0000 37.3000
v 1604.3000 0.0000 37.3000
v 1604.3000 0.0000 34.2000
v 1601.2000 3.4000 34.2000
v 1604.3000 3.4000 34.2000
v 1604.3000 3.4000 37.3000
v 1601.2000 3.4000 37.3000
v 1601.2000 0.0000 34.2000
v 1604.3000 0.0000 34.2000
v 1604.3000 3.4000 34.2000
v 1601.2000 3.4000 34.2000
v 1604.3000 0.0000 37.3000
v 1601.2000 0.0000 37.3000
v 1601.2000 3.4000 37.3000
v 1604.3000 3.4000 37.3000
v 1604.3000 0.0000 34.2000
v 1604.3000 0.0000 37.3000
v 1604.3000 3.4000 37.3000
v 1604.3000 3.4000 34.2000
v 1601.2000 0.0000 37.3000
v 1601.2000 0.0000 34.2000
v 1601.2000 3.4000 34.2000
v 1601.2000 3.4000 37.3000
v 1603.9500 0.0000 34.2000
v 1603.9500 0.0000 37.3000
v 1607.0500 0.0000 37.3000
v 1607.0500 0.0000 34.2000
v 1603.9500 3.4000 34.2000
v 1607.0500 3.4000 34.2000
v 1607.0500 3.4000 37.3000
v 1603.9500 3.4000 37.3000
v 1603.9500 0.0000 34.2000
v 1607.0500 0.0000 34.2000
v 1607.0500 3.4000 34.2000
v 1603.9500 3.4000 34.2000
v 1607.0500 0.0000 37.3000
v 1603.9500 0.0000 37.3000
v 1603.9500 3.4000 37.3000
v 1607.0500 3.4000 37.3000
v 1607.0500 0.0000 34.2000
v 1607.0500 0.0000 37.3000
v 1607.0500 3.4000 37.3000
v 1607.0500 3.4000 34.2000
v 1603.9500 0.0000 37.3000
v 1603.9500 0.0000 34.2000
v 1603.9500 3.4000 34.2000
v 1603.9500 3.4000 37.3000
v 1606.7000 0.0000 34.2000
v 1606.7000 0.0000 37.3000
v 1609.8000 0.0000 37.3000
v 1609.8000 0.0000 34.2000
v 1606.7000 3.4000 34.2000
v 1609.8000 3.4000 34.2000
v 1609.8000 3.4000 37.3000
v 1606.7000 3.4000 37.3000
v 1606.7000 0.0000 34.2000
v 1609.8000 0.0000 34.2000
v 1609.8000 3.4000 34.2000
v 1606.7000 3.4000 34.2000
v 1609.8000 0.0000 37.3000
v 1606.7000 0.0000 37.3000
v 1606.7000 3.4000 37.3000
v 1609.8000 3.4000 37.3000
v 1609.8000 0.0000 34.2000
v 1609.8000 0.0000 37.3000
v 1609.8000 3.4000 37.3000
v 1609.8000 3.4000 34.2000
v 1606.7000 0.0000 37.3000
v 1606.7000 0.0000 34.2000
v 1606.7000 3.4000 34.2000
v 1606.7000 3.4000 37.3000
v 1609.4500 0.0000 34.2000
v 1609.4500 0.0000 37.3000
v 1612.5500 0.0000 37.3000
v 1612.5500 0.0000 34.2000
v 1609.4500 3.4000 34.2000
v 1612.5500 3.4000 34.2000
v 1612.5500 3.4000 37.3000
v 1609.4500 3.4000 37.3000
v 1609.4500 0.0000 34.2000
v 1612.5500 0.0000 34.2000
v 1612.5500 3.4000 34.2000
v 1609.4500 3.4000 34.2000
v 1612.5500 0.0000 37.3000
v 1609.4500 0.0000 37.3000
v 1609.4500 3.4000 37.3000
v 1612.5500 3.4000 37.3000
v 1612.5500 0.0000 34.2000
v 1612.5500 0.0000 37.3000
v 1612.5500 3.4000 37.3000
v 1612.5500 3.4000 34.2000
v 1609.4500 0.0000 37.3000
v 1609.4500 0.0000 34.2000
v 1609.4500 3.4000 34.2000
v 1609.4500 3.4000 37.3000
v 1612.2000 0.0000 34.2000
v 1612.2000 0.0000 37.3000
v 1615.3000 0.0000 37.3000
v 1615.3000 0.0000 34.2000
v 1612.2000 3.4000 34.2000
v 1615.3000 3.4000 34.2000
v 1615.3000 3.4000 37.3000
v 1612.2000 3.4000 37.3000
v 1612.2000 0.0000 34.2000
v 1615.3000 0.0000 34.2000
v 1615.3000 3.4000 34.2000
v 1612.2000 3.4000 34.2000
v 1615.3000 0.0000 37.3000
v 1612.2000 0.0000 37.3000
v 1612.2000 3.4000 37.3000
v 1615.3000 3.4000 37.3000
v 1615.3000 0.0000 34.2000
v 1615.3000 0.0000 37.3000
v 1615.3000 3.4000 37.3000
v 1615.3000 3.4000 34.2000
v 1612.2000 0.0000 37.3000
v 1612.2000 0.0000 34.2000
v 1612.2000 3.4000 34.2000
v 1612.2000 3.4000 37.3000
v 1617.7000 0.0000 34.2000
v 1617.7000 0.0000 37.3000
v 1620.8000 0.0000 37.3000
v 1620.8000 0.0000 34.2000
v 1617.7000 3.4000 34.2000
v 1620.8000 3.4000 34.2000
v 1620.8000 3.4000 37.3000
v 1617.7000 3.4000 37.3000
v 1617.7000 0.0000 34.2000
v 1620.8000 0.0000 34.2000
v 1620.8000 3.4000 34.2000
v 1617.7000 3.4000 34.2000
v 1620.8000 0.0000 37.3000
v 1617.7000 0.0000 37.3000
v 1617.7000 3.4000 37.3000
v 1620.8000 3.4000 37.3000
v 1620.8000 0.0000 34.2000
v 1620.8000 0.0000 37.3000
v 1620.8000 3.4000 37.3000
v 1620.8000 3.4000 34.2000
v 1617.7000 0.0000 37.3000
v 1617.7000 0.0000 34.2000
v 1617.7000 3.4000 34.2000
v 1617.7000 3.4000 37.3000
v 1620.4500 0.0000 34.2000
v 1620.4500 0.0000 37.3000
v 1623.5500 0.0000 37.3000
v 1623.5500 0.0000 34.2000
v 1620.4500 3.4000 34.2000
v 1623.5500 3.4000 34.2000
v 1623.5500 3.4000 37.3000
v 1620.4500 3.4000 37.3000
v 1620.4500 0.0000 34.2000
v 1623.5500 0.0000 34.2000
v 1623.5500 3.4000 34.2000
v 1620.4500 3.4000 34.2000
v 1623.5500 0.0000 37.3000
v 1620.4500 0.0000 37.3000
v 1620.4500 3.4000 37.3000
v 1623.5500 3.4000 37.3000
v 1623.5500 0.0000 34.2000
v 1623.5500 0.0000 37.3000
v 1623.5500 3.4000 37.3000
v 1623.5500 3.4000 34.2000
v 1620.4500 0.0000 37.3000
v 1620.4500 0.0000 34.2000
v 1620.4500 3.4000 34.2000
v 1620.4500 3.4000 37.3000
v 1612.2000 0.0000 36.9500
v 1615.3000 0.0000 36.9500
v 1615.3000 0.0000 40.0500
v 1612.2000 0.0000 40.0500
v 1612.2000 3.4000 36.9500
v 1615.3000 3.4000 36.9500
v 1615.3000 3.4000 40.0500
v 1612.2000 3.4000 40.0500
v 1594.3700 1.9000 27.4200
v 1594.6300 1.9000 27.4200
v 1594.6300 1.9000 27.5800
v 1594.3700 1.9000 27.5800
v 1594.3700 2.2000 27.4200
v 1594.6300 2.2000 27.4200
v 1594.6300 2.2000 27.5800
v 1594.3700 2.2000 27.5800
v 1594.3300 2.2100 27.3900
v 1594.6700 2.2100 27.3900
v 1594.6700 2.2100 27.6100
v 1594.3300 2.2100 27.6100
v 1594.3300 2.2700 27.3900
v 1594.6700 2.2700 27.3900
v 1594.6700 2.2700 27.6100
v 1594.3300 2.2700 27.6100
v 1610.8700 1.9000 27.4200
v 1611.1300 1.9000 27.4200
v 1611.1300 1.9000 27.5800
v 1610.8700 1.9000 27.5800
v 1610.8700 2.2000 27.4200
v 1611.1300 2.2000 27.4200
v 1611.1300 2.2000 27.5800
v 1610.8700 2.2000 27.5800
v 1610.8300 2.2100 27.3900
v 1611.1700 2.2100 27.3900
v 1611.1700 2.2100 27.6100
v 1610.8300 2.2100 27.6100
v 1610.8300 2.2700 27.3900
v 1611.1700 2.2700 27.3900
v 1611.1700 2.2700 27.6100
v 1610.8300 2.2700 27.6100
v 1616.3700 1.9000 27.4200
v 1616.6300 1.9000 27.4200
v 1616.6300 1.9000 27.5800
v 1616.3700 1.9000 27.5800
v 1616.3700 2.2000 27.4200
v 1616.6300 2.2000 27.4200
v 1616.6300 2.2000 27.5800
v 1616.3700 2.2000 27.5800
v 1616.3300 2.2100 27.3900
v 1616.6700 2.2100 27.3900
v 1616.6700 2.2100 27.6100
v 1616.3300 2.2100 27.6100
v 1616.3300 2.2700 27.3900
v 1616.6700 2.2700 27.3900
v 1616.6700 2.2700 27.6100
v 1616.3300 2.2700 27.6100
v 1621.8700 1.9000 27.4200
v 1622.1300 1.9000 27.4200
v 1622.1300 1.9000 27.5800
v 1621.8700 1.9000 27.5800
v 1621.8700 2.2000 27.4200
v 1622.1300 2.2000 27.4200
v 1622.1300 2.2000 27.5800
v 1621.8700 2.2000 27.5800
v 1621.8300 2.2100 27.3900
v 1622.1700 2.2100 27.3900
v 1622.1700 2.2100 27.6100
v 1621.8300 2.2100 27.6100
v 1621.8300 2.2700 27.3900
v 1622.1700 2.2700 27.3900
v 1622.1700 2.2700 27.6100
v 1621.8300 2.2700 27.6100
v 1594.3700 1.9000 32.9200
v 1594.6300 1.9000 32.9200
v 1594.6300 1.9000 33.0800
v 1594.3700 1.9000 33.0800
v 1594.3700 2.2000 32.9200
v 1594.6300 2.2000 32.9200
v 1594.6300 2.2000 33.0800
v 1594.3700 2.2000 33.0800
v 1594.3300 2.2100 32.8900
v 1594.6700 2.2100 32.8900
v 1594.6700 2.2100 33.1100
v 1594.3300 2.2100 33.1100
v 1594.3300 2.2700 32.8900
v 1594.6700 2.2700 32.8900
v 1594.6700 2.2700 33.1100
v 1594.3300 2.2700 33.1100
v 1610.8700 1.9000 32.9200
v 1611.1300 1.9000 32.9200
v 1611.1300 1.9000 33.0800
v 1610.8700 1.9000 33.0800
v 1610.8700 2.2000 32.9200
v 1611.1300 2.2000 32.9200
v 1611.1300 2.2000 33.0800
v 1610.8700 2.2000 33.0800
v 1610.8300 2.2100 32.8900
v 1611.1700 2.2100 32.8900
v 1611.1700 2.2100 33.1100
v 1610.8300 2.2100 33.1100
v 1610.8300 2.2700 32.8900
v 1611.1700 2.2700 32.8900
v 1611.1700 2.2700 33.1100
v 1610.8300 2.2700 33.1100
v 1616.3700 1.9000 32.9200
v 1616.6300 1.9000 32.9200
v 1616.6300 1.9000 33.0800
v 1616.3700 1.9000 33.0800
v 1616.3700 2.2000 32.9200
v 1616.6300 2.2000 32.9200
v 1616.6300 2.2000 33.0800
v 1616.3700 2.2000 33.0800
v 1616.3300 2.2100 32.8900
v 1616.6700 2.2100 32.8900
v 1616.6700 2.2100 33.1100
v 1616.3300 2.2100 33.1100
v 1616.3300 2.2700 32.8900
v 1616.6700 2.2700 32.8900
v 1616.6700 2.2700 33.1100
v 1616.3300 2.2700 33.1100
v 1621.8700 1.9000 32.9200
v 1622.1300 1.9000 32.9200
v 1622.1300 1.9000 33.0800
v 1621.8700 1.9000 33.0800
v 1621.8700 2.2000 32.9200
v 1622.1300 2.2000 32.9200
v 1622.1300 2.2000 33.0800
v 1621.8700 2.2000 33.0800
v 1621.8300 2.2100 32.8900
v 1622.1700 2.2100 32.8900
v 1622.1700 2.2100 33.1100
v 1621.8300 2.2100 33.1100
v 1621.8300 2.2700 32.8900
v 1622.1700 2.2700 32.8900
v 1622.1700 2.2700 33.1100
v 1621.8300 2.2700 33.1100
v 1605.3700 1.9000 38.4200
v 1605.6300 1.9000 38.4200
v 1605.6300 1.9000 38.5800
v 1605.3700 1.9000 38.5800
v 1605.3700 2.2000 38.4200
v 1605.6300 2.2000 38.4200
v 1605.6300 2.2000 38.5800
v 1605.3700 2.2000 38.5800
v 1605.3300 2.2100 38.3900
v 1605.6700 2.2100 38.3900
v 1605.6700 2.2100 38.6100
v 1605.3300 2.2100 38.6100
v 1605.3300 2.2700 38.3900
v 1605.6700 2.2700 38.3900
v 1605.6700 2.2700 38.6100
v 1605.3300 2.2700 38.6100
v 1610.8700 1.9000 38.4200
v 1611.1300 1.9000 38.4200
v 1611.1300 1.9000 38.5800
v 1610.8700 1.9000 38.5800
v 1610.8700 2.2000 38.4200
v 1611.1300 2.2000 38.4200
v 1611.1300 2.2000 38.5800
v 1610.8700 2.2000 38.5800
v 1610.8300 2.2100 38.3900
v 1611.1700 2.2100 38.3900
v 1611.1700 2.2100 38.6100
v 1610.8300 2.2100 38.6100
v 1610.8300 2.2700 38.3900
v 1611.1700 2.2700 38.3900
v 1611.1700 2.2700 38.6100
v 1610.8300 2.2700 38.6100
v 1590.1700 0.0050 24.2750
v 1590.2300 0.0050 24.2750
v 1590.2300 0.0050 25.2250
v 1590.1700 0.0050 25.2250
v 1590.1700 2.0550 24.2750
v 1590.2300 2.0550 24.2750
v 1590.2300 2.0550 25.2250
v 1590.1700 2.0550 25.2250
v 1590.1250 0.9450 24.1880
v 1590.1950 0.9450 24.1880
v 1590.1950 0.9450 24.2580
v 1590.1250 0.9450 24.2580
v 1590.1250 1.0150 24.1880
v 1590.1950 1.0150 24.1880
v 1590.1950 1.0150 24.2580
v 1590.1250 1.0150 24.2580
v 1594.0250 0.0050 26.2700
v 1594.9750 0.0050 26.2700
v 1594.9750 0.0050 26.3300
v 1594.0250 0.0050 26.3300
v 1594.0250 2.0550 26.2700
v 1594.9750 2.0550 26.2700
v 1594.9750 2.0550 26.3300
v 1594.0250 2.0550 26.3300
v 1593.9380 0.9450 26.3050
v 1594.0080 0.9450 26.3050
v 1594.0080 0.9450 26.3750
v 1593.9380 0.9450 26.3750
v 1593.9380 1.0150 26.3050
v 1594.0080 1.0150 26.3050
v 1594.0080 1.0150 26.3750
v 1593.9380 1.0150 26.3750
v 1599.5250 0.0050 23.1700
v 1600.4750 0.0050 23.1700
v 1600.4750 0.0050 23.2300
v 1599.5250 0.0050 23.2300
v 1599.5250 2.0550 23.1700
v 1600.4750 2.0550 23.1700
v 1600.4750 2.0550 23.2300
v 1599.5250 2.0550 23.2300
v 1600.4920 0.9450 23.1250
v 1600.5620 0.9450 23.1250
v 1600.5620 0.9450 23.1950
v 1600.4920 0.9450 23.1950
v 1600.4920 1.0150 23.1250
v 1600.5620 1.0150 23.1250
v 1600.5620 1.0150 23.1950
v 1600.4920 1.0150 23.1950
v 1606.6700 0.0050 24.2750
v 1606.7300 0.0050 24.2750
v 1606.7300 0.0050 25.2250
v 1606.6700 0.0050 25.2250
v 1606.6700 2.0550 24.2750
v 1606.7300 2.0550 24.2750
v 1606.7300 2.0550 25.2250
v 1606.6700 2.0550 25.2250
v 1606.6250 0.9450 24.1880
v 1606.6950 0.9450 24.1880
v 1606.6950 0.9450 24.2580
v 1606.6250 0.9450 24.2580
v 1606.6250 1.0150 24.1880
v 1606.6950 1.0150 24.1880
v 1606.6950 1.0150 24.2580
v 1606.6250 1.0150 24.2580
v 1596.7750 0.0050 31.7700
v 1597.7250 0.0050 31.7700
v 1597.7250 0.0050 31.8300
v 1596.7750 0.0050 31.8300
v 1596.7750 2.0550 31.7700
v 1597.7250 2.0550 31.7700
v 1597.7250 2.0550 31.8300
v 1596.7750 2.0550 31.8300
v 1596.6880 0.9450 31.8050
v 1596.7580 0.9450 31.8050
v 1596.7580 0.9450 31.8750
v 1596.6880 0.9450 31.8750
v 1596.6880 1.0150 31.8050
v 1596.7580 1.0150 31.8050
v 1596.7580 1.0150 31.8750
v 1596.6880 1.0150 31.8750
v 1601.1700 0.0050 32.5250
v 1601.2300 0.0050 32.5250
v 1601.2300 0.0050 33.4750
v 1601.1700 0.0050 33.4750
v 1601.1700 2.0550 32.5250
v 1601.2300 2.0550 32.5250
v 1601.2300 2.0550 33.4750
v 1601.1700 2.0550 33.4750
v 1601.1250 0.9450 32.4380
v 1601.1950 0.9450 32.4380
v 1601.1950 0.9450 32.5080
v 1601.1250 0.9450 32.5080
v 1601.1250 1.0150 32.4380
v 1601.1950 1.0150 32.4380
v 1601.1950 1.0150 32.5080
v 1601.1250 1.0150 32.5080
v 1590.1700 0.0050 35.2750
v 1590.2300 0.0050 35.2750
v 1590.2300 0.0050 36.2250
v 1590.1700 0.0050 36.2250
v 1590.1700 2.0550 35.2750
v 1590.2300 2.0550 35.2750
v 1590.2300 2.0550 36.2250
v 1590.1700 2.0550 36.2250
v 1590.1250 0.9450 35.1880
v 1590.1950 0.9450 35.1880
v 1590.1950 0.9450 35.2580
v 1590.1250 0.9450 35.2580
v 1590.1250 1.0150 35.1880
v 1590.1950 1.0150 35.1880
v 1590.1950 1.0150 35.2580
v 1590.1250 1.0150 35.2580
v 1596.7750 0.0050 37.2700
v 1597.7250 0.0050 37.2700
v 1597.7250 0.0050 37.3300
v 1596.7750 0.0050 37.3300
v 1596.7750 2.0550 37.2700
v 1597.7250 2.0550 37.2700
v 1597.7250 2.0550 37.3300
v 1596.7750 2.0550 37.3300
v 1596.6880 0.9450 37.3050
v 1596.7580 0.9450 37.3050
v 1596.7580 0.9450 37.3750
v 1596.6880 0.9450 37.3750
v 1596.6880 1.0150 37.3050
v 1596.7580 1.0150 37.3050
v 1596.7580 1.0150 37.3750
v 1596.6880 1.0150 37.3750
v 1605.0250 0.0050 37.2700
v 1605.9750 0.0050 37.2700
v 1605.9750 0.0050 37.3300
v 1605.0250 0.0050 37.3300
v 1605.0250 2.0550 37.2700
v 1605.9750 2.0550 37.2700
v 1605.9750 2.0550 37.3300
v 1605.0250 2.0550 37.3300
v 1604.9380 0.9450 37.3050
v 1605.0080 0.9450 37.3050
v 1605.0080 0.9450 37.3750
v 1604.9380 0.9450 37.3750
v 1604.9380 1.0150 37.3050
v 1605.0080 1.0150 37.3050
v 1605.0080 1.0150 37.3750
v 1604.9380 1.0150 37.3750
v 1618.7750 0.0050 37.2700
v 1619.7250 0.0050 37.2700
v 1619.7250 0.0050 37.3300
v 1618.7750 0.0050 37.3300
v 1618.7750 2.0550 37.2700
v 1619.7250 2.0550 37.2700
v 1619.7250 2.0550 37.3300
v 1618.7750 2.0550 37.3300
v 1618.6880 0.9450 37.3050
v 1618.7580 0.9450 37.3050
v 1618.7580 0.9450 37.3750
v 1618.6880 0.9450 37.3750
v 1618.6880 1.0150 37.3050
v 1618.7580 1.0150 37.3050
v 1618.7580 1.0150 37.3750
v 1618.6880 1.0150 37.3750
v 1621.5250 0.0050 37.2700
v 1622.4750 0.0050 37.2700
v 1622.4750 0.0050 37.3300
v 1621.5250 0.0050 37.3300
v 1621.5250 2.0550 37.2700
v 1622.4750 2.0550 37.2700
v 1622.4750 2.0550 37.3300
v 1621.5250 2.0550 37.3300
v 1621.4380 0.9450 37.3050
v 1621.5080 0.9450 37.3050
v 1621.5080 0.9450 37.3750
v 1621.4380 0.9450 37.3750
v 1621.4380 1.0150 37.3050
v 1621.5080 1.0150 37.3050
v 1621.5080 1.0150 37.3750
v 1621.4380 1.0150 37.3750
v 1612.1700 0.0050 38.0250
v 1612.2300 0.0050 38.0250
v 1612.2300 0.0050 38.9750
v 1612.1700 0.0050 38.9750
v 1612.1700 2.0550 38.0250
v 1612.2300 2.0550 38.0250
v 1612.2300 2.0550 38.9750
v 1612.1700 2.0550 38.9750
v 1612.1250 0.9450 37.9380
v 1612.1950 0.9450 37.9380
v 1612.1950 0.9450 38.0080
v 1612.1250 0.9450 38.0080
v 1612.1250 1.0150 37.9380
v 1612.1950 1.0150 37.9380
v 1612.1950 1.0150 38.0080
v 1612.1250 1.0150 38.0080
v 1596.7750 0.0050 39.6700
v 1597.7250 0.0050 39.6700
v 1597.7250 0.0050 39.7300
v 1596.7750 0.0050 39.7300
v 1596.7750 2.0550 39.6700
v 1597.7250 2.0550 39.6700
v 1597.7250 2.0550 39.7300
v 1596.7750 2.0550 39.7300
v 1597.7420 0.9450 39.6250
v 1597.8120 0.9450 39.6250
v 1597.8120 0.9450 39.6950
v 1597.7420 0.9450 39.6950
v 1597.7420 1.0150 39.6250
v 1597.8120 1.0150 39.6250
v 1597.8120 1.0150 39.6950
v 1597.7420 1.0150 39.6950
v 1602.2750 0.0050 39.6700
v 1603.2250 0.0050 39.6700
v 1603.2250 0.0050 39.7300
v 1602.2750 0.0050 39.7300
v 1602.2750 2.0550 39.6700
v 1603.2250 2.0550 39.6700
v 1603.2250 2.0550 39.7300
v 1602.2750 2.0550 39.7300
v 1603.2420 0.9450 39.6250
v 1603.3120 0.9450 39.6250
v 1603.3120 0.9450 39.6950
v 1603.2420 0.9450 39.6950
v 1603.2420 1.0150 39.6250
v 1603.3120 1.0150 39.6250
v 1603.3120 1.0150 39.6950
v 1603.2420 1.0150 39.6950
v 1621.5250 0.0050 39.6700
v 1622.4750 0.0050 39.6700
v 1622.4750 0.0050 39.7300
v 1621.5250 0.0050 39.7300
v 1621.5250 2.0550 39.6700
v 1622.4750 2.0550 39.6700
v 1622.4750 2.0550 39.7300
v 1621.5250 2.0550 39.7300
v 1622.4920 0.9450 39.6250
v 1622.5620 0.9450 39.6250
v 1622.5620 0.9450 39.6950
v 1622.4920 0.9450 39.6950
v 1622.4920 1.0150 39.6250
v 1622.5620 1.0150 39.6250
v 1622.5620 1.0150 39.6950
v 1622.4920 1.0150 39.6950
vt 993.8750 14.5000
vt 993.8750 16.4375
vt 995.8125 16.4375
vt 995.8125 14.5000
vt 993.8750 14.5000
vt 995.8125 14.5000
vt 995.8125 16.4375
vt 993.8750 16.4375
vt 993.8750 0.0000
vt 995.8125 0.0000
vt 995.8125 2.1250
vt 993.8750 2.1250
vt 995.8125 0.0000
vt 993.8750 0.0000
vt 993.8750 2.1250
vt 995.8125 2.1250
vt 14.5000 0.0000
vt 16.4375 0.0000
vt 16.4375 2.1250
vt 14.5000 2.1250
vt 16.4375 0.0000
vt 14.5000 0.0000
vt 14.5000 2.1250
vt 16.4375 2.1250
vt 995.5938 14.5000
vt 995.5938 16.4375
vt 997.5312 16.4375
vt 997.5312 14.5000
vt 995.5938 14.5000
vt 997.5312 14.5000
vt 997.5312 16.4375
vt 995.5938 16.4375
vt 995.5938 0.0000
vt 997.5312 0.0000
vt 997.5312 2.1250
vt 995.5938 2.1250
vt 997.5312 0.0000
vt 995.5938 0.0000
vt 995.5938 2.1250
vt 997.5312 2.1250
vt 14.5000 0.0000
vt 16.4375 0.0000
vt 16.4375 2.1250
vt 14.5000 2.1250
vt 16.4375 0.0000
vt 14.5000 0.0000
vt 14.5000 2.1250
vt 16.4375 2.1250
vt 997.3125 14.5000
vt 997.3125 16.4375
vt 999.2500 16.4375
vt 999.2500 14.5000
vt 997.3125 14.5000
vt 999.2500 14.5000
vt 999.2500 16.4375
vt 997.3125 16.4375
vt 997.3125 0.0000
vt 999.2500 0.0000
vt 999.2500 2.1250
vt 997.3125 2.1250
vt 999.2500 0.0000
vt 997.3125 0.0000
vt 997.3125 2.1250
vt 999.2500 2.1250
vt 14.5000 0.0000
vt 16.4375 0.0000
vt 16.4375 2.1250
vt 14.5000 2.1250
vt 16.4375 0.0000
vt 14.5000 0.0000
vt 14.5000 2.1250
vt 16.4375 2.1250
vt 1004.1875 14.5000
vt 1004.1875 16.4375
vt 1006.1250 16.4375
vt 1006.1250 14.5000
vt 1004.1875 14.5000
vt 1006.1250 14.5000
vt 1006.1250 16.4375
vt 1004.1875 16.4375
vt 1004.1875 0.0000
vt 1006.1250 0.0000
vt 1006.1250 2.1250
vt 1004.1875 2.1250
vt 1006.1250 0.0000
vt 1004.1875 0.0000
vt 1004.1875 2.1250
vt 1006.1250 2.1250
vt 14.5000 0.0000
vt 16.4375 0.0000
vt 16.4375 2.1250
vt 14.5000 2.1250
vt 16.4375 0.0000
vt 14.5000 0.0000
vt 14.5000 2.1250
vt 16.4375 2.1250
vt 1007.6250 14.5000
vt 1007.6250 16.4375
vt 1009.5625 16.4375
vt 1009.5625 14.5000
vt 1007.6250 14.5000
vt 1009.5625 14.5000
vt 1009.5625 16.4375
vt 1007.6250 16.4375
vt 1007.6250 0.0000
vt 1009.5625 0.0000
vt 1009.5625 2.1250
vt 1007.6250 2.1250
vt 1009.5625 0.0000
vt 1007.6250 0.0000
vt 1007.6250 2.1250
vt 1009.5625 2.1250
vt 14.5000 0.0000
vt 16.4375 0.0000
vt 16.4375 2.1250
vt 14.5000 2.1250
vt 16.4375 0.0000
vt 14.5000 0.0000
vt 14.5000 2.1250
vt 16.4375 2.1250
vt 1009.3438 14.5000
vt 1009.3438 16.4375
vt 1011.2812 16.4375
vt 1011.2812 14.5000
vt 1009.3438 14.5000
vt 1011.2812 14.5000
vt 1011.2812 16.4375
vt 1009.3438 16.4375
vt 1009.3438 0.0000
vt 1011.2812 0.0000
vt 1011.2812 2.1250
vt 1009.3438 2.1250
vt 1011.2812 0.0000
vt 1009.3438 0.0000
vt 1009.3438 2.1250
vt 1011.2812 2.1250
vt 14.5000 0.0000
vt 16.4375 0.0000
vt 16.4375 2.1250
vt 14.5000 2.1250
vt 16.4375 0.0000
vt 14.5000 0.0000
vt 14.5000 2.1250
vt 16.4375 2.1250
vt 1012.7812 14.5000
vt 1012.7812 16.4375
vt 1014.7187 16.4375
vt 1014.7187 14.5000
vt 1012.7812 14.5000
vt 1014.7187 14.5000
vt 1014.7187 16.4375
vt 1012.7812 16.4375
vt 1012.7812 0.0000
vt 1014.7187 0.0000
vt 1014.7187 2.1250
vt 1012.7812 2.1250
vt 1014.7187 0.0000
vt 1012.7812 0.0000
vt 1012.7812 2.1250
vt 1014.7187 2.1250
vt 14.5000 0.0000
vt 16.4375 0.0000
vt 16.4375 2.1250
vt 14.5000 2.1250
vt 16.4375 0.0000
vt 14.5000 0.0000
vt 14.5000 2.1250
vt 16.4375 2.1250
vt 993.8750 17.9375
vt 993.8750 19.8750
vt 995.8125 19.8750
vt 995.8125 17.9375
vt 993.8750 17.9375
vt 995.8125 17.9375
vt 995.8125 19.8750
vt 993.8750 19.8750
vt 993.8750 0.0000
vt 995.8125 0.0000
vt 995.8125 2.1250
vt 993.8750 2.1250
vt 995.8125 0.0000
vt 993.8750 0.0000
vt 993.8750 2.1250
vt 995.8125 2.1250
vt 17.9375 0.0000
vt 19.8750 0.0000
vt 19.8750 2.1250
vt 17.9375 2.1250
vt 19.8750 0.0000
vt 17.9375 0.0000
vt 17.9375 2.1250
vt 19.8750 2.1250
vt 995.5938 17.9375
vt 995.5938 19.8750
vt 997.5312 19.8750
vt 997.5312 17.9375
vt 995.5938 17.9375
vt 997.5312 17.9375
vt 997.5312 19.8750
vt 995.5938 19.8750
vt 995.5938 0.0000
vt 997.5312 0.0000
vt 997.5312 2.1250
vt 995.5938 2.1250
vt 997.5312 0.0000
vt 995.5938 0.0000
vt 995.5938 2.1250
vt 997.5312 2.1250
vt 17.9375 0.0000
vt 19.8750 0.0000
vt 19.8750 2.1250
vt 17.9375 2.1250
vt 19.8750 0.0000
vt 17.9375 0.0000
vt 17.9375 2.1250
vt 19.8750 2.1250
vt 1000.7500 17.9375
vt 1000.7500 19.8750
vt 1002.6875 19.8750
vt 1002.6875 17.9375
vt 1000.7500 17.9375
vt 1002.6875 17.9375
vt 1002.6875 19.8750
vt 1000.7500 19.8750
vt 1000.7500 0.0000
vt 1002.6875 0.0000
vt 1002.6875 2.1250
vt 1000.7500 2.1250
vt 1002.6875 0.0000
vt 1000.7500 0.0000
vt 1000.7500 2.1250
vt 1002.6875 2.1250
vt 17.9375 0.0000
vt 19.8750 0.0000
vt 19.8750 2.1250
vt 17.9375 2.1250
vt 19.8750 0.0000
vt 17.9375 0.0000
vt 17.9375 2.1250
vt 19.8750 2.1250
vt 1011.0625 17.9375
vt 1011.0625 19.8750
vt 1013.0000 19.8750
vt 1013.0000 17.9375
vt 1011.0625 17.9375
vt 1013.0000 17.9375
vt 1013.0000 19.8750
vt 1011.0625 19.8750
vt 1011.0625 0.0000
vt 1013.0000 0.0000
vt 1013.0000 2.1250
vt 1011.0625 2.1250
vt 1013.0000 0.0000
vt 1011.0625 0.0000
vt 1011.0625 2.1250
vt 1013.0000 2.1250
vt 17.9375 0.0000
vt 19.8750 0.0000
vt 19.8750 2.1250
vt 17.9375 2.1250
vt 19.8750 0.0000
vt 17.9375 0.0000
vt 17.9375 2.1250
vt 19.8750 2.1250
vt 1000.7500 19.6562
vt 1000.7500 21.5937
vt 1002.6875 21.5937
vt 1002.6875 19.6562
vt 1000.7500 19.6562
vt 1002.6875 19.6562
vt 1002.6875 21.5937
vt 1000.7500 21.5937
vt 1000.7500 0.0000
vt 1002.6875 0.0000
vt 1002.6875 2.1250
vt 1000.7500 2.1250
vt 1002.6875 0.0000
vt 1000.7500 0.0000
vt 1000.7500 2.1250
vt 1002.6875 2.1250
vt 19.6562 0.0000
vt 21.5937 0.0000
vt 21.5937 2.1250
vt 19.6562 2.1250
vt 21.5937 0.0000
vt 19.6562 0.0000
vt 19.6562 2.1250
vt 21.5937 2.1250
vt 1011.0625 19.6562
vt 1011.0625 21.5937
vt 1013.0000 21.5937
vt 1013.0000 19.6562
vt 1011.0625 19.6562
vt 1013.0000 19.6562
vt 1013.0000 21.5937
vt 1011.0625 21.5937
vt 1011.0625 0.0000
vt 1013.0000 0.0000
vt 1013.0000 2.1250
vt 1011.0625 2.1250
vt 1013.0000 0.0000
vt 1011.0625 0.0000
vt 1011.0625 2.1250
vt 1013.0000 2.1250
vt 19.6562 0.0000
vt 21.5937 0.0000
vt 21.5937 2.1250
vt 19.6562 2.1250
vt 21.5937 0.0000
vt 19.6562 0.0000
vt 19.6562 2.1250
vt 21.5937 2.1250
vt 993.8750 21.3750
vt 993.8750 23.3125
vt 995.8125 23.3125
vt 995.8125 21.3750
vt 993.8750 21.3750
vt 995.8125 21.3750
vt 995.8125 23.3125
vt 993.8750 23.3125
vt 993.8750 0.0000
vt 995.8125 0.0000
vt 995.8125 2.1250
vt 993.8750 2.1250
vt 995.8125 0.0000
vt 993.8750 0.0000
vt 993.8750 2.1250
vt 995.8125 2.1250
vt 21.3750 0.0000
vt 23.3125 0.0000
vt 23.3125 2.1250
vt 21.3750 2.1250
vt 23.3125 0.0000
vt 21.3750 0.0000
vt 21.3750 2.1250
vt 23.3125 2.1250
vt 997.3125 21.3750
vt 997.3125 23.3125
vt 999.2500 23.3125
vt 999.2500 21.3750
vt 997.3125 21.3750
vt 999.2500 21.3750
vt 999.2500 23.3125
vt 997.3125 23.3125
vt 997.3125 0.0000
vt 999.2500 0.0000
vt 999.2500 2.1250
vt 997.3125 2.1250
vt 999.2500 0.0000
vt 997.3125 0.0000
vt 997.3125 2.1250
vt 999.2500 2.1250
vt 21.3750 0.0000
vt 23.3125 0.0000
vt 23.3125 2.1250
vt 21.3750 2.1250
vt 23.3125 0.0000
vt 21.3750 0.0000
vt 21.3750 2.1250
vt 23.3125 2.1250
vt 1000.7500 21.3750
vt 1000.7500 23.3125
vt 1002.6875 23.3125
vt 1002.6875 21.3750
vt 1000.7500 21.3750
vt 1002.6875 21.3750
vt 1002.6875 23.3125
vt 1000.7500 23.3125
vt 1000.7500 0.0000
vt 1002.6875 0.0000
vt 1002.6875 2.1250
vt 1000.7500 2.1250
vt 1002.6875 0.0000
vt 1000.7500 0.0000
vt 1000.7500 2.1250
vt 1002.6875 2.1250
vt 21.3750 0.0000
vt 23.3125 0.0000
vt 23.3125 2.1250
vt 21.3750 2.1250
vt 23.3125 0.0000
vt 21.3750 0.0000
vt 21.3750 2.1250
vt 23.3125 2.1250
vt 1002.4688 21.3750
vt 1002.4688 23.3125
vt 1004.4062 23.3125
vt 1004.4062 21.3750
vt 1002.4688 21.3750
vt 1004.4062 21.3750
vt 1004.4062 23.3125
vt 1002.4688 23.3125
vt 1002.4688 0.0000
vt 1004.4062 0.0000
vt 1004.4062 2.1250
vt 1002.4688 2.1250
vt 1004.4062 0.0000
vt 1002.4688 0.0000
vt 1002.4688 2.1250
vt 1004.4062 2.1250
vt 21.3750 0.0000
vt 23.3125 0.0000
vt 23.3125 2.1250
vt 21.3750 2.1250
vt 23.3125 0.0000
vt 21.3750 0.0000
vt 21.3750 2.1250
vt 23.3125 2.1250
vt 1004.1875 21.3750
vt 1004.1875 23.3125
vt 1006.1250 23.3125
vt 1006.1250 21.3750
vt 1004.1875 21.3750
vt 1006.1250 21.3750
vt 1006.1250 23.3125
vt 1004.1875 23.3125
vt 1004.1875 0.0000
vt 1006.1250 0.0000
vt 1006.1250 2.1250
vt 1004.1875 2.1250
vt 1006.1250 0.0000
vt 1004.1875 0.0000
vt 1004.1875 2.1250
vt 1006.1250 2.1250
vt 21.3750 0.0000
vt 23.3125 0.0000
vt 23.3125 2.1250
vt 21.3750 2.1250
vt 23.3125 0.0000
vt 21.3750 0.0000
vt 21.3750 2.1250
vt 23.3125 2.1250
vt 1005.9062 21.3750
vt 1005.9062 23.3125
vt 1007.8437 23.3125
vt 1007.8437 21.3750
vt 1005.9062 21.3750
vt 1007.8437 21.3750
vt 1007.8437 23.3125
vt 1005.9062 23.3125
vt 1005.9062 0.0000
vt 1007.8437 0.0000
vt 1007.8437 2.1250
vt 1005.9062 2.1250
vt 1007.8437 0.0000
vt 1005.9062 0.0000
vt 1005.9062 2.1250
vt 1007.8437 2.1250
vt 21.3750 0.0000
vt 23.3125 0.0000
vt 23.3125 2.1250
vt 21.3750 2.1250
vt 23.3125 0.0000
vt 21.3750 0.0000
vt 21.3750 2.1250
vt 23.3125 2.1250
vt 1007.6250 21.3750
vt 1007.6250 23.3125
vt 1009.5625 23.3125
vt 1009.5625 21.3750
vt 1007.6250 21.3750
vt 1009.5625 21.3750
vt 1009.5625 23.3125
vt 1007.6250 23.3125
vt 1007.6250 0.0000
vt 1009.5625 0.0000
vt 1009.5625 2.1250
vt 1007.6250 2.1250
vt 1009.5625 0.0000
vt 1007.6250 0.0000
vt 1007.6250 2.1250
vt 1009.5625 2.1250
vt 21.3750 0.0000
vt 23.3125 0.0000
vt 23.3125 2.1250
vt 21.3750 2.1250
vt 23.3125 0.0000
vt 21.3750 0.0000
vt 21.3750 2.1250
vt 23.3125 2.1250
vt 1011.0625 21.3750
vt 1011.0625 23.3125
vt 1013.0000 23.3125
vt 1013.0000 21.3750
vt 1011.0625 21.3750
vt 1013.0000 21.3750
vt 1013.0000 23.3125
vt 1011.0625 23.3125
vt 1011.0625 0.0000
vt 1013.0000 0.0000
vt 1013.0000 2.1250
vt 1011.0625 2.1250
vt 1013.0000 0.0000
vt 1011.0625 0.0000
vt 1011.0625 2.1250
vt 1013.0000 2.1250
vt 21.3750 0.0000
vt 23.3125 0.0000
vt 23.3125 2.1250
vt 21.3750 2.1250
vt 23.3125 0.0000
vt 21.3750 0.0000
vt 21.3750 2.1250
vt 23.3125 2.1250
vt 1012.7812 21.3750
vt 1012.7812 23.3125
vt 1014.7187 23.3125
vt 1014.7187 21.3750
vt 1012.7812 21.3750
vt 1014.7187 21.3750
vt 1014.7187 23.3125
vt 1012.7812 23.3125
vt 1012.7812 0.0000
vt 1014.7187 0.0000
vt 1014.7187 2.1250
vt 1012.7812 2.1250
vt 1014.7187 0.0000
vt 1012.7812 0.0000
vt 1012.7812 2.1250
vt 1014.7187 2.1250
vt 21.3750 0.0000
vt 23.3125 0.0000
vt 23.3125 2.1250
vt 21.3750 2.1250
vt 23.3125 0.0000
vt 21.3750 0.0000
vt 21.3750 2.1250
vt 23.3125 2.1250
usemtl hotel_paper_alt
f 73 76 75 74
f 77 78 79 80
f 73 74 78 77
f 75 76 80 79
f 74 75 79 78
f 76 73 77 80
f 81 84 83 82
f 85 86 87 88
f 81 82 86 85
f 83 84 88 87
f 82 83 87 86
f 84 81 85 88
f 161 164 163 162
f 165 166 167 168
f 161 162 166 165
f 163 164 168 167
f 162 163 167 166
f 164 161 165 168
f 241 244 243 242
f 245 246 247 248
f 241 242 246 245
f 243 244 248 247
f 242 243 247 246
f 244 241 245 248
f 369 372 371 370
f 373 374 375 376
f 369 370 374 373
f 371 372 376 375
f 370 371 375 374
f 372 369 373 376
f 569 572 571 570
f 573 574 575 576
f 569 570 574 573
f 571 572 576 575
f 570 571 575 574
f 572 569 573 576
usemtl lamp_warm
f 577 580 579 578
f 581 582 583 584
f 577 578 582 581
f 579 580 584 583
f 578 579 583 582
f 580 577 581 584
usemtl hotel_trim
f 585 588 587 586
f 589 590 591 592
f 585 586 590 589
f 587 588 592 591
f 586 587 591 590
f 588 585 589 592
usemtl lamp_warm
f 593 596 595 594
f 597 598 599 600
f 593 594 598 597
f 595 596 600 599
f 594 595 599 598
f 596 593 597 600
usemtl hotel_trim
f 601 604 603 602
f 605 606 607 608
f 601 602 606 605
f 603 604 608 607
f 602 603 607 606
f 604 601 605 608
usemtl lamp_warm
f 609 612 611 610
f 613 614 615 616
f 609 610 614 613
f 611 612 616 615
f 610 611 615 614
f 612 609 613 616
usemtl hotel_trim
f 617 620 619 618
f 621 622 623 624
f 617 618 622 621
f 619 620 624 623
f 618 619 623 622
f 620 617 621 624
usemtl lamp_warm
f 625 628 627 626
f 629 630 631 632
f 625 626 630 629
f 627 628 632 631
f 626 627 631 630
f 628 625 629 632
usemtl hotel_trim
f 633 636 635 634
f 637 638 639 640
f 633 634 638 637
f 635 636 640 639
f 634 635 639 638
f 636 633 637 640
usemtl lamp_warm
f 641 644 643 642
f 645 646 647 648
f 641 642 646 645
f 643 644 648 647
f 642 643 647 646
f 644 641 645 648
usemtl hotel_trim
f 649 652 651 650
f 653 654 655 656
f 649 650 654 653
f 651 652 656 655
f 650 651 655 654
f 652 649 653 656
usemtl lamp_warm
f 657 660 659 658
f 661 662 663 664
f 657 658 662 661
f 659 660 664 663
f 658 659 663 662
f 660 657 661 664
usemtl hotel_trim
f 665 668 667 666
f 669 670 671 672
f 665 666 670 669
f 667 668 672 671
f 666 667 671 670
f 668 665 669 672
usemtl lamp_warm
f 673 676 675 674
f 677 678 679 680
f 673 674 678 677
f 675 676 680 679
f 674 675 679 678
f 676 673 677 680
usemtl hotel_trim
f 681 684 683 682
f 685 686 687 688
f 681 682 686 685
f 683 684 688 687
f 682 683 687 686
f 684 681 685 688
usemtl lamp_warm
f 689 692 691 690
f 693 694 695 696
f 689 690 694 693
f 691 692 696 695
f 690 691 695 694
f 692 689 693 696
usemtl hotel_trim
f 697 700 699 698
f 701 702 703 704
f 697 698 702 701
f 699 700 704 703
f 698 699 703 702
f 700 697 701 704
usemtl lamp_warm
f 705 708 707 706
f 709 710 711 712
f 705 706 710 709
f 707 708 712 711
f 706 707 711 710
f 708 705 709 712
usemtl hotel_trim
f 713 716 715 714
f 717 718 719 720
f 713 714 718 717
f 715 716 720 719
f 714 715 719 718
f 716 713 717 720
usemtl lamp_warm
f 721 724 723 722
f 725 726 727 728
f 721 722 726 725
f 723 724 728 727
f 722 723 727 726
f 724 721 725 728
usemtl hotel_trim
f 729 732 731 730
f 733 734 735 736
f 729 730 734 733
f 731 732 736 735
f 730 731 735 734
f 732 729 733 736
usemtl door_wood
f 737 740 739 738
f 741 742 743 744
f 737 738 742 741
f 739 740 744 743
f 738 739 743 742
f 740 737 741 744
usemtl door_brass
f 745 748 747 746
f 749 750 751 752
f 745 746 750 749
f 747 748 752 751
f 746 747 751 750
f 748 745 749 752
usemtl door_wood
f 753 756 755 754
f 757 758 759 760
f 753 754 758 757
f 755 756 760 759
f 754 755 759 758
f 756 753 757 760
usemtl door_brass
f 761 764 763 762
f 765 766 767 768
f 761 762 766 765
f 763 764 768 767
f 762 763 767 766
f 764 761 765 768
usemtl door_wood
f 769 772 771 770
f 773 774 775 776
f 769 770 774 773
f 771 772 776 775
f 770 771 775 774
f 772 769 773 776
usemtl door_brass
f 777 780 779 778
f 781 782 783 784
f 777 778 782 781
f 779 780 784 783
f 778 779 783 782
f 780 777 781 784
usemtl door_wood
f 785 788 787 786
f 789 790 791 792
f 785 786 790 789
f 787 788 792 791
f 786 787 791 790
f 788 785 789 792
usemtl door_brass
f 793 796 795 794
f 797 798 799 800
f 793 794 798 797
f 795 796 800 799
f 794 795 799 798
f 796 793 797 800
usemtl door_wood
f 801 804 803 802
f 805 806 807 808
f 801 802 806 805
f 803 804 808 807
f 802 803 807 806
f 804 801 805 808
usemtl door_brass
f 809 812 811 810
f 813 814 815 816
f 809 810 814 813
f 811 812 816 815
f 810 811 815 814
f 812 809 813 816
usemtl door_wood
f 817 820 819 818
f 821 822 823 824
f 817 818 822 821
f 819 820 824 823
f 818 819 823 822
f 820 817 821 824
usemtl door_brass
f 825 828 827 826
f 829 830 831 832
f 825 826 830 829
f 827 828 832 831
f 826 827 831 830
f 828 825 829 832
usemtl door_wood
f 833 836 835 834
f 837 838 839 840
f 833 834 838 837
f 835 836 840 839
f 834 835 839 838
f 836 833 837 840
usemtl door_brass
f 841 844 843 842
f 845 846 847 848
f 841 842 846 845
f 843 844 848 847
f 842 843 847 846
f 844 841 845 848
usemtl door_wood
f 849 852 851 850
f 853 854 855 856
f 849 850 854 853
f 851 852 856 855
f 850 851 855 854
f 852 849 853 856
usemtl door_brass
f 857 860 859 858
f 861 862 863 864
f 857 858 862 861
f 859 860 864 863
f 858 859 863 862
f 860 857 861 864
usemtl door_wood
f 865 868 867 866
f 869 870 871 872
f 865 866 870 869
f 867 868 872 871
f 866 867 871 870
f 868 865 869 872
usemtl door_brass
f 873 876 875 874
f 877 878 879 880
f 873 874 878 877
f 875 876 880 879
f 874 875 879 878
f 876 873 877 880
usemtl door_wood
f 881 884 883 882
f 885 886 887 888
f 881 882 886 885
f 883 884 888 887
f 882 883 887 886
f 884 881 885 888
usemtl door_brass
f 889 892 891 890
f 893 894 895 896
f 889 890 894 893
f 891 892 896 895
f 890 891 895 894
f 892 889 893 896
usemtl door_wood
f 897 900 899 898
f 901 902 903 904
f 897 898 902 901
f 899 900 904 903
f 898 899 903 902
f 900 897 901 904
usemtl door_brass
f 905 908 907 906
f 909 910 911 912
f 905 906 910 909
f 907 908 912 911
f 906 907 911 910
f 908 905 909 912
usemtl door_wood
f 913 916 915 914
f 917 918 919 920
f 913 914 918 917
f 915 916 920 919
f 914 915 919 918
f 916 913 917 920
usemtl door_brass
f 921 924 923 922
f 925 926 927 928
f 921 922 926 925
f 923 924 928 927
f 922 923 927 926
f 924 921 925 928
usemtl door_wood
f 929 932 931 930
f 933 934 935 936
f 929 930 934 933
f 931 932 936 935
f 930 931 935 934
f 932 929 933 936
usemtl door_brass
f 937 940 939 938
f 941 942 943 944
f 937 938 942 941
f 939 940 944 943
f 938 939 943 942
f 940 937 941 944
usemtl door_wood
f 945 948 947 946
f 949 950 951 952
f 945 946 950 949
f 947 948 952 951
f 946 947 951 950
f 948 945 949 952
usemtl door_brass
f 953 956 955 954
f 957 958 959 960
f 953 954 958 957
f 955 956 960 959
f 954 955 959 958
f 956 953 957 960
usemtl door_wood
f 961 964 963 962
f 965 966 967 968
f 961 962 966 965
f 963 964 968 967
f 962 963 967 966
f 964 961 965 968
usemtl door_brass
f 969 972 971 970
f 973 974 975 976
f 969 970 974 973
f 971 972 976 975
f 970 971 975 974
f 972 969 973 976
usemtl hotel_paper
f 1/1 2/2 3/3 4/4
f 5/5 6/6 7/7 8/8
f 9/9 10/10 11/11 12/12
f 13/13 14/14 15/15 16/16
f 17/17 18/18 19/19 20/20
f 21/21 22/22 23/23 24/24
f 25/25 26/26 27/27 28/28
f 29/29 30/30 31/31 32/32
f 33/33 34/34 35/35 36/36
f 37/37 38/38 39/39 40/40
f 41/41 42/42 43/43 44/44
f 45/45 46/46 47/47 48/48
f 49/49 50/50 51/51 52/52
f 53/53 54/54 55/55 56/56
f 57/57 58/58 59/59 60/60
f 61/61 62/62 63/63 64/64
f 65/65 66/66 67/67 68/68
f 69/69 70/70 71/71 72/72
f 89/73 90/74 91/75 92/76
f 93/77 94/78 95/79 96/80
f 97/81 98/82 99/83 100/84
f 101/85 102/86 103/87 104/88
f 105/89 106/90 107/91 108/92
f 109/93 110/94 111/95 112/96
f 113/97 114/98 115/99 116/100
f 117/101 118/102 119/103 120/104
f 121/105 122/106 123/107 124/108
f 125/109 126/110 127/111 128/112
f 129/113 130/114 131/115 132/116
f 133/117 134/118 135/119 136/120
f 137/121 138/122 139/123 140/124
f 141/125 142/126 143/127 144/128
f 145/129 146/130 147/131 148/132
f 149/133 150/134 151/135 152/136
f 153/137 154/138 155/139 156/140
f 157/141 158/142 159/143 160/144
f 169/145 170/146 171/147 172/148
f 173/149 174/150 175/151 176/152
f 177/153 178/154 179/155 180/156
f 181/157 182/158 183/159 184/160
f 185/161 186/162 187/163 188/164
f 189/165 190/166 191/167 192/168
f 193/169 194/170 195/171 196/172
f 197/173 198/174 199/175 200/176
f 201/177 202/178 203/179 204/180
f 205/181 206/182 207/183 208/184
f 209/185 210/186 211/187 212/188
f 213/189 214/190 215/191 216/192
f 217/193 218/194 219/195 220/196
f 221/197 222/198 223/199 224/200
f 225/201 226/202 227/203 228/204
f 229/205 230/206 231/207 232/208
f 233/209 234/210 235/211 236/212
f 237/213 238/214 239/215 240/216
f 249/217 250/218 251/219 252/220
f 253/221 254/222 255/223 256/224
f 257/225 258/226 259/227 260/228
f 261/229 262/230 263/231 264/232
f 265/233 266/234 267/235 268/236
f 269/237 270/238 271/239 272/240
f 273/241 274/242 275/243 276/244
f 277/245 278/246 279/247 280/248
f 281/249 282/250 283/251 284/252
f 285/253 286/254 287/255 288/256
f 289/257 290/258 291/259 292/260
f 293/261 294/262 295/263 296/264
f 297/265 298/266 299/267 300/268
f 301/269 302/270 303/271 304/272
f 305/273 306/274 307/275 308/276
f 309/277 310/278 311/279 312/280
f 313/281 314/282 315/283 316/284
f 317/285 318/286 319/287 320/288
f 321/289 322/290 323/291 324/292
f 325/293 326/294 327/295 328/296
f 329/297 330/298 331/299 332/300
f 333/301 334/302 335/303 336/304
f 337/305 338/306 339/307 340/308
f 341/309 342/310 343/311 344/312
f 345/313 346/314 347/315 348/316
f 349/317 350/318 351/319 352/320
f 353/321 354/322 355/323 356/324
f 357/325 358/326 359/327 360/328
f 361/329 362/330 363/331 364/332
f 365/333 366/334 367/335 368/336
f 377/337 378/338 379/339 380/340
f 381/341 382/342 383/343 384/344
f 385/345 386/346 387/347 388/348
f 389/349 390/350 391/351 392/352
f 393/353 394/354 395/355 396/356
f 397/357 398/358 399/359 400/360
f 401/361 402/362 403/363 404/364
f 405/365 406/366 407/367 408/368
f 409/369 410/370 411/371 412/372
f 413/373 414/374 415/375 416/376
f 417/377 418/378 419/379 420/380
f 421/381 422/382 423/383 424/384
f 425/385 426/386 427/387 428/388
f 429/389 430/390 431/391 432/392
f 433/393 434/394 435/395 436/396
f 437/397 438/398 439/399 440/400
f 441/401 442/402 443/403 444/404
f 445/405 446/406 447/407 448/408
f 449/409 450/410 451/411 452/412
f 453/413 454/414 455/415 456/416
f 457/417 458/418 459/419 460/420
f 461/421 462/422 463/423 464/424
f 465/425 466/426 467/427 468/428
f 469/429 470/430 471/431 472/432
f 473/433 474/434 475/435 476/436
f 477/437 478/438 479/439 480/440
f 481/441 482/442 483/443 484/444
f 485/445 486/446 487/447 488/448
f 489/449 490/450 491/451 492/452
f 493/453 494/454 495/455 496/456
f 497/457 498/458 499/459 500/460
f 501/461 502/462 503/463 504/464
f 505/465 506/466 507/467 508/468
f 509/469 510/470 511/471 512/472
f 513/473 514/474 515/475 516/476
f 517/477 518/478 519/479 520/480
f 521/481 522/482 523/483 524/484
f 525/485 526/486 527/487 528/488
f 529/489 530/490 531/491 532/492
f 533/493 534/494 535/495 536/496
f 537/497 538/498 539/499 540/500
f 541/501 542/502 543/503 544/504
f 545/505 546/506 547/507 548/508
f 549/509 550/510 551/511 552/512
f 553/513 554/514 555/515 556/516
f 557/517 558/518 559/519 560/520
f 561/521 562/522 563/523 564/524
f 565/525 566/526 567/527 568/528
