# RoastEngine Backrooms level
mtllib backrooms.mtl
v -439.5000 -0.5000 -39.5000
v -439.5000 -0.5000 39.5000
v -360.5000 -0.5000 39.5000
v -360.5000 -0.5000 -39.5000
v -439.5000 0.0000 -39.5000
v -360.5000 0.0000 -39.5000
v -360.5000 0.0000 39.5000
v -439.5000 0.0000 39.5000
v -439.5000 -0.5000 -39.5000
v -360.5000 -0.5000 -39.5000
v -360.5000 0.0000 -39.5000
v -439.5000 0.0000 -39.5000
v -360.5000 -0.5000 39.5000
v -439.5000 -0.5000 39.5000
v -439.5000 0.0000 39.5000
v -360.5000 0.0000 39.5000
v -360.5000 -0.5000 -39.5000
v -360.5000 -0.5000 39.5000
v -360.5000 0.0000 39.5000
v -360.5000 0.0000 -39.5000
v -439.5000 -0.5000 39.5000
v -439.5000 -0.5000 -39.5000
v -439.5000 0.0000 -39.5000
v -439.5000 0.0000 39.5000
v -439.5000 3.2000 -39.5000
v -439.5000 3.2000 39.5000
v -360.5000 3.2000 39.5000
v -360.5000 3.2000 -39.5000
v -439.5000 3.7000 -39.5000
v -360.5000 3.7000 -39.5000
v -360.5000 3.7000 39.5000
v -439.5000 3.7000 39.5000
v -439.5000 3.2000 -39.5000
v -360.5000 3.2000 -39.5000
v -360.5000 3.7000 -39.5000
v -439.5000 3.7000 -39.5000
v -360.5000 3.2000 39.5000
v -439.5000 3.2000 39.5000
v -439.5000 3.7000 39.5000
v -360.5000 3.7000 39.5000
v -360.5000 3.2000 -39.5000
v -360.5000 3.2000 39.5000
v -360.5000 3.7000 39.5000
v -360.5000 3.7000 -39.5000
v -439.5000 3.2000 39.5000
v -439.5000 3.2000 -39.5000
v -439.5000 3.7000 -39.5000
v -439.5000 3.7000 39.5000
v -439.5000 0.0000 -39.5000
v -439.5000 0.0000 39.5000
v -439.0000 0.0000 39.5000
v -439.0000 0.0000 -39.5000
v -439.5000 3.2000 -39.5000
v -439.0000 3.2000 -39.5000
v -439.0000 3.2000 39.5000
v -439.5000 3.2000 39.5000
v -439.5000 0.0000 -39.5000
v -439.0000 0.0000 -39.5000
v -439.0000 3.2000 -39.5000
v -439.5000 3.2000 -39.5000
v -439.0000 0.0000 39.5000
v -439.5000 0.0000 39.5000
v -439.5000 3.2000 39.5000
v -439.0000 3.2000 39.5000
v -439.0000 0.0000 -39.5000
v -439.0000 0.0000 39.5000
v -439.0000 3.2000 39.5000
v -439.0000 3.2000 -39.5000
v -439.5000 0.0000 39.5000
v -439.5000 0.0000 -39.5000
v -439.5000 3.2000 -39.5000
v -439.5000 3.2000 39.5000
v -439.5000 0.0000 -39.5000
v -439.5000 0.0000 -39.0000
v -360.5000 0.0000 -39.0000
v -360.5000 0.0000 -39.5000
v -439.5000 3.2000 -39.5000
v -360.5000 3.2000 -39.5000
v -360.5000 3.2000 -39.0000
v -439.5000 3.2000 -39.0000
v -439.5000 0.0000 -39.5000
v -360.5000 0.0000 -39.5000
v -360.5000 3.2000 -39.5000
v -439.5000 3.2000 -39.5000
v -360.5000 0.0000 -39.0000
v -439.5000 0.0000 -39.0000
v -439.5000 3.2000 -39.0000
v -360.5000 3.2000 -39.0000
v -360.5000 0.0000 -39.5000
v -360.5000 0.0000 -39.0000
v -360.5000 3.2000 -39.0000
v -360.5000 3.2000 -39.5000
v -439.5000 0.0000 -39.0000
v -439.5000 0.0000 -39.5000
v -439.5000 3.2000 -39.5000
v -439.5000 3.2000 -39.0000
v -361.0000 0.0000 -39.5000
v -361.0000 0.0000 39.5000
v -360.5000 0.0000 39.5000
v -360.5000 0.0000 -39.5000
v -361.0000 3.2000 -39.5000
v -360.5000 3.2000 -39.5000
v -360.5000 3.2000 39.5000
v -361.0000 3.2000 39.5000
v -361.0000 0.0000 -39.5000
v -360.5000 0.0000 -39.5000
v -360.5000 3.2000 -39.5000
v -361.0000 3.2000 -39.5000
v -360.5000 0.0000 39.5000
v -361.0000 0.0000 39.5000
v -361.0000 3.2000 39.5000
v -360.5000 3.2000 39.5000
v -360.5000 0.0000 -39.5000
v -360.5000 0.0000 39.5000
v -360.5000 3.2000 39.5000
v -360.5000 3.2000 -39.5000
v -361.0000 0.0000 39.5000
v -361.0000 0.0000 -39.5000
v -361.0000 3.2000 -39.5000
v -361.0000 3.2000 39.5000
v -439.5000 0.0000 39.0000
v -439.5000 0.0000 39.5000
v -360.5000 0.0000 39.5000
v -360.5000 0.0000 39.0000
v -439.5000 3.2000 39.0000
v -360.5000 3.2000 39.0000
v -360.5000 3.2000 39.5000
v -439.5000 3.2000 39.5000
v -439.5000 0.0000 39.0000
v -360.5000 0.0000 39.0000
v -360.5000 3.2000 39.0000
v -439.5000 3.2000 39.0000
v -360.5000 0.0000 39.5000
v -439.5000 0.0000 39.5000
v -439.5000 3.2000 39.5000
v -360.5000 3.2000 39.5000
v -360.5000 0.0000 39.0000
v -360.5000 0.0000 39.5000
v -360.5000 3.2000 39.5000
v -360.5000 3.2000 39.0000
v -439.5000 0.0000 39.5000
v -439.5000 0.0000 39.0000
v -439.5000 3.2000 39.0000
v -439.5000 3.2000 39.5000
v -369.3964 0.0000 -6.0973
v -369.3964 0.0000 -5.0757
v -368.1588 0.0000 -5.0757
v -368.1588 0.0000 -6.0973
v -369.3964 0.0100 -6.0973
v -368.1588 0.0100 -6.0973
v -368.1588 0.0100 -5.0757
v -369.3964 0.0100 -5.0757
v -369.3964 0.0000 -6.0973
v -368.1588 0.0000 -6.0973
v -368.1588 0.0100 -6.0973
v -369.3964 0.0100 -6.0973
v -368.1588 0.0000 -5.0757
v -369.3964 0.0000 -5.0757
v -369.3964 0.0100 -5.0757
v -368.1588 0.0100 -5.0757
v -368.1588 0.0000 -6.0973
v -368.1588 0.0000 -5.0757
v -368.1588 0.0100 -5.0757
v -368.1588 0.0100 -6.0973
v -369.3964 0.0000 -5.0757
v -369.3964 0.0000 -6.0973
v -369.3964 0.0100 -6.0973
v -369.3964 0.0100 -5.0757
v -397.7486 0.0000 10.8156
v -397.7486 0.0000 11.7643
v -396.1866 0.0000 11.7643
v -396.1866 0.0000 10.8156
v -397.7486 0.0100 10.8156
v -396.1866 0.0100 10.8156
v -396.1866 0.0100 11.7643
v -397.7486 0.0100 11.7643
v -397.7486 0.0000 10.8156
v -396.1866 0.0000 10.8156
v -396.1866 0.0100 10.8156
v -397.7486 0.0100 10.8156
v -396.1866 0.0000 11.7643
v -397.7486 0.0000 11.7643
v -397.7486 0.0100 11.7643
v -396.1866 0.0100 11.7643
v -396.1866 0.0000 10.8156
v -396.1866 0.0000 11.7643
v -396.1866 0.0100 11.7643
v -396.1866 0.0100 10.8156
v -397.7486 0.0000 11.7643
v -397.7486 0.0000 10.8156
v -397.7486 0.0100 10.8156
v -397.7486 0.0100 11.7643
v -435.4031 0.0000 27.1931
v -435.4031 0.0000 29.8026
v -433.4400 0.0000 29.8026
v -433.4400 0.0000 27.1931
v -435.4031 0.0100 27.1931
v -433.4400 0.0100 27.1931
v -433.4400 0.0100 29.8026
v -435.4031 0.0100 29.8026
v -435.4031 0.0000 27.1931
v -433.4400 0.0000 27.1931
v -433.4400 0.0100 27.1931
v -435.4031 0.0100 27.1931
v -433.4400 0.0000 29.8026
v -435.4031 0.0000 29.8026
v -435.4031 0.0100 29.8026
v -433.4400 0.0100 29.8026
v -433.4400 0.0000 27.1931
v -433.4400 0.0000 29.8026
v -433.4400 0.0100 29.8026
v -433.4400 0.0100 27.1931
v -435.4031 0.0000 29.8026
v -435.4031 0.0000 27.1931
v -435.4031 0.0100 27.1931
v -435.4031 0.0100 29.8026
v -367.2087 0.0000 32.0837
v -367.2087 0.0000 35.5654
v -364.1493 0.0000 35.5654
v -364.1493 0.0000 32.0837
v -367.2087 0.0100 32.0837
v -364.1493 0.0100 32.0837
v -364.1493 0.0100 35.5654
v -367.2087 0.0100 35.5654
v -367.2087 0.0000 32.0837
v -364.1493 0.0000 32.0837
v -364.1493 0.0100 32.0837
v -367.2087 0.0100 32.0837
v -364.1493 0.0000 35.5654
v -367.2087 0.0000 35.5654
v -367.2087 0.0100 35.5654
v -364.1493 0.0100 35.5654
v -364.1493 0.0000 32.0837
v -364.1493 0.0000 35.5654
v -364.1493 0.0100 35.5654
v -364.1493 0.0100 32.0837
v -367.2087 0.0000 35.5654
v -367.2087 0.0000 32.0837
v -367.2087 0.0100 32.0837
v -367.2087 0.0100 35.5654
v -378.3014 0.0000 -36.9177
v -378.3014 0.0000 -35.7515
v -377.1200 0.0000 -35.7515
v -377.1200 0.0000 -36.9177
v -378.3014 0.0100 -36.9177
v -377.1200 0.0100 -36.9177
v -377.1200 0.0100 -35.7515
v -378.3014 0.0100 -35.7515
v -378.3014 0.0000 -36.9177
v -377.1200 0.0000 -36.9177
v -377.1200 0.0100 -36.9177
v -378.3014 0.0100 -36.9177
v -377.1200 0.0000 -35.7515
v -378.3014 0.0000 -35.7515
v -378.3014 0.0100 -35.7515
v -377.1200 0.0100 -35.7515
v -377.1200 0.0000 -36.9177
v -377.1200 0.0000 -35.7515
v -377.1200 0.0100 -35.7515
v -377.1200 0.0100 -36.9177
v -378.3014 0.0000 -35.7515
v -378.3014 0.0000 -36.9177
v -378.3014 0.0100 -36.9177
v -378.3014 0.0100 -35.7515
v -427.9151 0.0000 21.2287
v -427.9151 0.0000 24.3395
v -425.4464 0.0000 24.3395
v -425.4464 0.0000 21.2287
v -427.9151 0.0100 21.2287
v -425.4464 0.0100 21.2287
v -425.4464 0.0100 24.3395
v -427.9151 0.0100 24.3395
v -427.9151 0.0000 21.2287
v -425.4464 0.0000 21.2287
v -425.4464 0.0100 21.2287
v -427.9151 0.0100 21.2287
v -425.4464 0.0000 24.3395
v -427.9151 0.0000 24.3395
v -427.9151 0.0100 24.3395
v -425.4464 0.0100 24.3395
v -425.4464 0.0000 21.2287
v -425.4464 0.0000 24.3395
v -425.4464 0.0100 24.3395
v -425.4464 0.0100 21.2287
v -427.9151 0.0000 24.3395
v -427.9151 0.0000 21.2287
v -427.9151 0.0100 21.2287
v -427.9151 0.0100 24.3395
v -386.1587 0.0000 -25.7133
v -386.1587 0.0000 -22.9026
v -383.7106 0.0000 -22.9026
v -383.7106 0.0000 -25.7133
v -386.1587 0.0100 -25.7133
v -383.7106 0.0100 -25.7133
v -383.7106 0.0100 -22.9026
v -386.1587 0.0100 -22.9026
v -386.1587 0.0000 -25.7133
v -383.7106 0.0000 -25.7133
v -383.7106 0.0100 -25.7133
v -386.1587 0.0100 -25.7133
v -383.7106 0.0000 -22.9026
v -386.1587 0.0000 -22.9026
v -386.1587 0.0100 -22.9026
v -383.7106 0.0100 -22.9026
v -383.7106 0.0000 -25.7133
v -383.7106 0.0000 -22.9026
v -383.7106 0.0100 -22.9026
v -383.7106 0.0100 -25.7133
v -386.1587 0.0000 -22.9026
v -386.1587 0.0000 -25.7133
v -386.1587 0.0100 -25.7133
v -386.1587 0.0100 -22.9026
v -395.4862 0.0000 -5.4560
v -395.4862 0.0000 -3.3104
v -393.6083 0.0000 -3.3104
v -393.6083 0.0000 -5.4560
v -395.4862 0.0100 -5.4560
v -393.6083 0.0100 -5.4560
v -393.6083 0.0100 -3.3104
v -395.4862 0.0100 -3.3104
v -395.4862 0.0000 -5.4560
v -393.6083 0.0000 -5.4560
v -393.6083 0.0100 -5.4560
v -395.4862 0.0100 -5.4560
v -393.6083 0.0000 -3.3104
v -395.4862 0.0000 -3.3104
v -395.4862 0.0100 -3.3104
v -393.6083 0.0100 -3.3104
v -393.6083 0.0000 -5.4560
v -393.6083 0.0000 -3.3104
v -393.6083 0.0100 -3.3104
v -393.6083 0.0100 -5.4560
v -395.4862 0.0000 -3.3104
v -395.4862 0.0000 -5.4560
v -395.4862 0.0100 -5.4560
v -395.4862 0.0100 -3.3104
v -430.6765 0.0000 -18.1413
v -430.6765 0.0000 -14.8446
v -427.3199 0.0000 -14.8446
v -427.3199 0.0000 -18.1413
v -430.6765 0.0100 -18.1413
v -427.3199 0.0100 -18.1413
v -427.3199 0.0100 -14.8446
v -430.6765 0.0100 -14.8446
v -430.6765 0.0000 -18.1413
v -427.3199 0.0000 -18.1413
v -427.3199 0.0100 -18.1413
v -430.6765 0.0100 -18.1413
v -427.3199 0.0000 -14.8446
v -430.6765 0.0000 -14.8446
v -430.6765 0.0100 -14.8446
v -427.3199 0.0100 -14.8446
v -427.3199 0.0000 -18.1413
v -427.3199 0.0000 -14.8446
v -427.3199 0.0100 -14.8446
v -427.3199 0.0100 -18.1413
v -430.6765 0.0000 -14.8446
v -430.6765 0.0000 -18.1413
v -430.6765 0.0100 -18.1413
v -430.6765 0.0100 -14.8446
v -411.6428 0.0000 6.5373
v -411.6428 0.0000 9.1494
v -408.5456 0.0000 9.1494
v -408.5456 0.0000 6.5373
v -411.6428 0.0100 6.5373
v -408.5456 0.0100 6.5373
v -408.5456 0.0100 9.1494
v -411.6428 0.0100 9.1494
v -411.6428 0.0000 6.5373
v -408.5456 0.0000 6.5373
v -408.5456 0.0100 6.5373
v -411.6428 0.0100 6.5373
v -408.5456 0.0000 9.1494
v -411.6428 0.0000 9.1494
v -411.6428 0.0100 9.1494
v -408.5456 0.0100 9.1494
v -408.5456 0.0000 6.5373
v -408.5456 0.0000 9.1494
v -408.5456 0.0100 9.1494
v -408.5456 0.0100 6.5373
v -411.6428 0.0000 9.1494
v -411.6428 0.0000 6.5373
v -411.6428 0.0100 6.5373
v -411.6428 0.0100 9.1494
v -412.0038 0.0000 0.0335
v -412.0038 0.0000 3.3296
v -408.9324 0.0000 3.3296
v -408.9324 0.0000 0.0335
v -412.0038 0.0100 0.0335
v -408.9324 0.0100 0.0335
v -408.9324 0.0100 3.3296
v -412.0038 0.0100 3.3296
v -412.0038 0.0000 0.0335
v -408.9324 0.0000 0.0335
v -408.9324 0.0100 0.0335
v -412.0038 0.0100 0.0335
v -408.9324 0.0000 3.3296
v -412.0038 0.0000 3.3296
v -412.0038 0.0100 3.3296
v -408.9324 0.0100 3.3296
v -408.9324 0.0000 0.0335
v -408.9324 0.0000 3.3296
v -408.9324 0.0100 3.3296
v -408.9324 0.0100 0.0335
v -412.0038 0.0000 3.3296
v -412.0038 0.0000 0.0335
v -412.0038 0.0100 0.0335
v -412.0038 0.0100 3.3296
v -414.6796 0.0000 -5.2104
v -414.6796 0.0000 -2.5568
v -411.9437 0.0000 -2.5568
v -411.9437 0.0000 -5.2104
v -414.6796 0.0100 -5.2104
v -411.9437 0.0100 -5.2104
v -411.9437 0.0100 -2.5568
v -414.6796 0.0100 -2.5568
v -414.6796 0.0000 -5.2104
v -411.9437 0.0000 -5.2104
v -411.9437 0.0100 -5.2104
v -414.6796 0.0100 -5.2104
v -411.9437 0.0000 -2.5568
v -414.6796 0.0000 -2.5568
v -414.6796 0.0100 -2.5568
v -411.9437 0.0100 -2.5568
v -411.9437 0.0000 -5.2104
v -411.9437 0.0000 -2.5568
v -411.9437 0.0100 -2.5568
v -411.9437 0.0100 -5.2104
v -414.6796 0.0000 -2.5568
v -414.6796 0.0000 -5.2104
v -414.6796 0.0100 -5.2104
v -414.6796 0.0100 -2.5568
v -435.6678 0.0000 -3.6142
v -435.6678 0.0000 -1.6846
v -433.6882 0.0000 -1.6846
v -433.6882 0.0000 -3.6142
v -435.6678 0.0100 -3.6142
v -433.6882 0.0100 -3.6142
v -433.6882 0.0100 -1.6846
v -435.6678 0.0100 -1.6846
v -435.6678 0.0000 -3.6142
v -433.6882 0.0000 -3.6142
v -433.6882 0.0100 -3.6142
v -435.6678 0.0100 -3.6142
v -433.6882 0.0000 -1.6846
v -435.6678 0.0000 -1.6846
v -435.6678 0.0100 -1.6846
v -433.6882 0.0100 -1.6846
v -433.6882 0.0000 -3.6142
v -433.6882 0.0000 -1.6846
v -433.6882 0.0100 -1.6846
v -433.6882 0.0100 -3.6142
v -435.6678 0.0000 -1.6846
v -435.6678 0.0000 -3.6142
v -435.6678 0.0100 -3.6142
v -435.6678 0.0100 -1.6846
v -362.5330 0.0000 -2.2263
v -362.5330 0.0000 0.0315
v -360.5820 0.0000 0.0315
v -360.5820 0.0000 -2.2263
v -362.5330 0.0100 -2.2263
v -360.5820 0.0100 -2.2263
v -360.5820 0.0100 0.0315
v -362.5330 0.0100 0.0315
v -362.5330 0.0000 -2.2263
v -360.5820 0.0000 -2.2263
v -360.5820 0.0100 -2.2263
v -362.5330 0.0100 -2.2263
v -360.5820 0.0000 0.0315
v -362.5330 0.0000 0.0315
v -362.5330 0.0100 0.0315
v -360.5820 0.0100 0.0315
v -360.5820 0.0000 -2.2263
v -360.5820 0.0000 0.0315
v -360.5820 0.0100 0.0315
v -360.5820 0.0100 -2.2263
v -362.5330 0.0000 0.0315
v -362.5330 0.0000 -2.2263
v -362.5330 0.0100 -2.2263
v -362.5330 0.0100 0.0315
v -416.8203 0.0000 -2.8475
v -416.8203 0.0000 -1.6342
v -415.5499 0.0000 -1.6342
v -415.5499 0.0000 -2.8475
v -416.8203 0.0100 -2.8475
v -415.5499 0.0100 -2.8475
v -415.5499 0.0100 -1.6342
v -416.8203 0.0100 -1.6342
v -416.8203 0.0000 -2.8475
v -415.5499 0.0000 -2.8475
v -415.5499 0.0100 -2.8475
v -416.8203 0.0100 -2.8475
v -415.5499 0.0000 -1.6342
v -416.8203 0.0000 -1.6342
v -416.8203 0.0100 -1.6342
v -415.5499 0.0100 -1.6342
v -415.5499 0.0000 -2.8475
v -415.5499 0.0000 -1.6342
v -415.5499 0.0100 -1.6342
v -415.5499 0.0100 -2.8475
v -416.8203 0.0000 -1.6342
v -416.8203 0.0000 -2.8475
v -416.8203 0.0100 -2.8475
v -416.8203 0.0100 -1.6342
v -364.0086 0.0000 35.6105
v -364.0086 0.0000 36.8287
v -362.3619 0.0000 36.8287
v -362.3619 0.0000 35.6105
v -364.0086 0.0100 35.6105
v -362.3619 0.0100 35.6105
v -362.3619 0.0100 36.8287
v -364.0086 0.0100 36.8287
v -364.0086 0.0000 35.6105
v -362.3619 0.0000 35.6105
v -362.3619 0.0100 35.6105
v -364.0086 0.0100 35.6105
v -362.3619 0.0000 36.8287
v -364.0086 0.0000 36.8287
v -364.0086 0.0100 36.8287
v -362.3619 0.0100 36.8287
v -362.3619 0.0000 35.6105
v -362.3619 0.0000 36.8287
v -362.3619 0.0100 36.8287
v -362.3619 0.0100 35.6105
v -364.0086 0.0000 36.8287
v -364.0086 0.0000 35.6105
v -364.0086 0.0100 35.6105
v -364.0086 0.0100 36.8287
v -377.3660 0.0000 31.2579
v -377.3660 0.0000 34.6167
v -374.6246 0.0000 34.6167
v -374.6246 0.0000 31.2579
v -377.3660 0.0100 31.2579
v -374.6246 0.0100 31.2579
v -374.6246 0.0100 34.6167
v -377.3660 0.0100 34.6167
v -377.3660 0.0000 31.2579
v -374.6246 0.0000 31.2579
v -374.6246 0.0100 31.2579
v -377.3660 0.0100 31.2579
v -374.6246 0.0000 34.6167
v -377.3660 0.0000 34.6167
v -377.3660 0.0100 34.6167
v -374.6246 0.0100 34.6167
v -374.6246 0.0000 31.2579
v -374.6246 0.0000 34.6167
v -374.6246 0.0100 34.6167
v -374.6246 0.0100 31.2579
v -377.3660 0.0000 34.6167
v -377.3660 0.0000 31.2579
v -377.3660 0.0100 31.2579
v -377.3660 0.0100 34.6167
v -376.8376 0.0000 -17.2746
v -376.8376 0.0000 -13.0101
v -373.6649 0.0000 -13.0101
v -373.6649 0.0000 -17.2746
v -376.8376 0.0100 -17.2746
v -373.6649 0.0100 -17.2746
v -373.6649 0.0100 -13.0101
v -376.8376 0.0100 -13.0101
v -376.8376 0.0000 -17.2746
v -373.6649 0.0000 -17.2746
v -373.6649 0.0100 -17.2746
v -376.8376 0.0100 -17.2746
v -373.6649 0.0000 -13.0101
v -376.8376 0.0000 -13.0101
v -376.8376 0.0100 -13.0101
v -373.6649 0.0100 -13.0101
v -373.6649 0.0000 -17.2746
v -373.6649 0.0000 -13.0101
v -373.6649 0.0100 -13.0101
v -373.6649 0.0100 -17.2746
v -376.8376 0.0000 -13.0101
v -376.8376 0.0000 -17.2746
v -376.8376 0.0100 -17.2746
v -376.8376 0.0100 -13.0101
v -397.3517 0.0000 -28.8880
v -397.3517 0.0000 -26.5499
v -394.3982 0.0000 -26.5499
v -394.3982 0.0000 -28.8880
v -397.3517 0.0100 -28.8880
v -394.3982 0.0100 -28.8880
v -394.3982 0.0100 -26.5499
v -397.3517 0.0100 -26.5499
v -397.3517 0.0000 -28.8880
v -394.3982 0.0000 -28.8880
v -394.3982 0.0100 -28.8880
v -397.3517 0.0100 -28.8880
v -394.3982 0.0000 -26.5499
v -397.3517 0.0000 -26.5499
v -397.3517 0.0100 -26.5499
v -394.3982 0.0100 -26.5499
v -394.3982 0.0000 -28.8880
v -394.3982 0.0000 -26.5499
v -394.3982 0.0100 -26.5499
v -394.3982 0.0100 -28.8880
v -397.3517 0.0000 -26.5499
v -397.3517 0.0000 -28.8880
v -397.3517 0.0100 -28.8880
v -397.3517 0.0100 -26.5499
v -391.8628 0.0000 -27.2369
v -391.8628 0.0000 -25.6542
v -390.3774 0.0000 -25.6542
v -390.3774 0.0000 -27.2369
v -391.8628 0.0100 -27.2369
v -390.3774 0.0100 -27.2369
v -390.3774 0.0100 -25.6542
v -391.8628 0.0100 -25.6542
v -391.8628 0.0000 -27.2369
v -390.3774 0.0000 -27.2369
v -390.3774 0.0100 -27.2369
v -391.8628 0.0100 -27.2369
v -390.3774 0.0000 -25.6542
v -391.8628 0.0000 -25.6542
v -391.8628 0.0100 -25.6542
v -390.3774 0.0100 -25.6542
v -390.3774 0.0000 -27.2369
v -390.3774 0.0000 -25.6542
v -390.3774 0.0100 -25.6542
v -390.3774 0.0100 -27.2369
v -391.8628 0.0000 -25.6542
v -391.8628 0.0000 -27.2369
v -391.8628 0.0100 -27.2369
v -391.8628 0.0100 -25.6542
v -380.9884 0.0000 -15.0349
v -380.9884 0.0000 -11.7733
v -378.4443 0.0000 -11.7733
v -378.4443 0.0000 -15.0349
v -380.9884 0.0100 -15.0349
v -378.4443 0.0100 -15.0349
v -378.4443 0.0100 -11.7733
v -380.9884 0.0100 -11.7733
v -380.9884 0.0000 -15.0349
v -378.4443 0.0000 -15.0349
v -378.4443 0.0100 -15.0349
v -380.9884 0.0100 -15.0349
v -378.4443 0.0000 -11.7733
v -380.9884 0.0000 -11.7733
v -380.9884 0.0100 -11.7733
v -378.4443 0.0100 -11.7733
v -378.4443 0.0000 -15.0349
v -378.4443 0.0000 -11.7733
v -378.4443 0.0100 -11.7733
v -378.4443 0.0100 -15.0349
v -380.9884 0.0000 -11.7733
v -380.9884 0.0000 -15.0349
v -380.9884 0.0100 -15.0349
v -380.9884 0.0100 -11.7733
v -396.6097 0.0000 26.3536
v -396.6097 0.0000 27.5799
v -394.8331 0.0000 27.5799
v -394.8331 0.0000 26.3536
v -396.6097 0.0100 26.3536
v -394.8331 0.0100 26.3536
v -394.8331 0.0100 27.5799
v -396.6097 0.0100 27.5799
v -396.6097 0.0000 26.3536
v -394.8331 0.0000 26.3536
v -394.8331 0.0100 26.3536
v -396.6097 0.0100 26.3536
v -394.8331 0.0000 27.5799
v -396.6097 0.0000 27.5799
v -396.6097 0.0100 27.5799
v -394.8331 0.0100 27.5799
v -394.8331 0.0000 26.3536
v -394.8331 0.0000 27.5799
v -394.8331 0.0100 27.5799
v -394.8331 0.0100 26.3536
v -396.6097 0.0000 27.5799
v -396.6097 0.0000 26.3536
v -396.6097 0.0100 26.3536
v -396.6097 0.0100 27.5799
v -391.3406 0.0000 -17.6065
v -391.3406 0.0000 -13.7452
v -388.1661 0.0000 -13.7452
v -388.1661 0.0000 -17.6065
v -391.3406 0.0100 -17.6065
v -388.1661 0.0100 -17.6065
v -388.1661 0.0100 -13.7452
v -391.3406 0.0100 -13.7452
v -391.3406 0.0000 -17.6065
v -388.1661 0.0000 -17.6065
v -388.1661 0.0100 -17.6065
v -391.3406 0.0100 -17.6065
v -388.1661 0.0000 -13.7452
v -391.3406 0.0000 -13.7452
v -391.3406 0.0100 -13.7452
v -388.1661 0.0100 -13.7452
v -388.1661 0.0000 -17.6065
v -388.1661 0.0000 -13.7452
v -388.1661 0.0100 -13.7452
v -388.1661 0.0100 -17.6065
v -391.3406 0.0000 -13.7452
v -391.3406 0.0000 -17.6065
v -391.3406 0.0100 -17.6065
v -391.3406 0.0100 -13.7452
v -372.0388 0.0000 20.2487
v -372.0388 0.0000 24.4494
v -368.9110 0.0000 24.4494
v -368.9110 0.0000 20.2487
v -372.0388 0.0100 20.2487
v -368.9110 0.0100 20.2487
v -368.9110 0.0100 24.4494
v -372.0388 0.0100 24.4494
v -372.0388 0.0000 20.2487
v -368.9110 0.0000 20.2487
v -368.9110 0.0100 20.2487
v -372.0388 0.0100 20.2487
v -368.9110 0.0000 24.4494
v -372.0388 0.0000 24.4494
v -372.0388 0.0100 24.4494
v -368.9110 0.0100 24.4494
v -368.9110 0.0000 20.2487
v -368.9110 0.0000 24.4494
v -368.9110 0.0100 24.4494
v -368.9110 0.0100 20.2487
v -372.0388 0.0000 24.4494
v -372.0388 0.0000 20.2487
v -372.0388 0.0100 20.2487
v -372.0388 0.0100 24.4494
v -434.3708 0.0000 -38.4850
v -434.3708 0.0000 -35.5735
v -432.1971 0.0000 -35.5735
v -432.1971 0.0000 -38.4850
v -434.3708 0.0100 -38.4850
v -432.1971 0.0100 -38.4850
v -432.1971 0.0100 -35.5735
v -434.3708 0.0100 -35.5735
v -434.3708 0.0000 -38.4850
v -432.1971 0.0000 -38.4850
v -432.1971 0.0100 -38.4850
v -434.3708 0.0100 -38.4850
v -432.1971 0.0000 -35.5735
v -434.3708 0.0000 -35.5735
v -434.3708 0.0100 -35.5735
v -432.1971 0.0100 -35.5735
v -432.1971 0.0000 -38.4850
v -432.1971 0.0000 -35.5735
v -432.1971 0.0100 -35.5735
v -432.1971 0.0100 -38.4850
v -434.3708 0.0000 -35.5735
v -434.3708 0.0000 -38.4850
v -434.3708 0.0100 -38.4850
v -434.3708 0.0100 -35.5735
v -399.5548 0.0000 -10.6353
v -399.5548 0.0000 -7.6623
v -396.0709 0.0000 -7.6623
v -396.0709 0.0000 -10.6353
v -399.5548 0.0100 -10.6353
v -396.0709 0.0100 -10.6353
v -396.0709 0.0100 -7.6623
v -399.5548 0.0100 -7.6623
v -399.5548 0.0000 -10.6353
v -396.0709 0.0000 -10.6353
v -396.0709 0.0100 -10.6353
v -399.5548 0.0100 -10.6353
v -396.0709 0.0000 -7.6623
v -399.5548 0.0000 -7.6623
v -399.5548 0.0100 -7.6623
v -396.0709 0.0100 -7.6623
v -396.0709 0.0000 -10.6353
v -396.0709 0.0000 -7.6623
v -396.0709 0.0100 -7.6623
v -396.0709 0.0100 -10.6353
v -399.5548 0.0000 -7.6623
v -399.5548 0.0000 -10.6353
v -399.5548 0.0100 -10.6353
v -399.5548 0.0100 -7.6623
v -421.7324 0.0000 7.3631
v -421.7324 0.0000 9.6873
v -419.8984 0.0000 9.6873
v -419.8984 0.0000 7.3631
v -421.7324 0.0100 7.3631
v -419.8984 0.0100 7.3631
v -419.8984 0.0100 9.6873
v -421.7324 0.0100 9.6873
v -421.7324 0.0000 7.3631
v -419.8984 0.0000 7.3631
v -419.8984 0.0100 7.3631
v -421.7324 0.0100 7.3631
v -419.8984 0.0000 9.6873
v -421.7324 0.0000 9.6873
v -421.7324 0.0100 9.6873
v -419.8984 0.0100 9.6873
v -419.8984 0.0000 7.3631
v -419.8984 0.0000 9.6873
v -419.8984 0.0100 9.6873
v -419.8984 0.0100 7.3631
v -421.7324 0.0000 9.6873
v -421.7324 0.0000 7.3631
v -421.7324 0.0100 7.3631
v -421.7324 0.0100 9.6873
v -410.1511 0.0000 -22.9283
v -410.1511 0.0000 -20.4272
v -407.7678 0.0000 -20.4272
v -407.7678 0.0000 -22.9283
v -410.1511 0.0100 -22.9283
v -407.7678 0.0100 -22.9283
v -407.7678 0.0100 -20.4272
v -410.1511 0.0100 -20.4272
v -410.1511 0.0000 -22.9283
v -407.7678 0.0000 -22.9283
v -407.7678 0.0100 -22.9283
v -410.1511 0.0100 -22.9283
v -407.7678 0.0000 -20.4272
v -410.1511 0.0000 -20.4272
v -410.1511 0.0100 -20.4272
v -407.7678 0.0100 -20.4272
v -407.7678 0.0000 -22.9283
v -407.7678 0.0000 -20.4272
v -407.7678 0.0100 -20.4272
v -407.7678 0.0100 -22.9283
v -410.1511 0.0000 -20.4272
v -410.1511 0.0000 -22.9283
v -410.1511 0.0100 -22.9283
v -410.1511 0.0100 -20.4272
v -386.9983 0.0000 4.0882
v -386.9983 0.0000 6.6120
v -384.7139 0.0000 6.6120
v -384.7139 0.0000 4.0882
v -386.9983 0.0100 4.0882
v -384.7139 0.0100 4.0882
v -384.7139 0.0100 6.6120
v -386.9983 0.0100 6.6120
v -386.9983 0.0000 4.0882
v -384.7139 0.0000 4.0882
v -384.7139 0.0100 4.0882
v -386.9983 0.0100 4.0882
v -384.7139 0.0000 6.6120
v -386.9983 0.0000 6.6120
v -386.9983 0.0100 6.6120
v -384.7139 0.0100 6.6120
v -384.7139 0.0000 4.0882
v -384.7139 0.0000 6.6120
v -384.7139 0.0100 6.6120
v -384.7139 0.0100 4.0882
v -386.9983 0.0000 6.6120
v -386.9983 0.0000 4.0882
v -386.9983 0.0100 4.0882
v -386.9983 0.0100 6.6120
v -372.8327 0.0000 16.0659
v -372.8327 0.0000 17.0892
v -371.8076 0.0000 17.0892
v -371.8076 0.0000 16.0659
v -372.8327 0.0100 16.0659
v -371.8076 0.0100 16.0659
v -371.8076 0.0100 17.0892
v -372.8327 0.0100 17.0892
v -372.8327 0.0000 16.0659
v -371.8076 0.0000 16.0659
v -371.8076 0.0100 16.0659
v -372.8327 0.0100 16.0659
v -371.8076 0.0000 17.0892
v -372.8327 0.0000 17.0892
v -372.8327 0.0100 17.0892
v -371.8076 0.0100 17.0892
v -371.8076 0.0000 16.0659
v -371.8076 0.0000 17.0892
v -371.8076 0.0100 17.0892
v -371.8076 0.0100 16.0659
v -372.8327 0.0000 17.0892
v -372.8327 0.0000 16.0659
v -372.8327 0.0100 16.0659
v -372.8327 0.0100 17.0892
v -388.8136 0.0000 -5.2013
v -388.8136 0.0000 -1.9660
v -385.7884 0.0000 -1.9660
v -385.7884 0.0000 -5.2013
v -388.8136 0.0100 -5.2013
v -385.7884 0.0100 -5.2013
v -385.7884 0.0100 -1.9660
v -388.8136 0.0100 -1.9660
v -388.8136 0.0000 -5.2013
v -385.7884 0.0000 -5.2013
v -385.7884 0.0100 -5.2013
v -388.8136 0.0100 -5.2013
v -385.7884 0.0000 -1.9660
v -388.8136 0.0000 -1.9660
v -388.8136 0.0100 -1.9660
v -385.7884 0.0100 -1.9660
v -385.7884 0.0000 -5.2013
v -385.7884 0.0000 -1.9660
v -385.7884 0.0100 -1.9660
v -385.7884 0.0100 -5.2013
v -388.8136 0.0000 -1.9660
v -388.8136 0.0000 -5.2013
v -388.8136 0.0100 -5.2013
v -388.8136 0.0100 -1.9660
v -386.0876 0.0000 26.3305
v -386.0876 0.0000 29.8146
v -383.5515 0.0000 29.8146
v -383.5515 0.0000 26.3305
v -386.0876 0.0100 26.3305
v -383.5515 0.0100 26.3305
v -383.5515 0.0100 29.8146
v -386.0876 0.0100 29.8146
v -386.0876 0.0000 26.3305
v -383.5515 0.0000 26.3305
v -383.5515 0.0100 26.3305
v -386.0876 0.0100 26.3305
v -383.5515 0.0000 29.8146
v -386.0876 0.0000 29.8146
v -386.0876 0.0100 29.8146
v -383.5515 0.0100 29.8146
v -383.5515 0.0000 26.3305
v -383.5515 0.0000 29.8146
v -383.5515 0.0100 29.8146
v -383.5515 0.0100 26.3305
v -386.0876 0.0000 29.8146
v -386.0876 0.0000 26.3305
v -386.0876 0.0100 26.3305
v -386.0876 0.0100 29.8146
vt -219.7500 -19.7500
vt -219.7500 19.7500
vt -180.2500 19.7500
vt -180.2500 -19.7500
vt -219.7500 -19.7500
vt -180.2500 -19.7500
vt -180.2500 19.7500
vt -219.7500 19.7500
vt -219.7500 -0.2500
vt -180.2500 -0.2500
vt -180.2500 0.0000
vt -219.7500 0.0000
vt -180.2500 -0.2500
vt -219.7500 -0.2500
vt -219.7500 0.0000
vt -180.2500 0.0000
vt -19.7500 -0.2500
vt 19.7500 -0.2500
vt 19.7500 0.0000
vt -19.7500 0.0000
vt 19.7500 -0.2500
vt -19.7500 -0.2500
vt -19.7500 0.0000
vt 19.7500 0.0000
vt -360.2459 -32.3770
vt -360.2459 32.3770
vt -295.4918 32.3770
vt -295.4918 -32.3770
vt -360.2459 -32.3770
vt -295.4918 -32.3770
vt -295.4918 32.3770
vt -360.2459 32.3770
vt -360.2459 2.6230
vt -295.4918 2.6230
vt -295.4918 3.0328
vt -360.2459 3.0328
vt -295.4918 2.6230
vt -360.2459 2.6230
vt -360.2459 3.0328
vt -295.4918 3.0328
vt -32.3770 2.6230
vt 32.3770 2.6230
vt 32.3770 3.0328
vt -32.3770 3.0328
vt 32.3770 2.6230
vt -32.3770 2.6230
vt -32.3770 3.0328
vt 32.3770 3.0328
vt -293.0000 -26.3333
vt -293.0000 26.3333
vt -292.6667 26.3333
vt -292.6667 -26.3333
vt -293.0000 -26.3333
vt -292.6667 -26.3333
vt -292.6667 26.3333
vt -293.0000 26.3333
vt -293.0000 0.0000
vt -292.6667 0.0000
vt -292.6667 2.1333
vt -293.0000 2.1333
vt -292.6667 0.0000
vt -293.0000 0.0000
vt -293.0000 2.1333
vt -292.6667 2.1333
vt -26.3333 0.0000
vt 26.3333 0.0000
vt 26.3333 2.1333
vt -26.3333 2.1333
vt 26.3333 0.0000
vt -26.3333 0.0000
vt -26.3333 2.1333
vt 26.3333 2.1333
vt -293.0000 -26.3333
vt -293.0000 -26.0000
vt -240.3333 -26.0000
vt -240.3333 -26.3333
vt -293.0000 -26.3333
vt -240.3333 -26.3333
vt -240.3333 -26.0000
vt -293.0000 -26.0000
vt -293.0000 0.0000
vt -240.3333 0.0000
vt -240.3333 2.1333
vt -293.0000 2.1333
vt -240.3333 0.0000
vt -293.0000 0.0000
vt -293.0000 2.1333
vt -240.3333 2.1333
vt -26.3333 0.0000
vt -26.0000 0.0000
vt -26.0000 2.1333
vt -26.3333 2.1333
vt -26.0000 0.0000
vt -26.3333 0.0000
vt -26.3333 2.1333
vt -26.0000 2.1333
vt -240.6667 -26.3333
vt -240.6667 26.3333
vt -240.3333 26.3333
vt -240.3333 -26.3333
vt -240.6667 -26.3333
vt -240.3333 -26.3333
vt -240.3333 26.3333
vt -240.6667 26.3333
vt -240.6667 0.0000
vt -240.3333 0.0000
vt -240.3333 2.1333
vt -240.6667 2.1333
vt -240.3333 0.0000
vt -240.6667 0.0000
vt -240.6667 2.1333
vt -240.3333 2.1333
vt -26.3333 0.0000
vt 26.3333 0.0000
vt 26.3333 2.1333
vt -26.3333 2.1333
vt 26.3333 0.0000
vt -26.3333 0.0000
vt -26.3333 2.1333
vt 26.3333 2.1333
vt -293.0000 26.0000
vt -293.0000 26.3333
vt -240.3333 26.3333
vt -240.3333 26.0000
vt -293.0000 26.0000
vt -240.3333 26.0000
vt -240.3333 26.3333
vt -293.0000 26.3333
vt -293.0000 0.0000
vt -240.3333 0.0000
vt -240.3333 2.1333
vt -293.0000 2.1333
vt -240.3333 0.0000
vt -293.0000 0.0000
vt -293.0000 2.1333
vt -240.3333 2.1333
vt 26.0000 0.0000
vt 26.3333 0.0000
vt 26.3333 2.1333
vt 26.0000 2.1333
vt 26.3333 0.0000
vt 26.0000 0.0000
vt 26.0000 2.1333
vt 26.3333 2.1333
vt -184.6982 -3.0487
vt -184.6982 -2.5378
vt -184.0794 -2.5378
vt -184.0794 -3.0487
vt -184.6982 -3.0487
vt -184.0794 -3.0487
vt -184.0794 -2.5378
vt -184.6982 -2.5378
vt -184.6982 0.0000
vt -184.0794 0.0000
vt -184.0794 0.0050
vt -184.6982 0.0050
vt -184.0794 0.0000
vt -184.6982 0.0000
vt -184.6982 0.0050
vt -184.0794 0.0050
vt -3.0487 0.0000
vt -2.5378 0.0000
vt -2.5378 0.0050
vt -3.0487 0.0050
vt -2.5378 0.0000
vt -3.0487 0.0000
vt -3.0487 0.0050
vt -2.5378 0.0050
vt -198.8743 5.4078
vt -198.8743 5.8822
vt -198.0933 5.8822
vt -198.0933 5.4078
vt -198.8743 5.4078
vt -198.0933 5.4078
vt -198.0933 5.8822
vt -198.8743 5.8822
vt -198.8743 0.0000
vt -198.0933 0.0000
vt -198.0933 0.0050
vt -198.8743 0.0050
vt -198.0933 0.0000
vt -198.8743 0.0000
vt -198.8743 0.0050
vt -198.0933 0.0050
vt 5.4078 0.0000
vt 5.8822 0.0000
vt 5.8822 0.0050
vt 5.4078 0.0050
vt 5.8822 0.0000
vt 5.4078 0.0000
vt 5.4078 0.0050
vt 5.8822 0.0050
vt -217.7015 13.5965
vt -217.7015 14.9013
vt -216.7200 14.9013
vt -216.7200 13.5965
vt -217.7015 13.5965
vt -216.7200 13.5965
vt -216.7200 14.9013
vt -217.7015 14.9013
vt -217.7015 0.0000
vt -216.7200 0.0000
vt -216.7200 0.0050
vt -217.7015 0.0050
vt -216.7200 0.0000
vt -217.7015 0.0000
vt -217.7015 0.0050
vt -216.7200 0.0050
vt 13.5965 0.0000
vt 14.9013 0.0000
vt 14.9013 0.0050
vt 13.5965 0.0050
vt 14.9013 0.0000
vt 13.5965 0.0000
vt 13.5965 0.0050
vt 14.9013 0.0050
vt -183.6044 16.0419
vt -183.6044 17.7827
vt -182.0747 17.7827
vt -182.0747 16.0419
vt -183.6044 16.0419
vt -182.0747 16.0419
vt -182.0747 17.7827
vt -183.6044 17.7827
vt -183.6044 0.0000
vt -182.0747 0.0000
vt -182.0747 0.0050
vt -183.6044 0.0050
vt -182.0747 0.0000
vt -183.6044 0.0000
vt -183.6044 0.0050
vt -182.0747 0.0050
vt 16.0419 0.0000
vt 17.7827 0.0000
vt 17.7827 0.0050
vt 16.0419 0.0050
vt 17.7827 0.0000
vt 16.0419 0.0000
vt 16.0419 0.0050
vt 17.7827 0.0050
vt -189.1507 -18.4588
vt -189.1507 -17.8757
vt -188.5600 -17.8757
vt -188.5600 -18.4588
vt -189.1507 -18.4588
vt -188.5600 -18.4588
vt -188.5600 -17.8757
vt -189.1507 -17.8757
vt -189.1507 0.0000
vt -188.5600 0.0000
vt -188.5600 0.0050
vt -189.1507 0.0050
vt -188.5600 0.0000
vt -189.1507 0.0000
vt -189.1507 0.0050
vt -188.5600 0.0050
vt -18.4588 0.0000
vt -17.8757 0.0000
vt -17.8757 0.0050
vt -18.4588 0.0050
vt -17.8757 0.0000
vt -18.4588 0.0000
vt -18.4588 0.0050
vt -17.8757 0.0050
vt -213.9575 10.6144
vt -213.9575 12.1697
vt -212.7232 12.1697
vt -212.7232 10.6144
vt -213.9575 10.6144
vt -212.7232 10.6144
vt -212.7232 12.1697
vt -213.9575 12.1697
vt -213.9575 0.0000
vt -212.7232 0.0000
vt -212.7232 0.0050
vt -213.9575 0.0050
vt -212.7232 0.0000
vt -213.9575 0.0000
vt -213.9575 0.0050
vt -212.7232 0.0050
vt 10.6144 0.0000
vt 12.1697 0.0000
vt 12.1697 0.0050
vt 10.6144 0.0050
vt 12.1697 0.0000
vt 10.6144 0.0000
vt 10.6144 0.0050
vt 12.1697 0.0050
vt -193.0794 -12.8567
vt -193.0794 -11.4513
vt -191.8553 -11.4513
vt -191.8553 -12.8567
vt -193.0794 -12.8567
vt -191.8553 -12.8567
vt -191.8553 -11.4513
vt -193.0794 -11.4513
vt -193.0794 0.0000
vt -191.8553 0.0000
vt -191.8553 0.0050
vt -193.0794 0.0050
vt -191.8553 0.0000
vt -193.0794 0.0000
vt -193.0794 0.0050
vt -191.8553 0.0050
vt -12.8567 0.0000
vt -11.4513 0.0000
vt -11.4513 0.0050
vt -12.8567 0.0050
vt -11.4513 0.0000
vt -12.8567 0.0000
vt -12.8567 0.0050
vt -11.4513 0.0050
vt -197.7431 -2.7280
vt -197.7431 -1.6552
vt -196.8041 -1.6552
vt -196.8041 -2.7280
vt -197.7431 -2.7280
vt -196.8041 -2.7280
vt -196.8041 -1.6552
vt -197.7431 -1.6552
vt -197.7431 0.0000
vt -196.8041 0.0000
vt -196.8041 0.0050
vt -197.7431 0.0050
vt -196.8041 0.0000
vt -197.7431 0.0000
vt -197.7431 0.0050
vt -196.8041 0.0050
vt -2.7280 0.0000
vt -1.6552 0.0000
vt -1.6552 0.0050
vt -2.7280 0.0050
vt -1.6552 0.0000
vt -2.7280 0.0000
vt -2.7280 0.0050
vt -1.6552 0.0050
vt -215.3383 -9.0706
vt -215.3383 -7.4223
vt -213.6600 -7.4223
vt -213.6600 -9.0706
vt -215.3383 -9.0706
vt -213.6600 -9.0706
vt -213.6600 -7.4223
vt -215.3383 -7.4223
vt -215.3383 0.0000
vt -213.6600 0.0000
vt -213.6600 0.0050
vt -215.3383 0.0050
vt -213.6600 0.0000
vt -215.3383 0.0000
vt -215.3383 0.0050
vt -213.6600 0.0050
vt -9.0706 0.0000
vt -7.4223 0.0000
vt -7.4223 0.0050
vt -9.0706 0.0050
vt -7.4223 0.0000
vt -9.0706 0.0000
vt -9.0706 0.0050
vt -7.4223 0.0050
vt -205.8214 3.2687
vt -205.8214 4.5747
vt -204.2728 4.5747
vt -204.2728 3.2687
vt -205.8214 3.2687
vt -204.2728 3.2687
vt -204.2728 4.5747
vt -205.8214 4.5747
vt -205.8214 0.0000
vt -204.2728 0.0000
vt -204.2728 0.0050
vt -205.8214 0.0050
vt -204.2728 0.0000
vt -205.8214 0.0000
vt -205.8214 0.0050
vt -204.2728 0.0050
vt 3.2687 0.0000
vt 4.5747 0.0000
vt 4.5747 0.0050
vt 3.2687 0.0050
vt 4.5747 0.0000
vt 3.2687 0.0000
vt 3.2687 0.0050
vt 4.5747 0.0050
vt -206.0019 0.0167
vt -206.0019 1.6648
vt -204.4662 1.6648
vt -204.4662 0.0167
vt -206.0019 0.0167
vt -204.4662 0.0167
vt -204.4662 1.6648
vt -206.0019 1.6648
vt -206.0019 0.0000
vt -204.4662 0.0000
vt -204.4662 0.0050
vt -206.0019 0.0050
vt -204.4662 0.0000
vt -206.0019 0.0000
vt -206.0019 0.0050
vt -204.4662 0.0050
vt 0.0167 0.0000
vt 1.6648 0.0000
vt 1.6648 0.0050
vt 0.0167 0.0050
vt 1.6648 0.0000
vt 0.0167 0.0000
vt 0.0167 0.0050
vt 1.6648 0.0050
vt -207.3398 -2.6052
vt -207.3398 -1.2784
vt -205.9719 -1.2784
vt -205.9719 -2.6052
vt -207.3398 -2.6052
vt -205.9719 -2.6052
vt -205.9719 -1.2784
vt -207.3398 -1.2784
vt -207.3398 0.0000
vt -205.9719 0.0000
vt -205.9719 0.0050
vt -207.3398 0.0050
vt -205.9719 0.0000
vt -207.3398 0.0000
vt -207.3398 0.0050
vt -205.9719 0.0050
vt -2.6052 0.0000
vt -1.2784 0.0000
vt -1.2784 0.0050
vt -2.6052 0.0050
vt -1.2784 0.0000
vt -2.6052 0.0000
vt -2.6052 0.0050
vt -1.2784 0.0050
vt -217.8339 -1.8071
vt -217.8339 -0.8423
vt -216.8441 -0.8423
vt -216.8441 -1.8071
vt -217.8339 -1.8071
vt -216.8441 -1.8071
vt -216.8441 -0.8423
vt -217.8339 -0.8423
vt -217.8339 0.0000
vt -216.8441 0.0000
vt -216.8441 0.0050
vt -217.8339 0.0050
vt -216.8441 0.0000
vt -217.8339 0.0000
vt -217.8339 0.0050
vt -216.8441 0.0050
vt -1.8071 0.0000
vt -0.8423 0.0000
vt -0.8423 0.0050
vt -1.8071 0.0050
vt -0.8423 0.0000
vt -1.8071 0.0000
vt -1.8071 0.0050
vt -0.8423 0.0050
vt -181.2665 -1.1132
vt -181.2665 0.0157
vt -180.2910 0.0157
vt -180.2910 -1.1132
vt -181.2665 -1.1132
vt -180.2910 -1.1132
vt -180.2910 0.0157
vt -181.2665 0.0157
vt -181.2665 0.0000
vt -180.2910 0.0000
vt -180.2910 0.0050
vt -181.2665 0.0050
vt -180.2910 0.0000
vt -181.2665 0.0000
vt -181.2665 0.0050
vt -180.2910 0.0050
vt -1.1132 0.0000
vt 0.0157 0.0000
vt 0.0157 0.0050
vt -1.1132 0.0050
vt 0.0157 0.0000
vt -1.1132 0.0000
vt -1.1132 0.0050
vt 0.0157 0.0050
vt -208.4102 -1.4238
vt -208.4102 -0.8171
vt -207.7749 -0.8171
vt -207.7749 -1.4238
vt -208.4102 -1.4238
vt -207.7749 -1.4238
vt -207.7749 -0.8171
vt -208.4102 -0.8171
vt -208.4102 0.0000
vt -207.7749 0.0000
vt -207.7749 0.0050
vt -208.4102 0.0050
vt -207.7749 0.0000
vt -208.4102 0.0000
vt -208.4102 0.0050
vt -207.7749 0.0050
vt -1.4238 0.0000
vt -0.8171 0.0000
vt -0.8171 0.0050
vt -1.4238 0.0050
vt -0.8171 0.0000
vt -1.4238 0.0000
vt -1.4238 0.0050
vt -0.8171 0.0050
vt -182.0043 17.8052
vt -182.0043 18.4143
vt -181.1809 18.4143
vt -181.1809 17.8052
vt -182.0043 17.8052
vt -181.1809 17.8052
vt -181.1809 18.4143
vt -182.0043 18.4143
vt -182.0043 0.0000
vt -181.1809 0.0000
vt -181.1809 0.0050
vt -182.0043 0.0050
vt -181.1809 0.0000
vt -182.0043 0.0000
vt -182.0043 0.0050
vt -181.1809 0.0050
vt 17.8052 0.0000
vt 18.4143 0.0000
vt 18.4143 0.0050
vt 17.8052 0.0050
vt 18.4143 0.0000
vt 17.8052 0.0000
vt 17.8052 0.0050
vt 18.4143 0.0050
vt -188.6830 15.6290
vt -188.6830 17.3084
vt -187.3123 17.3084
vt -187.3123 15.6290
vt -188.6830 15.6290
vt -187.3123 15.6290
vt -187.3123 17.3084
vt -188.6830 17.3084
vt -188.6830 0.0000
vt -187.3123 0.0000
vt -187.3123 0.0050
vt -188.6830 0.0050
vt -187.3123 0.0000
vt -188.6830 0.0000
vt -188.6830 0.0050
vt -187.3123 0.0050
vt 15.6290 0.0000
vt 17.3084 0.0000
vt 17.3084 0.0050
vt 15.6290 0.0050
vt 17.3084 0.0000
vt 15.6290 0.0000
vt 15.6290 0.0050
vt 17.3084 0.0050
vt -188.4188 -8.6373
vt -188.4188 -6.5050
vt -186.8324 -6.5050
vt -186.8324 -8.6373
vt -188.4188 -8.6373
vt -186.8324 -8.6373
vt -186.8324 -6.5050
vt -188.4188 -6.5050
vt -188.4188 0.0000
vt -186.8324 0.0000
vt -186.8324 0.0050
vt -188.4188 0.0050
vt -186.8324 0.0000
vt -188.4188 0.0000
vt -188.4188 0.0050
vt -186.8324 0.0050
vt -8.6373 0.0000
vt -6.5050 0.0000
vt -6.5050 0.0050
vt -8.6373 0.0050
vt -6.5050 0.0000
vt -8.6373 0.0000
vt -8.6373 0.0050
vt -6.5050 0.0050
vt -198.6759 -14.4440
vt -198.6759 -13.2750
vt -197.1991 -13.2750
vt -197.1991 -14.4440
vt -198.6759 -14.4440
vt -197.1991 -14.4440
vt -197.1991 -13.2750
vt -198.6759 -13.2750
vt -198.6759 0.0000
vt -197.1991 0.0000
vt -197.1991 0.0050
vt -198.6759 0.0050
vt -197.1991 0.0000
vt -198.6759 0.0000
vt -198.6759 0.0050
vt -197.1991 0.0050
vt -14.4440 0.0000
vt -13.2750 0.0000
vt -13.2750 0.0050
vt -14.4440 0.0050
vt -13.2750 0.0000
vt -14.4440 0.0000
vt -14.4440 0.0050
vt -13.2750 0.0050
vt -195.9314 -13.6185
vt -195.9314 -12.8271
vt -195.1887 -12.8271
vt -195.1887 -13.6185
vt -195.9314 -13.6185
vt -195.1887 -13.6185
vt -195.1887 -12.8271
vt -195.9314 -12.8271
vt -195.9314 0.0000
vt -195.1887 0.0000
vt -195.1887 0.0050
vt -195.9314 0.0050
vt -195.1887 0.0000
vt -195.9314 0.0000
vt -195.9314 0.0050
vt -195.1887 0.0050
vt -13.6185 0.0000
vt -12.8271 0.0000
vt -12.8271 0.0050
vt -13.6185 0.0050
vt -12.8271 0.0000
vt -13.6185 0.0000
vt -13.6185 0.0050
vt -12.8271 0.0050
vt -190.4942 -7.5174
vt -190.4942 -5.8867
vt -189.2221 -5.8867
vt -189.2221 -7.5174
vt -190.4942 -7.5174
vt -189.2221 -7.5174
vt -189.2221 -5.8867
vt -190.4942 -5.8867
vt -190.4942 0.0000
vt -189.2221 0.0000
vt -189.2221 0.0050
vt -190.4942 0.0050
vt -189.2221 0.0000
vt -190.4942 0.0000
vt -190.4942 0.0050
vt -189.2221 0.0050
vt -7.5174 0.0000
vt -5.8867 0.0000
vt -5.8867 0.0050
vt -7.5174 0.0050
vt -5.8867 0.0000
vt -7.5174 0.0000
vt -7.5174 0.0050
vt -5.8867 0.0050
vt -198.3049 13.1768
vt -198.3049 13.7899
vt -197.4166 13.7899
vt -197.4166 13.1768
vt -198.3049 13.1768
vt -197.4166 13.1768
vt -197.4166 13.7899
vt -198.3049 13.7899
vt -198.3049 0.0000
vt -197.4166 0.0000
vt -197.4166 0.0050
vt -198.3049 0.0050
vt -197.4166 0.0000
vt -198.3049 0.0000
vt -198.3049 0.0050
vt -197.4166 0.0050
vt 13.1768 0.0000
vt 13.7899 0.0000
vt 13.7899 0.0050
vt 13.1768 0.0050
vt 13.7899 0.0000
vt 13.1768 0.0000
vt 13.1768 0.0050
vt 13.7899 0.0050
vt -195.6703 -8.8033
vt -195.6703 -6.8726
vt -194.0830 -6.8726
vt -194.0830 -8.8033
vt -195.6703 -8.8033
vt -194.0830 -8.8033
vt -194.0830 -6.8726
vt -195.6703 -6.8726
vt -195.6703 0.0000
vt -194.0830 0.0000
vt -194.0830 0.0050
vt -195.6703 0.0050
vt -194.0830 0.0000
vt -195.6703 0.0000
vt -195.6703 0.0050
vt -194.0830 0.0050
vt -8.8033 0.0000
vt -6.8726 0.0000
vt -6.8726 0.0050
vt -8.8033 0.0050
vt -6.8726 0.0000
vt -8.8033 0.0000
vt -8.8033 0.0050
vt -6.8726 0.0050
vt -186.0194 10.1243
vt -186.0194 12.2247
vt -184.4555 12.2247
vt -184.4555 10.1243
vt -186.0194 10.1243
vt -184.4555 10.1243
vt -184.4555 12.2247
vt -186.0194 12.2247
vt -186.0194 0.0000
vt -184.4555 0.0000
vt -184.4555 0.0050
vt -186.0194 0.0050
vt -184.4555 0.0000
vt -186.0194 0.0000
vt -186.0194 0.0050
vt -184.4555 0.0050
vt 10.1243 0.0000
vt 12.2247 0.0000
vt 12.2247 0.0050
vt 10.1243 0.0050
vt 12.2247 0.0000
vt 10.1243 0.0000
vt 10.1243 0.0050
vt 12.2247 0.0050
vt -217.1854 -19.2425
vt -217.1854 -17.7867
vt -216.0986 -17.7867
vt -216.0986 -19.2425
vt -217.1854 -19.2425
vt -216.0986 -19.2425
vt -216.0986 -17.7867
vt -217.1854 -17.7867
vt -217.1854 0.0000
vt -216.0986 0.0000
vt -216.0986 0.0050
vt -217.1854 0.0050
vt -216.0986 0.0000
vt -217.1854 0.0000
vt -217.1854 0.0050
vt -216.0986 0.0050
vt -19.2425 0.0000
vt -17.7867 0.0000
vt -17.7867 0.0050
vt -19.2425 0.0050
vt -17.7867 0.0000
vt -19.2425 0.0000
vt -19.2425 0.0050
vt -17.7867 0.0050
vt -199.7774 -5.3177
vt -199.7774 -3.8312
vt -198.0355 -3.8312
vt -198.0355 -5.3177
vt -199.7774 -5.3177
vt -198.0355 -5.3177
vt -198.0355 -3.8312
vt -199.7774 -3.8312
vt -199.7774 0.0000
vt -198.0355 0.0000
vt -198.0355 0.0050
vt -199.7774 0.0050
vt -198.0355 0.0000
vt -199.7774 0.0000
vt -199.7774 0.0050
vt -198.0355 0.0050
vt -5.3177 0.0000
vt -3.8312 0.0000
vt -3.8312 0.0050
vt -5.3177 0.0050
vt -3.8312 0.0000
vt -5.3177 0.0000
vt -5.3177 0.0050
vt -3.8312 0.0050
vt -210.8662 3.6816
vt -210.8662 4.8436
vt -209.9492 4.8436
vt -209.9492 3.6816
vt -210.8662 3.6816
vt -209.9492 3.6816
vt -209.9492 4.8436
vt -210.8662 4.8436
vt -210.8662 0.0000
vt -209.9492 0.0000
vt -209.9492 0.0050
vt -210.8662 0.0050
vt -209.9492 0.0000
vt -210.8662 0.0000
vt -210.8662 0.0050
vt -209.9492 0.0050
vt 3.6816 0.0000
vt 4.8436 0.0000
vt 4.8436 0.0050
vt 3.6816 0.0050
vt 4.8436 0.0000
vt 3.6816 0.0000
vt 3.6816 0.0050
vt 4.8436 0.0050
vt -205.0756 -11.4641
vt -205.0756 -10.2136
vt -203.8839 -10.2136
vt -203.8839 -11.4641
vt -205.0756 -11.4641
vt -203.8839 -11.4641
vt -203.8839 -10.2136
vt -205.0756 -10.2136
vt -205.0756 0.0000
vt -203.8839 0.0000
vt -203.8839 0.0050
vt -205.0756 0.0050
vt -203.8839 0.0000
vt -205.0756 0.0000
vt -205.0756 0.0050
vt -203.8839 0.0050
vt -11.4641 0.0000
vt -10.2136 0.0000
vt -10.2136 0.0050
vt -11.4641 0.0050
vt -10.2136 0.0000
vt -11.4641 0.0000
vt -11.4641 0.0050
vt -10.2136 0.0050
vt -193.4992 2.0441
vt -193.4992 3.3060
vt -192.3569 3.3060
vt -192.3569 2.0441
vt -193.4992 2.0441
vt -192.3569 2.0441
vt -192.3569 3.3060
vt -193.4992 3.3060
vt -193.4992 0.0000
vt -192.3569 0.0000
vt -192.3569 0.0050
vt -193.4992 0.0050
vt -192.3569 0.0000
vt -193.4992 0.0000
vt -193.4992 0.0050
vt -192.3569 0.0050
vt 2.0441 0.0000
vt 3.3060 0.0000
vt 3.3060 0.0050
vt 2.0441 0.0050
vt 3.3060 0.0000
vt 2.0441 0.0000
vt 2.0441 0.0050
vt 3.3060 0.0050
vt -186.4163 8.0330
vt -186.4163 8.5446
vt -185.9038 8.5446
vt -185.9038 8.0330
vt -186.4163 8.0330
vt -185.9038 8.0330
vt -185.9038 8.5446
vt -186.4163 8.5446
vt -186.4163 0.0000
vt -185.9038 0.0000
vt -185.9038 0.0050
vt -186.4163 0.0050
vt -185.9038 0.0000
vt -186.4163 0.0000
vt -186.4163 0.0050
vt -185.9038 0.0050
vt 8.0330 0.0000
vt 8.5446 0.0000
vt 8.5446 0.0050
vt 8.0330 0.0050
vt 8.5446 0.0000
vt 8.0330 0.0000
vt 8.0330 0.0050
vt 8.5446 0.0050
vt -194.4068 -2.6007
vt -194.4068 -0.9830
vt -192.8942 -0.9830
vt -192.8942 -2.6007
vt -194.4068 -2.6007
vt -192.8942 -2.6007
vt -192.8942 -0.9830
vt -194.4068 -0.9830
vt -194.4068 0.0000
vt -192.8942 0.0000
vt -192.8942 0.0050
vt -194.4068 0.0050
vt -192.8942 0.0000
vt -194.4068 0.0000
vt -194.4068 0.0050
vt -192.8942 0.0050
vt -2.6007 0.0000
vt -0.9830 0.0000
vt -0.9830 0.0050
vt -2.6007 0.0050
vt -0.9830 0.0000
vt -2.6007 0.0000
vt -2.6007 0.0050
vt -0.9830 0.0050
vt -193.0438 13.1652
vt -193.0438 14.9073
vt -191.7758 14.9073
vt -191.7758 13.1652
vt -193.0438 13.1652
vt -191.7758 13.1652
vt -191.7758 14.9073
vt -193.0438 14.9073
vt -193.0438 0.0000
vt -191.7758 0.0000
vt -191.7758 0.0050
vt -193.0438 0.0050
vt -191.7758 0.0000
vt -193.0438 0.0000
vt -193.0438 0.0050
vt -191.7758 0.0050
vt 13.1652 0.0000
vt 14.9073 0.0000
vt 14.9073 0.0050
vt 13.1652 0.0050
vt 14.9073 0.0000
vt 13.1652 0.0000
vt 13.1652 0.0050
vt 14.9073 0.0050
usemtl carpet
f 1/1 2/2 3/3 4/4
f 5/5 6/6 7/7 8/8
f 9/9 10/10 11/11 12/12
f 13/13 14/14 15/15 16/16
f 17/17 18/18 19/19 20/20
f 21/21 22/22 23/23 24/24
usemtl ceiling_tile
f 25/25 26/26 27/27 28/28
f 29/29 30/30 31/31 32/32
f 33/33 34/34 35/35 36/36
f 37/37 38/38 39/39 40/40
f 41/41 42/42 43/43 44/44
f 45/45 46/46 47/47 48/48
usemtl wallpaper
f 49/49 50/50 51/51 52/52
f 53/53 54/54 55/55 56/56
f 57/57 58/58 59/59 60/60
f 61/61 62/62 63/63 64/64
f 65/65 66/66 67/67 68/68
f 69/69 70/70 71/71 72/72
f 73/73 74/74 75/75 76/76
f 77/77 78/78 79/79 80/80
f 81/81 82/82 83/83 84/84
f 85/85 86/86 87/87 88/88
f 89/89 90/90 91/91 92/92
f 93/93 94/94 95/95 96/96
f 97/97 98/98 99/99 100/100
f 101/101 102/102 103/103 104/104
f 105/105 106/106 107/107 108/108
f 109/109 110/110 111/111 112/112
f 113/113 114/114 115/115 116/116
f 117/117 118/118 119/119 120/120
f 121/121 122/122 123/123 124/124
f 125/125 126/126 127/127 128/128
f 129/129 130/130 131/131 132/132
f 133/133 134/134 135/135 136/136
f 137/137 138/138 139/139 140/140
f 141/141 142/142 143/143 144/144
usemtl carpet_stain
f 145/145 146/146 147/147 148/148
f 149/149 150/150 151/151 152/152
f 153/153 154/154 155/155 156/156
f 157/157 158/158 159/159 160/160
f 161/161 162/162 163/163 164/164
f 165/165 166/166 167/167 168/168
f 169/169 170/170 171/171 172/172
f 173/173 174/174 175/175 176/176
f 177/177 178/178 179/179 180/180
f 181/181 182/182 183/183 184/184
f 185/185 186/186 187/187 188/188
f 189/189 190/190 191/191 192/192
f 193/193 194/194 195/195 196/196
f 197/197 198/198 199/199 200/200
f 201/201 202/202 203/203 204/204
f 205/205 206/206 207/207 208/208
f 209/209 210/210 211/211 212/212
f 213/213 214/214 215/215 216/216
f 217/217 218/218 219/219 220/220
f 221/221 222/222 223/223 224/224
f 225/225 226/226 227/227 228/228
f 229/229 230/230 231/231 232/232
f 233/233 234/234 235/235 236/236
f 237/237 238/238 239/239 240/240
f 241/241 242/242 243/243 244/244
f 245/245 246/246 247/247 248/248
f 249/249 250/250 251/251 252/252
f 253/253 254/254 255/255 256/256
f 257/257 258/258 259/259 260/260
f 261/261 262/262 263/263 264/264
f 265/265 266/266 267/267 268/268
f 269/269 270/270 271/271 272/272
f 273/273 274/274 275/275 276/276
f 277/277 278/278 279/279 280/280
f 281/281 282/282 283/283 284/284
f 285/285 286/286 287/287 288/288
f 289/289 290/290 291/291 292/292
f 293/293 294/294 295/295 296/296
f 297/297 298/298 299/299 300/300
f 301/301 302/302 303/303 304/304
f 305/305 306/306 307/307 308/308
f 309/309 310/310 311/311 312/312
f 313/313 314/314 315/315 316/316
f 317/317 318/318 319/319 320/320
f 321/321 322/322 323/323 324/324
f 325/325 326/326 327/327 328/328
f 329/329 330/330 331/331 332/332
f 333/333 334/334 335/335 336/336
f 337/337 338/338 339/339 340/340
f 341/341 342/342 343/343 344/344
f 345/345 346/346 347/347 348/348
f 349/349 350/350 351/351 352/352
f 353/353 354/354 355/355 356/356
f 357/357 358/358 359/359 360/360
f 361/361 362/362 363/363 364/364
f 365/365 366/366 367/367 368/368
f 369/369 370/370 371/371 372/372
f 373/373 374/374 375/375 376/376
f 377/377 378/378 379/379 380/380
f 381/381 382/382 383/383 384/384
f 385/385 386/386 387/387 388/388
f 389/389 390/390 391/391 392/392
f 393/393 394/394 395/395 396/396
f 397/397 398/398 399/399 400/400
f 401/401 402/402 403/403 404/404
f 405/405 406/406 407/407 408/408
f 409/409 410/410 411/411 412/412
f 413/413 414/414 415/415 416/416
f 417/417 418/418 419/419 420/420
f 421/421 422/422 423/423 424/424
f 425/425 426/426 427/427 428/428
f 429/429 430/430 431/431 432/432
f 433/433 434/434 435/435 436/436
f 437/437 438/438 439/439 440/440
f 441/441 442/442 443/443 444/444
f 445/445 446/446 447/447 448/448
f 449/449 450/450 451/451 452/452
f 453/453 454/454 455/455 456/456
f 457/457 458/458 459/459 460/460
f 461/461 462/462 463/463 464/464
f 465/465 466/466 467/467 468/468
f 469/469 470/470 471/471 472/472
f 473/473 474/474 475/475 476/476
f 477/477 478/478 479/479 480/480
f 481/481 482/482 483/483 484/484
f 485/485 486/486 487/487 488/488
f 489/489 490/490 491/491 492/492
f 493/493 494/494 495/495 496/496
f 497/497 498/498 499/499 500/500
f 501/501 502/502 503/503 504/504
f 505/505 506/506 507/507 508/508
f 509/509 510/510 511/511 512/512
f 513/513 514/514 515/515 516/516
f 517/517 518/518 519/519 520/520
f 521/521 522/522 523/523 524/524
f 525/525 526/526 527/527 528/528
f 529/529 530/530 531/531 532/532
f 533/533 534/534 535/535 536/536
f 537/537 538/538 539/539 540/540
f 541/541 542/542 543/543 544/544
f 545/545 546/546 547/547 548/548
f 549/549 550/550 551/551 552/552
f 553/553 554/554 555/555 556/556
f 557/557 558/558 559/559 560/560
f 561/561 562/562 563/563 564/564
f 565/565 566/566 567/567 568/568
f 569/569 570/570 571/571 572/572
f 573/573 574/574 575/575 576/576
f 577/577 578/578 579/579 580/580
f 581/581 582/582 583/583 584/584
f 585/585 586/586 587/587 588/588
f 589/589 590/590 591/591 592/592
f 593/593 594/594 595/595 596/596
f 597/597 598/598 599/599 600/600
f 601/601 602/602 603/603 604/604
f 605/605 606/606 607/607 608/608
f 609/609 610/610 611/611 612/612
f 613/613 614/614 615/615 616/616
f 617/617 618/618 619/619 620/620
f 621/621 622/622 623/623 624/624
f 625/625 626/626 627/627 628/628
f 629/629 630/630 631/631 632/632
f 633/633 634/634 635/635 636/636
f 637/637 638/638 639/639 640/640
f 641/641 642/642 643/643 644/644
f 645/645 646/646 647/647 648/648
f 649/649 650/650 651/651 652/652
f 653/653 654/654 655/655 656/656
f 657/657 658/658 659/659 660/660
f 661/661 662/662 663/663 664/664
f 665/665 666/666 667/667 668/668
f 669/669 670/670 671/671 672/672
f 673/673 674/674 675/675 676/676
f 677/677 678/678 679/679 680/680
f 681/681 682/682 683/683 684/684
f 685/685 686/686 687/687 688/688
f 689/689 690/690 691/691 692/692
f 693/693 694/694 695/695 696/696
f 697/697 698/698 699/699 700/700
f 701/701 702/702 703/703 704/704
f 705/705 706/706 707/707 708/708
f 709/709 710/710 711/711 712/712
f 713/713 714/714 715/715 716/716
f 717/717 718/718 719/719 720/720
f 721/721 722/722 723/723 724/724
f 725/725 726/726 727/727 728/728
f 729/729 730/730 731/731 732/732
f 733/733 734/734 735/735 736/736
f 737/737 738/738 739/739 740/740
f 741/741 742/742 743/743 744/744
f 745/745 746/746 747/747 748/748
f 749/749 750/750 751/751 752/752
f 753/753 754/754 755/755 756/756
f 757/757 758/758 759/759 760/760
f 761/761 762/762 763/763 764/764
f 765/765 766/766 767/767 768/768
f 769/769 770/770 771/771 772/772
f 773/773 774/774 775/775 776/776
f 777/777 778/778 779/779 780/780
f 781/781 782/782 783/783 784/784
f 785/785 786/786 787/787 788/788
f 789/789 790/790 791/791 792/792
f 793/793 794/794 795/795 796/796
f 797/797 798/798 799/799 800/800
f 801/801 802/802 803/803 804/804
f 805/805 806/806 807/807 808/808
f 809/809 810/810 811/811 812/812
f 813/813 814/814 815/815 816/816
f 817/817 818/818 819/819 820/820
f 821/821 822/822 823/823 824/824
f 825/825 826/826 827/827 828/828
f 829/829 830/830 831/831 832/832
f 833/833 834/834 835/835 836/836
f 837/837 838/838 839/839 840/840
f 841/841 842/842 843/843 844/844
f 845/845 846/846 847/847 848/848
f 849/849 850/850 851/851 852/852
f 853/853 854/854 855/855 856/856
f 857/857 858/858 859/859 860/860
f 861/861 862/862 863/863 864/864
f 865/865 866/866 867/867 868/868
f 869/869 870/870 871/871 872/872
f 873/873 874/874 875/875 876/876
f 877/877 878/878 879/879 880/880
f 881/881 882/882 883/883 884/884
f 885/885 886/886 887/887 888/888
f 889/889 890/890 891/891 892/892
f 893/893 894/894 895/895 896/896
f 897/897 898/898 899/899 900/900
f 901/901 902/902 903/903 904/904
f 905/905 906/906 907/907 908/908
f 909/909 910/910 911/911 912/912
