# RoastEngine Backrooms level
mtllib backrooms.mtl
v 836.9500 0.0000 36.9500
v 836.9500 0.0000 39.5500
v 839.5500 0.0000 39.5500
v 839.5500 0.0000 36.9500
v 836.9500 3.0000 36.9500
v 839.5500 3.0000 36.9500
v 839.5500 3.0000 39.5500
v 836.9500 3.0000 39.5500
v 836.9500 0.0000 36.9500
v 839.5500 0.0000 36.9500
v 839.5500 3.0000 36.9500
v 836.9500 3.0000 36.9500
v 839.5500 0.0000 39.5500
v 836.9500 0.0000 39.5500
v 836.9500 3.0000 39.5500
v 839.5500 3.0000 39.5500
v 839.5500 0.0000 36.9500
v 839.5500 0.0000 39.5500
v 839.5500 3.0000 39.5500
v 839.5500 3.0000 36.9500
v 836.9500 0.0000 39.5500
v 836.9500 0.0000 36.9500
v 836.9500 3.0000 36.9500
v 836.9500 3.0000 39.5500
v 836.9500 0.0000 39.2000
v 836.9500 0.0000 41.8000
v 839.5500 0.0000 41.8000
v 839.5500 0.0000 39.2000
v 836.9500 3.0000 39.2000
v 839.5500 3.0000 39.2000
v 839.5500 3.0000 41.8000
v 836.9500 3.0000 41.8000
v 836.9500 0.0000 39.2000
v 839.5500 0.0000 39.2000
v 839.5500 3.0000 39.2000
v 836.9500 3.0000 39.2000
v 839.5500 0.0000 41.8000
v 836.9500 0.0000 41.8000
v 836.9500 3.0000 41.8000
v 839.5500 3.0000 41.8000
v 839.5500 0.0000 39.2000
v 839.5500 0.0000 41.8000
v 839.5500 3.0000 41.8000
v 839.5500 3.0000 39.2000
v 836.9500 0.0000 41.8000
v 836.9500 0.0000 39.2000
v 836.9500 3.0000 39.2000
v 836.9500 3.0000 41.8000
v 838.3700 2.6000 38.2500
v 838.3700 2.6000 38.2500
v 838.3349 2.6000 38.3349
v 838.3349 2.6000 38.3349
v 838.2500 2.6000 38.3700
v 838.2500 2.6000 38.3700
v 838.1651 2.6000 38.3349
v 838.1651 2.6000 38.3349
v 838.1300 2.6000 38.2500
v 838.1300 2.6000 38.2500
v 838.1651 2.6000 38.1651
v 838.1651 2.6000 38.1651
v 838.2500 2.6000 38.1300
v 838.2500 2.6000 38.1300
v 838.3349 2.6000 38.1651
v 838.3349 2.6000 38.1651
v 838.2500 2.6000 38.2500
v 838.2500 2.6000 38.2500
v 838.2500 2.4800 38.1300
v 842.7500 2.4800 38.1300
v 842.7500 2.4800 38.3700
v 838.2500 2.4800 38.3700
v 838.2500 2.7200 38.1300
v 842.7500 2.7200 38.1300
v 842.7500 2.7200 38.3700
v 838.2500 2.7200 38.3700
v 838.3700 2.6000 42.7500
v 838.3700 2.6000 42.7500
v 838.3349 2.6000 42.8349
v 838.3349 2.6000 42.8349
v 838.2500 2.6000 42.8700
v 838.2500 2.6000 42.8700
v 838.1651 2.6000 42.8349
v 838.1651 2.6000 42.8349
v 838.1300 2.6000 42.7500
v 838.1300 2.6000 42.7500
v 838.1651 2.6000 42.6651
v 838.1651 2.6000 42.6651
v 838.2500 2.6000 42.6300
v 838.2500 2.6000 42.6300
v 838.3349 2.6000 42.6651
v 838.3349 2.6000 42.6651
v 838.2500 2.6000 42.7500
v 838.2500 2.6000 42.7500
v 838.2500 2.4800 42.6300
v 842.7500 2.4800 42.6300
v 842.7500 2.4800 42.8700
v 838.2500 2.4800 42.8700
v 838.2500 2.7200 42.6300
v 842.7500 2.7200 42.6300
v 842.7500 2.7200 42.8700
v 838.2500 2.7200 42.8700
vt 348.7292 15.3958
vt 348.7292 16.4792
vt 349.8125 16.4792
vt 349.8125 15.3958
vt 348.7292 15.3958
vt 349.8125 15.3958
vt 349.8125 16.4792
vt 348.7292 16.4792
vt 348.7292 0.0000
vt 349.8125 0.0000
vt 349.8125 1.2500
vt 348.7292 1.2500
vt 349.8125 0.0000
vt 348.7292 0.0000
vt 348.7292 1.2500
vt 349.8125 1.2500
vt 15.3958 0.0000
vt 16.4792 0.0000
vt 16.4792 1.2500
vt 15.3958 1.2500
vt 16.4792 0.0000
vt 15.3958 0.0000
vt 15.3958 1.2500
vt 16.4792 1.2500
vt 348.7292 16.3333
vt 348.7292 17.4167
vt 349.8125 17.4167
vt 349.8125 16.3333
vt 348.7292 16.3333
vt 349.8125 16.3333
vt 349.8125 17.4167
vt 348.7292 17.4167
vt 348.7292 0.0000
vt 349.8125 0.0000
vt 349.8125 1.2500
vt 348.7292 1.2500
vt 349.8125 0.0000
vt 348.7292 0.0000
vt 348.7292 1.2500
vt 349.8125 1.2500
vt 16.3333 0.0000
vt 17.4167 0.0000
vt 17.4167 1.2500
vt 16.3333 1.2500
vt 17.4167 0.0000
vt 16.3333 0.0000
vt 16.3333 1.2500
vt 17.4167 1.2500
usemtl pipe
f 49 51 52 50
f 51 53 54 52
f 53 55 56 54
f 55 57 58 56
f 57 59 60 58
f 59 61 62 60
f 61 63 64 62
f 63 49 50 64
f 65 50 52
f 66 51 49
f 65 52 54
f 66 53 51
f 65 54 56
f 66 55 53
f 65 56 58
f 66 57 55
f 65 58 60
f 66 59 57
f 65 60 62
f 66 61 59
f 65 62 64
f 66 63 61
f 65 64 50
f 66 49 63
f 67 70 69 68
f 71 72 73 74
f 67 68 72 71
f 69 70 74 73
f 68 69 73 72
f 70 67 71 74
f 75 77 78 76
f 77 79 80 78
f 79 81 82 80
f 81 83 84 82
f 83 85 86 84
f 85 87 88 86
f 87 89 90 88
f 89 75 76 90
f 91 76 78
f 92 77 75
f 91 78 80
f 92 79 77
f 91 80 82
f 92 81 79
f 91 82 84
f 92 83 81
f 91 84 86
f 92 85 83
f 91 86 88
f 92 87 85
f 91 88 90
f 92 89 87
f 91 90 76
f 92 75 89
f 93 96 95 94
f 97 98 99 100
f 93 94 98 97
f 95 96 100 99
f 94 95 99 98
f 96 93 97 100
usemtl brick
f 1/1 2/2 3/3 4/4
f 5/5 6/6 7/7 8/8
f 9/9 10/10 11/11 12/12
f 13/13 14/14 15/15 16/16
f 17/17 18/18 19/19 20/20
f 21/21 22/22 23/23 24/24
f 25/25 26/26 27/27 28/28
f 29/29 30/30 31/31 32/32
f 33/33 34/34 35/35 36/36
f 37/37 38/38 39/39 40/40
f 41/41 42/42 43/43 44/44
f 45/45 46/46 47/47 48/48
