# RoastEngine Backrooms level
mtllib backrooms.mtl
v 2387.5750 0.0000 29.5750
v 2387.5750 0.0000 33.4250
v 2391.4250 0.0000 33.4250
v 2391.4250 0.0000 29.5750
v 2387.5750 3.6000 29.5750
v 2391.4250 3.6000 29.5750
v 2391.4250 3.6000 33.4250
v 2387.5750 3.6000 33.4250
v 2387.5750 0.0000 29.5750
v 2391.4250 0.0000 29.5750
v 2391.4250 3.6000 29.5750
v 2387.5750 3.6000 29.5750
v 2391.4250 0.0000 33.4250
v 2387.5750 0.0000 33.4250
v 2387.5750 3.6000 33.4250
v 2391.4250 3.6000 33.4250
v 2391.4250 0.0000 29.5750
v 2391.4250 0.0000 33.4250
v 2391.4250 3.6000 33.4250
v 2391.4250 3.6000 29.5750
v 2387.5750 0.0000 33.4250
v 2387.5750 0.0000 29.5750
v 2387.5750 3.6000 29.5750
v 2387.5750 3.6000 33.4250
v 2391.0750 0.0000 29.5750
v 2391.0750 0.0000 33.4250
v 2394.9250 0.0000 33.4250
v 2394.9250 0.0000 29.5750
v 2391.0750 3.6000 29.5750
v 2394.9250 3.6000 29.5750
v 2394.9250 3.6000 33.4250
v 2391.0750 3.6000 33.4250
v 2391.0750 0.0000 29.5750
v 2394.9250 0.0000 29.5750
v 2394.9250 3.6000 29.5750
v 2391.0750 3.6000 29.5750
v 2394.9250 0.0000 33.4250
v 2391.0750 0.0000 33.4250
v 2391.0750 3.6000 33.4250
v 2394.9250 3.6000 33.4250
v 2394.9250 0.0000 29.5750
v 2394.9250 0.0000 33.4250
v 2394.9250 3.6000 33.4250
v 2394.9250 3.6000 29.5750
v 2391.0750 0.0000 33.4250
v 2391.0750 0.0000 29.5750
v 2391.0750 3.6000 29.5750
v 2391.0750 3.6000 33.4250
v 2394.5750 0.0000 29.5750
v 2394.5750 0.0000 33.4250
v 2398.4250 0.0000 33.4250
v 2398.4250 0.0000 29.5750
v 2394.5750 3.6000 29.5750
v 2398.4250 3.6000 29.5750
v 2398.4250 3.6000 33.4250
v 2394.5750 3.6000 33.4250
v 2394.5750 0.0000 29.5750
v 2398.4250 0.0000 29.5750
v 2398.4250 3.6000 29.5750
v 2394.5750 3.6000 29.5750
v 2398.4250 0.0000 33.4250
v 2394.5750 0.0000 33.4250
v 2394.5750 3.6000 33.4250
v 2398.4250 3.6000 33.4250
v 2398.4250 0.0000 29.5750
v 2398.4250 0.0000 33.4250
v 2398.4250 3.6000 33.4250
v 2398.4250 3.6000 29.5750
v 2394.5750 0.0000 33.4250
v 2394.5750 0.0000 29.5750
v 2394.5750 3.6000 29.5750
v 2394.5750 3.6000 33.4250
v 2401.5750 0.0000 29.5750
v 2401.5750 0.0000 33.4250
v 2405.4250 0.0000 33.4250
v 2405.4250 0.0000 29.5750
v 2401.5750 3.6000 29.5750
v 2405.4250 3.6000 29.5750
v 2405.4250 3.6000 33.4250
v 2401.5750 3.6000 33.4250
v 2401.5750 0.0000 29.5750
v 2405.4250 0.0000 29.5750
v 2405.4250 3.6000 29.5750
v 2401.5750 3.6000 29.5750
v 2405.4250 0.0000 33.4250
v 2401.5750 0.0000 33.4250
v 2401.5750 3.6000 33.4250
v 2405.4250 3.6000 33.4250
v 2405.4250 0.0000 29.5750
v 2405.4250 0.0000 33.4250
v 2405.4250 3.6000 33.4250
v 2405.4250 3.6000 29.5750
v 2401.5750 0.0000 33.4250
v 2401.5750 0.0000 29.5750
v 2401.5750 3.6000 29.5750
v 2401.5750 3.6000 33.4250
v 2408.5750 0.0000 29.5750
v 2408.5750 0.0000 33.4250
v 2412.4250 0.0000 33.4250
v 2412.4250 0.0000 29.5750
v 2408.5750 3.6000 29.5750
v 2412.4250 3.6000 29.5750
v 2412.4250 3.6000 33.4250
v 2408.5750 3.6000 33.4250
v 2408.5750 0.0000 29.5750
v 2412.4250 0.0000 29.5750
v 2412.4250 3.6000 29.5750
v 2408.5750 3.6000 29.5750
v 2412.4250 0.0000 33.4250
v 2408.5750 0.0000 33.4250
v 2408.5750 3.6000 33.4250
v 2412.4250 3.6000 33.4250
v 2412.4250 0.0000 29.5750
v 2412.4250 0.0000 33.4250
v 2412.4250 3.6000 33.4250
v 2412.4250 3.6000 29.5750
v 2408.5750 0.0000 33.4250
v 2408.5750 0.0000 29.5750
v 2408.5750 3.6000 29.5750
v 2408.5750 3.6000 33.4250
v 2387.5750 0.0000 36.5750
v 2387.5750 0.0000 40.4250
v 2391.4250 0.0000 40.4250
v 2391.4250 0.0000 36.5750
v 2387.5750 3.6000 36.5750
v 2391.4250 3.6000 36.5750
v 2391.4250 3.6000 40.4250
v 2387.5750 3.6000 40.4250
v 2387.5750 0.0000 36.5750
v 2391.4250 0.0000 36.5750
v 2391.4250 3.6000 36.5750
v 2387.5750 3.6000 36.5750
v 2391.4250 0.0000 40.4250
v 2387.5750 0.0000 40.4250
v 2387.5750 3.6000 40.4250
v 2391.4250 3.6000 40.4250
v 2391.4250 0.0000 36.5750
v 2391.4250 0.0000 40.4250
v 2391.4250 3.6000 40.4250
v 2391.4250 3.6000 36.5750
v 2387.5750 0.0000 40.4250
v 2387.5750 0.0000 36.5750
v 2387.5750 3.6000 36.5750
v 2387.5750 3.6000 40.4250
v 2401.5750 0.0000 36.5750
v 2401.5750 0.0000 40.4250
v 2405.4250 0.0000 40.4250
v 2405.4250 0.0000 36.5750
v 2401.5750 3.6000 36.5750
v 2405.4250 3.6000 36.5750
v 2405.4250 3.6000 40.4250
v 2401.5750 3.6000 40.4250
v 2401.5750 0.0000 36.5750
v 2405.4250 0.0000 36.5750
v 2405.4250 3.6000 36.5750
v 2401.5750 3.6000 36.5750
v 2405.4250 0.0000 40.4250
v 2401.5750 0.0000 40.4250
v 2401.5750 3.6000 40.4250
v 2405.4250 3.6000 40.4250
v 2405.4250 0.0000 36.5750
v 2405.4250 0.0000 40.4250
v 2405.4250 3.6000 40.4250
v 2405.4250 3.6000 36.5750
v 2401.5750 0.0000 40.4250
v 2401.5750 0.0000 36.5750
v 2401.5750 3.6000 36.5750
v 2401.5750 3.6000 40.4250
v 2387.5750 0.0000 43.5750
v 2387.5750 0.0000 47.4250
v 2391.4250 0.0000 47.4250
v 2391.4250 0.0000 43.5750
v 2387.5750 3.6000 43.5750
v 2391.4250 3.6000 43.5750
v 2391.4250 3.6000 47.4250
v 2387.5750 3.6000 47.4250
v 2387.5750 0.0000 43.5750
v 2391.4250 0.0000 43.5750
v 2391.4250 3.6000 43.5750
v 2387.5750 3.6000 43.5750
v 2391.4250 0.0000 47.4250
v 2387.5750 0.0000 47.4250
v 2387.5750 3.6000 47.4250
v 2391.4250 3.6000 47.4250
v 2391.4250 0.0000 43.5750
v 2391.4250 0.0000 47.4250
v 2391.4250 3.6000 47.4250
v 2391.4250 3.6000 43.5750
v 2387.5750 0.0000 47.4250
v 2387.5750 0.0000 43.5750
v 2387.5750 3.6000 43.5750
v 2387.5750 3.6000 47.4250
v 2401.5750 0.0000 43.5750
v 2401.5750 0.0000 47.4250
v 2405.4250 0.0000 47.4250
v 2405.4250 0.0000 43.5750
v 2401.5750 3.6000 43.5750
v 2405.4250 3.6000 43.5750
v 2405.4250 3.6000 47.4250
v 2401.5750 3.6000 47.4250
v 2401.5750 0.0000 43.5750
v 2405.4250 0.0000 43.5750
v 2405.4250 3.6000 43.5750
v 2401.5750 3.6000 43.5750
v 2405.4250 0.0000 47.4250
v 2401.5750 0.0000 47.4250
v 2401.5750 3.6000 47.4250
v 2405.4250 3.6000 47.4250
v 2405.4250 0.0000 43.5750
v 2405.4250 0.0000 47.4250
v 2405.4250 3.6000 47.4250
v 2405.4250 3.6000 43.5750
v 2401.5750 0.0000 47.4250
v 2401.5750 0.0000 43.5750
v 2401.5750 3.6000 43.5750
v 2401.5750 3.6000 47.4250
v 2422.5750 0.0000 43.5750
v 2422.5750 0.0000 47.4250
v 2426.4250 0.0000 47.4250
v 2426.4250 0.0000 43.5750
v 2422.5750 3.6000 43.5750
v 2426.4250 3.6000 43.5750
v 2426.4250 3.6000 47.4250
v 2422.5750 3.6000 47.4250
v 2422.5750 0.0000 43.5750
v 2426.4250 0.0000 43.5750
v 2426.4250 3.6000 43.5750
v 2422.5750 3.6000 43.5750
v 2426.4250 0.0000 47.4250
v 2422.5750 0.0000 47.4250
v 2422.5750 3.6000 47.4250
v 2426.4250 3.6000 47.4250
v 2426.4250 0.0000 43.5750
v 2426.4250 0.0000 47.4250
v 2426.4250 3.6000 47.4250
v 2426.4250 3.6000 43.5750
v 2422.5750 0.0000 47.4250
v 2422.5750 0.0000 43.5750
v 2422.5750 3.6000 43.5750
v 2422.5750 3.6000 47.4250
v 2426.0750 0.0000 43.5750
v 2426.0750 0.0000 47.4250
v 2429.9250 0.0000 47.4250
v 2429.9250 0.0000 43.5750
v 2426.0750 3.6000 43.5750
v 2429.9250 3.6000 43.5750
v 2429.9250 3.6000 47.4250
v 2426.0750 3.6000 47.4250
v 2426.0750 0.0000 43.5750
v 2429.9250 0.0000 43.5750
v 2429.9250 3.6000 43.5750
v 2426.0750 3.6000 43.5750
v 2429.9250 0.0000 47.4250
v 2426.0750 0.0000 47.4250
v 2426.0750 3.6000 47.4250
v 2429.9250 3.6000 47.4250
v 2429.9250 0.0000 43.5750
v 2429.9250 0.0000 47.4250
v 2429.9250 3.6000 47.4250
v 2429.9250 3.6000 43.5750
v 2426.0750 0.0000 47.4250
v 2426.0750 0.0000 43.5750
v 2426.0750 3.6000 43.5750
v 2426.0750 3.6000 47.4250
v 2401.5750 0.0000 47.0750
v 2401.5750 0.0000 50.9250
v 2405.4250 0.0000 50.9250
v 2405.4250 0.0000 47.0750
v 2401.5750 3.6000 47.0750
v 2405.4250 3.6000 47.0750
v 2405.4250 3.6000 50.9250
v 2401.5750 3.6000 50.9250
v 2401.5750 0.0000 47.0750
v 2405.4250 0.0000 47.0750
v 2405.4250 3.6000 47.0750
v 2401.5750 3.6000 47.0750
v 2405.4250 0.0000 50.9250
v 2401.5750 0.0000 50.9250
v 2401.5750 3.6000 50.9250
v 2405.4250 3.6000 50.9250
v 2405.4250 0.0000 47.0750
v 2405.4250 0.0000 50.9250
v 2405.4250 3.6000 50.9250
v 2405.4250 3.6000 47.0750
v 2401.5750 0.0000 50.9250
v 2401.5750 0.0000 47.0750
v 2401.5750 3.6000 47.0750
v 2401.5750 3.6000 50.9250
vt 1989.6458 24.6458
vt 1989.6458 27.8542
vt 1992.8542 27.8542
vt 1992.8542 24.6458
vt 1989.6458 24.6458
vt 1992.8542 24.6458
vt 1992.8542 27.8542
vt 1989.6458 27.8542
vt 1989.6458 0.0000
vt 1992.8542 0.0000
vt 1992.8542 3.0000
vt 1989.6458 3.0000
vt 1992.8542 0.0000
vt 1989.6458 0.0000
vt 1989.6458 3.0000
vt 1992.8542 3.0000
vt 24.6458 0.0000
vt 27.8542 0.0000
vt 27.8542 3.0000
vt 24.6458 3.0000
vt 27.8542 0.0000
vt 24.6458 0.0000
vt 24.6458 3.0000
vt 27.8542 3.0000
vt 1992.5625 24.6458
vt 1992.5625 27.8542
vt 1995.7708 27.8542
vt 1995.7708 24.6458
vt 1992.5625 24.6458
vt 1995.7708 24.6458
vt 1995.7708 27.8542
vt 1992.5625 27.8542
vt 1992.5625 0.0000
vt 1995.7708 0.0000
vt 1995.7708 3.0000
vt 1992.5625 3.0000
vt 1995.7708 0.0000
vt 1992.5625 0.0000
vt 1992.5625 3.0000
vt 1995.7708 3.0000
vt 24.6458 0.0000
vt 27.8542 0.0000
vt 27.8542 3.0000
vt 24.6458 3.0000
vt 27.8542 0.0000
vt 24.6458 0.0000
vt 24.6458 3.0000
vt 27.8542 3.0000
vt 1995.4792 24.6458
vt 1995.4792 27.8542
vt 1998.6875 27.8542
vt 1998.6875 24.6458
vt 1995.4792 24.6458
vt 1998.6875 24.6458
vt 1998.6875 27.8542
vt 1995.4792 27.8542
vt 1995.4792 0.0000
vt 1998.6875 0.0000
vt 1998.6875 3.0000
vt 1995.4792 3.0000
vt 1998.6875 0.0000
vt 1995.4792 0.0000
vt 1995.4792 3.0000
vt 1998.6875 3.0000
vt 24.6458 0.0000
vt 27.8542 0.0000
vt 27.8542 3.0000
vt 24.6458 3.0000
vt 27.8542 0.0000
vt 24.6458 0.0000
vt 24.6458 3.0000
vt 27.8542 3.0000
vt 2001.3125 24.6458
vt 2001.3125 27.8542
vt 2004.5208 27.8542
vt 2004.5208 24.6458
vt 2001.3125 24.6458
vt 2004.5208 24.6458
vt 2004.5208 27.8542
vt 2001.3125 27.8542
vt 2001.3125 0.0000
vt 2004.5208 0.0000
vt 2004.5208 3.0000
vt 2001.3125 3.0000
vt 2004.5208 0.0000
vt 2001.3125 0.0000
vt 2001.3125 3.0000
vt 2004.5208 3.0000
vt 24.6458 0.0000
vt 27.8542 0.0000
vt 27.8542 3.0000
vt 24.6458 3.0000
vt 27.8542 0.0000
vt 24.6458 0.0000
vt 24.6458 3.0000
vt 27.8542 3.0000
vt 2007.1458 24.6458
vt 2007.1458 27.8542
vt 2010.3542 27.8542
vt 2010.3542 24.6458
vt 2007.1458 24.6458
vt 2010.3542 24.6458
vt 2010.3542 27.8542
vt 2007.1458 27.8542
vt 2007.1458 0.0000
vt 2010.3542 0.0000
vt 2010.3542 3.0000
vt 2007.1458 3.0000
vt 2010.3542 0.0000
vt 2007.1458 0.0000
vt 2007.1458 3.0000
vt 2010.3542 3.0000
vt 24.6458 0.0000
vt 27.8542 0.0000
vt 27.8542 3.0000
vt 24.6458 3.0000
vt 27.8542 0.0000
vt 24.6458 0.0000
vt 24.6458 3.0000
vt 27.8542 3.0000
vt 1989.6458 30.4792
vt 1989.6458 33.6875
vt 1992.8542 33.6875
vt 1992.8542 30.4792
vt 1989.6458 30.4792
vt 1992.8542 30.4792
vt 1992.8542 33.6875
vt 1989.6458 33.6875
vt 1989.6458 0.0000
vt 1992.8542 0.0000
vt 1992.8542 3.0000
vt 1989.6458 3.0000
vt 1992.8542 0.0000
vt 1989.6458 0.0000
vt 1989.6458 3.0000
vt 1992.8542 3.0000
vt 30.4792 0.0000
vt 33.6875 0.0000
vt 33.6875 3.0000
vt 30.4792 3.0000
vt 33.6875 0.0000
vt 30.4792 0.0000
vt 30.4792 3.0000
vt 33.6875 3.0000
vt 2001.3125 30.4792
vt 2001.3125 33.6875
vt 2004.5208 33.6875
vt 2004.5208 30.4792
vt 2001.3125 30.4792
vt 2004.5208 30.4792
vt 2004.5208 33.6875
vt 2001.3125 33.6875
vt 2001.3125 0.0000
vt 2004.5208 0.0000
vt 2004.5208 3.0000
vt 2001.3125 3.0000
vt 2004.5208 0.0000
vt 2001.3125 0.0000
vt 2001.3125 3.0000
vt 2004.5208 3.0000
vt 30.4792 0.0000
vt 33.6875 0.0000
vt 33.6875 3.0000
vt 30.4792 3.0000
vt 33.6875 0.0000
vt 30.4792 0.0000
vt 30.4792 3.0000
vt 33.6875 3.0000
vt 1989.6458 36.3125
vt 1989.6458 39.5208
vt 1992.8542 39.5208
vt 1992.8542 36.3125
vt 1989.6458 36.3125
vt 1992.8542 36.3125
vt 1992.8542 39.5208
vt 1989.6458 39.5208
vt 1989.6458 0.0000
vt 1992.8542 0.0000
vt 1992.8542 3.0000
vt 1989.6458 3.0000
vt 1992.8542 0.0000
vt 1989.6458 0.0000
vt 1989.6458 3.0000
vt 1992.8542 3.0000
vt 36.3125 0.0000
vt 39.5208 0.0000
vt 39.5208 3.0000
vt 36.3125 3.0000
vt 39.5208 0.0000
vt 36.3125 0.0000
vt 36.3125 3.0000
vt 39.5208 3.0000
vt 2001.3125 36.3125
vt 2001.3125 39.5208
vt 2004.5208 39.5208
vt 2004.5208 36.3125
vt 2001.3125 36.3125
vt 2004.5208 36.3125
vt 2004.5208 39.5208
vt 2001.3125 39.5208
vt 2001.3125 0.0000
vt 2004.5208 0.0000
vt 2004.5208 3.0000
vt 2001.3125 3.0000
vt 2004.5208 0.0000
vt 2001.3125 0.0000
vt 2001.3125 3.0000
vt 2004.5208 3.0000
vt 36.3125 0.0000
vt 39.5208 0.0000
vt 39.5208 3.0000
vt 36.3125 3.0000
vt 39.5208 0.0000
vt 36.3125 0.0000
vt 36.3125 3.0000
vt 39.5208 3.0000
vt 2018.8125 36.3125
vt 2018.8125 39.5208
vt 2022.0208 39.5208
vt 2022.0208 36.3125
vt 2018.8125 36.3125
vt 2022.0208 36.3125
vt 2022.0208 39.5208
vt 2018.8125 39.5208
vt 2018.8125 0.0000
vt 2022.0208 0.0000
vt 2022.0208 3.0000
vt 2018.8125 3.0000
vt 2022.0208 0.0000
vt 2018.8125 0.0000
vt 2018.8125 3.0000
vt 2022.0208 3.0000
vt 36.3125 0.0000
vt 39.5208 0.0000
vt 39.5208 3.0000
vt 36.3125 3.0000
vt 39.5208 0.0000
vt 36.3125 0.0000
vt 36.3125 3.0000
vt 39.5208 3.0000
vt 2021.7292 36.3125
vt 2021.7292 39.5208
vt 2024.9375 39.5208
vt 2024.9375 36.3125
vt 2021.7292 36.3125
vt 2024.9375 36.3125
vt 2024.9375 39.5208
vt 2021.7292 39.5208
vt 2021.7292 0.0000
vt 2024.9375 0.0000
vt 2024.9375 3.0000
vt 2021.7292 3.0000
vt 2024.9375 0.0000
vt 2021.7292 0.0000
vt 2021.7292 3.0000
vt 2024.9375 3.0000
vt 36.3125 0.0000
vt 39.5208 0.0000
vt 39.5208 3.0000
vt 36.3125 3.0000
vt 39.5208 0.0000
vt 36.3125 0.0000
vt 36.3125 3.0000
vt 39.5208 3.0000
vt 2001.3125 39.2292
vt 2001.3125 42.4375
vt 2004.5208 42.4375
vt 2004.5208 39.2292
vt 2001.3125 39.2292
vt 2004.5208 39.2292
vt 2004.5208 42.4375
vt 2001.3125 42.4375
vt 2001.3125 0.0000
vt 2004.5208 0.0000
vt 2004.5208 3.0000
vt 2001.3125 3.0000
vt 2004.5208 0.0000
vt 2001.3125 0.0000
vt 2001.3125 3.0000
vt 2004.5208 3.0000
vt 39.2292 0.0000
vt 42.4375 0.0000
vt 42.4375 3.0000
vt 39.2292 3.0000
vt 42.4375 0.0000
vt 39.2292 0.0000
vt 39.2292 3.0000
vt 42.4375 3.0000
usemtl pool_tile_alt
f 1/1 2/2 3/3 4/4
f 5/5 6/6 7/7 8/8
f 9/9 10/10 11/11 12/12
f 13/13 14/14 15/15 16/16
f 17/17 18/18 19/19 20/20
f 21/21 22/22 23/23 24/24
usemtl pool_tile
f 25/25 26/26 27/27 28/28
f 29/29 30/30 31/31 32/32
f 33/33 34/34 35/35 36/36
f 37/37 38/38 39/39 40/40
f 41/41 42/42 43/43 44/44
f 45/45 46/46 47/47 48/48
f 49/49 50/50 51/51 52/52
f 53/53 54/54 55/55 56/56
f 57/57 58/58 59/59 60/60
f 61/61 62/62 63/63 64/64
f 65/65 66/66 67/67 68/68
f 69/69 70/70 71/71 72/72
f 73/73 74/74 75/75 76/76
f 77/77 78/78 79/79 80/80
f 81/81 82/82 83/83 84/84
f 85/85 86/86 87/87 88/88
f 89/89 90/90 91/91 92/92
f 93/93 94/94 95/95 96/96
f 97/97 98/98 99/99 100/100
f 101/101 102/102 103/103 104/104
f 105/105 106/106 107/107 108/108
f 109/109 110/110 111/111 112/112
f 113/113 114/114 115/115 116/116
f 117/117 118/118 119/119 120/120
f 121/121 122/122 123/123 124/124
f 125/125 126/126 127/127 128/128
f 129/129 130/130 131/131 132/132
f 133/133 134/134 135/135 136/136
f 137/137 138/138 139/139 140/140
f 141/141 142/142 143/143 144/144
f 145/145 146/146 147/147 148/148
f 149/149 150/150 151/151 152/152
f 153/153 154/154 155/155 156/156
f 157/157 158/158 159/159 160/160
f 161/161 162/162 163/163 164/164
f 165/165 166/166 167/167 168/168
usemtl pool_tile_alt
f 169/169 170/170 171/171 172/172
f 173/173 174/174 175/175 176/176
f 177/177 178/178 179/179 180/180
f 181/181 182/182 183/183 184/184
f 185/185 186/186 187/187 188/188
f 189/189 190/190 191/191 192/192
usemtl pool_tile
f 193/193 194/194 195/195 196/196
f 197/197 198/198 199/199 200/200
f 201/201 202/202 203/203 204/204
f 205/205 206/206 207/207 208/208
f 209/209 210/210 211/211 212/212
f 213/213 214/214 215/215 216/216
f 217/217 218/218 219/219 220/220
f 221/221 222/222 223/223 224/224
f 225/225 226/226 227/227 228/228
f 229/229 230/230 231/231 232/232
f 233/233 234/234 235/235 236/236
f 237/237 238/238 239/239 240/240
f 241/241 242/242 243/243 244/244
f 245/245 246/246 247/247 248/248
f 249/249 250/250 251/251 252/252
f 253/253 254/254 255/255 256/256
f 257/257 258/258 259/259 260/260
f 261/261 262/262 263/263 264/264
f 265/265 266/266 267/267 268/268
f 269/269 270/270 271/271 272/272
f 273/273 274/274 275/275 276/276
f 277/277 278/278 279/279 280/280
f 281/281 282/282 283/283 284/284
f 285/285 286/286 287/287 288/288
