# RoastEngine Backrooms level
mtllib backrooms.mtl
v 836.9500 0.0000 -17.0500
v 836.9500 0.0000 -14.4500
v 839.5500 0.0000 -14.4500
v 839.5500 0.0000 -17.0500
v 836.9500 3.0000 -17.0500
v 839.5500 3.0000 -17.0500
v 839.5500 3.0000 -14.4500
v 836.9500 3.0000 -14.4500
v 836.9500 0.0000 -17.0500
v 839.5500 0.0000 -17.0500
v 839.5500 3.0000 -17.0500
v 836.9500 3.0000 -17.0500
v 839.5500 0.0000 -14.4500
v 836.9500 0.0000 -14.4500
v 836.9500 3.0000 -14.4500
v 839.5500 3.0000 -14.4500
v 839.5500 0.0000 -17.0500
v 839.5500 0.0000 -14.4500
v 839.5500 3.0000 -14.4500
v 839.5500 3.0000 -17.0500
v 836.9500 0.0000 -14.4500
v 836.9500 0.0000 -17.0500
v 836.9500 3.0000 -17.0500
v 836.9500 3.0000 -14.4500
v 839.2000 0.0000 -17.0500
v 839.2000 0.0000 -14.4500
v 841.8000 0.0000 -14.4500
v 841.8000 0.0000 -17.0500
v 839.2000 3.0000 -17.0500
v 841.8000 3.0000 -17.0500
v 841.8000 3.0000 -14.4500
v 839.2000 3.0000 -14.4500
v 839.2000 0.0000 -17.0500
v 841.8000 0.0000 -17.0500
v 841.8000 3.0000 -17.0500
v 839.2000 3.0000 -17.0500
v 841.8000 0.0000 -14.4500
v 839.2000 0.0000 -14.4500
v 839.2000 3.0000 -14.4500
v 841.8000 3.0000 -14.4500
v 841.8000 0.0000 -17.0500
v 841.8000 0.0000 -14.4500
v 841.8000 3.0000 -14.4500
v 841.8000 3.0000 -17.0500
v 839.2000 0.0000 -14.4500
v 839.2000 0.0000 -17.0500
v 839.2000 3.0000 -17.0500
v 839.2000 3.0000 -14.4500
v 836.9500 0.0000 -12.5500
v 836.9500 0.0000 -9.9500
v 839.5500 0.0000 -9.9500
v 839.5500 0.0000 -12.5500
v 836.9500 3.0000 -12.5500
v 839.5500 3.0000 -12.5500
v 839.5500 3.0000 -9.9500
v 836.9500 3.0000 -9.9500
v 836.9500 0.0000 -12.5500
v 839.5500 0.0000 -12.5500
v 839.5500 3.0000 -12.5500
v 836.9500 3.0000 -12.5500
v 839.5500 0.0000 -9.9500
v 836.9500 0.0000 -9.9500
v 836.9500 3.0000 -9.9500
v 839.5500 3.0000 -9.9500
v 839.5500 0.0000 -12.5500
v 839.5500 0.0000 -9.9500
v 839.5500 3.0000 -9.9500
v 839.5500 3.0000 -12.5500
v 836.9500 0.0000 -9.9500
v 836.9500 0.0000 -12.5500
v 836.9500 3.0000 -12.5500
v 836.9500 3.0000 -9.9500
v 836.9500 0.0000 -10.3000
v 836.9500 0.0000 -7.7000
v 839.5500 0.0000 -7.7000
v 839.5500 0.0000 -10.3000
v 836.9500 3.0000 -10.3000
v 839.5500 3.0000 -10.3000
v 839.5500 3.0000 -7.7000
v 836.9500 3.0000 -7.7000
v 836.9500 0.0000 -10.3000
v 839.5500 0.0000 -10.3000
v 839.5500 3.0000 -10.3000
v 836.9500 3.0000 -10.3000
v 839.5500 0.0000 -7.7000
v 836.9500 0.0000 -7.7000
v 836.9500 3.0000 -7.7000
v 839.5500 3.0000 -7.7000
v 839.5500 0.0000 -10.3000
v 839.5500 0.0000 -7.7000
v 839.5500 3.0000 -7.7000
v 839.5500 3.0000 -10.3000
v 836.9500 0.0000 -7.7000
v 836.9500 0.0000 -10.3000
v 836.9500 3.0000 -10.3000
v 836.9500 3.0000 -7.7000
v 836.9500 0.0000 -8.0500
v 836.9500 0.0000 -5.4500
v 839.5500 0.0000 -5.4500
v 839.5500 0.0000 -8.0500
v 836.9500 3.0000 -8.0500
v 839.5500 3.0000 -8.0500
v 839.5500 3.0000 -5.4500
v 836.9500 3.0000 -5.4500
v 836.9500 0.0000 -8.0500
v 839.5500 0.0000 -8.0500
v 839.5500 3.0000 -8.0500
v 836.9500 3.0000 -8.0500
v 839.5500 0.0000 -5.4500
v 836.9500 0.0000 -5.4500
v 836.9500 3.0000 -5.4500
v 839.5500 3.0000 -5.4500
v 839.5500 0.0000 -8.0500
v 839.5500 0.0000 -5.4500
v 839.5500 3.0000 -5.4500
v 839.5500 3.0000 -8.0500
v 836.9500 0.0000 -5.4500
v 836.9500 0.0000 -8.0500
v 836.9500 3.0000 -8.0500
v 836.9500 3.0000 -5.4500
v 836.9500 0.0000 -3.5500
v 836.9500 0.0000 -0.9500
v 839.5500 0.0000 -0.9500
v 839.5500 0.0000 -3.5500
v 836.9500 3.0000 -3.5500
v 839.5500 3.0000 -3.5500
v 839.5500 3.0000 -0.9500
v 836.9500 3.0000 -0.9500
v 836.9500 0.0000 -3.5500
v 839.5500 0.0000 -3.5500
v 839.5500 3.0000 -3.5500
v 836.9500 3.0000 -3.5500
v 839.5500 0.0000 -0.9500
v 836.9500 0.0000 -0.9500
v 836.9500 3.0000 -0.9500
v 839.5500 3.0000 -0.9500
v 839.5500 0.0000 -3.5500
v 839.5500 0.0000 -0.9500
v 839.5500 3.0000 -0.9500
v 839.5500 3.0000 -3.5500
v 836.9500 0.0000 -0.9500
v 836.9500 0.0000 -3.5500
v 836.9500 3.0000 -3.5500
v 836.9500 3.0000 -0.9500
v 836.9500 0.0000 -1.3000
v 836.9500 0.0000 1.3000
v 839.5500 0.0000 1.3000
v 839.5500 0.0000 -1.3000
v 836.9500 3.0000 -1.3000
v 839.5500 3.0000 -1.3000
v 839.5500 3.0000 1.3000
v 836.9500 3.0000 1.3000
v 836.9500 0.0000 -1.3000
v 839.5500 0.0000 -1.3000
v 839.5500 3.0000 -1.3000
v 836.9500 3.0000 -1.3000
v 839.5500 0.0000 1.3000
v 836.9500 0.0000 1.3000
v 836.9500 3.0000 1.3000
v 839.5500 3.0000 1.3000
v 839.5500 0.0000 -1.3000
v 839.5500 0.0000 1.3000
v 839.5500 3.0000 1.3000
v 839.5500 3.0000 -1.3000
v 836.9500 0.0000 1.3000
v 836.9500 0.0000 -1.3000
v 836.9500 3.0000 -1.3000
v 836.9500 3.0000 1.3000
v 836.9500 0.0000 0.9500
v 836.9500 0.0000 3.5500
v 839.5500 0.0000 3.5500
v 839.5500 0.0000 0.9500
v 836.9500 3.0000 0.9500
v 839.5500 3.0000 0.9500
v 839.5500 3.0000 3.5500
v 836.9500 3.0000 3.5500
v 836.9500 0.0000 0.9500
v 839.5500 0.0000 0.9500
v 839.5500 3.0000 0.9500
v 836.9500 3.0000 0.9500
v 839.5500 0.0000 3.5500
v 836.9500 0.0000 3.5500
v 836.9500 3.0000 3.5500
v 839.5500 3.0000 3.5500
v 839.5500 0.0000 0.9500
v 839.5500 0.0000 3.5500
v 839.5500 3.0000 3.5500
v 839.5500 3.0000 0.9500
v 836.9500 0.0000 3.5500
v 836.9500 0.0000 0.9500
v 836.9500 3.0000 0.9500
v 836.9500 3.0000 3.5500
v 836.9500 0.0000 3.2000
v 836.9500 0.0000 5.8000
v 839.5500 0.0000 5.8000
v 839.5500 0.0000 3.2000
v 836.9500 3.0000 3.2000
v 839.5500 3.0000 3.2000
v 839.5500 3.0000 5.8000
v 836.9500 3.0000 5.8000
v 836.9500 0.0000 3.2000
v 839.5500 0.0000 3.2000
v 839.5500 3.0000 3.2000
v 836.9500 3.0000 3.2000
v 839.5500 0.0000 5.8000
v 836.9500 0.0000 5.8000
v 836.9500 3.0000 5.8000
v 839.5500 3.0000 5.8000
v 839.5500 0.0000 3.2000
v 839.5500 0.0000 5.8000
v 839.5500 3.0000 5.8000
v 839.5500 3.0000 3.2000
v 836.9500 0.0000 5.8000
v 836.9500 0.0000 3.2000
v 836.9500 3.0000 3.2000
v 836.9500 3.0000 5.8000
v 836.9500 0.0000 5.4500
v 836.9500 0.0000 8.0500
v 839.5500 0.0000 8.0500
v 839.5500 0.0000 5.4500
v 836.9500 3.0000 5.4500
v 839.5500 3.0000 5.4500
v 839.5500 3.0000 8.0500
v 836.9500 3.0000 8.0500
v 836.9500 0.0000 5.4500
v 839.5500 0.0000 5.4500
v 839.5500 3.0000 5.4500
v 836.9500 3.0000 5.4500
v 839.5500 0.0000 8.0500
v 836.9500 0.0000 8.0500
v 836.9500 3.0000 8.0500
v 839.5500 3.0000 8.0500
v 839.5500 0.0000 5.4500
v 839.5500 0.0000 8.0500
v 839.5500 3.0000 8.0500
v 839.5500 3.0000 5.4500
v 836.9500 0.0000 8.0500
v 836.9500 0.0000 5.4500
v 836.9500 3.0000 5.4500
v 836.9500 3.0000 8.0500
v 840.3500 2.7000 -13.6500
v 840.6500 2.7000 -13.6500
v 840.6500 2.7000 -13.3500
v 840.3500 2.7000 -13.3500
v 840.3500 2.8600 -13.6500
v 840.6500 2.8600 -13.6500
v 840.6500 2.8600 -13.3500
v 840.3500 2.8600 -13.3500
v 840.3100 2.8600 -13.6900
v 840.6900 2.8600 -13.6900
v 840.6900 2.8600 -13.3100
v 840.3100 2.8600 -13.3100
v 840.3100 2.9400 -13.6900
v 840.6900 2.9400 -13.6900
v 840.6900 2.9400 -13.3100
v 840.3100 2.9400 -13.3100
v 837.7500 0.0000 8.7250
v 838.7500 0.0000 8.7250
v 838.7500 0.0000 9.2750
v 837.7500 0.0000 9.2750
v 837.7500 1.7000 8.7250
v 838.7500 1.7000 8.7250
v 838.7500 1.7000 9.2750
v 837.7500 1.7000 9.2750
v 837.8000 1.4900 8.6850
v 838.7000 1.4900 8.6850
v 838.7000 1.4900 8.7150
v 837.8000 1.4900 8.7150
v 837.8000 1.6100 8.6850
v 838.7000 1.6100 8.6850
v 838.7000 1.6100 8.7150
v 837.8000 1.6100 8.7150
v 838.3700 2.6000 -6.7500
v 838.3700 2.6000 -6.7500
v 838.3349 2.6000 -6.6651
v 838.3349 2.6000 -6.6651
v 838.2500 2.6000 -6.6300
v 838.2500 2.6000 -6.6300
v 838.1651 2.6000 -6.6651
v 838.1651 2.6000 -6.6651
v 838.1300 2.6000 -6.7500
v 838.1300 2.6000 -6.7500
v 838.1651 2.6000 -6.8349
v 838.1651 2.6000 -6.8349
v 838.2500 2.6000 -6.8700
v 838.2500 2.6000 -6.8700
v 838.3349 2.6000 -6.8349
v 838.3349 2.6000 -6.8349
v 838.2500 2.6000 -6.7500
v 838.2500 2.6000 -6.7500
v 838.2500 2.4800 -6.8700
v 842.7500 2.4800 -6.8700
v 842.7500 2.4800 -6.6300
v 838.2500 2.4800 -6.6300
v 838.2500 2.7200 -6.8700
v 842.7500 2.7200 -6.8700
v 842.7500 2.7200 -6.6300
v 838.2500 2.7200 -6.6300
v 838.3700 2.6000 -2.2500
v 838.3700 2.6000 -2.2500
v 838.3349 2.6000 -2.1651
v 838.3349 2.6000 -2.1651
v 838.2500 2.6000 -2.1300
v 838.2500 2.6000 -2.1300
v 838.1651 2.6000 -2.1651
v 838.1651 2.6000 -2.1651
v 838.1300 2.6000 -2.2500
v 838.1300 2.6000 -2.2500
v 838.1651 2.6000 -2.3349
v 838.1651 2.6000 -2.3349
v 838.2500 2.6000 -2.3700
v 838.2500 2.6000 -2.3700
v 838.3349 2.6000 -2.3349
v 838.3349 2.6000 -2.3349
v 838.2500 2.6000 -2.2500
v 838.2500 2.6000 -2.2500
v 838.2500 2.4800 -2.3700
v 842.7500 2.4800 -2.3700
v 842.7500 2.4800 -2.1300
v 838.2500 2.4800 -2.1300
v 838.2500 2.7200 -2.3700
v 842.7500 2.7200 -2.3700
v 842.7500 2.7200 -2.1300
v 838.2500 2.7200 -2.1300
v 838.3700 2.6000 2.2500
v 838.3700 2.6000 2.2500
v 838.3349 2.6000 2.3349
v 838.3349 2.6000 2.3349
v 838.2500 2.6000 2.3700
v 838.2500 2.6000 2.3700
v 838.1651 2.6000 2.3349
v 838.1651 2.6000 2.3349
v 838.1300 2.6000 2.2500
v 838.1300 2.6000 2.2500
v 838.1651 2.6000 2.1651
v 838.1651 2.6000 2.1651
v 838.2500 2.6000 2.1300
v 838.2500 2.6000 2.1300
v 838.3349 2.6000 2.1651
v 838.3349 2.6000 2.1651
v 838.2500 2.6000 2.2500
v 838.2500 2.6000 2.2500
v 838.2500 2.4800 2.1300
v 842.7500 2.4800 2.1300
v 842.7500 2.4800 2.3700
v 838.2500 2.4800 2.3700
v 838.2500 2.7200 2.1300
v 842.7500 2.7200 2.1300
v 842.7500 2.7200 2.3700
v 838.2500 2.7200 2.3700
v 838.3700 2.6000 6.7500
v 838.3700 2.6000 6.7500
v 838.3349 2.6000 6.8349
v 838.3349 2.6000 6.8349
v 838.2500 2.6000 6.8700
v 838.2500 2.6000 6.8700
v 838.1651 2.6000 6.8349
v 838.1651 2.6000 6.8349
v 838.1300 2.6000 6.7500
v 838.1300 2.6000 6.7500
v 838.1651 2.6000 6.6651
v 838.1651 2.6000 6.6651
v 838.2500 2.6000 6.6300
v 838.2500 2.6000 6.6300
v 838.3349 2.6000 6.6651
v 838.3349 2.6000 6.6651
v 838.2500 2.6000 6.7500
v 838.2500 2.6000 6.7500
v 838.2500 2.4800 6.6300
v 842.7500 2.4800 6.6300
v 842.7500 2.4800 6.8700
v 838.2500 2.4800 6.8700
v 838.2500 2.7200 6.6300
v 842.7500 2.7200 6.6300
v 842.7500 2.7200 6.8700
v 838.2500 2.7200 6.8700
vt 348.7292 -7.1042
vt 348.7292 -6.0208
vt 349.8125 -6.0208
vt 349.8125 -7.1042
vt 348.7292 -7.1042
vt 349.8125 -7.1042
vt 349.8125 -6.0208
vt 348.7292 -6.0208
vt 348.7292 0.0000
vt 349.8125 0.0000
vt 349.8125 1.2500
vt 348.7292 1.2500
vt 349.8125 0.0000
vt 348.7292 0.0000
vt 348.7292 1.2500
vt 349.8125 1.2500
vt -7.1042 0.0000
vt -6.0208 0.0000
vt -6.0208 1.2500
vt -7.1042 1.2500
vt -6.0208 0.0000
vt -7.1042 0.0000
vt -7.1042 1.2500
vt -6.0208 1.2500
vt 349.6667 -7.1042
vt 349.6667 -6.0208
vt 350.7500 -6.0208
vt 350.7500 -7.1042
vt 349.6667 -7.1042
vt 350.7500 -7.1042
vt 350.7500 -6.0208
vt 349.6667 -6.0208
vt 349.6667 0.0000
vt 350.7500 0.0000
vt 350.7500 1.2500
vt 349.6667 1.2500
vt 350.7500 0.0000
vt 349.6667 0.0000
vt 349.6667 1.2500
vt 350.7500 1.2500
vt -7.1042 0.0000
vt -6.0208 0.0000
vt -6.0208 1.2500
vt -7.1042 1.2500
vt -6.0208 0.0000
vt -7.1042 0.0000
vt -7.1042 1.2500
vt -6.0208 1.2500
vt 348.7292 -5.2292
vt 348.7292 -4.1458
vt 349.8125 -4.1458
vt 349.8125 -5.2292
vt 348.7292 -5.2292
vt 349.8125 -5.2292
vt 349.8125 -4.1458
vt 348.7292 -4.1458
vt 348.7292 0.0000
vt 349.8125 0.0000
vt 349.8125 1.2500
vt 348.7292 1.2500
vt 349.8125 0.0000
vt 348.7292 0.0000
vt 348.7292 1.2500
vt 349.8125 1.2500
vt -5.2292 0.0000
vt -4.1458 0.0000
vt -4.1458 1.2500
vt -5.2292 1.2500
vt -4.1458 0.0000
vt -5.2292 0.0000
vt -5.2292 1.2500
vt -4.1458 1.2500
vt 348.7292 -4.2917
vt 348.7292 -3.2083
vt 349.8125 -3.2083
vt 349.8125 -4.2917
vt 348.7292 -4.2917
vt 349.8125 -4.2917
vt 349.8125 -3.2083
vt 348.7292 -3.2083
vt 348.7292 0.0000
vt 349.8125 0.0000
vt 349.8125 1.2500
vt 348.7292 1.2500
vt 349.8125 0.0000
vt 348.7292 0.0000
vt 348.7292 1.2500
vt 349.8125 1.2500
vt -4.2917 0.0000
vt -3.2083 0.0000
vt -3.2083 1.2500
vt -4.2917 1.2500
vt -3.2083 0.0000
vt -4.2917 0.0000
vt -4.2917 1.2500
vt -3.2083 1.2500
vt 348.7292 -3.3542
vt 348.7292 -2.2708
vt 349.8125 -2.2708
vt 349.8125 -3.3542
vt 348.7292 -3.3542
vt 349.8125 -3.3542
vt 349.8125 -2.2708
vt 348.7292 -2.2708
vt 348.7292 0.0000
vt 349.8125 0.0000
vt 349.8125 1.2500
vt 348.7292 1.2500
vt 349.8125 0.0000
vt 348.7292 0.0000
vt 348.7292 1.2500
vt 349.8125 1.2500
vt -3.3542 0.0000
vt -2.2708 0.0000
vt -2.2708 1.2500
vt -3.3542 1.2500
vt -2.2708 0.0000
vt -3.3542 0.0000
vt -3.3542 1.2500
vt -2.2708 1.2500
vt 348.7292 -1.4792
vt 348.7292 -0.3958
vt 349.8125 -0.3958
vt 349.8125 -1.4792
vt 348.7292 -1.4792
vt 349.8125 -1.4792
vt 349.8125 -0.3958
vt 348.7292 -0.3958
vt 348.7292 0.0000
vt 349.8125 0.0000
vt 349.8125 1.2500
vt 348.7292 1.2500
vt 349.8125 0.0000
vt 348.7292 0.0000
vt 348.7292 1.2500
vt 349.8125 1.2500
vt -1.4792 0.0000
vt -0.3958 0.0000
vt -0.3958 1.2500
vt -1.4792 1.2500
vt -0.3958 0.0000
vt -1.4792 0.0000
vt -1.4792 1.2500
vt -0.3958 1.2500
vt 348.7292 -0.5417
vt 348.7292 0.5417
vt 349.8125 0.5417
vt 349.8125 -0.5417
vt 348.7292 -0.5417
vt 349.8125 -0.5417
vt 349.8125 0.5417
vt 348.7292 0.5417
vt 348.7292 0.0000
vt 349.8125 0.0000
vt 349.8125 1.2500
vt 348.7292 1.2500
vt 349.8125 0.0000
vt 348.7292 0.0000
vt 348.7292 1.2500
vt 349.8125 1.2500
vt -0.5417 0.0000
vt 0.5417 0.0000
vt 0.5417 1.2500
vt -0.5417 1.2500
vt 0.5417 0.0000
vt -0.5417 0.0000
vt -0.5417 1.2500
vt 0.5417 1.2500
vt 348.7292 0.3958
vt 348.7292 1.4792
vt 349.8125 1.4792
vt 349.8125 0.3958
vt 348.7292 0.3958
vt 349.8125 0.3958
vt 349.8125 1.4792
vt 348.7292 1.4792
vt 348.7292 0.0000
vt 349.8125 0.0000
vt 349.8125 1.2500
vt 348.7292 1.2500
vt 349.8125 0.0000
vt 348.7292 0.0000
vt 348.7292 1.2500
vt 349.8125 1.2500
vt 0.3958 0.0000
vt 1.4792 0.0000
vt 1.4792 1.2500
vt 0.3958 1.2500
vt 1.4792 0.0000
vt 0.3958 0.0000
vt 0.3958 1.2500
vt 1.4792 1.2500
vt 348.7292 1.3333
vt 348.7292 2.4167
vt 349.8125 2.4167
vt 349.8125 1.3333
vt 348.7292 1.3333
vt 349.8125 1.3333
vt 349.8125 2.4167
vt 348.7292 2.4167
vt 348.7292 0.0000
vt 349.8125 0.0000
vt 349.8125 1.2500
vt 348.7292 1.2500
vt 349.8125 0.0000
vt 348.7292 0.0000
vt 348.7292 1.2500
vt 349.8125 1.2500
vt 1.3333 0.0000
vt 2.4167 0.0000
vt 2.4167 1.2500
vt 1.3333 1.2500
vt 2.4167 0.0000
vt 1.3333 0.0000
vt 1.3333 1.2500
vt 2.4167 1.2500
vt 348.7292 2.2708
vt 348.7292 3.3542
vt 349.8125 3.3542
vt 349.8125 2.2708
vt 348.7292 2.2708
vt 349.8125 2.2708
vt 349.8125 3.3542
vt 348.7292 3.3542
vt 348.7292 0.0000
vt 349.8125 0.0000
vt 349.8125 1.2500
vt 348.7292 1.2500
vt 349.8125 0.0000
vt 348.7292 0.0000
vt 348.7292 1.2500
vt 349.8125 1.2500
vt 2.2708 0.0000
vt 3.3542 0.0000
vt 3.3542 1.2500
vt 2.2708 1.2500
vt 3.3542 0.0000
vt 2.2708 0.0000
vt 2.2708 1.2500
vt 3.3542 1.2500
usemtl lamp_caged
f 241 244 243 242
f 245 246 247 248
f 241 242 246 245
f 243 244 248 247
f 242 243 247 246
f 244 241 245 248
usemtl steel
f 249 252 251 250
f 253 254 255 256
f 249 250 254 253
f 251 252 256 255
f 250 251 255 254
f 252 249 253 256
usemtl switchgear
f 257 260 259 258
f 261 262 263 264
f 257 258 262 261
f 259 260 264 263
f 258 259 263 262
f 260 257 261 264
usemtl warning
f 265 268 267 266
f 269 270 271 272
f 265 266 270 269
f 267 268 272 271
f 266 267 271 270
f 268 265 269 272
usemtl rust
f 273 275 276 274
f 275 277 278 276
f 277 279 280 278
f 279 281 282 280
f 281 283 284 282
f 283 285 286 284
f 285 287 288 286
f 287 273 274 288
f 289 274 276
f 290 275 273
f 289 276 278
f 290 277 275
f 289 278 280
f 290 279 277
f 289 280 282
f 290 281 279
f 289 282 284
f 290 283 281
f 289 284 286
f 290 285 283
f 289 286 288
f 290 287 285
f 289 288 274
f 290 273 287
f 291 294 293 292
f 295 296 297 298
f 291 292 296 295
f 293 294 298 297
f 292 293 297 296
f 294 291 295 298
f 299 301 302 300
f 301 303 304 302
f 303 305 306 304
f 305 307 308 306
f 307 309 310 308
f 309 311 312 310
f 311 313 314 312
f 313 299 300 314
f 315 300 302
f 316 301 299
f 315 302 304
f 316 303 301
f 315 304 306
f 316 305 303
f 315 306 308
f 316 307 305
f 315 308 310
f 316 309 307
f 315 310 312
f 316 311 309
f 315 312 314
f 316 313 311
f 315 314 300
f 316 299 313
f 317 320 319 318
f 321 322 323 324
f 317 318 322 321
f 319 320 324 323
f 318 319 323 322
f 320 317 321 324
f 325 327 328 326
f 327 329 330 328
f 329 331 332 330
f 331 333 334 332
f 333 335 336 334
f 335 337 338 336
f 337 339 340 338
f 339 325 326 340
f 341 326 328
f 342 327 325
f 341 328 330
f 342 329 327
f 341 330 332
f 342 331 329
f 341 332 334
f 342 333 331
f 341 334 336
f 342 335 333
f 341 336 338
f 342 337 335
f 341 338 340
f 342 339 337
f 341 340 326
f 342 325 339
f 343 346 345 344
f 347 348 349 350
f 343 344 348 347
f 345 346 350 349
f 344 345 349 348
f 346 343 347 350
usemtl pipe
f 351 353 354 352
f 353 355 356 354
f 355 357 358 356
f 357 359 360 358
f 359 361 362 360
f 361 363 364 362
f 363 365 366 364
f 365 351 352 366
f 367 352 354
f 368 353 351
f 367 354 356
f 368 355 353
f 367 356 358
f 368 357 355
f 367 358 360
f 368 359 357
f 367 360 362
f 368 361 359
f 367 362 364
f 368 363 361
f 367 364 366
f 368 365 363
f 367 366 352
f 368 351 365
f 369 372 371 370
f 373 374 375 376
f 369 370 374 373
f 371 372 376 375
f 370 371 375 374
f 372 369 373 376
usemtl brick
f 1/1 2/2 3/3 4/4
f 5/5 6/6 7/7 8/8
f 9/9 10/10 11/11 12/12
f 13/13 14/14 15/15 16/16
f 17/17 18/18 19/19 20/20
f 21/21 22/22 23/23 24/24
f 25/25 26/26 27/27 28/28
f 29/29 30/30 31/31 32/32
f 33/33 34/34 35/35 36/36
f 37/37 38/38 39/39 40/40
f 41/41 42/42 43/43 44/44
f 45/45 46/46 47/47 48/48
f 49/49 50/50 51/51 52/52
f 53/53 54/54 55/55 56/56
f 57/57 58/58 59/59 60/60
f 61/61 62/62 63/63 64/64
f 65/65 66/66 67/67 68/68
f 69/69 70/70 71/71 72/72
f 73/73 74/74 75/75 76/76
f 77/77 78/78 79/79 80/80
f 81/81 82/82 83/83 84/84
f 85/85 86/86 87/87 88/88
f 89/89 90/90 91/91 92/92
f 93/93 94/94 95/95 96/96
f 97/97 98/98 99/99 100/100
f 101/101 102/102 103/103 104/104
f 105/105 106/106 107/107 108/108
f 109/109 110/110 111/111 112/112
f 113/113 114/114 115/115 116/116
f 117/117 118/118 119/119 120/120
f 121/121 122/122 123/123 124/124
f 125/125 126/126 127/127 128/128
f 129/129 130/130 131/131 132/132
f 133/133 134/134 135/135 136/136
f 137/137 138/138 139/139 140/140
f 141/141 142/142 143/143 144/144
f 145/145 146/146 147/147 148/148
f 149/149 150/150 151/151 152/152
f 153/153 154/154 155/155 156/156
f 157/157 158/158 159/159 160/160
f 161/161 162/162 163/163 164/164
f 165/165 166/166 167/167 168/168
f 169/169 170/170 171/171 172/172
f 173/173 174/174 175/175 176/176
f 177/177 178/178 179/179 180/180
f 181/181 182/182 183/183 184/184
f 185/185 186/186 187/187 188/188
f 189/189 190/190 191/191 192/192
f 193/193 194/194 195/195 196/196
f 197/197 198/198 199/199 200/200
f 201/201 202/202 203/203 204/204
f 205/205 206/206 207/207 208/208
f 209/209 210/210 211/211 212/212
f 213/213 214/214 215/215 216/216
f 217/217 218/218 219/219 220/220
f 221/221 222/222 223/223 224/224
f 225/225 226/226 227/227 228/228
f 229/229 230/230 231/231 232/232
f 233/233 234/234 235/235 236/236
f 237/237 238/238 239/239 240/240
