# RoastEngine Backrooms level
mtllib backrooms.mtl
v 756.7500 -0.5000 -43.2500
v 756.7500 -0.5000 43.2500
v 843.2500 -0.5000 43.2500
v 843.2500 -0.5000 -43.2500
v 756.7500 0.0000 -43.2500
v 843.2500 0.0000 -43.2500
v 843.2500 0.0000 43.2500
v 756.7500 0.0000 43.2500
v 756.7500 -0.5000 -43.2500
v 843.2500 -0.5000 -43.2500
v 843.2500 0.0000 -43.2500
v 756.7500 0.0000 -43.2500
v 843.2500 -0.5000 43.2500
v 756.7500 -0.5000 43.2500
v 756.7500 0.0000 43.2500
v 843.2500 0.0000 43.2500
v 843.2500 -0.5000 -43.2500
v 843.2500 -0.5000 43.2500
v 843.2500 0.0000 43.2500
v 843.2500 0.0000 -43.2500
v 756.7500 -0.5000 43.2500
v 756.7500 -0.5000 -43.2500
v 756.7500 0.0000 -43.2500
v 756.7500 0.0000 43.2500
v 756.7500 3.0000 -43.2500
v 756.7500 3.0000 43.2500
v 843.2500 3.0000 43.2500
v 843.2500 3.0000 -43.2500
v 756.7500 3.5000 -43.2500
v 843.2500 3.5000 -43.2500
v 843.2500 3.5000 43.2500
v 756.7500 3.5000 43.2500
v 756.7500 3.0000 -43.2500
v 843.2500 3.0000 -43.2500
v 843.2500 3.5000 -43.2500
v 756.7500 3.5000 -43.2500
v 843.2500 3.0000 43.2500
v 756.7500 3.0000 43.2500
v 756.7500 3.5000 43.2500
v 843.2500 3.5000 43.2500
v 843.2500 3.0000 -43.2500
v 843.2500 3.0000 43.2500
v 843.2500 3.5000 43.2500
v 843.2500 3.5000 -43.2500
v 756.7500 3.0000 43.2500
v 756.7500 3.0000 -43.2500
v 756.7500 3.5000 -43.2500
v 756.7500 3.5000 43.2500
v 756.7500 0.0000 -43.2500
v 756.7500 0.0000 43.2500
v 757.2500 0.0000 43.2500
v 757.2500 0.0000 -43.2500
v 756.7500 3.0000 -43.2500
v 757.2500 3.0000 -43.2500
v 757.2500 3.0000 43.2500
v 756.7500 3.0000 43.2500
v 756.7500 0.0000 -43.2500
v 757.2500 0.0000 -43.2500
v 757.2500 3.0000 -43.2500
v 756.7500 3.0000 -43.2500
v 757.2500 0.0000 43.2500
v 756.7500 0.0000 43.2500
v 756.7500 3.0000 43.2500
v 757.2500 3.0000 43.2500
v 757.2500 0.0000 -43.2500
v 757.2500 0.0000 43.2500
v 757.2500 3.0000 43.2500
v 757.2500 3.0000 -43.2500
v 756.7500 0.0000 43.2500
v 756.7500 0.0000 -43.2500
v 756.7500 3.0000 -43.2500
v 756.7500 3.0000 43.2500
v 756.7500 0.0000 -43.2500
v 756.7500 0.0000 -42.7500
v 843.2500 0.0000 -42.7500
v 843.2500 0.0000 -43.2500
v 756.7500 3.0000 -43.2500
v 843.2500 3.0000 -43.2500
v 843.2500 3.0000 -42.7500
v 756.7500 3.0000 -42.7500
v 756.7500 0.0000 -43.2500
v 843.2500 0.0000 -43.2500
v 843.2500 3.0000 -43.2500
v 756.7500 3.0000 -43.2500
v 843.2500 0.0000 -42.7500
v 756.7500 0.0000 -42.7500
v 756.7500 3.0000 -42.7500
v 843.2500 3.0000 -42.7500
v 843.2500 0.0000 -43.2500
v 843.2500 0.0000 -42.7500
v 843.2500 3.0000 -42.7500
v 843.2500 3.0000 -43.2500
v 756.7500 0.0000 -42.7500
v 756.7500 0.0000 -43.2500
v 756.7500 3.0000 -43.2500
v 756.7500 3.0000 -42.7500
v 842.7500 0.0000 -43.2500
v 842.7500 0.0000 43.2500
v 843.2500 0.0000 43.2500
v 843.2500 0.0000 -43.2500
v 842.7500 3.0000 -43.2500
v 843.2500 3.0000 -43.2500
v 843.2500 3.0000 43.2500
v 842.7500 3.0000 43.2500
v 842.7500 0.0000 -43.2500
v 843.2500 0.0000 -43.2500
v 843.2500 3.0000 -43.2500
v 842.7500 3.0000 -43.2500
v 843.2500 0.0000 43.2500
v 842.7500 0.0000 43.2500
v 842.7500 3.0000 43.2500
v 843.2500 3.0000 43.2500
v 843.2500 0.0000 -43.2500
v 843.2500 0.0000 43.2500
v 843.2500 3.0000 43.2500
v 843.2500 3.0000 -43.2500
v 842.7500 0.0000 43.2500
v 842.7500 0.0000 -43.2500
v 842.7500 3.0000 -43.2500
v 842.7500 3.0000 43.2500
v 756.7500 0.0000 42.7500
v 756.7500 0.0000 43.2500
v 843.2500 0.0000 43.2500
v 843.2500 0.0000 42.7500
v 756.7500 3.0000 42.7500
v 843.2500 3.0000 42.7500
v 843.2500 3.0000 43.2500
v 756.7500 3.0000 43.2500
v 756.7500 0.0000 42.7500
v 843.2500 0.0000 42.7500
v 843.2500 3.0000 42.7500
v 756.7500 3.0000 42.7500
v 843.2500 0.0000 43.2500
v 756.7500 0.0000 43.2500
v 756.7500 3.0000 43.2500
v 843.2500 3.0000 43.2500
v 843.2500 0.0000 42.7500
v 843.2500 0.0000 43.2500
v 843.2500 3.0000 43.2500
v 843.2500 3.0000 42.7500
v 756.7500 0.0000 43.2500
v 756.7500 0.0000 42.7500
v 756.7500 3.0000 42.7500
v 756.7500 3.0000 43.2500
v 783.1795 0.0000 -3.6039
v 783.1795 0.0000 -1.8500
v 785.6726 0.0000 -1.8500
v 785.6726 0.0000 -3.6039
v 783.1795 0.0100 -3.6039
v 785.6726 0.0100 -3.6039
v 785.6726 0.0100 -1.8500
v 783.1795 0.0100 -1.8500
v 783.1795 0.0000 -3.6039
v 785.6726 0.0000 -3.6039
v 785.6726 0.0100 -3.6039
v 783.1795 0.0100 -3.6039
v 785.6726 0.0000 -1.8500
v 783.1795 0.0000 -1.8500
v 783.1795 0.0100 -1.8500
v 785.6726 0.0100 -1.8500
v 785.6726 0.0000 -3.6039
v 785.6726 0.0000 -1.8500
v 785.6726 0.0100 -1.8500
v 785.6726 0.0100 -3.6039
v 783.1795 0.0000 -1.8500
v 783.1795 0.0000 -3.6039
v 783.1795 0.0100 -3.6039
v 783.1795 0.0100 -1.8500
v 784.4541 0.0000 11.3867
v 784.4541 0.0000 12.4853
v 785.6923 0.0000 12.4853
v 785.6923 0.0000 11.3867
v 784.4541 0.0100 11.3867
v 785.6923 0.0100 11.3867
v 785.6923 0.0100 12.4853
v 784.4541 0.0100 12.4853
v 784.4541 0.0000 11.3867
v 785.6923 0.0000 11.3867
v 785.6923 0.0100 11.3867
v 784.4541 0.0100 11.3867
v 785.6923 0.0000 12.4853
v 784.4541 0.0000 12.4853
v 784.4541 0.0100 12.4853
v 785.6923 0.0100 12.4853
v 785.6923 0.0000 11.3867
v 785.6923 0.0000 12.4853
v 785.6923 0.0100 12.4853
v 785.6923 0.0100 11.3867
v 784.4541 0.0000 12.4853
v 784.4541 0.0000 11.3867
v 784.4541 0.0100 11.3867
v 784.4541 0.0100 12.4853
v 794.2598 0.0000 -22.1732
v 794.2598 0.0000 -19.7555
v 796.3599 0.0000 -19.7555
v 796.3599 0.0000 -22.1732
v 794.2598 0.0100 -22.1732
v 796.3599 0.0100 -22.1732
v 796.3599 0.0100 -19.7555
v 794.2598 0.0100 -19.7555
v 794.2598 0.0000 -22.1732
v 796.3599 0.0000 -22.1732
v 796.3599 0.0100 -22.1732
v 794.2598 0.0100 -22.1732
v 796.3599 0.0000 -19.7555
v 794.2598 0.0000 -19.7555
v 794.2598 0.0100 -19.7555
v 796.3599 0.0100 -19.7555
v 796.3599 0.0000 -22.1732
v 796.3599 0.0000 -19.7555
v 796.3599 0.0100 -19.7555
v 796.3599 0.0100 -22.1732
v 794.2598 0.0000 -19.7555
v 794.2598 0.0000 -22.1732
v 794.2598 0.0100 -22.1732
v 794.2598 0.0100 -19.7555
v 785.1801 0.0000 -16.8643
v 785.1801 0.0000 -15.1449
v 786.5777 0.0000 -15.1449
v 786.5777 0.0000 -16.8643
v 785.1801 0.0100 -16.8643
v 786.5777 0.0100 -16.8643
v 786.5777 0.0100 -15.1449
v 785.1801 0.0100 -15.1449
v 785.1801 0.0000 -16.8643
v 786.5777 0.0000 -16.8643
v 786.5777 0.0100 -16.8643
v 785.1801 0.0100 -16.8643
v 786.5777 0.0000 -15.1449
v 785.1801 0.0000 -15.1449
v 785.1801 0.0100 -15.1449
v 786.5777 0.0100 -15.1449
v 786.5777 0.0000 -16.8643
v 786.5777 0.0000 -15.1449
v 786.5777 0.0100 -15.1449
v 786.5777 0.0100 -16.8643
v 785.1801 0.0000 -15.1449
v 785.1801 0.0000 -16.8643
v 785.1801 0.0100 -16.8643
v 785.1801 0.0100 -15.1449
v 835.5116 0.0000 15.8683
v 835.5116 0.0000 18.3932
v 837.9296 0.0000 18.3932
v 837.9296 0.0000 15.8683
v 835.5116 0.0100 15.8683
v 837.9296 0.0100 15.8683
v 837.9296 0.0100 18.3932
v 835.5116 0.0100 18.3932
v 835.5116 0.0000 15.8683
v 837.9296 0.0000 15.8683
v 837.9296 0.0100 15.8683
v 835.5116 0.0100 15.8683
v 837.9296 0.0000 18.3932
v 835.5116 0.0000 18.3932
v 835.5116 0.0100 18.3932
v 837.9296 0.0100 18.3932
v 837.9296 0.0000 15.8683
v 837.9296 0.0000 18.3932
v 837.9296 0.0100 18.3932
v 837.9296 0.0100 15.8683
v 835.5116 0.0000 18.3932
v 835.5116 0.0000 15.8683
v 835.5116 0.0100 15.8683
v 835.5116 0.0100 18.3932
v 810.7651 0.0000 22.2059
v 810.7651 0.0000 23.5912
v 811.7765 0.0000 23.5912
v 811.7765 0.0000 22.2059
v 810.7651 0.0100 22.2059
v 811.7765 0.0100 22.2059
v 811.7765 0.0100 23.5912
v 810.7651 0.0100 23.5912
v 810.7651 0.0000 22.2059
v 811.7765 0.0000 22.2059
v 811.7765 0.0100 22.2059
v 810.7651 0.0100 22.2059
v 811.7765 0.0000 23.5912
v 810.7651 0.0000 23.5912
v 810.7651 0.0100 23.5912
v 811.7765 0.0100 23.5912
v 811.7765 0.0000 22.2059
v 811.7765 0.0000 23.5912
v 811.7765 0.0100 23.5912
v 811.7765 0.0100 22.2059
v 810.7651 0.0000 23.5912
v 810.7651 0.0000 22.2059
v 810.7651 0.0100 22.2059
v 810.7651 0.0100 23.5912
v 812.7839 0.0000 10.7275
v 812.7839 0.0000 14.2406
v 815.3330 0.0000 14.2406
v 815.3330 0.0000 10.7275
v 812.7839 0.0100 10.7275
v 815.3330 0.0100 10.7275
v 815.3330 0.0100 14.2406
v 812.7839 0.0100 14.2406
v 812.7839 0.0000 10.7275
v 815.3330 0.0000 10.7275
v 815.3330 0.0100 10.7275
v 812.7839 0.0100 10.7275
v 815.3330 0.0000 14.2406
v 812.7839 0.0000 14.2406
v 812.7839 0.0100 14.2406
v 815.3330 0.0100 14.2406
v 815.3330 0.0000 10.7275
v 815.3330 0.0000 14.2406
v 815.3330 0.0100 14.2406
v 815.3330 0.0100 10.7275
v 812.7839 0.0000 14.2406
v 812.7839 0.0000 10.7275
v 812.7839 0.0100 10.7275
v 812.7839 0.0100 14.2406
v 810.2091 0.0000 -11.2141
v 810.2091 0.0000 -7.1188
v 813.5335 0.0000 -7.1188
v 813.5335 0.0000 -11.2141
v 810.2091 0.0100 -11.2141
v 813.5335 0.0100 -11.2141
v 813.5335 0.0100 -7.1188
v 810.2091 0.0100 -7.1188
v 810.2091 0.0000 -11.2141
v 813.5335 0.0000 -11.2141
v 813.5335 0.0100 -11.2141
v 810.2091 0.0100 -11.2141
v 813.5335 0.0000 -7.1188
v 810.2091 0.0000 -7.1188
v 810.2091 0.0100 -7.1188
v 813.5335 0.0100 -7.1188
v 813.5335 0.0000 -11.2141
v 813.5335 0.0000 -7.1188
v 813.5335 0.0100 -7.1188
v 813.5335 0.0100 -11.2141
v 810.2091 0.0000 -7.1188
v 810.2091 0.0000 -11.2141
v 810.2091 0.0100 -11.2141
v 810.2091 0.0100 -7.1188
v 771.9030 0.0000 -3.8485
v 771.9030 0.0000 0.1551
v 774.8687 0.0000 0.1551
v 774.8687 0.0000 -3.8485
v 771.9030 0.0100 -3.8485
v 774.8687 0.0100 -3.8485
v 774.8687 0.0100 0.1551
v 771.9030 0.0100 0.1551
v 771.9030 0.0000 -3.8485
v 774.8687 0.0000 -3.8485
v 774.8687 0.0100 -3.8485
v 771.9030 0.0100 -3.8485
v 774.8687 0.0000 0.1551
v 771.9030 0.0000 0.1551
v 771.9030 0.0100 0.1551
v 774.8687 0.0100 0.1551
v 774.8687 0.0000 -3.8485
v 774.8687 0.0000 0.1551
v 774.8687 0.0100 0.1551
v 774.8687 0.0100 -3.8485
v 771.9030 0.0000 0.1551
v 771.9030 0.0000 -3.8485
v 771.9030 0.0100 -3.8485
v 771.9030 0.0100 0.1551
v 758.4589 0.0000 -29.6675
v 758.4589 0.0000 -25.4604
v 761.5700 0.0000 -25.4604
v 761.5700 0.0000 -29.6675
v 758.4589 0.0100 -29.6675
v 761.5700 0.0100 -29.6675
v 761.5700 0.0100 -25.4604
v 758.4589 0.0100 -25.4604
v 758.4589 0.0000 -29.6675
v 761.5700 0.0000 -29.6675
v 761.5700 0.0100 -29.6675
v 758.4589 0.0100 -29.6675
v 761.5700 0.0000 -25.4604
v 758.4589 0.0000 -25.4604
v 758.4589 0.0100 -25.4604
v 761.5700 0.0100 -25.4604
v 761.5700 0.0000 -29.6675
v 761.5700 0.0000 -25.4604
v 761.5700 0.0100 -25.4604
v 761.5700 0.0100 -29.6675
v 758.4589 0.0000 -25.4604
v 758.4589 0.0000 -29.6675
v 758.4589 0.0100 -29.6675
v 758.4589 0.0100 -25.4604
v 828.5692 0.0000 -39.5963
v 828.5692 0.0000 -37.7706
v 830.0153 0.0000 -37.7706
v 830.0153 0.0000 -39.5963
v 828.5692 0.0100 -39.5963
v 830.0153 0.0100 -39.5963
v 830.0153 0.0100 -37.7706
v 828.5692 0.0100 -37.7706
v 828.5692 0.0000 -39.5963
v 830.0153 0.0000 -39.5963
v 830.0153 0.0100 -39.5963
v 828.5692 0.0100 -39.5963
v 830.0153 0.0000 -37.7706
v 828.5692 0.0000 -37.7706
v 828.5692 0.0100 -37.7706
v 830.0153 0.0100 -37.7706
v 830.0153 0.0000 -39.5963
v 830.0153 0.0000 -37.7706
v 830.0153 0.0100 -37.7706
v 830.0153 0.0100 -39.5963
v 828.5692 0.0000 -37.7706
v 828.5692 0.0000 -39.5963
v 828.5692 0.0100 -39.5963
v 828.5692 0.0100 -37.7706
v 829.1933 0.0000 16.6886
v 829.1933 0.0000 19.1822
v 831.6812 0.0000 19.1822
v 831.6812 0.0000 16.6886
v 829.1933 0.0100 16.6886
v 831.6812 0.0100 16.6886
v 831.6812 0.0100 19.1822
v 829.1933 0.0100 19.1822
v 829.1933 0.0000 16.6886
v 831.6812 0.0000 16.6886
v 831.6812 0.0100 16.6886
v 829.1933 0.0100 16.6886
v 831.6812 0.0000 19.1822
v 829.1933 0.0000 19.1822
v 829.1933 0.0100 19.1822
v 831.6812 0.0100 19.1822
v 831.6812 0.0000 16.6886
v 831.6812 0.0000 19.1822
v 831.6812 0.0100 19.1822
v 831.6812 0.0100 16.6886
v 829.1933 0.0000 19.1822
v 829.1933 0.0000 16.6886
v 829.1933 0.0100 16.6886
v 829.1933 0.0100 19.1822
v 821.1888 0.0000 21.3927
v 821.1888 0.0000 23.8132
v 823.6036 0.0000 23.8132
v 823.6036 0.0000 21.3927
v 821.1888 0.0100 21.3927
v 823.6036 0.0100 21.3927
v 823.6036 0.0100 23.8132
v 821.1888 0.0100 23.8132
v 821.1888 0.0000 21.3927
v 823.6036 0.0000 21.3927
v 823.6036 0.0100 21.3927
v 821.1888 0.0100 21.3927
v 823.6036 0.0000 23.8132
v 821.1888 0.0000 23.8132
v 821.1888 0.0100 23.8132
v 823.6036 0.0100 23.8132
v 823.6036 0.0000 21.3927
v 823.6036 0.0000 23.8132
v 823.6036 0.0100 23.8132
v 823.6036 0.0100 21.3927
v 821.1888 0.0000 23.8132
v 821.1888 0.0000 21.3927
v 821.1888 0.0100 21.3927
v 821.1888 0.0100 23.8132
v 823.8220 0.0000 3.3331
v 823.8220 0.0000 5.1391
v 825.8948 0.0000 5.1391
v 825.8948 0.0000 3.3331
v 823.8220 0.0100 3.3331
v 825.8948 0.0100 3.3331
v 825.8948 0.0100 5.1391
v 823.8220 0.0100 5.1391
v 823.8220 0.0000 3.3331
v 825.8948 0.0000 3.3331
v 825.8948 0.0100 3.3331
v 823.8220 0.0100 3.3331
v 825.8948 0.0000 5.1391
v 823.8220 0.0000 5.1391
v 823.8220 0.0100 5.1391
v 825.8948 0.0100 5.1391
v 825.8948 0.0000 3.3331
v 825.8948 0.0000 5.1391
v 825.8948 0.0100 5.1391
v 825.8948 0.0100 3.3331
v 823.8220 0.0000 5.1391
v 823.8220 0.0000 3.3331
v 823.8220 0.0100 3.3331
v 823.8220 0.0100 5.1391
v 825.4752 0.0000 -32.8538
v 825.4752 0.0000 -29.0389
v 828.7887 0.0000 -29.0389
v 828.7887 0.0000 -32.8538
v 825.4752 0.0100 -32.8538
v 828.7887 0.0100 -32.8538
v 828.7887 0.0100 -29.0389
v 825.4752 0.0100 -29.0389
v 825.4752 0.0000 -32.8538
v 828.7887 0.0000 -32.8538
v 828.7887 0.0100 -32.8538
v 825.4752 0.0100 -32.8538
v 828.7887 0.0000 -29.0389
v 825.4752 0.0000 -29.0389
v 825.4752 0.0100 -29.0389
v 828.7887 0.0100 -29.0389
v 828.7887 0.0000 -32.8538
v 828.7887 0.0000 -29.0389
v 828.7887 0.0100 -29.0389
v 828.7887 0.0100 -32.8538
v 825.4752 0.0000 -29.0389
v 825.4752 0.0000 -32.8538
v 825.4752 0.0100 -32.8538
v 825.4752 0.0100 -29.0389
v 804.0435 0.0000 6.8828
v 804.0435 0.0000 8.3099
v 805.4332 0.0000 8.3099
v 805.4332 0.0000 6.8828
v 804.0435 0.0100 6.8828
v 805.4332 0.0100 6.8828
v 805.4332 0.0100 8.3099
v 804.0435 0.0100 8.3099
v 804.0435 0.0000 6.8828
v 805.4332 0.0000 6.8828
v 805.4332 0.0100 6.8828
v 804.0435 0.0100 6.8828
v 805.4332 0.0000 8.3099
v 804.0435 0.0000 8.3099
v 804.0435 0.0100 8.3099
v 805.4332 0.0100 8.3099
v 805.4332 0.0000 6.8828
v 805.4332 0.0000 8.3099
v 805.4332 0.0100 8.3099
v 805.4332 0.0100 6.8828
v 804.0435 0.0000 8.3099
v 804.0435 0.0000 6.8828
v 804.0435 0.0100 6.8828
v 804.0435 0.0100 8.3099
v 830.1591 0.0000 11.5791
v 830.1591 0.0000 15.5885
v 833.3147 0.0000 15.5885
v 833.3147 0.0000 11.5791
v 830.1591 0.0100 11.5791
v 833.3147 0.0100 11.5791
v 833.3147 0.0100 15.5885
v 830.1591 0.0100 15.5885
v 830.1591 0.0000 11.5791
v 833.3147 0.0000 11.5791
v 833.3147 0.0100 11.5791
v 830.1591 0.0100 11.5791
v 833.3147 0.0000 15.5885
v 830.1591 0.0000 15.5885
v 830.1591 0.0100 15.5885
v 833.3147 0.0100 15.5885
v 833.3147 0.0000 11.5791
v 833.3147 0.0000 15.5885
v 833.3147 0.0100 15.5885
v 833.3147 0.0100 11.5791
v 830.1591 0.0000 15.5885
v 830.1591 0.0000 11.5791
v 830.1591 0.0100 11.5791
v 830.1591 0.0100 15.5885
v 822.4234 0.0000 -33.3940
v 822.4234 0.0000 -31.5644
v 824.8055 0.0000 -31.5644
v 824.8055 0.0000 -33.3940
v 822.4234 0.0100 -33.3940
v 824.8055 0.0100 -33.3940
v 824.8055 0.0100 -31.5644
v 822.4234 0.0100 -31.5644
v 822.4234 0.0000 -33.3940
v 824.8055 0.0000 -33.3940
v 824.8055 0.0100 -33.3940
v 822.4234 0.0100 -33.3940
v 824.8055 0.0000 -31.5644
v 822.4234 0.0000 -31.5644
v 822.4234 0.0100 -31.5644
v 824.8055 0.0100 -31.5644
v 824.8055 0.0000 -33.3940
v 824.8055 0.0000 -31.5644
v 824.8055 0.0100 -31.5644
v 824.8055 0.0100 -33.3940
v 822.4234 0.0000 -31.5644
v 822.4234 0.0000 -33.3940
v 822.4234 0.0100 -33.3940
v 822.4234 0.0100 -31.5644
v 813.0617 0.0000 -20.1718
v 813.0617 0.0000 -18.1869
v 815.2635 0.0000 -18.1869
v 815.2635 0.0000 -20.1718
v 813.0617 0.0100 -20.1718
v 815.2635 0.0100 -20.1718
v 815.2635 0.0100 -18.1869
v 813.0617 0.0100 -18.1869
v 813.0617 0.0000 -20.1718
v 815.2635 0.0000 -20.1718
v 815.2635 0.0100 -20.1718
v 813.0617 0.0100 -20.1718
v 815.2635 0.0000 -18.1869
v 813.0617 0.0000 -18.1869
v 813.0617 0.0100 -18.1869
v 815.2635 0.0100 -18.1869
v 815.2635 0.0000 -20.1718
v 815.2635 0.0000 -18.1869
v 815.2635 0.0100 -18.1869
v 815.2635 0.0100 -20.1718
v 813.0617 0.0000 -18.1869
v 813.0617 0.0000 -20.1718
v 813.0617 0.0100 -20.1718
v 813.0617 0.0100 -18.1869
v 763.4833 0.0000 8.5061
v 763.4833 0.0000 10.7061
v 766.4756 0.0000 10.7061
v 766.4756 0.0000 8.5061
v 763.4833 0.0100 8.5061
v 766.4756 0.0100 8.5061
v 766.4756 0.0100 10.7061
v 763.4833 0.0100 10.7061
v 763.4833 0.0000 8.5061
v 766.4756 0.0000 8.5061
v 766.4756 0.0100 8.5061
v 763.4833 0.0100 8.5061
v 766.4756 0.0000 10.7061
v 763.4833 0.0000 10.7061
v 763.4833 0.0100 10.7061
v 766.4756 0.0100 10.7061
v 766.4756 0.0000 8.5061
v 766.4756 0.0000 10.7061
v 766.4756 0.0100 10.7061
v 766.4756 0.0100 8.5061
v 763.4833 0.0000 10.7061
v 763.4833 0.0000 8.5061
v 763.4833 0.0100 8.5061
v 763.4833 0.0100 10.7061
v 791.2775 0.0000 6.9179
v 791.2775 0.0000 9.4169
v 793.1287 0.0000 9.4169
v 793.1287 0.0000 6.9179
v 791.2775 0.0100 6.9179
v 793.1287 0.0100 6.9179
v 793.1287 0.0100 9.4169
v 791.2775 0.0100 9.4169
v 791.2775 0.0000 6.9179
v 793.1287 0.0000 6.9179
v 793.1287 0.0100 6.9179
v 791.2775 0.0100 6.9179
v 793.1287 0.0000 9.4169
v 791.2775 0.0000 9.4169
v 791.2775 0.0100 9.4169
v 793.1287 0.0100 9.4169
v 793.1287 0.0000 6.9179
v 793.1287 0.0000 9.4169
v 793.1287 0.0100 9.4169
v 793.1287 0.0100 6.9179
v 791.2775 0.0000 9.4169
v 791.2775 0.0000 6.9179
v 791.2775 0.0100 6.9179
v 791.2775 0.0100 9.4169
v 759.0111 0.0000 36.6896
v 759.0111 0.0000 39.7397
v 761.7270 0.0000 39.7397
v 761.7270 0.0000 36.6896
v 759.0111 0.0100 36.6896
v 761.7270 0.0100 36.6896
v 761.7270 0.0100 39.7397
v 759.0111 0.0100 39.7397
v 759.0111 0.0000 36.6896
v 761.7270 0.0000 36.6896
v 761.7270 0.0100 36.6896
v 759.0111 0.0100 36.6896
v 761.7270 0.0000 39.7397
v 759.0111 0.0000 39.7397
v 759.0111 0.0100 39.7397
v 761.7270 0.0100 39.7397
v 761.7270 0.0000 36.6896
v 761.7270 0.0000 39.7397
v 761.7270 0.0100 39.7397
v 761.7270 0.0100 36.6896
v 759.0111 0.0000 39.7397
v 759.0111 0.0000 36.6896
v 759.0111 0.0100 36.6896
v 759.0111 0.0100 39.7397
v 785.0252 0.0000 26.0031
v 785.0252 0.0000 27.7104
v 786.8810 0.0000 27.7104
v 786.8810 0.0000 26.0031
v 785.0252 0.0100 26.0031
v 786.8810 0.0100 26.0031
v 786.8810 0.0100 27.7104
v 785.0252 0.0100 27.7104
v 785.0252 0.0000 26.0031
v 786.8810 0.0000 26.0031
v 786.8810 0.0100 26.0031
v 785.0252 0.0100 26.0031
v 786.8810 0.0000 27.7104
v 785.0252 0.0000 27.7104
v 785.0252 0.0100 27.7104
v 786.8810 0.0100 27.7104
v 786.8810 0.0000 26.0031
v 786.8810 0.0000 27.7104
v 786.8810 0.0100 27.7104
v 786.8810 0.0100 26.0031
v 785.0252 0.0000 27.7104
v 785.0252 0.0000 26.0031
v 785.0252 0.0100 26.0031
v 785.0252 0.0100 27.7104
v 836.5934 0.0000 1.6697
v 836.5934 0.0000 3.9215
v 839.6981 0.0000 3.9215
v 839.6981 0.0000 1.6697
v 836.5934 0.0100 1.6697
v 839.6981 0.0100 1.6697
v 839.6981 0.0100 3.9215
v 836.5934 0.0100 3.9215
v 836.5934 0.0000 1.6697
v 839.6981 0.0000 1.6697
v 839.6981 0.0100 1.6697
v 836.5934 0.0100 1.6697
v 839.6981 0.0000 3.9215
v 836.5934 0.0000 3.9215
v 836.5934 0.0100 3.9215
v 839.6981 0.0100 3.9215
v 839.6981 0.0000 1.6697
v 839.6981 0.0000 3.9215
v 839.6981 0.0100 3.9215
v 839.6981 0.0100 1.6697
v 836.5934 0.0000 3.9215
v 836.5934 0.0000 1.6697
v 836.5934 0.0100 1.6697
v 836.5934 0.0100 3.9215
v 798.1356 0.0000 18.7139
v 798.1356 0.0000 21.0744
v 799.8829 0.0000 21.0744
v 799.8829 0.0000 18.7139
v 798.1356 0.0100 18.7139
v 799.8829 0.0100 18.7139
v 799.8829 0.0100 21.0744
v 798.1356 0.0100 21.0744
v 798.1356 0.0000 18.7139
v 799.8829 0.0000 18.7139
v 799.8829 0.0100 18.7139
v 798.1356 0.0100 18.7139
v 799.8829 0.0000 21.0744
v 798.1356 0.0000 21.0744
v 798.1356 0.0100 21.0744
v 799.8829 0.0100 21.0744
v 799.8829 0.0000 18.7139
v 799.8829 0.0000 21.0744
v 799.8829 0.0100 21.0744
v 799.8829 0.0100 18.7139
v 798.1356 0.0000 21.0744
v 798.1356 0.0000 18.7139
v 798.1356 0.0100 18.7139
v 798.1356 0.0100 21.0744
v 793.0830 0.0000 -41.2808
v 793.0830 0.0000 -38.3668
v 795.6403 0.0000 -38.3668
v 795.6403 0.0000 -41.2808
v 793.0830 0.0100 -41.2808
v 795.6403 0.0100 -41.2808
v 795.6403 0.0100 -38.3668
v 793.0830 0.0100 -38.3668
v 793.0830 0.0000 -41.2808
v 795.6403 0.0000 -41.2808
v 795.6403 0.0100 -41.2808
v 793.0830 0.0100 -41.2808
v 795.6403 0.0000 -38.3668
v 793.0830 0.0000 -38.3668
v 793.0830 0.0100 -38.3668
v 795.6403 0.0100 -38.3668
v 795.6403 0.0000 -41.2808
v 795.6403 0.0000 -38.3668
v 795.6403 0.0100 -38.3668
v 795.6403 0.0100 -41.2808
v 793.0830 0.0000 -38.3668
v 793.0830 0.0000 -41.2808
v 793.0830 0.0100 -41.2808
v 793.0830 0.0100 -38.3668
v 836.7974 0.0000 36.3023
v 836.7974 0.0000 39.4571
v 839.1368 0.0000 39.4571
v 839.1368 0.0000 36.3023
v 836.7974 0.0100 36.3023
v 839.1368 0.0100 36.3023
v 839.1368 0.0100 39.4571
v 836.7974 0.0100 39.4571
v 836.7974 0.0000 36.3023
v 839.1368 0.0000 36.3023
v 839.1368 0.0100 36.3023
v 836.7974 0.0100 36.3023
v 839.1368 0.0000 39.4571
v 836.7974 0.0000 39.4571
v 836.7974 0.0100 39.4571
v 839.1368 0.0100 39.4571
v 839.1368 0.0000 36.3023
v 839.1368 0.0000 39.4571
v 839.1368 0.0100 39.4571
v 839.1368 0.0100 36.3023
v 836.7974 0.0000 39.4571
v 836.7974 0.0000 36.3023
v 836.7974 0.0100 36.3023
v 836.7974 0.0100 39.4571
v 824.4254 0.0000 31.8131
v 824.4254 0.0000 33.7561
v 827.3321 0.0000 33.7561
v 827.3321 0.0000 31.8131
v 824.4254 0.0100 31.8131
v 827.3321 0.0100 31.8131
v 827.3321 0.0100 33.7561
v 824.4254 0.0100 33.7561
v 824.4254 0.0000 31.8131
v 827.3321 0.0000 31.8131
v 827.3321 0.0100 31.8131
v 824.4254 0.0100 31.8131
v 827.3321 0.0000 33.7561
v 824.4254 0.0000 33.7561
v 824.4254 0.0100 33.7561
v 827.3321 0.0100 33.7561
v 827.3321 0.0000 31.8131
v 827.3321 0.0000 33.7561
v 827.3321 0.0100 33.7561
v 827.3321 0.0100 31.8131
v 824.4254 0.0000 33.7561
v 824.4254 0.0000 31.8131
v 824.4254 0.0100 31.8131
v 824.4254 0.0100 33.7561
v 785.4940 0.0000 14.6759
v 785.4940 0.0000 15.8976
v 787.3042 0.0000 15.8976
v 787.3042 0.0000 14.6759
v 785.4940 0.0100 14.6759
v 787.3042 0.0100 14.6759
v 787.3042 0.0100 15.8976
v 785.4940 0.0100 15.8976
v 785.4940 0.0000 14.6759
v 787.3042 0.0000 14.6759
v 787.3042 0.0100 14.6759
v 785.4940 0.0100 14.6759
v 787.3042 0.0000 15.8976
v 785.4940 0.0000 15.8976
v 785.4940 0.0100 15.8976
v 787.3042 0.0100 15.8976
v 787.3042 0.0000 14.6759
v 787.3042 0.0000 15.8976
v 787.3042 0.0100 15.8976
v 787.3042 0.0100 14.6759
v 785.4940 0.0000 15.8976
v 785.4940 0.0000 14.6759
v 785.4940 0.0100 14.6759
v 785.4940 0.0100 15.8976
v 828.1368 0.0000 -21.0753
v 828.1368 0.0000 -19.7368
v 829.5209 0.0000 -19.7368
v 829.5209 0.0000 -21.0753
v 828.1368 0.0100 -21.0753
v 829.5209 0.0100 -21.0753
v 829.5209 0.0100 -19.7368
v 828.1368 0.0100 -19.7368
v 828.1368 0.0000 -21.0753
v 829.5209 0.0000 -21.0753
v 829.5209 0.0100 -21.0753
v 828.1368 0.0100 -21.0753
v 829.5209 0.0000 -19.7368
v 828.1368 0.0000 -19.7368
v 828.1368 0.0100 -19.7368
v 829.5209 0.0100 -19.7368
v 829.5209 0.0000 -21.0753
v 829.5209 0.0000 -19.7368
v 829.5209 0.0100 -19.7368
v 829.5209 0.0100 -21.0753
v 828.1368 0.0000 -19.7368
v 828.1368 0.0000 -21.0753
v 828.1368 0.0100 -21.0753
v 828.1368 0.0100 -19.7368
v 829.1880 0.0000 -27.7076
v 829.1880 0.0000 -24.9968
v 831.2391 0.0000 -24.9968
v 831.2391 0.0000 -27.7076
v 829.1880 0.0100 -27.7076
v 831.2391 0.0100 -27.7076
v 831.2391 0.0100 -24.9968
v 829.1880 0.0100 -24.9968
v 829.1880 0.0000 -27.7076
v 831.2391 0.0000 -27.7076
v 831.2391 0.0100 -27.7076
v 829.1880 0.0100 -27.7076
v 831.2391 0.0000 -24.9968
v 829.1880 0.0000 -24.9968
v 829.1880 0.0100 -24.9968
v 831.2391 0.0100 -24.9968
v 831.2391 0.0000 -27.7076
v 831.2391 0.0000 -24.9968
v 831.2391 0.0100 -24.9968
v 831.2391 0.0100 -27.7076
v 829.1880 0.0000 -24.9968
v 829.1880 0.0000 -27.7076
v 829.1880 0.0100 -27.7076
v 829.1880 0.0100 -24.9968
v 761.1342 0.0000 -21.8411
v 761.1342 0.0000 -18.8086
v 763.3429 0.0000 -18.8086
v 763.3429 0.0000 -21.8411
v 761.1342 0.0100 -21.8411
v 763.3429 0.0100 -21.8411
v 763.3429 0.0100 -18.8086
v 761.1342 0.0100 -18.8086
v 761.1342 0.0000 -21.8411
v 763.3429 0.0000 -21.8411
v 763.3429 0.0100 -21.8411
v 761.1342 0.0100 -21.8411
v 763.3429 0.0000 -18.8086
v 761.1342 0.0000 -18.8086
v 761.1342 0.0100 -18.8086
v 763.3429 0.0100 -18.8086
v 763.3429 0.0000 -21.8411
v 763.3429 0.0000 -18.8086
v 763.3429 0.0100 -18.8086
v 763.3429 0.0100 -21.8411
v 761.1342 0.0000 -18.8086
v 761.1342 0.0000 -21.8411
v 761.1342 0.0100 -21.8411
v 761.1342 0.0100 -18.8086
v 808.6511 0.0000 -17.1434
v 808.6511 0.0000 -13.3713
v 811.8093 0.0000 -13.3713
v 811.8093 0.0000 -17.1434
v 808.6511 0.0100 -17.1434
v 811.8093 0.0100 -17.1434
v 811.8093 0.0100 -13.3713
v 808.6511 0.0100 -13.3713
v 808.6511 0.0000 -17.1434
v 811.8093 0.0000 -17.1434
v 811.8093 0.0100 -17.1434
v 808.6511 0.0100 -17.1434
v 811.8093 0.0000 -13.3713
v 808.6511 0.0000 -13.3713
v 808.6511 0.0100 -13.3713
v 811.8093 0.0100 -13.3713
v 811.8093 0.0000 -17.1434
v 811.8093 0.0000 -13.3713
v 811.8093 0.0100 -13.3713
v 811.8093 0.0100 -17.1434
v 808.6511 0.0000 -13.3713
v 808.6511 0.0000 -17.1434
v 808.6511 0.0100 -17.1434
v 808.6511 0.0100 -13.3713
v 811.1143 0.0000 35.3314
v 811.1143 0.0000 36.5897
v 812.3724 0.0000 36.5897
v 812.3724 0.0000 35.3314
v 811.1143 0.0100 35.3314
v 812.3724 0.0100 35.3314
v 812.3724 0.0100 36.5897
v 811.1143 0.0100 36.5897
v 811.1143 0.0000 35.3314
v 812.3724 0.0000 35.3314
v 812.3724 0.0100 35.3314
v 811.1143 0.0100 35.3314
v 812.3724 0.0000 36.5897
v 811.1143 0.0000 36.5897
v 811.1143 0.0100 36.5897
v 812.3724 0.0100 36.5897
v 812.3724 0.0000 35.3314
v 812.3724 0.0000 36.5897
v 812.3724 0.0100 36.5897
v 812.3724 0.0100 35.3314
v 811.1143 0.0000 36.5897
v 811.1143 0.0000 35.3314
v 811.1143 0.0100 35.3314
v 811.1143 0.0100 36.5897
v 811.8033 0.0000 41.0465
v 811.8033 0.0000 43.1233
v 813.6913 0.0000 43.1233
v 813.6913 0.0000 41.0465
v 811.8033 0.0100 41.0465
v 813.6913 0.0100 41.0465
v 813.6913 0.0100 43.1233
v 811.8033 0.0100 43.1233
v 811.8033 0.0000 41.0465
v 813.6913 0.0000 41.0465
v 813.6913 0.0100 41.0465
v 811.8033 0.0100 41.0465
v 813.6913 0.0000 43.1233
v 811.8033 0.0000 43.1233
v 811.8033 0.0100 43.1233
v 813.6913 0.0100 43.1233
v 813.6913 0.0000 41.0465
v 813.6913 0.0000 43.1233
v 813.6913 0.0100 43.1233
v 813.6913 0.0100 41.0465
v 811.8033 0.0000 43.1233
v 811.8033 0.0000 41.0465
v 811.8033 0.0100 41.0465
v 811.8033 0.0100 43.1233
v 820.1510 0.0000 -19.4176
v 820.1510 0.0000 -16.2896
v 822.9393 0.0000 -16.2896
v 822.9393 0.0000 -19.4176
v 820.1510 0.0100 -19.4176
v 822.9393 0.0100 -19.4176
v 822.9393 0.0100 -16.2896
v 820.1510 0.0100 -16.2896
v 820.1510 0.0000 -19.4176
v 822.9393 0.0000 -19.4176
v 822.9393 0.0100 -19.4176
v 820.1510 0.0100 -19.4176
v 822.9393 0.0000 -16.2896
v 820.1510 0.0000 -16.2896
v 820.1510 0.0100 -16.2896
v 822.9393 0.0100 -16.2896
v 822.9393 0.0000 -19.4176
v 822.9393 0.0000 -16.2896
v 822.9393 0.0100 -16.2896
v 822.9393 0.0100 -19.4176
v 820.1510 0.0000 -16.2896
v 820.1510 0.0000 -19.4176
v 820.1510 0.0100 -19.4176
v 820.1510 0.0100 -16.2896
v 772.2121 0.0000 4.5522
v 772.2121 0.0000 7.1541
v 774.5429 0.0000 7.1541
v 774.5429 0.0000 4.5522
v 772.2121 0.0100 4.5522
v 774.5429 0.0100 4.5522
v 774.5429 0.0100 7.1541
v 772.2121 0.0100 7.1541
v 772.2121 0.0000 4.5522
v 774.5429 0.0000 4.5522
v 774.5429 0.0100 4.5522
v 772.2121 0.0100 4.5522
v 774.5429 0.0000 7.1541
v 772.2121 0.0000 7.1541
v 772.2121 0.0100 7.1541
v 774.5429 0.0100 7.1541
v 774.5429 0.0000 4.5522
v 774.5429 0.0000 7.1541
v 774.5429 0.0100 7.1541
v 774.5429 0.0100 4.5522
v 772.2121 0.0000 7.1541
v 772.2121 0.0000 4.5522
v 772.2121 0.0100 4.5522
v 772.2121 0.0100 7.1541
v 765.2117 0.0000 -36.4456
v 765.2117 0.0000 -34.2196
v 768.2249 0.0000 -34.2196
v 768.2249 0.0000 -36.4456
v 765.2117 0.0100 -36.4456
v 768.2249 0.0100 -36.4456
v 768.2249 0.0100 -34.2196
v 765.2117 0.0100 -34.2196
v 765.2117 0.0000 -36.4456
v 768.2249 0.0000 -36.4456
v 768.2249 0.0100 -36.4456
v 765.2117 0.0100 -36.4456
v 768.2249 0.0000 -34.2196
v 765.2117 0.0000 -34.2196
v 765.2117 0.0100 -34.2196
v 768.2249 0.0100 -34.2196
v 768.2249 0.0000 -36.4456
v 768.2249 0.0000 -34.2196
v 768.2249 0.0100 -34.2196
v 768.2249 0.0100 -36.4456
v 765.2117 0.0000 -34.2196
v 765.2117 0.0000 -36.4456
v 765.2117 0.0100 -36.4456
v 765.2117 0.0100 -34.2196
v 816.3467 0.0000 -37.2103
v 816.3467 0.0000 -34.2416
v 819.4431 0.0000 -34.2416
v 819.4431 0.0000 -37.2103
v 816.3467 0.0100 -37.2103
v 819.4431 0.0100 -37.2103
v 819.4431 0.0100 -34.2416
v 816.3467 0.0100 -34.2416
v 816.3467 0.0000 -37.2103
v 819.4431 0.0000 -37.2103
v 819.4431 0.0100 -37.2103
v 816.3467 0.0100 -37.2103
v 819.4431 0.0000 -34.2416
v 816.3467 0.0000 -34.2416
v 816.3467 0.0100 -34.2416
v 819.4431 0.0100 -34.2416
v 819.4431 0.0000 -37.2103
v 819.4431 0.0000 -34.2416
v 819.4431 0.0100 -34.2416
v 819.4431 0.0100 -37.2103
v 816.3467 0.0000 -34.2416
v 816.3467 0.0000 -37.2103
v 816.3467 0.0100 -37.2103
v 816.3467 0.0100 -34.2416
v 835.0758 0.0000 -18.4762
v 835.0758 0.0000 -15.8417
v 838.0247 0.0000 -15.8417
v 838.0247 0.0000 -18.4762
v 835.0758 0.0100 -18.4762
v 838.0247 0.0100 -18.4762
v 838.0247 0.0100 -15.8417
v 835.0758 0.0100 -15.8417
v 835.0758 0.0000 -18.4762
v 838.0247 0.0000 -18.4762
v 838.0247 0.0100 -18.4762
v 835.0758 0.0100 -18.4762
v 838.0247 0.0000 -15.8417
v 835.0758 0.0000 -15.8417
v 835.0758 0.0100 -15.8417
v 838.0247 0.0100 -15.8417
v 838.0247 0.0000 -18.4762
v 838.0247 0.0000 -15.8417
v 838.0247 0.0100 -15.8417
v 838.0247 0.0100 -18.4762
v 835.0758 0.0000 -15.8417
v 835.0758 0.0000 -18.4762
v 835.0758 0.0100 -18.4762
v 835.0758 0.0100 -15.8417
v 808.9458 0.0000 -31.0532
v 808.9458 0.0000 -29.5831
v 811.3795 0.0000 -29.5831
v 811.3795 0.0000 -31.0532
v 808.9458 0.0100 -31.0532
v 811.3795 0.0100 -31.0532
v 811.3795 0.0100 -29.5831
v 808.9458 0.0100 -29.5831
v 808.9458 0.0000 -31.0532
v 811.3795 0.0000 -31.0532
v 811.3795 0.0100 -31.0532
v 808.9458 0.0100 -31.0532
v 811.3795 0.0000 -29.5831
v 808.9458 0.0000 -29.5831
v 808.9458 0.0100 -29.5831
v 811.3795 0.0100 -29.5831
v 811.3795 0.0000 -31.0532
v 811.3795 0.0000 -29.5831
v 811.3795 0.0100 -29.5831
v 811.3795 0.0100 -31.0532
v 808.9458 0.0000 -29.5831
v 808.9458 0.0000 -31.0532
v 808.9458 0.0100 -31.0532
v 808.9458 0.0100 -29.5831
v 829.8869 0.0000 -40.0500
v 829.8869 0.0000 -38.3393
v 831.3831 0.0000 -38.3393
v 831.3831 0.0000 -40.0500
v 829.8869 0.0100 -40.0500
v 831.3831 0.0100 -40.0500
v 831.3831 0.0100 -38.3393
v 829.8869 0.0100 -38.3393
v 829.8869 0.0000 -40.0500
v 831.3831 0.0000 -40.0500
v 831.3831 0.0100 -40.0500
v 829.8869 0.0100 -40.0500
v 831.3831 0.0000 -38.3393
v 829.8869 0.0000 -38.3393
v 829.8869 0.0100 -38.3393
v 831.3831 0.0100 -38.3393
v 831.3831 0.0000 -40.0500
v 831.3831 0.0000 -38.3393
v 831.3831 0.0100 -38.3393
v 831.3831 0.0100 -40.0500
v 829.8869 0.0000 -38.3393
v 829.8869 0.0000 -40.0500
v 829.8869 0.0100 -40.0500
v 829.8869 0.0100 -38.3393
v 792.9752 0.0000 13.5897
v 792.9752 0.0000 15.4755
v 794.4681 0.0000 15.4755
v 794.4681 0.0000 13.5897
v 792.9752 0.0100 13.5897
v 794.4681 0.0100 13.5897
v 794.4681 0.0100 15.4755
v 792.9752 0.0100 15.4755
v 792.9752 0.0000 13.5897
v 794.4681 0.0000 13.5897
v 794.4681 0.0100 13.5897
v 792.9752 0.0100 13.5897
v 794.4681 0.0000 15.4755
v 792.9752 0.0000 15.4755
v 792.9752 0.0100 15.4755
v 794.4681 0.0100 15.4755
v 794.4681 0.0000 13.5897
v 794.4681 0.0000 15.4755
v 794.4681 0.0100 15.4755
v 794.4681 0.0100 13.5897
v 792.9752 0.0000 15.4755
v 792.9752 0.0000 13.5897
v 792.9752 0.0100 13.5897
v 792.9752 0.0100 15.4755
v 790.2671 0.0000 38.7051
v 790.2671 0.0000 41.5186
v 793.1158 0.0000 41.5186
v 793.1158 0.0000 38.7051
v 790.2671 0.0100 38.7051
v 793.1158 0.0100 38.7051
v 793.1158 0.0100 41.5186
v 790.2671 0.0100 41.5186
v 790.2671 0.0000 38.7051
v 793.1158 0.0000 38.7051
v 793.1158 0.0100 38.7051
v 790.2671 0.0100 38.7051
v 793.1158 0.0000 41.5186
v 790.2671 0.0000 41.5186
v 790.2671 0.0100 41.5186
v 793.1158 0.0100 41.5186
v 793.1158 0.0000 38.7051
v 793.1158 0.0000 41.5186
v 793.1158 0.0100 41.5186
v 793.1158 0.0100 38.7051
v 790.2671 0.0000 41.5186
v 790.2671 0.0000 38.7051
v 790.2671 0.0100 38.7051
v 790.2671 0.0100 41.5186
v 834.4060 0.0000 4.4408
v 834.4060 0.0000 6.5204
v 836.0281 0.0000 6.5204
v 836.0281 0.0000 4.4408
v 834.4060 0.0100 4.4408
v 836.0281 0.0100 4.4408
v 836.0281 0.0100 6.5204
v 834.4060 0.0100 6.5204
v 834.4060 0.0000 4.4408
v 836.0281 0.0000 4.4408
v 836.0281 0.0100 4.4408
v 834.4060 0.0100 4.4408
v 836.0281 0.0000 6.5204
v 834.4060 0.0000 6.5204
v 834.4060 0.0100 6.5204
v 836.0281 0.0100 6.5204
v 836.0281 0.0000 4.4408
v 836.0281 0.0000 6.5204
v 836.0281 0.0100 6.5204
v 836.0281 0.0100 4.4408
v 834.4060 0.0000 6.5204
v 834.4060 0.0000 4.4408
v 834.4060 0.0100 4.4408
v 834.4060 0.0100 6.5204
v 813.7242 0.0000 -28.2187
v 813.7242 0.0000 -25.2391
v 816.5469 0.0000 -25.2391
v 816.5469 0.0000 -28.2187
v 813.7242 0.0100 -28.2187
v 816.5469 0.0100 -28.2187
v 816.5469 0.0100 -25.2391
v 813.7242 0.0100 -25.2391
v 813.7242 0.0000 -28.2187
v 816.5469 0.0000 -28.2187
v 816.5469 0.0100 -28.2187
v 813.7242 0.0100 -28.2187
v 816.5469 0.0000 -25.2391
v 813.7242 0.0000 -25.2391
v 813.7242 0.0100 -25.2391
v 816.5469 0.0100 -25.2391
v 816.5469 0.0000 -28.2187
v 816.5469 0.0000 -25.2391
v 816.5469 0.0100 -25.2391
v 816.5469 0.0100 -28.2187
v 813.7242 0.0000 -25.2391
v 813.7242 0.0000 -28.2187
v 813.7242 0.0100 -28.2187
v 813.7242 0.0100 -25.2391
v 781.1065 0.0000 4.5235
v 781.1065 0.0000 6.0316
v 782.2725 0.0000 6.0316
v 782.2725 0.0000 4.5235
v 781.1065 0.0100 4.5235
v 782.2725 0.0100 4.5235
v 782.2725 0.0100 6.0316
v 781.1065 0.0100 6.0316
v 781.1065 0.0000 4.5235
v 782.2725 0.0000 4.5235
v 782.2725 0.0100 4.5235
v 781.1065 0.0100 4.5235
v 782.2725 0.0000 6.0316
v 781.1065 0.0000 6.0316
v 781.1065 0.0100 6.0316
v 782.2725 0.0100 6.0316
v 782.2725 0.0000 4.5235
v 782.2725 0.0000 6.0316
v 782.2725 0.0100 6.0316
v 782.2725 0.0100 4.5235
v 781.1065 0.0000 6.0316
v 781.1065 0.0000 4.5235
v 781.1065 0.0100 4.5235
v 781.1065 0.0100 6.0316
vt 302.7000 -17.3000
vt 302.7000 17.3000
vt 337.3000 17.3000
vt 337.3000 -17.3000
vt 302.7000 -17.3000
vt 337.3000 -17.3000
vt 337.3000 17.3000
vt 302.7000 17.3000
vt 302.7000 -0.2000
vt 337.3000 -0.2000
vt 337.3000 0.0000
vt 302.7000 0.0000
vt 337.3000 -0.2000
vt 302.7000 -0.2000
vt 302.7000 0.0000
vt 337.3000 0.0000
vt -17.3000 -0.2000
vt 17.3000 -0.2000
vt 17.3000 0.0000
vt -17.3000 0.0000
vt 17.3000 -0.2000
vt -17.3000 -0.2000
vt -17.3000 0.0000
vt 17.3000 0.0000
vt 302.7000 -17.3000
vt 302.7000 17.3000
vt 337.3000 17.3000
vt 337.3000 -17.3000
vt 302.7000 -17.3000
vt 337.3000 -17.3000
vt 337.3000 17.3000
vt 302.7000 17.3000
vt 302.7000 1.2000
vt 337.3000 1.2000
vt 337.3000 1.4000
vt 302.7000 1.4000
vt 337.3000 1.2000
vt 302.7000 1.2000
vt 302.7000 1.4000
vt 337.3000 1.4000
vt -17.3000 1.2000
vt 17.3000 1.2000
vt 17.3000 1.4000
vt -17.3000 1.4000
vt 17.3000 1.2000
vt -17.3000 1.2000
vt -17.3000 1.4000
vt 17.3000 1.4000
vt 315.3125 -18.0208
vt 315.3125 18.0208
vt 315.5208 18.0208
vt 315.5208 -18.0208
vt 315.3125 -18.0208
vt 315.5208 -18.0208
vt 315.5208 18.0208
vt 315.3125 18.0208
vt 315.3125 0.0000
vt 315.5208 0.0000
vt 315.5208 1.2500
vt 315.3125 1.2500
vt 315.5208 0.0000
vt 315.3125 0.0000
vt 315.3125 1.2500
vt 315.5208 1.2500
vt -18.0208 0.0000
vt 18.0208 0.0000
vt 18.0208 1.2500
vt -18.0208 1.2500
vt 18.0208 0.0000
vt -18.0208 0.0000
vt -18.0208 1.2500
vt 18.0208 1.2500
vt 315.3125 -18.0208
vt 315.3125 -17.8125
vt 351.3542 -17.8125
vt 351.3542 -18.0208
vt 315.3125 -18.0208
vt 351.3542 -18.0208
vt 351.3542 -17.8125
vt 315.3125 -17.8125
vt 315.3125 0.0000
vt 351.3542 0.0000
vt 351.3542 1.2500
vt 315.3125 1.2500
vt 351.3542 0.0000
vt 315.3125 0.0000
vt 315.3125 1.2500
vt 351.3542 1.2500
vt -18.0208 0.0000
vt -17.8125 0.0000
vt -17.8125 1.2500
vt -18.0208 1.2500
vt -17.8125 0.0000
vt -18.0208 0.0000
vt -18.0208 1.2500
vt -17.8125 1.2500
vt 351.1458 -18.0208
vt 351.1458 18.0208
vt 351.3542 18.0208
vt 351.3542 -18.0208
vt 351.1458 -18.0208
vt 351.3542 -18.0208
vt 351.3542 18.0208
vt 351.1458 18.0208
vt 351.1458 0.0000
vt 351.3542 0.0000
vt 351.3542 1.2500
vt 351.1458 1.2500
vt 351.3542 0.0000
vt 351.1458 0.0000
vt 351.1458 1.2500
vt 351.3542 1.2500
vt -18.0208 0.0000
vt 18.0208 0.0000
vt 18.0208 1.2500
vt -18.0208 1.2500
vt 18.0208 0.0000
vt -18.0208 0.0000
vt -18.0208 1.2500
vt 18.0208 1.2500
vt 315.3125 17.8125
vt 315.3125 18.0208
vt 351.3542 18.0208
vt 351.3542 17.8125
vt 315.3125 17.8125
vt 351.3542 17.8125
vt 351.3542 18.0208
vt 315.3125 18.0208
vt 315.3125 0.0000
vt 351.3542 0.0000
vt 351.3542 1.2500
vt 315.3125 1.2500
vt 351.3542 0.0000
vt 315.3125 0.0000
vt 315.3125 1.2500
vt 351.3542 1.2500
vt 17.8125 0.0000
vt 18.0208 0.0000
vt 18.0208 1.2500
vt 17.8125 1.2500
vt 18.0208 0.0000
vt 17.8125 0.0000
vt 17.8125 1.2500
vt 18.0208 1.2500
vt 313.2718 -1.4415
vt 313.2718 -0.7400
vt 314.2690 -0.7400
vt 314.2690 -1.4415
vt 313.2718 -1.4415
vt 314.2690 -1.4415
vt 314.2690 -0.7400
vt 313.2718 -0.7400
vt 313.2718 0.0000
vt 314.2690 0.0000
vt 314.2690 0.0040
vt 313.2718 0.0040
vt 314.2690 0.0000
vt 313.2718 0.0000
vt 313.2718 0.0040
vt 314.2690 0.0040
vt -1.4415 0.0000
vt -0.7400 0.0000
vt -0.7400 0.0040
vt -1.4415 0.0040
vt -0.7400 0.0000
vt -1.4415 0.0000
vt -1.4415 0.0040
vt -0.7400 0.0040
vt 313.7816 4.5547
vt 313.7816 4.9941
vt 314.2769 4.9941
vt 314.2769 4.5547
vt 313.7816 4.5547
vt 314.2769 4.5547
vt 314.2769 4.9941
vt 313.7816 4.9941
vt 313.7816 0.0000
vt 314.2769 0.0000
vt 314.2769 0.0040
vt 313.7816 0.0040
vt 314.2769 0.0000
vt 313.7816 0.0000
vt 313.7816 0.0040
vt 314.2769 0.0040
vt 4.5547 0.0000
vt 4.9941 0.0000
vt 4.9941 0.0040
vt 4.5547 0.0040
vt 4.9941 0.0000
vt 4.5547 0.0000
vt 4.5547 0.0040
vt 4.9941 0.0040
vt 317.7039 -8.8693
vt 317.7039 -7.9022
vt 318.5439 -7.9022
vt 318.5439 -8.8693
vt 317.7039 -8.8693
vt 318.5439 -8.8693
vt 318.5439 -7.9022
vt 317.7039 -7.9022
vt 317.7039 0.0000
vt 318.5439 0.0000
vt 318.5439 0.0040
vt 317.7039 0.0040
vt 318.5439 0.0000
vt 317.7039 0.0000
vt 317.7039 0.0040
vt 318.5439 0.0040
vt -8.8693 0.0000
vt -7.9022 0.0000
vt -7.9022 0.0040
vt -8.8693 0.0040
vt -7.9022 0.0000
vt -8.8693 0.0000
vt -8.8693 0.0040
vt -7.9022 0.0040
vt 314.0721 -6.7457
vt 314.0721 -6.0580
vt 314.6311 -6.0580
vt 314.6311 -6.7457
vt 314.0721 -6.7457
vt 314.6311 -6.7457
vt 314.6311 -6.0580
vt 314.0721 -6.0580
vt 314.0721 0.0000
vt 314.6311 0.0000
vt 314.6311 0.0040
vt 314.0721 0.0040
vt 314.6311 0.0000
vt 314.0721 0.0000
vt 314.0721 0.0040
vt 314.6311 0.0040
vt -6.7457 0.0000
vt -6.0580 0.0000
vt -6.0580 0.0040
vt -6.7457 0.0040
vt -6.0580 0.0000
vt -6.7457 0.0000
vt -6.7457 0.0040
vt -6.0580 0.0040
vt 334.2046 6.3473
vt 334.2046 7.3573
vt 335.1718 7.3573
vt 335.1718 6.3473
vt 334.2046 6.3473
vt 335.1718 6.3473
vt 335.1718 7.3573
vt 334.2046 7.3573
vt 334.2046 0.0000
vt 335.1718 0.0000
vt 335.1718 0.0040
vt 334.2046 0.0040
vt 335.1718 0.0000
vt 334.2046 0.0000
vt 334.2046 0.0040
vt 335.1718 0.0040
vt 6.3473 0.0000
vt 7.3573 0.0000
vt 7.3573 0.0040
vt 6.3473 0.0040
vt 7.3573 0.0000
vt 6.3473 0.0000
vt 6.3473 0.0040
vt 7.3573 0.0040
vt 324.3060 8.8824
vt 324.3060 9.4365
vt 324.7106 9.4365
vt 324.7106 8.8824
vt 324.3060 8.8824
vt 324.7106 8.8824
vt 324.7106 9.4365
vt 324.3060 9.4365
vt 324.3060 0.0000
vt 324.7106 0.0000
vt 324.7106 0.0040
vt 324.3060 0.0040
vt 324.7106 0.0000
vt 324.3060 0.0000
vt 324.3060 0.0040
vt 324.7106 0.0040
vt 8.8824 0.0000
vt 9.4365 0.0000
vt 9.4365 0.0040
vt 8.8824 0.0040
vt 9.4365 0.0000
vt 8.8824 0.0000
vt 8.8824 0.0040
vt 9.4365 0.0040
vt 325.1135 4.2910
vt 325.1135 5.6963
vt 326.1332 5.6963
vt 326.1332 4.2910
vt 325.1135 4.2910
vt 326.1332 4.2910
vt 326.1332 5.6963
vt 325.1135 5.6963
vt 325.1135 0.0000
vt 326.1332 0.0000
vt 326.1332 0.0040
vt 325.1135 0.0040
vt 326.1332 0.0000
vt 325.1135 0.0000
vt 325.1135 0.0040
vt 326.1332 0.0040
vt 4.2910 0.0000
vt 5.6963 0.0000
vt 5.6963 0.0040
vt 4.2910 0.0040
vt 5.6963 0.0000
vt 4.2910 0.0000
vt 4.2910 0.0040
vt 5.6963 0.0040
vt 324.0837 -4.4856
vt 324.0837 -2.8475
vt 325.4134 -2.8475
vt 325.4134 -4.4856
vt 324.0837 -4.4856
vt 325.4134 -4.4856
vt 325.4134 -2.8475
vt 324.0837 -2.8475
vt 324.0837 0.0000
vt 325.4134 0.0000
vt 325.4134 0.0040
vt 324.0837 0.0040
vt 325.4134 0.0000
vt 324.0837 0.0000
vt 324.0837 0.0040
vt 325.4134 0.0040
vt -4.4856 0.0000
vt -2.8475 0.0000
vt -2.8475 0.0040
vt -4.4856 0.0040
vt -2.8475 0.0000
vt -4.4856 0.0000
vt -4.4856 0.0040
vt -2.8475 0.0040
vt 308.7612 -1.5394
vt 308.7612 0.0620
vt 309.9475 0.0620
vt 309.9475 -1.5394
vt 308.7612 -1.5394
vt 309.9475 -1.5394
vt 309.9475 0.0620
vt 308.7612 0.0620
vt 308.7612 0.0000
vt 309.9475 0.0000
vt 309.9475 0.0040
vt 308.7612 0.0040
vt 309.9475 0.0000
vt 308.7612 0.0000
vt 308.7612 0.0040
vt 309.9475 0.0040
vt -1.5394 0.0000
vt 0.0620 0.0000
vt 0.0620 0.0040
vt -1.5394 0.0040
vt 0.0620 0.0000
vt -1.5394 0.0000
vt -1.5394 0.0040
vt 0.0620 0.0040
vt 303.3836 -11.8670
vt 303.3836 -10.1842
vt 304.6280 -10.1842
vt 304.6280 -11.8670
vt 303.3836 -11.8670
vt 304.6280 -11.8670
vt 304.6280 -10.1842
vt 303.3836 -10.1842
vt 303.3836 0.0000
vt 304.6280 0.0000
vt 304.6280 0.0040
vt 303.3836 0.0040
vt 304.6280 0.0000
vt 303.3836 0.0000
vt 303.3836 0.0040
vt 304.6280 0.0040
vt -11.8670 0.0000
vt -10.1842 0.0000
vt -10.1842 0.0040
vt -11.8670 0.0040
vt -10.1842 0.0000
vt -11.8670 0.0000
vt -11.8670 0.0040
vt -10.1842 0.0040
vt 331.4277 -15.8385
vt 331.4277 -15.1082
vt 332.0061 -15.1082
vt 332.0061 -15.8385
vt 331.4277 -15.8385
vt 332.0061 -15.8385
vt 332.0061 -15.1082
vt 331.4277 -15.1082
vt 331.4277 0.0000
vt 332.0061 0.0000
vt 332.0061 0.0040
vt 331.4277 0.0040
vt 332.0061 0.0000
vt 331.4277 0.0000
vt 331.4277 0.0040
vt 332.0061 0.0040
vt -15.8385 0.0000
vt -15.1082 0.0000
vt -15.1082 0.0040
vt -15.8385 0.0040
vt -15.1082 0.0000
vt -15.8385 0.0000
vt -15.8385 0.0040
vt -15.1082 0.0040
vt 331.6773 6.6754
vt 331.6773 7.6729
vt 332.6725 7.6729
vt 332.6725 6.6754
vt 331.6773 6.6754
vt 332.6725 6.6754
vt 332.6725 7.6729
vt 331.6773 7.6729
vt 331.6773 0.0000
vt 332.6725 0.0000
vt 332.6725 0.0040
vt 331.6773 0.0040
vt 332.6725 0.0000
vt 331.6773 0.0000
vt 331.6773 0.0040
vt 332.6725 0.0040
vt 6.6754 0.0000
vt 7.6729 0.0000
vt 7.6729 0.0040
vt 6.6754 0.0040
vt 7.6729 0.0000
vt 6.6754 0.0000
vt 6.6754 0.0040
vt 7.6729 0.0040
vt 328.4755 8.5571
vt 328.4755 9.5253
vt 329.4414 9.5253
vt 329.4414 8.5571
vt 328.4755 8.5571
vt 329.4414 8.5571
vt 329.4414 9.5253
vt 328.4755 9.5253
vt 328.4755 0.0000
vt 329.4414 0.0000
vt 329.4414 0.0040
vt 328.4755 0.0040
vt 329.4414 0.0000
vt 328.4755 0.0000
vt 328.4755 0.0040
vt 329.4414 0.0040
vt 8.5571 0.0000
vt 9.5253 0.0000
vt 9.5253 0.0040
vt 8.5571 0.0040
vt 9.5253 0.0000
vt 8.5571 0.0000
vt 8.5571 0.0040
vt 9.5253 0.0040
vt 329.5288 1.3332
vt 329.5288 2.0556
vt 330.3579 2.0556
vt 330.3579 1.3332
vt 329.5288 1.3332
vt 330.3579 1.3332
vt 330.3579 2.0556
vt 329.5288 2.0556
vt 329.5288 0.0000
vt 330.3579 0.0000
vt 330.3579 0.0040
vt 329.5288 0.0040
vt 330.3579 0.0000
vt 329.5288 0.0000
vt 329.5288 0.0040
vt 330.3579 0.0040
vt 1.3332 0.0000
vt 2.0556 0.0000
vt 2.0556 0.0040
vt 1.3332 0.0040
vt 2.0556 0.0000
vt 1.3332 0.0000
vt 1.3332 0.0040
vt 2.0556 0.0040
vt 330.1901 -13.1415
vt 330.1901 -11.6155
vt 331.5155 -11.6155
vt 331.5155 -13.1415
vt 330.1901 -13.1415
vt 331.5155 -13.1415
vt 331.5155 -11.6155
vt 330.1901 -11.6155
vt 330.1901 0.0000
vt 331.5155 0.0000
vt 331.5155 0.0040
vt 330.1901 0.0040
vt 331.5155 0.0000
vt 330.1901 0.0000
vt 330.1901 0.0040
vt 331.5155 0.0040
vt -13.1415 0.0000
vt -11.6155 0.0000
vt -11.6155 0.0040
vt -13.1415 0.0040
vt -11.6155 0.0000
vt -13.1415 0.0000
vt -13.1415 0.0040
vt -11.6155 0.0040
vt 321.6174 2.7531
vt 321.6174 3.3240
vt 322.1733 3.3240
vt 322.1733 2.7531
vt 321.6174 2.7531
vt 322.1733 2.7531
vt 322.1733 3.3240
vt 321.6174 3.3240
vt 321.6174 0.0000
vt 322.1733 0.0000
vt 322.1733 0.0040
vt 321.6174 0.0040
vt 322.1733 0.0000
vt 321.6174 0.0000
vt 321.6174 0.0040
vt 322.1733 0.0040
vt 2.7531 0.0000
vt 3.3240 0.0000
vt 3.3240 0.0040
vt 2.7531 0.0040
vt 3.3240 0.0000
vt 2.7531 0.0000
vt 2.7531 0.0040
vt 3.3240 0.0040
vt 332.0636 4.6316
vt 332.0636 6.2354
vt 333.3259 6.2354
vt 333.3259 4.6316
vt 332.0636 4.6316
vt 333.3259 4.6316
vt 333.3259 6.2354
vt 332.0636 6.2354
vt 332.0636 0.0000
vt 333.3259 0.0000
vt 333.3259 0.0040
vt 332.0636 0.0040
vt 333.3259 0.0000
vt 332.0636 0.0000
vt 332.0636 0.0040
vt 333.3259 0.0040
vt 4.6316 0.0000
vt 6.2354 0.0000
vt 6.2354 0.0040
vt 4.6316 0.0040
vt 6.2354 0.0000
vt 4.6316 0.0000
vt 4.6316 0.0040
vt 6.2354 0.0040
vt 328.9694 -13.3576
vt 328.9694 -12.6258
vt 329.9222 -12.6258
vt 329.9222 -13.3576
vt 328.9694 -13.3576
vt 329.9222 -13.3576
vt 329.9222 -12.6258
vt 328.9694 -12.6258
vt 328.9694 0.0000
vt 329.9222 0.0000
vt 329.9222 0.0040
vt 328.9694 0.0040
vt 329.9222 0.0000
vt 328.9694 0.0000
vt 328.9694 0.0040
vt 329.9222 0.0040
vt -13.3576 0.0000
vt -12.6258 0.0000
vt -12.6258 0.0040
vt -13.3576 0.0040
vt -12.6258 0.0000
vt -13.3576 0.0000
vt -13.3576 0.0040
vt -12.6258 0.0040
vt 325.2247 -8.0687
vt 325.2247 -7.2747
vt 326.1054 -7.2747
vt 326.1054 -8.0687
vt 325.2247 -8.0687
vt 326.1054 -8.0687
vt 326.1054 -7.2747
vt 325.2247 -7.2747
vt 325.2247 0.0000
vt 326.1054 0.0000
vt 326.1054 0.0040
vt 325.2247 0.0040
vt 326.1054 0.0000
vt 325.2247 0.0000
vt 325.2247 0.0040
vt 326.1054 0.0040
vt -8.0687 0.0000
vt -7.2747 0.0000
vt -7.2747 0.0040
vt -8.0687 0.0040
vt -7.2747 0.0000
vt -8.0687 0.0000
vt -8.0687 0.0040
vt -7.2747 0.0040
vt 305.3933 3.4024
vt 305.3933 4.2825
vt 306.5902 4.2825
vt 306.5902 3.4024
vt 305.3933 3.4024
vt 306.5902 3.4024
vt 306.5902 4.2825
vt 305.3933 4.2825
vt 305.3933 0.0000
vt 306.5902 0.0000
vt 306.5902 0.0040
vt 305.3933 0.0040
vt 306.5902 0.0000
vt 305.3933 0.0000
vt 305.3933 0.0040
vt 306.5902 0.0040
vt 3.4024 0.0000
vt 4.2825 0.0000
vt 4.2825 0.0040
vt 3.4024 0.0040
vt 4.2825 0.0000
vt 3.4024 0.0000
vt 3.4024 0.0040
vt 4.2825 0.0040
vt 316.5110 2.7672
vt 316.5110 3.7668
vt 317.2515 3.7668
vt 317.2515 2.7672
vt 316.5110 2.7672
vt 317.2515 2.7672
vt 317.2515 3.7668
vt 316.5110 3.7668
vt 316.5110 0.0000
vt 317.2515 0.0000
vt 317.2515 0.0040
vt 316.5110 0.0040
vt 317.2515 0.0000
vt 316.5110 0.0000
vt 316.5110 0.0040
vt 317.2515 0.0040
vt 2.7672 0.0000
vt 3.7668 0.0000
vt 3.7668 0.0040
vt 2.7672 0.0040
vt 3.7668 0.0000
vt 2.7672 0.0000
vt 2.7672 0.0040
vt 3.7668 0.0040
vt 303.6045 14.6758
vt 303.6045 15.8959
vt 304.6908 15.8959
vt 304.6908 14.6758
vt 303.6045 14.6758
vt 304.6908 14.6758
vt 304.6908 15.8959
vt 303.6045 15.8959
vt 303.6045 0.0000
vt 304.6908 0.0000
vt 304.6908 0.0040
vt 303.6045 0.0040
vt 304.6908 0.0000
vt 303.6045 0.0000
vt 303.6045 0.0040
vt 304.6908 0.0040
vt 14.6758 0.0000
vt 15.8959 0.0000
vt 15.8959 0.0040
vt 14.6758 0.0040
vt 15.8959 0.0000
vt 14.6758 0.0000
vt 14.6758 0.0040
vt 15.8959 0.0040
vt 314.0101 10.4013
vt 314.0101 11.0842
vt 314.7524 11.0842
vt 314.7524 10.4013
vt 314.0101 10.4013
vt 314.7524 10.4013
vt 314.7524 11.0842
vt 314.0101 11.0842
vt 314.0101 0.0000
vt 314.7524 0.0000
vt 314.7524 0.0040
vt 314.0101 0.0040
vt 314.7524 0.0000
vt 314.0101 0.0000
vt 314.0101 0.0040
vt 314.7524 0.0040
vt 10.4013 0.0000
vt 11.0842 0.0000
vt 11.0842 0.0040
vt 10.4013 0.0040
vt 11.0842 0.0000
vt 10.4013 0.0000
vt 10.4013 0.0040
vt 11.0842 0.0040
vt 334.6374 0.6679
vt 334.6374 1.5686
vt 335.8792 1.5686
vt 335.8792 0.6679
vt 334.6374 0.6679
vt 335.8792 0.6679
vt 335.8792 1.5686
vt 334.6374 1.5686
vt 334.6374 0.0000
vt 335.8792 0.0000
vt 335.8792 0.0040
vt 334.6374 0.0040
vt 335.8792 0.0000
vt 334.6374 0.0000
vt 334.6374 0.0040
vt 335.8792 0.0040
vt 0.6679 0.0000
vt 1.5686 0.0000
vt 1.5686 0.0040
vt 0.6679 0.0040
vt 1.5686 0.0000
vt 0.6679 0.0000
vt 0.6679 0.0040
vt 1.5686 0.0040
vt 319.2543 7.4856
vt 319.2543 8.4298
vt 319.9531 8.4298
vt 319.9531 7.4856
vt 319.2543 7.4856
vt 319.9531 7.4856
vt 319.9531 8.4298
vt 319.2543 8.4298
vt 319.2543 0.0000
vt 319.9531 0.0000
vt 319.9531 0.0040
vt 319.2543 0.0040
vt 319.9531 0.0000
vt 319.2543 0.0000
vt 319.2543 0.0040
vt 319.9531 0.0040
vt 7.4856 0.0000
vt 8.4298 0.0000
vt 8.4298 0.0040
vt 7.4856 0.0040
vt 8.4298 0.0000
vt 7.4856 0.0000
vt 7.4856 0.0040
vt 8.4298 0.0040
vt 317.2332 -16.5123
vt 317.2332 -15.3467
vt 318.2561 -15.3467
vt 318.2561 -16.5123
vt 317.2332 -16.5123
vt 318.2561 -16.5123
vt 318.2561 -15.3467
vt 317.2332 -15.3467
vt 317.2332 0.0000
vt 318.2561 0.0000
vt 318.2561 0.0040
vt 317.2332 0.0040
vt 318.2561 0.0000
vt 317.2332 0.0000
vt 317.2332 0.0040
vt 318.2561 0.0040
vt -16.5123 0.0000
vt -15.3467 0.0000
vt -15.3467 0.0040
vt -16.5123 0.0040
vt -15.3467 0.0000
vt -16.5123 0.0000
vt -16.5123 0.0040
vt -15.3467 0.0040
vt 334.7190 14.5209
vt 334.7190 15.7828
vt 335.6547 15.7828
vt 335.6547 14.5209
vt 334.7190 14.5209
vt 335.6547 14.5209
vt 335.6547 15.7828
vt 334.7190 15.7828
vt 334.7190 0.0000
vt 335.6547 0.0000
vt 335.6547 0.0040
vt 334.7190 0.0040
vt 335.6547 0.0000
vt 334.7190 0.0000
vt 334.7190 0.0040
vt 335.6547 0.0040
vt 14.5209 0.0000
vt 15.7828 0.0000
vt 15.7828 0.0040
vt 14.5209 0.0040
vt 15.7828 0.0000
vt 14.5209 0.0000
vt 14.5209 0.0040
vt 15.7828 0.0040
vt 329.7702 12.7253
vt 329.7702 13.5024
vt 330.9329 13.5024
vt 330.9329 12.7253
vt 329.7702 12.7253
vt 330.9329 12.7253
vt 330.9329 13.5024
vt 329.7702 13.5024
vt 329.7702 0.0000
vt 330.9329 0.0000
vt 330.9329 0.0040
vt 329.7702 0.0040
vt 330.9329 0.0000
vt 329.7702 0.0000
vt 329.7702 0.0040
vt 330.9329 0.0040
vt 12.7253 0.0000
vt 13.5024 0.0000
vt 13.5024 0.0040
vt 12.7253 0.0040
vt 13.5024 0.0000
vt 12.7253 0.0000
vt 12.7253 0.0040
vt 13.5024 0.0040
vt 314.1976 5.8703
vt 314.1976 6.3590
vt 314.9217 6.3590
vt 314.9217 5.8703
vt 314.1976 5.8703
vt 314.9217 5.8703
vt 314.9217 6.3590
vt 314.1976 6.3590
vt 314.1976 0.0000
vt 314.9217 0.0000
vt 314.9217 0.0040
vt 314.1976 0.0040
vt 314.9217 0.0000
vt 314.1976 0.0000
vt 314.1976 0.0040
vt 314.9217 0.0040
vt 5.8703 0.0000
vt 6.3590 0.0000
vt 6.3590 0.0040
vt 5.8703 0.0040
vt 6.3590 0.0000
vt 5.8703 0.0000
vt 5.8703 0.0040
vt 6.3590 0.0040
vt 331.2547 -8.4301
vt 331.2547 -7.8947
vt 331.8084 -7.8947
vt 331.8084 -8.4301
vt 331.2547 -8.4301
vt 331.8084 -8.4301
vt 331.8084 -7.8947
vt 331.2547 -7.8947
vt 331.2547 0.0000
vt 331.8084 0.0000
vt 331.8084 0.0040
vt 331.2547 0.0040
vt 331.8084 0.0000
vt 331.2547 0.0000
vt 331.2547 0.0040
vt 331.8084 0.0040
vt -8.4301 0.0000
vt -7.8947 0.0000
vt -7.8947 0.0040
vt -8.4301 0.0040
vt -7.8947 0.0000
vt -8.4301 0.0000
vt -8.4301 0.0040
vt -7.8947 0.0040
vt 331.6752 -11.0830
vt 331.6752 -9.9987
vt 332.4957 -9.9987
vt 332.4957 -11.0830
vt 331.6752 -11.0830
vt 332.4957 -11.0830
vt 332.4957 -9.9987
vt 331.6752 -9.9987
vt 331.6752 0.0000
vt 332.4957 0.0000
vt 332.4957 0.0040
vt 331.6752 0.0040
vt 332.4957 0.0000
vt 331.6752 0.0000
vt 331.6752 0.0040
vt 332.4957 0.0040
vt -11.0830 0.0000
vt -9.9987 0.0000
vt -9.9987 0.0040
vt -11.0830 0.0040
vt -9.9987 0.0000
vt -11.0830 0.0000
vt -11.0830 0.0040
vt -9.9987 0.0040
vt 304.4537 -8.7364
vt 304.4537 -7.5234
vt 305.3372 -7.5234
vt 305.3372 -8.7364
vt 304.4537 -8.7364
vt 305.3372 -8.7364
vt 305.3372 -7.5234
vt 304.4537 -7.5234
vt 304.4537 0.0000
vt 305.3372 0.0000
vt 305.3372 0.0040
vt 304.4537 0.0040
vt 305.3372 0.0000
vt 304.4537 0.0000
vt 304.4537 0.0040
vt 305.3372 0.0040
vt -8.7364 0.0000
vt -7.5234 0.0000
vt -7.5234 0.0040
vt -8.7364 0.0040
vt -7.5234 0.0000
vt -8.7364 0.0000
vt -8.7364 0.0040
vt -7.5234 0.0040
vt 323.4605 -6.8574
vt 323.4605 -5.3485
vt 324.7237 -5.3485
vt 324.7237 -6.8574
vt 323.4605 -6.8574
vt 324.7237 -6.8574
vt 324.7237 -5.3485
vt 323.4605 -5.3485
vt 323.4605 0.0000
vt 324.7237 0.0000
vt 324.7237 0.0040
vt 323.4605 0.0040
vt 324.7237 0.0000
vt 323.4605 0.0000
vt 323.4605 0.0040
vt 324.7237 0.0040
vt -6.8574 0.0000
vt -5.3485 0.0000
vt -5.3485 0.0040
vt -6.8574 0.0040
vt -5.3485 0.0000
vt -6.8574 0.0000
vt -6.8574 0.0040
vt -5.3485 0.0040
vt 324.4457 14.1326
vt 324.4457 14.6359
vt 324.9490 14.6359
vt 324.9490 14.1326
vt 324.4457 14.1326
vt 324.9490 14.1326
vt 324.9490 14.6359
vt 324.4457 14.6359
vt 324.4457 0.0000
vt 324.9490 0.0000
vt 324.9490 0.0040
vt 324.4457 0.0040
vt 324.9490 0.0000
vt 324.4457 0.0000
vt 324.4457 0.0040
vt 324.9490 0.0040
vt 14.1326 0.0000
vt 14.6359 0.0000
vt 14.6359 0.0040
vt 14.1326 0.0040
vt 14.6359 0.0000
vt 14.1326 0.0000
vt 14.1326 0.0040
vt 14.6359 0.0040
vt 324.7213 16.4186
vt 324.7213 17.2493
vt 325.4765 17.2493
vt 325.4765 16.4186
vt 324.7213 16.4186
vt 325.4765 16.4186
vt 325.4765 17.2493
vt 324.7213 17.2493
vt 324.7213 0.0000
vt 325.4765 0.0000
vt 325.4765 0.0040
vt 324.7213 0.0040
vt 325.4765 0.0000
vt 324.7213 0.0000
vt 324.7213 0.0040
vt 325.4765 0.0040
vt 16.4186 0.0000
vt 17.2493 0.0000
vt 17.2493 0.0040
vt 16.4186 0.0040
vt 17.2493 0.0000
vt 16.4186 0.0000
vt 16.4186 0.0040
vt 17.2493 0.0040
vt 328.0604 -7.7670
vt 328.0604 -6.5158
vt 329.1757 -6.5158
vt 329.1757 -7.7670
vt 328.0604 -7.7670
vt 329.1757 -7.7670
vt 329.1757 -6.5158
vt 328.0604 -6.5158
vt 328.0604 0.0000
vt 329.1757 0.0000
vt 329.1757 0.0040
vt 328.0604 0.0040
vt 329.1757 0.0000
vt 328.0604 0.0000
vt 328.0604 0.0040
vt 329.1757 0.0040
vt -7.7670 0.0000
vt -6.5158 0.0000
vt -6.5158 0.0040
vt -7.7670 0.0040
vt -6.5158 0.0000
vt -7.7670 0.0000
vt -7.7670 0.0040
vt -6.5158 0.0040
vt 308.8848 1.8209
vt 308.8848 2.8617
vt 309.8171 2.8617
vt 309.8171 1.8209
vt 308.8848 1.8209
vt 309.8171 1.8209
vt 309.8171 2.8617
vt 308.8848 2.8617
vt 308.8848 0.0000
vt 309.8171 0.0000
vt 309.8171 0.0040
vt 308.8848 0.0040
vt 309.8171 0.0000
vt 308.8848 0.0000
vt 308.8848 0.0040
vt 309.8171 0.0040
vt 1.8209 0.0000
vt 2.8617 0.0000
vt 2.8617 0.0040
vt 1.8209 0.0040
vt 2.8617 0.0000
vt 1.8209 0.0000
vt 1.8209 0.0040
vt 2.8617 0.0040
vt 306.0847 -14.5783
vt 306.0847 -13.6879
vt 307.2899 -13.6879
vt 307.2899 -14.5783
vt 306.0847 -14.5783
vt 307.2899 -14.5783
vt 307.2899 -13.6879
vt 306.0847 -13.6879
vt 306.0847 0.0000
vt 307.2899 0.0000
vt 307.2899 0.0040
vt 306.0847 0.0040
vt 307.2899 0.0000
vt 306.0847 0.0000
vt 306.0847 0.0040
vt 307.2899 0.0040
vt -14.5783 0.0000
vt -13.6879 0.0000
vt -13.6879 0.0040
vt -14.5783 0.0040
vt -13.6879 0.0000
vt -14.5783 0.0000
vt -14.5783 0.0040
vt -13.6879 0.0040
vt 326.5387 -14.8841
vt 326.5387 -13.6966
vt 327.7773 -13.6966
vt 327.7773 -14.8841
vt 326.5387 -14.8841
vt 327.7773 -14.8841
vt 327.7773 -13.6966
vt 326.5387 -13.6966
vt 326.5387 0.0000
vt 327.7773 0.0000
vt 327.7773 0.0040
vt 326.5387 0.0040
vt 327.7773 0.0000
vt 326.5387 0.0000
vt 326.5387 0.0040
vt 327.7773 0.0040
vt -14.8841 0.0000
vt -13.6966 0.0000
vt -13.6966 0.0040
vt -14.8841 0.0040
vt -13.6966 0.0000
vt -14.8841 0.0000
vt -14.8841 0.0040
vt -13.6966 0.0040
vt 334.0303 -7.3905
vt 334.0303 -6.3367
vt 335.2099 -6.3367
vt 335.2099 -7.3905
vt 334.0303 -7.3905
vt 335.2099 -7.3905
vt 335.2099 -6.3367
vt 334.0303 -6.3367
vt 334.0303 0.0000
vt 335.2099 0.0000
vt 335.2099 0.0040
vt 334.0303 0.0040
vt 335.2099 0.0000
vt 334.0303 0.0000
vt 334.0303 0.0040
vt 335.2099 0.0040
vt -7.3905 0.0000
vt -6.3367 0.0000
vt -6.3367 0.0040
vt -7.3905 0.0040
vt -6.3367 0.0000
vt -7.3905 0.0000
vt -7.3905 0.0040
vt -6.3367 0.0040
vt 323.5783 -12.4213
vt 323.5783 -11.8332
vt 324.5518 -11.8332
vt 324.5518 -12.4213
vt 323.5783 -12.4213
vt 324.5518 -12.4213
vt 324.5518 -11.8332
vt 323.5783 -11.8332
vt 323.5783 0.0000
vt 324.5518 0.0000
vt 324.5518 0.0040
vt 323.5783 0.0040
vt 324.5518 0.0000
vt 323.5783 0.0000
vt 323.5783 0.0040
vt 324.5518 0.0040
vt -12.4213 0.0000
vt -11.8332 0.0000
vt -11.8332 0.0040
vt -12.4213 0.0040
vt -11.8332 0.0000
vt -12.4213 0.0000
vt -12.4213 0.0040
vt -11.8332 0.0040
vt 331.9548 -16.0200
vt 331.9548 -15.3357
vt 332.5533 -15.3357
vt 332.5533 -16.0200
vt 331.9548 -16.0200
vt 332.5533 -16.0200
vt 332.5533 -15.3357
vt 331.9548 -15.3357
vt 331.9548 0.0000
vt 332.5533 0.0000
vt 332.5533 0.0040
vt 331.9548 0.0040
vt 332.5533 0.0000
vt 331.9548 0.0000
vt 331.9548 0.0040
vt 332.5533 0.0040
vt -16.0200 0.0000
vt -15.3357 0.0000
vt -15.3357 0.0040
vt -16.0200 0.0040
vt -15.3357 0.0000
vt -16.0200 0.0000
vt -16.0200 0.0040
vt -15.3357 0.0040
vt 317.1901 5.4359
vt 317.1901 6.1902
vt 317.7873 6.1902
vt 317.7873 5.4359
vt 317.1901 5.4359
vt 317.7873 5.4359
vt 317.7873 6.1902
vt 317.1901 6.1902
vt 317.1901 0.0000
vt 317.7873 0.0000
vt 317.7873 0.0040
vt 317.1901 0.0040
vt 317.7873 0.0000
vt 317.1901 0.0000
vt 317.1901 0.0040
vt 317.7873 0.0040
vt 5.4359 0.0000
vt 6.1902 0.0000
vt 6.1902 0.0040
vt 5.4359 0.0040
vt 6.1902 0.0000
vt 5.4359 0.0000
vt 5.4359 0.0040
vt 6.1902 0.0040
vt 316.1068 15.4820
vt 316.1068 16.6074
vt 317.2463 16.6074
vt 317.2463 15.4820
vt 316.1068 15.4820
vt 317.2463 15.4820
vt 317.2463 16.6074
vt 316.1068 16.6074
vt 316.1068 0.0000
vt 317.2463 0.0000
vt 317.2463 0.0040
vt 316.1068 0.0040
vt 317.2463 0.0000
vt 316.1068 0.0000
vt 316.1068 0.0040
vt 317.2463 0.0040
vt 15.4820 0.0000
vt 16.6074 0.0000
vt 16.6074 0.0040
vt 15.4820 0.0040
vt 16.6074 0.0000
vt 15.4820 0.0000
vt 15.4820 0.0040
vt 16.6074 0.0040
vt 333.7624 1.7763
vt 333.7624 2.6082
vt 334.4113 2.6082
vt 334.4113 1.7763
vt 333.7624 1.7763
vt 334.4113 1.7763
vt 334.4113 2.6082
vt 333.7624 2.6082
vt 333.7624 0.0000
vt 334.4113 0.0000
vt 334.4113 0.0040
vt 333.7624 0.0040
vt 334.4113 0.0000
vt 333.7624 0.0000
vt 333.7624 0.0040
vt 334.4113 0.0040
vt 1.7763 0.0000
vt 2.6082 0.0000
vt 2.6082 0.0040
vt 1.7763 0.0040
vt 2.6082 0.0000
vt 1.7763 0.0000
vt 1.7763 0.0040
vt 2.6082 0.0040
vt 325.4897 -11.2875
vt 325.4897 -10.0956
vt 326.6188 -10.0956
vt 326.6188 -11.2875
vt 325.4897 -11.2875
vt 326.6188 -11.2875
vt 326.6188 -10.0956
vt 325.4897 -10.0956
vt 325.4897 0.0000
vt 326.6188 0.0000
vt 326.6188 0.0040
vt 325.4897 0.0040
vt 326.6188 0.0000
vt 325.4897 0.0000
vt 325.4897 0.0040
vt 326.6188 0.0040
vt -11.2875 0.0000
vt -10.0956 0.0000
vt -10.0956 0.0040
vt -11.2875 0.0040
vt -10.0956 0.0000
vt -11.2875 0.0000
vt -11.2875 0.0040
vt -10.0956 0.0040
vt 312.4426 1.8094
vt 312.4426 2.4126
vt 312.9090 2.4126
vt 312.9090 1.8094
vt 312.4426 1.8094
vt 312.9090 1.8094
vt 312.9090 2.4126
vt 312.4426 2.4126
vt 312.4426 0.0000
vt 312.9090 0.0000
vt 312.9090 0.0040
vt 312.4426 0.0040
vt 312.9090 0.0000
vt 312.4426 0.0000
vt 312.4426 0.0040
vt 312.9090 0.0040
vt 1.8094 0.0000
vt 2.4126 0.0000
vt 2.4126 0.0040
vt 1.8094 0.0040
vt 2.4126 0.0000
vt 1.8094 0.0000
vt 1.8094 0.0040
vt 2.4126 0.0040
usemtl concrete_floor
f 1/1 2/2 3/3 4/4
f 5/5 6/6 7/7 8/8
f 9/9 10/10 11/11 12/12
f 13/13 14/14 15/15 16/16
f 17/17 18/18 19/19 20/20
f 21/21 22/22 23/23 24/24
usemtl concrete_dark
f 25/25 26/26 27/27 28/28
f 29/29 30/30 31/31 32/32
f 33/33 34/34 35/35 36/36
f 37/37 38/38 39/39 40/40
f 41/41 42/42 43/43 44/44
f 45/45 46/46 47/47 48/48
usemtl brick
f 49/49 50/50 51/51 52/52
f 53/53 54/54 55/55 56/56
f 57/57 58/58 59/59 60/60
f 61/61 62/62 63/63 64/64
f 65/65 66/66 67/67 68/68
f 69/69 70/70 71/71 72/72
f 73/73 74/74 75/75 76/76
f 77/77 78/78 79/79 80/80
f 81/81 82/82 83/83 84/84
f 85/85 86/86 87/87 88/88
f 89/89 90/90 91/91 92/92
f 93/93 94/94 95/95 96/96
f 97/97 98/98 99/99 100/100
f 101/101 102/102 103/103 104/104
f 105/105 106/106 107/107 108/108
f 109/109 110/110 111/111 112/112
f 113/113 114/114 115/115 116/116
f 117/117 118/118 119/119 120/120
f 121/121 122/122 123/123 124/124
f 125/125 126/126 127/127 128/128
f 129/129 130/130 131/131 132/132
f 133/133 134/134 135/135 136/136
f 137/137 138/138 139/139 140/140
f 141/141 142/142 143/143 144/144
usemtl concrete_dark
f 145/145 146/146 147/147 148/148
f 149/149 150/150 151/151 152/152
f 153/153 154/154 155/155 156/156
f 157/157 158/158 159/159 160/160
f 161/161 162/162 163/163 164/164
f 165/165 166/166 167/167 168/168
f 169/169 170/170 171/171 172/172
f 173/173 174/174 175/175 176/176
f 177/177 178/178 179/179 180/180
f 181/181 182/182 183/183 184/184
f 185/185 186/186 187/187 188/188
f 189/189 190/190 191/191 192/192
f 193/193 194/194 195/195 196/196
f 197/197 198/198 199/199 200/200
f 201/201 202/202 203/203 204/204
f 205/205 206/206 207/207 208/208
f 209/209 210/210 211/211 212/212
f 213/213 214/214 215/215 216/216
f 217/217 218/218 219/219 220/220
f 221/221 222/222 223/223 224/224
f 225/225 226/226 227/227 228/228
f 229/229 230/230 231/231 232/232
f 233/233 234/234 235/235 236/236
f 237/237 238/238 239/239 240/240
f 241/241 242/242 243/243 244/244
f 245/245 246/246 247/247 248/248
f 249/249 250/250 251/251 252/252
f 253/253 254/254 255/255 256/256
f 257/257 258/258 259/259 260/260
f 261/261 262/262 263/263 264/264
f 265/265 266/266 267/267 268/268
f 269/269 270/270 271/271 272/272
f 273/273 274/274 275/275 276/276
f 277/277 278/278 279/279 280/280
f 281/281 282/282 283/283 284/284
f 285/285 286/286 287/287 288/288
f 289/289 290/290 291/291 292/292
f 293/293 294/294 295/295 296/296
f 297/297 298/298 299/299 300/300
f 301/301 302/302 303/303 304/304
f 305/305 306/306 307/307 308/308
f 309/309 310/310 311/311 312/312
f 313/313 314/314 315/315 316/316
f 317/317 318/318 319/319 320/320
f 321/321 322/322 323/323 324/324
f 325/325 326/326 327/327 328/328
f 329/329 330/330 331/331 332/332
f 333/333 334/334 335/335 336/336
f 337/337 338/338 339/339 340/340
f 341/341 342/342 343/343 344/344
f 345/345 346/346 347/347 348/348
f 349/349 350/350 351/351 352/352
f 353/353 354/354 355/355 356/356
f 357/357 358/358 359/359 360/360
f 361/361 362/362 363/363 364/364
f 365/365 366/366 367/367 368/368
f 369/369 370/370 371/371 372/372
f 373/373 374/374 375/375 376/376
f 377/377 378/378 379/379 380/380
f 381/381 382/382 383/383 384/384
f 385/385 386/386 387/387 388/388
f 389/389 390/390 391/391 392/392
f 393/393 394/394 395/395 396/396
f 397/397 398/398 399/399 400/400
f 401/401 402/402 403/403 404/404
f 405/405 406/406 407/407 408/408
f 409/409 410/410 411/411 412/412
f 413/413 414/414 415/415 416/416
f 417/417 418/418 419/419 420/420
f 421/421 422/422 423/423 424/424
f 425/425 426/426 427/427 428/428
f 429/429 430/430 431/431 432/432
f 433/433 434/434 435/435 436/436
f 437/437 438/438 439/439 440/440
f 441/441 442/442 443/443 444/444
f 445/445 446/446 447/447 448/448
f 449/449 450/450 451/451 452/452
f 453/453 454/454 455/455 456/456
f 457/457 458/458 459/459 460/460
f 461/461 462/462 463/463 464/464
f 465/465 466/466 467/467 468/468
f 469/469 470/470 471/471 472/472
f 473/473 474/474 475/475 476/476
f 477/477 478/478 479/479 480/480
f 481/481 482/482 483/483 484/484
f 485/485 486/486 487/487 488/488
f 489/489 490/490 491/491 492/492
f 493/493 494/494 495/495 496/496
f 497/497 498/498 499/499 500/500
f 501/501 502/502 503/503 504/504
f 505/505 506/506 507/507 508/508
f 509/509 510/510 511/511 512/512
f 513/513 514/514 515/515 516/516
f 517/517 518/518 519/519 520/520
f 521/521 522/522 523/523 524/524
f 525/525 526/526 527/527 528/528
f 529/529 530/530 531/531 532/532
f 533/533 534/534 535/535 536/536
f 537/537 538/538 539/539 540/540
f 541/541 542/542 543/543 544/544
f 545/545 546/546 547/547 548/548
f 549/549 550/550 551/551 552/552
f 553/553 554/554 555/555 556/556
f 557/557 558/558 559/559 560/560
f 561/561 562/562 563/563 564/564
f 565/565 566/566 567/567 568/568
f 569/569 570/570 571/571 572/572
f 573/573 574/574 575/575 576/576
f 577/577 578/578 579/579 580/580
f 581/581 582/582 583/583 584/584
f 585/585 586/586 587/587 588/588
f 589/589 590/590 591/591 592/592
f 593/593 594/594 595/595 596/596
f 597/597 598/598 599/599 600/600
f 601/601 602/602 603/603 604/604
f 605/605 606/606 607/607 608/608
f 609/609 610/610 611/611 612/612
f 613/613 614/614 615/615 616/616
f 617/617 618/618 619/619 620/620
f 621/621 622/622 623/623 624/624
f 625/625 626/626 627/627 628/628
f 629/629 630/630 631/631 632/632
f 633/633 634/634 635/635 636/636
f 637/637 638/638 639/639 640/640
f 641/641 642/642 643/643 644/644
f 645/645 646/646 647/647 648/648
f 649/649 650/650 651/651 652/652
f 653/653 654/654 655/655 656/656
f 657/657 658/658 659/659 660/660
f 661/661 662/662 663/663 664/664
f 665/665 666/666 667/667 668/668
f 669/669 670/670 671/671 672/672
f 673/673 674/674 675/675 676/676
f 677/677 678/678 679/679 680/680
f 681/681 682/682 683/683 684/684
f 685/685 686/686 687/687 688/688
f 689/689 690/690 691/691 692/692
f 693/693 694/694 695/695 696/696
f 697/697 698/698 699/699 700/700
f 701/701 702/702 703/703 704/704
f 705/705 706/706 707/707 708/708
f 709/709 710/710 711/711 712/712
f 713/713 714/714 715/715 716/716
f 717/717 718/718 719/719 720/720
f 721/721 722/722 723/723 724/724
f 725/725 726/726 727/727 728/728
f 729/729 730/730 731/731 732/732
f 733/733 734/734 735/735 736/736
f 737/737 738/738 739/739 740/740
f 741/741 742/742 743/743 744/744
f 745/745 746/746 747/747 748/748
f 749/749 750/750 751/751 752/752
f 753/753 754/754 755/755 756/756
f 757/757 758/758 759/759 760/760
f 761/761 762/762 763/763 764/764
f 765/765 766/766 767/767 768/768
f 769/769 770/770 771/771 772/772
f 773/773 774/774 775/775 776/776
f 777/777 778/778 779/779 780/780
f 781/781 782/782 783/783 784/784
f 785/785 786/786 787/787 788/788
f 789/789 790/790 791/791 792/792
f 793/793 794/794 795/795 796/796
f 797/797 798/798 799/799 800/800
f 801/801 802/802 803/803 804/804
f 805/805 806/806 807/807 808/808
f 809/809 810/810 811/811 812/812
f 813/813 814/814 815/815 816/816
f 817/817 818/818 819/819 820/820
f 821/821 822/822 823/823 824/824
f 825/825 826/826 827/827 828/828
f 829/829 830/830 831/831 832/832
f 833/833 834/834 835/835 836/836
f 837/837 838/838 839/839 840/840
f 841/841 842/842 843/843 844/844
f 845/845 846/846 847/847 848/848
f 849/849 850/850 851/851 852/852
f 853/853 854/854 855/855 856/856
f 857/857 858/858 859/859 860/860
f 861/861 862/862 863/863 864/864
f 865/865 866/866 867/867 868/868
f 869/869 870/870 871/871 872/872
f 873/873 874/874 875/875 876/876
f 877/877 878/878 879/879 880/880
f 881/881 882/882 883/883 884/884
f 885/885 886/886 887/887 888/888
f 889/889 890/890 891/891 892/892
f 893/893 894/894 895/895 896/896
f 897/897 898/898 899/899 900/900
f 901/901 902/902 903/903 904/904
f 905/905 906/906 907/907 908/908
f 909/909 910/910 911/911 912/912
f 913/913 914/914 915/915 916/916
f 917/917 918/918 919/919 920/920
f 921/921 922/922 923/923 924/924
f 925/925 926/926 927/927 928/928
f 929/929 930/930 931/931 932/932
f 933/933 934/934 935/935 936/936
f 937/937 938/938 939/939 940/940
f 941/941 942/942 943/943 944/944
f 945/945 946/946 947/947 948/948
f 949/949 950/950 951/951 952/952
f 953/953 954/954 955/955 956/956
f 957/957 958/958 959/959 960/960
f 961/961 962/962 963/963 964/964
f 965/965 966/966 967/967 968/968
f 969/969 970/970 971/971 972/972
f 973/973 974/974 975/975 976/976
f 977/977 978/978 979/979 980/980
f 981/981 982/982 983/983 984/984
f 985/985 986/986 987/987 988/988
f 989/989 990/990 991/991 992/992
f 993/993 994/994 995/995 996/996
f 997/997 998/998 999/999 1000/1000
f 1001/1001 1002/1002 1003/1003 1004/1004
f 1005/1005 1006/1006 1007/1007 1008/1008
f 1009/1009 1010/1010 1011/1011 1012/1012
f 1013/1013 1014/1014 1015/1015 1016/1016
f 1017/1017 1018/1018 1019/1019 1020/1020
f 1021/1021 1022/1022 1023/1023 1024/1024
f 1025/1025 1026/1026 1027/1027 1028/1028
f 1029/1029 1030/1030 1031/1031 1032/1032
f 1033/1033 1034/1034 1035/1035 1036/1036
f 1037/1037 1038/1038 1039/1039 1040/1040
f 1041/1041 1042/1042 1043/1043 1044/1044
f 1045/1045 1046/1046 1047/1047 1048/1048
f 1049/1049 1050/1050 1051/1051 1052/1052
f 1053/1053 1054/1054 1055/1055 1056/1056
f 1057/1057 1058/1058 1059/1059 1060/1060
f 1061/1061 1062/1062 1063/1063 1064/1064
f 1065/1065 1066/1066 1067/1067 1068/1068
f 1069/1069 1070/1070 1071/1071 1072/1072
f 1073/1073 1074/1074 1075/1075 1076/1076
f 1077/1077 1078/1078 1079/1079 1080/1080
f 1081/1081 1082/1082 1083/1083 1084/1084
f 1085/1085 1086/1086 1087/1087 1088/1088
f 1089/1089 1090/1090 1091/1091 1092/1092
f 1093/1093 1094/1094 1095/1095 1096/1096
f 1097/1097 1098/1098 1099/1099 1100/1100
f 1101/1101 1102/1102 1103/1103 1104/1104
f 1105/1105 1106/1106 1107/1107 1108/1108
f 1109/1109 1110/1110 1111/1111 1112/1112
f 1113/1113 1114/1114 1115/1115 1116/1116
f 1117/1117 1118/1118 1119/1119 1120/1120
f 1121/1121 1122/1122 1123/1123 1124/1124
f 1125/1125 1126/1126 1127/1127 1128/1128
f 1129/1129 1130/1130 1131/1131 1132/1132
f 1133/1133 1134/1134 1135/1135 1136/1136
f 1137/1137 1138/1138 1139/1139 1140/1140
f 1141/1141 1142/1142 1143/1143 1144/1144
f 1145/1145 1146/1146 1147/1147 1148/1148
f 1149/1149 1150/1150 1151/1151 1152/1152
f 1153/1153 1154/1154 1155/1155 1156/1156
f 1157/1157 1158/1158 1159/1159 1160/1160
f 1161/1161 1162/1162 1163/1163 1164/1164
f 1165/1165 1166/1166 1167/1167 1168/1168
f 1169/1169 1170/1170 1171/1171 1172/1172
f 1173/1173 1174/1174 1175/1175 1176/1176
f 1177/1177 1178/1178 1179/1179 1180/1180
f 1181/1181 1182/1182 1183/1183 1184/1184
f 1185/1185 1186/1186 1187/1187 1188/1188
f 1189/1189 1190/1190 1191/1191 1192/1192
f 1193/1193 1194/1194 1195/1195 1196/1196
f 1197/1197 1198/1198 1199/1199 1200/1200
f 1201/1201 1202/1202 1203/1203 1204/1204
f 1205/1205 1206/1206 1207/1207 1208/1208
f 1209/1209 1210/1210 1211/1211 1212/1212
f 1213/1213 1214/1214 1215/1215 1216/1216
f 1217/1217 1218/1218 1219/1219 1220/1220
f 1221/1221 1222/1222 1223/1223 1224/1224
f 1225/1225 1226/1226 1227/1227 1228/1228
f 1229/1229 1230/1230 1231/1231 1232/1232
f 1233/1233 1234/1234 1235/1235 1236/1236
f 1237/1237 1238/1238 1239/1239 1240/1240
f 1241/1241 1242/1242 1243/1243 1244/1244
f 1245/1245 1246/1246 1247/1247 1248/1248
f 1249/1249 1250/1250 1251/1251 1252/1252
f 1253/1253 1254/1254 1255/1255 1256/1256
f 1257/1257 1258/1258 1259/1259 1260/1260
f 1261/1261 1262/1262 1263/1263 1264/1264
f 1265/1265 1266/1266 1267/1267 1268/1268
f 1269/1269 1270/1270 1271/1271 1272/1272
