# RoastEngine Backrooms level
mtllib backrooms.mtl
v 814.4500 0.0000 -41.8000
v 814.4500 0.0000 -39.2000
v 817.0500 0.0000 -39.2000
v 817.0500 0.0000 -41.8000
v 814.4500 3.0000 -41.8000
v 817.0500 3.0000 -41.8000
v 817.0500 3.0000 -39.2000
v 814.4500 3.0000 -39.2000
v 814.4500 0.0000 -41.8000
v 817.0500 0.0000 -41.8000
v 817.0500 3.0000 -41.8000
v 814.4500 3.0000 -41.8000
v 817.0500 0.0000 -39.2000
v 814.4500 0.0000 -39.2000
v 814.4500 3.0000 -39.2000
v 817.0500 3.0000 -39.2000
v 817.0500 0.0000 -41.8000
v 817.0500 0.0000 -39.2000
v 817.0500 3.0000 -39.2000
v 817.0500 3.0000 -41.8000
v 814.4500 0.0000 -39.2000
v 814.4500 0.0000 -41.8000
v 814.4500 3.0000 -41.8000
v 814.4500 3.0000 -39.2000
v 809.9500 0.0000 -39.5500
v 809.9500 0.0000 -36.9500
v 812.5500 0.0000 -36.9500
v 812.5500 0.0000 -39.5500
v 809.9500 3.0000 -39.5500
v 812.5500 3.0000 -39.5500
v 812.5500 3.0000 -36.9500
v 809.9500 3.0000 -36.9500
v 809.9500 0.0000 -39.5500
v 812.5500 0.0000 -39.5500
v 812.5500 3.0000 -39.5500
v 809.9500 3.0000 -39.5500
v 812.5500 0.0000 -36.9500
v 809.9500 0.0000 -36.9500
v 809.9500 3.0000 -36.9500
v 812.5500 3.0000 -36.9500
v 812.5500 0.0000 -39.5500
v 812.5500 0.0000 -36.9500
v 812.5500 3.0000 -36.9500
v 812.5500 3.0000 -39.5500
v 809.9500 0.0000 -36.9500
v 809.9500 0.0000 -39.5500
v 809.9500 3.0000 -39.5500
v 809.9500 3.0000 -36.9500
v 814.4500 0.0000 -39.5500
v 814.4500 0.0000 -36.9500
v 817.0500 0.0000 -36.9500
v 817.0500 0.0000 -39.5500
v 814.4500 3.0000 -39.5500
v 817.0500 3.0000 -39.5500
v 817.0500 3.0000 -36.9500
v 814.4500 3.0000 -36.9500
v 814.4500 0.0000 -39.5500
v 817.0500 0.0000 -39.5500
v 817.0500 3.0000 -39.5500
v 814.4500 3.0000 -39.5500
v 817.0500 0.0000 -36.9500
v 814.4500 0.0000 -36.9500
v 814.4500 3.0000 -36.9500
v 817.0500 3.0000 -36.9500
v 817.0500 0.0000 -39.5500
v 817.0500 0.0000 -36.9500
v 817.0500 3.0000 -36.9500
v 817.0500 3.0000 -39.5500
v 814.4500 0.0000 -36.9500
v 814.4500 0.0000 -39.5500
v 814.4500 3.0000 -39.5500
v 814.4500 3.0000 -36.9500
v 818.9500 0.0000 -39.5500
v 818.9500 0.0000 -36.9500
v 821.5500 0.0000 -36.9500
v 821.5500 0.0000 -39.5500
v 818.9500 3.0000 -39.5500
v 821.5500 3.0000 -39.5500
v 821.5500 3.0000 -36.9500
v 818.9500 3.0000 -36.9500
v 818.9500 0.0000 -39.5500
v 821.5500 0.0000 -39.5500
v 821.5500 3.0000 -39.5500
v 818.9500 3.0000 -39.5500
v 821.5500 0.0000 -36.9500
v 818.9500 0.0000 -36.9500
v 818.9500 3.0000 -36.9500
v 821.5500 3.0000 -36.9500
v 821.5500 0.0000 -39.5500
v 821.5500 0.0000 -36.9500
v 821.5500 3.0000 -36.9500
v 821.5500 3.0000 -39.5500
v 818.9500 0.0000 -36.9500
v 818.9500 0.0000 -39.5500
v 818.9500 3.0000 -39.5500
v 818.9500 3.0000 -36.9500
v 823.4500 0.0000 -39.5500
v 823.4500 0.0000 -36.9500
v 826.0500 0.0000 -36.9500
v 826.0500 0.0000 -39.5500
v 823.4500 3.0000 -39.5500
v 826.0500 3.0000 -39.5500
v 826.0500 3.0000 -36.9500
v 823.4500 3.0000 -36.9500
v 823.4500 0.0000 -39.5500
v 826.0500 0.0000 -39.5500
v 826.0500 3.0000 -39.5500
v 823.4500 3.0000 -39.5500
v 826.0500 0.0000 -36.9500
v 823.4500 0.0000 -36.9500
v 823.4500 3.0000 -36.9500
v 826.0500 3.0000 -36.9500
v 826.0500 0.0000 -39.5500
v 826.0500 0.0000 -36.9500
v 826.0500 3.0000 -36.9500
v 826.0500 3.0000 -39.5500
v 823.4500 0.0000 -36.9500
v 823.4500 0.0000 -39.5500
v 823.4500 3.0000 -39.5500
v 823.4500 3.0000 -36.9500
v 827.9500 0.0000 -39.5500
v 827.9500 0.0000 -36.9500
v 830.5500 0.0000 -36.9500
v 830.5500 0.0000 -39.5500
v 827.9500 3.0000 -39.5500
v 830.5500 3.0000 -39.5500
v 830.5500 3.0000 -36.9500
v 827.9500 3.0000 -36.9500
v 827.9500 0.0000 -39.5500
v 830.5500 0.0000 -39.5500
v 830.5500 3.0000 -39.5500
v 827.9500 3.0000 -39.5500
v 830.5500 0.0000 -36.9500
v 827.9500 0.0000 -36.9500
v 827.9500 3.0000 -36.9500
v 830.5500 3.0000 -36.9500
v 830.5500 0.0000 -39.5500
v 830.5500 0.0000 -36.9500
v 830.5500 3.0000 -36.9500
v 830.5500 3.0000 -39.5500
v 827.9500 0.0000 -36.9500
v 827.9500 0.0000 -39.5500
v 827.9500 3.0000 -39.5500
v 827.9500 3.0000 -36.9500
v 830.2000 0.0000 -39.5500
v 830.2000 0.0000 -36.9500
v 832.8000 0.0000 -36.9500
v 832.8000 0.0000 -39.5500
v 830.2000 3.0000 -39.5500
v 832.8000 3.0000 -39.5500
v 832.8000 3.0000 -36.9500
v 830.2000 3.0000 -36.9500
v 830.2000 0.0000 -39.5500
v 832.8000 0.0000 -39.5500
v 832.8000 3.0000 -39.5500
v 830.2000 3.0000 -39.5500
v 832.8000 0.0000 -36.9500
v 830.2000 0.0000 -36.9500
v 830.2000 3.0000 -36.9500
v 832.8000 3.0000 -36.9500
v 832.8000 0.0000 -39.5500
v 832.8000 0.0000 -36.9500
v 832.8000 3.0000 -36.9500
v 832.8000 3.0000 -39.5500
v 830.2000 0.0000 -36.9500
v 830.2000 0.0000 -39.5500
v 830.2000 3.0000 -39.5500
v 830.2000 3.0000 -36.9500
v 832.4500 0.0000 -39.5500
v 832.4500 0.0000 -36.9500
v 835.0500 0.0000 -36.9500
v 835.0500 0.0000 -39.5500
v 832.4500 3.0000 -39.5500
v 835.0500 3.0000 -39.5500
v 835.0500 3.0000 -36.9500
v 832.4500 3.0000 -36.9500
v 832.4500 0.0000 -39.5500
v 835.0500 0.0000 -39.5500
v 835.0500 3.0000 -39.5500
v 832.4500 3.0000 -39.5500
v 835.0500 0.0000 -36.9500
v 832.4500 0.0000 -36.9500
v 832.4500 3.0000 -36.9500
v 835.0500 3.0000 -36.9500
v 835.0500 0.0000 -39.5500
v 835.0500 0.0000 -36.9500
v 835.0500 3.0000 -36.9500
v 835.0500 3.0000 -39.5500
v 832.4500 0.0000 -36.9500
v 832.4500 0.0000 -39.5500
v 832.4500 3.0000 -39.5500
v 832.4500 3.0000 -36.9500
v 834.7000 0.0000 -39.5500
v 834.7000 0.0000 -36.9500
v 837.3000 0.0000 -36.9500
v 837.3000 0.0000 -39.5500
v 834.7000 3.0000 -39.5500
v 837.3000 3.0000 -39.5500
v 837.3000 3.0000 -36.9500
v 834.7000 3.0000 -36.9500
v 834.7000 0.0000 -39.5500
v 837.3000 0.0000 -39.5500
v 837.3000 3.0000 -39.5500
v 834.7000 3.0000 -39.5500
v 837.3000 0.0000 -36.9500
v 834.7000 0.0000 -36.9500
v 834.7000 3.0000 -36.9500
v 837.3000 3.0000 -36.9500
v 837.3000 0.0000 -39.5500
v 837.3000 0.0000 -36.9500
v 837.3000 3.0000 -36.9500
v 837.3000 3.0000 -39.5500
v 834.7000 0.0000 -36.9500
v 834.7000 0.0000 -39.5500
v 834.7000 3.0000 -39.5500
v 834.7000 3.0000 -36.9500
v 814.4500 0.0000 -37.3000
v 814.4500 0.0000 -34.7000
v 817.0500 0.0000 -34.7000
v 817.0500 0.0000 -37.3000
v 814.4500 3.0000 -37.3000
v 817.0500 3.0000 -37.3000
v 817.0500 3.0000 -34.7000
v 814.4500 3.0000 -34.7000
v 814.4500 0.0000 -37.3000
v 817.0500 0.0000 -37.3000
v 817.0500 3.0000 -37.3000
v 814.4500 3.0000 -37.3000
v 817.0500 0.0000 -34.7000
v 814.4500 0.0000 -34.7000
v 814.4500 3.0000 -34.7000
v 817.0500 3.0000 -34.7000
v 817.0500 0.0000 -37.3000
v 817.0500 0.0000 -34.7000
v 817.0500 3.0000 -34.7000
v 817.0500 3.0000 -37.3000
v 814.4500 0.0000 -34.7000
v 814.4500 0.0000 -37.3000
v 814.4500 3.0000 -37.3000
v 814.4500 3.0000 -34.7000
v 818.9500 0.0000 -37.3000
v 818.9500 0.0000 -34.7000
v 821.5500 0.0000 -34.7000
v 821.5500 0.0000 -37.3000
v 818.9500 3.0000 -37.3000
v 821.5500 3.0000 -37.3000
v 821.5500 3.0000 -34.7000
v 818.9500 3.0000 -34.7000
v 818.9500 0.0000 -37.3000
v 821.5500 0.0000 -37.3000
v 821.5500 3.0000 -37.3000
v 818.9500 3.0000 -37.3000
v 821.5500 0.0000 -34.7000
v 818.9500 0.0000 -34.7000
v 818.9500 3.0000 -34.7000
v 821.5500 3.0000 -34.7000
v 821.5500 0.0000 -37.3000
v 821.5500 0.0000 -34.7000
v 821.5500 3.0000 -34.7000
v 821.5500 3.0000 -37.3000
v 818.9500 0.0000 -34.7000
v 818.9500 0.0000 -37.3000
v 818.9500 3.0000 -37.3000
v 818.9500 3.0000 -34.7000
v 809.9500 0.0000 -35.0500
v 809.9500 0.0000 -32.4500
v 812.5500 0.0000 -32.4500
v 812.5500 0.0000 -35.0500
v 809.9500 3.0000 -35.0500
v 812.5500 3.0000 -35.0500
v 812.5500 3.0000 -32.4500
v 809.9500 3.0000 -32.4500
v 809.9500 0.0000 -35.0500
v 812.5500 0.0000 -35.0500
v 812.5500 3.0000 -35.0500
v 809.9500 3.0000 -35.0500
v 812.5500 0.0000 -32.4500
v 809.9500 0.0000 -32.4500
v 809.9500 3.0000 -32.4500
v 812.5500 3.0000 -32.4500
v 812.5500 0.0000 -35.0500
v 812.5500 0.0000 -32.4500
v 812.5500 3.0000 -32.4500
v 812.5500 3.0000 -35.0500
v 809.9500 0.0000 -32.4500
v 809.9500 0.0000 -35.0500
v 809.9500 3.0000 -35.0500
v 809.9500 3.0000 -32.4500
v 814.4500 0.0000 -35.0500
v 814.4500 0.0000 -32.4500
v 817.0500 0.0000 -32.4500
v 817.0500 0.0000 -35.0500
v 814.4500 3.0000 -35.0500
v 817.0500 3.0000 -35.0500
v 817.0500 3.0000 -32.4500
v 814.4500 3.0000 -32.4500
v 814.4500 0.0000 -35.0500
v 817.0500 0.0000 -35.0500
v 817.0500 3.0000 -35.0500
v 814.4500 3.0000 -35.0500
v 817.0500 0.0000 -32.4500
v 814.4500 0.0000 -32.4500
v 814.4500 3.0000 -32.4500
v 817.0500 3.0000 -32.4500
v 817.0500 0.0000 -35.0500
v 817.0500 0.0000 -32.4500
v 817.0500 3.0000 -32.4500
v 817.0500 3.0000 -35.0500
v 814.4500 0.0000 -32.4500
v 814.4500 0.0000 -35.0500
v 814.4500 3.0000 -35.0500
v 814.4500 3.0000 -32.4500
v 818.9500 0.0000 -35.0500
v 818.9500 0.0000 -32.4500
v 821.5500 0.0000 -32.4500
v 821.5500 0.0000 -35.0500
v 818.9500 3.0000 -35.0500
v 821.5500 3.0000 -35.0500
v 821.5500 3.0000 -32.4500
v 818.9500 3.0000 -32.4500
v 818.9500 0.0000 -35.0500
v 821.5500 0.0000 -35.0500
v 821.5500 3.0000 -35.0500
v 818.9500 3.0000 -35.0500
v 821.5500 0.0000 -32.4500
v 818.9500 0.0000 -32.4500
v 818.9500 3.0000 -32.4500
v 821.5500 3.0000 -32.4500
v 821.5500 0.0000 -35.0500
v 821.5500 0.0000 -32.4500
v 821.5500 3.0000 -32.4500
v 821.5500 3.0000 -35.0500
v 818.9500 0.0000 -32.4500
v 818.9500 0.0000 -35.0500
v 818.9500 3.0000 -35.0500
v 818.9500 3.0000 -32.4500
v 821.2000 0.0000 -35.0500
v 821.2000 0.0000 -32.4500
v 823.8000 0.0000 -32.4500
v 823.8000 0.0000 -35.0500
v 821.2000 3.0000 -35.0500
v 823.8000 3.0000 -35.0500
v 823.8000 3.0000 -32.4500
v 821.2000 3.0000 -32.4500
v 821.2000 0.0000 -35.0500
v 823.8000 0.0000 -35.0500
v 823.8000 3.0000 -35.0500
v 821.2000 3.0000 -35.0500
v 823.8000 0.0000 -32.4500
v 821.2000 0.0000 -32.4500
v 821.2000 3.0000 -32.4500
v 823.8000 3.0000 -32.4500
v 823.8000 0.0000 -35.0500
v 823.8000 0.0000 -32.4500
v 823.8000 3.0000 -32.4500
v 823.8000 3.0000 -35.0500
v 821.2000 0.0000 -32.4500
v 821.2000 0.0000 -35.0500
v 821.2000 3.0000 -35.0500
v 821.2000 3.0000 -32.4500
v 823.4500 0.0000 -35.0500
v 823.4500 0.0000 -32.4500
v 826.0500 0.0000 -32.4500
v 826.0500 0.0000 -35.0500
v 823.4500 3.0000 -35.0500
v 826.0500 3.0000 -35.0500
v 826.0500 3.0000 -32.4500
v 823.4500 3.0000 -32.4500
v 823.4500 0.0000 -35.0500
v 826.0500 0.0000 -35.0500
v 826.0500 3.0000 -35.0500
v 823.4500 3.0000 -35.0500
v 826.0500 0.0000 -32.4500
v 823.4500 0.0000 -32.4500
v 823.4500 3.0000 -32.4500
v 826.0500 3.0000 -32.4500
v 826.0500 0.0000 -35.0500
v 826.0500 0.0000 -32.4500
v 826.0500 3.0000 -32.4500
v 826.0500 3.0000 -35.0500
v 823.4500 0.0000 -32.4500
v 823.4500 0.0000 -35.0500
v 823.4500 3.0000 -35.0500
v 823.4500 3.0000 -32.4500
v 825.7000 0.0000 -35.0500
v 825.7000 0.0000 -32.4500
v 828.3000 0.0000 -32.4500
v 828.3000 0.0000 -35.0500
v 825.7000 3.0000 -35.0500
v 828.3000 3.0000 -35.0500
v 828.3000 3.0000 -32.4500
v 825.7000 3.0000 -32.4500
v 825.7000 0.0000 -35.0500
v 828.3000 0.0000 -35.0500
v 828.3000 3.0000 -35.0500
v 825.7000 3.0000 -35.0500
v 828.3000 0.0000 -32.4500
v 825.7000 0.0000 -32.4500
v 825.7000 3.0000 -32.4500
v 828.3000 3.0000 -32.4500
v 828.3000 0.0000 -35.0500
v 828.3000 0.0000 -32.4500
v 828.3000 3.0000 -32.4500
v 828.3000 3.0000 -35.0500
v 825.7000 0.0000 -32.4500
v 825.7000 0.0000 -35.0500
v 825.7000 3.0000 -35.0500
v 825.7000 3.0000 -32.4500
v 827.9500 0.0000 -35.0500
v 827.9500 0.0000 -32.4500
v 830.5500 0.0000 -32.4500
v 830.5500 0.0000 -35.0500
v 827.9500 3.0000 -35.0500
v 830.5500 3.0000 -35.0500
v 830.5500 3.0000 -32.4500
v 827.9500 3.0000 -32.4500
v 827.9500 0.0000 -35.0500
v 830.5500 0.0000 -35.0500
v 830.5500 3.0000 -35.0500
v 827.9500 3.0000 -35.0500
v 830.5500 0.0000 -32.4500
v 827.9500 0.0000 -32.4500
v 827.9500 3.0000 -32.4500
v 830.5500 3.0000 -32.4500
v 830.5500 0.0000 -35.0500
v 830.5500 0.0000 -32.4500
v 830.5500 3.0000 -32.4500
v 830.5500 3.0000 -35.0500
v 827.9500 0.0000 -32.4500
v 827.9500 0.0000 -35.0500
v 827.9500 3.0000 -35.0500
v 827.9500 3.0000 -32.4500
v 830.2000 0.0000 -35.0500
v 830.2000 0.0000 -32.4500
v 832.8000 0.0000 -32.4500
v 832.8000 0.0000 -35.0500
v 830.2000 3.0000 -35.0500
v 832.8000 3.0000 -35.0500
v 832.8000 3.0000 -32.4500
v 830.2000 3.0000 -32.4500
v 830.2000 0.0000 -35.0500
v 832.8000 0.0000 -35.0500
v 832.8000 3.0000 -35.0500
v 830.2000 3.0000 -35.0500
v 832.8000 0.0000 -32.4500
v 830.2000 0.0000 -32.4500
v 830.2000 3.0000 -32.4500
v 832.8000 3.0000 -32.4500
v 832.8000 0.0000 -35.0500
v 832.8000 0.0000 -32.4500
v 832.8000 3.0000 -32.4500
v 832.8000 3.0000 -35.0500
v 830.2000 0.0000 -32.4500
v 830.2000 0.0000 -35.0500
v 830.2000 3.0000 -35.0500
v 830.2000 3.0000 -32.4500
v 832.4500 0.0000 -35.0500
v 832.4500 0.0000 -32.4500
v 835.0500 0.0000 -32.4500
v 835.0500 0.0000 -35.0500
v 832.4500 3.0000 -35.0500
v 835.0500 3.0000 -35.0500
v 835.0500 3.0000 -32.4500
v 832.4500 3.0000 -32.4500
v 832.4500 0.0000 -35.0500
v 835.0500 0.0000 -35.0500
v 835.0500 3.0000 -35.0500
v 832.4500 3.0000 -35.0500
v 835.0500 0.0000 -32.4500
v 832.4500 0.0000 -32.4500
v 832.4500 3.0000 -32.4500
v 835.0500 3.0000 -32.4500
v 835.0500 0.0000 -35.0500
v 835.0500 0.0000 -32.4500
v 835.0500 3.0000 -32.4500
v 835.0500 3.0000 -35.0500
v 832.4500 0.0000 -32.4500
v 832.4500 0.0000 -35.0500
v 832.4500 3.0000 -35.0500
v 832.4500 3.0000 -32.4500
v 809.9500 0.0000 -32.8000
v 809.9500 0.0000 -30.2000
v 812.5500 0.0000 -30.2000
v 812.5500 0.0000 -32.8000
v 809.9500 3.0000 -32.8000
v 812.5500 3.0000 -32.8000
v 812.5500 3.0000 -30.2000
v 809.9500 3.0000 -30.2000
v 809.9500 0.0000 -32.8000
v 812.5500 0.0000 -32.8000
v 812.5500 3.0000 -32.8000
v 809.9500 3.0000 -32.8000
v 812.5500 0.0000 -30.2000
v 809.9500 0.0000 -30.2000
v 809.9500 3.0000 -30.2000
v 812.5500 3.0000 -30.2000
v 812.5500 0.0000 -32.8000
v 812.5500 0.0000 -30.2000
v 812.5500 3.0000 -30.2000
v 812.5500 3.0000 -32.8000
v 809.9500 0.0000 -30.2000
v 809.9500 0.0000 -32.8000
v 809.9500 3.0000 -32.8000
v 809.9500 3.0000 -30.2000
v 818.9500 0.0000 -32.8000
v 818.9500 0.0000 -30.2000
v 821.5500 0.0000 -30.2000
v 821.5500 0.0000 -32.8000
v 818.9500 3.0000 -32.8000
v 821.5500 3.0000 -32.8000
v 821.5500 3.0000 -30.2000
v 818.9500 3.0000 -30.2000
v 818.9500 0.0000 -32.8000
v 821.5500 0.0000 -32.8000
v 821.5500 3.0000 -32.8000
v 818.9500 3.0000 -32.8000
v 821.5500 0.0000 -30.2000
v 818.9500 0.0000 -30.2000
v 818.9500 3.0000 -30.2000
v 821.5500 3.0000 -30.2000
v 821.5500 0.0000 -32.8000
v 821.5500 0.0000 -30.2000
v 821.5500 3.0000 -30.2000
v 821.5500 3.0000 -32.8000
v 818.9500 0.0000 -30.2000
v 818.9500 0.0000 -32.8000
v 818.9500 3.0000 -32.8000
v 818.9500 3.0000 -30.2000
v 832.4500 0.0000 -32.8000
v 832.4500 0.0000 -30.2000
v 835.0500 0.0000 -30.2000
v 835.0500 0.0000 -32.8000
v 832.4500 3.0000 -32.8000
v 835.0500 3.0000 -32.8000
v 835.0500 3.0000 -30.2000
v 832.4500 3.0000 -30.2000
v 832.4500 0.0000 -32.8000
v 835.0500 0.0000 -32.8000
v 835.0500 3.0000 -32.8000
v 832.4500 3.0000 -32.8000
v 835.0500 0.0000 -30.2000
v 832.4500 0.0000 -30.2000
v 832.4500 3.0000 -30.2000
v 835.0500 3.0000 -30.2000
v 835.0500 0.0000 -32.8000
v 835.0500 0.0000 -30.2000
v 835.0500 3.0000 -30.2000
v 835.0500 3.0000 -32.8000
v 832.4500 0.0000 -30.2000
v 832.4500 0.0000 -32.8000
v 832.4500 3.0000 -32.8000
v 832.4500 3.0000 -30.2000
v 809.9500 0.0000 -30.5500
v 809.9500 0.0000 -27.9500
v 812.5500 0.0000 -27.9500
v 812.5500 0.0000 -30.5500
v 809.9500 3.0000 -30.5500
v 812.5500 3.0000 -30.5500
v 812.5500 3.0000 -27.9500
v 809.9500 3.0000 -27.9500
v 809.9500 0.0000 -30.5500
v 812.5500 0.0000 -30.5500
v 812.5500 3.0000 -30.5500
v 809.9500 3.0000 -30.5500
v 812.5500 0.0000 -27.9500
v 809.9500 0.0000 -27.9500
v 809.9500 3.0000 -27.9500
v 812.5500 3.0000 -27.9500
v 812.5500 0.0000 -30.5500
v 812.5500 0.0000 -27.9500
v 812.5500 3.0000 -27.9500
v 812.5500 3.0000 -30.5500
v 809.9500 0.0000 -27.9500
v 809.9500 0.0000 -30.5500
v 809.9500 3.0000 -30.5500
v 809.9500 3.0000 -27.9500
v 814.4500 0.0000 -30.5500
v 814.4500 0.0000 -27.9500
v 817.0500 0.0000 -27.9500
v 817.0500 0.0000 -30.5500
v 814.4500 3.0000 -30.5500
v 817.0500 3.0000 -30.5500
v 817.0500 3.0000 -27.9500
v 814.4500 3.0000 -27.9500
v 814.4500 0.0000 -30.5500
v 817.0500 0.0000 -30.5500
v 817.0500 3.0000 -30.5500
v 814.4500 3.0000 -30.5500
v 817.0500 0.0000 -27.9500
v 814.4500 0.0000 -27.9500
v 814.4500 3.0000 -27.9500
v 817.0500 3.0000 -27.9500
v 817.0500 0.0000 -30.5500
v 817.0500 0.0000 -27.9500
v 817.0500 3.0000 -27.9500
v 817.0500 3.0000 -30.5500
v 814.4500 0.0000 -27.9500
v 814.4500 0.0000 -30.5500
v 814.4500 3.0000 -30.5500
v 814.4500 3.0000 -27.9500
v 816.7000 0.0000 -30.5500
v 816.7000 0.0000 -27.9500
v 819.3000 0.0000 -27.9500
v 819.3000 0.0000 -30.5500
v 816.7000 3.0000 -30.5500
v 819.3000 3.0000 -30.5500
v 819.3000 3.0000 -27.9500
v 816.7000 3.0000 -27.9500
v 816.7000 0.0000 -30.5500
v 819.3000 0.0000 -30.5500
v 819.3000 3.0000 -30.5500
v 816.7000 3.0000 -30.5500
v 819.3000 0.0000 -27.9500
v 816.7000 0.0000 -27.9500
v 816.7000 3.0000 -27.9500
v 819.3000 3.0000 -27.9500
v 819.3000 0.0000 -30.5500
v 819.3000 0.0000 -27.9500
v 819.3000 3.0000 -27.9500
v 819.3000 3.0000 -30.5500
v 816.7000 0.0000 -27.9500
v 816.7000 0.0000 -30.5500
v 816.7000 3.0000 -30.5500
v 816.7000 3.0000 -27.9500
v 818.9500 0.0000 -30.5500
v 818.9500 0.0000 -27.9500
v 821.5500 0.0000 -27.9500
v 821.5500 0.0000 -30.5500
v 818.9500 3.0000 -30.5500
v 821.5500 3.0000 -30.5500
v 821.5500 3.0000 -27.9500
v 818.9500 3.0000 -27.9500
v 818.9500 0.0000 -30.5500
v 821.5500 0.0000 -30.5500
v 821.5500 3.0000 -30.5500
v 818.9500 3.0000 -30.5500
v 821.5500 0.0000 -27.9500
v 818.9500 0.0000 -27.9500
v 818.9500 3.0000 -27.9500
v 821.5500 3.0000 -27.9500
v 821.5500 0.0000 -30.5500
v 821.5500 0.0000 -27.9500
v 821.5500 3.0000 -27.9500
v 821.5500 3.0000 -30.5500
v 818.9500 0.0000 -27.9500
v 818.9500 0.0000 -30.5500
v 818.9500 3.0000 -30.5500
v 818.9500 3.0000 -27.9500
v 827.9500 0.0000 -30.5500
v 827.9500 0.0000 -27.9500
v 830.5500 0.0000 -27.9500
v 830.5500 0.0000 -30.5500
v 827.9500 3.0000 -30.5500
v 830.5500 3.0000 -30.5500
v 830.5500 3.0000 -27.9500
v 827.9500 3.0000 -27.9500
v 827.9500 0.0000 -30.5500
v 830.5500 0.0000 -30.5500
v 830.5500 3.0000 -30.5500
v 827.9500 3.0000 -30.5500
v 830.5500 0.0000 -27.9500
v 827.9500 0.0000 -27.9500
v 827.9500 3.0000 -27.9500
v 830.5500 3.0000 -27.9500
v 830.5500 0.0000 -30.5500
v 830.5500 0.0000 -27.9500
v 830.5500 3.0000 -27.9500
v 830.5500 3.0000 -30.5500
v 827.9500 0.0000 -27.9500
v 827.9500 0.0000 -30.5500
v 827.9500 3.0000 -30.5500
v 827.9500 3.0000 -27.9500
v 832.4500 0.0000 -30.5500
v 832.4500 0.0000 -27.9500
v 835.0500 0.0000 -27.9500
v 835.0500 0.0000 -30.5500
v 832.4500 3.0000 -30.5500
v 835.0500 3.0000 -30.5500
v 835.0500 3.0000 -27.9500
v 832.4500 3.0000 -27.9500
v 832.4500 0.0000 -30.5500
v 835.0500 0.0000 -30.5500
v 835.0500 3.0000 -30.5500
v 832.4500 3.0000 -30.5500
v 835.0500 0.0000 -27.9500
v 832.4500 0.0000 -27.9500
v 832.4500 3.0000 -27.9500
v 835.0500 3.0000 -27.9500
v 835.0500 0.0000 -30.5500
v 835.0500 0.0000 -27.9500
v 835.0500 3.0000 -27.9500
v 835.0500 3.0000 -30.5500
v 832.4500 0.0000 -27.9500
v 832.4500 0.0000 -30.5500
v 832.4500 3.0000 -30.5500
v 832.4500 3.0000 -27.9500
v 818.9500 0.0000 -28.3000
v 818.9500 0.0000 -25.7000
v 821.5500 0.0000 -25.7000
v 821.5500 0.0000 -28.3000
v 818.9500 3.0000 -28.3000
v 821.5500 3.0000 -28.3000
v 821.5500 3.0000 -25.7000
v 818.9500 3.0000 -25.7000
v 818.9500 0.0000 -28.3000
v 821.5500 0.0000 -28.3000
v 821.5500 3.0000 -28.3000
v 818.9500 3.0000 -28.3000
v 821.5500 0.0000 -25.7000
v 818.9500 0.0000 -25.7000
v 818.9500 3.0000 -25.7000
v 821.5500 3.0000 -25.7000
v 821.5500 0.0000 -28.3000
v 821.5500 0.0000 -25.7000
v 821.5500 3.0000 -25.7000
v 821.5500 3.0000 -28.3000
v 818.9500 0.0000 -25.7000
v 818.9500 0.0000 -28.3000
v 818.9500 3.0000 -28.3000
v 818.9500 3.0000 -25.7000
v 827.9500 0.0000 -28.3000
v 827.9500 0.0000 -25.7000
v 830.5500 0.0000 -25.7000
v 830.5500 0.0000 -28.3000
v 827.9500 3.0000 -28.3000
v 830.5500 3.0000 -28.3000
v 830.5500 3.0000 -25.7000
v 827.9500 3.0000 -25.7000
v 827.9500 0.0000 -28.3000
v 830.5500 0.0000 -28.3000
v 830.5500 3.0000 -28.3000
v 827.9500 3.0000 -28.3000
v 830.5500 0.0000 -25.7000
v 827.9500 0.0000 -25.7000
v 827.9500 3.0000 -25.7000
v 830.5500 3.0000 -25.7000
v 830.5500 0.0000 -28.3000
v 830.5500 0.0000 -25.7000
v 830.5500 3.0000 -25.7000
v 830.5500 3.0000 -28.3000
v 827.9500 0.0000 -25.7000
v 827.9500 0.0000 -28.3000
v 827.9500 3.0000 -28.3000
v 827.9500 3.0000 -25.7000
v 832.4500 0.0000 -28.3000
v 832.4500 0.0000 -25.7000
v 835.0500 0.0000 -25.7000
v 835.0500 0.0000 -28.3000
v 832.4500 3.0000 -28.3000
v 835.0500 3.0000 -28.3000
v 835.0500 3.0000 -25.7000
v 832.4500 3.0000 -25.7000
v 832.4500 0.0000 -28.3000
v 835.0500 0.0000 -28.3000
v 835.0500 3.0000 -28.3000
v 832.4500 3.0000 -28.3000
v 835.0500 0.0000 -25.7000
v 832.4500 0.0000 -25.7000
v 832.4500 3.0000 -25.7000
v 835.0500 3.0000 -25.7000
v 835.0500 0.0000 -28.3000
v 835.0500 0.0000 -25.7000
v 835.0500 3.0000 -25.7000
v 835.0500 3.0000 -28.3000
v 832.4500 0.0000 -25.7000
v 832.4500 0.0000 -28.3000
v 832.4500 3.0000 -28.3000
v 832.4500 3.0000 -25.7000
v 809.9500 0.0000 -26.0500
v 809.9500 0.0000 -23.4500
v 812.5500 0.0000 -23.4500
v 812.5500 0.0000 -26.0500
v 809.9500 3.0000 -26.0500
v 812.5500 3.0000 -26.0500
v 812.5500 3.0000 -23.4500
v 809.9500 3.0000 -23.4500
v 809.9500 0.0000 -26.0500
v 812.5500 0.0000 -26.0500
v 812.5500 3.0000 -26.0500
v 809.9500 3.0000 -26.0500
v 812.5500 0.0000 -23.4500
v 809.9500 0.0000 -23.4500
v 809.9500 3.0000 -23.4500
v 812.5500 3.0000 -23.4500
v 812.5500 0.0000 -26.0500
v 812.5500 0.0000 -23.4500
v 812.5500 3.0000 -23.4500
v 812.5500 3.0000 -26.0500
v 809.9500 0.0000 -23.4500
v 809.9500 0.0000 -26.0500
v 809.9500 3.0000 -26.0500
v 809.9500 3.0000 -23.4500
v 814.4500 0.0000 -26.0500
v 814.4500 0.0000 -23.4500
v 817.0500 0.0000 -23.4500
v 817.0500 0.0000 -26.0500
v 814.4500 3.0000 -26.0500
v 817.0500 3.0000 -26.0500
v 817.0500 3.0000 -23.4500
v 814.4500 3.0000 -23.4500
v 814.4500 0.0000 -26.0500
v 817.0500 0.0000 -26.0500
v 817.0500 3.0000 -26.0500
v 814.4500 3.0000 -26.0500
v 817.0500 0.0000 -23.4500
v 814.4500 0.0000 -23.4500
v 814.4500 3.0000 -23.4500
v 817.0500 3.0000 -23.4500
v 817.0500 0.0000 -26.0500
v 817.0500 0.0000 -23.4500
v 817.0500 3.0000 -23.4500
v 817.0500 3.0000 -26.0500
v 814.4500 0.0000 -23.4500
v 814.4500 0.0000 -26.0500
v 814.4500 3.0000 -26.0500
v 814.4500 3.0000 -23.4500
v 818.9500 0.0000 -26.0500
v 818.9500 0.0000 -23.4500
v 821.5500 0.0000 -23.4500
v 821.5500 0.0000 -26.0500
v 818.9500 3.0000 -26.0500
v 821.5500 3.0000 -26.0500
v 821.5500 3.0000 -23.4500
v 818.9500 3.0000 -23.4500
v 818.9500 0.0000 -26.0500
v 821.5500 0.0000 -26.0500
v 821.5500 3.0000 -26.0500
v 818.9500 3.0000 -26.0500
v 821.5500 0.0000 -23.4500
v 818.9500 0.0000 -23.4500
v 818.9500 3.0000 -23.4500
v 821.5500 3.0000 -23.4500
v 821.5500 0.0000 -26.0500
v 821.5500 0.0000 -23.4500
v 821.5500 3.0000 -23.4500
v 821.5500 3.0000 -26.0500
v 818.9500 0.0000 -23.4500
v 818.9500 0.0000 -26.0500
v 818.9500 3.0000 -26.0500
v 818.9500 3.0000 -23.4500
v 821.2000 0.0000 -26.0500
v 821.2000 0.0000 -23.4500
v 823.8000 0.0000 -23.4500
v 823.8000 0.0000 -26.0500
v 821.2000 3.0000 -26.0500
v 823.8000 3.0000 -26.0500
v 823.8000 3.0000 -23.4500
v 821.2000 3.0000 -23.4500
v 821.2000 0.0000 -26.0500
v 823.8000 0.0000 -26.0500
v 823.8000 3.0000 -26.0500
v 821.2000 3.0000 -26.0500
v 823.8000 0.0000 -23.4500
v 821.2000 0.0000 -23.4500
v 821.2000 3.0000 -23.4500
v 823.8000 3.0000 -23.4500
v 823.8000 0.0000 -26.0500
v 823.8000 0.0000 -23.4500
v 823.8000 3.0000 -23.4500
v 823.8000 3.0000 -26.0500
v 821.2000 0.0000 -23.4500
v 821.2000 0.0000 -26.0500
v 821.2000 3.0000 -26.0500
v 821.2000 3.0000 -23.4500
v 823.4500 0.0000 -26.0500
v 823.4500 0.0000 -23.4500
v 826.0500 0.0000 -23.4500
v 826.0500 0.0000 -26.0500
v 823.4500 3.0000 -26.0500
v 826.0500 3.0000 -26.0500
v 826.0500 3.0000 -23.4500
v 823.4500 3.0000 -23.4500
v 823.4500 0.0000 -26.0500
v 826.0500 0.0000 -26.0500
v 826.0500 3.0000 -26.0500
v 823.4500 3.0000 -26.0500
v 826.0500 0.0000 -23.4500
v 823.4500 0.0000 -23.4500
v 823.4500 3.0000 -23.4500
v 826.0500 3.0000 -23.4500
v 826.0500 0.0000 -26.0500
v 826.0500 0.0000 -23.4500
v 826.0500 3.0000 -23.4500
v 826.0500 3.0000 -26.0500
v 823.4500 0.0000 -23.4500
v 823.4500 0.0000 -26.0500
v 823.4500 3.0000 -26.0500
v 823.4500 3.0000 -23.4500
v 827.9500 0.0000 -26.0500
v 827.9500 0.0000 -23.4500
v 830.5500 0.0000 -23.4500
v 830.5500 0.0000 -26.0500
v 827.9500 3.0000 -26.0500
v 830.5500 3.0000 -26.0500
v 830.5500 3.0000 -23.4500
v 827.9500 3.0000 -23.4500
v 827.9500 0.0000 -26.0500
v 830.5500 0.0000 -26.0500
v 830.5500 3.0000 -26.0500
v 827.9500 3.0000 -26.0500
v 830.5500 0.0000 -23.4500
v 827.9500 0.0000 -23.4500
v 827.9500 3.0000 -23.4500
v 830.5500 3.0000 -23.4500
v 830.5500 0.0000 -26.0500
v 830.5500 0.0000 -23.4500
v 830.5500 3.0000 -23.4500
v 830.5500 3.0000 -26.0500
v 827.9500 0.0000 -23.4500
v 827.9500 0.0000 -26.0500
v 827.9500 3.0000 -26.0500
v 827.9500 3.0000 -23.4500
v 832.4500 0.0000 -26.0500
v 832.4500 0.0000 -23.4500
v 835.0500 0.0000 -23.4500
v 835.0500 0.0000 -26.0500
v 832.4500 3.0000 -26.0500
v 835.0500 3.0000 -26.0500
v 835.0500 3.0000 -23.4500
v 832.4500 3.0000 -23.4500
v 832.4500 0.0000 -26.0500
v 835.0500 0.0000 -26.0500
v 835.0500 3.0000 -26.0500
v 832.4500 3.0000 -26.0500
v 835.0500 0.0000 -23.4500
v 832.4500 0.0000 -23.4500
v 832.4500 3.0000 -23.4500
v 835.0500 3.0000 -23.4500
v 835.0500 0.0000 -26.0500
v 835.0500 0.0000 -23.4500
v 835.0500 3.0000 -23.4500
v 835.0500 3.0000 -26.0500
v 832.4500 0.0000 -23.4500
v 832.4500 0.0000 -26.0500
v 832.4500 3.0000 -26.0500
v 832.4500 3.0000 -23.4500
v 834.7000 0.0000 -26.0500
v 834.7000 0.0000 -23.4500
v 837.3000 0.0000 -23.4500
v 837.3000 0.0000 -26.0500
v 834.7000 3.0000 -26.0500
v 837.3000 3.0000 -26.0500
v 837.3000 3.0000 -23.4500
v 834.7000 3.0000 -23.4500
v 834.7000 0.0000 -26.0500
v 837.3000 0.0000 -26.0500
v 837.3000 3.0000 -26.0500
v 834.7000 3.0000 -26.0500
v 837.3000 0.0000 -23.4500
v 834.7000 0.0000 -23.4500
v 834.7000 3.0000 -23.4500
v 837.3000 3.0000 -23.4500
v 837.3000 0.0000 -26.0500
v 837.3000 0.0000 -23.4500
v 837.3000 3.0000 -23.4500
v 837.3000 3.0000 -26.0500
v 834.7000 0.0000 -23.4500
v 834.7000 0.0000 -26.0500
v 834.7000 3.0000 -26.0500
v 834.7000 3.0000 -23.4500
v 814.4500 0.0000 -23.8000
v 814.4500 0.0000 -21.2000
v 817.0500 0.0000 -21.2000
v 817.0500 0.0000 -23.8000
v 814.4500 3.0000 -23.8000
v 817.0500 3.0000 -23.8000
v 817.0500 3.0000 -21.2000
v 814.4500 3.0000 -21.2000
v 814.4500 0.0000 -23.8000
v 817.0500 0.0000 -23.8000
v 817.0500 3.0000 -23.8000
v 814.4500 3.0000 -23.8000
v 817.0500 0.0000 -21.2000
v 814.4500 0.0000 -21.2000
v 814.4500 3.0000 -21.2000
v 817.0500 3.0000 -21.2000
v 817.0500 0.0000 -23.8000
v 817.0500 0.0000 -21.2000
v 817.0500 3.0000 -21.2000
v 817.0500 3.0000 -23.8000
v 814.4500 0.0000 -21.2000
v 814.4500 0.0000 -23.8000
v 814.4500 3.0000 -23.8000
v 814.4500 3.0000 -21.2000
v 827.9500 0.0000 -23.8000
v 827.9500 0.0000 -21.2000
v 830.5500 0.0000 -21.2000
v 830.5500 0.0000 -23.8000
v 827.9500 3.0000 -23.8000
v 830.5500 3.0000 -23.8000
v 830.5500 3.0000 -21.2000
v 827.9500 3.0000 -21.2000
v 827.9500 0.0000 -23.8000
v 830.5500 0.0000 -23.8000
v 830.5500 3.0000 -23.8000
v 827.9500 3.0000 -23.8000
v 830.5500 0.0000 -21.2000
v 827.9500 0.0000 -21.2000
v 827.9500 3.0000 -21.2000
v 830.5500 3.0000 -21.2000
v 830.5500 0.0000 -23.8000
v 830.5500 0.0000 -21.2000
v 830.5500 3.0000 -21.2000
v 830.5500 3.0000 -23.8000
v 827.9500 0.0000 -21.2000
v 827.9500 0.0000 -23.8000
v 827.9500 3.0000 -23.8000
v 827.9500 3.0000 -21.2000
v 809.9500 0.0000 -21.5500
v 809.9500 0.0000 -18.9500
v 812.5500 0.0000 -18.9500
v 812.5500 0.0000 -21.5500
v 809.9500 3.0000 -21.5500
v 812.5500 3.0000 -21.5500
v 812.5500 3.0000 -18.9500
v 809.9500 3.0000 -18.9500
v 809.9500 0.0000 -21.5500
v 812.5500 0.0000 -21.5500
v 812.5500 3.0000 -21.5500
v 809.9500 3.0000 -21.5500
v 812.5500 0.0000 -18.9500
v 809.9500 0.0000 -18.9500
v 809.9500 3.0000 -18.9500
v 812.5500 3.0000 -18.9500
v 812.5500 0.0000 -21.5500
v 812.5500 0.0000 -18.9500
v 812.5500 3.0000 -18.9500
v 812.5500 3.0000 -21.5500
v 809.9500 0.0000 -18.9500
v 809.9500 0.0000 -21.5500
v 809.9500 3.0000 -21.5500
v 809.9500 3.0000 -18.9500
v 812.2000 0.0000 -21.5500
v 812.2000 0.0000 -18.9500
v 814.8000 0.0000 -18.9500
v 814.8000 0.0000 -21.5500
v 812.2000 3.0000 -21.5500
v 814.8000 3.0000 -21.5500
v 814.8000 3.0000 -18.9500
v 812.2000 3.0000 -18.9500
v 812.2000 0.0000 -21.5500
v 814.8000 0.0000 -21.5500
v 814.8000 3.0000 -21.5500
v 812.2000 3.0000 -21.5500
v 814.8000 0.0000 -18.9500
v 812.2000 0.0000 -18.9500
v 812.2000 3.0000 -18.9500
v 814.8000 3.0000 -18.9500
v 814.8000 0.0000 -21.5500
v 814.8000 0.0000 -18.9500
v 814.8000 3.0000 -18.9500
v 814.8000 3.0000 -21.5500
v 812.2000 0.0000 -18.9500
v 812.2000 0.0000 -21.5500
v 812.2000 3.0000 -21.5500
v 812.2000 3.0000 -18.9500
v 814.4500 0.0000 -21.5500
v 814.4500 0.0000 -18.9500
v 817.0500 0.0000 -18.9500
v 817.0500 0.0000 -21.5500
v 814.4500 3.0000 -21.5500
v 817.0500 3.0000 -21.5500
v 817.0500 3.0000 -18.9500
v 814.4500 3.0000 -18.9500
v 814.4500 0.0000 -21.5500
v 817.0500 0.0000 -21.5500
v 817.0500 3.0000 -21.5500
v 814.4500 3.0000 -21.5500
v 817.0500 0.0000 -18.9500
v 814.4500 0.0000 -18.9500
v 814.4500 3.0000 -18.9500
v 817.0500 3.0000 -18.9500
v 817.0500 0.0000 -21.5500
v 817.0500 0.0000 -18.9500
v 817.0500 3.0000 -18.9500
v 817.0500 3.0000 -21.5500
v 814.4500 0.0000 -18.9500
v 814.4500 0.0000 -21.5500
v 814.4500 3.0000 -21.5500
v 814.4500 3.0000 -18.9500
v 816.7000 0.0000 -21.5500
v 816.7000 0.0000 -18.9500
v 819.3000 0.0000 -18.9500
v 819.3000 0.0000 -21.5500
v 816.7000 3.0000 -21.5500
v 819.3000 3.0000 -21.5500
v 819.3000 3.0000 -18.9500
v 816.7000 3.0000 -18.9500
v 816.7000 0.0000 -21.5500
v 819.3000 0.0000 -21.5500
v 819.3000 3.0000 -21.5500
v 816.7000 3.0000 -21.5500
v 819.3000 0.0000 -18.9500
v 816.7000 0.0000 -18.9500
v 816.7000 3.0000 -18.9500
v 819.3000 3.0000 -18.9500
v 819.3000 0.0000 -21.5500
v 819.3000 0.0000 -18.9500
v 819.3000 3.0000 -18.9500
v 819.3000 3.0000 -21.5500
v 816.7000 0.0000 -18.9500
v 816.7000 0.0000 -21.5500
v 816.7000 3.0000 -21.5500
v 816.7000 3.0000 -18.9500
v 818.9500 0.0000 -21.5500
v 818.9500 0.0000 -18.9500
v 821.5500 0.0000 -18.9500
v 821.5500 0.0000 -21.5500
v 818.9500 3.0000 -21.5500
v 821.5500 3.0000 -21.5500
v 821.5500 3.0000 -18.9500
v 818.9500 3.0000 -18.9500
v 818.9500 0.0000 -21.5500
v 821.5500 0.0000 -21.5500
v 821.5500 3.0000 -21.5500
v 818.9500 3.0000 -21.5500
v 821.5500 0.0000 -18.9500
v 818.9500 0.0000 -18.9500
v 818.9500 3.0000 -18.9500
v 821.5500 3.0000 -18.9500
v 821.5500 0.0000 -21.5500
v 821.5500 0.0000 -18.9500
v 821.5500 3.0000 -18.9500
v 821.5500 3.0000 -21.5500
v 818.9500 0.0000 -18.9500
v 818.9500 0.0000 -21.5500
v 818.9500 3.0000 -21.5500
v 818.9500 3.0000 -18.9500
v 827.9500 0.0000 -21.5500
v 827.9500 0.0000 -18.9500
v 830.5500 0.0000 -18.9500
v 830.5500 0.0000 -21.5500
v 827.9500 3.0000 -21.5500
v 830.5500 3.0000 -21.5500
v 830.5500 3.0000 -18.9500
v 827.9500 3.0000 -18.9500
v 827.9500 0.0000 -21.5500
v 830.5500 0.0000 -21.5500
v 830.5500 3.0000 -21.5500
v 827.9500 3.0000 -21.5500
v 830.5500 0.0000 -18.9500
v 827.9500 0.0000 -18.9500
v 827.9500 3.0000 -18.9500
v 830.5500 3.0000 -18.9500
v 830.5500 0.0000 -21.5500
v 830.5500 0.0000 -18.9500
v 830.5500 3.0000 -18.9500
v 830.5500 3.0000 -21.5500
v 827.9500 0.0000 -18.9500
v 827.9500 0.0000 -21.5500
v 827.9500 3.0000 -21.5500
v 827.9500 3.0000 -18.9500
v 813.3500 2.7000 -40.6500
v 813.6500 2.7000 -40.6500
v 813.6500 2.7000 -40.3500
v 813.3500 2.7000 -40.3500
v 813.3500 2.8600 -40.6500
v 813.6500 2.8600 -40.6500
v 813.6500 2.8600 -40.3500
v 813.3500 2.8600 -40.3500
v 813.3100 2.8600 -40.6900
v 813.6900 2.8600 -40.6900
v 813.6900 2.8600 -40.3100
v 813.3100 2.8600 -40.3100
v 813.3100 2.9400 -40.6900
v 813.6900 2.9400 -40.6900
v 813.6900 2.9400 -40.3100
v 813.3100 2.9400 -40.3100
v 822.3500 2.7000 -40.6500
v 822.6500 2.7000 -40.6500
v 822.6500 2.7000 -40.3500
v 822.3500 2.7000 -40.3500
v 822.3500 2.8600 -40.6500
v 822.6500 2.8600 -40.6500
v 822.6500 2.8600 -40.3500
v 822.3500 2.8600 -40.3500
v 822.3100 2.8600 -40.6900
v 822.6900 2.8600 -40.6900
v 822.6900 2.8600 -40.3100
v 822.3100 2.8600 -40.3100
v 822.3100 2.9400 -40.6900
v 822.6900 2.9400 -40.6900
v 822.6900 2.9400 -40.3100
v 822.3100 2.9400 -40.3100
v 826.8500 2.7000 -36.1500
v 827.1500 2.7000 -36.1500
v 827.1500 2.7000 -35.8500
v 826.8500 2.7000 -35.8500
v 826.8500 2.8600 -36.1500
v 827.1500 2.8600 -36.1500
v 827.1500 2.8600 -35.8500
v 826.8500 2.8600 -35.8500
v 826.8100 2.8600 -36.1900
v 827.1900 2.8600 -36.1900
v 827.1900 2.8600 -35.8100
v 826.8100 2.8600 -35.8100
v 826.8100 2.9400 -36.1900
v 827.1900 2.9400 -36.1900
v 827.1900 2.9400 -35.8100
v 826.8100 2.9400 -35.8100
v 817.8500 2.7000 -31.6500
v 818.1500 2.7000 -31.6500
v 818.1500 2.7000 -31.3500
v 817.8500 2.7000 -31.3500
v 817.8500 2.8600 -31.6500
v 818.1500 2.8600 -31.6500
v 818.1500 2.8600 -31.3500
v 817.8500 2.8600 -31.3500
v 817.8100 2.8600 -31.6900
v 818.1900 2.8600 -31.6900
v 818.1900 2.8600 -31.3100
v 817.8100 2.8600 -31.3100
v 817.8100 2.9400 -31.6900
v 818.1900 2.9400 -31.6900
v 818.1900 2.9400 -31.3100
v 817.8100 2.9400 -31.3100
v 826.8500 2.7000 -31.6500
v 827.1500 2.7000 -31.6500
v 827.1500 2.7000 -31.3500
v 826.8500 2.7000 -31.3500
v 826.8500 2.8600 -31.6500
v 827.1500 2.8600 -31.6500
v 827.1500 2.8600 -31.3500
v 826.8500 2.8600 -31.3500
v 826.8100 2.8600 -31.6900
v 827.1900 2.8600 -31.6900
v 827.1900 2.8600 -31.3100
v 826.8100 2.8600 -31.3100
v 826.8100 2.9400 -31.6900
v 827.1900 2.9400 -31.6900
v 827.1900 2.9400 -31.3100
v 826.8100 2.9400 -31.3100
v 831.3500 2.7000 -31.6500
v 831.6500 2.7000 -31.6500
v 831.6500 2.7000 -31.3500
v 831.3500 2.7000 -31.3500
v 831.3500 2.8600 -31.6500
v 831.6500 2.8600 -31.6500
v 831.6500 2.8600 -31.3500
v 831.3500 2.8600 -31.3500
v 831.3100 2.8600 -31.6900
v 831.6900 2.8600 -31.6900
v 831.6900 2.8600 -31.3100
v 831.3100 2.8600 -31.3100
v 831.3100 2.9400 -31.6900
v 831.6900 2.9400 -31.6900
v 831.6900 2.9400 -31.3100
v 831.3100 2.9400 -31.3100
v 835.8500 2.7000 -31.6500
v 836.1500 2.7000 -31.6500
v 836.1500 2.7000 -31.3500
v 835.8500 2.7000 -31.3500
v 835.8500 2.8600 -31.6500
v 836.1500 2.8600 -31.6500
v 836.1500 2.8600 -31.3500
v 835.8500 2.8600 -31.3500
v 835.8100 2.8600 -31.6900
v 836.1900 2.8600 -31.6900
v 836.1900 2.8600 -31.3100
v 835.8100 2.8600 -31.3100
v 835.8100 2.9400 -31.6900
v 836.1900 2.9400 -31.6900
v 836.1900 2.9400 -31.3100
v 835.8100 2.9400 -31.3100
v 813.3500 2.7000 -27.1500
v 813.6500 2.7000 -27.1500
v 813.6500 2.7000 -26.8500
v 813.3500 2.7000 -26.8500
v 813.3500 2.8600 -27.1500
v 813.6500 2.8600 -27.1500
v 813.6500 2.8600 -26.8500
v 813.3500 2.8600 -26.8500
v 813.3100 2.8600 -27.1900
v 813.6900 2.8600 -27.1900
v 813.6900 2.8600 -26.8100
v 813.3100 2.8600 -26.8100
v 813.3100 2.9400 -27.1900
v 813.6900 2.9400 -27.1900
v 813.6900 2.9400 -26.8100
v 813.3100 2.9400 -26.8100
v 817.8500 2.7000 -27.1500
v 818.1500 2.7000 -27.1500
v 818.1500 2.7000 -26.8500
v 817.8500 2.7000 -26.8500
v 817.8500 2.8600 -27.1500
v 818.1500 2.8600 -27.1500
v 818.1500 2.8600 -26.8500
v 817.8500 2.8600 -26.8500
v 817.8100 2.8600 -27.1900
v 818.1900 2.8600 -27.1900
v 818.1900 2.8600 -26.8100
v 817.8100 2.8600 -26.8100
v 817.8100 2.9400 -27.1900
v 818.1900 2.9400 -27.1900
v 818.1900 2.9400 -26.8100
v 817.8100 2.9400 -26.8100
v 831.3500 2.7000 -27.1500
v 831.6500 2.7000 -27.1500
v 831.6500 2.7000 -26.8500
v 831.3500 2.7000 -26.8500
v 831.3500 2.8600 -27.1500
v 831.6500 2.8600 -27.1500
v 831.6500 2.8600 -26.8500
v 831.3500 2.8600 -26.8500
v 831.3100 2.8600 -27.1900
v 831.6900 2.8600 -27.1900
v 831.6900 2.8600 -26.8100
v 831.3100 2.8600 -26.8100
v 831.3100 2.9400 -27.1900
v 831.6900 2.9400 -27.1900
v 831.6900 2.9400 -26.8100
v 831.3100 2.9400 -26.8100
v 835.8500 2.7000 -27.1500
v 836.1500 2.7000 -27.1500
v 836.1500 2.7000 -26.8500
v 835.8500 2.7000 -26.8500
v 835.8500 2.8600 -27.1500
v 836.1500 2.8600 -27.1500
v 836.1500 2.8600 -26.8500
v 835.8500 2.8600 -26.8500
v 835.8100 2.8600 -27.1900
v 836.1900 2.8600 -27.1900
v 836.1900 2.8600 -26.8100
v 835.8100 2.8600 -26.8100
v 835.8100 2.9400 -27.1900
v 836.1900 2.9400 -27.1900
v 836.1900 2.9400 -26.8100
v 835.8100 2.9400 -26.8100
v 826.8500 2.7000 -22.6500
v 827.1500 2.7000 -22.6500
v 827.1500 2.7000 -22.3500
v 826.8500 2.7000 -22.3500
v 826.8500 2.8600 -22.6500
v 827.1500 2.8600 -22.6500
v 827.1500 2.8600 -22.3500
v 826.8500 2.8600 -22.3500
v 826.8100 2.8600 -22.6900
v 827.1900 2.8600 -22.6900
v 827.1900 2.8600 -22.3100
v 826.8100 2.8600 -22.3100
v 826.8100 2.9400 -22.6900
v 827.1900 2.9400 -22.6900
v 827.1900 2.9400 -22.3100
v 826.8100 2.9400 -22.3100
v 813.3500 2.7000 -18.1500
v 813.6500 2.7000 -18.1500
v 813.6500 2.7000 -17.8500
v 813.3500 2.7000 -17.8500
v 813.3500 2.8600 -18.1500
v 813.6500 2.8600 -18.1500
v 813.6500 2.8600 -17.8500
v 813.3500 2.8600 -17.8500
v 813.3100 2.8600 -18.1900
v 813.6900 2.8600 -18.1900
v 813.6900 2.8600 -17.8100
v 813.3100 2.8600 -17.8100
v 813.3100 2.9400 -18.1900
v 813.6900 2.9400 -18.1900
v 813.6900 2.9400 -17.8100
v 813.3100 2.9400 -17.8100
v 826.8500 2.7000 -18.1500
v 827.1500 2.7000 -18.1500
v 827.1500 2.7000 -17.8500
v 826.8500 2.7000 -17.8500
v 826.8500 2.8600 -18.1500
v 827.1500 2.8600 -18.1500
v 827.1500 2.8600 -17.8500
v 826.8500 2.8600 -17.8500
v 826.8100 2.8600 -18.1900
v 827.1900 2.8600 -18.1900
v 827.1900 2.8600 -17.8100
v 826.8100 2.8600 -17.8100
v 826.8100 2.9400 -18.1900
v 827.1900 2.9400 -18.1900
v 827.1900 2.9400 -17.8100
v 826.8100 2.9400 -17.8100
v 835.8500 2.7000 -18.1500
v 836.1500 2.7000 -18.1500
v 836.1500 2.7000 -17.8500
v 835.8500 2.7000 -17.8500
v 835.8500 2.8600 -18.1500
v 836.1500 2.8600 -18.1500
v 836.1500 2.8600 -17.8500
v 835.8500 2.8600 -17.8500
v 835.8100 2.8600 -18.1900
v 836.1900 2.8600 -18.1900
v 836.1900 2.8600 -17.8100
v 835.8100 2.8600 -17.8100
v 835.8100 2.9400 -18.1900
v 836.1900 2.9400 -18.1900
v 836.1900 2.9400 -17.8100
v 835.8100 2.9400 -17.8100
v 831.0000 0.0000 -40.7750
v 832.0000 0.0000 -40.7750
v 832.0000 0.0000 -40.2250
v 831.0000 0.0000 -40.2250
v 831.0000 1.7000 -40.7750
v 832.0000 1.7000 -40.7750
v 832.0000 1.7000 -40.2250
v 831.0000 1.7000 -40.2250
v 831.0500 1.4900 -40.8150
v 831.9500 1.4900 -40.8150
v 831.9500 1.4900 -40.7850
v 831.0500 1.4900 -40.7850
v 831.0500 1.6100 -40.8150
v 831.9500 1.6100 -40.8150
v 831.9500 1.6100 -40.7850
v 831.0500 1.6100 -40.7850
v 813.0000 0.0000 -38.5250
v 814.0000 0.0000 -38.5250
v 814.0000 0.0000 -37.9750
v 813.0000 0.0000 -37.9750
v 813.0000 1.7000 -38.5250
v 814.0000 1.7000 -38.5250
v 814.0000 1.7000 -37.9750
v 813.0000 1.7000 -37.9750
v 813.0500 1.4900 -38.5650
v 813.9500 1.4900 -38.5650
v 813.9500 1.4900 -38.5350
v 813.0500 1.4900 -38.5350
v 813.0500 1.6100 -38.5650
v 813.9500 1.6100 -38.5650
v 813.9500 1.6100 -38.5350
v 813.0500 1.6100 -38.5350
v 835.5000 0.0000 -36.2750
v 836.5000 0.0000 -36.2750
v 836.5000 0.0000 -35.7250
v 835.5000 0.0000 -35.7250
v 835.5000 1.7000 -36.2750
v 836.5000 1.7000 -36.2750
v 836.5000 1.7000 -35.7250
v 835.5000 1.7000 -35.7250
v 835.5500 1.4900 -36.3150
v 836.4500 1.4900 -36.3150
v 836.4500 1.4900 -36.2850
v 835.5500 1.4900 -36.2850
v 835.5500 1.6100 -36.3150
v 836.4500 1.6100 -36.3150
v 836.4500 1.6100 -36.2850
v 835.5500 1.6100 -36.2850
v 828.7500 0.0000 -31.7750
v 829.7500 0.0000 -31.7750
v 829.7500 0.0000 -31.2250
v 828.7500 0.0000 -31.2250
v 828.7500 1.7000 -31.7750
v 829.7500 1.7000 -31.7750
v 829.7500 1.7000 -31.2250
v 828.7500 1.7000 -31.2250
v 828.8000 1.4900 -31.8150
v 829.7000 1.4900 -31.8150
v 829.7000 1.4900 -31.7850
v 828.8000 1.4900 -31.7850
v 828.8000 1.6100 -31.8150
v 829.7000 1.6100 -31.8150
v 829.7000 1.6100 -31.7850
v 828.8000 1.6100 -31.7850
v 835.5000 0.0000 -31.7750
v 836.5000 0.0000 -31.7750
v 836.5000 0.0000 -31.2250
v 835.5000 0.0000 -31.2250
v 835.5000 1.7000 -31.7750
v 836.5000 1.7000 -31.7750
v 836.5000 1.7000 -31.2250
v 835.5000 1.7000 -31.2250
v 835.5500 1.4900 -31.8150
v 836.4500 1.4900 -31.8150
v 836.4500 1.4900 -31.7850
v 835.5500 1.4900 -31.7850
v 835.5500 1.6100 -31.8150
v 836.4500 1.6100 -31.8150
v 836.4500 1.6100 -31.7850
v 835.5500 1.6100 -31.7850
v 817.5000 0.0000 -27.2750
v 818.5000 0.0000 -27.2750
v 818.5000 0.0000 -26.7250
v 817.5000 0.0000 -26.7250
v 817.5000 1.7000 -27.2750
v 818.5000 1.7000 -27.2750
v 818.5000 1.7000 -26.7250
v 817.5000 1.7000 -26.7250
v 817.5500 1.4900 -27.3150
v 818.4500 1.4900 -27.3150
v 818.4500 1.4900 -27.2850
v 817.5500 1.4900 -27.2850
v 817.5500 1.6100 -27.3150
v 818.4500 1.6100 -27.3150
v 818.4500 1.6100 -27.2850
v 817.5500 1.6100 -27.2850
v 824.2500 0.0000 -27.2750
v 825.2500 0.0000 -27.2750
v 825.2500 0.0000 -26.7250
v 824.2500 0.0000 -26.7250
v 824.2500 1.7000 -27.2750
v 825.2500 1.7000 -27.2750
v 825.2500 1.7000 -26.7250
v 824.2500 1.7000 -26.7250
v 824.3000 1.4900 -27.3150
v 825.2000 1.4900 -27.3150
v 825.2000 1.4900 -27.2850
v 824.3000 1.4900 -27.2850
v 824.3000 1.6100 -27.3150
v 825.2000 1.6100 -27.3150
v 825.2000 1.6100 -27.2850
v 824.3000 1.6100 -27.2850
v 835.5000 0.0000 -27.2750
v 836.5000 0.0000 -27.2750
v 836.5000 0.0000 -26.7250
v 835.5000 0.0000 -26.7250
v 835.5000 1.7000 -27.2750
v 836.5000 1.7000 -27.2750
v 836.5000 1.7000 -26.7250
v 835.5000 1.7000 -26.7250
v 835.5500 1.4900 -27.3150
v 836.4500 1.4900 -27.3150
v 836.4500 1.4900 -27.2850
v 835.5500 1.4900 -27.2850
v 835.5500 1.6100 -27.3150
v 836.4500 1.6100 -27.3150
v 836.4500 1.6100 -27.2850
v 835.5500 1.6100 -27.2850
v 813.0000 0.0000 -25.0250
v 814.0000 0.0000 -25.0250
v 814.0000 0.0000 -24.4750
v 813.0000 0.0000 -24.4750
v 813.0000 1.7000 -25.0250
v 814.0000 1.7000 -25.0250
v 814.0000 1.7000 -24.4750
v 813.0000 1.7000 -24.4750
v 813.0500 1.4900 -25.0650
v 813.9500 1.4900 -25.0650
v 813.9500 1.4900 -25.0350
v 813.0500 1.4900 -25.0350
v 813.0500 1.6100 -25.0650
v 813.9500 1.6100 -25.0650
v 813.9500 1.6100 -25.0350
v 813.0500 1.6100 -25.0350
v 831.0000 0.0000 -25.0250
v 832.0000 0.0000 -25.0250
v 832.0000 0.0000 -24.4750
v 831.0000 0.0000 -24.4750
v 831.0000 1.7000 -25.0250
v 832.0000 1.7000 -25.0250
v 832.0000 1.7000 -24.4750
v 831.0000 1.7000 -24.4750
v 831.0500 1.4900 -25.0650
v 831.9500 1.4900 -25.0650
v 831.9500 1.4900 -25.0350
v 831.0500 1.4900 -25.0350
v 831.0500 1.6100 -25.0650
v 831.9500 1.6100 -25.0650
v 831.9500 1.6100 -25.0350
v 831.0500 1.6100 -25.0350
v 822.0000 0.0000 -22.7750
v 823.0000 0.0000 -22.7750
v 823.0000 0.0000 -22.2250
v 822.0000 0.0000 -22.2250
v 822.0000 1.7000 -22.7750
v 823.0000 1.7000 -22.7750
v 823.0000 1.7000 -22.2250
v 822.0000 1.7000 -22.2250
v 822.0500 1.4900 -22.8150
v 822.9500 1.4900 -22.8150
v 822.9500 1.4900 -22.7850
v 822.0500 1.4900 -22.7850
v 822.0500 1.6100 -22.8150
v 822.9500 1.6100 -22.8150
v 822.9500 1.6100 -22.7850
v 822.0500 1.6100 -22.7850
v 826.5000 0.0000 -22.7750
v 827.5000 0.0000 -22.7750
v 827.5000 0.0000 -22.2250
v 826.5000 0.0000 -22.2250
v 826.5000 1.7000 -22.7750
v 827.5000 1.7000 -22.7750
v 827.5000 1.7000 -22.2250
v 826.5000 1.7000 -22.2250
v 826.5500 1.4900 -22.8150
v 827.4500 1.4900 -22.8150
v 827.4500 1.4900 -22.7850
v 826.5500 1.4900 -22.7850
v 826.5500 1.6100 -22.8150
v 827.4500 1.6100 -22.8150
v 827.4500 1.6100 -22.7850
v 826.5500 1.6100 -22.7850
v 835.5000 0.0000 -20.5250
v 836.5000 0.0000 -20.5250
v 836.5000 0.0000 -19.9750
v 835.5000 0.0000 -19.9750
v 835.5000 1.7000 -20.5250
v 836.5000 1.7000 -20.5250
v 836.5000 1.7000 -19.9750
v 835.5000 1.7000 -19.9750
v 835.5500 1.4900 -20.5650
v 836.4500 1.4900 -20.5650
v 836.4500 1.4900 -20.5350
v 835.5500 1.4900 -20.5350
v 835.5500 1.6100 -20.5650
v 836.4500 1.6100 -20.5650
v 836.4500 1.6100 -20.5350
v 835.5500 1.6100 -20.5350
v 813.0000 0.0000 -18.2750
v 814.0000 0.0000 -18.2750
v 814.0000 0.0000 -17.7250
v 813.0000 0.0000 -17.7250
v 813.0000 1.7000 -18.2750
v 814.0000 1.7000 -18.2750
v 814.0000 1.7000 -17.7250
v 813.0000 1.7000 -17.7250
v 813.0500 1.4900 -18.3150
v 813.9500 1.4900 -18.3150
v 813.9500 1.4900 -18.2850
v 813.0500 1.4900 -18.2850
v 813.0500 1.6100 -18.3150
v 813.9500 1.6100 -18.3150
v 813.9500 1.6100 -18.2850
v 813.0500 1.6100 -18.2850
v 819.7500 0.0000 -18.2750
v 820.7500 0.0000 -18.2750
v 820.7500 0.0000 -17.7250
v 819.7500 0.0000 -17.7250
v 819.7500 1.7000 -18.2750
v 820.7500 1.7000 -18.2750
v 820.7500 1.7000 -17.7250
v 819.7500 1.7000 -17.7250
v 819.8000 1.4900 -18.3150
v 820.7000 1.4900 -18.3150
v 820.7000 1.4900 -18.2850
v 819.8000 1.4900 -18.2850
v 819.8000 1.6100 -18.3150
v 820.7000 1.6100 -18.3150
v 820.7000 1.6100 -18.2850
v 819.8000 1.6100 -18.2850
v 811.3700 2.6000 -24.7500
v 811.3700 2.6000 -24.7500
v 811.3349 2.6000 -24.6651
v 811.3349 2.6000 -24.6651
v 811.2500 2.6000 -24.6300
v 811.2500 2.6000 -24.6300
v 811.1651 2.6000 -24.6651
v 811.1651 2.6000 -24.6651
v 811.1300 2.6000 -24.7500
v 811.1300 2.6000 -24.7500
v 811.1651 2.6000 -24.8349
v 811.1651 2.6000 -24.8349
v 811.2500 2.6000 -24.8700
v 811.2500 2.6000 -24.8700
v 811.3349 2.6000 -24.8349
v 811.3349 2.6000 -24.8349
v 811.2500 2.6000 -24.7500
v 811.2500 2.6000 -24.7500
v 811.2500 2.4800 -24.8700
v 836.0000 2.4800 -24.8700
v 836.0000 2.4800 -24.6300
v 811.2500 2.4800 -24.6300
v 811.2500 2.7200 -24.8700
v 836.0000 2.7200 -24.8700
v 836.0000 2.7200 -24.6300
v 811.2500 2.7200 -24.6300
v 811.3700 2.6000 -20.2500
v 811.3700 2.6000 -20.2500
v 811.3349 2.6000 -20.1651
v 811.3349 2.6000 -20.1651
v 811.2500 2.6000 -20.1300
v 811.2500 2.6000 -20.1300
v 811.1651 2.6000 -20.1651
v 811.1651 2.6000 -20.1651
v 811.1300 2.6000 -20.2500
v 811.1300 2.6000 -20.2500
v 811.1651 2.6000 -20.3349
v 811.1651 2.6000 -20.3349
v 811.2500 2.6000 -20.3700
v 811.2500 2.6000 -20.3700
v 811.3349 2.6000 -20.3349
v 811.3349 2.6000 -20.3349
v 811.2500 2.6000 -20.2500
v 811.2500 2.6000 -20.2500
v 811.2500 2.4800 -20.3700
v 836.0000 2.4800 -20.3700
v 836.0000 2.4800 -20.1300
v 811.2500 2.4800 -20.1300
v 811.2500 2.7200 -20.3700
v 836.0000 2.7200 -20.3700
v 836.0000 2.7200 -20.1300
v 811.2500 2.7200 -20.1300
vt 339.3542 -17.4167
vt 339.3542 -16.3333
vt 340.4375 -16.3333
vt 340.4375 -17.4167
vt 339.3542 -17.4167
vt 340.4375 -17.4167
vt 340.4375 -16.3333
vt 339.3542 -16.3333
vt 339.3542 0.0000
vt 340.4375 0.0000
vt 340.4375 1.2500
vt 339.3542 1.2500
vt 340.4375 0.0000
vt 339.3542 0.0000
vt 339.3542 1.2500
vt 340.4375 1.2500
vt -17.4167 0.0000
vt -16.3333 0.0000
vt -16.3333 1.2500
vt -17.4167 1.2500
vt -16.3333 0.0000
vt -17.4167 0.0000
vt -17.4167 1.2500
vt -16.3333 1.2500
vt 337.4792 -16.4792
vt 337.4792 -15.3958
vt 338.5625 -15.3958
vt 338.5625 -16.4792
vt 337.4792 -16.4792
vt 338.5625 -16.4792
vt 338.5625 -15.3958
vt 337.4792 -15.3958
vt 337.4792 0.0000
vt 338.5625 0.0000
vt 338.5625 1.2500
vt 337.4792 1.2500
vt 338.5625 0.0000
vt 337.4792 0.0000
vt 337.4792 1.2500
vt 338.5625 1.2500
vt -16.4792 0.0000
vt -15.3958 0.0000
vt -15.3958 1.2500
vt -16.4792 1.2500
vt -15.3958 0.0000
vt -16.4792 0.0000
vt -16.4792 1.2500
vt -15.3958 1.2500
vt 339.3542 -16.4792
vt 339.3542 -15.3958
vt 340.4375 -15.3958
vt 340.4375 -16.4792
vt 339.3542 -16.4792
vt 340.4375 -16.4792
vt 340.4375 -15.3958
vt 339.3542 -15.3958
vt 339.3542 0.0000
vt 340.4375 0.0000
vt 340.4375 1.2500
vt 339.3542 1.2500
vt 340.4375 0.0000
vt 339.3542 0.0000
vt 339.3542 1.2500
vt 340.4375 1.2500
vt -16.4792 0.0000
vt -15.3958 0.0000
vt -15.3958 1.2500
vt -16.4792 1.2500
vt -15.3958 0.0000
vt -16.4792 0.0000
vt -16.4792 1.2500
vt -15.3958 1.2500
vt 341.2292 -16.4792
vt 341.2292 -15.3958
vt 342.3125 -15.3958
vt 342.3125 -16.4792
vt 341.2292 -16.4792
vt 342.3125 -16.4792
vt 342.3125 -15.3958
vt 341.2292 -15.3958
vt 341.2292 0.0000
vt 342.3125 0.0000
vt 342.3125 1.2500
vt 341.2292 1.2500
vt 342.3125 0.0000
vt 341.2292 0.0000
vt 341.2292 1.2500
vt 342.3125 1.2500
vt -16.4792 0.0000
vt -15.3958 0.0000
vt -15.3958 1.2500
vt -16.4792 1.2500
vt -15.3958 0.0000
vt -16.4792 0.0000
vt -16.4792 1.2500
vt -15.3958 1.2500
vt 343.1042 -16.4792
vt 343.1042 -15.3958
vt 344.1875 -15.3958
vt 344.1875 -16.4792
vt 343.1042 -16.4792
vt 344.1875 -16.4792
vt 344.1875 -15.3958
vt 343.1042 -15.3958
vt 343.1042 0.0000
vt 344.1875 0.0000
vt 344.1875 1.2500
vt 343.1042 1.2500
vt 344.1875 0.0000
vt 343.1042 0.0000
vt 343.1042 1.2500
vt 344.1875 1.2500
vt -16.4792 0.0000
vt -15.3958 0.0000
vt -15.3958 1.2500
vt -16.4792 1.2500
vt -15.3958 0.0000
vt -16.4792 0.0000
vt -16.4792 1.2500
vt -15.3958 1.2500
vt 344.9792 -16.4792
vt 344.9792 -15.3958
vt 346.0625 -15.3958
vt 346.0625 -16.4792
vt 344.9792 -16.4792
vt 346.0625 -16.4792
vt 346.0625 -15.3958
vt 344.9792 -15.3958
vt 344.9792 0.0000
vt 346.0625 0.0000
vt 346.0625 1.2500
vt 344.9792 1.2500
vt 346.0625 0.0000
vt 344.9792 0.0000
vt 344.9792 1.2500
vt 346.0625 1.2500
vt -16.4792 0.0000
vt -15.3958 0.0000
vt -15.3958 1.2500
vt -16.4792 1.2500
vt -15.3958 0.0000
vt -16.4792 0.0000
vt -16.4792 1.2500
vt -15.3958 1.2500
vt 345.9167 -16.4792
vt 345.9167 -15.3958
vt 347.0000 -15.3958
vt 347.0000 -16.4792
vt 345.9167 -16.4792
vt 347.0000 -16.4792
vt 347.0000 -15.3958
vt 345.9167 -15.3958
vt 345.9167 0.0000
vt 347.0000 0.0000
vt 347.0000 1.2500
vt 345.9167 1.2500
vt 347.0000 0.0000
vt 345.9167 0.0000
vt 345.9167 1.2500
vt 347.0000 1.2500
vt -16.4792 0.0000
vt -15.3958 0.0000
vt -15.3958 1.2500
vt -16.4792 1.2500
vt -15.3958 0.0000
vt -16.4792 0.0000
vt -16.4792 1.2500
vt -15.3958 1.2500
vt 346.8542 -16.4792
vt 346.8542 -15.3958
vt 347.9375 -15.3958
vt 347.9375 -16.4792
vt 346.8542 -16.4792
vt 347.9375 -16.4792
vt 347.9375 -15.3958
vt 346.8542 -15.3958
vt 346.8542 0.0000
vt 347.9375 0.0000
vt 347.9375 1.2500
vt 346.8542 1.2500
vt 347.9375 0.0000
vt 346.8542 0.0000
vt 346.8542 1.2500
vt 347.9375 1.2500
vt -16.4792 0.0000
vt -15.3958 0.0000
vt -15.3958 1.2500
vt -16.4792 1.2500
vt -15.3958 0.0000
vt -16.4792 0.0000
vt -16.4792 1.2500
vt -15.3958 1.2500
vt 347.7917 -16.4792
vt 347.7917 -15.3958
vt 348.8750 -15.3958
vt 348.8750 -16.4792
vt 347.7917 -16.4792
vt 348.8750 -16.4792
vt 348.8750 -15.3958
vt 347.7917 -15.3958
vt 347.7917 0.0000
vt 348.8750 0.0000
vt 348.8750 1.2500
vt 347.7917 1.2500
vt 348.8750 0.0000
vt 347.7917 0.0000
vt 347.7917 1.2500
vt 348.8750 1.2500
vt -16.4792 0.0000
vt -15.3958 0.0000
vt -15.3958 1.2500
vt -16.4792 1.2500
vt -15.3958 0.0000
vt -16.4792 0.0000
vt -16.4792 1.2500
vt -15.3958 1.2500
vt 339.3542 -15.5417
vt 339.3542 -14.4583
vt 340.4375 -14.4583
vt 340.4375 -15.5417
vt 339.3542 -15.5417
vt 340.4375 -15.5417
vt 340.4375 -14.4583
vt 339.3542 -14.4583
vt 339.3542 0.0000
vt 340.4375 0.0000
vt 340.4375 1.2500
vt 339.3542 1.2500
vt 340.4375 0.0000
vt 339.3542 0.0000
vt 339.3542 1.2500
vt 340.4375 1.2500
vt -15.5417 0.0000
vt -14.4583 0.0000
vt -14.4583 1.2500
vt -15.5417 1.2500
vt -14.4583 0.0000
vt -15.5417 0.0000
vt -15.5417 1.2500
vt -14.4583 1.2500
vt 341.2292 -15.5417
vt 341.2292 -14.4583
vt 342.3125 -14.4583
vt 342.3125 -15.5417
vt 341.2292 -15.5417
vt 342.3125 -15.5417
vt 342.3125 -14.4583
vt 341.2292 -14.4583
vt 341.2292 0.0000
vt 342.3125 0.0000
vt 342.3125 1.2500
vt 341.2292 1.2500
vt 342.3125 0.0000
vt 341.2292 0.0000
vt 341.2292 1.2500
vt 342.3125 1.2500
vt -15.5417 0.0000
vt -14.4583 0.0000
vt -14.4583 1.2500
vt -15.5417 1.2500
vt -14.4583 0.0000
vt -15.5417 0.0000
vt -15.5417 1.2500
vt -14.4583 1.2500
vt 337.4792 -14.6042
vt 337.4792 -13.5208
vt 338.5625 -13.5208
vt 338.5625 -14.6042
vt 337.4792 -14.6042
vt 338.5625 -14.6042
vt 338.5625 -13.5208
vt 337.4792 -13.5208
vt 337.4792 0.0000
vt 338.5625 0.0000
vt 338.5625 1.2500
vt 337.4792 1.2500
vt 338.5625 0.0000
vt 337.4792 0.0000
vt 337.4792 1.2500
vt 338.5625 1.2500
vt -14.6042 0.0000
vt -13.5208 0.0000
vt -13.5208 1.2500
vt -14.6042 1.2500
vt -13.5208 0.0000
vt -14.6042 0.0000
vt -14.6042 1.2500
vt -13.5208 1.2500
vt 339.3542 -14.6042
vt 339.3542 -13.5208
vt 340.4375 -13.5208
vt 340.4375 -14.6042
vt 339.3542 -14.6042
vt 340.4375 -14.6042
vt 340.4375 -13.5208
vt 339.3542 -13.5208
vt 339.3542 0.0000
vt 340.4375 0.0000
vt 340.4375 1.2500
vt 339.3542 1.2500
vt 340.4375 0.0000
vt 339.3542 0.0000
vt 339.3542 1.2500
vt 340.4375 1.2500
vt -14.6042 0.0000
vt -13.5208 0.0000
vt -13.5208 1.2500
vt -14.6042 1.2500
vt -13.5208 0.0000
vt -14.6042 0.0000
vt -14.6042 1.2500
vt -13.5208 1.2500
vt 341.2292 -14.6042
vt 341.2292 -13.5208
vt 342.3125 -13.5208
vt 342.3125 -14.6042
vt 341.2292 -14.6042
vt 342.3125 -14.6042
vt 342.3125 -13.5208
vt 341.2292 -13.5208
vt 341.2292 0.0000
vt 342.3125 0.0000
vt 342.3125 1.2500
vt 341.2292 1.2500
vt 342.3125 0.0000
vt 341.2292 0.0000
vt 341.2292 1.2500
vt 342.3125 1.2500
vt -14.6042 0.0000
vt -13.5208 0.0000
vt -13.5208 1.2500
vt -14.6042 1.2500
vt -13.5208 0.0000
vt -14.6042 0.0000
vt -14.6042 1.2500
vt -13.5208 1.2500
vt 342.1667 -14.6042
vt 342.1667 -13.5208
vt 343.2500 -13.5208
vt 343.2500 -14.6042
vt 342.1667 -14.6042
vt 343.2500 -14.6042
vt 343.2500 -13.5208
vt 342.1667 -13.5208
vt 342.1667 0.0000
vt 343.2500 0.0000
vt 343.2500 1.2500
vt 342.1667 1.2500
vt 343.2500 0.0000
vt 342.1667 0.0000
vt 342.1667 1.2500
vt 343.2500 1.2500
vt -14.6042 0.0000
vt -13.5208 0.0000
vt -13.5208 1.2500
vt -14.6042 1.2500
vt -13.5208 0.0000
vt -14.6042 0.0000
vt -14.6042 1.2500
vt -13.5208 1.2500
vt 343.1042 -14.6042
vt 343.1042 -13.5208
vt 344.1875 -13.5208
vt 344.1875 -14.6042
vt 343.1042 -14.6042
vt 344.1875 -14.6042
vt 344.1875 -13.5208
vt 343.1042 -13.5208
vt 343.1042 0.0000
vt 344.1875 0.0000
vt 344.1875 1.2500
vt 343.1042 1.2500
vt 344.1875 0.0000
vt 343.1042 0.0000
vt 343.1042 1.2500
vt 344.1875 1.2500
vt -14.6042 0.0000
vt -13.5208 0.0000
vt -13.5208 1.2500
vt -14.6042 1.2500
vt -13.5208 0.0000
vt -14.6042 0.0000
vt -14.6042 1.2500
vt -13.5208 1.2500
vt 344.0417 -14.6042
vt 344.0417 -13.5208
vt 345.1250 -13.5208
vt 345.1250 -14.6042
vt 344.0417 -14.6042
vt 345.1250 -14.6042
vt 345.1250 -13.5208
vt 344.0417 -13.5208
vt 344.0417 0.0000
vt 345.1250 0.0000
vt 345.1250 1.2500
vt 344.0417 1.2500
vt 345.1250 0.0000
vt 344.0417 0.0000
vt 344.0417 1.2500
vt 345.1250 1.2500
vt -14.6042 0.0000
vt -13.5208 0.0000
vt -13.5208 1.2500
vt -14.6042 1.2500
vt -13.5208 0.0000
vt -14.6042 0.0000
vt -14.6042 1.2500
vt -13.5208 1.2500
vt 344.9792 -14.6042
vt 344.9792 -13.5208
vt 346.0625 -13.5208
vt 346.0625 -14.6042
vt 344.9792 -14.6042
vt 346.0625 -14.6042
vt 346.0625 -13.5208
vt 344.9792 -13.5208
vt 344.9792 0.0000
vt 346.0625 0.0000
vt 346.0625 1.2500
vt 344.9792 1.2500
vt 346.0625 0.0000
vt 344.9792 0.0000
vt 344.9792 1.2500
vt 346.0625 1.2500
vt -14.6042 0.0000
vt -13.5208 0.0000
vt -13.5208 1.2500
vt -14.6042 1.2500
vt -13.5208 0.0000
vt -14.6042 0.0000
vt -14.6042 1.2500
vt -13.5208 1.2500
vt 345.9167 -14.6042
vt 345.9167 -13.5208
vt 347.0000 -13.5208
vt 347.0000 -14.6042
vt 345.9167 -14.6042
vt 347.0000 -14.6042
vt 347.0000 -13.5208
vt 345.9167 -13.5208
vt 345.9167 0.0000
vt 347.0000 0.0000
vt 347.0000 1.2500
vt 345.9167 1.2500
vt 347.0000 0.0000
vt 345.9167 0.0000
vt 345.9167 1.2500
vt 347.0000 1.2500
vt -14.6042 0.0000
vt -13.5208 0.0000
vt -13.5208 1.2500
vt -14.6042 1.2500
vt -13.5208 0.0000
vt -14.6042 0.0000
vt -14.6042 1.2500
vt -13.5208 1.2500
vt 346.8542 -14.6042
vt 346.8542 -13.5208
vt 347.9375 -13.5208
vt 347.9375 -14.6042
vt 346.8542 -14.6042
vt 347.9375 -14.6042
vt 347.9375 -13.5208
vt 346.8542 -13.5208
vt 346.8542 0.0000
vt 347.9375 0.0000
vt 347.9375 1.2500
vt 346.8542 1.2500
vt 347.9375 0.0000
vt 346.8542 0.0000
vt 346.8542 1.2500
vt 347.9375 1.2500
vt -14.6042 0.0000
vt -13.5208 0.0000
vt -13.5208 1.2500
vt -14.6042 1.2500
vt -13.5208 0.0000
vt -14.6042 0.0000
vt -14.6042 1.2500
vt -13.5208 1.2500
vt 337.4792 -13.6667
vt 337.4792 -12.5833
vt 338.5625 -12.5833
vt 338.5625 -13.6667
vt 337.4792 -13.6667
vt 338.5625 -13.6667
vt 338.5625 -12.5833
vt 337.4792 -12.5833
vt 337.4792 0.0000
vt 338.5625 0.0000
vt 338.5625 1.2500
vt 337.4792 1.2500
vt 338.5625 0.0000
vt 337.4792 0.0000
vt 337.4792 1.2500
vt 338.5625 1.2500
vt -13.6667 0.0000
vt -12.5833 0.0000
vt -12.5833 1.2500
vt -13.6667 1.2500
vt -12.5833 0.0000
vt -13.6667 0.0000
vt -13.6667 1.2500
vt -12.5833 1.2500
vt 341.2292 -13.6667
vt 341.2292 -12.5833
vt 342.3125 -12.5833
vt 342.3125 -13.6667
vt 341.2292 -13.6667
vt 342.3125 -13.6667
vt 342.3125 -12.5833
vt 341.2292 -12.5833
vt 341.2292 0.0000
vt 342.3125 0.0000
vt 342.3125 1.2500
vt 341.2292 1.2500
vt 342.3125 0.0000
vt 341.2292 0.0000
vt 341.2292 1.2500
vt 342.3125 1.2500
vt -13.6667 0.0000
vt -12.5833 0.0000
vt -12.5833 1.2500
vt -13.6667 1.2500
vt -12.5833 0.0000
vt -13.6667 0.0000
vt -13.6667 1.2500
vt -12.5833 1.2500
vt 346.8542 -13.6667
vt 346.8542 -12.5833
vt 347.9375 -12.5833
vt 347.9375 -13.6667
vt 346.8542 -13.6667
vt 347.9375 -13.6667
vt 347.9375 -12.5833
vt 346.8542 -12.5833
vt 346.8542 0.0000
vt 347.9375 0.0000
vt 347.9375 1.2500
vt 346.8542 1.2500
vt 347.9375 0.0000
vt 346.8542 0.0000
vt 346.8542 1.2500
vt 347.9375 1.2500
vt -13.6667 0.0000
vt -12.5833 0.0000
vt -12.5833 1.2500
vt -13.6667 1.2500
vt -12.5833 0.0000
vt -13.6667 0.0000
vt -13.6667 1.2500
vt -12.5833 1.2500
vt 337.4792 -12.7292
vt 337.4792 -11.6458
vt 338.5625 -11.6458
vt 338.5625 -12.7292
vt 337.4792 -12.7292
vt 338.5625 -12.7292
vt 338.5625 -11.6458
vt 337.4792 -11.6458
vt 337.4792 0.0000
vt 338.5625 0.0000
vt 338.5625 1.2500
vt 337.4792 1.2500
vt 338.5625 0.0000
vt 337.4792 0.0000
vt 337.4792 1.2500
vt 338.5625 1.2500
vt -12.7292 0.0000
vt -11.6458 0.0000
vt -11.6458 1.2500
vt -12.7292 1.2500
vt -11.6458 0.0000
vt -12.7292 0.0000
vt -12.7292 1.2500
vt -11.6458 1.2500
vt 339.3542 -12.7292
vt 339.3542 -11.6458
vt 340.4375 -11.6458
vt 340.4375 -12.7292
vt 339.3542 -12.7292
vt 340.4375 -12.7292
vt 340.4375 -11.6458
vt 339.3542 -11.6458
vt 339.3542 0.0000
vt 340.4375 0.0000
vt 340.4375 1.2500
vt 339.3542 1.2500
vt 340.4375 0.0000
vt 339.3542 0.0000
vt 339.3542 1.2500
vt 340.4375 1.2500
vt -12.7292 0.0000
vt -11.6458 0.0000
vt -11.6458 1.2500
vt -12.7292 1.2500
vt -11.6458 0.0000
vt -12.7292 0.0000
vt -12.7292 1.2500
vt -11.6458 1.2500
vt 340.2917 -12.7292
vt 340.2917 -11.6458
vt 341.3750 -11.6458
vt 341.3750 -12.7292
vt 340.2917 -12.7292
vt 341.3750 -12.7292
vt 341.3750 -11.6458
vt 340.2917 -11.6458
vt 340.2917 0.0000
vt 341.3750 0.0000
vt 341.3750 1.2500
vt 340.2917 1.2500
vt 341.3750 0.0000
vt 340.2917 0.0000
vt 340.2917 1.2500
vt 341.3750 1.2500
vt -12.7292 0.0000
vt -11.6458 0.0000
vt -11.6458 1.2500
vt -12.7292 1.2500
vt -11.6458 0.0000
vt -12.7292 0.0000
vt -12.7292 1.2500
vt -11.6458 1.2500
vt 341.2292 -12.7292
vt 341.2292 -11.6458
vt 342.3125 -11.6458
vt 342.3125 -12.7292
vt 341.2292 -12.7292
vt 342.3125 -12.7292
vt 342.3125 -11.6458
vt 341.2292 -11.6458
vt 341.2292 0.0000
vt 342.3125 0.0000
vt 342.3125 1.2500
vt 341.2292 1.2500
vt 342.3125 0.0000
vt 341.2292 0.0000
vt 341.2292 1.2500
vt 342.3125 1.2500
vt -12.7292 0.0000
vt -11.6458 0.0000
vt -11.6458 1.2500
vt -12.7292 1.2500
vt -11.6458 0.0000
vt -12.7292 0.0000
vt -12.7292 1.2500
vt -11.6458 1.2500
vt 344.9792 -12.7292
vt 344.9792 -11.6458
vt 346.0625 -11.6458
vt 346.0625 -12.7292
vt 344.9792 -12.7292
vt 346.0625 -12.7292
vt 346.0625 -11.6458
vt 344.9792 -11.6458
vt 344.9792 0.0000
vt 346.0625 0.0000
vt 346.0625 1.2500
vt 344.9792 1.2500
vt 346.0625 0.0000
vt 344.9792 0.0000
vt 344.9792 1.2500
vt 346.0625 1.2500
vt -12.7292 0.0000
vt -11.6458 0.0000
vt -11.6458 1.2500
vt -12.7292 1.2500
vt -11.6458 0.0000
vt -12.7292 0.0000
vt -12.7292 1.2500
vt -11.6458 1.2500
vt 346.8542 -12.7292
vt 346.8542 -11.6458
vt 347.9375 -11.6458
vt 347.9375 -12.7292
vt 346.8542 -12.7292
vt 347.9375 -12.7292
vt 347.9375 -11.6458
vt 346.8542 -11.6458
vt 346.8542 0.0000
vt 347.9375 0.0000
vt 347.9375 1.2500
vt 346.8542 1.2500
vt 347.9375 0.0000
vt 346.8542 0.0000
vt 346.8542 1.2500
vt 347.9375 1.2500
vt -12.7292 0.0000
vt -11.6458 0.0000
vt -11.6458 1.2500
vt -12.7292 1.2500
vt -11.6458 0.0000
vt -12.7292 0.0000
vt -12.7292 1.2500
vt -11.6458 1.2500
vt 341.2292 -11.7917
vt 341.2292 -10.7083
vt 342.3125 -10.7083
vt 342.3125 -11.7917
vt 341.2292 -11.7917
vt 342.3125 -11.7917
vt 342.3125 -10.7083
vt 341.2292 -10.7083
vt 341.2292 0.0000
vt 342.3125 0.0000
vt 342.3125 1.2500
vt 341.2292 1.2500
vt 342.3125 0.0000
vt 341.2292 0.0000
vt 341.2292 1.2500
vt 342.3125 1.2500
vt -11.7917 0.0000
vt -10.7083 0.0000
vt -10.7083 1.2500
vt -11.7917 1.2500
vt -10.7083 0.0000
vt -11.7917 0.0000
vt -11.7917 1.2500
vt -10.7083 1.2500
vt 344.9792 -11.7917
vt 344.9792 -10.7083
vt 346.0625 -10.7083
vt 346.0625 -11.7917
vt 344.9792 -11.7917
vt 346.0625 -11.7917
vt 346.0625 -10.7083
vt 344.9792 -10.7083
vt 344.9792 0.0000
vt 346.0625 0.0000
vt 346.0625 1.2500
vt 344.9792 1.2500
vt 346.0625 0.0000
vt 344.9792 0.0000
vt 344.9792 1.2500
vt 346.0625 1.2500
vt -11.7917 0.0000
vt -10.7083 0.0000
vt -10.7083 1.2500
vt -11.7917 1.2500
vt -10.7083 0.0000
vt -11.7917 0.0000
vt -11.7917 1.2500
vt -10.7083 1.2500
vt 346.8542 -11.7917
vt 346.8542 -10.7083
vt 347.9375 -10.7083
vt 347.9375 -11.7917
vt 346.8542 -11.7917
vt 347.9375 -11.7917
vt 347.9375 -10.7083
vt 346.8542 -10.7083
vt 346.8542 0.0000
vt 347.9375 0.0000
vt 347.9375 1.2500
vt 346.8542 1.2500
vt 347.9375 0.0000
vt 346.8542 0.0000
vt 346.8542 1.2500
vt 347.9375 1.2500
vt -11.7917 0.0000
vt -10.7083 0.0000
vt -10.7083 1.2500
vt -11.7917 1.2500
vt -10.7083 0.0000
vt -11.7917 0.0000
vt -11.7917 1.2500
vt -10.7083 1.2500
vt 337.4792 -10.8542
vt 337.4792 -9.7708
vt 338.5625 -9.7708
vt 338.5625 -10.8542
vt 337.4792 -10.8542
vt 338.5625 -10.8542
vt 338.5625 -9.7708
vt 337.4792 -9.7708
vt 337.4792 0.0000
vt 338.5625 0.0000
vt 338.5625 1.2500
vt 337.4792 1.2500
vt 338.5625 0.0000
vt 337.4792 0.0000
vt 337.4792 1.2500
vt 338.5625 1.2500
vt -10.8542 0.0000
vt -9.7708 0.0000
vt -9.7708 1.2500
vt -10.8542 1.2500
vt -9.7708 0.0000
vt -10.8542 0.0000
vt -10.8542 1.2500
vt -9.7708 1.2500
vt 339.3542 -10.8542
vt 339.3542 -9.7708
vt 340.4375 -9.7708
vt 340.4375 -10.8542
vt 339.3542 -10.8542
vt 340.4375 -10.8542
vt 340.4375 -9.7708
vt 339.3542 -9.7708
vt 339.3542 0.0000
vt 340.4375 0.0000
vt 340.4375 1.2500
vt 339.3542 1.2500
vt 340.4375 0.0000
vt 339.3542 0.0000
vt 339.3542 1.2500
vt 340.4375 1.2500
vt -10.8542 0.0000
vt -9.7708 0.0000
vt -9.7708 1.2500
vt -10.8542 1.2500
vt -9.7708 0.0000
vt -10.8542 0.0000
vt -10.8542 1.2500
vt -9.7708 1.2500
vt 341.2292 -10.8542
vt 341.2292 -9.7708
vt 342.3125 -9.7708
vt 342.3125 -10.8542
vt 341.2292 -10.8542
vt 342.3125 -10.8542
vt 342.3125 -9.7708
vt 341.2292 -9.7708
vt 341.2292 0.0000
vt 342.3125 0.0000
vt 342.3125 1.2500
vt 341.2292 1.2500
vt 342.3125 0.0000
vt 341.2292 0.0000
vt 341.2292 1.2500
vt 342.3125 1.2500
vt -10.8542 0.0000
vt -9.7708 0.0000
vt -9.7708 1.2500
vt -10.8542 1.2500
vt -9.7708 0.0000
vt -10.8542 0.0000
vt -10.8542 1.2500
vt -9.7708 1.2500
vt 342.1667 -10.8542
vt 342.1667 -9.7708
vt 343.2500 -9.7708
vt 343.2500 -10.8542
vt 342.1667 -10.8542
vt 343.2500 -10.8542
vt 343.2500 -9.7708
vt 342.1667 -9.7708
vt 342.1667 0.0000
vt 343.2500 0.0000
vt 343.2500 1.2500
vt 342.1667 1.2500
vt 343.2500 0.0000
vt 342.1667 0.0000
vt 342.1667 1.2500
vt 343.2500 1.2500
vt -10.8542 0.0000
vt -9.7708 0.0000
vt -9.7708 1.2500
vt -10.8542 1.2500
vt -9.7708 0.0000
vt -10.8542 0.0000
vt -10.8542 1.2500
vt -9.7708 1.2500
vt 343.1042 -10.8542
vt 343.1042 -9.7708
vt 344.1875 -9.7708
vt 344.1875 -10.8542
vt 343.1042 -10.8542
vt 344.1875 -10.8542
vt 344.1875 -9.7708
vt 343.1042 -9.7708
vt 343.1042 0.0000
vt 344.1875 0.0000
vt 344.1875 1.2500
vt 343.1042 1.2500
vt 344.1875 0.0000
vt 343.1042 0.0000
vt 343.1042 1.2500
vt 344.1875 1.2500
vt -10.8542 0.0000
vt -9.7708 0.0000
vt -9.7708 1.2500
vt -10.8542 1.2500
vt -9.7708 0.0000
vt -10.8542 0.0000
vt -10.8542 1.2500
vt -9.7708 1.2500
vt 344.9792 -10.8542
vt 344.9792 -9.7708
vt 346.0625 -9.7708
vt 346.0625 -10.8542
vt 344.9792 -10.8542
vt 346.0625 -10.8542
vt 346.0625 -9.7708
vt 344.9792 -9.7708
vt 344.9792 0.0000
vt 346.0625 0.0000
vt 346.0625 1.2500
vt 344.9792 1.2500
vt 346.0625 0.0000
vt 344.9792 0.0000
vt 344.9792 1.2500
vt 346.0625 1.2500
vt -10.8542 0.0000
vt -9.7708 0.0000
vt -9.7708 1.2500
vt -10.8542 1.2500
vt -9.7708 0.0000
vt -10.8542 0.0000
vt -10.8542 1.2500
vt -9.7708 1.2500
vt 346.8542 -10.8542
vt 346.8542 -9.7708
vt 347.9375 -9.7708
vt 347.9375 -10.8542
vt 346.8542 -10.8542
vt 347.9375 -10.8542
vt 347.9375 -9.7708
vt 346.8542 -9.7708
vt 346.8542 0.0000
vt 347.9375 0.0000
vt 347.9375 1.2500
vt 346.8542 1.2500
vt 347.9375 0.0000
vt 346.8542 0.0000
vt 346.8542 1.2500
vt 347.9375 1.2500
vt -10.8542 0.0000
vt -9.7708 0.0000
vt -9.7708 1.2500
vt -10.8542 1.2500
vt -9.7708 0.0000
vt -10.8542 0.0000
vt -10.8542 1.2500
vt -9.7708 1.2500
vt 347.7917 -10.8542
vt 347.7917 -9.7708
vt 348.8750 -9.7708
vt 348.8750 -10.8542
vt 347.7917 -10.8542
vt 348.8750 -10.8542
vt 348.8750 -9.7708
vt 347.7917 -9.7708
vt 347.7917 0.0000
vt 348.8750 0.0000
vt 348.8750 1.2500
vt 347.7917 1.2500
vt 348.8750 0.0000
vt 347.7917 0.0000
vt 347.7917 1.2500
vt 348.8750 1.2500
vt -10.8542 0.0000
vt -9.7708 0.0000
vt -9.7708 1.2500
vt -10.8542 1.2500
vt -9.7708 0.0000
vt -10.8542 0.0000
vt -10.8542 1.2500
vt -9.7708 1.2500
vt 339.3542 -9.9167
vt 339.3542 -8.8333
vt 340.4375 -8.8333
vt 340.4375 -9.9167
vt 339.3542 -9.9167
vt 340.4375 -9.9167
vt 340.4375 -8.8333
vt 339.3542 -8.8333
vt 339.3542 0.0000
vt 340.4375 0.0000
vt 340.4375 1.2500
vt 339.3542 1.2500
vt 340.4375 0.0000
vt 339.3542 0.0000
vt 339.3542 1.2500
vt 340.4375 1.2500
vt -9.9167 0.0000
vt -8.8333 0.0000
vt -8.8333 1.2500
vt -9.9167 1.2500
vt -8.8333 0.0000
vt -9.9167 0.0000
vt -9.9167 1.2500
vt -8.8333 1.2500
vt 344.9792 -9.9167
vt 344.9792 -8.8333
vt 346.0625 -8.8333
vt 346.0625 -9.9167
vt 344.9792 -9.9167
vt 346.0625 -9.9167
vt 346.0625 -8.8333
vt 344.9792 -8.8333
vt 344.9792 0.0000
vt 346.0625 0.0000
vt 346.0625 1.2500
vt 344.9792 1.2500
vt 346.0625 0.0000
vt 344.9792 0.0000
vt 344.9792 1.2500
vt 346.0625 1.2500
vt -9.9167 0.0000
vt -8.8333 0.0000
vt -8.8333 1.2500
vt -9.9167 1.2500
vt -8.8333 0.0000
vt -9.9167 0.0000
vt -9.9167 1.2500
vt -8.8333 1.2500
vt 337.4792 -8.9792
vt 337.4792 -7.8958
vt 338.5625 -7.8958
vt 338.5625 -8.9792
vt 337.4792 -8.9792
vt 338.5625 -8.9792
vt 338.5625 -7.8958
vt 337.4792 -7.8958
vt 337.4792 0.0000
vt 338.5625 0.0000
vt 338.5625 1.2500
vt 337.4792 1.2500
vt 338.5625 0.0000
vt 337.4792 0.0000
vt 337.4792 1.2500
vt 338.5625 1.2500
vt -8.9792 0.0000
vt -7.8958 0.0000
vt -7.8958 1.2500
vt -8.9792 1.2500
vt -7.8958 0.0000
vt -8.9792 0.0000
vt -8.9792 1.2500
vt -7.8958 1.2500
vt 338.4167 -8.9792
vt 338.4167 -7.8958
vt 339.5000 -7.8958
vt 339.5000 -8.9792
vt 338.4167 -8.9792
vt 339.5000 -8.9792
vt 339.5000 -7.8958
vt 338.4167 -7.8958
vt 338.4167 0.0000
vt 339.5000 0.0000
vt 339.5000 1.2500
vt 338.4167 1.2500
vt 339.5000 0.0000
vt 338.4167 0.0000
vt 338.4167 1.2500
vt 339.5000 1.2500
vt -8.9792 0.0000
vt -7.8958 0.0000
vt -7.8958 1.2500
vt -8.9792 1.2500
vt -7.8958 0.0000
vt -8.9792 0.0000
vt -8.9792 1.2500
vt -7.8958 1.2500
vt 339.3542 -8.9792
vt 339.3542 -7.8958
vt 340.4375 -7.8958
vt 340.4375 -8.9792
vt 339.3542 -8.9792
vt 340.4375 -8.9792
vt 340.4375 -7.8958
vt 339.3542 -7.8958
vt 339.3542 0.0000
vt 340.4375 0.0000
vt 340.4375 1.2500
vt 339.3542 1.2500
vt 340.4375 0.0000
vt 339.3542 0.0000
vt 339.3542 1.2500
vt 340.4375 1.2500
vt -8.9792 0.0000
vt -7.8958 0.0000
vt -7.8958 1.2500
vt -8.9792 1.2500
vt -7.8958 0.0000
vt -8.9792 0.0000
vt -8.9792 1.2500
vt -7.8958 1.2500
vt 340.2917 -8.9792
vt 340.2917 -7.8958
vt 341.3750 -7.8958
vt 341.3750 -8.9792
vt 340.2917 -8.9792
vt 341.3750 -8.9792
vt 341.3750 -7.8958
vt 340.2917 -7.8958
vt 340.2917 0.0000
vt 341.3750 0.0000
vt 341.3750 1.2500
vt 340.2917 1.2500
vt 341.3750 0.0000
vt 340.2917 0.0000
vt 340.2917 1.2500
vt 341.3750 1.2500
vt -8.9792 0.0000
vt -7.8958 0.0000
vt -7.8958 1.2500
vt -8.9792 1.2500
vt -7.8958 0.0000
vt -8.9792 0.0000
vt -8.9792 1.2500
vt -7.8958 1.2500
vt 341.2292 -8.9792
vt 341.2292 -7.8958
vt 342.3125 -7.8958
vt 342.3125 -8.9792
vt 341.2292 -8.9792
vt 342.3125 -8.9792
vt 342.3125 -7.8958
vt 341.2292 -7.8958
vt 341.2292 0.0000
vt 342.3125 0.0000
vt 342.3125 1.2500
vt 341.2292 1.2500
vt 342.3125 0.0000
vt 341.2292 0.0000
vt 341.2292 1.2500
vt 342.3125 1.2500
vt -8.9792 0.0000
vt -7.8958 0.0000
vt -7.8958 1.2500
vt -8.9792 1.2500
vt -7.8958 0.0000
vt -8.9792 0.0000
vt -8.9792 1.2500
vt -7.8958 1.2500
vt 344.9792 -8.9792
vt 344.9792 -7.8958
vt 346.0625 -7.8958
vt 346.0625 -8.9792
vt 344.9792 -8.9792
vt 346.0625 -8.9792
vt 346.0625 -7.8958
vt 344.9792 -7.8958
vt 344.9792 0.0000
vt 346.0625 0.0000
vt 346.0625 1.2500
vt 344.9792 1.2500
vt 346.0625 0.0000
vt 344.9792 0.0000
vt 344.9792 1.2500
vt 346.0625 1.2500
vt -8.9792 0.0000
vt -7.8958 0.0000
vt -7.8958 1.2500
vt -8.9792 1.2500
vt -7.8958 0.0000
vt -8.9792 0.0000
vt -8.9792 1.2500
vt -7.8958 1.2500
usemtl lamp_caged
f 1153 1156 1155 1154
f 1157 1158 1159 1160
f 1153 1154 1158 1157
f 1155 1156 1160 1159
f 1154 1155 1159 1158
f 1156 1153 1157 1160
usemtl steel
f 1161 1164 1163 1162
f 1165 1166 1167 1168
f 1161 1162 1166 1165
f 1163 1164 1168 1167
f 1162 1163 1167 1166
f 1164 1161 1165 1168
usemtl lamp_caged
f 1169 1172 1171 1170
f 1173 1174 1175 1176
f 1169 1170 1174 1173
f 1171 1172 1176 1175
f 1170 1171 1175 1174
f 1172 1169 1173 1176
usemtl steel
f 1177 1180 1179 1178
f 1181 1182 1183 1184
f 1177 1178 1182 1181
f 1179 1180 1184 1183
f 1178 1179 1183 1182
f 1180 1177 1181 1184
usemtl lamp_caged
f 1185 1188 1187 1186
f 1189 1190 1191 1192
f 1185 1186 1190 1189
f 1187 1188 1192 1191
f 1186 1187 1191 1190
f 1188 1185 1189 1192
usemtl steel
f 1193 1196 1195 1194
f 1197 1198 1199 1200
f 1193 1194 1198 1197
f 1195 1196 1200 1199
f 1194 1195 1199 1198
f 1196 1193 1197 1200
usemtl lamp_caged
f 1201 1204 1203 1202
f 1205 1206 1207 1208
f 1201 1202 1206 1205
f 1203 1204 1208 1207
f 1202 1203 1207 1206
f 1204 1201 1205 1208
usemtl steel
f 1209 1212 1211 1210
f 1213 1214 1215 1216
f 1209 1210 1214 1213
f 1211 1212 1216 1215
f 1210 1211 1215 1214
f 1212 1209 1213 1216
usemtl lamp_caged
f 1217 1220 1219 1218
f 1221 1222 1223 1224
f 1217 1218 1222 1221
f 1219 1220 1224 1223
f 1218 1219 1223 1222
f 1220 1217 1221 1224
usemtl steel
f 1225 1228 1227 1226
f 1229 1230 1231 1232
f 1225 1226 1230 1229
f 1227 1228 1232 1231
f 1226 1227 1231 1230
f 1228 1225 1229 1232
usemtl lamp_caged
f 1233 1236 1235 1234
f 1237 1238 1239 1240
f 1233 1234 1238 1237
f 1235 1236 1240 1239
f 1234 1235 1239 1238
f 1236 1233 1237 1240
usemtl steel
f 1241 1244 1243 1242
f 1245 1246 1247 1248
f 1241 1242 1246 1245
f 1243 1244 1248 1247
f 1242 1243 1247 1246
f 1244 1241 1245 1248
usemtl lamp_caged
f 1249 1252 1251 1250
f 1253 1254 1255 1256
f 1249 1250 1254 1253
f 1251 1252 1256 1255
f 1250 1251 1255 1254
f 1252 1249 1253 1256
usemtl steel
f 1257 1260 1259 1258
f 1261 1262 1263 1264
f 1257 1258 1262 1261
f 1259 1260 1264 1263
f 1258 1259 1263 1262
f 1260 1257 1261 1264
usemtl lamp_caged
f 1265 1268 1267 1266
f 1269 1270 1271 1272
f 1265 1266 1270 1269
f 1267 1268 1272 1271
f 1266 1267 1271 1270
f 1268 1265 1269 1272
usemtl steel
f 1273 1276 1275 1274
f 1277 1278 1279 1280
f 1273 1274 1278 1277
f 1275 1276 1280 1279
f 1274 1275 1279 1278
f 1276 1273 1277 1280
usemtl lamp_caged
f 1281 1284 1283 1282
f 1285 1286 1287 1288
f 1281 1282 1286 1285
f 1283 1284 1288 1287
f 1282 1283 1287 1286
f 1284 1281 1285 1288
usemtl steel
f 1289 1292 1291 1290
f 1293 1294 1295 1296
f 1289 1290 1294 1293
f 1291 1292 1296 1295
f 1290 1291 1295 1294
f 1292 1289 1293 1296
usemtl lamp_caged
f 1297 1300 1299 1298
f 1301 1302 1303 1304
f 1297 1298 1302 1301
f 1299 1300 1304 1303
f 1298 1299 1303 1302
f 1300 1297 1301 1304
usemtl steel
f 1305 1308 1307 1306
f 1309 1310 1311 1312
f 1305 1306 1310 1309
f 1307 1308 1312 1311
f 1306 1307 1311 1310
f 1308 1305 1309 1312
usemtl lamp_caged
f 1313 1316 1315 1314
f 1317 1318 1319 1320
f 1313 1314 1318 1317
f 1315 1316 1320 1319
f 1314 1315 1319 1318
f 1316 1313 1317 1320
usemtl steel
f 1321 1324 1323 1322
f 1325 1326 1327 1328
f 1321 1322 1326 1325
f 1323 1324 1328 1327
f 1322 1323 1327 1326
f 1324 1321 1325 1328
usemtl lamp_caged
f 1329 1332 1331 1330
f 1333 1334 1335 1336
f 1329 1330 1334 1333
f 1331 1332 1336 1335
f 1330 1331 1335 1334
f 1332 1329 1333 1336
usemtl steel
f 1337 1340 1339 1338
f 1341 1342 1343 1344
f 1337 1338 1342 1341
f 1339 1340 1344 1343
f 1338 1339 1343 1342
f 1340 1337 1341 1344
usemtl lamp_caged
f 1345 1348 1347 1346
f 1349 1350 1351 1352
f 1345 1346 1350 1349
f 1347 1348 1352 1351
f 1346 1347 1351 1350
f 1348 1345 1349 1352
usemtl steel
f 1353 1356 1355 1354
f 1357 1358 1359 1360
f 1353 1354 1358 1357
f 1355 1356 1360 1359
f 1354 1355 1359 1358
f 1356 1353 1357 1360
usemtl lamp_caged
f 1361 1364 1363 1362
f 1365 1366 1367 1368
f 1361 1362 1366 1365
f 1363 1364 1368 1367
f 1362 1363 1367 1366
f 1364 1361 1365 1368
usemtl steel
f 1369 1372 1371 1370
f 1373 1374 1375 1376
f 1369 1370 1374 1373
f 1371 1372 1376 1375
f 1370 1371 1375 1374
f 1372 1369 1373 1376
usemtl lamp_caged
f 1377 1380 1379 1378
f 1381 1382 1383 1384
f 1377 1378 1382 1381
f 1379 1380 1384 1383
f 1378 1379 1383 1382
f 1380 1377 1381 1384
usemtl steel
f 1385 1388 1387 1386
f 1389 1390 1391 1392
f 1385 1386 1390 1389
f 1387 1388 1392 1391
f 1386 1387 1391 1390
f 1388 1385 1389 1392
usemtl switchgear
f 1393 1396 1395 1394
f 1397 1398 1399 1400
f 1393 1394 1398 1397
f 1395 1396 1400 1399
f 1394 1395 1399 1398
f 1396 1393 1397 1400
usemtl warning
f 1401 1404 1403 1402
f 1405 1406 1407 1408
f 1401 1402 1406 1405
f 1403 1404 1408 1407
f 1402 1403 1407 1406
f 1404 1401 1405 1408
usemtl switchgear
f 1409 1412 1411 1410
f 1413 1414 1415 1416
f 1409 1410 1414 1413
f 1411 1412 1416 1415
f 1410 1411 1415 1414
f 1412 1409 1413 1416
usemtl warning
f 1417 1420 1419 1418
f 1421 1422 1423 1424
f 1417 1418 1422 1421
f 1419 1420 1424 1423
f 1418 1419 1423 1422
f 1420 1417 1421 1424
usemtl switchgear
f 1425 1428 1427 1426
f 1429 1430 1431 1432
f 1425 1426 1430 1429
f 1427 1428 1432 1431
f 1426 1427 1431 1430
f 1428 1425 1429 1432
usemtl warning
f 1433 1436 1435 1434
f 1437 1438 1439 1440
f 1433 1434 1438 1437
f 1435 1436 1440 1439
f 1434 1435 1439 1438
f 1436 1433 1437 1440
usemtl switchgear
f 1441 1444 1443 1442
f 1445 1446 1447 1448
f 1441 1442 1446 1445
f 1443 1444 1448 1447
f 1442 1443 1447 1446
f 1444 1441 1445 1448
usemtl warning
f 1449 1452 1451 1450
f 1453 1454 1455 1456
f 1449 1450 1454 1453
f 1451 1452 1456 1455
f 1450 1451 1455 1454
f 1452 1449 1453 1456
usemtl switchgear
f 1457 1460 1459 1458
f 1461 1462 1463 1464
f 1457 1458 1462 1461
f 1459 1460 1464 1463
f 1458 1459 1463 1462
f 1460 1457 1461 1464
usemtl warning
f 1465 1468 1467 1466
f 1469 1470 1471 1472
f 1465 1466 1470 1469
f 1467 1468 1472 1471
f 1466 1467 1471 1470
f 1468 1465 1469 1472
usemtl switchgear
f 1473 1476 1475 1474
f 1477 1478 1479 1480
f 1473 1474 1478 1477
f 1475 1476 1480 1479
f 1474 1475 1479 1478
f 1476 1473 1477 1480
usemtl warning
f 1481 1484 1483 1482
f 1485 1486 1487 1488
f 1481 1482 1486 1485
f 1483 1484 1488 1487
f 1482 1483 1487 1486
f 1484 1481 1485 1488
usemtl switchgear
f 1489 1492 1491 1490
f 1493 1494 1495 1496
f 1489 1490 1494 1493
f 1491 1492 1496 1495
f 1490 1491 1495 1494
f 1492 1489 1493 1496
usemtl warning
f 1497 1500 1499 1498
f 1501 1502 1503 1504
f 1497 1498 1502 1501
f 1499 1500 1504 1503
f 1498 1499 1503 1502
f 1500 1497 1501 1504
usemtl switchgear
f 1505 1508 1507 1506
f 1509 1510 1511 1512
f 1505 1506 1510 1509
f 1507 1508 1512 1511
f 1506 1507 1511 1510
f 1508 1505 1509 1512
usemtl warning
f 1513 1516 1515 1514
f 1517 1518 1519 1520
f 1513 1514 1518 1517
f 1515 1516 1520 1519
f 1514 1515 1519 1518
f 1516 1513 1517 1520
usemtl switchgear
f 1521 1524 1523 1522
f 1525 1526 1527 1528
f 1521 1522 1526 1525
f 1523 1524 1528 1527
f 1522 1523 1527 1526
f 1524 1521 1525 1528
usemtl warning
f 1529 1532 1531 1530
f 1533 1534 1535 1536
f 1529 1530 1534 1533
f 1531 1532 1536 1535
f 1530 1531 1535 1534
f 1532 1529 1533 1536
usemtl switchgear
f 1537 1540 1539 1538
f 1541 1542 1543 1544
f 1537 1538 1542 1541
f 1539 1540 1544 1543
f 1538 1539 1543 1542
f 1540 1537 1541 1544
usemtl warning
f 1545 1548 1547 1546
f 1549 1550 1551 1552
f 1545 1546 1550 1549
f 1547 1548 1552 1551
f 1546 1547 1551 1550
f 1548 1545 1549 1552
usemtl switchgear
f 1553 1556 1555 1554
f 1557 1558 1559 1560
f 1553 1554 1558 1557
f 1555 1556 1560 1559
f 1554 1555 1559 1558
f 1556 1553 1557 1560
usemtl warning
f 1561 1564 1563 1562
f 1565 1566 1567 1568
f 1561 1562 1566 1565
f 1563 1564 1568 1567
f 1562 1563 1567 1566
f 1564 1561 1565 1568
usemtl switchgear
f 1569 1572 1571 1570
f 1573 1574 1575 1576
f 1569 1570 1574 1573
f 1571 1572 1576 1575
f 1570 1571 1575 1574
f 1572 1569 1573 1576
usemtl warning
f 1577 1580 1579 1578
f 1581 1582 1583 1584
f 1577 1578 1582 1581
f 1579 1580 1584 1583
f 1578 1579 1583 1582
f 1580 1577 1581 1584
usemtl switchgear
f 1585 1588 1587 1586
f 1589 1590 1591 1592
f 1585 1586 1590 1589
f 1587 1588 1592 1591
f 1586 1587 1591 1590
f 1588 1585 1589 1592
usemtl warning
f 1593 1596 1595 1594
f 1597 1598 1599 1600
f 1593 1594 1598 1597
f 1595 1596 1600 1599
f 1594 1595 1599 1598
f 1596 1593 1597 1600
usemtl switchgear
f 1601 1604 1603 1602
f 1605 1606 1607 1608
f 1601 1602 1606 1605
f 1603 1604 1608 1607
f 1602 1603 1607 1606
f 1604 1601 1605 1608
usemtl warning
f 1609 1612 1611 1610
f 1613 1614 1615 1616
f 1609 1610 1614 1613
f 1611 1612 1616 1615
f 1610 1611 1615 1614
f 1612 1609 1613 1616
usemtl switchgear
f 1617 1620 1619 1618
f 1621 1622 1623 1624
f 1617 1618 1622 1621
f 1619 1620 1624 1623
f 1618 1619 1623 1622
f 1620 1617 1621 1624
usemtl warning
f 1625 1628 1627 1626
f 1629 1630 1631 1632
f 1625 1626 1630 1629
f 1627 1628 1632 1631
f 1626 1627 1631 1630
f 1628 1625 1629 1632
usemtl pipe
f 1633 1635 1636 1634
f 1635 1637 1638 1636
f 1637 1639 1640 1638
f 1639 1641 1642 1640
f 1641 1643 1644 1642
f 1643 1645 1646 1644
f 1645 1647 1648 1646
f 1647 1633 1634 1648
f 1649 1634 1636
f 1650 1635 1633
f 1649 1636 1638
f 1650 1637 1635
f 1649 1638 1640
f 1650 1639 1637
f 1649 1640 1642
f 1650 1641 1639
f 1649 1642 1644
f 1650 1643 1641
f 1649 1644 1646
f 1650 1645 1643
f 1649 1646 1648
f 1650 1647 1645
f 1649 1648 1634
f 1650 1633 1647
f 1651 1654 1653 1652
f 1655 1656 1657 1658
f 1651 1652 1656 1655
f 1653 1654 1658 1657
f 1652 1653 1657 1656
f 1654 1651 1655 1658
f 1659 1661 1662 1660
f 1661 1663 1664 1662
f 1663 1665 1666 1664
f 1665 1667 1668 1666
f 1667 1669 1670 1668
f 1669 1671 1672 1670
f 1671 1673 1674 1672
f 1673 1659 1660 1674
f 1675 1660 1662
f 1676 1661 1659
f 1675 1662 1664
f 1676 1663 1661
f 1675 1664 1666
f 1676 1665 1663
f 1675 1666 1668
f 1676 1667 1665
f 1675 1668 1670
f 1676 1669 1667
f 1675 1670 1672
f 1676 1671 1669
f 1675 1672 1674
f 1676 1673 1671
f 1675 1674 1660
f 1676 1659 1673
f 1677 1680 1679 1678
f 1681 1682 1683 1684
f 1677 1678 1682 1681
f 1679 1680 1684 1683
f 1678 1679 1683 1682
f 1680 1677 1681 1684
usemtl brick
f 1/1 2/2 3/3 4/4
f 5/5 6/6 7/7 8/8
f 9/9 10/10 11/11 12/12
f 13/13 14/14 15/15 16/16
f 17/17 18/18 19/19 20/20
f 21/21 22/22 23/23 24/24
f 25/25 26/26 27/27 28/28
f 29/29 30/30 31/31 32/32
f 33/33 34/34 35/35 36/36
f 37/37 38/38 39/39 40/40
f 41/41 42/42 43/43 44/44
f 45/45 46/46 47/47 48/48
f 49/49 50/50 51/51 52/52
f 53/53 54/54 55/55 56/56
f 57/57 58/58 59/59 60/60
f 61/61 62/62 63/63 64/64
f 65/65 66/66 67/67 68/68
f 69/69 70/70 71/71 72/72
f 73/73 74/74 75/75 76/76
f 77/77 78/78 79/79 80/80
f 81/81 82/82 83/83 84/84
f 85/85 86/86 87/87 88/88
f 89/89 90/90 91/91 92/92
f 93/93 94/94 95/95 96/96
usemtl brick_dark
f 97/97 98/98 99/99 100/100
f 101/101 102/102 103/103 104/104
f 105/105 106/106 107/107 108/108
f 109/109 110/110 111/111 112/112
f 113/113 114/114 115/115 116/116
f 117/117 118/118 119/119 120/120
usemtl brick
f 121/121 122/122 123/123 124/124
f 125/125 126/126 127/127 128/128
f 129/129 130/130 131/131 132/132
f 133/133 134/134 135/135 136/136
f 137/137 138/138 139/139 140/140
f 141/141 142/142 143/143 144/144
usemtl brick_dark
f 145/145 146/146 147/147 148/148
f 149/149 150/150 151/151 152/152
f 153/153 154/154 155/155 156/156
f 157/157 158/158 159/159 160/160
f 161/161 162/162 163/163 164/164
f 165/165 166/166 167/167 168/168
usemtl brick
f 169/169 170/170 171/171 172/172
f 173/173 174/174 175/175 176/176
f 177/177 178/178 179/179 180/180
f 181/181 182/182 183/183 184/184
f 185/185 186/186 187/187 188/188
f 189/189 190/190 191/191 192/192
f 193/193 194/194 195/195 196/196
f 197/197 198/198 199/199 200/200
f 201/201 202/202 203/203 204/204
f 205/205 206/206 207/207 208/208
f 209/209 210/210 211/211 212/212
f 213/213 214/214 215/215 216/216
f 217/217 218/218 219/219 220/220
f 221/221 222/222 223/223 224/224
f 225/225 226/226 227/227 228/228
f 229/229 230/230 231/231 232/232
f 233/233 234/234 235/235 236/236
f 237/237 238/238 239/239 240/240
f 241/241 242/242 243/243 244/244
f 245/245 246/246 247/247 248/248
f 249/249 250/250 251/251 252/252
f 253/253 254/254 255/255 256/256
f 257/257 258/258 259/259 260/260
f 261/261 262/262 263/263 264/264
f 265/265 266/266 267/267 268/268
f 269/269 270/270 271/271 272/272
f 273/273 274/274 275/275 276/276
f 277/277 278/278 279/279 280/280
f 281/281 282/282 283/283 284/284
f 285/285 286/286 287/287 288/288
f 289/289 290/290 291/291 292/292
f 293/293 294/294 295/295 296/296
f 297/297 298/298 299/299 300/300
f 301/301 302/302 303/303 304/304
f 305/305 306/306 307/307 308/308
f 309/309 310/310 311/311 312/312
usemtl brick_dark
f 313/313 314/314 315/315 316/316
f 317/317 318/318 319/319 320/320
f 321/321 322/322 323/323 324/324
f 325/325 326/326 327/327 328/328
f 329/329 330/330 331/331 332/332
f 333/333 334/334 335/335 336/336
usemtl brick
f 337/337 338/338 339/339 340/340
f 341/341 342/342 343/343 344/344
f 345/345 346/346 347/347 348/348
f 349/349 350/350 351/351 352/352
f 353/353 354/354 355/355 356/356
f 357/357 358/358 359/359 360/360
f 361/361 362/362 363/363 364/364
f 365/365 366/366 367/367 368/368
f 369/369 370/370 371/371 372/372
f 373/373 374/374 375/375 376/376
f 377/377 378/378 379/379 380/380
f 381/381 382/382 383/383 384/384
f 385/385 386/386 387/387 388/388
f 389/389 390/390 391/391 392/392
f 393/393 394/394 395/395 396/396
f 397/397 398/398 399/399 400/400
f 401/401 402/402 403/403 404/404
f 405/405 406/406 407/407 408/408
usemtl brick_dark
f 409/409 410/410 411/411 412/412
f 413/413 414/414 415/415 416/416
f 417/417 418/418 419/419 420/420
f 421/421 422/422 423/423 424/424
f 425/425 426/426 427/427 428/428
f 429/429 430/430 431/431 432/432
usemtl brick
f 433/433 434/434 435/435 436/436
f 437/437 438/438 439/439 440/440
f 441/441 442/442 443/443 444/444
f 445/445 446/446 447/447 448/448
f 449/449 450/450 451/451 452/452
f 453/453 454/454 455/455 456/456
f 457/457 458/458 459/459 460/460
f 461/461 462/462 463/463 464/464
f 465/465 466/466 467/467 468/468
f 469/469 470/470 471/471 472/472
f 473/473 474/474 475/475 476/476
f 477/477 478/478 479/479 480/480
f 481/481 482/482 483/483 484/484
f 485/485 486/486 487/487 488/488
f 489/489 490/490 491/491 492/492
f 493/493 494/494 495/495 496/496
f 497/497 498/498 499/499 500/500
f 501/501 502/502 503/503 504/504
f 505/505 506/506 507/507 508/508
f 509/509 510/510 511/511 512/512
f 513/513 514/514 515/515 516/516
f 517/517 518/518 519/519 520/520
f 521/521 522/522 523/523 524/524
f 525/525 526/526 527/527 528/528
usemtl brick_dark
f 529/529 530/530 531/531 532/532
f 533/533 534/534 535/535 536/536
f 537/537 538/538 539/539 540/540
f 541/541 542/542 543/543 544/544
f 545/545 546/546 547/547 548/548
f 549/549 550/550 551/551 552/552
usemtl brick
f 553/553 554/554 555/555 556/556
f 557/557 558/558 559/559 560/560
f 561/561 562/562 563/563 564/564
f 565/565 566/566 567/567 568/568
f 569/569 570/570 571/571 572/572
f 573/573 574/574 575/575 576/576
f 577/577 578/578 579/579 580/580
f 581/581 582/582 583/583 584/584
f 585/585 586/586 587/587 588/588
f 589/589 590/590 591/591 592/592
f 593/593 594/594 595/595 596/596
f 597/597 598/598 599/599 600/600
f 601/601 602/602 603/603 604/604
f 605/605 606/606 607/607 608/608
f 609/609 610/610 611/611 612/612
f 613/613 614/614 615/615 616/616
f 617/617 618/618 619/619 620/620
f 621/621 622/622 623/623 624/624
f 625/625 626/626 627/627 628/628
f 629/629 630/630 631/631 632/632
f 633/633 634/634 635/635 636/636
f 637/637 638/638 639/639 640/640
f 641/641 642/642 643/643 644/644
f 645/645 646/646 647/647 648/648
usemtl brick_dark
f 649/649 650/650 651/651 652/652
f 653/653 654/654 655/655 656/656
f 657/657 658/658 659/659 660/660
f 661/661 662/662 663/663 664/664
f 665/665 666/666 667/667 668/668
f 669/669 670/670 671/671 672/672
usemtl brick
f 673/673 674/674 675/675 676/676
f 677/677 678/678 679/679 680/680
f 681/681 682/682 683/683 684/684
f 685/685 686/686 687/687 688/688
f 689/689 690/690 691/691 692/692
f 693/693 694/694 695/695 696/696
f 697/697 698/698 699/699 700/700
f 701/701 702/702 703/703 704/704
f 705/705 706/706 707/707 708/708
f 709/709 710/710 711/711 712/712
f 713/713 714/714 715/715 716/716
f 717/717 718/718 719/719 720/720
f 721/721 722/722 723/723 724/724
f 725/725 726/726 727/727 728/728
f 729/729 730/730 731/731 732/732
f 733/733 734/734 735/735 736/736
f 737/737 738/738 739/739 740/740
f 741/741 742/742 743/743 744/744
f 745/745 746/746 747/747 748/748
f 749/749 750/750 751/751 752/752
f 753/753 754/754 755/755 756/756
f 757/757 758/758 759/759 760/760
f 761/761 762/762 763/763 764/764
f 765/765 766/766 767/767 768/768
f 769/769 770/770 771/771 772/772
f 773/773 774/774 775/775 776/776
f 777/777 778/778 779/779 780/780
f 781/781 782/782 783/783 784/784
f 785/785 786/786 787/787 788/788
f 789/789 790/790 791/791 792/792
f 793/793 794/794 795/795 796/796
f 797/797 798/798 799/799 800/800
f 801/801 802/802 803/803 804/804
f 805/805 806/806 807/807 808/808
f 809/809 810/810 811/811 812/812
f 813/813 814/814 815/815 816/816
f 817/817 818/818 819/819 820/820
f 821/821 822/822 823/823 824/824
f 825/825 826/826 827/827 828/828
f 829/829 830/830 831/831 832/832
f 833/833 834/834 835/835 836/836
f 837/837 838/838 839/839 840/840
f 841/841 842/842 843/843 844/844
f 845/845 846/846 847/847 848/848
f 849/849 850/850 851/851 852/852
f 853/853 854/854 855/855 856/856
f 857/857 858/858 859/859 860/860
f 861/861 862/862 863/863 864/864
f 865/865 866/866 867/867 868/868
f 869/869 870/870 871/871 872/872
f 873/873 874/874 875/875 876/876
f 877/877 878/878 879/879 880/880
f 881/881 882/882 883/883 884/884
f 885/885 886/886 887/887 888/888
f 889/889 890/890 891/891 892/892
f 893/893 894/894 895/895 896/896
f 897/897 898/898 899/899 900/900
f 901/901 902/902 903/903 904/904
f 905/905 906/906 907/907 908/908
f 909/909 910/910 911/911 912/912
f 913/913 914/914 915/915 916/916
f 917/917 918/918 919/919 920/920
f 921/921 922/922 923/923 924/924
f 925/925 926/926 927/927 928/928
f 929/929 930/930 931/931 932/932
f 933/933 934/934 935/935 936/936
f 937/937 938/938 939/939 940/940
f 941/941 942/942 943/943 944/944
f 945/945 946/946 947/947 948/948
f 949/949 950/950 951/951 952/952
f 953/953 954/954 955/955 956/956
f 957/957 958/958 959/959 960/960
f 961/961 962/962 963/963 964/964
f 965/965 966/966 967/967 968/968
f 969/969 970/970 971/971 972/972
f 973/973 974/974 975/975 976/976
f 977/977 978/978 979/979 980/980
f 981/981 982/982 983/983 984/984
f 985/985 986/986 987/987 988/988
f 989/989 990/990 991/991 992/992
f 993/993 994/994 995/995 996/996
f 997/997 998/998 999/999 1000/1000
f 1001/1001 1002/1002 1003/1003 1004/1004
f 1005/1005 1006/1006 1007/1007 1008/1008
f 1009/1009 1010/1010 1011/1011 1012/1012
f 1013/1013 1014/1014 1015/1015 1016/1016
f 1017/1017 1018/1018 1019/1019 1020/1020
f 1021/1021 1022/1022 1023/1023 1024/1024
f 1025/1025 1026/1026 1027/1027 1028/1028
f 1029/1029 1030/1030 1031/1031 1032/1032
f 1033/1033 1034/1034 1035/1035 1036/1036
f 1037/1037 1038/1038 1039/1039 1040/1040
f 1041/1041 1042/1042 1043/1043 1044/1044
f 1045/1045 1046/1046 1047/1047 1048/1048
f 1049/1049 1050/1050 1051/1051 1052/1052
f 1053/1053 1054/1054 1055/1055 1056/1056
f 1057/1057 1058/1058 1059/1059 1060/1060
f 1061/1061 1062/1062 1063/1063 1064/1064
f 1065/1065 1066/1066 1067/1067 1068/1068
f 1069/1069 1070/1070 1071/1071 1072/1072
f 1073/1073 1074/1074 1075/1075 1076/1076
f 1077/1077 1078/1078 1079/1079 1080/1080
f 1081/1081 1082/1082 1083/1083 1084/1084
f 1085/1085 1086/1086 1087/1087 1088/1088
f 1089/1089 1090/1090 1091/1091 1092/1092
f 1093/1093 1094/1094 1095/1095 1096/1096
f 1097/1097 1098/1098 1099/1099 1100/1100
f 1101/1101 1102/1102 1103/1103 1104/1104
f 1105/1105 1106/1106 1107/1107 1108/1108
f 1109/1109 1110/1110 1111/1111 1112/1112
f 1113/1113 1114/1114 1115/1115 1116/1116
f 1117/1117 1118/1118 1119/1119 1120/1120
f 1121/1121 1122/1122 1123/1123 1124/1124
f 1125/1125 1126/1126 1127/1127 1128/1128
usemtl brick_dark
f 1129/1129 1130/1130 1131/1131 1132/1132
f 1133/1133 1134/1134 1135/1135 1136/1136
f 1137/1137 1138/1138 1139/1139 1140/1140
f 1141/1141 1142/1142 1143/1143 1144/1144
f 1145/1145 1146/1146 1147/1147 1148/1148
f 1149/1149 1150/1150 1151/1151 1152/1152
