# RoastEngine Backrooms level
mtllib backrooms.mtl
v 446.0750 0.0000 -51.4250
v 448.9250 0.0000 -51.4250
v 448.9250 0.0000 -48.5750
v 446.0750 0.0000 -48.5750
v 446.0750 3.0000 -51.4250
v 448.9250 3.0000 -51.4250
v 448.9250 3.0000 -48.5750
v 446.0750 3.0000 -48.5750
v 441.0750 0.0000 -48.9250
v 441.0750 0.0000 -46.0750
v 443.9250 0.0000 -46.0750
v 443.9250 0.0000 -48.9250
v 441.0750 3.0000 -48.9250
v 443.9250 3.0000 -48.9250
v 443.9250 3.0000 -46.0750
v 441.0750 3.0000 -46.0750
v 441.0750 0.0000 -48.9250
v 443.9250 0.0000 -48.9250
v 443.9250 3.0000 -48.9250
v 441.0750 3.0000 -48.9250
v 443.9250 0.0000 -46.0750
v 441.0750 0.0000 -46.0750
v 441.0750 3.0000 -46.0750
v 443.9250 3.0000 -46.0750
v 443.9250 0.0000 -48.9250
v 443.9250 0.0000 -46.0750
v 443.9250 3.0000 -46.0750
v 443.9250 3.0000 -48.9250
v 441.0750 0.0000 -46.0750
v 441.0750 0.0000 -48.9250
v 441.0750 3.0000 -48.9250
v 441.0750 3.0000 -46.0750
v 446.0750 0.0000 -48.9250
v 446.0750 0.0000 -46.0750
v 448.9250 0.0000 -46.0750
v 448.9250 0.0000 -48.9250
v 446.0750 3.0000 -48.9250
v 448.9250 3.0000 -48.9250
v 448.9250 3.0000 -46.0750
v 446.0750 3.0000 -46.0750
v 446.0750 0.0000 -48.9250
v 448.9250 0.0000 -48.9250
v 448.9250 3.0000 -48.9250
v 446.0750 3.0000 -48.9250
v 448.9250 0.0000 -46.0750
v 446.0750 0.0000 -46.0750
v 446.0750 3.0000 -46.0750
v 448.9250 3.0000 -46.0750
v 448.9250 0.0000 -48.9250
v 448.9250 0.0000 -46.0750
v 448.9250 3.0000 -46.0750
v 448.9250 3.0000 -48.9250
v 446.0750 0.0000 -46.0750
v 446.0750 0.0000 -48.9250
v 446.0750 3.0000 -48.9250
v 446.0750 3.0000 -46.0750
v 441.0750 0.0000 -46.4250
v 441.0750 0.0000 -43.5750
v 443.9250 0.0000 -43.5750
v 443.9250 0.0000 -46.4250
v 441.0750 3.0000 -46.4250
v 443.9250 3.0000 -46.4250
v 443.9250 3.0000 -43.5750
v 441.0750 3.0000 -43.5750
v 441.0750 0.0000 -46.4250
v 443.9250 0.0000 -46.4250
v 443.9250 3.0000 -46.4250
v 441.0750 3.0000 -46.4250
v 443.9250 0.0000 -43.5750
v 441.0750 0.0000 -43.5750
v 441.0750 3.0000 -43.5750
v 443.9250 3.0000 -43.5750
v 443.9250 0.0000 -46.4250
v 443.9250 0.0000 -43.5750
v 443.9250 3.0000 -43.5750
v 443.9250 3.0000 -46.4250
v 441.0750 0.0000 -43.5750
v 441.0750 0.0000 -46.4250
v 441.0750 3.0000 -46.4250
v 441.0750 3.0000 -43.5750
v 446.0750 0.0000 -46.4250
v 446.0750 0.0000 -43.5750
v 448.9250 0.0000 -43.5750
v 448.9250 0.0000 -46.4250
v 446.0750 3.0000 -46.4250
v 448.9250 3.0000 -46.4250
v 448.9250 3.0000 -43.5750
v 446.0750 3.0000 -43.5750
v 446.0750 0.0000 -46.4250
v 448.9250 0.0000 -46.4250
v 448.9250 3.0000 -46.4250
v 446.0750 3.0000 -46.4250
v 448.9250 0.0000 -43.5750
v 446.0750 0.0000 -43.5750
v 446.0750 3.0000 -43.5750
v 448.9250 3.0000 -43.5750
v 448.9250 0.0000 -46.4250
v 448.9250 0.0000 -43.5750
v 448.9250 3.0000 -43.5750
v 448.9250 3.0000 -46.4250
v 446.0750 0.0000 -43.5750
v 446.0750 0.0000 -46.4250
v 446.0750 3.0000 -46.4250
v 446.0750 3.0000 -43.5750
v 441.0750 0.0000 -43.9250
v 441.0750 0.0000 -41.0750
v 443.9250 0.0000 -41.0750
v 443.9250 0.0000 -43.9250
v 441.0750 3.0000 -43.9250
v 443.9250 3.0000 -43.9250
v 443.9250 3.0000 -41.0750
v 441.0750 3.0000 -41.0750
v 441.0750 0.0000 -43.9250
v 443.9250 0.0000 -43.9250
v 443.9250 3.0000 -43.9250
v 441.0750 3.0000 -43.9250
v 443.9250 0.0000 -41.0750
v 441.0750 0.0000 -41.0750
v 441.0750 3.0000 -41.0750
v 443.9250 3.0000 -41.0750
v 443.9250 0.0000 -43.9250
v 443.9250 0.0000 -41.0750
v 443.9250 3.0000 -41.0750
v 443.9250 3.0000 -43.9250
v 441.0750 0.0000 -41.0750
v 441.0750 0.0000 -43.9250
v 441.0750 3.0000 -43.9250
v 441.0750 3.0000 -41.0750
v 446.0750 0.0000 -43.9250
v 446.0750 0.0000 -41.0750
v 448.9250 0.0000 -41.0750
v 448.9250 0.0000 -43.9250
v 446.0750 3.0000 -43.9250
v 448.9250 3.0000 -43.9250
v 448.9250 3.0000 -41.0750
v 446.0750 3.0000 -41.0750
v 446.0750 0.0000 -43.9250
v 448.9250 0.0000 -43.9250
v 448.9250 3.0000 -43.9250
v 446.0750 3.0000 -43.9250
v 448.9250 0.0000 -41.0750
v 446.0750 0.0000 -41.0750
v 446.0750 3.0000 -41.0750
v 448.9250 3.0000 -41.0750
v 448.9250 0.0000 -43.9250
v 448.9250 0.0000 -41.0750
v 448.9250 3.0000 -41.0750
v 448.9250 3.0000 -43.9250
v 446.0750 0.0000 -41.0750
v 446.0750 0.0000 -43.9250
v 446.0750 3.0000 -43.9250
v 446.0750 3.0000 -41.0750
v 436.0750 0.0000 -38.9250
v 436.0750 0.0000 -36.0750
v 438.9250 0.0000 -36.0750
v 438.9250 0.0000 -38.9250
v 436.0750 3.0000 -38.9250
v 438.9250 3.0000 -38.9250
v 438.9250 3.0000 -36.0750
v 436.0750 3.0000 -36.0750
v 436.0750 0.0000 -38.9250
v 438.9250 0.0000 -38.9250
v 438.9250 3.0000 -38.9250
v 436.0750 3.0000 -38.9250
v 438.9250 0.0000 -36.0750
v 436.0750 0.0000 -36.0750
v 436.0750 3.0000 -36.0750
v 438.9250 3.0000 -36.0750
v 438.9250 0.0000 -38.9250
v 438.9250 0.0000 -36.0750
v 438.9250 3.0000 -36.0750
v 438.9250 3.0000 -38.9250
v 436.0750 0.0000 -36.0750
v 436.0750 0.0000 -38.9250
v 436.0750 3.0000 -38.9250
v 436.0750 3.0000 -36.0750
v 441.0750 0.0000 -38.9250
v 441.0750 0.0000 -36.0750
v 443.9250 0.0000 -36.0750
v 443.9250 0.0000 -38.9250
v 441.0750 3.0000 -38.9250
v 443.9250 3.0000 -38.9250
v 443.9250 3.0000 -36.0750
v 441.0750 3.0000 -36.0750
v 441.0750 0.0000 -38.9250
v 443.9250 0.0000 -38.9250
v 443.9250 3.0000 -38.9250
v 441.0750 3.0000 -38.9250
v 443.9250 0.0000 -36.0750
v 441.0750 0.0000 -36.0750
v 441.0750 3.0000 -36.0750
v 443.9250 3.0000 -36.0750
v 443.9250 0.0000 -38.9250
v 443.9250 0.0000 -36.0750
v 443.9250 3.0000 -36.0750
v 443.9250 3.0000 -38.9250
v 441.0750 0.0000 -36.0750
v 441.0750 0.0000 -38.9250
v 441.0750 3.0000 -38.9250
v 441.0750 3.0000 -36.0750
v 443.5750 0.0000 -38.9250
v 443.5750 0.0000 -36.0750
v 446.4250 0.0000 -36.0750
v 446.4250 0.0000 -38.9250
v 443.5750 3.0000 -38.9250
v 446.4250 3.0000 -38.9250
v 446.4250 3.0000 -36.0750
v 443.5750 3.0000 -36.0750
v 443.5750 0.0000 -38.9250
v 446.4250 0.0000 -38.9250
v 446.4250 3.0000 -38.9250
v 443.5750 3.0000 -38.9250
v 446.4250 0.0000 -36.0750
v 443.5750 0.0000 -36.0750
v 443.5750 3.0000 -36.0750
v 446.4250 3.0000 -36.0750
v 446.4250 0.0000 -38.9250
v 446.4250 0.0000 -36.0750
v 446.4250 3.0000 -36.0750
v 446.4250 3.0000 -38.9250
v 443.5750 0.0000 -36.0750
v 443.5750 0.0000 -38.9250
v 443.5750 3.0000 -38.9250
v 443.5750 3.0000 -36.0750
v 446.0750 0.0000 -38.9250
v 446.0750 0.0000 -36.0750
v 448.9250 0.0000 -36.0750
v 448.9250 0.0000 -38.9250
v 446.0750 3.0000 -38.9250
v 448.9250 3.0000 -38.9250
v 448.9250 3.0000 -36.0750
v 446.0750 3.0000 -36.0750
v 446.0750 0.0000 -38.9250
v 448.9250 0.0000 -38.9250
v 448.9250 3.0000 -38.9250
v 446.0750 3.0000 -38.9250
v 448.9250 0.0000 -36.0750
v 446.0750 0.0000 -36.0750
v 446.0750 3.0000 -36.0750
v 448.9250 3.0000 -36.0750
v 448.9250 0.0000 -38.9250
v 448.9250 0.0000 -36.0750
v 448.9250 3.0000 -36.0750
v 448.9250 3.0000 -38.9250
v 446.0750 0.0000 -36.0750
v 446.0750 0.0000 -38.9250
v 446.0750 3.0000 -38.9250
v 446.0750 3.0000 -36.0750
v 436.0750 0.0000 -36.4250
v 436.0750 0.0000 -33.5750
v 438.9250 0.0000 -33.5750
v 438.9250 0.0000 -36.4250
v 436.0750 3.0000 -36.4250
v 438.9250 3.0000 -36.4250
v 438.9250 3.0000 -33.5750
v 436.0750 3.0000 -33.5750
v 436.0750 0.0000 -36.4250
v 438.9250 0.0000 -36.4250
v 438.9250 3.0000 -36.4250
v 436.0750 3.0000 -36.4250
v 438.9250 0.0000 -33.5750
v 436.0750 0.0000 -33.5750
v 436.0750 3.0000 -33.5750
v 438.9250 3.0000 -33.5750
v 438.9250 0.0000 -36.4250
v 438.9250 0.0000 -33.5750
v 438.9250 3.0000 -33.5750
v 438.9250 3.0000 -36.4250
v 436.0750 0.0000 -33.5750
v 436.0750 0.0000 -36.4250
v 436.0750 3.0000 -36.4250
v 436.0750 3.0000 -33.5750
v 446.0750 0.0000 -36.4250
v 446.0750 0.0000 -33.5750
v 448.9250 0.0000 -33.5750
v 448.9250 0.0000 -36.4250
v 446.0750 3.0000 -36.4250
v 448.9250 3.0000 -36.4250
v 448.9250 3.0000 -33.5750
v 446.0750 3.0000 -33.5750
v 446.0750 0.0000 -36.4250
v 448.9250 0.0000 -36.4250
v 448.9250 3.0000 -36.4250
v 446.0750 3.0000 -36.4250
v 448.9250 0.0000 -33.5750
v 446.0750 0.0000 -33.5750
v 446.0750 3.0000 -33.5750
v 448.9250 3.0000 -33.5750
v 448.9250 0.0000 -36.4250
v 448.9250 0.0000 -33.5750
v 448.9250 3.0000 -33.5750
v 448.9250 3.0000 -36.4250
v 446.0750 0.0000 -33.5750
v 446.0750 0.0000 -36.4250
v 446.0750 3.0000 -36.4250
v 446.0750 3.0000 -33.5750
v 436.0750 0.0000 -33.9250
v 438.9250 0.0000 -33.9250
v 438.9250 0.0000 -31.0750
v 436.0750 0.0000 -31.0750
v 436.0750 3.0000 -33.9250
v 438.9250 3.0000 -33.9250
v 438.9250 3.0000 -31.0750
v 436.0750 3.0000 -31.0750
v 446.0750 0.0000 -33.9250
v 446.0750 0.0000 -31.0750
v 448.9250 0.0000 -31.0750
v 448.9250 0.0000 -33.9250
v 446.0750 3.0000 -33.9250
v 448.9250 3.0000 -33.9250
v 448.9250 3.0000 -31.0750
v 446.0750 3.0000 -31.0750
v 446.0750 0.0000 -33.9250
v 448.9250 0.0000 -33.9250
v 448.9250 3.0000 -33.9250
v 446.0750 3.0000 -33.9250
v 448.9250 0.0000 -31.0750
v 446.0750 0.0000 -31.0750
v 446.0750 3.0000 -31.0750
v 448.9250 3.0000 -31.0750
v 448.9250 0.0000 -33.9250
v 448.9250 0.0000 -31.0750
v 448.9250 3.0000 -31.0750
v 448.9250 3.0000 -33.9250
v 446.0750 0.0000 -31.0750
v 446.0750 0.0000 -33.9250
v 446.0750 3.0000 -33.9250
v 446.0750 3.0000 -31.0750
v 436.0750 0.0000 -31.4250
v 436.0750 0.0000 -28.5750
v 438.9250 0.0000 -28.5750
v 438.9250 0.0000 -31.4250
v 436.0750 3.0000 -31.4250
v 438.9250 3.0000 -31.4250
v 438.9250 3.0000 -28.5750
v 436.0750 3.0000 -28.5750
v 436.0750 0.0000 -31.4250
v 438.9250 0.0000 -31.4250
v 438.9250 3.0000 -31.4250
v 436.0750 3.0000 -31.4250
v 438.9250 0.0000 -28.5750
v 436.0750 0.0000 -28.5750
v 436.0750 3.0000 -28.5750
v 438.9250 3.0000 -28.5750
v 438.9250 0.0000 -31.4250
v 438.9250 0.0000 -28.5750
v 438.9250 3.0000 -28.5750
v 438.9250 3.0000 -31.4250
v 436.0750 0.0000 -28.5750
v 436.0750 0.0000 -31.4250
v 436.0750 3.0000 -31.4250
v 436.0750 3.0000 -28.5750
v 436.0750 0.0000 -28.9250
v 438.9250 0.0000 -28.9250
v 438.9250 0.0000 -26.0750
v 436.0750 0.0000 -26.0750
v 436.0750 3.0000 -28.9250
v 438.9250 3.0000 -28.9250
v 438.9250 3.0000 -26.0750
v 436.0750 3.0000 -26.0750
v 436.0750 0.0000 -26.4250
v 436.0750 0.0000 -23.5750
v 438.9250 0.0000 -23.5750
v 438.9250 0.0000 -26.4250
v 436.0750 3.0000 -26.4250
v 438.9250 3.0000 -26.4250
v 438.9250 3.0000 -23.5750
v 436.0750 3.0000 -23.5750
v 436.0750 0.0000 -26.4250
v 438.9250 0.0000 -26.4250
v 438.9250 3.0000 -26.4250
v 436.0750 3.0000 -26.4250
v 438.9250 0.0000 -23.5750
v 436.0750 0.0000 -23.5750
v 436.0750 3.0000 -23.5750
v 438.9250 3.0000 -23.5750
v 438.9250 0.0000 -26.4250
v 438.9250 0.0000 -23.5750
v 438.9250 3.0000 -23.5750
v 438.9250 3.0000 -26.4250
v 436.0750 0.0000 -23.5750
v 436.0750 0.0000 -26.4250
v 436.0750 3.0000 -26.4250
v 436.0750 3.0000 -23.5750
v 439.8250 2.7600 -50.1750
v 440.1750 2.7600 -50.1750
v 440.1750 2.7600 -49.8250
v 439.8250 2.7600 -49.8250
v 439.8250 2.8800 -50.1750
v 440.1750 2.8800 -50.1750
v 440.1750 2.8800 -49.8250
v 439.8250 2.8800 -49.8250
v 444.8250 2.7600 -50.1750
v 445.1750 2.7600 -50.1750
v 445.1750 2.7600 -49.8250
v 444.8250 2.7600 -49.8250
v 444.8250 2.8800 -50.1750
v 445.1750 2.8800 -50.1750
v 445.1750 2.8800 -49.8250
v 444.8250 2.8800 -49.8250
v 449.8250 2.7600 -50.1750
v 450.1750 2.7600 -50.1750
v 450.1750 2.7600 -49.8250
v 449.8250 2.7600 -49.8250
v 449.8250 2.8800 -50.1750
v 450.1750 2.8800 -50.1750
v 450.1750 2.8800 -49.8250
v 449.8250 2.8800 -49.8250
v 439.8250 2.7600 -45.1750
v 440.1750 2.7600 -45.1750
v 440.1750 2.7600 -44.8250
v 439.8250 2.7600 -44.8250
v 439.8250 2.8800 -45.1750
v 440.1750 2.8800 -45.1750
v 440.1750 2.8800 -44.8250
v 439.8250 2.8800 -44.8250
v 444.8250 2.7600 -35.1750
v 445.1750 2.7600 -35.1750
v 445.1750 2.7600 -34.8250
v 444.8250 2.7600 -34.8250
v 444.8250 2.8800 -35.1750
v 445.1750 2.8800 -35.1750
v 445.1750 2.8800 -34.8250
v 444.8250 2.8800 -34.8250
v 449.8250 2.7600 -25.1750
v 450.1750 2.7600 -25.1750
v 450.1750 2.7600 -24.8250
v 449.8250 2.7600 -24.8250
v 449.8250 2.8800 -25.1750
v 450.1750 2.8800 -25.1750
v 450.1750 2.8800 -24.8250
v 449.8250 2.8800 -24.8250
v 437.6200 2.6000 -47.5000
v 437.6200 2.6000 -47.5000
v 437.5849 2.6000 -47.4151
v 437.5849 2.6000 -47.4151
v 437.5000 2.6000 -47.3800
v 437.5000 2.6000 -47.3800
v 437.4151 2.6000 -47.4151
v 437.4151 2.6000 -47.4151
v 437.3800 2.6000 -47.5000
v 437.3800 2.6000 -47.5000
v 437.4151 2.6000 -47.5849
v 437.4151 2.6000 -47.5849
v 437.5000 2.6000 -47.6200
v 437.5000 2.6000 -47.6200
v 437.5849 2.6000 -47.5849
v 437.5849 2.6000 -47.5849
v 437.5000 2.6000 -47.5000
v 437.5000 2.6000 -47.5000
v 437.5000 2.4800 -47.6200
v 452.5000 2.4800 -47.6200
v 452.5000 2.4800 -47.3800
v 437.5000 2.4800 -47.3800
v 437.5000 2.7200 -47.6200
v 452.5000 2.7200 -47.6200
v 452.5000 2.7200 -47.3800
v 437.5000 2.7200 -47.3800
v 437.6200 2.6000 -37.5000
v 437.6200 2.6000 -37.5000
v 437.5849 2.6000 -37.4151
v 437.5849 2.6000 -37.4151
v 437.5000 2.6000 -37.3800
v 437.5000 2.6000 -37.3800
v 437.4151 2.6000 -37.4151
v 437.4151 2.6000 -37.4151
v 437.3800 2.6000 -37.5000
v 437.3800 2.6000 -37.5000
v 437.4151 2.6000 -37.5849
v 437.4151 2.6000 -37.5849
v 437.5000 2.6000 -37.6200
v 437.5000 2.6000 -37.6200
v 437.5849 2.6000 -37.5849
v 437.5849 2.6000 -37.5849
v 437.5000 2.6000 -37.5000
v 437.5000 2.6000 -37.5000
v 437.5000 2.4800 -37.6200
v 452.5000 2.4800 -37.6200
v 452.5000 2.4800 -37.3800
v 437.5000 2.4800 -37.3800
v 437.5000 2.7200 -37.6200
v 452.5000 2.7200 -37.6200
v 452.5000 2.7200 -37.3800
v 437.5000 2.7200 -37.3800
v 437.6200 2.6000 -27.5000
v 437.6200 2.6000 -27.5000
v 437.5849 2.6000 -27.4151
v 437.5849 2.6000 -27.4151
v 437.5000 2.6000 -27.3800
v 437.5000 2.6000 -27.3800
v 437.4151 2.6000 -27.4151
v 437.4151 2.6000 -27.4151
v 437.3800 2.6000 -27.5000
v 437.3800 2.6000 -27.5000
v 437.4151 2.6000 -27.5849
v 437.4151 2.6000 -27.5849
v 437.5000 2.6000 -27.6200
v 437.5000 2.6000 -27.6200
v 437.5849 2.6000 -27.5849
v 437.5849 2.6000 -27.5849
v 437.5000 2.6000 -27.5000
v 437.5000 2.6000 -27.5000
v 437.5000 2.4800 -27.6200
v 452.5000 2.4800 -27.6200
v 452.5000 2.4800 -27.3800
v 437.5000 2.4800 -27.3800
v 437.5000 2.7200 -27.6200
v 452.5000 2.7200 -27.6200
v 452.5000 2.7200 -27.3800
v 437.5000 2.7200 -27.3800
vt 220.5375 -24.4625
vt 220.5375 -23.0375
vt 221.9625 -23.0375
vt 221.9625 -24.4625
vt 220.5375 -24.4625
vt 221.9625 -24.4625
vt 221.9625 -23.0375
vt 220.5375 -23.0375
vt 220.5375 0.0000
vt 221.9625 0.0000
vt 221.9625 1.5000
vt 220.5375 1.5000
vt 221.9625 0.0000
vt 220.5375 0.0000
vt 220.5375 1.5000
vt 221.9625 1.5000
vt -24.4625 0.0000
vt -23.0375 0.0000
vt -23.0375 1.5000
vt -24.4625 1.5000
vt -23.0375 0.0000
vt -24.4625 0.0000
vt -24.4625 1.5000
vt -23.0375 1.5000
vt 223.0375 -24.4625
vt 223.0375 -23.0375
vt 224.4625 -23.0375
vt 224.4625 -24.4625
vt 223.0375 -24.4625
vt 224.4625 -24.4625
vt 224.4625 -23.0375
vt 223.0375 -23.0375
vt 223.0375 0.0000
vt 224.4625 0.0000
vt 224.4625 1.5000
vt 223.0375 1.5000
vt 224.4625 0.0000
vt 223.0375 0.0000
vt 223.0375 1.5000
vt 224.4625 1.5000
vt -24.4625 0.0000
vt -23.0375 0.0000
vt -23.0375 1.5000
vt -24.4625 1.5000
vt -23.0375 0.0000
vt -24.4625 0.0000
vt -24.4625 1.5000
vt -23.0375 1.5000
vt 220.5375 -23.2125
vt 220.5375 -21.7875
vt 221.9625 -21.7875
vt 221.9625 -23.2125
vt 220.5375 -23.2125
vt 221.9625 -23.2125
vt 221.9625 -21.7875
vt 220.5375 -21.7875
vt 220.5375 0.0000
vt 221.9625 0.0000
vt 221.9625 1.5000
vt 220.5375 1.5000
vt 221.9625 0.0000
vt 220.5375 0.0000
vt 220.5375 1.5000
vt 221.9625 1.5000
vt -23.2125 0.0000
vt -21.7875 0.0000
vt -21.7875 1.5000
vt -23.2125 1.5000
vt -21.7875 0.0000
vt -23.2125 0.0000
vt -23.2125 1.5000
vt -21.7875 1.5000
vt 223.0375 -23.2125
vt 223.0375 -21.7875
vt 224.4625 -21.7875
vt 224.4625 -23.2125
vt 223.0375 -23.2125
vt 224.4625 -23.2125
vt 224.4625 -21.7875
vt 223.0375 -21.7875
vt 223.0375 0.0000
vt 224.4625 0.0000
vt 224.4625 1.5000
vt 223.0375 1.5000
vt 224.4625 0.0000
vt 223.0375 0.0000
vt 223.0375 1.5000
vt 224.4625 1.5000
vt -23.2125 0.0000
vt -21.7875 0.0000
vt -21.7875 1.5000
vt -23.2125 1.5000
vt -21.7875 0.0000
vt -23.2125 0.0000
vt -23.2125 1.5000
vt -21.7875 1.5000
vt 220.5375 -21.9625
vt 220.5375 -20.5375
vt 221.9625 -20.5375
vt 221.9625 -21.9625
vt 220.5375 -21.9625
vt 221.9625 -21.9625
vt 221.9625 -20.5375
vt 220.5375 -20.5375
vt 220.5375 0.0000
vt 221.9625 0.0000
vt 221.9625 1.5000
vt 220.5375 1.5000
vt 221.9625 0.0000
vt 220.5375 0.0000
vt 220.5375 1.5000
vt 221.9625 1.5000
vt -21.9625 0.0000
vt -20.5375 0.0000
vt -20.5375 1.5000
vt -21.9625 1.5000
vt -20.5375 0.0000
vt -21.9625 0.0000
vt -21.9625 1.5000
vt -20.5375 1.5000
vt 223.0375 -21.9625
vt 223.0375 -20.5375
vt 224.4625 -20.5375
vt 224.4625 -21.9625
vt 223.0375 -21.9625
vt 224.4625 -21.9625
vt 224.4625 -20.5375
vt 223.0375 -20.5375
vt 223.0375 0.0000
vt 224.4625 0.0000
vt 224.4625 1.5000
vt 223.0375 1.5000
vt 224.4625 0.0000
vt 223.0375 0.0000
vt 223.0375 1.5000
vt 224.4625 1.5000
vt -21.9625 0.0000
vt -20.5375 0.0000
vt -20.5375 1.5000
vt -21.9625 1.5000
vt -20.5375 0.0000
vt -21.9625 0.0000
vt -21.9625 1.5000
vt -20.5375 1.5000
vt 218.0375 -19.4625
vt 218.0375 -18.0375
vt 219.4625 -18.0375
vt 219.4625 -19.4625
vt 218.0375 -19.4625
vt 219.4625 -19.4625
vt 219.4625 -18.0375
vt 218.0375 -18.0375
vt 218.0375 0.0000
vt 219.4625 0.0000
vt 219.4625 1.5000
vt 218.0375 1.5000
vt 219.4625 0.0000
vt 218.0375 0.0000
vt 218.0375 1.5000
vt 219.4625 1.5000
vt -19.4625 0.0000
vt -18.0375 0.0000
vt -18.0375 1.5000
vt -19.4625 1.5000
vt -18.0375 0.0000
vt -19.4625 0.0000
vt -19.4625 1.5000
vt -18.0375 1.5000
vt 220.5375 -19.4625
vt 220.5375 -18.0375
vt 221.9625 -18.0375
vt 221.9625 -19.4625
vt 220.5375 -19.4625
vt 221.9625 -19.4625
vt 221.9625 -18.0375
vt 220.5375 -18.0375
vt 220.5375 0.0000
vt 221.9625 0.0000
vt 221.9625 1.5000
vt 220.5375 1.5000
vt 221.9625 0.0000
vt 220.5375 0.0000
vt 220.5375 1.5000
vt 221.9625 1.5000
vt -19.4625 0.0000
vt -18.0375 0.0000
vt -18.0375 1.5000
vt -19.4625 1.5000
vt -18.0375 0.0000
vt -19.4625 0.0000
vt -19.4625 1.5000
vt -18.0375 1.5000
vt 221.7875 -19.4625
vt 221.7875 -18.0375
vt 223.2125 -18.0375
vt 223.2125 -19.4625
vt 221.7875 -19.4625
vt 223.2125 -19.4625
vt 223.2125 -18.0375
vt 221.7875 -18.0375
vt 221.7875 0.0000
vt 223.2125 0.0000
vt 223.2125 1.5000
vt 221.7875 1.5000
vt 223.2125 0.0000
vt 221.7875 0.0000
vt 221.7875 1.5000
vt 223.2125 1.5000
vt -19.4625 0.0000
vt -18.0375 0.0000
vt -18.0375 1.5000
vt -19.4625 1.5000
vt -18.0375 0.0000
vt -19.4625 0.0000
vt -19.4625 1.5000
vt -18.0375 1.5000
vt 223.0375 -19.4625
vt 223.0375 -18.0375
vt 224.4625 -18.0375
vt 224.4625 -19.4625
vt 223.0375 -19.4625
vt 224.4625 -19.4625
vt 224.4625 -18.0375
vt 223.0375 -18.0375
vt 223.0375 0.0000
vt 224.4625 0.0000
vt 224.4625 1.5000
vt 223.0375 1.5000
vt 224.4625 0.0000
vt 223.0375 0.0000
vt 223.0375 1.5000
vt 224.4625 1.5000
vt -19.4625 0.0000
vt -18.0375 0.0000
vt -18.0375 1.5000
vt -19.4625 1.5000
vt -18.0375 0.0000
vt -19.4625 0.0000
vt -19.4625 1.5000
vt -18.0375 1.5000
vt 218.0375 -18.2125
vt 218.0375 -16.7875
vt 219.4625 -16.7875
vt 219.4625 -18.2125
vt 218.0375 -18.2125
vt 219.4625 -18.2125
vt 219.4625 -16.7875
vt 218.0375 -16.7875
vt 218.0375 0.0000
vt 219.4625 0.0000
vt 219.4625 1.5000
vt 218.0375 1.5000
vt 219.4625 0.0000
vt 218.0375 0.0000
vt 218.0375 1.5000
vt 219.4625 1.5000
vt -18.2125 0.0000
vt -16.7875 0.0000
vt -16.7875 1.5000
vt -18.2125 1.5000
vt -16.7875 0.0000
vt -18.2125 0.0000
vt -18.2125 1.5000
vt -16.7875 1.5000
vt 223.0375 -18.2125
vt 223.0375 -16.7875
vt 224.4625 -16.7875
vt 224.4625 -18.2125
vt 223.0375 -18.2125
vt 224.4625 -18.2125
vt 224.4625 -16.7875
vt 223.0375 -16.7875
vt 223.0375 0.0000
vt 224.4625 0.0000
vt 224.4625 1.5000
vt 223.0375 1.5000
vt 224.4625 0.0000
vt 223.0375 0.0000
vt 223.0375 1.5000
vt 224.4625 1.5000
vt -18.2125 0.0000
vt -16.7875 0.0000
vt -16.7875 1.5000
vt -18.2125 1.5000
vt -16.7875 0.0000
vt -18.2125 0.0000
vt -18.2125 1.5000
vt -16.7875 1.5000
vt 223.0375 -16.9625
vt 223.0375 -15.5375
vt 224.4625 -15.5375
vt 224.4625 -16.9625
vt 223.0375 -16.9625
vt 224.4625 -16.9625
vt 224.4625 -15.5375
vt 223.0375 -15.5375
vt 223.0375 0.0000
vt 224.4625 0.0000
vt 224.4625 1.5000
vt 223.0375 1.5000
vt 224.4625 0.0000
vt 223.0375 0.0000
vt 223.0375 1.5000
vt 224.4625 1.5000
vt -16.9625 0.0000
vt -15.5375 0.0000
vt -15.5375 1.5000
vt -16.9625 1.5000
vt -15.5375 0.0000
vt -16.9625 0.0000
vt -16.9625 1.5000
vt -15.5375 1.5000
vt 218.0375 -15.7125
vt 218.0375 -14.2875
vt 219.4625 -14.2875
vt 219.4625 -15.7125
vt 218.0375 -15.7125
vt 219.4625 -15.7125
vt 219.4625 -14.2875
vt 218.0375 -14.2875
vt 218.0375 0.0000
vt 219.4625 0.0000
vt 219.4625 1.5000
vt 218.0375 1.5000
vt 219.4625 0.0000
vt 218.0375 0.0000
vt 218.0375 1.5000
vt 219.4625 1.5000
vt -15.7125 0.0000
vt -14.2875 0.0000
vt -14.2875 1.5000
vt -15.7125 1.5000
vt -14.2875 0.0000
vt -15.7125 0.0000
vt -15.7125 1.5000
vt -14.2875 1.5000
vt 218.0375 -13.2125
vt 218.0375 -11.7875
vt 219.4625 -11.7875
vt 219.4625 -13.2125
vt 218.0375 -13.2125
vt 219.4625 -13.2125
vt 219.4625 -11.7875
vt 218.0375 -11.7875
vt 218.0375 0.0000
vt 219.4625 0.0000
vt 219.4625 1.5000
vt 218.0375 1.5000
vt 219.4625 0.0000
vt 218.0375 0.0000
vt 218.0375 1.5000
vt 219.4625 1.5000
vt -13.2125 0.0000
vt -11.7875 0.0000
vt -11.7875 1.5000
vt -13.2125 1.5000
vt -11.7875 0.0000
vt -13.2125 0.0000
vt -13.2125 1.5000
vt -11.7875 1.5000
usemtl rust
f 1 4 3 2
f 5 6 7 8
f 1 2 6 5
f 3 4 8 7
f 2 3 7 6
f 4 1 5 8
f 297 300 299 298
f 301 302 303 304
f 297 298 302 301
f 299 300 304 303
f 298 299 303 302
f 300 297 301 304
f 353 356 355 354
f 357 358 359 360
f 353 354 358 357
f 355 356 360 359
f 354 355 359 358
f 356 353 357 360
usemtl lamp_sick
f 385 388 387 386
f 389 390 391 392
f 385 386 390 389
f 387 388 392 391
f 386 387 391 390
f 388 385 389 392
f 393 396 395 394
f 397 398 399 400
f 393 394 398 397
f 395 396 400 399
f 394 395 399 398
f 396 393 397 400
f 401 404 403 402
f 405 406 407 408
f 401 402 406 405
f 403 404 408 407
f 402 403 407 406
f 404 401 405 408
f 409 412 411 410
f 413 414 415 416
f 409 410 414 413
f 411 412 416 415
f 410 411 415 414
f 412 409 413 416
f 417 420 419 418
f 421 422 423 424
f 417 418 422 421
f 419 420 424 423
f 418 419 423 422
f 420 417 421 424
f 425 428 427 426
f 429 430 431 432
f 425 426 430 429
f 427 428 432 431
f 426 427 431 430
f 428 425 429 432
usemtl rust
f 433 435 436 434
f 435 437 438 436
f 437 439 440 438
f 439 441 442 440
f 441 443 444 442
f 443 445 446 444
f 445 447 448 446
f 447 433 434 448
f 449 434 436
f 450 435 433
f 449 436 438
f 450 437 435
f 449 438 440
f 450 439 437
f 449 440 442
f 450 441 439
f 449 442 444
f 450 443 441
f 449 444 446
f 450 445 443
f 449 446 448
f 450 447 445
f 449 448 434
f 450 433 447
f 451 454 453 452
f 455 456 457 458
f 451 452 456 455
f 453 454 458 457
f 452 453 457 456
f 454 451 455 458
usemtl pipe
f 459 461 462 460
f 461 463 464 462
f 463 465 466 464
f 465 467 468 466
f 467 469 470 468
f 469 471 472 470
f 471 473 474 472
f 473 459 460 474
f 475 460 462
f 476 461 459
f 475 462 464
f 476 463 461
f 475 464 466
f 476 465 463
f 475 466 468
f 476 467 465
f 475 468 470
f 476 469 467
f 475 470 472
f 476 471 469
f 475 472 474
f 476 473 471
f 475 474 460
f 476 459 473
f 477 480 479 478
f 481 482 483 484
f 477 478 482 481
f 479 480 484 483
f 478 479 483 482
f 480 477 481 484
f 485 487 488 486
f 487 489 490 488
f 489 491 492 490
f 491 493 494 492
f 493 495 496 494
f 495 497 498 496
f 497 499 500 498
f 499 485 486 500
f 501 486 488
f 502 487 485
f 501 488 490
f 502 489 487
f 501 490 492
f 502 491 489
f 501 492 494
f 502 493 491
f 501 494 496
f 502 495 493
f 501 496 498
f 502 497 495
f 501 498 500
f 502 499 497
f 501 500 486
f 502 485 499
f 503 506 505 504
f 507 508 509 510
f 503 504 508 507
f 505 506 510 509
f 504 505 509 508
f 506 503 507 510
usemtl grime_wall
f 9/1 10/2 11/3 12/4
f 13/5 14/6 15/7 16/8
f 17/9 18/10 19/11 20/12
f 21/13 22/14 23/15 24/16
f 25/17 26/18 27/19 28/20
f 29/21 30/22 31/23 32/24
f 33/25 34/26 35/27 36/28
f 37/29 38/30 39/31 40/32
f 41/33 42/34 43/35 44/36
f 45/37 46/38 47/39 48/40
f 49/41 50/42 51/43 52/44
f 53/45 54/46 55/47 56/48
f 57/49 58/50 59/51 60/52
f 61/53 62/54 63/55 64/56
f 65/57 66/58 67/59 68/60
f 69/61 70/62 71/63 72/64
f 73/65 74/66 75/67 76/68
f 77/69 78/70 79/71 80/72
f 81/73 82/74 83/75 84/76
f 85/77 86/78 87/79 88/80
f 89/81 90/82 91/83 92/84
f 93/85 94/86 95/87 96/88
f 97/89 98/90 99/91 100/92
f 101/93 102/94 103/95 104/96
f 105/97 106/98 107/99 108/100
f 109/101 110/102 111/103 112/104
f 113/105 114/106 115/107 116/108
f 117/109 118/110 119/111 120/112
f 121/113 122/114 123/115 124/116
f 125/117 126/118 127/119 128/120
f 129/121 130/122 131/123 132/124
f 133/125 134/126 135/127 136/128
f 137/129 138/130 139/131 140/132
f 141/133 142/134 143/135 144/136
f 145/137 146/138 147/139 148/140
f 149/141 150/142 151/143 152/144
f 153/145 154/146 155/147 156/148
f 157/149 158/150 159/151 160/152
f 161/153 162/154 163/155 164/156
f 165/157 166/158 167/159 168/160
f 169/161 170/162 171/163 172/164
f 173/165 174/166 175/167 176/168
f 177/169 178/170 179/171 180/172
f 181/173 182/174 183/175 184/176
f 185/177 186/178 187/179 188/180
f 189/181 190/182 191/183 192/184
f 193/185 194/186 195/187 196/188
f 197/189 198/190 199/191 200/192
f 201/193 202/194 203/195 204/196
f 205/197 206/198 207/199 208/200
f 209/201 210/202 211/203 212/204
f 213/205 214/206 215/207 216/208
f 217/209 218/210 219/211 220/212
f 221/213 222/214 223/215 224/216
f 225/217 226/218 227/219 228/220
f 229/221 230/222 231/223 232/224
f 233/225 234/226 235/227 236/228
f 237/229 238/230 239/231 240/232
f 241/233 242/234 243/235 244/236
f 245/237 246/238 247/239 248/240
f 249/241 250/242 251/243 252/244
f 253/245 254/246 255/247 256/248
f 257/249 258/250 259/251 260/252
f 261/253 262/254 263/255 264/256
f 265/257 266/258 267/259 268/260
f 269/261 270/262 271/263 272/264
f 273/265 274/266 275/267 276/268
f 277/269 278/270 279/271 280/272
f 281/273 282/274 283/275 284/276
f 285/277 286/278 287/279 288/280
f 289/281 290/282 291/283 292/284
f 293/285 294/286 295/287 296/288
f 305/289 306/290 307/291 308/292
f 309/293 310/294 311/295 312/296
f 313/297 314/298 315/299 316/300
f 317/301 318/302 319/303 320/304
f 321/305 322/306 323/307 324/308
f 325/309 326/310 327/311 328/312
f 329/313 330/314 331/315 332/316
f 333/317 334/318 335/319 336/320
f 337/321 338/322 339/323 340/324
f 341/325 342/326 343/327 344/328
f 345/329 346/330 347/331 348/332
f 349/333 350/334 351/335 352/336
f 361/337 362/338 363/339 364/340
f 365/341 366/342 367/343 368/344
f 369/345 370/346 371/347 372/348
f 373/349 374/350 375/351 376/352
f 377/353 378/354 379/355 380/356
f 381/357 382/358 383/359 384/360
