# RoastEngine Backrooms level
mtllib backrooms.mtl
v 1562.7000 0.0000 -9.8000
v 1562.7000 0.0000 -6.7000
v 1565.8000 0.0000 -6.7000
v 1565.8000 0.0000 -9.8000
v 1562.7000 3.4000 -9.8000
v 1565.8000 3.4000 -9.8000
v 1565.8000 3.4000 -6.7000
v 1562.7000 3.4000 -6.7000
v 1562.7000 0.0000 -9.8000
v 1565.8000 0.0000 -9.8000
v 1565.8000 3.4000 -9.8000
v 1562.7000 3.4000 -9.8000
v 1565.8000 0.0000 -6.7000
v 1562.7000 0.0000 -6.7000
v 1562.7000 3.4000 -6.7000
v 1565.8000 3.4000 -6.7000
v 1565.8000 0.0000 -9.8000
v 1565.8000 0.0000 -6.7000
v 1565.8000 3.4000 -6.7000
v 1565.8000 3.4000 -9.8000
v 1562.7000 0.0000 -6.7000
v 1562.7000 0.0000 -9.8000
v 1562.7000 3.4000 -9.8000
v 1562.7000 3.4000 -6.7000
v 1568.2000 0.0000 -9.8000
v 1568.2000 0.0000 -6.7000
v 1571.3000 0.0000 -6.7000
v 1571.3000 0.0000 -9.8000
v 1568.2000 3.4000 -9.8000
v 1571.3000 3.4000 -9.8000
v 1571.3000 3.4000 -6.7000
v 1568.2000 3.4000 -6.7000
v 1568.2000 0.0000 -9.8000
v 1571.3000 0.0000 -9.8000
v 1571.3000 3.4000 -9.8000
v 1568.2000 3.4000 -9.8000
v 1571.3000 0.0000 -6.7000
v 1568.2000 0.0000 -6.7000
v 1568.2000 3.4000 -6.7000
v 1571.3000 3.4000 -6.7000
v 1571.3000 0.0000 -9.8000
v 1571.3000 0.0000 -6.7000
v 1571.3000 3.4000 -6.7000
v 1571.3000 3.4000 -9.8000
v 1568.2000 0.0000 -6.7000
v 1568.2000 0.0000 -9.8000
v 1568.2000 3.4000 -9.8000
v 1568.2000 3.4000 -6.7000
v 1579.2000 0.0000 -9.8000
v 1582.3000 0.0000 -9.8000
v 1582.3000 0.0000 -6.7000
v 1579.2000 0.0000 -6.7000
v 1579.2000 3.4000 -9.8000
v 1582.3000 3.4000 -9.8000
v 1582.3000 3.4000 -6.7000
v 1579.2000 3.4000 -6.7000
v 1584.7000 0.0000 -9.8000
v 1584.7000 0.0000 -6.7000
v 1587.8000 0.0000 -6.7000
v 1587.8000 0.0000 -9.8000
v 1584.7000 3.4000 -9.8000
v 1587.8000 3.4000 -9.8000
v 1587.8000 3.4000 -6.7000
v 1584.7000 3.4000 -6.7000
v 1584.7000 0.0000 -9.8000
v 1587.8000 0.0000 -9.8000
v 1587.8000 3.4000 -9.8000
v 1584.7000 3.4000 -9.8000
v 1587.8000 0.0000 -6.7000
v 1584.7000 0.0000 -6.7000
v 1584.7000 3.4000 -6.7000
v 1587.8000 3.4000 -6.7000
v 1587.8000 0.0000 -9.8000
v 1587.8000 0.0000 -6.7000
v 1587.8000 3.4000 -6.7000
v 1587.8000 3.4000 -9.8000
v 1584.7000 0.0000 -6.7000
v 1584.7000 0.0000 -9.8000
v 1584.7000 3.4000 -9.8000
v 1584.7000 3.4000 -6.7000
v 1587.4500 0.0000 -9.8000
v 1587.4500 0.0000 -6.7000
v 1590.5500 0.0000 -6.7000
v 1590.5500 0.0000 -9.8000
v 1587.4500 3.4000 -9.8000
v 1590.5500 3.4000 -9.8000
v 1590.5500 3.4000 -6.7000
v 1587.4500 3.4000 -6.7000
v 1587.4500 0.0000 -9.8000
v 1590.5500 0.0000 -9.8000
v 1590.5500 3.4000 -9.8000
v 1587.4500 3.4000 -9.8000
v 1590.5500 0.0000 -6.7000
v 1587.4500 0.0000 -6.7000
v 1587.4500 3.4000 -6.7000
v 1590.5500 3.4000 -6.7000
v 1590.5500 0.0000 -9.8000
v 1590.5500 0.0000 -6.7000
v 1590.5500 3.4000 -6.7000
v 1590.5500 3.4000 -9.8000
v 1587.4500 0.0000 -6.7000
v 1587.4500 0.0000 -9.8000
v 1587.4500 3.4000 -9.8000
v 1587.4500 3.4000 -6.7000
v 1568.2000 0.0000 -7.0500
v 1568.2000 0.0000 -3.9500
v 1571.3000 0.0000 -3.9500
v 1571.3000 0.0000 -7.0500
v 1568.2000 3.4000 -7.0500
v 1571.3000 3.4000 -7.0500
v 1571.3000 3.4000 -3.9500
v 1568.2000 3.4000 -3.9500
v 1568.2000 0.0000 -7.0500
v 1571.3000 0.0000 -7.0500
v 1571.3000 3.4000 -7.0500
v 1568.2000 3.4000 -7.0500
v 1571.3000 0.0000 -3.9500
v 1568.2000 0.0000 -3.9500
v 1568.2000 3.4000 -3.9500
v 1571.3000 3.4000 -3.9500
v 1571.3000 0.0000 -7.0500
v 1571.3000 0.0000 -3.9500
v 1571.3000 3.4000 -3.9500
v 1571.3000 3.4000 -7.0500
v 1568.2000 0.0000 -3.9500
v 1568.2000 0.0000 -7.0500
v 1568.2000 3.4000 -7.0500
v 1568.2000 3.4000 -3.9500
v 1562.7000 0.0000 -4.3000
v 1562.7000 0.0000 -1.2000
v 1565.8000 0.0000 -1.2000
v 1565.8000 0.0000 -4.3000
v 1562.7000 3.4000 -4.3000
v 1565.8000 3.4000 -4.3000
v 1565.8000 3.4000 -1.2000
v 1562.7000 3.4000 -1.2000
v 1562.7000 0.0000 -4.3000
v 1565.8000 0.0000 -4.3000
v 1565.8000 3.4000 -4.3000
v 1562.7000 3.4000 -4.3000
v 1565.8000 0.0000 -1.2000
v 1562.7000 0.0000 -1.2000
v 1562.7000 3.4000 -1.2000
v 1565.8000 3.4000 -1.2000
v 1565.8000 0.0000 -4.3000
v 1565.8000 0.0000 -1.2000
v 1565.8000 3.4000 -1.2000
v 1565.8000 3.4000 -4.3000
v 1562.7000 0.0000 -1.2000
v 1562.7000 0.0000 -4.3000
v 1562.7000 3.4000 -4.3000
v 1562.7000 3.4000 -1.2000
v 1568.2000 0.0000 -4.3000
v 1568.2000 0.0000 -1.2000
v 1571.3000 0.0000 -1.2000
v 1571.3000 0.0000 -4.3000
v 1568.2000 3.4000 -4.3000
v 1571.3000 3.4000 -4.3000
v 1571.3000 3.4000 -1.2000
v 1568.2000 3.4000 -1.2000
v 1568.2000 0.0000 -4.3000
v 1571.3000 0.0000 -4.3000
v 1571.3000 3.4000 -4.3000
v 1568.2000 3.4000 -4.3000
v 1571.3000 0.0000 -1.2000
v 1568.2000 0.0000 -1.2000
v 1568.2000 3.4000 -1.2000
v 1571.3000 3.4000 -1.2000
v 1571.3000 0.0000 -4.3000
v 1571.3000 0.0000 -1.2000
v 1571.3000 3.4000 -1.2000
v 1571.3000 3.4000 -4.3000
v 1568.2000 0.0000 -1.2000
v 1568.2000 0.0000 -4.3000
v 1568.2000 3.4000 -4.3000
v 1568.2000 3.4000 -1.2000
v 1584.7000 0.0000 -4.3000
v 1584.7000 0.0000 -1.2000
v 1587.8000 0.0000 -1.2000
v 1587.8000 0.0000 -4.3000
v 1584.7000 3.4000 -4.3000
v 1587.8000 3.4000 -4.3000
v 1587.8000 3.4000 -1.2000
v 1584.7000 3.4000 -1.2000
v 1584.7000 0.0000 -4.3000
v 1587.8000 0.0000 -4.3000
v 1587.8000 3.4000 -4.3000
v 1584.7000 3.4000 -4.3000
v 1587.8000 0.0000 -1.2000
v 1584.7000 0.0000 -1.2000
v 1584.7000 3.4000 -1.2000
v 1587.8000 3.4000 -1.2000
v 1587.8000 0.0000 -4.3000
v 1587.8000 0.0000 -1.2000
v 1587.8000 3.4000 -1.2000
v 1587.8000 3.4000 -4.3000
v 1584.7000 0.0000 -1.2000
v 1584.7000 0.0000 -4.3000
v 1584.7000 3.4000 -4.3000
v 1584.7000 3.4000 -1.2000
v 1562.7000 0.0000 -1.5500
v 1562.7000 0.0000 1.5500
v 1565.8000 0.0000 1.5500
v 1565.8000 0.0000 -1.5500
v 1562.7000 3.4000 -1.5500
v 1565.8000 3.4000 -1.5500
v 1565.8000 3.4000 1.5500
v 1562.7000 3.4000 1.5500
v 1562.7000 0.0000 -1.5500
v 1565.8000 0.0000 -1.5500
v 1565.8000 3.4000 -1.5500
v 1562.7000 3.4000 -1.5500
v 1565.8000 0.0000 1.5500
v 1562.7000 0.0000 1.5500
v 1562.7000 3.4000 1.5500
v 1565.8000 3.4000 1.5500
v 1565.8000 0.0000 -1.5500
v 1565.8000 0.0000 1.5500
v 1565.8000 3.4000 1.5500
v 1565.8000 3.4000 -1.5500
v 1562.7000 0.0000 1.5500
v 1562.7000 0.0000 -1.5500
v 1562.7000 3.4000 -1.5500
v 1562.7000 3.4000 1.5500
v 1584.7000 0.0000 -1.5500
v 1584.7000 0.0000 1.5500
v 1587.8000 0.0000 1.5500
v 1587.8000 0.0000 -1.5500
v 1584.7000 3.4000 -1.5500
v 1587.8000 3.4000 -1.5500
v 1587.8000 3.4000 1.5500
v 1584.7000 3.4000 1.5500
v 1584.7000 0.0000 -1.5500
v 1587.8000 0.0000 -1.5500
v 1587.8000 3.4000 -1.5500
v 1584.7000 3.4000 -1.5500
v 1587.8000 0.0000 1.5500
v 1584.7000 0.0000 1.5500
v 1584.7000 3.4000 1.5500
v 1587.8000 3.4000 1.5500
v 1587.8000 0.0000 -1.5500
v 1587.8000 0.0000 1.5500
v 1587.8000 3.4000 1.5500
v 1587.8000 3.4000 -1.5500
v 1584.7000 0.0000 1.5500
v 1584.7000 0.0000 -1.5500
v 1584.7000 3.4000 -1.5500
v 1584.7000 3.4000 1.5500
v 1562.7000 0.0000 1.2000
v 1562.7000 0.0000 4.3000
v 1565.8000 0.0000 4.3000
v 1565.8000 0.0000 1.2000
v 1562.7000 3.4000 1.2000
v 1565.8000 3.4000 1.2000
v 1565.8000 3.4000 4.3000
v 1562.7000 3.4000 4.3000
v 1562.7000 0.0000 1.2000
v 1565.8000 0.0000 1.2000
v 1565.8000 3.4000 1.2000
v 1562.7000 3.4000 1.2000
v 1565.8000 0.0000 4.3000
v 1562.7000 0.0000 4.3000
v 1562.7000 3.4000 4.3000
v 1565.8000 3.4000 4.3000
v 1565.8000 0.0000 1.2000
v 1565.8000 0.0000 4.3000
v 1565.8000 3.4000 4.3000
v 1565.8000 3.4000 1.2000
v 1562.7000 0.0000 4.3000
v 1562.7000 0.0000 1.2000
v 1562.7000 3.4000 1.2000
v 1562.7000 3.4000 4.3000
v 1565.4500 0.0000 1.2000
v 1565.4500 0.0000 4.3000
v 1568.5500 0.0000 4.3000
v 1568.5500 0.0000 1.2000
v 1565.4500 3.4000 1.2000
v 1568.5500 3.4000 1.2000
v 1568.5500 3.4000 4.3000
v 1565.4500 3.4000 4.3000
v 1565.4500 0.0000 1.2000
v 1568.5500 0.0000 1.2000
v 1568.5500 3.4000 1.2000
v 1565.4500 3.4000 1.2000
v 1568.5500 0.0000 4.3000
v 1565.4500 0.0000 4.3000
v 1565.4500 3.4000 4.3000
v 1568.5500 3.4000 4.3000
v 1568.5500 0.0000 1.2000
v 1568.5500 0.0000 4.3000
v 1568.5500 3.4000 4.3000
v 1568.5500 3.4000 1.2000
v 1565.4500 0.0000 4.3000
v 1565.4500 0.0000 1.2000
v 1565.4500 3.4000 1.2000
v 1565.4500 3.4000 4.3000
v 1568.2000 0.0000 1.2000
v 1568.2000 0.0000 4.3000
v 1571.3000 0.0000 4.3000
v 1571.3000 0.0000 1.2000
v 1568.2000 3.4000 1.2000
v 1571.3000 3.4000 1.2000
v 1571.3000 3.4000 4.3000
v 1568.2000 3.4000 4.3000
v 1568.2000 0.0000 1.2000
v 1571.3000 0.0000 1.2000
v 1571.3000 3.4000 1.2000
v 1568.2000 3.4000 1.2000
v 1571.3000 0.0000 4.3000
v 1568.2000 0.0000 4.3000
v 1568.2000 3.4000 4.3000
v 1571.3000 3.4000 4.3000
v 1571.3000 0.0000 1.2000
v 1571.3000 0.0000 4.3000
v 1571.3000 3.4000 4.3000
v 1571.3000 3.4000 1.2000
v 1568.2000 0.0000 4.3000
v 1568.2000 0.0000 1.2000
v 1568.2000 3.4000 1.2000
v 1568.2000 3.4000 4.3000
v 1570.9500 0.0000 1.2000
v 1574.0500 0.0000 1.2000
v 1574.0500 0.0000 4.3000
v 1570.9500 0.0000 4.3000
v 1570.9500 3.4000 1.2000
v 1574.0500 3.4000 1.2000
v 1574.0500 3.4000 4.3000
v 1570.9500 3.4000 4.3000
v 1573.7000 0.0000 1.2000
v 1573.7000 0.0000 4.3000
v 1576.8000 0.0000 4.3000
v 1576.8000 0.0000 1.2000
v 1573.7000 3.4000 1.2000
v 1576.8000 3.4000 1.2000
v 1576.8000 3.4000 4.3000
v 1573.7000 3.4000 4.3000
v 1573.7000 0.0000 1.2000
v 1576.8000 0.0000 1.2000
v 1576.8000 3.4000 1.2000
v 1573.7000 3.4000 1.2000
v 1576.8000 0.0000 4.3000
v 1573.7000 0.0000 4.3000
v 1573.7000 3.4000 4.3000
v 1576.8000 3.4000 4.3000
v 1576.8000 0.0000 1.2000
v 1576.8000 0.0000 4.3000
v 1576.8000 3.4000 4.3000
v 1576.8000 3.4000 1.2000
v 1573.7000 0.0000 4.3000
v 1573.7000 0.0000 1.2000
v 1573.7000 3.4000 1.2000
v 1573.7000 3.4000 4.3000
v 1579.2000 0.0000 1.2000
v 1579.2000 0.0000 4.3000
v 1582.3000 0.0000 4.3000
v 1582.3000 0.0000 1.2000
v 1579.2000 3.4000 1.2000
v 1582.3000 3.4000 1.2000
v 1582.3000 3.4000 4.3000
v 1579.2000 3.4000 4.3000
v 1579.2000 0.0000 1.2000
v 1582.3000 0.0000 1.2000
v 1582.3000 3.4000 1.2000
v 1579.2000 3.4000 1.2000
v 1582.3000 0.0000 4.3000
v 1579.2000 0.0000 4.3000
v 1579.2000 3.4000 4.3000
v 1582.3000 3.4000 4.3000
v 1582.3000 0.0000 1.2000
v 1582.3000 0.0000 4.3000
v 1582.3000 3.4000 4.3000
v 1582.3000 3.4000 1.2000
v 1579.2000 0.0000 4.3000
v 1579.2000 0.0000 1.2000
v 1579.2000 3.4000 1.2000
v 1579.2000 3.4000 4.3000
v 1584.7000 0.0000 1.2000
v 1584.7000 0.0000 4.3000
v 1587.8000 0.0000 4.3000
v 1587.8000 0.0000 1.2000
v 1584.7000 3.4000 1.2000
v 1587.8000 3.4000 1.2000
v 1587.8000 3.4000 4.3000
v 1584.7000 3.4000 4.3000
v 1584.7000 0.0000 1.2000
v 1587.8000 0.0000 1.2000
v 1587.8000 3.4000 1.2000
v 1584.7000 3.4000 1.2000
v 1587.8000 0.0000 4.3000
v 1584.7000 0.0000 4.3000
v 1584.7000 3.4000 4.3000
v 1587.8000 3.4000 4.3000
v 1587.8000 0.0000 1.2000
v 1587.8000 0.0000 4.3000
v 1587.8000 3.4000 4.3000
v 1587.8000 3.4000 1.2000
v 1584.7000 0.0000 4.3000
v 1584.7000 0.0000 1.2000
v 1584.7000 3.4000 1.2000
v 1584.7000 3.4000 4.3000
v 1573.7000 0.0000 3.9500
v 1573.7000 0.0000 7.0500
v 1576.8000 0.0000 7.0500
v 1576.8000 0.0000 3.9500
v 1573.7000 3.4000 3.9500
v 1576.8000 3.4000 3.9500
v 1576.8000 3.4000 7.0500
v 1573.7000 3.4000 7.0500
v 1573.7000 0.0000 3.9500
v 1576.8000 0.0000 3.9500
v 1576.8000 3.4000 3.9500
v 1573.7000 3.4000 3.9500
v 1576.8000 0.0000 7.0500
v 1573.7000 0.0000 7.0500
v 1573.7000 3.4000 7.0500
v 1576.8000 3.4000 7.0500
v 1576.8000 0.0000 3.9500
v 1576.8000 0.0000 7.0500
v 1576.8000 3.4000 7.0500
v 1576.8000 3.4000 3.9500
v 1573.7000 0.0000 7.0500
v 1573.7000 0.0000 3.9500
v 1573.7000 3.4000 3.9500
v 1573.7000 3.4000 7.0500
v 1562.7000 0.0000 6.7000
v 1562.7000 0.0000 9.8000
v 1565.8000 0.0000 9.8000
v 1565.8000 0.0000 6.7000
v 1562.7000 3.4000 6.7000
v 1565.8000 3.4000 6.7000
v 1565.8000 3.4000 9.8000
v 1562.7000 3.4000 9.8000
v 1562.7000 0.0000 6.7000
v 1565.8000 0.0000 6.7000
v 1565.8000 3.4000 6.7000
v 1562.7000 3.4000 6.7000
v 1565.8000 0.0000 9.8000
v 1562.7000 0.0000 9.8000
v 1562.7000 3.4000 9.8000
v 1565.8000 3.4000 9.8000
v 1565.8000 0.0000 6.7000
v 1565.8000 0.0000 9.8000
v 1565.8000 3.4000 9.8000
v 1565.8000 3.4000 6.7000
v 1562.7000 0.0000 9.8000
v 1562.7000 0.0000 6.7000
v 1562.7000 3.4000 6.7000
v 1562.7000 3.4000 9.8000
v 1568.2000 0.0000 6.7000
v 1568.2000 0.0000 9.8000
v 1571.3000 0.0000 9.8000
v 1571.3000 0.0000 6.7000
v 1568.2000 3.4000 6.7000
v 1571.3000 3.4000 6.7000
v 1571.3000 3.4000 9.8000
v 1568.2000 3.4000 9.8000
v 1568.2000 0.0000 6.7000
v 1571.3000 0.0000 6.7000
v 1571.3000 3.4000 6.7000
v 1568.2000 3.4000 6.7000
v 1571.3000 0.0000 9.8000
v 1568.2000 0.0000 9.8000
v 1568.2000 3.4000 9.8000
v 1571.3000 3.4000 9.8000
v 1571.3000 0.0000 6.7000
v 1571.3000 0.0000 9.8000
v 1571.3000 3.4000 9.8000
v 1571.3000 3.4000 6.7000
v 1568.2000 0.0000 9.8000
v 1568.2000 0.0000 6.7000
v 1568.2000 3.4000 6.7000
v 1568.2000 3.4000 9.8000
v 1573.7000 0.0000 6.7000
v 1573.7000 0.0000 9.8000
v 1576.8000 0.0000 9.8000
v 1576.8000 0.0000 6.7000
v 1573.7000 3.4000 6.7000
v 1576.8000 3.4000 6.7000
v 1576.8000 3.4000 9.8000
v 1573.7000 3.4000 9.8000
v 1573.7000 0.0000 6.7000
v 1576.8000 0.0000 6.7000
v 1576.8000 3.4000 6.7000
v 1573.7000 3.4000 6.7000
v 1576.8000 0.0000 9.8000
v 1573.7000 0.0000 9.8000
v 1573.7000 3.4000 9.8000
v 1576.8000 3.4000 9.8000
v 1576.8000 0.0000 6.7000
v 1576.8000 0.0000 9.8000
v 1576.8000 3.4000 9.8000
v 1576.8000 3.4000 6.7000
v 1573.7000 0.0000 9.8000
v 1573.7000 0.0000 6.7000
v 1573.7000 3.4000 6.7000
v 1573.7000 3.4000 9.8000
v 1576.4500 0.0000 6.7000
v 1576.4500 0.0000 9.8000
v 1579.5500 0.0000 9.8000
v 1579.5500 0.0000 6.7000
v 1576.4500 3.4000 6.7000
v 1579.5500 3.4000 6.7000
v 1579.5500 3.4000 9.8000
v 1576.4500 3.4000 9.8000
v 1576.4500 0.0000 6.7000
v 1579.5500 0.0000 6.7000
v 1579.5500 3.4000 6.7000
v 1576.4500 3.4000 6.7000
v 1579.5500 0.0000 9.8000
v 1576.4500 0.0000 9.8000
v 1576.4500 3.4000 9.8000
v 1579.5500 3.4000 9.8000
v 1579.5500 0.0000 6.7000
v 1579.5500 0.0000 9.8000
v 1579.5500 3.4000 9.8000
v 1579.5500 3.4000 6.7000
v 1576.4500 0.0000 9.8000
v 1576.4500 0.0000 6.7000
v 1576.4500 3.4000 6.7000
v 1576.4500 3.4000 9.8000
v 1579.2000 0.0000 6.7000
v 1582.3000 0.0000 6.7000
v 1582.3000 0.0000 9.8000
v 1579.2000 0.0000 9.8000
v 1579.2000 3.4000 6.7000
v 1582.3000 3.4000 6.7000
v 1582.3000 3.4000 9.8000
v 1579.2000 3.4000 9.8000
v 1562.7000 0.0000 9.4500
v 1562.7000 0.0000 12.5500
v 1565.8000 0.0000 12.5500
v 1565.8000 0.0000 9.4500
v 1562.7000 3.4000 9.4500
v 1565.8000 3.4000 9.4500
v 1565.8000 3.4000 12.5500
v 1562.7000 3.4000 12.5500
v 1562.7000 0.0000 9.4500
v 1565.8000 0.0000 9.4500
v 1565.8000 3.4000 9.4500
v 1562.7000 3.4000 9.4500
v 1565.8000 0.0000 12.5500
v 1562.7000 0.0000 12.5500
v 1562.7000 3.4000 12.5500
v 1565.8000 3.4000 12.5500
v 1565.8000 0.0000 9.4500
v 1565.8000 0.0000 12.5500
v 1565.8000 3.4000 12.5500
v 1565.8000 3.4000 9.4500
v 1562.7000 0.0000 12.5500
v 1562.7000 0.0000 9.4500
v 1562.7000 3.4000 9.4500
v 1562.7000 3.4000 12.5500
v 1568.2000 0.0000 9.4500
v 1568.2000 0.0000 12.5500
v 1571.3000 0.0000 12.5500
v 1571.3000 0.0000 9.4500
v 1568.2000 3.4000 9.4500
v 1571.3000 3.4000 9.4500
v 1571.3000 3.4000 12.5500
v 1568.2000 3.4000 12.5500
v 1568.2000 0.0000 9.4500
v 1571.3000 0.0000 9.4500
v 1571.3000 3.4000 9.4500
v 1568.2000 3.4000 9.4500
v 1571.3000 0.0000 12.5500
v 1568.2000 0.0000 12.5500
v 1568.2000 3.4000 12.5500
v 1571.3000 3.4000 12.5500
v 1571.3000 0.0000 9.4500
v 1571.3000 0.0000 12.5500
v 1571.3000 3.4000 12.5500
v 1571.3000 3.4000 9.4500
v 1568.2000 0.0000 12.5500
v 1568.2000 0.0000 9.4500
v 1568.2000 3.4000 9.4500
v 1568.2000 3.4000 12.5500
v 1579.2000 0.0000 9.4500
v 1579.2000 0.0000 12.5500
v 1582.3000 0.0000 12.5500
v 1582.3000 0.0000 9.4500
v 1579.2000 3.4000 9.4500
v 1582.3000 3.4000 9.4500
v 1582.3000 3.4000 12.5500
v 1579.2000 3.4000 12.5500
v 1579.2000 0.0000 9.4500
v 1582.3000 0.0000 9.4500
v 1582.3000 3.4000 9.4500
v 1579.2000 3.4000 9.4500
v 1582.3000 0.0000 12.5500
v 1579.2000 0.0000 12.5500
v 1579.2000 3.4000 12.5500
v 1582.3000 3.4000 12.5500
v 1582.3000 0.0000 9.4500
v 1582.3000 0.0000 12.5500
v 1582.3000 3.4000 12.5500
v 1582.3000 3.4000 9.4500
v 1579.2000 0.0000 12.5500
v 1579.2000 0.0000 9.4500
v 1579.2000 3.4000 9.4500
v 1579.2000 3.4000 12.5500
v 1562.7000 0.0000 12.2000
v 1562.7000 0.0000 15.3000
v 1565.8000 0.0000 15.3000
v 1565.8000 0.0000 12.2000
v 1562.7000 3.4000 12.2000
v 1565.8000 3.4000 12.2000
v 1565.8000 3.4000 15.3000
v 1562.7000 3.4000 15.3000
v 1562.7000 0.0000 12.2000
v 1565.8000 0.0000 12.2000
v 1565.8000 3.4000 12.2000
v 1562.7000 3.4000 12.2000
v 1565.8000 0.0000 15.3000
v 1562.7000 0.0000 15.3000
v 1562.7000 3.4000 15.3000
v 1565.8000 3.4000 15.3000
v 1565.8000 0.0000 12.2000
v 1565.8000 0.0000 15.3000
v 1565.8000 3.4000 15.3000
v 1565.8000 3.4000 12.2000
v 1562.7000 0.0000 15.3000
v 1562.7000 0.0000 12.2000
v 1562.7000 3.4000 12.2000
v 1562.7000 3.4000 15.3000
v 1568.2000 0.0000 12.2000
v 1568.2000 0.0000 15.3000
v 1571.3000 0.0000 15.3000
v 1571.3000 0.0000 12.2000
v 1568.2000 3.4000 12.2000
v 1571.3000 3.4000 12.2000
v 1571.3000 3.4000 15.3000
v 1568.2000 3.4000 15.3000
v 1568.2000 0.0000 12.2000
v 1571.3000 0.0000 12.2000
v 1571.3000 3.4000 12.2000
v 1568.2000 3.4000 12.2000
v 1571.3000 0.0000 15.3000
v 1568.2000 0.0000 15.3000
v 1568.2000 3.4000 15.3000
v 1571.3000 3.4000 15.3000
v 1571.3000 0.0000 12.2000
v 1571.3000 0.0000 15.3000
v 1571.3000 3.4000 15.3000
v 1571.3000 3.4000 12.2000
v 1568.2000 0.0000 15.3000
v 1568.2000 0.0000 12.2000
v 1568.2000 3.4000 12.2000
v 1568.2000 3.4000 15.3000
v 1573.7000 0.0000 12.2000
v 1573.7000 0.0000 15.3000
v 1576.8000 0.0000 15.3000
v 1576.8000 0.0000 12.2000
v 1573.7000 3.4000 12.2000
v 1576.8000 3.4000 12.2000
v 1576.8000 3.4000 15.3000
v 1573.7000 3.4000 15.3000
v 1573.7000 0.0000 12.2000
v 1576.8000 0.0000 12.2000
v 1576.8000 3.4000 12.2000
v 1573.7000 3.4000 12.2000
v 1576.8000 0.0000 15.3000
v 1573.7000 0.0000 15.3000
v 1573.7000 3.4000 15.3000
v 1576.8000 3.4000 15.3000
v 1576.8000 0.0000 12.2000
v 1576.8000 0.0000 15.3000
v 1576.8000 3.4000 15.3000
v 1576.8000 3.4000 12.2000
v 1573.7000 0.0000 15.3000
v 1573.7000 0.0000 12.2000
v 1573.7000 3.4000 12.2000
v 1573.7000 3.4000 15.3000
v 1579.2000 0.0000 12.2000
v 1582.3000 0.0000 12.2000
v 1582.3000 0.0000 15.3000
v 1579.2000 0.0000 15.3000
v 1579.2000 3.4000 12.2000
v 1582.3000 3.4000 12.2000
v 1582.3000 3.4000 15.3000
v 1579.2000 3.4000 15.3000
v 1584.7000 0.0000 12.2000
v 1584.7000 0.0000 15.3000
v 1587.8000 0.0000 15.3000
v 1587.8000 0.0000 12.2000
v 1584.7000 3.4000 12.2000
v 1587.8000 3.4000 12.2000
v 1587.8000 3.4000 15.3000
v 1584.7000 3.4000 15.3000
v 1584.7000 0.0000 12.2000
v 1587.8000 0.0000 12.2000
v 1587.8000 3.4000 12.2000
v 1584.7000 3.4000 12.2000
v 1587.8000 0.0000 15.3000
v 1584.7000 0.0000 15.3000
v 1584.7000 3.4000 15.3000
v 1587.8000 3.4000 15.3000
v 1587.8000 0.0000 12.2000
v 1587.8000 0.0000 15.3000
v 1587.8000 3.4000 15.3000
v 1587.8000 3.4000 12.2000
v 1584.7000 0.0000 15.3000
v 1584.7000 0.0000 12.2000
v 1584.7000 3.4000 12.2000
v 1584.7000 3.4000 15.3000
v 1584.7000 0.0000 14.9500
v 1584.7000 0.0000 18.0500
v 1587.8000 0.0000 18.0500
v 1587.8000 0.0000 14.9500
v 1584.7000 3.4000 14.9500
v 1587.8000 3.4000 14.9500
v 1587.8000 3.4000 18.0500
v 1584.7000 3.4000 18.0500
v 1584.7000 0.0000 14.9500
v 1587.8000 0.0000 14.9500
v 1587.8000 3.4000 14.9500
v 1584.7000 3.4000 14.9500
v 1587.8000 0.0000 18.0500
v 1584.7000 0.0000 18.0500
v 1584.7000 3.4000 18.0500
v 1587.8000 3.4000 18.0500
v 1587.8000 0.0000 14.9500
v 1587.8000 0.0000 18.0500
v 1587.8000 3.4000 18.0500
v 1587.8000 3.4000 14.9500
v 1584.7000 0.0000 18.0500
v 1584.7000 0.0000 14.9500
v 1584.7000 3.4000 14.9500
v 1584.7000 3.4000 18.0500
v 1562.7000 0.0000 17.7000
v 1562.7000 0.0000 20.8000
v 1565.8000 0.0000 20.8000
v 1565.8000 0.0000 17.7000
v 1562.7000 3.4000 17.7000
v 1565.8000 3.4000 17.7000
v 1565.8000 3.4000 20.8000
v 1562.7000 3.4000 20.8000
v 1562.7000 0.0000 17.7000
v 1565.8000 0.0000 17.7000
v 1565.8000 3.4000 17.7000
v 1562.7000 3.4000 17.7000
v 1565.8000 0.0000 20.8000
v 1562.7000 0.0000 20.8000
v 1562.7000 3.4000 20.8000
v 1565.8000 3.4000 20.8000
v 1565.8000 0.0000 17.7000
v 1565.8000 0.0000 20.8000
v 1565.8000 3.4000 20.8000
v 1565.8000 3.4000 17.7000
v 1562.7000 0.0000 20.8000
v 1562.7000 0.0000 17.7000
v 1562.7000 3.4000 17.7000
v 1562.7000 3.4000 20.8000
v 1568.2000 0.0000 17.7000
v 1568.2000 0.0000 20.8000
v 1571.3000 0.0000 20.8000
v 1571.3000 0.0000 17.7000
v 1568.2000 3.4000 17.7000
v 1571.3000 3.4000 17.7000
v 1571.3000 3.4000 20.8000
v 1568.2000 3.4000 20.8000
v 1568.2000 0.0000 17.7000
v 1571.3000 0.0000 17.7000
v 1571.3000 3.4000 17.7000
v 1568.2000 3.4000 17.7000
v 1571.3000 0.0000 20.8000
v 1568.2000 0.0000 20.8000
v 1568.2000 3.4000 20.8000
v 1571.3000 3.4000 20.8000
v 1571.3000 0.0000 17.7000
v 1571.3000 0.0000 20.8000
v 1571.3000 3.4000 20.8000
v 1571.3000 3.4000 17.7000
v 1568.2000 0.0000 20.8000
v 1568.2000 0.0000 17.7000
v 1568.2000 3.4000 17.7000
v 1568.2000 3.4000 20.8000
v 1570.9500 0.0000 17.7000
v 1570.9500 0.0000 20.8000
v 1574.0500 0.0000 20.8000
v 1574.0500 0.0000 17.7000
v 1570.9500 3.4000 17.7000
v 1574.0500 3.4000 17.7000
v 1574.0500 3.4000 20.8000
v 1570.9500 3.4000 20.8000
v 1570.9500 0.0000 17.7000
v 1574.0500 0.0000 17.7000
v 1574.0500 3.4000 17.7000
v 1570.9500 3.4000 17.7000
v 1574.0500 0.0000 20.8000
v 1570.9500 0.0000 20.8000
v 1570.9500 3.4000 20.8000
v 1574.0500 3.4000 20.8000
v 1574.0500 0.0000 17.7000
v 1574.0500 0.0000 20.8000
v 1574.0500 3.4000 20.8000
v 1574.0500 3.4000 17.7000
v 1570.9500 0.0000 20.8000
v 1570.9500 0.0000 17.7000
v 1570.9500 3.4000 17.7000
v 1570.9500 3.4000 20.8000
v 1573.7000 0.0000 17.7000
v 1573.7000 0.0000 20.8000
v 1576.8000 0.0000 20.8000
v 1576.8000 0.0000 17.7000
v 1573.7000 3.4000 17.7000
v 1576.8000 3.4000 17.7000
v 1576.8000 3.4000 20.8000
v 1573.7000 3.4000 20.8000
v 1573.7000 0.0000 17.7000
v 1576.8000 0.0000 17.7000
v 1576.8000 3.4000 17.7000
v 1573.7000 3.4000 17.7000
v 1576.8000 0.0000 20.8000
v 1573.7000 0.0000 20.8000
v 1573.7000 3.4000 20.8000
v 1576.8000 3.4000 20.8000
v 1576.8000 0.0000 17.7000
v 1576.8000 0.0000 20.8000
v 1576.8000 3.4000 20.8000
v 1576.8000 3.4000 17.7000
v 1573.7000 0.0000 20.8000
v 1573.7000 0.0000 17.7000
v 1573.7000 3.4000 17.7000
v 1573.7000 3.4000 20.8000
v 1579.2000 0.0000 17.7000
v 1582.3000 0.0000 17.7000
v 1582.3000 0.0000 20.8000
v 1579.2000 0.0000 20.8000
v 1579.2000 3.4000 17.7000
v 1582.3000 3.4000 17.7000
v 1582.3000 3.4000 20.8000
v 1579.2000 3.4000 20.8000
v 1581.9500 0.0000 17.7000
v 1581.9500 0.0000 20.8000
v 1585.0500 0.0000 20.8000
v 1585.0500 0.0000 17.7000
v 1581.9500 3.4000 17.7000
v 1585.0500 3.4000 17.7000
v 1585.0500 3.4000 20.8000
v 1581.9500 3.4000 20.8000
v 1581.9500 0.0000 17.7000
v 1585.0500 0.0000 17.7000
v 1585.0500 3.4000 17.7000
v 1581.9500 3.4000 17.7000
v 1585.0500 0.0000 20.8000
v 1581.9500 0.0000 20.8000
v 1581.9500 3.4000 20.8000
v 1585.0500 3.4000 20.8000
v 1585.0500 0.0000 17.7000
v 1585.0500 0.0000 20.8000
v 1585.0500 3.4000 20.8000
v 1585.0500 3.4000 17.7000
v 1581.9500 0.0000 20.8000
v 1581.9500 0.0000 17.7000
v 1581.9500 3.4000 17.7000
v 1581.9500 3.4000 20.8000
v 1584.7000 0.0000 17.7000
v 1584.7000 0.0000 20.8000
v 1587.8000 0.0000 20.8000
v 1587.8000 0.0000 17.7000
v 1584.7000 3.4000 17.7000
v 1587.8000 3.4000 17.7000
v 1587.8000 3.4000 20.8000
v 1584.7000 3.4000 20.8000
v 1584.7000 0.0000 17.7000
v 1587.8000 0.0000 17.7000
v 1587.8000 3.4000 17.7000
v 1584.7000 3.4000 17.7000
v 1587.8000 0.0000 20.8000
v 1584.7000 0.0000 20.8000
v 1584.7000 3.4000 20.8000
v 1587.8000 3.4000 20.8000
v 1587.8000 0.0000 17.7000
v 1587.8000 0.0000 20.8000
v 1587.8000 3.4000 20.8000
v 1587.8000 3.4000 17.7000
v 1584.7000 0.0000 20.8000
v 1584.7000 0.0000 17.7000
v 1584.7000 3.4000 17.7000
v 1584.7000 3.4000 20.8000
v 1562.7000 0.0000 20.4500
v 1562.7000 0.0000 23.5500
v 1565.8000 0.0000 23.5500
v 1565.8000 0.0000 20.4500
v 1562.7000 3.4000 20.4500
v 1565.8000 3.4000 20.4500
v 1565.8000 3.4000 23.5500
v 1562.7000 3.4000 23.5500
v 1562.7000 0.0000 20.4500
v 1565.8000 0.0000 20.4500
v 1565.8000 3.4000 20.4500
v 1562.7000 3.4000 20.4500
v 1565.8000 0.0000 23.5500
v 1562.7000 0.0000 23.5500
v 1562.7000 3.4000 23.5500
v 1565.8000 3.4000 23.5500
v 1565.8000 0.0000 20.4500
v 1565.8000 0.0000 23.5500
v 1565.8000 3.4000 23.5500
v 1565.8000 3.4000 20.4500
v 1562.7000 0.0000 23.5500
v 1562.7000 0.0000 20.4500
v 1562.7000 3.4000 20.4500
v 1562.7000 3.4000 23.5500
v 1561.3700 1.9000 -5.5800
v 1561.6300 1.9000 -5.5800
v 1561.6300 1.9000 -5.4200
v 1561.3700 1.9000 -5.4200
v 1561.3700 2.2000 -5.5800
v 1561.6300 2.2000 -5.5800
v 1561.6300 2.2000 -5.4200
v 1561.3700 2.2000 -5.4200
v 1561.3300 2.2100 -5.6100
v 1561.6700 2.2100 -5.6100
v 1561.6700 2.2100 -5.3900
v 1561.3300 2.2100 -5.3900
v 1561.3300 2.2700 -5.6100
v 1561.6700 2.2700 -5.6100
v 1561.6700 2.2700 -5.3900
v 1561.3300 2.2700 -5.3900
v 1566.8700 1.9000 -5.5800
v 1567.1300 1.9000 -5.5800
v 1567.1300 1.9000 -5.4200
v 1566.8700 1.9000 -5.4200
v 1566.8700 2.2000 -5.5800
v 1567.1300 2.2000 -5.5800
v 1567.1300 2.2000 -5.4200
v 1566.8700 2.2000 -5.4200
v 1566.8300 2.2100 -5.6100
v 1567.1700 2.2100 -5.6100
v 1567.1700 2.2100 -5.3900
v 1566.8300 2.2100 -5.3900
v 1566.8300 2.2700 -5.6100
v 1567.1700 2.2700 -5.6100
v 1567.1700 2.2700 -5.3900
v 1566.8300 2.2700 -5.3900
v 1572.3700 1.9000 -5.5800
v 1572.6300 1.9000 -5.5800
v 1572.6300 1.9000 -5.4200
v 1572.3700 1.9000 -5.4200
v 1572.3700 2.2000 -5.5800
v 1572.6300 2.2000 -5.5800
v 1572.6300 2.2000 -5.4200
v 1572.3700 2.2000 -5.4200
v 1572.3300 2.2100 -5.6100
v 1572.6700 2.2100 -5.6100
v 1572.6700 2.2100 -5.3900
v 1572.3300 2.2100 -5.3900
v 1572.3300 2.2700 -5.6100
v 1572.6700 2.2700 -5.6100
v 1572.6700 2.2700 -5.3900
v 1572.3300 2.2700 -5.3900
v 1577.8700 1.9000 -5.5800
v 1578.1300 1.9000 -5.5800
v 1578.1300 1.9000 -5.4200
v 1577.8700 1.9000 -5.4200
v 1577.8700 2.2000 -5.5800
v 1578.1300 2.2000 -5.5800
v 1578.1300 2.2000 -5.4200
v 1577.8700 2.2000 -5.4200
v 1577.8300 2.2100 -5.6100
v 1578.1700 2.2100 -5.6100
v 1578.1700 2.2100 -5.3900
v 1577.8300 2.2100 -5.3900
v 1577.8300 2.2700 -5.6100
v 1578.1700 2.2700 -5.6100
v 1578.1700 2.2700 -5.3900
v 1577.8300 2.2700 -5.3900
v 1588.8700 1.9000 -5.5800
v 1589.1300 1.9000 -5.5800
v 1589.1300 1.9000 -5.4200
v 1588.8700 1.9000 -5.4200
v 1588.8700 2.2000 -5.5800
v 1589.1300 2.2000 -5.5800
v 1589.1300 2.2000 -5.4200
v 1588.8700 2.2000 -5.4200
v 1588.8300 2.2100 -5.6100
v 1589.1700 2.2100 -5.6100
v 1589.1700 2.2100 -5.3900
v 1588.8300 2.2100 -5.3900
v 1588.8300 2.2700 -5.6100
v 1589.1700 2.2700 -5.6100
v 1589.1700 2.2700 -5.3900
v 1588.8300 2.2700 -5.3900
v 1566.8700 1.9000 -0.0800
v 1567.1300 1.9000 -0.0800
v 1567.1300 1.9000 0.0800
v 1566.8700 1.9000 0.0800
v 1566.8700 2.2000 -0.0800
v 1567.1300 2.2000 -0.0800
v 1567.1300 2.2000 0.0800
v 1566.8700 2.2000 0.0800
v 1566.8300 2.2100 -0.1100
v 1567.1700 2.2100 -0.1100
v 1567.1700 2.2100 0.1100
v 1566.8300 2.2100 0.1100
v 1566.8300 2.2700 -0.1100
v 1567.1700 2.2700 -0.1100
v 1567.1700 2.2700 0.1100
v 1566.8300 2.2700 0.1100
v 1572.3700 1.9000 -0.0800
v 1572.6300 1.9000 -0.0800
v 1572.6300 1.9000 0.0800
v 1572.3700 1.9000 0.0800
v 1572.3700 2.2000 -0.0800
v 1572.6300 2.2000 -0.0800
v 1572.6300 2.2000 0.0800
v 1572.3700 2.2000 0.0800
v 1572.3300 2.2100 -0.1100
v 1572.6700 2.2100 -0.1100
v 1572.6700 2.2100 0.1100
v 1572.3300 2.2100 0.1100
v 1572.3300 2.2700 -0.1100
v 1572.6700 2.2700 -0.1100
v 1572.6700 2.2700 0.1100
v 1572.3300 2.2700 0.1100
v 1583.3700 1.9000 -0.0800
v 1583.6300 1.9000 -0.0800
v 1583.6300 1.9000 0.0800
v 1583.3700 1.9000 0.0800
v 1583.3700 2.2000 -0.0800
v 1583.6300 2.2000 -0.0800
v 1583.6300 2.2000 0.0800
v 1583.3700 2.2000 0.0800
v 1583.3300 2.2100 -0.1100
v 1583.6700 2.2100 -0.1100
v 1583.6700 2.2100 0.1100
v 1583.3300 2.2100 0.1100
v 1583.3300 2.2700 -0.1100
v 1583.6700 2.2700 -0.1100
v 1583.6700 2.2700 0.1100
v 1583.3300 2.2700 0.1100
v 1561.3700 1.9000 5.4200
v 1561.6300 1.9000 5.4200
v 1561.6300 1.9000 5.5800
v 1561.3700 1.9000 5.5800
v 1561.3700 2.2000 5.4200
v 1561.6300 2.2000 5.4200
v 1561.6300 2.2000 5.5800
v 1561.3700 2.2000 5.5800
v 1561.3300 2.2100 5.3900
v 1561.6700 2.2100 5.3900
v 1561.6700 2.2100 5.6100
v 1561.3300 2.2100 5.6100
v 1561.3300 2.2700 5.3900
v 1561.6700 2.2700 5.3900
v 1561.6700 2.2700 5.6100
v 1561.3300 2.2700 5.6100
v 1588.8700 1.9000 5.4200
v 1589.1300 1.9000 5.4200
v 1589.1300 1.9000 5.5800
v 1588.8700 1.9000 5.5800
v 1588.8700 2.2000 5.4200
v 1589.1300 2.2000 5.4200
v 1589.1300 2.2000 5.5800
v 1588.8700 2.2000 5.5800
v 1588.8300 2.2100 5.3900
v 1589.1700 2.2100 5.3900
v 1589.1700 2.2100 5.6100
v 1588.8300 2.2100 5.6100
v 1588.8300 2.2700 5.3900
v 1589.1700 2.2700 5.3900
v 1589.1700 2.2700 5.6100
v 1588.8300 2.2700 5.6100
v 1561.3700 1.9000 10.9200
v 1561.6300 1.9000 10.9200
v 1561.6300 1.9000 11.0800
v 1561.3700 1.9000 11.0800
v 1561.3700 2.2000 10.9200
v 1561.6300 2.2000 10.9200
v 1561.6300 2.2000 11.0800
v 1561.3700 2.2000 11.0800
v 1561.3300 2.2100 10.8900
v 1561.6700 2.2100 10.8900
v 1561.6700 2.2100 11.1100
v 1561.3300 2.2100 11.1100
v 1561.3300 2.2700 10.8900
v 1561.6700 2.2700 10.8900
v 1561.6700 2.2700 11.1100
v 1561.3300 2.2700 11.1100
v 1572.3700 1.9000 10.9200
v 1572.6300 1.9000 10.9200
v 1572.6300 1.9000 11.0800
v 1572.3700 1.9000 11.0800
v 1572.3700 2.2000 10.9200
v 1572.6300 2.2000 10.9200
v 1572.6300 2.2000 11.0800
v 1572.3700 2.2000 11.0800
v 1572.3300 2.2100 10.8900
v 1572.6700 2.2100 10.8900
v 1572.6700 2.2100 11.1100
v 1572.3300 2.2100 11.1100
v 1572.3300 2.2700 10.8900
v 1572.6700 2.2700 10.8900
v 1572.6700 2.2700 11.1100
v 1572.3300 2.2700 11.1100
v 1583.3700 1.9000 10.9200
v 1583.6300 1.9000 10.9200
v 1583.6300 1.9000 11.0800
v 1583.3700 1.9000 11.0800
v 1583.3700 2.2000 10.9200
v 1583.6300 2.2000 10.9200
v 1583.6300 2.2000 11.0800
v 1583.3700 2.2000 11.0800
v 1583.3300 2.2100 10.8900
v 1583.6700 2.2100 10.8900
v 1583.6700 2.2100 11.1100
v 1583.3300 2.2100 11.1100
v 1583.3300 2.2700 10.8900
v 1583.6700 2.2700 10.8900
v 1583.6700 2.2700 11.1100
v 1583.3300 2.2700 11.1100
v 1588.8700 1.9000 10.9200
v 1589.1300 1.9000 10.9200
v 1589.1300 1.9000 11.0800
v 1588.8700 1.9000 11.0800
v 1588.8700 2.2000 10.9200
v 1589.1300 2.2000 10.9200
v 1589.1300 2.2000 11.0800
v 1588.8700 2.2000 11.0800
v 1588.8300 2.2100 10.8900
v 1589.1700 2.2100 10.8900
v 1589.1700 2.2100 11.1100
v 1588.8300 2.2100 11.1100
v 1588.8300 2.2700 10.8900
v 1589.1700 2.2700 10.8900
v 1589.1700 2.2700 11.1100
v 1588.8300 2.2700 11.1100
v 1561.3700 1.9000 16.4200
v 1561.6300 1.9000 16.4200
v 1561.6300 1.9000 16.5800
v 1561.3700 1.9000 16.5800
v 1561.3700 2.2000 16.4200
v 1561.6300 2.2000 16.4200
v 1561.6300 2.2000 16.5800
v 1561.3700 2.2000 16.5800
v 1561.3300 2.2100 16.3900
v 1561.6700 2.2100 16.3900
v 1561.6700 2.2100 16.6100
v 1561.3300 2.2100 16.6100
v 1561.3300 2.2700 16.3900
v 1561.6700 2.2700 16.3900
v 1561.6700 2.2700 16.6100
v 1561.3300 2.2700 16.6100
v 1566.8700 1.9000 16.4200
v 1567.1300 1.9000 16.4200
v 1567.1300 1.9000 16.5800
v 1566.8700 1.9000 16.5800
v 1566.8700 2.2000 16.4200
v 1567.1300 2.2000 16.4200
v 1567.1300 2.2000 16.5800
v 1566.8700 2.2000 16.5800
v 1566.8300 2.2100 16.3900
v 1567.1700 2.2100 16.3900
v 1567.1700 2.2100 16.6100
v 1566.8300 2.2100 16.6100
v 1566.8300 2.2700 16.3900
v 1567.1700 2.2700 16.3900
v 1567.1700 2.2700 16.6100
v 1566.8300 2.2700 16.6100
v 1566.8700 1.9000 21.9200
v 1567.1300 1.9000 21.9200
v 1567.1300 1.9000 22.0800
v 1566.8700 1.9000 22.0800
v 1566.8700 2.2000 21.9200
v 1567.1300 2.2000 21.9200
v 1567.1300 2.2000 22.0800
v 1566.8700 2.2000 22.0800
v 1566.8300 2.2100 21.8900
v 1567.1700 2.2100 21.8900
v 1567.1700 2.2100 22.1100
v 1566.8300 2.2100 22.1100
v 1566.8300 2.2700 21.8900
v 1567.1700 2.2700 21.8900
v 1567.1700 2.2700 22.1100
v 1566.8300 2.2700 22.1100
v 1572.3700 1.9000 21.9200
v 1572.6300 1.9000 21.9200
v 1572.6300 1.9000 22.0800
v 1572.3700 1.9000 22.0800
v 1572.3700 2.2000 21.9200
v 1572.6300 2.2000 21.9200
v 1572.6300 2.2000 22.0800
v 1572.3700 2.2000 22.0800
v 1572.3300 2.2100 21.8900
v 1572.6700 2.2100 21.8900
v 1572.6700 2.2100 22.1100
v 1572.3300 2.2100 22.1100
v 1572.3300 2.2700 21.8900
v 1572.6700 2.2700 21.8900
v 1572.6700 2.2700 22.1100
v 1572.3300 2.2700 22.1100
v 1577.8700 1.9000 21.9200
v 1578.1300 1.9000 21.9200
v 1578.1300 1.9000 22.0800
v 1577.8700 1.9000 22.0800
v 1577.8700 2.2000 21.9200
v 1578.1300 2.2000 21.9200
v 1578.1300 2.2000 22.0800
v 1577.8700 2.2000 22.0800
v 1577.8300 2.2100 21.8900
v 1578.1700 2.2100 21.8900
v 1578.1700 2.2100 22.1100
v 1577.8300 2.2100 22.1100
v 1577.8300 2.2700 21.8900
v 1578.1700 2.2700 21.8900
v 1578.1700 2.2700 22.1100
v 1577.8300 2.2700 22.1100
v 1584.6700 0.0050 -8.7250
v 1584.7300 0.0050 -8.7250
v 1584.7300 0.0050 -7.7750
v 1584.6700 0.0050 -7.7750
v 1584.6700 2.0550 -8.7250
v 1584.7300 2.0550 -8.7250
v 1584.7300 2.0550 -7.7750
v 1584.6700 2.0550 -7.7750
v 1584.6250 0.9450 -8.8120
v 1584.6950 0.9450 -8.8120
v 1584.6950 0.9450 -8.7420
v 1584.6250 0.9450 -8.7420
v 1584.6250 1.0150 -8.8120
v 1584.6950 1.0150 -8.8120
v 1584.6950 1.0150 -8.7420
v 1584.6250 1.0150 -8.7420
v 1588.5250 0.0050 -9.8300
v 1589.4750 0.0050 -9.8300
v 1589.4750 0.0050 -9.7700
v 1588.5250 0.0050 -9.7700
v 1588.5250 2.0550 -9.8300
v 1589.4750 2.0550 -9.8300
v 1589.4750 2.0550 -9.7700
v 1588.5250 2.0550 -9.7700
v 1589.4920 0.9450 -9.8750
v 1589.5620 0.9450 -9.8750
v 1589.5620 0.9450 -9.8050
v 1589.4920 0.9450 -9.8050
v 1589.4920 1.0150 -9.8750
v 1589.5620 1.0150 -9.8750
v 1589.5620 1.0150 -9.8050
v 1589.4920 1.0150 -9.8050
v 1560.2700 0.0050 -5.9750
v 1560.3300 0.0050 -5.9750
v 1560.3300 0.0050 -5.0250
v 1560.2700 0.0050 -5.0250
v 1560.2700 2.0550 -5.9750
v 1560.3300 2.0550 -5.9750
v 1560.3300 2.0550 -5.0250
v 1560.2700 2.0550 -5.0250
v 1560.3050 0.9450 -5.0080
v 1560.3750 0.9450 -5.0080
v 1560.3750 0.9450 -4.9380
v 1560.3050 0.9450 -4.9380
v 1560.3050 1.0150 -5.0080
v 1560.3750 1.0150 -5.0080
v 1560.3750 1.0150 -4.9380
v 1560.3050 1.0150 -4.9380
v 1568.1700 0.0050 -5.9750
v 1568.2300 0.0050 -5.9750
v 1568.2300 0.0050 -5.0250
v 1568.1700 0.0050 -5.0250
v 1568.1700 2.0550 -5.9750
v 1568.2300 2.0550 -5.9750
v 1568.2300 2.0550 -5.0250
v 1568.1700 2.0550 -5.0250
v 1568.1250 0.9450 -6.0620
v 1568.1950 0.9450 -6.0620
v 1568.1950 0.9450 -5.9920
v 1568.1250 0.9450 -5.9920
v 1568.1250 1.0150 -6.0620
v 1568.1950 1.0150 -6.0620
v 1568.1950 1.0150 -5.9920
v 1568.1250 1.0150 -5.9920
v 1571.2700 0.0050 -3.2250
v 1571.3300 0.0050 -3.2250
v 1571.3300 0.0050 -2.2750
v 1571.2700 0.0050 -2.2750
v 1571.2700 2.0550 -3.2250
v 1571.3300 2.0550 -3.2250
v 1571.3300 2.0550 -2.2750
v 1571.2700 2.0550 -2.2750
v 1571.3050 0.9450 -2.2580
v 1571.3750 0.9450 -2.2580
v 1571.3750 0.9450 -2.1880
v 1571.3050 0.9450 -2.1880
v 1571.3050 1.0150 -2.2580
v 1571.3750 1.0150 -2.2580
v 1571.3750 1.0150 -2.1880
v 1571.3050 1.0150 -2.1880
v 1584.6700 0.0050 -0.4750
v 1584.7300 0.0050 -0.4750
v 1584.7300 0.0050 0.4750
v 1584.6700 0.0050 0.4750
v 1584.6700 2.0550 -0.4750
v 1584.7300 2.0550 -0.4750
v 1584.7300 2.0550 0.4750
v 1584.6700 2.0550 0.4750
v 1584.6250 0.9450 -0.5620
v 1584.6950 0.9450 -0.5620
v 1584.6950 0.9450 -0.4920
v 1584.6250 0.9450 -0.4920
v 1584.6250 1.0150 -0.5620
v 1584.6950 1.0150 -0.5620
v 1584.6950 1.0150 -0.4920
v 1584.6250 1.0150 -0.4920
v 1569.2750 0.0050 1.1700
v 1570.2250 0.0050 1.1700
v 1570.2250 0.0050 1.2300
v 1569.2750 0.0050 1.2300
v 1569.2750 2.0550 1.1700
v 1570.2250 2.0550 1.1700
v 1570.2250 2.0550 1.2300
v 1569.2750 2.0550 1.2300
v 1570.2420 0.9450 1.1250
v 1570.3120 0.9450 1.1250
v 1570.3120 0.9450 1.1950
v 1570.2420 0.9450 1.1950
v 1570.2420 1.0150 1.1250
v 1570.3120 1.0150 1.1250
v 1570.3120 1.0150 1.1950
v 1570.2420 1.0150 1.1950
v 1572.0250 0.0050 1.1700
v 1572.9750 0.0050 1.1700
v 1572.9750 0.0050 1.2300
v 1572.0250 0.0050 1.2300
v 1572.0250 2.0550 1.1700
v 1572.9750 2.0550 1.1700
v 1572.9750 2.0550 1.2300
v 1572.0250 2.0550 1.2300
v 1572.9920 0.9450 1.1250
v 1573.0620 0.9450 1.1250
v 1573.0620 0.9450 1.1950
v 1572.9920 0.9450 1.1950
v 1572.9920 1.0150 1.1250
v 1573.0620 1.0150 1.1250
v 1573.0620 1.0150 1.1950
v 1572.9920 1.0150 1.1950
v 1584.6700 0.0050 2.2750
v 1584.7300 0.0050 2.2750
v 1584.7300 0.0050 3.2250
v 1584.6700 0.0050 3.2250
v 1584.6700 2.0550 2.2750
v 1584.7300 2.0550 2.2750
v 1584.7300 2.0550 3.2250
v 1584.6700 2.0550 3.2250
v 1584.6250 0.9450 2.1880
v 1584.6950 0.9450 2.1880
v 1584.6950 0.9450 2.2580
v 1584.6250 0.9450 2.2580
v 1584.6250 1.0150 2.1880
v 1584.6950 1.0150 2.1880
v 1584.6950 1.0150 2.2580
v 1584.6250 1.0150 2.2580
v 1560.2700 0.0050 5.0250
v 1560.3300 0.0050 5.0250
v 1560.3300 0.0050 5.9750
v 1560.2700 0.0050 5.9750
v 1560.2700 2.0550 5.0250
v 1560.3300 2.0550 5.0250
v 1560.3300 2.0550 5.9750
v 1560.2700 2.0550 5.9750
v 1560.3050 0.9450 5.9920
v 1560.3750 0.9450 5.9920
v 1560.3750 0.9450 6.0620
v 1560.3050 0.9450 6.0620
v 1560.3050 1.0150 5.9920
v 1560.3750 1.0150 5.9920
v 1560.3750 1.0150 6.0620
v 1560.3050 1.0150 6.0620
v 1576.7700 0.0050 5.0250
v 1576.8300 0.0050 5.0250
v 1576.8300 0.0050 5.9750
v 1576.7700 0.0050 5.9750
v 1576.7700 2.0550 5.0250
v 1576.8300 2.0550 5.0250
v 1576.8300 2.0550 5.9750
v 1576.7700 2.0550 5.9750
v 1576.8050 0.9450 5.9920
v 1576.8750 0.9450 5.9920
v 1576.8750 0.9450 6.0620
v 1576.8050 0.9450 6.0620
v 1576.8050 1.0150 5.9920
v 1576.8750 1.0150 5.9920
v 1576.8750 1.0150 6.0620
v 1576.8050 1.0150 6.0620
v 1574.7750 0.0050 9.7700
v 1575.7250 0.0050 9.7700
v 1575.7250 0.0050 9.8300
v 1574.7750 0.0050 9.8300
v 1574.7750 2.0550 9.7700
v 1575.7250 2.0550 9.7700
v 1575.7250 2.0550 9.8300
v 1574.7750 2.0550 9.8300
v 1574.6880 0.9450 9.8050
v 1574.7580 0.9450 9.8050
v 1574.7580 0.9450 9.8750
v 1574.6880 0.9450 9.8750
v 1574.6880 1.0150 9.8050
v 1574.7580 1.0150 9.8050
v 1574.7580 1.0150 9.8750
v 1574.6880 1.0150 9.8750
v 1577.5250 0.0050 6.6700
v 1578.4750 0.0050 6.6700
v 1578.4750 0.0050 6.7300
v 1577.5250 0.0050 6.7300
v 1577.5250 2.0550 6.6700
v 1578.4750 2.0550 6.6700
v 1578.4750 2.0550 6.7300
v 1577.5250 2.0550 6.7300
v 1578.4920 0.9450 6.6250
v 1578.5620 0.9450 6.6250
v 1578.5620 0.9450 6.6950
v 1578.4920 0.9450 6.6950
v 1578.4920 1.0150 6.6250
v 1578.5620 1.0150 6.6250
v 1578.5620 1.0150 6.6950
v 1578.4920 1.0150 6.6950
v 1562.6700 0.0050 10.5250
v 1562.7300 0.0050 10.5250
v 1562.7300 0.0050 11.4750
v 1562.6700 0.0050 11.4750
v 1562.6700 2.0550 10.5250
v 1562.7300 2.0550 10.5250
v 1562.7300 2.0550 11.4750
v 1562.6700 2.0550 11.4750
v 1562.6250 0.9450 10.4380
v 1562.6950 0.9450 10.4380
v 1562.6950 0.9450 10.5080
v 1562.6250 0.9450 10.5080
v 1562.6250 1.0150 10.4380
v 1562.6950 1.0150 10.4380
v 1562.6950 1.0150 10.5080
v 1562.6250 1.0150 10.5080
v 1582.2700 0.0050 10.5250
v 1582.3300 0.0050 10.5250
v 1582.3300 0.0050 11.4750
v 1582.2700 0.0050 11.4750
v 1582.2700 2.0550 10.5250
v 1582.3300 2.0550 10.5250
v 1582.3300 2.0550 11.4750
v 1582.2700 2.0550 11.4750
v 1582.3050 0.9450 11.4920
v 1582.3750 0.9450 11.4920
v 1582.3750 0.9450 11.5620
v 1582.3050 0.9450 11.5620
v 1582.3050 1.0150 11.4920
v 1582.3750 1.0150 11.4920
v 1582.3750 1.0150 11.5620
v 1582.3050 1.0150 11.5620
v 1560.2700 0.0050 13.2750
v 1560.3300 0.0050 13.2750
v 1560.3300 0.0050 14.2250
v 1560.2700 0.0050 14.2250
v 1560.2700 2.0550 13.2750
v 1560.3300 2.0550 13.2750
v 1560.3300 2.0550 14.2250
v 1560.2700 2.0550 14.2250
v 1560.3050 0.9450 14.2420
v 1560.3750 0.9450 14.2420
v 1560.3750 0.9450 14.3120
v 1560.3050 0.9450 14.3120
v 1560.3050 1.0150 14.2420
v 1560.3750 1.0150 14.2420
v 1560.3750 1.0150 14.3120
v 1560.3050 1.0150 14.3120
v 1576.7700 0.0050 13.2750
v 1576.8300 0.0050 13.2750
v 1576.8300 0.0050 14.2250
v 1576.7700 0.0050 14.2250
v 1576.7700 2.0550 13.2750
v 1576.8300 2.0550 13.2750
v 1576.8300 2.0550 14.2250
v 1576.7700 2.0550 14.2250
v 1576.8050 0.9450 14.2420
v 1576.8750 0.9450 14.2420
v 1576.8750 0.9450 14.3120
v 1576.8050 0.9450 14.3120
v 1576.8050 1.0150 14.2420
v 1576.8750 1.0150 14.2420
v 1576.8750 1.0150 14.3120
v 1576.8050 1.0150 14.3120
v 1587.7700 0.0050 16.0250
v 1587.8300 0.0050 16.0250
v 1587.8300 0.0050 16.9750
v 1587.7700 0.0050 16.9750
v 1587.7700 2.0550 16.0250
v 1587.8300 2.0550 16.0250
v 1587.8300 2.0550 16.9750
v 1587.7700 2.0550 16.9750
v 1587.8050 0.9450 16.9920
v 1587.8750 0.9450 16.9920
v 1587.8750 0.9450 17.0620
v 1587.8050 0.9450 17.0620
v 1587.8050 1.0150 16.9920
v 1587.8750 1.0150 16.9920
v 1587.8750 1.0150 17.0620
v 1587.8050 1.0150 17.0620
v 1560.2700 0.0050 18.7750
v 1560.3300 0.0050 18.7750
v 1560.3300 0.0050 19.7250
v 1560.2700 0.0050 19.7250
v 1560.2700 2.0550 18.7750
v 1560.3300 2.0550 18.7750
v 1560.3300 2.0550 19.7250
v 1560.2700 2.0550 19.7250
v 1560.3050 0.9450 19.7420
v 1560.3750 0.9450 19.7420
v 1560.3750 0.9450 19.8120
v 1560.3050 0.9450 19.8120
v 1560.3050 1.0150 19.7420
v 1560.3750 1.0150 19.7420
v 1560.3750 1.0150 19.8120
v 1560.3050 1.0150 19.8120
v 1568.1700 0.0050 18.7750
v 1568.2300 0.0050 18.7750
v 1568.2300 0.0050 19.7250
v 1568.1700 0.0050 19.7250
v 1568.1700 2.0550 18.7750
v 1568.2300 2.0550 18.7750
v 1568.2300 2.0550 19.7250
v 1568.1700 2.0550 19.7250
v 1568.1250 0.9450 18.6880
v 1568.1950 0.9450 18.6880
v 1568.1950 0.9450 18.7580
v 1568.1250 0.9450 18.7580
v 1568.1250 1.0150 18.6880
v 1568.1950 1.0150 18.6880
v 1568.1950 1.0150 18.7580
v 1568.1250 1.0150 18.7580
v 1580.2750 0.0050 20.7700
v 1581.2250 0.0050 20.7700
v 1581.2250 0.0050 20.8300
v 1580.2750 0.0050 20.8300
v 1580.2750 2.0550 20.7700
v 1581.2250 2.0550 20.7700
v 1581.2250 2.0550 20.8300
v 1580.2750 2.0550 20.8300
v 1580.1880 0.9450 20.8050
v 1580.2580 0.9450 20.8050
v 1580.2580 0.9450 20.8750
v 1580.1880 0.9450 20.8750
v 1580.1880 1.0150 20.8050
v 1580.2580 1.0150 20.8050
v 1580.2580 1.0150 20.8750
v 1580.1880 1.0150 20.8750
v 1562.6700 0.0050 21.5250
v 1562.7300 0.0050 21.5250
v 1562.7300 0.0050 22.4750
v 1562.6700 0.0050 22.4750
v 1562.6700 2.0550 21.5250
v 1562.7300 2.0550 21.5250
v 1562.7300 2.0550 22.4750
v 1562.6700 2.0550 22.4750
v 1562.6250 0.9450 21.4380
v 1562.6950 0.9450 21.4380
v 1562.6950 0.9450 21.5080
v 1562.6250 0.9450 21.5080
v 1562.6250 1.0150 21.4380
v 1562.6950 1.0150 21.4380
v 1562.6950 1.0150 21.5080
v 1562.6250 1.0150 21.5080
vt 976.6875 -6.1250
vt 976.6875 -4.1875
vt 978.6250 -4.1875
vt 978.6250 -6.1250
vt 976.6875 -6.1250
vt 978.6250 -6.1250
vt 978.6250 -4.1875
vt 976.6875 -4.1875
vt 976.6875 0.0000
vt 978.6250 0.0000
vt 978.6250 2.1250
vt 976.6875 2.1250
vt 978.6250 0.0000
vt 976.6875 0.0000
vt 976.6875 2.1250
vt 978.6250 2.1250
vt -6.1250 0.0000
vt -4.1875 0.0000
vt -4.1875 2.1250
vt -6.1250 2.1250
vt -4.1875 0.0000
vt -6.1250 0.0000
vt -6.1250 2.1250
vt -4.1875 2.1250
vt 980.1250 -6.1250
vt 980.1250 -4.1875
vt 982.0625 -4.1875
vt 982.0625 -6.1250
vt 980.1250 -6.1250
vt 982.0625 -6.1250
vt 982.0625 -4.1875
vt 980.1250 -4.1875
vt 980.1250 0.0000
vt 982.0625 0.0000
vt 982.0625 2.1250
vt 980.1250 2.1250
vt 982.0625 0.0000
vt 980.1250 0.0000
vt 980.1250 2.1250
vt 982.0625 2.1250
vt -6.1250 0.0000
vt -4.1875 0.0000
vt -4.1875 2.1250
vt -6.1250 2.1250
vt -4.1875 0.0000
vt -6.1250 0.0000
vt -6.1250 2.1250
vt -4.1875 2.1250
vt 990.4375 -6.1250
vt 990.4375 -4.1875
vt 992.3750 -4.1875
vt 992.3750 -6.1250
vt 990.4375 -6.1250
vt 992.3750 -6.1250
vt 992.3750 -4.1875
vt 990.4375 -4.1875
vt 990.4375 0.0000
vt 992.3750 0.0000
vt 992.3750 2.1250
vt 990.4375 2.1250
vt 992.3750 0.0000
vt 990.4375 0.0000
vt 990.4375 2.1250
vt 992.3750 2.1250
vt -6.1250 0.0000
vt -4.1875 0.0000
vt -4.1875 2.1250
vt -6.1250 2.1250
vt -4.1875 0.0000
vt -6.1250 0.0000
vt -6.1250 2.1250
vt -4.1875 2.1250
vt 992.1562 -6.1250
vt 992.1562 -4.1875
vt 994.0937 -4.1875
vt 994.0937 -6.1250
vt 992.1562 -6.1250
vt 994.0937 -6.1250
vt 994.0937 -4.1875
vt 992.1562 -4.1875
vt 992.1562 0.0000
vt 994.0937 0.0000
vt 994.0937 2.1250
vt 992.1562 2.1250
vt 994.0937 0.0000
vt 992.1562 0.0000
vt 992.1562 2.1250
vt 994.0937 2.1250
vt -6.1250 0.0000
vt -4.1875 0.0000
vt -4.1875 2.1250
vt -6.1250 2.1250
vt -4.1875 0.0000
vt -6.1250 0.0000
vt -6.1250 2.1250
vt -4.1875 2.1250
vt 980.1250 -4.4062
vt 980.1250 -2.4688
vt 982.0625 -2.4688
vt 982.0625 -4.4062
vt 980.1250 -4.4062
vt 982.0625 -4.4062
vt 982.0625 -2.4688
vt 980.1250 -2.4688
vt 980.1250 0.0000
vt 982.0625 0.0000
vt 982.0625 2.1250
vt 980.1250 2.1250
vt 982.0625 0.0000
vt 980.1250 0.0000
vt 980.1250 2.1250
vt 982.0625 2.1250
vt -4.4062 0.0000
vt -2.4688 0.0000
vt -2.4688 2.1250
vt -4.4062 2.1250
vt -2.4688 0.0000
vt -4.4062 0.0000
vt -4.4062 2.1250
vt -2.4688 2.1250
vt 976.6875 -2.6875
vt 976.6875 -0.7500
vt 978.6250 -0.7500
vt 978.6250 -2.6875
vt 976.6875 -2.6875
vt 978.6250 -2.6875
vt 978.6250 -0.7500
vt 976.6875 -0.7500
vt 976.6875 0.0000
vt 978.6250 0.0000
vt 978.6250 2.1250
vt 976.6875 2.1250
vt 978.6250 0.0000
vt 976.6875 0.0000
vt 976.6875 2.1250
vt 978.6250 2.1250
vt -2.6875 0.0000
vt -0.7500 0.0000
vt -0.7500 2.1250
vt -2.6875 2.1250
vt -0.7500 0.0000
vt -2.6875 0.0000
vt -2.6875 2.1250
vt -0.7500 2.1250
vt 980.1250 -2.6875
vt 980.1250 -0.7500
vt 982.0625 -0.7500
vt 982.0625 -2.6875
vt 980.1250 -2.6875
vt 982.0625 -2.6875
vt 982.0625 -0.7500
vt 980.1250 -0.7500
vt 980.1250 0.0000
vt 982.0625 0.0000
vt 982.0625 2.1250
vt 980.1250 2.1250
vt 982.0625 0.0000
vt 980.1250 0.0000
vt 980.1250 2.1250
vt 982.0625 2.1250
vt -2.6875 0.0000
vt -0.7500 0.0000
vt -0.7500 2.1250
vt -2.6875 2.1250
vt -0.7500 0.0000
vt -2.6875 0.0000
vt -2.6875 2.1250
vt -0.7500 2.1250
vt 990.4375 -2.6875
vt 990.4375 -0.7500
vt 992.3750 -0.7500
vt 992.3750 -2.6875
vt 990.4375 -2.6875
vt 992.3750 -2.6875
vt 992.3750 -0.7500
vt 990.4375 -0.7500
vt 990.4375 0.0000
vt 992.3750 0.0000
vt 992.3750 2.1250
vt 990.4375 2.1250
vt 992.3750 0.0000
vt 990.4375 0.0000
vt 990.4375 2.1250
vt 992.3750 2.1250
vt -2.6875 0.0000
vt -0.7500 0.0000
vt -0.7500 2.1250
vt -2.6875 2.1250
vt -0.7500 0.0000
vt -2.6875 0.0000
vt -2.6875 2.1250
vt -0.7500 2.1250
vt 976.6875 -0.9688
vt 976.6875 0.9688
vt 978.6250 0.9688
vt 978.6250 -0.9688
vt 976.6875 -0.9688
vt 978.6250 -0.9688
vt 978.6250 0.9688
vt 976.6875 0.9688
vt 976.6875 0.0000
vt 978.6250 0.0000
vt 978.6250 2.1250
vt 976.6875 2.1250
vt 978.6250 0.0000
vt 976.6875 0.0000
vt 976.6875 2.1250
vt 978.6250 2.1250
vt -0.9688 0.0000
vt 0.9688 0.0000
vt 0.9688 2.1250
vt -0.9688 2.1250
vt 0.9688 0.0000
vt -0.9688 0.0000
vt -0.9688 2.1250
vt 0.9688 2.1250
vt 990.4375 -0.9688
vt 990.4375 0.9688
vt 992.3750 0.9688
vt 992.3750 -0.9688
vt 990.4375 -0.9688
vt 992.3750 -0.9688
vt 992.3750 0.9688
vt 990.4375 0.9688
vt 990.4375 0.0000
vt 992.3750 0.0000
vt 992.3750 2.1250
vt 990.4375 2.1250
vt 992.3750 0.0000
vt 990.4375 0.0000
vt 990.4375 2.1250
vt 992.3750 2.1250
vt -0.9688 0.0000
vt 0.9688 0.0000
vt 0.9688 2.1250
vt -0.9688 2.1250
vt 0.9688 0.0000
vt -0.9688 0.0000
vt -0.9688 2.1250
vt 0.9688 2.1250
vt 976.6875 0.7500
vt 976.6875 2.6875
vt 978.6250 2.6875
vt 978.6250 0.7500
vt 976.6875 0.7500
vt 978.6250 0.7500
vt 978.6250 2.6875
vt 976.6875 2.6875
vt 976.6875 0.0000
vt 978.6250 0.0000
vt 978.6250 2.1250
vt 976.6875 2.1250
vt 978.6250 0.0000
vt 976.6875 0.0000
vt 976.6875 2.1250
vt 978.6250 2.1250
vt 0.7500 0.0000
vt 2.6875 0.0000
vt 2.6875 2.1250
vt 0.7500 2.1250
vt 2.6875 0.0000
vt 0.7500 0.0000
vt 0.7500 2.1250
vt 2.6875 2.1250
vt 978.4062 0.7500
vt 978.4062 2.6875
vt 980.3437 2.6875
vt 980.3437 0.7500
vt 978.4062 0.7500
vt 980.3437 0.7500
vt 980.3437 2.6875
vt 978.4062 2.6875
vt 978.4062 0.0000
vt 980.3437 0.0000
vt 980.3437 2.1250
vt 978.4062 2.1250
vt 980.3437 0.0000
vt 978.4062 0.0000
vt 978.4062 2.1250
vt 980.3437 2.1250
vt 0.7500 0.0000
vt 2.6875 0.0000
vt 2.6875 2.1250
vt 0.7500 2.1250
vt 2.6875 0.0000
vt 0.7500 0.0000
vt 0.7500 2.1250
vt 2.6875 2.1250
vt 980.1250 0.7500
vt 980.1250 2.6875
vt 982.0625 2.6875
vt 982.0625 0.7500
vt 980.1250 0.7500
vt 982.0625 0.7500
vt 982.0625 2.6875
vt 980.1250 2.6875
vt 980.1250 0.0000
vt 982.0625 0.0000
vt 982.0625 2.1250
vt 980.1250 2.1250
vt 982.0625 0.0000
vt 980.1250 0.0000
vt 980.1250 2.1250
vt 982.0625 2.1250
vt 0.7500 0.0000
vt 2.6875 0.0000
vt 2.6875 2.1250
vt 0.7500 2.1250
vt 2.6875 0.0000
vt 0.7500 0.0000
vt 0.7500 2.1250
vt 2.6875 2.1250
vt 983.5625 0.7500
vt 983.5625 2.6875
vt 985.5000 2.6875
vt 985.5000 0.7500
vt 983.5625 0.7500
vt 985.5000 0.7500
vt 985.5000 2.6875
vt 983.5625 2.6875
vt 983.5625 0.0000
vt 985.5000 0.0000
vt 985.5000 2.1250
vt 983.5625 2.1250
vt 985.5000 0.0000
vt 983.5625 0.0000
vt 983.5625 2.1250
vt 985.5000 2.1250
vt 0.7500 0.0000
vt 2.6875 0.0000
vt 2.6875 2.1250
vt 0.7500 2.1250
vt 2.6875 0.0000
vt 0.7500 0.0000
vt 0.7500 2.1250
vt 2.6875 2.1250
vt 987.0000 0.7500
vt 987.0000 2.6875
vt 988.9375 2.6875
vt 988.9375 0.7500
vt 987.0000 0.7500
vt 988.9375 0.7500
vt 988.9375 2.6875
vt 987.0000 2.6875
vt 987.0000 0.0000
vt 988.9375 0.0000
vt 988.9375 2.1250
vt 987.0000 2.1250
vt 988.9375 0.0000
vt 987.0000 0.0000
vt 987.0000 2.1250
vt 988.9375 2.1250
vt 0.7500 0.0000
vt 2.6875 0.0000
vt 2.6875 2.1250
vt 0.7500 2.1250
vt 2.6875 0.0000
vt 0.7500 0.0000
vt 0.7500 2.1250
vt 2.6875 2.1250
vt 990.4375 0.7500
vt 990.4375 2.6875
vt 992.3750 2.6875
vt 992.3750 0.7500
vt 990.4375 0.7500
vt 992.3750 0.7500
vt 992.3750 2.6875
vt 990.4375 2.6875
vt 990.4375 0.0000
vt 992.3750 0.0000
vt 992.3750 2.1250
vt 990.4375 2.1250
vt 992.3750 0.0000
vt 990.4375 0.0000
vt 990.4375 2.1250
vt 992.3750 2.1250
vt 0.7500 0.0000
vt 2.6875 0.0000
vt 2.6875 2.1250
vt 0.7500 2.1250
vt 2.6875 0.0000
vt 0.7500 0.0000
vt 0.7500 2.1250
vt 2.6875 2.1250
vt 983.5625 2.4688
vt 983.5625 4.4062
vt 985.5000 4.4062
vt 985.5000 2.4688
vt 983.5625 2.4688
vt 985.5000 2.4688
vt 985.5000 4.4062
vt 983.5625 4.4062
vt 983.5625 0.0000
vt 985.5000 0.0000
vt 985.5000 2.1250
vt 983.5625 2.1250
vt 985.5000 0.0000
vt 983.5625 0.0000
vt 983.5625 2.1250
vt 985.5000 2.1250
vt 2.4688 0.0000
vt 4.4062 0.0000
vt 4.4062 2.1250
vt 2.4688 2.1250
vt 4.4062 0.0000
vt 2.4688 0.0000
vt 2.4688 2.1250
vt 4.4062 2.1250
vt 976.6875 4.1875
vt 976.6875 6.1250
vt 978.6250 6.1250
vt 978.6250 4.1875
vt 976.6875 4.1875
vt 978.6250 4.1875
vt 978.6250 6.1250
vt 976.6875 6.1250
vt 976.6875 0.0000
vt 978.6250 0.0000
vt 978.6250 2.1250
vt 976.6875 2.1250
vt 978.6250 0.0000
vt 976.6875 0.0000
vt 976.6875 2.1250
vt 978.6250 2.1250
vt 4.1875 0.0000
vt 6.1250 0.0000
vt 6.1250 2.1250
vt 4.1875 2.1250
vt 6.1250 0.0000
vt 4.1875 0.0000
vt 4.1875 2.1250
vt 6.1250 2.1250
vt 980.1250 4.1875
vt 980.1250 6.1250
vt 982.0625 6.1250
vt 982.0625 4.1875
vt 980.1250 4.1875
vt 982.0625 4.1875
vt 982.0625 6.1250
vt 980.1250 6.1250
vt 980.1250 0.0000
vt 982.0625 0.0000
vt 982.0625 2.1250
vt 980.1250 2.1250
vt 982.0625 0.0000
vt 980.1250 0.0000
vt 980.1250 2.1250
vt 982.0625 2.1250
vt 4.1875 0.0000
vt 6.1250 0.0000
vt 6.1250 2.1250
vt 4.1875 2.1250
vt 6.1250 0.0000
vt 4.1875 0.0000
vt 4.1875 2.1250
vt 6.1250 2.1250
vt 983.5625 4.1875
vt 983.5625 6.1250
vt 985.5000 6.1250
vt 985.5000 4.1875
vt 983.5625 4.1875
vt 985.5000 4.1875
vt 985.5000 6.1250
vt 983.5625 6.1250
vt 983.5625 0.0000
vt 985.5000 0.0000
vt 985.5000 2.1250
vt 983.5625 2.1250
vt 985.5000 0.0000
vt 983.5625 0.0000
vt 983.5625 2.1250
vt 985.5000 2.1250
vt 4.1875 0.0000
vt 6.1250 0.0000
vt 6.1250 2.1250
vt 4.1875 2.1250
vt 6.1250 0.0000
vt 4.1875 0.0000
vt 4.1875 2.1250
vt 6.1250 2.1250
vt 985.2812 4.1875
vt 985.2812 6.1250
vt 987.2187 6.1250
vt 987.2187 4.1875
vt 985.2812 4.1875
vt 987.2187 4.1875
vt 987.2187 6.1250
vt 985.2812 6.1250
vt 985.2812 0.0000
vt 987.2187 0.0000
vt 987.2187 2.1250
vt 985.2812 2.1250
vt 987.2187 0.0000
vt 985.2812 0.0000
vt 985.2812 2.1250
vt 987.2187 2.1250
vt 4.1875 0.0000
vt 6.1250 0.0000
vt 6.1250 2.1250
vt 4.1875 2.1250
vt 6.1250 0.0000
vt 4.1875 0.0000
vt 4.1875 2.1250
vt 6.1250 2.1250
vt 976.6875 5.9062
vt 976.6875 7.8438
vt 978.6250 7.8438
vt 978.6250 5.9062
vt 976.6875 5.9062
vt 978.6250 5.9062
vt 978.6250 7.8438
vt 976.6875 7.8438
vt 976.6875 0.0000
vt 978.6250 0.0000
vt 978.6250 2.1250
vt 976.6875 2.1250
vt 978.6250 0.0000
vt 976.6875 0.0000
vt 976.6875 2.1250
vt 978.6250 2.1250
vt 5.9062 0.0000
vt 7.8438 0.0000
vt 7.8438 2.1250
vt 5.9062 2.1250
vt 7.8438 0.0000
vt 5.9062 0.0000
vt 5.9062 2.1250
vt 7.8438 2.1250
vt 980.1250 5.9062
vt 980.1250 7.8438
vt 982.0625 7.8438
vt 982.0625 5.9062
vt 980.1250 5.9062
vt 982.0625 5.9062
vt 982.0625 7.8438
vt 980.1250 7.8438
vt 980.1250 0.0000
vt 982.0625 0.0000
vt 982.0625 2.1250
vt 980.1250 2.1250
vt 982.0625 0.0000
vt 980.1250 0.0000
vt 980.1250 2.1250
vt 982.0625 2.1250
vt 5.9062 0.0000
vt 7.8438 0.0000
vt 7.8438 2.1250
vt 5.9062 2.1250
vt 7.8438 0.0000
vt 5.9062 0.0000
vt 5.9062 2.1250
vt 7.8438 2.1250
vt 987.0000 5.9062
vt 987.0000 7.8438
vt 988.9375 7.8438
vt 988.9375 5.9062
vt 987.0000 5.9062
vt 988.9375 5.9062
vt 988.9375 7.8438
vt 987.0000 7.8438
vt 987.0000 0.0000
vt 988.9375 0.0000
vt 988.9375 2.1250
vt 987.0000 2.1250
vt 988.9375 0.0000
vt 987.0000 0.0000
vt 987.0000 2.1250
vt 988.9375 2.1250
vt 5.9062 0.0000
vt 7.8438 0.0000
vt 7.8438 2.1250
vt 5.9062 2.1250
vt 7.8438 0.0000
vt 5.9062 0.0000
vt 5.9062 2.1250
vt 7.8438 2.1250
vt 976.6875 7.6250
vt 976.6875 9.5625
vt 978.6250 9.5625
vt 978.6250 7.6250
vt 976.6875 7.6250
vt 978.6250 7.6250
vt 978.6250 9.5625
vt 976.6875 9.5625
vt 976.6875 0.0000
vt 978.6250 0.0000
vt 978.6250 2.1250
vt 976.6875 2.1250
vt 978.6250 0.0000
vt 976.6875 0.0000
vt 976.6875 2.1250
vt 978.6250 2.1250
vt 7.6250 0.0000
vt 9.5625 0.0000
vt 9.5625 2.1250
vt 7.6250 2.1250
vt 9.5625 0.0000
vt 7.6250 0.0000
vt 7.6250 2.1250
vt 9.5625 2.1250
vt 980.1250 7.6250
vt 980.1250 9.5625
vt 982.0625 9.5625
vt 982.0625 7.6250
vt 980.1250 7.6250
vt 982.0625 7.6250
vt 982.0625 9.5625
vt 980.1250 9.5625
vt 980.1250 0.0000
vt 982.0625 0.0000
vt 982.0625 2.1250
vt 980.1250 2.1250
vt 982.0625 0.0000
vt 980.1250 0.0000
vt 980.1250 2.1250
vt 982.0625 2.1250
vt 7.6250 0.0000
vt 9.5625 0.0000
vt 9.5625 2.1250
vt 7.6250 2.1250
vt 9.5625 0.0000
vt 7.6250 0.0000
vt 7.6250 2.1250
vt 9.5625 2.1250
vt 983.5625 7.6250
vt 983.5625 9.5625
vt 985.5000 9.5625
vt 985.5000 7.6250
vt 983.5625 7.6250
vt 985.5000 7.6250
vt 985.5000 9.5625
vt 983.5625 9.5625
vt 983.5625 0.0000
vt 985.5000 0.0000
vt 985.5000 2.1250
vt 983.5625 2.1250
vt 985.5000 0.0000
vt 983.5625 0.0000
vt 983.5625 2.1250
vt 985.5000 2.1250
vt 7.6250 0.0000
vt 9.5625 0.0000
vt 9.5625 2.1250
vt 7.6250 2.1250
vt 9.5625 0.0000
vt 7.6250 0.0000
vt 7.6250 2.1250
vt 9.5625 2.1250
vt 990.4375 7.6250
vt 990.4375 9.5625
vt 992.3750 9.5625
vt 992.3750 7.6250
vt 990.4375 7.6250
vt 992.3750 7.6250
vt 992.3750 9.5625
vt 990.4375 9.5625
vt 990.4375 0.0000
vt 992.3750 0.0000
vt 992.3750 2.1250
vt 990.4375 2.1250
vt 992.3750 0.0000
vt 990.4375 0.0000
vt 990.4375 2.1250
vt 992.3750 2.1250
vt 7.6250 0.0000
vt 9.5625 0.0000
vt 9.5625 2.1250
vt 7.6250 2.1250
vt 9.5625 0.0000
vt 7.6250 0.0000
vt 7.6250 2.1250
vt 9.5625 2.1250
vt 990.4375 9.3437
vt 990.4375 11.2812
vt 992.3750 11.2812
vt 992.3750 9.3437
vt 990.4375 9.3437
vt 992.3750 9.3437
vt 992.3750 11.2812
vt 990.4375 11.2812
vt 990.4375 0.0000
vt 992.3750 0.0000
vt 992.3750 2.1250
vt 990.4375 2.1250
vt 992.3750 0.0000
vt 990.4375 0.0000
vt 990.4375 2.1250
vt 992.3750 2.1250
vt 9.3437 0.0000
vt 11.2812 0.0000
vt 11.2812 2.1250
vt 9.3437 2.1250
vt 11.2812 0.0000
vt 9.3437 0.0000
vt 9.3437 2.1250
vt 11.2812 2.1250
vt 976.6875 11.0625
vt 976.6875 13.0000
vt 978.6250 13.0000
vt 978.6250 11.0625
vt 976.6875 11.0625
vt 978.6250 11.0625
vt 978.6250 13.0000
vt 976.6875 13.0000
vt 976.6875 0.0000
vt 978.6250 0.0000
vt 978.6250 2.1250
vt 976.6875 2.1250
vt 978.6250 0.0000
vt 976.6875 0.0000
vt 976.6875 2.1250
vt 978.6250 2.1250
vt 11.0625 0.0000
vt 13.0000 0.0000
vt 13.0000 2.1250
vt 11.0625 2.1250
vt 13.0000 0.0000
vt 11.0625 0.0000
vt 11.0625 2.1250
vt 13.0000 2.1250
vt 980.1250 11.0625
vt 980.1250 13.0000
vt 982.0625 13.0000
vt 982.0625 11.0625
vt 980.1250 11.0625
vt 982.0625 11.0625
vt 982.0625 13.0000
vt 980.1250 13.0000
vt 980.1250 0.0000
vt 982.0625 0.0000
vt 982.0625 2.1250
vt 980.1250 2.1250
vt 982.0625 0.0000
vt 980.1250 0.0000
vt 980.1250 2.1250
vt 982.0625 2.1250
vt 11.0625 0.0000
vt 13.0000 0.0000
vt 13.0000 2.1250
vt 11.0625 2.1250
vt 13.0000 0.0000
vt 11.0625 0.0000
vt 11.0625 2.1250
vt 13.0000 2.1250
vt 981.8438 11.0625
vt 981.8438 13.0000
vt 983.7812 13.0000
vt 983.7812 11.0625
vt 981.8438 11.0625
vt 983.7812 11.0625
vt 983.7812 13.0000
vt 981.8438 13.0000
vt 981.8438 0.0000
vt 983.7812 0.0000
vt 983.7812 2.1250
vt 981.8438 2.1250
vt 983.7812 0.0000
vt 981.8438 0.0000
vt 981.8438 2.1250
vt 983.7812 2.1250
vt 11.0625 0.0000
vt 13.0000 0.0000
vt 13.0000 2.1250
vt 11.0625 2.1250
vt 13.0000 0.0000
vt 11.0625 0.0000
vt 11.0625 2.1250
vt 13.0000 2.1250
vt 983.5625 11.0625
vt 983.5625 13.0000
vt 985.5000 13.0000
vt 985.5000 11.0625
vt 983.5625 11.0625
vt 985.5000 11.0625
vt 985.5000 13.0000
vt 983.5625 13.0000
vt 983.5625 0.0000
vt 985.5000 0.0000
vt 985.5000 2.1250
vt 983.5625 2.1250
vt 985.5000 0.0000
vt 983.5625 0.0000
vt 983.5625 2.1250
vt 985.5000 2.1250
vt 11.0625 0.0000
vt 13.0000 0.0000
vt 13.0000 2.1250
vt 11.0625 2.1250
vt 13.0000 0.0000
vt 11.0625 0.0000
vt 11.0625 2.1250
vt 13.0000 2.1250
vt 988.7188 11.0625
vt 988.7188 13.0000
vt 990.6562 13.0000
vt 990.6562 11.0625
vt 988.7188 11.0625
vt 990.6562 11.0625
vt 990.6562 13.0000
vt 988.7188 13.0000
vt 988.7188 0.0000
vt 990.6562 0.0000
vt 990.6562 2.1250
vt 988.7188 2.1250
vt 990.6562 0.0000
vt 988.7188 0.0000
vt 988.7188 2.1250
vt 990.6562 2.1250
vt 11.0625 0.0000
vt 13.0000 0.0000
vt 13.0000 2.1250
vt 11.0625 2.1250
vt 13.0000 0.0000
vt 11.0625 0.0000
vt 11.0625 2.1250
vt 13.0000 2.1250
vt 990.4375 11.0625
vt 990.4375 13.0000
vt 992.3750 13.0000
vt 992.3750 11.0625
vt 990.4375 11.0625
vt 992.3750 11.0625
vt 992.3750 13.0000
vt 990.4375 13.0000
vt 990.4375 0.0000
vt 992.3750 0.0000
vt 992.3750 2.1250
vt 990.4375 2.1250
vt 992.3750 0.0000
vt 990.4375 0.0000
vt 990.4375 2.1250
vt 992.3750 2.1250
vt 11.0625 0.0000
vt 13.0000 0.0000
vt 13.0000 2.1250
vt 11.0625 2.1250
vt 13.0000 0.0000
vt 11.0625 0.0000
vt 11.0625 2.1250
vt 13.0000 2.1250
vt 976.6875 12.7812
vt 976.6875 14.7188
vt 978.6250 14.7188
vt 978.6250 12.7812
vt 976.6875 12.7812
vt 978.6250 12.7812
vt 978.6250 14.7188
vt 976.6875 14.7188
vt 976.6875 0.0000
vt 978.6250 0.0000
vt 978.6250 2.1250
vt 976.6875 2.1250
vt 978.6250 0.0000
vt 976.6875 0.0000
vt 976.6875 2.1250
vt 978.6250 2.1250
vt 12.7812 0.0000
vt 14.7188 0.0000
vt 14.7188 2.1250
vt 12.7812 2.1250
vt 14.7188 0.0000
vt 12.7812 0.0000
vt 12.7812 2.1250
vt 14.7188 2.1250
usemtl hotel_paper_alt
f 49 52 51 50
f 53 54 55 56
f 49 50 54 53
f 51 52 56 55
f 50 51 55 54
f 52 49 53 56
f 321 324 323 322
f 325 326 327 328
f 321 322 326 325
f 323 324 328 327
f 322 323 327 326
f 324 321 325 328
f 521 524 523 522
f 525 526 527 528
f 521 522 526 525
f 523 524 528 527
f 522 523 527 526
f 524 521 525 528
f 673 676 675 674
f 677 678 679 680
f 673 674 678 677
f 675 676 680 679
f 674 675 679 678
f 676 673 677 680
f 825 828 827 826
f 829 830 831 832
f 825 826 830 829
f 827 828 832 831
f 826 827 831 830
f 828 825 829 832
usemtl lamp_warm
f 905 908 907 906
f 909 910 911 912
f 905 906 910 909
f 907 908 912 911
f 906 907 911 910
f 908 905 909 912
usemtl hotel_trim
f 913 916 915 914
f 917 918 919 920
f 913 914 918 917
f 915 916 920 919
f 914 915 919 918
f 916 913 917 920
usemtl lamp_warm
f 921 924 923 922
f 925 926 927 928
f 921 922 926 925
f 923 924 928 927
f 922 923 927 926
f 924 921 925 928
usemtl hotel_trim
f 929 932 931 930
f 933 934 935 936
f 929 930 934 933
f 931 932 936 935
f 930 931 935 934
f 932 929 933 936
usemtl lamp_warm
f 937 940 939 938
f 941 942 943 944
f 937 938 942 941
f 939 940 944 943
f 938 939 943 942
f 940 937 941 944
usemtl hotel_trim
f 945 948 947 946
f 949 950 951 952
f 945 946 950 949
f 947 948 952 951
f 946 947 951 950
f 948 945 949 952
usemtl lamp_warm
f 953 956 955 954
f 957 958 959 960
f 953 954 958 957
f 955 956 960 959
f 954 955 959 958
f 956 953 957 960
usemtl hotel_trim
f 961 964 963 962
f 965 966 967 968
f 961 962 966 965
f 963 964 968 967
f 962 963 967 966
f 964 961 965 968
usemtl lamp_warm
f 969 972 971 970
f 973 974 975 976
f 969 970 974 973
f 971 972 976 975
f 970 971 975 974
f 972 969 973 976
usemtl hotel_trim
f 977 980 979 978
f 981 982 983 984
f 977 978 982 981
f 979 980 984 983
f 978 979 983 982
f 980 977 981 984
usemtl lamp_warm
f 985 988 987 986
f 989 990 991 992
f 985 986 990 989
f 987 988 992 991
f 986 987 991 990
f 988 985 989 992
usemtl hotel_trim
f 993 996 995 994
f 997 998 999 1000
f 993 994 998 997
f 995 996 1000 999
f 994 995 999 998
f 996 993 997 1000
usemtl lamp_warm
f 1001 1004 1003 1002
f 1005 1006 1007 1008
f 1001 1002 1006 1005
f 1003 1004 1008 1007
f 1002 1003 1007 1006
f 1004 1001 1005 1008
usemtl hotel_trim
f 1009 1012 1011 1010
f 1013 1014 1015 1016
f 1009 1010 1014 1013
f 1011 1012 1016 1015
f 1010 1011 1015 1014
f 1012 1009 1013 1016
usemtl lamp_warm
f 1017 1020 1019 1018
f 1021 1022 1023 1024
f 1017 1018 1022 1021
f 1019 1020 1024 1023
f 1018 1019 1023 1022
f 1020 1017 1021 1024
usemtl hotel_trim
f 1025 1028 1027 1026
f 1029 1030 1031 1032
f 1025 1026 1030 1029
f 1027 1028 1032 1031
f 1026 1027 1031 1030
f 1028 1025 1029 1032
usemtl lamp_warm
f 1033 1036 1035 1034
f 1037 1038 1039 1040
f 1033 1034 1038 1037
f 1035 1036 1040 1039
f 1034 1035 1039 1038
f 1036 1033 1037 1040
usemtl hotel_trim
f 1041 1044 1043 1042
f 1045 1046 1047 1048
f 1041 1042 1046 1045
f 1043 1044 1048 1047
f 1042 1043 1047 1046
f 1044 1041 1045 1048
usemtl lamp_warm
f 1049 1052 1051 1050
f 1053 1054 1055 1056
f 1049 1050 1054 1053
f 1051 1052 1056 1055
f 1050 1051 1055 1054
f 1052 1049 1053 1056
usemtl hotel_trim
f 1057 1060 1059 1058
f 1061 1062 1063 1064
f 1057 1058 1062 1061
f 1059 1060 1064 1063
f 1058 1059 1063 1062
f 1060 1057 1061 1064
usemtl lamp_warm
f 1065 1068 1067 1066
f 1069 1070 1071 1072
f 1065 1066 1070 1069
f 1067 1068 1072 1071
f 1066 1067 1071 1070
f 1068 1065 1069 1072
usemtl hotel_trim
f 1073 1076 1075 1074
f 1077 1078 1079 1080
f 1073 1074 1078 1077
f 1075 1076 1080 1079
f 1074 1075 1079 1078
f 1076 1073 1077 1080
usemtl lamp_warm
f 1081 1084 1083 1082
f 1085 1086 1087 1088
f 1081 1082 1086 1085
f 1083 1084 1088 1087
f 1082 1083 1087 1086
f 1084 1081 1085 1088
usemtl hotel_trim
f 1089 1092 1091 1090
f 1093 1094 1095 1096
f 1089 1090 1094 1093
f 1091 1092 1096 1095
f 1090 1091 1095 1094
f 1092 1089 1093 1096
usemtl lamp_warm
f 1097 1100 1099 1098
f 1101 1102 1103 1104
f 1097 1098 1102 1101
f 1099 1100 1104 1103
f 1098 1099 1103 1102
f 1100 1097 1101 1104
usemtl hotel_trim
f 1105 1108 1107 1106
f 1109 1110 1111 1112
f 1105 1106 1110 1109
f 1107 1108 1112 1111
f 1106 1107 1111 1110
f 1108 1105 1109 1112
usemtl lamp_warm
f 1113 1116 1115 1114
f 1117 1118 1119 1120
f 1113 1114 1118 1117
f 1115 1116 1120 1119
f 1114 1115 1119 1118
f 1116 1113 1117 1120
usemtl hotel_trim
f 1121 1124 1123 1122
f 1125 1126 1127 1128
f 1121 1122 1126 1125
f 1123 1124 1128 1127
f 1122 1123 1127 1126
f 1124 1121 1125 1128
usemtl lamp_warm
f 1129 1132 1131 1130
f 1133 1134 1135 1136
f 1129 1130 1134 1133
f 1131 1132 1136 1135
f 1130 1131 1135 1134
f 1132 1129 1133 1136
usemtl hotel_trim
f 1137 1140 1139 1138
f 1141 1142 1143 1144
f 1137 1138 1142 1141
f 1139 1140 1144 1143
f 1138 1139 1143 1142
f 1140 1137 1141 1144
usemtl lamp_warm
f 1145 1148 1147 1146
f 1149 1150 1151 1152
f 1145 1146 1150 1149
f 1147 1148 1152 1151
f 1146 1147 1151 1150
f 1148 1145 1149 1152
usemtl hotel_trim
f 1153 1156 1155 1154
f 1157 1158 1159 1160
f 1153 1154 1158 1157
f 1155 1156 1160 1159
f 1154 1155 1159 1158
f 1156 1153 1157 1160
usemtl lamp_warm
f 1161 1164 1163 1162
f 1165 1166 1167 1168
f 1161 1162 1166 1165
f 1163 1164 1168 1167
f 1162 1163 1167 1166
f 1164 1161 1165 1168
usemtl hotel_trim
f 1169 1172 1171 1170
f 1173 1174 1175 1176
f 1169 1170 1174 1173
f 1171 1172 1176 1175
f 1170 1171 1175 1174
f 1172 1169 1173 1176
usemtl lamp_warm
f 1177 1180 1179 1178
f 1181 1182 1183 1184
f 1177 1178 1182 1181
f 1179 1180 1184 1183
f 1178 1179 1183 1182
f 1180 1177 1181 1184
usemtl hotel_trim
f 1185 1188 1187 1186
f 1189 1190 1191 1192
f 1185 1186 1190 1189
f 1187 1188 1192 1191
f 1186 1187 1191 1190
f 1188 1185 1189 1192
usemtl lamp_warm
f 1193 1196 1195 1194
f 1197 1198 1199 1200
f 1193 1194 1198 1197
f 1195 1196 1200 1199
f 1194 1195 1199 1198
f 1196 1193 1197 1200
usemtl hotel_trim
f 1201 1204 1203 1202
f 1205 1206 1207 1208
f 1201 1202 1206 1205
f 1203 1204 1208 1207
f 1202 1203 1207 1206
f 1204 1201 1205 1208
usemtl door_wood
f 1209 1212 1211 1210
f 1213 1214 1215 1216
f 1209 1210 1214 1213
f 1211 1212 1216 1215
f 1210 1211 1215 1214
f 1212 1209 1213 1216
usemtl door_brass
f 1217 1220 1219 1218
f 1221 1222 1223 1224
f 1217 1218 1222 1221
f 1219 1220 1224 1223
f 1218 1219 1223 1222
f 1220 1217 1221 1224
usemtl door_wood
f 1225 1228 1227 1226
f 1229 1230 1231 1232
f 1225 1226 1230 1229
f 1227 1228 1232 1231
f 1226 1227 1231 1230
f 1228 1225 1229 1232
usemtl door_brass
f 1233 1236 1235 1234
f 1237 1238 1239 1240
f 1233 1234 1238 1237
f 1235 1236 1240 1239
f 1234 1235 1239 1238
f 1236 1233 1237 1240
usemtl door_wood
f 1241 1244 1243 1242
f 1245 1246 1247 1248
f 1241 1242 1246 1245
f 1243 1244 1248 1247
f 1242 1243 1247 1246
f 1244 1241 1245 1248
usemtl door_brass
f 1249 1252 1251 1250
f 1253 1254 1255 1256
f 1249 1250 1254 1253
f 1251 1252 1256 1255
f 1250 1251 1255 1254
f 1252 1249 1253 1256
usemtl door_wood
f 1257 1260 1259 1258
f 1261 1262 1263 1264
f 1257 1258 1262 1261
f 1259 1260 1264 1263
f 1258 1259 1263 1262
f 1260 1257 1261 1264
usemtl door_brass
f 1265 1268 1267 1266
f 1269 1270 1271 1272
f 1265 1266 1270 1269
f 1267 1268 1272 1271
f 1266 1267 1271 1270
f 1268 1265 1269 1272
usemtl door_wood
f 1273 1276 1275 1274
f 1277 1278 1279 1280
f 1273 1274 1278 1277
f 1275 1276 1280 1279
f 1274 1275 1279 1278
f 1276 1273 1277 1280
usemtl door_brass
f 1281 1284 1283 1282
f 1285 1286 1287 1288
f 1281 1282 1286 1285
f 1283 1284 1288 1287
f 1282 1283 1287 1286
f 1284 1281 1285 1288
usemtl door_wood
f 1289 1292 1291 1290
f 1293 1294 1295 1296
f 1289 1290 1294 1293
f 1291 1292 1296 1295
f 1290 1291 1295 1294
f 1292 1289 1293 1296
usemtl door_brass
f 1297 1300 1299 1298
f 1301 1302 1303 1304
f 1297 1298 1302 1301
f 1299 1300 1304 1303
f 1298 1299 1303 1302
f 1300 1297 1301 1304
usemtl door_wood
f 1305 1308 1307 1306
f 1309 1310 1311 1312
f 1305 1306 1310 1309
f 1307 1308 1312 1311
f 1306 1307 1311 1310
f 1308 1305 1309 1312
usemtl door_brass
f 1313 1316 1315 1314
f 1317 1318 1319 1320
f 1313 1314 1318 1317
f 1315 1316 1320 1319
f 1314 1315 1319 1318
f 1316 1313 1317 1320
usemtl door_wood
f 1321 1324 1323 1322
f 1325 1326 1327 1328
f 1321 1322 1326 1325
f 1323 1324 1328 1327
f 1322 1323 1327 1326
f 1324 1321 1325 1328
usemtl door_brass
f 1329 1332 1331 1330
f 1333 1334 1335 1336
f 1329 1330 1334 1333
f 1331 1332 1336 1335
f 1330 1331 1335 1334
f 1332 1329 1333 1336
usemtl door_wood
f 1337 1340 1339 1338
f 1341 1342 1343 1344
f 1337 1338 1342 1341
f 1339 1340 1344 1343
f 1338 1339 1343 1342
f 1340 1337 1341 1344
usemtl door_brass
f 1345 1348 1347 1346
f 1349 1350 1351 1352
f 1345 1346 1350 1349
f 1347 1348 1352 1351
f 1346 1347 1351 1350
f 1348 1345 1349 1352
usemtl door_wood
f 1353 1356 1355 1354
f 1357 1358 1359 1360
f 1353 1354 1358 1357
f 1355 1356 1360 1359
f 1354 1355 1359 1358
f 1356 1353 1357 1360
usemtl door_brass
f 1361 1364 1363 1362
f 1365 1366 1367 1368
f 1361 1362 1366 1365
f 1363 1364 1368 1367
f 1362 1363 1367 1366
f 1364 1361 1365 1368
usemtl door_wood
f 1369 1372 1371 1370
f 1373 1374 1375 1376
f 1369 1370 1374 1373
f 1371 1372 1376 1375
f 1370 1371 1375 1374
f 1372 1369 1373 1376
usemtl door_brass
f 1377 1380 1379 1378
f 1381 1382 1383 1384
f 1377 1378 1382 1381
f 1379 1380 1384 1383
f 1378 1379 1383 1382
f 1380 1377 1381 1384
usemtl door_wood
f 1385 1388 1387 1386
f 1389 1390 1391 1392
f 1385 1386 1390 1389
f 1387 1388 1392 1391
f 1386 1387 1391 1390
f 1388 1385 1389 1392
usemtl door_brass
f 1393 1396 1395 1394
f 1397 1398 1399 1400
f 1393 1394 1398 1397
f 1395 1396 1400 1399
f 1394 1395 1399 1398
f 1396 1393 1397 1400
usemtl door_wood
f 1401 1404 1403 1402
f 1405 1406 1407 1408
f 1401 1402 1406 1405
f 1403 1404 1408 1407
f 1402 1403 1407 1406
f 1404 1401 1405 1408
usemtl door_brass
f 1409 1412 1411 1410
f 1413 1414 1415 1416
f 1409 1410 1414 1413
f 1411 1412 1416 1415
f 1410 1411 1415 1414
f 1412 1409 1413 1416
usemtl door_wood
f 1417 1420 1419 1418
f 1421 1422 1423 1424
f 1417 1418 1422 1421
f 1419 1420 1424 1423
f 1418 1419 1423 1422
f 1420 1417 1421 1424
usemtl door_brass
f 1425 1428 1427 1426
f 1429 1430 1431 1432
f 1425 1426 1430 1429
f 1427 1428 1432 1431
f 1426 1427 1431 1430
f 1428 1425 1429 1432
usemtl door_wood
f 1433 1436 1435 1434
f 1437 1438 1439 1440
f 1433 1434 1438 1437
f 1435 1436 1440 1439
f 1434 1435 1439 1438
f 1436 1433 1437 1440
usemtl door_brass
f 1441 1444 1443 1442
f 1445 1446 1447 1448
f 1441 1442 1446 1445
f 1443 1444 1448 1447
f 1442 1443 1447 1446
f 1444 1441 1445 1448
usemtl door_wood
f 1449 1452 1451 1450
f 1453 1454 1455 1456
f 1449 1450 1454 1453
f 1451 1452 1456 1455
f 1450 1451 1455 1454
f 1452 1449 1453 1456
usemtl door_brass
f 1457 1460 1459 1458
f 1461 1462 1463 1464
f 1457 1458 1462 1461
f 1459 1460 1464 1463
f 1458 1459 1463 1462
f 1460 1457 1461 1464
usemtl door_wood
f 1465 1468 1467 1466
f 1469 1470 1471 1472
f 1465 1466 1470 1469
f 1467 1468 1472 1471
f 1466 1467 1471 1470
f 1468 1465 1469 1472
usemtl door_brass
f 1473 1476 1475 1474
f 1477 1478 1479 1480
f 1473 1474 1478 1477
f 1475 1476 1480 1479
f 1474 1475 1479 1478
f 1476 1473 1477 1480
usemtl door_wood
f 1481 1484 1483 1482
f 1485 1486 1487 1488
f 1481 1482 1486 1485
f 1483 1484 1488 1487
f 1482 1483 1487 1486
f 1484 1481 1485 1488
usemtl door_brass
f 1489 1492 1491 1490
f 1493 1494 1495 1496
f 1489 1490 1494 1493
f 1491 1492 1496 1495
f 1490 1491 1495 1494
f 1492 1489 1493 1496
usemtl door_wood
f 1497 1500 1499 1498
f 1501 1502 1503 1504
f 1497 1498 1502 1501
f 1499 1500 1504 1503
f 1498 1499 1503 1502
f 1500 1497 1501 1504
usemtl door_brass
f 1505 1508 1507 1506
f 1509 1510 1511 1512
f 1505 1506 1510 1509
f 1507 1508 1512 1511
f 1506 1507 1511 1510
f 1508 1505 1509 1512
usemtl door_wood
f 1513 1516 1515 1514
f 1517 1518 1519 1520
f 1513 1514 1518 1517
f 1515 1516 1520 1519
f 1514 1515 1519 1518
f 1516 1513 1517 1520
usemtl door_brass
f 1521 1524 1523 1522
f 1525 1526 1527 1528
f 1521 1522 1526 1525
f 1523 1524 1528 1527
f 1522 1523 1527 1526
f 1524 1521 1525 1528
usemtl door_wood
f 1529 1532 1531 1530
f 1533 1534 1535 1536
f 1529 1530 1534 1533
f 1531 1532 1536 1535
f 1530 1531 1535 1534
f 1532 1529 1533 1536
usemtl door_brass
f 1537 1540 1539 1538
f 1541 1542 1543 1544
f 1537 1538 1542 1541
f 1539 1540 1544 1543
f 1538 1539 1543 1542
f 1540 1537 1541 1544
usemtl door_wood
f 1545 1548 1547 1546
f 1549 1550 1551 1552
f 1545 1546 1550 1549
f 1547 1548 1552 1551
f 1546 1547 1551 1550
f 1548 1545 1549 1552
usemtl door_brass
f 1553 1556 1555 1554
f 1557 1558 1559 1560
f 1553 1554 1558 1557
f 1555 1556 1560 1559
f 1554 1555 1559 1558
f 1556 1553 1557 1560
usemtl hotel_paper
f 1/1 2/2 3/3 4/4
f 5/5 6/6 7/7 8/8
f 9/9 10/10 11/11 12/12
f 13/13 14/14 15/15 16/16
f 17/17 18/18 19/19 20/20
f 21/21 22/22 23/23 24/24
f 25/25 26/26 27/27 28/28
f 29/29 30/30 31/31 32/32
f 33/33 34/34 35/35 36/36
f 37/37 38/38 39/39 40/40
f 41/41 42/42 43/43 44/44
f 45/45 46/46 47/47 48/48
f 57/49 58/50 59/51 60/52
f 61/53 62/54 63/55 64/56
f 65/57 66/58 67/59 68/60
f 69/61 70/62 71/63 72/64
f 73/65 74/66 75/67 76/68
f 77/69 78/70 79/71 80/72
f 81/73 82/74 83/75 84/76
f 85/77 86/78 87/79 88/80
f 89/81 90/82 91/83 92/84
f 93/85 94/86 95/87 96/88
f 97/89 98/90 99/91 100/92
f 101/93 102/94 103/95 104/96
f 105/97 106/98 107/99 108/100
f 109/101 110/102 111/103 112/104
f 113/105 114/106 115/107 116/108
f 117/109 118/110 119/111 120/112
f 121/113 122/114 123/115 124/116
f 125/117 126/118 127/119 128/120
f 129/121 130/122 131/123 132/124
f 133/125 134/126 135/127 136/128
f 137/129 138/130 139/131 140/132
f 141/133 142/134 143/135 144/136
f 145/137 146/138 147/139 148/140
f 149/141 150/142 151/143 152/144
f 153/145 154/146 155/147 156/148
f 157/149 158/150 159/151 160/152
f 161/153 162/154 163/155 164/156
f 165/157 166/158 167/159 168/160
f 169/161 170/162 171/163 172/164
f 173/165 174/166 175/167 176/168
f 177/169 178/170 179/171 180/172
f 181/173 182/174 183/175 184/176
f 185/177 186/178 187/179 188/180
f 189/181 190/182 191/183 192/184
f 193/185 194/186 195/187 196/188
f 197/189 198/190 199/191 200/192
f 201/193 202/194 203/195 204/196
f 205/197 206/198 207/199 208/200
f 209/201 210/202 211/203 212/204
f 213/205 214/206 215/207 216/208
f 217/209 218/210 219/211 220/212
f 221/213 222/214 223/215 224/216
f 225/217 226/218 227/219 228/220
f 229/221 230/222 231/223 232/224
f 233/225 234/226 235/227 236/228
f 237/229 238/230 239/231 240/232
f 241/233 242/234 243/235 244/236
f 245/237 246/238 247/239 248/240
f 249/241 250/242 251/243 252/244
f 253/245 254/246 255/247 256/248
f 257/249 258/250 259/251 260/252
f 261/253 262/254 263/255 264/256
f 265/257 266/258 267/259 268/260
f 269/261 270/262 271/263 272/264
f 273/265 274/266 275/267 276/268
f 277/269 278/270 279/271 280/272
f 281/273 282/274 283/275 284/276
f 285/277 286/278 287/279 288/280
f 289/281 290/282 291/283 292/284
f 293/285 294/286 295/287 296/288
f 297/289 298/290 299/291 300/292
f 301/293 302/294 303/295 304/296
f 305/297 306/298 307/299 308/300
f 309/301 310/302 311/303 312/304
f 313/305 314/306 315/307 316/308
f 317/309 318/310 319/311 320/312
f 329/313 330/314 331/315 332/316
f 333/317 334/318 335/319 336/320
f 337/321 338/322 339/323 340/324
f 341/325 342/326 343/327 344/328
f 345/329 346/330 347/331 348/332
f 349/333 350/334 351/335 352/336
f 353/337 354/338 355/339 356/340
f 357/341 358/342 359/343 360/344
f 361/345 362/346 363/347 364/348
f 365/349 366/350 367/351 368/352
f 369/353 370/354 371/355 372/356
f 373/357 374/358 375/359 376/360
f 377/361 378/362 379/363 380/364
f 381/365 382/366 383/367 384/368
f 385/369 386/370 387/371 388/372
f 389/373 390/374 391/375 392/376
f 393/377 394/378 395/379 396/380
f 397/381 398/382 399/383 400/384
f 401/385 402/386 403/387 404/388
f 405/389 406/390 407/391 408/392
f 409/393 410/394 411/395 412/396
f 413/397 414/398 415/399 416/400
f 417/401 418/402 419/403 420/404
f 421/405 422/406 423/407 424/408
f 425/409 426/410 427/411 428/412
f 429/413 430/414 431/415 432/416
f 433/417 434/418 435/419 436/420
f 437/421 438/422 439/423 440/424
f 441/425 442/426 443/427 444/428
f 445/429 446/430 447/431 448/432
f 449/433 450/434 451/435 452/436
f 453/437 454/438 455/439 456/440
f 457/441 458/442 459/443 460/444
f 461/445 462/446 463/447 464/448
f 465/449 466/450 467/451 468/452
f 469/453 470/454 471/455 472/456
f 473/457 474/458 475/459 476/460
f 477/461 478/462 479/463 480/464
f 481/465 482/466 483/467 484/468
f 485/469 486/470 487/471 488/472
f 489/473 490/474 491/475 492/476
f 493/477 494/478 495/479 496/480
f 497/481 498/482 499/483 500/484
f 501/485 502/486 503/487 504/488
f 505/489 506/490 507/491 508/492
f 509/493 510/494 511/495 512/496
f 513/497 514/498 515/499 516/500
f 517/501 518/502 519/503 520/504
f 529/505 530/506 531/507 532/508
f 533/509 534/510 535/511 536/512
f 537/513 538/514 539/515 540/516
f 541/517 542/518 543/519 544/520
f 545/521 546/522 547/523 548/524
f 549/525 550/526 551/527 552/528
f 553/529 554/530 555/531 556/532
f 557/533 558/534 559/535 560/536
f 561/537 562/538 563/539 564/540
f 565/541 566/542 567/543 568/544
f 569/545 570/546 571/547 572/548
f 573/549 574/550 575/551 576/552
f 577/553 578/554 579/555 580/556
f 581/557 582/558 583/559 584/560
f 585/561 586/562 587/563 588/564
f 589/565 590/566 591/567 592/568
f 593/569 594/570 595/571 596/572
f 597/573 598/574 599/575 600/576
f 601/577 602/578 603/579 604/580
f 605/581 606/582 607/583 608/584
f 609/585 610/586 611/587 612/588
f 613/589 614/590 615/591 616/592
f 617/593 618/594 619/595 620/596
f 621/597 622/598 623/599 624/600
f 625/601 626/602 627/603 628/604
f 629/605 630/606 631/607 632/608
f 633/609 634/610 635/611 636/612
f 637/613 638/614 639/615 640/616
f 641/617 642/618 643/619 644/620
f 645/621 646/622 647/623 648/624
f 649/625 650/626 651/627 652/628
f 653/629 654/630 655/631 656/632
f 657/633 658/634 659/635 660/636
f 661/637 662/638 663/639 664/640
f 665/641 666/642 667/643 668/644
f 669/645 670/646 671/647 672/648
f 681/649 682/650 683/651 684/652
f 685/653 686/654 687/655 688/656
f 689/657 690/658 691/659 692/660
f 693/661 694/662 695/663 696/664
f 697/665 698/666 699/667 700/668
f 701/669 702/670 703/671 704/672
f 705/673 706/674 707/675 708/676
f 709/677 710/678 711/679 712/680
f 713/681 714/682 715/683 716/684
f 717/685 718/686 719/687 720/688
f 721/689 722/690 723/691 724/692
f 725/693 726/694 727/695 728/696
f 729/697 730/698 731/699 732/700
f 733/701 734/702 735/703 736/704
f 737/705 738/706 739/707 740/708
f 741/709 742/710 743/711 744/712
f 745/713 746/714 747/715 748/716
f 749/717 750/718 751/719 752/720
f 753/721 754/722 755/723 756/724
f 757/725 758/726 759/727 760/728
f 761/729 762/730 763/731 764/732
f 765/733 766/734 767/735 768/736
f 769/737 770/738 771/739 772/740
f 773/741 774/742 775/743 776/744
f 777/745 778/746 779/747 780/748
f 781/749 782/750 783/751 784/752
f 785/753 786/754 787/755 788/756
f 789/757 790/758 791/759 792/760
f 793/761 794/762 795/763 796/764
f 797/765 798/766 799/767 800/768
f 801/769 802/770 803/771 804/772
f 805/773 806/774 807/775 808/776
f 809/777 810/778 811/779 812/780
f 813/781 814/782 815/783 816/784
f 817/785 818/786 819/787 820/788
f 821/789 822/790 823/791 824/792
f 833/793 834/794 835/795 836/796
f 837/797 838/798 839/799 840/800
f 841/801 842/802 843/803 844/804
f 845/805 846/806 847/807 848/808
f 849/809 850/810 851/811 852/812
f 853/813 854/814 855/815 856/816
f 857/817 858/818 859/819 860/820
f 861/821 862/822 863/823 864/824
f 865/825 866/826 867/827 868/828
f 869/829 870/830 871/831 872/832
f 873/833 874/834 875/835 876/836
f 877/837 878/838 879/839 880/840
f 881/841 882/842 883/843 884/844
f 885/845 886/846 887/847 888/848
f 889/849 890/850 891/851 892/852
f 893/853 894/854 895/855 896/856
f 897/857 898/858 899/859 900/860
f 901/861 902/862 903/863 904/864
