# RoastEngine Backrooms level
mtllib backrooms.mtl
v 1233.9500 0.0000 -18.0500
v 1233.9500 0.0000 -14.4500
v 1237.5500 0.0000 -14.4500
v 1237.5500 0.0000 -18.0500
v 1233.9500 3.1000 -18.0500
v 1237.5500 3.1000 -18.0500
v 1237.5500 3.1000 -14.4500
v 1233.9500 3.1000 -14.4500
v 1233.9500 0.0000 -18.0500
v 1237.5500 0.0000 -18.0500
v 1237.5500 3.1000 -18.0500
v 1233.9500 3.1000 -18.0500
v 1237.5500 0.0000 -14.4500
v 1233.9500 0.0000 -14.4500
v 1233.9500 3.1000 -14.4500
v 1237.5500 3.1000 -14.4500
v 1237.5500 0.0000 -18.0500
v 1237.5500 0.0000 -14.4500
v 1237.5500 3.1000 -14.4500
v 1237.5500 3.1000 -18.0500
v 1233.9500 0.0000 -14.4500
v 1233.9500 0.0000 -18.0500
v 1233.9500 3.1000 -18.0500
v 1233.9500 3.1000 -14.4500
v 1240.4500 0.0000 -18.0500
v 1244.0500 0.0000 -18.0500
v 1244.0500 0.0000 -14.4500
v 1240.4500 0.0000 -14.4500
v 1240.4500 1.6000 -18.0500
v 1244.0500 1.6000 -18.0500
v 1244.0500 1.6000 -14.4500
v 1240.4500 1.6000 -14.4500
v 1246.9500 0.0000 -18.0500
v 1246.9500 0.0000 -14.4500
v 1250.5500 0.0000 -14.4500
v 1250.5500 0.0000 -18.0500
v 1246.9500 3.1000 -18.0500
v 1250.5500 3.1000 -18.0500
v 1250.5500 3.1000 -14.4500
v 1246.9500 3.1000 -14.4500
v 1246.9500 0.0000 -18.0500
v 1250.5500 0.0000 -18.0500
v 1250.5500 3.1000 -18.0500
v 1246.9500 3.1000 -18.0500
v 1250.5500 0.0000 -14.4500
v 1246.9500 0.0000 -14.4500
v 1246.9500 3.1000 -14.4500
v 1250.5500 3.1000 -14.4500
v 1250.5500 0.0000 -18.0500
v 1250.5500 0.0000 -14.4500
v 1250.5500 3.1000 -14.4500
v 1250.5500 3.1000 -18.0500
v 1246.9500 0.0000 -14.4500
v 1246.9500 0.0000 -18.0500
v 1246.9500 3.1000 -18.0500
v 1246.9500 3.1000 -14.4500
v 1246.9500 0.0000 -14.8000
v 1246.9500 0.0000 -11.2000
v 1250.5500 0.0000 -11.2000
v 1250.5500 0.0000 -14.8000
v 1246.9500 3.1000 -14.8000
v 1250.5500 3.1000 -14.8000
v 1250.5500 3.1000 -11.2000
v 1246.9500 3.1000 -11.2000
v 1246.9500 0.0000 -14.8000
v 1250.5500 0.0000 -14.8000
v 1250.5500 3.1000 -14.8000
v 1246.9500 3.1000 -14.8000
v 1250.5500 0.0000 -11.2000
v 1246.9500 0.0000 -11.2000
v 1246.9500 3.1000 -11.2000
v 1250.5500 3.1000 -11.2000
v 1250.5500 0.0000 -14.8000
v 1250.5500 0.0000 -11.2000
v 1250.5500 3.1000 -11.2000
v 1250.5500 3.1000 -14.8000
v 1246.9500 0.0000 -11.2000
v 1246.9500 0.0000 -14.8000
v 1246.9500 3.1000 -14.8000
v 1246.9500 3.1000 -11.2000
v 1227.4500 0.0000 -11.5500
v 1231.0500 0.0000 -11.5500
v 1231.0500 0.0000 -7.9500
v 1227.4500 0.0000 -7.9500
v 1227.4500 1.6000 -11.5500
v 1231.0500 1.6000 -11.5500
v 1231.0500 1.6000 -7.9500
v 1227.4500 1.6000 -7.9500
v 1233.9500 0.0000 -11.5500
v 1237.5500 0.0000 -11.5500
v 1237.5500 0.0000 -7.9500
v 1233.9500 0.0000 -7.9500
v 1233.9500 1.6000 -11.5500
v 1237.5500 1.6000 -11.5500
v 1237.5500 1.6000 -7.9500
v 1233.9500 1.6000 -7.9500
v 1246.9500 0.0000 -11.5500
v 1246.9500 0.0000 -7.9500
v 1250.5500 0.0000 -7.9500
v 1250.5500 0.0000 -11.5500
v 1246.9500 3.1000 -11.5500
v 1250.5500 3.1000 -11.5500
v 1250.5500 3.1000 -7.9500
v 1246.9500 3.1000 -7.9500
v 1246.9500 0.0000 -11.5500
v 1250.5500 0.0000 -11.5500
v 1250.5500 3.1000 -11.5500
v 1246.9500 3.1000 -11.5500
v 1250.5500 0.0000 -7.9500
v 1246.9500 0.0000 -7.9500
v 1246.9500 3.1000 -7.9500
v 1250.5500 3.1000 -7.9500
v 1250.5500 0.0000 -11.5500
v 1250.5500 0.0000 -7.9500
v 1250.5500 3.1000 -7.9500
v 1250.5500 3.1000 -11.5500
v 1246.9500 0.0000 -7.9500
v 1246.9500 0.0000 -11.5500
v 1246.9500 3.1000 -11.5500
v 1246.9500 3.1000 -7.9500
v 1220.9500 0.0000 -5.0500
v 1220.9500 0.0000 -1.4500
v 1224.5500 0.0000 -1.4500
v 1224.5500 0.0000 -5.0500
v 1220.9500 3.1000 -5.0500
v 1224.5500 3.1000 -5.0500
v 1224.5500 3.1000 -1.4500
v 1220.9500 3.1000 -1.4500
v 1220.9500 0.0000 -5.0500
v 1224.5500 0.0000 -5.0500
v 1224.5500 3.1000 -5.0500
v 1220.9500 3.1000 -5.0500
v 1224.5500 0.0000 -1.4500
v 1220.9500 0.0000 -1.4500
v 1220.9500 3.1000 -1.4500
v 1224.5500 3.1000 -1.4500
v 1224.5500 0.0000 -5.0500
v 1224.5500 0.0000 -1.4500
v 1224.5500 3.1000 -1.4500
v 1224.5500 3.1000 -5.0500
v 1220.9500 0.0000 -1.4500
v 1220.9500 0.0000 -5.0500
v 1220.9500 3.1000 -5.0500
v 1220.9500 3.1000 -1.4500
v 1224.2000 0.0000 -5.0500
v 1227.8000 0.0000 -5.0500
v 1227.8000 0.0000 -1.4500
v 1224.2000 0.0000 -1.4500
v 1224.2000 1.6000 -5.0500
v 1227.8000 1.6000 -5.0500
v 1227.8000 1.6000 -1.4500
v 1224.2000 1.6000 -1.4500
v 1227.4500 0.0000 -5.0500
v 1227.4500 0.0000 -1.4500
v 1231.0500 0.0000 -1.4500
v 1231.0500 0.0000 -5.0500
v 1227.4500 3.1000 -5.0500
v 1231.0500 3.1000 -5.0500
v 1231.0500 3.1000 -1.4500
v 1227.4500 3.1000 -1.4500
v 1227.4500 0.0000 -5.0500
v 1231.0500 0.0000 -5.0500
v 1231.0500 3.1000 -5.0500
v 1227.4500 3.1000 -5.0500
v 1231.0500 0.0000 -1.4500
v 1227.4500 0.0000 -1.4500
v 1227.4500 3.1000 -1.4500
v 1231.0500 3.1000 -1.4500
v 1231.0500 0.0000 -5.0500
v 1231.0500 0.0000 -1.4500
v 1231.0500 3.1000 -1.4500
v 1231.0500 3.1000 -5.0500
v 1227.4500 0.0000 -1.4500
v 1227.4500 0.0000 -5.0500
v 1227.4500 3.1000 -5.0500
v 1227.4500 3.1000 -1.4500
v 1233.9500 0.0000 -5.0500
v 1233.9500 0.0000 -1.4500
v 1237.5500 0.0000 -1.4500
v 1237.5500 0.0000 -5.0500
v 1233.9500 3.1000 -5.0500
v 1237.5500 3.1000 -5.0500
v 1237.5500 3.1000 -1.4500
v 1233.9500 3.1000 -1.4500
v 1233.9500 0.0000 -5.0500
v 1237.5500 0.0000 -5.0500
v 1237.5500 3.1000 -5.0500
v 1233.9500 3.1000 -5.0500
v 1237.5500 0.0000 -1.4500
v 1233.9500 0.0000 -1.4500
v 1233.9500 3.1000 -1.4500
v 1237.5500 3.1000 -1.4500
v 1237.5500 0.0000 -5.0500
v 1237.5500 0.0000 -1.4500
v 1237.5500 3.1000 -1.4500
v 1237.5500 3.1000 -5.0500
v 1233.9500 0.0000 -1.4500
v 1233.9500 0.0000 -5.0500
v 1233.9500 3.1000 -5.0500
v 1233.9500 3.1000 -1.4500
v 1220.9500 0.0000 1.4500
v 1220.9500 0.0000 5.0500
v 1224.5500 0.0000 5.0500
v 1224.5500 0.0000 1.4500
v 1220.9500 3.1000 1.4500
v 1224.5500 3.1000 1.4500
v 1224.5500 3.1000 5.0500
v 1220.9500 3.1000 5.0500
v 1220.9500 0.0000 1.4500
v 1224.5500 0.0000 1.4500
v 1224.5500 3.1000 1.4500
v 1220.9500 3.1000 1.4500
v 1224.5500 0.0000 5.0500
v 1220.9500 0.0000 5.0500
v 1220.9500 3.1000 5.0500
v 1224.5500 3.1000 5.0500
v 1224.5500 0.0000 1.4500
v 1224.5500 0.0000 5.0500
v 1224.5500 3.1000 5.0500
v 1224.5500 3.1000 1.4500
v 1220.9500 0.0000 5.0500
v 1220.9500 0.0000 1.4500
v 1220.9500 3.1000 1.4500
v 1220.9500 3.1000 5.0500
v 1220.9500 0.0000 7.9500
v 1224.5500 0.0000 7.9500
v 1224.5500 0.0000 11.5500
v 1220.9500 0.0000 11.5500
v 1220.9500 1.6000 7.9500
v 1224.5500 1.6000 7.9500
v 1224.5500 1.6000 11.5500
v 1220.9500 1.6000 11.5500
v 1227.4500 0.0000 7.9500
v 1231.0500 0.0000 7.9500
v 1231.0500 0.0000 11.5500
v 1227.4500 0.0000 11.5500
v 1227.4500 1.6000 7.9500
v 1231.0500 1.6000 7.9500
v 1231.0500 1.6000 11.5500
v 1227.4500 1.6000 11.5500
v 1233.9500 0.0000 7.9500
v 1237.5500 0.0000 7.9500
v 1237.5500 0.0000 11.5500
v 1233.9500 0.0000 11.5500
v 1233.9500 1.6000 7.9500
v 1237.5500 1.6000 7.9500
v 1237.5500 1.6000 11.5500
v 1233.9500 1.6000 11.5500
v 1220.9500 0.0000 11.2000
v 1220.9500 0.0000 14.8000
v 1224.5500 0.0000 14.8000
v 1224.5500 0.0000 11.2000
v 1220.9500 3.1000 11.2000
v 1224.5500 3.1000 11.2000
v 1224.5500 3.1000 14.8000
v 1220.9500 3.1000 14.8000
v 1220.9500 0.0000 11.2000
v 1224.5500 0.0000 11.2000
v 1224.5500 3.1000 11.2000
v 1220.9500 3.1000 11.2000
v 1224.5500 0.0000 14.8000
v 1220.9500 0.0000 14.8000
v 1220.9500 3.1000 14.8000
v 1224.5500 3.1000 14.8000
v 1224.5500 0.0000 11.2000
v 1224.5500 0.0000 14.8000
v 1224.5500 3.1000 14.8000
v 1224.5500 3.1000 11.2000
v 1220.9500 0.0000 14.8000
v 1220.9500 0.0000 11.2000
v 1220.9500 3.1000 11.2000
v 1220.9500 3.1000 14.8000
v 1220.9500 0.0000 14.4500
v 1220.9500 0.0000 18.0500
v 1224.5500 0.0000 18.0500
v 1224.5500 0.0000 14.4500
v 1220.9500 3.1000 14.4500
v 1224.5500 3.1000 14.4500
v 1224.5500 3.1000 18.0500
v 1220.9500 3.1000 18.0500
v 1220.9500 0.0000 14.4500
v 1224.5500 0.0000 14.4500
v 1224.5500 3.1000 14.4500
v 1220.9500 3.1000 14.4500
v 1224.5500 0.0000 18.0500
v 1220.9500 0.0000 18.0500
v 1220.9500 3.1000 18.0500
v 1224.5500 3.1000 18.0500
v 1224.5500 0.0000 14.4500
v 1224.5500 0.0000 18.0500
v 1224.5500 3.1000 18.0500
v 1224.5500 3.1000 14.4500
v 1220.9500 0.0000 18.0500
v 1220.9500 0.0000 14.4500
v 1220.9500 3.1000 14.4500
v 1220.9500 3.1000 18.0500
v 1240.4500 0.0000 14.4500
v 1244.0500 0.0000 14.4500
v 1244.0500 0.0000 18.0500
v 1240.4500 0.0000 18.0500
v 1240.4500 1.6000 14.4500
v 1244.0500 1.6000 14.4500
v 1244.0500 1.6000 18.0500
v 1240.4500 1.6000 18.0500
v 1243.7000 0.0000 14.4500
v 1247.3000 0.0000 14.4500
v 1247.3000 0.0000 18.0500
v 1243.7000 0.0000 18.0500
v 1243.7000 1.6000 14.4500
v 1247.3000 1.6000 14.4500
v 1247.3000 1.6000 18.0500
v 1243.7000 1.6000 18.0500
v 1246.9500 0.0000 14.4500
v 1250.5500 0.0000 14.4500
v 1250.5500 0.0000 18.0500
v 1246.9500 0.0000 18.0500
v 1246.9500 1.6000 14.4500
v 1250.5500 1.6000 14.4500
v 1250.5500 1.6000 18.0500
v 1246.9500 1.6000 18.0500
v 1250.2000 0.0000 14.4500
v 1250.2000 0.0000 18.0500
v 1253.8000 0.0000 18.0500
v 1253.8000 0.0000 14.4500
v 1250.2000 3.1000 14.4500
v 1253.8000 3.1000 14.4500
v 1253.8000 3.1000 18.0500
v 1250.2000 3.1000 18.0500
v 1250.2000 0.0000 14.4500
v 1253.8000 0.0000 14.4500
v 1253.8000 3.1000 14.4500
v 1250.2000 3.1000 14.4500
v 1253.8000 0.0000 18.0500
v 1250.2000 0.0000 18.0500
v 1250.2000 3.1000 18.0500
v 1253.8000 3.1000 18.0500
v 1253.8000 0.0000 14.4500
v 1253.8000 0.0000 18.0500
v 1253.8000 3.1000 18.0500
v 1253.8000 3.1000 14.4500
v 1250.2000 0.0000 18.0500
v 1250.2000 0.0000 14.4500
v 1250.2000 3.1000 14.4500
v 1250.2000 3.1000 18.0500
v 1231.7000 2.9300 -13.1750
v 1233.3000 2.9300 -13.1750
v 1233.3000 2.9300 -12.8250
v 1231.7000 2.9300 -12.8250
v 1231.7000 3.0300 -13.1750
v 1233.3000 3.0300 -13.1750
v 1233.3000 3.0300 -12.8250
v 1231.7000 3.0300 -12.8250
v 1231.5500 3.0100 -13.3000
v 1231.5500 3.0100 -12.7000
v 1233.4500 3.0100 -12.7000
v 1233.4500 3.0100 -13.3000
v 1231.5500 3.0900 -13.3000
v 1233.4500 3.0900 -13.3000
v 1233.4500 3.0900 -12.7000
v 1231.5500 3.0900 -12.7000
v 1231.5500 3.0100 -13.3000
v 1233.4500 3.0100 -13.3000
v 1233.4500 3.0900 -13.3000
v 1231.5500 3.0900 -13.3000
v 1233.4500 3.0100 -12.7000
v 1231.5500 3.0100 -12.7000
v 1231.5500 3.0900 -12.7000
v 1233.4500 3.0900 -12.7000
v 1233.4500 3.0100 -13.3000
v 1233.4500 3.0100 -12.7000
v 1233.4500 3.0900 -12.7000
v 1233.4500 3.0900 -13.3000
v 1231.5500 3.0100 -12.7000
v 1231.5500 3.0100 -13.3000
v 1231.5500 3.0900 -13.3000
v 1231.5500 3.0900 -12.7000
v 1238.2000 2.9300 -13.1750
v 1239.8000 2.9300 -13.1750
v 1239.8000 2.9300 -12.8250
v 1238.2000 2.9300 -12.8250
v 1238.2000 3.0300 -13.1750
v 1239.8000 3.0300 -13.1750
v 1239.8000 3.0300 -12.8250
v 1238.2000 3.0300 -12.8250
v 1238.0500 3.0100 -13.3000
v 1238.0500 3.0100 -12.7000
v 1239.9500 3.0100 -12.7000
v 1239.9500 3.0100 -13.3000
v 1238.0500 3.0900 -13.3000
v 1239.9500 3.0900 -13.3000
v 1239.9500 3.0900 -12.7000
v 1238.0500 3.0900 -12.7000
v 1238.0500 3.0100 -13.3000
v 1239.9500 3.0100 -13.3000
v 1239.9500 3.0900 -13.3000
v 1238.0500 3.0900 -13.3000
v 1239.9500 3.0100 -12.7000
v 1238.0500 3.0100 -12.7000
v 1238.0500 3.0900 -12.7000
v 1239.9500 3.0900 -12.7000
v 1239.9500 3.0100 -13.3000
v 1239.9500 3.0100 -12.7000
v 1239.9500 3.0900 -12.7000
v 1239.9500 3.0900 -13.3000
v 1238.0500 3.0100 -12.7000
v 1238.0500 3.0100 -13.3000
v 1238.0500 3.0900 -13.3000
v 1238.0500 3.0900 -12.7000
v 1251.2000 2.9300 -13.1750
v 1252.8000 2.9300 -13.1750
v 1252.8000 2.9300 -12.8250
v 1251.2000 2.9300 -12.8250
v 1251.2000 3.0300 -13.1750
v 1252.8000 3.0300 -13.1750
v 1252.8000 3.0300 -12.8250
v 1251.2000 3.0300 -12.8250
v 1251.0500 3.0100 -13.3000
v 1251.0500 3.0100 -12.7000
v 1252.9500 3.0100 -12.7000
v 1252.9500 3.0100 -13.3000
v 1251.0500 3.0900 -13.3000
v 1252.9500 3.0900 -13.3000
v 1252.9500 3.0900 -12.7000
v 1251.0500 3.0900 -12.7000
v 1251.0500 3.0100 -13.3000
v 1252.9500 3.0100 -13.3000
v 1252.9500 3.0900 -13.3000
v 1251.0500 3.0900 -13.3000
v 1252.9500 3.0100 -12.7000
v 1251.0500 3.0100 -12.7000
v 1251.0500 3.0900 -12.7000
v 1252.9500 3.0900 -12.7000
v 1252.9500 3.0100 -13.3000
v 1252.9500 3.0100 -12.7000
v 1252.9500 3.0900 -12.7000
v 1252.9500 3.0900 -13.3000
v 1251.0500 3.0100 -12.7000
v 1251.0500 3.0100 -13.3000
v 1251.0500 3.0900 -13.3000
v 1251.0500 3.0900 -12.7000
v 1225.2000 2.9300 -6.6750
v 1226.8000 2.9300 -6.6750
v 1226.8000 2.9300 -6.3250
v 1225.2000 2.9300 -6.3250
v 1225.2000 3.0300 -6.6750
v 1226.8000 3.0300 -6.6750
v 1226.8000 3.0300 -6.3250
v 1225.2000 3.0300 -6.3250
v 1225.0500 3.0100 -6.8000
v 1225.0500 3.0100 -6.2000
v 1226.9500 3.0100 -6.2000
v 1226.9500 3.0100 -6.8000
v 1225.0500 3.0900 -6.8000
v 1226.9500 3.0900 -6.8000
v 1226.9500 3.0900 -6.2000
v 1225.0500 3.0900 -6.2000
v 1225.0500 3.0100 -6.8000
v 1226.9500 3.0100 -6.8000
v 1226.9500 3.0900 -6.8000
v 1225.0500 3.0900 -6.8000
v 1226.9500 3.0100 -6.2000
v 1225.0500 3.0100 -6.2000
v 1225.0500 3.0900 -6.2000
v 1226.9500 3.0900 -6.2000
v 1226.9500 3.0100 -6.8000
v 1226.9500 3.0100 -6.2000
v 1226.9500 3.0900 -6.2000
v 1226.9500 3.0900 -6.8000
v 1225.0500 3.0100 -6.2000
v 1225.0500 3.0100 -6.8000
v 1225.0500 3.0900 -6.8000
v 1225.0500 3.0900 -6.2000
v 1231.7000 2.9300 -6.6750
v 1233.3000 2.9300 -6.6750
v 1233.3000 2.9300 -6.3250
v 1231.7000 2.9300 -6.3250
v 1231.7000 3.0300 -6.6750
v 1233.3000 3.0300 -6.6750
v 1233.3000 3.0300 -6.3250
v 1231.7000 3.0300 -6.3250
v 1231.5500 3.0100 -6.8000
v 1231.5500 3.0100 -6.2000
v 1233.4500 3.0100 -6.2000
v 1233.4500 3.0100 -6.8000
v 1231.5500 3.0900 -6.8000
v 1233.4500 3.0900 -6.8000
v 1233.4500 3.0900 -6.2000
v 1231.5500 3.0900 -6.2000
v 1231.5500 3.0100 -6.8000
v 1233.4500 3.0100 -6.8000
v 1233.4500 3.0900 -6.8000
v 1231.5500 3.0900 -6.8000
v 1233.4500 3.0100 -6.2000
v 1231.5500 3.0100 -6.2000
v 1231.5500 3.0900 -6.2000
v 1233.4500 3.0900 -6.2000
v 1233.4500 3.0100 -6.8000
v 1233.4500 3.0100 -6.2000
v 1233.4500 3.0900 -6.2000
v 1233.4500 3.0900 -6.8000
v 1231.5500 3.0100 -6.2000
v 1231.5500 3.0100 -6.8000
v 1231.5500 3.0900 -6.8000
v 1231.5500 3.0900 -6.2000
v 1244.7000 2.9300 -6.6750
v 1246.3000 2.9300 -6.6750
v 1246.3000 2.9300 -6.3250
v 1244.7000 2.9300 -6.3250
v 1244.7000 3.0300 -6.6750
v 1246.3000 3.0300 -6.6750
v 1246.3000 3.0300 -6.3250
v 1244.7000 3.0300 -6.3250
v 1244.5500 3.0100 -6.8000
v 1244.5500 3.0100 -6.2000
v 1246.4500 3.0100 -6.2000
v 1246.4500 3.0100 -6.8000
v 1244.5500 3.0900 -6.8000
v 1246.4500 3.0900 -6.8000
v 1246.4500 3.0900 -6.2000
v 1244.5500 3.0900 -6.2000
v 1244.5500 3.0100 -6.8000
v 1246.4500 3.0100 -6.8000
v 1246.4500 3.0900 -6.8000
v 1244.5500 3.0900 -6.8000
v 1246.4500 3.0100 -6.2000
v 1244.5500 3.0100 -6.2000
v 1244.5500 3.0900 -6.2000
v 1246.4500 3.0900 -6.2000
v 1246.4500 3.0100 -6.8000
v 1246.4500 3.0100 -6.2000
v 1246.4500 3.0900 -6.2000
v 1246.4500 3.0900 -6.8000
v 1244.5500 3.0100 -6.2000
v 1244.5500 3.0100 -6.8000
v 1244.5500 3.0900 -6.8000
v 1244.5500 3.0900 -6.2000
v 1251.2000 2.9300 -6.6750
v 1252.8000 2.9300 -6.6750
v 1252.8000 2.9300 -6.3250
v 1251.2000 2.9300 -6.3250
v 1251.2000 3.0300 -6.6750
v 1252.8000 3.0300 -6.6750
v 1252.8000 3.0300 -6.3250
v 1251.2000 3.0300 -6.3250
v 1251.0500 3.0100 -6.8000
v 1251.0500 3.0100 -6.2000
v 1252.9500 3.0100 -6.2000
v 1252.9500 3.0100 -6.8000
v 1251.0500 3.0900 -6.8000
v 1252.9500 3.0900 -6.8000
v 1252.9500 3.0900 -6.2000
v 1251.0500 3.0900 -6.2000
v 1251.0500 3.0100 -6.8000
v 1252.9500 3.0100 -6.8000
v 1252.9500 3.0900 -6.8000
v 1251.0500 3.0900 -6.8000
v 1252.9500 3.0100 -6.2000
v 1251.0500 3.0100 -6.2000
v 1251.0500 3.0900 -6.2000
v 1252.9500 3.0900 -6.2000
v 1252.9500 3.0100 -6.8000
v 1252.9500 3.0100 -6.2000
v 1252.9500 3.0900 -6.2000
v 1252.9500 3.0900 -6.8000
v 1251.0500 3.0100 -6.2000
v 1251.0500 3.0100 -6.8000
v 1251.0500 3.0900 -6.8000
v 1251.0500 3.0900 -6.2000
v 1225.2000 2.9300 -0.1750
v 1226.8000 2.9300 -0.1750
v 1226.8000 2.9300 0.1750
v 1225.2000 2.9300 0.1750
v 1225.2000 3.0300 -0.1750
v 1226.8000 3.0300 -0.1750
v 1226.8000 3.0300 0.1750
v 1225.2000 3.0300 0.1750
v 1225.0500 3.0100 -0.3000
v 1225.0500 3.0100 0.3000
v 1226.9500 3.0100 0.3000
v 1226.9500 3.0100 -0.3000
v 1225.0500 3.0900 -0.3000
v 1226.9500 3.0900 -0.3000
v 1226.9500 3.0900 0.3000
v 1225.0500 3.0900 0.3000
v 1225.0500 3.0100 -0.3000
v 1226.9500 3.0100 -0.3000
v 1226.9500 3.0900 -0.3000
v 1225.0500 3.0900 -0.3000
v 1226.9500 3.0100 0.3000
v 1225.0500 3.0100 0.3000
v 1225.0500 3.0900 0.3000
v 1226.9500 3.0900 0.3000
v 1226.9500 3.0100 -0.3000
v 1226.9500 3.0100 0.3000
v 1226.9500 3.0900 0.3000
v 1226.9500 3.0900 -0.3000
v 1225.0500 3.0100 0.3000
v 1225.0500 3.0100 -0.3000
v 1225.0500 3.0900 -0.3000
v 1225.0500 3.0900 0.3000
v 1251.2000 2.9300 -0.1750
v 1252.8000 2.9300 -0.1750
v 1252.8000 2.9300 0.1750
v 1251.2000 2.9300 0.1750
v 1251.2000 3.0300 -0.1750
v 1252.8000 3.0300 -0.1750
v 1252.8000 3.0300 0.1750
v 1251.2000 3.0300 0.1750
v 1251.0500 3.0100 -0.3000
v 1251.0500 3.0100 0.3000
v 1252.9500 3.0100 0.3000
v 1252.9500 3.0100 -0.3000
v 1251.0500 3.0900 -0.3000
v 1252.9500 3.0900 -0.3000
v 1252.9500 3.0900 0.3000
v 1251.0500 3.0900 0.3000
v 1251.0500 3.0100 -0.3000
v 1252.9500 3.0100 -0.3000
v 1252.9500 3.0900 -0.3000
v 1251.0500 3.0900 -0.3000
v 1252.9500 3.0100 0.3000
v 1251.0500 3.0100 0.3000
v 1251.0500 3.0900 0.3000
v 1252.9500 3.0900 0.3000
v 1252.9500 3.0100 -0.3000
v 1252.9500 3.0100 0.3000
v 1252.9500 3.0900 0.3000
v 1252.9500 3.0900 -0.3000
v 1251.0500 3.0100 0.3000
v 1251.0500 3.0100 -0.3000
v 1251.0500 3.0900 -0.3000
v 1251.0500 3.0900 0.3000
v 1225.2000 2.9300 6.3250
v 1226.8000 2.9300 6.3250
v 1226.8000 2.9300 6.6750
v 1225.2000 2.9300 6.6750
v 1225.2000 3.0300 6.3250
v 1226.8000 3.0300 6.3250
v 1226.8000 3.0300 6.6750
v 1225.2000 3.0300 6.6750
v 1225.0500 3.0100 6.2000
v 1225.0500 3.0100 6.8000
v 1226.9500 3.0100 6.8000
v 1226.9500 3.0100 6.2000
v 1225.0500 3.0900 6.2000
v 1226.9500 3.0900 6.2000
v 1226.9500 3.0900 6.8000
v 1225.0500 3.0900 6.8000
v 1225.0500 3.0100 6.2000
v 1226.9500 3.0100 6.2000
v 1226.9500 3.0900 6.2000
v 1225.0500 3.0900 6.2000
v 1226.9500 3.0100 6.8000
v 1225.0500 3.0100 6.8000
v 1225.0500 3.0900 6.8000
v 1226.9500 3.0900 6.8000
v 1226.9500 3.0100 6.2000
v 1226.9500 3.0100 6.8000
v 1226.9500 3.0900 6.8000
v 1226.9500 3.0900 6.2000
v 1225.0500 3.0100 6.8000
v 1225.0500 3.0100 6.2000
v 1225.0500 3.0900 6.2000
v 1225.0500 3.0900 6.8000
v 1231.7000 2.9300 6.3250
v 1233.3000 2.9300 6.3250
v 1233.3000 2.9300 6.6750
v 1231.7000 2.9300 6.6750
v 1231.7000 3.0300 6.3250
v 1233.3000 3.0300 6.3250
v 1233.3000 3.0300 6.6750
v 1231.7000 3.0300 6.6750
v 1231.5500 3.0100 6.2000
v 1231.5500 3.0100 6.8000
v 1233.4500 3.0100 6.8000
v 1233.4500 3.0100 6.2000
v 1231.5500 3.0900 6.2000
v 1233.4500 3.0900 6.2000
v 1233.4500 3.0900 6.8000
v 1231.5500 3.0900 6.8000
v 1231.5500 3.0100 6.2000
v 1233.4500 3.0100 6.2000
v 1233.4500 3.0900 6.2000
v 1231.5500 3.0900 6.2000
v 1233.4500 3.0100 6.8000
v 1231.5500 3.0100 6.8000
v 1231.5500 3.0900 6.8000
v 1233.4500 3.0900 6.8000
v 1233.4500 3.0100 6.2000
v 1233.4500 3.0100 6.8000
v 1233.4500 3.0900 6.8000
v 1233.4500 3.0900 6.2000
v 1231.5500 3.0100 6.8000
v 1231.5500 3.0100 6.2000
v 1231.5500 3.0900 6.2000
v 1231.5500 3.0900 6.8000
v 1238.2000 2.9300 6.3250
v 1239.8000 2.9300 6.3250
v 1239.8000 2.9300 6.6750
v 1238.2000 2.9300 6.6750
v 1238.2000 3.0300 6.3250
v 1239.8000 3.0300 6.3250
v 1239.8000 3.0300 6.6750
v 1238.2000 3.0300 6.6750
v 1238.0500 3.0100 6.2000
v 1238.0500 3.0100 6.8000
v 1239.9500 3.0100 6.8000
v 1239.9500 3.0100 6.2000
v 1238.0500 3.0900 6.2000
v 1239.9500 3.0900 6.2000
v 1239.9500 3.0900 6.8000
v 1238.0500 3.0900 6.8000
v 1238.0500 3.0100 6.2000
v 1239.9500 3.0100 6.2000
v 1239.9500 3.0900 6.2000
v 1238.0500 3.0900 6.2000
v 1239.9500 3.0100 6.8000
v 1238.0500 3.0100 6.8000
v 1238.0500 3.0900 6.8000
v 1239.9500 3.0900 6.8000
v 1239.9500 3.0100 6.2000
v 1239.9500 3.0100 6.8000
v 1239.9500 3.0900 6.8000
v 1239.9500 3.0900 6.2000
v 1238.0500 3.0100 6.8000
v 1238.0500 3.0100 6.2000
v 1238.0500 3.0900 6.2000
v 1238.0500 3.0900 6.8000
v 1225.2000 2.9300 12.8250
v 1226.8000 2.9300 12.8250
v 1226.8000 2.9300 13.1750
v 1225.2000 2.9300 13.1750
v 1225.2000 3.0300 12.8250
v 1226.8000 3.0300 12.8250
v 1226.8000 3.0300 13.1750
v 1225.2000 3.0300 13.1750
v 1225.0500 3.0100 12.7000
v 1225.0500 3.0100 13.3000
v 1226.9500 3.0100 13.3000
v 1226.9500 3.0100 12.7000
v 1225.0500 3.0900 12.7000
v 1226.9500 3.0900 12.7000
v 1226.9500 3.0900 13.3000
v 1225.0500 3.0900 13.3000
v 1225.0500 3.0100 12.7000
v 1226.9500 3.0100 12.7000
v 1226.9500 3.0900 12.7000
v 1225.0500 3.0900 12.7000
v 1226.9500 3.0100 13.3000
v 1225.0500 3.0100 13.3000
v 1225.0500 3.0900 13.3000
v 1226.9500 3.0900 13.3000
v 1226.9500 3.0100 12.7000
v 1226.9500 3.0100 13.3000
v 1226.9500 3.0900 13.3000
v 1226.9500 3.0900 12.7000
v 1225.0500 3.0100 13.3000
v 1225.0500 3.0100 12.7000
v 1225.0500 3.0900 12.7000
v 1225.0500 3.0900 13.3000
v 1238.2000 2.9300 12.8250
v 1239.8000 2.9300 12.8250
v 1239.8000 2.9300 13.1750
v 1238.2000 2.9300 13.1750
v 1238.2000 3.0300 12.8250
v 1239.8000 3.0300 12.8250
v 1239.8000 3.0300 13.1750
v 1238.2000 3.0300 13.1750
v 1238.0500 3.0100 12.7000
v 1238.0500 3.0100 13.3000
v 1239.9500 3.0100 13.3000
v 1239.9500 3.0100 12.7000
v 1238.0500 3.0900 12.7000
v 1239.9500 3.0900 12.7000
v 1239.9500 3.0900 13.3000
v 1238.0500 3.0900 13.3000
v 1238.0500 3.0100 12.7000
v 1239.9500 3.0100 12.7000
v 1239.9500 3.0900 12.7000
v 1238.0500 3.0900 12.7000
v 1239.9500 3.0100 13.3000
v 1238.0500 3.0100 13.3000
v 1238.0500 3.0900 13.3000
v 1239.9500 3.0900 13.3000
v 1239.9500 3.0100 12.7000
v 1239.9500 3.0100 13.3000
v 1239.9500 3.0900 13.3000
v 1239.9500 3.0900 12.7000
v 1238.0500 3.0100 13.3000
v 1238.0500 3.0100 12.7000
v 1238.0500 3.0900 12.7000
v 1238.0500 3.0900 13.3000
v 1244.7000 2.9300 12.8250
v 1246.3000 2.9300 12.8250
v 1246.3000 2.9300 13.1750
v 1244.7000 2.9300 13.1750
v 1244.7000 3.0300 12.8250
v 1246.3000 3.0300 12.8250
v 1246.3000 3.0300 13.1750
v 1244.7000 3.0300 13.1750
v 1244.5500 3.0100 12.7000
v 1244.5500 3.0100 13.3000
v 1246.4500 3.0100 13.3000
v 1246.4500 3.0100 12.7000
v 1244.5500 3.0900 12.7000
v 1246.4500 3.0900 12.7000
v 1246.4500 3.0900 13.3000
v 1244.5500 3.0900 13.3000
v 1244.5500 3.0100 12.7000
v 1246.4500 3.0100 12.7000
v 1246.4500 3.0900 12.7000
v 1244.5500 3.0900 12.7000
v 1246.4500 3.0100 13.3000
v 1244.5500 3.0100 13.3000
v 1244.5500 3.0900 13.3000
v 1246.4500 3.0900 13.3000
v 1246.4500 3.0100 12.7000
v 1246.4500 3.0100 13.3000
v 1246.4500 3.0900 13.3000
v 1246.4500 3.0900 12.7000
v 1244.5500 3.0100 13.3000
v 1244.5500 3.0100 12.7000
v 1244.5500 3.0900 12.7000
v 1244.5500 3.0900 13.3000
v 1251.2000 2.9300 12.8250
v 1252.8000 2.9300 12.8250
v 1252.8000 2.9300 13.1750
v 1251.2000 2.9300 13.1750
v 1251.2000 3.0300 12.8250
v 1252.8000 3.0300 12.8250
v 1252.8000 3.0300 13.1750
v 1251.2000 3.0300 13.1750
v 1251.0500 3.0100 12.7000
v 1251.0500 3.0100 13.3000
v 1252.9500 3.0100 13.3000
v 1252.9500 3.0100 12.7000
v 1251.0500 3.0900 12.7000
v 1252.9500 3.0900 12.7000
v 1252.9500 3.0900 13.3000
v 1251.0500 3.0900 13.3000
v 1251.0500 3.0100 12.7000
v 1252.9500 3.0100 12.7000
v 1252.9500 3.0900 12.7000
v 1251.0500 3.0900 12.7000
v 1252.9500 3.0100 13.3000
v 1251.0500 3.0100 13.3000
v 1251.0500 3.0900 13.3000
v 1252.9500 3.0900 13.3000
v 1252.9500 3.0100 12.7000
v 1252.9500 3.0100 13.3000
v 1252.9500 3.0900 13.3000
v 1252.9500 3.0900 12.7000
v 1251.0500 3.0100 13.3000
v 1251.0500 3.0100 12.7000
v 1251.0500 3.0900 12.7000
v 1251.0500 3.0900 13.3000
v 1231.7000 2.9300 19.3250
v 1233.3000 2.9300 19.3250
v 1233.3000 2.9300 19.6750
v 1231.7000 2.9300 19.6750
v 1231.7000 3.0300 19.3250
v 1233.3000 3.0300 19.3250
v 1233.3000 3.0300 19.6750
v 1231.7000 3.0300 19.6750
v 1231.5500 3.0100 19.2000
v 1231.5500 3.0100 19.8000
v 1233.4500 3.0100 19.8000
v 1233.4500 3.0100 19.2000
v 1231.5500 3.0900 19.2000
v 1233.4500 3.0900 19.2000
v 1233.4500 3.0900 19.8000
v 1231.5500 3.0900 19.8000
v 1231.5500 3.0100 19.2000
v 1233.4500 3.0100 19.2000
v 1233.4500 3.0900 19.2000
v 1231.5500 3.0900 19.2000
v 1233.4500 3.0100 19.8000
v 1231.5500 3.0100 19.8000
v 1231.5500 3.0900 19.8000
v 1233.4500 3.0900 19.8000
v 1233.4500 3.0100 19.2000
v 1233.4500 3.0100 19.8000
v 1233.4500 3.0900 19.8000
v 1233.4500 3.0900 19.2000
v 1231.5500 3.0100 19.8000
v 1231.5500 3.0100 19.2000
v 1231.5500 3.0900 19.2000
v 1231.5500 3.0900 19.8000
v 1238.2000 2.9300 19.3250
v 1239.8000 2.9300 19.3250
v 1239.8000 2.9300 19.6750
v 1238.2000 2.9300 19.6750
v 1238.2000 3.0300 19.3250
v 1239.8000 3.0300 19.3250
v 1239.8000 3.0300 19.6750
v 1238.2000 3.0300 19.6750
v 1238.0500 3.0100 19.2000
v 1238.0500 3.0100 19.8000
v 1239.9500 3.0100 19.8000
v 1239.9500 3.0100 19.2000
v 1238.0500 3.0900 19.2000
v 1239.9500 3.0900 19.2000
v 1239.9500 3.0900 19.8000
v 1238.0500 3.0900 19.8000
v 1238.0500 3.0100 19.2000
v 1239.9500 3.0100 19.2000
v 1239.9500 3.0900 19.2000
v 1238.0500 3.0900 19.2000
v 1239.9500 3.0100 19.8000
v 1238.0500 3.0100 19.8000
v 1238.0500 3.0900 19.8000
v 1239.9500 3.0900 19.8000
v 1239.9500 3.0100 19.2000
v 1239.9500 3.0100 19.8000
v 1239.9500 3.0900 19.8000
v 1239.9500 3.0900 19.2000
v 1238.0500 3.0100 19.8000
v 1238.0500 3.0100 19.2000
v 1238.0500 3.0900 19.2000
v 1238.0500 3.0900 19.8000
v 1244.7000 2.9300 19.3250
v 1246.3000 2.9300 19.3250
v 1246.3000 2.9300 19.6750
v 1244.7000 2.9300 19.6750
v 1244.7000 3.0300 19.3250
v 1246.3000 3.0300 19.3250
v 1246.3000 3.0300 19.6750
v 1244.7000 3.0300 19.6750
v 1244.5500 3.0100 19.2000
v 1244.5500 3.0100 19.8000
v 1246.4500 3.0100 19.8000
v 1246.4500 3.0100 19.2000
v 1244.5500 3.0900 19.2000
v 1246.4500 3.0900 19.2000
v 1246.4500 3.0900 19.8000
v 1244.5500 3.0900 19.8000
v 1244.5500 3.0100 19.2000
v 1246.4500 3.0100 19.2000
v 1246.4500 3.0900 19.2000
v 1244.5500 3.0900 19.2000
v 1246.4500 3.0100 19.8000
v 1244.5500 3.0100 19.8000
v 1244.5500 3.0900 19.8000
v 1246.4500 3.0900 19.8000
v 1246.4500 3.0100 19.2000
v 1246.4500 3.0100 19.8000
v 1246.4500 3.0900 19.8000
v 1246.4500 3.0900 19.2000
v 1244.5500 3.0100 19.8000
v 1244.5500 3.0100 19.2000
v 1244.5500 3.0900 19.2000
v 1244.5500 3.0900 19.8000
v 1231.7500 0.3300 -13.3750
v 1233.2500 0.3300 -13.3750
v 1233.2500 0.3300 -12.6250
v 1231.7500 0.3300 -12.6250
v 1231.7500 0.3900 -13.3750
v 1233.2500 0.3900 -13.3750
v 1233.2500 0.3900 -12.6250
v 1231.7500 0.3900 -12.6250
v 1231.8100 0.0000 -13.3500
v 1231.8900 0.0000 -13.3500
v 1231.8900 0.0000 -12.6500
v 1231.8100 0.0000 -12.6500
v 1231.8100 0.3600 -13.3500
v 1231.8900 0.3600 -13.3500
v 1231.8900 0.3600 -12.6500
v 1231.8100 0.3600 -12.6500
v 1233.1100 0.0000 -13.3500
v 1233.1900 0.0000 -13.3500
v 1233.1900 0.0000 -12.6500
v 1233.1100 0.0000 -12.6500
v 1233.1100 0.3600 -13.3500
v 1233.1900 0.3600 -13.3500
v 1233.1900 0.3600 -12.6500
v 1233.1100 0.3600 -12.6500
v 1232.2700 0.3900 -12.9600
v 1232.7300 0.3900 -12.9600
v 1232.7300 0.3900 -12.8000
v 1232.2700 0.3900 -12.8000
v 1232.2700 0.7700 -12.9600
v 1232.7300 0.7700 -12.9600
v 1232.7300 0.7700 -12.8000
v 1232.2700 0.7700 -12.8000
v 1251.2500 0.3300 -13.3750
v 1252.7500 0.3300 -13.3750
v 1252.7500 0.3300 -12.6250
v 1251.2500 0.3300 -12.6250
v 1251.2500 0.3900 -13.3750
v 1252.7500 0.3900 -13.3750
v 1252.7500 0.3900 -12.6250
v 1251.2500 0.3900 -12.6250
v 1251.3100 0.0000 -13.3500
v 1251.3900 0.0000 -13.3500
v 1251.3900 0.0000 -12.6500
v 1251.3100 0.0000 -12.6500
v 1251.3100 0.3600 -13.3500
v 1251.3900 0.3600 -13.3500
v 1251.3900 0.3600 -12.6500
v 1251.3100 0.3600 -12.6500
v 1252.6100 0.0000 -13.3500
v 1252.6900 0.0000 -13.3500
v 1252.6900 0.0000 -12.6500
v 1252.6100 0.0000 -12.6500
v 1252.6100 0.3600 -13.3500
v 1252.6900 0.3600 -13.3500
v 1252.6900 0.3600 -12.6500
v 1252.6100 0.3600 -12.6500
v 1251.7700 0.3900 -12.9600
v 1252.2300 0.3900 -12.9600
v 1252.2300 0.3900 -12.8000
v 1251.7700 0.3900 -12.8000
v 1251.7700 0.7700 -12.9600
v 1252.2300 0.7700 -12.9600
v 1252.2300 0.7700 -12.8000
v 1251.7700 0.7700 -12.8000
v 1231.7500 0.3300 -6.8750
v 1233.2500 0.3300 -6.8750
v 1233.2500 0.3300 -6.1250
v 1231.7500 0.3300 -6.1250
v 1231.7500 0.3900 -6.8750
v 1233.2500 0.3900 -6.8750
v 1233.2500 0.3900 -6.1250
v 1231.7500 0.3900 -6.1250
v 1231.8100 0.0000 -6.8500
v 1231.8900 0.0000 -6.8500
v 1231.8900 0.0000 -6.1500
v 1231.8100 0.0000 -6.1500
v 1231.8100 0.3600 -6.8500
v 1231.8900 0.3600 -6.8500
v 1231.8900 0.3600 -6.1500
v 1231.8100 0.3600 -6.1500
v 1233.1100 0.0000 -6.8500
v 1233.1900 0.0000 -6.8500
v 1233.1900 0.0000 -6.1500
v 1233.1100 0.0000 -6.1500
v 1233.1100 0.3600 -6.8500
v 1233.1900 0.3600 -6.8500
v 1233.1900 0.3600 -6.1500
v 1233.1100 0.3600 -6.1500
v 1232.2700 0.3900 -6.4600
v 1232.7300 0.3900 -6.4600
v 1232.7300 0.3900 -6.3000
v 1232.2700 0.3900 -6.3000
v 1232.2700 0.7700 -6.4600
v 1232.7300 0.7700 -6.4600
v 1232.7300 0.7700 -6.3000
v 1232.2700 0.7700 -6.3000
v 1231.7500 0.3300 -0.3750
v 1233.2500 0.3300 -0.3750
v 1233.2500 0.3300 0.3750
v 1231.7500 0.3300 0.3750
v 1231.7500 0.3900 -0.3750
v 1233.2500 0.3900 -0.3750
v 1233.2500 0.3900 0.3750
v 1231.7500 0.3900 0.3750
v 1231.8100 0.0000 -0.3500
v 1231.8900 0.0000 -0.3500
v 1231.8900 0.0000 0.3500
v 1231.8100 0.0000 0.3500
v 1231.8100 0.3600 -0.3500
v 1231.8900 0.3600 -0.3500
v 1231.8900 0.3600 0.3500
v 1231.8100 0.3600 0.3500
v 1233.1100 0.0000 -0.3500
v 1233.1900 0.0000 -0.3500
v 1233.1900 0.0000 0.3500
v 1233.1100 0.0000 0.3500
v 1233.1100 0.3600 -0.3500
v 1233.1900 0.3600 -0.3500
v 1233.1900 0.3600 0.3500
v 1233.1100 0.3600 0.3500
v 1232.2700 0.3900 0.0400
v 1232.7300 0.3900 0.0400
v 1232.7300 0.3900 0.2000
v 1232.2700 0.3900 0.2000
v 1232.2700 0.7700 0.0400
v 1232.7300 0.7700 0.0400
v 1232.7300 0.7700 0.2000
v 1232.2700 0.7700 0.2000
v 1238.2500 0.3300 -0.3750
v 1239.7500 0.3300 -0.3750
v 1239.7500 0.3300 0.3750
v 1238.2500 0.3300 0.3750
v 1238.2500 0.3900 -0.3750
v 1239.7500 0.3900 -0.3750
v 1239.7500 0.3900 0.3750
v 1238.2500 0.3900 0.3750
v 1238.3100 0.0000 -0.3500
v 1238.3900 0.0000 -0.3500
v 1238.3900 0.0000 0.3500
v 1238.3100 0.0000 0.3500
v 1238.3100 0.3600 -0.3500
v 1238.3900 0.3600 -0.3500
v 1238.3900 0.3600 0.3500
v 1238.3100 0.3600 0.3500
v 1239.6100 0.0000 -0.3500
v 1239.6900 0.0000 -0.3500
v 1239.6900 0.0000 0.3500
v 1239.6100 0.0000 0.3500
v 1239.6100 0.3600 -0.3500
v 1239.6900 0.3600 -0.3500
v 1239.6900 0.3600 0.3500
v 1239.6100 0.3600 0.3500
v 1238.7700 0.3900 0.0400
v 1239.2300 0.3900 0.0400
v 1239.2300 0.3900 0.2000
v 1238.7700 0.3900 0.2000
v 1238.7700 0.7700 0.0400
v 1239.2300 0.7700 0.0400
v 1239.2300 0.7700 0.2000
v 1238.7700 0.7700 0.2000
v 1231.7500 0.3300 6.1250
v 1233.2500 0.3300 6.1250
v 1233.2500 0.3300 6.8750
v 1231.7500 0.3300 6.8750
v 1231.7500 0.3900 6.1250
v 1233.2500 0.3900 6.1250
v 1233.2500 0.3900 6.8750
v 1231.7500 0.3900 6.8750
v 1231.8100 0.0000 6.1500
v 1231.8900 0.0000 6.1500
v 1231.8900 0.0000 6.8500
v 1231.8100 0.0000 6.8500
v 1231.8100 0.3600 6.1500
v 1231.8900 0.3600 6.1500
v 1231.8900 0.3600 6.8500
v 1231.8100 0.3600 6.8500
v 1233.1100 0.0000 6.1500
v 1233.1900 0.0000 6.1500
v 1233.1900 0.0000 6.8500
v 1233.1100 0.0000 6.8500
v 1233.1100 0.3600 6.1500
v 1233.1900 0.3600 6.1500
v 1233.1900 0.3600 6.8500
v 1233.1100 0.3600 6.8500
v 1232.2700 0.3900 6.5400
v 1232.7300 0.3900 6.5400
v 1232.7300 0.3900 6.7000
v 1232.2700 0.3900 6.7000
v 1232.2700 0.7700 6.5400
v 1232.7300 0.7700 6.5400
v 1232.7300 0.7700 6.7000
v 1232.2700 0.7700 6.7000
v 1238.2500 0.3300 6.1250
v 1239.7500 0.3300 6.1250
v 1239.7500 0.3300 6.8750
v 1238.2500 0.3300 6.8750
v 1238.2500 0.3900 6.1250
v 1239.7500 0.3900 6.1250
v 1239.7500 0.3900 6.8750
v 1238.2500 0.3900 6.8750
v 1238.3100 0.0000 6.1500
v 1238.3900 0.0000 6.1500
v 1238.3900 0.0000 6.8500
v 1238.3100 0.0000 6.8500
v 1238.3100 0.3600 6.1500
v 1238.3900 0.3600 6.1500
v 1238.3900 0.3600 6.8500
v 1238.3100 0.3600 6.8500
v 1239.6100 0.0000 6.1500
v 1239.6900 0.0000 6.1500
v 1239.6900 0.0000 6.8500
v 1239.6100 0.0000 6.8500
v 1239.6100 0.3600 6.1500
v 1239.6900 0.3600 6.1500
v 1239.6900 0.3600 6.8500
v 1239.6100 0.3600 6.8500
v 1238.7700 0.3900 6.5400
v 1239.2300 0.3900 6.5400
v 1239.2300 0.3900 6.7000
v 1238.7700 0.3900 6.7000
v 1238.7700 0.7700 6.5400
v 1239.2300 0.7700 6.5400
v 1239.2300 0.7700 6.7000
v 1238.7700 0.7700 6.7000
v 1251.2500 0.3300 6.1250
v 1252.7500 0.3300 6.1250
v 1252.7500 0.3300 6.8750
v 1251.2500 0.3300 6.8750
v 1251.2500 0.3900 6.1250
v 1252.7500 0.3900 6.1250
v 1252.7500 0.3900 6.8750
v 1251.2500 0.3900 6.8750
v 1251.3100 0.0000 6.1500
v 1251.3900 0.0000 6.1500
v 1251.3900 0.0000 6.8500
v 1251.3100 0.0000 6.8500
v 1251.3100 0.3600 6.1500
v 1251.3900 0.3600 6.1500
v 1251.3900 0.3600 6.8500
v 1251.3100 0.3600 6.8500
v 1252.6100 0.0000 6.1500
v 1252.6900 0.0000 6.1500
v 1252.6900 0.0000 6.8500
v 1252.6100 0.0000 6.8500
v 1252.6100 0.3600 6.1500
v 1252.6900 0.3600 6.1500
v 1252.6900 0.3600 6.8500
v 1252.6100 0.3600 6.8500
v 1251.7700 0.3900 6.5400
v 1252.2300 0.3900 6.5400
v 1252.2300 0.3900 6.7000
v 1251.7700 0.3900 6.7000
v 1251.7700 0.7700 6.5400
v 1252.2300 0.7700 6.5400
v 1252.2300 0.7700 6.7000
v 1251.7700 0.7700 6.7000
v 1225.2500 0.3300 12.6250
v 1226.7500 0.3300 12.6250
v 1226.7500 0.3300 13.3750
v 1225.2500 0.3300 13.3750
v 1225.2500 0.3900 12.6250
v 1226.7500 0.3900 12.6250
v 1226.7500 0.3900 13.3750
v 1225.2500 0.3900 13.3750
v 1225.3100 0.0000 12.6500
v 1225.3900 0.0000 12.6500
v 1225.3900 0.0000 13.3500
v 1225.3100 0.0000 13.3500
v 1225.3100 0.3600 12.6500
v 1225.3900 0.3600 12.6500
v 1225.3900 0.3600 13.3500
v 1225.3100 0.3600 13.3500
v 1226.6100 0.0000 12.6500
v 1226.6900 0.0000 12.6500
v 1226.6900 0.0000 13.3500
v 1226.6100 0.0000 13.3500
v 1226.6100 0.3600 12.6500
v 1226.6900 0.3600 12.6500
v 1226.6900 0.3600 13.3500
v 1226.6100 0.3600 13.3500
v 1225.7700 0.3900 13.0400
v 1226.2300 0.3900 13.0400
v 1226.2300 0.3900 13.2000
v 1225.7700 0.3900 13.2000
v 1225.7700 0.7700 13.0400
v 1226.2300 0.7700 13.0400
v 1226.2300 0.7700 13.2000
v 1225.7700 0.7700 13.2000
v 1238.2500 0.3300 12.6250
v 1239.7500 0.3300 12.6250
v 1239.7500 0.3300 13.3750
v 1238.2500 0.3300 13.3750
v 1238.2500 0.3900 12.6250
v 1239.7500 0.3900 12.6250
v 1239.7500 0.3900 13.3750
v 1238.2500 0.3900 13.3750
v 1238.3100 0.0000 12.6500
v 1238.3900 0.0000 12.6500
v 1238.3900 0.0000 13.3500
v 1238.3100 0.0000 13.3500
v 1238.3100 0.3600 12.6500
v 1238.3900 0.3600 12.6500
v 1238.3900 0.3600 13.3500
v 1238.3100 0.3600 13.3500
v 1239.6100 0.0000 12.6500
v 1239.6900 0.0000 12.6500
v 1239.6900 0.0000 13.3500
v 1239.6100 0.0000 13.3500
v 1239.6100 0.3600 12.6500
v 1239.6900 0.3600 12.6500
v 1239.6900 0.3600 13.3500
v 1239.6100 0.3600 13.3500
v 1238.7700 0.3900 13.0400
v 1239.2300 0.3900 13.0400
v 1239.2300 0.3900 13.2000
v 1238.7700 0.3900 13.2000
v 1238.7700 0.7700 13.0400
v 1239.2300 0.7700 13.0400
v 1239.2300 0.7700 13.2000
v 1238.7700 0.7700 13.2000
v 1251.2500 0.3300 12.6250
v 1252.7500 0.3300 12.6250
v 1252.7500 0.3300 13.3750
v 1251.2500 0.3300 13.3750
v 1251.2500 0.3900 12.6250
v 1252.7500 0.3900 12.6250
v 1252.7500 0.3900 13.3750
v 1251.2500 0.3900 13.3750
v 1251.3100 0.0000 12.6500
v 1251.3900 0.0000 12.6500
v 1251.3900 0.0000 13.3500
v 1251.3100 0.0000 13.3500
v 1251.3100 0.3600 12.6500
v 1251.3900 0.3600 12.6500
v 1251.3900 0.3600 13.3500
v 1251.3100 0.3600 13.3500
v 1252.6100 0.0000 12.6500
v 1252.6900 0.0000 12.6500
v 1252.6900 0.0000 13.3500
v 1252.6100 0.0000 13.3500
v 1252.6100 0.3600 12.6500
v 1252.6900 0.3600 12.6500
v 1252.6900 0.3600 13.3500
v 1252.6100 0.3600 13.3500
v 1251.7700 0.3900 13.0400
v 1252.2300 0.3900 13.0400
v 1252.2300 0.3900 13.2000
v 1251.7700 0.3900 13.2000
v 1251.7700 0.7700 13.0400
v 1252.2300 0.7700 13.0400
v 1252.2300 0.7700 13.2000
v 1251.7700 0.7700 13.2000
v 1225.2500 0.3300 19.1250
v 1226.7500 0.3300 19.1250
v 1226.7500 0.3300 19.8750
v 1225.2500 0.3300 19.8750
v 1225.2500 0.3900 19.1250
v 1226.7500 0.3900 19.1250
v 1226.7500 0.3900 19.8750
v 1225.2500 0.3900 19.8750
v 1225.3100 0.0000 19.1500
v 1225.3900 0.0000 19.1500
v 1225.3900 0.0000 19.8500
v 1225.3100 0.0000 19.8500
v 1225.3100 0.3600 19.1500
v 1225.3900 0.3600 19.1500
v 1225.3900 0.3600 19.8500
v 1225.3100 0.3600 19.8500
v 1226.6100 0.0000 19.1500
v 1226.6900 0.0000 19.1500
v 1226.6900 0.0000 19.8500
v 1226.6100 0.0000 19.8500
v 1226.6100 0.3600 19.1500
v 1226.6900 0.3600 19.1500
v 1226.6900 0.3600 19.8500
v 1226.6100 0.3600 19.8500
v 1225.7700 0.3900 19.5400
v 1226.2300 0.3900 19.5400
v 1226.2300 0.3900 19.7000
v 1225.7700 0.3900 19.7000
v 1225.7700 0.7700 19.5400
v 1226.2300 0.7700 19.5400
v 1226.2300 0.7700 19.7000
v 1225.7700 0.7700 19.7000
v 1231.7500 0.3300 19.1250
v 1233.2500 0.3300 19.1250
v 1233.2500 0.3300 19.8750
v 1231.7500 0.3300 19.8750
v 1231.7500 0.3900 19.1250
v 1233.2500 0.3900 19.1250
v 1233.2500 0.3900 19.8750
v 1231.7500 0.3900 19.8750
v 1231.8100 0.0000 19.1500
v 1231.8900 0.0000 19.1500
v 1231.8900 0.0000 19.8500
v 1231.8100 0.0000 19.8500
v 1231.8100 0.3600 19.1500
v 1231.8900 0.3600 19.1500
v 1231.8900 0.3600 19.8500
v 1231.8100 0.3600 19.8500
v 1233.1100 0.0000 19.1500
v 1233.1900 0.0000 19.1500
v 1233.1900 0.0000 19.8500
v 1233.1100 0.0000 19.8500
v 1233.1100 0.3600 19.1500
v 1233.1900 0.3600 19.1500
v 1233.1900 0.3600 19.8500
v 1233.1100 0.3600 19.8500
v 1232.2700 0.3900 19.5400
v 1232.7300 0.3900 19.5400
v 1232.7300 0.3900 19.7000
v 1232.2700 0.3900 19.7000
v 1232.2700 0.7700 19.5400
v 1232.7300 0.7700 19.5400
v 1232.7300 0.7700 19.7000
v 1232.2700 0.7700 19.7000
v 1238.2500 0.3300 19.1250
v 1239.7500 0.3300 19.1250
v 1239.7500 0.3300 19.8750
v 1238.2500 0.3300 19.8750
v 1238.2500 0.3900 19.1250
v 1239.7500 0.3900 19.1250
v 1239.7500 0.3900 19.8750
v 1238.2500 0.3900 19.8750
v 1238.3100 0.0000 19.1500
v 1238.3900 0.0000 19.1500
v 1238.3900 0.0000 19.8500
v 1238.3100 0.0000 19.8500
v 1238.3100 0.3600 19.1500
v 1238.3900 0.3600 19.1500
v 1238.3900 0.3600 19.8500
v 1238.3100 0.3600 19.8500
v 1239.6100 0.0000 19.1500
v 1239.6900 0.0000 19.1500
v 1239.6900 0.0000 19.8500
v 1239.6100 0.0000 19.8500
v 1239.6100 0.3600 19.1500
v 1239.6900 0.3600 19.1500
v 1239.6900 0.3600 19.8500
v 1239.6100 0.3600 19.8500
v 1238.7700 0.3900 19.5400
v 1239.2300 0.3900 19.5400
v 1239.2300 0.3900 19.7000
v 1238.7700 0.3900 19.7000
v 1238.7700 0.7700 19.5400
v 1239.2300 0.7700 19.5400
v 1239.2300 0.7700 19.7000
v 1238.7700 0.7700 19.7000
v 1244.7500 0.3300 19.1250
v 1246.2500 0.3300 19.1250
v 1246.2500 0.3300 19.8750
v 1244.7500 0.3300 19.8750
v 1244.7500 0.3900 19.1250
v 1246.2500 0.3900 19.1250
v 1246.2500 0.3900 19.8750
v 1244.7500 0.3900 19.8750
v 1244.8100 0.0000 19.1500
v 1244.8900 0.0000 19.1500
v 1244.8900 0.0000 19.8500
v 1244.8100 0.0000 19.8500
v 1244.8100 0.3600 19.1500
v 1244.8900 0.3600 19.1500
v 1244.8900 0.3600 19.8500
v 1244.8100 0.3600 19.8500
v 1246.1100 0.0000 19.1500
v 1246.1900 0.0000 19.1500
v 1246.1900 0.0000 19.8500
v 1246.1100 0.0000 19.8500
v 1246.1100 0.3600 19.1500
v 1246.1900 0.3600 19.1500
v 1246.1900 0.3600 19.8500
v 1246.1100 0.3600 19.8500
v 1245.2700 0.3900 19.5400
v 1245.7300 0.3900 19.5400
v 1245.7300 0.3900 19.7000
v 1245.2700 0.3900 19.7000
v 1245.2700 0.7700 19.5400
v 1245.7300 0.7700 19.5400
v 1245.7300 0.7700 19.7000
v 1245.2700 0.7700 19.7000
v 1251.2500 0.3300 19.1250
v 1252.7500 0.3300 19.1250
v 1252.7500 0.3300 19.8750
v 1251.2500 0.3300 19.8750
v 1251.2500 0.3900 19.1250
v 1252.7500 0.3900 19.1250
v 1252.7500 0.3900 19.8750
v 1251.2500 0.3900 19.8750
v 1251.3100 0.0000 19.1500
v 1251.3900 0.0000 19.1500
v 1251.3900 0.0000 19.8500
v 1251.3100 0.0000 19.8500
v 1251.3100 0.3600 19.1500
v 1251.3900 0.3600 19.1500
v 1251.3900 0.3600 19.8500
v 1251.3100 0.3600 19.8500
v 1252.6100 0.0000 19.1500
v 1252.6900 0.0000 19.1500
v 1252.6900 0.0000 19.8500
v 1252.6100 0.0000 19.8500
v 1252.6100 0.3600 19.1500
v 1252.6900 0.3600 19.1500
v 1252.6900 0.3600 19.8500
v 1252.6100 0.3600 19.8500
v 1251.7700 0.3900 19.5400
v 1252.2300 0.3900 19.5400
v 1252.2300 0.3900 19.7000
v 1251.7700 0.3900 19.7000
v 1251.7700 0.7700 19.5400
v 1252.2300 0.7700 19.5400
v 1252.2300 0.7700 19.7000
v 1251.7700 0.7700 19.7000
vt 560.8864 -8.2045
vt 560.8864 -6.5682
vt 562.5227 -6.5682
vt 562.5227 -8.2045
vt 560.8864 -8.2045
vt 562.5227 -8.2045
vt 562.5227 -6.5682
vt 560.8864 -6.5682
vt 560.8864 0.0000
vt 562.5227 0.0000
vt 562.5227 1.4091
vt 560.8864 1.4091
vt 562.5227 0.0000
vt 560.8864 0.0000
vt 560.8864 1.4091
vt 562.5227 1.4091
vt -8.2045 0.0000
vt -6.5682 0.0000
vt -6.5682 1.4091
vt -8.2045 1.4091
vt -6.5682 0.0000
vt -8.2045 0.0000
vt -8.2045 1.4091
vt -6.5682 1.4091
vt 566.7955 -8.2045
vt 566.7955 -6.5682
vt 568.4318 -6.5682
vt 568.4318 -8.2045
vt 566.7955 -8.2045
vt 568.4318 -8.2045
vt 568.4318 -6.5682
vt 566.7955 -6.5682
vt 566.7955 0.0000
vt 568.4318 0.0000
vt 568.4318 1.4091
vt 566.7955 1.4091
vt 568.4318 0.0000
vt 566.7955 0.0000
vt 566.7955 1.4091
vt 568.4318 1.4091
vt -8.2045 0.0000
vt -6.5682 0.0000
vt -6.5682 1.4091
vt -8.2045 1.4091
vt -6.5682 0.0000
vt -8.2045 0.0000
vt -8.2045 1.4091
vt -6.5682 1.4091
vt 566.7955 -6.7273
vt 566.7955 -5.0909
vt 568.4318 -5.0909
vt 568.4318 -6.7273
vt 566.7955 -6.7273
vt 568.4318 -6.7273
vt 568.4318 -5.0909
vt 566.7955 -5.0909
vt 566.7955 0.0000
vt 568.4318 0.0000
vt 568.4318 1.4091
vt 566.7955 1.4091
vt 568.4318 0.0000
vt 566.7955 0.0000
vt 566.7955 1.4091
vt 568.4318 1.4091
vt -6.7273 0.0000
vt -5.0909 0.0000
vt -5.0909 1.4091
vt -6.7273 1.4091
vt -5.0909 0.0000
vt -6.7273 0.0000
vt -6.7273 1.4091
vt -5.0909 1.4091
vt 566.7955 -5.2500
vt 566.7955 -3.6136
vt 568.4318 -3.6136
vt 568.4318 -5.2500
vt 566.7955 -5.2500
vt 568.4318 -5.2500
vt 568.4318 -3.6136
vt 566.7955 -3.6136
vt 566.7955 0.0000
vt 568.4318 0.0000
vt 568.4318 1.4091
vt 566.7955 1.4091
vt 568.4318 0.0000
vt 566.7955 0.0000
vt 566.7955 1.4091
vt 568.4318 1.4091
vt -5.2500 0.0000
vt -3.6136 0.0000
vt -3.6136 1.4091
vt -5.2500 1.4091
vt -3.6136 0.0000
vt -5.2500 0.0000
vt -5.2500 1.4091
vt -3.6136 1.4091
vt 554.9773 -2.2955
vt 554.9773 -0.6591
vt 556.6136 -0.6591
vt 556.6136 -2.2955
vt 554.9773 -2.2955
vt 556.6136 -2.2955
vt 556.6136 -0.6591
vt 554.9773 -0.6591
vt 554.9773 0.0000
vt 556.6136 0.0000
vt 556.6136 1.4091
vt 554.9773 1.4091
vt 556.6136 0.0000
vt 554.9773 0.0000
vt 554.9773 1.4091
vt 556.6136 1.4091
vt -2.2955 0.0000
vt -0.6591 0.0000
vt -0.6591 1.4091
vt -2.2955 1.4091
vt -0.6591 0.0000
vt -2.2955 0.0000
vt -2.2955 1.4091
vt -0.6591 1.4091
vt 557.9318 -2.2955
vt 557.9318 -0.6591
vt 559.5682 -0.6591
vt 559.5682 -2.2955
vt 557.9318 -2.2955
vt 559.5682 -2.2955
vt 559.5682 -0.6591
vt 557.9318 -0.6591
vt 557.9318 0.0000
vt 559.5682 0.0000
vt 559.5682 1.4091
vt 557.9318 1.4091
vt 559.5682 0.0000
vt 557.9318 0.0000
vt 557.9318 1.4091
vt 559.5682 1.4091
vt -2.2955 0.0000
vt -0.6591 0.0000
vt -0.6591 1.4091
vt -2.2955 1.4091
vt -0.6591 0.0000
vt -2.2955 0.0000
vt -2.2955 1.4091
vt -0.6591 1.4091
vt 560.8864 -2.2955
vt 560.8864 -0.6591
vt 562.5227 -0.6591
vt 562.5227 -2.2955
vt 560.8864 -2.2955
vt 562.5227 -2.2955
vt 562.5227 -0.6591
vt 560.8864 -0.6591
vt 560.8864 0.0000
vt 562.5227 0.0000
vt 562.5227 1.4091
vt 560.8864 1.4091
vt 562.5227 0.0000
vt 560.8864 0.0000
vt 560.8864 1.4091
vt 562.5227 1.4091
vt -2.2955 0.0000
vt -0.6591 0.0000
vt -0.6591 1.4091
vt -2.2955 1.4091
vt -0.6591 0.0000
vt -2.2955 0.0000
vt -2.2955 1.4091
vt -0.6591 1.4091
vt 554.9773 0.6591
vt 554.9773 2.2955
vt 556.6136 2.2955
vt 556.6136 0.6591
vt 554.9773 0.6591
vt 556.6136 0.6591
vt 556.6136 2.2955
vt 554.9773 2.2955
vt 554.9773 0.0000
vt 556.6136 0.0000
vt 556.6136 1.4091
vt 554.9773 1.4091
vt 556.6136 0.0000
vt 554.9773 0.0000
vt 554.9773 1.4091
vt 556.6136 1.4091
vt 0.6591 0.0000
vt 2.2955 0.0000
vt 2.2955 1.4091
vt 0.6591 1.4091
vt 2.2955 0.0000
vt 0.6591 0.0000
vt 0.6591 1.4091
vt 2.2955 1.4091
vt 554.9773 5.0909
vt 554.9773 6.7273
vt 556.6136 6.7273
vt 556.6136 5.0909
vt 554.9773 5.0909
vt 556.6136 5.0909
vt 556.6136 6.7273
vt 554.9773 6.7273
vt 554.9773 0.0000
vt 556.6136 0.0000
vt 556.6136 1.4091
vt 554.9773 1.4091
vt 556.6136 0.0000
vt 554.9773 0.0000
vt 554.9773 1.4091
vt 556.6136 1.4091
vt 5.0909 0.0000
vt 6.7273 0.0000
vt 6.7273 1.4091
vt 5.0909 1.4091
vt 6.7273 0.0000
vt 5.0909 0.0000
vt 5.0909 1.4091
vt 6.7273 1.4091
vt 554.9773 6.5682
vt 554.9773 8.2045
vt 556.6136 8.2045
vt 556.6136 6.5682
vt 554.9773 6.5682
vt 556.6136 6.5682
vt 556.6136 8.2045
vt 554.9773 8.2045
vt 554.9773 0.0000
vt 556.6136 0.0000
vt 556.6136 1.4091
vt 554.9773 1.4091
vt 556.6136 0.0000
vt 554.9773 0.0000
vt 554.9773 1.4091
vt 556.6136 1.4091
vt 6.5682 0.0000
vt 8.2045 0.0000
vt 8.2045 1.4091
vt 6.5682 1.4091
vt 8.2045 0.0000
vt 6.5682 0.0000
vt 6.5682 1.4091
vt 8.2045 1.4091
vt 568.2727 6.5682
vt 568.2727 8.2045
vt 569.9091 8.2045
vt 569.9091 6.5682
vt 568.2727 6.5682
vt 569.9091 6.5682
vt 569.9091 8.2045
vt 568.2727 8.2045
vt 568.2727 0.0000
vt 569.9091 0.0000
vt 569.9091 1.4091
vt 568.2727 1.4091
vt 569.9091 0.0000
vt 568.2727 0.0000
vt 568.2727 1.4091
vt 569.9091 1.4091
vt 6.5682 0.0000
vt 8.2045 0.0000
vt 8.2045 1.4091
vt 6.5682 1.4091
vt 8.2045 0.0000
vt 6.5682 0.0000
vt 6.5682 1.4091
vt 8.2045 1.4091
vt 1009.4672 -10.9016
vt 1009.4672 -10.4098
vt 1011.0246 -10.4098
vt 1011.0246 -10.9016
vt 1009.4672 -10.9016
vt 1011.0246 -10.9016
vt 1011.0246 -10.4098
vt 1009.4672 -10.4098
vt 1009.4672 2.4672
vt 1011.0246 2.4672
vt 1011.0246 2.5328
vt 1009.4672 2.5328
vt 1011.0246 2.4672
vt 1009.4672 2.4672
vt 1009.4672 2.5328
vt 1011.0246 2.5328
vt -10.9016 2.4672
vt -10.4098 2.4672
vt -10.4098 2.5328
vt -10.9016 2.5328
vt -10.4098 2.4672
vt -10.9016 2.4672
vt -10.9016 2.5328
vt -10.4098 2.5328
vt 1014.7951 -10.9016
vt 1014.7951 -10.4098
vt 1016.3525 -10.4098
vt 1016.3525 -10.9016
vt 1014.7951 -10.9016
vt 1016.3525 -10.9016
vt 1016.3525 -10.4098
vt 1014.7951 -10.4098
vt 1014.7951 2.4672
vt 1016.3525 2.4672
vt 1016.3525 2.5328
vt 1014.7951 2.5328
vt 1016.3525 2.4672
vt 1014.7951 2.4672
vt 1014.7951 2.5328
vt 1016.3525 2.5328
vt -10.9016 2.4672
vt -10.4098 2.4672
vt -10.4098 2.5328
vt -10.9016 2.5328
vt -10.4098 2.4672
vt -10.9016 2.4672
vt -10.9016 2.5328
vt -10.4098 2.5328
vt 1025.4508 -10.9016
vt 1025.4508 -10.4098
vt 1027.0082 -10.4098
vt 1027.0082 -10.9016
vt 1025.4508 -10.9016
vt 1027.0082 -10.9016
vt 1027.0082 -10.4098
vt 1025.4508 -10.4098
vt 1025.4508 2.4672
vt 1027.0082 2.4672
vt 1027.0082 2.5328
vt 1025.4508 2.5328
vt 1027.0082 2.4672
vt 1025.4508 2.4672
vt 1025.4508 2.5328
vt 1027.0082 2.5328
vt -10.9016 2.4672
vt -10.4098 2.4672
vt -10.4098 2.5328
vt -10.9016 2.5328
vt -10.4098 2.4672
vt -10.9016 2.4672
vt -10.9016 2.5328
vt -10.4098 2.5328
vt 1004.1393 -5.5738
vt 1004.1393 -5.0820
vt 1005.6967 -5.0820
vt 1005.6967 -5.5738
vt 1004.1393 -5.5738
vt 1005.6967 -5.5738
vt 1005.6967 -5.0820
vt 1004.1393 -5.0820
vt 1004.1393 2.4672
vt 1005.6967 2.4672
vt 1005.6967 2.5328
vt 1004.1393 2.5328
vt 1005.6967 2.4672
vt 1004.1393 2.4672
vt 1004.1393 2.5328
vt 1005.6967 2.5328
vt -5.5738 2.4672
vt -5.0820 2.4672
vt -5.0820 2.5328
vt -5.5738 2.5328
vt -5.0820 2.4672
vt -5.5738 2.4672
vt -5.5738 2.5328
vt -5.0820 2.5328
vt 1009.4672 -5.5738
vt 1009.4672 -5.0820
vt 1011.0246 -5.0820
vt 1011.0246 -5.5738
vt 1009.4672 -5.5738
vt 1011.0246 -5.5738
vt 1011.0246 -5.0820
vt 1009.4672 -5.0820
vt 1009.4672 2.4672
vt 1011.0246 2.4672
vt 1011.0246 2.5328
vt 1009.4672 2.5328
vt 1011.0246 2.4672
vt 1009.4672 2.4672
vt 1009.4672 2.5328
vt 1011.0246 2.5328
vt -5.5738 2.4672
vt -5.0820 2.4672
vt -5.0820 2.5328
vt -5.5738 2.5328
vt -5.0820 2.4672
vt -5.5738 2.4672
vt -5.5738 2.5328
vt -5.0820 2.5328
vt 1020.1230 -5.5738
vt 1020.1230 -5.0820
vt 1021.6803 -5.0820
vt 1021.6803 -5.5738
vt 1020.1230 -5.5738
vt 1021.6803 -5.5738
vt 1021.6803 -5.0820
vt 1020.1230 -5.0820
vt 1020.1230 2.4672
vt 1021.6803 2.4672
vt 1021.6803 2.5328
vt 1020.1230 2.5328
vt 1021.6803 2.4672
vt 1020.1230 2.4672
vt 1020.1230 2.5328
vt 1021.6803 2.5328
vt -5.5738 2.4672
vt -5.0820 2.4672
vt -5.0820 2.5328
vt -5.5738 2.5328
vt -5.0820 2.4672
vt -5.5738 2.4672
vt -5.5738 2.5328
vt -5.0820 2.5328
vt 1025.4508 -5.5738
vt 1025.4508 -5.0820
vt 1027.0082 -5.0820
vt 1027.0082 -5.5738
vt 1025.4508 -5.5738
vt 1027.0082 -5.5738
vt 1027.0082 -5.0820
vt 1025.4508 -5.0820
vt 1025.4508 2.4672
vt 1027.0082 2.4672
vt 1027.0082 2.5328
vt 1025.4508 2.5328
vt 1027.0082 2.4672
vt 1025.4508 2.4672
vt 1025.4508 2.5328
vt 1027.0082 2.5328
vt -5.5738 2.4672
vt -5.0820 2.4672
vt -5.0820 2.5328
vt -5.5738 2.5328
vt -5.0820 2.4672
vt -5.5738 2.4672
vt -5.5738 2.5328
vt -5.0820 2.5328
vt 1004.1393 -0.2459
vt 1004.1393 0.2459
vt 1005.6967 0.2459
vt 1005.6967 -0.2459
vt 1004.1393 -0.2459
vt 1005.6967 -0.2459
vt 1005.6967 0.2459
vt 1004.1393 0.2459
vt 1004.1393 2.4672
vt 1005.6967 2.4672
vt 1005.6967 2.5328
vt 1004.1393 2.5328
vt 1005.6967 2.4672
vt 1004.1393 2.4672
vt 1004.1393 2.5328
vt 1005.6967 2.5328
vt -0.2459 2.4672
vt 0.2459 2.4672
vt 0.2459 2.5328
vt -0.2459 2.5328
vt 0.2459 2.4672
vt -0.2459 2.4672
vt -0.2459 2.5328
vt 0.2459 2.5328
vt 1025.4508 -0.2459
vt 1025.4508 0.2459
vt 1027.0082 0.2459
vt 1027.0082 -0.2459
vt 1025.4508 -0.2459
vt 1027.0082 -0.2459
vt 1027.0082 0.2459
vt 1025.4508 0.2459
vt 1025.4508 2.4672
vt 1027.0082 2.4672
vt 1027.0082 2.5328
vt 1025.4508 2.5328
vt 1027.0082 2.4672
vt 1025.4508 2.4672
vt 1025.4508 2.5328
vt 1027.0082 2.5328
vt -0.2459 2.4672
vt 0.2459 2.4672
vt 0.2459 2.5328
vt -0.2459 2.5328
vt 0.2459 2.4672
vt -0.2459 2.4672
vt -0.2459 2.5328
vt 0.2459 2.5328
vt 1004.1393 5.0820
vt 1004.1393 5.5738
vt 1005.6967 5.5738
vt 1005.6967 5.0820
vt 1004.1393 5.0820
vt 1005.6967 5.0820
vt 1005.6967 5.5738
vt 1004.1393 5.5738
vt 1004.1393 2.4672
vt 1005.6967 2.4672
vt 1005.6967 2.5328
vt 1004.1393 2.5328
vt 1005.6967 2.4672
vt 1004.1393 2.4672
vt 1004.1393 2.5328
vt 1005.6967 2.5328
vt 5.0820 2.4672
vt 5.5738 2.4672
vt 5.5738 2.5328
vt 5.0820 2.5328
vt 5.5738 2.4672
vt 5.0820 2.4672
vt 5.0820 2.5328
vt 5.5738 2.5328
vt 1009.4672 5.0820
vt 1009.4672 5.5738
vt 1011.0246 5.5738
vt 1011.0246 5.0820
vt 1009.4672 5.0820
vt 1011.0246 5.0820
vt 1011.0246 5.5738
vt 1009.4672 5.5738
vt 1009.4672 2.4672
vt 1011.0246 2.4672
vt 1011.0246 2.5328
vt 1009.4672 2.5328
vt 1011.0246 2.4672
vt 1009.4672 2.4672
vt 1009.4672 2.5328
vt 1011.0246 2.5328
vt 5.0820 2.4672
vt 5.5738 2.4672
vt 5.5738 2.5328
vt 5.0820 2.5328
vt 5.5738 2.4672
vt 5.0820 2.4672
vt 5.0820 2.5328
vt 5.5738 2.5328
vt 1014.7951 5.0820
vt 1014.7951 5.5738
vt 1016.3525 5.5738
vt 1016.3525 5.0820
vt 1014.7951 5.0820
vt 1016.3525 5.0820
vt 1016.3525 5.5738
vt 1014.7951 5.5738
vt 1014.7951 2.4672
vt 1016.3525 2.4672
vt 1016.3525 2.5328
vt 1014.7951 2.5328
vt 1016.3525 2.4672
vt 1014.7951 2.4672
vt 1014.7951 2.5328
vt 1016.3525 2.5328
vt 5.0820 2.4672
vt 5.5738 2.4672
vt 5.5738 2.5328
vt 5.0820 2.5328
vt 5.5738 2.4672
vt 5.0820 2.4672
vt 5.0820 2.5328
vt 5.5738 2.5328
vt 1004.1393 10.4098
vt 1004.1393 10.9016
vt 1005.6967 10.9016
vt 1005.6967 10.4098
vt 1004.1393 10.4098
vt 1005.6967 10.4098
vt 1005.6967 10.9016
vt 1004.1393 10.9016
vt 1004.1393 2.4672
vt 1005.6967 2.4672
vt 1005.6967 2.5328
vt 1004.1393 2.5328
vt 1005.6967 2.4672
vt 1004.1393 2.4672
vt 1004.1393 2.5328
vt 1005.6967 2.5328
vt 10.4098 2.4672
vt 10.9016 2.4672
vt 10.9016 2.5328
vt 10.4098 2.5328
vt 10.9016 2.4672
vt 10.4098 2.4672
vt 10.4098 2.5328
vt 10.9016 2.5328
vt 1014.7951 10.4098
vt 1014.7951 10.9016
vt 1016.3525 10.9016
vt 1016.3525 10.4098
vt 1014.7951 10.4098
vt 1016.3525 10.4098
vt 1016.3525 10.9016
vt 1014.7951 10.9016
vt 1014.7951 2.4672
vt 1016.3525 2.4672
vt 1016.3525 2.5328
vt 1014.7951 2.5328
vt 1016.3525 2.4672
vt 1014.7951 2.4672
vt 1014.7951 2.5328
vt 1016.3525 2.5328
vt 10.4098 2.4672
vt 10.9016 2.4672
vt 10.9016 2.5328
vt 10.4098 2.5328
vt 10.9016 2.4672
vt 10.4098 2.4672
vt 10.4098 2.5328
vt 10.9016 2.5328
vt 1020.1230 10.4098
vt 1020.1230 10.9016
vt 1021.6803 10.9016
vt 1021.6803 10.4098
vt 1020.1230 10.4098
vt 1021.6803 10.4098
vt 1021.6803 10.9016
vt 1020.1230 10.9016
vt 1020.1230 2.4672
vt 1021.6803 2.4672
vt 1021.6803 2.5328
vt 1020.1230 2.5328
vt 1021.6803 2.4672
vt 1020.1230 2.4672
vt 1020.1230 2.5328
vt 1021.6803 2.5328
vt 10.4098 2.4672
vt 10.9016 2.4672
vt 10.9016 2.5328
vt 10.4098 2.5328
vt 10.9016 2.4672
vt 10.4098 2.4672
vt 10.4098 2.5328
vt 10.9016 2.5328
vt 1025.4508 10.4098
vt 1025.4508 10.9016
vt 1027.0082 10.9016
vt 1027.0082 10.4098
vt 1025.4508 10.4098
vt 1027.0082 10.4098
vt 1027.0082 10.9016
vt 1025.4508 10.9016
vt 1025.4508 2.4672
vt 1027.0082 2.4672
vt 1027.0082 2.5328
vt 1025.4508 2.5328
vt 1027.0082 2.4672
vt 1025.4508 2.4672
vt 1025.4508 2.5328
vt 1027.0082 2.5328
vt 10.4098 2.4672
vt 10.9016 2.4672
vt 10.9016 2.5328
vt 10.4098 2.5328
vt 10.9016 2.4672
vt 10.4098 2.4672
vt 10.4098 2.5328
vt 10.9016 2.5328
vt 1009.4672 15.7377
vt 1009.4672 16.2295
vt 1011.0246 16.2295
vt 1011.0246 15.7377
vt 1009.4672 15.7377
vt 1011.0246 15.7377
vt 1011.0246 16.2295
vt 1009.4672 16.2295
vt 1009.4672 2.4672
vt 1011.0246 2.4672
vt 1011.0246 2.5328
vt 1009.4672 2.5328
vt 1011.0246 2.4672
vt 1009.4672 2.4672
vt 1009.4672 2.5328
vt 1011.0246 2.5328
vt 15.7377 2.4672
vt 16.2295 2.4672
vt 16.2295 2.5328
vt 15.7377 2.5328
vt 16.2295 2.4672
vt 15.7377 2.4672
vt 15.7377 2.5328
vt 16.2295 2.5328
vt 1014.7951 15.7377
vt 1014.7951 16.2295
vt 1016.3525 16.2295
vt 1016.3525 15.7377
vt 1014.7951 15.7377
vt 1016.3525 15.7377
vt 1016.3525 16.2295
vt 1014.7951 16.2295
vt 1014.7951 2.4672
vt 1016.3525 2.4672
vt 1016.3525 2.5328
vt 1014.7951 2.5328
vt 1016.3525 2.4672
vt 1014.7951 2.4672
vt 1014.7951 2.5328
vt 1016.3525 2.5328
vt 15.7377 2.4672
vt 16.2295 2.4672
vt 16.2295 2.5328
vt 15.7377 2.5328
vt 16.2295 2.4672
vt 15.7377 2.4672
vt 15.7377 2.5328
vt 16.2295 2.5328
vt 1020.1230 15.7377
vt 1020.1230 16.2295
vt 1021.6803 16.2295
vt 1021.6803 15.7377
vt 1020.1230 15.7377
vt 1021.6803 15.7377
vt 1021.6803 16.2295
vt 1020.1230 16.2295
vt 1020.1230 2.4672
vt 1021.6803 2.4672
vt 1021.6803 2.5328
vt 1020.1230 2.5328
vt 1021.6803 2.4672
vt 1020.1230 2.4672
vt 1020.1230 2.5328
vt 1021.6803 2.5328
vt 15.7377 2.4672
vt 16.2295 2.4672
vt 16.2295 2.5328
vt 15.7377 2.5328
vt 16.2295 2.4672
vt 15.7377 2.4672
vt 15.7377 2.5328
vt 16.2295 2.5328
usemtl cubicle
f 25 28 27 26
f 29 30 31 32
f 25 26 30 29
f 27 28 32 31
f 26 27 31 30
f 28 25 29 32
f 81 84 83 82
f 85 86 87 88
f 81 82 86 85
f 83 84 88 87
f 82 83 87 86
f 84 81 85 88
f 89 92 91 90
f 93 94 95 96
f 89 90 94 93
f 91 92 96 95
f 90 91 95 94
f 92 89 93 96
f 145 148 147 146
f 149 150 151 152
f 145 146 150 149
f 147 148 152 151
f 146 147 151 150
f 148 145 149 152
f 225 228 227 226
f 229 230 231 232
f 225 226 230 229
f 227 228 232 231
f 226 227 231 230
f 228 225 229 232
f 233 236 235 234
f 237 238 239 240
f 233 234 238 237
f 235 236 240 239
f 234 235 239 238
f 236 233 237 240
f 241 244 243 242
f 245 246 247 248
f 241 242 246 245
f 243 244 248 247
f 242 243 247 246
f 244 241 245 248
f 297 300 299 298
f 301 302 303 304
f 297 298 302 301
f 299 300 304 303
f 298 299 303 302
f 300 297 301 304
f 305 308 307 306
f 309 310 311 312
f 305 306 310 309
f 307 308 312 311
f 306 307 311 310
f 308 305 309 312
f 313 316 315 314
f 317 318 319 320
f 313 314 318 317
f 315 316 320 319
f 314 315 319 318
f 316 313 317 320
usemtl fluorescent
f 345 348 347 346
f 349 350 351 352
f 345 346 350 349
f 347 348 352 351
f 346 347 351 350
f 348 345 349 352
f 377 380 379 378
f 381 382 383 384
f 377 378 382 381
f 379 380 384 383
f 378 379 383 382
f 380 377 381 384
f 409 412 411 410
f 413 414 415 416
f 409 410 414 413
f 411 412 416 415
f 410 411 415 414
f 412 409 413 416
f 441 444 443 442
f 445 446 447 448
f 441 442 446 445
f 443 444 448 447
f 442 443 447 446
f 444 441 445 448
f 473 476 475 474
f 477 478 479 480
f 473 474 478 477
f 475 476 480 479
f 474 475 479 478
f 476 473 477 480
f 505 508 507 506
f 509 510 511 512
f 505 506 510 509
f 507 508 512 511
f 506 507 511 510
f 508 505 509 512
f 537 540 539 538
f 541 542 543 544
f 537 538 542 541
f 539 540 544 543
f 538 539 543 542
f 540 537 541 544
f 569 572 571 570
f 573 574 575 576
f 569 570 574 573
f 571 572 576 575
f 570 571 575 574
f 572 569 573 576
f 601 604 603 602
f 605 606 607 608
f 601 602 606 605
f 603 604 608 607
f 602 603 607 606
f 604 601 605 608
f 633 636 635 634
f 637 638 639 640
f 633 634 638 637
f 635 636 640 639
f 634 635 639 638
f 636 633 637 640
f 665 668 667 666
f 669 670 671 672
f 665 666 670 669
f 667 668 672 671
f 666 667 671 670
f 668 665 669 672
f 697 700 699 698
f 701 702 703 704
f 697 698 702 701
f 699 700 704 703
f 698 699 703 702
f 700 697 701 704
f 729 732 731 730
f 733 734 735 736
f 729 730 734 733
f 731 732 736 735
f 730 731 735 734
f 732 729 733 736
f 761 764 763 762
f 765 766 767 768
f 761 762 766 765
f 763 764 768 767
f 762 763 767 766
f 764 761 765 768
f 793 796 795 794
f 797 798 799 800
f 793 794 798 797
f 795 796 800 799
f 794 795 799 798
f 796 793 797 800
f 825 828 827 826
f 829 830 831 832
f 825 826 830 829
f 827 828 832 831
f 826 827 831 830
f 828 825 829 832
f 857 860 859 858
f 861 862 863 864
f 857 858 862 861
f 859 860 864 863
f 858 859 863 862
f 860 857 861 864
f 889 892 891 890
f 893 894 895 896
f 889 890 894 893
f 891 892 896 895
f 890 891 895 894
f 892 889 893 896
f 921 924 923 922
f 925 926 927 928
f 921 922 926 925
f 923 924 928 927
f 922 923 927 926
f 924 921 925 928
usemtl desk
f 953 956 955 954
f 957 958 959 960
f 953 954 958 957
f 955 956 960 959
f 954 955 959 958
f 956 953 957 960
f 961 964 963 962
f 965 966 967 968
f 961 962 966 965
f 963 964 968 967
f 962 963 967 966
f 964 961 965 968
f 969 972 971 970
f 973 974 975 976
f 969 970 974 973
f 971 972 976 975
f 970 971 975 974
f 972 969 973 976
usemtl monitor
f 977 980 979 978
f 981 982 983 984
f 977 978 982 981
f 979 980 984 983
f 978 979 983 982
f 980 977 981 984
usemtl desk
f 985 988 987 986
f 989 990 991 992
f 985 986 990 989
f 987 988 992 991
f 986 987 991 990
f 988 985 989 992
f 993 996 995 994
f 997 998 999 1000
f 993 994 998 997
f 995 996 1000 999
f 994 995 999 998
f 996 993 997 1000
f 1001 1004 1003 1002
f 1005 1006 1007 1008
f 1001 1002 1006 1005
f 1003 1004 1008 1007
f 1002 1003 1007 1006
f 1004 1001 1005 1008
usemtl monitor
f 1009 1012 1011 1010
f 1013 1014 1015 1016
f 1009 1010 1014 1013
f 1011 1012 1016 1015
f 1010 1011 1015 1014
f 1012 1009 1013 1016
usemtl desk
f 1017 1020 1019 1018
f 1021 1022 1023 1024
f 1017 1018 1022 1021
f 1019 1020 1024 1023
f 1018 1019 1023 1022
f 1020 1017 1021 1024
f 1025 1028 1027 1026
f 1029 1030 1031 1032
f 1025 1026 1030 1029
f 1027 1028 1032 1031
f 1026 1027 1031 1030
f 1028 1025 1029 1032
f 1033 1036 1035 1034
f 1037 1038 1039 1040
f 1033 1034 1038 1037
f 1035 1036 1040 1039
f 1034 1035 1039 1038
f 1036 1033 1037 1040
usemtl monitor
f 1041 1044 1043 1042
f 1045 1046 1047 1048
f 1041 1042 1046 1045
f 1043 1044 1048 1047
f 1042 1043 1047 1046
f 1044 1041 1045 1048
usemtl desk
f 1049 1052 1051 1050
f 1053 1054 1055 1056
f 1049 1050 1054 1053
f 1051 1052 1056 1055
f 1050 1051 1055 1054
f 1052 1049 1053 1056
f 1057 1060 1059 1058
f 1061 1062 1063 1064
f 1057 1058 1062 1061
f 1059 1060 1064 1063
f 1058 1059 1063 1062
f 1060 1057 1061 1064
f 1065 1068 1067 1066
f 1069 1070 1071 1072
f 1065 1066 1070 1069
f 1067 1068 1072 1071
f 1066 1067 1071 1070
f 1068 1065 1069 1072
usemtl monitor
f 1073 1076 1075 1074
f 1077 1078 1079 1080
f 1073 1074 1078 1077
f 1075 1076 1080 1079
f 1074 1075 1079 1078
f 1076 1073 1077 1080
usemtl desk
f 1081 1084 1083 1082
f 1085 1086 1087 1088
f 1081 1082 1086 1085
f 1083 1084 1088 1087
f 1082 1083 1087 1086
f 1084 1081 1085 1088
f 1089 1092 1091 1090
f 1093 1094 1095 1096
f 1089 1090 1094 1093
f 1091 1092 1096 1095
f 1090 1091 1095 1094
f 1092 1089 1093 1096
f 1097 1100 1099 1098
f 1101 1102 1103 1104
f 1097 1098 1102 1101
f 1099 1100 1104 1103
f 1098 1099 1103 1102
f 1100 1097 1101 1104
usemtl monitor
f 1105 1108 1107 1106
f 1109 1110 1111 1112
f 1105 1106 1110 1109
f 1107 1108 1112 1111
f 1106 1107 1111 1110
f 1108 1105 1109 1112
usemtl desk
f 1113 1116 1115 1114
f 1117 1118 1119 1120
f 1113 1114 1118 1117
f 1115 1116 1120 1119
f 1114 1115 1119 1118
f 1116 1113 1117 1120
f 1121 1124 1123 1122
f 1125 1126 1127 1128
f 1121 1122 1126 1125
f 1123 1124 1128 1127
f 1122 1123 1127 1126
f 1124 1121 1125 1128
f 1129 1132 1131 1130
f 1133 1134 1135 1136
f 1129 1130 1134 1133
f 1131 1132 1136 1135
f 1130 1131 1135 1134
f 1132 1129 1133 1136
usemtl monitor
f 1137 1140 1139 1138
f 1141 1142 1143 1144
f 1137 1138 1142 1141
f 1139 1140 1144 1143
f 1138 1139 1143 1142
f 1140 1137 1141 1144
usemtl desk
f 1145 1148 1147 1146
f 1149 1150 1151 1152
f 1145 1146 1150 1149
f 1147 1148 1152 1151
f 1146 1147 1151 1150
f 1148 1145 1149 1152
f 1153 1156 1155 1154
f 1157 1158 1159 1160
f 1153 1154 1158 1157
f 1155 1156 1160 1159
f 1154 1155 1159 1158
f 1156 1153 1157 1160
f 1161 1164 1163 1162
f 1165 1166 1167 1168
f 1161 1162 1166 1165
f 1163 1164 1168 1167
f 1162 1163 1167 1166
f 1164 1161 1165 1168
usemtl monitor
f 1169 1172 1171 1170
f 1173 1174 1175 1176
f 1169 1170 1174 1173
f 1171 1172 1176 1175
f 1170 1171 1175 1174
f 1172 1169 1173 1176
usemtl desk
f 1177 1180 1179 1178
f 1181 1182 1183 1184
f 1177 1178 1182 1181
f 1179 1180 1184 1183
f 1178 1179 1183 1182
f 1180 1177 1181 1184
f 1185 1188 1187 1186
f 1189 1190 1191 1192
f 1185 1186 1190 1189
f 1187 1188 1192 1191
f 1186 1187 1191 1190
f 1188 1185 1189 1192
f 1193 1196 1195 1194
f 1197 1198 1199 1200
f 1193 1194 1198 1197
f 1195 1196 1200 1199
f 1194 1195 1199 1198
f 1196 1193 1197 1200
usemtl monitor
f 1201 1204 1203 1202
f 1205 1206 1207 1208
f 1201 1202 1206 1205
f 1203 1204 1208 1207
f 1202 1203 1207 1206
f 1204 1201 1205 1208
usemtl desk
f 1209 1212 1211 1210
f 1213 1214 1215 1216
f 1209 1210 1214 1213
f 1211 1212 1216 1215
f 1210 1211 1215 1214
f 1212 1209 1213 1216
f 1217 1220 1219 1218
f 1221 1222 1223 1224
f 1217 1218 1222 1221
f 1219 1220 1224 1223
f 1218 1219 1223 1222
f 1220 1217 1221 1224
f 1225 1228 1227 1226
f 1229 1230 1231 1232
f 1225 1226 1230 1229
f 1227 1228 1232 1231
f 1226 1227 1231 1230
f 1228 1225 1229 1232
usemtl monitor
f 1233 1236 1235 1234
f 1237 1238 1239 1240
f 1233 1234 1238 1237
f 1235 1236 1240 1239
f 1234 1235 1239 1238
f 1236 1233 1237 1240
usemtl desk
f 1241 1244 1243 1242
f 1245 1246 1247 1248
f 1241 1242 1246 1245
f 1243 1244 1248 1247
f 1242 1243 1247 1246
f 1244 1241 1245 1248
f 1249 1252 1251 1250
f 1253 1254 1255 1256
f 1249 1250 1254 1253
f 1251 1252 1256 1255
f 1250 1251 1255 1254
f 1252 1249 1253 1256
f 1257 1260 1259 1258
f 1261 1262 1263 1264
f 1257 1258 1262 1261
f 1259 1260 1264 1263
f 1258 1259 1263 1262
f 1260 1257 1261 1264
usemtl monitor
f 1265 1268 1267 1266
f 1269 1270 1271 1272
f 1265 1266 1270 1269
f 1267 1268 1272 1271
f 1266 1267 1271 1270
f 1268 1265 1269 1272
usemtl desk
f 1273 1276 1275 1274
f 1277 1278 1279 1280
f 1273 1274 1278 1277
f 1275 1276 1280 1279
f 1274 1275 1279 1278
f 1276 1273 1277 1280
f 1281 1284 1283 1282
f 1285 1286 1287 1288
f 1281 1282 1286 1285
f 1283 1284 1288 1287
f 1282 1283 1287 1286
f 1284 1281 1285 1288
f 1289 1292 1291 1290
f 1293 1294 1295 1296
f 1289 1290 1294 1293
f 1291 1292 1296 1295
f 1290 1291 1295 1294
f 1292 1289 1293 1296
usemtl monitor
f 1297 1300 1299 1298
f 1301 1302 1303 1304
f 1297 1298 1302 1301
f 1299 1300 1304 1303
f 1298 1299 1303 1302
f 1300 1297 1301 1304
usemtl desk
f 1305 1308 1307 1306
f 1309 1310 1311 1312
f 1305 1306 1310 1309
f 1307 1308 1312 1311
f 1306 1307 1311 1310
f 1308 1305 1309 1312
f 1313 1316 1315 1314
f 1317 1318 1319 1320
f 1313 1314 1318 1317
f 1315 1316 1320 1319
f 1314 1315 1319 1318
f 1316 1313 1317 1320
f 1321 1324 1323 1322
f 1325 1326 1327 1328
f 1321 1322 1326 1325
f 1323 1324 1328 1327
f 1322 1323 1327 1326
f 1324 1321 1325 1328
usemtl monitor
f 1329 1332 1331 1330
f 1333 1334 1335 1336
f 1329 1330 1334 1333
f 1331 1332 1336 1335
f 1330 1331 1335 1334
f 1332 1329 1333 1336
usemtl desk
f 1337 1340 1339 1338
f 1341 1342 1343 1344
f 1337 1338 1342 1341
f 1339 1340 1344 1343
f 1338 1339 1343 1342
f 1340 1337 1341 1344
f 1345 1348 1347 1346
f 1349 1350 1351 1352
f 1345 1346 1350 1349
f 1347 1348 1352 1351
f 1346 1347 1351 1350
f 1348 1345 1349 1352
f 1353 1356 1355 1354
f 1357 1358 1359 1360
f 1353 1354 1358 1357
f 1355 1356 1360 1359
f 1354 1355 1359 1358
f 1356 1353 1357 1360
usemtl monitor
f 1361 1364 1363 1362
f 1365 1366 1367 1368
f 1361 1362 1366 1365
f 1363 1364 1368 1367
f 1362 1363 1367 1366
f 1364 1361 1365 1368
usemtl desk
f 1369 1372 1371 1370
f 1373 1374 1375 1376
f 1369 1370 1374 1373
f 1371 1372 1376 1375
f 1370 1371 1375 1374
f 1372 1369 1373 1376
f 1377 1380 1379 1378
f 1381 1382 1383 1384
f 1377 1378 1382 1381
f 1379 1380 1384 1383
f 1378 1379 1383 1382
f 1380 1377 1381 1384
f 1385 1388 1387 1386
f 1389 1390 1391 1392
f 1385 1386 1390 1389
f 1387 1388 1392 1391
f 1386 1387 1391 1390
f 1388 1385 1389 1392
usemtl monitor
f 1393 1396 1395 1394
f 1397 1398 1399 1400
f 1393 1394 1398 1397
f 1395 1396 1400 1399
f 1394 1395 1399 1398
f 1396 1393 1397 1400
usemtl desk
f 1401 1404 1403 1402
f 1405 1406 1407 1408
f 1401 1402 1406 1405
f 1403 1404 1408 1407
f 1402 1403 1407 1406
f 1404 1401 1405 1408
f 1409 1412 1411 1410
f 1413 1414 1415 1416
f 1409 1410 1414 1413
f 1411 1412 1416 1415
f 1410 1411 1415 1414
f 1412 1409 1413 1416
f 1417 1420 1419 1418
f 1421 1422 1423 1424
f 1417 1418 1422 1421
f 1419 1420 1424 1423
f 1418 1419 1423 1422
f 1420 1417 1421 1424
usemtl monitor
f 1425 1428 1427 1426
f 1429 1430 1431 1432
f 1425 1426 1430 1429
f 1427 1428 1432 1431
f 1426 1427 1431 1430
f 1428 1425 1429 1432
usemtl desk
f 1433 1436 1435 1434
f 1437 1438 1439 1440
f 1433 1434 1438 1437
f 1435 1436 1440 1439
f 1434 1435 1439 1438
f 1436 1433 1437 1440
f 1441 1444 1443 1442
f 1445 1446 1447 1448
f 1441 1442 1446 1445
f 1443 1444 1448 1447
f 1442 1443 1447 1446
f 1444 1441 1445 1448
f 1449 1452 1451 1450
f 1453 1454 1455 1456
f 1449 1450 1454 1453
f 1451 1452 1456 1455
f 1450 1451 1455 1454
f 1452 1449 1453 1456
usemtl monitor
f 1457 1460 1459 1458
f 1461 1462 1463 1464
f 1457 1458 1462 1461
f 1459 1460 1464 1463
f 1458 1459 1463 1462
f 1460 1457 1461 1464
usemtl office_wall
f 1/1 2/2 3/3 4/4
f 5/5 6/6 7/7 8/8
f 9/9 10/10 11/11 12/12
f 13/13 14/14 15/15 16/16
f 17/17 18/18 19/19 20/20
f 21/21 22/22 23/23 24/24
f 33/25 34/26 35/27 36/28
f 37/29 38/30 39/31 40/32
f 41/33 42/34 43/35 44/36
f 45/37 46/38 47/39 48/40
f 49/41 50/42 51/43 52/44
f 53/45 54/46 55/47 56/48
f 57/49 58/50 59/51 60/52
f 61/53 62/54 63/55 64/56
f 65/57 66/58 67/59 68/60
f 69/61 70/62 71/63 72/64
f 73/65 74/66 75/67 76/68
f 77/69 78/70 79/71 80/72
f 97/73 98/74 99/75 100/76
f 101/77 102/78 103/79 104/80
f 105/81 106/82 107/83 108/84
f 109/85 110/86 111/87 112/88
f 113/89 114/90 115/91 116/92
f 117/93 118/94 119/95 120/96
f 121/97 122/98 123/99 124/100
f 125/101 126/102 127/103 128/104
f 129/105 130/106 131/107 132/108
f 133/109 134/110 135/111 136/112
f 137/113 138/114 139/115 140/116
f 141/117 142/118 143/119 144/120
f 153/121 154/122 155/123 156/124
f 157/125 158/126 159/127 160/128
f 161/129 162/130 163/131 164/132
f 165/133 166/134 167/135 168/136
f 169/137 170/138 171/139 172/140
f 173/141 174/142 175/143 176/144
f 177/145 178/146 179/147 180/148
f 181/149 182/150 183/151 184/152
f 185/153 186/154 187/155 188/156
f 189/157 190/158 191/159 192/160
f 193/161 194/162 195/163 196/164
f 197/165 198/166 199/167 200/168
f 201/169 202/170 203/171 204/172
f 205/173 206/174 207/175 208/176
f 209/177 210/178 211/179 212/180
f 213/181 214/182 215/183 216/184
f 217/185 218/186 219/187 220/188
f 221/189 222/190 223/191 224/192
f 249/193 250/194 251/195 252/196
f 253/197 254/198 255/199 256/200
f 257/201 258/202 259/203 260/204
f 261/205 262/206 263/207 264/208
f 265/209 266/210 267/211 268/212
f 269/213 270/214 271/215 272/216
f 273/217 274/218 275/219 276/220
f 277/221 278/222 279/223 280/224
f 281/225 282/226 283/227 284/228
f 285/229 286/230 287/231 288/232
f 289/233 290/234 291/235 292/236
f 293/237 294/238 295/239 296/240
f 321/241 322/242 323/243 324/244
f 325/245 326/246 327/247 328/248
f 329/249 330/250 331/251 332/252
f 333/253 334/254 335/255 336/256
f 337/257 338/258 339/259 340/260
f 341/261 342/262 343/263 344/264
usemtl ceiling_tile
f 353/265 354/266 355/267 356/268
f 357/269 358/270 359/271 360/272
f 361/273 362/274 363/275 364/276
f 365/277 366/278 367/279 368/280
f 369/281 370/282 371/283 372/284
f 373/285 374/286 375/287 376/288
f 385/289 386/290 387/291 388/292
f 389/293 390/294 391/295 392/296
f 393/297 394/298 395/299 396/300
f 397/301 398/302 399/303 400/304
f 401/305 402/306 403/307 404/308
f 405/309 406/310 407/311 408/312
f 417/313 418/314 419/315 420/316
f 421/317 422/318 423/319 424/320
f 425/321 426/322 427/323 428/324
f 429/325 430/326 431/327 432/328
f 433/329 434/330 435/331 436/332
f 437/333 438/334 439/335 440/336
f 449/337 450/338 451/339 452/340
f 453/341 454/342 455/343 456/344
f 457/345 458/346 459/347 460/348
f 461/349 462/350 463/351 464/352
f 465/353 466/354 467/355 468/356
f 469/357 470/358 471/359 472/360
f 481/361 482/362 483/363 484/364
f 485/365 486/366 487/367 488/368
f 489/369 490/370 491/371 492/372
f 493/373 494/374 495/375 496/376
f 497/377 498/378 499/379 500/380
f 501/381 502/382 503/383 504/384
f 513/385 514/386 515/387 516/388
f 517/389 518/390 519/391 520/392
f 521/393 522/394 523/395 524/396
f 525/397 526/398 527/399 528/400
f 529/401 530/402 531/403 532/404
f 533/405 534/406 535/407 536/408
f 545/409 546/410 547/411 548/412
f 549/413 550/414 551/415 552/416
f 553/417 554/418 555/419 556/420
f 557/421 558/422 559/423 560/424
f 561/425 562/426 563/427 564/428
f 565/429 566/430 567/431 568/432
f 577/433 578/434 579/435 580/436
f 581/437 582/438 583/439 584/440
f 585/441 586/442 587/443 588/444
f 589/445 590/446 591/447 592/448
f 593/449 594/450 595/451 596/452
f 597/453 598/454 599/455 600/456
f 609/457 610/458 611/459 612/460
f 613/461 614/462 615/463 616/464
f 617/465 618/466 619/467 620/468
f 621/469 622/470 623/471 624/472
f 625/473 626/474 627/475 628/476
f 629/477 630/478 631/479 632/480
f 641/481 642/482 643/483 644/484
f 645/485 646/486 647/487 648/488
f 649/489 650/490 651/491 652/492
f 653/493 654/494 655/495 656/496
f 657/497 658/498 659/499 660/500
f 661/501 662/502 663/503 664/504
f 673/505 674/506 675/507 676/508
f 677/509 678/510 679/511 680/512
f 681/513 682/514 683/515 684/516
f 685/517 686/518 687/519 688/520
f 689/521 690/522 691/523 692/524
f 693/525 694/526 695/527 696/528
f 705/529 706/530 707/531 708/532
f 709/533 710/534 711/535 712/536
f 713/537 714/538 715/539 716/540
f 717/541 718/542 719/543 720/544
f 721/545 722/546 723/547 724/548
f 725/549 726/550 727/551 728/552
f 737/553 738/554 739/555 740/556
f 741/557 742/558 743/559 744/560
f 745/561 746/562 747/563 748/564
f 749/565 750/566 751/567 752/568
f 753/569 754/570 755/571 756/572
f 757/573 758/574 759/575 760/576
f 769/577 770/578 771/579 772/580
f 773/581 774/582 775/583 776/584
f 777/585 778/586 779/587 780/588
f 781/589 782/590 783/591 784/592
f 785/593 786/594 787/595 788/596
f 789/597 790/598 791/599 792/600
f 801/601 802/602 803/603 804/604
f 805/605 806/606 807/607 808/608
f 809/609 810/610 811/611 812/612
f 813/613 814/614 815/615 816/616
f 817/617 818/618 819/619 820/620
f 821/621 822/622 823/623 824/624
f 833/625 834/626 835/627 836/628
f 837/629 838/630 839/631 840/632
f 841/633 842/634 843/635 844/636
f 845/637 846/638 847/639 848/640
f 849/641 850/642 851/643 852/644
f 853/645 854/646 855/647 856/648
f 865/649 866/650 867/651 868/652
f 869/653 870/654 871/655 872/656
f 873/657 874/658 875/659 876/660
f 877/661 878/662 879/663 880/664
f 881/665 882/666 883/667 884/668
f 885/669 886/670 887/671 888/672
f 897/673 898/674 899/675 900/676
f 901/677 902/678 903/679 904/680
f 905/681 906/682 907/683 908/684
f 909/685 910/686 911/687 912/688
f 913/689 914/690 915/691 916/692
f 917/693 918/694 919/695 920/696
f 929/697 930/698 931/699 932/700
f 933/701 934/702 935/703 936/704
f 937/705 938/706 939/707 940/708
f 941/709 942/710 943/711 944/712
f 945/713 946/714 947/715 948/716
f 949/717 950/718 951/719 952/720
