# RoastEngine Backrooms level
mtllib backrooms.mtl
v 1162.4500 0.0000 20.9500
v 1166.0500 0.0000 20.9500
v 1166.0500 0.0000 24.5500
v 1162.4500 0.0000 24.5500
v 1162.4500 1.6000 20.9500
v 1166.0500 1.6000 20.9500
v 1166.0500 1.6000 24.5500
v 1162.4500 1.6000 24.5500
v 1165.7000 0.0000 20.9500
v 1165.7000 0.0000 24.5500
v 1169.3000 0.0000 24.5500
v 1169.3000 0.0000 20.9500
v 1165.7000 3.1000 20.9500
v 1169.3000 3.1000 20.9500
v 1169.3000 3.1000 24.5500
v 1165.7000 3.1000 24.5500
v 1165.7000 0.0000 20.9500
v 1169.3000 0.0000 20.9500
v 1169.3000 3.1000 20.9500
v 1165.7000 3.1000 20.9500
v 1169.3000 0.0000 24.5500
v 1165.7000 0.0000 24.5500
v 1165.7000 3.1000 24.5500
v 1169.3000 3.1000 24.5500
v 1169.3000 0.0000 20.9500
v 1169.3000 0.0000 24.5500
v 1169.3000 3.1000 24.5500
v 1169.3000 3.1000 20.9500
v 1165.7000 0.0000 24.5500
v 1165.7000 0.0000 20.9500
v 1165.7000 3.1000 20.9500
v 1165.7000 3.1000 24.5500
v 1168.9500 0.0000 20.9500
v 1168.9500 0.0000 24.5500
v 1172.5500 0.0000 24.5500
v 1172.5500 0.0000 20.9500
v 1168.9500 3.1000 20.9500
v 1172.5500 3.1000 20.9500
v 1172.5500 3.1000 24.5500
v 1168.9500 3.1000 24.5500
v 1168.9500 0.0000 20.9500
v 1172.5500 0.0000 20.9500
v 1172.5500 3.1000 20.9500
v 1168.9500 3.1000 20.9500
v 1172.5500 0.0000 24.5500
v 1168.9500 0.0000 24.5500
v 1168.9500 3.1000 24.5500
v 1172.5500 3.1000 24.5500
v 1172.5500 0.0000 20.9500
v 1172.5500 0.0000 24.5500
v 1172.5500 3.1000 24.5500
v 1172.5500 3.1000 20.9500
v 1168.9500 0.0000 24.5500
v 1168.9500 0.0000 20.9500
v 1168.9500 3.1000 20.9500
v 1168.9500 3.1000 24.5500
v 1168.9500 0.0000 24.2000
v 1172.5500 0.0000 24.2000
v 1172.5500 0.0000 27.8000
v 1168.9500 0.0000 27.8000
v 1168.9500 1.6000 24.2000
v 1172.5500 1.6000 24.2000
v 1172.5500 1.6000 27.8000
v 1168.9500 1.6000 27.8000
v 1149.4500 0.0000 27.4500
v 1153.0500 0.0000 27.4500
v 1153.0500 0.0000 31.0500
v 1149.4500 0.0000 31.0500
v 1149.4500 1.6000 27.4500
v 1153.0500 1.6000 27.4500
v 1153.0500 1.6000 31.0500
v 1149.4500 1.6000 31.0500
v 1152.7000 0.0000 27.4500
v 1156.3000 0.0000 27.4500
v 1156.3000 0.0000 31.0500
v 1152.7000 0.0000 31.0500
v 1152.7000 1.6000 27.4500
v 1156.3000 1.6000 27.4500
v 1156.3000 1.6000 31.0500
v 1152.7000 1.6000 31.0500
v 1155.9500 0.0000 27.4500
v 1159.5500 0.0000 27.4500
v 1159.5500 0.0000 31.0500
v 1155.9500 0.0000 31.0500
v 1155.9500 1.6000 27.4500
v 1159.5500 1.6000 27.4500
v 1159.5500 1.6000 31.0500
v 1155.9500 1.6000 31.0500
v 1168.9500 0.0000 27.4500
v 1172.5500 0.0000 27.4500
v 1172.5500 0.0000 31.0500
v 1168.9500 0.0000 31.0500
v 1168.9500 1.6000 27.4500
v 1172.5500 1.6000 27.4500
v 1172.5500 1.6000 31.0500
v 1168.9500 1.6000 31.0500
v 1175.4500 0.0000 27.4500
v 1175.4500 0.0000 31.0500
v 1179.0500 0.0000 31.0500
v 1179.0500 0.0000 27.4500
v 1175.4500 3.1000 27.4500
v 1179.0500 3.1000 27.4500
v 1179.0500 3.1000 31.0500
v 1175.4500 3.1000 31.0500
v 1175.4500 0.0000 27.4500
v 1179.0500 0.0000 27.4500
v 1179.0500 3.1000 27.4500
v 1175.4500 3.1000 27.4500
v 1179.0500 0.0000 31.0500
v 1175.4500 0.0000 31.0500
v 1175.4500 3.1000 31.0500
v 1179.0500 3.1000 31.0500
v 1179.0500 0.0000 27.4500
v 1179.0500 0.0000 31.0500
v 1179.0500 3.1000 31.0500
v 1179.0500 3.1000 27.4500
v 1175.4500 0.0000 31.0500
v 1175.4500 0.0000 27.4500
v 1175.4500 3.1000 27.4500
v 1175.4500 3.1000 31.0500
v 1175.4500 0.0000 30.7000
v 1179.0500 0.0000 30.7000
v 1179.0500 0.0000 34.3000
v 1175.4500 0.0000 34.3000
v 1175.4500 1.6000 30.7000
v 1179.0500 1.6000 30.7000
v 1179.0500 1.6000 34.3000
v 1175.4500 1.6000 34.3000
v 1149.4500 0.0000 33.9500
v 1153.0500 0.0000 33.9500
v 1153.0500 0.0000 37.5500
v 1149.4500 0.0000 37.5500
v 1149.4500 1.6000 33.9500
v 1153.0500 1.6000 33.9500
v 1153.0500 1.6000 37.5500
v 1149.4500 1.6000 37.5500
v 1155.9500 0.0000 33.9500
v 1155.9500 0.0000 37.5500
v 1159.5500 0.0000 37.5500
v 1159.5500 0.0000 33.9500
v 1155.9500 3.1000 33.9500
v 1159.5500 3.1000 33.9500
v 1159.5500 3.1000 37.5500
v 1155.9500 3.1000 37.5500
v 1155.9500 0.0000 33.9500
v 1159.5500 0.0000 33.9500
v 1159.5500 3.1000 33.9500
v 1155.9500 3.1000 33.9500
v 1159.5500 0.0000 37.5500
v 1155.9500 0.0000 37.5500
v 1155.9500 3.1000 37.5500
v 1159.5500 3.1000 37.5500
v 1159.5500 0.0000 33.9500
v 1159.5500 0.0000 37.5500
v 1159.5500 3.1000 37.5500
v 1159.5500 3.1000 33.9500
v 1155.9500 0.0000 37.5500
v 1155.9500 0.0000 33.9500
v 1155.9500 3.1000 33.9500
v 1155.9500 3.1000 37.5500
v 1159.2000 0.0000 33.9500
v 1162.8000 0.0000 33.9500
v 1162.8000 0.0000 37.5500
v 1159.2000 0.0000 37.5500
v 1159.2000 1.6000 33.9500
v 1162.8000 1.6000 33.9500
v 1162.8000 1.6000 37.5500
v 1159.2000 1.6000 37.5500
v 1162.4500 0.0000 33.9500
v 1166.0500 0.0000 33.9500
v 1166.0500 0.0000 37.5500
v 1162.4500 0.0000 37.5500
v 1162.4500 1.6000 33.9500
v 1166.0500 1.6000 33.9500
v 1166.0500 1.6000 37.5500
v 1162.4500 1.6000 37.5500
v 1168.9500 0.0000 33.9500
v 1168.9500 0.0000 37.5500
v 1172.5500 0.0000 37.5500
v 1172.5500 0.0000 33.9500
v 1168.9500 3.1000 33.9500
v 1172.5500 3.1000 33.9500
v 1172.5500 3.1000 37.5500
v 1168.9500 3.1000 37.5500
v 1168.9500 0.0000 33.9500
v 1172.5500 0.0000 33.9500
v 1172.5500 3.1000 33.9500
v 1168.9500 3.1000 33.9500
v 1172.5500 0.0000 37.5500
v 1168.9500 0.0000 37.5500
v 1168.9500 3.1000 37.5500
v 1172.5500 3.1000 37.5500
v 1172.5500 0.0000 33.9500
v 1172.5500 0.0000 37.5500
v 1172.5500 3.1000 37.5500
v 1172.5500 3.1000 33.9500
v 1168.9500 0.0000 37.5500
v 1168.9500 0.0000 33.9500
v 1168.9500 3.1000 33.9500
v 1168.9500 3.1000 37.5500
v 1175.4500 0.0000 33.9500
v 1175.4500 0.0000 37.5500
v 1179.0500 0.0000 37.5500
v 1179.0500 0.0000 33.9500
v 1175.4500 3.1000 33.9500
v 1179.0500 3.1000 33.9500
v 1179.0500 3.1000 37.5500
v 1175.4500 3.1000 37.5500
v 1175.4500 0.0000 33.9500
v 1179.0500 0.0000 33.9500
v 1179.0500 3.1000 33.9500
v 1175.4500 3.1000 33.9500
v 1179.0500 0.0000 37.5500
v 1175.4500 0.0000 37.5500
v 1175.4500 3.1000 37.5500
v 1179.0500 3.1000 37.5500
v 1179.0500 0.0000 33.9500
v 1179.0500 0.0000 37.5500
v 1179.0500 3.1000 37.5500
v 1179.0500 3.1000 33.9500
v 1175.4500 0.0000 37.5500
v 1175.4500 0.0000 33.9500
v 1175.4500 3.1000 33.9500
v 1175.4500 3.1000 37.5500
v 1155.9500 0.0000 37.2000
v 1155.9500 0.0000 40.8000
v 1159.5500 0.0000 40.8000
v 1159.5500 0.0000 37.2000
v 1155.9500 3.1000 37.2000
v 1159.5500 3.1000 37.2000
v 1159.5500 3.1000 40.8000
v 1155.9500 3.1000 40.8000
v 1155.9500 0.0000 37.2000
v 1159.5500 0.0000 37.2000
v 1159.5500 3.1000 37.2000
v 1155.9500 3.1000 37.2000
v 1159.5500 0.0000 40.8000
v 1155.9500 0.0000 40.8000
v 1155.9500 3.1000 40.8000
v 1159.5500 3.1000 40.8000
v 1159.5500 0.0000 37.2000
v 1159.5500 0.0000 40.8000
v 1159.5500 3.1000 40.8000
v 1159.5500 3.1000 37.2000
v 1155.9500 0.0000 40.8000
v 1155.9500 0.0000 37.2000
v 1155.9500 3.1000 37.2000
v 1155.9500 3.1000 40.8000
v 1155.9500 0.0000 40.4500
v 1155.9500 0.0000 44.0500
v 1159.5500 0.0000 44.0500
v 1159.5500 0.0000 40.4500
v 1155.9500 3.1000 40.4500
v 1159.5500 3.1000 40.4500
v 1159.5500 3.1000 44.0500
v 1155.9500 3.1000 44.0500
v 1155.9500 0.0000 40.4500
v 1159.5500 0.0000 40.4500
v 1159.5500 3.1000 40.4500
v 1155.9500 3.1000 40.4500
v 1159.5500 0.0000 44.0500
v 1155.9500 0.0000 44.0500
v 1155.9500 3.1000 44.0500
v 1159.5500 3.1000 44.0500
v 1159.5500 0.0000 40.4500
v 1159.5500 0.0000 44.0500
v 1159.5500 3.1000 44.0500
v 1159.5500 3.1000 40.4500
v 1155.9500 0.0000 44.0500
v 1155.9500 0.0000 40.4500
v 1155.9500 3.1000 40.4500
v 1155.9500 3.1000 44.0500
v 1168.9500 0.0000 46.9500
v 1168.9500 0.0000 50.5500
v 1172.5500 0.0000 50.5500
v 1172.5500 0.0000 46.9500
v 1168.9500 3.1000 46.9500
v 1172.5500 3.1000 46.9500
v 1172.5500 3.1000 50.5500
v 1168.9500 3.1000 50.5500
v 1168.9500 0.0000 46.9500
v 1172.5500 0.0000 46.9500
v 1172.5500 3.1000 46.9500
v 1168.9500 3.1000 46.9500
v 1172.5500 0.0000 50.5500
v 1168.9500 0.0000 50.5500
v 1168.9500 3.1000 50.5500
v 1172.5500 3.1000 50.5500
v 1172.5500 0.0000 46.9500
v 1172.5500 0.0000 50.5500
v 1172.5500 3.1000 50.5500
v 1172.5500 3.1000 46.9500
v 1168.9500 0.0000 50.5500
v 1168.9500 0.0000 46.9500
v 1168.9500 3.1000 46.9500
v 1168.9500 3.1000 50.5500
v 1172.2000 0.0000 46.9500
v 1172.2000 0.0000 50.5500
v 1175.8000 0.0000 50.5500
v 1175.8000 0.0000 46.9500
v 1172.2000 3.1000 46.9500
v 1175.8000 3.1000 46.9500
v 1175.8000 3.1000 50.5500
v 1172.2000 3.1000 50.5500
v 1172.2000 0.0000 46.9500
v 1175.8000 0.0000 46.9500
v 1175.8000 3.1000 46.9500
v 1172.2000 3.1000 46.9500
v 1175.8000 0.0000 50.5500
v 1172.2000 0.0000 50.5500
v 1172.2000 3.1000 50.5500
v 1175.8000 3.1000 50.5500
v 1175.8000 0.0000 46.9500
v 1175.8000 0.0000 50.5500
v 1175.8000 3.1000 50.5500
v 1175.8000 3.1000 46.9500
v 1172.2000 0.0000 50.5500
v 1172.2000 0.0000 46.9500
v 1172.2000 3.1000 46.9500
v 1172.2000 3.1000 50.5500
v 1175.4500 0.0000 46.9500
v 1175.4500 0.0000 50.5500
v 1179.0500 0.0000 50.5500
v 1179.0500 0.0000 46.9500
v 1175.4500 3.1000 46.9500
v 1179.0500 3.1000 46.9500
v 1179.0500 3.1000 50.5500
v 1175.4500 3.1000 50.5500
v 1175.4500 0.0000 46.9500
v 1179.0500 0.0000 46.9500
v 1179.0500 3.1000 46.9500
v 1175.4500 3.1000 46.9500
v 1179.0500 0.0000 50.5500
v 1175.4500 0.0000 50.5500
v 1175.4500 3.1000 50.5500
v 1179.0500 3.1000 50.5500
v 1179.0500 0.0000 46.9500
v 1179.0500 0.0000 50.5500
v 1179.0500 3.1000 50.5500
v 1179.0500 3.1000 46.9500
v 1175.4500 0.0000 50.5500
v 1175.4500 0.0000 46.9500
v 1175.4500 3.1000 46.9500
v 1175.4500 3.1000 50.5500
v 1147.2000 2.9300 25.8250
v 1148.8000 2.9300 25.8250
v 1148.8000 2.9300 26.1750
v 1147.2000 2.9300 26.1750
v 1147.2000 3.0300 25.8250
v 1148.8000 3.0300 25.8250
v 1148.8000 3.0300 26.1750
v 1147.2000 3.0300 26.1750
v 1147.0500 3.0100 25.7000
v 1147.0500 3.0100 26.3000
v 1148.9500 3.0100 26.3000
v 1148.9500 3.0100 25.7000
v 1147.0500 3.0900 25.7000
v 1148.9500 3.0900 25.7000
v 1148.9500 3.0900 26.3000
v 1147.0500 3.0900 26.3000
v 1147.0500 3.0100 25.7000
v 1148.9500 3.0100 25.7000
v 1148.9500 3.0900 25.7000
v 1147.0500 3.0900 25.7000
v 1148.9500 3.0100 26.3000
v 1147.0500 3.0100 26.3000
v 1147.0500 3.0900 26.3000
v 1148.9500 3.0900 26.3000
v 1148.9500 3.0100 25.7000
v 1148.9500 3.0100 26.3000
v 1148.9500 3.0900 26.3000
v 1148.9500 3.0900 25.7000
v 1147.0500 3.0100 26.3000
v 1147.0500 3.0100 25.7000
v 1147.0500 3.0900 25.7000
v 1147.0500 3.0900 26.3000
v 1153.7000 2.9300 25.8250
v 1155.3000 2.9300 25.8250
v 1155.3000 2.9300 26.1750
v 1153.7000 2.9300 26.1750
v 1153.7000 3.0300 25.8250
v 1155.3000 3.0300 25.8250
v 1155.3000 3.0300 26.1750
v 1153.7000 3.0300 26.1750
v 1153.5500 3.0100 25.7000
v 1153.5500 3.0100 26.3000
v 1155.4500 3.0100 26.3000
v 1155.4500 3.0100 25.7000
v 1153.5500 3.0900 25.7000
v 1155.4500 3.0900 25.7000
v 1155.4500 3.0900 26.3000
v 1153.5500 3.0900 26.3000
v 1153.5500 3.0100 25.7000
v 1155.4500 3.0100 25.7000
v 1155.4500 3.0900 25.7000
v 1153.5500 3.0900 25.7000
v 1155.4500 3.0100 26.3000
v 1153.5500 3.0100 26.3000
v 1153.5500 3.0900 26.3000
v 1155.4500 3.0900 26.3000
v 1155.4500 3.0100 25.7000
v 1155.4500 3.0100 26.3000
v 1155.4500 3.0900 26.3000
v 1155.4500 3.0900 25.7000
v 1153.5500 3.0100 26.3000
v 1153.5500 3.0100 25.7000
v 1153.5500 3.0900 25.7000
v 1153.5500 3.0900 26.3000
v 1166.7000 2.9300 25.8250
v 1168.3000 2.9300 25.8250
v 1168.3000 2.9300 26.1750
v 1166.7000 2.9300 26.1750
v 1166.7000 3.0300 25.8250
v 1168.3000 3.0300 25.8250
v 1168.3000 3.0300 26.1750
v 1166.7000 3.0300 26.1750
v 1166.5500 3.0100 25.7000
v 1166.5500 3.0100 26.3000
v 1168.4500 3.0100 26.3000
v 1168.4500 3.0100 25.7000
v 1166.5500 3.0900 25.7000
v 1168.4500 3.0900 25.7000
v 1168.4500 3.0900 26.3000
v 1166.5500 3.0900 26.3000
v 1166.5500 3.0100 25.7000
v 1168.4500 3.0100 25.7000
v 1168.4500 3.0900 25.7000
v 1166.5500 3.0900 25.7000
v 1168.4500 3.0100 26.3000
v 1166.5500 3.0100 26.3000
v 1166.5500 3.0900 26.3000
v 1168.4500 3.0900 26.3000
v 1168.4500 3.0100 25.7000
v 1168.4500 3.0100 26.3000
v 1168.4500 3.0900 26.3000
v 1168.4500 3.0900 25.7000
v 1166.5500 3.0100 26.3000
v 1166.5500 3.0100 25.7000
v 1166.5500 3.0900 25.7000
v 1166.5500 3.0900 26.3000
v 1173.2000 2.9300 25.8250
v 1174.8000 2.9300 25.8250
v 1174.8000 2.9300 26.1750
v 1173.2000 2.9300 26.1750
v 1173.2000 3.0300 25.8250
v 1174.8000 3.0300 25.8250
v 1174.8000 3.0300 26.1750
v 1173.2000 3.0300 26.1750
v 1173.0500 3.0100 25.7000
v 1173.0500 3.0100 26.3000
v 1174.9500 3.0100 26.3000
v 1174.9500 3.0100 25.7000
v 1173.0500 3.0900 25.7000
v 1174.9500 3.0900 25.7000
v 1174.9500 3.0900 26.3000
v 1173.0500 3.0900 26.3000
v 1173.0500 3.0100 25.7000
v 1174.9500 3.0100 25.7000
v 1174.9500 3.0900 25.7000
v 1173.0500 3.0900 25.7000
v 1174.9500 3.0100 26.3000
v 1173.0500 3.0100 26.3000
v 1173.0500 3.0900 26.3000
v 1174.9500 3.0900 26.3000
v 1174.9500 3.0100 25.7000
v 1174.9500 3.0100 26.3000
v 1174.9500 3.0900 26.3000
v 1174.9500 3.0900 25.7000
v 1173.0500 3.0100 26.3000
v 1173.0500 3.0100 25.7000
v 1173.0500 3.0900 25.7000
v 1173.0500 3.0900 26.3000
v 1179.7000 2.9300 25.8250
v 1181.3000 2.9300 25.8250
v 1181.3000 2.9300 26.1750
v 1179.7000 2.9300 26.1750
v 1179.7000 3.0300 25.8250
v 1181.3000 3.0300 25.8250
v 1181.3000 3.0300 26.1750
v 1179.7000 3.0300 26.1750
v 1179.5500 3.0100 25.7000
v 1179.5500 3.0100 26.3000
v 1181.4500 3.0100 26.3000
v 1181.4500 3.0100 25.7000
v 1179.5500 3.0900 25.7000
v 1181.4500 3.0900 25.7000
v 1181.4500 3.0900 26.3000
v 1179.5500 3.0900 26.3000
v 1179.5500 3.0100 25.7000
v 1181.4500 3.0100 25.7000
v 1181.4500 3.0900 25.7000
v 1179.5500 3.0900 25.7000
v 1181.4500 3.0100 26.3000
v 1179.5500 3.0100 26.3000
v 1179.5500 3.0900 26.3000
v 1181.4500 3.0900 26.3000
v 1181.4500 3.0100 25.7000
v 1181.4500 3.0100 26.3000
v 1181.4500 3.0900 26.3000
v 1181.4500 3.0900 25.7000
v 1179.5500 3.0100 26.3000
v 1179.5500 3.0100 25.7000
v 1179.5500 3.0900 25.7000
v 1179.5500 3.0900 26.3000
v 1147.2000 2.9300 32.3250
v 1148.8000 2.9300 32.3250
v 1148.8000 2.9300 32.6750
v 1147.2000 2.9300 32.6750
v 1147.2000 3.0300 32.3250
v 1148.8000 3.0300 32.3250
v 1148.8000 3.0300 32.6750
v 1147.2000 3.0300 32.6750
v 1147.0500 3.0100 32.2000
v 1147.0500 3.0100 32.8000
v 1148.9500 3.0100 32.8000
v 1148.9500 3.0100 32.2000
v 1147.0500 3.0900 32.2000
v 1148.9500 3.0900 32.2000
v 1148.9500 3.0900 32.8000
v 1147.0500 3.0900 32.8000
v 1147.0500 3.0100 32.2000
v 1148.9500 3.0100 32.2000
v 1148.9500 3.0900 32.2000
v 1147.0500 3.0900 32.2000
v 1148.9500 3.0100 32.8000
v 1147.0500 3.0100 32.8000
v 1147.0500 3.0900 32.8000
v 1148.9500 3.0900 32.8000
v 1148.9500 3.0100 32.2000
v 1148.9500 3.0100 32.8000
v 1148.9500 3.0900 32.8000
v 1148.9500 3.0900 32.2000
v 1147.0500 3.0100 32.8000
v 1147.0500 3.0100 32.2000
v 1147.0500 3.0900 32.2000
v 1147.0500 3.0900 32.8000
v 1166.7000 2.9300 32.3250
v 1168.3000 2.9300 32.3250
v 1168.3000 2.9300 32.6750
v 1166.7000 2.9300 32.6750
v 1166.7000 3.0300 32.3250
v 1168.3000 3.0300 32.3250
v 1168.3000 3.0300 32.6750
v 1166.7000 3.0300 32.6750
v 1166.5500 3.0100 32.2000
v 1166.5500 3.0100 32.8000
v 1168.4500 3.0100 32.8000
v 1168.4500 3.0100 32.2000
v 1166.5500 3.0900 32.2000
v 1168.4500 3.0900 32.2000
v 1168.4500 3.0900 32.8000
v 1166.5500 3.0900 32.8000
v 1166.5500 3.0100 32.2000
v 1168.4500 3.0100 32.2000
v 1168.4500 3.0900 32.2000
v 1166.5500 3.0900 32.2000
v 1168.4500 3.0100 32.8000
v 1166.5500 3.0100 32.8000
v 1166.5500 3.0900 32.8000
v 1168.4500 3.0900 32.8000
v 1168.4500 3.0100 32.2000
v 1168.4500 3.0100 32.8000
v 1168.4500 3.0900 32.8000
v 1168.4500 3.0900 32.2000
v 1166.5500 3.0100 32.8000
v 1166.5500 3.0100 32.2000
v 1166.5500 3.0900 32.2000
v 1166.5500 3.0900 32.8000
v 1173.2000 2.9300 32.3250
v 1174.8000 2.9300 32.3250
v 1174.8000 2.9300 32.6750
v 1173.2000 2.9300 32.6750
v 1173.2000 3.0300 32.3250
v 1174.8000 3.0300 32.3250
v 1174.8000 3.0300 32.6750
v 1173.2000 3.0300 32.6750
v 1173.0500 3.0100 32.2000
v 1173.0500 3.0100 32.8000
v 1174.9500 3.0100 32.8000
v 1174.9500 3.0100 32.2000
v 1173.0500 3.0900 32.2000
v 1174.9500 3.0900 32.2000
v 1174.9500 3.0900 32.8000
v 1173.0500 3.0900 32.8000
v 1173.0500 3.0100 32.2000
v 1174.9500 3.0100 32.2000
v 1174.9500 3.0900 32.2000
v 1173.0500 3.0900 32.2000
v 1174.9500 3.0100 32.8000
v 1173.0500 3.0100 32.8000
v 1173.0500 3.0900 32.8000
v 1174.9500 3.0900 32.8000
v 1174.9500 3.0100 32.2000
v 1174.9500 3.0100 32.8000
v 1174.9500 3.0900 32.8000
v 1174.9500 3.0900 32.2000
v 1173.0500 3.0100 32.8000
v 1173.0500 3.0100 32.2000
v 1173.0500 3.0900 32.2000
v 1173.0500 3.0900 32.8000
v 1179.7000 2.9300 32.3250
v 1181.3000 2.9300 32.3250
v 1181.3000 2.9300 32.6750
v 1179.7000 2.9300 32.6750
v 1179.7000 3.0300 32.3250
v 1181.3000 3.0300 32.3250
v 1181.3000 3.0300 32.6750
v 1179.7000 3.0300 32.6750
v 1179.5500 3.0100 32.2000
v 1179.5500 3.0100 32.8000
v 1181.4500 3.0100 32.8000
v 1181.4500 3.0100 32.2000
v 1179.5500 3.0900 32.2000
v 1181.4500 3.0900 32.2000
v 1181.4500 3.0900 32.8000
v 1179.5500 3.0900 32.8000
v 1179.5500 3.0100 32.2000
v 1181.4500 3.0100 32.2000
v 1181.4500 3.0900 32.2000
v 1179.5500 3.0900 32.2000
v 1181.4500 3.0100 32.8000
v 1179.5500 3.0100 32.8000
v 1179.5500 3.0900 32.8000
v 1181.4500 3.0900 32.8000
v 1181.4500 3.0100 32.2000
v 1181.4500 3.0100 32.8000
v 1181.4500 3.0900 32.8000
v 1181.4500 3.0900 32.2000
v 1179.5500 3.0100 32.8000
v 1179.5500 3.0100 32.2000
v 1179.5500 3.0900 32.2000
v 1179.5500 3.0900 32.8000
v 1153.7000 2.9300 38.8250
v 1155.3000 2.9300 38.8250
v 1155.3000 2.9300 39.1750
v 1153.7000 2.9300 39.1750
v 1153.7000 3.0300 38.8250
v 1155.3000 3.0300 38.8250
v 1155.3000 3.0300 39.1750
v 1153.7000 3.0300 39.1750
v 1153.5500 3.0100 38.7000
v 1153.5500 3.0100 39.3000
v 1155.4500 3.0100 39.3000
v 1155.4500 3.0100 38.7000
v 1153.5500 3.0900 38.7000
v 1155.4500 3.0900 38.7000
v 1155.4500 3.0900 39.3000
v 1153.5500 3.0900 39.3000
v 1153.5500 3.0100 38.7000
v 1155.4500 3.0100 38.7000
v 1155.4500 3.0900 38.7000
v 1153.5500 3.0900 38.7000
v 1155.4500 3.0100 39.3000
v 1153.5500 3.0100 39.3000
v 1153.5500 3.0900 39.3000
v 1155.4500 3.0900 39.3000
v 1155.4500 3.0100 38.7000
v 1155.4500 3.0100 39.3000
v 1155.4500 3.0900 39.3000
v 1155.4500 3.0900 38.7000
v 1153.5500 3.0100 39.3000
v 1153.5500 3.0100 38.7000
v 1153.5500 3.0900 38.7000
v 1153.5500 3.0900 39.3000
v 1160.2000 2.9300 38.8250
v 1161.8000 2.9300 38.8250
v 1161.8000 2.9300 39.1750
v 1160.2000 2.9300 39.1750
v 1160.2000 3.0300 38.8250
v 1161.8000 3.0300 38.8250
v 1161.8000 3.0300 39.1750
v 1160.2000 3.0300 39.1750
v 1160.0500 3.0100 38.7000
v 1160.0500 3.0100 39.3000
v 1161.9500 3.0100 39.3000
v 1161.9500 3.0100 38.7000
v 1160.0500 3.0900 38.7000
v 1161.9500 3.0900 38.7000
v 1161.9500 3.0900 39.3000
v 1160.0500 3.0900 39.3000
v 1160.0500 3.0100 38.7000
v 1161.9500 3.0100 38.7000
v 1161.9500 3.0900 38.7000
v 1160.0500 3.0900 38.7000
v 1161.9500 3.0100 39.3000
v 1160.0500 3.0100 39.3000
v 1160.0500 3.0900 39.3000
v 1161.9500 3.0900 39.3000
v 1161.9500 3.0100 38.7000
v 1161.9500 3.0100 39.3000
v 1161.9500 3.0900 39.3000
v 1161.9500 3.0900 38.7000
v 1160.0500 3.0100 39.3000
v 1160.0500 3.0100 38.7000
v 1160.0500 3.0900 38.7000
v 1160.0500 3.0900 39.3000
v 1147.2000 2.9300 45.3250
v 1148.8000 2.9300 45.3250
v 1148.8000 2.9300 45.6750
v 1147.2000 2.9300 45.6750
v 1147.2000 3.0300 45.3250
v 1148.8000 3.0300 45.3250
v 1148.8000 3.0300 45.6750
v 1147.2000 3.0300 45.6750
v 1147.0500 3.0100 45.2000
v 1147.0500 3.0100 45.8000
v 1148.9500 3.0100 45.8000
v 1148.9500 3.0100 45.2000
v 1147.0500 3.0900 45.2000
v 1148.9500 3.0900 45.2000
v 1148.9500 3.0900 45.8000
v 1147.0500 3.0900 45.8000
v 1147.0500 3.0100 45.2000
v 1148.9500 3.0100 45.2000
v 1148.9500 3.0900 45.2000
v 1147.0500 3.0900 45.2000
v 1148.9500 3.0100 45.8000
v 1147.0500 3.0100 45.8000
v 1147.0500 3.0900 45.8000
v 1148.9500 3.0900 45.8000
v 1148.9500 3.0100 45.2000
v 1148.9500 3.0100 45.8000
v 1148.9500 3.0900 45.8000
v 1148.9500 3.0900 45.2000
v 1147.0500 3.0100 45.8000
v 1147.0500 3.0100 45.2000
v 1147.0500 3.0900 45.2000
v 1147.0500 3.0900 45.8000
v 1166.7000 2.9300 45.3250
v 1168.3000 2.9300 45.3250
v 1168.3000 2.9300 45.6750
v 1166.7000 2.9300 45.6750
v 1166.7000 3.0300 45.3250
v 1168.3000 3.0300 45.3250
v 1168.3000 3.0300 45.6750
v 1166.7000 3.0300 45.6750
v 1166.5500 3.0100 45.2000
v 1166.5500 3.0100 45.8000
v 1168.4500 3.0100 45.8000
v 1168.4500 3.0100 45.2000
v 1166.5500 3.0900 45.2000
v 1168.4500 3.0900 45.2000
v 1168.4500 3.0900 45.8000
v 1166.5500 3.0900 45.8000
v 1166.5500 3.0100 45.2000
v 1168.4500 3.0100 45.2000
v 1168.4500 3.0900 45.2000
v 1166.5500 3.0900 45.2000
v 1168.4500 3.0100 45.8000
v 1166.5500 3.0100 45.8000
v 1166.5500 3.0900 45.8000
v 1168.4500 3.0900 45.8000
v 1168.4500 3.0100 45.2000
v 1168.4500 3.0100 45.8000
v 1168.4500 3.0900 45.8000
v 1168.4500 3.0900 45.2000
v 1166.5500 3.0100 45.8000
v 1166.5500 3.0100 45.2000
v 1166.5500 3.0900 45.2000
v 1166.5500 3.0900 45.8000
v 1179.7000 2.9300 45.3250
v 1181.3000 2.9300 45.3250
v 1181.3000 2.9300 45.6750
v 1179.7000 2.9300 45.6750
v 1179.7000 3.0300 45.3250
v 1181.3000 3.0300 45.3250
v 1181.3000 3.0300 45.6750
v 1179.7000 3.0300 45.6750
v 1179.5500 3.0100 45.2000
v 1179.5500 3.0100 45.8000
v 1181.4500 3.0100 45.8000
v 1181.4500 3.0100 45.2000
v 1179.5500 3.0900 45.2000
v 1181.4500 3.0900 45.2000
v 1181.4500 3.0900 45.8000
v 1179.5500 3.0900 45.8000
v 1179.5500 3.0100 45.2000
v 1181.4500 3.0100 45.2000
v 1181.4500 3.0900 45.2000
v 1179.5500 3.0900 45.2000
v 1181.4500 3.0100 45.8000
v 1179.5500 3.0100 45.8000
v 1179.5500 3.0900 45.8000
v 1181.4500 3.0900 45.8000
v 1181.4500 3.0100 45.2000
v 1181.4500 3.0100 45.8000
v 1181.4500 3.0900 45.8000
v 1181.4500 3.0900 45.2000
v 1179.5500 3.0100 45.8000
v 1179.5500 3.0100 45.2000
v 1179.5500 3.0900 45.2000
v 1179.5500 3.0900 45.8000
v 1153.7000 2.9300 51.8250
v 1155.3000 2.9300 51.8250
v 1155.3000 2.9300 52.1750
v 1153.7000 2.9300 52.1750
v 1153.7000 3.0300 51.8250
v 1155.3000 3.0300 51.8250
v 1155.3000 3.0300 52.1750
v 1153.7000 3.0300 52.1750
v 1153.5500 3.0100 51.7000
v 1153.5500 3.0100 52.3000
v 1155.4500 3.0100 52.3000
v 1155.4500 3.0100 51.7000
v 1153.5500 3.0900 51.7000
v 1155.4500 3.0900 51.7000
v 1155.4500 3.0900 52.3000
v 1153.5500 3.0900 52.3000
v 1153.5500 3.0100 51.7000
v 1155.4500 3.0100 51.7000
v 1155.4500 3.0900 51.7000
v 1153.5500 3.0900 51.7000
v 1155.4500 3.0100 52.3000
v 1153.5500 3.0100 52.3000
v 1153.5500 3.0900 52.3000
v 1155.4500 3.0900 52.3000
v 1155.4500 3.0100 51.7000
v 1155.4500 3.0100 52.3000
v 1155.4500 3.0900 52.3000
v 1155.4500 3.0900 51.7000
v 1153.5500 3.0100 52.3000
v 1153.5500 3.0100 51.7000
v 1153.5500 3.0900 51.7000
v 1153.5500 3.0900 52.3000
v 1160.2000 2.9300 51.8250
v 1161.8000 2.9300 51.8250
v 1161.8000 2.9300 52.1750
v 1160.2000 2.9300 52.1750
v 1160.2000 3.0300 51.8250
v 1161.8000 3.0300 51.8250
v 1161.8000 3.0300 52.1750
v 1160.2000 3.0300 52.1750
v 1160.0500 3.0100 51.7000
v 1160.0500 3.0100 52.3000
v 1161.9500 3.0100 52.3000
v 1161.9500 3.0100 51.7000
v 1160.0500 3.0900 51.7000
v 1161.9500 3.0900 51.7000
v 1161.9500 3.0900 52.3000
v 1160.0500 3.0900 52.3000
v 1160.0500 3.0100 51.7000
v 1161.9500 3.0100 51.7000
v 1161.9500 3.0900 51.7000
v 1160.0500 3.0900 51.7000
v 1161.9500 3.0100 52.3000
v 1160.0500 3.0100 52.3000
v 1160.0500 3.0900 52.3000
v 1161.9500 3.0900 52.3000
v 1161.9500 3.0100 51.7000
v 1161.9500 3.0100 52.3000
v 1161.9500 3.0900 52.3000
v 1161.9500 3.0900 51.7000
v 1160.0500 3.0100 52.3000
v 1160.0500 3.0100 51.7000
v 1160.0500 3.0900 51.7000
v 1160.0500 3.0900 52.3000
v 1179.7000 2.9300 51.8250
v 1181.3000 2.9300 51.8250
v 1181.3000 2.9300 52.1750
v 1179.7000 2.9300 52.1750
v 1179.7000 3.0300 51.8250
v 1181.3000 3.0300 51.8250
v 1181.3000 3.0300 52.1750
v 1179.7000 3.0300 52.1750
v 1179.5500 3.0100 51.7000
v 1179.5500 3.0100 52.3000
v 1181.4500 3.0100 52.3000
v 1181.4500 3.0100 51.7000
v 1179.5500 3.0900 51.7000
v 1181.4500 3.0900 51.7000
v 1181.4500 3.0900 52.3000
v 1179.5500 3.0900 52.3000
v 1179.5500 3.0100 51.7000
v 1181.4500 3.0100 51.7000
v 1181.4500 3.0900 51.7000
v 1179.5500 3.0900 51.7000
v 1181.4500 3.0100 52.3000
v 1179.5500 3.0100 52.3000
v 1179.5500 3.0900 52.3000
v 1181.4500 3.0900 52.3000
v 1181.4500 3.0100 51.7000
v 1181.4500 3.0100 52.3000
v 1181.4500 3.0900 52.3000
v 1181.4500 3.0900 51.7000
v 1179.5500 3.0100 52.3000
v 1179.5500 3.0100 51.7000
v 1179.5500 3.0900 51.7000
v 1179.5500 3.0900 52.3000
v 1153.7500 0.3300 25.6250
v 1155.2500 0.3300 25.6250
v 1155.2500 0.3300 26.3750
v 1153.7500 0.3300 26.3750
v 1153.7500 0.3900 25.6250
v 1155.2500 0.3900 25.6250
v 1155.2500 0.3900 26.3750
v 1153.7500 0.3900 26.3750
v 1153.8100 0.0000 25.6500
v 1153.8900 0.0000 25.6500
v 1153.8900 0.0000 26.3500
v 1153.8100 0.0000 26.3500
v 1153.8100 0.3600 25.6500
v 1153.8900 0.3600 25.6500
v 1153.8900 0.3600 26.3500
v 1153.8100 0.3600 26.3500
v 1155.1100 0.0000 25.6500
v 1155.1900 0.0000 25.6500
v 1155.1900 0.0000 26.3500
v 1155.1100 0.0000 26.3500
v 1155.1100 0.3600 25.6500
v 1155.1900 0.3600 25.6500
v 1155.1900 0.3600 26.3500
v 1155.1100 0.3600 26.3500
v 1154.2700 0.3900 26.0400
v 1154.7300 0.3900 26.0400
v 1154.7300 0.3900 26.2000
v 1154.2700 0.3900 26.2000
v 1154.2700 0.7700 26.0400
v 1154.7300 0.7700 26.0400
v 1154.7300 0.7700 26.2000
v 1154.2700 0.7700 26.2000
v 1179.7500 0.3300 32.1250
v 1181.2500 0.3300 32.1250
v 1181.2500 0.3300 32.8750
v 1179.7500 0.3300 32.8750
v 1179.7500 0.3900 32.1250
v 1181.2500 0.3900 32.1250
v 1181.2500 0.3900 32.8750
v 1179.7500 0.3900 32.8750
v 1179.8100 0.0000 32.1500
v 1179.8900 0.0000 32.1500
v 1179.8900 0.0000 32.8500
v 1179.8100 0.0000 32.8500
v 1179.8100 0.3600 32.1500
v 1179.8900 0.3600 32.1500
v 1179.8900 0.3600 32.8500
v 1179.8100 0.3600 32.8500
v 1181.1100 0.0000 32.1500
v 1181.1900 0.0000 32.1500
v 1181.1900 0.0000 32.8500
v 1181.1100 0.0000 32.8500
v 1181.1100 0.3600 32.1500
v 1181.1900 0.3600 32.1500
v 1181.1900 0.3600 32.8500
v 1181.1100 0.3600 32.8500
v 1180.2700 0.3900 32.5400
v 1180.7300 0.3900 32.5400
v 1180.7300 0.3900 32.7000
v 1180.2700 0.3900 32.7000
v 1180.2700 0.7700 32.5400
v 1180.7300 0.7700 32.5400
v 1180.7300 0.7700 32.7000
v 1180.2700 0.7700 32.7000
v 1166.7500 0.3300 38.6250
v 1168.2500 0.3300 38.6250
v 1168.2500 0.3300 39.3750
v 1166.7500 0.3300 39.3750
v 1166.7500 0.3900 38.6250
v 1168.2500 0.3900 38.6250
v 1168.2500 0.3900 39.3750
v 1166.7500 0.3900 39.3750
v 1166.8100 0.0000 38.6500
v 1166.8900 0.0000 38.6500
v 1166.8900 0.0000 39.3500
v 1166.8100 0.0000 39.3500
v 1166.8100 0.3600 38.6500
v 1166.8900 0.3600 38.6500
v 1166.8900 0.3600 39.3500
v 1166.8100 0.3600 39.3500
v 1168.1100 0.0000 38.6500
v 1168.1900 0.0000 38.6500
v 1168.1900 0.0000 39.3500
v 1168.1100 0.0000 39.3500
v 1168.1100 0.3600 38.6500
v 1168.1900 0.3600 38.6500
v 1168.1900 0.3600 39.3500
v 1168.1100 0.3600 39.3500
v 1167.2700 0.3900 39.0400
v 1167.7300 0.3900 39.0400
v 1167.7300 0.3900 39.2000
v 1167.2700 0.3900 39.2000
v 1167.2700 0.7700 39.0400
v 1167.7300 0.7700 39.0400
v 1167.7300 0.7700 39.2000
v 1167.2700 0.7700 39.2000
v 1173.2500 0.3300 38.6250
v 1174.7500 0.3300 38.6250
v 1174.7500 0.3300 39.3750
v 1173.2500 0.3300 39.3750
v 1173.2500 0.3900 38.6250
v 1174.7500 0.3900 38.6250
v 1174.7500 0.3900 39.3750
v 1173.2500 0.3900 39.3750
v 1173.3100 0.0000 38.6500
v 1173.3900 0.0000 38.6500
v 1173.3900 0.0000 39.3500
v 1173.3100 0.0000 39.3500
v 1173.3100 0.3600 38.6500
v 1173.3900 0.3600 38.6500
v 1173.3900 0.3600 39.3500
v 1173.3100 0.3600 39.3500
v 1174.6100 0.0000 38.6500
v 1174.6900 0.0000 38.6500
v 1174.6900 0.0000 39.3500
v 1174.6100 0.0000 39.3500
v 1174.6100 0.3600 38.6500
v 1174.6900 0.3600 38.6500
v 1174.6900 0.3600 39.3500
v 1174.6100 0.3600 39.3500
v 1173.7700 0.3900 39.0400
v 1174.2300 0.3900 39.0400
v 1174.2300 0.3900 39.2000
v 1173.7700 0.3900 39.2000
v 1173.7700 0.7700 39.0400
v 1174.2300 0.7700 39.0400
v 1174.2300 0.7700 39.2000
v 1173.7700 0.7700 39.2000
v 1153.7500 0.3300 45.1250
v 1155.2500 0.3300 45.1250
v 1155.2500 0.3300 45.8750
v 1153.7500 0.3300 45.8750
v 1153.7500 0.3900 45.1250
v 1155.2500 0.3900 45.1250
v 1155.2500 0.3900 45.8750
v 1153.7500 0.3900 45.8750
v 1153.8100 0.0000 45.1500
v 1153.8900 0.0000 45.1500
v 1153.8900 0.0000 45.8500
v 1153.8100 0.0000 45.8500
v 1153.8100 0.3600 45.1500
v 1153.8900 0.3600 45.1500
v 1153.8900 0.3600 45.8500
v 1153.8100 0.3600 45.8500
v 1155.1100 0.0000 45.1500
v 1155.1900 0.0000 45.1500
v 1155.1900 0.0000 45.8500
v 1155.1100 0.0000 45.8500
v 1155.1100 0.3600 45.1500
v 1155.1900 0.3600 45.1500
v 1155.1900 0.3600 45.8500
v 1155.1100 0.3600 45.8500
v 1154.2700 0.3900 45.5400
v 1154.7300 0.3900 45.5400
v 1154.7300 0.3900 45.7000
v 1154.2700 0.3900 45.7000
v 1154.2700 0.7700 45.5400
v 1154.7300 0.7700 45.5400
v 1154.7300 0.7700 45.7000
v 1154.2700 0.7700 45.7000
v 1160.2500 0.3300 45.1250
v 1161.7500 0.3300 45.1250
v 1161.7500 0.3300 45.8750
v 1160.2500 0.3300 45.8750
v 1160.2500 0.3900 45.1250
v 1161.7500 0.3900 45.1250
v 1161.7500 0.3900 45.8750
v 1160.2500 0.3900 45.8750
v 1160.3100 0.0000 45.1500
v 1160.3900 0.0000 45.1500
v 1160.3900 0.0000 45.8500
v 1160.3100 0.0000 45.8500
v 1160.3100 0.3600 45.1500
v 1160.3900 0.3600 45.1500
v 1160.3900 0.3600 45.8500
v 1160.3100 0.3600 45.8500
v 1161.6100 0.0000 45.1500
v 1161.6900 0.0000 45.1500
v 1161.6900 0.0000 45.8500
v 1161.6100 0.0000 45.8500
v 1161.6100 0.3600 45.1500
v 1161.6900 0.3600 45.1500
v 1161.6900 0.3600 45.8500
v 1161.6100 0.3600 45.8500
v 1160.7700 0.3900 45.5400
v 1161.2300 0.3900 45.5400
v 1161.2300 0.3900 45.7000
v 1160.7700 0.3900 45.7000
v 1160.7700 0.7700 45.5400
v 1161.2300 0.7700 45.5400
v 1161.2300 0.7700 45.7000
v 1160.7700 0.7700 45.7000
v 1179.7500 0.3300 45.1250
v 1181.2500 0.3300 45.1250
v 1181.2500 0.3300 45.8750
v 1179.7500 0.3300 45.8750
v 1179.7500 0.3900 45.1250
v 1181.2500 0.3900 45.1250
v 1181.2500 0.3900 45.8750
v 1179.7500 0.3900 45.8750
v 1179.8100 0.0000 45.1500
v 1179.8900 0.0000 45.1500
v 1179.8900 0.0000 45.8500
v 1179.8100 0.0000 45.8500
v 1179.8100 0.3600 45.1500
v 1179.8900 0.3600 45.1500
v 1179.8900 0.3600 45.8500
v 1179.8100 0.3600 45.8500
v 1181.1100 0.0000 45.1500
v 1181.1900 0.0000 45.1500
v 1181.1900 0.0000 45.8500
v 1181.1100 0.0000 45.8500
v 1181.1100 0.3600 45.1500
v 1181.1900 0.3600 45.1500
v 1181.1900 0.3600 45.8500
v 1181.1100 0.3600 45.8500
v 1180.2700 0.3900 45.5400
v 1180.7300 0.3900 45.5400
v 1180.7300 0.3900 45.7000
v 1180.2700 0.3900 45.7000
v 1180.2700 0.7700 45.5400
v 1180.7300 0.7700 45.5400
v 1180.7300 0.7700 45.7000
v 1180.2700 0.7700 45.7000
v 1153.7500 0.3300 51.6250
v 1155.2500 0.3300 51.6250
v 1155.2500 0.3300 52.3750
v 1153.7500 0.3300 52.3750
v 1153.7500 0.3900 51.6250
v 1155.2500 0.3900 51.6250
v 1155.2500 0.3900 52.3750
v 1153.7500 0.3900 52.3750
v 1153.8100 0.0000 51.6500
v 1153.8900 0.0000 51.6500
v 1153.8900 0.0000 52.3500
v 1153.8100 0.0000 52.3500
v 1153.8100 0.3600 51.6500
v 1153.8900 0.3600 51.6500
v 1153.8900 0.3600 52.3500
v 1153.8100 0.3600 52.3500
v 1155.1100 0.0000 51.6500
v 1155.1900 0.0000 51.6500
v 1155.1900 0.0000 52.3500
v 1155.1100 0.0000 52.3500
v 1155.1100 0.3600 51.6500
v 1155.1900 0.3600 51.6500
v 1155.1900 0.3600 52.3500
v 1155.1100 0.3600 52.3500
v 1154.2700 0.3900 52.0400
v 1154.7300 0.3900 52.0400
v 1154.7300 0.3900 52.2000
v 1154.2700 0.3900 52.2000
v 1154.2700 0.7700 52.0400
v 1154.7300 0.7700 52.0400
v 1154.7300 0.7700 52.2000
v 1154.2700 0.7700 52.2000
vt 529.8636 9.5227
vt 529.8636 11.1591
vt 531.5000 11.1591
vt 531.5000 9.5227
vt 529.8636 9.5227
vt 531.5000 9.5227
vt 531.5000 11.1591
vt 529.8636 11.1591
vt 529.8636 0.0000
vt 531.5000 0.0000
vt 531.5000 1.4091
vt 529.8636 1.4091
vt 531.5000 0.0000
vt 529.8636 0.0000
vt 529.8636 1.4091
vt 531.5000 1.4091
vt 9.5227 0.0000
vt 11.1591 0.0000
vt 11.1591 1.4091
vt 9.5227 1.4091
vt 11.1591 0.0000
vt 9.5227 0.0000
vt 9.5227 1.4091
vt 11.1591 1.4091
vt 531.3409 9.5227
vt 531.3409 11.1591
vt 532.9773 11.1591
vt 532.9773 9.5227
vt 531.3409 9.5227
vt 532.9773 9.5227
vt 532.9773 11.1591
vt 531.3409 11.1591
vt 531.3409 0.0000
vt 532.9773 0.0000
vt 532.9773 1.4091
vt 531.3409 1.4091
vt 532.9773 0.0000
vt 531.3409 0.0000
vt 531.3409 1.4091
vt 532.9773 1.4091
vt 9.5227 0.0000
vt 11.1591 0.0000
vt 11.1591 1.4091
vt 9.5227 1.4091
vt 11.1591 0.0000
vt 9.5227 0.0000
vt 9.5227 1.4091
vt 11.1591 1.4091
vt 534.2955 12.4773
vt 534.2955 14.1136
vt 535.9318 14.1136
vt 535.9318 12.4773
vt 534.2955 12.4773
vt 535.9318 12.4773
vt 535.9318 14.1136
vt 534.2955 14.1136
vt 534.2955 0.0000
vt 535.9318 0.0000
vt 535.9318 1.4091
vt 534.2955 1.4091
vt 535.9318 0.0000
vt 534.2955 0.0000
vt 534.2955 1.4091
vt 535.9318 1.4091
vt 12.4773 0.0000
vt 14.1136 0.0000
vt 14.1136 1.4091
vt 12.4773 1.4091
vt 14.1136 0.0000
vt 12.4773 0.0000
vt 12.4773 1.4091
vt 14.1136 1.4091
vt 525.4318 15.4318
vt 525.4318 17.0682
vt 527.0682 17.0682
vt 527.0682 15.4318
vt 525.4318 15.4318
vt 527.0682 15.4318
vt 527.0682 17.0682
vt 525.4318 17.0682
vt 525.4318 0.0000
vt 527.0682 0.0000
vt 527.0682 1.4091
vt 525.4318 1.4091
vt 527.0682 0.0000
vt 525.4318 0.0000
vt 525.4318 1.4091
vt 527.0682 1.4091
vt 15.4318 0.0000
vt 17.0682 0.0000
vt 17.0682 1.4091
vt 15.4318 1.4091
vt 17.0682 0.0000
vt 15.4318 0.0000
vt 15.4318 1.4091
vt 17.0682 1.4091
vt 531.3409 15.4318
vt 531.3409 17.0682
vt 532.9773 17.0682
vt 532.9773 15.4318
vt 531.3409 15.4318
vt 532.9773 15.4318
vt 532.9773 17.0682
vt 531.3409 17.0682
vt 531.3409 0.0000
vt 532.9773 0.0000
vt 532.9773 1.4091
vt 531.3409 1.4091
vt 532.9773 0.0000
vt 531.3409 0.0000
vt 531.3409 1.4091
vt 532.9773 1.4091
vt 15.4318 0.0000
vt 17.0682 0.0000
vt 17.0682 1.4091
vt 15.4318 1.4091
vt 17.0682 0.0000
vt 15.4318 0.0000
vt 15.4318 1.4091
vt 17.0682 1.4091
vt 534.2955 15.4318
vt 534.2955 17.0682
vt 535.9318 17.0682
vt 535.9318 15.4318
vt 534.2955 15.4318
vt 535.9318 15.4318
vt 535.9318 17.0682
vt 534.2955 17.0682
vt 534.2955 0.0000
vt 535.9318 0.0000
vt 535.9318 1.4091
vt 534.2955 1.4091
vt 535.9318 0.0000
vt 534.2955 0.0000
vt 534.2955 1.4091
vt 535.9318 1.4091
vt 15.4318 0.0000
vt 17.0682 0.0000
vt 17.0682 1.4091
vt 15.4318 1.4091
vt 17.0682 0.0000
vt 15.4318 0.0000
vt 15.4318 1.4091
vt 17.0682 1.4091
vt 525.4318 16.9091
vt 525.4318 18.5455
vt 527.0682 18.5455
vt 527.0682 16.9091
vt 525.4318 16.9091
vt 527.0682 16.9091
vt 527.0682 18.5455
vt 525.4318 18.5455
vt 525.4318 0.0000
vt 527.0682 0.0000
vt 527.0682 1.4091
vt 525.4318 1.4091
vt 527.0682 0.0000
vt 525.4318 0.0000
vt 525.4318 1.4091
vt 527.0682 1.4091
vt 16.9091 0.0000
vt 18.5455 0.0000
vt 18.5455 1.4091
vt 16.9091 1.4091
vt 18.5455 0.0000
vt 16.9091 0.0000
vt 16.9091 1.4091
vt 18.5455 1.4091
vt 525.4318 18.3864
vt 525.4318 20.0227
vt 527.0682 20.0227
vt 527.0682 18.3864
vt 525.4318 18.3864
vt 527.0682 18.3864
vt 527.0682 20.0227
vt 525.4318 20.0227
vt 525.4318 0.0000
vt 527.0682 0.0000
vt 527.0682 1.4091
vt 525.4318 1.4091
vt 527.0682 0.0000
vt 525.4318 0.0000
vt 525.4318 1.4091
vt 527.0682 1.4091
vt 18.3864 0.0000
vt 20.0227 0.0000
vt 20.0227 1.4091
vt 18.3864 1.4091
vt 20.0227 0.0000
vt 18.3864 0.0000
vt 18.3864 1.4091
vt 20.0227 1.4091
vt 531.3409 21.3409
vt 531.3409 22.9773
vt 532.9773 22.9773
vt 532.9773 21.3409
vt 531.3409 21.3409
vt 532.9773 21.3409
vt 532.9773 22.9773
vt 531.3409 22.9773
vt 531.3409 0.0000
vt 532.9773 0.0000
vt 532.9773 1.4091
vt 531.3409 1.4091
vt 532.9773 0.0000
vt 531.3409 0.0000
vt 531.3409 1.4091
vt 532.9773 1.4091
vt 21.3409 0.0000
vt 22.9773 0.0000
vt 22.9773 1.4091
vt 21.3409 1.4091
vt 22.9773 0.0000
vt 21.3409 0.0000
vt 21.3409 1.4091
vt 22.9773 1.4091
vt 532.8182 21.3409
vt 532.8182 22.9773
vt 534.4545 22.9773
vt 534.4545 21.3409
vt 532.8182 21.3409
vt 534.4545 21.3409
vt 534.4545 22.9773
vt 532.8182 22.9773
vt 532.8182 0.0000
vt 534.4545 0.0000
vt 534.4545 1.4091
vt 532.8182 1.4091
vt 534.4545 0.0000
vt 532.8182 0.0000
vt 532.8182 1.4091
vt 534.4545 1.4091
vt 21.3409 0.0000
vt 22.9773 0.0000
vt 22.9773 1.4091
vt 21.3409 1.4091
vt 22.9773 0.0000
vt 21.3409 0.0000
vt 21.3409 1.4091
vt 22.9773 1.4091
vt 534.2955 21.3409
vt 534.2955 22.9773
vt 535.9318 22.9773
vt 535.9318 21.3409
vt 534.2955 21.3409
vt 535.9318 21.3409
vt 535.9318 22.9773
vt 534.2955 22.9773
vt 534.2955 0.0000
vt 535.9318 0.0000
vt 535.9318 1.4091
vt 534.2955 1.4091
vt 535.9318 0.0000
vt 534.2955 0.0000
vt 534.2955 1.4091
vt 535.9318 1.4091
vt 21.3409 0.0000
vt 22.9773 0.0000
vt 22.9773 1.4091
vt 21.3409 1.4091
vt 22.9773 0.0000
vt 21.3409 0.0000
vt 21.3409 1.4091
vt 22.9773 1.4091
vt 940.2049 21.0656
vt 940.2049 21.5574
vt 941.7623 21.5574
vt 941.7623 21.0656
vt 940.2049 21.0656
vt 941.7623 21.0656
vt 941.7623 21.5574
vt 940.2049 21.5574
vt 940.2049 2.4672
vt 941.7623 2.4672
vt 941.7623 2.5328
vt 940.2049 2.5328
vt 941.7623 2.4672
vt 940.2049 2.4672
vt 940.2049 2.5328
vt 941.7623 2.5328
vt 21.0656 2.4672
vt 21.5574 2.4672
vt 21.5574 2.5328
vt 21.0656 2.5328
vt 21.5574 2.4672
vt 21.0656 2.4672
vt 21.0656 2.5328
vt 21.5574 2.5328
vt 945.5328 21.0656
vt 945.5328 21.5574
vt 947.0902 21.5574
vt 947.0902 21.0656
vt 945.5328 21.0656
vt 947.0902 21.0656
vt 947.0902 21.5574
vt 945.5328 21.5574
vt 945.5328 2.4672
vt 947.0902 2.4672
vt 947.0902 2.5328
vt 945.5328 2.5328
vt 947.0902 2.4672
vt 945.5328 2.4672
vt 945.5328 2.5328
vt 947.0902 2.5328
vt 21.0656 2.4672
vt 21.5574 2.4672
vt 21.5574 2.5328
vt 21.0656 2.5328
vt 21.5574 2.4672
vt 21.0656 2.4672
vt 21.0656 2.5328
vt 21.5574 2.5328
vt 956.1885 21.0656
vt 956.1885 21.5574
vt 957.7459 21.5574
vt 957.7459 21.0656
vt 956.1885 21.0656
vt 957.7459 21.0656
vt 957.7459 21.5574
vt 956.1885 21.5574
vt 956.1885 2.4672
vt 957.7459 2.4672
vt 957.7459 2.5328
vt 956.1885 2.5328
vt 957.7459 2.4672
vt 956.1885 2.4672
vt 956.1885 2.5328
vt 957.7459 2.5328
vt 21.0656 2.4672
vt 21.5574 2.4672
vt 21.5574 2.5328
vt 21.0656 2.5328
vt 21.5574 2.4672
vt 21.0656 2.4672
vt 21.0656 2.5328
vt 21.5574 2.5328
vt 961.5164 21.0656
vt 961.5164 21.5574
vt 963.0738 21.5574
vt 963.0738 21.0656
vt 961.5164 21.0656
vt 963.0738 21.0656
vt 963.0738 21.5574
vt 961.5164 21.5574
vt 961.5164 2.4672
vt 963.0738 2.4672
vt 963.0738 2.5328
vt 961.5164 2.5328
vt 963.0738 2.4672
vt 961.5164 2.4672
vt 961.5164 2.5328
vt 963.0738 2.5328
vt 21.0656 2.4672
vt 21.5574 2.4672
vt 21.5574 2.5328
vt 21.0656 2.5328
vt 21.5574 2.4672
vt 21.0656 2.4672
vt 21.0656 2.5328
vt 21.5574 2.5328
vt 966.8443 21.0656
vt 966.8443 21.5574
vt 968.4016 21.5574
vt 968.4016 21.0656
vt 966.8443 21.0656
vt 968.4016 21.0656
vt 968.4016 21.5574
vt 966.8443 21.5574
vt 966.8443 2.4672
vt 968.4016 2.4672
vt 968.4016 2.5328
vt 966.8443 2.5328
vt 968.4016 2.4672
vt 966.8443 2.4672
vt 966.8443 2.5328
vt 968.4016 2.5328
vt 21.0656 2.4672
vt 21.5574 2.4672
vt 21.5574 2.5328
vt 21.0656 2.5328
vt 21.5574 2.4672
vt 21.0656 2.4672
vt 21.0656 2.5328
vt 21.5574 2.5328
vt 940.2049 26.3934
vt 940.2049 26.8852
vt 941.7623 26.8852
vt 941.7623 26.3934
vt 940.2049 26.3934
vt 941.7623 26.3934
vt 941.7623 26.8852
vt 940.2049 26.8852
vt 940.2049 2.4672
vt 941.7623 2.4672
vt 941.7623 2.5328
vt 940.2049 2.5328
vt 941.7623 2.4672
vt 940.2049 2.4672
vt 940.2049 2.5328
vt 941.7623 2.5328
vt 26.3934 2.4672
vt 26.8852 2.4672
vt 26.8852 2.5328
vt 26.3934 2.5328
vt 26.8852 2.4672
vt 26.3934 2.4672
vt 26.3934 2.5328
vt 26.8852 2.5328
vt 956.1885 26.3934
vt 956.1885 26.8852
vt 957.7459 26.8852
vt 957.7459 26.3934
vt 956.1885 26.3934
vt 957.7459 26.3934
vt 957.7459 26.8852
vt 956.1885 26.8852
vt 956.1885 2.4672
vt 957.7459 2.4672
vt 957.7459 2.5328
vt 956.1885 2.5328
vt 957.7459 2.4672
vt 956.1885 2.4672
vt 956.1885 2.5328
vt 957.7459 2.5328
vt 26.3934 2.4672
vt 26.8852 2.4672
vt 26.8852 2.5328
vt 26.3934 2.5328
vt 26.8852 2.4672
vt 26.3934 2.4672
vt 26.3934 2.5328
vt 26.8852 2.5328
vt 961.5164 26.3934
vt 961.5164 26.8852
vt 963.0738 26.8852
vt 963.0738 26.3934
vt 961.5164 26.3934
vt 963.0738 26.3934
vt 963.0738 26.8852
vt 961.5164 26.8852
vt 961.5164 2.4672
vt 963.0738 2.4672
vt 963.0738 2.5328
vt 961.5164 2.5328
vt 963.0738 2.4672
vt 961.5164 2.4672
vt 961.5164 2.5328
vt 963.0738 2.5328
vt 26.3934 2.4672
vt 26.8852 2.4672
vt 26.8852 2.5328
vt 26.3934 2.5328
vt 26.8852 2.4672
vt 26.3934 2.4672
vt 26.3934 2.5328
vt 26.8852 2.5328
vt 966.8443 26.3934
vt 966.8443 26.8852
vt 968.4016 26.8852
vt 968.4016 26.3934
vt 966.8443 26.3934
vt 968.4016 26.3934
vt 968.4016 26.8852
vt 966.8443 26.8852
vt 966.8443 2.4672
vt 968.4016 2.4672
vt 968.4016 2.5328
vt 966.8443 2.5328
vt 968.4016 2.4672
vt 966.8443 2.4672
vt 966.8443 2.5328
vt 968.4016 2.5328
vt 26.3934 2.4672
vt 26.8852 2.4672
vt 26.8852 2.5328
vt 26.3934 2.5328
vt 26.8852 2.4672
vt 26.3934 2.4672
vt 26.3934 2.5328
vt 26.8852 2.5328
vt 945.5328 31.7213
vt 945.5328 32.2131
vt 947.0902 32.2131
vt 947.0902 31.7213
vt 945.5328 31.7213
vt 947.0902 31.7213
vt 947.0902 32.2131
vt 945.5328 32.2131
vt 945.5328 2.4672
vt 947.0902 2.4672
vt 947.0902 2.5328
vt 945.5328 2.5328
vt 947.0902 2.4672
vt 945.5328 2.4672
vt 945.5328 2.5328
vt 947.0902 2.5328
vt 31.7213 2.4672
vt 32.2131 2.4672
vt 32.2131 2.5328
vt 31.7213 2.5328
vt 32.2131 2.4672
vt 31.7213 2.4672
vt 31.7213 2.5328
vt 32.2131 2.5328
vt 950.8607 31.7213
vt 950.8607 32.2131
vt 952.4180 32.2131
vt 952.4180 31.7213
vt 950.8607 31.7213
vt 952.4180 31.7213
vt 952.4180 32.2131
vt 950.8607 32.2131
vt 950.8607 2.4672
vt 952.4180 2.4672
vt 952.4180 2.5328
vt 950.8607 2.5328
vt 952.4180 2.4672
vt 950.8607 2.4672
vt 950.8607 2.5328
vt 952.4180 2.5328
vt 31.7213 2.4672
vt 32.2131 2.4672
vt 32.2131 2.5328
vt 31.7213 2.5328
vt 32.2131 2.4672
vt 31.7213 2.4672
vt 31.7213 2.5328
vt 32.2131 2.5328
vt 940.2049 37.0492
vt 940.2049 37.5410
vt 941.7623 37.5410
vt 941.7623 37.0492
vt 940.2049 37.0492
vt 941.7623 37.0492
vt 941.7623 37.5410
vt 940.2049 37.5410
vt 940.2049 2.4672
vt 941.7623 2.4672
vt 941.7623 2.5328
vt 940.2049 2.5328
vt 941.7623 2.4672
vt 940.2049 2.4672
vt 940.2049 2.5328
vt 941.7623 2.5328
vt 37.0492 2.4672
vt 37.5410 2.4672
vt 37.5410 2.5328
vt 37.0492 2.5328
vt 37.5410 2.4672
vt 37.0492 2.4672
vt 37.0492 2.5328
vt 37.5410 2.5328
vt 956.1885 37.0492
vt 956.1885 37.5410
vt 957.7459 37.5410
vt 957.7459 37.0492
vt 956.1885 37.0492
vt 957.7459 37.0492
vt 957.7459 37.5410
vt 956.1885 37.5410
vt 956.1885 2.4672
vt 957.7459 2.4672
vt 957.7459 2.5328
vt 956.1885 2.5328
vt 957.7459 2.4672
vt 956.1885 2.4672
vt 956.1885 2.5328
vt 957.7459 2.5328
vt 37.0492 2.4672
vt 37.5410 2.4672
vt 37.5410 2.5328
vt 37.0492 2.5328
vt 37.5410 2.4672
vt 37.0492 2.4672
vt 37.0492 2.5328
vt 37.5410 2.5328
vt 966.8443 37.0492
vt 966.8443 37.5410
vt 968.4016 37.5410
vt 968.4016 37.0492
vt 966.8443 37.0492
vt 968.4016 37.0492
vt 968.4016 37.5410
vt 966.8443 37.5410
vt 966.8443 2.4672
vt 968.4016 2.4672
vt 968.4016 2.5328
vt 966.8443 2.5328
vt 968.4016 2.4672
vt 966.8443 2.4672
vt 966.8443 2.5328
vt 968.4016 2.5328
vt 37.0492 2.4672
vt 37.5410 2.4672
vt 37.5410 2.5328
vt 37.0492 2.5328
vt 37.5410 2.4672
vt 37.0492 2.4672
vt 37.0492 2.5328
vt 37.5410 2.5328
vt 945.5328 42.3770
vt 945.5328 42.8689
vt 947.0902 42.8689
vt 947.0902 42.3770
vt 945.5328 42.3770
vt 947.0902 42.3770
vt 947.0902 42.8689
vt 945.5328 42.8689
vt 945.5328 2.4672
vt 947.0902 2.4672
vt 947.0902 2.5328
vt 945.5328 2.5328
vt 947.0902 2.4672
vt 945.5328 2.4672
vt 945.5328 2.5328
vt 947.0902 2.5328
vt 42.3770 2.4672
vt 42.8689 2.4672
vt 42.8689 2.5328
vt 42.3770 2.5328
vt 42.8689 2.4672
vt 42.3770 2.4672
vt 42.3770 2.5328
vt 42.8689 2.5328
vt 950.8607 42.3770
vt 950.8607 42.8689
vt 952.4180 42.8689
vt 952.4180 42.3770
vt 950.8607 42.3770
vt 952.4180 42.3770
vt 952.4180 42.8689
vt 950.8607 42.8689
vt 950.8607 2.4672
vt 952.4180 2.4672
vt 952.4180 2.5328
vt 950.8607 2.5328
vt 952.4180 2.4672
vt 950.8607 2.4672
vt 950.8607 2.5328
vt 952.4180 2.5328
vt 42.3770 2.4672
vt 42.8689 2.4672
vt 42.8689 2.5328
vt 42.3770 2.5328
vt 42.8689 2.4672
vt 42.3770 2.4672
vt 42.3770 2.5328
vt 42.8689 2.5328
vt 966.8443 42.3770
vt 966.8443 42.8689
vt 968.4016 42.8689
vt 968.4016 42.3770
vt 966.8443 42.3770
vt 968.4016 42.3770
vt 968.4016 42.8689
vt 966.8443 42.8689
vt 966.8443 2.4672
vt 968.4016 2.4672
vt 968.4016 2.5328
vt 966.8443 2.5328
vt 968.4016 2.4672
vt 966.8443 2.4672
vt 966.8443 2.5328
vt 968.4016 2.5328
vt 42.3770 2.4672
vt 42.8689 2.4672
vt 42.8689 2.5328
vt 42.3770 2.5328
vt 42.8689 2.4672
vt 42.3770 2.4672
vt 42.3770 2.5328
vt 42.8689 2.5328
usemtl cubicle
f 1 4 3 2
f 5 6 7 8
f 1 2 6 5
f 3 4 8 7
f 2 3 7 6
f 4 1 5 8
f 57 60 59 58
f 61 62 63 64
f 57 58 62 61
f 59 60 64 63
f 58 59 63 62
f 60 57 61 64
f 65 68 67 66
f 69 70 71 72
f 65 66 70 69
f 67 68 72 71
f 66 67 71 70
f 68 65 69 72
f 73 76 75 74
f 77 78 79 80
f 73 74 78 77
f 75 76 80 79
f 74 75 79 78
f 76 73 77 80
f 81 84 83 82
f 85 86 87 88
f 81 82 86 85
f 83 84 88 87
f 82 83 87 86
f 84 81 85 88
f 89 92 91 90
f 93 94 95 96
f 89 90 94 93
f 91 92 96 95
f 90 91 95 94
f 92 89 93 96
f 121 124 123 122
f 125 126 127 128
f 121 122 126 125
f 123 124 128 127
f 122 123 127 126
f 124 121 125 128
f 129 132 131 130
f 133 134 135 136
f 129 130 134 133
f 131 132 136 135
f 130 131 135 134
f 132 129 133 136
f 161 164 163 162
f 165 166 167 168
f 161 162 166 165
f 163 164 168 167
f 162 163 167 166
f 164 161 165 168
f 169 172 171 170
f 173 174 175 176
f 169 170 174 173
f 171 172 176 175
f 170 171 175 174
f 172 169 173 176
usemtl fluorescent
f 345 348 347 346
f 349 350 351 352
f 345 346 350 349
f 347 348 352 351
f 346 347 351 350
f 348 345 349 352
f 377 380 379 378
f 381 382 383 384
f 377 378 382 381
f 379 380 384 383
f 378 379 383 382
f 380 377 381 384
f 409 412 411 410
f 413 414 415 416
f 409 410 414 413
f 411 412 416 415
f 410 411 415 414
f 412 409 413 416
f 441 444 443 442
f 445 446 447 448
f 441 442 446 445
f 443 444 448 447
f 442 443 447 446
f 444 441 445 448
f 473 476 475 474
f 477 478 479 480
f 473 474 478 477
f 475 476 480 479
f 474 475 479 478
f 476 473 477 480
f 505 508 507 506
f 509 510 511 512
f 505 506 510 509
f 507 508 512 511
f 506 507 511 510
f 508 505 509 512
f 537 540 539 538
f 541 542 543 544
f 537 538 542 541
f 539 540 544 543
f 538 539 543 542
f 540 537 541 544
f 569 572 571 570
f 573 574 575 576
f 569 570 574 573
f 571 572 576 575
f 570 571 575 574
f 572 569 573 576
f 601 604 603 602
f 605 606 607 608
f 601 602 606 605
f 603 604 608 607
f 602 603 607 606
f 604 601 605 608
f 633 636 635 634
f 637 638 639 640
f 633 634 638 637
f 635 636 640 639
f 634 635 639 638
f 636 633 637 640
f 665 668 667 666
f 669 670 671 672
f 665 666 670 669
f 667 668 672 671
f 666 667 671 670
f 668 665 669 672
f 697 700 699 698
f 701 702 703 704
f 697 698 702 701
f 699 700 704 703
f 698 699 703 702
f 700 697 701 704
f 729 732 731 730
f 733 734 735 736
f 729 730 734 733
f 731 732 736 735
f 730 731 735 734
f 732 729 733 736
f 761 764 763 762
f 765 766 767 768
f 761 762 766 765
f 763 764 768 767
f 762 763 767 766
f 764 761 765 768
f 793 796 795 794
f 797 798 799 800
f 793 794 798 797
f 795 796 800 799
f 794 795 799 798
f 796 793 797 800
f 825 828 827 826
f 829 830 831 832
f 825 826 830 829
f 827 828 832 831
f 826 827 831 830
f 828 825 829 832
f 857 860 859 858
f 861 862 863 864
f 857 858 862 861
f 859 860 864 863
f 858 859 863 862
f 860 857 861 864
usemtl desk
f 889 892 891 890
f 893 894 895 896
f 889 890 894 893
f 891 892 896 895
f 890 891 895 894
f 892 889 893 896
f 897 900 899 898
f 901 902 903 904
f 897 898 902 901
f 899 900 904 903
f 898 899 903 902
f 900 897 901 904
f 905 908 907 906
f 909 910 911 912
f 905 906 910 909
f 907 908 912 911
f 906 907 911 910
f 908 905 909 912
usemtl monitor
f 913 916 915 914
f 917 918 919 920
f 913 914 918 917
f 915 916 920 919
f 914 915 919 918
f 916 913 917 920
usemtl desk
f 921 924 923 922
f 925 926 927 928
f 921 922 926 925
f 923 924 928 927
f 922 923 927 926
f 924 921 925 928
f 929 932 931 930
f 933 934 935 936
f 929 930 934 933
f 931 932 936 935
f 930 931 935 934
f 932 929 933 936
f 937 940 939 938
f 941 942 943 944
f 937 938 942 941
f 939 940 944 943
f 938 939 943 942
f 940 937 941 944
usemtl monitor
f 945 948 947 946
f 949 950 951 952
f 945 946 950 949
f 947 948 952 951
f 946 947 951 950
f 948 945 949 952
usemtl desk
f 953 956 955 954
f 957 958 959 960
f 953 954 958 957
f 955 956 960 959
f 954 955 959 958
f 956 953 957 960
f 961 964 963 962
f 965 966 967 968
f 961 962 966 965
f 963 964 968 967
f 962 963 967 966
f 964 961 965 968
f 969 972 971 970
f 973 974 975 976
f 969 970 974 973
f 971 972 976 975
f 970 971 975 974
f 972 969 973 976
usemtl monitor
f 977 980 979 978
f 981 982 983 984
f 977 978 982 981
f 979 980 984 983
f 978 979 983 982
f 980 977 981 984
usemtl desk
f 985 988 987 986
f 989 990 991 992
f 985 986 990 989
f 987 988 992 991
f 986 987 991 990
f 988 985 989 992
f 993 996 995 994
f 997 998 999 1000
f 993 994 998 997
f 995 996 1000 999
f 994 995 999 998
f 996 993 997 1000
f 1001 1004 1003 1002
f 1005 1006 1007 1008
f 1001 1002 1006 1005
f 1003 1004 1008 1007
f 1002 1003 1007 1006
f 1004 1001 1005 1008
usemtl monitor
f 1009 1012 1011 1010
f 1013 1014 1015 1016
f 1009 1010 1014 1013
f 1011 1012 1016 1015
f 1010 1011 1015 1014
f 1012 1009 1013 1016
usemtl desk
f 1017 1020 1019 1018
f 1021 1022 1023 1024
f 1017 1018 1022 1021
f 1019 1020 1024 1023
f 1018 1019 1023 1022
f 1020 1017 1021 1024
f 1025 1028 1027 1026
f 1029 1030 1031 1032
f 1025 1026 1030 1029
f 1027 1028 1032 1031
f 1026 1027 1031 1030
f 1028 1025 1029 1032
f 1033 1036 1035 1034
f 1037 1038 1039 1040
f 1033 1034 1038 1037
f 1035 1036 1040 1039
f 1034 1035 1039 1038
f 1036 1033 1037 1040
usemtl monitor
f 1041 1044 1043 1042
f 1045 1046 1047 1048
f 1041 1042 1046 1045
f 1043 1044 1048 1047
f 1042 1043 1047 1046
f 1044 1041 1045 1048
usemtl desk
f 1049 1052 1051 1050
f 1053 1054 1055 1056
f 1049 1050 1054 1053
f 1051 1052 1056 1055
f 1050 1051 1055 1054
f 1052 1049 1053 1056
f 1057 1060 1059 1058
f 1061 1062 1063 1064
f 1057 1058 1062 1061
f 1059 1060 1064 1063
f 1058 1059 1063 1062
f 1060 1057 1061 1064
f 1065 1068 1067 1066
f 1069 1070 1071 1072
f 1065 1066 1070 1069
f 1067 1068 1072 1071
f 1066 1067 1071 1070
f 1068 1065 1069 1072
usemtl monitor
f 1073 1076 1075 1074
f 1077 1078 1079 1080
f 1073 1074 1078 1077
f 1075 1076 1080 1079
f 1074 1075 1079 1078
f 1076 1073 1077 1080
usemtl desk
f 1081 1084 1083 1082
f 1085 1086 1087 1088
f 1081 1082 1086 1085
f 1083 1084 1088 1087
f 1082 1083 1087 1086
f 1084 1081 1085 1088
f 1089 1092 1091 1090
f 1093 1094 1095 1096
f 1089 1090 1094 1093
f 1091 1092 1096 1095
f 1090 1091 1095 1094
f 1092 1089 1093 1096
f 1097 1100 1099 1098
f 1101 1102 1103 1104
f 1097 1098 1102 1101
f 1099 1100 1104 1103
f 1098 1099 1103 1102
f 1100 1097 1101 1104
usemtl monitor
f 1105 1108 1107 1106
f 1109 1110 1111 1112
f 1105 1106 1110 1109
f 1107 1108 1112 1111
f 1106 1107 1111 1110
f 1108 1105 1109 1112
usemtl desk
f 1113 1116 1115 1114
f 1117 1118 1119 1120
f 1113 1114 1118 1117
f 1115 1116 1120 1119
f 1114 1115 1119 1118
f 1116 1113 1117 1120
f 1121 1124 1123 1122
f 1125 1126 1127 1128
f 1121 1122 1126 1125
f 1123 1124 1128 1127
f 1122 1123 1127 1126
f 1124 1121 1125 1128
f 1129 1132 1131 1130
f 1133 1134 1135 1136
f 1129 1130 1134 1133
f 1131 1132 1136 1135
f 1130 1131 1135 1134
f 1132 1129 1133 1136
usemtl monitor
f 1137 1140 1139 1138
f 1141 1142 1143 1144
f 1137 1138 1142 1141
f 1139 1140 1144 1143
f 1138 1139 1143 1142
f 1140 1137 1141 1144
usemtl office_wall
f 9/1 10/2 11/3 12/4
f 13/5 14/6 15/7 16/8
f 17/9 18/10 19/11 20/12
f 21/13 22/14 23/15 24/16
f 25/17 26/18 27/19 28/20
f 29/21 30/22 31/23 32/24
f 33/25 34/26 35/27 36/28
f 37/29 38/30 39/31 40/32
f 41/33 42/34 43/35 44/36
f 45/37 46/38 47/39 48/40
f 49/41 50/42 51/43 52/44
f 53/45 54/46 55/47 56/48
f 97/49 98/50 99/51 100/52
f 101/53 102/54 103/55 104/56
f 105/57 106/58 107/59 108/60
f 109/61 110/62 111/63 112/64
f 113/65 114/66 115/67 116/68
f 117/69 118/70 119/71 120/72
f 137/73 138/74 139/75 140/76
f 141/77 142/78 143/79 144/80
f 145/81 146/82 147/83 148/84
f 149/85 150/86 151/87 152/88
f 153/89 154/90 155/91 156/92
f 157/93 158/94 159/95 160/96
f 177/97 178/98 179/99 180/100
f 181/101 182/102 183/103 184/104
f 185/105 186/106 187/107 188/108
f 189/109 190/110 191/111 192/112
f 193/113 194/114 195/115 196/116
f 197/117 198/118 199/119 200/120
f 201/121 202/122 203/123 204/124
f 205/125 206/126 207/127 208/128
f 209/129 210/130 211/131 212/132
f 213/133 214/134 215/135 216/136
f 217/137 218/138 219/139 220/140
f 221/141 222/142 223/143 224/144
f 225/145 226/146 227/147 228/148
f 229/149 230/150 231/151 232/152
f 233/153 234/154 235/155 236/156
f 237/157 238/158 239/159 240/160
f 241/161 242/162 243/163 244/164
f 245/165 246/166 247/167 248/168
f 249/169 250/170 251/171 252/172
f 253/173 254/174 255/175 256/176
f 257/177 258/178 259/179 260/180
f 261/181 262/182 263/183 264/184
f 265/185 266/186 267/187 268/188
f 269/189 270/190 271/191 272/192
f 273/193 274/194 275/195 276/196
f 277/197 278/198 279/199 280/200
f 281/201 282/202 283/203 284/204
f 285/205 286/206 287/207 288/208
f 289/209 290/210 291/211 292/212
f 293/213 294/214 295/215 296/216
f 297/217 298/218 299/219 300/220
f 301/221 302/222 303/223 304/224
f 305/225 306/226 307/227 308/228
f 309/229 310/230 311/231 312/232
f 313/233 314/234 315/235 316/236
f 317/237 318/238 319/239 320/240
f 321/241 322/242 323/243 324/244
f 325/245 326/246 327/247 328/248
f 329/249 330/250 331/251 332/252
f 333/253 334/254 335/255 336/256
f 337/257 338/258 339/259 340/260
f 341/261 342/262 343/263 344/264
usemtl ceiling_tile
f 353/265 354/266 355/267 356/268
f 357/269 358/270 359/271 360/272
f 361/273 362/274 363/275 364/276
f 365/277 366/278 367/279 368/280
f 369/281 370/282 371/283 372/284
f 373/285 374/286 375/287 376/288
f 385/289 386/290 387/291 388/292
f 389/293 390/294 391/295 392/296
f 393/297 394/298 395/299 396/300
f 397/301 398/302 399/303 400/304
f 401/305 402/306 403/307 404/308
f 405/309 406/310 407/311 408/312
f 417/313 418/314 419/315 420/316
f 421/317 422/318 423/319 424/320
f 425/321 426/322 427/323 428/324
f 429/325 430/326 431/327 432/328
f 433/329 434/330 435/331 436/332
f 437/333 438/334 439/335 440/336
f 449/337 450/338 451/339 452/340
f 453/341 454/342 455/343 456/344
f 457/345 458/346 459/347 460/348
f 461/349 462/350 463/351 464/352
f 465/353 466/354 467/355 468/356
f 469/357 470/358 471/359 472/360
f 481/361 482/362 483/363 484/364
f 485/365 486/366 487/367 488/368
f 489/369 490/370 491/371 492/372
f 493/373 494/374 495/375 496/376
f 497/377 498/378 499/379 500/380
f 501/381 502/382 503/383 504/384
f 513/385 514/386 515/387 516/388
f 517/389 518/390 519/391 520/392
f 521/393 522/394 523/395 524/396
f 525/397 526/398 527/399 528/400
f 529/401 530/402 531/403 532/404
f 533/405 534/406 535/407 536/408
f 545/409 546/410 547/411 548/412
f 549/413 550/414 551/415 552/416
f 553/417 554/418 555/419 556/420
f 557/421 558/422 559/423 560/424
f 561/425 562/426 563/427 564/428
f 565/429 566/430 567/431 568/432
f 577/433 578/434 579/435 580/436
f 581/437 582/438 583/439 584/440
f 585/441 586/442 587/443 588/444
f 589/445 590/446 591/447 592/448
f 593/449 594/450 595/451 596/452
f 597/453 598/454 599/455 600/456
f 609/457 610/458 611/459 612/460
f 613/461 614/462 615/463 616/464
f 617/465 618/466 619/467 620/468
f 621/469 622/470 623/471 624/472
f 625/473 626/474 627/475 628/476
f 629/477 630/478 631/479 632/480
f 641/481 642/482 643/483 644/484
f 645/485 646/486 647/487 648/488
f 649/489 650/490 651/491 652/492
f 653/493 654/494 655/495 656/496
f 657/497 658/498 659/499 660/500
f 661/501 662/502 663/503 664/504
f 673/505 674/506 675/507 676/508
f 677/509 678/510 679/511 680/512
f 681/513 682/514 683/515 684/516
f 685/517 686/518 687/519 688/520
f 689/521 690/522 691/523 692/524
f 693/525 694/526 695/527 696/528
f 705/529 706/530 707/531 708/532
f 709/533 710/534 711/535 712/536
f 713/537 714/538 715/539 716/540
f 717/541 718/542 719/543 720/544
f 721/545 722/546 723/547 724/548
f 725/549 726/550 727/551 728/552
f 737/553 738/554 739/555 740/556
f 741/557 742/558 743/559 744/560
f 745/561 746/562 747/563 748/564
f 749/565 750/566 751/567 752/568
f 753/569 754/570 755/571 756/572
f 757/573 758/574 759/575 760/576
f 769/577 770/578 771/579 772/580
f 773/581 774/582 775/583 776/584
f 777/585 778/586 779/587 780/588
f 781/589 782/590 783/591 784/592
f 785/593 786/594 787/595 788/596
f 789/597 790/598 791/599 792/600
f 801/601 802/602 803/603 804/604
f 805/605 806/606 807/607 808/608
f 809/609 810/610 811/611 812/612
f 813/613 814/614 815/615 816/616
f 817/617 818/618 819/619 820/620
f 821/621 822/622 823/623 824/624
f 833/625 834/626 835/627 836/628
f 837/629 838/630 839/631 840/632
f 841/633 842/634 843/635 844/636
f 845/637 846/638 847/639 848/640
f 849/641 850/642 851/643 852/644
f 853/645 854/646 855/647 856/648
f 865/649 866/650 867/651 868/652
f 869/653 870/654 871/655 872/656
f 873/657 874/658 875/659 876/660
f 877/661 878/662 879/663 880/664
f 881/665 882/666 883/667 884/668
f 885/669 886/670 887/671 888/672
