# RoastEngine Backrooms level
mtllib backrooms.mtl
v -368.6750 0.0000 -4.6750
v -368.6750 0.0000 -1.3250
v -365.3250 0.0000 -1.3250
v -365.3250 0.0000 -4.6750
v -368.6750 3.2000 -4.6750
v -365.3250 3.2000 -4.6750
v -365.3250 3.2000 -1.3250
v -368.6750 3.2000 -1.3250
v -368.6750 0.0000 -4.6750
v -365.3250 0.0000 -4.6750
v -365.3250 3.2000 -4.6750
v -368.6750 3.2000 -4.6750
v -365.3250 0.0000 -1.3250
v -368.6750 0.0000 -1.3250
v -368.6750 3.2000 -1.3250
v -365.3250 3.2000 -1.3250
v -365.3250 0.0000 -4.6750
v -365.3250 0.0000 -1.3250
v -365.3250 3.2000 -1.3250
v -365.3250 3.2000 -4.6750
v -368.6750 0.0000 -1.3250
v -368.6750 0.0000 -4.6750
v -368.6750 3.2000 -4.6750
v -368.6750 3.2000 -1.3250
v -368.6750 0.0000 1.3250
v -368.6750 0.0000 4.6750
v -365.3250 0.0000 4.6750
v -365.3250 0.0000 1.3250
v -368.6750 3.2000 1.3250
v -365.3250 3.2000 1.3250
v -365.3250 3.2000 4.6750
v -368.6750 3.2000 4.6750
v -368.6750 0.0000 1.3250
v -365.3250 0.0000 1.3250
v -365.3250 3.2000 1.3250
v -368.6750 3.2000 1.3250
v -365.3250 0.0000 4.6750
v -368.6750 0.0000 4.6750
v -368.6750 3.2000 4.6750
v -365.3250 3.2000 4.6750
v -365.3250 0.0000 1.3250
v -365.3250 0.0000 4.6750
v -365.3250 3.2000 4.6750
v -365.3250 3.2000 1.3250
v -368.6750 0.0000 4.6750
v -368.6750 0.0000 1.3250
v -368.6750 3.2000 1.3250
v -368.6750 3.2000 4.6750
v -368.6750 0.0000 7.3250
v -368.6750 0.0000 10.6750
v -365.3250 0.0000 10.6750
v -365.3250 0.0000 7.3250
v -368.6750 3.2000 7.3250
v -365.3250 3.2000 7.3250
v -365.3250 3.2000 10.6750
v -368.6750 3.2000 10.6750
v -368.6750 0.0000 7.3250
v -365.3250 0.0000 7.3250
v -365.3250 3.2000 7.3250
v -368.6750 3.2000 7.3250
v -365.3250 0.0000 10.6750
v -368.6750 0.0000 10.6750
v -368.6750 3.2000 10.6750
v -365.3250 3.2000 10.6750
v -365.3250 0.0000 7.3250
v -365.3250 0.0000 10.6750
v -365.3250 3.2000 10.6750
v -365.3250 3.2000 7.3250
v -368.6750 0.0000 10.6750
v -368.6750 0.0000 7.3250
v -368.6750 3.2000 7.3250
v -368.6750 3.2000 10.6750
v -365.6750 0.0000 7.3250
v -365.6750 0.0000 10.6750
v -362.3250 0.0000 10.6750
v -362.3250 0.0000 7.3250
v -365.6750 3.2000 7.3250
v -362.3250 3.2000 7.3250
v -362.3250 3.2000 10.6750
v -365.6750 3.2000 10.6750
v -365.6750 0.0000 7.3250
v -362.3250 0.0000 7.3250
v -362.3250 3.2000 7.3250
v -365.6750 3.2000 7.3250
v -362.3250 0.0000 10.6750
v -365.6750 0.0000 10.6750
v -365.6750 3.2000 10.6750
v -362.3250 3.2000 10.6750
v -362.3250 0.0000 7.3250
v -362.3250 0.0000 10.6750
v -362.3250 3.2000 10.6750
v -362.3250 3.2000 7.3250
v -365.6750 0.0000 10.6750
v -365.6750 0.0000 7.3250
v -365.6750 3.2000 7.3250
v -365.6750 3.2000 10.6750
v -368.6750 0.0000 19.3250
v -368.6750 0.0000 22.6750
v -365.3250 0.0000 22.6750
v -365.3250 0.0000 19.3250
v -368.6750 3.2000 19.3250
v -365.3250 3.2000 19.3250
v -365.3250 3.2000 22.6750
v -368.6750 3.2000 22.6750
v -368.6750 0.0000 19.3250
v -365.3250 0.0000 19.3250
v -365.3250 3.2000 19.3250
v -368.6750 3.2000 19.3250
v -365.3250 0.0000 22.6750
v -368.6750 0.0000 22.6750
v -368.6750 3.2000 22.6750
v -365.3250 3.2000 22.6750
v -365.3250 0.0000 19.3250
v -365.3250 0.0000 22.6750
v -365.3250 3.2000 22.6750
v -365.3250 3.2000 19.3250
v -368.6750 0.0000 22.6750
v -368.6750 0.0000 19.3250
v -368.6750 3.2000 19.3250
v -368.6750 3.2000 22.6750
v -368.6750 0.0000 22.3250
v -368.6750 0.0000 25.6750
v -365.3250 0.0000 25.6750
v -365.3250 0.0000 22.3250
v -368.6750 3.2000 22.3250
v -365.3250 3.2000 22.3250
v -365.3250 3.2000 25.6750
v -368.6750 3.2000 25.6750
v -368.6750 0.0000 22.3250
v -365.3250 0.0000 22.3250
v -365.3250 3.2000 22.3250
v -368.6750 3.2000 22.3250
v -365.3250 0.0000 25.6750
v -368.6750 0.0000 25.6750
v -368.6750 3.2000 25.6750
v -365.3250 3.2000 25.6750
v -365.3250 0.0000 22.3250
v -365.3250 0.0000 25.6750
v -365.3250 3.2000 25.6750
v -365.3250 3.2000 22.3250
v -368.6750 0.0000 25.6750
v -368.6750 0.0000 22.3250
v -368.6750 3.2000 22.3250
v -368.6750 3.2000 25.6750
v -368.6750 0.0000 25.3250
v -368.6750 0.0000 28.6750
v -365.3250 0.0000 28.6750
v -365.3250 0.0000 25.3250
v -368.6750 3.2000 25.3250
v -365.3250 3.2000 25.3250
v -365.3250 3.2000 28.6750
v -368.6750 3.2000 28.6750
v -368.6750 0.0000 25.3250
v -365.3250 0.0000 25.3250
v -365.3250 3.2000 25.3250
v -368.6750 3.2000 25.3250
v -365.3250 0.0000 28.6750
v -368.6750 0.0000 28.6750
v -368.6750 3.2000 28.6750
v -365.3250 3.2000 28.6750
v -365.3250 0.0000 25.3250
v -365.3250 0.0000 28.6750
v -365.3250 3.2000 28.6750
v -365.3250 3.2000 25.3250
v -368.6750 0.0000 28.6750
v -368.6750 0.0000 25.3250
v -368.6750 3.2000 25.3250
v -368.6750 3.2000 28.6750
v -365.6750 0.0000 25.3250
v -365.6750 0.0000 28.6750
v -362.3250 0.0000 28.6750
v -362.3250 0.0000 25.3250
v -365.6750 3.2000 25.3250
v -362.3250 3.2000 25.3250
v -362.3250 3.2000 28.6750
v -365.6750 3.2000 28.6750
v -365.6750 0.0000 25.3250
v -362.3250 0.0000 25.3250
v -362.3250 3.2000 25.3250
v -365.6750 3.2000 25.3250
v -362.3250 0.0000 28.6750
v -365.6750 0.0000 28.6750
v -365.6750 3.2000 28.6750
v -362.3250 3.2000 28.6750
v -362.3250 0.0000 25.3250
v -362.3250 0.0000 28.6750
v -362.3250 3.2000 28.6750
v -362.3250 3.2000 25.3250
v -365.6750 0.0000 28.6750
v -365.6750 0.0000 25.3250
v -365.6750 3.2000 25.3250
v -365.6750 3.2000 28.6750
v -364.8000 3.0300 5.8250
v -363.2000 3.0300 5.8250
v -363.2000 3.0300 6.1750
v -364.8000 3.0300 6.1750
v -364.8000 3.1300 5.8250
v -363.2000 3.1300 5.8250
v -363.2000 3.1300 6.1750
v -364.8000 3.1300 6.1750
v -364.9500 3.1100 5.7000
v -364.9500 3.1100 6.3000
v -363.0500 3.1100 6.3000
v -363.0500 3.1100 5.7000
v -364.9500 3.1900 5.7000
v -363.0500 3.1900 5.7000
v -363.0500 3.1900 6.3000
v -364.9500 3.1900 6.3000
v -364.9500 3.1100 5.7000
v -363.0500 3.1100 5.7000
v -363.0500 3.1900 5.7000
v -364.9500 3.1900 5.7000
v -363.0500 3.1100 6.3000
v -364.9500 3.1100 6.3000
v -364.9500 3.1900 6.3000
v -363.0500 3.1900 6.3000
v -363.0500 3.1100 5.7000
v -363.0500 3.1100 6.3000
v -363.0500 3.1900 6.3000
v -363.0500 3.1900 5.7000
v -364.9500 3.1100 6.3000
v -364.9500 3.1100 5.7000
v -364.9500 3.1900 5.7000
v -364.9500 3.1900 6.3000
v -364.8000 3.0300 17.8250
v -363.2000 3.0300 17.8250
v -363.2000 3.0300 18.1750
v -364.8000 3.0300 18.1750
v -364.8000 3.1300 17.8250
v -363.2000 3.1300 17.8250
v -363.2000 3.1300 18.1750
v -364.8000 3.1300 18.1750
v -364.9500 3.1100 17.7000
v -364.9500 3.1100 18.3000
v -363.0500 3.1100 18.3000
v -363.0500 3.1100 17.7000
v -364.9500 3.1900 17.7000
v -363.0500 3.1900 17.7000
v -363.0500 3.1900 18.3000
v -364.9500 3.1900 18.3000
v -364.9500 3.1100 17.7000
v -363.0500 3.1100 17.7000
v -363.0500 3.1900 17.7000
v -364.9500 3.1900 17.7000
v -363.0500 3.1100 18.3000
v -364.9500 3.1100 18.3000
v -364.9500 3.1900 18.3000
v -363.0500 3.1900 18.3000
v -363.0500 3.1100 17.7000
v -363.0500 3.1100 18.3000
v -363.0500 3.1900 18.3000
v -363.0500 3.1900 17.7000
v -364.9500 3.1100 18.3000
v -364.9500 3.1100 17.7000
v -364.9500 3.1900 17.7000
v -364.9500 3.1900 18.3000
v -364.8000 3.0300 29.8250
v -363.2000 3.0300 29.8250
v -363.2000 3.0300 30.1750
v -364.8000 3.0300 30.1750
v -364.8000 3.1300 29.8250
v -363.2000 3.1300 29.8250
v -363.2000 3.1300 30.1750
v -364.8000 3.1300 30.1750
v -364.9500 3.1100 29.7000
v -364.9500 3.1100 30.3000
v -363.0500 3.1100 30.3000
v -363.0500 3.1100 29.7000
v -364.9500 3.1900 29.7000
v -363.0500 3.1900 29.7000
v -363.0500 3.1900 30.3000
v -364.9500 3.1900 30.3000
v -364.9500 3.1100 29.7000
v -363.0500 3.1100 29.7000
v -363.0500 3.1900 29.7000
v -364.9500 3.1900 29.7000
v -363.0500 3.1100 30.3000
v -364.9500 3.1100 30.3000
v -364.9500 3.1900 30.3000
v -363.0500 3.1900 30.3000
v -363.0500 3.1100 29.7000
v -363.0500 3.1100 30.3000
v -363.0500 3.1900 30.3000
v -363.0500 3.1900 29.7000
v -364.9500 3.1100 30.3000
v -364.9500 3.1100 29.7000
v -364.9500 3.1900 29.7000
v -364.9500 3.1900 30.3000
vt -245.7833 -3.1167
vt -245.7833 -0.8833
vt -243.5500 -0.8833
vt -243.5500 -3.1167
vt -245.7833 -3.1167
vt -243.5500 -3.1167
vt -243.5500 -0.8833
vt -245.7833 -0.8833
vt -245.7833 0.0000
vt -243.5500 0.0000
vt -243.5500 2.1333
vt -245.7833 2.1333
vt -243.5500 0.0000
vt -245.7833 0.0000
vt -245.7833 2.1333
vt -243.5500 2.1333
vt -3.1167 0.0000
vt -0.8833 0.0000
vt -0.8833 2.1333
vt -3.1167 2.1333
vt -0.8833 0.0000
vt -3.1167 0.0000
vt -3.1167 2.1333
vt -0.8833 2.1333
vt -245.7833 0.8833
vt -245.7833 3.1167
vt -243.5500 3.1167
vt -243.5500 0.8833
vt -245.7833 0.8833
vt -243.5500 0.8833
vt -243.5500 3.1167
vt -245.7833 3.1167
vt -245.7833 0.0000
vt -243.5500 0.0000
vt -243.5500 2.1333
vt -245.7833 2.1333
vt -243.5500 0.0000
vt -245.7833 0.0000
vt -245.7833 2.1333
vt -243.5500 2.1333
vt 0.8833 0.0000
vt 3.1167 0.0000
vt 3.1167 2.1333
vt 0.8833 2.1333
vt 3.1167 0.0000
vt 0.8833 0.0000
vt 0.8833 2.1333
vt 3.1167 2.1333
vt -245.7833 4.8833
vt -245.7833 7.1167
vt -243.5500 7.1167
vt -243.5500 4.8833
vt -245.7833 4.8833
vt -243.5500 4.8833
vt -243.5500 7.1167
vt -245.7833 7.1167
vt -245.7833 0.0000
vt -243.5500 0.0000
vt -243.5500 2.1333
vt -245.7833 2.1333
vt -243.5500 0.0000
vt -245.7833 0.0000
vt -245.7833 2.1333
vt -243.5500 2.1333
vt 4.8833 0.0000
vt 7.1167 0.0000
vt 7.1167 2.1333
vt 4.8833 2.1333
vt 7.1167 0.0000
vt 4.8833 0.0000
vt 4.8833 2.1333
vt 7.1167 2.1333
vt -243.7833 4.8833
vt -243.7833 7.1167
vt -241.5500 7.1167
vt -241.5500 4.8833
vt -243.7833 4.8833
vt -241.5500 4.8833
vt -241.5500 7.1167
vt -243.7833 7.1167
vt -243.7833 0.0000
vt -241.5500 0.0000
vt -241.5500 2.1333
vt -243.7833 2.1333
vt -241.5500 0.0000
vt -243.7833 0.0000
vt -243.7833 2.1333
vt -241.5500 2.1333
vt 4.8833 0.0000
vt 7.1167 0.0000
vt 7.1167 2.1333
vt 4.8833 2.1333
vt 7.1167 0.0000
vt 4.8833 0.0000
vt 4.8833 2.1333
vt 7.1167 2.1333
vt -245.7833 12.8833
vt -245.7833 15.1167
vt -243.5500 15.1167
vt -243.5500 12.8833
vt -245.7833 12.8833
vt -243.5500 12.8833
vt -243.5500 15.1167
vt -245.7833 15.1167
vt -245.7833 0.0000
vt -243.5500 0.0000
vt -243.5500 2.1333
vt -245.7833 2.1333
vt -243.5500 0.0000
vt -245.7833 0.0000
vt -245.7833 2.1333
vt -243.5500 2.1333
vt 12.8833 0.0000
vt 15.1167 0.0000
vt 15.1167 2.1333
vt 12.8833 2.1333
vt 15.1167 0.0000
vt 12.8833 0.0000
vt 12.8833 2.1333
vt 15.1167 2.1333
vt -245.7833 14.8833
vt -245.7833 17.1167
vt -243.5500 17.1167
vt -243.5500 14.8833
vt -245.7833 14.8833
vt -243.5500 14.8833
vt -243.5500 17.1167
vt -245.7833 17.1167
vt -245.7833 0.0000
vt -243.5500 0.0000
vt -243.5500 2.1333
vt -245.7833 2.1333
vt -243.5500 0.0000
vt -245.7833 0.0000
vt -245.7833 2.1333
vt -243.5500 2.1333
vt 14.8833 0.0000
vt 17.1167 0.0000
vt 17.1167 2.1333
vt 14.8833 2.1333
vt 17.1167 0.0000
vt 14.8833 0.0000
vt 14.8833 2.1333
vt 17.1167 2.1333
vt -245.7833 16.8833
vt -245.7833 19.1167
vt -243.5500 19.1167
vt -243.5500 16.8833
vt -245.7833 16.8833
vt -243.5500 16.8833
vt -243.5500 19.1167
vt -245.7833 19.1167
vt -245.7833 0.0000
vt -243.5500 0.0000
vt -243.5500 2.1333
vt -245.7833 2.1333
vt -243.5500 0.0000
vt -245.7833 0.0000
vt -245.7833 2.1333
vt -243.5500 2.1333
vt 16.8833 0.0000
vt 19.1167 0.0000
vt 19.1167 2.1333
vt 16.8833 2.1333
vt 19.1167 0.0000
vt 16.8833 0.0000
vt 16.8833 2.1333
vt 19.1167 2.1333
vt -243.7833 16.8833
vt -243.7833 19.1167
vt -241.5500 19.1167
vt -241.5500 16.8833
vt -243.7833 16.8833
vt -241.5500 16.8833
vt -241.5500 19.1167
vt -243.7833 19.1167
vt -243.7833 0.0000
vt -241.5500 0.0000
vt -241.5500 2.1333
vt -243.7833 2.1333
vt -241.5500 0.0000
vt -243.7833 0.0000
vt -243.7833 2.1333
vt -241.5500 2.1333
vt 16.8833 0.0000
vt 19.1167 0.0000
vt 19.1167 2.1333
vt 16.8833 2.1333
vt 19.1167 0.0000
vt 16.8833 0.0000
vt 16.8833 2.1333
vt 19.1167 2.1333
vt -299.1393 4.6721
vt -299.1393 5.1639
vt -297.5820 5.1639
vt -297.5820 4.6721
vt -299.1393 4.6721
vt -297.5820 4.6721
vt -297.5820 5.1639
vt -299.1393 5.1639
vt -299.1393 2.5492
vt -297.5820 2.5492
vt -297.5820 2.6148
vt -299.1393 2.6148
vt -297.5820 2.5492
vt -299.1393 2.5492
vt -299.1393 2.6148
vt -297.5820 2.6148
vt 4.6721 2.5492
vt 5.1639 2.5492
vt 5.1639 2.6148
vt 4.6721 2.6148
vt 5.1639 2.5492
vt 4.6721 2.5492
vt 4.6721 2.6148
vt 5.1639 2.6148
vt -299.1393 14.5082
vt -299.1393 15.0000
vt -297.5820 15.0000
vt -297.5820 14.5082
vt -299.1393 14.5082
vt -297.5820 14.5082
vt -297.5820 15.0000
vt -299.1393 15.0000
vt -299.1393 2.5492
vt -297.5820 2.5492
vt -297.5820 2.6148
vt -299.1393 2.6148
vt -297.5820 2.5492
vt -299.1393 2.5492
vt -299.1393 2.6148
vt -297.5820 2.6148
vt 14.5082 2.5492
vt 15.0000 2.5492
vt 15.0000 2.6148
vt 14.5082 2.6148
vt 15.0000 2.5492
vt 14.5082 2.5492
vt 14.5082 2.6148
vt 15.0000 2.6148
vt -299.1393 24.3443
vt -299.1393 24.8361
vt -297.5820 24.8361
vt -297.5820 24.3443
vt -299.1393 24.3443
vt -297.5820 24.3443
vt -297.5820 24.8361
vt -299.1393 24.8361
vt -299.1393 2.5492
vt -297.5820 2.5492
vt -297.5820 2.6148
vt -299.1393 2.6148
vt -297.5820 2.5492
vt -299.1393 2.5492
vt -299.1393 2.6148
vt -297.5820 2.6148
vt 24.3443 2.5492
vt 24.8361 2.5492
vt 24.8361 2.6148
vt 24.3443 2.6148
vt 24.8361 2.5492
vt 24.3443 2.5492
vt 24.3443 2.6148
vt 24.8361 2.6148
usemtl fluorescent
f 193 196 195 194
f 197 198 199 200
f 193 194 198 197
f 195 196 200 199
f 194 195 199 198
f 196 193 197 200
f 225 228 227 226
f 229 230 231 232
f 225 226 230 229
f 227 228 232 231
f 226 227 231 230
f 228 225 229 232
f 257 260 259 258
f 261 262 263 264
f 257 258 262 261
f 259 260 264 263
f 258 259 263 262
f 260 257 261 264
usemtl wallpaper
f 1/1 2/2 3/3 4/4
f 5/5 6/6 7/7 8/8
f 9/9 10/10 11/11 12/12
f 13/13 14/14 15/15 16/16
f 17/17 18/18 19/19 20/20
f 21/21 22/22 23/23 24/24
f 25/25 26/26 27/27 28/28
f 29/29 30/30 31/31 32/32
f 33/33 34/34 35/35 36/36
f 37/37 38/38 39/39 40/40
f 41/41 42/42 43/43 44/44
f 45/45 46/46 47/47 48/48
f 49/49 50/50 51/51 52/52
f 53/53 54/54 55/55 56/56
f 57/57 58/58 59/59 60/60
f 61/61 62/62 63/63 64/64
f 65/65 66/66 67/67 68/68
f 69/69 70/70 71/71 72/72
f 73/73 74/74 75/75 76/76
f 77/77 78/78 79/79 80/80
f 81/81 82/82 83/83 84/84
f 85/85 86/86 87/87 88/88
f 89/89 90/90 91/91 92/92
f 93/93 94/94 95/95 96/96
f 97/97 98/98 99/99 100/100
f 101/101 102/102 103/103 104/104
f 105/105 106/106 107/107 108/108
f 109/109 110/110 111/111 112/112
f 113/113 114/114 115/115 116/116
f 117/117 118/118 119/119 120/120
f 121/121 122/122 123/123 124/124
f 125/125 126/126 127/127 128/128
f 129/129 130/130 131/131 132/132
f 133/133 134/134 135/135 136/136
f 137/137 138/138 139/139 140/140
f 141/141 142/142 143/143 144/144
f 145/145 146/146 147/147 148/148
f 149/149 150/150 151/151 152/152
f 153/153 154/154 155/155 156/156
f 157/157 158/158 159/159 160/160
f 161/161 162/162 163/163 164/164
f 165/165 166/166 167/167 168/168
f 169/169 170/170 171/171 172/172
f 173/173 174/174 175/175 176/176
f 177/177 178/178 179/179 180/180
f 181/181 182/182 183/183 184/184
f 185/185 186/186 187/187 188/188
f 189/189 190/190 191/191 192/192
usemtl ceiling_tile
f 201/193 202/194 203/195 204/196
f 205/197 206/198 207/199 208/200
f 209/201 210/202 211/203 212/204
f 213/205 214/206 215/207 216/208
f 217/209 218/210 219/211 220/212
f 221/213 222/214 223/215 224/216
f 233/217 234/218 235/219 236/220
f 237/221 238/222 239/223 240/224
f 241/225 242/226 243/227 244/228
f 245/229 246/230 247/231 248/232
f 249/233 250/234 251/235 252/236
f 253/237 254/238 255/239 256/240
f 265/241 266/242 267/243 268/244
f 269/245 270/246 271/247 272/248
f 273/249 274/250 275/251 276/252
f 277/253 278/254 279/255 280/256
f 281/257 282/258 283/259 284/260
f 285/261 286/262 287/263 288/264
