# RoastEngine Backrooms level
mtllib backrooms.mtl
v 348.5750 0.0000 -23.9250
v 351.4250 0.0000 -23.9250
v 351.4250 0.0000 -21.0750
v 348.5750 0.0000 -21.0750
v 348.5750 3.0000 -23.9250
v 351.4250 3.0000 -23.9250
v 351.4250 3.0000 -21.0750
v 348.5750 3.0000 -21.0750
v 351.0750 0.0000 -23.9250
v 351.0750 0.0000 -21.0750
v 353.9250 0.0000 -21.0750
v 353.9250 0.0000 -23.9250
v 351.0750 3.0000 -23.9250
v 353.9250 3.0000 -23.9250
v 353.9250 3.0000 -21.0750
v 351.0750 3.0000 -21.0750
v 351.0750 0.0000 -23.9250
v 353.9250 0.0000 -23.9250
v 353.9250 3.0000 -23.9250
v 351.0750 3.0000 -23.9250
v 353.9250 0.0000 -21.0750
v 351.0750 0.0000 -21.0750
v 351.0750 3.0000 -21.0750
v 353.9250 3.0000 -21.0750
v 353.9250 0.0000 -23.9250
v 353.9250 0.0000 -21.0750
v 353.9250 3.0000 -21.0750
v 353.9250 3.0000 -23.9250
v 351.0750 0.0000 -21.0750
v 351.0750 0.0000 -23.9250
v 351.0750 3.0000 -23.9250
v 351.0750 3.0000 -21.0750
v 353.5750 0.0000 -23.9250
v 353.5750 0.0000 -21.0750
v 356.4250 0.0000 -21.0750
v 356.4250 0.0000 -23.9250
v 353.5750 3.0000 -23.9250
v 356.4250 3.0000 -23.9250
v 356.4250 3.0000 -21.0750
v 353.5750 3.0000 -21.0750
v 353.5750 0.0000 -23.9250
v 356.4250 0.0000 -23.9250
v 356.4250 3.0000 -23.9250
v 353.5750 3.0000 -23.9250
v 356.4250 0.0000 -21.0750
v 353.5750 0.0000 -21.0750
v 353.5750 3.0000 -21.0750
v 356.4250 3.0000 -21.0750
v 356.4250 0.0000 -23.9250
v 356.4250 0.0000 -21.0750
v 356.4250 3.0000 -21.0750
v 356.4250 3.0000 -23.9250
v 353.5750 0.0000 -21.0750
v 353.5750 0.0000 -23.9250
v 353.5750 3.0000 -23.9250
v 353.5750 3.0000 -21.0750
v 356.0750 0.0000 -23.9250
v 356.0750 0.0000 -21.0750
v 358.9250 0.0000 -21.0750
v 358.9250 0.0000 -23.9250
v 356.0750 3.0000 -23.9250
v 358.9250 3.0000 -23.9250
v 358.9250 3.0000 -21.0750
v 356.0750 3.0000 -21.0750
v 356.0750 0.0000 -23.9250
v 358.9250 0.0000 -23.9250
v 358.9250 3.0000 -23.9250
v 356.0750 3.0000 -23.9250
v 358.9250 0.0000 -21.0750
v 356.0750 0.0000 -21.0750
v 356.0750 3.0000 -21.0750
v 358.9250 3.0000 -21.0750
v 358.9250 0.0000 -23.9250
v 358.9250 0.0000 -21.0750
v 358.9250 3.0000 -21.0750
v 358.9250 3.0000 -23.9250
v 356.0750 0.0000 -21.0750
v 356.0750 0.0000 -23.9250
v 356.0750 3.0000 -23.9250
v 356.0750 3.0000 -21.0750
v 361.0750 0.0000 -23.9250
v 361.0750 0.0000 -21.0750
v 363.9250 0.0000 -21.0750
v 363.9250 0.0000 -23.9250
v 361.0750 3.0000 -23.9250
v 363.9250 3.0000 -23.9250
v 363.9250 3.0000 -21.0750
v 361.0750 3.0000 -21.0750
v 361.0750 0.0000 -23.9250
v 363.9250 0.0000 -23.9250
v 363.9250 3.0000 -23.9250
v 361.0750 3.0000 -23.9250
v 363.9250 0.0000 -21.0750
v 361.0750 0.0000 -21.0750
v 361.0750 3.0000 -21.0750
v 363.9250 3.0000 -21.0750
v 363.9250 0.0000 -23.9250
v 363.9250 0.0000 -21.0750
v 363.9250 3.0000 -21.0750
v 363.9250 3.0000 -23.9250
v 361.0750 0.0000 -21.0750
v 361.0750 0.0000 -23.9250
v 361.0750 3.0000 -23.9250
v 361.0750 3.0000 -21.0750
v 363.5750 0.0000 -23.9250
v 363.5750 0.0000 -21.0750
v 366.4250 0.0000 -21.0750
v 366.4250 0.0000 -23.9250
v 363.5750 3.0000 -23.9250
v 366.4250 3.0000 -23.9250
v 366.4250 3.0000 -21.0750
v 363.5750 3.0000 -21.0750
v 363.5750 0.0000 -23.9250
v 366.4250 0.0000 -23.9250
v 366.4250 3.0000 -23.9250
v 363.5750 3.0000 -23.9250
v 366.4250 0.0000 -21.0750
v 363.5750 0.0000 -21.0750
v 363.5750 3.0000 -21.0750
v 366.4250 3.0000 -21.0750
v 366.4250 0.0000 -23.9250
v 366.4250 0.0000 -21.0750
v 366.4250 3.0000 -21.0750
v 366.4250 3.0000 -23.9250
v 363.5750 0.0000 -21.0750
v 363.5750 0.0000 -23.9250
v 363.5750 3.0000 -23.9250
v 363.5750 3.0000 -21.0750
v 366.0750 0.0000 -23.9250
v 366.0750 0.0000 -21.0750
v 368.9250 0.0000 -21.0750
v 368.9250 0.0000 -23.9250
v 366.0750 3.0000 -23.9250
v 368.9250 3.0000 -23.9250
v 368.9250 3.0000 -21.0750
v 366.0750 3.0000 -21.0750
v 366.0750 0.0000 -23.9250
v 368.9250 0.0000 -23.9250
v 368.9250 3.0000 -23.9250
v 366.0750 3.0000 -23.9250
v 368.9250 0.0000 -21.0750
v 366.0750 0.0000 -21.0750
v 366.0750 3.0000 -21.0750
v 368.9250 3.0000 -21.0750
v 368.9250 0.0000 -23.9250
v 368.9250 0.0000 -21.0750
v 368.9250 3.0000 -21.0750
v 368.9250 3.0000 -23.9250
v 366.0750 0.0000 -21.0750
v 366.0750 0.0000 -23.9250
v 366.0750 3.0000 -23.9250
v 366.0750 3.0000 -21.0750
v 371.0750 0.0000 -23.9250
v 371.0750 0.0000 -21.0750
v 373.9250 0.0000 -21.0750
v 373.9250 0.0000 -23.9250
v 371.0750 3.0000 -23.9250
v 373.9250 3.0000 -23.9250
v 373.9250 3.0000 -21.0750
v 371.0750 3.0000 -21.0750
v 371.0750 0.0000 -23.9250
v 373.9250 0.0000 -23.9250
v 373.9250 3.0000 -23.9250
v 371.0750 3.0000 -23.9250
v 373.9250 0.0000 -21.0750
v 371.0750 0.0000 -21.0750
v 371.0750 3.0000 -21.0750
v 373.9250 3.0000 -21.0750
v 373.9250 0.0000 -23.9250
v 373.9250 0.0000 -21.0750
v 373.9250 3.0000 -21.0750
v 373.9250 3.0000 -23.9250
v 371.0750 0.0000 -21.0750
v 371.0750 0.0000 -23.9250
v 371.0750 3.0000 -23.9250
v 371.0750 3.0000 -21.0750
v 356.0750 0.0000 -21.4250
v 358.9250 0.0000 -21.4250
v 358.9250 0.0000 -18.5750
v 356.0750 0.0000 -18.5750
v 356.0750 3.0000 -21.4250
v 358.9250 3.0000 -21.4250
v 358.9250 3.0000 -18.5750
v 356.0750 3.0000 -18.5750
v 361.0750 0.0000 -21.4250
v 361.0750 0.0000 -18.5750
v 363.9250 0.0000 -18.5750
v 363.9250 0.0000 -21.4250
v 361.0750 3.0000 -21.4250
v 363.9250 3.0000 -21.4250
v 363.9250 3.0000 -18.5750
v 361.0750 3.0000 -18.5750
v 361.0750 0.0000 -21.4250
v 363.9250 0.0000 -21.4250
v 363.9250 3.0000 -21.4250
v 361.0750 3.0000 -21.4250
v 363.9250 0.0000 -18.5750
v 361.0750 0.0000 -18.5750
v 361.0750 3.0000 -18.5750
v 363.9250 3.0000 -18.5750
v 363.9250 0.0000 -21.4250
v 363.9250 0.0000 -18.5750
v 363.9250 3.0000 -18.5750
v 363.9250 3.0000 -21.4250
v 361.0750 0.0000 -18.5750
v 361.0750 0.0000 -21.4250
v 361.0750 3.0000 -21.4250
v 361.0750 3.0000 -18.5750
v 371.0750 0.0000 -21.4250
v 373.9250 0.0000 -21.4250
v 373.9250 0.0000 -18.5750
v 371.0750 0.0000 -18.5750
v 371.0750 3.0000 -21.4250
v 373.9250 3.0000 -21.4250
v 373.9250 3.0000 -18.5750
v 371.0750 3.0000 -18.5750
v 351.0750 0.0000 -18.9250
v 351.0750 0.0000 -16.0750
v 353.9250 0.0000 -16.0750
v 353.9250 0.0000 -18.9250
v 351.0750 3.0000 -18.9250
v 353.9250 3.0000 -18.9250
v 353.9250 3.0000 -16.0750
v 351.0750 3.0000 -16.0750
v 351.0750 0.0000 -18.9250
v 353.9250 0.0000 -18.9250
v 353.9250 3.0000 -18.9250
v 351.0750 3.0000 -18.9250
v 353.9250 0.0000 -16.0750
v 351.0750 0.0000 -16.0750
v 351.0750 3.0000 -16.0750
v 353.9250 3.0000 -16.0750
v 353.9250 0.0000 -18.9250
v 353.9250 0.0000 -16.0750
v 353.9250 3.0000 -16.0750
v 353.9250 3.0000 -18.9250
v 351.0750 0.0000 -16.0750
v 351.0750 0.0000 -18.9250
v 351.0750 3.0000 -18.9250
v 351.0750 3.0000 -16.0750
v 356.0750 0.0000 -18.9250
v 356.0750 0.0000 -16.0750
v 358.9250 0.0000 -16.0750
v 358.9250 0.0000 -18.9250
v 356.0750 3.0000 -18.9250
v 358.9250 3.0000 -18.9250
v 358.9250 3.0000 -16.0750
v 356.0750 3.0000 -16.0750
v 356.0750 0.0000 -18.9250
v 358.9250 0.0000 -18.9250
v 358.9250 3.0000 -18.9250
v 356.0750 3.0000 -18.9250
v 358.9250 0.0000 -16.0750
v 356.0750 0.0000 -16.0750
v 356.0750 3.0000 -16.0750
v 358.9250 3.0000 -16.0750
v 358.9250 0.0000 -18.9250
v 358.9250 0.0000 -16.0750
v 358.9250 3.0000 -16.0750
v 358.9250 3.0000 -18.9250
v 356.0750 0.0000 -16.0750
v 356.0750 0.0000 -18.9250
v 356.0750 3.0000 -18.9250
v 356.0750 3.0000 -16.0750
v 361.0750 0.0000 -18.9250
v 361.0750 0.0000 -16.0750
v 363.9250 0.0000 -16.0750
v 363.9250 0.0000 -18.9250
v 361.0750 3.0000 -18.9250
v 363.9250 3.0000 -18.9250
v 363.9250 3.0000 -16.0750
v 361.0750 3.0000 -16.0750
v 361.0750 0.0000 -18.9250
v 363.9250 0.0000 -18.9250
v 363.9250 3.0000 -18.9250
v 361.0750 3.0000 -18.9250
v 363.9250 0.0000 -16.0750
v 361.0750 0.0000 -16.0750
v 361.0750 3.0000 -16.0750
v 363.9250 3.0000 -16.0750
v 363.9250 0.0000 -18.9250
v 363.9250 0.0000 -16.0750
v 363.9250 3.0000 -16.0750
v 363.9250 3.0000 -18.9250
v 361.0750 0.0000 -16.0750
v 361.0750 0.0000 -18.9250
v 361.0750 3.0000 -18.9250
v 361.0750 3.0000 -16.0750
v 366.0750 0.0000 -18.9250
v 366.0750 0.0000 -16.0750
v 368.9250 0.0000 -16.0750
v 368.9250 0.0000 -18.9250
v 366.0750 3.0000 -18.9250
v 368.9250 3.0000 -18.9250
v 368.9250 3.0000 -16.0750
v 366.0750 3.0000 -16.0750
v 366.0750 0.0000 -18.9250
v 368.9250 0.0000 -18.9250
v 368.9250 3.0000 -18.9250
v 366.0750 3.0000 -18.9250
v 368.9250 0.0000 -16.0750
v 366.0750 0.0000 -16.0750
v 366.0750 3.0000 -16.0750
v 368.9250 3.0000 -16.0750
v 368.9250 0.0000 -18.9250
v 368.9250 0.0000 -16.0750
v 368.9250 3.0000 -16.0750
v 368.9250 3.0000 -18.9250
v 366.0750 0.0000 -16.0750
v 366.0750 0.0000 -18.9250
v 366.0750 3.0000 -18.9250
v 366.0750 3.0000 -16.0750
v 368.5750 0.0000 -18.9250
v 368.5750 0.0000 -16.0750
v 371.4250 0.0000 -16.0750
v 371.4250 0.0000 -18.9250
v 368.5750 3.0000 -18.9250
v 371.4250 3.0000 -18.9250
v 371.4250 3.0000 -16.0750
v 368.5750 3.0000 -16.0750
v 368.5750 0.0000 -18.9250
v 371.4250 0.0000 -18.9250
v 371.4250 3.0000 -18.9250
v 368.5750 3.0000 -18.9250
v 371.4250 0.0000 -16.0750
v 368.5750 0.0000 -16.0750
v 368.5750 3.0000 -16.0750
v 371.4250 3.0000 -16.0750
v 371.4250 0.0000 -18.9250
v 371.4250 0.0000 -16.0750
v 371.4250 3.0000 -16.0750
v 371.4250 3.0000 -18.9250
v 368.5750 0.0000 -16.0750
v 368.5750 0.0000 -18.9250
v 368.5750 3.0000 -18.9250
v 368.5750 3.0000 -16.0750
v 371.0750 0.0000 -18.9250
v 373.9250 0.0000 -18.9250
v 373.9250 0.0000 -16.0750
v 371.0750 0.0000 -16.0750
v 371.0750 3.0000 -18.9250
v 373.9250 3.0000 -18.9250
v 373.9250 3.0000 -16.0750
v 371.0750 3.0000 -16.0750
v 373.5750 0.0000 -18.9250
v 376.4250 0.0000 -18.9250
v 376.4250 0.0000 -16.0750
v 373.5750 0.0000 -16.0750
v 373.5750 3.0000 -18.9250
v 376.4250 3.0000 -18.9250
v 376.4250 3.0000 -16.0750
v 373.5750 3.0000 -16.0750
v 351.0750 0.0000 -16.4250
v 351.0750 0.0000 -13.5750
v 353.9250 0.0000 -13.5750
v 353.9250 0.0000 -16.4250
v 351.0750 3.0000 -16.4250
v 353.9250 3.0000 -16.4250
v 353.9250 3.0000 -13.5750
v 351.0750 3.0000 -13.5750
v 351.0750 0.0000 -16.4250
v 353.9250 0.0000 -16.4250
v 353.9250 3.0000 -16.4250
v 351.0750 3.0000 -16.4250
v 353.9250 0.0000 -13.5750
v 351.0750 0.0000 -13.5750
v 351.0750 3.0000 -13.5750
v 353.9250 3.0000 -13.5750
v 353.9250 0.0000 -16.4250
v 353.9250 0.0000 -13.5750
v 353.9250 3.0000 -13.5750
v 353.9250 3.0000 -16.4250
v 351.0750 0.0000 -13.5750
v 351.0750 0.0000 -16.4250
v 351.0750 3.0000 -16.4250
v 351.0750 3.0000 -13.5750
v 361.0750 0.0000 -16.4250
v 361.0750 0.0000 -13.5750
v 363.9250 0.0000 -13.5750
v 363.9250 0.0000 -16.4250
v 361.0750 3.0000 -16.4250
v 363.9250 3.0000 -16.4250
v 363.9250 3.0000 -13.5750
v 361.0750 3.0000 -13.5750
v 361.0750 0.0000 -16.4250
v 363.9250 0.0000 -16.4250
v 363.9250 3.0000 -16.4250
v 361.0750 3.0000 -16.4250
v 363.9250 0.0000 -13.5750
v 361.0750 0.0000 -13.5750
v 361.0750 3.0000 -13.5750
v 363.9250 3.0000 -13.5750
v 363.9250 0.0000 -16.4250
v 363.9250 0.0000 -13.5750
v 363.9250 3.0000 -13.5750
v 363.9250 3.0000 -16.4250
v 361.0750 0.0000 -13.5750
v 361.0750 0.0000 -16.4250
v 361.0750 3.0000 -16.4250
v 361.0750 3.0000 -13.5750
v 351.0750 0.0000 -13.9250
v 351.0750 0.0000 -11.0750
v 353.9250 0.0000 -11.0750
v 353.9250 0.0000 -13.9250
v 351.0750 3.0000 -13.9250
v 353.9250 3.0000 -13.9250
v 353.9250 3.0000 -11.0750
v 351.0750 3.0000 -11.0750
v 351.0750 0.0000 -13.9250
v 353.9250 0.0000 -13.9250
v 353.9250 3.0000 -13.9250
v 351.0750 3.0000 -13.9250
v 353.9250 0.0000 -11.0750
v 351.0750 0.0000 -11.0750
v 351.0750 3.0000 -11.0750
v 353.9250 3.0000 -11.0750
v 353.9250 0.0000 -13.9250
v 353.9250 0.0000 -11.0750
v 353.9250 3.0000 -11.0750
v 353.9250 3.0000 -13.9250
v 351.0750 0.0000 -11.0750
v 351.0750 0.0000 -13.9250
v 351.0750 3.0000 -13.9250
v 351.0750 3.0000 -11.0750
v 353.5750 0.0000 -13.9250
v 353.5750 0.0000 -11.0750
v 356.4250 0.0000 -11.0750
v 356.4250 0.0000 -13.9250
v 353.5750 3.0000 -13.9250
v 356.4250 3.0000 -13.9250
v 356.4250 3.0000 -11.0750
v 353.5750 3.0000 -11.0750
v 353.5750 0.0000 -13.9250
v 356.4250 0.0000 -13.9250
v 356.4250 3.0000 -13.9250
v 353.5750 3.0000 -13.9250
v 356.4250 0.0000 -11.0750
v 353.5750 0.0000 -11.0750
v 353.5750 3.0000 -11.0750
v 356.4250 3.0000 -11.0750
v 356.4250 0.0000 -13.9250
v 356.4250 0.0000 -11.0750
v 356.4250 3.0000 -11.0750
v 356.4250 3.0000 -13.9250
v 353.5750 0.0000 -11.0750
v 353.5750 0.0000 -13.9250
v 353.5750 3.0000 -13.9250
v 353.5750 3.0000 -11.0750
v 356.0750 0.0000 -13.9250
v 358.9250 0.0000 -13.9250
v 358.9250 0.0000 -11.0750
v 356.0750 0.0000 -11.0750
v 356.0750 3.0000 -13.9250
v 358.9250 3.0000 -13.9250
v 358.9250 3.0000 -11.0750
v 356.0750 3.0000 -11.0750
v 361.0750 0.0000 -13.9250
v 361.0750 0.0000 -11.0750
v 363.9250 0.0000 -11.0750
v 363.9250 0.0000 -13.9250
v 361.0750 3.0000 -13.9250
v 363.9250 3.0000 -13.9250
v 363.9250 3.0000 -11.0750
v 361.0750 3.0000 -11.0750
v 361.0750 0.0000 -13.9250
v 363.9250 0.0000 -13.9250
v 363.9250 3.0000 -13.9250
v 361.0750 3.0000 -13.9250
v 363.9250 0.0000 -11.0750
v 361.0750 0.0000 -11.0750
v 361.0750 3.0000 -11.0750
v 363.9250 3.0000 -11.0750
v 363.9250 0.0000 -13.9250
v 363.9250 0.0000 -11.0750
v 363.9250 3.0000 -11.0750
v 363.9250 3.0000 -13.9250
v 361.0750 0.0000 -11.0750
v 361.0750 0.0000 -13.9250
v 361.0750 3.0000 -13.9250
v 361.0750 3.0000 -11.0750
v 351.0750 0.0000 -8.9250
v 351.0750 0.0000 -6.0750
v 353.9250 0.0000 -6.0750
v 353.9250 0.0000 -8.9250
v 351.0750 3.0000 -8.9250
v 353.9250 3.0000 -8.9250
v 353.9250 3.0000 -6.0750
v 351.0750 3.0000 -6.0750
v 351.0750 0.0000 -8.9250
v 353.9250 0.0000 -8.9250
v 353.9250 3.0000 -8.9250
v 351.0750 3.0000 -8.9250
v 353.9250 0.0000 -6.0750
v 351.0750 0.0000 -6.0750
v 351.0750 3.0000 -6.0750
v 353.9250 3.0000 -6.0750
v 353.9250 0.0000 -8.9250
v 353.9250 0.0000 -6.0750
v 353.9250 3.0000 -6.0750
v 353.9250 3.0000 -8.9250
v 351.0750 0.0000 -6.0750
v 351.0750 0.0000 -8.9250
v 351.0750 3.0000 -8.9250
v 351.0750 3.0000 -6.0750
v 361.0750 0.0000 -8.9250
v 361.0750 0.0000 -6.0750
v 363.9250 0.0000 -6.0750
v 363.9250 0.0000 -8.9250
v 361.0750 3.0000 -8.9250
v 363.9250 3.0000 -8.9250
v 363.9250 3.0000 -6.0750
v 361.0750 3.0000 -6.0750
v 361.0750 0.0000 -8.9250
v 363.9250 0.0000 -8.9250
v 363.9250 3.0000 -8.9250
v 361.0750 3.0000 -8.9250
v 363.9250 0.0000 -6.0750
v 361.0750 0.0000 -6.0750
v 361.0750 3.0000 -6.0750
v 363.9250 3.0000 -6.0750
v 363.9250 0.0000 -8.9250
v 363.9250 0.0000 -6.0750
v 363.9250 3.0000 -6.0750
v 363.9250 3.0000 -8.9250
v 361.0750 0.0000 -6.0750
v 361.0750 0.0000 -8.9250
v 361.0750 3.0000 -8.9250
v 361.0750 3.0000 -6.0750
v 371.0750 0.0000 -8.9250
v 371.0750 0.0000 -6.0750
v 373.9250 0.0000 -6.0750
v 373.9250 0.0000 -8.9250
v 371.0750 3.0000 -8.9250
v 373.9250 3.0000 -8.9250
v 373.9250 3.0000 -6.0750
v 371.0750 3.0000 -6.0750
v 371.0750 0.0000 -8.9250
v 373.9250 0.0000 -8.9250
v 373.9250 3.0000 -8.9250
v 371.0750 3.0000 -8.9250
v 373.9250 0.0000 -6.0750
v 371.0750 0.0000 -6.0750
v 371.0750 3.0000 -6.0750
v 373.9250 3.0000 -6.0750
v 373.9250 0.0000 -8.9250
v 373.9250 0.0000 -6.0750
v 373.9250 3.0000 -6.0750
v 373.9250 3.0000 -8.9250
v 371.0750 0.0000 -6.0750
v 371.0750 0.0000 -8.9250
v 371.0750 3.0000 -8.9250
v 371.0750 3.0000 -6.0750
v 373.5750 0.0000 -8.9250
v 373.5750 0.0000 -6.0750
v 376.4250 0.0000 -6.0750
v 376.4250 0.0000 -8.9250
v 373.5750 3.0000 -8.9250
v 376.4250 3.0000 -8.9250
v 376.4250 3.0000 -6.0750
v 373.5750 3.0000 -6.0750
v 373.5750 0.0000 -8.9250
v 376.4250 0.0000 -8.9250
v 376.4250 3.0000 -8.9250
v 373.5750 3.0000 -8.9250
v 376.4250 0.0000 -6.0750
v 373.5750 0.0000 -6.0750
v 373.5750 3.0000 -6.0750
v 376.4250 3.0000 -6.0750
v 376.4250 0.0000 -8.9250
v 376.4250 0.0000 -6.0750
v 376.4250 3.0000 -6.0750
v 376.4250 3.0000 -8.9250
v 373.5750 0.0000 -6.0750
v 373.5750 0.0000 -8.9250
v 373.5750 3.0000 -8.9250
v 373.5750 3.0000 -6.0750
v 351.0750 0.0000 -6.4250
v 353.9250 0.0000 -6.4250
v 353.9250 0.0000 -3.5750
v 351.0750 0.0000 -3.5750
v 351.0750 3.0000 -6.4250
v 353.9250 3.0000 -6.4250
v 353.9250 3.0000 -3.5750
v 351.0750 3.0000 -3.5750
v 361.0750 0.0000 -6.4250
v 361.0750 0.0000 -3.5750
v 363.9250 0.0000 -3.5750
v 363.9250 0.0000 -6.4250
v 361.0750 3.0000 -6.4250
v 363.9250 3.0000 -6.4250
v 363.9250 3.0000 -3.5750
v 361.0750 3.0000 -3.5750
v 361.0750 0.0000 -6.4250
v 363.9250 0.0000 -6.4250
v 363.9250 3.0000 -6.4250
v 361.0750 3.0000 -6.4250
v 363.9250 0.0000 -3.5750
v 361.0750 0.0000 -3.5750
v 361.0750 3.0000 -3.5750
v 363.9250 3.0000 -3.5750
v 363.9250 0.0000 -6.4250
v 363.9250 0.0000 -3.5750
v 363.9250 3.0000 -3.5750
v 363.9250 3.0000 -6.4250
v 361.0750 0.0000 -3.5750
v 361.0750 0.0000 -6.4250
v 361.0750 3.0000 -6.4250
v 361.0750 3.0000 -3.5750
v 371.0750 0.0000 -6.4250
v 371.0750 0.0000 -3.5750
v 373.9250 0.0000 -3.5750
v 373.9250 0.0000 -6.4250
v 371.0750 3.0000 -6.4250
v 373.9250 3.0000 -6.4250
v 373.9250 3.0000 -3.5750
v 371.0750 3.0000 -3.5750
v 371.0750 0.0000 -6.4250
v 373.9250 0.0000 -6.4250
v 373.9250 3.0000 -6.4250
v 371.0750 3.0000 -6.4250
v 373.9250 0.0000 -3.5750
v 371.0750 0.0000 -3.5750
v 371.0750 3.0000 -3.5750
v 373.9250 3.0000 -3.5750
v 373.9250 0.0000 -6.4250
v 373.9250 0.0000 -3.5750
v 373.9250 3.0000 -3.5750
v 373.9250 3.0000 -6.4250
v 371.0750 0.0000 -3.5750
v 371.0750 0.0000 -6.4250
v 371.0750 3.0000 -6.4250
v 371.0750 3.0000 -3.5750
v 351.0750 0.0000 -3.9250
v 351.0750 0.0000 -1.0750
v 353.9250 0.0000 -1.0750
v 353.9250 0.0000 -3.9250
v 351.0750 3.0000 -3.9250
v 353.9250 3.0000 -3.9250
v 353.9250 3.0000 -1.0750
v 351.0750 3.0000 -1.0750
v 351.0750 0.0000 -3.9250
v 353.9250 0.0000 -3.9250
v 353.9250 3.0000 -3.9250
v 351.0750 3.0000 -3.9250
v 353.9250 0.0000 -1.0750
v 351.0750 0.0000 -1.0750
v 351.0750 3.0000 -1.0750
v 353.9250 3.0000 -1.0750
v 353.9250 0.0000 -3.9250
v 353.9250 0.0000 -1.0750
v 353.9250 3.0000 -1.0750
v 353.9250 3.0000 -3.9250
v 351.0750 0.0000 -1.0750
v 351.0750 0.0000 -3.9250
v 351.0750 3.0000 -3.9250
v 351.0750 3.0000 -1.0750
v 353.5750 0.0000 -3.9250
v 356.4250 0.0000 -3.9250
v 356.4250 0.0000 -1.0750
v 353.5750 0.0000 -1.0750
v 353.5750 3.0000 -3.9250
v 356.4250 3.0000 -3.9250
v 356.4250 3.0000 -1.0750
v 353.5750 3.0000 -1.0750
v 356.0750 0.0000 -3.9250
v 356.0750 0.0000 -1.0750
v 358.9250 0.0000 -1.0750
v 358.9250 0.0000 -3.9250
v 356.0750 3.0000 -3.9250
v 358.9250 3.0000 -3.9250
v 358.9250 3.0000 -1.0750
v 356.0750 3.0000 -1.0750
v 356.0750 0.0000 -3.9250
v 358.9250 0.0000 -3.9250
v 358.9250 3.0000 -3.9250
v 356.0750 3.0000 -3.9250
v 358.9250 0.0000 -1.0750
v 356.0750 0.0000 -1.0750
v 356.0750 3.0000 -1.0750
v 358.9250 3.0000 -1.0750
v 358.9250 0.0000 -3.9250
v 358.9250 0.0000 -1.0750
v 358.9250 3.0000 -1.0750
v 358.9250 3.0000 -3.9250
v 356.0750 0.0000 -1.0750
v 356.0750 0.0000 -3.9250
v 356.0750 3.0000 -3.9250
v 356.0750 3.0000 -1.0750
v 361.0750 0.0000 -3.9250
v 363.9250 0.0000 -3.9250
v 363.9250 0.0000 -1.0750
v 361.0750 0.0000 -1.0750
v 361.0750 3.0000 -3.9250
v 363.9250 3.0000 -3.9250
v 363.9250 3.0000 -1.0750
v 361.0750 3.0000 -1.0750
v 366.0750 0.0000 -3.9250
v 366.0750 0.0000 -1.0750
v 368.9250 0.0000 -1.0750
v 368.9250 0.0000 -3.9250
v 366.0750 3.0000 -3.9250
v 368.9250 3.0000 -3.9250
v 368.9250 3.0000 -1.0750
v 366.0750 3.0000 -1.0750
v 366.0750 0.0000 -3.9250
v 368.9250 0.0000 -3.9250
v 368.9250 3.0000 -3.9250
v 366.0750 3.0000 -3.9250
v 368.9250 0.0000 -1.0750
v 366.0750 0.0000 -1.0750
v 366.0750 3.0000 -1.0750
v 368.9250 3.0000 -1.0750
v 368.9250 0.0000 -3.9250
v 368.9250 0.0000 -1.0750
v 368.9250 3.0000 -1.0750
v 368.9250 3.0000 -3.9250
v 366.0750 0.0000 -1.0750
v 366.0750 0.0000 -3.9250
v 366.0750 3.0000 -3.9250
v 366.0750 3.0000 -1.0750
v 371.0750 0.0000 -3.9250
v 371.0750 0.0000 -1.0750
v 373.9250 0.0000 -1.0750
v 373.9250 0.0000 -3.9250
v 371.0750 3.0000 -3.9250
v 373.9250 3.0000 -3.9250
v 373.9250 3.0000 -1.0750
v 371.0750 3.0000 -1.0750
v 371.0750 0.0000 -3.9250
v 373.9250 0.0000 -3.9250
v 373.9250 3.0000 -3.9250
v 371.0750 3.0000 -3.9250
v 373.9250 0.0000 -1.0750
v 371.0750 0.0000 -1.0750
v 371.0750 3.0000 -1.0750
v 373.9250 3.0000 -1.0750
v 373.9250 0.0000 -3.9250
v 373.9250 0.0000 -1.0750
v 373.9250 3.0000 -1.0750
v 373.9250 3.0000 -3.9250
v 371.0750 0.0000 -1.0750
v 371.0750 0.0000 -3.9250
v 371.0750 3.0000 -3.9250
v 371.0750 3.0000 -1.0750
v 351.0750 0.0000 -1.4250
v 351.0750 0.0000 1.4250
v 353.9250 0.0000 1.4250
v 353.9250 0.0000 -1.4250
v 351.0750 3.0000 -1.4250
v 353.9250 3.0000 -1.4250
v 353.9250 3.0000 1.4250
v 351.0750 3.0000 1.4250
v 351.0750 0.0000 -1.4250
v 353.9250 0.0000 -1.4250
v 353.9250 3.0000 -1.4250
v 351.0750 3.0000 -1.4250
v 353.9250 0.0000 1.4250
v 351.0750 0.0000 1.4250
v 351.0750 3.0000 1.4250
v 353.9250 3.0000 1.4250
v 353.9250 0.0000 -1.4250
v 353.9250 0.0000 1.4250
v 353.9250 3.0000 1.4250
v 353.9250 3.0000 -1.4250
v 351.0750 0.0000 1.4250
v 351.0750 0.0000 -1.4250
v 351.0750 3.0000 -1.4250
v 351.0750 3.0000 1.4250
v 356.0750 0.0000 -1.4250
v 356.0750 0.0000 1.4250
v 358.9250 0.0000 1.4250
v 358.9250 0.0000 -1.4250
v 356.0750 3.0000 -1.4250
v 358.9250 3.0000 -1.4250
v 358.9250 3.0000 1.4250
v 356.0750 3.0000 1.4250
v 356.0750 0.0000 -1.4250
v 358.9250 0.0000 -1.4250
v 358.9250 3.0000 -1.4250
v 356.0750 3.0000 -1.4250
v 358.9250 0.0000 1.4250
v 356.0750 0.0000 1.4250
v 356.0750 3.0000 1.4250
v 358.9250 3.0000 1.4250
v 358.9250 0.0000 -1.4250
v 358.9250 0.0000 1.4250
v 358.9250 3.0000 1.4250
v 358.9250 3.0000 -1.4250
v 356.0750 0.0000 1.4250
v 356.0750 0.0000 -1.4250
v 356.0750 3.0000 -1.4250
v 356.0750 3.0000 1.4250
v 366.0750 0.0000 -1.4250
v 366.0750 0.0000 1.4250
v 368.9250 0.0000 1.4250
v 368.9250 0.0000 -1.4250
v 366.0750 3.0000 -1.4250
v 368.9250 3.0000 -1.4250
v 368.9250 3.0000 1.4250
v 366.0750 3.0000 1.4250
v 366.0750 0.0000 -1.4250
v 368.9250 0.0000 -1.4250
v 368.9250 3.0000 -1.4250
v 366.0750 3.0000 -1.4250
v 368.9250 0.0000 1.4250
v 366.0750 0.0000 1.4250
v 366.0750 3.0000 1.4250
v 368.9250 3.0000 1.4250
v 368.9250 0.0000 -1.4250
v 368.9250 0.0000 1.4250
v 368.9250 3.0000 1.4250
v 368.9250 3.0000 -1.4250
v 366.0750 0.0000 1.4250
v 366.0750 0.0000 -1.4250
v 366.0750 3.0000 -1.4250
v 366.0750 3.0000 1.4250
v 351.0750 0.0000 1.0750
v 351.0750 0.0000 3.9250
v 353.9250 0.0000 3.9250
v 353.9250 0.0000 1.0750
v 351.0750 3.0000 1.0750
v 353.9250 3.0000 1.0750
v 353.9250 3.0000 3.9250
v 351.0750 3.0000 3.9250
v 351.0750 0.0000 1.0750
v 353.9250 0.0000 1.0750
v 353.9250 3.0000 1.0750
v 351.0750 3.0000 1.0750
v 353.9250 0.0000 3.9250
v 351.0750 0.0000 3.9250
v 351.0750 3.0000 3.9250
v 353.9250 3.0000 3.9250
v 353.9250 0.0000 1.0750
v 353.9250 0.0000 3.9250
v 353.9250 3.0000 3.9250
v 353.9250 3.0000 1.0750
v 351.0750 0.0000 3.9250
v 351.0750 0.0000 1.0750
v 351.0750 3.0000 1.0750
v 351.0750 3.0000 3.9250
v 356.0750 0.0000 1.0750
v 358.9250 0.0000 1.0750
v 358.9250 0.0000 3.9250
v 356.0750 0.0000 3.9250
v 356.0750 3.0000 1.0750
v 358.9250 3.0000 1.0750
v 358.9250 3.0000 3.9250
v 356.0750 3.0000 3.9250
v 361.0750 0.0000 1.0750
v 361.0750 0.0000 3.9250
v 363.9250 0.0000 3.9250
v 363.9250 0.0000 1.0750
v 361.0750 3.0000 1.0750
v 363.9250 3.0000 1.0750
v 363.9250 3.0000 3.9250
v 361.0750 3.0000 3.9250
v 361.0750 0.0000 1.0750
v 363.9250 0.0000 1.0750
v 363.9250 3.0000 1.0750
v 361.0750 3.0000 1.0750
v 363.9250 0.0000 3.9250
v 361.0750 0.0000 3.9250
v 361.0750 3.0000 3.9250
v 363.9250 3.0000 3.9250
v 363.9250 0.0000 1.0750
v 363.9250 0.0000 3.9250
v 363.9250 3.0000 3.9250
v 363.9250 3.0000 1.0750
v 361.0750 0.0000 3.9250
v 361.0750 0.0000 1.0750
v 361.0750 3.0000 1.0750
v 361.0750 3.0000 3.9250
v 366.0750 0.0000 1.0750
v 366.0750 0.0000 3.9250
v 368.9250 0.0000 3.9250
v 368.9250 0.0000 1.0750
v 366.0750 3.0000 1.0750
v 368.9250 3.0000 1.0750
v 368.9250 3.0000 3.9250
v 366.0750 3.0000 3.9250
v 366.0750 0.0000 1.0750
v 368.9250 0.0000 1.0750
v 368.9250 3.0000 1.0750
v 366.0750 3.0000 1.0750
v 368.9250 0.0000 3.9250
v 366.0750 0.0000 3.9250
v 366.0750 3.0000 3.9250
v 368.9250 3.0000 3.9250
v 368.9250 0.0000 1.0750
v 368.9250 0.0000 3.9250
v 368.9250 3.0000 3.9250
v 368.9250 3.0000 1.0750
v 366.0750 0.0000 3.9250
v 366.0750 0.0000 1.0750
v 366.0750 3.0000 1.0750
v 366.0750 3.0000 3.9250
v 371.0750 0.0000 1.0750
v 371.0750 0.0000 3.9250
v 373.9250 0.0000 3.9250
v 373.9250 0.0000 1.0750
v 371.0750 3.0000 1.0750
v 373.9250 3.0000 1.0750
v 373.9250 3.0000 3.9250
v 371.0750 3.0000 3.9250
v 371.0750 0.0000 1.0750
v 373.9250 0.0000 1.0750
v 373.9250 3.0000 1.0750
v 371.0750 3.0000 1.0750
v 373.9250 0.0000 3.9250
v 371.0750 0.0000 3.9250
v 371.0750 3.0000 3.9250
v 373.9250 3.0000 3.9250
v 373.9250 0.0000 1.0750
v 373.9250 0.0000 3.9250
v 373.9250 3.0000 3.9250
v 373.9250 3.0000 1.0750
v 371.0750 0.0000 3.9250
v 371.0750 0.0000 1.0750
v 371.0750 3.0000 1.0750
v 371.0750 3.0000 3.9250
v 373.5750 0.0000 1.0750
v 376.4250 0.0000 1.0750
v 376.4250 0.0000 3.9250
v 373.5750 0.0000 3.9250
v 373.5750 3.0000 1.0750
v 376.4250 3.0000 1.0750
v 376.4250 3.0000 3.9250
v 373.5750 3.0000 3.9250
v 356.0750 0.0000 3.5750
v 356.0750 0.0000 6.4250
v 358.9250 0.0000 6.4250
v 358.9250 0.0000 3.5750
v 356.0750 3.0000 3.5750
v 358.9250 3.0000 3.5750
v 358.9250 3.0000 6.4250
v 356.0750 3.0000 6.4250
v 356.0750 0.0000 3.5750
v 358.9250 0.0000 3.5750
v 358.9250 3.0000 3.5750
v 356.0750 3.0000 3.5750
v 358.9250 0.0000 6.4250
v 356.0750 0.0000 6.4250
v 356.0750 3.0000 6.4250
v 358.9250 3.0000 6.4250
v 358.9250 0.0000 3.5750
v 358.9250 0.0000 6.4250
v 358.9250 3.0000 6.4250
v 358.9250 3.0000 3.5750
v 356.0750 0.0000 6.4250
v 356.0750 0.0000 3.5750
v 356.0750 3.0000 3.5750
v 356.0750 3.0000 6.4250
v 361.0750 0.0000 3.5750
v 363.9250 0.0000 3.5750
v 363.9250 0.0000 6.4250
v 361.0750 0.0000 6.4250
v 361.0750 3.0000 3.5750
v 363.9250 3.0000 3.5750
v 363.9250 3.0000 6.4250
v 361.0750 3.0000 6.4250
v 349.8250 2.7600 -20.1750
v 350.1750 2.7600 -20.1750
v 350.1750 2.7600 -19.8250
v 349.8250 2.7600 -19.8250
v 349.8250 2.8800 -20.1750
v 350.1750 2.8800 -20.1750
v 350.1750 2.8800 -19.8250
v 349.8250 2.8800 -19.8250
v 359.8250 2.7600 -20.1750
v 360.1750 2.7600 -20.1750
v 360.1750 2.7600 -19.8250
v 359.8250 2.7600 -19.8250
v 359.8250 2.8800 -20.1750
v 360.1750 2.8800 -20.1750
v 360.1750 2.8800 -19.8250
v 359.8250 2.8800 -19.8250
v 349.8250 2.7600 -10.1750
v 350.1750 2.7600 -10.1750
v 350.1750 2.7600 -9.8250
v 349.8250 2.7600 -9.8250
v 349.8250 2.8800 -10.1750
v 350.1750 2.8800 -10.1750
v 350.1750 2.8800 -9.8250
v 349.8250 2.8800 -9.8250
v 359.8250 2.7600 -10.1750
v 360.1750 2.7600 -10.1750
v 360.1750 2.7600 -9.8250
v 359.8250 2.7600 -9.8250
v 359.8250 2.8800 -10.1750
v 360.1750 2.8800 -10.1750
v 360.1750 2.8800 -9.8250
v 359.8250 2.8800 -9.8250
v 374.8250 2.7600 -5.1750
v 375.1750 2.7600 -5.1750
v 375.1750 2.7600 -4.8250
v 374.8250 2.7600 -4.8250
v 374.8250 2.8800 -5.1750
v 375.1750 2.8800 -5.1750
v 375.1750 2.8800 -4.8250
v 374.8250 2.8800 -4.8250
v 354.8250 2.7600 -0.1750
v 355.1750 2.7600 -0.1750
v 355.1750 2.7600 0.1750
v 354.8250 2.7600 0.1750
v 354.8250 2.8800 -0.1750
v 355.1750 2.8800 -0.1750
v 355.1750 2.8800 0.1750
v 354.8250 2.8800 0.1750
v 369.8250 2.7600 -0.1750
v 370.1750 2.7600 -0.1750
v 370.1750 2.7600 0.1750
v 369.8250 2.7600 0.1750
v 369.8250 2.8800 -0.1750
v 370.1750 2.8800 -0.1750
v 370.1750 2.8800 0.1750
v 369.8250 2.8800 0.1750
v 354.8250 2.7600 4.8250
v 355.1750 2.7600 4.8250
v 355.1750 2.7600 5.1750
v 354.8250 2.7600 5.1750
v 354.8250 2.8800 4.8250
v 355.1750 2.8800 4.8250
v 355.1750 2.8800 5.1750
v 354.8250 2.8800 5.1750
v 369.8250 2.7600 4.8250
v 370.1750 2.7600 4.8250
v 370.1750 2.7600 5.1750
v 369.8250 2.7600 5.1750
v 369.8250 2.8800 4.8250
v 370.1750 2.8800 4.8250
v 370.1750 2.8800 5.1750
v 369.8250 2.8800 5.1750
v 374.8250 2.7600 4.8250
v 375.1750 2.7600 4.8250
v 375.1750 2.7600 5.1750
v 374.8250 2.7600 5.1750
v 374.8250 2.8800 4.8250
v 375.1750 2.8800 4.8250
v 375.1750 2.8800 5.1750
v 374.8250 2.8800 5.1750
v 347.6200 2.6000 -22.5000
v 347.6200 2.6000 -22.5000
v 347.5849 2.6000 -22.4151
v 347.5849 2.6000 -22.4151
v 347.5000 2.6000 -22.3800
v 347.5000 2.6000 -22.3800
v 347.4151 2.6000 -22.4151
v 347.4151 2.6000 -22.4151
v 347.3800 2.6000 -22.5000
v 347.3800 2.6000 -22.5000
v 347.4151 2.6000 -22.5849
v 347.4151 2.6000 -22.5849
v 347.5000 2.6000 -22.6200
v 347.5000 2.6000 -22.6200
v 347.5849 2.6000 -22.5849
v 347.5849 2.6000 -22.5849
v 347.5000 2.6000 -22.5000
v 347.5000 2.6000 -22.5000
v 347.5000 2.4800 -22.6200
v 375.0000 2.4800 -22.6200
v 375.0000 2.4800 -22.3800
v 347.5000 2.4800 -22.3800
v 347.5000 2.7200 -22.6200
v 375.0000 2.7200 -22.6200
v 375.0000 2.7200 -22.3800
v 347.5000 2.7200 -22.3800
v 347.6200 2.6000 -7.5000
v 347.6200 2.6000 -7.5000
v 347.5849 2.6000 -7.4151
v 347.5849 2.6000 -7.4151
v 347.5000 2.6000 -7.3800
v 347.5000 2.6000 -7.3800
v 347.4151 2.6000 -7.4151
v 347.4151 2.6000 -7.4151
v 347.3800 2.6000 -7.5000
v 347.3800 2.6000 -7.5000
v 347.4151 2.6000 -7.5849
v 347.4151 2.6000 -7.5849
v 347.5000 2.6000 -7.6200
v 347.5000 2.6000 -7.6200
v 347.5849 2.6000 -7.5849
v 347.5849 2.6000 -7.5849
v 347.5000 2.6000 -7.5000
v 347.5000 2.6000 -7.5000
v 347.5000 2.4800 -7.6200
v 375.0000 2.4800 -7.6200
v 375.0000 2.4800 -7.3800
v 347.5000 2.4800 -7.3800
v 347.5000 2.7200 -7.6200
v 375.0000 2.7200 -7.6200
v 375.0000 2.7200 -7.3800
v 347.5000 2.7200 -7.3800
v 347.6200 2.6000 -2.5000
v 347.6200 2.6000 -2.5000
v 347.5849 2.6000 -2.4151
v 347.5849 2.6000 -2.4151
v 347.5000 2.6000 -2.3800
v 347.5000 2.6000 -2.3800
v 347.4151 2.6000 -2.4151
v 347.4151 2.6000 -2.4151
v 347.3800 2.6000 -2.5000
v 347.3800 2.6000 -2.5000
v 347.4151 2.6000 -2.5849
v 347.4151 2.6000 -2.5849
v 347.5000 2.6000 -2.6200
v 347.5000 2.6000 -2.6200
v 347.5849 2.6000 -2.5849
v 347.5849 2.6000 -2.5849
v 347.5000 2.6000 -2.5000
v 347.5000 2.6000 -2.5000
v 347.5000 2.4800 -2.6200
v 375.0000 2.4800 -2.6200
v 375.0000 2.4800 -2.3800
v 347.5000 2.4800 -2.3800
v 347.5000 2.7200 -2.6200
v 375.0000 2.7200 -2.6200
v 375.0000 2.7200 -2.3800
v 347.5000 2.7200 -2.3800
v 347.6200 2.6000 2.5000
v 347.6200 2.6000 2.5000
v 347.5849 2.6000 2.5849
v 347.5849 2.6000 2.5849
v 347.5000 2.6000 2.6200
v 347.5000 2.6000 2.6200
v 347.4151 2.6000 2.5849
v 347.4151 2.6000 2.5849
v 347.3800 2.6000 2.5000
v 347.3800 2.6000 2.5000
v 347.4151 2.6000 2.4151
v 347.4151 2.6000 2.4151
v 347.5000 2.6000 2.3800
v 347.5000 2.6000 2.3800
v 347.5849 2.6000 2.4151
v 347.5849 2.6000 2.4151
v 347.5000 2.6000 2.5000
v 347.5000 2.6000 2.5000
v 347.5000 2.4800 2.3800
v 375.0000 2.4800 2.3800
v 375.0000 2.4800 2.6200
v 347.5000 2.4800 2.6200
v 347.5000 2.7200 2.3800
v 375.0000 2.7200 2.3800
v 375.0000 2.7200 2.6200
v 347.5000 2.7200 2.6200
vt 175.5375 -11.9625
vt 175.5375 -10.5375
vt 176.9625 -10.5375
vt 176.9625 -11.9625
vt 175.5375 -11.9625
vt 176.9625 -11.9625
vt 176.9625 -10.5375
vt 175.5375 -10.5375
vt 175.5375 0.0000
vt 176.9625 0.0000
vt 176.9625 1.5000
vt 175.5375 1.5000
vt 176.9625 0.0000
vt 175.5375 0.0000
vt 175.5375 1.5000
vt 176.9625 1.5000
vt -11.9625 0.0000
vt -10.5375 0.0000
vt -10.5375 1.5000
vt -11.9625 1.5000
vt -10.5375 0.0000
vt -11.9625 0.0000
vt -11.9625 1.5000
vt -10.5375 1.5000
vt 176.7875 -11.9625
vt 176.7875 -10.5375
vt 178.2125 -10.5375
vt 178.2125 -11.9625
vt 176.7875 -11.9625
vt 178.2125 -11.9625
vt 178.2125 -10.5375
vt 176.7875 -10.5375
vt 176.7875 0.0000
vt 178.2125 0.0000
vt 178.2125 1.5000
vt 176.7875 1.5000
vt 178.2125 0.0000
vt 176.7875 0.0000
vt 176.7875 1.5000
vt 178.2125 1.5000
vt -11.9625 0.0000
vt -10.5375 0.0000
vt -10.5375 1.5000
vt -11.9625 1.5000
vt -10.5375 0.0000
vt -11.9625 0.0000
vt -11.9625 1.5000
vt -10.5375 1.5000
vt 178.0375 -11.9625
vt 178.0375 -10.5375
vt 179.4625 -10.5375
vt 179.4625 -11.9625
vt 178.0375 -11.9625
vt 179.4625 -11.9625
vt 179.4625 -10.5375
vt 178.0375 -10.5375
vt 178.0375 0.0000
vt 179.4625 0.0000
vt 179.4625 1.5000
vt 178.0375 1.5000
vt 179.4625 0.0000
vt 178.0375 0.0000
vt 178.0375 1.5000
vt 179.4625 1.5000
vt -11.9625 0.0000
vt -10.5375 0.0000
vt -10.5375 1.5000
vt -11.9625 1.5000
vt -10.5375 0.0000
vt -11.9625 0.0000
vt -11.9625 1.5000
vt -10.5375 1.5000
vt 180.5375 -11.9625
vt 180.5375 -10.5375
vt 181.9625 -10.5375
vt 181.9625 -11.9625
vt 180.5375 -11.9625
vt 181.9625 -11.9625
vt 181.9625 -10.5375
vt 180.5375 -10.5375
vt 180.5375 0.0000
vt 181.9625 0.0000
vt 181.9625 1.5000
vt 180.5375 1.5000
vt 181.9625 0.0000
vt 180.5375 0.0000
vt 180.5375 1.5000
vt 181.9625 1.5000
vt -11.9625 0.0000
vt -10.5375 0.0000
vt -10.5375 1.5000
vt -11.9625 1.5000
vt -10.5375 0.0000
vt -11.9625 0.0000
vt -11.9625 1.5000
vt -10.5375 1.5000
vt 181.7875 -11.9625
vt 181.7875 -10.5375
vt 183.2125 -10.5375
vt 183.2125 -11.9625
vt 181.7875 -11.9625
vt 183.2125 -11.9625
vt 183.2125 -10.5375
vt 181.7875 -10.5375
vt 181.7875 0.0000
vt 183.2125 0.0000
vt 183.2125 1.5000
vt 181.7875 1.5000
vt 183.2125 0.0000
vt 181.7875 0.0000
vt 181.7875 1.5000
vt 183.2125 1.5000
vt -11.9625 0.0000
vt -10.5375 0.0000
vt -10.5375 1.5000
vt -11.9625 1.5000
vt -10.5375 0.0000
vt -11.9625 0.0000
vt -11.9625 1.5000
vt -10.5375 1.5000
vt 183.0375 -11.9625
vt 183.0375 -10.5375
vt 184.4625 -10.5375
vt 184.4625 -11.9625
vt 183.0375 -11.9625
vt 184.4625 -11.9625
vt 184.4625 -10.5375
vt 183.0375 -10.5375
vt 183.0375 0.0000
vt 184.4625 0.0000
vt 184.4625 1.5000
vt 183.0375 1.5000
vt 184.4625 0.0000
vt 183.0375 0.0000
vt 183.0375 1.5000
vt 184.4625 1.5000
vt -11.9625 0.0000
vt -10.5375 0.0000
vt -10.5375 1.5000
vt -11.9625 1.5000
vt -10.5375 0.0000
vt -11.9625 0.0000
vt -11.9625 1.5000
vt -10.5375 1.5000
vt 185.5375 -11.9625
vt 185.5375 -10.5375
vt 186.9625 -10.5375
vt 186.9625 -11.9625
vt 185.5375 -11.9625
vt 186.9625 -11.9625
vt 186.9625 -10.5375
vt 185.5375 -10.5375
vt 185.5375 0.0000
vt 186.9625 0.0000
vt 186.9625 1.5000
vt 185.5375 1.5000
vt 186.9625 0.0000
vt 185.5375 0.0000
vt 185.5375 1.5000
vt 186.9625 1.5000
vt -11.9625 0.0000
vt -10.5375 0.0000
vt -10.5375 1.5000
vt -11.9625 1.5000
vt -10.5375 0.0000
vt -11.9625 0.0000
vt -11.9625 1.5000
vt -10.5375 1.5000
vt 180.5375 -10.7125
vt 180.5375 -9.2875
vt 181.9625 -9.2875
vt 181.9625 -10.7125
vt 180.5375 -10.7125
vt 181.9625 -10.7125
vt 181.9625 -9.2875
vt 180.5375 -9.2875
vt 180.5375 0.0000
vt 181.9625 0.0000
vt 181.9625 1.5000
vt 180.5375 1.5000
vt 181.9625 0.0000
vt 180.5375 0.0000
vt 180.5375 1.5000
vt 181.9625 1.5000
vt -10.7125 0.0000
vt -9.2875 0.0000
vt -9.2875 1.5000
vt -10.7125 1.5000
vt -9.2875 0.0000
vt -10.7125 0.0000
vt -10.7125 1.5000
vt -9.2875 1.5000
vt 175.5375 -9.4625
vt 175.5375 -8.0375
vt 176.9625 -8.0375
vt 176.9625 -9.4625
vt 175.5375 -9.4625
vt 176.9625 -9.4625
vt 176.9625 -8.0375
vt 175.5375 -8.0375
vt 175.5375 0.0000
vt 176.9625 0.0000
vt 176.9625 1.5000
vt 175.5375 1.5000
vt 176.9625 0.0000
vt 175.5375 0.0000
vt 175.5375 1.5000
vt 176.9625 1.5000
vt -9.4625 0.0000
vt -8.0375 0.0000
vt -8.0375 1.5000
vt -9.4625 1.5000
vt -8.0375 0.0000
vt -9.4625 0.0000
vt -9.4625 1.5000
vt -8.0375 1.5000
vt 178.0375 -9.4625
vt 178.0375 -8.0375
vt 179.4625 -8.0375
vt 179.4625 -9.4625
vt 178.0375 -9.4625
vt 179.4625 -9.4625
vt 179.4625 -8.0375
vt 178.0375 -8.0375
vt 178.0375 0.0000
vt 179.4625 0.0000
vt 179.4625 1.5000
vt 178.0375 1.5000
vt 179.4625 0.0000
vt 178.0375 0.0000
vt 178.0375 1.5000
vt 179.4625 1.5000
vt -9.4625 0.0000
vt -8.0375 0.0000
vt -8.0375 1.5000
vt -9.4625 1.5000
vt -8.0375 0.0000
vt -9.4625 0.0000
vt -9.4625 1.5000
vt -8.0375 1.5000
vt 180.5375 -9.4625
vt 180.5375 -8.0375
vt 181.9625 -8.0375
vt 181.9625 -9.4625
vt 180.5375 -9.4625
vt 181.9625 -9.4625
vt 181.9625 -8.0375
vt 180.5375 -8.0375
vt 180.5375 0.0000
vt 181.9625 0.0000
vt 181.9625 1.5000
vt 180.5375 1.5000
vt 181.9625 0.0000
vt 180.5375 0.0000
vt 180.5375 1.5000
vt 181.9625 1.5000
vt -9.4625 0.0000
vt -8.0375 0.0000
vt -8.0375 1.5000
vt -9.4625 1.5000
vt -8.0375 0.0000
vt -9.4625 0.0000
vt -9.4625 1.5000
vt -8.0375 1.5000
vt 183.0375 -9.4625
vt 183.0375 -8.0375
vt 184.4625 -8.0375
vt 184.4625 -9.4625
vt 183.0375 -9.4625
vt 184.4625 -9.4625
vt 184.4625 -8.0375
vt 183.0375 -8.0375
vt 183.0375 0.0000
vt 184.4625 0.0000
vt 184.4625 1.5000
vt 183.0375 1.5000
vt 184.4625 0.0000
vt 183.0375 0.0000
vt 183.0375 1.5000
vt 184.4625 1.5000
vt -9.4625 0.0000
vt -8.0375 0.0000
vt -8.0375 1.5000
vt -9.4625 1.5000
vt -8.0375 0.0000
vt -9.4625 0.0000
vt -9.4625 1.5000
vt -8.0375 1.5000
vt 184.2875 -9.4625
vt 184.2875 -8.0375
vt 185.7125 -8.0375
vt 185.7125 -9.4625
vt 184.2875 -9.4625
vt 185.7125 -9.4625
vt 185.7125 -8.0375
vt 184.2875 -8.0375
vt 184.2875 0.0000
vt 185.7125 0.0000
vt 185.7125 1.5000
vt 184.2875 1.5000
vt 185.7125 0.0000
vt 184.2875 0.0000
vt 184.2875 1.5000
vt 185.7125 1.5000
vt -9.4625 0.0000
vt -8.0375 0.0000
vt -8.0375 1.5000
vt -9.4625 1.5000
vt -8.0375 0.0000
vt -9.4625 0.0000
vt -9.4625 1.5000
vt -8.0375 1.5000
vt 175.5375 -8.2125
vt 175.5375 -6.7875
vt 176.9625 -6.7875
vt 176.9625 -8.2125
vt 175.5375 -8.2125
vt 176.9625 -8.2125
vt 176.9625 -6.7875
vt 175.5375 -6.7875
vt 175.5375 0.0000
vt 176.9625 0.0000
vt 176.9625 1.5000
vt 175.5375 1.5000
vt 176.9625 0.0000
vt 175.5375 0.0000
vt 175.5375 1.5000
vt 176.9625 1.5000
vt -8.2125 0.0000
vt -6.7875 0.0000
vt -6.7875 1.5000
vt -8.2125 1.5000
vt -6.7875 0.0000
vt -8.2125 0.0000
vt -8.2125 1.5000
vt -6.7875 1.5000
vt 180.5375 -8.2125
vt 180.5375 -6.7875
vt 181.9625 -6.7875
vt 181.9625 -8.2125
vt 180.5375 -8.2125
vt 181.9625 -8.2125
vt 181.9625 -6.7875
vt 180.5375 -6.7875
vt 180.5375 0.0000
vt 181.9625 0.0000
vt 181.9625 1.5000
vt 180.5375 1.5000
vt 181.9625 0.0000
vt 180.5375 0.0000
vt 180.5375 1.5000
vt 181.9625 1.5000
vt -8.2125 0.0000
vt -6.7875 0.0000
vt -6.7875 1.5000
vt -8.2125 1.5000
vt -6.7875 0.0000
vt -8.2125 0.0000
vt -8.2125 1.5000
vt -6.7875 1.5000
vt 175.5375 -6.9625
vt 175.5375 -5.5375
vt 176.9625 -5.5375
vt 176.9625 -6.9625
vt 175.5375 -6.9625
vt 176.9625 -6.9625
vt 176.9625 -5.5375
vt 175.5375 -5.5375
vt 175.5375 0.0000
vt 176.9625 0.0000
vt 176.9625 1.5000
vt 175.5375 1.5000
vt 176.9625 0.0000
vt 175.5375 0.0000
vt 175.5375 1.5000
vt 176.9625 1.5000
vt -6.9625 0.0000
vt -5.5375 0.0000
vt -5.5375 1.5000
vt -6.9625 1.5000
vt -5.5375 0.0000
vt -6.9625 0.0000
vt -6.9625 1.5000
vt -5.5375 1.5000
vt 176.7875 -6.9625
vt 176.7875 -5.5375
vt 178.2125 -5.5375
vt 178.2125 -6.9625
vt 176.7875 -6.9625
vt 178.2125 -6.9625
vt 178.2125 -5.5375
vt 176.7875 -5.5375
vt 176.7875 0.0000
vt 178.2125 0.0000
vt 178.2125 1.5000
vt 176.7875 1.5000
vt 178.2125 0.0000
vt 176.7875 0.0000
vt 176.7875 1.5000
vt 178.2125 1.5000
vt -6.9625 0.0000
vt -5.5375 0.0000
vt -5.5375 1.5000
vt -6.9625 1.5000
vt -5.5375 0.0000
vt -6.9625 0.0000
vt -6.9625 1.5000
vt -5.5375 1.5000
vt 180.5375 -6.9625
vt 180.5375 -5.5375
vt 181.9625 -5.5375
vt 181.9625 -6.9625
vt 180.5375 -6.9625
vt 181.9625 -6.9625
vt 181.9625 -5.5375
vt 180.5375 -5.5375
vt 180.5375 0.0000
vt 181.9625 0.0000
vt 181.9625 1.5000
vt 180.5375 1.5000
vt 181.9625 0.0000
vt 180.5375 0.0000
vt 180.5375 1.5000
vt 181.9625 1.5000
vt -6.9625 0.0000
vt -5.5375 0.0000
vt -5.5375 1.5000
vt -6.9625 1.5000
vt -5.5375 0.0000
vt -6.9625 0.0000
vt -6.9625 1.5000
vt -5.5375 1.5000
vt 175.5375 -4.4625
vt 175.5375 -3.0375
vt 176.9625 -3.0375
vt 176.9625 -4.4625
vt 175.5375 -4.4625
vt 176.9625 -4.4625
vt 176.9625 -3.0375
vt 175.5375 -3.0375
vt 175.5375 0.0000
vt 176.9625 0.0000
vt 176.9625 1.5000
vt 175.5375 1.5000
vt 176.9625 0.0000
vt 175.5375 0.0000
vt 175.5375 1.5000
vt 176.9625 1.5000
vt -4.4625 0.0000
vt -3.0375 0.0000
vt -3.0375 1.5000
vt -4.4625 1.5000
vt -3.0375 0.0000
vt -4.4625 0.0000
vt -4.4625 1.5000
vt -3.0375 1.5000
vt 180.5375 -4.4625
vt 180.5375 -3.0375
vt 181.9625 -3.0375
vt 181.9625 -4.4625
vt 180.5375 -4.4625
vt 181.9625 -4.4625
vt 181.9625 -3.0375
vt 180.5375 -3.0375
vt 180.5375 0.0000
vt 181.9625 0.0000
vt 181.9625 1.5000
vt 180.5375 1.5000
vt 181.9625 0.0000
vt 180.5375 0.0000
vt 180.5375 1.5000
vt 181.9625 1.5000
vt -4.4625 0.0000
vt -3.0375 0.0000
vt -3.0375 1.5000
vt -4.4625 1.5000
vt -3.0375 0.0000
vt -4.4625 0.0000
vt -4.4625 1.5000
vt -3.0375 1.5000
vt 185.5375 -4.4625
vt 185.5375 -3.0375
vt 186.9625 -3.0375
vt 186.9625 -4.4625
vt 185.5375 -4.4625
vt 186.9625 -4.4625
vt 186.9625 -3.0375
vt 185.5375 -3.0375
vt 185.5375 0.0000
vt 186.9625 0.0000
vt 186.9625 1.5000
vt 185.5375 1.5000
vt 186.9625 0.0000
vt 185.5375 0.0000
vt 185.5375 1.5000
vt 186.9625 1.5000
vt -4.4625 0.0000
vt -3.0375 0.0000
vt -3.0375 1.5000
vt -4.4625 1.5000
vt -3.0375 0.0000
vt -4.4625 0.0000
vt -4.4625 1.5000
vt -3.0375 1.5000
vt 186.7875 -4.4625
vt 186.7875 -3.0375
vt 188.2125 -3.0375
vt 188.2125 -4.4625
vt 186.7875 -4.4625
vt 188.2125 -4.4625
vt 188.2125 -3.0375
vt 186.7875 -3.0375
vt 186.7875 0.0000
vt 188.2125 0.0000
vt 188.2125 1.5000
vt 186.7875 1.5000
vt 188.2125 0.0000
vt 186.7875 0.0000
vt 186.7875 1.5000
vt 188.2125 1.5000
vt -4.4625 0.0000
vt -3.0375 0.0000
vt -3.0375 1.5000
vt -4.4625 1.5000
vt -3.0375 0.0000
vt -4.4625 0.0000
vt -4.4625 1.5000
vt -3.0375 1.5000
vt 180.5375 -3.2125
vt 180.5375 -1.7875
vt 181.9625 -1.7875
vt 181.9625 -3.2125
vt 180.5375 -3.2125
vt 181.9625 -3.2125
vt 181.9625 -1.7875
vt 180.5375 -1.7875
vt 180.5375 0.0000
vt 181.9625 0.0000
vt 181.9625 1.5000
vt 180.5375 1.5000
vt 181.9625 0.0000
vt 180.5375 0.0000
vt 180.5375 1.5000
vt 181.9625 1.5000
vt -3.2125 0.0000
vt -1.7875 0.0000
vt -1.7875 1.5000
vt -3.2125 1.5000
vt -1.7875 0.0000
vt -3.2125 0.0000
vt -3.2125 1.5000
vt -1.7875 1.5000
vt 185.5375 -3.2125
vt 185.5375 -1.7875
vt 186.9625 -1.7875
vt 186.9625 -3.2125
vt 185.5375 -3.2125
vt 186.9625 -3.2125
vt 186.9625 -1.7875
vt 185.5375 -1.7875
vt 185.5375 0.0000
vt 186.9625 0.0000
vt 186.9625 1.5000
vt 185.5375 1.5000
vt 186.9625 0.0000
vt 185.5375 0.0000
vt 185.5375 1.5000
vt 186.9625 1.5000
vt -3.2125 0.0000
vt -1.7875 0.0000
vt -1.7875 1.5000
vt -3.2125 1.5000
vt -1.7875 0.0000
vt -3.2125 0.0000
vt -3.2125 1.5000
vt -1.7875 1.5000
vt 175.5375 -1.9625
vt 175.5375 -0.5375
vt 176.9625 -0.5375
vt 176.9625 -1.9625
vt 175.5375 -1.9625
vt 176.9625 -1.9625
vt 176.9625 -0.5375
vt 175.5375 -0.5375
vt 175.5375 0.0000
vt 176.9625 0.0000
vt 176.9625 1.5000
vt 175.5375 1.5000
vt 176.9625 0.0000
vt 175.5375 0.0000
vt 175.5375 1.5000
vt 176.9625 1.5000
vt -1.9625 0.0000
vt -0.5375 0.0000
vt -0.5375 1.5000
vt -1.9625 1.5000
vt -0.5375 0.0000
vt -1.9625 0.0000
vt -1.9625 1.5000
vt -0.5375 1.5000
vt 178.0375 -1.9625
vt 178.0375 -0.5375
vt 179.4625 -0.5375
vt 179.4625 -1.9625
vt 178.0375 -1.9625
vt 179.4625 -1.9625
vt 179.4625 -0.5375
vt 178.0375 -0.5375
vt 178.0375 0.0000
vt 179.4625 0.0000
vt 179.4625 1.5000
vt 178.0375 1.5000
vt 179.4625 0.0000
vt 178.0375 0.0000
vt 178.0375 1.5000
vt 179.4625 1.5000
vt -1.9625 0.0000
vt -0.5375 0.0000
vt -0.5375 1.5000
vt -1.9625 1.5000
vt -0.5375 0.0000
vt -1.9625 0.0000
vt -1.9625 1.5000
vt -0.5375 1.5000
vt 183.0375 -1.9625
vt 183.0375 -0.5375
vt 184.4625 -0.5375
vt 184.4625 -1.9625
vt 183.0375 -1.9625
vt 184.4625 -1.9625
vt 184.4625 -0.5375
vt 183.0375 -0.5375
vt 183.0375 0.0000
vt 184.4625 0.0000
vt 184.4625 1.5000
vt 183.0375 1.5000
vt 184.4625 0.0000
vt 183.0375 0.0000
vt 183.0375 1.5000
vt 184.4625 1.5000
vt -1.9625 0.0000
vt -0.5375 0.0000
vt -0.5375 1.5000
vt -1.9625 1.5000
vt -0.5375 0.0000
vt -1.9625 0.0000
vt -1.9625 1.5000
vt -0.5375 1.5000
vt 185.5375 -1.9625
vt 185.5375 -0.5375
vt 186.9625 -0.5375
vt 186.9625 -1.9625
vt 185.5375 -1.9625
vt 186.9625 -1.9625
vt 186.9625 -0.5375
vt 185.5375 -0.5375
vt 185.5375 0.0000
vt 186.9625 0.0000
vt 186.9625 1.5000
vt 185.5375 1.5000
vt 186.9625 0.0000
vt 185.5375 0.0000
vt 185.5375 1.5000
vt 186.9625 1.5000
vt -1.9625 0.0000
vt -0.5375 0.0000
vt -0.5375 1.5000
vt -1.9625 1.5000
vt -0.5375 0.0000
vt -1.9625 0.0000
vt -1.9625 1.5000
vt -0.5375 1.5000
vt 175.5375 -0.7125
vt 175.5375 0.7125
vt 176.9625 0.7125
vt 176.9625 -0.7125
vt 175.5375 -0.7125
vt 176.9625 -0.7125
vt 176.9625 0.7125
vt 175.5375 0.7125
vt 175.5375 0.0000
vt 176.9625 0.0000
vt 176.9625 1.5000
vt 175.5375 1.5000
vt 176.9625 0.0000
vt 175.5375 0.0000
vt 175.5375 1.5000
vt 176.9625 1.5000
vt -0.7125 0.0000
vt 0.7125 0.0000
vt 0.7125 1.5000
vt -0.7125 1.5000
vt 0.7125 0.0000
vt -0.7125 0.0000
vt -0.7125 1.5000
vt 0.7125 1.5000
vt 178.0375 -0.7125
vt 178.0375 0.7125
vt 179.4625 0.7125
vt 179.4625 -0.7125
vt 178.0375 -0.7125
vt 179.4625 -0.7125
vt 179.4625 0.7125
vt 178.0375 0.7125
vt 178.0375 0.0000
vt 179.4625 0.0000
vt 179.4625 1.5000
vt 178.0375 1.5000
vt 179.4625 0.0000
vt 178.0375 0.0000
vt 178.0375 1.5000
vt 179.4625 1.5000
vt -0.7125 0.0000
vt 0.7125 0.0000
vt 0.7125 1.5000
vt -0.7125 1.5000
vt 0.7125 0.0000
vt -0.7125 0.0000
vt -0.7125 1.5000
vt 0.7125 1.5000
vt 183.0375 -0.7125
vt 183.0375 0.7125
vt 184.4625 0.7125
vt 184.4625 -0.7125
vt 183.0375 -0.7125
vt 184.4625 -0.7125
vt 184.4625 0.7125
vt 183.0375 0.7125
vt 183.0375 0.0000
vt 184.4625 0.0000
vt 184.4625 1.5000
vt 183.0375 1.5000
vt 184.4625 0.0000
vt 183.0375 0.0000
vt 183.0375 1.5000
vt 184.4625 1.5000
vt -0.7125 0.0000
vt 0.7125 0.0000
vt 0.7125 1.5000
vt -0.7125 1.5000
vt 0.7125 0.0000
vt -0.7125 0.0000
vt -0.7125 1.5000
vt 0.7125 1.5000
vt 175.5375 0.5375
vt 175.5375 1.9625
vt 176.9625 1.9625
vt 176.9625 0.5375
vt 175.5375 0.5375
vt 176.9625 0.5375
vt 176.9625 1.9625
vt 175.5375 1.9625
vt 175.5375 0.0000
vt 176.9625 0.0000
vt 176.9625 1.5000
vt 175.5375 1.5000
vt 176.9625 0.0000
vt 175.5375 0.0000
vt 175.5375 1.5000
vt 176.9625 1.5000
vt 0.5375 0.0000
vt 1.9625 0.0000
vt 1.9625 1.5000
vt 0.5375 1.5000
vt 1.9625 0.0000
vt 0.5375 0.0000
vt 0.5375 1.5000
vt 1.9625 1.5000
vt 180.5375 0.5375
vt 180.5375 1.9625
vt 181.9625 1.9625
vt 181.9625 0.5375
vt 180.5375 0.5375
vt 181.9625 0.5375
vt 181.9625 1.9625
vt 180.5375 1.9625
vt 180.5375 0.0000
vt 181.9625 0.0000
vt 181.9625 1.5000
vt 180.5375 1.5000
vt 181.9625 0.0000
vt 180.5375 0.0000
vt 180.5375 1.5000
vt 181.9625 1.5000
vt 0.5375 0.0000
vt 1.9625 0.0000
vt 1.9625 1.5000
vt 0.5375 1.5000
vt 1.9625 0.0000
vt 0.5375 0.0000
vt 0.5375 1.5000
vt 1.9625 1.5000
vt 183.0375 0.5375
vt 183.0375 1.9625
vt 184.4625 1.9625
vt 184.4625 0.5375
vt 183.0375 0.5375
vt 184.4625 0.5375
vt 184.4625 1.9625
vt 183.0375 1.9625
vt 183.0375 0.0000
vt 184.4625 0.0000
vt 184.4625 1.5000
vt 183.0375 1.5000
vt 184.4625 0.0000
vt 183.0375 0.0000
vt 183.0375 1.5000
vt 184.4625 1.5000
vt 0.5375 0.0000
vt 1.9625 0.0000
vt 1.9625 1.5000
vt 0.5375 1.5000
vt 1.9625 0.0000
vt 0.5375 0.0000
vt 0.5375 1.5000
vt 1.9625 1.5000
vt 185.5375 0.5375
vt 185.5375 1.9625
vt 186.9625 1.9625
vt 186.9625 0.5375
vt 185.5375 0.5375
vt 186.9625 0.5375
vt 186.9625 1.9625
vt 185.5375 1.9625
vt 185.5375 0.0000
vt 186.9625 0.0000
vt 186.9625 1.5000
vt 185.5375 1.5000
vt 186.9625 0.0000
vt 185.5375 0.0000
vt 185.5375 1.5000
vt 186.9625 1.5000
vt 0.5375 0.0000
vt 1.9625 0.0000
vt 1.9625 1.5000
vt 0.5375 1.5000
vt 1.9625 0.0000
vt 0.5375 0.0000
vt 0.5375 1.5000
vt 1.9625 1.5000
vt 178.0375 1.7875
vt 178.0375 3.2125
vt 179.4625 3.2125
vt 179.4625 1.7875
vt 178.0375 1.7875
vt 179.4625 1.7875
vt 179.4625 3.2125
vt 178.0375 3.2125
vt 178.0375 0.0000
vt 179.4625 0.0000
vt 179.4625 1.5000
vt 178.0375 1.5000
vt 179.4625 0.0000
vt 178.0375 0.0000
vt 178.0375 1.5000
vt 179.4625 1.5000
vt 1.7875 0.0000
vt 3.2125 0.0000
vt 3.2125 1.5000
vt 1.7875 1.5000
vt 3.2125 0.0000
vt 1.7875 0.0000
vt 1.7875 1.5000
vt 3.2125 1.5000
usemtl rust
f 1 4 3 2
f 5 6 7 8
f 1 2 6 5
f 3 4 8 7
f 2 3 7 6
f 4 1 5 8
f 177 180 179 178
f 181 182 183 184
f 177 178 182 181
f 179 180 184 183
f 178 179 183 182
f 180 177 181 184
f 209 212 211 210
f 213 214 215 216
f 209 210 214 213
f 211 212 216 215
f 210 211 215 214
f 212 209 213 216
f 337 340 339 338
f 341 342 343 344
f 337 338 342 341
f 339 340 344 343
f 338 339 343 342
f 340 337 341 344
f 345 348 347 346
f 349 350 351 352
f 345 346 350 349
f 347 348 352 351
f 346 347 351 350
f 348 345 349 352
f 449 452 451 450
f 453 454 455 456
f 449 450 454 453
f 451 452 456 455
f 450 451 455 454
f 452 449 453 456
f 577 580 579 578
f 581 582 583 584
f 577 578 582 581
f 579 580 584 583
f 578 579 583 582
f 580 577 581 584
f 657 660 659 658
f 661 662 663 664
f 657 658 662 661
f 659 660 664 663
f 658 659 663 662
f 660 657 661 664
f 689 692 691 690
f 693 694 695 696
f 689 690 694 693
f 691 692 696 695
f 690 691 695 694
f 692 689 693 696
f 841 844 843 842
f 845 846 847 848
f 841 842 846 845
f 843 844 848 847
f 842 843 847 846
f 844 841 845 848
f 921 924 923 922
f 925 926 927 928
f 921 922 926 925
f 923 924 928 927
f 922 923 927 926
f 924 921 925 928
f 953 956 955 954
f 957 958 959 960
f 953 954 958 957
f 955 956 960 959
f 954 955 959 958
f 956 953 957 960
usemtl lamp_sick
f 961 964 963 962
f 965 966 967 968
f 961 962 966 965
f 963 964 968 967
f 962 963 967 966
f 964 961 965 968
f 969 972 971 970
f 973 974 975 976
f 969 970 974 973
f 971 972 976 975
f 970 971 975 974
f 972 969 973 976
f 977 980 979 978
f 981 982 983 984
f 977 978 982 981
f 979 980 984 983
f 978 979 983 982
f 980 977 981 984
f 985 988 987 986
f 989 990 991 992
f 985 986 990 989
f 987 988 992 991
f 986 987 991 990
f 988 985 989 992
f 993 996 995 994
f 997 998 999 1000
f 993 994 998 997
f 995 996 1000 999
f 994 995 999 998
f 996 993 997 1000
f 1001 1004 1003 1002
f 1005 1006 1007 1008
f 1001 1002 1006 1005
f 1003 1004 1008 1007
f 1002 1003 1007 1006
f 1004 1001 1005 1008
f 1009 1012 1011 1010
f 1013 1014 1015 1016
f 1009 1010 1014 1013
f 1011 1012 1016 1015
f 1010 1011 1015 1014
f 1012 1009 1013 1016
f 1017 1020 1019 1018
f 1021 1022 1023 1024
f 1017 1018 1022 1021
f 1019 1020 1024 1023
f 1018 1019 1023 1022
f 1020 1017 1021 1024
f 1025 1028 1027 1026
f 1029 1030 1031 1032
f 1025 1026 1030 1029
f 1027 1028 1032 1031
f 1026 1027 1031 1030
f 1028 1025 1029 1032
f 1033 1036 1035 1034
f 1037 1038 1039 1040
f 1033 1034 1038 1037
f 1035 1036 1040 1039
f 1034 1035 1039 1038
f 1036 1033 1037 1040
usemtl pipe
f 1041 1043 1044 1042
f 1043 1045 1046 1044
f 1045 1047 1048 1046
f 1047 1049 1050 1048
f 1049 1051 1052 1050
f 1051 1053 1054 1052
f 1053 1055 1056 1054
f 1055 1041 1042 1056
f 1057 1042 1044
f 1058 1043 1041
f 1057 1044 1046
f 1058 1045 1043
f 1057 1046 1048
f 1058 1047 1045
f 1057 1048 1050
f 1058 1049 1047
f 1057 1050 1052
f 1058 1051 1049
f 1057 1052 1054
f 1058 1053 1051
f 1057 1054 1056
f 1058 1055 1053
f 1057 1056 1042
f 1058 1041 1055
f 1059 1062 1061 1060
f 1063 1064 1065 1066
f 1059 1060 1064 1063
f 1061 1062 1066 1065
f 1060 1061 1065 1064
f 1062 1059 1063 1066
f 1067 1069 1070 1068
f 1069 1071 1072 1070
f 1071 1073 1074 1072
f 1073 1075 1076 1074
f 1075 1077 1078 1076
f 1077 1079 1080 1078
f 1079 1081 1082 1080
f 1081 1067 1068 1082
f 1083 1068 1070
f 1084 1069 1067
f 1083 1070 1072
f 1084 1071 1069
f 1083 1072 1074
f 1084 1073 1071
f 1083 1074 1076
f 1084 1075 1073
f 1083 1076 1078
f 1084 1077 1075
f 1083 1078 1080
f 1084 1079 1077
f 1083 1080 1082
f 1084 1081 1079
f 1083 1082 1068
f 1084 1067 1081
f 1085 1088 1087 1086
f 1089 1090 1091 1092
f 1085 1086 1090 1089
f 1087 1088 1092 1091
f 1086 1087 1091 1090
f 1088 1085 1089 1092
f 1093 1095 1096 1094
f 1095 1097 1098 1096
f 1097 1099 1100 1098
f 1099 1101 1102 1100
f 1101 1103 1104 1102
f 1103 1105 1106 1104
f 1105 1107 1108 1106
f 1107 1093 1094 1108
f 1109 1094 1096
f 1110 1095 1093
f 1109 1096 1098
f 1110 1097 1095
f 1109 1098 1100
f 1110 1099 1097
f 1109 1100 1102
f 1110 1101 1099
f 1109 1102 1104
f 1110 1103 1101
f 1109 1104 1106
f 1110 1105 1103
f 1109 1106 1108
f 1110 1107 1105
f 1109 1108 1094
f 1110 1093 1107
f 1111 1114 1113 1112
f 1115 1116 1117 1118
f 1111 1112 1116 1115
f 1113 1114 1118 1117
f 1112 1113 1117 1116
f 1114 1111 1115 1118
f 1119 1121 1122 1120
f 1121 1123 1124 1122
f 1123 1125 1126 1124
f 1125 1127 1128 1126
f 1127 1129 1130 1128
f 1129 1131 1132 1130
f 1131 1133 1134 1132
f 1133 1119 1120 1134
f 1135 1120 1122
f 1136 1121 1119
f 1135 1122 1124
f 1136 1123 1121
f 1135 1124 1126
f 1136 1125 1123
f 1135 1126 1128
f 1136 1127 1125
f 1135 1128 1130
f 1136 1129 1127
f 1135 1130 1132
f 1136 1131 1129
f 1135 1132 1134
f 1136 1133 1131
f 1135 1134 1120
f 1136 1119 1133
f 1137 1140 1139 1138
f 1141 1142 1143 1144
f 1137 1138 1142 1141
f 1139 1140 1144 1143
f 1138 1139 1143 1142
f 1140 1137 1141 1144
usemtl grime_wall
f 9/1 10/2 11/3 12/4
f 13/5 14/6 15/7 16/8
f 17/9 18/10 19/11 20/12
f 21/13 22/14 23/15 24/16
f 25/17 26/18 27/19 28/20
f 29/21 30/22 31/23 32/24
f 33/25 34/26 35/27 36/28
f 37/29 38/30 39/31 40/32
f 41/33 42/34 43/35 44/36
f 45/37 46/38 47/39 48/40
f 49/41 50/42 51/43 52/44
f 53/45 54/46 55/47 56/48
f 57/49 58/50 59/51 60/52
f 61/53 62/54 63/55 64/56
f 65/57 66/58 67/59 68/60
f 69/61 70/62 71/63 72/64
f 73/65 74/66 75/67 76/68
f 77/69 78/70 79/71 80/72
f 81/73 82/74 83/75 84/76
f 85/77 86/78 87/79 88/80
f 89/81 90/82 91/83 92/84
f 93/85 94/86 95/87 96/88
f 97/89 98/90 99/91 100/92
f 101/93 102/94 103/95 104/96
f 105/97 106/98 107/99 108/100
f 109/101 110/102 111/103 112/104
f 113/105 114/106 115/107 116/108
f 117/109 118/110 119/111 120/112
f 121/113 122/114 123/115 124/116
f 125/117 126/118 127/119 128/120
f 129/121 130/122 131/123 132/124
f 133/125 134/126 135/127 136/128
f 137/129 138/130 139/131 140/132
f 141/133 142/134 143/135 144/136
f 145/137 146/138 147/139 148/140
f 149/141 150/142 151/143 152/144
f 153/145 154/146 155/147 156/148
f 157/149 158/150 159/151 160/152
f 161/153 162/154 163/155 164/156
f 165/157 166/158 167/159 168/160
f 169/161 170/162 171/163 172/164
f 173/165 174/166 175/167 176/168
f 185/169 186/170 187/171 188/172
f 189/173 190/174 191/175 192/176
f 193/177 194/178 195/179 196/180
f 197/181 198/182 199/183 200/184
f 201/185 202/186 203/187 204/188
f 205/189 206/190 207/191 208/192
f 217/193 218/194 219/195 220/196
f 221/197 222/198 223/199 224/200
f 225/201 226/202 227/203 228/204
f 229/205 230/206 231/207 232/208
f 233/209 234/210 235/211 236/212
f 237/213 238/214 239/215 240/216
f 241/217 242/218 243/219 244/220
f 245/221 246/222 247/223 248/224
f 249/225 250/226 251/227 252/228
f 253/229 254/230 255/231 256/232
f 257/233 258/234 259/235 260/236
f 261/237 262/238 263/239 264/240
f 265/241 266/242 267/243 268/244
f 269/245 270/246 271/247 272/248
f 273/249 274/250 275/251 276/252
f 277/253 278/254 279/255 280/256
f 281/257 282/258 283/259 284/260
f 285/261 286/262 287/263 288/264
f 289/265 290/266 291/267 292/268
f 293/269 294/270 295/271 296/272
f 297/273 298/274 299/275 300/276
f 301/277 302/278 303/279 304/280
f 305/281 306/282 307/283 308/284
f 309/285 310/286 311/287 312/288
f 313/289 314/290 315/291 316/292
f 317/293 318/294 319/295 320/296
f 321/297 322/298 323/299 324/300
f 325/301 326/302 327/303 328/304
f 329/305 330/306 331/307 332/308
f 333/309 334/310 335/311 336/312
f 353/313 354/314 355/315 356/316
f 357/317 358/318 359/319 360/320
f 361/321 362/322 363/323 364/324
f 365/325 366/326 367/327 368/328
f 369/329 370/330 371/331 372/332
f 373/333 374/334 375/335 376/336
f 377/337 378/338 379/339 380/340
f 381/341 382/342 383/343 384/344
f 385/345 386/346 387/347 388/348
f 389/349 390/350 391/351 392/352
f 393/353 394/354 395/355 396/356
f 397/357 398/358 399/359 400/360
f 401/361 402/362 403/363 404/364
f 405/365 406/366 407/367 408/368
f 409/369 410/370 411/371 412/372
f 413/373 414/374 415/375 416/376
f 417/377 418/378 419/379 420/380
f 421/381 422/382 423/383 424/384
f 425/385 426/386 427/387 428/388
f 429/389 430/390 431/391 432/392
f 433/393 434/394 435/395 436/396
f 437/397 438/398 439/399 440/400
f 441/401 442/402 443/403 444/404
f 445/405 446/406 447/407 448/408
f 457/409 458/410 459/411 460/412
f 461/413 462/414 463/415 464/416
f 465/417 466/418 467/419 468/420
f 469/421 470/422 471/423 472/424
f 473/425 474/426 475/427 476/428
f 477/429 478/430 479/431 480/432
f 481/433 482/434 483/435 484/436
f 485/437 486/438 487/439 488/440
f 489/441 490/442 491/443 492/444
f 493/445 494/446 495/447 496/448
f 497/449 498/450 499/451 500/452
f 501/453 502/454 503/455 504/456
f 505/457 506/458 507/459 508/460
f 509/461 510/462 511/463 512/464
f 513/465 514/466 515/467 516/468
f 517/469 518/470 519/471 520/472
f 521/473 522/474 523/475 524/476
f 525/477 526/478 527/479 528/480
f 529/481 530/482 531/483 532/484
f 533/485 534/486 535/487 536/488
f 537/489 538/490 539/491 540/492
f 541/493 542/494 543/495 544/496
f 545/497 546/498 547/499 548/500
f 549/501 550/502 551/503 552/504
f 553/505 554/506 555/507 556/508
f 557/509 558/510 559/511 560/512
f 561/513 562/514 563/515 564/516
f 565/517 566/518 567/519 568/520
f 569/521 570/522 571/523 572/524
f 573/525 574/526 575/527 576/528
f 585/529 586/530 587/531 588/532
f 589/533 590/534 591/535 592/536
f 593/537 594/538 595/539 596/540
f 597/541 598/542 599/543 600/544
f 601/545 602/546 603/547 604/548
f 605/549 606/550 607/551 608/552
f 609/553 610/554 611/555 612/556
f 613/557 614/558 615/559 616/560
f 617/561 618/562 619/563 620/564
f 621/565 622/566 623/567 624/568
f 625/569 626/570 627/571 628/572
f 629/573 630/574 631/575 632/576
f 633/577 634/578 635/579 636/580
f 637/581 638/582 639/583 640/584
f 641/585 642/586 643/587 644/588
f 645/589 646/590 647/591 648/592
f 649/593 650/594 651/595 652/596
f 653/597 654/598 655/599 656/600
f 665/601 666/602 667/603 668/604
f 669/605 670/606 671/607 672/608
f 673/609 674/610 675/611 676/612
f 677/613 678/614 679/615 680/616
f 681/617 682/618 683/619 684/620
f 685/621 686/622 687/623 688/624
f 697/625 698/626 699/627 700/628
f 701/629 702/630 703/631 704/632
f 705/633 706/634 707/635 708/636
f 709/637 710/638 711/639 712/640
f 713/641 714/642 715/643 716/644
f 717/645 718/646 719/647 720/648
f 721/649 722/650 723/651 724/652
f 725/653 726/654 727/655 728/656
f 729/657 730/658 731/659 732/660
f 733/661 734/662 735/663 736/664
f 737/665 738/666 739/667 740/668
f 741/669 742/670 743/671 744/672
f 745/673 746/674 747/675 748/676
f 749/677 750/678 751/679 752/680
f 753/681 754/682 755/683 756/684
f 757/685 758/686 759/687 760/688
f 761/689 762/690 763/691 764/692
f 765/693 766/694 767/695 768/696
f 769/697 770/698 771/699 772/700
f 773/701 774/702 775/703 776/704
f 777/705 778/706 779/707 780/708
f 781/709 782/710 783/711 784/712
f 785/713 786/714 787/715 788/716
f 789/717 790/718 791/719 792/720
f 793/721 794/722 795/723 796/724
f 797/725 798/726 799/727 800/728
f 801/729 802/730 803/731 804/732
f 805/733 806/734 807/735 808/736
f 809/737 810/738 811/739 812/740
f 813/741 814/742 815/743 816/744
f 817/745 818/746 819/747 820/748
f 821/749 822/750 823/751 824/752
f 825/753 826/754 827/755 828/756
f 829/757 830/758 831/759 832/760
f 833/761 834/762 835/763 836/764
f 837/765 838/766 839/767 840/768
f 849/769 850/770 851/771 852/772
f 853/773 854/774 855/775 856/776
f 857/777 858/778 859/779 860/780
f 861/781 862/782 863/783 864/784
f 865/785 866/786 867/787 868/788
f 869/789 870/790 871/791 872/792
f 873/793 874/794 875/795 876/796
f 877/797 878/798 879/799 880/800
f 881/801 882/802 883/803 884/804
f 885/805 886/806 887/807 888/808
f 889/809 890/810 891/811 892/812
f 893/813 894/814 895/815 896/816
f 897/817 898/818 899/819 900/820
f 901/821 902/822 903/823 904/824
f 905/825 906/826 907/827 908/828
f 909/829 910/830 911/831 912/832
f 913/833 914/834 915/835 916/836
f 917/837 918/838 919/839 920/840
f 929/841 930/842 931/843 932/844
f 933/845 934/846 935/847 936/848
f 937/849 938/850 939/851 940/852
f 941/853 942/854 943/855 944/856
f 945/857 946/858 947/859 948/860
f 949/861 950/862 951/863 952/864
