# RoastEngine Backrooms level
mtllib backrooms.mtl
v 376.0750 0.0000 6.0750
v 376.0750 0.0000 8.9250
v 378.9250 0.0000 8.9250
v 378.9250 0.0000 6.0750
v 376.0750 3.0000 6.0750
v 378.9250 3.0000 6.0750
v 378.9250 3.0000 8.9250
v 376.0750 3.0000 8.9250
v 376.0750 0.0000 6.0750
v 378.9250 0.0000 6.0750
v 378.9250 3.0000 6.0750
v 376.0750 3.0000 6.0750
v 378.9250 0.0000 8.9250
v 376.0750 0.0000 8.9250
v 376.0750 3.0000 8.9250
v 378.9250 3.0000 8.9250
v 378.9250 0.0000 6.0750
v 378.9250 0.0000 8.9250
v 378.9250 3.0000 8.9250
v 378.9250 3.0000 6.0750
v 376.0750 0.0000 8.9250
v 376.0750 0.0000 6.0750
v 376.0750 3.0000 6.0750
v 376.0750 3.0000 8.9250
v 381.0750 0.0000 6.0750
v 381.0750 0.0000 8.9250
v 383.9250 0.0000 8.9250
v 383.9250 0.0000 6.0750
v 381.0750 3.0000 6.0750
v 383.9250 3.0000 6.0750
v 383.9250 3.0000 8.9250
v 381.0750 3.0000 8.9250
v 381.0750 0.0000 6.0750
v 383.9250 0.0000 6.0750
v 383.9250 3.0000 6.0750
v 381.0750 3.0000 6.0750
v 383.9250 0.0000 8.9250
v 381.0750 0.0000 8.9250
v 381.0750 3.0000 8.9250
v 383.9250 3.0000 8.9250
v 383.9250 0.0000 6.0750
v 383.9250 0.0000 8.9250
v 383.9250 3.0000 8.9250
v 383.9250 3.0000 6.0750
v 381.0750 0.0000 8.9250
v 381.0750 0.0000 6.0750
v 381.0750 3.0000 6.0750
v 381.0750 3.0000 8.9250
v 391.0750 0.0000 6.0750
v 391.0750 0.0000 8.9250
v 393.9250 0.0000 8.9250
v 393.9250 0.0000 6.0750
v 391.0750 3.0000 6.0750
v 393.9250 3.0000 6.0750
v 393.9250 3.0000 8.9250
v 391.0750 3.0000 8.9250
v 391.0750 0.0000 6.0750
v 393.9250 0.0000 6.0750
v 393.9250 3.0000 6.0750
v 391.0750 3.0000 6.0750
v 393.9250 0.0000 8.9250
v 391.0750 0.0000 8.9250
v 391.0750 3.0000 8.9250
v 393.9250 3.0000 8.9250
v 393.9250 0.0000 6.0750
v 393.9250 0.0000 8.9250
v 393.9250 3.0000 8.9250
v 393.9250 3.0000 6.0750
v 391.0750 0.0000 8.9250
v 391.0750 0.0000 6.0750
v 391.0750 3.0000 6.0750
v 391.0750 3.0000 8.9250
v 396.0750 0.0000 6.0750
v 396.0750 0.0000 8.9250
v 398.9250 0.0000 8.9250
v 398.9250 0.0000 6.0750
v 396.0750 3.0000 6.0750
v 398.9250 3.0000 6.0750
v 398.9250 3.0000 8.9250
v 396.0750 3.0000 8.9250
v 396.0750 0.0000 6.0750
v 398.9250 0.0000 6.0750
v 398.9250 3.0000 6.0750
v 396.0750 3.0000 6.0750
v 398.9250 0.0000 8.9250
v 396.0750 0.0000 8.9250
v 396.0750 3.0000 8.9250
v 398.9250 3.0000 8.9250
v 398.9250 0.0000 6.0750
v 398.9250 0.0000 8.9250
v 398.9250 3.0000 8.9250
v 398.9250 3.0000 6.0750
v 396.0750 0.0000 8.9250
v 396.0750 0.0000 6.0750
v 396.0750 3.0000 6.0750
v 396.0750 3.0000 8.9250
v 401.0750 0.0000 6.0750
v 401.0750 0.0000 8.9250
v 403.9250 0.0000 8.9250
v 403.9250 0.0000 6.0750
v 401.0750 3.0000 6.0750
v 403.9250 3.0000 6.0750
v 403.9250 3.0000 8.9250
v 401.0750 3.0000 8.9250
v 401.0750 0.0000 6.0750
v 403.9250 0.0000 6.0750
v 403.9250 3.0000 6.0750
v 401.0750 3.0000 6.0750
v 403.9250 0.0000 8.9250
v 401.0750 0.0000 8.9250
v 401.0750 3.0000 8.9250
v 403.9250 3.0000 8.9250
v 403.9250 0.0000 6.0750
v 403.9250 0.0000 8.9250
v 403.9250 3.0000 8.9250
v 403.9250 3.0000 6.0750
v 401.0750 0.0000 8.9250
v 401.0750 0.0000 6.0750
v 401.0750 3.0000 6.0750
v 401.0750 3.0000 8.9250
v 376.0750 0.0000 8.5750
v 376.0750 0.0000 11.4250
v 378.9250 0.0000 11.4250
v 378.9250 0.0000 8.5750
v 376.0750 3.0000 8.5750
v 378.9250 3.0000 8.5750
v 378.9250 3.0000 11.4250
v 376.0750 3.0000 11.4250
v 376.0750 0.0000 8.5750
v 378.9250 0.0000 8.5750
v 378.9250 3.0000 8.5750
v 376.0750 3.0000 8.5750
v 378.9250 0.0000 11.4250
v 376.0750 0.0000 11.4250
v 376.0750 3.0000 11.4250
v 378.9250 3.0000 11.4250
v 378.9250 0.0000 8.5750
v 378.9250 0.0000 11.4250
v 378.9250 3.0000 11.4250
v 378.9250 3.0000 8.5750
v 376.0750 0.0000 11.4250
v 376.0750 0.0000 8.5750
v 376.0750 3.0000 8.5750
v 376.0750 3.0000 11.4250
v 381.0750 0.0000 8.5750
v 381.0750 0.0000 11.4250
v 383.9250 0.0000 11.4250
v 383.9250 0.0000 8.5750
v 381.0750 3.0000 8.5750
v 383.9250 3.0000 8.5750
v 383.9250 3.0000 11.4250
v 381.0750 3.0000 11.4250
v 381.0750 0.0000 8.5750
v 383.9250 0.0000 8.5750
v 383.9250 3.0000 8.5750
v 381.0750 3.0000 8.5750
v 383.9250 0.0000 11.4250
v 381.0750 0.0000 11.4250
v 381.0750 3.0000 11.4250
v 383.9250 3.0000 11.4250
v 383.9250 0.0000 8.5750
v 383.9250 0.0000 11.4250
v 383.9250 3.0000 11.4250
v 383.9250 3.0000 8.5750
v 381.0750 0.0000 11.4250
v 381.0750 0.0000 8.5750
v 381.0750 3.0000 8.5750
v 381.0750 3.0000 11.4250
v 391.0750 0.0000 8.5750
v 391.0750 0.0000 11.4250
v 393.9250 0.0000 11.4250
v 393.9250 0.0000 8.5750
v 391.0750 3.0000 8.5750
v 393.9250 3.0000 8.5750
v 393.9250 3.0000 11.4250
v 391.0750 3.0000 11.4250
v 391.0750 0.0000 8.5750
v 393.9250 0.0000 8.5750
v 393.9250 3.0000 8.5750
v 391.0750 3.0000 8.5750
v 393.9250 0.0000 11.4250
v 391.0750 0.0000 11.4250
v 391.0750 3.0000 11.4250
v 393.9250 3.0000 11.4250
v 393.9250 0.0000 8.5750
v 393.9250 0.0000 11.4250
v 393.9250 3.0000 11.4250
v 393.9250 3.0000 8.5750
v 391.0750 0.0000 11.4250
v 391.0750 0.0000 8.5750
v 391.0750 3.0000 8.5750
v 391.0750 3.0000 11.4250
v 396.0750 0.0000 8.5750
v 396.0750 0.0000 11.4250
v 398.9250 0.0000 11.4250
v 398.9250 0.0000 8.5750
v 396.0750 3.0000 8.5750
v 398.9250 3.0000 8.5750
v 398.9250 3.0000 11.4250
v 396.0750 3.0000 11.4250
v 396.0750 0.0000 8.5750
v 398.9250 0.0000 8.5750
v 398.9250 3.0000 8.5750
v 396.0750 3.0000 8.5750
v 398.9250 0.0000 11.4250
v 396.0750 0.0000 11.4250
v 396.0750 3.0000 11.4250
v 398.9250 3.0000 11.4250
v 398.9250 0.0000 8.5750
v 398.9250 0.0000 11.4250
v 398.9250 3.0000 11.4250
v 398.9250 3.0000 8.5750
v 396.0750 0.0000 11.4250
v 396.0750 0.0000 8.5750
v 396.0750 3.0000 8.5750
v 396.0750 3.0000 11.4250
v 401.0750 0.0000 8.5750
v 403.9250 0.0000 8.5750
v 403.9250 0.0000 11.4250
v 401.0750 0.0000 11.4250
v 401.0750 3.0000 8.5750
v 403.9250 3.0000 8.5750
v 403.9250 3.0000 11.4250
v 401.0750 3.0000 11.4250
v 376.0750 0.0000 11.0750
v 376.0750 0.0000 13.9250
v 378.9250 0.0000 13.9250
v 378.9250 0.0000 11.0750
v 376.0750 3.0000 11.0750
v 378.9250 3.0000 11.0750
v 378.9250 3.0000 13.9250
v 376.0750 3.0000 13.9250
v 376.0750 0.0000 11.0750
v 378.9250 0.0000 11.0750
v 378.9250 3.0000 11.0750
v 376.0750 3.0000 11.0750
v 378.9250 0.0000 13.9250
v 376.0750 0.0000 13.9250
v 376.0750 3.0000 13.9250
v 378.9250 3.0000 13.9250
v 378.9250 0.0000 11.0750
v 378.9250 0.0000 13.9250
v 378.9250 3.0000 13.9250
v 378.9250 3.0000 11.0750
v 376.0750 0.0000 13.9250
v 376.0750 0.0000 11.0750
v 376.0750 3.0000 11.0750
v 376.0750 3.0000 13.9250
v 381.0750 0.0000 11.0750
v 381.0750 0.0000 13.9250
v 383.9250 0.0000 13.9250
v 383.9250 0.0000 11.0750
v 381.0750 3.0000 11.0750
v 383.9250 3.0000 11.0750
v 383.9250 3.0000 13.9250
v 381.0750 3.0000 13.9250
v 381.0750 0.0000 11.0750
v 383.9250 0.0000 11.0750
v 383.9250 3.0000 11.0750
v 381.0750 3.0000 11.0750
v 383.9250 0.0000 13.9250
v 381.0750 0.0000 13.9250
v 381.0750 3.0000 13.9250
v 383.9250 3.0000 13.9250
v 383.9250 0.0000 11.0750
v 383.9250 0.0000 13.9250
v 383.9250 3.0000 13.9250
v 383.9250 3.0000 11.0750
v 381.0750 0.0000 13.9250
v 381.0750 0.0000 11.0750
v 381.0750 3.0000 11.0750
v 381.0750 3.0000 13.9250
v 386.0750 0.0000 11.0750
v 386.0750 0.0000 13.9250
v 388.9250 0.0000 13.9250
v 388.9250 0.0000 11.0750
v 386.0750 3.0000 11.0750
v 388.9250 3.0000 11.0750
v 388.9250 3.0000 13.9250
v 386.0750 3.0000 13.9250
v 386.0750 0.0000 11.0750
v 388.9250 0.0000 11.0750
v 388.9250 3.0000 11.0750
v 386.0750 3.0000 11.0750
v 388.9250 0.0000 13.9250
v 386.0750 0.0000 13.9250
v 386.0750 3.0000 13.9250
v 388.9250 3.0000 13.9250
v 388.9250 0.0000 11.0750
v 388.9250 0.0000 13.9250
v 388.9250 3.0000 13.9250
v 388.9250 3.0000 11.0750
v 386.0750 0.0000 13.9250
v 386.0750 0.0000 11.0750
v 386.0750 3.0000 11.0750
v 386.0750 3.0000 13.9250
v 388.5750 0.0000 11.0750
v 388.5750 0.0000 13.9250
v 391.4250 0.0000 13.9250
v 391.4250 0.0000 11.0750
v 388.5750 3.0000 11.0750
v 391.4250 3.0000 11.0750
v 391.4250 3.0000 13.9250
v 388.5750 3.0000 13.9250
v 388.5750 0.0000 11.0750
v 391.4250 0.0000 11.0750
v 391.4250 3.0000 11.0750
v 388.5750 3.0000 11.0750
v 391.4250 0.0000 13.9250
v 388.5750 0.0000 13.9250
v 388.5750 3.0000 13.9250
v 391.4250 3.0000 13.9250
v 391.4250 0.0000 11.0750
v 391.4250 0.0000 13.9250
v 391.4250 3.0000 13.9250
v 391.4250 3.0000 11.0750
v 388.5750 0.0000 13.9250
v 388.5750 0.0000 11.0750
v 388.5750 3.0000 11.0750
v 388.5750 3.0000 13.9250
v 391.0750 0.0000 11.0750
v 393.9250 0.0000 11.0750
v 393.9250 0.0000 13.9250
v 391.0750 0.0000 13.9250
v 391.0750 3.0000 11.0750
v 393.9250 3.0000 11.0750
v 393.9250 3.0000 13.9250
v 391.0750 3.0000 13.9250
v 396.0750 0.0000 11.0750
v 396.0750 0.0000 13.9250
v 398.9250 0.0000 13.9250
v 398.9250 0.0000 11.0750
v 396.0750 3.0000 11.0750
v 398.9250 3.0000 11.0750
v 398.9250 3.0000 13.9250
v 396.0750 3.0000 13.9250
v 396.0750 0.0000 11.0750
v 398.9250 0.0000 11.0750
v 398.9250 3.0000 11.0750
v 396.0750 3.0000 11.0750
v 398.9250 0.0000 13.9250
v 396.0750 0.0000 13.9250
v 396.0750 3.0000 13.9250
v 398.9250 3.0000 13.9250
v 398.9250 0.0000 11.0750
v 398.9250 0.0000 13.9250
v 398.9250 3.0000 13.9250
v 398.9250 3.0000 11.0750
v 396.0750 0.0000 13.9250
v 396.0750 0.0000 11.0750
v 396.0750 3.0000 11.0750
v 396.0750 3.0000 13.9250
v 398.5750 0.0000 11.0750
v 398.5750 0.0000 13.9250
v 401.4250 0.0000 13.9250
v 401.4250 0.0000 11.0750
v 398.5750 3.0000 11.0750
v 401.4250 3.0000 11.0750
v 401.4250 3.0000 13.9250
v 398.5750 3.0000 13.9250
v 398.5750 0.0000 11.0750
v 401.4250 0.0000 11.0750
v 401.4250 3.0000 11.0750
v 398.5750 3.0000 11.0750
v 401.4250 0.0000 13.9250
v 398.5750 0.0000 13.9250
v 398.5750 3.0000 13.9250
v 401.4250 3.0000 13.9250
v 401.4250 0.0000 11.0750
v 401.4250 0.0000 13.9250
v 401.4250 3.0000 13.9250
v 401.4250 3.0000 11.0750
v 398.5750 0.0000 13.9250
v 398.5750 0.0000 11.0750
v 398.5750 3.0000 11.0750
v 398.5750 3.0000 13.9250
v 401.0750 0.0000 11.0750
v 401.0750 0.0000 13.9250
v 403.9250 0.0000 13.9250
v 403.9250 0.0000 11.0750
v 401.0750 3.0000 11.0750
v 403.9250 3.0000 11.0750
v 403.9250 3.0000 13.9250
v 401.0750 3.0000 13.9250
v 401.0750 0.0000 11.0750
v 403.9250 0.0000 11.0750
v 403.9250 3.0000 11.0750
v 401.0750 3.0000 11.0750
v 403.9250 0.0000 13.9250
v 401.0750 0.0000 13.9250
v 401.0750 3.0000 13.9250
v 403.9250 3.0000 13.9250
v 403.9250 0.0000 11.0750
v 403.9250 0.0000 13.9250
v 403.9250 3.0000 13.9250
v 403.9250 3.0000 11.0750
v 401.0750 0.0000 13.9250
v 401.0750 0.0000 11.0750
v 401.0750 3.0000 11.0750
v 401.0750 3.0000 13.9250
v 376.0750 0.0000 13.5750
v 376.0750 0.0000 16.4250
v 378.9250 0.0000 16.4250
v 378.9250 0.0000 13.5750
v 376.0750 3.0000 13.5750
v 378.9250 3.0000 13.5750
v 378.9250 3.0000 16.4250
v 376.0750 3.0000 16.4250
v 376.0750 0.0000 13.5750
v 378.9250 0.0000 13.5750
v 378.9250 3.0000 13.5750
v 376.0750 3.0000 13.5750
v 378.9250 0.0000 16.4250
v 376.0750 0.0000 16.4250
v 376.0750 3.0000 16.4250
v 378.9250 3.0000 16.4250
v 378.9250 0.0000 13.5750
v 378.9250 0.0000 16.4250
v 378.9250 3.0000 16.4250
v 378.9250 3.0000 13.5750
v 376.0750 0.0000 16.4250
v 376.0750 0.0000 13.5750
v 376.0750 3.0000 13.5750
v 376.0750 3.0000 16.4250
v 391.0750 0.0000 13.5750
v 391.0750 0.0000 16.4250
v 393.9250 0.0000 16.4250
v 393.9250 0.0000 13.5750
v 391.0750 3.0000 13.5750
v 393.9250 3.0000 13.5750
v 393.9250 3.0000 16.4250
v 391.0750 3.0000 16.4250
v 391.0750 0.0000 13.5750
v 393.9250 0.0000 13.5750
v 393.9250 3.0000 13.5750
v 391.0750 3.0000 13.5750
v 393.9250 0.0000 16.4250
v 391.0750 0.0000 16.4250
v 391.0750 3.0000 16.4250
v 393.9250 3.0000 16.4250
v 393.9250 0.0000 13.5750
v 393.9250 0.0000 16.4250
v 393.9250 3.0000 16.4250
v 393.9250 3.0000 13.5750
v 391.0750 0.0000 16.4250
v 391.0750 0.0000 13.5750
v 391.0750 3.0000 13.5750
v 391.0750 3.0000 16.4250
v 396.0750 0.0000 13.5750
v 396.0750 0.0000 16.4250
v 398.9250 0.0000 16.4250
v 398.9250 0.0000 13.5750
v 396.0750 3.0000 13.5750
v 398.9250 3.0000 13.5750
v 398.9250 3.0000 16.4250
v 396.0750 3.0000 16.4250
v 396.0750 0.0000 13.5750
v 398.9250 0.0000 13.5750
v 398.9250 3.0000 13.5750
v 396.0750 3.0000 13.5750
v 398.9250 0.0000 16.4250
v 396.0750 0.0000 16.4250
v 396.0750 3.0000 16.4250
v 398.9250 3.0000 16.4250
v 398.9250 0.0000 13.5750
v 398.9250 0.0000 16.4250
v 398.9250 3.0000 16.4250
v 398.9250 3.0000 13.5750
v 396.0750 0.0000 16.4250
v 396.0750 0.0000 13.5750
v 396.0750 3.0000 13.5750
v 396.0750 3.0000 16.4250
v 376.0750 0.0000 16.0750
v 376.0750 0.0000 18.9250
v 378.9250 0.0000 18.9250
v 378.9250 0.0000 16.0750
v 376.0750 3.0000 16.0750
v 378.9250 3.0000 16.0750
v 378.9250 3.0000 18.9250
v 376.0750 3.0000 18.9250
v 376.0750 0.0000 16.0750
v 378.9250 0.0000 16.0750
v 378.9250 3.0000 16.0750
v 376.0750 3.0000 16.0750
v 378.9250 0.0000 18.9250
v 376.0750 0.0000 18.9250
v 376.0750 3.0000 18.9250
v 378.9250 3.0000 18.9250
v 378.9250 0.0000 16.0750
v 378.9250 0.0000 18.9250
v 378.9250 3.0000 18.9250
v 378.9250 3.0000 16.0750
v 376.0750 0.0000 18.9250
v 376.0750 0.0000 16.0750
v 376.0750 3.0000 16.0750
v 376.0750 3.0000 18.9250
v 381.0750 0.0000 16.0750
v 381.0750 0.0000 18.9250
v 383.9250 0.0000 18.9250
v 383.9250 0.0000 16.0750
v 381.0750 3.0000 16.0750
v 383.9250 3.0000 16.0750
v 383.9250 3.0000 18.9250
v 381.0750 3.0000 18.9250
v 381.0750 0.0000 16.0750
v 383.9250 0.0000 16.0750
v 383.9250 3.0000 16.0750
v 381.0750 3.0000 16.0750
v 383.9250 0.0000 18.9250
v 381.0750 0.0000 18.9250
v 381.0750 3.0000 18.9250
v 383.9250 3.0000 18.9250
v 383.9250 0.0000 16.0750
v 383.9250 0.0000 18.9250
v 383.9250 3.0000 18.9250
v 383.9250 3.0000 16.0750
v 381.0750 0.0000 18.9250
v 381.0750 0.0000 16.0750
v 381.0750 3.0000 16.0750
v 381.0750 3.0000 18.9250
v 383.5750 0.0000 16.0750
v 383.5750 0.0000 18.9250
v 386.4250 0.0000 18.9250
v 386.4250 0.0000 16.0750
v 383.5750 3.0000 16.0750
v 386.4250 3.0000 16.0750
v 386.4250 3.0000 18.9250
v 383.5750 3.0000 18.9250
v 383.5750 0.0000 16.0750
v 386.4250 0.0000 16.0750
v 386.4250 3.0000 16.0750
v 383.5750 3.0000 16.0750
v 386.4250 0.0000 18.9250
v 383.5750 0.0000 18.9250
v 383.5750 3.0000 18.9250
v 386.4250 3.0000 18.9250
v 386.4250 0.0000 16.0750
v 386.4250 0.0000 18.9250
v 386.4250 3.0000 18.9250
v 386.4250 3.0000 16.0750
v 383.5750 0.0000 18.9250
v 383.5750 0.0000 16.0750
v 383.5750 3.0000 16.0750
v 383.5750 3.0000 18.9250
v 386.0750 0.0000 16.0750
v 386.0750 0.0000 18.9250
v 388.9250 0.0000 18.9250
v 388.9250 0.0000 16.0750
v 386.0750 3.0000 16.0750
v 388.9250 3.0000 16.0750
v 388.9250 3.0000 18.9250
v 386.0750 3.0000 18.9250
v 386.0750 0.0000 16.0750
v 388.9250 0.0000 16.0750
v 388.9250 3.0000 16.0750
v 386.0750 3.0000 16.0750
v 388.9250 0.0000 18.9250
v 386.0750 0.0000 18.9250
v 386.0750 3.0000 18.9250
v 388.9250 3.0000 18.9250
v 388.9250 0.0000 16.0750
v 388.9250 0.0000 18.9250
v 388.9250 3.0000 18.9250
v 388.9250 3.0000 16.0750
v 386.0750 0.0000 18.9250
v 386.0750 0.0000 16.0750
v 386.0750 3.0000 16.0750
v 386.0750 3.0000 18.9250
v 388.5750 0.0000 16.0750
v 388.5750 0.0000 18.9250
v 391.4250 0.0000 18.9250
v 391.4250 0.0000 16.0750
v 388.5750 3.0000 16.0750
v 391.4250 3.0000 16.0750
v 391.4250 3.0000 18.9250
v 388.5750 3.0000 18.9250
v 388.5750 0.0000 16.0750
v 391.4250 0.0000 16.0750
v 391.4250 3.0000 16.0750
v 388.5750 3.0000 16.0750
v 391.4250 0.0000 18.9250
v 388.5750 0.0000 18.9250
v 388.5750 3.0000 18.9250
v 391.4250 3.0000 18.9250
v 391.4250 0.0000 16.0750
v 391.4250 0.0000 18.9250
v 391.4250 3.0000 18.9250
v 391.4250 3.0000 16.0750
v 388.5750 0.0000 18.9250
v 388.5750 0.0000 16.0750
v 388.5750 3.0000 16.0750
v 388.5750 3.0000 18.9250
v 391.0750 0.0000 16.0750
v 391.0750 0.0000 18.9250
v 393.9250 0.0000 18.9250
v 393.9250 0.0000 16.0750
v 391.0750 3.0000 16.0750
v 393.9250 3.0000 16.0750
v 393.9250 3.0000 18.9250
v 391.0750 3.0000 18.9250
v 391.0750 0.0000 16.0750
v 393.9250 0.0000 16.0750
v 393.9250 3.0000 16.0750
v 391.0750 3.0000 16.0750
v 393.9250 0.0000 18.9250
v 391.0750 0.0000 18.9250
v 391.0750 3.0000 18.9250
v 393.9250 3.0000 18.9250
v 393.9250 0.0000 16.0750
v 393.9250 0.0000 18.9250
v 393.9250 3.0000 18.9250
v 393.9250 3.0000 16.0750
v 391.0750 0.0000 18.9250
v 391.0750 0.0000 16.0750
v 391.0750 3.0000 16.0750
v 391.0750 3.0000 18.9250
v 396.0750 0.0000 16.0750
v 396.0750 0.0000 18.9250
v 398.9250 0.0000 18.9250
v 398.9250 0.0000 16.0750
v 396.0750 3.0000 16.0750
v 398.9250 3.0000 16.0750
v 398.9250 3.0000 18.9250
v 396.0750 3.0000 18.9250
v 396.0750 0.0000 16.0750
v 398.9250 0.0000 16.0750
v 398.9250 3.0000 16.0750
v 396.0750 3.0000 16.0750
v 398.9250 0.0000 18.9250
v 396.0750 0.0000 18.9250
v 396.0750 3.0000 18.9250
v 398.9250 3.0000 18.9250
v 398.9250 0.0000 16.0750
v 398.9250 0.0000 18.9250
v 398.9250 3.0000 18.9250
v 398.9250 3.0000 16.0750
v 396.0750 0.0000 18.9250
v 396.0750 0.0000 16.0750
v 396.0750 3.0000 16.0750
v 396.0750 3.0000 18.9250
v 401.0750 0.0000 16.0750
v 401.0750 0.0000 18.9250
v 403.9250 0.0000 18.9250
v 403.9250 0.0000 16.0750
v 401.0750 3.0000 16.0750
v 403.9250 3.0000 16.0750
v 403.9250 3.0000 18.9250
v 401.0750 3.0000 18.9250
v 401.0750 0.0000 16.0750
v 403.9250 0.0000 16.0750
v 403.9250 3.0000 16.0750
v 401.0750 3.0000 16.0750
v 403.9250 0.0000 18.9250
v 401.0750 0.0000 18.9250
v 401.0750 3.0000 18.9250
v 403.9250 3.0000 18.9250
v 403.9250 0.0000 16.0750
v 403.9250 0.0000 18.9250
v 403.9250 3.0000 18.9250
v 403.9250 3.0000 16.0750
v 401.0750 0.0000 18.9250
v 401.0750 0.0000 16.0750
v 401.0750 3.0000 16.0750
v 401.0750 3.0000 18.9250
v 403.5750 0.0000 16.0750
v 403.5750 0.0000 18.9250
v 406.4250 0.0000 18.9250
v 406.4250 0.0000 16.0750
v 403.5750 3.0000 16.0750
v 406.4250 3.0000 16.0750
v 406.4250 3.0000 18.9250
v 403.5750 3.0000 18.9250
v 403.5750 0.0000 16.0750
v 406.4250 0.0000 16.0750
v 406.4250 3.0000 16.0750
v 403.5750 3.0000 16.0750
v 406.4250 0.0000 18.9250
v 403.5750 0.0000 18.9250
v 403.5750 3.0000 18.9250
v 406.4250 3.0000 18.9250
v 406.4250 0.0000 16.0750
v 406.4250 0.0000 18.9250
v 406.4250 3.0000 18.9250
v 406.4250 3.0000 16.0750
v 403.5750 0.0000 18.9250
v 403.5750 0.0000 16.0750
v 403.5750 3.0000 16.0750
v 403.5750 3.0000 18.9250
v 376.0750 0.0000 18.5750
v 376.0750 0.0000 21.4250
v 378.9250 0.0000 21.4250
v 378.9250 0.0000 18.5750
v 376.0750 3.0000 18.5750
v 378.9250 3.0000 18.5750
v 378.9250 3.0000 21.4250
v 376.0750 3.0000 21.4250
v 376.0750 0.0000 18.5750
v 378.9250 0.0000 18.5750
v 378.9250 3.0000 18.5750
v 376.0750 3.0000 18.5750
v 378.9250 0.0000 21.4250
v 376.0750 0.0000 21.4250
v 376.0750 3.0000 21.4250
v 378.9250 3.0000 21.4250
v 378.9250 0.0000 18.5750
v 378.9250 0.0000 21.4250
v 378.9250 3.0000 21.4250
v 378.9250 3.0000 18.5750
v 376.0750 0.0000 21.4250
v 376.0750 0.0000 18.5750
v 376.0750 3.0000 18.5750
v 376.0750 3.0000 21.4250
v 381.0750 0.0000 18.5750
v 381.0750 0.0000 21.4250
v 383.9250 0.0000 21.4250
v 383.9250 0.0000 18.5750
v 381.0750 3.0000 18.5750
v 383.9250 3.0000 18.5750
v 383.9250 3.0000 21.4250
v 381.0750 3.0000 21.4250
v 381.0750 0.0000 18.5750
v 383.9250 0.0000 18.5750
v 383.9250 3.0000 18.5750
v 381.0750 3.0000 18.5750
v 383.9250 0.0000 21.4250
v 381.0750 0.0000 21.4250
v 381.0750 3.0000 21.4250
v 383.9250 3.0000 21.4250
v 383.9250 0.0000 18.5750
v 383.9250 0.0000 21.4250
v 383.9250 3.0000 21.4250
v 383.9250 3.0000 18.5750
v 381.0750 0.0000 21.4250
v 381.0750 0.0000 18.5750
v 381.0750 3.0000 18.5750
v 381.0750 3.0000 21.4250
v 376.0750 0.0000 21.0750
v 376.0750 0.0000 23.9250
v 378.9250 0.0000 23.9250
v 378.9250 0.0000 21.0750
v 376.0750 3.0000 21.0750
v 378.9250 3.0000 21.0750
v 378.9250 3.0000 23.9250
v 376.0750 3.0000 23.9250
v 376.0750 0.0000 21.0750
v 378.9250 0.0000 21.0750
v 378.9250 3.0000 21.0750
v 376.0750 3.0000 21.0750
v 378.9250 0.0000 23.9250
v 376.0750 0.0000 23.9250
v 376.0750 3.0000 23.9250
v 378.9250 3.0000 23.9250
v 378.9250 0.0000 21.0750
v 378.9250 0.0000 23.9250
v 378.9250 3.0000 23.9250
v 378.9250 3.0000 21.0750
v 376.0750 0.0000 23.9250
v 376.0750 0.0000 21.0750
v 376.0750 3.0000 21.0750
v 376.0750 3.0000 23.9250
v 381.0750 0.0000 21.0750
v 383.9250 0.0000 21.0750
v 383.9250 0.0000 23.9250
v 381.0750 0.0000 23.9250
v 381.0750 3.0000 21.0750
v 383.9250 3.0000 21.0750
v 383.9250 3.0000 23.9250
v 381.0750 3.0000 23.9250
v 386.0750 0.0000 21.0750
v 388.9250 0.0000 21.0750
v 388.9250 0.0000 23.9250
v 386.0750 0.0000 23.9250
v 386.0750 3.0000 21.0750
v 388.9250 3.0000 21.0750
v 388.9250 3.0000 23.9250
v 386.0750 3.0000 23.9250
v 391.0750 0.0000 21.0750
v 391.0750 0.0000 23.9250
v 393.9250 0.0000 23.9250
v 393.9250 0.0000 21.0750
v 391.0750 3.0000 21.0750
v 393.9250 3.0000 21.0750
v 393.9250 3.0000 23.9250
v 391.0750 3.0000 23.9250
v 391.0750 0.0000 21.0750
v 393.9250 0.0000 21.0750
v 393.9250 3.0000 21.0750
v 391.0750 3.0000 21.0750
v 393.9250 0.0000 23.9250
v 391.0750 0.0000 23.9250
v 391.0750 3.0000 23.9250
v 393.9250 3.0000 23.9250
v 393.9250 0.0000 21.0750
v 393.9250 0.0000 23.9250
v 393.9250 3.0000 23.9250
v 393.9250 3.0000 21.0750
v 391.0750 0.0000 23.9250
v 391.0750 0.0000 21.0750
v 391.0750 3.0000 21.0750
v 391.0750 3.0000 23.9250
v 393.5750 0.0000 21.0750
v 393.5750 0.0000 23.9250
v 396.4250 0.0000 23.9250
v 396.4250 0.0000 21.0750
v 393.5750 3.0000 21.0750
v 396.4250 3.0000 21.0750
v 396.4250 3.0000 23.9250
v 393.5750 3.0000 23.9250
v 393.5750 0.0000 21.0750
v 396.4250 0.0000 21.0750
v 396.4250 3.0000 21.0750
v 393.5750 3.0000 21.0750
v 396.4250 0.0000 23.9250
v 393.5750 0.0000 23.9250
v 393.5750 3.0000 23.9250
v 396.4250 3.0000 23.9250
v 396.4250 0.0000 21.0750
v 396.4250 0.0000 23.9250
v 396.4250 3.0000 23.9250
v 396.4250 3.0000 21.0750
v 393.5750 0.0000 23.9250
v 393.5750 0.0000 21.0750
v 393.5750 3.0000 21.0750
v 393.5750 3.0000 23.9250
v 396.0750 0.0000 21.0750
v 396.0750 0.0000 23.9250
v 398.9250 0.0000 23.9250
v 398.9250 0.0000 21.0750
v 396.0750 3.0000 21.0750
v 398.9250 3.0000 21.0750
v 398.9250 3.0000 23.9250
v 396.0750 3.0000 23.9250
v 396.0750 0.0000 21.0750
v 398.9250 0.0000 21.0750
v 398.9250 3.0000 21.0750
v 396.0750 3.0000 21.0750
v 398.9250 0.0000 23.9250
v 396.0750 0.0000 23.9250
v 396.0750 3.0000 23.9250
v 398.9250 3.0000 23.9250
v 398.9250 0.0000 21.0750
v 398.9250 0.0000 23.9250
v 398.9250 3.0000 23.9250
v 398.9250 3.0000 21.0750
v 396.0750 0.0000 23.9250
v 396.0750 0.0000 21.0750
v 396.0750 3.0000 21.0750
v 396.0750 3.0000 23.9250
v 401.0750 0.0000 21.0750
v 403.9250 0.0000 21.0750
v 403.9250 0.0000 23.9250
v 401.0750 0.0000 23.9250
v 401.0750 3.0000 21.0750
v 403.9250 3.0000 21.0750
v 403.9250 3.0000 23.9250
v 401.0750 3.0000 23.9250
v 403.5750 0.0000 21.0750
v 403.5750 0.0000 23.9250
v 406.4250 0.0000 23.9250
v 406.4250 0.0000 21.0750
v 403.5750 3.0000 21.0750
v 406.4250 3.0000 21.0750
v 406.4250 3.0000 23.9250
v 403.5750 3.0000 23.9250
v 403.5750 0.0000 21.0750
v 406.4250 0.0000 21.0750
v 406.4250 3.0000 21.0750
v 403.5750 3.0000 21.0750
v 406.4250 0.0000 23.9250
v 403.5750 0.0000 23.9250
v 403.5750 3.0000 23.9250
v 406.4250 3.0000 23.9250
v 406.4250 0.0000 21.0750
v 406.4250 0.0000 23.9250
v 406.4250 3.0000 23.9250
v 406.4250 3.0000 21.0750
v 403.5750 0.0000 23.9250
v 403.5750 0.0000 21.0750
v 403.5750 3.0000 21.0750
v 403.5750 3.0000 23.9250
v 376.0750 0.0000 23.5750
v 376.0750 0.0000 26.4250
v 378.9250 0.0000 26.4250
v 378.9250 0.0000 23.5750
v 376.0750 3.0000 23.5750
v 378.9250 3.0000 23.5750
v 378.9250 3.0000 26.4250
v 376.0750 3.0000 26.4250
v 376.0750 0.0000 23.5750
v 378.9250 0.0000 23.5750
v 378.9250 3.0000 23.5750
v 376.0750 3.0000 23.5750
v 378.9250 0.0000 26.4250
v 376.0750 0.0000 26.4250
v 376.0750 3.0000 26.4250
v 378.9250 3.0000 26.4250
v 378.9250 0.0000 23.5750
v 378.9250 0.0000 26.4250
v 378.9250 3.0000 26.4250
v 378.9250 3.0000 23.5750
v 376.0750 0.0000 26.4250
v 376.0750 0.0000 23.5750
v 376.0750 3.0000 23.5750
v 376.0750 3.0000 26.4250
v 381.0750 0.0000 23.5750
v 381.0750 0.0000 26.4250
v 383.9250 0.0000 26.4250
v 383.9250 0.0000 23.5750
v 381.0750 3.0000 23.5750
v 383.9250 3.0000 23.5750
v 383.9250 3.0000 26.4250
v 381.0750 3.0000 26.4250
v 381.0750 0.0000 23.5750
v 383.9250 0.0000 23.5750
v 383.9250 3.0000 23.5750
v 381.0750 3.0000 23.5750
v 383.9250 0.0000 26.4250
v 381.0750 0.0000 26.4250
v 381.0750 3.0000 26.4250
v 383.9250 3.0000 26.4250
v 383.9250 0.0000 23.5750
v 383.9250 0.0000 26.4250
v 383.9250 3.0000 26.4250
v 383.9250 3.0000 23.5750
v 381.0750 0.0000 26.4250
v 381.0750 0.0000 23.5750
v 381.0750 3.0000 23.5750
v 381.0750 3.0000 26.4250
v 396.0750 0.0000 23.5750
v 396.0750 0.0000 26.4250
v 398.9250 0.0000 26.4250
v 398.9250 0.0000 23.5750
v 396.0750 3.0000 23.5750
v 398.9250 3.0000 23.5750
v 398.9250 3.0000 26.4250
v 396.0750 3.0000 26.4250
v 396.0750 0.0000 23.5750
v 398.9250 0.0000 23.5750
v 398.9250 3.0000 23.5750
v 396.0750 3.0000 23.5750
v 398.9250 0.0000 26.4250
v 396.0750 0.0000 26.4250
v 396.0750 3.0000 26.4250
v 398.9250 3.0000 26.4250
v 398.9250 0.0000 23.5750
v 398.9250 0.0000 26.4250
v 398.9250 3.0000 26.4250
v 398.9250 3.0000 23.5750
v 396.0750 0.0000 26.4250
v 396.0750 0.0000 23.5750
v 396.0750 3.0000 23.5750
v 396.0750 3.0000 26.4250
v 376.0750 0.0000 26.0750
v 376.0750 0.0000 28.9250
v 378.9250 0.0000 28.9250
v 378.9250 0.0000 26.0750
v 376.0750 3.0000 26.0750
v 378.9250 3.0000 26.0750
v 378.9250 3.0000 28.9250
v 376.0750 3.0000 28.9250
v 376.0750 0.0000 26.0750
v 378.9250 0.0000 26.0750
v 378.9250 3.0000 26.0750
v 376.0750 3.0000 26.0750
v 378.9250 0.0000 28.9250
v 376.0750 0.0000 28.9250
v 376.0750 3.0000 28.9250
v 378.9250 3.0000 28.9250
v 378.9250 0.0000 26.0750
v 378.9250 0.0000 28.9250
v 378.9250 3.0000 28.9250
v 378.9250 3.0000 26.0750
v 376.0750 0.0000 28.9250
v 376.0750 0.0000 26.0750
v 376.0750 3.0000 26.0750
v 376.0750 3.0000 28.9250
v 381.0750 0.0000 26.0750
v 381.0750 0.0000 28.9250
v 383.9250 0.0000 28.9250
v 383.9250 0.0000 26.0750
v 381.0750 3.0000 26.0750
v 383.9250 3.0000 26.0750
v 383.9250 3.0000 28.9250
v 381.0750 3.0000 28.9250
v 381.0750 0.0000 26.0750
v 383.9250 0.0000 26.0750
v 383.9250 3.0000 26.0750
v 381.0750 3.0000 26.0750
v 383.9250 0.0000 28.9250
v 381.0750 0.0000 28.9250
v 381.0750 3.0000 28.9250
v 383.9250 3.0000 28.9250
v 383.9250 0.0000 26.0750
v 383.9250 0.0000 28.9250
v 383.9250 3.0000 28.9250
v 383.9250 3.0000 26.0750
v 381.0750 0.0000 28.9250
v 381.0750 0.0000 26.0750
v 381.0750 3.0000 26.0750
v 381.0750 3.0000 28.9250
v 391.0750 0.0000 26.0750
v 393.9250 0.0000 26.0750
v 393.9250 0.0000 28.9250
v 391.0750 0.0000 28.9250
v 391.0750 3.0000 26.0750
v 393.9250 3.0000 26.0750
v 393.9250 3.0000 28.9250
v 391.0750 3.0000 28.9250
v 396.0750 0.0000 26.0750
v 396.0750 0.0000 28.9250
v 398.9250 0.0000 28.9250
v 398.9250 0.0000 26.0750
v 396.0750 3.0000 26.0750
v 398.9250 3.0000 26.0750
v 398.9250 3.0000 28.9250
v 396.0750 3.0000 28.9250
v 396.0750 0.0000 26.0750
v 398.9250 0.0000 26.0750
v 398.9250 3.0000 26.0750
v 396.0750 3.0000 26.0750
v 398.9250 0.0000 28.9250
v 396.0750 0.0000 28.9250
v 396.0750 3.0000 28.9250
v 398.9250 3.0000 28.9250
v 398.9250 0.0000 26.0750
v 398.9250 0.0000 28.9250
v 398.9250 3.0000 28.9250
v 398.9250 3.0000 26.0750
v 396.0750 0.0000 28.9250
v 396.0750 0.0000 26.0750
v 396.0750 3.0000 26.0750
v 396.0750 3.0000 28.9250
v 401.0750 0.0000 26.0750
v 403.9250 0.0000 26.0750
v 403.9250 0.0000 28.9250
v 401.0750 0.0000 28.9250
v 401.0750 3.0000 26.0750
v 403.9250 3.0000 26.0750
v 403.9250 3.0000 28.9250
v 401.0750 3.0000 28.9250
v 403.5750 0.0000 26.0750
v 403.5750 0.0000 28.9250
v 406.4250 0.0000 28.9250
v 406.4250 0.0000 26.0750
v 403.5750 3.0000 26.0750
v 406.4250 3.0000 26.0750
v 406.4250 3.0000 28.9250
v 403.5750 3.0000 28.9250
v 403.5750 0.0000 26.0750
v 406.4250 0.0000 26.0750
v 406.4250 3.0000 26.0750
v 403.5750 3.0000 26.0750
v 406.4250 0.0000 28.9250
v 403.5750 0.0000 28.9250
v 403.5750 3.0000 28.9250
v 406.4250 3.0000 28.9250
v 406.4250 0.0000 26.0750
v 406.4250 0.0000 28.9250
v 406.4250 3.0000 28.9250
v 406.4250 3.0000 26.0750
v 403.5750 0.0000 28.9250
v 403.5750 0.0000 26.0750
v 403.5750 3.0000 26.0750
v 403.5750 3.0000 28.9250
v 376.0750 0.0000 28.5750
v 376.0750 0.0000 31.4250
v 378.9250 0.0000 31.4250
v 378.9250 0.0000 28.5750
v 376.0750 3.0000 28.5750
v 378.9250 3.0000 28.5750
v 378.9250 3.0000 31.4250
v 376.0750 3.0000 31.4250
v 376.0750 0.0000 28.5750
v 378.9250 0.0000 28.5750
v 378.9250 3.0000 28.5750
v 376.0750 3.0000 28.5750
v 378.9250 0.0000 31.4250
v 376.0750 0.0000 31.4250
v 376.0750 3.0000 31.4250
v 378.9250 3.0000 31.4250
v 378.9250 0.0000 28.5750
v 378.9250 0.0000 31.4250
v 378.9250 3.0000 31.4250
v 378.9250 3.0000 28.5750
v 376.0750 0.0000 31.4250
v 376.0750 0.0000 28.5750
v 376.0750 3.0000 28.5750
v 376.0750 3.0000 31.4250
v 381.0750 0.0000 28.5750
v 381.0750 0.0000 31.4250
v 383.9250 0.0000 31.4250
v 383.9250 0.0000 28.5750
v 381.0750 3.0000 28.5750
v 383.9250 3.0000 28.5750
v 383.9250 3.0000 31.4250
v 381.0750 3.0000 31.4250
v 381.0750 0.0000 28.5750
v 383.9250 0.0000 28.5750
v 383.9250 3.0000 28.5750
v 381.0750 3.0000 28.5750
v 383.9250 0.0000 31.4250
v 381.0750 0.0000 31.4250
v 381.0750 3.0000 31.4250
v 383.9250 3.0000 31.4250
v 383.9250 0.0000 28.5750
v 383.9250 0.0000 31.4250
v 383.9250 3.0000 31.4250
v 383.9250 3.0000 28.5750
v 381.0750 0.0000 31.4250
v 381.0750 0.0000 28.5750
v 381.0750 3.0000 28.5750
v 381.0750 3.0000 31.4250
v 391.0750 0.0000 28.5750
v 391.0750 0.0000 31.4250
v 393.9250 0.0000 31.4250
v 393.9250 0.0000 28.5750
v 391.0750 3.0000 28.5750
v 393.9250 3.0000 28.5750
v 393.9250 3.0000 31.4250
v 391.0750 3.0000 31.4250
v 391.0750 0.0000 28.5750
v 393.9250 0.0000 28.5750
v 393.9250 3.0000 28.5750
v 391.0750 3.0000 28.5750
v 393.9250 0.0000 31.4250
v 391.0750 0.0000 31.4250
v 391.0750 3.0000 31.4250
v 393.9250 3.0000 31.4250
v 393.9250 0.0000 28.5750
v 393.9250 0.0000 31.4250
v 393.9250 3.0000 31.4250
v 393.9250 3.0000 28.5750
v 391.0750 0.0000 31.4250
v 391.0750 0.0000 28.5750
v 391.0750 3.0000 28.5750
v 391.0750 3.0000 31.4250
v 376.0750 0.0000 31.0750
v 376.0750 0.0000 33.9250
v 378.9250 0.0000 33.9250
v 378.9250 0.0000 31.0750
v 376.0750 3.0000 31.0750
v 378.9250 3.0000 31.0750
v 378.9250 3.0000 33.9250
v 376.0750 3.0000 33.9250
v 376.0750 0.0000 31.0750
v 378.9250 0.0000 31.0750
v 378.9250 3.0000 31.0750
v 376.0750 3.0000 31.0750
v 378.9250 0.0000 33.9250
v 376.0750 0.0000 33.9250
v 376.0750 3.0000 33.9250
v 378.9250 3.0000 33.9250
v 378.9250 0.0000 31.0750
v 378.9250 0.0000 33.9250
v 378.9250 3.0000 33.9250
v 378.9250 3.0000 31.0750
v 376.0750 0.0000 33.9250
v 376.0750 0.0000 31.0750
v 376.0750 3.0000 31.0750
v 376.0750 3.0000 33.9250
v 381.0750 0.0000 31.0750
v 381.0750 0.0000 33.9250
v 383.9250 0.0000 33.9250
v 383.9250 0.0000 31.0750
v 381.0750 3.0000 31.0750
v 383.9250 3.0000 31.0750
v 383.9250 3.0000 33.9250
v 381.0750 3.0000 33.9250
v 381.0750 0.0000 31.0750
v 383.9250 0.0000 31.0750
v 383.9250 3.0000 31.0750
v 381.0750 3.0000 31.0750
v 383.9250 0.0000 33.9250
v 381.0750 0.0000 33.9250
v 381.0750 3.0000 33.9250
v 383.9250 3.0000 33.9250
v 383.9250 0.0000 31.0750
v 383.9250 0.0000 33.9250
v 383.9250 3.0000 33.9250
v 383.9250 3.0000 31.0750
v 381.0750 0.0000 33.9250
v 381.0750 0.0000 31.0750
v 381.0750 3.0000 31.0750
v 381.0750 3.0000 33.9250
v 383.5750 0.0000 31.0750
v 383.5750 0.0000 33.9250
v 386.4250 0.0000 33.9250
v 386.4250 0.0000 31.0750
v 383.5750 3.0000 31.0750
v 386.4250 3.0000 31.0750
v 386.4250 3.0000 33.9250
v 383.5750 3.0000 33.9250
v 383.5750 0.0000 31.0750
v 386.4250 0.0000 31.0750
v 386.4250 3.0000 31.0750
v 383.5750 3.0000 31.0750
v 386.4250 0.0000 33.9250
v 383.5750 0.0000 33.9250
v 383.5750 3.0000 33.9250
v 386.4250 3.0000 33.9250
v 386.4250 0.0000 31.0750
v 386.4250 0.0000 33.9250
v 386.4250 3.0000 33.9250
v 386.4250 3.0000 31.0750
v 383.5750 0.0000 33.9250
v 383.5750 0.0000 31.0750
v 383.5750 3.0000 31.0750
v 383.5750 3.0000 33.9250
v 386.0750 0.0000 31.0750
v 386.0750 0.0000 33.9250
v 388.9250 0.0000 33.9250
v 388.9250 0.0000 31.0750
v 386.0750 3.0000 31.0750
v 388.9250 3.0000 31.0750
v 388.9250 3.0000 33.9250
v 386.0750 3.0000 33.9250
v 386.0750 0.0000 31.0750
v 388.9250 0.0000 31.0750
v 388.9250 3.0000 31.0750
v 386.0750 3.0000 31.0750
v 388.9250 0.0000 33.9250
v 386.0750 0.0000 33.9250
v 386.0750 3.0000 33.9250
v 388.9250 3.0000 33.9250
v 388.9250 0.0000 31.0750
v 388.9250 0.0000 33.9250
v 388.9250 3.0000 33.9250
v 388.9250 3.0000 31.0750
v 386.0750 0.0000 33.9250
v 386.0750 0.0000 31.0750
v 386.0750 3.0000 31.0750
v 386.0750 3.0000 33.9250
v 388.5750 0.0000 31.0750
v 391.4250 0.0000 31.0750
v 391.4250 0.0000 33.9250
v 388.5750 0.0000 33.9250
v 388.5750 3.0000 31.0750
v 391.4250 3.0000 31.0750
v 391.4250 3.0000 33.9250
v 388.5750 3.0000 33.9250
v 391.0750 0.0000 31.0750
v 391.0750 0.0000 33.9250
v 393.9250 0.0000 33.9250
v 393.9250 0.0000 31.0750
v 391.0750 3.0000 31.0750
v 393.9250 3.0000 31.0750
v 393.9250 3.0000 33.9250
v 391.0750 3.0000 33.9250
v 391.0750 0.0000 31.0750
v 393.9250 0.0000 31.0750
v 393.9250 3.0000 31.0750
v 391.0750 3.0000 31.0750
v 393.9250 0.0000 33.9250
v 391.0750 0.0000 33.9250
v 391.0750 3.0000 33.9250
v 393.9250 3.0000 33.9250
v 393.9250 0.0000 31.0750
v 393.9250 0.0000 33.9250
v 393.9250 3.0000 33.9250
v 393.9250 3.0000 31.0750
v 391.0750 0.0000 33.9250
v 391.0750 0.0000 31.0750
v 391.0750 3.0000 31.0750
v 391.0750 3.0000 33.9250
v 393.5750 0.0000 31.0750
v 393.5750 0.0000 33.9250
v 396.4250 0.0000 33.9250
v 396.4250 0.0000 31.0750
v 393.5750 3.0000 31.0750
v 396.4250 3.0000 31.0750
v 396.4250 3.0000 33.9250
v 393.5750 3.0000 33.9250
v 393.5750 0.0000 31.0750
v 396.4250 0.0000 31.0750
v 396.4250 3.0000 31.0750
v 393.5750 3.0000 31.0750
v 396.4250 0.0000 33.9250
v 393.5750 0.0000 33.9250
v 393.5750 3.0000 33.9250
v 396.4250 3.0000 33.9250
v 396.4250 0.0000 31.0750
v 396.4250 0.0000 33.9250
v 396.4250 3.0000 33.9250
v 396.4250 3.0000 31.0750
v 393.5750 0.0000 33.9250
v 393.5750 0.0000 31.0750
v 393.5750 3.0000 31.0750
v 393.5750 3.0000 33.9250
v 396.0750 0.0000 31.0750
v 396.0750 0.0000 33.9250
v 398.9250 0.0000 33.9250
v 398.9250 0.0000 31.0750
v 396.0750 3.0000 31.0750
v 398.9250 3.0000 31.0750
v 398.9250 3.0000 33.9250
v 396.0750 3.0000 33.9250
v 396.0750 0.0000 31.0750
v 398.9250 0.0000 31.0750
v 398.9250 3.0000 31.0750
v 396.0750 3.0000 31.0750
v 398.9250 0.0000 33.9250
v 396.0750 0.0000 33.9250
v 396.0750 3.0000 33.9250
v 398.9250 3.0000 33.9250
v 398.9250 0.0000 31.0750
v 398.9250 0.0000 33.9250
v 398.9250 3.0000 33.9250
v 398.9250 3.0000 31.0750
v 396.0750 0.0000 33.9250
v 396.0750 0.0000 31.0750
v 396.0750 3.0000 31.0750
v 396.0750 3.0000 33.9250
v 398.5750 0.0000 31.0750
v 401.4250 0.0000 31.0750
v 401.4250 0.0000 33.9250
v 398.5750 0.0000 33.9250
v 398.5750 3.0000 31.0750
v 401.4250 3.0000 31.0750
v 401.4250 3.0000 33.9250
v 398.5750 3.0000 33.9250
v 401.0750 0.0000 31.0750
v 401.0750 0.0000 33.9250
v 403.9250 0.0000 33.9250
v 403.9250 0.0000 31.0750
v 401.0750 3.0000 31.0750
v 403.9250 3.0000 31.0750
v 403.9250 3.0000 33.9250
v 401.0750 3.0000 33.9250
v 401.0750 0.0000 31.0750
v 403.9250 0.0000 31.0750
v 403.9250 3.0000 31.0750
v 401.0750 3.0000 31.0750
v 403.9250 0.0000 33.9250
v 401.0750 0.0000 33.9250
v 401.0750 3.0000 33.9250
v 403.9250 3.0000 33.9250
v 403.9250 0.0000 31.0750
v 403.9250 0.0000 33.9250
v 403.9250 3.0000 33.9250
v 403.9250 3.0000 31.0750
v 401.0750 0.0000 33.9250
v 401.0750 0.0000 31.0750
v 401.0750 3.0000 31.0750
v 401.0750 3.0000 33.9250
v 403.5750 0.0000 31.0750
v 403.5750 0.0000 33.9250
v 406.4250 0.0000 33.9250
v 406.4250 0.0000 31.0750
v 403.5750 3.0000 31.0750
v 406.4250 3.0000 31.0750
v 406.4250 3.0000 33.9250
v 403.5750 3.0000 33.9250
v 403.5750 0.0000 31.0750
v 406.4250 0.0000 31.0750
v 406.4250 3.0000 31.0750
v 403.5750 3.0000 31.0750
v 406.4250 0.0000 33.9250
v 403.5750 0.0000 33.9250
v 403.5750 3.0000 33.9250
v 406.4250 3.0000 33.9250
v 406.4250 0.0000 31.0750
v 406.4250 0.0000 33.9250
v 406.4250 3.0000 33.9250
v 406.4250 3.0000 31.0750
v 403.5750 0.0000 33.9250
v 403.5750 0.0000 31.0750
v 403.5750 3.0000 31.0750
v 403.5750 3.0000 33.9250
v 381.0750 0.0000 33.5750
v 381.0750 0.0000 36.4250
v 383.9250 0.0000 36.4250
v 383.9250 0.0000 33.5750
v 381.0750 3.0000 33.5750
v 383.9250 3.0000 33.5750
v 383.9250 3.0000 36.4250
v 381.0750 3.0000 36.4250
v 381.0750 0.0000 33.5750
v 383.9250 0.0000 33.5750
v 383.9250 3.0000 33.5750
v 381.0750 3.0000 33.5750
v 383.9250 0.0000 36.4250
v 381.0750 0.0000 36.4250
v 381.0750 3.0000 36.4250
v 383.9250 3.0000 36.4250
v 383.9250 0.0000 33.5750
v 383.9250 0.0000 36.4250
v 383.9250 3.0000 36.4250
v 383.9250 3.0000 33.5750
v 381.0750 0.0000 36.4250
v 381.0750 0.0000 33.5750
v 381.0750 3.0000 33.5750
v 381.0750 3.0000 36.4250
v 379.8250 2.7600 9.8250
v 380.1750 2.7600 9.8250
v 380.1750 2.7600 10.1750
v 379.8250 2.7600 10.1750
v 379.8250 2.8800 9.8250
v 380.1750 2.8800 9.8250
v 380.1750 2.8800 10.1750
v 379.8250 2.8800 10.1750
v 404.8250 2.7600 9.8250
v 405.1750 2.7600 9.8250
v 405.1750 2.7600 10.1750
v 404.8250 2.7600 10.1750
v 404.8250 2.8800 9.8250
v 405.1750 2.8800 9.8250
v 405.1750 2.8800 10.1750
v 404.8250 2.8800 10.1750
v 399.8250 2.7600 14.8250
v 400.1750 2.7600 14.8250
v 400.1750 2.7600 15.1750
v 399.8250 2.7600 15.1750
v 399.8250 2.8800 14.8250
v 400.1750 2.8800 14.8250
v 400.1750 2.8800 15.1750
v 399.8250 2.8800 15.1750
v 394.8250 2.7600 19.8250
v 395.1750 2.7600 19.8250
v 395.1750 2.7600 20.1750
v 394.8250 2.7600 20.1750
v 394.8250 2.8800 19.8250
v 395.1750 2.8800 19.8250
v 395.1750 2.8800 20.1750
v 394.8250 2.8800 20.1750
v 399.8250 2.7600 19.8250
v 400.1750 2.7600 19.8250
v 400.1750 2.7600 20.1750
v 399.8250 2.7600 20.1750
v 399.8250 2.8800 19.8250
v 400.1750 2.8800 19.8250
v 400.1750 2.8800 20.1750
v 399.8250 2.8800 20.1750
v 404.8250 2.7600 19.8250
v 405.1750 2.7600 19.8250
v 405.1750 2.7600 20.1750
v 404.8250 2.7600 20.1750
v 404.8250 2.8800 19.8250
v 405.1750 2.8800 19.8250
v 405.1750 2.8800 20.1750
v 404.8250 2.8800 20.1750
v 399.8250 2.7600 24.8250
v 400.1750 2.7600 24.8250
v 400.1750 2.7600 25.1750
v 399.8250 2.7600 25.1750
v 399.8250 2.8800 24.8250
v 400.1750 2.8800 24.8250
v 400.1750 2.8800 25.1750
v 399.8250 2.8800 25.1750
v 404.8250 2.7600 29.8250
v 405.1750 2.7600 29.8250
v 405.1750 2.7600 30.1750
v 404.8250 2.7600 30.1750
v 404.8250 2.8800 29.8250
v 405.1750 2.8800 29.8250
v 405.1750 2.8800 30.1750
v 404.8250 2.8800 30.1750
v 379.8250 2.7600 34.8250
v 380.1750 2.7600 34.8250
v 380.1750 2.7600 35.1750
v 379.8250 2.7600 35.1750
v 379.8250 2.8800 34.8250
v 380.1750 2.8800 34.8250
v 380.1750 2.8800 35.1750
v 379.8250 2.8800 35.1750
v 377.6200 2.6000 7.5000
v 377.6200 2.6000 7.5000
v 377.5849 2.6000 7.5849
v 377.5849 2.6000 7.5849
v 377.5000 2.6000 7.6200
v 377.5000 2.6000 7.6200
v 377.4151 2.6000 7.5849
v 377.4151 2.6000 7.5849
v 377.3800 2.6000 7.5000
v 377.3800 2.6000 7.5000
v 377.4151 2.6000 7.4151
v 377.4151 2.6000 7.4151
v 377.5000 2.6000 7.3800
v 377.5000 2.6000 7.3800
v 377.5849 2.6000 7.4151
v 377.5849 2.6000 7.4151
v 377.5000 2.6000 7.5000
v 377.5000 2.6000 7.5000
v 377.5000 2.4800 7.3800
v 405.0000 2.4800 7.3800
v 405.0000 2.4800 7.6200
v 377.5000 2.4800 7.6200
v 377.5000 2.7200 7.3800
v 405.0000 2.7200 7.3800
v 405.0000 2.7200 7.6200
v 377.5000 2.7200 7.6200
v 377.6200 2.6000 17.5000
v 377.6200 2.6000 17.5000
v 377.5849 2.6000 17.5849
v 377.5849 2.6000 17.5849
v 377.5000 2.6000 17.6200
v 377.5000 2.6000 17.6200
v 377.4151 2.6000 17.5849
v 377.4151 2.6000 17.5849
v 377.3800 2.6000 17.5000
v 377.3800 2.6000 17.5000
v 377.4151 2.6000 17.4151
v 377.4151 2.6000 17.4151
v 377.5000 2.6000 17.3800
v 377.5000 2.6000 17.3800
v 377.5849 2.6000 17.4151
v 377.5849 2.6000 17.4151
v 377.5000 2.6000 17.5000
v 377.5000 2.6000 17.5000
v 377.5000 2.4800 17.3800
v 405.0000 2.4800 17.3800
v 405.0000 2.4800 17.6200
v 377.5000 2.4800 17.6200
v 377.5000 2.7200 17.3800
v 405.0000 2.7200 17.3800
v 405.0000 2.7200 17.6200
v 377.5000 2.7200 17.6200
v 377.6200 2.6000 22.5000
v 377.6200 2.6000 22.5000
v 377.5849 2.6000 22.5849
v 377.5849 2.6000 22.5849
v 377.5000 2.6000 22.6200
v 377.5000 2.6000 22.6200
v 377.4151 2.6000 22.5849
v 377.4151 2.6000 22.5849
v 377.3800 2.6000 22.5000
v 377.3800 2.6000 22.5000
v 377.4151 2.6000 22.4151
v 377.4151 2.6000 22.4151
v 377.5000 2.6000 22.3800
v 377.5000 2.6000 22.3800
v 377.5849 2.6000 22.4151
v 377.5849 2.6000 22.4151
v 377.5000 2.6000 22.5000
v 377.5000 2.6000 22.5000
v 377.5000 2.4800 22.3800
v 405.0000 2.4800 22.3800
v 405.0000 2.4800 22.6200
v 377.5000 2.4800 22.6200
v 377.5000 2.7200 22.3800
v 405.0000 2.7200 22.3800
v 405.0000 2.7200 22.6200
v 377.5000 2.7200 22.6200
vt 188.0375 3.0375
vt 188.0375 4.4625
vt 189.4625 4.4625
vt 189.4625 3.0375
vt 188.0375 3.0375
vt 189.4625 3.0375
vt 189.4625 4.4625
vt 188.0375 4.4625
vt 188.0375 0.0000
vt 189.4625 0.0000
vt 189.4625 1.5000
vt 188.0375 1.5000
vt 189.4625 0.0000
vt 188.0375 0.0000
vt 188.0375 1.5000
vt 189.4625 1.5000
vt 3.0375 0.0000
vt 4.4625 0.0000
vt 4.4625 1.5000
vt 3.0375 1.5000
vt 4.4625 0.0000
vt 3.0375 0.0000
vt 3.0375 1.5000
vt 4.4625 1.5000
vt 190.5375 3.0375
vt 190.5375 4.4625
vt 191.9625 4.4625
vt 191.9625 3.0375
vt 190.5375 3.0375
vt 191.9625 3.0375
vt 191.9625 4.4625
vt 190.5375 4.4625
vt 190.5375 0.0000
vt 191.9625 0.0000
vt 191.9625 1.5000
vt 190.5375 1.5000
vt 191.9625 0.0000
vt 190.5375 0.0000
vt 190.5375 1.5000
vt 191.9625 1.5000
vt 3.0375 0.0000
vt 4.4625 0.0000
vt 4.4625 1.5000
vt 3.0375 1.5000
vt 4.4625 0.0000
vt 3.0375 0.0000
vt 3.0375 1.5000
vt 4.4625 1.5000
vt 195.5375 3.0375
vt 195.5375 4.4625
vt 196.9625 4.4625
vt 196.9625 3.0375
vt 195.5375 3.0375
vt 196.9625 3.0375
vt 196.9625 4.4625
vt 195.5375 4.4625
vt 195.5375 0.0000
vt 196.9625 0.0000
vt 196.9625 1.5000
vt 195.5375 1.5000
vt 196.9625 0.0000
vt 195.5375 0.0000
vt 195.5375 1.5000
vt 196.9625 1.5000
vt 3.0375 0.0000
vt 4.4625 0.0000
vt 4.4625 1.5000
vt 3.0375 1.5000
vt 4.4625 0.0000
vt 3.0375 0.0000
vt 3.0375 1.5000
vt 4.4625 1.5000
vt 198.0375 3.0375
vt 198.0375 4.4625
vt 199.4625 4.4625
vt 199.4625 3.0375
vt 198.0375 3.0375
vt 199.4625 3.0375
vt 199.4625 4.4625
vt 198.0375 4.4625
vt 198.0375 0.0000
vt 199.4625 0.0000
vt 199.4625 1.5000
vt 198.0375 1.5000
vt 199.4625 0.0000
vt 198.0375 0.0000
vt 198.0375 1.5000
vt 199.4625 1.5000
vt 3.0375 0.0000
vt 4.4625 0.0000
vt 4.4625 1.5000
vt 3.0375 1.5000
vt 4.4625 0.0000
vt 3.0375 0.0000
vt 3.0375 1.5000
vt 4.4625 1.5000
vt 200.5375 3.0375
vt 200.5375 4.4625
vt 201.9625 4.4625
vt 201.9625 3.0375
vt 200.5375 3.0375
vt 201.9625 3.0375
vt 201.9625 4.4625
vt 200.5375 4.4625
vt 200.5375 0.0000
vt 201.9625 0.0000
vt 201.9625 1.5000
vt 200.5375 1.5000
vt 201.9625 0.0000
vt 200.5375 0.0000
vt 200.5375 1.5000
vt 201.9625 1.5000
vt 3.0375 0.0000
vt 4.4625 0.0000
vt 4.4625 1.5000
vt 3.0375 1.5000
vt 4.4625 0.0000
vt 3.0375 0.0000
vt 3.0375 1.5000
vt 4.4625 1.5000
vt 188.0375 4.2875
vt 188.0375 5.7125
vt 189.4625 5.7125
vt 189.4625 4.2875
vt 188.0375 4.2875
vt 189.4625 4.2875
vt 189.4625 5.7125
vt 188.0375 5.7125
vt 188.0375 0.0000
vt 189.4625 0.0000
vt 189.4625 1.5000
vt 188.0375 1.5000
vt 189.4625 0.0000
vt 188.0375 0.0000
vt 188.0375 1.5000
vt 189.4625 1.5000
vt 4.2875 0.0000
vt 5.7125 0.0000
vt 5.7125 1.5000
vt 4.2875 1.5000
vt 5.7125 0.0000
vt 4.2875 0.0000
vt 4.2875 1.5000
vt 5.7125 1.5000
vt 190.5375 4.2875
vt 190.5375 5.7125
vt 191.9625 5.7125
vt 191.9625 4.2875
vt 190.5375 4.2875
vt 191.9625 4.2875
vt 191.9625 5.7125
vt 190.5375 5.7125
vt 190.5375 0.0000
vt 191.9625 0.0000
vt 191.9625 1.5000
vt 190.5375 1.5000
vt 191.9625 0.0000
vt 190.5375 0.0000
vt 190.5375 1.5000
vt 191.9625 1.5000
vt 4.2875 0.0000
vt 5.7125 0.0000
vt 5.7125 1.5000
vt 4.2875 1.5000
vt 5.7125 0.0000
vt 4.2875 0.0000
vt 4.2875 1.5000
vt 5.7125 1.5000
vt 195.5375 4.2875
vt 195.5375 5.7125
vt 196.9625 5.7125
vt 196.9625 4.2875
vt 195.5375 4.2875
vt 196.9625 4.2875
vt 196.9625 5.7125
vt 195.5375 5.7125
vt 195.5375 0.0000
vt 196.9625 0.0000
vt 196.9625 1.5000
vt 195.5375 1.5000
vt 196.9625 0.0000
vt 195.5375 0.0000
vt 195.5375 1.5000
vt 196.9625 1.5000
vt 4.2875 0.0000
vt 5.7125 0.0000
vt 5.7125 1.5000
vt 4.2875 1.5000
vt 5.7125 0.0000
vt 4.2875 0.0000
vt 4.2875 1.5000
vt 5.7125 1.5000
vt 198.0375 4.2875
vt 198.0375 5.7125
vt 199.4625 5.7125
vt 199.4625 4.2875
vt 198.0375 4.2875
vt 199.4625 4.2875
vt 199.4625 5.7125
vt 198.0375 5.7125
vt 198.0375 0.0000
vt 199.4625 0.0000
vt 199.4625 1.5000
vt 198.0375 1.5000
vt 199.4625 0.0000
vt 198.0375 0.0000
vt 198.0375 1.5000
vt 199.4625 1.5000
vt 4.2875 0.0000
vt 5.7125 0.0000
vt 5.7125 1.5000
vt 4.2875 1.5000
vt 5.7125 0.0000
vt 4.2875 0.0000
vt 4.2875 1.5000
vt 5.7125 1.5000
vt 188.0375 5.5375
vt 188.0375 6.9625
vt 189.4625 6.9625
vt 189.4625 5.5375
vt 188.0375 5.5375
vt 189.4625 5.5375
vt 189.4625 6.9625
vt 188.0375 6.9625
vt 188.0375 0.0000
vt 189.4625 0.0000
vt 189.4625 1.5000
vt 188.0375 1.5000
vt 189.4625 0.0000
vt 188.0375 0.0000
vt 188.0375 1.5000
vt 189.4625 1.5000
vt 5.5375 0.0000
vt 6.9625 0.0000
vt 6.9625 1.5000
vt 5.5375 1.5000
vt 6.9625 0.0000
vt 5.5375 0.0000
vt 5.5375 1.5000
vt 6.9625 1.5000
vt 190.5375 5.5375
vt 190.5375 6.9625
vt 191.9625 6.9625
vt 191.9625 5.5375
vt 190.5375 5.5375
vt 191.9625 5.5375
vt 191.9625 6.9625
vt 190.5375 6.9625
vt 190.5375 0.0000
vt 191.9625 0.0000
vt 191.9625 1.5000
vt 190.5375 1.5000
vt 191.9625 0.0000
vt 190.5375 0.0000
vt 190.5375 1.5000
vt 191.9625 1.5000
vt 5.5375 0.0000
vt 6.9625 0.0000
vt 6.9625 1.5000
vt 5.5375 1.5000
vt 6.9625 0.0000
vt 5.5375 0.0000
vt 5.5375 1.5000
vt 6.9625 1.5000
vt 193.0375 5.5375
vt 193.0375 6.9625
vt 194.4625 6.9625
vt 194.4625 5.5375
vt 193.0375 5.5375
vt 194.4625 5.5375
vt 194.4625 6.9625
vt 193.0375 6.9625
vt 193.0375 0.0000
vt 194.4625 0.0000
vt 194.4625 1.5000
vt 193.0375 1.5000
vt 194.4625 0.0000
vt 193.0375 0.0000
vt 193.0375 1.5000
vt 194.4625 1.5000
vt 5.5375 0.0000
vt 6.9625 0.0000
vt 6.9625 1.5000
vt 5.5375 1.5000
vt 6.9625 0.0000
vt 5.5375 0.0000
vt 5.5375 1.5000
vt 6.9625 1.5000
vt 194.2875 5.5375
vt 194.2875 6.9625
vt 195.7125 6.9625
vt 195.7125 5.5375
vt 194.2875 5.5375
vt 195.7125 5.5375
vt 195.7125 6.9625
vt 194.2875 6.9625
vt 194.2875 0.0000
vt 195.7125 0.0000
vt 195.7125 1.5000
vt 194.2875 1.5000
vt 195.7125 0.0000
vt 194.2875 0.0000
vt 194.2875 1.5000
vt 195.7125 1.5000
vt 5.5375 0.0000
vt 6.9625 0.0000
vt 6.9625 1.5000
vt 5.5375 1.5000
vt 6.9625 0.0000
vt 5.5375 0.0000
vt 5.5375 1.5000
vt 6.9625 1.5000
vt 198.0375 5.5375
vt 198.0375 6.9625
vt 199.4625 6.9625
vt 199.4625 5.5375
vt 198.0375 5.5375
vt 199.4625 5.5375
vt 199.4625 6.9625
vt 198.0375 6.9625
vt 198.0375 0.0000
vt 199.4625 0.0000
vt 199.4625 1.5000
vt 198.0375 1.5000
vt 199.4625 0.0000
vt 198.0375 0.0000
vt 198.0375 1.5000
vt 199.4625 1.5000
vt 5.5375 0.0000
vt 6.9625 0.0000
vt 6.9625 1.5000
vt 5.5375 1.5000
vt 6.9625 0.0000
vt 5.5375 0.0000
vt 5.5375 1.5000
vt 6.9625 1.5000
vt 199.2875 5.5375
vt 199.2875 6.9625
vt 200.7125 6.9625
vt 200.7125 5.5375
vt 199.2875 5.5375
vt 200.7125 5.5375
vt 200.7125 6.9625
vt 199.2875 6.9625
vt 199.2875 0.0000
vt 200.7125 0.0000
vt 200.7125 1.5000
vt 199.2875 1.5000
vt 200.7125 0.0000
vt 199.2875 0.0000
vt 199.2875 1.5000
vt 200.7125 1.5000
vt 5.5375 0.0000
vt 6.9625 0.0000
vt 6.9625 1.5000
vt 5.5375 1.5000
vt 6.9625 0.0000
vt 5.5375 0.0000
vt 5.5375 1.5000
vt 6.9625 1.5000
vt 200.5375 5.5375
vt 200.5375 6.9625
vt 201.9625 6.9625
vt 201.9625 5.5375
vt 200.5375 5.5375
vt 201.9625 5.5375
vt 201.9625 6.9625
vt 200.5375 6.9625
vt 200.5375 0.0000
vt 201.9625 0.0000
vt 201.9625 1.5000
vt 200.5375 1.5000
vt 201.9625 0.0000
vt 200.5375 0.0000
vt 200.5375 1.5000
vt 201.9625 1.5000
vt 5.5375 0.0000
vt 6.9625 0.0000
vt 6.9625 1.5000
vt 5.5375 1.5000
vt 6.9625 0.0000
vt 5.5375 0.0000
vt 5.5375 1.5000
vt 6.9625 1.5000
vt 188.0375 6.7875
vt 188.0375 8.2125
vt 189.4625 8.2125
vt 189.4625 6.7875
vt 188.0375 6.7875
vt 189.4625 6.7875
vt 189.4625 8.2125
vt 188.0375 8.2125
vt 188.0375 0.0000
vt 189.4625 0.0000
vt 189.4625 1.5000
vt 188.0375 1.5000
vt 189.4625 0.0000
vt 188.0375 0.0000
vt 188.0375 1.5000
vt 189.4625 1.5000
vt 6.7875 0.0000
vt 8.2125 0.0000
vt 8.2125 1.5000
vt 6.7875 1.5000
vt 8.2125 0.0000
vt 6.7875 0.0000
vt 6.7875 1.5000
vt 8.2125 1.5000
vt 195.5375 6.7875
vt 195.5375 8.2125
vt 196.9625 8.2125
vt 196.9625 6.7875
vt 195.5375 6.7875
vt 196.9625 6.7875
vt 196.9625 8.2125
vt 195.5375 8.2125
vt 195.5375 0.0000
vt 196.9625 0.0000
vt 196.9625 1.5000
vt 195.5375 1.5000
vt 196.9625 0.0000
vt 195.5375 0.0000
vt 195.5375 1.5000
vt 196.9625 1.5000
vt 6.7875 0.0000
vt 8.2125 0.0000
vt 8.2125 1.5000
vt 6.7875 1.5000
vt 8.2125 0.0000
vt 6.7875 0.0000
vt 6.7875 1.5000
vt 8.2125 1.5000
vt 198.0375 6.7875
vt 198.0375 8.2125
vt 199.4625 8.2125
vt 199.4625 6.7875
vt 198.0375 6.7875
vt 199.4625 6.7875
vt 199.4625 8.2125
vt 198.0375 8.2125
vt 198.0375 0.0000
vt 199.4625 0.0000
vt 199.4625 1.5000
vt 198.0375 1.5000
vt 199.4625 0.0000
vt 198.0375 0.0000
vt 198.0375 1.5000
vt 199.4625 1.5000
vt 6.7875 0.0000
vt 8.2125 0.0000
vt 8.2125 1.5000
vt 6.7875 1.5000
vt 8.2125 0.0000
vt 6.7875 0.0000
vt 6.7875 1.5000
vt 8.2125 1.5000
vt 188.0375 8.0375
vt 188.0375 9.4625
vt 189.4625 9.4625
vt 189.4625 8.0375
vt 188.0375 8.0375
vt 189.4625 8.0375
vt 189.4625 9.4625
vt 188.0375 9.4625
vt 188.0375 0.0000
vt 189.4625 0.0000
vt 189.4625 1.5000
vt 188.0375 1.5000
vt 189.4625 0.0000
vt 188.0375 0.0000
vt 188.0375 1.5000
vt 189.4625 1.5000
vt 8.0375 0.0000
vt 9.4625 0.0000
vt 9.4625 1.5000
vt 8.0375 1.5000
vt 9.4625 0.0000
vt 8.0375 0.0000
vt 8.0375 1.5000
vt 9.4625 1.5000
vt 190.5375 8.0375
vt 190.5375 9.4625
vt 191.9625 9.4625
vt 191.9625 8.0375
vt 190.5375 8.0375
vt 191.9625 8.0375
vt 191.9625 9.4625
vt 190.5375 9.4625
vt 190.5375 0.0000
vt 191.9625 0.0000
vt 191.9625 1.5000
vt 190.5375 1.5000
vt 191.9625 0.0000
vt 190.5375 0.0000
vt 190.5375 1.5000
vt 191.9625 1.5000
vt 8.0375 0.0000
vt 9.4625 0.0000
vt 9.4625 1.5000
vt 8.0375 1.5000
vt 9.4625 0.0000
vt 8.0375 0.0000
vt 8.0375 1.5000
vt 9.4625 1.5000
vt 191.7875 8.0375
vt 191.7875 9.4625
vt 193.2125 9.4625
vt 193.2125 8.0375
vt 191.7875 8.0375
vt 193.2125 8.0375
vt 193.2125 9.4625
vt 191.7875 9.4625
vt 191.7875 0.0000
vt 193.2125 0.0000
vt 193.2125 1.5000
vt 191.7875 1.5000
vt 193.2125 0.0000
vt 191.7875 0.0000
vt 191.7875 1.5000
vt 193.2125 1.5000
vt 8.0375 0.0000
vt 9.4625 0.0000
vt 9.4625 1.5000
vt 8.0375 1.5000
vt 9.4625 0.0000
vt 8.0375 0.0000
vt 8.0375 1.5000
vt 9.4625 1.5000
vt 193.0375 8.0375
vt 193.0375 9.4625
vt 194.4625 9.4625
vt 194.4625 8.0375
vt 193.0375 8.0375
vt 194.4625 8.0375
vt 194.4625 9.4625
vt 193.0375 9.4625
vt 193.0375 0.0000
vt 194.4625 0.0000
vt 194.4625 1.5000
vt 193.0375 1.5000
vt 194.4625 0.0000
vt 193.0375 0.0000
vt 193.0375 1.5000
vt 194.4625 1.5000
vt 8.0375 0.0000
vt 9.4625 0.0000
vt 9.4625 1.5000
vt 8.0375 1.5000
vt 9.4625 0.0000
vt 8.0375 0.0000
vt 8.0375 1.5000
vt 9.4625 1.5000
vt 194.2875 8.0375
vt 194.2875 9.4625
vt 195.7125 9.4625
vt 195.7125 8.0375
vt 194.2875 8.0375
vt 195.7125 8.0375
vt 195.7125 9.4625
vt 194.2875 9.4625
vt 194.2875 0.0000
vt 195.7125 0.0000
vt 195.7125 1.5000
vt 194.2875 1.5000
vt 195.7125 0.0000
vt 194.2875 0.0000
vt 194.2875 1.5000
vt 195.7125 1.5000
vt 8.0375 0.0000
vt 9.4625 0.0000
vt 9.4625 1.5000
vt 8.0375 1.5000
vt 9.4625 0.0000
vt 8.0375 0.0000
vt 8.0375 1.5000
vt 9.4625 1.5000
vt 195.5375 8.0375
vt 195.5375 9.4625
vt 196.9625 9.4625
vt 196.9625 8.0375
vt 195.5375 8.0375
vt 196.9625 8.0375
vt 196.9625 9.4625
vt 195.5375 9.4625
vt 195.5375 0.0000
vt 196.9625 0.0000
vt 196.9625 1.5000
vt 195.5375 1.5000
vt 196.9625 0.0000
vt 195.5375 0.0000
vt 195.5375 1.5000
vt 196.9625 1.5000
vt 8.0375 0.0000
vt 9.4625 0.0000
vt 9.4625 1.5000
vt 8.0375 1.5000
vt 9.4625 0.0000
vt 8.0375 0.0000
vt 8.0375 1.5000
vt 9.4625 1.5000
vt 198.0375 8.0375
vt 198.0375 9.4625
vt 199.4625 9.4625
vt 199.4625 8.0375
vt 198.0375 8.0375
vt 199.4625 8.0375
vt 199.4625 9.4625
vt 198.0375 9.4625
vt 198.0375 0.0000
vt 199.4625 0.0000
vt 199.4625 1.5000
vt 198.0375 1.5000
vt 199.4625 0.0000
vt 198.0375 0.0000
vt 198.0375 1.5000
vt 199.4625 1.5000
vt 8.0375 0.0000
vt 9.4625 0.0000
vt 9.4625 1.5000
vt 8.0375 1.5000
vt 9.4625 0.0000
vt 8.0375 0.0000
vt 8.0375 1.5000
vt 9.4625 1.5000
vt 200.5375 8.0375
vt 200.5375 9.4625
vt 201.9625 9.4625
vt 201.9625 8.0375
vt 200.5375 8.0375
vt 201.9625 8.0375
vt 201.9625 9.4625
vt 200.5375 9.4625
vt 200.5375 0.0000
vt 201.9625 0.0000
vt 201.9625 1.5000
vt 200.5375 1.5000
vt 201.9625 0.0000
vt 200.5375 0.0000
vt 200.5375 1.5000
vt 201.9625 1.5000
vt 8.0375 0.0000
vt 9.4625 0.0000
vt 9.4625 1.5000
vt 8.0375 1.5000
vt 9.4625 0.0000
vt 8.0375 0.0000
vt 8.0375 1.5000
vt 9.4625 1.5000
vt 201.7875 8.0375
vt 201.7875 9.4625
vt 203.2125 9.4625
vt 203.2125 8.0375
vt 201.7875 8.0375
vt 203.2125 8.0375
vt 203.2125 9.4625
vt 201.7875 9.4625
vt 201.7875 0.0000
vt 203.2125 0.0000
vt 203.2125 1.5000
vt 201.7875 1.5000
vt 203.2125 0.0000
vt 201.7875 0.0000
vt 201.7875 1.5000
vt 203.2125 1.5000
vt 8.0375 0.0000
vt 9.4625 0.0000
vt 9.4625 1.5000
vt 8.0375 1.5000
vt 9.4625 0.0000
vt 8.0375 0.0000
vt 8.0375 1.5000
vt 9.4625 1.5000
vt 188.0375 9.2875
vt 188.0375 10.7125
vt 189.4625 10.7125
vt 189.4625 9.2875
vt 188.0375 9.2875
vt 189.4625 9.2875
vt 189.4625 10.7125
vt 188.0375 10.7125
vt 188.0375 0.0000
vt 189.4625 0.0000
vt 189.4625 1.5000
vt 188.0375 1.5000
vt 189.4625 0.0000
vt 188.0375 0.0000
vt 188.0375 1.5000
vt 189.4625 1.5000
vt 9.2875 0.0000
vt 10.7125 0.0000
vt 10.7125 1.5000
vt 9.2875 1.5000
vt 10.7125 0.0000
vt 9.2875 0.0000
vt 9.2875 1.5000
vt 10.7125 1.5000
vt 190.5375 9.2875
vt 190.5375 10.7125
vt 191.9625 10.7125
vt 191.9625 9.2875
vt 190.5375 9.2875
vt 191.9625 9.2875
vt 191.9625 10.7125
vt 190.5375 10.7125
vt 190.5375 0.0000
vt 191.9625 0.0000
vt 191.9625 1.5000
vt 190.5375 1.5000
vt 191.9625 0.0000
vt 190.5375 0.0000
vt 190.5375 1.5000
vt 191.9625 1.5000
vt 9.2875 0.0000
vt 10.7125 0.0000
vt 10.7125 1.5000
vt 9.2875 1.5000
vt 10.7125 0.0000
vt 9.2875 0.0000
vt 9.2875 1.5000
vt 10.7125 1.5000
vt 188.0375 10.5375
vt 188.0375 11.9625
vt 189.4625 11.9625
vt 189.4625 10.5375
vt 188.0375 10.5375
vt 189.4625 10.5375
vt 189.4625 11.9625
vt 188.0375 11.9625
vt 188.0375 0.0000
vt 189.4625 0.0000
vt 189.4625 1.5000
vt 188.0375 1.5000
vt 189.4625 0.0000
vt 188.0375 0.0000
vt 188.0375 1.5000
vt 189.4625 1.5000
vt 10.5375 0.0000
vt 11.9625 0.0000
vt 11.9625 1.5000
vt 10.5375 1.5000
vt 11.9625 0.0000
vt 10.5375 0.0000
vt 10.5375 1.5000
vt 11.9625 1.5000
vt 195.5375 10.5375
vt 195.5375 11.9625
vt 196.9625 11.9625
vt 196.9625 10.5375
vt 195.5375 10.5375
vt 196.9625 10.5375
vt 196.9625 11.9625
vt 195.5375 11.9625
vt 195.5375 0.0000
vt 196.9625 0.0000
vt 196.9625 1.5000
vt 195.5375 1.5000
vt 196.9625 0.0000
vt 195.5375 0.0000
vt 195.5375 1.5000
vt 196.9625 1.5000
vt 10.5375 0.0000
vt 11.9625 0.0000
vt 11.9625 1.5000
vt 10.5375 1.5000
vt 11.9625 0.0000
vt 10.5375 0.0000
vt 10.5375 1.5000
vt 11.9625 1.5000
vt 196.7875 10.5375
vt 196.7875 11.9625
vt 198.2125 11.9625
vt 198.2125 10.5375
vt 196.7875 10.5375
vt 198.2125 10.5375
vt 198.2125 11.9625
vt 196.7875 11.9625
vt 196.7875 0.0000
vt 198.2125 0.0000
vt 198.2125 1.5000
vt 196.7875 1.5000
vt 198.2125 0.0000
vt 196.7875 0.0000
vt 196.7875 1.5000
vt 198.2125 1.5000
vt 10.5375 0.0000
vt 11.9625 0.0000
vt 11.9625 1.5000
vt 10.5375 1.5000
vt 11.9625 0.0000
vt 10.5375 0.0000
vt 10.5375 1.5000
vt 11.9625 1.5000
vt 198.0375 10.5375
vt 198.0375 11.9625
vt 199.4625 11.9625
vt 199.4625 10.5375
vt 198.0375 10.5375
vt 199.4625 10.5375
vt 199.4625 11.9625
vt 198.0375 11.9625
vt 198.0375 0.0000
vt 199.4625 0.0000
vt 199.4625 1.5000
vt 198.0375 1.5000
vt 199.4625 0.0000
vt 198.0375 0.0000
vt 198.0375 1.5000
vt 199.4625 1.5000
vt 10.5375 0.0000
vt 11.9625 0.0000
vt 11.9625 1.5000
vt 10.5375 1.5000
vt 11.9625 0.0000
vt 10.5375 0.0000
vt 10.5375 1.5000
vt 11.9625 1.5000
vt 201.7875 10.5375
vt 201.7875 11.9625
vt 203.2125 11.9625
vt 203.2125 10.5375
vt 201.7875 10.5375
vt 203.2125 10.5375
vt 203.2125 11.9625
vt 201.7875 11.9625
vt 201.7875 0.0000
vt 203.2125 0.0000
vt 203.2125 1.5000
vt 201.7875 1.5000
vt 203.2125 0.0000
vt 201.7875 0.0000
vt 201.7875 1.5000
vt 203.2125 1.5000
vt 10.5375 0.0000
vt 11.9625 0.0000
vt 11.9625 1.5000
vt 10.5375 1.5000
vt 11.9625 0.0000
vt 10.5375 0.0000
vt 10.5375 1.5000
vt 11.9625 1.5000
vt 188.0375 11.7875
vt 188.0375 13.2125
vt 189.4625 13.2125
vt 189.4625 11.7875
vt 188.0375 11.7875
vt 189.4625 11.7875
vt 189.4625 13.2125
vt 188.0375 13.2125
vt 188.0375 0.0000
vt 189.4625 0.0000
vt 189.4625 1.5000
vt 188.0375 1.5000
vt 189.4625 0.0000
vt 188.0375 0.0000
vt 188.0375 1.5000
vt 189.4625 1.5000
vt 11.7875 0.0000
vt 13.2125 0.0000
vt 13.2125 1.5000
vt 11.7875 1.5000
vt 13.2125 0.0000
vt 11.7875 0.0000
vt 11.7875 1.5000
vt 13.2125 1.5000
vt 190.5375 11.7875
vt 190.5375 13.2125
vt 191.9625 13.2125
vt 191.9625 11.7875
vt 190.5375 11.7875
vt 191.9625 11.7875
vt 191.9625 13.2125
vt 190.5375 13.2125
vt 190.5375 0.0000
vt 191.9625 0.0000
vt 191.9625 1.5000
vt 190.5375 1.5000
vt 191.9625 0.0000
vt 190.5375 0.0000
vt 190.5375 1.5000
vt 191.9625 1.5000
vt 11.7875 0.0000
vt 13.2125 0.0000
vt 13.2125 1.5000
vt 11.7875 1.5000
vt 13.2125 0.0000
vt 11.7875 0.0000
vt 11.7875 1.5000
vt 13.2125 1.5000
vt 198.0375 11.7875
vt 198.0375 13.2125
vt 199.4625 13.2125
vt 199.4625 11.7875
vt 198.0375 11.7875
vt 199.4625 11.7875
vt 199.4625 13.2125
vt 198.0375 13.2125
vt 198.0375 0.0000
vt 199.4625 0.0000
vt 199.4625 1.5000
vt 198.0375 1.5000
vt 199.4625 0.0000
vt 198.0375 0.0000
vt 198.0375 1.5000
vt 199.4625 1.5000
vt 11.7875 0.0000
vt 13.2125 0.0000
vt 13.2125 1.5000
vt 11.7875 1.5000
vt 13.2125 0.0000
vt 11.7875 0.0000
vt 11.7875 1.5000
vt 13.2125 1.5000
vt 188.0375 13.0375
vt 188.0375 14.4625
vt 189.4625 14.4625
vt 189.4625 13.0375
vt 188.0375 13.0375
vt 189.4625 13.0375
vt 189.4625 14.4625
vt 188.0375 14.4625
vt 188.0375 0.0000
vt 189.4625 0.0000
vt 189.4625 1.5000
vt 188.0375 1.5000
vt 189.4625 0.0000
vt 188.0375 0.0000
vt 188.0375 1.5000
vt 189.4625 1.5000
vt 13.0375 0.0000
vt 14.4625 0.0000
vt 14.4625 1.5000
vt 13.0375 1.5000
vt 14.4625 0.0000
vt 13.0375 0.0000
vt 13.0375 1.5000
vt 14.4625 1.5000
vt 190.5375 13.0375
vt 190.5375 14.4625
vt 191.9625 14.4625
vt 191.9625 13.0375
vt 190.5375 13.0375
vt 191.9625 13.0375
vt 191.9625 14.4625
vt 190.5375 14.4625
vt 190.5375 0.0000
vt 191.9625 0.0000
vt 191.9625 1.5000
vt 190.5375 1.5000
vt 191.9625 0.0000
vt 190.5375 0.0000
vt 190.5375 1.5000
vt 191.9625 1.5000
vt 13.0375 0.0000
vt 14.4625 0.0000
vt 14.4625 1.5000
vt 13.0375 1.5000
vt 14.4625 0.0000
vt 13.0375 0.0000
vt 13.0375 1.5000
vt 14.4625 1.5000
vt 198.0375 13.0375
vt 198.0375 14.4625
vt 199.4625 14.4625
vt 199.4625 13.0375
vt 198.0375 13.0375
vt 199.4625 13.0375
vt 199.4625 14.4625
vt 198.0375 14.4625
vt 198.0375 0.0000
vt 199.4625 0.0000
vt 199.4625 1.5000
vt 198.0375 1.5000
vt 199.4625 0.0000
vt 198.0375 0.0000
vt 198.0375 1.5000
vt 199.4625 1.5000
vt 13.0375 0.0000
vt 14.4625 0.0000
vt 14.4625 1.5000
vt 13.0375 1.5000
vt 14.4625 0.0000
vt 13.0375 0.0000
vt 13.0375 1.5000
vt 14.4625 1.5000
vt 201.7875 13.0375
vt 201.7875 14.4625
vt 203.2125 14.4625
vt 203.2125 13.0375
vt 201.7875 13.0375
vt 203.2125 13.0375
vt 203.2125 14.4625
vt 201.7875 14.4625
vt 201.7875 0.0000
vt 203.2125 0.0000
vt 203.2125 1.5000
vt 201.7875 1.5000
vt 203.2125 0.0000
vt 201.7875 0.0000
vt 201.7875 1.5000
vt 203.2125 1.5000
vt 13.0375 0.0000
vt 14.4625 0.0000
vt 14.4625 1.5000
vt 13.0375 1.5000
vt 14.4625 0.0000
vt 13.0375 0.0000
vt 13.0375 1.5000
vt 14.4625 1.5000
vt 188.0375 14.2875
vt 188.0375 15.7125
vt 189.4625 15.7125
vt 189.4625 14.2875
vt 188.0375 14.2875
vt 189.4625 14.2875
vt 189.4625 15.7125
vt 188.0375 15.7125
vt 188.0375 0.0000
vt 189.4625 0.0000
vt 189.4625 1.5000
vt 188.0375 1.5000
vt 189.4625 0.0000
vt 188.0375 0.0000
vt 188.0375 1.5000
vt 189.4625 1.5000
vt 14.2875 0.0000
vt 15.7125 0.0000
vt 15.7125 1.5000
vt 14.2875 1.5000
vt 15.7125 0.0000
vt 14.2875 0.0000
vt 14.2875 1.5000
vt 15.7125 1.5000
vt 190.5375 14.2875
vt 190.5375 15.7125
vt 191.9625 15.7125
vt 191.9625 14.2875
vt 190.5375 14.2875
vt 191.9625 14.2875
vt 191.9625 15.7125
vt 190.5375 15.7125
vt 190.5375 0.0000
vt 191.9625 0.0000
vt 191.9625 1.5000
vt 190.5375 1.5000
vt 191.9625 0.0000
vt 190.5375 0.0000
vt 190.5375 1.5000
vt 191.9625 1.5000
vt 14.2875 0.0000
vt 15.7125 0.0000
vt 15.7125 1.5000
vt 14.2875 1.5000
vt 15.7125 0.0000
vt 14.2875 0.0000
vt 14.2875 1.5000
vt 15.7125 1.5000
vt 195.5375 14.2875
vt 195.5375 15.7125
vt 196.9625 15.7125
vt 196.9625 14.2875
vt 195.5375 14.2875
vt 196.9625 14.2875
vt 196.9625 15.7125
vt 195.5375 15.7125
vt 195.5375 0.0000
vt 196.9625 0.0000
vt 196.9625 1.5000
vt 195.5375 1.5000
vt 196.9625 0.0000
vt 195.5375 0.0000
vt 195.5375 1.5000
vt 196.9625 1.5000
vt 14.2875 0.0000
vt 15.7125 0.0000
vt 15.7125 1.5000
vt 14.2875 1.5000
vt 15.7125 0.0000
vt 14.2875 0.0000
vt 14.2875 1.5000
vt 15.7125 1.5000
vt 188.0375 15.5375
vt 188.0375 16.9625
vt 189.4625 16.9625
vt 189.4625 15.5375
vt 188.0375 15.5375
vt 189.4625 15.5375
vt 189.4625 16.9625
vt 188.0375 16.9625
vt 188.0375 0.0000
vt 189.4625 0.0000
vt 189.4625 1.5000
vt 188.0375 1.5000
vt 189.4625 0.0000
vt 188.0375 0.0000
vt 188.0375 1.5000
vt 189.4625 1.5000
vt 15.5375 0.0000
vt 16.9625 0.0000
vt 16.9625 1.5000
vt 15.5375 1.5000
vt 16.9625 0.0000
vt 15.5375 0.0000
vt 15.5375 1.5000
vt 16.9625 1.5000
vt 190.5375 15.5375
vt 190.5375 16.9625
vt 191.9625 16.9625
vt 191.9625 15.5375
vt 190.5375 15.5375
vt 191.9625 15.5375
vt 191.9625 16.9625
vt 190.5375 16.9625
vt 190.5375 0.0000
vt 191.9625 0.0000
vt 191.9625 1.5000
vt 190.5375 1.5000
vt 191.9625 0.0000
vt 190.5375 0.0000
vt 190.5375 1.5000
vt 191.9625 1.5000
vt 15.5375 0.0000
vt 16.9625 0.0000
vt 16.9625 1.5000
vt 15.5375 1.5000
vt 16.9625 0.0000
vt 15.5375 0.0000
vt 15.5375 1.5000
vt 16.9625 1.5000
vt 191.7875 15.5375
vt 191.7875 16.9625
vt 193.2125 16.9625
vt 193.2125 15.5375
vt 191.7875 15.5375
vt 193.2125 15.5375
vt 193.2125 16.9625
vt 191.7875 16.9625
vt 191.7875 0.0000
vt 193.2125 0.0000
vt 193.2125 1.5000
vt 191.7875 1.5000
vt 193.2125 0.0000
vt 191.7875 0.0000
vt 191.7875 1.5000
vt 193.2125 1.5000
vt 15.5375 0.0000
vt 16.9625 0.0000
vt 16.9625 1.5000
vt 15.5375 1.5000
vt 16.9625 0.0000
vt 15.5375 0.0000
vt 15.5375 1.5000
vt 16.9625 1.5000
vt 193.0375 15.5375
vt 193.0375 16.9625
vt 194.4625 16.9625
vt 194.4625 15.5375
vt 193.0375 15.5375
vt 194.4625 15.5375
vt 194.4625 16.9625
vt 193.0375 16.9625
vt 193.0375 0.0000
vt 194.4625 0.0000
vt 194.4625 1.5000
vt 193.0375 1.5000
vt 194.4625 0.0000
vt 193.0375 0.0000
vt 193.0375 1.5000
vt 194.4625 1.5000
vt 15.5375 0.0000
vt 16.9625 0.0000
vt 16.9625 1.5000
vt 15.5375 1.5000
vt 16.9625 0.0000
vt 15.5375 0.0000
vt 15.5375 1.5000
vt 16.9625 1.5000
vt 195.5375 15.5375
vt 195.5375 16.9625
vt 196.9625 16.9625
vt 196.9625 15.5375
vt 195.5375 15.5375
vt 196.9625 15.5375
vt 196.9625 16.9625
vt 195.5375 16.9625
vt 195.5375 0.0000
vt 196.9625 0.0000
vt 196.9625 1.5000
vt 195.5375 1.5000
vt 196.9625 0.0000
vt 195.5375 0.0000
vt 195.5375 1.5000
vt 196.9625 1.5000
vt 15.5375 0.0000
vt 16.9625 0.0000
vt 16.9625 1.5000
vt 15.5375 1.5000
vt 16.9625 0.0000
vt 15.5375 0.0000
vt 15.5375 1.5000
vt 16.9625 1.5000
vt 196.7875 15.5375
vt 196.7875 16.9625
vt 198.2125 16.9625
vt 198.2125 15.5375
vt 196.7875 15.5375
vt 198.2125 15.5375
vt 198.2125 16.9625
vt 196.7875 16.9625
vt 196.7875 0.0000
vt 198.2125 0.0000
vt 198.2125 1.5000
vt 196.7875 1.5000
vt 198.2125 0.0000
vt 196.7875 0.0000
vt 196.7875 1.5000
vt 198.2125 1.5000
vt 15.5375 0.0000
vt 16.9625 0.0000
vt 16.9625 1.5000
vt 15.5375 1.5000
vt 16.9625 0.0000
vt 15.5375 0.0000
vt 15.5375 1.5000
vt 16.9625 1.5000
vt 198.0375 15.5375
vt 198.0375 16.9625
vt 199.4625 16.9625
vt 199.4625 15.5375
vt 198.0375 15.5375
vt 199.4625 15.5375
vt 199.4625 16.9625
vt 198.0375 16.9625
vt 198.0375 0.0000
vt 199.4625 0.0000
vt 199.4625 1.5000
vt 198.0375 1.5000
vt 199.4625 0.0000
vt 198.0375 0.0000
vt 198.0375 1.5000
vt 199.4625 1.5000
vt 15.5375 0.0000
vt 16.9625 0.0000
vt 16.9625 1.5000
vt 15.5375 1.5000
vt 16.9625 0.0000
vt 15.5375 0.0000
vt 15.5375 1.5000
vt 16.9625 1.5000
vt 200.5375 15.5375
vt 200.5375 16.9625
vt 201.9625 16.9625
vt 201.9625 15.5375
vt 200.5375 15.5375
vt 201.9625 15.5375
vt 201.9625 16.9625
vt 200.5375 16.9625
vt 200.5375 0.0000
vt 201.9625 0.0000
vt 201.9625 1.5000
vt 200.5375 1.5000
vt 201.9625 0.0000
vt 200.5375 0.0000
vt 200.5375 1.5000
vt 201.9625 1.5000
vt 15.5375 0.0000
vt 16.9625 0.0000
vt 16.9625 1.5000
vt 15.5375 1.5000
vt 16.9625 0.0000
vt 15.5375 0.0000
vt 15.5375 1.5000
vt 16.9625 1.5000
vt 201.7875 15.5375
vt 201.7875 16.9625
vt 203.2125 16.9625
vt 203.2125 15.5375
vt 201.7875 15.5375
vt 203.2125 15.5375
vt 203.2125 16.9625
vt 201.7875 16.9625
vt 201.7875 0.0000
vt 203.2125 0.0000
vt 203.2125 1.5000
vt 201.7875 1.5000
vt 203.2125 0.0000
vt 201.7875 0.0000
vt 201.7875 1.5000
vt 203.2125 1.5000
vt 15.5375 0.0000
vt 16.9625 0.0000
vt 16.9625 1.5000
vt 15.5375 1.5000
vt 16.9625 0.0000
vt 15.5375 0.0000
vt 15.5375 1.5000
vt 16.9625 1.5000
vt 190.5375 16.7875
vt 190.5375 18.2125
vt 191.9625 18.2125
vt 191.9625 16.7875
vt 190.5375 16.7875
vt 191.9625 16.7875
vt 191.9625 18.2125
vt 190.5375 18.2125
vt 190.5375 0.0000
vt 191.9625 0.0000
vt 191.9625 1.5000
vt 190.5375 1.5000
vt 191.9625 0.0000
vt 190.5375 0.0000
vt 190.5375 1.5000
vt 191.9625 1.5000
vt 16.7875 0.0000
vt 18.2125 0.0000
vt 18.2125 1.5000
vt 16.7875 1.5000
vt 18.2125 0.0000
vt 16.7875 0.0000
vt 16.7875 1.5000
vt 18.2125 1.5000
usemtl rust
f 217 220 219 218
f 221 222 223 224
f 217 218 222 221
f 219 220 224 223
f 218 219 223 222
f 220 217 221 224
f 321 324 323 322
f 325 326 327 328
f 321 322 326 325
f 323 324 328 327
f 322 323 327 326
f 324 321 325 328
f 761 764 763 762
f 765 766 767 768
f 761 762 766 765
f 763 764 768 767
f 762 763 767 766
f 764 761 765 768
f 769 772 771 770
f 773 774 775 776
f 769 770 774 773
f 771 772 776 775
f 770 771 775 774
f 772 769 773 776
f 849 852 851 850
f 853 854 855 856
f 849 850 854 853
f 851 852 856 855
f 850 851 855 854
f 852 849 853 856
f 1001 1004 1003 1002
f 1005 1006 1007 1008
f 1001 1002 1006 1005
f 1003 1004 1008 1007
f 1002 1003 1007 1006
f 1004 1001 1005 1008
f 1033 1036 1035 1034
f 1037 1038 1039 1040
f 1033 1034 1038 1037
f 1035 1036 1040 1039
f 1034 1035 1039 1038
f 1036 1033 1037 1040
f 1233 1236 1235 1234
f 1237 1238 1239 1240
f 1233 1234 1238 1237
f 1235 1236 1240 1239
f 1234 1235 1239 1238
f 1236 1233 1237 1240
f 1313 1316 1315 1314
f 1317 1318 1319 1320
f 1313 1314 1318 1317
f 1315 1316 1320 1319
f 1314 1315 1319 1318
f 1316 1313 1317 1320
usemtl lamp_sick
f 1393 1396 1395 1394
f 1397 1398 1399 1400
f 1393 1394 1398 1397
f 1395 1396 1400 1399
f 1394 1395 1399 1398
f 1396 1393 1397 1400
f 1401 1404 1403 1402
f 1405 1406 1407 1408
f 1401 1402 1406 1405
f 1403 1404 1408 1407
f 1402 1403 1407 1406
f 1404 1401 1405 1408
f 1409 1412 1411 1410
f 1413 1414 1415 1416
f 1409 1410 1414 1413
f 1411 1412 1416 1415
f 1410 1411 1415 1414
f 1412 1409 1413 1416
f 1417 1420 1419 1418
f 1421 1422 1423 1424
f 1417 1418 1422 1421
f 1419 1420 1424 1423
f 1418 1419 1423 1422
f 1420 1417 1421 1424
f 1425 1428 1427 1426
f 1429 1430 1431 1432
f 1425 1426 1430 1429
f 1427 1428 1432 1431
f 1426 1427 1431 1430
f 1428 1425 1429 1432
f 1433 1436 1435 1434
f 1437 1438 1439 1440
f 1433 1434 1438 1437
f 1435 1436 1440 1439
f 1434 1435 1439 1438
f 1436 1433 1437 1440
f 1441 1444 1443 1442
f 1445 1446 1447 1448
f 1441 1442 1446 1445
f 1443 1444 1448 1447
f 1442 1443 1447 1446
f 1444 1441 1445 1448
f 1449 1452 1451 1450
f 1453 1454 1455 1456
f 1449 1450 1454 1453
f 1451 1452 1456 1455
f 1450 1451 1455 1454
f 1452 1449 1453 1456
f 1457 1460 1459 1458
f 1461 1462 1463 1464
f 1457 1458 1462 1461
f 1459 1460 1464 1463
f 1458 1459 1463 1462
f 1460 1457 1461 1464
usemtl rust
f 1465 1467 1468 1466
f 1467 1469 1470 1468
f 1469 1471 1472 1470
f 1471 1473 1474 1472
f 1473 1475 1476 1474
f 1475 1477 1478 1476
f 1477 1479 1480 1478
f 1479 1465 1466 1480
f 1481 1466 1468
f 1482 1467 1465
f 1481 1468 1470
f 1482 1469 1467
f 1481 1470 1472
f 1482 1471 1469
f 1481 1472 1474
f 1482 1473 1471
f 1481 1474 1476
f 1482 1475 1473
f 1481 1476 1478
f 1482 1477 1475
f 1481 1478 1480
f 1482 1479 1477
f 1481 1480 1466
f 1482 1465 1479
f 1483 1486 1485 1484
f 1487 1488 1489 1490
f 1483 1484 1488 1487
f 1485 1486 1490 1489
f 1484 1485 1489 1488
f 1486 1483 1487 1490
usemtl pipe
f 1491 1493 1494 1492
f 1493 1495 1496 1494
f 1495 1497 1498 1496
f 1497 1499 1500 1498
f 1499 1501 1502 1500
f 1501 1503 1504 1502
f 1503 1505 1506 1504
f 1505 1491 1492 1506
f 1507 1492 1494
f 1508 1493 1491
f 1507 1494 1496
f 1508 1495 1493
f 1507 1496 1498
f 1508 1497 1495
f 1507 1498 1500
f 1508 1499 1497
f 1507 1500 1502
f 1508 1501 1499
f 1507 1502 1504
f 1508 1503 1501
f 1507 1504 1506
f 1508 1505 1503
f 1507 1506 1492
f 1508 1491 1505
f 1509 1512 1511 1510
f 1513 1514 1515 1516
f 1509 1510 1514 1513
f 1511 1512 1516 1515
f 1510 1511 1515 1514
f 1512 1509 1513 1516
usemtl rust
f 1517 1519 1520 1518
f 1519 1521 1522 1520
f 1521 1523 1524 1522
f 1523 1525 1526 1524
f 1525 1527 1528 1526
f 1527 1529 1530 1528
f 1529 1531 1532 1530
f 1531 1517 1518 1532
f 1533 1518 1520
f 1534 1519 1517
f 1533 1520 1522
f 1534 1521 1519
f 1533 1522 1524
f 1534 1523 1521
f 1533 1524 1526
f 1534 1525 1523
f 1533 1526 1528
f 1534 1527 1525
f 1533 1528 1530
f 1534 1529 1527
f 1533 1530 1532
f 1534 1531 1529
f 1533 1532 1518
f 1534 1517 1531
f 1535 1538 1537 1536
f 1539 1540 1541 1542
f 1535 1536 1540 1539
f 1537 1538 1542 1541
f 1536 1537 1541 1540
f 1538 1535 1539 1542
usemtl grime_wall
f 1/1 2/2 3/3 4/4
f 5/5 6/6 7/7 8/8
f 9/9 10/10 11/11 12/12
f 13/13 14/14 15/15 16/16
f 17/17 18/18 19/19 20/20
f 21/21 22/22 23/23 24/24
f 25/25 26/26 27/27 28/28
f 29/29 30/30 31/31 32/32
f 33/33 34/34 35/35 36/36
f 37/37 38/38 39/39 40/40
f 41/41 42/42 43/43 44/44
f 45/45 46/46 47/47 48/48
f 49/49 50/50 51/51 52/52
f 53/53 54/54 55/55 56/56
f 57/57 58/58 59/59 60/60
f 61/61 62/62 63/63 64/64
f 65/65 66/66 67/67 68/68
f 69/69 70/70 71/71 72/72
f 73/73 74/74 75/75 76/76
f 77/77 78/78 79/79 80/80
f 81/81 82/82 83/83 84/84
f 85/85 86/86 87/87 88/88
f 89/89 90/90 91/91 92/92
f 93/93 94/94 95/95 96/96
f 97/97 98/98 99/99 100/100
f 101/101 102/102 103/103 104/104
f 105/105 106/106 107/107 108/108
f 109/109 110/110 111/111 112/112
f 113/113 114/114 115/115 116/116
f 117/117 118/118 119/119 120/120
f 121/121 122/122 123/123 124/124
f 125/125 126/126 127/127 128/128
f 129/129 130/130 131/131 132/132
f 133/133 134/134 135/135 136/136
f 137/137 138/138 139/139 140/140
f 141/141 142/142 143/143 144/144
f 145/145 146/146 147/147 148/148
f 149/149 150/150 151/151 152/152
f 153/153 154/154 155/155 156/156
f 157/157 158/158 159/159 160/160
f 161/161 162/162 163/163 164/164
f 165/165 166/166 167/167 168/168
f 169/169 170/170 171/171 172/172
f 173/173 174/174 175/175 176/176
f 177/177 178/178 179/179 180/180
f 181/181 182/182 183/183 184/184
f 185/185 186/186 187/187 188/188
f 189/189 190/190 191/191 192/192
f 193/193 194/194 195/195 196/196
f 197/197 198/198 199/199 200/200
f 201/201 202/202 203/203 204/204
f 205/205 206/206 207/207 208/208
f 209/209 210/210 211/211 212/212
f 213/213 214/214 215/215 216/216
f 225/217 226/218 227/219 228/220
f 229/221 230/222 231/223 232/224
f 233/225 234/226 235/227 236/228
f 237/229 238/230 239/231 240/232
f 241/233 242/234 243/235 244/236
f 245/237 246/238 247/239 248/240
f 249/241 250/242 251/243 252/244
f 253/245 254/246 255/247 256/248
f 257/249 258/250 259/251 260/252
f 261/253 262/254 263/255 264/256
f 265/257 266/258 267/259 268/260
f 269/261 270/262 271/263 272/264
f 273/265 274/266 275/267 276/268
f 277/269 278/270 279/271 280/272
f 281/273 282/274 283/275 284/276
f 285/277 286/278 287/279 288/280
f 289/281 290/282 291/283 292/284
f 293/285 294/286 295/287 296/288
f 297/289 298/290 299/291 300/292
f 301/293 302/294 303/295 304/296
f 305/297 306/298 307/299 308/300
f 309/301 310/302 311/303 312/304
f 313/305 314/306 315/307 316/308
f 317/309 318/310 319/311 320/312
f 329/313 330/314 331/315 332/316
f 333/317 334/318 335/319 336/320
f 337/321 338/322 339/323 340/324
f 341/325 342/326 343/327 344/328
f 345/329 346/330 347/331 348/332
f 349/333 350/334 351/335 352/336
f 353/337 354/338 355/339 356/340
f 357/341 358/342 359/343 360/344
f 361/345 362/346 363/347 364/348
f 365/349 366/350 367/351 368/352
f 369/353 370/354 371/355 372/356
f 373/357 374/358 375/359 376/360
f 377/361 378/362 379/363 380/364
f 381/365 382/366 383/367 384/368
f 385/369 386/370 387/371 388/372
f 389/373 390/374 391/375 392/376
f 393/377 394/378 395/379 396/380
f 397/381 398/382 399/383 400/384
f 401/385 402/386 403/387 404/388
f 405/389 406/390 407/391 408/392
f 409/393 410/394 411/395 412/396
f 413/397 414/398 415/399 416/400
f 417/401 418/402 419/403 420/404
f 421/405 422/406 423/407 424/408
f 425/409 426/410 427/411 428/412
f 429/413 430/414 431/415 432/416
f 433/417 434/418 435/419 436/420
f 437/421 438/422 439/423 440/424
f 441/425 442/426 443/427 444/428
f 445/429 446/430 447/431 448/432
f 449/433 450/434 451/435 452/436
f 453/437 454/438 455/439 456/440
f 457/441 458/442 459/443 460/444
f 461/445 462/446 463/447 464/448
f 465/449 466/450 467/451 468/452
f 469/453 470/454 471/455 472/456
f 473/457 474/458 475/459 476/460
f 477/461 478/462 479/463 480/464
f 481/465 482/466 483/467 484/468
f 485/469 486/470 487/471 488/472
f 489/473 490/474 491/475 492/476
f 493/477 494/478 495/479 496/480
f 497/481 498/482 499/483 500/484
f 501/485 502/486 503/487 504/488
f 505/489 506/490 507/491 508/492
f 509/493 510/494 511/495 512/496
f 513/497 514/498 515/499 516/500
f 517/501 518/502 519/503 520/504
f 521/505 522/506 523/507 524/508
f 525/509 526/510 527/511 528/512
f 529/513 530/514 531/515 532/516
f 533/517 534/518 535/519 536/520
f 537/521 538/522 539/523 540/524
f 541/525 542/526 543/527 544/528
f 545/529 546/530 547/531 548/532
f 549/533 550/534 551/535 552/536
f 553/537 554/538 555/539 556/540
f 557/541 558/542 559/543 560/544
f 561/545 562/546 563/547 564/548
f 565/549 566/550 567/551 568/552
f 569/553 570/554 571/555 572/556
f 573/557 574/558 575/559 576/560
f 577/561 578/562 579/563 580/564
f 581/565 582/566 583/567 584/568
f 585/569 586/570 587/571 588/572
f 589/573 590/574 591/575 592/576
f 593/577 594/578 595/579 596/580
f 597/581 598/582 599/583 600/584
f 601/585 602/586 603/587 604/588
f 605/589 606/590 607/591 608/592
f 609/593 610/594 611/595 612/596
f 613/597 614/598 615/599 616/600
f 617/601 618/602 619/603 620/604
f 621/605 622/606 623/607 624/608
f 625/609 626/610 627/611 628/612
f 629/613 630/614 631/615 632/616
f 633/617 634/618 635/619 636/620
f 637/621 638/622 639/623 640/624
f 641/625 642/626 643/627 644/628
f 645/629 646/630 647/631 648/632
f 649/633 650/634 651/635 652/636
f 653/637 654/638 655/639 656/640
f 657/641 658/642 659/643 660/644
f 661/645 662/646 663/647 664/648
f 665/649 666/650 667/651 668/652
f 669/653 670/654 671/655 672/656
f 673/657 674/658 675/659 676/660
f 677/661 678/662 679/663 680/664
f 681/665 682/666 683/667 684/668
f 685/669 686/670 687/671 688/672
f 689/673 690/674 691/675 692/676
f 693/677 694/678 695/679 696/680
f 697/681 698/682 699/683 700/684
f 701/685 702/686 703/687 704/688
f 705/689 706/690 707/691 708/692
f 709/693 710/694 711/695 712/696
f 713/697 714/698 715/699 716/700
f 717/701 718/702 719/703 720/704
f 721/705 722/706 723/707 724/708
f 725/709 726/710 727/711 728/712
f 729/713 730/714 731/715 732/716
f 733/717 734/718 735/719 736/720
f 737/721 738/722 739/723 740/724
f 741/725 742/726 743/727 744/728
f 745/729 746/730 747/731 748/732
f 749/733 750/734 751/735 752/736
f 753/737 754/738 755/739 756/740
f 757/741 758/742 759/743 760/744
f 777/745 778/746 779/747 780/748
f 781/749 782/750 783/751 784/752
f 785/753 786/754 787/755 788/756
f 789/757 790/758 791/759 792/760
f 793/761 794/762 795/763 796/764
f 797/765 798/766 799/767 800/768
f 801/769 802/770 803/771 804/772
f 805/773 806/774 807/775 808/776
f 809/777 810/778 811/779 812/780
f 813/781 814/782 815/783 816/784
f 817/785 818/786 819/787 820/788
f 821/789 822/790 823/791 824/792
f 825/793 826/794 827/795 828/796
f 829/797 830/798 831/799 832/800
f 833/801 834/802 835/803 836/804
f 837/805 838/806 839/807 840/808
f 841/809 842/810 843/811 844/812
f 845/813 846/814 847/815 848/816
f 857/817 858/818 859/819 860/820
f 861/821 862/822 863/823 864/824
f 865/825 866/826 867/827 868/828
f 869/829 870/830 871/831 872/832
f 873/833 874/834 875/835 876/836
f 877/837 878/838 879/839 880/840
f 881/841 882/842 883/843 884/844
f 885/845 886/846 887/847 888/848
f 889/849 890/850 891/851 892/852
f 893/853 894/854 895/855 896/856
f 897/857 898/858 899/859 900/860
f 901/861 902/862 903/863 904/864
f 905/865 906/866 907/867 908/868
f 909/869 910/870 911/871 912/872
f 913/873 914/874 915/875 916/876
f 917/877 918/878 919/879 920/880
f 921/881 922/882 923/883 924/884
f 925/885 926/886 927/887 928/888
f 929/889 930/890 931/891 932/892
f 933/893 934/894 935/895 936/896
f 937/897 938/898 939/899 940/900
f 941/901 942/902 943/903 944/904
f 945/905 946/906 947/907 948/908
f 949/909 950/910 951/911 952/912
f 953/913 954/914 955/915 956/916
f 957/917 958/918 959/919 960/920
f 961/921 962/922 963/923 964/924
f 965/925 966/926 967/927 968/928
f 969/929 970/930 971/931 972/932
f 973/933 974/934 975/935 976/936
f 977/937 978/938 979/939 980/940
f 981/941 982/942 983/943 984/944
f 985/945 986/946 987/947 988/948
f 989/949 990/950 991/951 992/952
f 993/953 994/954 995/955 996/956
f 997/957 998/958 999/959 1000/960
f 1009/961 1010/962 1011/963 1012/964
f 1013/965 1014/966 1015/967 1016/968
f 1017/969 1018/970 1019/971 1020/972
f 1021/973 1022/974 1023/975 1024/976
f 1025/977 1026/978 1027/979 1028/980
f 1029/981 1030/982 1031/983 1032/984
f 1041/985 1042/986 1043/987 1044/988
f 1045/989 1046/990 1047/991 1048/992
f 1049/993 1050/994 1051/995 1052/996
f 1053/997 1054/998 1055/999 1056/1000
f 1057/1001 1058/1002 1059/1003 1060/1004
f 1061/1005 1062/1006 1063/1007 1064/1008
f 1065/1009 1066/1010 1067/1011 1068/1012
f 1069/1013 1070/1014 1071/1015 1072/1016
f 1073/1017 1074/1018 1075/1019 1076/1020
f 1077/1021 1078/1022 1079/1023 1080/1024
f 1081/1025 1082/1026 1083/1027 1084/1028
f 1085/1029 1086/1030 1087/1031 1088/1032
f 1089/1033 1090/1034 1091/1035 1092/1036
f 1093/1037 1094/1038 1095/1039 1096/1040
f 1097/1041 1098/1042 1099/1043 1100/1044
f 1101/1045 1102/1046 1103/1047 1104/1048
f 1105/1049 1106/1050 1107/1051 1108/1052
f 1109/1053 1110/1054 1111/1055 1112/1056
f 1113/1057 1114/1058 1115/1059 1116/1060
f 1117/1061 1118/1062 1119/1063 1120/1064
f 1121/1065 1122/1066 1123/1067 1124/1068
f 1125/1069 1126/1070 1127/1071 1128/1072
f 1129/1073 1130/1074 1131/1075 1132/1076
f 1133/1077 1134/1078 1135/1079 1136/1080
f 1137/1081 1138/1082 1139/1083 1140/1084
f 1141/1085 1142/1086 1143/1087 1144/1088
f 1145/1089 1146/1090 1147/1091 1148/1092
f 1149/1093 1150/1094 1151/1095 1152/1096
f 1153/1097 1154/1098 1155/1099 1156/1100
f 1157/1101 1158/1102 1159/1103 1160/1104
f 1161/1105 1162/1106 1163/1107 1164/1108
f 1165/1109 1166/1110 1167/1111 1168/1112
f 1169/1113 1170/1114 1171/1115 1172/1116
f 1173/1117 1174/1118 1175/1119 1176/1120
f 1177/1121 1178/1122 1179/1123 1180/1124
f 1181/1125 1182/1126 1183/1127 1184/1128
f 1185/1129 1186/1130 1187/1131 1188/1132
f 1189/1133 1190/1134 1191/1135 1192/1136
f 1193/1137 1194/1138 1195/1139 1196/1140
f 1197/1141 1198/1142 1199/1143 1200/1144
f 1201/1145 1202/1146 1203/1147 1204/1148
f 1205/1149 1206/1150 1207/1151 1208/1152
f 1209/1153 1210/1154 1211/1155 1212/1156
f 1213/1157 1214/1158 1215/1159 1216/1160
f 1217/1161 1218/1162 1219/1163 1220/1164
f 1221/1165 1222/1166 1223/1167 1224/1168
f 1225/1169 1226/1170 1227/1171 1228/1172
f 1229/1173 1230/1174 1231/1175 1232/1176
f 1241/1177 1242/1178 1243/1179 1244/1180
f 1245/1181 1246/1182 1247/1183 1248/1184
f 1249/1185 1250/1186 1251/1187 1252/1188
f 1253/1189 1254/1190 1255/1191 1256/1192
f 1257/1193 1258/1194 1259/1195 1260/1196
f 1261/1197 1262/1198 1263/1199 1264/1200
f 1265/1201 1266/1202 1267/1203 1268/1204
f 1269/1205 1270/1206 1271/1207 1272/1208
f 1273/1209 1274/1210 1275/1211 1276/1212
f 1277/1213 1278/1214 1279/1215 1280/1216
f 1281/1217 1282/1218 1283/1219 1284/1220
f 1285/1221 1286/1222 1287/1223 1288/1224
f 1289/1225 1290/1226 1291/1227 1292/1228
f 1293/1229 1294/1230 1295/1231 1296/1232
f 1297/1233 1298/1234 1299/1235 1300/1236
f 1301/1237 1302/1238 1303/1239 1304/1240
f 1305/1241 1306/1242 1307/1243 1308/1244
f 1309/1245 1310/1246 1311/1247 1312/1248
f 1321/1249 1322/1250 1323/1251 1324/1252
f 1325/1253 1326/1254 1327/1255 1328/1256
f 1329/1257 1330/1258 1331/1259 1332/1260
f 1333/1261 1334/1262 1335/1263 1336/1264
f 1337/1265 1338/1266 1339/1267 1340/1268
f 1341/1269 1342/1270 1343/1271 1344/1272
f 1345/1273 1346/1274 1347/1275 1348/1276
f 1349/1277 1350/1278 1351/1279 1352/1280
f 1353/1281 1354/1282 1355/1283 1356/1284
f 1357/1285 1358/1286 1359/1287 1360/1288
f 1361/1289 1362/1290 1363/1291 1364/1292
f 1365/1293 1366/1294 1367/1295 1368/1296
f 1369/1297 1370/1298 1371/1299 1372/1300
f 1373/1301 1374/1302 1375/1303 1376/1304
f 1377/1305 1378/1306 1379/1307 1380/1308
f 1381/1309 1382/1310 1383/1311 1384/1312
f 1385/1313 1386/1314 1387/1315 1388/1316
f 1389/1317 1390/1318 1391/1319 1392/1320
