# RoastEngine Backrooms level
mtllib backrooms.mtl
v 22.5750 0.0000 22.5750
v 22.5750 0.0000 26.4250
v 26.4250 0.0000 26.4250
v 26.4250 0.0000 22.5750
v 22.5750 4.0000 22.5750
v 26.4250 4.0000 22.5750
v 26.4250 4.0000 26.4250
v 22.5750 4.0000 26.4250
v 22.5750 0.0000 22.5750
v 26.4250 0.0000 22.5750
v 26.4250 4.0000 22.5750
v 22.5750 4.0000 22.5750
v 26.4250 0.0000 26.4250
v 22.5750 0.0000 26.4250
v 22.5750 4.0000 26.4250
v 26.4250 4.0000 26.4250
v 26.4250 0.0000 22.5750
v 26.4250 0.0000 26.4250
v 26.4250 4.0000 26.4250
v 26.4250 4.0000 22.5750
v 22.5750 0.0000 26.4250
v 22.5750 0.0000 22.5750
v 22.5750 4.0000 22.5750
v 22.5750 4.0000 26.4250
v 29.5750 0.0000 22.5750
v 29.5750 0.0000 26.4250
v 33.4250 0.0000 26.4250
v 33.4250 0.0000 22.5750
v 29.5750 4.0000 22.5750
v 33.4250 4.0000 22.5750
v 33.4250 4.0000 26.4250
v 29.5750 4.0000 26.4250
v 29.5750 0.0000 22.5750
v 33.4250 0.0000 22.5750
v 33.4250 4.0000 22.5750
v 29.5750 4.0000 22.5750
v 33.4250 0.0000 26.4250
v 29.5750 0.0000 26.4250
v 29.5750 4.0000 26.4250
v 33.4250 4.0000 26.4250
v 33.4250 0.0000 22.5750
v 33.4250 0.0000 26.4250
v 33.4250 4.0000 26.4250
v 33.4250 4.0000 22.5750
v 29.5750 0.0000 26.4250
v 29.5750 0.0000 22.5750
v 29.5750 4.0000 22.5750
v 29.5750 4.0000 26.4250
v 36.5750 0.0000 22.5750
v 36.5750 0.0000 26.4250
v 40.4250 0.0000 26.4250
v 40.4250 0.0000 22.5750
v 36.5750 4.0000 22.5750
v 40.4250 4.0000 22.5750
v 40.4250 4.0000 26.4250
v 36.5750 4.0000 26.4250
v 36.5750 0.0000 22.5750
v 40.4250 0.0000 22.5750
v 40.4250 4.0000 22.5750
v 36.5750 4.0000 22.5750
v 40.4250 0.0000 26.4250
v 36.5750 0.0000 26.4250
v 36.5750 4.0000 26.4250
v 40.4250 4.0000 26.4250
v 40.4250 0.0000 22.5750
v 40.4250 0.0000 26.4250
v 40.4250 4.0000 26.4250
v 40.4250 4.0000 22.5750
v 36.5750 0.0000 26.4250
v 36.5750 0.0000 22.5750
v 36.5750 4.0000 22.5750
v 36.5750 4.0000 26.4250
v 43.5750 0.0000 22.5750
v 43.5750 0.0000 26.4250
v 47.4250 0.0000 26.4250
v 47.4250 0.0000 22.5750
v 43.5750 4.0000 22.5750
v 47.4250 4.0000 22.5750
v 47.4250 4.0000 26.4250
v 43.5750 4.0000 26.4250
v 43.5750 0.0000 22.5750
v 47.4250 0.0000 22.5750
v 47.4250 4.0000 22.5750
v 43.5750 4.0000 22.5750
v 47.4250 0.0000 26.4250
v 43.5750 0.0000 26.4250
v 43.5750 4.0000 26.4250
v 47.4250 4.0000 26.4250
v 47.4250 0.0000 22.5750
v 47.4250 0.0000 26.4250
v 47.4250 4.0000 26.4250
v 47.4250 4.0000 22.5750
v 43.5750 0.0000 26.4250
v 43.5750 0.0000 22.5750
v 43.5750 4.0000 22.5750
v 43.5750 4.0000 26.4250
v 50.5750 0.0000 22.5750
v 50.5750 0.0000 26.4250
v 54.4250 0.0000 26.4250
v 54.4250 0.0000 22.5750
v 50.5750 4.0000 22.5750
v 54.4250 4.0000 22.5750
v 54.4250 4.0000 26.4250
v 50.5750 4.0000 26.4250
v 50.5750 0.0000 22.5750
v 54.4250 0.0000 22.5750
v 54.4250 4.0000 22.5750
v 50.5750 4.0000 22.5750
v 54.4250 0.0000 26.4250
v 50.5750 0.0000 26.4250
v 50.5750 4.0000 26.4250
v 54.4250 4.0000 26.4250
v 54.4250 0.0000 22.5750
v 54.4250 0.0000 26.4250
v 54.4250 4.0000 26.4250
v 54.4250 4.0000 22.5750
v 50.5750 0.0000 26.4250
v 50.5750 0.0000 22.5750
v 50.5750 4.0000 22.5750
v 50.5750 4.0000 26.4250
v 50.5750 0.0000 26.0750
v 50.5750 0.0000 29.9250
v 54.4250 0.0000 29.9250
v 54.4250 0.0000 26.0750
v 50.5750 4.0000 26.0750
v 54.4250 4.0000 26.0750
v 54.4250 4.0000 29.9250
v 50.5750 4.0000 29.9250
v 50.5750 0.0000 26.0750
v 54.4250 0.0000 26.0750
v 54.4250 4.0000 26.0750
v 50.5750 4.0000 26.0750
v 54.4250 0.0000 29.9250
v 50.5750 0.0000 29.9250
v 50.5750 4.0000 29.9250
v 54.4250 4.0000 29.9250
v 54.4250 0.0000 26.0750
v 54.4250 0.0000 29.9250
v 54.4250 4.0000 29.9250
v 54.4250 4.0000 26.0750
v 50.5750 0.0000 29.9250
v 50.5750 0.0000 26.0750
v 50.5750 4.0000 26.0750
v 50.5750 4.0000 29.9250
v 22.5750 0.0000 29.5750
v 22.5750 0.0000 33.4250
v 26.4250 0.0000 33.4250
v 26.4250 0.0000 29.5750
v 22.5750 4.0000 29.5750
v 26.4250 4.0000 29.5750
v 26.4250 4.0000 33.4250
v 22.5750 4.0000 33.4250
v 22.5750 0.0000 29.5750
v 26.4250 0.0000 29.5750
v 26.4250 4.0000 29.5750
v 22.5750 4.0000 29.5750
v 26.4250 0.0000 33.4250
v 22.5750 0.0000 33.4250
v 22.5750 4.0000 33.4250
v 26.4250 4.0000 33.4250
v 26.4250 0.0000 29.5750
v 26.4250 0.0000 33.4250
v 26.4250 4.0000 33.4250
v 26.4250 4.0000 29.5750
v 22.5750 0.0000 33.4250
v 22.5750 0.0000 29.5750
v 22.5750 4.0000 29.5750
v 22.5750 4.0000 33.4250
v 29.5750 0.0000 29.5750
v 29.5750 0.0000 33.4250
v 33.4250 0.0000 33.4250
v 33.4250 0.0000 29.5750
v 29.5750 4.0000 29.5750
v 33.4250 4.0000 29.5750
v 33.4250 4.0000 33.4250
v 29.5750 4.0000 33.4250
v 29.5750 0.0000 29.5750
v 33.4250 0.0000 29.5750
v 33.4250 4.0000 29.5750
v 29.5750 4.0000 29.5750
v 33.4250 0.0000 33.4250
v 29.5750 0.0000 33.4250
v 29.5750 4.0000 33.4250
v 33.4250 4.0000 33.4250
v 33.4250 0.0000 29.5750
v 33.4250 0.0000 33.4250
v 33.4250 4.0000 33.4250
v 33.4250 4.0000 29.5750
v 29.5750 0.0000 33.4250
v 29.5750 0.0000 29.5750
v 29.5750 4.0000 29.5750
v 29.5750 4.0000 33.4250
v 36.5750 0.0000 29.5750
v 36.5750 0.0000 33.4250
v 40.4250 0.0000 33.4250
v 40.4250 0.0000 29.5750
v 36.5750 4.0000 29.5750
v 40.4250 4.0000 29.5750
v 40.4250 4.0000 33.4250
v 36.5750 4.0000 33.4250
v 36.5750 0.0000 29.5750
v 40.4250 0.0000 29.5750
v 40.4250 4.0000 29.5750
v 36.5750 4.0000 29.5750
v 40.4250 0.0000 33.4250
v 36.5750 0.0000 33.4250
v 36.5750 4.0000 33.4250
v 40.4250 4.0000 33.4250
v 40.4250 0.0000 29.5750
v 40.4250 0.0000 33.4250
v 40.4250 4.0000 33.4250
v 40.4250 4.0000 29.5750
v 36.5750 0.0000 33.4250
v 36.5750 0.0000 29.5750
v 36.5750 4.0000 29.5750
v 36.5750 4.0000 33.4250
v 43.5750 0.0000 29.5750
v 43.5750 0.0000 33.4250
v 47.4250 0.0000 33.4250
v 47.4250 0.0000 29.5750
v 43.5750 4.0000 29.5750
v 47.4250 4.0000 29.5750
v 47.4250 4.0000 33.4250
v 43.5750 4.0000 33.4250
v 43.5750 0.0000 29.5750
v 47.4250 0.0000 29.5750
v 47.4250 4.0000 29.5750
v 43.5750 4.0000 29.5750
v 47.4250 0.0000 33.4250
v 43.5750 0.0000 33.4250
v 43.5750 4.0000 33.4250
v 47.4250 4.0000 33.4250
v 47.4250 0.0000 29.5750
v 47.4250 0.0000 33.4250
v 47.4250 4.0000 33.4250
v 47.4250 4.0000 29.5750
v 43.5750 0.0000 33.4250
v 43.5750 0.0000 29.5750
v 43.5750 4.0000 29.5750
v 43.5750 4.0000 33.4250
v 50.5750 0.0000 29.5750
v 50.5750 0.0000 33.4250
v 54.4250 0.0000 33.4250
v 54.4250 0.0000 29.5750
v 50.5750 4.0000 29.5750
v 54.4250 4.0000 29.5750
v 54.4250 4.0000 33.4250
v 50.5750 4.0000 33.4250
v 50.5750 0.0000 29.5750
v 54.4250 0.0000 29.5750
v 54.4250 4.0000 29.5750
v 50.5750 4.0000 29.5750
v 54.4250 0.0000 33.4250
v 50.5750 0.0000 33.4250
v 50.5750 4.0000 33.4250
v 54.4250 4.0000 33.4250
v 54.4250 0.0000 29.5750
v 54.4250 0.0000 33.4250
v 54.4250 4.0000 33.4250
v 54.4250 4.0000 29.5750
v 50.5750 0.0000 33.4250
v 50.5750 0.0000 29.5750
v 50.5750 4.0000 29.5750
v 50.5750 4.0000 33.4250
v 43.5750 0.0000 33.0750
v 43.5750 0.0000 36.9250
v 47.4250 0.0000 36.9250
v 47.4250 0.0000 33.0750
v 43.5750 4.0000 33.0750
v 47.4250 4.0000 33.0750
v 47.4250 4.0000 36.9250
v 43.5750 4.0000 36.9250
v 43.5750 0.0000 33.0750
v 47.4250 0.0000 33.0750
v 47.4250 4.0000 33.0750
v 43.5750 4.0000 33.0750
v 47.4250 0.0000 36.9250
v 43.5750 0.0000 36.9250
v 43.5750 4.0000 36.9250
v 47.4250 4.0000 36.9250
v 47.4250 0.0000 33.0750
v 47.4250 0.0000 36.9250
v 47.4250 4.0000 36.9250
v 47.4250 4.0000 33.0750
v 43.5750 0.0000 36.9250
v 43.5750 0.0000 33.0750
v 43.5750 4.0000 33.0750
v 43.5750 4.0000 36.9250
v 22.5750 0.0000 36.5750
v 22.5750 0.0000 40.4250
v 26.4250 0.0000 40.4250
v 26.4250 0.0000 36.5750
v 22.5750 4.0000 36.5750
v 26.4250 4.0000 36.5750
v 26.4250 4.0000 40.4250
v 22.5750 4.0000 40.4250
v 22.5750 0.0000 36.5750
v 26.4250 0.0000 36.5750
v 26.4250 4.0000 36.5750
v 22.5750 4.0000 36.5750
v 26.4250 0.0000 40.4250
v 22.5750 0.0000 40.4250
v 22.5750 4.0000 40.4250
v 26.4250 4.0000 40.4250
v 26.4250 0.0000 36.5750
v 26.4250 0.0000 40.4250
v 26.4250 4.0000 40.4250
v 26.4250 4.0000 36.5750
v 22.5750 0.0000 40.4250
v 22.5750 0.0000 36.5750
v 22.5750 4.0000 36.5750
v 22.5750 4.0000 40.4250
v 29.5750 0.0000 36.5750
v 29.5750 0.0000 40.4250
v 33.4250 0.0000 40.4250
v 33.4250 0.0000 36.5750
v 29.5750 4.0000 36.5750
v 33.4250 4.0000 36.5750
v 33.4250 4.0000 40.4250
v 29.5750 4.0000 40.4250
v 29.5750 0.0000 36.5750
v 33.4250 0.0000 36.5750
v 33.4250 4.0000 36.5750
v 29.5750 4.0000 36.5750
v 33.4250 0.0000 40.4250
v 29.5750 0.0000 40.4250
v 29.5750 4.0000 40.4250
v 33.4250 4.0000 40.4250
v 33.4250 0.0000 36.5750
v 33.4250 0.0000 40.4250
v 33.4250 4.0000 40.4250
v 33.4250 4.0000 36.5750
v 29.5750 0.0000 40.4250
v 29.5750 0.0000 36.5750
v 29.5750 4.0000 36.5750
v 29.5750 4.0000 40.4250
v 36.5750 0.0000 36.5750
v 36.5750 0.0000 40.4250
v 40.4250 0.0000 40.4250
v 40.4250 0.0000 36.5750
v 36.5750 4.0000 36.5750
v 40.4250 4.0000 36.5750
v 40.4250 4.0000 40.4250
v 36.5750 4.0000 40.4250
v 36.5750 0.0000 36.5750
v 40.4250 0.0000 36.5750
v 40.4250 4.0000 36.5750
v 36.5750 4.0000 36.5750
v 40.4250 0.0000 40.4250
v 36.5750 0.0000 40.4250
v 36.5750 4.0000 40.4250
v 40.4250 4.0000 40.4250
v 40.4250 0.0000 36.5750
v 40.4250 0.0000 40.4250
v 40.4250 4.0000 40.4250
v 40.4250 4.0000 36.5750
v 36.5750 0.0000 40.4250
v 36.5750 0.0000 36.5750
v 36.5750 4.0000 36.5750
v 36.5750 4.0000 40.4250
v 43.5750 0.0000 36.5750
v 43.5750 0.0000 40.4250
v 47.4250 0.0000 40.4250
v 47.4250 0.0000 36.5750
v 43.5750 4.0000 36.5750
v 47.4250 4.0000 36.5750
v 47.4250 4.0000 40.4250
v 43.5750 4.0000 40.4250
v 43.5750 0.0000 36.5750
v 47.4250 0.0000 36.5750
v 47.4250 4.0000 36.5750
v 43.5750 4.0000 36.5750
v 47.4250 0.0000 40.4250
v 43.5750 0.0000 40.4250
v 43.5750 4.0000 40.4250
v 47.4250 4.0000 40.4250
v 47.4250 0.0000 36.5750
v 47.4250 0.0000 40.4250
v 47.4250 4.0000 40.4250
v 47.4250 4.0000 36.5750
v 43.5750 0.0000 40.4250
v 43.5750 0.0000 36.5750
v 43.5750 4.0000 36.5750
v 43.5750 4.0000 40.4250
v 50.5750 0.0000 36.5750
v 50.5750 0.0000 40.4250
v 54.4250 0.0000 40.4250
v 54.4250 0.0000 36.5750
v 50.5750 4.0000 36.5750
v 54.4250 4.0000 36.5750
v 54.4250 4.0000 40.4250
v 50.5750 4.0000 40.4250
v 50.5750 0.0000 36.5750
v 54.4250 0.0000 36.5750
v 54.4250 4.0000 36.5750
v 50.5750 4.0000 36.5750
v 54.4250 0.0000 40.4250
v 50.5750 0.0000 40.4250
v 50.5750 4.0000 40.4250
v 54.4250 4.0000 40.4250
v 54.4250 0.0000 36.5750
v 54.4250 0.0000 40.4250
v 54.4250 4.0000 40.4250
v 54.4250 4.0000 36.5750
v 50.5750 0.0000 40.4250
v 50.5750 0.0000 36.5750
v 50.5750 4.0000 36.5750
v 50.5750 4.0000 40.4250
v 29.5750 0.0000 40.0750
v 29.5750 0.0000 43.9250
v 33.4250 0.0000 43.9250
v 33.4250 0.0000 40.0750
v 29.5750 4.0000 40.0750
v 33.4250 4.0000 40.0750
v 33.4250 4.0000 43.9250
v 29.5750 4.0000 43.9250
v 29.5750 0.0000 40.0750
v 33.4250 0.0000 40.0750
v 33.4250 4.0000 40.0750
v 29.5750 4.0000 40.0750
v 33.4250 0.0000 43.9250
v 29.5750 0.0000 43.9250
v 29.5750 4.0000 43.9250
v 33.4250 4.0000 43.9250
v 33.4250 0.0000 40.0750
v 33.4250 0.0000 43.9250
v 33.4250 4.0000 43.9250
v 33.4250 4.0000 40.0750
v 29.5750 0.0000 43.9250
v 29.5750 0.0000 40.0750
v 29.5750 4.0000 40.0750
v 29.5750 4.0000 43.9250
v 22.5750 0.0000 43.5750
v 22.5750 0.0000 47.4250
v 26.4250 0.0000 47.4250
v 26.4250 0.0000 43.5750
v 22.5750 4.0000 43.5750
v 26.4250 4.0000 43.5750
v 26.4250 4.0000 47.4250
v 22.5750 4.0000 47.4250
v 22.5750 0.0000 43.5750
v 26.4250 0.0000 43.5750
v 26.4250 4.0000 43.5750
v 22.5750 4.0000 43.5750
v 26.4250 0.0000 47.4250
v 22.5750 0.0000 47.4250
v 22.5750 4.0000 47.4250
v 26.4250 4.0000 47.4250
v 26.4250 0.0000 43.5750
v 26.4250 0.0000 47.4250
v 26.4250 4.0000 47.4250
v 26.4250 4.0000 43.5750
v 22.5750 0.0000 47.4250
v 22.5750 0.0000 43.5750
v 22.5750 4.0000 43.5750
v 22.5750 4.0000 47.4250
v 29.5750 0.0000 43.5750
v 29.5750 0.0000 47.4250
v 33.4250 0.0000 47.4250
v 33.4250 0.0000 43.5750
v 29.5750 4.0000 43.5750
v 33.4250 4.0000 43.5750
v 33.4250 4.0000 47.4250
v 29.5750 4.0000 47.4250
v 29.5750 0.0000 43.5750
v 33.4250 0.0000 43.5750
v 33.4250 4.0000 43.5750
v 29.5750 4.0000 43.5750
v 33.4250 0.0000 47.4250
v 29.5750 0.0000 47.4250
v 29.5750 4.0000 47.4250
v 33.4250 4.0000 47.4250
v 33.4250 0.0000 43.5750
v 33.4250 0.0000 47.4250
v 33.4250 4.0000 47.4250
v 33.4250 4.0000 43.5750
v 29.5750 0.0000 47.4250
v 29.5750 0.0000 43.5750
v 29.5750 4.0000 43.5750
v 29.5750 4.0000 47.4250
v 36.5750 0.0000 43.5750
v 36.5750 0.0000 47.4250
v 40.4250 0.0000 47.4250
v 40.4250 0.0000 43.5750
v 36.5750 4.0000 43.5750
v 40.4250 4.0000 43.5750
v 40.4250 4.0000 47.4250
v 36.5750 4.0000 47.4250
v 36.5750 0.0000 43.5750
v 40.4250 0.0000 43.5750
v 40.4250 4.0000 43.5750
v 36.5750 4.0000 43.5750
v 40.4250 0.0000 47.4250
v 36.5750 0.0000 47.4250
v 36.5750 4.0000 47.4250
v 40.4250 4.0000 47.4250
v 40.4250 0.0000 43.5750
v 40.4250 0.0000 47.4250
v 40.4250 4.0000 47.4250
v 40.4250 4.0000 43.5750
v 36.5750 0.0000 47.4250
v 36.5750 0.0000 43.5750
v 36.5750 4.0000 43.5750
v 36.5750 4.0000 47.4250
v 43.5750 0.0000 43.5750
v 43.5750 0.0000 47.4250
v 47.4250 0.0000 47.4250
v 47.4250 0.0000 43.5750
v 43.5750 4.0000 43.5750
v 47.4250 4.0000 43.5750
v 47.4250 4.0000 47.4250
v 43.5750 4.0000 47.4250
v 43.5750 0.0000 43.5750
v 47.4250 0.0000 43.5750
v 47.4250 4.0000 43.5750
v 43.5750 4.0000 43.5750
v 47.4250 0.0000 47.4250
v 43.5750 0.0000 47.4250
v 43.5750 4.0000 47.4250
v 47.4250 4.0000 47.4250
v 47.4250 0.0000 43.5750
v 47.4250 0.0000 47.4250
v 47.4250 4.0000 47.4250
v 47.4250 4.0000 43.5750
v 43.5750 0.0000 47.4250
v 43.5750 0.0000 43.5750
v 43.5750 4.0000 43.5750
v 43.5750 4.0000 47.4250
v 50.5750 0.0000 43.5750
v 50.5750 0.0000 47.4250
v 54.4250 0.0000 47.4250
v 54.4250 0.0000 43.5750
v 50.5750 4.0000 43.5750
v 54.4250 4.0000 43.5750
v 54.4250 4.0000 47.4250
v 50.5750 4.0000 47.4250
v 50.5750 0.0000 43.5750
v 54.4250 0.0000 43.5750
v 54.4250 4.0000 43.5750
v 50.5750 4.0000 43.5750
v 54.4250 0.0000 47.4250
v 50.5750 0.0000 47.4250
v 50.5750 4.0000 47.4250
v 54.4250 4.0000 47.4250
v 54.4250 0.0000 43.5750
v 54.4250 0.0000 47.4250
v 54.4250 4.0000 47.4250
v 54.4250 4.0000 43.5750
v 50.5750 0.0000 47.4250
v 50.5750 0.0000 43.5750
v 50.5750 4.0000 43.5750
v 50.5750 4.0000 47.4250
v 54.0750 0.0000 43.5750
v 54.0750 0.0000 47.4250
v 57.9250 0.0000 47.4250
v 57.9250 0.0000 43.5750
v 54.0750 4.0000 43.5750
v 57.9250 4.0000 43.5750
v 57.9250 4.0000 47.4250
v 54.0750 4.0000 47.4250
v 54.0750 0.0000 43.5750
v 57.9250 0.0000 43.5750
v 57.9250 4.0000 43.5750
v 54.0750 4.0000 43.5750
v 57.9250 0.0000 47.4250
v 54.0750 0.0000 47.4250
v 54.0750 4.0000 47.4250
v 57.9250 4.0000 47.4250
v 57.9250 0.0000 43.5750
v 57.9250 0.0000 47.4250
v 57.9250 4.0000 47.4250
v 57.9250 4.0000 43.5750
v 54.0750 0.0000 47.4250
v 54.0750 0.0000 43.5750
v 54.0750 4.0000 43.5750
v 54.0750 4.0000 47.4250
v 29.5750 0.0000 47.0750
v 29.5750 0.0000 50.9250
v 33.4250 0.0000 50.9250
v 33.4250 0.0000 47.0750
v 29.5750 4.0000 47.0750
v 33.4250 4.0000 47.0750
v 33.4250 4.0000 50.9250
v 29.5750 4.0000 50.9250
v 29.5750 0.0000 47.0750
v 33.4250 0.0000 47.0750
v 33.4250 4.0000 47.0750
v 29.5750 4.0000 47.0750
v 33.4250 0.0000 50.9250
v 29.5750 0.0000 50.9250
v 29.5750 4.0000 50.9250
v 33.4250 4.0000 50.9250
v 33.4250 0.0000 47.0750
v 33.4250 0.0000 50.9250
v 33.4250 4.0000 50.9250
v 33.4250 4.0000 47.0750
v 29.5750 0.0000 50.9250
v 29.5750 0.0000 47.0750
v 29.5750 4.0000 47.0750
v 29.5750 4.0000 50.9250
v 22.5750 0.0000 50.5750
v 22.5750 0.0000 54.4250
v 26.4250 0.0000 54.4250
v 26.4250 0.0000 50.5750
v 22.5750 4.0000 50.5750
v 26.4250 4.0000 50.5750
v 26.4250 4.0000 54.4250
v 22.5750 4.0000 54.4250
v 22.5750 0.0000 50.5750
v 26.4250 0.0000 50.5750
v 26.4250 4.0000 50.5750
v 22.5750 4.0000 50.5750
v 26.4250 0.0000 54.4250
v 22.5750 0.0000 54.4250
v 22.5750 4.0000 54.4250
v 26.4250 4.0000 54.4250
v 26.4250 0.0000 50.5750
v 26.4250 0.0000 54.4250
v 26.4250 4.0000 54.4250
v 26.4250 4.0000 50.5750
v 22.5750 0.0000 54.4250
v 22.5750 0.0000 50.5750
v 22.5750 4.0000 50.5750
v 22.5750 4.0000 54.4250
v 29.5750 0.0000 50.5750
v 29.5750 0.0000 54.4250
v 33.4250 0.0000 54.4250
v 33.4250 0.0000 50.5750
v 29.5750 4.0000 50.5750
v 33.4250 4.0000 50.5750
v 33.4250 4.0000 54.4250
v 29.5750 4.0000 54.4250
v 29.5750 0.0000 50.5750
v 33.4250 0.0000 50.5750
v 33.4250 4.0000 50.5750
v 29.5750 4.0000 50.5750
v 33.4250 0.0000 54.4250
v 29.5750 0.0000 54.4250
v 29.5750 4.0000 54.4250
v 33.4250 4.0000 54.4250
v 33.4250 0.0000 50.5750
v 33.4250 0.0000 54.4250
v 33.4250 4.0000 54.4250
v 33.4250 4.0000 50.5750
v 29.5750 0.0000 54.4250
v 29.5750 0.0000 50.5750
v 29.5750 4.0000 50.5750
v 29.5750 4.0000 54.4250
v 36.5750 0.0000 50.5750
v 36.5750 0.0000 54.4250
v 40.4250 0.0000 54.4250
v 40.4250 0.0000 50.5750
v 36.5750 4.0000 50.5750
v 40.4250 4.0000 50.5750
v 40.4250 4.0000 54.4250
v 36.5750 4.0000 54.4250
v 36.5750 0.0000 50.5750
v 40.4250 0.0000 50.5750
v 40.4250 4.0000 50.5750
v 36.5750 4.0000 50.5750
v 40.4250 0.0000 54.4250
v 36.5750 0.0000 54.4250
v 36.5750 4.0000 54.4250
v 40.4250 4.0000 54.4250
v 40.4250 0.0000 50.5750
v 40.4250 0.0000 54.4250
v 40.4250 4.0000 54.4250
v 40.4250 4.0000 50.5750
v 36.5750 0.0000 54.4250
v 36.5750 0.0000 50.5750
v 36.5750 4.0000 50.5750
v 36.5750 4.0000 54.4250
v 43.5750 0.0000 50.5750
v 43.5750 0.0000 54.4250
v 47.4250 0.0000 54.4250
v 47.4250 0.0000 50.5750
v 43.5750 4.0000 50.5750
v 47.4250 4.0000 50.5750
v 47.4250 4.0000 54.4250
v 43.5750 4.0000 54.4250
v 43.5750 0.0000 50.5750
v 47.4250 0.0000 50.5750
v 47.4250 4.0000 50.5750
v 43.5750 4.0000 50.5750
v 47.4250 0.0000 54.4250
v 43.5750 0.0000 54.4250
v 43.5750 4.0000 54.4250
v 47.4250 4.0000 54.4250
v 47.4250 0.0000 50.5750
v 47.4250 0.0000 54.4250
v 47.4250 4.0000 54.4250
v 47.4250 4.0000 50.5750
v 43.5750 0.0000 54.4250
v 43.5750 0.0000 50.5750
v 43.5750 4.0000 50.5750
v 43.5750 4.0000 54.4250
v 50.5750 0.0000 50.5750
v 50.5750 0.0000 54.4250
v 54.4250 0.0000 54.4250
v 54.4250 0.0000 50.5750
v 50.5750 4.0000 50.5750
v 54.4250 4.0000 50.5750
v 54.4250 4.0000 54.4250
v 50.5750 4.0000 54.4250
v 50.5750 0.0000 50.5750
v 54.4250 0.0000 50.5750
v 54.4250 4.0000 50.5750
v 50.5750 4.0000 50.5750
v 54.4250 0.0000 54.4250
v 50.5750 0.0000 54.4250
v 50.5750 4.0000 54.4250
v 54.4250 4.0000 54.4250
v 54.4250 0.0000 50.5750
v 54.4250 0.0000 54.4250
v 54.4250 4.0000 54.4250
v 54.4250 4.0000 50.5750
v 50.5750 0.0000 54.4250
v 50.5750 0.0000 50.5750
v 50.5750 4.0000 50.5750
v 50.5750 4.0000 54.4250
v 27.2000 3.8300 34.8250
v 28.8000 3.8300 34.8250
v 28.8000 3.8300 35.1750
v 27.2000 3.8300 35.1750
v 27.2000 3.9300 34.8250
v 28.8000 3.9300 34.8250
v 28.8000 3.9300 35.1750
v 27.2000 3.9300 35.1750
v 27.0500 3.9100 34.7000
v 27.0500 3.9100 35.3000
v 28.9500 3.9100 35.3000
v 28.9500 3.9100 34.7000
v 27.0500 3.9900 34.7000
v 28.9500 3.9900 34.7000
v 28.9500 3.9900 35.3000
v 27.0500 3.9900 35.3000
v 27.0500 3.9100 34.7000
v 28.9500 3.9100 34.7000
v 28.9500 3.9900 34.7000
v 27.0500 3.9900 34.7000
v 28.9500 3.9100 35.3000
v 27.0500 3.9100 35.3000
v 27.0500 3.9900 35.3000
v 28.9500 3.9900 35.3000
v 28.9500 3.9100 34.7000
v 28.9500 3.9100 35.3000
v 28.9500 3.9900 35.3000
v 28.9500 3.9900 34.7000
v 27.0500 3.9100 35.3000
v 27.0500 3.9100 34.7000
v 27.0500 3.9900 34.7000
v 27.0500 3.9900 35.3000
v 34.2000 3.8300 34.8250
v 35.8000 3.8300 34.8250
v 35.8000 3.8300 35.1750
v 34.2000 3.8300 35.1750
v 34.2000 3.9300 34.8250
v 35.8000 3.9300 34.8250
v 35.8000 3.9300 35.1750
v 34.2000 3.9300 35.1750
v 34.0500 3.9100 34.7000
v 34.0500 3.9100 35.3000
v 35.9500 3.9100 35.3000
v 35.9500 3.9100 34.7000
v 34.0500 3.9900 34.7000
v 35.9500 3.9900 34.7000
v 35.9500 3.9900 35.3000
v 34.0500 3.9900 35.3000
v 34.0500 3.9100 34.7000
v 35.9500 3.9100 34.7000
v 35.9500 3.9900 34.7000
v 34.0500 3.9900 34.7000
v 35.9500 3.9100 35.3000
v 34.0500 3.9100 35.3000
v 34.0500 3.9900 35.3000
v 35.9500 3.9900 35.3000
v 35.9500 3.9100 34.7000
v 35.9500 3.9100 35.3000
v 35.9500 3.9900 35.3000
v 35.9500 3.9900 34.7000
v 34.0500 3.9100 35.3000
v 34.0500 3.9100 34.7000
v 34.0500 3.9900 34.7000
v 34.0500 3.9900 35.3000
v 34.2000 3.8300 41.8250
v 35.8000 3.8300 41.8250
v 35.8000 3.8300 42.1750
v 34.2000 3.8300 42.1750
v 34.2000 3.9300 41.8250
v 35.8000 3.9300 41.8250
v 35.8000 3.9300 42.1750
v 34.2000 3.9300 42.1750
v 34.0500 3.9100 41.7000
v 34.0500 3.9100 42.3000
v 35.9500 3.9100 42.3000
v 35.9500 3.9100 41.7000
v 34.0500 3.9900 41.7000
v 35.9500 3.9900 41.7000
v 35.9500 3.9900 42.3000
v 34.0500 3.9900 42.3000
v 34.0500 3.9100 41.7000
v 35.9500 3.9100 41.7000
v 35.9500 3.9900 41.7000
v 34.0500 3.9900 41.7000
v 35.9500 3.9100 42.3000
v 34.0500 3.9100 42.3000
v 34.0500 3.9900 42.3000
v 35.9500 3.9900 42.3000
v 35.9500 3.9100 41.7000
v 35.9500 3.9100 42.3000
v 35.9500 3.9900 42.3000
v 35.9500 3.9900 41.7000
v 34.0500 3.9100 42.3000
v 34.0500 3.9100 41.7000
v 34.0500 3.9900 41.7000
v 34.0500 3.9900 42.3000
v 34.2000 3.8300 48.8250
v 35.8000 3.8300 48.8250
v 35.8000 3.8300 49.1750
v 34.2000 3.8300 49.1750
v 34.2000 3.9300 48.8250
v 35.8000 3.9300 48.8250
v 35.8000 3.9300 49.1750
v 34.2000 3.9300 49.1750
v 34.0500 3.9100 48.7000
v 34.0500 3.9100 49.3000
v 35.9500 3.9100 49.3000
v 35.9500 3.9100 48.7000
v 34.0500 3.9900 48.7000
v 35.9500 3.9900 48.7000
v 35.9500 3.9900 49.3000
v 34.0500 3.9900 49.3000
v 34.0500 3.9100 48.7000
v 35.9500 3.9100 48.7000
v 35.9500 3.9900 48.7000
v 34.0500 3.9900 48.7000
v 35.9500 3.9100 49.3000
v 34.0500 3.9100 49.3000
v 34.0500 3.9900 49.3000
v 35.9500 3.9900 49.3000
v 35.9500 3.9100 48.7000
v 35.9500 3.9100 49.3000
v 35.9500 3.9900 49.3000
v 35.9500 3.9900 48.7000
v 34.0500 3.9100 49.3000
v 34.0500 3.9100 48.7000
v 34.0500 3.9900 48.7000
v 34.0500 3.9900 49.3000
v 41.2000 3.8300 48.8250
v 42.8000 3.8300 48.8250
v 42.8000 3.8300 49.1750
v 41.2000 3.8300 49.1750
v 41.2000 3.9300 48.8250
v 42.8000 3.9300 48.8250
v 42.8000 3.9300 49.1750
v 41.2000 3.9300 49.1750
v 41.0500 3.9100 48.7000
v 41.0500 3.9100 49.3000
v 42.9500 3.9100 49.3000
v 42.9500 3.9100 48.7000
v 41.0500 3.9900 48.7000
v 42.9500 3.9900 48.7000
v 42.9500 3.9900 49.3000
v 41.0500 3.9900 49.3000
v 41.0500 3.9100 48.7000
v 42.9500 3.9100 48.7000
v 42.9500 3.9900 48.7000
v 41.0500 3.9900 48.7000
v 42.9500 3.9100 49.3000
v 41.0500 3.9100 49.3000
v 41.0500 3.9900 49.3000
v 42.9500 3.9900 49.3000
v 42.9500 3.9100 48.7000
v 42.9500 3.9100 49.3000
v 42.9500 3.9900 49.3000
v 42.9500 3.9900 48.7000
v 41.0500 3.9100 49.3000
v 41.0500 3.9100 48.7000
v 41.0500 3.9900 48.7000
v 41.0500 3.9900 49.3000
v 48.2000 3.8300 48.8250
v 49.8000 3.8300 48.8250
v 49.8000 3.8300 49.1750
v 48.2000 3.8300 49.1750
v 48.2000 3.9300 48.8250
v 49.8000 3.9300 48.8250
v 49.8000 3.9300 49.1750
v 48.2000 3.9300 49.1750
v 48.0500 3.9100 48.7000
v 48.0500 3.9100 49.3000
v 49.9500 3.9100 49.3000
v 49.9500 3.9100 48.7000
v 48.0500 3.9900 48.7000
v 49.9500 3.9900 48.7000
v 49.9500 3.9900 49.3000
v 48.0500 3.9900 49.3000
v 48.0500 3.9100 48.7000
v 49.9500 3.9100 48.7000
v 49.9500 3.9900 48.7000
v 48.0500 3.9900 48.7000
v 49.9500 3.9100 49.3000
v 48.0500 3.9100 49.3000
v 48.0500 3.9900 49.3000
v 49.9500 3.9900 49.3000
v 49.9500 3.9100 48.7000
v 49.9500 3.9100 49.3000
v 49.9500 3.9900 49.3000
v 49.9500 3.9900 48.7000
v 48.0500 3.9100 49.3000
v 48.0500 3.9100 48.7000
v 48.0500 3.9900 48.7000
v 48.0500 3.9900 49.3000
v 55.2000 3.8300 48.8250
v 56.8000 3.8300 48.8250
v 56.8000 3.8300 49.1750
v 55.2000 3.8300 49.1750
v 55.2000 3.9300 48.8250
v 56.8000 3.9300 48.8250
v 56.8000 3.9300 49.1750
v 55.2000 3.9300 49.1750
v 55.0500 3.9100 48.7000
v 55.0500 3.9100 49.3000
v 56.9500 3.9100 49.3000
v 56.9500 3.9100 48.7000
v 55.0500 3.9900 48.7000
v 56.9500 3.9900 48.7000
v 56.9500 3.9900 49.3000
v 55.0500 3.9900 49.3000
v 55.0500 3.9100 48.7000
v 56.9500 3.9100 48.7000
v 56.9500 3.9900 48.7000
v 55.0500 3.9900 48.7000
v 56.9500 3.9100 49.3000
v 55.0500 3.9100 49.3000
v 55.0500 3.9900 49.3000
v 56.9500 3.9900 49.3000
v 56.9500 3.9100 48.7000
v 56.9500 3.9100 49.3000
v 56.9500 3.9900 49.3000
v 56.9500 3.9900 48.7000
v 55.0500 3.9100 49.3000
v 55.0500 3.9100 48.7000
v 55.0500 3.9900 48.7000
v 55.0500 3.9900 49.3000
v 48.2000 3.8300 55.8250
v 49.8000 3.8300 55.8250
v 49.8000 3.8300 56.1750
v 48.2000 3.8300 56.1750
v 48.2000 3.9300 55.8250
v 49.8000 3.9300 55.8250
v 49.8000 3.9300 56.1750
v 48.2000 3.9300 56.1750
v 48.0500 3.9100 55.7000
v 48.0500 3.9100 56.3000
v 49.9500 3.9100 56.3000
v 49.9500 3.9100 55.7000
v 48.0500 3.9900 55.7000
v 49.9500 3.9900 55.7000
v 49.9500 3.9900 56.3000
v 48.0500 3.9900 56.3000
v 48.0500 3.9100 55.7000
v 49.9500 3.9100 55.7000
v 49.9500 3.9900 55.7000
v 48.0500 3.9900 55.7000
v 49.9500 3.9100 56.3000
v 48.0500 3.9100 56.3000
v 48.0500 3.9900 56.3000
v 49.9500 3.9900 56.3000
v 49.9500 3.9100 55.7000
v 49.9500 3.9100 56.3000
v 49.9500 3.9900 56.3000
v 49.9500 3.9900 55.7000
v 48.0500 3.9100 56.3000
v 48.0500 3.9100 55.7000
v 48.0500 3.9900 55.7000
v 48.0500 3.9900 56.3000
vt 9.0300 9.0300
vt 9.0300 10.5700
vt 10.5700 10.5700
vt 10.5700 9.0300
vt 9.0300 9.0300
vt 10.5700 9.0300
vt 10.5700 10.5700
vt 9.0300 10.5700
vt 9.0300 0.0000
vt 10.5700 0.0000
vt 10.5700 1.6000
vt 9.0300 1.6000
vt 10.5700 0.0000
vt 9.0300 0.0000
vt 9.0300 1.6000
vt 10.5700 1.6000
vt 9.0300 0.0000
vt 10.5700 0.0000
vt 10.5700 1.6000
vt 9.0300 1.6000
vt 10.5700 0.0000
vt 9.0300 0.0000
vt 9.0300 1.6000
vt 10.5700 1.6000
vt 11.8300 9.0300
vt 11.8300 10.5700
vt 13.3700 10.5700
vt 13.3700 9.0300
vt 11.8300 9.0300
vt 13.3700 9.0300
vt 13.3700 10.5700
vt 11.8300 10.5700
vt 11.8300 0.0000
vt 13.3700 0.0000
vt 13.3700 1.6000
vt 11.8300 1.6000
vt 13.3700 0.0000
vt 11.8300 0.0000
vt 11.8300 1.6000
vt 13.3700 1.6000
vt 9.0300 0.0000
vt 10.5700 0.0000
vt 10.5700 1.6000
vt 9.0300 1.6000
vt 10.5700 0.0000
vt 9.0300 0.0000
vt 9.0300 1.6000
vt 10.5700 1.6000
vt 14.6300 9.0300
vt 14.6300 10.5700
vt 16.1700 10.5700
vt 16.1700 9.0300
vt 14.6300 9.0300
vt 16.1700 9.0300
vt 16.1700 10.5700
vt 14.6300 10.5700
vt 14.6300 0.0000
vt 16.1700 0.0000
vt 16.1700 1.6000
vt 14.6300 1.6000
vt 16.1700 0.0000
vt 14.6300 0.0000
vt 14.6300 1.6000
vt 16.1700 1.6000
vt 9.0300 0.0000
vt 10.5700 0.0000
vt 10.5700 1.6000
vt 9.0300 1.6000
vt 10.5700 0.0000
vt 9.0300 0.0000
vt 9.0300 1.6000
vt 10.5700 1.6000
vt 17.4300 9.0300
vt 17.4300 10.5700
vt 18.9700 10.5700
vt 18.9700 9.0300
vt 17.4300 9.0300
vt 18.9700 9.0300
vt 18.9700 10.5700
vt 17.4300 10.5700
vt 17.4300 0.0000
vt 18.9700 0.0000
vt 18.9700 1.6000
vt 17.4300 1.6000
vt 18.9700 0.0000
vt 17.4300 0.0000
vt 17.4300 1.6000
vt 18.9700 1.6000
vt 9.0300 0.0000
vt 10.5700 0.0000
vt 10.5700 1.6000
vt 9.0300 1.6000
vt 10.5700 0.0000
vt 9.0300 0.0000
vt 9.0300 1.6000
vt 10.5700 1.6000
vt 20.2300 9.0300
vt 20.2300 10.5700
vt 21.7700 10.5700
vt 21.7700 9.0300
vt 20.2300 9.0300
vt 21.7700 9.0300
vt 21.7700 10.5700
vt 20.2300 10.5700
vt 20.2300 0.0000
vt 21.7700 0.0000
vt 21.7700 1.6000
vt 20.2300 1.6000
vt 21.7700 0.0000
vt 20.2300 0.0000
vt 20.2300 1.6000
vt 21.7700 1.6000
vt 9.0300 0.0000
vt 10.5700 0.0000
vt 10.5700 1.6000
vt 9.0300 1.6000
vt 10.5700 0.0000
vt 9.0300 0.0000
vt 9.0300 1.6000
vt 10.5700 1.6000
vt 20.2300 10.4300
vt 20.2300 11.9700
vt 21.7700 11.9700
vt 21.7700 10.4300
vt 20.2300 10.4300
vt 21.7700 10.4300
vt 21.7700 11.9700
vt 20.2300 11.9700
vt 20.2300 0.0000
vt 21.7700 0.0000
vt 21.7700 1.6000
vt 20.2300 1.6000
vt 21.7700 0.0000
vt 20.2300 0.0000
vt 20.2300 1.6000
vt 21.7700 1.6000
vt 10.4300 0.0000
vt 11.9700 0.0000
vt 11.9700 1.6000
vt 10.4300 1.6000
vt 11.9700 0.0000
vt 10.4300 0.0000
vt 10.4300 1.6000
vt 11.9700 1.6000
vt 9.0300 11.8300
vt 9.0300 13.3700
vt 10.5700 13.3700
vt 10.5700 11.8300
vt 9.0300 11.8300
vt 10.5700 11.8300
vt 10.5700 13.3700
vt 9.0300 13.3700
vt 9.0300 0.0000
vt 10.5700 0.0000
vt 10.5700 1.6000
vt 9.0300 1.6000
vt 10.5700 0.0000
vt 9.0300 0.0000
vt 9.0300 1.6000
vt 10.5700 1.6000
vt 11.8300 0.0000
vt 13.3700 0.0000
vt 13.3700 1.6000
vt 11.8300 1.6000
vt 13.3700 0.0000
vt 11.8300 0.0000
vt 11.8300 1.6000
vt 13.3700 1.6000
vt 11.8300 11.8300
vt 11.8300 13.3700
vt 13.3700 13.3700
vt 13.3700 11.8300
vt 11.8300 11.8300
vt 13.3700 11.8300
vt 13.3700 13.3700
vt 11.8300 13.3700
vt 11.8300 0.0000
vt 13.3700 0.0000
vt 13.3700 1.6000
vt 11.8300 1.6000
vt 13.3700 0.0000
vt 11.8300 0.0000
vt 11.8300 1.6000
vt 13.3700 1.6000
vt 11.8300 0.0000
vt 13.3700 0.0000
vt 13.3700 1.6000
vt 11.8300 1.6000
vt 13.3700 0.0000
vt 11.8300 0.0000
vt 11.8300 1.6000
vt 13.3700 1.6000
vt 14.6300 11.8300
vt 14.6300 13.3700
vt 16.1700 13.3700
vt 16.1700 11.8300
vt 14.6300 11.8300
vt 16.1700 11.8300
vt 16.1700 13.3700
vt 14.6300 13.3700
vt 14.6300 0.0000
vt 16.1700 0.0000
vt 16.1700 1.6000
vt 14.6300 1.6000
vt 16.1700 0.0000
vt 14.6300 0.0000
vt 14.6300 1.6000
vt 16.1700 1.6000
vt 11.8300 0.0000
vt 13.3700 0.0000
vt 13.3700 1.6000
vt 11.8300 1.6000
vt 13.3700 0.0000
vt 11.8300 0.0000
vt 11.8300 1.6000
vt 13.3700 1.6000
vt 17.4300 11.8300
vt 17.4300 13.3700
vt 18.9700 13.3700
vt 18.9700 11.8300
vt 17.4300 11.8300
vt 18.9700 11.8300
vt 18.9700 13.3700
vt 17.4300 13.3700
vt 17.4300 0.0000
vt 18.9700 0.0000
vt 18.9700 1.6000
vt 17.4300 1.6000
vt 18.9700 0.0000
vt 17.4300 0.0000
vt 17.4300 1.6000
vt 18.9700 1.6000
vt 11.8300 0.0000
vt 13.3700 0.0000
vt 13.3700 1.6000
vt 11.8300 1.6000
vt 13.3700 0.0000
vt 11.8300 0.0000
vt 11.8300 1.6000
vt 13.3700 1.6000
vt 20.2300 11.8300
vt 20.2300 13.3700
vt 21.7700 13.3700
vt 21.7700 11.8300
vt 20.2300 11.8300
vt 21.7700 11.8300
vt 21.7700 13.3700
vt 20.2300 13.3700
vt 20.2300 0.0000
vt 21.7700 0.0000
vt 21.7700 1.6000
vt 20.2300 1.6000
vt 21.7700 0.0000
vt 20.2300 0.0000
vt 20.2300 1.6000
vt 21.7700 1.6000
vt 11.8300 0.0000
vt 13.3700 0.0000
vt 13.3700 1.6000
vt 11.8300 1.6000
vt 13.3700 0.0000
vt 11.8300 0.0000
vt 11.8300 1.6000
vt 13.3700 1.6000
vt 17.4300 13.2300
vt 17.4300 14.7700
vt 18.9700 14.7700
vt 18.9700 13.2300
vt 17.4300 13.2300
vt 18.9700 13.2300
vt 18.9700 14.7700
vt 17.4300 14.7700
vt 17.4300 0.0000
vt 18.9700 0.0000
vt 18.9700 1.6000
vt 17.4300 1.6000
vt 18.9700 0.0000
vt 17.4300 0.0000
vt 17.4300 1.6000
vt 18.9700 1.6000
vt 13.2300 0.0000
vt 14.7700 0.0000
vt 14.7700 1.6000
vt 13.2300 1.6000
vt 14.7700 0.0000
vt 13.2300 0.0000
vt 13.2300 1.6000
vt 14.7700 1.6000
vt 9.0300 14.6300
vt 9.0300 16.1700
vt 10.5700 16.1700
vt 10.5700 14.6300
vt 9.0300 14.6300
vt 10.5700 14.6300
vt 10.5700 16.1700
vt 9.0300 16.1700
vt 9.0300 0.0000
vt 10.5700 0.0000
vt 10.5700 1.6000
vt 9.0300 1.6000
vt 10.5700 0.0000
vt 9.0300 0.0000
vt 9.0300 1.6000
vt 10.5700 1.6000
vt 14.6300 0.0000
vt 16.1700 0.0000
vt 16.1700 1.6000
vt 14.6300 1.6000
vt 16.1700 0.0000
vt 14.6300 0.0000
vt 14.6300 1.6000
vt 16.1700 1.6000
vt 11.8300 14.6300
vt 11.8300 16.1700
vt 13.3700 16.1700
vt 13.3700 14.6300
vt 11.8300 14.6300
vt 13.3700 14.6300
vt 13.3700 16.1700
vt 11.8300 16.1700
vt 11.8300 0.0000
vt 13.3700 0.0000
vt 13.3700 1.6000
vt 11.8300 1.6000
vt 13.3700 0.0000
vt 11.8300 0.0000
vt 11.8300 1.6000
vt 13.3700 1.6000
vt 14.6300 0.0000
vt 16.1700 0.0000
vt 16.1700 1.6000
vt 14.6300 1.6000
vt 16.1700 0.0000
vt 14.6300 0.0000
vt 14.6300 1.6000
vt 16.1700 1.6000
vt 14.6300 14.6300
vt 14.6300 16.1700
vt 16.1700 16.1700
vt 16.1700 14.6300
vt 14.6300 14.6300
vt 16.1700 14.6300
vt 16.1700 16.1700
vt 14.6300 16.1700
vt 14.6300 0.0000
vt 16.1700 0.0000
vt 16.1700 1.6000
vt 14.6300 1.6000
vt 16.1700 0.0000
vt 14.6300 0.0000
vt 14.6300 1.6000
vt 16.1700 1.6000
vt 14.6300 0.0000
vt 16.1700 0.0000
vt 16.1700 1.6000
vt 14.6300 1.6000
vt 16.1700 0.0000
vt 14.6300 0.0000
vt 14.6300 1.6000
vt 16.1700 1.6000
vt 17.4300 14.6300
vt 17.4300 16.1700
vt 18.9700 16.1700
vt 18.9700 14.6300
vt 17.4300 14.6300
vt 18.9700 14.6300
vt 18.9700 16.1700
vt 17.4300 16.1700
vt 17.4300 0.0000
vt 18.9700 0.0000
vt 18.9700 1.6000
vt 17.4300 1.6000
vt 18.9700 0.0000
vt 17.4300 0.0000
vt 17.4300 1.6000
vt 18.9700 1.6000
vt 14.6300 0.0000
vt 16.1700 0.0000
vt 16.1700 1.6000
vt 14.6300 1.6000
vt 16.1700 0.0000
vt 14.6300 0.0000
vt 14.6300 1.6000
vt 16.1700 1.6000
vt 20.2300 14.6300
vt 20.2300 16.1700
vt 21.7700 16.1700
vt 21.7700 14.6300
vt 20.2300 14.6300
vt 21.7700 14.6300
vt 21.7700 16.1700
vt 20.2300 16.1700
vt 20.2300 0.0000
vt 21.7700 0.0000
vt 21.7700 1.6000
vt 20.2300 1.6000
vt 21.7700 0.0000
vt 20.2300 0.0000
vt 20.2300 1.6000
vt 21.7700 1.6000
vt 14.6300 0.0000
vt 16.1700 0.0000
vt 16.1700 1.6000
vt 14.6300 1.6000
vt 16.1700 0.0000
vt 14.6300 0.0000
vt 14.6300 1.6000
vt 16.1700 1.6000
vt 11.8300 16.0300
vt 11.8300 17.5700
vt 13.3700 17.5700
vt 13.3700 16.0300
vt 11.8300 16.0300
vt 13.3700 16.0300
vt 13.3700 17.5700
vt 11.8300 17.5700
vt 11.8300 0.0000
vt 13.3700 0.0000
vt 13.3700 1.6000
vt 11.8300 1.6000
vt 13.3700 0.0000
vt 11.8300 0.0000
vt 11.8300 1.6000
vt 13.3700 1.6000
vt 16.0300 0.0000
vt 17.5700 0.0000
vt 17.5700 1.6000
vt 16.0300 1.6000
vt 17.5700 0.0000
vt 16.0300 0.0000
vt 16.0300 1.6000
vt 17.5700 1.6000
vt 9.0300 17.4300
vt 9.0300 18.9700
vt 10.5700 18.9700
vt 10.5700 17.4300
vt 9.0300 17.4300
vt 10.5700 17.4300
vt 10.5700 18.9700
vt 9.0300 18.9700
vt 9.0300 0.0000
vt 10.5700 0.0000
vt 10.5700 1.6000
vt 9.0300 1.6000
vt 10.5700 0.0000
vt 9.0300 0.0000
vt 9.0300 1.6000
vt 10.5700 1.6000
vt 17.4300 0.0000
vt 18.9700 0.0000
vt 18.9700 1.6000
vt 17.4300 1.6000
vt 18.9700 0.0000
vt 17.4300 0.0000
vt 17.4300 1.6000
vt 18.9700 1.6000
vt 11.8300 17.4300
vt 11.8300 18.9700
vt 13.3700 18.9700
vt 13.3700 17.4300
vt 11.8300 17.4300
vt 13.3700 17.4300
vt 13.3700 18.9700
vt 11.8300 18.9700
vt 11.8300 0.0000
vt 13.3700 0.0000
vt 13.3700 1.6000
vt 11.8300 1.6000
vt 13.3700 0.0000
vt 11.8300 0.0000
vt 11.8300 1.6000
vt 13.3700 1.6000
vt 17.4300 0.0000
vt 18.9700 0.0000
vt 18.9700 1.6000
vt 17.4300 1.6000
vt 18.9700 0.0000
vt 17.4300 0.0000
vt 17.4300 1.6000
vt 18.9700 1.6000
vt 14.6300 17.4300
vt 14.6300 18.9700
vt 16.1700 18.9700
vt 16.1700 17.4300
vt 14.6300 17.4300
vt 16.1700 17.4300
vt 16.1700 18.9700
vt 14.6300 18.9700
vt 14.6300 0.0000
vt 16.1700 0.0000
vt 16.1700 1.6000
vt 14.6300 1.6000
vt 16.1700 0.0000
vt 14.6300 0.0000
vt 14.6300 1.6000
vt 16.1700 1.6000
vt 17.4300 0.0000
vt 18.9700 0.0000
vt 18.9700 1.6000
vt 17.4300 1.6000
vt 18.9700 0.0000
vt 17.4300 0.0000
vt 17.4300 1.6000
vt 18.9700 1.6000
vt 17.4300 17.4300
vt 17.4300 18.9700
vt 18.9700 18.9700
vt 18.9700 17.4300
vt 17.4300 17.4300
vt 18.9700 17.4300
vt 18.9700 18.9700
vt 17.4300 18.9700
vt 17.4300 0.0000
vt 18.9700 0.0000
vt 18.9700 1.6000
vt 17.4300 1.6000
vt 18.9700 0.0000
vt 17.4300 0.0000
vt 17.4300 1.6000
vt 18.9700 1.6000
vt 17.4300 0.0000
vt 18.9700 0.0000
vt 18.9700 1.6000
vt 17.4300 1.6000
vt 18.9700 0.0000
vt 17.4300 0.0000
vt 17.4300 1.6000
vt 18.9700 1.6000
vt 20.2300 17.4300
vt 20.2300 18.9700
vt 21.7700 18.9700
vt 21.7700 17.4300
vt 20.2300 17.4300
vt 21.7700 17.4300
vt 21.7700 18.9700
vt 20.2300 18.9700
vt 20.2300 0.0000
vt 21.7700 0.0000
vt 21.7700 1.6000
vt 20.2300 1.6000
vt 21.7700 0.0000
vt 20.2300 0.0000
vt 20.2300 1.6000
vt 21.7700 1.6000
vt 17.4300 0.0000
vt 18.9700 0.0000
vt 18.9700 1.6000
vt 17.4300 1.6000
vt 18.9700 0.0000
vt 17.4300 0.0000
vt 17.4300 1.6000
vt 18.9700 1.6000
vt 21.6300 17.4300
vt 21.6300 18.9700
vt 23.1700 18.9700
vt 23.1700 17.4300
vt 21.6300 17.4300
vt 23.1700 17.4300
vt 23.1700 18.9700
vt 21.6300 18.9700
vt 21.6300 0.0000
vt 23.1700 0.0000
vt 23.1700 1.6000
vt 21.6300 1.6000
vt 23.1700 0.0000
vt 21.6300 0.0000
vt 21.6300 1.6000
vt 23.1700 1.6000
vt 17.4300 0.0000
vt 18.9700 0.0000
vt 18.9700 1.6000
vt 17.4300 1.6000
vt 18.9700 0.0000
vt 17.4300 0.0000
vt 17.4300 1.6000
vt 18.9700 1.6000
vt 11.8300 18.8300
vt 11.8300 20.3700
vt 13.3700 20.3700
vt 13.3700 18.8300
vt 11.8300 18.8300
vt 13.3700 18.8300
vt 13.3700 20.3700
vt 11.8300 20.3700
vt 11.8300 0.0000
vt 13.3700 0.0000
vt 13.3700 1.6000
vt 11.8300 1.6000
vt 13.3700 0.0000
vt 11.8300 0.0000
vt 11.8300 1.6000
vt 13.3700 1.6000
vt 18.8300 0.0000
vt 20.3700 0.0000
vt 20.3700 1.6000
vt 18.8300 1.6000
vt 20.3700 0.0000
vt 18.8300 0.0000
vt 18.8300 1.6000
vt 20.3700 1.6000
vt 9.0300 20.2300
vt 9.0300 21.7700
vt 10.5700 21.7700
vt 10.5700 20.2300
vt 9.0300 20.2300
vt 10.5700 20.2300
vt 10.5700 21.7700
vt 9.0300 21.7700
vt 9.0300 0.0000
vt 10.5700 0.0000
vt 10.5700 1.6000
vt 9.0300 1.6000
vt 10.5700 0.0000
vt 9.0300 0.0000
vt 9.0300 1.6000
vt 10.5700 1.6000
vt 20.2300 0.0000
vt 21.7700 0.0000
vt 21.7700 1.6000
vt 20.2300 1.6000
vt 21.7700 0.0000
vt 20.2300 0.0000
vt 20.2300 1.6000
vt 21.7700 1.6000
vt 11.8300 20.2300
vt 11.8300 21.7700
vt 13.3700 21.7700
vt 13.3700 20.2300
vt 11.8300 20.2300
vt 13.3700 20.2300
vt 13.3700 21.7700
vt 11.8300 21.7700
vt 11.8300 0.0000
vt 13.3700 0.0000
vt 13.3700 1.6000
vt 11.8300 1.6000
vt 13.3700 0.0000
vt 11.8300 0.0000
vt 11.8300 1.6000
vt 13.3700 1.6000
vt 20.2300 0.0000
vt 21.7700 0.0000
vt 21.7700 1.6000
vt 20.2300 1.6000
vt 21.7700 0.0000
vt 20.2300 0.0000
vt 20.2300 1.6000
vt 21.7700 1.6000
vt 14.6300 20.2300
vt 14.6300 21.7700
vt 16.1700 21.7700
vt 16.1700 20.2300
vt 14.6300 20.2300
vt 16.1700 20.2300
vt 16.1700 21.7700
vt 14.6300 21.7700
vt 14.6300 0.0000
vt 16.1700 0.0000
vt 16.1700 1.6000
vt 14.6300 1.6000
vt 16.1700 0.0000
vt 14.6300 0.0000
vt 14.6300 1.6000
vt 16.1700 1.6000
vt 20.2300 0.0000
vt 21.7700 0.0000
vt 21.7700 1.6000
vt 20.2300 1.6000
vt 21.7700 0.0000
vt 20.2300 0.0000
vt 20.2300 1.6000
vt 21.7700 1.6000
vt 17.4300 20.2300
vt 17.4300 21.7700
vt 18.9700 21.7700
vt 18.9700 20.2300
vt 17.4300 20.2300
vt 18.9700 20.2300
vt 18.9700 21.7700
vt 17.4300 21.7700
vt 17.4300 0.0000
vt 18.9700 0.0000
vt 18.9700 1.6000
vt 17.4300 1.6000
vt 18.9700 0.0000
vt 17.4300 0.0000
vt 17.4300 1.6000
vt 18.9700 1.6000
vt 20.2300 0.0000
vt 21.7700 0.0000
vt 21.7700 1.6000
vt 20.2300 1.6000
vt 21.7700 0.0000
vt 20.2300 0.0000
vt 20.2300 1.6000
vt 21.7700 1.6000
vt 20.2300 20.2300
vt 20.2300 21.7700
vt 21.7700 21.7700
vt 21.7700 20.2300
vt 20.2300 20.2300
vt 21.7700 20.2300
vt 21.7700 21.7700
vt 20.2300 21.7700
vt 20.2300 0.0000
vt 21.7700 0.0000
vt 21.7700 1.6000
vt 20.2300 1.6000
vt 21.7700 0.0000
vt 20.2300 0.0000
vt 20.2300 1.6000
vt 21.7700 1.6000
vt 20.2300 0.0000
vt 21.7700 0.0000
vt 21.7700 1.6000
vt 20.2300 1.6000
vt 21.7700 0.0000
vt 20.2300 0.0000
vt 20.2300 1.6000
vt 21.7700 1.6000
vt 10.8200 13.8800
vt 10.8200 14.1200
vt 11.5800 14.1200
vt 11.5800 13.8800
vt 10.8200 13.8800
vt 11.5800 13.8800
vt 11.5800 14.1200
vt 10.8200 14.1200
vt 10.8200 1.5640
vt 11.5800 1.5640
vt 11.5800 1.5960
vt 10.8200 1.5960
vt 11.5800 1.5640
vt 10.8200 1.5640
vt 10.8200 1.5960
vt 11.5800 1.5960
vt 13.8800 1.5640
vt 14.1200 1.5640
vt 14.1200 1.5960
vt 13.8800 1.5960
vt 14.1200 1.5640
vt 13.8800 1.5640
vt 13.8800 1.5960
vt 14.1200 1.5960
vt 13.6200 13.8800
vt 13.6200 14.1200
vt 14.3800 14.1200
vt 14.3800 13.8800
vt 13.6200 13.8800
vt 14.3800 13.8800
vt 14.3800 14.1200
vt 13.6200 14.1200
vt 13.6200 1.5640
vt 14.3800 1.5640
vt 14.3800 1.5960
vt 13.6200 1.5960
vt 14.3800 1.5640
vt 13.6200 1.5640
vt 13.6200 1.5960
vt 14.3800 1.5960
vt 13.8800 1.5640
vt 14.1200 1.5640
vt 14.1200 1.5960
vt 13.8800 1.5960
vt 14.1200 1.5640
vt 13.8800 1.5640
vt 13.8800 1.5960
vt 14.1200 1.5960
vt 13.6200 16.6800
vt 13.6200 16.9200
vt 14.3800 16.9200
vt 14.3800 16.6800
vt 13.6200 16.6800
vt 14.3800 16.6800
vt 14.3800 16.9200
vt 13.6200 16.9200
vt 13.6200 1.5640
vt 14.3800 1.5640
vt 14.3800 1.5960
vt 13.6200 1.5960
vt 14.3800 1.5640
vt 13.6200 1.5640
vt 13.6200 1.5960
vt 14.3800 1.5960
vt 16.6800 1.5640
vt 16.9200 1.5640
vt 16.9200 1.5960
vt 16.6800 1.5960
vt 16.9200 1.5640
vt 16.6800 1.5640
vt 16.6800 1.5960
vt 16.9200 1.5960
vt 13.6200 19.4800
vt 13.6200 19.7200
vt 14.3800 19.7200
vt 14.3800 19.4800
vt 13.6200 19.4800
vt 14.3800 19.4800
vt 14.3800 19.7200
vt 13.6200 19.7200
vt 13.6200 1.5640
vt 14.3800 1.5640
vt 14.3800 1.5960
vt 13.6200 1.5960
vt 14.3800 1.5640
vt 13.6200 1.5640
vt 13.6200 1.5960
vt 14.3800 1.5960
vt 19.4800 1.5640
vt 19.7200 1.5640
vt 19.7200 1.5960
vt 19.4800 1.5960
vt 19.7200 1.5640
vt 19.4800 1.5640
vt 19.4800 1.5960
vt 19.7200 1.5960
vt 16.4200 19.4800
vt 16.4200 19.7200
vt 17.1800 19.7200
vt 17.1800 19.4800
vt 16.4200 19.4800
vt 17.1800 19.4800
vt 17.1800 19.7200
vt 16.4200 19.7200
vt 16.4200 1.5640
vt 17.1800 1.5640
vt 17.1800 1.5960
vt 16.4200 1.5960
vt 17.1800 1.5640
vt 16.4200 1.5640
vt 16.4200 1.5960
vt 17.1800 1.5960
vt 19.4800 1.5640
vt 19.7200 1.5640
vt 19.7200 1.5960
vt 19.4800 1.5960
vt 19.7200 1.5640
vt 19.4800 1.5640
vt 19.4800 1.5960
vt 19.7200 1.5960
vt 19.2200 19.4800
vt 19.2200 19.7200
vt 19.9800 19.7200
vt 19.9800 19.4800
vt 19.2200 19.4800
vt 19.9800 19.4800
vt 19.9800 19.7200
vt 19.2200 19.7200
vt 19.2200 1.5640
vt 19.9800 1.5640
vt 19.9800 1.5960
vt 19.2200 1.5960
vt 19.9800 1.5640
vt 19.2200 1.5640
vt 19.2200 1.5960
vt 19.9800 1.5960
vt 19.4800 1.5640
vt 19.7200 1.5640
vt 19.7200 1.5960
vt 19.4800 1.5960
vt 19.7200 1.5640
vt 19.4800 1.5640
vt 19.4800 1.5960
vt 19.7200 1.5960
vt 22.0200 19.4800
vt 22.0200 19.7200
vt 22.7800 19.7200
vt 22.7800 19.4800
vt 22.0200 19.4800
vt 22.7800 19.4800
vt 22.7800 19.7200
vt 22.0200 19.7200
vt 22.0200 1.5640
vt 22.7800 1.5640
vt 22.7800 1.5960
vt 22.0200 1.5960
vt 22.7800 1.5640
vt 22.0200 1.5640
vt 22.0200 1.5960
vt 22.7800 1.5960
vt 19.4800 1.5640
vt 19.7200 1.5640
vt 19.7200 1.5960
vt 19.4800 1.5960
vt 19.7200 1.5640
vt 19.4800 1.5640
vt 19.4800 1.5960
vt 19.7200 1.5960
vt 19.2200 22.2800
vt 19.2200 22.5200
vt 19.9800 22.5200
vt 19.9800 22.2800
vt 19.2200 22.2800
vt 19.9800 22.2800
vt 19.9800 22.5200
vt 19.2200 22.5200
vt 19.2200 1.5640
vt 19.9800 1.5640
vt 19.9800 1.5960
vt 19.2200 1.5960
vt 19.9800 1.5640
vt 19.2200 1.5640
vt 19.2200 1.5960
vt 19.9800 1.5960
vt 22.2800 1.5640
vt 22.5200 1.5640
vt 22.5200 1.5960
vt 22.2800 1.5960
vt 22.5200 1.5640
vt 22.2800 1.5640
vt 22.2800 1.5960
vt 22.5200 1.5960
usemtl lamp_cold
f 721 724 723 722
f 725 726 727 728
f 721 722 726 725
f 723 724 728 727
f 722 723 727 726
f 724 721 725 728
f 753 756 755 754
f 757 758 759 760
f 753 754 758 757
f 755 756 760 759
f 754 755 759 758
f 756 753 757 760
f 785 788 787 786
f 789 790 791 792
f 785 786 790 789
f 787 788 792 791
f 786 787 791 790
f 788 785 789 792
f 817 820 819 818
f 821 822 823 824
f 817 818 822 821
f 819 820 824 823
f 818 819 823 822
f 820 817 821 824
f 849 852 851 850
f 853 854 855 856
f 849 850 854 853
f 851 852 856 855
f 850 851 855 854
f 852 849 853 856
f 881 884 883 882
f 885 886 887 888
f 881 882 886 885
f 883 884 888 887
f 882 883 887 886
f 884 881 885 888
f 913 916 915 914
f 917 918 919 920
f 913 914 918 917
f 915 916 920 919
f 914 915 919 918
f 916 913 917 920
f 945 948 947 946
f 949 950 951 952
f 945 946 950 949
f 947 948 952 951
f 946 947 951 950
f 948 945 949 952
usemtl concrete
f 1/1 2/2 3/3 4/4
f 5/5 6/6 7/7 8/8
f 9/9 10/10 11/11 12/12
f 13/13 14/14 15/15 16/16
f 17/17 18/18 19/19 20/20
f 21/21 22/22 23/23 24/24
usemtl concrete_dark
f 25/25 26/26 27/27 28/28
f 29/29 30/30 31/31 32/32
f 33/33 34/34 35/35 36/36
f 37/37 38/38 39/39 40/40
f 41/41 42/42 43/43 44/44
f 45/45 46/46 47/47 48/48
usemtl concrete
f 49/49 50/50 51/51 52/52
f 53/53 54/54 55/55 56/56
f 57/57 58/58 59/59 60/60
f 61/61 62/62 63/63 64/64
f 65/65 66/66 67/67 68/68
f 69/69 70/70 71/71 72/72
usemtl concrete_dark
f 73/73 74/74 75/75 76/76
f 77/77 78/78 79/79 80/80
f 81/81 82/82 83/83 84/84
f 85/85 86/86 87/87 88/88
f 89/89 90/90 91/91 92/92
f 93/93 94/94 95/95 96/96
usemtl concrete
f 97/97 98/98 99/99 100/100
f 101/101 102/102 103/103 104/104
f 105/105 106/106 107/107 108/108
f 109/109 110/110 111/111 112/112
f 113/113 114/114 115/115 116/116
f 117/117 118/118 119/119 120/120
f 121/121 122/122 123/123 124/124
f 125/125 126/126 127/127 128/128
f 129/129 130/130 131/131 132/132
f 133/133 134/134 135/135 136/136
f 137/137 138/138 139/139 140/140
f 141/141 142/142 143/143 144/144
f 145/145 146/146 147/147 148/148
f 149/149 150/150 151/151 152/152
f 153/153 154/154 155/155 156/156
f 157/157 158/158 159/159 160/160
f 161/161 162/162 163/163 164/164
f 165/165 166/166 167/167 168/168
f 169/169 170/170 171/171 172/172
f 173/173 174/174 175/175 176/176
f 177/177 178/178 179/179 180/180
f 181/181 182/182 183/183 184/184
f 185/185 186/186 187/187 188/188
f 189/189 190/190 191/191 192/192
usemtl concrete_dark
f 193/193 194/194 195/195 196/196
f 197/197 198/198 199/199 200/200
f 201/201 202/202 203/203 204/204
f 205/205 206/206 207/207 208/208
f 209/209 210/210 211/211 212/212
f 213/213 214/214 215/215 216/216
f 217/217 218/218 219/219 220/220
f 221/221 222/222 223/223 224/224
f 225/225 226/226 227/227 228/228
f 229/229 230/230 231/231 232/232
f 233/233 234/234 235/235 236/236
f 237/237 238/238 239/239 240/240
usemtl concrete
f 241/241 242/242 243/243 244/244
f 245/245 246/246 247/247 248/248
f 249/249 250/250 251/251 252/252
f 253/253 254/254 255/255 256/256
f 257/257 258/258 259/259 260/260
f 261/261 262/262 263/263 264/264
f 265/265 266/266 267/267 268/268
f 269/269 270/270 271/271 272/272
f 273/273 274/274 275/275 276/276
f 277/277 278/278 279/279 280/280
f 281/281 282/282 283/283 284/284
f 285/285 286/286 287/287 288/288
f 289/289 290/290 291/291 292/292
f 293/293 294/294 295/295 296/296
f 297/297 298/298 299/299 300/300
f 301/301 302/302 303/303 304/304
f 305/305 306/306 307/307 308/308
f 309/309 310/310 311/311 312/312
f 313/313 314/314 315/315 316/316
f 317/317 318/318 319/319 320/320
f 321/321 322/322 323/323 324/324
f 325/325 326/326 327/327 328/328
f 329/329 330/330 331/331 332/332
f 333/333 334/334 335/335 336/336
f 337/337 338/338 339/339 340/340
f 341/341 342/342 343/343 344/344
f 345/345 346/346 347/347 348/348
f 349/349 350/350 351/351 352/352
f 353/353 354/354 355/355 356/356
f 357/357 358/358 359/359 360/360
f 361/361 362/362 363/363 364/364
f 365/365 366/366 367/367 368/368
f 369/369 370/370 371/371 372/372
f 373/373 374/374 375/375 376/376
f 377/377 378/378 379/379 380/380
f 381/381 382/382 383/383 384/384
f 385/385 386/386 387/387 388/388
f 389/389 390/390 391/391 392/392
f 393/393 394/394 395/395 396/396
f 397/397 398/398 399/399 400/400
f 401/401 402/402 403/403 404/404
f 405/405 406/406 407/407 408/408
f 409/409 410/410 411/411 412/412
f 413/413 414/414 415/415 416/416
f 417/417 418/418 419/419 420/420
f 421/421 422/422 423/423 424/424
f 425/425 426/426 427/427 428/428
f 429/429 430/430 431/431 432/432
f 433/433 434/434 435/435 436/436
f 437/437 438/438 439/439 440/440
f 441/441 442/442 443/443 444/444
f 445/445 446/446 447/447 448/448
f 449/449 450/450 451/451 452/452
f 453/453 454/454 455/455 456/456
f 457/457 458/458 459/459 460/460
f 461/461 462/462 463/463 464/464
f 465/465 466/466 467/467 468/468
f 469/469 470/470 471/471 472/472
f 473/473 474/474 475/475 476/476
f 477/477 478/478 479/479 480/480
f 481/481 482/482 483/483 484/484
f 485/485 486/486 487/487 488/488
f 489/489 490/490 491/491 492/492
f 493/493 494/494 495/495 496/496
f 497/497 498/498 499/499 500/500
f 501/501 502/502 503/503 504/504
usemtl concrete_dark
f 505/505 506/506 507/507 508/508
f 509/509 510/510 511/511 512/512
f 513/513 514/514 515/515 516/516
f 517/517 518/518 519/519 520/520
f 521/521 522/522 523/523 524/524
f 525/525 526/526 527/527 528/528
f 529/529 530/530 531/531 532/532
f 533/533 534/534 535/535 536/536
f 537/537 538/538 539/539 540/540
f 541/541 542/542 543/543 544/544
f 545/545 546/546 547/547 548/548
f 549/549 550/550 551/551 552/552
f 553/553 554/554 555/555 556/556
f 557/557 558/558 559/559 560/560
f 561/561 562/562 563/563 564/564
f 565/565 566/566 567/567 568/568
f 569/569 570/570 571/571 572/572
f 573/573 574/574 575/575 576/576
usemtl concrete
f 577/577 578/578 579/579 580/580
f 581/581 582/582 583/583 584/584
f 585/585 586/586 587/587 588/588
f 589/589 590/590 591/591 592/592
f 593/593 594/594 595/595 596/596
f 597/597 598/598 599/599 600/600
usemtl concrete_dark
f 601/601 602/602 603/603 604/604
f 605/605 606/606 607/607 608/608
f 609/609 610/610 611/611 612/612
f 613/613 614/614 615/615 616/616
f 617/617 618/618 619/619 620/620
f 621/621 622/622 623/623 624/624
usemtl concrete
f 625/625 626/626 627/627 628/628
f 629/629 630/630 631/631 632/632
f 633/633 634/634 635/635 636/636
f 637/637 638/638 639/639 640/640
f 641/641 642/642 643/643 644/644
f 645/645 646/646 647/647 648/648
f 649/649 650/650 651/651 652/652
f 653/653 654/654 655/655 656/656
f 657/657 658/658 659/659 660/660
f 661/661 662/662 663/663 664/664
f 665/665 666/666 667/667 668/668
f 669/669 670/670 671/671 672/672
f 673/673 674/674 675/675 676/676
f 677/677 678/678 679/679 680/680
f 681/681 682/682 683/683 684/684
f 685/685 686/686 687/687 688/688
f 689/689 690/690 691/691 692/692
f 693/693 694/694 695/695 696/696
f 697/697 698/698 699/699 700/700
f 701/701 702/702 703/703 704/704
f 705/705 706/706 707/707 708/708
f 709/709 710/710 711/711 712/712
f 713/713 714/714 715/715 716/716
f 717/717 718/718 719/719 720/720
usemtl concrete_dark
f 729/721 730/722 731/723 732/724
f 733/725 734/726 735/727 736/728
f 737/729 738/730 739/731 740/732
f 741/733 742/734 743/735 744/736
f 745/737 746/738 747/739 748/740
f 749/741 750/742 751/743 752/744
f 761/745 762/746 763/747 764/748
f 765/749 766/750 767/751 768/752
f 769/753 770/754 771/755 772/756
f 773/757 774/758 775/759 776/760
f 777/761 778/762 779/763 780/764
f 781/765 782/766 783/767 784/768
f 793/769 794/770 795/771 796/772
f 797/773 798/774 799/775 800/776
f 801/777 802/778 803/779 804/780
f 805/781 806/782 807/783 808/784
f 809/785 810/786 811/787 812/788
f 813/789 814/790 815/791 816/792
f 825/793 826/794 827/795 828/796
f 829/797 830/798 831/799 832/800
f 833/801 834/802 835/803 836/804
f 837/805 838/806 839/807 840/808
f 841/809 842/810 843/811 844/812
f 845/813 846/814 847/815 848/816
f 857/817 858/818 859/819 860/820
f 861/821 862/822 863/823 864/824
f 865/825 866/826 867/827 868/828
f 869/829 870/830 871/831 872/832
f 873/833 874/834 875/835 876/836
f 877/837 878/838 879/839 880/840
f 889/841 890/842 891/843 892/844
f 893/845 894/846 895/847 896/848
f 897/849 898/850 899/851 900/852
f 901/853 902/854 903/855 904/856
f 905/857 906/858 907/859 908/860
f 909/861 910/862 911/863 912/864
f 921/865 922/866 923/867 924/868
f 925/869 926/870 927/871 928/872
f 929/873 930/874 931/875 932/876
f 933/877 934/878 935/879 936/880
f 937/881 938/882 939/883 940/884
f 941/885 942/886 943/887 944/888
f 953/889 954/890 955/891 956/892
f 957/893 958/894 959/895 960/896
f 961/897 962/898 963/899 964/900
f 965/901 966/902 967/903 968/904
f 969/905 970/906 971/907 972/908
f 973/909 974/910 975/911 976/912
