# RoastEngine Backrooms level
mtllib backrooms.mtl
v -404.6750 0.0000 31.3250
v -404.6750 0.0000 34.6750
v -401.3250 0.0000 34.6750
v -401.3250 0.0000 31.3250
v -404.6750 3.2000 31.3250
v -401.3250 3.2000 31.3250
v -401.3250 3.2000 34.6750
v -404.6750 3.2000 34.6750
v -404.6750 0.0000 31.3250
v -401.3250 0.0000 31.3250
v -401.3250 3.2000 31.3250
v -404.6750 3.2000 31.3250
v -401.3250 0.0000 34.6750
v -404.6750 0.0000 34.6750
v -404.6750 3.2000 34.6750
v -401.3250 3.2000 34.6750
v -401.3250 0.0000 31.3250
v -401.3250 0.0000 34.6750
v -401.3250 3.2000 34.6750
v -401.3250 3.2000 31.3250
v -404.6750 0.0000 34.6750
v -404.6750 0.0000 31.3250
v -404.6750 3.2000 31.3250
v -404.6750 3.2000 34.6750
v -398.6750 0.0000 31.3250
v -398.6750 0.0000 34.6750
v -395.3250 0.0000 34.6750
v -395.3250 0.0000 31.3250
v -398.6750 3.2000 31.3250
v -395.3250 3.2000 31.3250
v -395.3250 3.2000 34.6750
v -398.6750 3.2000 34.6750
v -398.6750 0.0000 31.3250
v -395.3250 0.0000 31.3250
v -395.3250 3.2000 31.3250
v -398.6750 3.2000 31.3250
v -395.3250 0.0000 34.6750
v -398.6750 0.0000 34.6750
v -398.6750 3.2000 34.6750
v -395.3250 3.2000 34.6750
v -395.3250 0.0000 31.3250
v -395.3250 0.0000 34.6750
v -395.3250 3.2000 34.6750
v -395.3250 3.2000 31.3250
v -398.6750 0.0000 34.6750
v -398.6750 0.0000 31.3250
v -398.6750 3.2000 31.3250
v -398.6750 3.2000 34.6750
v -392.6750 0.0000 31.3250
v -392.6750 0.0000 34.6750
v -389.3250 0.0000 34.6750
v -389.3250 0.0000 31.3250
v -392.6750 3.2000 31.3250
v -389.3250 3.2000 31.3250
v -389.3250 3.2000 34.6750
v -392.6750 3.2000 34.6750
v -392.6750 0.0000 31.3250
v -389.3250 0.0000 31.3250
v -389.3250 3.2000 31.3250
v -392.6750 3.2000 31.3250
v -389.3250 0.0000 34.6750
v -392.6750 0.0000 34.6750
v -392.6750 3.2000 34.6750
v -389.3250 3.2000 34.6750
v -389.3250 0.0000 31.3250
v -389.3250 0.0000 34.6750
v -389.3250 3.2000 34.6750
v -389.3250 3.2000 31.3250
v -392.6750 0.0000 34.6750
v -392.6750 0.0000 31.3250
v -392.6750 3.2000 31.3250
v -392.6750 3.2000 34.6750
v -380.6750 0.0000 31.3250
v -380.6750 0.0000 34.6750
v -377.3250 0.0000 34.6750
v -377.3250 0.0000 31.3250
v -380.6750 3.2000 31.3250
v -377.3250 3.2000 31.3250
v -377.3250 3.2000 34.6750
v -380.6750 3.2000 34.6750
v -380.6750 0.0000 31.3250
v -377.3250 0.0000 31.3250
v -377.3250 3.2000 31.3250
v -380.6750 3.2000 31.3250
v -377.3250 0.0000 34.6750
v -380.6750 0.0000 34.6750
v -380.6750 3.2000 34.6750
v -377.3250 3.2000 34.6750
v -377.3250 0.0000 31.3250
v -377.3250 0.0000 34.6750
v -377.3250 3.2000 34.6750
v -377.3250 3.2000 31.3250
v -380.6750 0.0000 34.6750
v -380.6750 0.0000 31.3250
v -380.6750 3.2000 31.3250
v -380.6750 3.2000 34.6750
v -374.6750 0.0000 31.3250
v -374.6750 0.0000 34.6750
v -371.3250 0.0000 34.6750
v -371.3250 0.0000 31.3250
v -374.6750 3.2000 31.3250
v -371.3250 3.2000 31.3250
v -371.3250 3.2000 34.6750
v -374.6750 3.2000 34.6750
v -374.6750 0.0000 31.3250
v -371.3250 0.0000 31.3250
v -371.3250 3.2000 31.3250
v -374.6750 3.2000 31.3250
v -371.3250 0.0000 34.6750
v -374.6750 0.0000 34.6750
v -374.6750 3.2000 34.6750
v -371.3250 3.2000 34.6750
v -371.3250 0.0000 31.3250
v -371.3250 0.0000 34.6750
v -371.3250 3.2000 34.6750
v -371.3250 3.2000 31.3250
v -374.6750 0.0000 34.6750
v -374.6750 0.0000 31.3250
v -374.6750 3.2000 31.3250
v -374.6750 3.2000 34.6750
v -371.6750 0.0000 31.3250
v -371.6750 0.0000 34.6750
v -368.3250 0.0000 34.6750
v -368.3250 0.0000 31.3250
v -371.6750 3.2000 31.3250
v -368.3250 3.2000 31.3250
v -368.3250 3.2000 34.6750
v -371.6750 3.2000 34.6750
v -371.6750 0.0000 31.3250
v -368.3250 0.0000 31.3250
v -368.3250 3.2000 31.3250
v -371.6750 3.2000 31.3250
v -368.3250 0.0000 34.6750
v -371.6750 0.0000 34.6750
v -371.6750 3.2000 34.6750
v -368.3250 3.2000 34.6750
v -368.3250 0.0000 31.3250
v -368.3250 0.0000 34.6750
v -368.3250 3.2000 34.6750
v -368.3250 3.2000 31.3250
v -371.6750 0.0000 34.6750
v -371.6750 0.0000 31.3250
v -371.6750 3.2000 31.3250
v -371.6750 3.2000 34.6750
v -404.6750 0.0000 34.3250
v -404.6750 0.0000 37.6750
v -401.3250 0.0000 37.6750
v -401.3250 0.0000 34.3250
v -404.6750 3.2000 34.3250
v -401.3250 3.2000 34.3250
v -401.3250 3.2000 37.6750
v -404.6750 3.2000 37.6750
v -404.6750 0.0000 34.3250
v -401.3250 0.0000 34.3250
v -401.3250 3.2000 34.3250
v -404.6750 3.2000 34.3250
v -401.3250 0.0000 37.6750
v -404.6750 0.0000 37.6750
v -404.6750 3.2000 37.6750
v -401.3250 3.2000 37.6750
v -401.3250 0.0000 34.3250
v -401.3250 0.0000 37.6750
v -401.3250 3.2000 37.6750
v -401.3250 3.2000 34.3250
v -404.6750 0.0000 37.6750
v -404.6750 0.0000 34.3250
v -404.6750 3.2000 34.3250
v -404.6750 3.2000 37.6750
v -382.8000 3.0300 35.8250
v -381.2000 3.0300 35.8250
v -381.2000 3.0300 36.1750
v -382.8000 3.0300 36.1750
v -382.8000 3.1300 35.8250
v -381.2000 3.1300 35.8250
v -381.2000 3.1300 36.1750
v -382.8000 3.1300 36.1750
v -382.9500 3.1100 35.7000
v -382.9500 3.1100 36.3000
v -381.0500 3.1100 36.3000
v -381.0500 3.1100 35.7000
v -382.9500 3.1900 35.7000
v -381.0500 3.1900 35.7000
v -381.0500 3.1900 36.3000
v -382.9500 3.1900 36.3000
v -382.9500 3.1100 35.7000
v -381.0500 3.1100 35.7000
v -381.0500 3.1900 35.7000
v -382.9500 3.1900 35.7000
v -381.0500 3.1100 36.3000
v -382.9500 3.1100 36.3000
v -382.9500 3.1900 36.3000
v -381.0500 3.1900 36.3000
v -381.0500 3.1100 35.7000
v -381.0500 3.1100 36.3000
v -381.0500 3.1900 36.3000
v -381.0500 3.1900 35.7000
v -382.9500 3.1100 36.3000
v -382.9500 3.1100 35.7000
v -382.9500 3.1900 35.7000
v -382.9500 3.1900 36.3000
vt -269.7833 20.8833
vt -269.7833 23.1167
vt -267.5500 23.1167
vt -267.5500 20.8833
vt -269.7833 20.8833
vt -267.5500 20.8833
vt -267.5500 23.1167
vt -269.7833 23.1167
vt -269.7833 0.0000
vt -267.5500 0.0000
vt -267.5500 2.1333
vt -269.7833 2.1333
vt -267.5500 0.0000
vt -269.7833 0.0000
vt -269.7833 2.1333
vt -267.5500 2.1333
vt 20.8833 0.0000
vt 23.1167 0.0000
vt 23.1167 2.1333
vt 20.8833 2.1333
vt 23.1167 0.0000
vt 20.8833 0.0000
vt 20.8833 2.1333
vt 23.1167 2.1333
vt -265.7833 20.8833
vt -265.7833 23.1167
vt -263.5500 23.1167
vt -263.5500 20.8833
vt -265.7833 20.8833
vt -263.5500 20.8833
vt -263.5500 23.1167
vt -265.7833 23.1167
vt -265.7833 0.0000
vt -263.5500 0.0000
vt -263.5500 2.1333
vt -265.7833 2.1333
vt -263.5500 0.0000
vt -265.7833 0.0000
vt -265.7833 2.1333
vt -263.5500 2.1333
vt 20.8833 0.0000
vt 23.1167 0.0000
vt 23.1167 2.1333
vt 20.8833 2.1333
vt 23.1167 0.0000
vt 20.8833 0.0000
vt 20.8833 2.1333
vt 23.1167 2.1333
vt -261.7833 20.8833
vt -261.7833 23.1167
vt -259.5500 23.1167
vt -259.5500 20.8833
vt -261.7833 20.8833
vt -259.5500 20.8833
vt -259.5500 23.1167
vt -261.7833 23.1167
vt -261.7833 0.0000
vt -259.5500 0.0000
vt -259.5500 2.1333
vt -261.7833 2.1333
vt -259.5500 0.0000
vt -261.7833 0.0000
vt -261.7833 2.1333
vt -259.5500 2.1333
vt 20.8833 0.0000
vt 23.1167 0.0000
vt 23.1167 2.1333
vt 20.8833 2.1333
vt 23.1167 0.0000
vt 20.8833 0.0000
vt 20.8833 2.1333
vt 23.1167 2.1333
vt -253.7833 20.8833
vt -253.7833 23.1167
vt -251.5500 23.1167
vt -251.5500 20.8833
vt -253.7833 20.8833
vt -251.5500 20.8833
vt -251.5500 23.1167
vt -253.7833 23.1167
vt -253.7833 0.0000
vt -251.5500 0.0000
vt -251.5500 2.1333
vt -253.7833 2.1333
vt -251.5500 0.0000
vt -253.7833 0.0000
vt -253.7833 2.1333
vt -251.5500 2.1333
vt 20.8833 0.0000
vt 23.1167 0.0000
vt 23.1167 2.1333
vt 20.8833 2.1333
vt 23.1167 0.0000
vt 20.8833 0.0000
vt 20.8833 2.1333
vt 23.1167 2.1333
vt -249.7833 20.8833
vt -249.7833 23.1167
vt -247.5500 23.1167
vt -247.5500 20.8833
vt -249.7833 20.8833
vt -247.5500 20.8833
vt -247.5500 23.1167
vt -249.7833 23.1167
vt -249.7833 0.0000
vt -247.5500 0.0000
vt -247.5500 2.1333
vt -249.7833 2.1333
vt -247.5500 0.0000
vt -249.7833 0.0000
vt -249.7833 2.1333
vt -247.5500 2.1333
vt 20.8833 0.0000
vt 23.1167 0.0000
vt 23.1167 2.1333
vt 20.8833 2.1333
vt 23.1167 0.0000
vt 20.8833 0.0000
vt 20.8833 2.1333
vt 23.1167 2.1333
vt -247.7833 20.8833
vt -247.7833 23.1167
vt -245.5500 23.1167
vt -245.5500 20.8833
vt -247.7833 20.8833
vt -245.5500 20.8833
vt -245.5500 23.1167
vt -247.7833 23.1167
vt -247.7833 0.0000
vt -245.5500 0.0000
vt -245.5500 2.1333
vt -247.7833 2.1333
vt -245.5500 0.0000
vt -247.7833 0.0000
vt -247.7833 2.1333
vt -245.5500 2.1333
vt 20.8833 0.0000
vt 23.1167 0.0000
vt 23.1167 2.1333
vt 20.8833 2.1333
vt 23.1167 0.0000
vt 20.8833 0.0000
vt 20.8833 2.1333
vt 23.1167 2.1333
vt -269.7833 22.8833
vt -269.7833 25.1167
vt -267.5500 25.1167
vt -267.5500 22.8833
vt -269.7833 22.8833
vt -267.5500 22.8833
vt -267.5500 25.1167
vt -269.7833 25.1167
vt -269.7833 0.0000
vt -267.5500 0.0000
vt -267.5500 2.1333
vt -269.7833 2.1333
vt -267.5500 0.0000
vt -269.7833 0.0000
vt -269.7833 2.1333
vt -267.5500 2.1333
vt 22.8833 0.0000
vt 25.1167 0.0000
vt 25.1167 2.1333
vt 22.8833 2.1333
vt 25.1167 0.0000
vt 22.8833 0.0000
vt 22.8833 2.1333
vt 25.1167 2.1333
vt -313.8934 29.2623
vt -313.8934 29.7541
vt -312.3361 29.7541
vt -312.3361 29.2623
vt -313.8934 29.2623
vt -312.3361 29.2623
vt -312.3361 29.7541
vt -313.8934 29.7541
vt -313.8934 2.5492
vt -312.3361 2.5492
vt -312.3361 2.6148
vt -313.8934 2.6148
vt -312.3361 2.5492
vt -313.8934 2.5492
vt -313.8934 2.6148
vt -312.3361 2.6148
vt 29.2623 2.5492
vt 29.7541 2.5492
vt 29.7541 2.6148
vt 29.2623 2.6148
vt 29.7541 2.5492
vt 29.2623 2.5492
vt 29.2623 2.6148
vt 29.7541 2.6148
usemtl fluorescent
f 169 172 171 170
f 173 174 175 176
f 169 170 174 173
f 171 172 176 175
f 170 171 175 174
f 172 169 173 176
usemtl wallpaper
f 1/1 2/2 3/3 4/4
f 5/5 6/6 7/7 8/8
f 9/9 10/10 11/11 12/12
f 13/13 14/14 15/15 16/16
f 17/17 18/18 19/19 20/20
f 21/21 22/22 23/23 24/24
f 25/25 26/26 27/27 28/28
f 29/29 30/30 31/31 32/32
f 33/33 34/34 35/35 36/36
f 37/37 38/38 39/39 40/40
f 41/41 42/42 43/43 44/44
f 45/45 46/46 47/47 48/48
f 49/49 50/50 51/51 52/52
f 53/53 54/54 55/55 56/56
f 57/57 58/58 59/59 60/60
f 61/61 62/62 63/63 64/64
f 65/65 66/66 67/67 68/68
f 69/69 70/70 71/71 72/72
f 73/73 74/74 75/75 76/76
f 77/77 78/78 79/79 80/80
f 81/81 82/82 83/83 84/84
f 85/85 86/86 87/87 88/88
f 89/89 90/90 91/91 92/92
f 93/93 94/94 95/95 96/96
f 97/97 98/98 99/99 100/100
f 101/101 102/102 103/103 104/104
f 105/105 106/106 107/107 108/108
f 109/109 110/110 111/111 112/112
f 113/113 114/114 115/115 116/116
f 117/117 118/118 119/119 120/120
usemtl wallpaper_damp
f 121/121 122/122 123/123 124/124
f 125/125 126/126 127/127 128/128
f 129/129 130/130 131/131 132/132
f 133/133 134/134 135/135 136/136
f 137/137 138/138 139/139 140/140
f 141/141 142/142 143/143 144/144
usemtl wallpaper
f 145/145 146/146 147/147 148/148
f 149/149 150/150 151/151 152/152
f 153/153 154/154 155/155 156/156
f 157/157 158/158 159/159 160/160
f 161/161 162/162 163/163 164/164
f 165/165 166/166 167/167 168/168
usemtl ceiling_tile
f 177/169 178/170 179/171 180/172
f 181/173 182/174 183/175 184/176
f 185/177 186/178 187/179 188/180
f 189/181 190/182 191/183 192/184
f 193/185 194/186 195/187 196/188
f 197/189 198/190 199/191 200/192
