# RoastEngine Backrooms level
mtllib backrooms.mtl
v 436.0750 0.0000 -23.9250
v 436.0750 0.0000 -21.0750
v 438.9250 0.0000 -21.0750
v 438.9250 0.0000 -23.9250
v 436.0750 3.0000 -23.9250
v 438.9250 3.0000 -23.9250
v 438.9250 3.0000 -21.0750
v 436.0750 3.0000 -21.0750
v 436.0750 0.0000 -23.9250
v 438.9250 0.0000 -23.9250
v 438.9250 3.0000 -23.9250
v 436.0750 3.0000 -23.9250
v 438.9250 0.0000 -21.0750
v 436.0750 0.0000 -21.0750
v 436.0750 3.0000 -21.0750
v 438.9250 3.0000 -21.0750
v 438.9250 0.0000 -23.9250
v 438.9250 0.0000 -21.0750
v 438.9250 3.0000 -21.0750
v 438.9250 3.0000 -23.9250
v 436.0750 0.0000 -21.0750
v 436.0750 0.0000 -23.9250
v 436.0750 3.0000 -23.9250
v 436.0750 3.0000 -21.0750
v 441.0750 0.0000 -23.9250
v 441.0750 0.0000 -21.0750
v 443.9250 0.0000 -21.0750
v 443.9250 0.0000 -23.9250
v 441.0750 3.0000 -23.9250
v 443.9250 3.0000 -23.9250
v 443.9250 3.0000 -21.0750
v 441.0750 3.0000 -21.0750
v 441.0750 0.0000 -23.9250
v 443.9250 0.0000 -23.9250
v 443.9250 3.0000 -23.9250
v 441.0750 3.0000 -23.9250
v 443.9250 0.0000 -21.0750
v 441.0750 0.0000 -21.0750
v 441.0750 3.0000 -21.0750
v 443.9250 3.0000 -21.0750
v 443.9250 0.0000 -23.9250
v 443.9250 0.0000 -21.0750
v 443.9250 3.0000 -21.0750
v 443.9250 3.0000 -23.9250
v 441.0750 0.0000 -21.0750
v 441.0750 0.0000 -23.9250
v 441.0750 3.0000 -23.9250
v 441.0750 3.0000 -21.0750
v 443.5750 0.0000 -23.9250
v 443.5750 0.0000 -21.0750
v 446.4250 0.0000 -21.0750
v 446.4250 0.0000 -23.9250
v 443.5750 3.0000 -23.9250
v 446.4250 3.0000 -23.9250
v 446.4250 3.0000 -21.0750
v 443.5750 3.0000 -21.0750
v 443.5750 0.0000 -23.9250
v 446.4250 0.0000 -23.9250
v 446.4250 3.0000 -23.9250
v 443.5750 3.0000 -23.9250
v 446.4250 0.0000 -21.0750
v 443.5750 0.0000 -21.0750
v 443.5750 3.0000 -21.0750
v 446.4250 3.0000 -21.0750
v 446.4250 0.0000 -23.9250
v 446.4250 0.0000 -21.0750
v 446.4250 3.0000 -21.0750
v 446.4250 3.0000 -23.9250
v 443.5750 0.0000 -21.0750
v 443.5750 0.0000 -23.9250
v 443.5750 3.0000 -23.9250
v 443.5750 3.0000 -21.0750
v 446.0750 0.0000 -23.9250
v 446.0750 0.0000 -21.0750
v 448.9250 0.0000 -21.0750
v 448.9250 0.0000 -23.9250
v 446.0750 3.0000 -23.9250
v 448.9250 3.0000 -23.9250
v 448.9250 3.0000 -21.0750
v 446.0750 3.0000 -21.0750
v 446.0750 0.0000 -23.9250
v 448.9250 0.0000 -23.9250
v 448.9250 3.0000 -23.9250
v 446.0750 3.0000 -23.9250
v 448.9250 0.0000 -21.0750
v 446.0750 0.0000 -21.0750
v 446.0750 3.0000 -21.0750
v 448.9250 3.0000 -21.0750
v 448.9250 0.0000 -23.9250
v 448.9250 0.0000 -21.0750
v 448.9250 3.0000 -21.0750
v 448.9250 3.0000 -23.9250
v 446.0750 0.0000 -21.0750
v 446.0750 0.0000 -23.9250
v 446.0750 3.0000 -23.9250
v 446.0750 3.0000 -21.0750
v 448.5750 0.0000 -23.9250
v 448.5750 0.0000 -21.0750
v 451.4250 0.0000 -21.0750
v 451.4250 0.0000 -23.9250
v 448.5750 3.0000 -23.9250
v 451.4250 3.0000 -23.9250
v 451.4250 3.0000 -21.0750
v 448.5750 3.0000 -21.0750
v 448.5750 0.0000 -23.9250
v 451.4250 0.0000 -23.9250
v 451.4250 3.0000 -23.9250
v 448.5750 3.0000 -23.9250
v 451.4250 0.0000 -21.0750
v 448.5750 0.0000 -21.0750
v 448.5750 3.0000 -21.0750
v 451.4250 3.0000 -21.0750
v 451.4250 0.0000 -23.9250
v 451.4250 0.0000 -21.0750
v 451.4250 3.0000 -21.0750
v 451.4250 3.0000 -23.9250
v 448.5750 0.0000 -21.0750
v 448.5750 0.0000 -23.9250
v 448.5750 3.0000 -23.9250
v 448.5750 3.0000 -21.0750
v 436.0750 0.0000 -18.9250
v 436.0750 0.0000 -16.0750
v 438.9250 0.0000 -16.0750
v 438.9250 0.0000 -18.9250
v 436.0750 3.0000 -18.9250
v 438.9250 3.0000 -18.9250
v 438.9250 3.0000 -16.0750
v 436.0750 3.0000 -16.0750
v 436.0750 0.0000 -18.9250
v 438.9250 0.0000 -18.9250
v 438.9250 3.0000 -18.9250
v 436.0750 3.0000 -18.9250
v 438.9250 0.0000 -16.0750
v 436.0750 0.0000 -16.0750
v 436.0750 3.0000 -16.0750
v 438.9250 3.0000 -16.0750
v 438.9250 0.0000 -18.9250
v 438.9250 0.0000 -16.0750
v 438.9250 3.0000 -16.0750
v 438.9250 3.0000 -18.9250
v 436.0750 0.0000 -16.0750
v 436.0750 0.0000 -18.9250
v 436.0750 3.0000 -18.9250
v 436.0750 3.0000 -16.0750
v 438.5750 0.0000 -18.9250
v 438.5750 0.0000 -16.0750
v 441.4250 0.0000 -16.0750
v 441.4250 0.0000 -18.9250
v 438.5750 3.0000 -18.9250
v 441.4250 3.0000 -18.9250
v 441.4250 3.0000 -16.0750
v 438.5750 3.0000 -16.0750
v 438.5750 0.0000 -18.9250
v 441.4250 0.0000 -18.9250
v 441.4250 3.0000 -18.9250
v 438.5750 3.0000 -18.9250
v 441.4250 0.0000 -16.0750
v 438.5750 0.0000 -16.0750
v 438.5750 3.0000 -16.0750
v 441.4250 3.0000 -16.0750
v 441.4250 0.0000 -18.9250
v 441.4250 0.0000 -16.0750
v 441.4250 3.0000 -16.0750
v 441.4250 3.0000 -18.9250
v 438.5750 0.0000 -16.0750
v 438.5750 0.0000 -18.9250
v 438.5750 3.0000 -18.9250
v 438.5750 3.0000 -16.0750
v 441.0750 0.0000 -18.9250
v 441.0750 0.0000 -16.0750
v 443.9250 0.0000 -16.0750
v 443.9250 0.0000 -18.9250
v 441.0750 3.0000 -18.9250
v 443.9250 3.0000 -18.9250
v 443.9250 3.0000 -16.0750
v 441.0750 3.0000 -16.0750
v 441.0750 0.0000 -18.9250
v 443.9250 0.0000 -18.9250
v 443.9250 3.0000 -18.9250
v 441.0750 3.0000 -18.9250
v 443.9250 0.0000 -16.0750
v 441.0750 0.0000 -16.0750
v 441.0750 3.0000 -16.0750
v 443.9250 3.0000 -16.0750
v 443.9250 0.0000 -18.9250
v 443.9250 0.0000 -16.0750
v 443.9250 3.0000 -16.0750
v 443.9250 3.0000 -18.9250
v 441.0750 0.0000 -16.0750
v 441.0750 0.0000 -18.9250
v 441.0750 3.0000 -18.9250
v 441.0750 3.0000 -16.0750
v 443.5750 0.0000 -18.9250
v 443.5750 0.0000 -16.0750
v 446.4250 0.0000 -16.0750
v 446.4250 0.0000 -18.9250
v 443.5750 3.0000 -18.9250
v 446.4250 3.0000 -18.9250
v 446.4250 3.0000 -16.0750
v 443.5750 3.0000 -16.0750
v 443.5750 0.0000 -18.9250
v 446.4250 0.0000 -18.9250
v 446.4250 3.0000 -18.9250
v 443.5750 3.0000 -18.9250
v 446.4250 0.0000 -16.0750
v 443.5750 0.0000 -16.0750
v 443.5750 3.0000 -16.0750
v 446.4250 3.0000 -16.0750
v 446.4250 0.0000 -18.9250
v 446.4250 0.0000 -16.0750
v 446.4250 3.0000 -16.0750
v 446.4250 3.0000 -18.9250
v 443.5750 0.0000 -16.0750
v 443.5750 0.0000 -18.9250
v 443.5750 3.0000 -18.9250
v 443.5750 3.0000 -16.0750
v 446.0750 0.0000 -18.9250
v 448.9250 0.0000 -18.9250
v 448.9250 0.0000 -16.0750
v 446.0750 0.0000 -16.0750
v 446.0750 3.0000 -18.9250
v 448.9250 3.0000 -18.9250
v 448.9250 3.0000 -16.0750
v 446.0750 3.0000 -16.0750
v 436.0750 0.0000 -13.9250
v 436.0750 0.0000 -11.0750
v 438.9250 0.0000 -11.0750
v 438.9250 0.0000 -13.9250
v 436.0750 3.0000 -13.9250
v 438.9250 3.0000 -13.9250
v 438.9250 3.0000 -11.0750
v 436.0750 3.0000 -11.0750
v 436.0750 0.0000 -13.9250
v 438.9250 0.0000 -13.9250
v 438.9250 3.0000 -13.9250
v 436.0750 3.0000 -13.9250
v 438.9250 0.0000 -11.0750
v 436.0750 0.0000 -11.0750
v 436.0750 3.0000 -11.0750
v 438.9250 3.0000 -11.0750
v 438.9250 0.0000 -13.9250
v 438.9250 0.0000 -11.0750
v 438.9250 3.0000 -11.0750
v 438.9250 3.0000 -13.9250
v 436.0750 0.0000 -11.0750
v 436.0750 0.0000 -13.9250
v 436.0750 3.0000 -13.9250
v 436.0750 3.0000 -11.0750
v 441.0750 0.0000 -13.9250
v 443.9250 0.0000 -13.9250
v 443.9250 0.0000 -11.0750
v 441.0750 0.0000 -11.0750
v 441.0750 3.0000 -13.9250
v 443.9250 3.0000 -13.9250
v 443.9250 3.0000 -11.0750
v 441.0750 3.0000 -11.0750
v 443.5750 0.0000 -13.9250
v 443.5750 0.0000 -11.0750
v 446.4250 0.0000 -11.0750
v 446.4250 0.0000 -13.9250
v 443.5750 3.0000 -13.9250
v 446.4250 3.0000 -13.9250
v 446.4250 3.0000 -11.0750
v 443.5750 3.0000 -11.0750
v 443.5750 0.0000 -13.9250
v 446.4250 0.0000 -13.9250
v 446.4250 3.0000 -13.9250
v 443.5750 3.0000 -13.9250
v 446.4250 0.0000 -11.0750
v 443.5750 0.0000 -11.0750
v 443.5750 3.0000 -11.0750
v 446.4250 3.0000 -11.0750
v 446.4250 0.0000 -13.9250
v 446.4250 0.0000 -11.0750
v 446.4250 3.0000 -11.0750
v 446.4250 3.0000 -13.9250
v 443.5750 0.0000 -11.0750
v 443.5750 0.0000 -13.9250
v 443.5750 3.0000 -13.9250
v 443.5750 3.0000 -11.0750
v 446.0750 0.0000 -13.9250
v 446.0750 0.0000 -11.0750
v 448.9250 0.0000 -11.0750
v 448.9250 0.0000 -13.9250
v 446.0750 3.0000 -13.9250
v 448.9250 3.0000 -13.9250
v 448.9250 3.0000 -11.0750
v 446.0750 3.0000 -11.0750
v 446.0750 0.0000 -13.9250
v 448.9250 0.0000 -13.9250
v 448.9250 3.0000 -13.9250
v 446.0750 3.0000 -13.9250
v 448.9250 0.0000 -11.0750
v 446.0750 0.0000 -11.0750
v 446.0750 3.0000 -11.0750
v 448.9250 3.0000 -11.0750
v 448.9250 0.0000 -13.9250
v 448.9250 0.0000 -11.0750
v 448.9250 3.0000 -11.0750
v 448.9250 3.0000 -13.9250
v 446.0750 0.0000 -11.0750
v 446.0750 0.0000 -13.9250
v 446.0750 3.0000 -13.9250
v 446.0750 3.0000 -11.0750
v 448.5750 0.0000 -13.9250
v 448.5750 0.0000 -11.0750
v 451.4250 0.0000 -11.0750
v 451.4250 0.0000 -13.9250
v 448.5750 3.0000 -13.9250
v 451.4250 3.0000 -13.9250
v 451.4250 3.0000 -11.0750
v 448.5750 3.0000 -11.0750
v 448.5750 0.0000 -13.9250
v 451.4250 0.0000 -13.9250
v 451.4250 3.0000 -13.9250
v 448.5750 3.0000 -13.9250
v 451.4250 0.0000 -11.0750
v 448.5750 0.0000 -11.0750
v 448.5750 3.0000 -11.0750
v 451.4250 3.0000 -11.0750
v 451.4250 0.0000 -13.9250
v 451.4250 0.0000 -11.0750
v 451.4250 3.0000 -11.0750
v 451.4250 3.0000 -13.9250
v 448.5750 0.0000 -11.0750
v 448.5750 0.0000 -13.9250
v 448.5750 3.0000 -13.9250
v 448.5750 3.0000 -11.0750
v 436.0750 0.0000 -11.4250
v 436.0750 0.0000 -8.5750
v 438.9250 0.0000 -8.5750
v 438.9250 0.0000 -11.4250
v 436.0750 3.0000 -11.4250
v 438.9250 3.0000 -11.4250
v 438.9250 3.0000 -8.5750
v 436.0750 3.0000 -8.5750
v 436.0750 0.0000 -11.4250
v 438.9250 0.0000 -11.4250
v 438.9250 3.0000 -11.4250
v 436.0750 3.0000 -11.4250
v 438.9250 0.0000 -8.5750
v 436.0750 0.0000 -8.5750
v 436.0750 3.0000 -8.5750
v 438.9250 3.0000 -8.5750
v 438.9250 0.0000 -11.4250
v 438.9250 0.0000 -8.5750
v 438.9250 3.0000 -8.5750
v 438.9250 3.0000 -11.4250
v 436.0750 0.0000 -8.5750
v 436.0750 0.0000 -11.4250
v 436.0750 3.0000 -11.4250
v 436.0750 3.0000 -8.5750
v 436.0750 0.0000 -8.9250
v 436.0750 0.0000 -6.0750
v 438.9250 0.0000 -6.0750
v 438.9250 0.0000 -8.9250
v 436.0750 3.0000 -8.9250
v 438.9250 3.0000 -8.9250
v 438.9250 3.0000 -6.0750
v 436.0750 3.0000 -6.0750
v 436.0750 0.0000 -8.9250
v 438.9250 0.0000 -8.9250
v 438.9250 3.0000 -8.9250
v 436.0750 3.0000 -8.9250
v 438.9250 0.0000 -6.0750
v 436.0750 0.0000 -6.0750
v 436.0750 3.0000 -6.0750
v 438.9250 3.0000 -6.0750
v 438.9250 0.0000 -8.9250
v 438.9250 0.0000 -6.0750
v 438.9250 3.0000 -6.0750
v 438.9250 3.0000 -8.9250
v 436.0750 0.0000 -6.0750
v 436.0750 0.0000 -8.9250
v 436.0750 3.0000 -8.9250
v 436.0750 3.0000 -6.0750
v 446.0750 0.0000 -8.9250
v 446.0750 0.0000 -6.0750
v 448.9250 0.0000 -6.0750
v 448.9250 0.0000 -8.9250
v 446.0750 3.0000 -8.9250
v 448.9250 3.0000 -8.9250
v 448.9250 3.0000 -6.0750
v 446.0750 3.0000 -6.0750
v 446.0750 0.0000 -8.9250
v 448.9250 0.0000 -8.9250
v 448.9250 3.0000 -8.9250
v 446.0750 3.0000 -8.9250
v 448.9250 0.0000 -6.0750
v 446.0750 0.0000 -6.0750
v 446.0750 3.0000 -6.0750
v 448.9250 3.0000 -6.0750
v 448.9250 0.0000 -8.9250
v 448.9250 0.0000 -6.0750
v 448.9250 3.0000 -6.0750
v 448.9250 3.0000 -8.9250
v 446.0750 0.0000 -6.0750
v 446.0750 0.0000 -8.9250
v 446.0750 3.0000 -8.9250
v 446.0750 3.0000 -6.0750
v 446.0750 0.0000 -6.4250
v 448.9250 0.0000 -6.4250
v 448.9250 0.0000 -3.5750
v 446.0750 0.0000 -3.5750
v 446.0750 3.0000 -6.4250
v 448.9250 3.0000 -6.4250
v 448.9250 3.0000 -3.5750
v 446.0750 3.0000 -3.5750
v 436.0750 0.0000 -3.9250
v 438.9250 0.0000 -3.9250
v 438.9250 0.0000 -1.0750
v 436.0750 0.0000 -1.0750
v 436.0750 3.0000 -3.9250
v 438.9250 3.0000 -3.9250
v 438.9250 3.0000 -1.0750
v 436.0750 3.0000 -1.0750
v 441.0750 0.0000 -3.9250
v 443.9250 0.0000 -3.9250
v 443.9250 0.0000 -1.0750
v 441.0750 0.0000 -1.0750
v 441.0750 3.0000 -3.9250
v 443.9250 3.0000 -3.9250
v 443.9250 3.0000 -1.0750
v 441.0750 3.0000 -1.0750
v 443.5750 0.0000 -3.9250
v 443.5750 0.0000 -1.0750
v 446.4250 0.0000 -1.0750
v 446.4250 0.0000 -3.9250
v 443.5750 3.0000 -3.9250
v 446.4250 3.0000 -3.9250
v 446.4250 3.0000 -1.0750
v 443.5750 3.0000 -1.0750
v 443.5750 0.0000 -3.9250
v 446.4250 0.0000 -3.9250
v 446.4250 3.0000 -3.9250
v 443.5750 3.0000 -3.9250
v 446.4250 0.0000 -1.0750
v 443.5750 0.0000 -1.0750
v 443.5750 3.0000 -1.0750
v 446.4250 3.0000 -1.0750
v 446.4250 0.0000 -3.9250
v 446.4250 0.0000 -1.0750
v 446.4250 3.0000 -1.0750
v 446.4250 3.0000 -3.9250
v 443.5750 0.0000 -1.0750
v 443.5750 0.0000 -3.9250
v 443.5750 3.0000 -3.9250
v 443.5750 3.0000 -1.0750
v 446.0750 0.0000 -3.9250
v 448.9250 0.0000 -3.9250
v 448.9250 0.0000 -1.0750
v 446.0750 0.0000 -1.0750
v 446.0750 3.0000 -3.9250
v 448.9250 3.0000 -3.9250
v 448.9250 3.0000 -1.0750
v 446.0750 3.0000 -1.0750
v 448.5750 0.0000 -3.9250
v 451.4250 0.0000 -3.9250
v 451.4250 0.0000 -1.0750
v 448.5750 0.0000 -1.0750
v 448.5750 3.0000 -3.9250
v 451.4250 3.0000 -3.9250
v 451.4250 3.0000 -1.0750
v 448.5750 3.0000 -1.0750
v 436.0750 0.0000 1.0750
v 436.0750 0.0000 3.9250
v 438.9250 0.0000 3.9250
v 438.9250 0.0000 1.0750
v 436.0750 3.0000 1.0750
v 438.9250 3.0000 1.0750
v 438.9250 3.0000 3.9250
v 436.0750 3.0000 3.9250
v 436.0750 0.0000 1.0750
v 438.9250 0.0000 1.0750
v 438.9250 3.0000 1.0750
v 436.0750 3.0000 1.0750
v 438.9250 0.0000 3.9250
v 436.0750 0.0000 3.9250
v 436.0750 3.0000 3.9250
v 438.9250 3.0000 3.9250
v 438.9250 0.0000 1.0750
v 438.9250 0.0000 3.9250
v 438.9250 3.0000 3.9250
v 438.9250 3.0000 1.0750
v 436.0750 0.0000 3.9250
v 436.0750 0.0000 1.0750
v 436.0750 3.0000 1.0750
v 436.0750 3.0000 3.9250
v 438.5750 0.0000 1.0750
v 438.5750 0.0000 3.9250
v 441.4250 0.0000 3.9250
v 441.4250 0.0000 1.0750
v 438.5750 3.0000 1.0750
v 441.4250 3.0000 1.0750
v 441.4250 3.0000 3.9250
v 438.5750 3.0000 3.9250
v 438.5750 0.0000 1.0750
v 441.4250 0.0000 1.0750
v 441.4250 3.0000 1.0750
v 438.5750 3.0000 1.0750
v 441.4250 0.0000 3.9250
v 438.5750 0.0000 3.9250
v 438.5750 3.0000 3.9250
v 441.4250 3.0000 3.9250
v 441.4250 0.0000 1.0750
v 441.4250 0.0000 3.9250
v 441.4250 3.0000 3.9250
v 441.4250 3.0000 1.0750
v 438.5750 0.0000 3.9250
v 438.5750 0.0000 1.0750
v 438.5750 3.0000 1.0750
v 438.5750 3.0000 3.9250
v 441.0750 0.0000 1.0750
v 441.0750 0.0000 3.9250
v 443.9250 0.0000 3.9250
v 443.9250 0.0000 1.0750
v 441.0750 3.0000 1.0750
v 443.9250 3.0000 1.0750
v 443.9250 3.0000 3.9250
v 441.0750 3.0000 3.9250
v 441.0750 0.0000 1.0750
v 443.9250 0.0000 1.0750
v 443.9250 3.0000 1.0750
v 441.0750 3.0000 1.0750
v 443.9250 0.0000 3.9250
v 441.0750 0.0000 3.9250
v 441.0750 3.0000 3.9250
v 443.9250 3.0000 3.9250
v 443.9250 0.0000 1.0750
v 443.9250 0.0000 3.9250
v 443.9250 3.0000 3.9250
v 443.9250 3.0000 1.0750
v 441.0750 0.0000 3.9250
v 441.0750 0.0000 1.0750
v 441.0750 3.0000 1.0750
v 441.0750 3.0000 3.9250
v 443.5750 0.0000 1.0750
v 443.5750 0.0000 3.9250
v 446.4250 0.0000 3.9250
v 446.4250 0.0000 1.0750
v 443.5750 3.0000 1.0750
v 446.4250 3.0000 1.0750
v 446.4250 3.0000 3.9250
v 443.5750 3.0000 3.9250
v 443.5750 0.0000 1.0750
v 446.4250 0.0000 1.0750
v 446.4250 3.0000 1.0750
v 443.5750 3.0000 1.0750
v 446.4250 0.0000 3.9250
v 443.5750 0.0000 3.9250
v 443.5750 3.0000 3.9250
v 446.4250 3.0000 3.9250
v 446.4250 0.0000 1.0750
v 446.4250 0.0000 3.9250
v 446.4250 3.0000 3.9250
v 446.4250 3.0000 1.0750
v 443.5750 0.0000 3.9250
v 443.5750 0.0000 1.0750
v 443.5750 3.0000 1.0750
v 443.5750 3.0000 3.9250
v 446.0750 0.0000 1.0750
v 446.0750 0.0000 3.9250
v 448.9250 0.0000 3.9250
v 448.9250 0.0000 1.0750
v 446.0750 3.0000 1.0750
v 448.9250 3.0000 1.0750
v 448.9250 3.0000 3.9250
v 446.0750 3.0000 3.9250
v 446.0750 0.0000 1.0750
v 448.9250 0.0000 1.0750
v 448.9250 3.0000 1.0750
v 446.0750 3.0000 1.0750
v 448.9250 0.0000 3.9250
v 446.0750 0.0000 3.9250
v 446.0750 3.0000 3.9250
v 448.9250 3.0000 3.9250
v 448.9250 0.0000 1.0750
v 448.9250 0.0000 3.9250
v 448.9250 3.0000 3.9250
v 448.9250 3.0000 1.0750
v 446.0750 0.0000 3.9250
v 446.0750 0.0000 1.0750
v 446.0750 3.0000 1.0750
v 446.0750 3.0000 3.9250
v 436.0750 0.0000 3.5750
v 436.0750 0.0000 6.4250
v 438.9250 0.0000 6.4250
v 438.9250 0.0000 3.5750
v 436.0750 3.0000 3.5750
v 438.9250 3.0000 3.5750
v 438.9250 3.0000 6.4250
v 436.0750 3.0000 6.4250
v 436.0750 0.0000 3.5750
v 438.9250 0.0000 3.5750
v 438.9250 3.0000 3.5750
v 436.0750 3.0000 3.5750
v 438.9250 0.0000 6.4250
v 436.0750 0.0000 6.4250
v 436.0750 3.0000 6.4250
v 438.9250 3.0000 6.4250
v 438.9250 0.0000 3.5750
v 438.9250 0.0000 6.4250
v 438.9250 3.0000 6.4250
v 438.9250 3.0000 3.5750
v 436.0750 0.0000 6.4250
v 436.0750 0.0000 3.5750
v 436.0750 3.0000 3.5750
v 436.0750 3.0000 6.4250
v 441.0750 0.0000 3.5750
v 441.0750 0.0000 6.4250
v 443.9250 0.0000 6.4250
v 443.9250 0.0000 3.5750
v 441.0750 3.0000 3.5750
v 443.9250 3.0000 3.5750
v 443.9250 3.0000 6.4250
v 441.0750 3.0000 6.4250
v 441.0750 0.0000 3.5750
v 443.9250 0.0000 3.5750
v 443.9250 3.0000 3.5750
v 441.0750 3.0000 3.5750
v 443.9250 0.0000 6.4250
v 441.0750 0.0000 6.4250
v 441.0750 3.0000 6.4250
v 443.9250 3.0000 6.4250
v 443.9250 0.0000 3.5750
v 443.9250 0.0000 6.4250
v 443.9250 3.0000 6.4250
v 443.9250 3.0000 3.5750
v 441.0750 0.0000 6.4250
v 441.0750 0.0000 3.5750
v 441.0750 3.0000 3.5750
v 441.0750 3.0000 6.4250
v 444.8250 2.7600 -20.1750
v 445.1750 2.7600 -20.1750
v 445.1750 2.7600 -19.8250
v 444.8250 2.7600 -19.8250
v 444.8250 2.8800 -20.1750
v 445.1750 2.8800 -20.1750
v 445.1750 2.8800 -19.8250
v 444.8250 2.8800 -19.8250
v 449.8250 2.7600 -20.1750
v 450.1750 2.7600 -20.1750
v 450.1750 2.7600 -19.8250
v 449.8250 2.7600 -19.8250
v 449.8250 2.8800 -20.1750
v 450.1750 2.8800 -20.1750
v 450.1750 2.8800 -19.8250
v 449.8250 2.8800 -19.8250
v 439.8250 2.7600 -15.1750
v 440.1750 2.7600 -15.1750
v 440.1750 2.7600 -14.8250
v 439.8250 2.7600 -14.8250
v 439.8250 2.8800 -15.1750
v 440.1750 2.8800 -15.1750
v 440.1750 2.8800 -14.8250
v 439.8250 2.8800 -14.8250
v 449.8250 2.7600 -15.1750
v 450.1750 2.7600 -15.1750
v 450.1750 2.7600 -14.8250
v 449.8250 2.7600 -14.8250
v 449.8250 2.8800 -15.1750
v 450.1750 2.8800 -15.1750
v 450.1750 2.8800 -14.8250
v 449.8250 2.8800 -14.8250
v 449.8250 2.7600 -10.1750
v 450.1750 2.7600 -10.1750
v 450.1750 2.7600 -9.8250
v 449.8250 2.7600 -9.8250
v 449.8250 2.8800 -10.1750
v 450.1750 2.8800 -10.1750
v 450.1750 2.8800 -9.8250
v 449.8250 2.8800 -9.8250
v 444.8250 2.7600 -0.1750
v 445.1750 2.7600 -0.1750
v 445.1750 2.7600 0.1750
v 444.8250 2.7600 0.1750
v 444.8250 2.8800 -0.1750
v 445.1750 2.8800 -0.1750
v 445.1750 2.8800 0.1750
v 444.8250 2.8800 0.1750
v 449.8250 2.7600 -0.1750
v 450.1750 2.7600 -0.1750
v 450.1750 2.7600 0.1750
v 449.8250 2.7600 0.1750
v 449.8250 2.8800 -0.1750
v 450.1750 2.8800 -0.1750
v 450.1750 2.8800 0.1750
v 449.8250 2.8800 0.1750
v 437.6200 2.6000 -22.5000
v 437.6200 2.6000 -22.5000
v 437.5849 2.6000 -22.4151
v 437.5849 2.6000 -22.4151
v 437.5000 2.6000 -22.3800
v 437.5000 2.6000 -22.3800
v 437.4151 2.6000 -22.4151
v 437.4151 2.6000 -22.4151
v 437.3800 2.6000 -22.5000
v 437.3800 2.6000 -22.5000
v 437.4151 2.6000 -22.5849
v 437.4151 2.6000 -22.5849
v 437.5000 2.6000 -22.6200
v 437.5000 2.6000 -22.6200
v 437.5849 2.6000 -22.5849
v 437.5849 2.6000 -22.5849
v 437.5000 2.6000 -22.5000
v 437.5000 2.6000 -22.5000
v 437.5000 2.4800 -22.6200
v 452.5000 2.4800 -22.6200
v 452.5000 2.4800 -22.3800
v 437.5000 2.4800 -22.3800
v 437.5000 2.7200 -22.6200
v 452.5000 2.7200 -22.6200
v 452.5000 2.7200 -22.3800
v 437.5000 2.7200 -22.3800
v 437.6200 2.6000 -17.5000
v 437.6200 2.6000 -17.5000
v 437.5849 2.6000 -17.4151
v 437.5849 2.6000 -17.4151
v 437.5000 2.6000 -17.3800
v 437.5000 2.6000 -17.3800
v 437.4151 2.6000 -17.4151
v 437.4151 2.6000 -17.4151
v 437.3800 2.6000 -17.5000
v 437.3800 2.6000 -17.5000
v 437.4151 2.6000 -17.5849
v 437.4151 2.6000 -17.5849
v 437.5000 2.6000 -17.6200
v 437.5000 2.6000 -17.6200
v 437.5849 2.6000 -17.5849
v 437.5849 2.6000 -17.5849
v 437.5000 2.6000 -17.5000
v 437.5000 2.6000 -17.5000
v 437.5000 2.4800 -17.6200
v 452.5000 2.4800 -17.6200
v 452.5000 2.4800 -17.3800
v 437.5000 2.4800 -17.3800
v 437.5000 2.7200 -17.6200
v 452.5000 2.7200 -17.6200
v 452.5000 2.7200 -17.3800
v 437.5000 2.7200 -17.3800
v 437.6200 2.6000 -12.5000
v 437.6200 2.6000 -12.5000
v 437.5849 2.6000 -12.4151
v 437.5849 2.6000 -12.4151
v 437.5000 2.6000 -12.3800
v 437.5000 2.6000 -12.3800
v 437.4151 2.6000 -12.4151
v 437.4151 2.6000 -12.4151
v 437.3800 2.6000 -12.5000
v 437.3800 2.6000 -12.5000
v 437.4151 2.6000 -12.5849
v 437.4151 2.6000 -12.5849
v 437.5000 2.6000 -12.6200
v 437.5000 2.6000 -12.6200
v 437.5849 2.6000 -12.5849
v 437.5849 2.6000 -12.5849
v 437.5000 2.6000 -12.5000
v 437.5000 2.6000 -12.5000
v 437.5000 2.4800 -12.6200
v 452.5000 2.4800 -12.6200
v 452.5000 2.4800 -12.3800
v 437.5000 2.4800 -12.3800
v 437.5000 2.7200 -12.6200
v 452.5000 2.7200 -12.6200
v 452.5000 2.7200 -12.3800
v 437.5000 2.7200 -12.3800
v 437.6200 2.6000 2.5000
v 437.6200 2.6000 2.5000
v 437.5849 2.6000 2.5849
v 437.5849 2.6000 2.5849
v 437.5000 2.6000 2.6200
v 437.5000 2.6000 2.6200
v 437.4151 2.6000 2.5849
v 437.4151 2.6000 2.5849
v 437.3800 2.6000 2.5000
v 437.3800 2.6000 2.5000
v 437.4151 2.6000 2.4151
v 437.4151 2.6000 2.4151
v 437.5000 2.6000 2.3800
v 437.5000 2.6000 2.3800
v 437.5849 2.6000 2.4151
v 437.5849 2.6000 2.4151
v 437.5000 2.6000 2.5000
v 437.5000 2.6000 2.5000
v 437.5000 2.4800 2.3800
v 452.5000 2.4800 2.3800
v 452.5000 2.4800 2.6200
v 437.5000 2.4800 2.6200
v 437.5000 2.7200 2.3800
v 452.5000 2.7200 2.3800
v 452.5000 2.7200 2.6200
v 437.5000 2.7200 2.6200
vt 218.0375 -11.9625
vt 218.0375 -10.5375
vt 219.4625 -10.5375
vt 219.4625 -11.9625
vt 218.0375 -11.9625
vt 219.4625 -11.9625
vt 219.4625 -10.5375
vt 218.0375 -10.5375
vt 218.0375 0.0000
vt 219.4625 0.0000
vt 219.4625 1.5000
vt 218.0375 1.5000
vt 219.4625 0.0000
vt 218.0375 0.0000
vt 218.0375 1.5000
vt 219.4625 1.5000
vt -11.9625 0.0000
vt -10.5375 0.0000
vt -10.5375 1.5000
vt -11.9625 1.5000
vt -10.5375 0.0000
vt -11.9625 0.0000
vt -11.9625 1.5000
vt -10.5375 1.5000
vt 220.5375 -11.9625
vt 220.5375 -10.5375
vt 221.9625 -10.5375
vt 221.9625 -11.9625
vt 220.5375 -11.9625
vt 221.9625 -11.9625
vt 221.9625 -10.5375
vt 220.5375 -10.5375
vt 220.5375 0.0000
vt 221.9625 0.0000
vt 221.9625 1.5000
vt 220.5375 1.5000
vt 221.9625 0.0000
vt 220.5375 0.0000
vt 220.5375 1.5000
vt 221.9625 1.5000
vt -11.9625 0.0000
vt -10.5375 0.0000
vt -10.5375 1.5000
vt -11.9625 1.5000
vt -10.5375 0.0000
vt -11.9625 0.0000
vt -11.9625 1.5000
vt -10.5375 1.5000
vt 221.7875 -11.9625
vt 221.7875 -10.5375
vt 223.2125 -10.5375
vt 223.2125 -11.9625
vt 221.7875 -11.9625
vt 223.2125 -11.9625
vt 223.2125 -10.5375
vt 221.7875 -10.5375
vt 221.7875 0.0000
vt 223.2125 0.0000
vt 223.2125 1.5000
vt 221.7875 1.5000
vt 223.2125 0.0000
vt 221.7875 0.0000
vt 221.7875 1.5000
vt 223.2125 1.5000
vt -11.9625 0.0000
vt -10.5375 0.0000
vt -10.5375 1.5000
vt -11.9625 1.5000
vt -10.5375 0.0000
vt -11.9625 0.0000
vt -11.9625 1.5000
vt -10.5375 1.5000
vt 223.0375 -11.9625
vt 223.0375 -10.5375
vt 224.4625 -10.5375
vt 224.4625 -11.9625
vt 223.0375 -11.9625
vt 224.4625 -11.9625
vt 224.4625 -10.5375
vt 223.0375 -10.5375
vt 223.0375 0.0000
vt 224.4625 0.0000
vt 224.4625 1.5000
vt 223.0375 1.5000
vt 224.4625 0.0000
vt 223.0375 0.0000
vt 223.0375 1.5000
vt 224.4625 1.5000
vt -11.9625 0.0000
vt -10.5375 0.0000
vt -10.5375 1.5000
vt -11.9625 1.5000
vt -10.5375 0.0000
vt -11.9625 0.0000
vt -11.9625 1.5000
vt -10.5375 1.5000
vt 224.2875 -11.9625
vt 224.2875 -10.5375
vt 225.7125 -10.5375
vt 225.7125 -11.9625
vt 224.2875 -11.9625
vt 225.7125 -11.9625
vt 225.7125 -10.5375
vt 224.2875 -10.5375
vt 224.2875 0.0000
vt 225.7125 0.0000
vt 225.7125 1.5000
vt 224.2875 1.5000
vt 225.7125 0.0000
vt 224.2875 0.0000
vt 224.2875 1.5000
vt 225.7125 1.5000
vt -11.9625 0.0000
vt -10.5375 0.0000
vt -10.5375 1.5000
vt -11.9625 1.5000
vt -10.5375 0.0000
vt -11.9625 0.0000
vt -11.9625 1.5000
vt -10.5375 1.5000
vt 218.0375 -9.4625
vt 218.0375 -8.0375
vt 219.4625 -8.0375
vt 219.4625 -9.4625
vt 218.0375 -9.4625
vt 219.4625 -9.4625
vt 219.4625 -8.0375
vt 218.0375 -8.0375
vt 218.0375 0.0000
vt 219.4625 0.0000
vt 219.4625 1.5000
vt 218.0375 1.5000
vt 219.4625 0.0000
vt 218.0375 0.0000
vt 218.0375 1.5000
vt 219.4625 1.5000
vt -9.4625 0.0000
vt -8.0375 0.0000
vt -8.0375 1.5000
vt -9.4625 1.5000
vt -8.0375 0.0000
vt -9.4625 0.0000
vt -9.4625 1.5000
vt -8.0375 1.5000
vt 219.2875 -9.4625
vt 219.2875 -8.0375
vt 220.7125 -8.0375
vt 220.7125 -9.4625
vt 219.2875 -9.4625
vt 220.7125 -9.4625
vt 220.7125 -8.0375
vt 219.2875 -8.0375
vt 219.2875 0.0000
vt 220.7125 0.0000
vt 220.7125 1.5000
vt 219.2875 1.5000
vt 220.7125 0.0000
vt 219.2875 0.0000
vt 219.2875 1.5000
vt 220.7125 1.5000
vt -9.4625 0.0000
vt -8.0375 0.0000
vt -8.0375 1.5000
vt -9.4625 1.5000
vt -8.0375 0.0000
vt -9.4625 0.0000
vt -9.4625 1.5000
vt -8.0375 1.5000
vt 220.5375 -9.4625
vt 220.5375 -8.0375
vt 221.9625 -8.0375
vt 221.9625 -9.4625
vt 220.5375 -9.4625
vt 221.9625 -9.4625
vt 221.9625 -8.0375
vt 220.5375 -8.0375
vt 220.5375 0.0000
vt 221.9625 0.0000
vt 221.9625 1.5000
vt 220.5375 1.5000
vt 221.9625 0.0000
vt 220.5375 0.0000
vt 220.5375 1.5000
vt 221.9625 1.5000
vt -9.4625 0.0000
vt -8.0375 0.0000
vt -8.0375 1.5000
vt -9.4625 1.5000
vt -8.0375 0.0000
vt -9.4625 0.0000
vt -9.4625 1.5000
vt -8.0375 1.5000
vt 221.7875 -9.4625
vt 221.7875 -8.0375
vt 223.2125 -8.0375
vt 223.2125 -9.4625
vt 221.7875 -9.4625
vt 223.2125 -9.4625
vt 223.2125 -8.0375
vt 221.7875 -8.0375
vt 221.7875 0.0000
vt 223.2125 0.0000
vt 223.2125 1.5000
vt 221.7875 1.5000
vt 223.2125 0.0000
vt 221.7875 0.0000
vt 221.7875 1.5000
vt 223.2125 1.5000
vt -9.4625 0.0000
vt -8.0375 0.0000
vt -8.0375 1.5000
vt -9.4625 1.5000
vt -8.0375 0.0000
vt -9.4625 0.0000
vt -9.4625 1.5000
vt -8.0375 1.5000
vt 218.0375 -6.9625
vt 218.0375 -5.5375
vt 219.4625 -5.5375
vt 219.4625 -6.9625
vt 218.0375 -6.9625
vt 219.4625 -6.9625
vt 219.4625 -5.5375
vt 218.0375 -5.5375
vt 218.0375 0.0000
vt 219.4625 0.0000
vt 219.4625 1.5000
vt 218.0375 1.5000
vt 219.4625 0.0000
vt 218.0375 0.0000
vt 218.0375 1.5000
vt 219.4625 1.5000
vt -6.9625 0.0000
vt -5.5375 0.0000
vt -5.5375 1.5000
vt -6.9625 1.5000
vt -5.5375 0.0000
vt -6.9625 0.0000
vt -6.9625 1.5000
vt -5.5375 1.5000
vt 221.7875 -6.9625
vt 221.7875 -5.5375
vt 223.2125 -5.5375
vt 223.2125 -6.9625
vt 221.7875 -6.9625
vt 223.2125 -6.9625
vt 223.2125 -5.5375
vt 221.7875 -5.5375
vt 221.7875 0.0000
vt 223.2125 0.0000
vt 223.2125 1.5000
vt 221.7875 1.5000
vt 223.2125 0.0000
vt 221.7875 0.0000
vt 221.7875 1.5000
vt 223.2125 1.5000
vt -6.9625 0.0000
vt -5.5375 0.0000
vt -5.5375 1.5000
vt -6.9625 1.5000
vt -5.5375 0.0000
vt -6.9625 0.0000
vt -6.9625 1.5000
vt -5.5375 1.5000
vt 223.0375 -6.9625
vt 223.0375 -5.5375
vt 224.4625 -5.5375
vt 224.4625 -6.9625
vt 223.0375 -6.9625
vt 224.4625 -6.9625
vt 224.4625 -5.5375
vt 223.0375 -5.5375
vt 223.0375 0.0000
vt 224.4625 0.0000
vt 224.4625 1.5000
vt 223.0375 1.5000
vt 224.4625 0.0000
vt 223.0375 0.0000
vt 223.0375 1.5000
vt 224.4625 1.5000
vt -6.9625 0.0000
vt -5.5375 0.0000
vt -5.5375 1.5000
vt -6.9625 1.5000
vt -5.5375 0.0000
vt -6.9625 0.0000
vt -6.9625 1.5000
vt -5.5375 1.5000
vt 224.2875 -6.9625
vt 224.2875 -5.5375
vt 225.7125 -5.5375
vt 225.7125 -6.9625
vt 224.2875 -6.9625
vt 225.7125 -6.9625
vt 225.7125 -5.5375
vt 224.2875 -5.5375
vt 224.2875 0.0000
vt 225.7125 0.0000
vt 225.7125 1.5000
vt 224.2875 1.5000
vt 225.7125 0.0000
vt 224.2875 0.0000
vt 224.2875 1.5000
vt 225.7125 1.5000
vt -6.9625 0.0000
vt -5.5375 0.0000
vt -5.5375 1.5000
vt -6.9625 1.5000
vt -5.5375 0.0000
vt -6.9625 0.0000
vt -6.9625 1.5000
vt -5.5375 1.5000
vt 218.0375 -5.7125
vt 218.0375 -4.2875
vt 219.4625 -4.2875
vt 219.4625 -5.7125
vt 218.0375 -5.7125
vt 219.4625 -5.7125
vt 219.4625 -4.2875
vt 218.0375 -4.2875
vt 218.0375 0.0000
vt 219.4625 0.0000
vt 219.4625 1.5000
vt 218.0375 1.5000
vt 219.4625 0.0000
vt 218.0375 0.0000
vt 218.0375 1.5000
vt 219.4625 1.5000
vt -5.7125 0.0000
vt -4.2875 0.0000
vt -4.2875 1.5000
vt -5.7125 1.5000
vt -4.2875 0.0000
vt -5.7125 0.0000
vt -5.7125 1.5000
vt -4.2875 1.5000
vt 218.0375 -4.4625
vt 218.0375 -3.0375
vt 219.4625 -3.0375
vt 219.4625 -4.4625
vt 218.0375 -4.4625
vt 219.4625 -4.4625
vt 219.4625 -3.0375
vt 218.0375 -3.0375
vt 218.0375 0.0000
vt 219.4625 0.0000
vt 219.4625 1.5000
vt 218.0375 1.5000
vt 219.4625 0.0000
vt 218.0375 0.0000
vt 218.0375 1.5000
vt 219.4625 1.5000
vt -4.4625 0.0000
vt -3.0375 0.0000
vt -3.0375 1.5000
vt -4.4625 1.5000
vt -3.0375 0.0000
vt -4.4625 0.0000
vt -4.4625 1.5000
vt -3.0375 1.5000
vt 223.0375 -4.4625
vt 223.0375 -3.0375
vt 224.4625 -3.0375
vt 224.4625 -4.4625
vt 223.0375 -4.4625
vt 224.4625 -4.4625
vt 224.4625 -3.0375
vt 223.0375 -3.0375
vt 223.0375 0.0000
vt 224.4625 0.0000
vt 224.4625 1.5000
vt 223.0375 1.5000
vt 224.4625 0.0000
vt 223.0375 0.0000
vt 223.0375 1.5000
vt 224.4625 1.5000
vt -4.4625 0.0000
vt -3.0375 0.0000
vt -3.0375 1.5000
vt -4.4625 1.5000
vt -3.0375 0.0000
vt -4.4625 0.0000
vt -4.4625 1.5000
vt -3.0375 1.5000
vt 221.7875 -1.9625
vt 221.7875 -0.5375
vt 223.2125 -0.5375
vt 223.2125 -1.9625
vt 221.7875 -1.9625
vt 223.2125 -1.9625
vt 223.2125 -0.5375
vt 221.7875 -0.5375
vt 221.7875 0.0000
vt 223.2125 0.0000
vt 223.2125 1.5000
vt 221.7875 1.5000
vt 223.2125 0.0000
vt 221.7875 0.0000
vt 221.7875 1.5000
vt 223.2125 1.5000
vt -1.9625 0.0000
vt -0.5375 0.0000
vt -0.5375 1.5000
vt -1.9625 1.5000
vt -0.5375 0.0000
vt -1.9625 0.0000
vt -1.9625 1.5000
vt -0.5375 1.5000
vt 218.0375 0.5375
vt 218.0375 1.9625
vt 219.4625 1.9625
vt 219.4625 0.5375
vt 218.0375 0.5375
vt 219.4625 0.5375
vt 219.4625 1.9625
vt 218.0375 1.9625
vt 218.0375 0.0000
vt 219.4625 0.0000
vt 219.4625 1.5000
vt 218.0375 1.5000
vt 219.4625 0.0000
vt 218.0375 0.0000
vt 218.0375 1.5000
vt 219.4625 1.5000
vt 0.5375 0.0000
vt 1.9625 0.0000
vt 1.9625 1.5000
vt 0.5375 1.5000
vt 1.9625 0.0000
vt 0.5375 0.0000
vt 0.5375 1.5000
vt 1.9625 1.5000
vt 219.2875 0.5375
vt 219.2875 1.9625
vt 220.7125 1.9625
vt 220.7125 0.5375
vt 219.2875 0.5375
vt 220.7125 0.5375
vt 220.7125 1.9625
vt 219.2875 1.9625
vt 219.2875 0.0000
vt 220.7125 0.0000
vt 220.7125 1.5000
vt 219.2875 1.5000
vt 220.7125 0.0000
vt 219.2875 0.0000
vt 219.2875 1.5000
vt 220.7125 1.5000
vt 0.5375 0.0000
vt 1.9625 0.0000
vt 1.9625 1.5000
vt 0.5375 1.5000
vt 1.9625 0.0000
vt 0.5375 0.0000
vt 0.5375 1.5000
vt 1.9625 1.5000
vt 220.5375 0.5375
vt 220.5375 1.9625
vt 221.9625 1.9625
vt 221.9625 0.5375
vt 220.5375 0.5375
vt 221.9625 0.5375
vt 221.9625 1.9625
vt 220.5375 1.9625
vt 220.5375 0.0000
vt 221.9625 0.0000
vt 221.9625 1.5000
vt 220.5375 1.5000
vt 221.9625 0.0000
vt 220.5375 0.0000
vt 220.5375 1.5000
vt 221.9625 1.5000
vt 0.5375 0.0000
vt 1.9625 0.0000
vt 1.9625 1.5000
vt 0.5375 1.5000
vt 1.9625 0.0000
vt 0.5375 0.0000
vt 0.5375 1.5000
vt 1.9625 1.5000
vt 221.7875 0.5375
vt 221.7875 1.9625
vt 223.2125 1.9625
vt 223.2125 0.5375
vt 221.7875 0.5375
vt 223.2125 0.5375
vt 223.2125 1.9625
vt 221.7875 1.9625
vt 221.7875 0.0000
vt 223.2125 0.0000
vt 223.2125 1.5000
vt 221.7875 1.5000
vt 223.2125 0.0000
vt 221.7875 0.0000
vt 221.7875 1.5000
vt 223.2125 1.5000
vt 0.5375 0.0000
vt 1.9625 0.0000
vt 1.9625 1.5000
vt 0.5375 1.5000
vt 1.9625 0.0000
vt 0.5375 0.0000
vt 0.5375 1.5000
vt 1.9625 1.5000
vt 223.0375 0.5375
vt 223.0375 1.9625
vt 224.4625 1.9625
vt 224.4625 0.5375
vt 223.0375 0.5375
vt 224.4625 0.5375
vt 224.4625 1.9625
vt 223.0375 1.9625
vt 223.0375 0.0000
vt 224.4625 0.0000
vt 224.4625 1.5000
vt 223.0375 1.5000
vt 224.4625 0.0000
vt 223.0375 0.0000
vt 223.0375 1.5000
vt 224.4625 1.5000
vt 0.5375 0.0000
vt 1.9625 0.0000
vt 1.9625 1.5000
vt 0.5375 1.5000
vt 1.9625 0.0000
vt 0.5375 0.0000
vt 0.5375 1.5000
vt 1.9625 1.5000
vt 218.0375 1.7875
vt 218.0375 3.2125
vt 219.4625 3.2125
vt 219.4625 1.7875
vt 218.0375 1.7875
vt 219.4625 1.7875
vt 219.4625 3.2125
vt 218.0375 3.2125
vt 218.0375 0.0000
vt 219.4625 0.0000
vt 219.4625 1.5000
vt 218.0375 1.5000
vt 219.4625 0.0000
vt 218.0375 0.0000
vt 218.0375 1.5000
vt 219.4625 1.5000
vt 1.7875 0.0000
vt 3.2125 0.0000
vt 3.2125 1.5000
vt 1.7875 1.5000
vt 3.2125 0.0000
vt 1.7875 0.0000
vt 1.7875 1.5000
vt 3.2125 1.5000
vt 220.5375 1.7875
vt 220.5375 3.2125
vt 221.9625 3.2125
vt 221.9625 1.7875
vt 220.5375 1.7875
vt 221.9625 1.7875
vt 221.9625 3.2125
vt 220.5375 3.2125
vt 220.5375 0.0000
vt 221.9625 0.0000
vt 221.9625 1.5000
vt 220.5375 1.5000
vt 221.9625 0.0000
vt 220.5375 0.0000
vt 220.5375 1.5000
vt 221.9625 1.5000
vt 1.7875 0.0000
vt 3.2125 0.0000
vt 3.2125 1.5000
vt 1.7875 1.5000
vt 3.2125 0.0000
vt 1.7875 0.0000
vt 1.7875 1.5000
vt 3.2125 1.5000
usemtl rust
f 217 220 219 218
f 221 222 223 224
f 217 218 222 221
f 219 220 224 223
f 218 219 223 222
f 220 217 221 224
f 249 252 251 250
f 253 254 255 256
f 249 250 254 253
f 251 252 256 255
f 250 251 255 254
f 252 249 253 256
f 401 404 403 402
f 405 406 407 408
f 401 402 406 405
f 403 404 408 407
f 402 403 407 406
f 404 401 405 408
f 409 412 411 410
f 413 414 415 416
f 409 410 414 413
f 411 412 416 415
f 410 411 415 414
f 412 409 413 416
f 417 420 419 418
f 421 422 423 424
f 417 418 422 421
f 419 420 424 423
f 418 419 423 422
f 420 417 421 424
f 449 452 451 450
f 453 454 455 456
f 449 450 454 453
f 451 452 456 455
f 450 451 455 454
f 452 449 453 456
f 457 460 459 458
f 461 462 463 464
f 457 458 462 461
f 459 460 464 463
f 458 459 463 462
f 460 457 461 464
usemtl lamp_sick
f 633 636 635 634
f 637 638 639 640
f 633 634 638 637
f 635 636 640 639
f 634 635 639 638
f 636 633 637 640
f 641 644 643 642
f 645 646 647 648
f 641 642 646 645
f 643 644 648 647
f 642 643 647 646
f 644 641 645 648
f 649 652 651 650
f 653 654 655 656
f 649 650 654 653
f 651 652 656 655
f 650 651 655 654
f 652 649 653 656
f 657 660 659 658
f 661 662 663 664
f 657 658 662 661
f 659 660 664 663
f 658 659 663 662
f 660 657 661 664
f 665 668 667 666
f 669 670 671 672
f 665 666 670 669
f 667 668 672 671
f 666 667 671 670
f 668 665 669 672
f 673 676 675 674
f 677 678 679 680
f 673 674 678 677
f 675 676 680 679
f 674 675 679 678
f 676 673 677 680
f 681 684 683 682
f 685 686 687 688
f 681 682 686 685
f 683 684 688 687
f 682 683 687 686
f 684 681 685 688
usemtl pipe
f 689 691 692 690
f 691 693 694 692
f 693 695 696 694
f 695 697 698 696
f 697 699 700 698
f 699 701 702 700
f 701 703 704 702
f 703 689 690 704
f 705 690 692
f 706 691 689
f 705 692 694
f 706 693 691
f 705 694 696
f 706 695 693
f 705 696 698
f 706 697 695
f 705 698 700
f 706 699 697
f 705 700 702
f 706 701 699
f 705 702 704
f 706 703 701
f 705 704 690
f 706 689 703
f 707 710 709 708
f 711 712 713 714
f 707 708 712 711
f 709 710 714 713
f 708 709 713 712
f 710 707 711 714
f 715 717 718 716
f 717 719 720 718
f 719 721 722 720
f 721 723 724 722
f 723 725 726 724
f 725 727 728 726
f 727 729 730 728
f 729 715 716 730
f 731 716 718
f 732 717 715
f 731 718 720
f 732 719 717
f 731 720 722
f 732 721 719
f 731 722 724
f 732 723 721
f 731 724 726
f 732 725 723
f 731 726 728
f 732 727 725
f 731 728 730
f 732 729 727
f 731 730 716
f 732 715 729
f 733 736 735 734
f 737 738 739 740
f 733 734 738 737
f 735 736 740 739
f 734 735 739 738
f 736 733 737 740
f 741 743 744 742
f 743 745 746 744
f 745 747 748 746
f 747 749 750 748
f 749 751 752 750
f 751 753 754 752
f 753 755 756 754
f 755 741 742 756
f 757 742 744
f 758 743 741
f 757 744 746
f 758 745 743
f 757 746 748
f 758 747 745
f 757 748 750
f 758 749 747
f 757 750 752
f 758 751 749
f 757 752 754
f 758 753 751
f 757 754 756
f 758 755 753
f 757 756 742
f 758 741 755
f 759 762 761 760
f 763 764 765 766
f 759 760 764 763
f 761 762 766 765
f 760 761 765 764
f 762 759 763 766
f 767 769 770 768
f 769 771 772 770
f 771 773 774 772
f 773 775 776 774
f 775 777 778 776
f 777 779 780 778
f 779 781 782 780
f 781 767 768 782
f 783 768 770
f 784 769 767
f 783 770 772
f 784 771 769
f 783 772 774
f 784 773 771
f 783 774 776
f 784 775 773
f 783 776 778
f 784 777 775
f 783 778 780
f 784 779 777
f 783 780 782
f 784 781 779
f 783 782 768
f 784 767 781
f 785 788 787 786
f 789 790 791 792
f 785 786 790 789
f 787 788 792 791
f 786 787 791 790
f 788 785 789 792
usemtl grime_wall
f 1/1 2/2 3/3 4/4
f 5/5 6/6 7/7 8/8
f 9/9 10/10 11/11 12/12
f 13/13 14/14 15/15 16/16
f 17/17 18/18 19/19 20/20
f 21/21 22/22 23/23 24/24
f 25/25 26/26 27/27 28/28
f 29/29 30/30 31/31 32/32
f 33/33 34/34 35/35 36/36
f 37/37 38/38 39/39 40/40
f 41/41 42/42 43/43 44/44
f 45/45 46/46 47/47 48/48
f 49/49 50/50 51/51 52/52
f 53/53 54/54 55/55 56/56
f 57/57 58/58 59/59 60/60
f 61/61 62/62 63/63 64/64
f 65/65 66/66 67/67 68/68
f 69/69 70/70 71/71 72/72
f 73/73 74/74 75/75 76/76
f 77/77 78/78 79/79 80/80
f 81/81 82/82 83/83 84/84
f 85/85 86/86 87/87 88/88
f 89/89 90/90 91/91 92/92
f 93/93 94/94 95/95 96/96
f 97/97 98/98 99/99 100/100
f 101/101 102/102 103/103 104/104
f 105/105 106/106 107/107 108/108
f 109/109 110/110 111/111 112/112
f 113/113 114/114 115/115 116/116
f 117/117 118/118 119/119 120/120
f 121/121 122/122 123/123 124/124
f 125/125 126/126 127/127 128/128
f 129/129 130/130 131/131 132/132
f 133/133 134/134 135/135 136/136
f 137/137 138/138 139/139 140/140
f 141/141 142/142 143/143 144/144
f 145/145 146/146 147/147 148/148
f 149/149 150/150 151/151 152/152
f 153/153 154/154 155/155 156/156
f 157/157 158/158 159/159 160/160
f 161/161 162/162 163/163 164/164
f 165/165 166/166 167/167 168/168
f 169/169 170/170 171/171 172/172
f 173/173 174/174 175/175 176/176
f 177/177 178/178 179/179 180/180
f 181/181 182/182 183/183 184/184
f 185/185 186/186 187/187 188/188
f 189/189 190/190 191/191 192/192
f 193/193 194/194 195/195 196/196
f 197/197 198/198 199/199 200/200
f 201/201 202/202 203/203 204/204
f 205/205 206/206 207/207 208/208
f 209/209 210/210 211/211 212/212
f 213/213 214/214 215/215 216/216
f 225/217 226/218 227/219 228/220
f 229/221 230/222 231/223 232/224
f 233/225 234/226 235/227 236/228
f 237/229 238/230 239/231 240/232
f 241/233 242/234 243/235 244/236
f 245/237 246/238 247/239 248/240
f 257/241 258/242 259/243 260/244
f 261/245 262/246 263/247 264/248
f 265/249 266/250 267/251 268/252
f 269/253 270/254 271/255 272/256
f 273/257 274/258 275/259 276/260
f 277/261 278/262 279/263 280/264
f 281/265 282/266 283/267 284/268
f 285/269 286/270 287/271 288/272
f 289/273 290/274 291/275 292/276
f 293/277 294/278 295/279 296/280
f 297/281 298/282 299/283 300/284
f 301/285 302/286 303/287 304/288
f 305/289 306/290 307/291 308/292
f 309/293 310/294 311/295 312/296
f 313/297 314/298 315/299 316/300
f 317/301 318/302 319/303 320/304
f 321/305 322/306 323/307 324/308
f 325/309 326/310 327/311 328/312
f 329/313 330/314 331/315 332/316
f 333/317 334/318 335/319 336/320
f 337/321 338/322 339/323 340/324
f 341/325 342/326 343/327 344/328
f 345/329 346/330 347/331 348/332
f 349/333 350/334 351/335 352/336
f 353/337 354/338 355/339 356/340
f 357/341 358/342 359/343 360/344
f 361/345 362/346 363/347 364/348
f 365/349 366/350 367/351 368/352
f 369/353 370/354 371/355 372/356
f 373/357 374/358 375/359 376/360
f 377/361 378/362 379/363 380/364
f 381/365 382/366 383/367 384/368
f 385/369 386/370 387/371 388/372
f 389/373 390/374 391/375 392/376
f 393/377 394/378 395/379 396/380
f 397/381 398/382 399/383 400/384
f 425/385 426/386 427/387 428/388
f 429/389 430/390 431/391 432/392
f 433/393 434/394 435/395 436/396
f 437/397 438/398 439/399 440/400
f 441/401 442/402 443/403 444/404
f 445/405 446/406 447/407 448/408
f 465/409 466/410 467/411 468/412
f 469/413 470/414 471/415 472/416
f 473/417 474/418 475/419 476/420
f 477/421 478/422 479/423 480/424
f 481/425 482/426 483/427 484/428
f 485/429 486/430 487/431 488/432
f 489/433 490/434 491/435 492/436
f 493/437 494/438 495/439 496/440
f 497/441 498/442 499/443 500/444
f 501/445 502/446 503/447 504/448
f 505/449 506/450 507/451 508/452
f 509/453 510/454 511/455 512/456
f 513/457 514/458 515/459 516/460
f 517/461 518/462 519/463 520/464
f 521/465 522/466 523/467 524/468
f 525/469 526/470 527/471 528/472
f 529/473 530/474 531/475 532/476
f 533/477 534/478 535/479 536/480
f 537/481 538/482 539/483 540/484
f 541/485 542/486 543/487 544/488
f 545/489 546/490 547/491 548/492
f 549/493 550/494 551/495 552/496
f 553/497 554/498 555/499 556/500
f 557/501 558/502 559/503 560/504
f 561/505 562/506 563/507 564/508
f 565/509 566/510 567/511 568/512
f 569/513 570/514 571/515 572/516
f 573/517 574/518 575/519 576/520
f 577/521 578/522 579/523 580/524
f 581/525 582/526 583/527 584/528
f 585/529 586/530 587/531 588/532
f 589/533 590/534 591/535 592/536
f 593/537 594/538 595/539 596/540
f 597/541 598/542 599/543 600/544
f 601/545 602/546 603/547 604/548
f 605/549 606/550 607/551 608/552
f 609/553 610/554 611/555 612/556
f 613/557 614/558 615/559 616/560
f 617/561 618/562 619/563 620/564
f 621/565 622/566 623/567 624/568
f 625/569 626/570 627/571 628/572
f 629/573 630/574 631/575 632/576
