# RoastEngine Backrooms level
mtllib backrooms.mtl
v 1573.7000 0.0000 -40.0500
v 1576.8000 0.0000 -40.0500
v 1576.8000 0.0000 -36.9500
v 1573.7000 0.0000 -36.9500
v 1573.7000 3.4000 -40.0500
v 1576.8000 3.4000 -40.0500
v 1576.8000 3.4000 -36.9500
v 1573.7000 3.4000 -36.9500
v 1562.7000 0.0000 -37.3000
v 1562.7000 0.0000 -34.2000
v 1565.8000 0.0000 -34.2000
v 1565.8000 0.0000 -37.3000
v 1562.7000 3.4000 -37.3000
v 1565.8000 3.4000 -37.3000
v 1565.8000 3.4000 -34.2000
v 1562.7000 3.4000 -34.2000
v 1562.7000 0.0000 -37.3000
v 1565.8000 0.0000 -37.3000
v 1565.8000 3.4000 -37.3000
v 1562.7000 3.4000 -37.3000
v 1565.8000 0.0000 -34.2000
v 1562.7000 0.0000 -34.2000
v 1562.7000 3.4000 -34.2000
v 1565.8000 3.4000 -34.2000
v 1565.8000 0.0000 -37.3000
v 1565.8000 0.0000 -34.2000
v 1565.8000 3.4000 -34.2000
v 1565.8000 3.4000 -37.3000
v 1562.7000 0.0000 -34.2000
v 1562.7000 0.0000 -37.3000
v 1562.7000 3.4000 -37.3000
v 1562.7000 3.4000 -34.2000
v 1565.4500 0.0000 -37.3000
v 1565.4500 0.0000 -34.2000
v 1568.5500 0.0000 -34.2000
v 1568.5500 0.0000 -37.3000
v 1565.4500 3.4000 -37.3000
v 1568.5500 3.4000 -37.3000
v 1568.5500 3.4000 -34.2000
v 1565.4500 3.4000 -34.2000
v 1565.4500 0.0000 -37.3000
v 1568.5500 0.0000 -37.3000
v 1568.5500 3.4000 -37.3000
v 1565.4500 3.4000 -37.3000
v 1568.5500 0.0000 -34.2000
v 1565.4500 0.0000 -34.2000
v 1565.4500 3.4000 -34.2000
v 1568.5500 3.4000 -34.2000
v 1568.5500 0.0000 -37.3000
v 1568.5500 0.0000 -34.2000
v 1568.5500 3.4000 -34.2000
v 1568.5500 3.4000 -37.3000
v 1565.4500 0.0000 -34.2000
v 1565.4500 0.0000 -37.3000
v 1565.4500 3.4000 -37.3000
v 1565.4500 3.4000 -34.2000
v 1568.2000 0.0000 -37.3000
v 1568.2000 0.0000 -34.2000
v 1571.3000 0.0000 -34.2000
v 1571.3000 0.0000 -37.3000
v 1568.2000 3.4000 -37.3000
v 1571.3000 3.4000 -37.3000
v 1571.3000 3.4000 -34.2000
v 1568.2000 3.4000 -34.2000
v 1568.2000 0.0000 -37.3000
v 1571.3000 0.0000 -37.3000
v 1571.3000 3.4000 -37.3000
v 1568.2000 3.4000 -37.3000
v 1571.3000 0.0000 -34.2000
v 1568.2000 0.0000 -34.2000
v 1568.2000 3.4000 -34.2000
v 1571.3000 3.4000 -34.2000
v 1571.3000 0.0000 -37.3000
v 1571.3000 0.0000 -34.2000
v 1571.3000 3.4000 -34.2000
v 1571.3000 3.4000 -37.3000
v 1568.2000 0.0000 -34.2000
v 1568.2000 0.0000 -37.3000
v 1568.2000 3.4000 -37.3000
v 1568.2000 3.4000 -34.2000
v 1573.7000 0.0000 -37.3000
v 1573.7000 0.0000 -34.2000
v 1576.8000 0.0000 -34.2000
v 1576.8000 0.0000 -37.3000
v 1573.7000 3.4000 -37.3000
v 1576.8000 3.4000 -37.3000
v 1576.8000 3.4000 -34.2000
v 1573.7000 3.4000 -34.2000
v 1573.7000 0.0000 -37.3000
v 1576.8000 0.0000 -37.3000
v 1576.8000 3.4000 -37.3000
v 1573.7000 3.4000 -37.3000
v 1576.8000 0.0000 -34.2000
v 1573.7000 0.0000 -34.2000
v 1573.7000 3.4000 -34.2000
v 1576.8000 3.4000 -34.2000
v 1576.8000 0.0000 -37.3000
v 1576.8000 0.0000 -34.2000
v 1576.8000 3.4000 -34.2000
v 1576.8000 3.4000 -37.3000
v 1573.7000 0.0000 -34.2000
v 1573.7000 0.0000 -37.3000
v 1573.7000 3.4000 -37.3000
v 1573.7000 3.4000 -34.2000
v 1579.2000 0.0000 -37.3000
v 1582.3000 0.0000 -37.3000
v 1582.3000 0.0000 -34.2000
v 1579.2000 0.0000 -34.2000
v 1579.2000 3.4000 -37.3000
v 1582.3000 3.4000 -37.3000
v 1582.3000 3.4000 -34.2000
v 1579.2000 3.4000 -34.2000
v 1584.7000 0.0000 -37.3000
v 1587.8000 0.0000 -37.3000
v 1587.8000 0.0000 -34.2000
v 1584.7000 0.0000 -34.2000
v 1584.7000 3.4000 -37.3000
v 1587.8000 3.4000 -37.3000
v 1587.8000 3.4000 -34.2000
v 1584.7000 3.4000 -34.2000
v 1562.7000 0.0000 -34.5500
v 1565.8000 0.0000 -34.5500
v 1565.8000 0.0000 -31.4500
v 1562.7000 0.0000 -31.4500
v 1562.7000 3.4000 -34.5500
v 1565.8000 3.4000 -34.5500
v 1565.8000 3.4000 -31.4500
v 1562.7000 3.4000 -31.4500
v 1579.2000 0.0000 -34.5500
v 1579.2000 0.0000 -31.4500
v 1582.3000 0.0000 -31.4500
v 1582.3000 0.0000 -34.5500
v 1579.2000 3.4000 -34.5500
v 1582.3000 3.4000 -34.5500
v 1582.3000 3.4000 -31.4500
v 1579.2000 3.4000 -31.4500
v 1579.2000 0.0000 -34.5500
v 1582.3000 0.0000 -34.5500
v 1582.3000 3.4000 -34.5500
v 1579.2000 3.4000 -34.5500
v 1582.3000 0.0000 -31.4500
v 1579.2000 0.0000 -31.4500
v 1579.2000 3.4000 -31.4500
v 1582.3000 3.4000 -31.4500
v 1582.3000 0.0000 -34.5500
v 1582.3000 0.0000 -31.4500
v 1582.3000 3.4000 -31.4500
v 1582.3000 3.4000 -34.5500
v 1579.2000 0.0000 -31.4500
v 1579.2000 0.0000 -34.5500
v 1579.2000 3.4000 -34.5500
v 1579.2000 3.4000 -31.4500
v 1584.7000 0.0000 -34.5500
v 1584.7000 0.0000 -31.4500
v 1587.8000 0.0000 -31.4500
v 1587.8000 0.0000 -34.5500
v 1584.7000 3.4000 -34.5500
v 1587.8000 3.4000 -34.5500
v 1587.8000 3.4000 -31.4500
v 1584.7000 3.4000 -31.4500
v 1584.7000 0.0000 -34.5500
v 1587.8000 0.0000 -34.5500
v 1587.8000 3.4000 -34.5500
v 1584.7000 3.4000 -34.5500
v 1587.8000 0.0000 -31.4500
v 1584.7000 0.0000 -31.4500
v 1584.7000 3.4000 -31.4500
v 1587.8000 3.4000 -31.4500
v 1587.8000 0.0000 -34.5500
v 1587.8000 0.0000 -31.4500
v 1587.8000 3.4000 -31.4500
v 1587.8000 3.4000 -34.5500
v 1584.7000 0.0000 -31.4500
v 1584.7000 0.0000 -34.5500
v 1584.7000 3.4000 -34.5500
v 1584.7000 3.4000 -31.4500
v 1562.7000 0.0000 -31.8000
v 1562.7000 0.0000 -28.7000
v 1565.8000 0.0000 -28.7000
v 1565.8000 0.0000 -31.8000
v 1562.7000 3.4000 -31.8000
v 1565.8000 3.4000 -31.8000
v 1565.8000 3.4000 -28.7000
v 1562.7000 3.4000 -28.7000
v 1562.7000 0.0000 -31.8000
v 1565.8000 0.0000 -31.8000
v 1565.8000 3.4000 -31.8000
v 1562.7000 3.4000 -31.8000
v 1565.8000 0.0000 -28.7000
v 1562.7000 0.0000 -28.7000
v 1562.7000 3.4000 -28.7000
v 1565.8000 3.4000 -28.7000
v 1565.8000 0.0000 -31.8000
v 1565.8000 0.0000 -28.7000
v 1565.8000 3.4000 -28.7000
v 1565.8000 3.4000 -31.8000
v 1562.7000 0.0000 -28.7000
v 1562.7000 0.0000 -31.8000
v 1562.7000 3.4000 -31.8000
v 1562.7000 3.4000 -28.7000
v 1568.2000 0.0000 -31.8000
v 1568.2000 0.0000 -28.7000
v 1571.3000 0.0000 -28.7000
v 1571.3000 0.0000 -31.8000
v 1568.2000 3.4000 -31.8000
v 1571.3000 3.4000 -31.8000
v 1571.3000 3.4000 -28.7000
v 1568.2000 3.4000 -28.7000
v 1568.2000 0.0000 -31.8000
v 1571.3000 0.0000 -31.8000
v 1571.3000 3.4000 -31.8000
v 1568.2000 3.4000 -31.8000
v 1571.3000 0.0000 -28.7000
v 1568.2000 0.0000 -28.7000
v 1568.2000 3.4000 -28.7000
v 1571.3000 3.4000 -28.7000
v 1571.3000 0.0000 -31.8000
v 1571.3000 0.0000 -28.7000
v 1571.3000 3.4000 -28.7000
v 1571.3000 3.4000 -31.8000
v 1568.2000 0.0000 -28.7000
v 1568.2000 0.0000 -31.8000
v 1568.2000 3.4000 -31.8000
v 1568.2000 3.4000 -28.7000
v 1570.9500 0.0000 -31.8000
v 1570.9500 0.0000 -28.7000
v 1574.0500 0.0000 -28.7000
v 1574.0500 0.0000 -31.8000
v 1570.9500 3.4000 -31.8000
v 1574.0500 3.4000 -31.8000
v 1574.0500 3.4000 -28.7000
v 1570.9500 3.4000 -28.7000
v 1570.9500 0.0000 -31.8000
v 1574.0500 0.0000 -31.8000
v 1574.0500 3.4000 -31.8000
v 1570.9500 3.4000 -31.8000
v 1574.0500 0.0000 -28.7000
v 1570.9500 0.0000 -28.7000
v 1570.9500 3.4000 -28.7000
v 1574.0500 3.4000 -28.7000
v 1574.0500 0.0000 -31.8000
v 1574.0500 0.0000 -28.7000
v 1574.0500 3.4000 -28.7000
v 1574.0500 3.4000 -31.8000
v 1570.9500 0.0000 -28.7000
v 1570.9500 0.0000 -31.8000
v 1570.9500 3.4000 -31.8000
v 1570.9500 3.4000 -28.7000
v 1573.7000 0.0000 -31.8000
v 1576.8000 0.0000 -31.8000
v 1576.8000 0.0000 -28.7000
v 1573.7000 0.0000 -28.7000
v 1573.7000 3.4000 -31.8000
v 1576.8000 3.4000 -31.8000
v 1576.8000 3.4000 -28.7000
v 1573.7000 3.4000 -28.7000
v 1576.4500 0.0000 -31.8000
v 1576.4500 0.0000 -28.7000
v 1579.5500 0.0000 -28.7000
v 1579.5500 0.0000 -31.8000
v 1576.4500 3.4000 -31.8000
v 1579.5500 3.4000 -31.8000
v 1579.5500 3.4000 -28.7000
v 1576.4500 3.4000 -28.7000
v 1576.4500 0.0000 -31.8000
v 1579.5500 0.0000 -31.8000
v 1579.5500 3.4000 -31.8000
v 1576.4500 3.4000 -31.8000
v 1579.5500 0.0000 -28.7000
v 1576.4500 0.0000 -28.7000
v 1576.4500 3.4000 -28.7000
v 1579.5500 3.4000 -28.7000
v 1579.5500 0.0000 -31.8000
v 1579.5500 0.0000 -28.7000
v 1579.5500 3.4000 -28.7000
v 1579.5500 3.4000 -31.8000
v 1576.4500 0.0000 -28.7000
v 1576.4500 0.0000 -31.8000
v 1576.4500 3.4000 -31.8000
v 1576.4500 3.4000 -28.7000
v 1579.2000 0.0000 -31.8000
v 1579.2000 0.0000 -28.7000
v 1582.3000 0.0000 -28.7000
v 1582.3000 0.0000 -31.8000
v 1579.2000 3.4000 -31.8000
v 1582.3000 3.4000 -31.8000
v 1582.3000 3.4000 -28.7000
v 1579.2000 3.4000 -28.7000
v 1579.2000 0.0000 -31.8000
v 1582.3000 0.0000 -31.8000
v 1582.3000 3.4000 -31.8000
v 1579.2000 3.4000 -31.8000
v 1582.3000 0.0000 -28.7000
v 1579.2000 0.0000 -28.7000
v 1579.2000 3.4000 -28.7000
v 1582.3000 3.4000 -28.7000
v 1582.3000 0.0000 -31.8000
v 1582.3000 0.0000 -28.7000
v 1582.3000 3.4000 -28.7000
v 1582.3000 3.4000 -31.8000
v 1579.2000 0.0000 -28.7000
v 1579.2000 0.0000 -31.8000
v 1579.2000 3.4000 -31.8000
v 1579.2000 3.4000 -28.7000
v 1584.7000 0.0000 -31.8000
v 1584.7000 0.0000 -28.7000
v 1587.8000 0.0000 -28.7000
v 1587.8000 0.0000 -31.8000
v 1584.7000 3.4000 -31.8000
v 1587.8000 3.4000 -31.8000
v 1587.8000 3.4000 -28.7000
v 1584.7000 3.4000 -28.7000
v 1584.7000 0.0000 -31.8000
v 1587.8000 0.0000 -31.8000
v 1587.8000 3.4000 -31.8000
v 1584.7000 3.4000 -31.8000
v 1587.8000 0.0000 -28.7000
v 1584.7000 0.0000 -28.7000
v 1584.7000 3.4000 -28.7000
v 1587.8000 3.4000 -28.7000
v 1587.8000 0.0000 -31.8000
v 1587.8000 0.0000 -28.7000
v 1587.8000 3.4000 -28.7000
v 1587.8000 3.4000 -31.8000
v 1584.7000 0.0000 -28.7000
v 1584.7000 0.0000 -31.8000
v 1584.7000 3.4000 -31.8000
v 1584.7000 3.4000 -28.7000
v 1562.7000 0.0000 -29.0500
v 1565.8000 0.0000 -29.0500
v 1565.8000 0.0000 -25.9500
v 1562.7000 0.0000 -25.9500
v 1562.7000 3.4000 -29.0500
v 1565.8000 3.4000 -29.0500
v 1565.8000 3.4000 -25.9500
v 1562.7000 3.4000 -25.9500
v 1573.7000 0.0000 -29.0500
v 1573.7000 0.0000 -25.9500
v 1576.8000 0.0000 -25.9500
v 1576.8000 0.0000 -29.0500
v 1573.7000 3.4000 -29.0500
v 1576.8000 3.4000 -29.0500
v 1576.8000 3.4000 -25.9500
v 1573.7000 3.4000 -25.9500
v 1573.7000 0.0000 -29.0500
v 1576.8000 0.0000 -29.0500
v 1576.8000 3.4000 -29.0500
v 1573.7000 3.4000 -29.0500
v 1576.8000 0.0000 -25.9500
v 1573.7000 0.0000 -25.9500
v 1573.7000 3.4000 -25.9500
v 1576.8000 3.4000 -25.9500
v 1576.8000 0.0000 -29.0500
v 1576.8000 0.0000 -25.9500
v 1576.8000 3.4000 -25.9500
v 1576.8000 3.4000 -29.0500
v 1573.7000 0.0000 -25.9500
v 1573.7000 0.0000 -29.0500
v 1573.7000 3.4000 -29.0500
v 1573.7000 3.4000 -25.9500
v 1562.7000 0.0000 -26.3000
v 1562.7000 0.0000 -23.2000
v 1565.8000 0.0000 -23.2000
v 1565.8000 0.0000 -26.3000
v 1562.7000 3.4000 -26.3000
v 1565.8000 3.4000 -26.3000
v 1565.8000 3.4000 -23.2000
v 1562.7000 3.4000 -23.2000
v 1562.7000 0.0000 -26.3000
v 1565.8000 0.0000 -26.3000
v 1565.8000 3.4000 -26.3000
v 1562.7000 3.4000 -26.3000
v 1565.8000 0.0000 -23.2000
v 1562.7000 0.0000 -23.2000
v 1562.7000 3.4000 -23.2000
v 1565.8000 3.4000 -23.2000
v 1565.8000 0.0000 -26.3000
v 1565.8000 0.0000 -23.2000
v 1565.8000 3.4000 -23.2000
v 1565.8000 3.4000 -26.3000
v 1562.7000 0.0000 -23.2000
v 1562.7000 0.0000 -26.3000
v 1562.7000 3.4000 -26.3000
v 1562.7000 3.4000 -23.2000
v 1565.4500 0.0000 -26.3000
v 1565.4500 0.0000 -23.2000
v 1568.5500 0.0000 -23.2000
v 1568.5500 0.0000 -26.3000
v 1565.4500 3.4000 -26.3000
v 1568.5500 3.4000 -26.3000
v 1568.5500 3.4000 -23.2000
v 1565.4500 3.4000 -23.2000
v 1565.4500 0.0000 -26.3000
v 1568.5500 0.0000 -26.3000
v 1568.5500 3.4000 -26.3000
v 1565.4500 3.4000 -26.3000
v 1568.5500 0.0000 -23.2000
v 1565.4500 0.0000 -23.2000
v 1565.4500 3.4000 -23.2000
v 1568.5500 3.4000 -23.2000
v 1568.5500 0.0000 -26.3000
v 1568.5500 0.0000 -23.2000
v 1568.5500 3.4000 -23.2000
v 1568.5500 3.4000 -26.3000
v 1565.4500 0.0000 -23.2000
v 1565.4500 0.0000 -26.3000
v 1565.4500 3.4000 -26.3000
v 1565.4500 3.4000 -23.2000
v 1568.2000 0.0000 -26.3000
v 1571.3000 0.0000 -26.3000
v 1571.3000 0.0000 -23.2000
v 1568.2000 0.0000 -23.2000
v 1568.2000 3.4000 -26.3000
v 1571.3000 3.4000 -26.3000
v 1571.3000 3.4000 -23.2000
v 1568.2000 3.4000 -23.2000
v 1573.7000 0.0000 -26.3000
v 1576.8000 0.0000 -26.3000
v 1576.8000 0.0000 -23.2000
v 1573.7000 0.0000 -23.2000
v 1573.7000 3.4000 -26.3000
v 1576.8000 3.4000 -26.3000
v 1576.8000 3.4000 -23.2000
v 1573.7000 3.4000 -23.2000
v 1584.7000 0.0000 -26.3000
v 1584.7000 0.0000 -23.2000
v 1587.8000 0.0000 -23.2000
v 1587.8000 0.0000 -26.3000
v 1584.7000 3.4000 -26.3000
v 1587.8000 3.4000 -26.3000
v 1587.8000 3.4000 -23.2000
v 1584.7000 3.4000 -23.2000
v 1584.7000 0.0000 -26.3000
v 1587.8000 0.0000 -26.3000
v 1587.8000 3.4000 -26.3000
v 1584.7000 3.4000 -26.3000
v 1587.8000 0.0000 -23.2000
v 1584.7000 0.0000 -23.2000
v 1584.7000 3.4000 -23.2000
v 1587.8000 3.4000 -23.2000
v 1587.8000 0.0000 -26.3000
v 1587.8000 0.0000 -23.2000
v 1587.8000 3.4000 -23.2000
v 1587.8000 3.4000 -26.3000
v 1584.7000 0.0000 -23.2000
v 1584.7000 0.0000 -26.3000
v 1584.7000 3.4000 -26.3000
v 1584.7000 3.4000 -23.2000
v 1587.4500 0.0000 -26.3000
v 1590.5500 0.0000 -26.3000
v 1590.5500 0.0000 -23.2000
v 1587.4500 0.0000 -23.2000
v 1587.4500 3.4000 -26.3000
v 1590.5500 3.4000 -26.3000
v 1590.5500 3.4000 -23.2000
v 1587.4500 3.4000 -23.2000
v 1568.2000 0.0000 -23.5500
v 1568.2000 0.0000 -20.4500
v 1571.3000 0.0000 -20.4500
v 1571.3000 0.0000 -23.5500
v 1568.2000 3.4000 -23.5500
v 1571.3000 3.4000 -23.5500
v 1571.3000 3.4000 -20.4500
v 1568.2000 3.4000 -20.4500
v 1568.2000 0.0000 -23.5500
v 1571.3000 0.0000 -23.5500
v 1571.3000 3.4000 -23.5500
v 1568.2000 3.4000 -23.5500
v 1571.3000 0.0000 -20.4500
v 1568.2000 0.0000 -20.4500
v 1568.2000 3.4000 -20.4500
v 1571.3000 3.4000 -20.4500
v 1571.3000 0.0000 -23.5500
v 1571.3000 0.0000 -20.4500
v 1571.3000 3.4000 -20.4500
v 1571.3000 3.4000 -23.5500
v 1568.2000 0.0000 -20.4500
v 1568.2000 0.0000 -23.5500
v 1568.2000 3.4000 -23.5500
v 1568.2000 3.4000 -20.4500
v 1573.7000 0.0000 -23.5500
v 1576.8000 0.0000 -23.5500
v 1576.8000 0.0000 -20.4500
v 1573.7000 0.0000 -20.4500
v 1573.7000 3.4000 -23.5500
v 1576.8000 3.4000 -23.5500
v 1576.8000 3.4000 -20.4500
v 1573.7000 3.4000 -20.4500
v 1562.7000 0.0000 -20.8000
v 1562.7000 0.0000 -17.7000
v 1565.8000 0.0000 -17.7000
v 1565.8000 0.0000 -20.8000
v 1562.7000 3.4000 -20.8000
v 1565.8000 3.4000 -20.8000
v 1565.8000 3.4000 -17.7000
v 1562.7000 3.4000 -17.7000
v 1562.7000 0.0000 -20.8000
v 1565.8000 0.0000 -20.8000
v 1565.8000 3.4000 -20.8000
v 1562.7000 3.4000 -20.8000
v 1565.8000 0.0000 -17.7000
v 1562.7000 0.0000 -17.7000
v 1562.7000 3.4000 -17.7000
v 1565.8000 3.4000 -17.7000
v 1565.8000 0.0000 -20.8000
v 1565.8000 0.0000 -17.7000
v 1565.8000 3.4000 -17.7000
v 1565.8000 3.4000 -20.8000
v 1562.7000 0.0000 -17.7000
v 1562.7000 0.0000 -20.8000
v 1562.7000 3.4000 -20.8000
v 1562.7000 3.4000 -17.7000
v 1565.4500 0.0000 -20.8000
v 1565.4500 0.0000 -17.7000
v 1568.5500 0.0000 -17.7000
v 1568.5500 0.0000 -20.8000
v 1565.4500 3.4000 -20.8000
v 1568.5500 3.4000 -20.8000
v 1568.5500 3.4000 -17.7000
v 1565.4500 3.4000 -17.7000
v 1565.4500 0.0000 -20.8000
v 1568.5500 0.0000 -20.8000
v 1568.5500 3.4000 -20.8000
v 1565.4500 3.4000 -20.8000
v 1568.5500 0.0000 -17.7000
v 1565.4500 0.0000 -17.7000
v 1565.4500 3.4000 -17.7000
v 1568.5500 3.4000 -17.7000
v 1568.5500 0.0000 -20.8000
v 1568.5500 0.0000 -17.7000
v 1568.5500 3.4000 -17.7000
v 1568.5500 3.4000 -20.8000
v 1565.4500 0.0000 -17.7000
v 1565.4500 0.0000 -20.8000
v 1565.4500 3.4000 -20.8000
v 1565.4500 3.4000 -17.7000
v 1568.2000 0.0000 -20.8000
v 1568.2000 0.0000 -17.7000
v 1571.3000 0.0000 -17.7000
v 1571.3000 0.0000 -20.8000
v 1568.2000 3.4000 -20.8000
v 1571.3000 3.4000 -20.8000
v 1571.3000 3.4000 -17.7000
v 1568.2000 3.4000 -17.7000
v 1568.2000 0.0000 -20.8000
v 1571.3000 0.0000 -20.8000
v 1571.3000 3.4000 -20.8000
v 1568.2000 3.4000 -20.8000
v 1571.3000 0.0000 -17.7000
v 1568.2000 0.0000 -17.7000
v 1568.2000 3.4000 -17.7000
v 1571.3000 3.4000 -17.7000
v 1571.3000 0.0000 -20.8000
v 1571.3000 0.0000 -17.7000
v 1571.3000 3.4000 -17.7000
v 1571.3000 3.4000 -20.8000
v 1568.2000 0.0000 -17.7000
v 1568.2000 0.0000 -20.8000
v 1568.2000 3.4000 -20.8000
v 1568.2000 3.4000 -17.7000
v 1573.7000 0.0000 -20.8000
v 1573.7000 0.0000 -17.7000
v 1576.8000 0.0000 -17.7000
v 1576.8000 0.0000 -20.8000
v 1573.7000 3.4000 -20.8000
v 1576.8000 3.4000 -20.8000
v 1576.8000 3.4000 -17.7000
v 1573.7000 3.4000 -17.7000
v 1573.7000 0.0000 -20.8000
v 1576.8000 0.0000 -20.8000
v 1576.8000 3.4000 -20.8000
v 1573.7000 3.4000 -20.8000
v 1576.8000 0.0000 -17.7000
v 1573.7000 0.0000 -17.7000
v 1573.7000 3.4000 -17.7000
v 1576.8000 3.4000 -17.7000
v 1576.8000 0.0000 -20.8000
v 1576.8000 0.0000 -17.7000
v 1576.8000 3.4000 -17.7000
v 1576.8000 3.4000 -20.8000
v 1573.7000 0.0000 -17.7000
v 1573.7000 0.0000 -20.8000
v 1573.7000 3.4000 -20.8000
v 1573.7000 3.4000 -17.7000
v 1579.2000 0.0000 -20.8000
v 1579.2000 0.0000 -17.7000
v 1582.3000 0.0000 -17.7000
v 1582.3000 0.0000 -20.8000
v 1579.2000 3.4000 -20.8000
v 1582.3000 3.4000 -20.8000
v 1582.3000 3.4000 -17.7000
v 1579.2000 3.4000 -17.7000
v 1579.2000 0.0000 -20.8000
v 1582.3000 0.0000 -20.8000
v 1582.3000 3.4000 -20.8000
v 1579.2000 3.4000 -20.8000
v 1582.3000 0.0000 -17.7000
v 1579.2000 0.0000 -17.7000
v 1579.2000 3.4000 -17.7000
v 1582.3000 3.4000 -17.7000
v 1582.3000 0.0000 -20.8000
v 1582.3000 0.0000 -17.7000
v 1582.3000 3.4000 -17.7000
v 1582.3000 3.4000 -20.8000
v 1579.2000 0.0000 -17.7000
v 1579.2000 0.0000 -20.8000
v 1579.2000 3.4000 -20.8000
v 1579.2000 3.4000 -17.7000
v 1581.9500 0.0000 -20.8000
v 1581.9500 0.0000 -17.7000
v 1585.0500 0.0000 -17.7000
v 1585.0500 0.0000 -20.8000
v 1581.9500 3.4000 -20.8000
v 1585.0500 3.4000 -20.8000
v 1585.0500 3.4000 -17.7000
v 1581.9500 3.4000 -17.7000
v 1581.9500 0.0000 -20.8000
v 1585.0500 0.0000 -20.8000
v 1585.0500 3.4000 -20.8000
v 1581.9500 3.4000 -20.8000
v 1585.0500 0.0000 -17.7000
v 1581.9500 0.0000 -17.7000
v 1581.9500 3.4000 -17.7000
v 1585.0500 3.4000 -17.7000
v 1585.0500 0.0000 -20.8000
v 1585.0500 0.0000 -17.7000
v 1585.0500 3.4000 -17.7000
v 1585.0500 3.4000 -20.8000
v 1581.9500 0.0000 -17.7000
v 1581.9500 0.0000 -20.8000
v 1581.9500 3.4000 -20.8000
v 1581.9500 3.4000 -17.7000
v 1584.7000 0.0000 -20.8000
v 1587.8000 0.0000 -20.8000
v 1587.8000 0.0000 -17.7000
v 1584.7000 0.0000 -17.7000
v 1584.7000 3.4000 -20.8000
v 1587.8000 3.4000 -20.8000
v 1587.8000 3.4000 -17.7000
v 1584.7000 3.4000 -17.7000
v 1587.4500 0.0000 -20.8000
v 1587.4500 0.0000 -17.7000
v 1590.5500 0.0000 -17.7000
v 1590.5500 0.0000 -20.8000
v 1587.4500 3.4000 -20.8000
v 1590.5500 3.4000 -20.8000
v 1590.5500 3.4000 -17.7000
v 1587.4500 3.4000 -17.7000
v 1587.4500 0.0000 -20.8000
v 1590.5500 0.0000 -20.8000
v 1590.5500 3.4000 -20.8000
v 1587.4500 3.4000 -20.8000
v 1590.5500 0.0000 -17.7000
v 1587.4500 0.0000 -17.7000
v 1587.4500 3.4000 -17.7000
v 1590.5500 3.4000 -17.7000
v 1590.5500 0.0000 -20.8000
v 1590.5500 0.0000 -17.7000
v 1590.5500 3.4000 -17.7000
v 1590.5500 3.4000 -20.8000
v 1587.4500 0.0000 -17.7000
v 1587.4500 0.0000 -20.8000
v 1587.4500 3.4000 -20.8000
v 1587.4500 3.4000 -17.7000
v 1562.7000 0.0000 -18.0500
v 1562.7000 0.0000 -14.9500
v 1565.8000 0.0000 -14.9500
v 1565.8000 0.0000 -18.0500
v 1562.7000 3.4000 -18.0500
v 1565.8000 3.4000 -18.0500
v 1565.8000 3.4000 -14.9500
v 1562.7000 3.4000 -14.9500
v 1562.7000 0.0000 -18.0500
v 1565.8000 0.0000 -18.0500
v 1565.8000 3.4000 -18.0500
v 1562.7000 3.4000 -18.0500
v 1565.8000 0.0000 -14.9500
v 1562.7000 0.0000 -14.9500
v 1562.7000 3.4000 -14.9500
v 1565.8000 3.4000 -14.9500
v 1565.8000 0.0000 -18.0500
v 1565.8000 0.0000 -14.9500
v 1565.8000 3.4000 -14.9500
v 1565.8000 3.4000 -18.0500
v 1562.7000 0.0000 -14.9500
v 1562.7000 0.0000 -18.0500
v 1562.7000 3.4000 -18.0500
v 1562.7000 3.4000 -14.9500
v 1573.7000 0.0000 -18.0500
v 1576.8000 0.0000 -18.0500
v 1576.8000 0.0000 -14.9500
v 1573.7000 0.0000 -14.9500
v 1573.7000 3.4000 -18.0500
v 1576.8000 3.4000 -18.0500
v 1576.8000 3.4000 -14.9500
v 1573.7000 3.4000 -14.9500
v 1584.7000 0.0000 -18.0500
v 1584.7000 0.0000 -14.9500
v 1587.8000 0.0000 -14.9500
v 1587.8000 0.0000 -18.0500
v 1584.7000 3.4000 -18.0500
v 1587.8000 3.4000 -18.0500
v 1587.8000 3.4000 -14.9500
v 1584.7000 3.4000 -14.9500
v 1584.7000 0.0000 -18.0500
v 1587.8000 0.0000 -18.0500
v 1587.8000 3.4000 -18.0500
v 1584.7000 3.4000 -18.0500
v 1587.8000 0.0000 -14.9500
v 1584.7000 0.0000 -14.9500
v 1584.7000 3.4000 -14.9500
v 1587.8000 3.4000 -14.9500
v 1587.8000 0.0000 -18.0500
v 1587.8000 0.0000 -14.9500
v 1587.8000 3.4000 -14.9500
v 1587.8000 3.4000 -18.0500
v 1584.7000 0.0000 -14.9500
v 1584.7000 0.0000 -18.0500
v 1584.7000 3.4000 -18.0500
v 1584.7000 3.4000 -14.9500
v 1562.7000 0.0000 -15.3000
v 1562.7000 0.0000 -12.2000
v 1565.8000 0.0000 -12.2000
v 1565.8000 0.0000 -15.3000
v 1562.7000 3.4000 -15.3000
v 1565.8000 3.4000 -15.3000
v 1565.8000 3.4000 -12.2000
v 1562.7000 3.4000 -12.2000
v 1562.7000 0.0000 -15.3000
v 1565.8000 0.0000 -15.3000
v 1565.8000 3.4000 -15.3000
v 1562.7000 3.4000 -15.3000
v 1565.8000 0.0000 -12.2000
v 1562.7000 0.0000 -12.2000
v 1562.7000 3.4000 -12.2000
v 1565.8000 3.4000 -12.2000
v 1565.8000 0.0000 -15.3000
v 1565.8000 0.0000 -12.2000
v 1565.8000 3.4000 -12.2000
v 1565.8000 3.4000 -15.3000
v 1562.7000 0.0000 -12.2000
v 1562.7000 0.0000 -15.3000
v 1562.7000 3.4000 -15.3000
v 1562.7000 3.4000 -12.2000
v 1568.2000 0.0000 -15.3000
v 1568.2000 0.0000 -12.2000
v 1571.3000 0.0000 -12.2000
v 1571.3000 0.0000 -15.3000
v 1568.2000 3.4000 -15.3000
v 1571.3000 3.4000 -15.3000
v 1571.3000 3.4000 -12.2000
v 1568.2000 3.4000 -12.2000
v 1568.2000 0.0000 -15.3000
v 1571.3000 0.0000 -15.3000
v 1571.3000 3.4000 -15.3000
v 1568.2000 3.4000 -15.3000
v 1571.3000 0.0000 -12.2000
v 1568.2000 0.0000 -12.2000
v 1568.2000 3.4000 -12.2000
v 1571.3000 3.4000 -12.2000
v 1571.3000 0.0000 -15.3000
v 1571.3000 0.0000 -12.2000
v 1571.3000 3.4000 -12.2000
v 1571.3000 3.4000 -15.3000
v 1568.2000 0.0000 -12.2000
v 1568.2000 0.0000 -15.3000
v 1568.2000 3.4000 -15.3000
v 1568.2000 3.4000 -12.2000
v 1570.9500 0.0000 -15.3000
v 1570.9500 0.0000 -12.2000
v 1574.0500 0.0000 -12.2000
v 1574.0500 0.0000 -15.3000
v 1570.9500 3.4000 -15.3000
v 1574.0500 3.4000 -15.3000
v 1574.0500 3.4000 -12.2000
v 1570.9500 3.4000 -12.2000
v 1570.9500 0.0000 -15.3000
v 1574.0500 0.0000 -15.3000
v 1574.0500 3.4000 -15.3000
v 1570.9500 3.4000 -15.3000
v 1574.0500 0.0000 -12.2000
v 1570.9500 0.0000 -12.2000
v 1570.9500 3.4000 -12.2000
v 1574.0500 3.4000 -12.2000
v 1574.0500 0.0000 -15.3000
v 1574.0500 0.0000 -12.2000
v 1574.0500 3.4000 -12.2000
v 1574.0500 3.4000 -15.3000
v 1570.9500 0.0000 -12.2000
v 1570.9500 0.0000 -15.3000
v 1570.9500 3.4000 -15.3000
v 1570.9500 3.4000 -12.2000
v 1573.7000 0.0000 -15.3000
v 1573.7000 0.0000 -12.2000
v 1576.8000 0.0000 -12.2000
v 1576.8000 0.0000 -15.3000
v 1573.7000 3.4000 -15.3000
v 1576.8000 3.4000 -15.3000
v 1576.8000 3.4000 -12.2000
v 1573.7000 3.4000 -12.2000
v 1573.7000 0.0000 -15.3000
v 1576.8000 0.0000 -15.3000
v 1576.8000 3.4000 -15.3000
v 1573.7000 3.4000 -15.3000
v 1576.8000 0.0000 -12.2000
v 1573.7000 0.0000 -12.2000
v 1573.7000 3.4000 -12.2000
v 1576.8000 3.4000 -12.2000
v 1576.8000 0.0000 -15.3000
v 1576.8000 0.0000 -12.2000
v 1576.8000 3.4000 -12.2000
v 1576.8000 3.4000 -15.3000
v 1573.7000 0.0000 -12.2000
v 1573.7000 0.0000 -15.3000
v 1573.7000 3.4000 -15.3000
v 1573.7000 3.4000 -12.2000
v 1576.4500 0.0000 -15.3000
v 1579.5500 0.0000 -15.3000
v 1579.5500 0.0000 -12.2000
v 1576.4500 0.0000 -12.2000
v 1576.4500 3.4000 -15.3000
v 1579.5500 3.4000 -15.3000
v 1579.5500 3.4000 -12.2000
v 1576.4500 3.4000 -12.2000
v 1579.2000 0.0000 -15.3000
v 1579.2000 0.0000 -12.2000
v 1582.3000 0.0000 -12.2000
v 1582.3000 0.0000 -15.3000
v 1579.2000 3.4000 -15.3000
v 1582.3000 3.4000 -15.3000
v 1582.3000 3.4000 -12.2000
v 1579.2000 3.4000 -12.2000
v 1579.2000 0.0000 -15.3000
v 1582.3000 0.0000 -15.3000
v 1582.3000 3.4000 -15.3000
v 1579.2000 3.4000 -15.3000
v 1582.3000 0.0000 -12.2000
v 1579.2000 0.0000 -12.2000
v 1579.2000 3.4000 -12.2000
v 1582.3000 3.4000 -12.2000
v 1582.3000 0.0000 -15.3000
v 1582.3000 0.0000 -12.2000
v 1582.3000 3.4000 -12.2000
v 1582.3000 3.4000 -15.3000
v 1579.2000 0.0000 -12.2000
v 1579.2000 0.0000 -15.3000
v 1579.2000 3.4000 -15.3000
v 1579.2000 3.4000 -12.2000
v 1581.9500 0.0000 -15.3000
v 1581.9500 0.0000 -12.2000
v 1585.0500 0.0000 -12.2000
v 1585.0500 0.0000 -15.3000
v 1581.9500 3.4000 -15.3000
v 1585.0500 3.4000 -15.3000
v 1585.0500 3.4000 -12.2000
v 1581.9500 3.4000 -12.2000
v 1581.9500 0.0000 -15.3000
v 1585.0500 0.0000 -15.3000
v 1585.0500 3.4000 -15.3000
v 1581.9500 3.4000 -15.3000
v 1585.0500 0.0000 -12.2000
v 1581.9500 0.0000 -12.2000
v 1581.9500 3.4000 -12.2000
v 1585.0500 3.4000 -12.2000
v 1585.0500 0.0000 -15.3000
v 1585.0500 0.0000 -12.2000
v 1585.0500 3.4000 -12.2000
v 1585.0500 3.4000 -15.3000
v 1581.9500 0.0000 -12.2000
v 1581.9500 0.0000 -15.3000
v 1581.9500 3.4000 -15.3000
v 1581.9500 3.4000 -12.2000
v 1584.7000 0.0000 -15.3000
v 1584.7000 0.0000 -12.2000
v 1587.8000 0.0000 -12.2000
v 1587.8000 0.0000 -15.3000
v 1584.7000 3.4000 -15.3000
v 1587.8000 3.4000 -15.3000
v 1587.8000 3.4000 -12.2000
v 1584.7000 3.4000 -12.2000
v 1584.7000 0.0000 -15.3000
v 1587.8000 0.0000 -15.3000
v 1587.8000 3.4000 -15.3000
v 1584.7000 3.4000 -15.3000
v 1587.8000 0.0000 -12.2000
v 1584.7000 0.0000 -12.2000
v 1584.7000 3.4000 -12.2000
v 1587.8000 3.4000 -12.2000
v 1587.8000 0.0000 -15.3000
v 1587.8000 0.0000 -12.2000
v 1587.8000 3.4000 -12.2000
v 1587.8000 3.4000 -15.3000
v 1584.7000 0.0000 -12.2000
v 1584.7000 0.0000 -15.3000
v 1584.7000 3.4000 -15.3000
v 1584.7000 3.4000 -12.2000
v 1562.7000 0.0000 -12.5500
v 1562.7000 0.0000 -9.4500
v 1565.8000 0.0000 -9.4500
v 1565.8000 0.0000 -12.5500
v 1562.7000 3.4000 -12.5500
v 1565.8000 3.4000 -12.5500
v 1565.8000 3.4000 -9.4500
v 1562.7000 3.4000 -9.4500
v 1562.7000 0.0000 -12.5500
v 1565.8000 0.0000 -12.5500
v 1565.8000 3.4000 -12.5500
v 1562.7000 3.4000 -12.5500
v 1565.8000 0.0000 -9.4500
v 1562.7000 0.0000 -9.4500
v 1562.7000 3.4000 -9.4500
v 1565.8000 3.4000 -9.4500
v 1565.8000 0.0000 -12.5500
v 1565.8000 0.0000 -9.4500
v 1565.8000 3.4000 -9.4500
v 1565.8000 3.4000 -12.5500
v 1562.7000 0.0000 -9.4500
v 1562.7000 0.0000 -12.5500
v 1562.7000 3.4000 -12.5500
v 1562.7000 3.4000 -9.4500
v 1579.2000 0.0000 -12.5500
v 1579.2000 0.0000 -9.4500
v 1582.3000 0.0000 -9.4500
v 1582.3000 0.0000 -12.5500
v 1579.2000 3.4000 -12.5500
v 1582.3000 3.4000 -12.5500
v 1582.3000 3.4000 -9.4500
v 1579.2000 3.4000 -9.4500
v 1579.2000 0.0000 -12.5500
v 1582.3000 0.0000 -12.5500
v 1582.3000 3.4000 -12.5500
v 1579.2000 3.4000 -12.5500
v 1582.3000 0.0000 -9.4500
v 1579.2000 0.0000 -9.4500
v 1579.2000 3.4000 -9.4500
v 1582.3000 3.4000 -9.4500
v 1582.3000 0.0000 -12.5500
v 1582.3000 0.0000 -9.4500
v 1582.3000 3.4000 -9.4500
v 1582.3000 3.4000 -12.5500
v 1579.2000 0.0000 -9.4500
v 1579.2000 0.0000 -12.5500
v 1579.2000 3.4000 -12.5500
v 1579.2000 3.4000 -9.4500
v 1561.3700 1.9000 -38.5800
v 1561.6300 1.9000 -38.5800
v 1561.6300 1.9000 -38.4200
v 1561.3700 1.9000 -38.4200
v 1561.3700 2.2000 -38.5800
v 1561.6300 2.2000 -38.5800
v 1561.6300 2.2000 -38.4200
v 1561.3700 2.2000 -38.4200
v 1561.3300 2.2100 -38.6100
v 1561.6700 2.2100 -38.6100
v 1561.6700 2.2100 -38.3900
v 1561.3300 2.2100 -38.3900
v 1561.3300 2.2700 -38.6100
v 1561.6700 2.2700 -38.6100
v 1561.6700 2.2700 -38.3900
v 1561.3300 2.2700 -38.3900
v 1566.8700 1.9000 -38.5800
v 1567.1300 1.9000 -38.5800
v 1567.1300 1.9000 -38.4200
v 1566.8700 1.9000 -38.4200
v 1566.8700 2.2000 -38.5800
v 1567.1300 2.2000 -38.5800
v 1567.1300 2.2000 -38.4200
v 1566.8700 2.2000 -38.4200
v 1566.8300 2.2100 -38.6100
v 1567.1700 2.2100 -38.6100
v 1567.1700 2.2100 -38.3900
v 1566.8300 2.2100 -38.3900
v 1566.8300 2.2700 -38.6100
v 1567.1700 2.2700 -38.6100
v 1567.1700 2.2700 -38.3900
v 1566.8300 2.2700 -38.3900
v 1572.3700 1.9000 -38.5800
v 1572.6300 1.9000 -38.5800
v 1572.6300 1.9000 -38.4200
v 1572.3700 1.9000 -38.4200
v 1572.3700 2.2000 -38.5800
v 1572.6300 2.2000 -38.5800
v 1572.6300 2.2000 -38.4200
v 1572.3700 2.2000 -38.4200
v 1572.3300 2.2100 -38.6100
v 1572.6700 2.2100 -38.6100
v 1572.6700 2.2100 -38.3900
v 1572.3300 2.2100 -38.3900
v 1572.3300 2.2700 -38.6100
v 1572.6700 2.2700 -38.6100
v 1572.6700 2.2700 -38.3900
v 1572.3300 2.2700 -38.3900
v 1588.8700 1.9000 -38.5800
v 1589.1300 1.9000 -38.5800
v 1589.1300 1.9000 -38.4200
v 1588.8700 1.9000 -38.4200
v 1588.8700 2.2000 -38.5800
v 1589.1300 2.2000 -38.5800
v 1589.1300 2.2000 -38.4200
v 1588.8700 2.2000 -38.4200
v 1588.8300 2.2100 -38.6100
v 1589.1700 2.2100 -38.6100
v 1589.1700 2.2100 -38.3900
v 1588.8300 2.2100 -38.3900
v 1588.8300 2.2700 -38.6100
v 1589.1700 2.2700 -38.6100
v 1589.1700 2.2700 -38.3900
v 1588.8300 2.2700 -38.3900
v 1566.8700 1.9000 -33.0800
v 1567.1300 1.9000 -33.0800
v 1567.1300 1.9000 -32.9200
v 1566.8700 1.9000 -32.9200
v 1566.8700 2.2000 -33.0800
v 1567.1300 2.2000 -33.0800
v 1567.1300 2.2000 -32.9200
v 1566.8700 2.2000 -32.9200
v 1566.8300 2.2100 -33.1100
v 1567.1700 2.2100 -33.1100
v 1567.1700 2.2100 -32.8900
v 1566.8300 2.2100 -32.8900
v 1566.8300 2.2700 -33.1100
v 1567.1700 2.2700 -33.1100
v 1567.1700 2.2700 -32.8900
v 1566.8300 2.2700 -32.8900
v 1572.3700 1.9000 -27.5800
v 1572.6300 1.9000 -27.5800
v 1572.6300 1.9000 -27.4200
v 1572.3700 1.9000 -27.4200
v 1572.3700 2.2000 -27.5800
v 1572.6300 2.2000 -27.5800
v 1572.6300 2.2000 -27.4200
v 1572.3700 2.2000 -27.4200
v 1572.3300 2.2100 -27.6100
v 1572.6700 2.2100 -27.6100
v 1572.6700 2.2100 -27.3900
v 1572.3300 2.2100 -27.3900
v 1572.3300 2.2700 -27.6100
v 1572.6700 2.2700 -27.6100
v 1572.6700 2.2700 -27.3900
v 1572.3300 2.2700 -27.3900
v 1566.8700 1.9000 -22.0800
v 1567.1300 1.9000 -22.0800
v 1567.1300 1.9000 -21.9200
v 1566.8700 1.9000 -21.9200
v 1566.8700 2.2000 -22.0800
v 1567.1300 2.2000 -22.0800
v 1567.1300 2.2000 -21.9200
v 1566.8700 2.2000 -21.9200
v 1566.8300 2.2100 -22.1100
v 1567.1700 2.2100 -22.1100
v 1567.1700 2.2100 -21.8900
v 1566.8300 2.2100 -21.8900
v 1566.8300 2.2700 -22.1100
v 1567.1700 2.2700 -22.1100
v 1567.1700 2.2700 -21.8900
v 1566.8300 2.2700 -21.8900
v 1577.8700 1.9000 -22.0800
v 1578.1300 1.9000 -22.0800
v 1578.1300 1.9000 -21.9200
v 1577.8700 1.9000 -21.9200
v 1577.8700 2.2000 -22.0800
v 1578.1300 2.2000 -22.0800
v 1578.1300 2.2000 -21.9200
v 1577.8700 2.2000 -21.9200
v 1577.8300 2.2100 -22.1100
v 1578.1700 2.2100 -22.1100
v 1578.1700 2.2100 -21.8900
v 1577.8300 2.2100 -21.8900
v 1577.8300 2.2700 -22.1100
v 1578.1700 2.2700 -22.1100
v 1578.1700 2.2700 -21.8900
v 1577.8300 2.2700 -21.8900
v 1583.3700 1.9000 -22.0800
v 1583.6300 1.9000 -22.0800
v 1583.6300 1.9000 -21.9200
v 1583.3700 1.9000 -21.9200
v 1583.3700 2.2000 -22.0800
v 1583.6300 2.2000 -22.0800
v 1583.6300 2.2000 -21.9200
v 1583.3700 2.2000 -21.9200
v 1583.3300 2.2100 -22.1100
v 1583.6700 2.2100 -22.1100
v 1583.6700 2.2100 -21.8900
v 1583.3300 2.2100 -21.8900
v 1583.3300 2.2700 -22.1100
v 1583.6700 2.2700 -22.1100
v 1583.6700 2.2700 -21.8900
v 1583.3300 2.2700 -21.8900
v 1588.8700 1.9000 -22.0800
v 1589.1300 1.9000 -22.0800
v 1589.1300 1.9000 -21.9200
v 1588.8700 1.9000 -21.9200
v 1588.8700 2.2000 -22.0800
v 1589.1300 2.2000 -22.0800
v 1589.1300 2.2000 -21.9200
v 1588.8700 2.2000 -21.9200
v 1588.8300 2.2100 -22.1100
v 1589.1700 2.2100 -22.1100
v 1589.1700 2.2100 -21.8900
v 1588.8300 2.2100 -21.8900
v 1588.8300 2.2700 -22.1100
v 1589.1700 2.2700 -22.1100
v 1589.1700 2.2700 -21.8900
v 1588.8300 2.2700 -21.8900
v 1566.8700 1.9000 -16.5800
v 1567.1300 1.9000 -16.5800
v 1567.1300 1.9000 -16.4200
v 1566.8700 1.9000 -16.4200
v 1566.8700 2.2000 -16.5800
v 1567.1300 2.2000 -16.5800
v 1567.1300 2.2000 -16.4200
v 1566.8700 2.2000 -16.4200
v 1566.8300 2.2100 -16.6100
v 1567.1700 2.2100 -16.6100
v 1567.1700 2.2100 -16.3900
v 1566.8300 2.2100 -16.3900
v 1566.8300 2.2700 -16.6100
v 1567.1700 2.2700 -16.6100
v 1567.1700 2.2700 -16.3900
v 1566.8300 2.2700 -16.3900
v 1572.3700 1.9000 -16.5800
v 1572.6300 1.9000 -16.5800
v 1572.6300 1.9000 -16.4200
v 1572.3700 1.9000 -16.4200
v 1572.3700 2.2000 -16.5800
v 1572.6300 2.2000 -16.5800
v 1572.6300 2.2000 -16.4200
v 1572.3700 2.2000 -16.4200
v 1572.3300 2.2100 -16.6100
v 1572.6700 2.2100 -16.6100
v 1572.6700 2.2100 -16.3900
v 1572.3300 2.2100 -16.3900
v 1572.3300 2.2700 -16.6100
v 1572.6700 2.2700 -16.6100
v 1572.6700 2.2700 -16.3900
v 1572.3300 2.2700 -16.3900
v 1577.8700 1.9000 -16.5800
v 1578.1300 1.9000 -16.5800
v 1578.1300 1.9000 -16.4200
v 1577.8700 1.9000 -16.4200
v 1577.8700 2.2000 -16.5800
v 1578.1300 2.2000 -16.5800
v 1578.1300 2.2000 -16.4200
v 1577.8700 2.2000 -16.4200
v 1577.8300 2.2100 -16.6100
v 1578.1700 2.2100 -16.6100
v 1578.1700 2.2100 -16.3900
v 1577.8300 2.2100 -16.3900
v 1577.8300 2.2700 -16.6100
v 1578.1700 2.2700 -16.6100
v 1578.1700 2.2700 -16.3900
v 1577.8300 2.2700 -16.3900
v 1588.8700 1.9000 -11.0800
v 1589.1300 1.9000 -11.0800
v 1589.1300 1.9000 -10.9200
v 1588.8700 1.9000 -10.9200
v 1588.8700 2.2000 -11.0800
v 1589.1300 2.2000 -11.0800
v 1589.1300 2.2000 -10.9200
v 1588.8700 2.2000 -10.9200
v 1588.8300 2.2100 -11.1100
v 1589.1700 2.2100 -11.1100
v 1589.1700 2.2100 -10.8900
v 1588.8300 2.2100 -10.8900
v 1588.8300 2.2700 -11.1100
v 1589.1700 2.2700 -11.1100
v 1589.1700 2.2700 -10.8900
v 1588.8300 2.2700 -10.8900
v 1572.0250 0.0050 -39.7300
v 1572.9750 0.0050 -39.7300
v 1572.9750 0.0050 -39.6700
v 1572.0250 0.0050 -39.6700
v 1572.0250 2.0550 -39.7300
v 1572.9750 2.0550 -39.7300
v 1572.9750 2.0550 -39.6700
v 1572.0250 2.0550 -39.6700
v 1571.9380 0.9450 -39.6950
v 1572.0080 0.9450 -39.6950
v 1572.0080 0.9450 -39.6250
v 1571.9380 0.9450 -39.6250
v 1571.9380 1.0150 -39.6950
v 1572.0080 1.0150 -39.6950
v 1572.0080 1.0150 -39.6250
v 1571.9380 1.0150 -39.6250
v 1560.2700 0.0050 -36.2250
v 1560.3300 0.0050 -36.2250
v 1560.3300 0.0050 -35.2750
v 1560.2700 0.0050 -35.2750
v 1560.2700 2.0550 -36.2250
v 1560.3300 2.0550 -36.2250
v 1560.3300 2.0550 -35.2750
v 1560.2700 2.0550 -35.2750
v 1560.3050 0.9450 -35.2580
v 1560.3750 0.9450 -35.2580
v 1560.3750 0.9450 -35.1880
v 1560.3050 0.9450 -35.1880
v 1560.3050 1.0150 -35.2580
v 1560.3750 1.0150 -35.2580
v 1560.3750 1.0150 -35.1880
v 1560.3050 1.0150 -35.1880
v 1562.6700 0.0050 -36.2250
v 1562.7300 0.0050 -36.2250
v 1562.7300 0.0050 -35.2750
v 1562.6700 0.0050 -35.2750
v 1562.6700 2.0550 -36.2250
v 1562.7300 2.0550 -36.2250
v 1562.7300 2.0550 -35.2750
v 1562.6700 2.0550 -35.2750
v 1562.6250 0.9450 -36.3120
v 1562.6950 0.9450 -36.3120
v 1562.6950 0.9450 -36.2420
v 1562.6250 0.9450 -36.2420
v 1562.6250 1.0150 -36.3120
v 1562.6950 1.0150 -36.3120
v 1562.6950 1.0150 -36.2420
v 1562.6250 1.0150 -36.2420
v 1560.2700 0.0050 -30.7250
v 1560.3300 0.0050 -30.7250
v 1560.3300 0.0050 -29.7750
v 1560.2700 0.0050 -29.7750
v 1560.2700 2.0550 -30.7250
v 1560.3300 2.0550 -30.7250
v 1560.3300 2.0550 -29.7750
v 1560.2700 2.0550 -29.7750
v 1560.3050 0.9450 -29.7580
v 1560.3750 0.9450 -29.7580
v 1560.3750 0.9450 -29.6880
v 1560.3050 0.9450 -29.6880
v 1560.3050 1.0150 -29.7580
v 1560.3750 1.0150 -29.7580
v 1560.3750 1.0150 -29.6880
v 1560.3050 1.0150 -29.6880
v 1565.7700 0.0050 -30.7250
v 1565.8300 0.0050 -30.7250
v 1565.8300 0.0050 -29.7750
v 1565.7700 0.0050 -29.7750
v 1565.7700 2.0550 -30.7250
v 1565.8300 2.0550 -30.7250
v 1565.8300 2.0550 -29.7750
v 1565.7700 2.0550 -29.7750
v 1565.8050 0.9450 -29.7580
v 1565.8750 0.9450 -29.7580
v 1565.8750 0.9450 -29.6880
v 1565.8050 0.9450 -29.6880
v 1565.8050 1.0150 -29.7580
v 1565.8750 1.0150 -29.7580
v 1565.8750 1.0150 -29.6880
v 1565.8050 1.0150 -29.6880
v 1574.7750 0.0050 -31.8300
v 1575.7250 0.0050 -31.8300
v 1575.7250 0.0050 -31.7700
v 1574.7750 0.0050 -31.7700
v 1574.7750 2.0550 -31.8300
v 1575.7250 2.0550 -31.8300
v 1575.7250 2.0550 -31.7700
v 1574.7750 2.0550 -31.7700
v 1575.7420 0.9450 -31.8750
v 1575.8120 0.9450 -31.8750
v 1575.8120 0.9450 -31.8050
v 1575.7420 0.9450 -31.8050
v 1575.7420 1.0150 -31.8750
v 1575.8120 1.0150 -31.8750
v 1575.8120 1.0150 -31.8050
v 1575.7420 1.0150 -31.8050
v 1588.5250 0.0050 -23.2300
v 1589.4750 0.0050 -23.2300
v 1589.4750 0.0050 -23.1700
v 1588.5250 0.0050 -23.1700
v 1588.5250 2.0550 -23.2300
v 1589.4750 2.0550 -23.2300
v 1589.4750 2.0550 -23.1700
v 1588.5250 2.0550 -23.1700
v 1588.4380 0.9450 -23.1950
v 1588.5080 0.9450 -23.1950
v 1588.5080 0.9450 -23.1250
v 1588.4380 0.9450 -23.1250
v 1588.4380 1.0150 -23.1950
v 1588.5080 1.0150 -23.1950
v 1588.5080 1.0150 -23.1250
v 1588.4380 1.0150 -23.1250
v 1563.7750 0.0050 -20.8300
v 1564.7250 0.0050 -20.8300
v 1564.7250 0.0050 -20.7700
v 1563.7750 0.0050 -20.7700
v 1563.7750 2.0550 -20.8300
v 1564.7250 2.0550 -20.8300
v 1564.7250 2.0550 -20.7700
v 1563.7750 2.0550 -20.7700
v 1564.7420 0.9450 -20.8750
v 1564.8120 0.9450 -20.8750
v 1564.8120 0.9450 -20.8050
v 1564.7420 0.9450 -20.8050
v 1564.7420 1.0150 -20.8750
v 1564.8120 1.0150 -20.8750
v 1564.8120 1.0150 -20.8050
v 1564.7420 1.0150 -20.8050
v 1580.2750 0.0050 -17.7300
v 1581.2250 0.0050 -17.7300
v 1581.2250 0.0050 -17.6700
v 1580.2750 0.0050 -17.6700
v 1580.2750 2.0550 -17.7300
v 1581.2250 2.0550 -17.7300
v 1581.2250 2.0550 -17.6700
v 1580.2750 2.0550 -17.6700
v 1580.1880 0.9450 -17.6950
v 1580.2580 0.9450 -17.6950
v 1580.2580 0.9450 -17.6250
v 1580.1880 0.9450 -17.6250
v 1580.1880 1.0150 -17.6950
v 1580.2580 1.0150 -17.6950
v 1580.2580 1.0150 -17.6250
v 1580.1880 1.0150 -17.6250
v 1588.5250 0.0050 -20.8300
v 1589.4750 0.0050 -20.8300
v 1589.4750 0.0050 -20.7700
v 1588.5250 0.0050 -20.7700
v 1588.5250 2.0550 -20.8300
v 1589.4750 2.0550 -20.8300
v 1589.4750 2.0550 -20.7700
v 1588.5250 2.0550 -20.7700
v 1589.4920 0.9450 -20.8750
v 1589.5620 0.9450 -20.8750
v 1589.5620 0.9450 -20.8050
v 1589.4920 0.9450 -20.8050
v 1589.4920 1.0150 -20.8750
v 1589.5620 1.0150 -20.8750
v 1589.5620 1.0150 -20.8050
v 1589.4920 1.0150 -20.8050
v 1587.7700 0.0050 -16.9750
v 1587.8300 0.0050 -16.9750
v 1587.8300 0.0050 -16.0250
v 1587.7700 0.0050 -16.0250
v 1587.7700 2.0550 -16.9750
v 1587.8300 2.0550 -16.9750
v 1587.8300 2.0550 -16.0250
v 1587.7700 2.0550 -16.0250
v 1587.8050 0.9450 -16.0080
v 1587.8750 0.9450 -16.0080
v 1587.8750 0.9450 -15.9380
v 1587.8050 0.9450 -15.9380
v 1587.8050 1.0150 -16.0080
v 1587.8750 1.0150 -16.0080
v 1587.8750 1.0150 -15.9380
v 1587.8050 1.0150 -15.9380
v 1587.7700 0.0050 -14.2250
v 1587.8300 0.0050 -14.2250
v 1587.8300 0.0050 -13.2750
v 1587.7700 0.0050 -13.2750
v 1587.7700 2.0550 -14.2250
v 1587.8300 2.0550 -14.2250
v 1587.8300 2.0550 -13.2750
v 1587.7700 2.0550 -13.2750
v 1587.8050 0.9450 -13.2580
v 1587.8750 0.9450 -13.2580
v 1587.8750 0.9450 -13.1880
v 1587.8050 0.9450 -13.1880
v 1587.8050 1.0150 -13.2580
v 1587.8750 1.0150 -13.2580
v 1587.8750 1.0150 -13.1880
v 1587.8050 1.0150 -13.1880
v 1565.7700 0.0050 -11.4750
v 1565.8300 0.0050 -11.4750
v 1565.8300 0.0050 -10.5250
v 1565.7700 0.0050 -10.5250
v 1565.7700 2.0550 -11.4750
v 1565.8300 2.0550 -11.4750
v 1565.8300 2.0550 -10.5250
v 1565.7700 2.0550 -10.5250
v 1565.8050 0.9450 -10.5080
v 1565.8750 0.9450 -10.5080
v 1565.8750 0.9450 -10.4380
v 1565.8050 0.9450 -10.4380
v 1565.8050 1.0150 -10.5080
v 1565.8750 1.0150 -10.5080
v 1565.8750 1.0150 -10.4380
v 1565.8050 1.0150 -10.4380
v 1582.2700 0.0050 -11.4750
v 1582.3300 0.0050 -11.4750
v 1582.3300 0.0050 -10.5250
v 1582.2700 0.0050 -10.5250
v 1582.2700 2.0550 -11.4750
v 1582.3300 2.0550 -11.4750
v 1582.3300 2.0550 -10.5250
v 1582.2700 2.0550 -10.5250
v 1582.3050 0.9450 -10.5080
v 1582.3750 0.9450 -10.5080
v 1582.3750 0.9450 -10.4380
v 1582.3050 0.9450 -10.4380
v 1582.3050 1.0150 -10.5080
v 1582.3750 1.0150 -10.5080
v 1582.3750 1.0150 -10.4380
v 1582.3050 1.0150 -10.4380
vt 976.6875 -23.3125
vt 976.6875 -21.3750
vt 978.6250 -21.3750
vt 978.6250 -23.3125
vt 976.6875 -23.3125
vt 978.6250 -23.3125
vt 978.6250 -21.3750
vt 976.6875 -21.3750
vt 976.6875 0.0000
vt 978.6250 0.0000
vt 978.6250 2.1250
vt 976.6875 2.1250
vt 978.6250 0.0000
vt 976.6875 0.0000
vt 976.6875 2.1250
vt 978.6250 2.1250
vt -23.3125 0.0000
vt -21.3750 0.0000
vt -21.3750 2.1250
vt -23.3125 2.1250
vt -21.3750 0.0000
vt -23.3125 0.0000
vt -23.3125 2.1250
vt -21.3750 2.1250
vt 978.4062 -23.3125
vt 978.4062 -21.3750
vt 980.3437 -21.3750
vt 980.3437 -23.3125
vt 978.4062 -23.3125
vt 980.3437 -23.3125
vt 980.3437 -21.3750
vt 978.4062 -21.3750
vt 978.4062 0.0000
vt 980.3437 0.0000
vt 980.3437 2.1250
vt 978.4062 2.1250
vt 980.3437 0.0000
vt 978.4062 0.0000
vt 978.4062 2.1250
vt 980.3437 2.1250
vt -23.3125 0.0000
vt -21.3750 0.0000
vt -21.3750 2.1250
vt -23.3125 2.1250
vt -21.3750 0.0000
vt -23.3125 0.0000
vt -23.3125 2.1250
vt -21.3750 2.1250
vt 980.1250 -23.3125
vt 980.1250 -21.3750
vt 982.0625 -21.3750
vt 982.0625 -23.3125
vt 980.1250 -23.3125
vt 982.0625 -23.3125
vt 982.0625 -21.3750
vt 980.1250 -21.3750
vt 980.1250 0.0000
vt 982.0625 0.0000
vt 982.0625 2.1250
vt 980.1250 2.1250
vt 982.0625 0.0000
vt 980.1250 0.0000
vt 980.1250 2.1250
vt 982.0625 2.1250
vt -23.3125 0.0000
vt -21.3750 0.0000
vt -21.3750 2.1250
vt -23.3125 2.1250
vt -21.3750 0.0000
vt -23.3125 0.0000
vt -23.3125 2.1250
vt -21.3750 2.1250
vt 983.5625 -23.3125
vt 983.5625 -21.3750
vt 985.5000 -21.3750
vt 985.5000 -23.3125
vt 983.5625 -23.3125
vt 985.5000 -23.3125
vt 985.5000 -21.3750
vt 983.5625 -21.3750
vt 983.5625 0.0000
vt 985.5000 0.0000
vt 985.5000 2.1250
vt 983.5625 2.1250
vt 985.5000 0.0000
vt 983.5625 0.0000
vt 983.5625 2.1250
vt 985.5000 2.1250
vt -23.3125 0.0000
vt -21.3750 0.0000
vt -21.3750 2.1250
vt -23.3125 2.1250
vt -21.3750 0.0000
vt -23.3125 0.0000
vt -23.3125 2.1250
vt -21.3750 2.1250
vt 987.0000 -21.5937
vt 987.0000 -19.6562
vt 988.9375 -19.6562
vt 988.9375 -21.5937
vt 987.0000 -21.5937
vt 988.9375 -21.5937
vt 988.9375 -19.6562
vt 987.0000 -19.6562
vt 987.0000 0.0000
vt 988.9375 0.0000
vt 988.9375 2.1250
vt 987.0000 2.1250
vt 988.9375 0.0000
vt 987.0000 0.0000
vt 987.0000 2.1250
vt 988.9375 2.1250
vt -21.5937 0.0000
vt -19.6562 0.0000
vt -19.6562 2.1250
vt -21.5937 2.1250
vt -19.6562 0.0000
vt -21.5937 0.0000
vt -21.5937 2.1250
vt -19.6562 2.1250
vt 990.4375 -21.5937
vt 990.4375 -19.6562
vt 992.3750 -19.6562
vt 992.3750 -21.5937
vt 990.4375 -21.5937
vt 992.3750 -21.5937
vt 992.3750 -19.6562
vt 990.4375 -19.6562
vt 990.4375 0.0000
vt 992.3750 0.0000
vt 992.3750 2.1250
vt 990.4375 2.1250
vt 992.3750 0.0000
vt 990.4375 0.0000
vt 990.4375 2.1250
vt 992.3750 2.1250
vt -21.5937 0.0000
vt -19.6562 0.0000
vt -19.6562 2.1250
vt -21.5937 2.1250
vt -19.6562 0.0000
vt -21.5937 0.0000
vt -21.5937 2.1250
vt -19.6562 2.1250
vt 976.6875 -19.8750
vt 976.6875 -17.9375
vt 978.6250 -17.9375
vt 978.6250 -19.8750
vt 976.6875 -19.8750
vt 978.6250 -19.8750
vt 978.6250 -17.9375
vt 976.6875 -17.9375
vt 976.6875 0.0000
vt 978.6250 0.0000
vt 978.6250 2.1250
vt 976.6875 2.1250
vt 978.6250 0.0000
vt 976.6875 0.0000
vt 976.6875 2.1250
vt 978.6250 2.1250
vt -19.8750 0.0000
vt -17.9375 0.0000
vt -17.9375 2.1250
vt -19.8750 2.1250
vt -17.9375 0.0000
vt -19.8750 0.0000
vt -19.8750 2.1250
vt -17.9375 2.1250
vt 980.1250 -19.8750
vt 980.1250 -17.9375
vt 982.0625 -17.9375
vt 982.0625 -19.8750
vt 980.1250 -19.8750
vt 982.0625 -19.8750
vt 982.0625 -17.9375
vt 980.1250 -17.9375
vt 980.1250 0.0000
vt 982.0625 0.0000
vt 982.0625 2.1250
vt 980.1250 2.1250
vt 982.0625 0.0000
vt 980.1250 0.0000
vt 980.1250 2.1250
vt 982.0625 2.1250
vt -19.8750 0.0000
vt -17.9375 0.0000
vt -17.9375 2.1250
vt -19.8750 2.1250
vt -17.9375 0.0000
vt -19.8750 0.0000
vt -19.8750 2.1250
vt -17.9375 2.1250
vt 981.8438 -19.8750
vt 981.8438 -17.9375
vt 983.7812 -17.9375
vt 983.7812 -19.8750
vt 981.8438 -19.8750
vt 983.7812 -19.8750
vt 983.7812 -17.9375
vt 981.8438 -17.9375
vt 981.8438 0.0000
vt 983.7812 0.0000
vt 983.7812 2.1250
vt 981.8438 2.1250
vt 983.7812 0.0000
vt 981.8438 0.0000
vt 981.8438 2.1250
vt 983.7812 2.1250
vt -19.8750 0.0000
vt -17.9375 0.0000
vt -17.9375 2.1250
vt -19.8750 2.1250
vt -17.9375 0.0000
vt -19.8750 0.0000
vt -19.8750 2.1250
vt -17.9375 2.1250
vt 985.2812 -19.8750
vt 985.2812 -17.9375
vt 987.2187 -17.9375
vt 987.2187 -19.8750
vt 985.2812 -19.8750
vt 987.2187 -19.8750
vt 987.2187 -17.9375
vt 985.2812 -17.9375
vt 985.2812 0.0000
vt 987.2187 0.0000
vt 987.2187 2.1250
vt 985.2812 2.1250
vt 987.2187 0.0000
vt 985.2812 0.0000
vt 985.2812 2.1250
vt 987.2187 2.1250
vt -19.8750 0.0000
vt -17.9375 0.0000
vt -17.9375 2.1250
vt -19.8750 2.1250
vt -17.9375 0.0000
vt -19.8750 0.0000
vt -19.8750 2.1250
vt -17.9375 2.1250
vt 987.0000 -19.8750
vt 987.0000 -17.9375
vt 988.9375 -17.9375
vt 988.9375 -19.8750
vt 987.0000 -19.8750
vt 988.9375 -19.8750
vt 988.9375 -17.9375
vt 987.0000 -17.9375
vt 987.0000 0.0000
vt 988.9375 0.0000
vt 988.9375 2.1250
vt 987.0000 2.1250
vt 988.9375 0.0000
vt 987.0000 0.0000
vt 987.0000 2.1250
vt 988.9375 2.1250
vt -19.8750 0.0000
vt -17.9375 0.0000
vt -17.9375 2.1250
vt -19.8750 2.1250
vt -17.9375 0.0000
vt -19.8750 0.0000
vt -19.8750 2.1250
vt -17.9375 2.1250
vt 990.4375 -19.8750
vt 990.4375 -17.9375
vt 992.3750 -17.9375
vt 992.3750 -19.8750
vt 990.4375 -19.8750
vt 992.3750 -19.8750
vt 992.3750 -17.9375
vt 990.4375 -17.9375
vt 990.4375 0.0000
vt 992.3750 0.0000
vt 992.3750 2.1250
vt 990.4375 2.1250
vt 992.3750 0.0000
vt 990.4375 0.0000
vt 990.4375 2.1250
vt 992.3750 2.1250
vt -19.8750 0.0000
vt -17.9375 0.0000
vt -17.9375 2.1250
vt -19.8750 2.1250
vt -17.9375 0.0000
vt -19.8750 0.0000
vt -19.8750 2.1250
vt -17.9375 2.1250
vt 983.5625 -18.1562
vt 983.5625 -16.2188
vt 985.5000 -16.2188
vt 985.5000 -18.1562
vt 983.5625 -18.1562
vt 985.5000 -18.1562
vt 985.5000 -16.2188
vt 983.5625 -16.2188
vt 983.5625 0.0000
vt 985.5000 0.0000
vt 985.5000 2.1250
vt 983.5625 2.1250
vt 985.5000 0.0000
vt 983.5625 0.0000
vt 983.5625 2.1250
vt 985.5000 2.1250
vt -18.1562 0.0000
vt -16.2188 0.0000
vt -16.2188 2.1250
vt -18.1562 2.1250
vt -16.2188 0.0000
vt -18.1562 0.0000
vt -18.1562 2.1250
vt -16.2188 2.1250
vt 976.6875 -16.4375
vt 976.6875 -14.5000
vt 978.6250 -14.5000
vt 978.6250 -16.4375
vt 976.6875 -16.4375
vt 978.6250 -16.4375
vt 978.6250 -14.5000
vt 976.6875 -14.5000
vt 976.6875 0.0000
vt 978.6250 0.0000
vt 978.6250 2.1250
vt 976.6875 2.1250
vt 978.6250 0.0000
vt 976.6875 0.0000
vt 976.6875 2.1250
vt 978.6250 2.1250
vt -16.4375 0.0000
vt -14.5000 0.0000
vt -14.5000 2.1250
vt -16.4375 2.1250
vt -14.5000 0.0000
vt -16.4375 0.0000
vt -16.4375 2.1250
vt -14.5000 2.1250
vt 978.4062 -16.4375
vt 978.4062 -14.5000
vt 980.3437 -14.5000
vt 980.3437 -16.4375
vt 978.4062 -16.4375
vt 980.3437 -16.4375
vt 980.3437 -14.5000
vt 978.4062 -14.5000
vt 978.4062 0.0000
vt 980.3437 0.0000
vt 980.3437 2.1250
vt 978.4062 2.1250
vt 980.3437 0.0000
vt 978.4062 0.0000
vt 978.4062 2.1250
vt 980.3437 2.1250
vt -16.4375 0.0000
vt -14.5000 0.0000
vt -14.5000 2.1250
vt -16.4375 2.1250
vt -14.5000 0.0000
vt -16.4375 0.0000
vt -16.4375 2.1250
vt -14.5000 2.1250
vt 990.4375 -16.4375
vt 990.4375 -14.5000
vt 992.3750 -14.5000
vt 992.3750 -16.4375
vt 990.4375 -16.4375
vt 992.3750 -16.4375
vt 992.3750 -14.5000
vt 990.4375 -14.5000
vt 990.4375 0.0000
vt 992.3750 0.0000
vt 992.3750 2.1250
vt 990.4375 2.1250
vt 992.3750 0.0000
vt 990.4375 0.0000
vt 990.4375 2.1250
vt 992.3750 2.1250
vt -16.4375 0.0000
vt -14.5000 0.0000
vt -14.5000 2.1250
vt -16.4375 2.1250
vt -14.5000 0.0000
vt -16.4375 0.0000
vt -16.4375 2.1250
vt -14.5000 2.1250
vt 980.1250 -14.7188
vt 980.1250 -12.7812
vt 982.0625 -12.7812
vt 982.0625 -14.7188
vt 980.1250 -14.7188
vt 982.0625 -14.7188
vt 982.0625 -12.7812
vt 980.1250 -12.7812
vt 980.1250 0.0000
vt 982.0625 0.0000
vt 982.0625 2.1250
vt 980.1250 2.1250
vt 982.0625 0.0000
vt 980.1250 0.0000
vt 980.1250 2.1250
vt 982.0625 2.1250
vt -14.7188 0.0000
vt -12.7812 0.0000
vt -12.7812 2.1250
vt -14.7188 2.1250
vt -12.7812 0.0000
vt -14.7188 0.0000
vt -14.7188 2.1250
vt -12.7812 2.1250
vt 976.6875 -13.0000
vt 976.6875 -11.0625
vt 978.6250 -11.0625
vt 978.6250 -13.0000
vt 976.6875 -13.0000
vt 978.6250 -13.0000
vt 978.6250 -11.0625
vt 976.6875 -11.0625
vt 976.6875 0.0000
vt 978.6250 0.0000
vt 978.6250 2.1250
vt 976.6875 2.1250
vt 978.6250 0.0000
vt 976.6875 0.0000
vt 976.6875 2.1250
vt 978.6250 2.1250
vt -13.0000 0.0000
vt -11.0625 0.0000
vt -11.0625 2.1250
vt -13.0000 2.1250
vt -11.0625 0.0000
vt -13.0000 0.0000
vt -13.0000 2.1250
vt -11.0625 2.1250
vt 978.4062 -13.0000
vt 978.4062 -11.0625
vt 980.3437 -11.0625
vt 980.3437 -13.0000
vt 978.4062 -13.0000
vt 980.3437 -13.0000
vt 980.3437 -11.0625
vt 978.4062 -11.0625
vt 978.4062 0.0000
vt 980.3437 0.0000
vt 980.3437 2.1250
vt 978.4062 2.1250
vt 980.3437 0.0000
vt 978.4062 0.0000
vt 978.4062 2.1250
vt 980.3437 2.1250
vt -13.0000 0.0000
vt -11.0625 0.0000
vt -11.0625 2.1250
vt -13.0000 2.1250
vt -11.0625 0.0000
vt -13.0000 0.0000
vt -13.0000 2.1250
vt -11.0625 2.1250
vt 980.1250 -13.0000
vt 980.1250 -11.0625
vt 982.0625 -11.0625
vt 982.0625 -13.0000
vt 980.1250 -13.0000
vt 982.0625 -13.0000
vt 982.0625 -11.0625
vt 980.1250 -11.0625
vt 980.1250 0.0000
vt 982.0625 0.0000
vt 982.0625 2.1250
vt 980.1250 2.1250
vt 982.0625 0.0000
vt 980.1250 0.0000
vt 980.1250 2.1250
vt 982.0625 2.1250
vt -13.0000 0.0000
vt -11.0625 0.0000
vt -11.0625 2.1250
vt -13.0000 2.1250
vt -11.0625 0.0000
vt -13.0000 0.0000
vt -13.0000 2.1250
vt -11.0625 2.1250
vt 983.5625 -13.0000
vt 983.5625 -11.0625
vt 985.5000 -11.0625
vt 985.5000 -13.0000
vt 983.5625 -13.0000
vt 985.5000 -13.0000
vt 985.5000 -11.0625
vt 983.5625 -11.0625
vt 983.5625 0.0000
vt 985.5000 0.0000
vt 985.5000 2.1250
vt 983.5625 2.1250
vt 985.5000 0.0000
vt 983.5625 0.0000
vt 983.5625 2.1250
vt 985.5000 2.1250
vt -13.0000 0.0000
vt -11.0625 0.0000
vt -11.0625 2.1250
vt -13.0000 2.1250
vt -11.0625 0.0000
vt -13.0000 0.0000
vt -13.0000 2.1250
vt -11.0625 2.1250
vt 987.0000 -13.0000
vt 987.0000 -11.0625
vt 988.9375 -11.0625
vt 988.9375 -13.0000
vt 987.0000 -13.0000
vt 988.9375 -13.0000
vt 988.9375 -11.0625
vt 987.0000 -11.0625
vt 987.0000 0.0000
vt 988.9375 0.0000
vt 988.9375 2.1250
vt 987.0000 2.1250
vt 988.9375 0.0000
vt 987.0000 0.0000
vt 987.0000 2.1250
vt 988.9375 2.1250
vt -13.0000 0.0000
vt -11.0625 0.0000
vt -11.0625 2.1250
vt -13.0000 2.1250
vt -11.0625 0.0000
vt -13.0000 0.0000
vt -13.0000 2.1250
vt -11.0625 2.1250
vt 988.7188 -13.0000
vt 988.7188 -11.0625
vt 990.6562 -11.0625
vt 990.6562 -13.0000
vt 988.7188 -13.0000
vt 990.6562 -13.0000
vt 990.6562 -11.0625
vt 988.7188 -11.0625
vt 988.7188 0.0000
vt 990.6562 0.0000
vt 990.6562 2.1250
vt 988.7188 2.1250
vt 990.6562 0.0000
vt 988.7188 0.0000
vt 988.7188 2.1250
vt 990.6562 2.1250
vt -13.0000 0.0000
vt -11.0625 0.0000
vt -11.0625 2.1250
vt -13.0000 2.1250
vt -11.0625 0.0000
vt -13.0000 0.0000
vt -13.0000 2.1250
vt -11.0625 2.1250
vt 992.1562 -13.0000
vt 992.1562 -11.0625
vt 994.0937 -11.0625
vt 994.0937 -13.0000
vt 992.1562 -13.0000
vt 994.0937 -13.0000
vt 994.0937 -11.0625
vt 992.1562 -11.0625
vt 992.1562 0.0000
vt 994.0937 0.0000
vt 994.0937 2.1250
vt 992.1562 2.1250
vt 994.0937 0.0000
vt 992.1562 0.0000
vt 992.1562 2.1250
vt 994.0937 2.1250
vt -13.0000 0.0000
vt -11.0625 0.0000
vt -11.0625 2.1250
vt -13.0000 2.1250
vt -11.0625 0.0000
vt -13.0000 0.0000
vt -13.0000 2.1250
vt -11.0625 2.1250
vt 976.6875 -11.2812
vt 976.6875 -9.3437
vt 978.6250 -9.3437
vt 978.6250 -11.2812
vt 976.6875 -11.2812
vt 978.6250 -11.2812
vt 978.6250 -9.3437
vt 976.6875 -9.3437
vt 976.6875 0.0000
vt 978.6250 0.0000
vt 978.6250 2.1250
vt 976.6875 2.1250
vt 978.6250 0.0000
vt 976.6875 0.0000
vt 976.6875 2.1250
vt 978.6250 2.1250
vt -11.2812 0.0000
vt -9.3437 0.0000
vt -9.3437 2.1250
vt -11.2812 2.1250
vt -9.3437 0.0000
vt -11.2812 0.0000
vt -11.2812 2.1250
vt -9.3437 2.1250
vt 990.4375 -11.2812
vt 990.4375 -9.3437
vt 992.3750 -9.3437
vt 992.3750 -11.2812
vt 990.4375 -11.2812
vt 992.3750 -11.2812
vt 992.3750 -9.3437
vt 990.4375 -9.3437
vt 990.4375 0.0000
vt 992.3750 0.0000
vt 992.3750 2.1250
vt 990.4375 2.1250
vt 992.3750 0.0000
vt 990.4375 0.0000
vt 990.4375 2.1250
vt 992.3750 2.1250
vt -11.2812 0.0000
vt -9.3437 0.0000
vt -9.3437 2.1250
vt -11.2812 2.1250
vt -9.3437 0.0000
vt -11.2812 0.0000
vt -11.2812 2.1250
vt -9.3437 2.1250
vt 976.6875 -9.5625
vt 976.6875 -7.6250
vt 978.6250 -7.6250
vt 978.6250 -9.5625
vt 976.6875 -9.5625
vt 978.6250 -9.5625
vt 978.6250 -7.6250
vt 976.6875 -7.6250
vt 976.6875 0.0000
vt 978.6250 0.0000
vt 978.6250 2.1250
vt 976.6875 2.1250
vt 978.6250 0.0000
vt 976.6875 0.0000
vt 976.6875 2.1250
vt 978.6250 2.1250
vt -9.5625 0.0000
vt -7.6250 0.0000
vt -7.6250 2.1250
vt -9.5625 2.1250
vt -7.6250 0.0000
vt -9.5625 0.0000
vt -9.5625 2.1250
vt -7.6250 2.1250
vt 980.1250 -9.5625
vt 980.1250 -7.6250
vt 982.0625 -7.6250
vt 982.0625 -9.5625
vt 980.1250 -9.5625
vt 982.0625 -9.5625
vt 982.0625 -7.6250
vt 980.1250 -7.6250
vt 980.1250 0.0000
vt 982.0625 0.0000
vt 982.0625 2.1250
vt 980.1250 2.1250
vt 982.0625 0.0000
vt 980.1250 0.0000
vt 980.1250 2.1250
vt 982.0625 2.1250
vt -9.5625 0.0000
vt -7.6250 0.0000
vt -7.6250 2.1250
vt -9.5625 2.1250
vt -7.6250 0.0000
vt -9.5625 0.0000
vt -9.5625 2.1250
vt -7.6250 2.1250
vt 981.8438 -9.5625
vt 981.8438 -7.6250
vt 983.7812 -7.6250
vt 983.7812 -9.5625
vt 981.8438 -9.5625
vt 983.7812 -9.5625
vt 983.7812 -7.6250
vt 981.8438 -7.6250
vt 981.8438 0.0000
vt 983.7812 0.0000
vt 983.7812 2.1250
vt 981.8438 2.1250
vt 983.7812 0.0000
vt 981.8438 0.0000
vt 981.8438 2.1250
vt 983.7812 2.1250
vt -9.5625 0.0000
vt -7.6250 0.0000
vt -7.6250 2.1250
vt -9.5625 2.1250
vt -7.6250 0.0000
vt -9.5625 0.0000
vt -9.5625 2.1250
vt -7.6250 2.1250
vt 983.5625 -9.5625
vt 983.5625 -7.6250
vt 985.5000 -7.6250
vt 985.5000 -9.5625
vt 983.5625 -9.5625
vt 985.5000 -9.5625
vt 985.5000 -7.6250
vt 983.5625 -7.6250
vt 983.5625 0.0000
vt 985.5000 0.0000
vt 985.5000 2.1250
vt 983.5625 2.1250
vt 985.5000 0.0000
vt 983.5625 0.0000
vt 983.5625 2.1250
vt 985.5000 2.1250
vt -9.5625 0.0000
vt -7.6250 0.0000
vt -7.6250 2.1250
vt -9.5625 2.1250
vt -7.6250 0.0000
vt -9.5625 0.0000
vt -9.5625 2.1250
vt -7.6250 2.1250
vt 987.0000 -9.5625
vt 987.0000 -7.6250
vt 988.9375 -7.6250
vt 988.9375 -9.5625
vt 987.0000 -9.5625
vt 988.9375 -9.5625
vt 988.9375 -7.6250
vt 987.0000 -7.6250
vt 987.0000 0.0000
vt 988.9375 0.0000
vt 988.9375 2.1250
vt 987.0000 2.1250
vt 988.9375 0.0000
vt 987.0000 0.0000
vt 987.0000 2.1250
vt 988.9375 2.1250
vt -9.5625 0.0000
vt -7.6250 0.0000
vt -7.6250 2.1250
vt -9.5625 2.1250
vt -7.6250 0.0000
vt -9.5625 0.0000
vt -9.5625 2.1250
vt -7.6250 2.1250
vt 988.7188 -9.5625
vt 988.7188 -7.6250
vt 990.6562 -7.6250
vt 990.6562 -9.5625
vt 988.7188 -9.5625
vt 990.6562 -9.5625
vt 990.6562 -7.6250
vt 988.7188 -7.6250
vt 988.7188 0.0000
vt 990.6562 0.0000
vt 990.6562 2.1250
vt 988.7188 2.1250
vt 990.6562 0.0000
vt 988.7188 0.0000
vt 988.7188 2.1250
vt 990.6562 2.1250
vt -9.5625 0.0000
vt -7.6250 0.0000
vt -7.6250 2.1250
vt -9.5625 2.1250
vt -7.6250 0.0000
vt -9.5625 0.0000
vt -9.5625 2.1250
vt -7.6250 2.1250
vt 990.4375 -9.5625
vt 990.4375 -7.6250
vt 992.3750 -7.6250
vt 992.3750 -9.5625
vt 990.4375 -9.5625
vt 992.3750 -9.5625
vt 992.3750 -7.6250
vt 990.4375 -7.6250
vt 990.4375 0.0000
vt 992.3750 0.0000
vt 992.3750 2.1250
vt 990.4375 2.1250
vt 992.3750 0.0000
vt 990.4375 0.0000
vt 990.4375 2.1250
vt 992.3750 2.1250
vt -9.5625 0.0000
vt -7.6250 0.0000
vt -7.6250 2.1250
vt -9.5625 2.1250
vt -7.6250 0.0000
vt -9.5625 0.0000
vt -9.5625 2.1250
vt -7.6250 2.1250
vt 976.6875 -7.8438
vt 976.6875 -5.9062
vt 978.6250 -5.9062
vt 978.6250 -7.8438
vt 976.6875 -7.8438
vt 978.6250 -7.8438
vt 978.6250 -5.9062
vt 976.6875 -5.9062
vt 976.6875 0.0000
vt 978.6250 0.0000
vt 978.6250 2.1250
vt 976.6875 2.1250
vt 978.6250 0.0000
vt 976.6875 0.0000
vt 976.6875 2.1250
vt 978.6250 2.1250
vt -7.8438 0.0000
vt -5.9062 0.0000
vt -5.9062 2.1250
vt -7.8438 2.1250
vt -5.9062 0.0000
vt -7.8438 0.0000
vt -7.8438 2.1250
vt -5.9062 2.1250
vt 987.0000 -7.8438
vt 987.0000 -5.9062
vt 988.9375 -5.9062
vt 988.9375 -7.8438
vt 987.0000 -7.8438
vt 988.9375 -7.8438
vt 988.9375 -5.9062
vt 987.0000 -5.9062
vt 987.0000 0.0000
vt 988.9375 0.0000
vt 988.9375 2.1250
vt 987.0000 2.1250
vt 988.9375 0.0000
vt 987.0000 0.0000
vt 987.0000 2.1250
vt 988.9375 2.1250
vt -7.8438 0.0000
vt -5.9062 0.0000
vt -5.9062 2.1250
vt -7.8438 2.1250
vt -5.9062 0.0000
vt -7.8438 0.0000
vt -7.8438 2.1250
vt -5.9062 2.1250
usemtl hotel_paper_alt
f 1 4 3 2
f 5 6 7 8
f 1 2 6 5
f 3 4 8 7
f 2 3 7 6
f 4 1 5 8
f 105 108 107 106
f 109 110 111 112
f 105 106 110 109
f 107 108 112 111
f 106 107 111 110
f 108 105 109 112
f 113 116 115 114
f 117 118 119 120
f 113 114 118 117
f 115 116 120 119
f 114 115 119 118
f 116 113 117 120
f 121 124 123 122
f 125 126 127 128
f 121 122 126 125
f 123 124 128 127
f 122 123 127 126
f 124 121 125 128
f 249 252 251 250
f 253 254 255 256
f 249 250 254 253
f 251 252 256 255
f 250 251 255 254
f 252 249 253 256
f 329 332 331 330
f 333 334 335 336
f 329 330 334 333
f 331 332 336 335
f 330 331 335 334
f 332 329 333 336
f 409 412 411 410
f 413 414 415 416
f 409 410 414 413
f 411 412 416 415
f 410 411 415 414
f 412 409 413 416
f 417 420 419 418
f 421 422 423 424
f 417 418 422 421
f 419 420 424 423
f 418 419 423 422
f 420 417 421 424
f 449 452 451 450
f 453 454 455 456
f 449 450 454 453
f 451 452 456 455
f 450 451 455 454
f 452 449 453 456
f 481 484 483 482
f 485 486 487 488
f 481 482 486 485
f 483 484 488 487
f 482 483 487 486
f 484 481 485 488
f 633 636 635 634
f 637 638 639 640
f 633 634 638 637
f 635 636 640 639
f 634 635 639 638
f 636 633 637 640
f 689 692 691 690
f 693 694 695 696
f 689 690 694 693
f 691 692 696 695
f 690 691 695 694
f 692 689 693 696
f 817 820 819 818
f 821 822 823 824
f 817 818 822 821
f 819 820 824 823
f 818 819 823 822
f 820 817 821 824
usemtl lamp_warm
f 945 948 947 946
f 949 950 951 952
f 945 946 950 949
f 947 948 952 951
f 946 947 951 950
f 948 945 949 952
usemtl hotel_trim
f 953 956 955 954
f 957 958 959 960
f 953 954 958 957
f 955 956 960 959
f 954 955 959 958
f 956 953 957 960
usemtl lamp_warm
f 961 964 963 962
f 965 966 967 968
f 961 962 966 965
f 963 964 968 967
f 962 963 967 966
f 964 961 965 968
usemtl hotel_trim
f 969 972 971 970
f 973 974 975 976
f 969 970 974 973
f 971 972 976 975
f 970 971 975 974
f 972 969 973 976
usemtl lamp_warm
f 977 980 979 978
f 981 982 983 984
f 977 978 982 981
f 979 980 984 983
f 978 979 983 982
f 980 977 981 984
usemtl hotel_trim
f 985 988 987 986
f 989 990 991 992
f 985 986 990 989
f 987 988 992 991
f 986 987 991 990
f 988 985 989 992
usemtl lamp_warm
f 993 996 995 994
f 997 998 999 1000
f 993 994 998 997
f 995 996 1000 999
f 994 995 999 998
f 996 993 997 1000
usemtl hotel_trim
f 1001 1004 1003 1002
f 1005 1006 1007 1008
f 1001 1002 1006 1005
f 1003 1004 1008 1007
f 1002 1003 1007 1006
f 1004 1001 1005 1008
usemtl lamp_warm
f 1009 1012 1011 1010
f 1013 1014 1015 1016
f 1009 1010 1014 1013
f 1011 1012 1016 1015
f 1010 1011 1015 1014
f 1012 1009 1013 1016
usemtl hotel_trim
f 1017 1020 1019 1018
f 1021 1022 1023 1024
f 1017 1018 1022 1021
f 1019 1020 1024 1023
f 1018 1019 1023 1022
f 1020 1017 1021 1024
usemtl lamp_warm
f 1025 1028 1027 1026
f 1029 1030 1031 1032
f 1025 1026 1030 1029
f 1027 1028 1032 1031
f 1026 1027 1031 1030
f 1028 1025 1029 1032
usemtl hotel_trim
f 1033 1036 1035 1034
f 1037 1038 1039 1040
f 1033 1034 1038 1037
f 1035 1036 1040 1039
f 1034 1035 1039 1038
f 1036 1033 1037 1040
usemtl lamp_warm
f 1041 1044 1043 1042
f 1045 1046 1047 1048
f 1041 1042 1046 1045
f 1043 1044 1048 1047
f 1042 1043 1047 1046
f 1044 1041 1045 1048
usemtl hotel_trim
f 1049 1052 1051 1050
f 1053 1054 1055 1056
f 1049 1050 1054 1053
f 1051 1052 1056 1055
f 1050 1051 1055 1054
f 1052 1049 1053 1056
usemtl lamp_warm
f 1057 1060 1059 1058
f 1061 1062 1063 1064
f 1057 1058 1062 1061
f 1059 1060 1064 1063
f 1058 1059 1063 1062
f 1060 1057 1061 1064
usemtl hotel_trim
f 1065 1068 1067 1066
f 1069 1070 1071 1072
f 1065 1066 1070 1069
f 1067 1068 1072 1071
f 1066 1067 1071 1070
f 1068 1065 1069 1072
usemtl lamp_warm
f 1073 1076 1075 1074
f 1077 1078 1079 1080
f 1073 1074 1078 1077
f 1075 1076 1080 1079
f 1074 1075 1079 1078
f 1076 1073 1077 1080
usemtl hotel_trim
f 1081 1084 1083 1082
f 1085 1086 1087 1088
f 1081 1082 1086 1085
f 1083 1084 1088 1087
f 1082 1083 1087 1086
f 1084 1081 1085 1088
usemtl lamp_warm
f 1089 1092 1091 1090
f 1093 1094 1095 1096
f 1089 1090 1094 1093
f 1091 1092 1096 1095
f 1090 1091 1095 1094
f 1092 1089 1093 1096
usemtl hotel_trim
f 1097 1100 1099 1098
f 1101 1102 1103 1104
f 1097 1098 1102 1101
f 1099 1100 1104 1103
f 1098 1099 1103 1102
f 1100 1097 1101 1104
usemtl lamp_warm
f 1105 1108 1107 1106
f 1109 1110 1111 1112
f 1105 1106 1110 1109
f 1107 1108 1112 1111
f 1106 1107 1111 1110
f 1108 1105 1109 1112
usemtl hotel_trim
f 1113 1116 1115 1114
f 1117 1118 1119 1120
f 1113 1114 1118 1117
f 1115 1116 1120 1119
f 1114 1115 1119 1118
f 1116 1113 1117 1120
usemtl lamp_warm
f 1121 1124 1123 1122
f 1125 1126 1127 1128
f 1121 1122 1126 1125
f 1123 1124 1128 1127
f 1122 1123 1127 1126
f 1124 1121 1125 1128
usemtl hotel_trim
f 1129 1132 1131 1130
f 1133 1134 1135 1136
f 1129 1130 1134 1133
f 1131 1132 1136 1135
f 1130 1131 1135 1134
f 1132 1129 1133 1136
usemtl lamp_warm
f 1137 1140 1139 1138
f 1141 1142 1143 1144
f 1137 1138 1142 1141
f 1139 1140 1144 1143
f 1138 1139 1143 1142
f 1140 1137 1141 1144
usemtl hotel_trim
f 1145 1148 1147 1146
f 1149 1150 1151 1152
f 1145 1146 1150 1149
f 1147 1148 1152 1151
f 1146 1147 1151 1150
f 1148 1145 1149 1152
usemtl lamp_warm
f 1153 1156 1155 1154
f 1157 1158 1159 1160
f 1153 1154 1158 1157
f 1155 1156 1160 1159
f 1154 1155 1159 1158
f 1156 1153 1157 1160
usemtl hotel_trim
f 1161 1164 1163 1162
f 1165 1166 1167 1168
f 1161 1162 1166 1165
f 1163 1164 1168 1167
f 1162 1163 1167 1166
f 1164 1161 1165 1168
usemtl door_wood
f 1169 1172 1171 1170
f 1173 1174 1175 1176
f 1169 1170 1174 1173
f 1171 1172 1176 1175
f 1170 1171 1175 1174
f 1172 1169 1173 1176
usemtl door_brass
f 1177 1180 1179 1178
f 1181 1182 1183 1184
f 1177 1178 1182 1181
f 1179 1180 1184 1183
f 1178 1179 1183 1182
f 1180 1177 1181 1184
usemtl door_wood
f 1185 1188 1187 1186
f 1189 1190 1191 1192
f 1185 1186 1190 1189
f 1187 1188 1192 1191
f 1186 1187 1191 1190
f 1188 1185 1189 1192
usemtl door_brass
f 1193 1196 1195 1194
f 1197 1198 1199 1200
f 1193 1194 1198 1197
f 1195 1196 1200 1199
f 1194 1195 1199 1198
f 1196 1193 1197 1200
usemtl door_wood
f 1201 1204 1203 1202
f 1205 1206 1207 1208
f 1201 1202 1206 1205
f 1203 1204 1208 1207
f 1202 1203 1207 1206
f 1204 1201 1205 1208
usemtl door_brass
f 1209 1212 1211 1210
f 1213 1214 1215 1216
f 1209 1210 1214 1213
f 1211 1212 1216 1215
f 1210 1211 1215 1214
f 1212 1209 1213 1216
usemtl door_wood
f 1217 1220 1219 1218
f 1221 1222 1223 1224
f 1217 1218 1222 1221
f 1219 1220 1224 1223
f 1218 1219 1223 1222
f 1220 1217 1221 1224
usemtl door_brass
f 1225 1228 1227 1226
f 1229 1230 1231 1232
f 1225 1226 1230 1229
f 1227 1228 1232 1231
f 1226 1227 1231 1230
f 1228 1225 1229 1232
usemtl door_wood
f 1233 1236 1235 1234
f 1237 1238 1239 1240
f 1233 1234 1238 1237
f 1235 1236 1240 1239
f 1234 1235 1239 1238
f 1236 1233 1237 1240
usemtl door_brass
f 1241 1244 1243 1242
f 1245 1246 1247 1248
f 1241 1242 1246 1245
f 1243 1244 1248 1247
f 1242 1243 1247 1246
f 1244 1241 1245 1248
usemtl door_wood
f 1249 1252 1251 1250
f 1253 1254 1255 1256
f 1249 1250 1254 1253
f 1251 1252 1256 1255
f 1250 1251 1255 1254
f 1252 1249 1253 1256
usemtl door_brass
f 1257 1260 1259 1258
f 1261 1262 1263 1264
f 1257 1258 1262 1261
f 1259 1260 1264 1263
f 1258 1259 1263 1262
f 1260 1257 1261 1264
usemtl door_wood
f 1265 1268 1267 1266
f 1269 1270 1271 1272
f 1265 1266 1270 1269
f 1267 1268 1272 1271
f 1266 1267 1271 1270
f 1268 1265 1269 1272
usemtl door_brass
f 1273 1276 1275 1274
f 1277 1278 1279 1280
f 1273 1274 1278 1277
f 1275 1276 1280 1279
f 1274 1275 1279 1278
f 1276 1273 1277 1280
usemtl door_wood
f 1281 1284 1283 1282
f 1285 1286 1287 1288
f 1281 1282 1286 1285
f 1283 1284 1288 1287
f 1282 1283 1287 1286
f 1284 1281 1285 1288
usemtl door_brass
f 1289 1292 1291 1290
f 1293 1294 1295 1296
f 1289 1290 1294 1293
f 1291 1292 1296 1295
f 1290 1291 1295 1294
f 1292 1289 1293 1296
usemtl door_wood
f 1297 1300 1299 1298
f 1301 1302 1303 1304
f 1297 1298 1302 1301
f 1299 1300 1304 1303
f 1298 1299 1303 1302
f 1300 1297 1301 1304
usemtl door_brass
f 1305 1308 1307 1306
f 1309 1310 1311 1312
f 1305 1306 1310 1309
f 1307 1308 1312 1311
f 1306 1307 1311 1310
f 1308 1305 1309 1312
usemtl door_wood
f 1313 1316 1315 1314
f 1317 1318 1319 1320
f 1313 1314 1318 1317
f 1315 1316 1320 1319
f 1314 1315 1319 1318
f 1316 1313 1317 1320
usemtl door_brass
f 1321 1324 1323 1322
f 1325 1326 1327 1328
f 1321 1322 1326 1325
f 1323 1324 1328 1327
f 1322 1323 1327 1326
f 1324 1321 1325 1328
usemtl door_wood
f 1329 1332 1331 1330
f 1333 1334 1335 1336
f 1329 1330 1334 1333
f 1331 1332 1336 1335
f 1330 1331 1335 1334
f 1332 1329 1333 1336
usemtl door_brass
f 1337 1340 1339 1338
f 1341 1342 1343 1344
f 1337 1338 1342 1341
f 1339 1340 1344 1343
f 1338 1339 1343 1342
f 1340 1337 1341 1344
usemtl door_wood
f 1345 1348 1347 1346
f 1349 1350 1351 1352
f 1345 1346 1350 1349
f 1347 1348 1352 1351
f 1346 1347 1351 1350
f 1348 1345 1349 1352
usemtl door_brass
f 1353 1356 1355 1354
f 1357 1358 1359 1360
f 1353 1354 1358 1357
f 1355 1356 1360 1359
f 1354 1355 1359 1358
f 1356 1353 1357 1360
usemtl door_wood
f 1361 1364 1363 1362
f 1365 1366 1367 1368
f 1361 1362 1366 1365
f 1363 1364 1368 1367
f 1362 1363 1367 1366
f 1364 1361 1365 1368
usemtl door_brass
f 1369 1372 1371 1370
f 1373 1374 1375 1376
f 1369 1370 1374 1373
f 1371 1372 1376 1375
f 1370 1371 1375 1374
f 1372 1369 1373 1376
usemtl door_wood
f 1377 1380 1379 1378
f 1381 1382 1383 1384
f 1377 1378 1382 1381
f 1379 1380 1384 1383
f 1378 1379 1383 1382
f 1380 1377 1381 1384
usemtl door_brass
f 1385 1388 1387 1386
f 1389 1390 1391 1392
f 1385 1386 1390 1389
f 1387 1388 1392 1391
f 1386 1387 1391 1390
f 1388 1385 1389 1392
usemtl hotel_paper
f 9/1 10/2 11/3 12/4
f 13/5 14/6 15/7 16/8
f 17/9 18/10 19/11 20/12
f 21/13 22/14 23/15 24/16
f 25/17 26/18 27/19 28/20
f 29/21 30/22 31/23 32/24
f 33/25 34/26 35/27 36/28
f 37/29 38/30 39/31 40/32
f 41/33 42/34 43/35 44/36
f 45/37 46/38 47/39 48/40
f 49/41 50/42 51/43 52/44
f 53/45 54/46 55/47 56/48
f 57/49 58/50 59/51 60/52
f 61/53 62/54 63/55 64/56
f 65/57 66/58 67/59 68/60
f 69/61 70/62 71/63 72/64
f 73/65 74/66 75/67 76/68
f 77/69 78/70 79/71 80/72
f 81/73 82/74 83/75 84/76
f 85/77 86/78 87/79 88/80
f 89/81 90/82 91/83 92/84
f 93/85 94/86 95/87 96/88
f 97/89 98/90 99/91 100/92
f 101/93 102/94 103/95 104/96
f 129/97 130/98 131/99 132/100
f 133/101 134/102 135/103 136/104
f 137/105 138/106 139/107 140/108
f 141/109 142/110 143/111 144/112
f 145/113 146/114 147/115 148/116
f 149/117 150/118 151/119 152/120
f 153/121 154/122 155/123 156/124
f 157/125 158/126 159/127 160/128
f 161/129 162/130 163/131 164/132
f 165/133 166/134 167/135 168/136
f 169/137 170/138 171/139 172/140
f 173/141 174/142 175/143 176/144
f 177/145 178/146 179/147 180/148
f 181/149 182/150 183/151 184/152
f 185/153 186/154 187/155 188/156
f 189/157 190/158 191/159 192/160
f 193/161 194/162 195/163 196/164
f 197/165 198/166 199/167 200/168
f 201/169 202/170 203/171 204/172
f 205/173 206/174 207/175 208/176
f 209/177 210/178 211/179 212/180
f 213/181 214/182 215/183 216/184
f 217/185 218/186 219/187 220/188
f 221/189 222/190 223/191 224/192
f 225/193 226/194 227/195 228/196
f 229/197 230/198 231/199 232/200
f 233/201 234/202 235/203 236/204
f 237/205 238/206 239/207 240/208
f 241/209 242/210 243/211 244/212
f 245/213 246/214 247/215 248/216
f 257/217 258/218 259/219 260/220
f 261/221 262/222 263/223 264/224
f 265/225 266/226 267/227 268/228
f 269/229 270/230 271/231 272/232
f 273/233 274/234 275/235 276/236
f 277/237 278/238 279/239 280/240
f 281/241 282/242 283/243 284/244
f 285/245 286/246 287/247 288/248
f 289/249 290/250 291/251 292/252
f 293/253 294/254 295/255 296/256
f 297/257 298/258 299/259 300/260
f 301/261 302/262 303/263 304/264
f 305/265 306/266 307/267 308/268
f 309/269 310/270 311/271 312/272
f 313/273 314/274 315/275 316/276
f 317/277 318/278 319/279 320/280
f 321/281 322/282 323/283 324/284
f 325/285 326/286 327/287 328/288
f 337/289 338/290 339/291 340/292
f 341/293 342/294 343/295 344/296
f 345/297 346/298 347/299 348/300
f 349/301 350/302 351/303 352/304
f 353/305 354/306 355/307 356/308
f 357/309 358/310 359/311 360/312
f 361/313 362/314 363/315 364/316
f 365/317 366/318 367/319 368/320
f 369/321 370/322 371/323 372/324
f 373/325 374/326 375/327 376/328
f 377/329 378/330 379/331 380/332
f 381/333 382/334 383/335 384/336
f 385/337 386/338 387/339 388/340
f 389/341 390/342 391/343 392/344
f 393/345 394/346 395/347 396/348
f 397/349 398/350 399/351 400/352
f 401/353 402/354 403/355 404/356
f 405/357 406/358 407/359 408/360
f 425/361 426/362 427/363 428/364
f 429/365 430/366 431/367 432/368
f 433/369 434/370 435/371 436/372
f 437/373 438/374 439/375 440/376
f 441/377 442/378 443/379 444/380
f 445/381 446/382 447/383 448/384
f 457/385 458/386 459/387 460/388
f 461/389 462/390 463/391 464/392
f 465/393 466/394 467/395 468/396
f 469/397 470/398 471/399 472/400
f 473/401 474/402 475/403 476/404
f 477/405 478/406 479/407 480/408
f 489/409 490/410 491/411 492/412
f 493/413 494/414 495/415 496/416
f 497/417 498/418 499/419 500/420
f 501/421 502/422 503/423 504/424
f 505/425 506/426 507/427 508/428
f 509/429 510/430 511/431 512/432
f 513/433 514/434 515/435 516/436
f 517/437 518/438 519/439 520/440
f 521/441 522/442 523/443 524/444
f 525/445 526/446 527/447 528/448
f 529/449 530/450 531/451 532/452
f 533/453 534/454 535/455 536/456
f 537/457 538/458 539/459 540/460
f 541/461 542/462 543/463 544/464
f 545/465 546/466 547/467 548/468
f 549/469 550/470 551/471 552/472
f 553/473 554/474 555/475 556/476
f 557/477 558/478 559/479 560/480
f 561/481 562/482 563/483 564/484
f 565/485 566/486 567/487 568/488
f 569/489 570/490 571/491 572/492
f 573/493 574/494 575/495 576/496
f 577/497 578/498 579/499 580/500
f 581/501 582/502 583/503 584/504
f 585/505 586/506 587/507 588/508
f 589/509 590/510 591/511 592/512
f 593/513 594/514 595/515 596/516
f 597/517 598/518 599/519 600/520
f 601/521 602/522 603/523 604/524
f 605/525 606/526 607/527 608/528
f 609/529 610/530 611/531 612/532
f 613/533 614/534 615/535 616/536
f 617/537 618/538 619/539 620/540
f 621/541 622/542 623/543 624/544
f 625/545 626/546 627/547 628/548
f 629/549 630/550 631/551 632/552
f 641/553 642/554 643/555 644/556
f 645/557 646/558 647/559 648/560
f 649/561 650/562 651/563 652/564
f 653/565 654/566 655/567 656/568
f 657/569 658/570 659/571 660/572
f 661/573 662/574 663/575 664/576
f 665/577 666/578 667/579 668/580
f 669/581 670/582 671/583 672/584
f 673/585 674/586 675/587 676/588
f 677/589 678/590 679/591 680/592
f 681/593 682/594 683/595 684/596
f 685/597 686/598 687/599 688/600
f 697/601 698/602 699/603 700/604
f 701/605 702/606 703/607 704/608
f 705/609 706/610 707/611 708/612
f 709/613 710/614 711/615 712/616
f 713/617 714/618 715/619 716/620
f 717/621 718/622 719/623 720/624
f 721/625 722/626 723/627 724/628
f 725/629 726/630 727/631 728/632
f 729/633 730/634 731/635 732/636
f 733/637 734/638 735/639 736/640
f 737/641 738/642 739/643 740/644
f 741/645 742/646 743/647 744/648
f 745/649 746/650 747/651 748/652
f 749/653 750/654 751/655 752/656
f 753/657 754/658 755/659 756/660
f 757/661 758/662 759/663 760/664
f 761/665 762/666 763/667 764/668
f 765/669 766/670 767/671 768/672
f 769/673 770/674 771/675 772/676
f 773/677 774/678 775/679 776/680
f 777/681 778/682 779/683 780/684
f 781/685 782/686 783/687 784/688
f 785/689 786/690 787/691 788/692
f 789/693 790/694 791/695 792/696
f 793/697 794/698 795/699 796/700
f 797/701 798/702 799/703 800/704
f 801/705 802/706 803/707 804/708
f 805/709 806/710 807/711 808/712
f 809/713 810/714 811/715 812/716
f 813/717 814/718 815/719 816/720
f 825/721 826/722 827/723 828/724
f 829/725 830/726 831/727 832/728
f 833/729 834/730 835/731 836/732
f 837/733 838/734 839/735 840/736
f 841/737 842/738 843/739 844/740
f 845/741 846/742 847/743 848/744
f 849/745 850/746 851/747 852/748
f 853/749 854/750 855/751 856/752
f 857/753 858/754 859/755 860/756
f 861/757 862/758 863/759 864/760
f 865/761 866/762 867/763 868/764
f 869/765 870/766 871/767 872/768
f 873/769 874/770 875/771 876/772
f 877/773 878/774 879/775 880/776
f 881/777 882/778 883/779 884/780
f 885/781 886/782 887/783 888/784
f 889/785 890/786 891/787 892/788
f 893/789 894/790 895/791 896/792
f 897/793 898/794 899/795 900/796
f 901/797 902/798 903/799 904/800
f 905/801 906/802 907/803 908/804
f 909/805 910/806 911/807 912/808
f 913/809 914/810 915/811 916/812
f 917/813 918/814 919/815 920/816
f 921/817 922/818 923/819 924/820
f 925/821 926/822 927/823 928/824
f 929/825 930/826 931/827 932/828
f 933/829 934/830 935/831 936/832
f 937/833 938/834 939/835 940/836
f 941/837 942/838 943/839 944/840
