# RoastEngine Backrooms level
mtllib backrooms.mtl
v 376.0750 0.0000 36.0750
v 376.0750 0.0000 38.9250
v 378.9250 0.0000 38.9250
v 378.9250 0.0000 36.0750
v 376.0750 3.0000 36.0750
v 378.9250 3.0000 36.0750
v 378.9250 3.0000 38.9250
v 376.0750 3.0000 38.9250
v 376.0750 0.0000 36.0750
v 378.9250 0.0000 36.0750
v 378.9250 3.0000 36.0750
v 376.0750 3.0000 36.0750
v 378.9250 0.0000 38.9250
v 376.0750 0.0000 38.9250
v 376.0750 3.0000 38.9250
v 378.9250 3.0000 38.9250
v 378.9250 0.0000 36.0750
v 378.9250 0.0000 38.9250
v 378.9250 3.0000 38.9250
v 378.9250 3.0000 36.0750
v 376.0750 0.0000 38.9250
v 376.0750 0.0000 36.0750
v 376.0750 3.0000 36.0750
v 376.0750 3.0000 38.9250
v 378.5750 0.0000 36.0750
v 378.5750 0.0000 38.9250
v 381.4250 0.0000 38.9250
v 381.4250 0.0000 36.0750
v 378.5750 3.0000 36.0750
v 381.4250 3.0000 36.0750
v 381.4250 3.0000 38.9250
v 378.5750 3.0000 38.9250
v 378.5750 0.0000 36.0750
v 381.4250 0.0000 36.0750
v 381.4250 3.0000 36.0750
v 378.5750 3.0000 36.0750
v 381.4250 0.0000 38.9250
v 378.5750 0.0000 38.9250
v 378.5750 3.0000 38.9250
v 381.4250 3.0000 38.9250
v 381.4250 0.0000 36.0750
v 381.4250 0.0000 38.9250
v 381.4250 3.0000 38.9250
v 381.4250 3.0000 36.0750
v 378.5750 0.0000 38.9250
v 378.5750 0.0000 36.0750
v 378.5750 3.0000 36.0750
v 378.5750 3.0000 38.9250
v 381.0750 0.0000 36.0750
v 381.0750 0.0000 38.9250
v 383.9250 0.0000 38.9250
v 383.9250 0.0000 36.0750
v 381.0750 3.0000 36.0750
v 383.9250 3.0000 36.0750
v 383.9250 3.0000 38.9250
v 381.0750 3.0000 38.9250
v 381.0750 0.0000 36.0750
v 383.9250 0.0000 36.0750
v 383.9250 3.0000 36.0750
v 381.0750 3.0000 36.0750
v 383.9250 0.0000 38.9250
v 381.0750 0.0000 38.9250
v 381.0750 3.0000 38.9250
v 383.9250 3.0000 38.9250
v 383.9250 0.0000 36.0750
v 383.9250 0.0000 38.9250
v 383.9250 3.0000 38.9250
v 383.9250 3.0000 36.0750
v 381.0750 0.0000 38.9250
v 381.0750 0.0000 36.0750
v 381.0750 3.0000 36.0750
v 381.0750 3.0000 38.9250
v 386.0750 0.0000 36.0750
v 388.9250 0.0000 36.0750
v 388.9250 0.0000 38.9250
v 386.0750 0.0000 38.9250
v 386.0750 3.0000 36.0750
v 388.9250 3.0000 36.0750
v 388.9250 3.0000 38.9250
v 386.0750 3.0000 38.9250
v 401.0750 0.0000 36.0750
v 401.0750 0.0000 38.9250
v 403.9250 0.0000 38.9250
v 403.9250 0.0000 36.0750
v 401.0750 3.0000 36.0750
v 403.9250 3.0000 36.0750
v 403.9250 3.0000 38.9250
v 401.0750 3.0000 38.9250
v 401.0750 0.0000 36.0750
v 403.9250 0.0000 36.0750
v 403.9250 3.0000 36.0750
v 401.0750 3.0000 36.0750
v 403.9250 0.0000 38.9250
v 401.0750 0.0000 38.9250
v 401.0750 3.0000 38.9250
v 403.9250 3.0000 38.9250
v 403.9250 0.0000 36.0750
v 403.9250 0.0000 38.9250
v 403.9250 3.0000 38.9250
v 403.9250 3.0000 36.0750
v 401.0750 0.0000 38.9250
v 401.0750 0.0000 36.0750
v 401.0750 3.0000 36.0750
v 401.0750 3.0000 38.9250
v 376.0750 0.0000 38.5750
v 376.0750 0.0000 41.4250
v 378.9250 0.0000 41.4250
v 378.9250 0.0000 38.5750
v 376.0750 3.0000 38.5750
v 378.9250 3.0000 38.5750
v 378.9250 3.0000 41.4250
v 376.0750 3.0000 41.4250
v 376.0750 0.0000 38.5750
v 378.9250 0.0000 38.5750
v 378.9250 3.0000 38.5750
v 376.0750 3.0000 38.5750
v 378.9250 0.0000 41.4250
v 376.0750 0.0000 41.4250
v 376.0750 3.0000 41.4250
v 378.9250 3.0000 41.4250
v 378.9250 0.0000 38.5750
v 378.9250 0.0000 41.4250
v 378.9250 3.0000 41.4250
v 378.9250 3.0000 38.5750
v 376.0750 0.0000 41.4250
v 376.0750 0.0000 38.5750
v 376.0750 3.0000 38.5750
v 376.0750 3.0000 41.4250
v 381.0750 0.0000 38.5750
v 381.0750 0.0000 41.4250
v 383.9250 0.0000 41.4250
v 383.9250 0.0000 38.5750
v 381.0750 3.0000 38.5750
v 383.9250 3.0000 38.5750
v 383.9250 3.0000 41.4250
v 381.0750 3.0000 41.4250
v 381.0750 0.0000 38.5750
v 383.9250 0.0000 38.5750
v 383.9250 3.0000 38.5750
v 381.0750 3.0000 38.5750
v 383.9250 0.0000 41.4250
v 381.0750 0.0000 41.4250
v 381.0750 3.0000 41.4250
v 383.9250 3.0000 41.4250
v 383.9250 0.0000 38.5750
v 383.9250 0.0000 41.4250
v 383.9250 3.0000 41.4250
v 383.9250 3.0000 38.5750
v 381.0750 0.0000 41.4250
v 381.0750 0.0000 38.5750
v 381.0750 3.0000 38.5750
v 381.0750 3.0000 41.4250
v 386.0750 0.0000 38.5750
v 386.0750 0.0000 41.4250
v 388.9250 0.0000 41.4250
v 388.9250 0.0000 38.5750
v 386.0750 3.0000 38.5750
v 388.9250 3.0000 38.5750
v 388.9250 3.0000 41.4250
v 386.0750 3.0000 41.4250
v 386.0750 0.0000 38.5750
v 388.9250 0.0000 38.5750
v 388.9250 3.0000 38.5750
v 386.0750 3.0000 38.5750
v 388.9250 0.0000 41.4250
v 386.0750 0.0000 41.4250
v 386.0750 3.0000 41.4250
v 388.9250 3.0000 41.4250
v 388.9250 0.0000 38.5750
v 388.9250 0.0000 41.4250
v 388.9250 3.0000 41.4250
v 388.9250 3.0000 38.5750
v 386.0750 0.0000 41.4250
v 386.0750 0.0000 38.5750
v 386.0750 3.0000 38.5750
v 386.0750 3.0000 41.4250
v 401.0750 0.0000 38.5750
v 403.9250 0.0000 38.5750
v 403.9250 0.0000 41.4250
v 401.0750 0.0000 41.4250
v 401.0750 3.0000 38.5750
v 403.9250 3.0000 38.5750
v 403.9250 3.0000 41.4250
v 401.0750 3.0000 41.4250
v 376.0750 0.0000 41.0750
v 376.0750 0.0000 43.9250
v 378.9250 0.0000 43.9250
v 378.9250 0.0000 41.0750
v 376.0750 3.0000 41.0750
v 378.9250 3.0000 41.0750
v 378.9250 3.0000 43.9250
v 376.0750 3.0000 43.9250
v 376.0750 0.0000 41.0750
v 378.9250 0.0000 41.0750
v 378.9250 3.0000 41.0750
v 376.0750 3.0000 41.0750
v 378.9250 0.0000 43.9250
v 376.0750 0.0000 43.9250
v 376.0750 3.0000 43.9250
v 378.9250 3.0000 43.9250
v 378.9250 0.0000 41.0750
v 378.9250 0.0000 43.9250
v 378.9250 3.0000 43.9250
v 378.9250 3.0000 41.0750
v 376.0750 0.0000 43.9250
v 376.0750 0.0000 41.0750
v 376.0750 3.0000 41.0750
v 376.0750 3.0000 43.9250
v 381.0750 0.0000 41.0750
v 381.0750 0.0000 43.9250
v 383.9250 0.0000 43.9250
v 383.9250 0.0000 41.0750
v 381.0750 3.0000 41.0750
v 383.9250 3.0000 41.0750
v 383.9250 3.0000 43.9250
v 381.0750 3.0000 43.9250
v 381.0750 0.0000 41.0750
v 383.9250 0.0000 41.0750
v 383.9250 3.0000 41.0750
v 381.0750 3.0000 41.0750
v 383.9250 0.0000 43.9250
v 381.0750 0.0000 43.9250
v 381.0750 3.0000 43.9250
v 383.9250 3.0000 43.9250
v 383.9250 0.0000 41.0750
v 383.9250 0.0000 43.9250
v 383.9250 3.0000 43.9250
v 383.9250 3.0000 41.0750
v 381.0750 0.0000 43.9250
v 381.0750 0.0000 41.0750
v 381.0750 3.0000 41.0750
v 381.0750 3.0000 43.9250
v 386.0750 0.0000 41.0750
v 386.0750 0.0000 43.9250
v 388.9250 0.0000 43.9250
v 388.9250 0.0000 41.0750
v 386.0750 3.0000 41.0750
v 388.9250 3.0000 41.0750
v 388.9250 3.0000 43.9250
v 386.0750 3.0000 43.9250
v 386.0750 0.0000 41.0750
v 388.9250 0.0000 41.0750
v 388.9250 3.0000 41.0750
v 386.0750 3.0000 41.0750
v 388.9250 0.0000 43.9250
v 386.0750 0.0000 43.9250
v 386.0750 3.0000 43.9250
v 388.9250 3.0000 43.9250
v 388.9250 0.0000 41.0750
v 388.9250 0.0000 43.9250
v 388.9250 3.0000 43.9250
v 388.9250 3.0000 41.0750
v 386.0750 0.0000 43.9250
v 386.0750 0.0000 41.0750
v 386.0750 3.0000 41.0750
v 386.0750 3.0000 43.9250
v 388.5750 0.0000 41.0750
v 388.5750 0.0000 43.9250
v 391.4250 0.0000 43.9250
v 391.4250 0.0000 41.0750
v 388.5750 3.0000 41.0750
v 391.4250 3.0000 41.0750
v 391.4250 3.0000 43.9250
v 388.5750 3.0000 43.9250
v 388.5750 0.0000 41.0750
v 391.4250 0.0000 41.0750
v 391.4250 3.0000 41.0750
v 388.5750 3.0000 41.0750
v 391.4250 0.0000 43.9250
v 388.5750 0.0000 43.9250
v 388.5750 3.0000 43.9250
v 391.4250 3.0000 43.9250
v 391.4250 0.0000 41.0750
v 391.4250 0.0000 43.9250
v 391.4250 3.0000 43.9250
v 391.4250 3.0000 41.0750
v 388.5750 0.0000 43.9250
v 388.5750 0.0000 41.0750
v 388.5750 3.0000 41.0750
v 388.5750 3.0000 43.9250
v 391.0750 0.0000 41.0750
v 393.9250 0.0000 41.0750
v 393.9250 0.0000 43.9250
v 391.0750 0.0000 43.9250
v 391.0750 3.0000 41.0750
v 393.9250 3.0000 41.0750
v 393.9250 3.0000 43.9250
v 391.0750 3.0000 43.9250
v 396.0750 0.0000 41.0750
v 398.9250 0.0000 41.0750
v 398.9250 0.0000 43.9250
v 396.0750 0.0000 43.9250
v 396.0750 3.0000 41.0750
v 398.9250 3.0000 41.0750
v 398.9250 3.0000 43.9250
v 396.0750 3.0000 43.9250
v 401.0750 0.0000 41.0750
v 401.0750 0.0000 43.9250
v 403.9250 0.0000 43.9250
v 403.9250 0.0000 41.0750
v 401.0750 3.0000 41.0750
v 403.9250 3.0000 41.0750
v 403.9250 3.0000 43.9250
v 401.0750 3.0000 43.9250
v 401.0750 0.0000 41.0750
v 403.9250 0.0000 41.0750
v 403.9250 3.0000 41.0750
v 401.0750 3.0000 41.0750
v 403.9250 0.0000 43.9250
v 401.0750 0.0000 43.9250
v 401.0750 3.0000 43.9250
v 403.9250 3.0000 43.9250
v 403.9250 0.0000 41.0750
v 403.9250 0.0000 43.9250
v 403.9250 3.0000 43.9250
v 403.9250 3.0000 41.0750
v 401.0750 0.0000 43.9250
v 401.0750 0.0000 41.0750
v 401.0750 3.0000 41.0750
v 401.0750 3.0000 43.9250
v 403.5750 0.0000 41.0750
v 403.5750 0.0000 43.9250
v 406.4250 0.0000 43.9250
v 406.4250 0.0000 41.0750
v 403.5750 3.0000 41.0750
v 406.4250 3.0000 41.0750
v 406.4250 3.0000 43.9250
v 403.5750 3.0000 43.9250
v 403.5750 0.0000 41.0750
v 406.4250 0.0000 41.0750
v 406.4250 3.0000 41.0750
v 403.5750 3.0000 41.0750
v 406.4250 0.0000 43.9250
v 403.5750 0.0000 43.9250
v 403.5750 3.0000 43.9250
v 406.4250 3.0000 43.9250
v 406.4250 0.0000 41.0750
v 406.4250 0.0000 43.9250
v 406.4250 3.0000 43.9250
v 406.4250 3.0000 41.0750
v 403.5750 0.0000 43.9250
v 403.5750 0.0000 41.0750
v 403.5750 3.0000 41.0750
v 403.5750 3.0000 43.9250
v 381.0750 0.0000 43.5750
v 381.0750 0.0000 46.4250
v 383.9250 0.0000 46.4250
v 383.9250 0.0000 43.5750
v 381.0750 3.0000 43.5750
v 383.9250 3.0000 43.5750
v 383.9250 3.0000 46.4250
v 381.0750 3.0000 46.4250
v 381.0750 0.0000 43.5750
v 383.9250 0.0000 43.5750
v 383.9250 3.0000 43.5750
v 381.0750 3.0000 43.5750
v 383.9250 0.0000 46.4250
v 381.0750 0.0000 46.4250
v 381.0750 3.0000 46.4250
v 383.9250 3.0000 46.4250
v 383.9250 0.0000 43.5750
v 383.9250 0.0000 46.4250
v 383.9250 3.0000 46.4250
v 383.9250 3.0000 43.5750
v 381.0750 0.0000 46.4250
v 381.0750 0.0000 43.5750
v 381.0750 3.0000 43.5750
v 381.0750 3.0000 46.4250
v 391.0750 0.0000 43.5750
v 391.0750 0.0000 46.4250
v 393.9250 0.0000 46.4250
v 393.9250 0.0000 43.5750
v 391.0750 3.0000 43.5750
v 393.9250 3.0000 43.5750
v 393.9250 3.0000 46.4250
v 391.0750 3.0000 46.4250
v 391.0750 0.0000 43.5750
v 393.9250 0.0000 43.5750
v 393.9250 3.0000 43.5750
v 391.0750 3.0000 43.5750
v 393.9250 0.0000 46.4250
v 391.0750 0.0000 46.4250
v 391.0750 3.0000 46.4250
v 393.9250 3.0000 46.4250
v 393.9250 0.0000 43.5750
v 393.9250 0.0000 46.4250
v 393.9250 3.0000 46.4250
v 393.9250 3.0000 43.5750
v 391.0750 0.0000 46.4250
v 391.0750 0.0000 43.5750
v 391.0750 3.0000 43.5750
v 391.0750 3.0000 46.4250
v 396.0750 0.0000 43.5750
v 396.0750 0.0000 46.4250
v 398.9250 0.0000 46.4250
v 398.9250 0.0000 43.5750
v 396.0750 3.0000 43.5750
v 398.9250 3.0000 43.5750
v 398.9250 3.0000 46.4250
v 396.0750 3.0000 46.4250
v 396.0750 0.0000 43.5750
v 398.9250 0.0000 43.5750
v 398.9250 3.0000 43.5750
v 396.0750 3.0000 43.5750
v 398.9250 0.0000 46.4250
v 396.0750 0.0000 46.4250
v 396.0750 3.0000 46.4250
v 398.9250 3.0000 46.4250
v 398.9250 0.0000 43.5750
v 398.9250 0.0000 46.4250
v 398.9250 3.0000 46.4250
v 398.9250 3.0000 43.5750
v 396.0750 0.0000 46.4250
v 396.0750 0.0000 43.5750
v 396.0750 3.0000 43.5750
v 396.0750 3.0000 46.4250
v 381.0750 0.0000 46.0750
v 381.0750 0.0000 48.9250
v 383.9250 0.0000 48.9250
v 383.9250 0.0000 46.0750
v 381.0750 3.0000 46.0750
v 383.9250 3.0000 46.0750
v 383.9250 3.0000 48.9250
v 381.0750 3.0000 48.9250
v 381.0750 0.0000 46.0750
v 383.9250 0.0000 46.0750
v 383.9250 3.0000 46.0750
v 381.0750 3.0000 46.0750
v 383.9250 0.0000 48.9250
v 381.0750 0.0000 48.9250
v 381.0750 3.0000 48.9250
v 383.9250 3.0000 48.9250
v 383.9250 0.0000 46.0750
v 383.9250 0.0000 48.9250
v 383.9250 3.0000 48.9250
v 383.9250 3.0000 46.0750
v 381.0750 0.0000 48.9250
v 381.0750 0.0000 46.0750
v 381.0750 3.0000 46.0750
v 381.0750 3.0000 48.9250
v 383.5750 0.0000 46.0750
v 383.5750 0.0000 48.9250
v 386.4250 0.0000 48.9250
v 386.4250 0.0000 46.0750
v 383.5750 3.0000 46.0750
v 386.4250 3.0000 46.0750
v 386.4250 3.0000 48.9250
v 383.5750 3.0000 48.9250
v 383.5750 0.0000 46.0750
v 386.4250 0.0000 46.0750
v 386.4250 3.0000 46.0750
v 383.5750 3.0000 46.0750
v 386.4250 0.0000 48.9250
v 383.5750 0.0000 48.9250
v 383.5750 3.0000 48.9250
v 386.4250 3.0000 48.9250
v 386.4250 0.0000 46.0750
v 386.4250 0.0000 48.9250
v 386.4250 3.0000 48.9250
v 386.4250 3.0000 46.0750
v 383.5750 0.0000 48.9250
v 383.5750 0.0000 46.0750
v 383.5750 3.0000 46.0750
v 383.5750 3.0000 48.9250
v 386.0750 0.0000 46.0750
v 386.0750 0.0000 48.9250
v 388.9250 0.0000 48.9250
v 388.9250 0.0000 46.0750
v 386.0750 3.0000 46.0750
v 388.9250 3.0000 46.0750
v 388.9250 3.0000 48.9250
v 386.0750 3.0000 48.9250
v 386.0750 0.0000 46.0750
v 388.9250 0.0000 46.0750
v 388.9250 3.0000 46.0750
v 386.0750 3.0000 46.0750
v 388.9250 0.0000 48.9250
v 386.0750 0.0000 48.9250
v 386.0750 3.0000 48.9250
v 388.9250 3.0000 48.9250
v 388.9250 0.0000 46.0750
v 388.9250 0.0000 48.9250
v 388.9250 3.0000 48.9250
v 388.9250 3.0000 46.0750
v 386.0750 0.0000 48.9250
v 386.0750 0.0000 46.0750
v 386.0750 3.0000 46.0750
v 386.0750 3.0000 48.9250
v 391.0750 0.0000 46.0750
v 391.0750 0.0000 48.9250
v 393.9250 0.0000 48.9250
v 393.9250 0.0000 46.0750
v 391.0750 3.0000 46.0750
v 393.9250 3.0000 46.0750
v 393.9250 3.0000 48.9250
v 391.0750 3.0000 48.9250
v 391.0750 0.0000 46.0750
v 393.9250 0.0000 46.0750
v 393.9250 3.0000 46.0750
v 391.0750 3.0000 46.0750
v 393.9250 0.0000 48.9250
v 391.0750 0.0000 48.9250
v 391.0750 3.0000 48.9250
v 393.9250 3.0000 48.9250
v 393.9250 0.0000 46.0750
v 393.9250 0.0000 48.9250
v 393.9250 3.0000 48.9250
v 393.9250 3.0000 46.0750
v 391.0750 0.0000 48.9250
v 391.0750 0.0000 46.0750
v 391.0750 3.0000 46.0750
v 391.0750 3.0000 48.9250
v 396.0750 0.0000 46.0750
v 396.0750 0.0000 48.9250
v 398.9250 0.0000 48.9250
v 398.9250 0.0000 46.0750
v 396.0750 3.0000 46.0750
v 398.9250 3.0000 46.0750
v 398.9250 3.0000 48.9250
v 396.0750 3.0000 48.9250
v 396.0750 0.0000 46.0750
v 398.9250 0.0000 46.0750
v 398.9250 3.0000 46.0750
v 396.0750 3.0000 46.0750
v 398.9250 0.0000 48.9250
v 396.0750 0.0000 48.9250
v 396.0750 3.0000 48.9250
v 398.9250 3.0000 48.9250
v 398.9250 0.0000 46.0750
v 398.9250 0.0000 48.9250
v 398.9250 3.0000 48.9250
v 398.9250 3.0000 46.0750
v 396.0750 0.0000 48.9250
v 396.0750 0.0000 46.0750
v 396.0750 3.0000 46.0750
v 396.0750 3.0000 48.9250
v 398.5750 0.0000 46.0750
v 398.5750 0.0000 48.9250
v 401.4250 0.0000 48.9250
v 401.4250 0.0000 46.0750
v 398.5750 3.0000 46.0750
v 401.4250 3.0000 46.0750
v 401.4250 3.0000 48.9250
v 398.5750 3.0000 48.9250
v 398.5750 0.0000 46.0750
v 401.4250 0.0000 46.0750
v 401.4250 3.0000 46.0750
v 398.5750 3.0000 46.0750
v 401.4250 0.0000 48.9250
v 398.5750 0.0000 48.9250
v 398.5750 3.0000 48.9250
v 401.4250 3.0000 48.9250
v 401.4250 0.0000 46.0750
v 401.4250 0.0000 48.9250
v 401.4250 3.0000 48.9250
v 401.4250 3.0000 46.0750
v 398.5750 0.0000 48.9250
v 398.5750 0.0000 46.0750
v 398.5750 3.0000 46.0750
v 398.5750 3.0000 48.9250
v 401.0750 0.0000 46.0750
v 401.0750 0.0000 48.9250
v 403.9250 0.0000 48.9250
v 403.9250 0.0000 46.0750
v 401.0750 3.0000 46.0750
v 403.9250 3.0000 46.0750
v 403.9250 3.0000 48.9250
v 401.0750 3.0000 48.9250
v 401.0750 0.0000 46.0750
v 403.9250 0.0000 46.0750
v 403.9250 3.0000 46.0750
v 401.0750 3.0000 46.0750
v 403.9250 0.0000 48.9250
v 401.0750 0.0000 48.9250
v 401.0750 3.0000 48.9250
v 403.9250 3.0000 48.9250
v 403.9250 0.0000 46.0750
v 403.9250 0.0000 48.9250
v 403.9250 3.0000 48.9250
v 403.9250 3.0000 46.0750
v 401.0750 0.0000 48.9250
v 401.0750 0.0000 46.0750
v 401.0750 3.0000 46.0750
v 401.0750 3.0000 48.9250
v 391.0750 0.0000 48.5750
v 393.9250 0.0000 48.5750
v 393.9250 0.0000 51.4250
v 391.0750 0.0000 51.4250
v 391.0750 3.0000 48.5750
v 393.9250 3.0000 48.5750
v 393.9250 3.0000 51.4250
v 391.0750 3.0000 51.4250
v 384.8250 2.7600 39.8250
v 385.1750 2.7600 39.8250
v 385.1750 2.7600 40.1750
v 384.8250 2.7600 40.1750
v 384.8250 2.8800 39.8250
v 385.1750 2.8800 39.8250
v 385.1750 2.8800 40.1750
v 384.8250 2.8800 40.1750
v 394.8250 2.7600 39.8250
v 395.1750 2.7600 39.8250
v 395.1750 2.7600 40.1750
v 394.8250 2.7600 40.1750
v 394.8250 2.8800 39.8250
v 395.1750 2.8800 39.8250
v 395.1750 2.8800 40.1750
v 394.8250 2.8800 40.1750
v 389.8250 2.7600 44.8250
v 390.1750 2.7600 44.8250
v 390.1750 2.7600 45.1750
v 389.8250 2.7600 45.1750
v 389.8250 2.8800 44.8250
v 390.1750 2.8800 44.8250
v 390.1750 2.8800 45.1750
v 389.8250 2.8800 45.1750
v 399.8250 2.7600 49.8250
v 400.1750 2.7600 49.8250
v 400.1750 2.7600 50.1750
v 399.8250 2.7600 50.1750
v 399.8250 2.8800 49.8250
v 400.1750 2.8800 49.8250
v 400.1750 2.8800 50.1750
v 399.8250 2.8800 50.1750
v 404.8250 2.7600 49.8250
v 405.1750 2.7600 49.8250
v 405.1750 2.7600 50.1750
v 404.8250 2.7600 50.1750
v 404.8250 2.8800 49.8250
v 405.1750 2.8800 49.8250
v 405.1750 2.8800 50.1750
v 404.8250 2.8800 50.1750
v 377.6200 2.6000 37.5000
v 377.6200 2.6000 37.5000
v 377.5849 2.6000 37.5849
v 377.5849 2.6000 37.5849
v 377.5000 2.6000 37.6200
v 377.5000 2.6000 37.6200
v 377.4151 2.6000 37.5849
v 377.4151 2.6000 37.5849
v 377.3800 2.6000 37.5000
v 377.3800 2.6000 37.5000
v 377.4151 2.6000 37.4151
v 377.4151 2.6000 37.4151
v 377.5000 2.6000 37.3800
v 377.5000 2.6000 37.3800
v 377.5849 2.6000 37.4151
v 377.5849 2.6000 37.4151
v 377.5000 2.6000 37.5000
v 377.5000 2.6000 37.5000
v 377.5000 2.4800 37.3800
v 405.0000 2.4800 37.3800
v 405.0000 2.4800 37.6200
v 377.5000 2.4800 37.6200
v 377.5000 2.7200 37.3800
v 405.0000 2.7200 37.3800
v 405.0000 2.7200 37.6200
v 377.5000 2.7200 37.6200
v 377.6200 2.6000 42.5000
v 377.6200 2.6000 42.5000
v 377.5849 2.6000 42.5849
v 377.5849 2.6000 42.5849
v 377.5000 2.6000 42.6200
v 377.5000 2.6000 42.6200
v 377.4151 2.6000 42.5849
v 377.4151 2.6000 42.5849
v 377.3800 2.6000 42.5000
v 377.3800 2.6000 42.5000
v 377.4151 2.6000 42.4151
v 377.4151 2.6000 42.4151
v 377.5000 2.6000 42.3800
v 377.5000 2.6000 42.3800
v 377.5849 2.6000 42.4151
v 377.5849 2.6000 42.4151
v 377.5000 2.6000 42.5000
v 377.5000 2.6000 42.5000
v 377.5000 2.4800 42.3800
v 405.0000 2.4800 42.3800
v 405.0000 2.4800 42.6200
v 377.5000 2.4800 42.6200
v 377.5000 2.7200 42.3800
v 405.0000 2.7200 42.3800
v 405.0000 2.7200 42.6200
v 377.5000 2.7200 42.6200
v 377.6200 2.6000 47.5000
v 377.6200 2.6000 47.5000
v 377.5849 2.6000 47.5849
v 377.5849 2.6000 47.5849
v 377.5000 2.6000 47.6200
v 377.5000 2.6000 47.6200
v 377.4151 2.6000 47.5849
v 377.4151 2.6000 47.5849
v 377.3800 2.6000 47.5000
v 377.3800 2.6000 47.5000
v 377.4151 2.6000 47.4151
v 377.4151 2.6000 47.4151
v 377.5000 2.6000 47.3800
v 377.5000 2.6000 47.3800
v 377.5849 2.6000 47.4151
v 377.5849 2.6000 47.4151
v 377.5000 2.6000 47.5000
v 377.5000 2.6000 47.5000
v 377.5000 2.4800 47.3800
v 405.0000 2.4800 47.3800
v 405.0000 2.4800 47.6200
v 377.5000 2.4800 47.6200
v 377.5000 2.7200 47.3800
v 405.0000 2.7200 47.3800
v 405.0000 2.7200 47.6200
v 377.5000 2.7200 47.6200
v 377.6200 2.6000 52.5000
v 377.6200 2.6000 52.5000
v 377.5849 2.6000 52.5849
v 377.5849 2.6000 52.5849
v 377.5000 2.6000 52.6200
v 377.5000 2.6000 52.6200
v 377.4151 2.6000 52.5849
v 377.4151 2.6000 52.5849
v 377.3800 2.6000 52.5000
v 377.3800 2.6000 52.5000
v 377.4151 2.6000 52.4151
v 377.4151 2.6000 52.4151
v 377.5000 2.6000 52.3800
v 377.5000 2.6000 52.3800
v 377.5849 2.6000 52.4151
v 377.5849 2.6000 52.4151
v 377.5000 2.6000 52.5000
v 377.5000 2.6000 52.5000
v 377.5000 2.4800 52.3800
v 405.0000 2.4800 52.3800
v 405.0000 2.4800 52.6200
v 377.5000 2.4800 52.6200
v 377.5000 2.7200 52.3800
v 405.0000 2.7200 52.3800
v 405.0000 2.7200 52.6200
v 377.5000 2.7200 52.6200
vt 188.0375 18.0375
vt 188.0375 19.4625
vt 189.4625 19.4625
vt 189.4625 18.0375
vt 188.0375 18.0375
vt 189.4625 18.0375
vt 189.4625 19.4625
vt 188.0375 19.4625
vt 188.0375 0.0000
vt 189.4625 0.0000
vt 189.4625 1.5000
vt 188.0375 1.5000
vt 189.4625 0.0000
vt 188.0375 0.0000
vt 188.0375 1.5000
vt 189.4625 1.5000
vt 18.0375 0.0000
vt 19.4625 0.0000
vt 19.4625 1.5000
vt 18.0375 1.5000
vt 19.4625 0.0000
vt 18.0375 0.0000
vt 18.0375 1.5000
vt 19.4625 1.5000
vt 189.2875 18.0375
vt 189.2875 19.4625
vt 190.7125 19.4625
vt 190.7125 18.0375
vt 189.2875 18.0375
vt 190.7125 18.0375
vt 190.7125 19.4625
vt 189.2875 19.4625
vt 189.2875 0.0000
vt 190.7125 0.0000
vt 190.7125 1.5000
vt 189.2875 1.5000
vt 190.7125 0.0000
vt 189.2875 0.0000
vt 189.2875 1.5000
vt 190.7125 1.5000
vt 18.0375 0.0000
vt 19.4625 0.0000
vt 19.4625 1.5000
vt 18.0375 1.5000
vt 19.4625 0.0000
vt 18.0375 0.0000
vt 18.0375 1.5000
vt 19.4625 1.5000
vt 190.5375 18.0375
vt 190.5375 19.4625
vt 191.9625 19.4625
vt 191.9625 18.0375
vt 190.5375 18.0375
vt 191.9625 18.0375
vt 191.9625 19.4625
vt 190.5375 19.4625
vt 190.5375 0.0000
vt 191.9625 0.0000
vt 191.9625 1.5000
vt 190.5375 1.5000
vt 191.9625 0.0000
vt 190.5375 0.0000
vt 190.5375 1.5000
vt 191.9625 1.5000
vt 18.0375 0.0000
vt 19.4625 0.0000
vt 19.4625 1.5000
vt 18.0375 1.5000
vt 19.4625 0.0000
vt 18.0375 0.0000
vt 18.0375 1.5000
vt 19.4625 1.5000
vt 200.5375 18.0375
vt 200.5375 19.4625
vt 201.9625 19.4625
vt 201.9625 18.0375
vt 200.5375 18.0375
vt 201.9625 18.0375
vt 201.9625 19.4625
vt 200.5375 19.4625
vt 200.5375 0.0000
vt 201.9625 0.0000
vt 201.9625 1.5000
vt 200.5375 1.5000
vt 201.9625 0.0000
vt 200.5375 0.0000
vt 200.5375 1.5000
vt 201.9625 1.5000
vt 18.0375 0.0000
vt 19.4625 0.0000
vt 19.4625 1.5000
vt 18.0375 1.5000
vt 19.4625 0.0000
vt 18.0375 0.0000
vt 18.0375 1.5000
vt 19.4625 1.5000
vt 188.0375 19.2875
vt 188.0375 20.7125
vt 189.4625 20.7125
vt 189.4625 19.2875
vt 188.0375 19.2875
vt 189.4625 19.2875
vt 189.4625 20.7125
vt 188.0375 20.7125
vt 188.0375 0.0000
vt 189.4625 0.0000
vt 189.4625 1.5000
vt 188.0375 1.5000
vt 189.4625 0.0000
vt 188.0375 0.0000
vt 188.0375 1.5000
vt 189.4625 1.5000
vt 19.2875 0.0000
vt 20.7125 0.0000
vt 20.7125 1.5000
vt 19.2875 1.5000
vt 20.7125 0.0000
vt 19.2875 0.0000
vt 19.2875 1.5000
vt 20.7125 1.5000
vt 190.5375 19.2875
vt 190.5375 20.7125
vt 191.9625 20.7125
vt 191.9625 19.2875
vt 190.5375 19.2875
vt 191.9625 19.2875
vt 191.9625 20.7125
vt 190.5375 20.7125
vt 190.5375 0.0000
vt 191.9625 0.0000
vt 191.9625 1.5000
vt 190.5375 1.5000
vt 191.9625 0.0000
vt 190.5375 0.0000
vt 190.5375 1.5000
vt 191.9625 1.5000
vt 19.2875 0.0000
vt 20.7125 0.0000
vt 20.7125 1.5000
vt 19.2875 1.5000
vt 20.7125 0.0000
vt 19.2875 0.0000
vt 19.2875 1.5000
vt 20.7125 1.5000
vt 193.0375 19.2875
vt 193.0375 20.7125
vt 194.4625 20.7125
vt 194.4625 19.2875
vt 193.0375 19.2875
vt 194.4625 19.2875
vt 194.4625 20.7125
vt 193.0375 20.7125
vt 193.0375 0.0000
vt 194.4625 0.0000
vt 194.4625 1.5000
vt 193.0375 1.5000
vt 194.4625 0.0000
vt 193.0375 0.0000
vt 193.0375 1.5000
vt 194.4625 1.5000
vt 19.2875 0.0000
vt 20.7125 0.0000
vt 20.7125 1.5000
vt 19.2875 1.5000
vt 20.7125 0.0000
vt 19.2875 0.0000
vt 19.2875 1.5000
vt 20.7125 1.5000
vt 188.0375 20.5375
vt 188.0375 21.9625
vt 189.4625 21.9625
vt 189.4625 20.5375
vt 188.0375 20.5375
vt 189.4625 20.5375
vt 189.4625 21.9625
vt 188.0375 21.9625
vt 188.0375 0.0000
vt 189.4625 0.0000
vt 189.4625 1.5000
vt 188.0375 1.5000
vt 189.4625 0.0000
vt 188.0375 0.0000
vt 188.0375 1.5000
vt 189.4625 1.5000
vt 20.5375 0.0000
vt 21.9625 0.0000
vt 21.9625 1.5000
vt 20.5375 1.5000
vt 21.9625 0.0000
vt 20.5375 0.0000
vt 20.5375 1.5000
vt 21.9625 1.5000
vt 190.5375 20.5375
vt 190.5375 21.9625
vt 191.9625 21.9625
vt 191.9625 20.5375
vt 190.5375 20.5375
vt 191.9625 20.5375
vt 191.9625 21.9625
vt 190.5375 21.9625
vt 190.5375 0.0000
vt 191.9625 0.0000
vt 191.9625 1.5000
vt 190.5375 1.5000
vt 191.9625 0.0000
vt 190.5375 0.0000
vt 190.5375 1.5000
vt 191.9625 1.5000
vt 20.5375 0.0000
vt 21.9625 0.0000
vt 21.9625 1.5000
vt 20.5375 1.5000
vt 21.9625 0.0000
vt 20.5375 0.0000
vt 20.5375 1.5000
vt 21.9625 1.5000
vt 193.0375 20.5375
vt 193.0375 21.9625
vt 194.4625 21.9625
vt 194.4625 20.5375
vt 193.0375 20.5375
vt 194.4625 20.5375
vt 194.4625 21.9625
vt 193.0375 21.9625
vt 193.0375 0.0000
vt 194.4625 0.0000
vt 194.4625 1.5000
vt 193.0375 1.5000
vt 194.4625 0.0000
vt 193.0375 0.0000
vt 193.0375 1.5000
vt 194.4625 1.5000
vt 20.5375 0.0000
vt 21.9625 0.0000
vt 21.9625 1.5000
vt 20.5375 1.5000
vt 21.9625 0.0000
vt 20.5375 0.0000
vt 20.5375 1.5000
vt 21.9625 1.5000
vt 194.2875 20.5375
vt 194.2875 21.9625
vt 195.7125 21.9625
vt 195.7125 20.5375
vt 194.2875 20.5375
vt 195.7125 20.5375
vt 195.7125 21.9625
vt 194.2875 21.9625
vt 194.2875 0.0000
vt 195.7125 0.0000
vt 195.7125 1.5000
vt 194.2875 1.5000
vt 195.7125 0.0000
vt 194.2875 0.0000
vt 194.2875 1.5000
vt 195.7125 1.5000
vt 20.5375 0.0000
vt 21.9625 0.0000
vt 21.9625 1.5000
vt 20.5375 1.5000
vt 21.9625 0.0000
vt 20.5375 0.0000
vt 20.5375 1.5000
vt 21.9625 1.5000
vt 200.5375 20.5375
vt 200.5375 21.9625
vt 201.9625 21.9625
vt 201.9625 20.5375
vt 200.5375 20.5375
vt 201.9625 20.5375
vt 201.9625 21.9625
vt 200.5375 21.9625
vt 200.5375 0.0000
vt 201.9625 0.0000
vt 201.9625 1.5000
vt 200.5375 1.5000
vt 201.9625 0.0000
vt 200.5375 0.0000
vt 200.5375 1.5000
vt 201.9625 1.5000
vt 20.5375 0.0000
vt 21.9625 0.0000
vt 21.9625 1.5000
vt 20.5375 1.5000
vt 21.9625 0.0000
vt 20.5375 0.0000
vt 20.5375 1.5000
vt 21.9625 1.5000
vt 201.7875 20.5375
vt 201.7875 21.9625
vt 203.2125 21.9625
vt 203.2125 20.5375
vt 201.7875 20.5375
vt 203.2125 20.5375
vt 203.2125 21.9625
vt 201.7875 21.9625
vt 201.7875 0.0000
vt 203.2125 0.0000
vt 203.2125 1.5000
vt 201.7875 1.5000
vt 203.2125 0.0000
vt 201.7875 0.0000
vt 201.7875 1.5000
vt 203.2125 1.5000
vt 20.5375 0.0000
vt 21.9625 0.0000
vt 21.9625 1.5000
vt 20.5375 1.5000
vt 21.9625 0.0000
vt 20.5375 0.0000
vt 20.5375 1.5000
vt 21.9625 1.5000
vt 190.5375 21.7875
vt 190.5375 23.2125
vt 191.9625 23.2125
vt 191.9625 21.7875
vt 190.5375 21.7875
vt 191.9625 21.7875
vt 191.9625 23.2125
vt 190.5375 23.2125
vt 190.5375 0.0000
vt 191.9625 0.0000
vt 191.9625 1.5000
vt 190.5375 1.5000
vt 191.9625 0.0000
vt 190.5375 0.0000
vt 190.5375 1.5000
vt 191.9625 1.5000
vt 21.7875 0.0000
vt 23.2125 0.0000
vt 23.2125 1.5000
vt 21.7875 1.5000
vt 23.2125 0.0000
vt 21.7875 0.0000
vt 21.7875 1.5000
vt 23.2125 1.5000
vt 195.5375 21.7875
vt 195.5375 23.2125
vt 196.9625 23.2125
vt 196.9625 21.7875
vt 195.5375 21.7875
vt 196.9625 21.7875
vt 196.9625 23.2125
vt 195.5375 23.2125
vt 195.5375 0.0000
vt 196.9625 0.0000
vt 196.9625 1.5000
vt 195.5375 1.5000
vt 196.9625 0.0000
vt 195.5375 0.0000
vt 195.5375 1.5000
vt 196.9625 1.5000
vt 21.7875 0.0000
vt 23.2125 0.0000
vt 23.2125 1.5000
vt 21.7875 1.5000
vt 23.2125 0.0000
vt 21.7875 0.0000
vt 21.7875 1.5000
vt 23.2125 1.5000
vt 198.0375 21.7875
vt 198.0375 23.2125
vt 199.4625 23.2125
vt 199.4625 21.7875
vt 198.0375 21.7875
vt 199.4625 21.7875
vt 199.4625 23.2125
vt 198.0375 23.2125
vt 198.0375 0.0000
vt 199.4625 0.0000
vt 199.4625 1.5000
vt 198.0375 1.5000
vt 199.4625 0.0000
vt 198.0375 0.0000
vt 198.0375 1.5000
vt 199.4625 1.5000
vt 21.7875 0.0000
vt 23.2125 0.0000
vt 23.2125 1.5000
vt 21.7875 1.5000
vt 23.2125 0.0000
vt 21.7875 0.0000
vt 21.7875 1.5000
vt 23.2125 1.5000
vt 190.5375 23.0375
vt 190.5375 24.4625
vt 191.9625 24.4625
vt 191.9625 23.0375
vt 190.5375 23.0375
vt 191.9625 23.0375
vt 191.9625 24.4625
vt 190.5375 24.4625
vt 190.5375 0.0000
vt 191.9625 0.0000
vt 191.9625 1.5000
vt 190.5375 1.5000
vt 191.9625 0.0000
vt 190.5375 0.0000
vt 190.5375 1.5000
vt 191.9625 1.5000
vt 23.0375 0.0000
vt 24.4625 0.0000
vt 24.4625 1.5000
vt 23.0375 1.5000
vt 24.4625 0.0000
vt 23.0375 0.0000
vt 23.0375 1.5000
vt 24.4625 1.5000
vt 191.7875 23.0375
vt 191.7875 24.4625
vt 193.2125 24.4625
vt 193.2125 23.0375
vt 191.7875 23.0375
vt 193.2125 23.0375
vt 193.2125 24.4625
vt 191.7875 24.4625
vt 191.7875 0.0000
vt 193.2125 0.0000
vt 193.2125 1.5000
vt 191.7875 1.5000
vt 193.2125 0.0000
vt 191.7875 0.0000
vt 191.7875 1.5000
vt 193.2125 1.5000
vt 23.0375 0.0000
vt 24.4625 0.0000
vt 24.4625 1.5000
vt 23.0375 1.5000
vt 24.4625 0.0000
vt 23.0375 0.0000
vt 23.0375 1.5000
vt 24.4625 1.5000
vt 193.0375 23.0375
vt 193.0375 24.4625
vt 194.4625 24.4625
vt 194.4625 23.0375
vt 193.0375 23.0375
vt 194.4625 23.0375
vt 194.4625 24.4625
vt 193.0375 24.4625
vt 193.0375 0.0000
vt 194.4625 0.0000
vt 194.4625 1.5000
vt 193.0375 1.5000
vt 194.4625 0.0000
vt 193.0375 0.0000
vt 193.0375 1.5000
vt 194.4625 1.5000
vt 23.0375 0.0000
vt 24.4625 0.0000
vt 24.4625 1.5000
vt 23.0375 1.5000
vt 24.4625 0.0000
vt 23.0375 0.0000
vt 23.0375 1.5000
vt 24.4625 1.5000
vt 195.5375 23.0375
vt 195.5375 24.4625
vt 196.9625 24.4625
vt 196.9625 23.0375
vt 195.5375 23.0375
vt 196.9625 23.0375
vt 196.9625 24.4625
vt 195.5375 24.4625
vt 195.5375 0.0000
vt 196.9625 0.0000
vt 196.9625 1.5000
vt 195.5375 1.5000
vt 196.9625 0.0000
vt 195.5375 0.0000
vt 195.5375 1.5000
vt 196.9625 1.5000
vt 23.0375 0.0000
vt 24.4625 0.0000
vt 24.4625 1.5000
vt 23.0375 1.5000
vt 24.4625 0.0000
vt 23.0375 0.0000
vt 23.0375 1.5000
vt 24.4625 1.5000
vt 198.0375 23.0375
vt 198.0375 24.4625
vt 199.4625 24.4625
vt 199.4625 23.0375
vt 198.0375 23.0375
vt 199.4625 23.0375
vt 199.4625 24.4625
vt 198.0375 24.4625
vt 198.0375 0.0000
vt 199.4625 0.0000
vt 199.4625 1.5000
vt 198.0375 1.5000
vt 199.4625 0.0000
vt 198.0375 0.0000
vt 198.0375 1.5000
vt 199.4625 1.5000
vt 23.0375 0.0000
vt 24.4625 0.0000
vt 24.4625 1.5000
vt 23.0375 1.5000
vt 24.4625 0.0000
vt 23.0375 0.0000
vt 23.0375 1.5000
vt 24.4625 1.5000
vt 199.2875 23.0375
vt 199.2875 24.4625
vt 200.7125 24.4625
vt 200.7125 23.0375
vt 199.2875 23.0375
vt 200.7125 23.0375
vt 200.7125 24.4625
vt 199.2875 24.4625
vt 199.2875 0.0000
vt 200.7125 0.0000
vt 200.7125 1.5000
vt 199.2875 1.5000
vt 200.7125 0.0000
vt 199.2875 0.0000
vt 199.2875 1.5000
vt 200.7125 1.5000
vt 23.0375 0.0000
vt 24.4625 0.0000
vt 24.4625 1.5000
vt 23.0375 1.5000
vt 24.4625 0.0000
vt 23.0375 0.0000
vt 23.0375 1.5000
vt 24.4625 1.5000
vt 200.5375 23.0375
vt 200.5375 24.4625
vt 201.9625 24.4625
vt 201.9625 23.0375
vt 200.5375 23.0375
vt 201.9625 23.0375
vt 201.9625 24.4625
vt 200.5375 24.4625
vt 200.5375 0.0000
vt 201.9625 0.0000
vt 201.9625 1.5000
vt 200.5375 1.5000
vt 201.9625 0.0000
vt 200.5375 0.0000
vt 200.5375 1.5000
vt 201.9625 1.5000
vt 23.0375 0.0000
vt 24.4625 0.0000
vt 24.4625 1.5000
vt 23.0375 1.5000
vt 24.4625 0.0000
vt 23.0375 0.0000
vt 23.0375 1.5000
vt 24.4625 1.5000
usemtl rust
f 73 76 75 74
f 77 78 79 80
f 73 74 78 77
f 75 76 80 79
f 74 75 79 78
f 76 73 77 80
f 177 180 179 178
f 181 182 183 184
f 177 178 182 181
f 179 180 184 183
f 178 179 183 182
f 180 177 181 184
f 281 284 283 282
f 285 286 287 288
f 281 282 286 285
f 283 284 288 287
f 282 283 287 286
f 284 281 285 288
f 289 292 291 290
f 293 294 295 296
f 289 290 294 293
f 291 292 296 295
f 290 291 295 294
f 292 289 293 296
f 585 588 587 586
f 589 590 591 592
f 585 586 590 589
f 587 588 592 591
f 586 587 591 590
f 588 585 589 592
usemtl lamp_sick
f 593 596 595 594
f 597 598 599 600
f 593 594 598 597
f 595 596 600 599
f 594 595 599 598
f 596 593 597 600
f 601 604 603 602
f 605 606 607 608
f 601 602 606 605
f 603 604 608 607
f 602 603 607 606
f 604 601 605 608
f 609 612 611 610
f 613 614 615 616
f 609 610 614 613
f 611 612 616 615
f 610 611 615 614
f 612 609 613 616
f 617 620 619 618
f 621 622 623 624
f 617 618 622 621
f 619 620 624 623
f 618 619 623 622
f 620 617 621 624
f 625 628 627 626
f 629 630 631 632
f 625 626 630 629
f 627 628 632 631
f 626 627 631 630
f 628 625 629 632
usemtl rust
f 633 635 636 634
f 635 637 638 636
f 637 639 640 638
f 639 641 642 640
f 641 643 644 642
f 643 645 646 644
f 645 647 648 646
f 647 633 634 648
f 649 634 636
f 650 635 633
f 649 636 638
f 650 637 635
f 649 638 640
f 650 639 637
f 649 640 642
f 650 641 639
f 649 642 644
f 650 643 641
f 649 644 646
f 650 645 643
f 649 646 648
f 650 647 645
f 649 648 634
f 650 633 647
f 651 654 653 652
f 655 656 657 658
f 651 652 656 655
f 653 654 658 657
f 652 653 657 656
f 654 651 655 658
f 659 661 662 660
f 661 663 664 662
f 663 665 666 664
f 665 667 668 666
f 667 669 670 668
f 669 671 672 670
f 671 673 674 672
f 673 659 660 674
f 675 660 662
f 676 661 659
f 675 662 664
f 676 663 661
f 675 664 666
f 676 665 663
f 675 666 668
f 676 667 665
f 675 668 670
f 676 669 667
f 675 670 672
f 676 671 669
f 675 672 674
f 676 673 671
f 675 674 660
f 676 659 673
f 677 680 679 678
f 681 682 683 684
f 677 678 682 681
f 679 680 684 683
f 678 679 683 682
f 680 677 681 684
usemtl pipe
f 685 687 688 686
f 687 689 690 688
f 689 691 692 690
f 691 693 694 692
f 693 695 696 694
f 695 697 698 696
f 697 699 700 698
f 699 685 686 700
f 701 686 688
f 702 687 685
f 701 688 690
f 702 689 687
f 701 690 692
f 702 691 689
f 701 692 694
f 702 693 691
f 701 694 696
f 702 695 693
f 701 696 698
f 702 697 695
f 701 698 700
f 702 699 697
f 701 700 686
f 702 685 699
f 703 706 705 704
f 707 708 709 710
f 703 704 708 707
f 705 706 710 709
f 704 705 709 708
f 706 703 707 710
f 711 713 714 712
f 713 715 716 714
f 715 717 718 716
f 717 719 720 718
f 719 721 722 720
f 721 723 724 722
f 723 725 726 724
f 725 711 712 726
f 727 712 714
f 728 713 711
f 727 714 716
f 728 715 713
f 727 716 718
f 728 717 715
f 727 718 720
f 728 719 717
f 727 720 722
f 728 721 719
f 727 722 724
f 728 723 721
f 727 724 726
f 728 725 723
f 727 726 712
f 728 711 725
f 729 732 731 730
f 733 734 735 736
f 729 730 734 733
f 731 732 736 735
f 730 731 735 734
f 732 729 733 736
usemtl grime_wall
f 1/1 2/2 3/3 4/4
f 5/5 6/6 7/7 8/8
f 9/9 10/10 11/11 12/12
f 13/13 14/14 15/15 16/16
f 17/17 18/18 19/19 20/20
f 21/21 22/22 23/23 24/24
f 25/25 26/26 27/27 28/28
f 29/29 30/30 31/31 32/32
f 33/33 34/34 35/35 36/36
f 37/37 38/38 39/39 40/40
f 41/41 42/42 43/43 44/44
f 45/45 46/46 47/47 48/48
f 49/49 50/50 51/51 52/52
f 53/53 54/54 55/55 56/56
f 57/57 58/58 59/59 60/60
f 61/61 62/62 63/63 64/64
f 65/65 66/66 67/67 68/68
f 69/69 70/70 71/71 72/72
f 81/73 82/74 83/75 84/76
f 85/77 86/78 87/79 88/80
f 89/81 90/82 91/83 92/84
f 93/85 94/86 95/87 96/88
f 97/89 98/90 99/91 100/92
f 101/93 102/94 103/95 104/96
f 105/97 106/98 107/99 108/100
f 109/101 110/102 111/103 112/104
f 113/105 114/106 115/107 116/108
f 117/109 118/110 119/111 120/112
f 121/113 122/114 123/115 124/116
f 125/117 126/118 127/119 128/120
f 129/121 130/122 131/123 132/124
f 133/125 134/126 135/127 136/128
f 137/129 138/130 139/131 140/132
f 141/133 142/134 143/135 144/136
f 145/137 146/138 147/139 148/140
f 149/141 150/142 151/143 152/144
f 153/145 154/146 155/147 156/148
f 157/149 158/150 159/151 160/152
f 161/153 162/154 163/155 164/156
f 165/157 166/158 167/159 168/160
f 169/161 170/162 171/163 172/164
f 173/165 174/166 175/167 176/168
f 185/169 186/170 187/171 188/172
f 189/173 190/174 191/175 192/176
f 193/177 194/178 195/179 196/180
f 197/181 198/182 199/183 200/184
f 201/185 202/186 203/187 204/188
f 205/189 206/190 207/191 208/192
f 209/193 210/194 211/195 212/196
f 213/197 214/198 215/199 216/200
f 217/201 218/202 219/203 220/204
f 221/205 222/206 223/207 224/208
f 225/209 226/210 227/211 228/212
f 229/213 230/214 231/215 232/216
f 233/217 234/218 235/219 236/220
f 237/221 238/222 239/223 240/224
f 241/225 242/226 243/227 244/228
f 245/229 246/230 247/231 248/232
f 249/233 250/234 251/235 252/236
f 253/237 254/238 255/239 256/240
f 257/241 258/242 259/243 260/244
f 261/245 262/246 263/247 264/248
f 265/249 266/250 267/251 268/252
f 269/253 270/254 271/255 272/256
f 273/257 274/258 275/259 276/260
f 277/261 278/262 279/263 280/264
f 297/265 298/266 299/267 300/268
f 301/269 302/270 303/271 304/272
f 305/273 306/274 307/275 308/276
f 309/277 310/278 311/279 312/280
f 313/281 314/282 315/283 316/284
f 317/285 318/286 319/287 320/288
f 321/289 322/290 323/291 324/292
f 325/293 326/294 327/295 328/296
f 329/297 330/298 331/299 332/300
f 333/301 334/302 335/303 336/304
f 337/305 338/306 339/307 340/308
f 341/309 342/310 343/311 344/312
f 345/313 346/314 347/315 348/316
f 349/317 350/318 351/319 352/320
f 353/321 354/322 355/323 356/324
f 357/325 358/326 359/327 360/328
f 361/329 362/330 363/331 364/332
f 365/333 366/334 367/335 368/336
f 369/337 370/338 371/339 372/340
f 373/341 374/342 375/343 376/344
f 377/345 378/346 379/347 380/348
f 381/349 382/350 383/351 384/352
f 385/353 386/354 387/355 388/356
f 389/357 390/358 391/359 392/360
f 393/361 394/362 395/363 396/364
f 397/365 398/366 399/367 400/368
f 401/369 402/370 403/371 404/372
f 405/373 406/374 407/375 408/376
f 409/377 410/378 411/379 412/380
f 413/381 414/382 415/383 416/384
f 417/385 418/386 419/387 420/388
f 421/389 422/390 423/391 424/392
f 425/393 426/394 427/395 428/396
f 429/397 430/398 431/399 432/400
f 433/401 434/402 435/403 436/404
f 437/405 438/406 439/407 440/408
f 441/409 442/410 443/411 444/412
f 445/413 446/414 447/415 448/416
f 449/417 450/418 451/419 452/420
f 453/421 454/422 455/423 456/424
f 457/425 458/426 459/427 460/428
f 461/429 462/430 463/431 464/432
f 465/433 466/434 467/435 468/436
f 469/437 470/438 471/439 472/440
f 473/441 474/442 475/443 476/444
f 477/445 478/446 479/447 480/448
f 481/449 482/450 483/451 484/452
f 485/453 486/454 487/455 488/456
f 489/457 490/458 491/459 492/460
f 493/461 494/462 495/463 496/464
f 497/465 498/466 499/467 500/468
f 501/469 502/470 503/471 504/472
f 505/473 506/474 507/475 508/476
f 509/477 510/478 511/479 512/480
f 513/481 514/482 515/483 516/484
f 517/485 518/486 519/487 520/488
f 521/489 522/490 523/491 524/492
f 525/493 526/494 527/495 528/496
f 529/497 530/498 531/499 532/500
f 533/501 534/502 535/503 536/504
f 537/505 538/506 539/507 540/508
f 541/509 542/510 543/511 544/512
f 545/513 546/514 547/515 548/516
f 549/517 550/518 551/519 552/520
f 553/521 554/522 555/523 556/524
f 557/525 558/526 559/527 560/528
f 561/529 562/530 563/531 564/532
f 565/533 566/534 567/535 568/536
f 569/537 570/538 571/539 572/540
f 573/541 574/542 575/543 576/544
f 577/545 578/546 579/547 580/548
f 581/549 582/550 583/551 584/552
