# RoastEngine Backrooms level
mtllib backrooms.mtl
v 1562.7000 0.0000 23.2000
v 1562.7000 0.0000 26.3000
v 1565.8000 0.0000 26.3000
v 1565.8000 0.0000 23.2000
v 1562.7000 3.4000 23.2000
v 1565.8000 3.4000 23.2000
v 1565.8000 3.4000 26.3000
v 1562.7000 3.4000 26.3000
v 1562.7000 0.0000 23.2000
v 1565.8000 0.0000 23.2000
v 1565.8000 3.4000 23.2000
v 1562.7000 3.4000 23.2000
v 1565.8000 0.0000 26.3000
v 1562.7000 0.0000 26.3000
v 1562.7000 3.4000 26.3000
v 1565.8000 3.4000 26.3000
v 1565.8000 0.0000 23.2000
v 1565.8000 0.0000 26.3000
v 1565.8000 3.4000 26.3000
v 1565.8000 3.4000 23.2000
v 1562.7000 0.0000 26.3000
v 1562.7000 0.0000 23.2000
v 1562.7000 3.4000 23.2000
v 1562.7000 3.4000 26.3000
v 1565.4500 0.0000 23.2000
v 1565.4500 0.0000 26.3000
v 1568.5500 0.0000 26.3000
v 1568.5500 0.0000 23.2000
v 1565.4500 3.4000 23.2000
v 1568.5500 3.4000 23.2000
v 1568.5500 3.4000 26.3000
v 1565.4500 3.4000 26.3000
v 1565.4500 0.0000 23.2000
v 1568.5500 0.0000 23.2000
v 1568.5500 3.4000 23.2000
v 1565.4500 3.4000 23.2000
v 1568.5500 0.0000 26.3000
v 1565.4500 0.0000 26.3000
v 1565.4500 3.4000 26.3000
v 1568.5500 3.4000 26.3000
v 1568.5500 0.0000 23.2000
v 1568.5500 0.0000 26.3000
v 1568.5500 3.4000 26.3000
v 1568.5500 3.4000 23.2000
v 1565.4500 0.0000 26.3000
v 1565.4500 0.0000 23.2000
v 1565.4500 3.4000 23.2000
v 1565.4500 3.4000 26.3000
v 1568.2000 0.0000 23.2000
v 1568.2000 0.0000 26.3000
v 1571.3000 0.0000 26.3000
v 1571.3000 0.0000 23.2000
v 1568.2000 3.4000 23.2000
v 1571.3000 3.4000 23.2000
v 1571.3000 3.4000 26.3000
v 1568.2000 3.4000 26.3000
v 1568.2000 0.0000 23.2000
v 1571.3000 0.0000 23.2000
v 1571.3000 3.4000 23.2000
v 1568.2000 3.4000 23.2000
v 1571.3000 0.0000 26.3000
v 1568.2000 0.0000 26.3000
v 1568.2000 3.4000 26.3000
v 1571.3000 3.4000 26.3000
v 1571.3000 0.0000 23.2000
v 1571.3000 0.0000 26.3000
v 1571.3000 3.4000 26.3000
v 1571.3000 3.4000 23.2000
v 1568.2000 0.0000 26.3000
v 1568.2000 0.0000 23.2000
v 1568.2000 3.4000 23.2000
v 1568.2000 3.4000 26.3000
v 1579.2000 0.0000 23.2000
v 1579.2000 0.0000 26.3000
v 1582.3000 0.0000 26.3000
v 1582.3000 0.0000 23.2000
v 1579.2000 3.4000 23.2000
v 1582.3000 3.4000 23.2000
v 1582.3000 3.4000 26.3000
v 1579.2000 3.4000 26.3000
v 1579.2000 0.0000 23.2000
v 1582.3000 0.0000 23.2000
v 1582.3000 3.4000 23.2000
v 1579.2000 3.4000 23.2000
v 1582.3000 0.0000 26.3000
v 1579.2000 0.0000 26.3000
v 1579.2000 3.4000 26.3000
v 1582.3000 3.4000 26.3000
v 1582.3000 0.0000 23.2000
v 1582.3000 0.0000 26.3000
v 1582.3000 3.4000 26.3000
v 1582.3000 3.4000 23.2000
v 1579.2000 0.0000 26.3000
v 1579.2000 0.0000 23.2000
v 1579.2000 3.4000 23.2000
v 1579.2000 3.4000 26.3000
v 1584.7000 0.0000 23.2000
v 1584.7000 0.0000 26.3000
v 1587.8000 0.0000 26.3000
v 1587.8000 0.0000 23.2000
v 1584.7000 3.4000 23.2000
v 1587.8000 3.4000 23.2000
v 1587.8000 3.4000 26.3000
v 1584.7000 3.4000 26.3000
v 1584.7000 0.0000 23.2000
v 1587.8000 0.0000 23.2000
v 1587.8000 3.4000 23.2000
v 1584.7000 3.4000 23.2000
v 1587.8000 0.0000 26.3000
v 1584.7000 0.0000 26.3000
v 1584.7000 3.4000 26.3000
v 1587.8000 3.4000 26.3000
v 1587.8000 0.0000 23.2000
v 1587.8000 0.0000 26.3000
v 1587.8000 3.4000 26.3000
v 1587.8000 3.4000 23.2000
v 1584.7000 0.0000 26.3000
v 1584.7000 0.0000 23.2000
v 1584.7000 3.4000 23.2000
v 1584.7000 3.4000 26.3000
v 1584.7000 0.0000 25.9500
v 1587.8000 0.0000 25.9500
v 1587.8000 0.0000 29.0500
v 1584.7000 0.0000 29.0500
v 1584.7000 3.4000 25.9500
v 1587.8000 3.4000 25.9500
v 1587.8000 3.4000 29.0500
v 1584.7000 3.4000 29.0500
v 1562.7000 0.0000 28.7000
v 1565.8000 0.0000 28.7000
v 1565.8000 0.0000 31.8000
v 1562.7000 0.0000 31.8000
v 1562.7000 3.4000 28.7000
v 1565.8000 3.4000 28.7000
v 1565.8000 3.4000 31.8000
v 1562.7000 3.4000 31.8000
v 1568.2000 0.0000 28.7000
v 1568.2000 0.0000 31.8000
v 1571.3000 0.0000 31.8000
v 1571.3000 0.0000 28.7000
v 1568.2000 3.4000 28.7000
v 1571.3000 3.4000 28.7000
v 1571.3000 3.4000 31.8000
v 1568.2000 3.4000 31.8000
v 1568.2000 0.0000 28.7000
v 1571.3000 0.0000 28.7000
v 1571.3000 3.4000 28.7000
v 1568.2000 3.4000 28.7000
v 1571.3000 0.0000 31.8000
v 1568.2000 0.0000 31.8000
v 1568.2000 3.4000 31.8000
v 1571.3000 3.4000 31.8000
v 1571.3000 0.0000 28.7000
v 1571.3000 0.0000 31.8000
v 1571.3000 3.4000 31.8000
v 1571.3000 3.4000 28.7000
v 1568.2000 0.0000 31.8000
v 1568.2000 0.0000 28.7000
v 1568.2000 3.4000 28.7000
v 1568.2000 3.4000 31.8000
v 1570.9500 0.0000 28.7000
v 1574.0500 0.0000 28.7000
v 1574.0500 0.0000 31.8000
v 1570.9500 0.0000 31.8000
v 1570.9500 3.4000 28.7000
v 1574.0500 3.4000 28.7000
v 1574.0500 3.4000 31.8000
v 1570.9500 3.4000 31.8000
v 1573.7000 0.0000 28.7000
v 1573.7000 0.0000 31.8000
v 1576.8000 0.0000 31.8000
v 1576.8000 0.0000 28.7000
v 1573.7000 3.4000 28.7000
v 1576.8000 3.4000 28.7000
v 1576.8000 3.4000 31.8000
v 1573.7000 3.4000 31.8000
v 1573.7000 0.0000 28.7000
v 1576.8000 0.0000 28.7000
v 1576.8000 3.4000 28.7000
v 1573.7000 3.4000 28.7000
v 1576.8000 0.0000 31.8000
v 1573.7000 0.0000 31.8000
v 1573.7000 3.4000 31.8000
v 1576.8000 3.4000 31.8000
v 1576.8000 0.0000 28.7000
v 1576.8000 0.0000 31.8000
v 1576.8000 3.4000 31.8000
v 1576.8000 3.4000 28.7000
v 1573.7000 0.0000 31.8000
v 1573.7000 0.0000 28.7000
v 1573.7000 3.4000 28.7000
v 1573.7000 3.4000 31.8000
v 1579.2000 0.0000 28.7000
v 1579.2000 0.0000 31.8000
v 1582.3000 0.0000 31.8000
v 1582.3000 0.0000 28.7000
v 1579.2000 3.4000 28.7000
v 1582.3000 3.4000 28.7000
v 1582.3000 3.4000 31.8000
v 1579.2000 3.4000 31.8000
v 1579.2000 0.0000 28.7000
v 1582.3000 0.0000 28.7000
v 1582.3000 3.4000 28.7000
v 1579.2000 3.4000 28.7000
v 1582.3000 0.0000 31.8000
v 1579.2000 0.0000 31.8000
v 1579.2000 3.4000 31.8000
v 1582.3000 3.4000 31.8000
v 1582.3000 0.0000 28.7000
v 1582.3000 0.0000 31.8000
v 1582.3000 3.4000 31.8000
v 1582.3000 3.4000 28.7000
v 1579.2000 0.0000 31.8000
v 1579.2000 0.0000 28.7000
v 1579.2000 3.4000 28.7000
v 1579.2000 3.4000 31.8000
v 1584.7000 0.0000 28.7000
v 1584.7000 0.0000 31.8000
v 1587.8000 0.0000 31.8000
v 1587.8000 0.0000 28.7000
v 1584.7000 3.4000 28.7000
v 1587.8000 3.4000 28.7000
v 1587.8000 3.4000 31.8000
v 1584.7000 3.4000 31.8000
v 1584.7000 0.0000 28.7000
v 1587.8000 0.0000 28.7000
v 1587.8000 3.4000 28.7000
v 1584.7000 3.4000 28.7000
v 1587.8000 0.0000 31.8000
v 1584.7000 0.0000 31.8000
v 1584.7000 3.4000 31.8000
v 1587.8000 3.4000 31.8000
v 1587.8000 0.0000 28.7000
v 1587.8000 0.0000 31.8000
v 1587.8000 3.4000 31.8000
v 1587.8000 3.4000 28.7000
v 1584.7000 0.0000 31.8000
v 1584.7000 0.0000 28.7000
v 1584.7000 3.4000 28.7000
v 1584.7000 3.4000 31.8000
v 1562.7000 0.0000 31.4500
v 1562.7000 0.0000 34.5500
v 1565.8000 0.0000 34.5500
v 1565.8000 0.0000 31.4500
v 1562.7000 3.4000 31.4500
v 1565.8000 3.4000 31.4500
v 1565.8000 3.4000 34.5500
v 1562.7000 3.4000 34.5500
v 1562.7000 0.0000 31.4500
v 1565.8000 0.0000 31.4500
v 1565.8000 3.4000 31.4500
v 1562.7000 3.4000 31.4500
v 1565.8000 0.0000 34.5500
v 1562.7000 0.0000 34.5500
v 1562.7000 3.4000 34.5500
v 1565.8000 3.4000 34.5500
v 1565.8000 0.0000 31.4500
v 1565.8000 0.0000 34.5500
v 1565.8000 3.4000 34.5500
v 1565.8000 3.4000 31.4500
v 1562.7000 0.0000 34.5500
v 1562.7000 0.0000 31.4500
v 1562.7000 3.4000 31.4500
v 1562.7000 3.4000 34.5500
v 1568.2000 0.0000 31.4500
v 1568.2000 0.0000 34.5500
v 1571.3000 0.0000 34.5500
v 1571.3000 0.0000 31.4500
v 1568.2000 3.4000 31.4500
v 1571.3000 3.4000 31.4500
v 1571.3000 3.4000 34.5500
v 1568.2000 3.4000 34.5500
v 1568.2000 0.0000 31.4500
v 1571.3000 0.0000 31.4500
v 1571.3000 3.4000 31.4500
v 1568.2000 3.4000 31.4500
v 1571.3000 0.0000 34.5500
v 1568.2000 0.0000 34.5500
v 1568.2000 3.4000 34.5500
v 1571.3000 3.4000 34.5500
v 1571.3000 0.0000 31.4500
v 1571.3000 0.0000 34.5500
v 1571.3000 3.4000 34.5500
v 1571.3000 3.4000 31.4500
v 1568.2000 0.0000 34.5500
v 1568.2000 0.0000 31.4500
v 1568.2000 3.4000 31.4500
v 1568.2000 3.4000 34.5500
v 1579.2000 0.0000 31.4500
v 1579.2000 0.0000 34.5500
v 1582.3000 0.0000 34.5500
v 1582.3000 0.0000 31.4500
v 1579.2000 3.4000 31.4500
v 1582.3000 3.4000 31.4500
v 1582.3000 3.4000 34.5500
v 1579.2000 3.4000 34.5500
v 1579.2000 0.0000 31.4500
v 1582.3000 0.0000 31.4500
v 1582.3000 3.4000 31.4500
v 1579.2000 3.4000 31.4500
v 1582.3000 0.0000 34.5500
v 1579.2000 0.0000 34.5500
v 1579.2000 3.4000 34.5500
v 1582.3000 3.4000 34.5500
v 1582.3000 0.0000 31.4500
v 1582.3000 0.0000 34.5500
v 1582.3000 3.4000 34.5500
v 1582.3000 3.4000 31.4500
v 1579.2000 0.0000 34.5500
v 1579.2000 0.0000 31.4500
v 1579.2000 3.4000 31.4500
v 1579.2000 3.4000 34.5500
v 1562.7000 0.0000 34.2000
v 1562.7000 0.0000 37.3000
v 1565.8000 0.0000 37.3000
v 1565.8000 0.0000 34.2000
v 1562.7000 3.4000 34.2000
v 1565.8000 3.4000 34.2000
v 1565.8000 3.4000 37.3000
v 1562.7000 3.4000 37.3000
v 1562.7000 0.0000 34.2000
v 1565.8000 0.0000 34.2000
v 1565.8000 3.4000 34.2000
v 1562.7000 3.4000 34.2000
v 1565.8000 0.0000 37.3000
v 1562.7000 0.0000 37.3000
v 1562.7000 3.4000 37.3000
v 1565.8000 3.4000 37.3000
v 1565.8000 0.0000 34.2000
v 1565.8000 0.0000 37.3000
v 1565.8000 3.4000 37.3000
v 1565.8000 3.4000 34.2000
v 1562.7000 0.0000 37.3000
v 1562.7000 0.0000 34.2000
v 1562.7000 3.4000 34.2000
v 1562.7000 3.4000 37.3000
v 1568.2000 0.0000 34.2000
v 1568.2000 0.0000 37.3000
v 1571.3000 0.0000 37.3000
v 1571.3000 0.0000 34.2000
v 1568.2000 3.4000 34.2000
v 1571.3000 3.4000 34.2000
v 1571.3000 3.4000 37.3000
v 1568.2000 3.4000 37.3000
v 1568.2000 0.0000 34.2000
v 1571.3000 0.0000 34.2000
v 1571.3000 3.4000 34.2000
v 1568.2000 3.4000 34.2000
v 1571.3000 0.0000 37.3000
v 1568.2000 0.0000 37.3000
v 1568.2000 3.4000 37.3000
v 1571.3000 3.4000 37.3000
v 1571.3000 0.0000 34.2000
v 1571.3000 0.0000 37.3000
v 1571.3000 3.4000 37.3000
v 1571.3000 3.4000 34.2000
v 1568.2000 0.0000 37.3000
v 1568.2000 0.0000 34.2000
v 1568.2000 3.4000 34.2000
v 1568.2000 3.4000 37.3000
v 1570.9500 0.0000 34.2000
v 1574.0500 0.0000 34.2000
v 1574.0500 0.0000 37.3000
v 1570.9500 0.0000 37.3000
v 1570.9500 3.4000 34.2000
v 1574.0500 3.4000 34.2000
v 1574.0500 3.4000 37.3000
v 1570.9500 3.4000 37.3000
v 1573.7000 0.0000 34.2000
v 1573.7000 0.0000 37.3000
v 1576.8000 0.0000 37.3000
v 1576.8000 0.0000 34.2000
v 1573.7000 3.4000 34.2000
v 1576.8000 3.4000 34.2000
v 1576.8000 3.4000 37.3000
v 1573.7000 3.4000 37.3000
v 1573.7000 0.0000 34.2000
v 1576.8000 0.0000 34.2000
v 1576.8000 3.4000 34.2000
v 1573.7000 3.4000 34.2000
v 1576.8000 0.0000 37.3000
v 1573.7000 0.0000 37.3000
v 1573.7000 3.4000 37.3000
v 1576.8000 3.4000 37.3000
v 1576.8000 0.0000 34.2000
v 1576.8000 0.0000 37.3000
v 1576.8000 3.4000 37.3000
v 1576.8000 3.4000 34.2000
v 1573.7000 0.0000 37.3000
v 1573.7000 0.0000 34.2000
v 1573.7000 3.4000 34.2000
v 1573.7000 3.4000 37.3000
v 1576.4500 0.0000 34.2000
v 1576.4500 0.0000 37.3000
v 1579.5500 0.0000 37.3000
v 1579.5500 0.0000 34.2000
v 1576.4500 3.4000 34.2000
v 1579.5500 3.4000 34.2000
v 1579.5500 3.4000 37.3000
v 1576.4500 3.4000 37.3000
v 1576.4500 0.0000 34.2000
v 1579.5500 0.0000 34.2000
v 1579.5500 3.4000 34.2000
v 1576.4500 3.4000 34.2000
v 1579.5500 0.0000 37.3000
v 1576.4500 0.0000 37.3000
v 1576.4500 3.4000 37.3000
v 1579.5500 3.4000 37.3000
v 1579.5500 0.0000 34.2000
v 1579.5500 0.0000 37.3000
v 1579.5500 3.4000 37.3000
v 1579.5500 3.4000 34.2000
v 1576.4500 0.0000 37.3000
v 1576.4500 0.0000 34.2000
v 1576.4500 3.4000 34.2000
v 1576.4500 3.4000 37.3000
v 1579.2000 0.0000 34.2000
v 1582.3000 0.0000 34.2000
v 1582.3000 0.0000 37.3000
v 1579.2000 0.0000 37.3000
v 1579.2000 3.4000 34.2000
v 1582.3000 3.4000 34.2000
v 1582.3000 3.4000 37.3000
v 1579.2000 3.4000 37.3000
v 1562.7000 0.0000 36.9500
v 1562.7000 0.0000 40.0500
v 1565.8000 0.0000 40.0500
v 1565.8000 0.0000 36.9500
v 1562.7000 3.4000 36.9500
v 1565.8000 3.4000 36.9500
v 1565.8000 3.4000 40.0500
v 1562.7000 3.4000 40.0500
v 1562.7000 0.0000 36.9500
v 1565.8000 0.0000 36.9500
v 1565.8000 3.4000 36.9500
v 1562.7000 3.4000 36.9500
v 1565.8000 0.0000 40.0500
v 1562.7000 0.0000 40.0500
v 1562.7000 3.4000 40.0500
v 1565.8000 3.4000 40.0500
v 1565.8000 0.0000 36.9500
v 1565.8000 0.0000 40.0500
v 1565.8000 3.4000 40.0500
v 1565.8000 3.4000 36.9500
v 1562.7000 0.0000 40.0500
v 1562.7000 0.0000 36.9500
v 1562.7000 3.4000 36.9500
v 1562.7000 3.4000 40.0500
v 1561.3700 1.9000 27.4200
v 1561.6300 1.9000 27.4200
v 1561.6300 1.9000 27.5800
v 1561.3700 1.9000 27.5800
v 1561.3700 2.2000 27.4200
v 1561.6300 2.2000 27.4200
v 1561.6300 2.2000 27.5800
v 1561.3700 2.2000 27.5800
v 1561.3300 2.2100 27.3900
v 1561.6700 2.2100 27.3900
v 1561.6700 2.2100 27.6100
v 1561.3300 2.2100 27.6100
v 1561.3300 2.2700 27.3900
v 1561.6700 2.2700 27.3900
v 1561.6700 2.2700 27.6100
v 1561.3300 2.2700 27.6100
v 1566.8700 1.9000 27.4200
v 1567.1300 1.9000 27.4200
v 1567.1300 1.9000 27.5800
v 1566.8700 1.9000 27.5800
v 1566.8700 2.2000 27.4200
v 1567.1300 2.2000 27.4200
v 1567.1300 2.2000 27.5800
v 1566.8700 2.2000 27.5800
v 1566.8300 2.2100 27.3900
v 1567.1700 2.2100 27.3900
v 1567.1700 2.2100 27.6100
v 1566.8300 2.2100 27.6100
v 1566.8300 2.2700 27.3900
v 1567.1700 2.2700 27.3900
v 1567.1700 2.2700 27.6100
v 1566.8300 2.2700 27.6100
v 1583.3700 1.9000 27.4200
v 1583.6300 1.9000 27.4200
v 1583.6300 1.9000 27.5800
v 1583.3700 1.9000 27.5800
v 1583.3700 2.2000 27.4200
v 1583.6300 2.2000 27.4200
v 1583.6300 2.2000 27.5800
v 1583.3700 2.2000 27.5800
v 1583.3300 2.2100 27.3900
v 1583.6700 2.2100 27.3900
v 1583.6700 2.2100 27.6100
v 1583.3300 2.2100 27.6100
v 1583.3300 2.2700 27.3900
v 1583.6700 2.2700 27.3900
v 1583.6700 2.2700 27.6100
v 1583.3300 2.2700 27.6100
v 1566.8700 1.9000 32.9200
v 1567.1300 1.9000 32.9200
v 1567.1300 1.9000 33.0800
v 1566.8700 1.9000 33.0800
v 1566.8700 2.2000 32.9200
v 1567.1300 2.2000 32.9200
v 1567.1300 2.2000 33.0800
v 1566.8700 2.2000 33.0800
v 1566.8300 2.2100 32.8900
v 1567.1700 2.2100 32.8900
v 1567.1700 2.2100 33.1100
v 1566.8300 2.2100 33.1100
v 1566.8300 2.2700 32.8900
v 1567.1700 2.2700 32.8900
v 1567.1700 2.2700 33.1100
v 1566.8300 2.2700 33.1100
v 1577.8700 1.9000 32.9200
v 1578.1300 1.9000 32.9200
v 1578.1300 1.9000 33.0800
v 1577.8700 1.9000 33.0800
v 1577.8700 2.2000 32.9200
v 1578.1300 2.2000 32.9200
v 1578.1300 2.2000 33.0800
v 1577.8700 2.2000 33.0800
v 1577.8300 2.2100 32.8900
v 1578.1700 2.2100 32.8900
v 1578.1700 2.2100 33.1100
v 1577.8300 2.2100 33.1100
v 1577.8300 2.2700 32.8900
v 1578.1700 2.2700 32.8900
v 1578.1700 2.2700 33.1100
v 1577.8300 2.2700 33.1100
v 1583.3700 1.9000 32.9200
v 1583.6300 1.9000 32.9200
v 1583.6300 1.9000 33.0800
v 1583.3700 1.9000 33.0800
v 1583.3700 2.2000 32.9200
v 1583.6300 2.2000 32.9200
v 1583.6300 2.2000 33.0800
v 1583.3700 2.2000 33.0800
v 1583.3300 2.2100 32.8900
v 1583.6700 2.2100 32.8900
v 1583.6700 2.2100 33.1100
v 1583.3300 2.2100 33.1100
v 1583.3300 2.2700 32.8900
v 1583.6700 2.2700 32.8900
v 1583.6700 2.2700 33.1100
v 1583.3300 2.2700 33.1100
v 1588.8700 1.9000 32.9200
v 1589.1300 1.9000 32.9200
v 1589.1300 1.9000 33.0800
v 1588.8700 1.9000 33.0800
v 1588.8700 2.2000 32.9200
v 1589.1300 2.2000 32.9200
v 1589.1300 2.2000 33.0800
v 1588.8700 2.2000 33.0800
v 1588.8300 2.2100 32.8900
v 1589.1700 2.2100 32.8900
v 1589.1700 2.2100 33.1100
v 1588.8300 2.2100 33.1100
v 1588.8300 2.2700 32.8900
v 1589.1700 2.2700 32.8900
v 1589.1700 2.2700 33.1100
v 1588.8300 2.2700 33.1100
v 1561.3700 1.9000 38.4200
v 1561.6300 1.9000 38.4200
v 1561.6300 1.9000 38.5800
v 1561.3700 1.9000 38.5800
v 1561.3700 2.2000 38.4200
v 1561.6300 2.2000 38.4200
v 1561.6300 2.2000 38.5800
v 1561.3700 2.2000 38.5800
v 1561.3300 2.2100 38.3900
v 1561.6700 2.2100 38.3900
v 1561.6700 2.2100 38.6100
v 1561.3300 2.2100 38.6100
v 1561.3300 2.2700 38.3900
v 1561.6700 2.2700 38.3900
v 1561.6700 2.2700 38.6100
v 1561.3300 2.2700 38.6100
v 1566.8700 1.9000 38.4200
v 1567.1300 1.9000 38.4200
v 1567.1300 1.9000 38.5800
v 1566.8700 1.9000 38.5800
v 1566.8700 2.2000 38.4200
v 1567.1300 2.2000 38.4200
v 1567.1300 2.2000 38.5800
v 1566.8700 2.2000 38.5800
v 1566.8300 2.2100 38.3900
v 1567.1700 2.2100 38.3900
v 1567.1700 2.2100 38.6100
v 1566.8300 2.2100 38.6100
v 1566.8300 2.2700 38.3900
v 1567.1700 2.2700 38.3900
v 1567.1700 2.2700 38.6100
v 1566.8300 2.2700 38.6100
v 1572.3700 1.9000 38.4200
v 1572.6300 1.9000 38.4200
v 1572.6300 1.9000 38.5800
v 1572.3700 1.9000 38.5800
v 1572.3700 2.2000 38.4200
v 1572.6300 2.2000 38.4200
v 1572.6300 2.2000 38.5800
v 1572.3700 2.2000 38.5800
v 1572.3300 2.2100 38.3900
v 1572.6700 2.2100 38.3900
v 1572.6700 2.2100 38.6100
v 1572.3300 2.2100 38.6100
v 1572.3300 2.2700 38.3900
v 1572.6700 2.2700 38.3900
v 1572.6700 2.2700 38.6100
v 1572.3300 2.2700 38.6100
v 1583.3700 1.9000 38.4200
v 1583.6300 1.9000 38.4200
v 1583.6300 1.9000 38.5800
v 1583.3700 1.9000 38.5800
v 1583.3700 2.2000 38.4200
v 1583.6300 2.2000 38.4200
v 1583.6300 2.2000 38.5800
v 1583.3700 2.2000 38.5800
v 1583.3300 2.2100 38.3900
v 1583.6700 2.2100 38.3900
v 1583.6700 2.2100 38.6100
v 1583.3300 2.2100 38.6100
v 1583.3300 2.2700 38.3900
v 1583.6700 2.2700 38.3900
v 1583.6700 2.2700 38.6100
v 1583.3300 2.2700 38.6100
v 1560.2700 0.0050 24.2750
v 1560.3300 0.0050 24.2750
v 1560.3300 0.0050 25.2250
v 1560.2700 0.0050 25.2250
v 1560.2700 2.0550 24.2750
v 1560.3300 2.0550 24.2750
v 1560.3300 2.0550 25.2250
v 1560.2700 2.0550 25.2250
v 1560.3050 0.9450 25.2420
v 1560.3750 0.9450 25.2420
v 1560.3750 0.9450 25.3120
v 1560.3050 0.9450 25.3120
v 1560.3050 1.0150 25.2420
v 1560.3750 1.0150 25.2420
v 1560.3750 1.0150 25.3120
v 1560.3050 1.0150 25.3120
v 1566.5250 0.0050 23.1700
v 1567.4750 0.0050 23.1700
v 1567.4750 0.0050 23.2300
v 1566.5250 0.0050 23.2300
v 1566.5250 2.0550 23.1700
v 1567.4750 2.0550 23.1700
v 1567.4750 2.0550 23.2300
v 1566.5250 2.0550 23.2300
v 1567.4920 0.9450 23.1250
v 1567.5620 0.9450 23.1250
v 1567.5620 0.9450 23.1950
v 1567.4920 0.9450 23.1950
v 1567.4920 1.0150 23.1250
v 1567.5620 1.0150 23.1250
v 1567.5620 1.0150 23.1950
v 1567.4920 1.0150 23.1950
v 1560.2700 0.0050 27.0250
v 1560.3300 0.0050 27.0250
v 1560.3300 0.0050 27.9750
v 1560.2700 0.0050 27.9750
v 1560.2700 2.0550 27.0250
v 1560.3300 2.0550 27.0250
v 1560.3300 2.0550 27.9750
v 1560.2700 2.0550 27.9750
v 1560.3050 0.9450 27.9920
v 1560.3750 0.9450 27.9920
v 1560.3750 0.9450 28.0620
v 1560.3050 0.9450 28.0620
v 1560.3050 1.0150 27.9920
v 1560.3750 1.0150 27.9920
v 1560.3750 1.0150 28.0620
v 1560.3050 1.0150 28.0620
v 1587.7700 0.0050 29.7750
v 1587.8300 0.0050 29.7750
v 1587.8300 0.0050 30.7250
v 1587.7700 0.0050 30.7250
v 1587.7700 2.0550 29.7750
v 1587.8300 2.0550 29.7750
v 1587.8300 2.0550 30.7250
v 1587.7700 2.0550 30.7250
v 1587.8050 0.9450 30.7420
v 1587.8750 0.9450 30.7420
v 1587.8750 0.9450 30.8120
v 1587.8050 0.9450 30.8120
v 1587.8050 1.0150 30.7420
v 1587.8750 1.0150 30.7420
v 1587.8750 1.0150 30.8120
v 1587.8050 1.0150 30.8120
v 1560.2700 0.0050 32.5250
v 1560.3300 0.0050 32.5250
v 1560.3300 0.0050 33.4750
v 1560.2700 0.0050 33.4750
v 1560.2700 2.0550 32.5250
v 1560.3300 2.0550 32.5250
v 1560.3300 2.0550 33.4750
v 1560.2700 2.0550 33.4750
v 1560.3050 0.9450 33.4920
v 1560.3750 0.9450 33.4920
v 1560.3750 0.9450 33.5620
v 1560.3050 0.9450 33.5620
v 1560.3050 1.0150 33.4920
v 1560.3750 1.0150 33.4920
v 1560.3750 1.0150 33.5620
v 1560.3050 1.0150 33.5620
v 1582.2700 0.0050 32.5250
v 1582.3300 0.0050 32.5250
v 1582.3300 0.0050 33.4750
v 1582.2700 0.0050 33.4750
v 1582.2700 2.0550 32.5250
v 1582.3300 2.0550 32.5250
v 1582.3300 2.0550 33.4750
v 1582.2700 2.0550 33.4750
v 1582.3050 0.9450 33.4920
v 1582.3750 0.9450 33.4920
v 1582.3750 0.9450 33.5620
v 1582.3050 0.9450 33.5620
v 1582.3050 1.0150 33.4920
v 1582.3750 1.0150 33.4920
v 1582.3750 1.0150 33.5620
v 1582.3050 1.0150 33.5620
v 1560.2700 0.0050 35.2750
v 1560.3300 0.0050 35.2750
v 1560.3300 0.0050 36.2250
v 1560.2700 0.0050 36.2250
v 1560.2700 2.0550 35.2750
v 1560.3300 2.0550 35.2750
v 1560.3300 2.0550 36.2250
v 1560.2700 2.0550 36.2250
v 1560.3050 0.9450 36.2420
v 1560.3750 0.9450 36.2420
v 1560.3750 0.9450 36.3120
v 1560.3050 0.9450 36.3120
v 1560.3050 1.0150 36.2420
v 1560.3750 1.0150 36.2420
v 1560.3750 1.0150 36.3120
v 1560.3050 1.0150 36.3120
v 1574.7750 0.0050 37.2700
v 1575.7250 0.0050 37.2700
v 1575.7250 0.0050 37.3300
v 1574.7750 0.0050 37.3300
v 1574.7750 2.0550 37.2700
v 1575.7250 2.0550 37.2700
v 1575.7250 2.0550 37.3300
v 1574.7750 2.0550 37.3300
v 1574.6880 0.9450 37.3050
v 1574.7580 0.9450 37.3050
v 1574.7580 0.9450 37.3750
v 1574.6880 0.9450 37.3750
v 1574.6880 1.0150 37.3050
v 1574.7580 1.0150 37.3050
v 1574.7580 1.0150 37.3750
v 1574.6880 1.0150 37.3750
v 1562.6700 0.0050 38.0250
v 1562.7300 0.0050 38.0250
v 1562.7300 0.0050 38.9750
v 1562.6700 0.0050 38.9750
v 1562.6700 2.0550 38.0250
v 1562.7300 2.0550 38.0250
v 1562.7300 2.0550 38.9750
v 1562.6700 2.0550 38.9750
v 1562.6250 0.9450 37.9380
v 1562.6950 0.9450 37.9380
v 1562.6950 0.9450 38.0080
v 1562.6250 0.9450 38.0080
v 1562.6250 1.0150 37.9380
v 1562.6950 1.0150 37.9380
v 1562.6950 1.0150 38.0080
v 1562.6250 1.0150 38.0080
v 1574.7750 0.0050 39.6700
v 1575.7250 0.0050 39.6700
v 1575.7250 0.0050 39.7300
v 1574.7750 0.0050 39.7300
v 1574.7750 2.0550 39.6700
v 1575.7250 2.0550 39.6700
v 1575.7250 2.0550 39.7300
v 1574.7750 2.0550 39.7300
v 1575.7420 0.9450 39.6250
v 1575.8120 0.9450 39.6250
v 1575.8120 0.9450 39.6950
v 1575.7420 0.9450 39.6950
v 1575.7420 1.0150 39.6250
v 1575.8120 1.0150 39.6250
v 1575.8120 1.0150 39.6950
v 1575.7420 1.0150 39.6950
v 1580.2750 0.0050 39.6700
v 1581.2250 0.0050 39.6700
v 1581.2250 0.0050 39.7300
v 1580.2750 0.0050 39.7300
v 1580.2750 2.0550 39.6700
v 1581.2250 2.0550 39.6700
v 1581.2250 2.0550 39.7300
v 1580.2750 2.0550 39.7300
v 1581.2420 0.9450 39.6250
v 1581.3120 0.9450 39.6250
v 1581.3120 0.9450 39.6950
v 1581.2420 0.9450 39.6950
v 1581.2420 1.0150 39.6250
v 1581.3120 1.0150 39.6250
v 1581.3120 1.0150 39.6950
v 1581.2420 1.0150 39.6950
v 1585.7750 0.0050 39.6700
v 1586.7250 0.0050 39.6700
v 1586.7250 0.0050 39.7300
v 1585.7750 0.0050 39.7300
v 1585.7750 2.0550 39.6700
v 1586.7250 2.0550 39.6700
v 1586.7250 2.0550 39.7300
v 1585.7750 2.0550 39.7300
v 1586.7420 0.9450 39.6250
v 1586.8120 0.9450 39.6250
v 1586.8120 0.9450 39.6950
v 1586.7420 0.9450 39.6950
v 1586.7420 1.0150 39.6250
v 1586.8120 1.0150 39.6250
v 1586.8120 1.0150 39.6950
v 1586.7420 1.0150 39.6950
v 1588.5250 0.0050 39.6700
v 1589.4750 0.0050 39.6700
v 1589.4750 0.0050 39.7300
v 1588.5250 0.0050 39.7300
v 1588.5250 2.0550 39.6700
v 1589.4750 2.0550 39.6700
v 1589.4750 2.0550 39.7300
v 1588.5250 2.0550 39.7300
v 1589.4920 0.9450 39.6250
v 1589.5620 0.9450 39.6250
v 1589.5620 0.9450 39.6950
v 1589.4920 0.9450 39.6950
v 1589.4920 1.0150 39.6250
v 1589.5620 1.0150 39.6250
v 1589.5620 1.0150 39.6950
v 1589.4920 1.0150 39.6950
vt 976.6875 14.5000
vt 976.6875 16.4375
vt 978.6250 16.4375
vt 978.6250 14.5000
vt 976.6875 14.5000
vt 978.6250 14.5000
vt 978.6250 16.4375
vt 976.6875 16.4375
vt 976.6875 0.0000
vt 978.6250 0.0000
vt 978.6250 2.1250
vt 976.6875 2.1250
vt 978.6250 0.0000
vt 976.6875 0.0000
vt 976.6875 2.1250
vt 978.6250 2.1250
vt 14.5000 0.0000
vt 16.4375 0.0000
vt 16.4375 2.1250
vt 14.5000 2.1250
vt 16.4375 0.0000
vt 14.5000 0.0000
vt 14.5000 2.1250
vt 16.4375 2.1250
vt 978.4062 14.5000
vt 978.4062 16.4375
vt 980.3437 16.4375
vt 980.3437 14.5000
vt 978.4062 14.5000
vt 980.3437 14.5000
vt 980.3437 16.4375
vt 978.4062 16.4375
vt 978.4062 0.0000
vt 980.3437 0.0000
vt 980.3437 2.1250
vt 978.4062 2.1250
vt 980.3437 0.0000
vt 978.4062 0.0000
vt 978.4062 2.1250
vt 980.3437 2.1250
vt 14.5000 0.0000
vt 16.4375 0.0000
vt 16.4375 2.1250
vt 14.5000 2.1250
vt 16.4375 0.0000
vt 14.5000 0.0000
vt 14.5000 2.1250
vt 16.4375 2.1250
vt 980.1250 14.5000
vt 980.1250 16.4375
vt 982.0625 16.4375
vt 982.0625 14.5000
vt 980.1250 14.5000
vt 982.0625 14.5000
vt 982.0625 16.4375
vt 980.1250 16.4375
vt 980.1250 0.0000
vt 982.0625 0.0000
vt 982.0625 2.1250
vt 980.1250 2.1250
vt 982.0625 0.0000
vt 980.1250 0.0000
vt 980.1250 2.1250
vt 982.0625 2.1250
vt 14.5000 0.0000
vt 16.4375 0.0000
vt 16.4375 2.1250
vt 14.5000 2.1250
vt 16.4375 0.0000
vt 14.5000 0.0000
vt 14.5000 2.1250
vt 16.4375 2.1250
vt 987.0000 14.5000
vt 987.0000 16.4375
vt 988.9375 16.4375
vt 988.9375 14.5000
vt 987.0000 14.5000
vt 988.9375 14.5000
vt 988.9375 16.4375
vt 987.0000 16.4375
vt 987.0000 0.0000
vt 988.9375 0.0000
vt 988.9375 2.1250
vt 987.0000 2.1250
vt 988.9375 0.0000
vt 987.0000 0.0000
vt 987.0000 2.1250
vt 988.9375 2.1250
vt 14.5000 0.0000
vt 16.4375 0.0000
vt 16.4375 2.1250
vt 14.5000 2.1250
vt 16.4375 0.0000
vt 14.5000 0.0000
vt 14.5000 2.1250
vt 16.4375 2.1250
vt 990.4375 14.5000
vt 990.4375 16.4375
vt 992.3750 16.4375
vt 992.3750 14.5000
vt 990.4375 14.5000
vt 992.3750 14.5000
vt 992.3750 16.4375
vt 990.4375 16.4375
vt 990.4375 0.0000
vt 992.3750 0.0000
vt 992.3750 2.1250
vt 990.4375 2.1250
vt 992.3750 0.0000
vt 990.4375 0.0000
vt 990.4375 2.1250
vt 992.3750 2.1250
vt 14.5000 0.0000
vt 16.4375 0.0000
vt 16.4375 2.1250
vt 14.5000 2.1250
vt 16.4375 0.0000
vt 14.5000 0.0000
vt 14.5000 2.1250
vt 16.4375 2.1250
vt 980.1250 17.9375
vt 980.1250 19.8750
vt 982.0625 19.8750
vt 982.0625 17.9375
vt 980.1250 17.9375
vt 982.0625 17.9375
vt 982.0625 19.8750
vt 980.1250 19.8750
vt 980.1250 0.0000
vt 982.0625 0.0000
vt 982.0625 2.1250
vt 980.1250 2.1250
vt 982.0625 0.0000
vt 980.1250 0.0000
vt 980.1250 2.1250
vt 982.0625 2.1250
vt 17.9375 0.0000
vt 19.8750 0.0000
vt 19.8750 2.1250
vt 17.9375 2.1250
vt 19.8750 0.0000
vt 17.9375 0.0000
vt 17.9375 2.1250
vt 19.8750 2.1250
vt 983.5625 17.9375
vt 983.5625 19.8750
vt 985.5000 19.8750
vt 985.5000 17.9375
vt 983.5625 17.9375
vt 985.5000 17.9375
vt 985.5000 19.8750
vt 983.5625 19.8750
vt 983.5625 0.0000
vt 985.5000 0.0000
vt 985.5000 2.1250
vt 983.5625 2.1250
vt 985.5000 0.0000
vt 983.5625 0.0000
vt 983.5625 2.1250
vt 985.5000 2.1250
vt 17.9375 0.0000
vt 19.8750 0.0000
vt 19.8750 2.1250
vt 17.9375 2.1250
vt 19.8750 0.0000
vt 17.9375 0.0000
vt 17.9375 2.1250
vt 19.8750 2.1250
vt 987.0000 17.9375
vt 987.0000 19.8750
vt 988.9375 19.8750
vt 988.9375 17.9375
vt 987.0000 17.9375
vt 988.9375 17.9375
vt 988.9375 19.8750
vt 987.0000 19.8750
vt 987.0000 0.0000
vt 988.9375 0.0000
vt 988.9375 2.1250
vt 987.0000 2.1250
vt 988.9375 0.0000
vt 987.0000 0.0000
vt 987.0000 2.1250
vt 988.9375 2.1250
vt 17.9375 0.0000
vt 19.8750 0.0000
vt 19.8750 2.1250
vt 17.9375 2.1250
vt 19.8750 0.0000
vt 17.9375 0.0000
vt 17.9375 2.1250
vt 19.8750 2.1250
vt 990.4375 17.9375
vt 990.4375 19.8750
vt 992.3750 19.8750
vt 992.3750 17.9375
vt 990.4375 17.9375
vt 992.3750 17.9375
vt 992.3750 19.8750
vt 990.4375 19.8750
vt 990.4375 0.0000
vt 992.3750 0.0000
vt 992.3750 2.1250
vt 990.4375 2.1250
vt 992.3750 0.0000
vt 990.4375 0.0000
vt 990.4375 2.1250
vt 992.3750 2.1250
vt 17.9375 0.0000
vt 19.8750 0.0000
vt 19.8750 2.1250
vt 17.9375 2.1250
vt 19.8750 0.0000
vt 17.9375 0.0000
vt 17.9375 2.1250
vt 19.8750 2.1250
vt 976.6875 19.6562
vt 976.6875 21.5937
vt 978.6250 21.5937
vt 978.6250 19.6562
vt 976.6875 19.6562
vt 978.6250 19.6562
vt 978.6250 21.5937
vt 976.6875 21.5937
vt 976.6875 0.0000
vt 978.6250 0.0000
vt 978.6250 2.1250
vt 976.6875 2.1250
vt 978.6250 0.0000
vt 976.6875 0.0000
vt 976.6875 2.1250
vt 978.6250 2.1250
vt 19.6562 0.0000
vt 21.5937 0.0000
vt 21.5937 2.1250
vt 19.6562 2.1250
vt 21.5937 0.0000
vt 19.6562 0.0000
vt 19.6562 2.1250
vt 21.5937 2.1250
vt 980.1250 19.6562
vt 980.1250 21.5937
vt 982.0625 21.5937
vt 982.0625 19.6562
vt 980.1250 19.6562
vt 982.0625 19.6562
vt 982.0625 21.5937
vt 980.1250 21.5937
vt 980.1250 0.0000
vt 982.0625 0.0000
vt 982.0625 2.1250
vt 980.1250 2.1250
vt 982.0625 0.0000
vt 980.1250 0.0000
vt 980.1250 2.1250
vt 982.0625 2.1250
vt 19.6562 0.0000
vt 21.5937 0.0000
vt 21.5937 2.1250
vt 19.6562 2.1250
vt 21.5937 0.0000
vt 19.6562 0.0000
vt 19.6562 2.1250
vt 21.5937 2.1250
vt 987.0000 19.6562
vt 987.0000 21.5937
vt 988.9375 21.5937
vt 988.9375 19.6562
vt 987.0000 19.6562
vt 988.9375 19.6562
vt 988.9375 21.5937
vt 987.0000 21.5937
vt 987.0000 0.0000
vt 988.9375 0.0000
vt 988.9375 2.1250
vt 987.0000 2.1250
vt 988.9375 0.0000
vt 987.0000 0.0000
vt 987.0000 2.1250
vt 988.9375 2.1250
vt 19.6562 0.0000
vt 21.5937 0.0000
vt 21.5937 2.1250
vt 19.6562 2.1250
vt 21.5937 0.0000
vt 19.6562 0.0000
vt 19.6562 2.1250
vt 21.5937 2.1250
vt 976.6875 21.3750
vt 976.6875 23.3125
vt 978.6250 23.3125
vt 978.6250 21.3750
vt 976.6875 21.3750
vt 978.6250 21.3750
vt 978.6250 23.3125
vt 976.6875 23.3125
vt 976.6875 0.0000
vt 978.6250 0.0000
vt 978.6250 2.1250
vt 976.6875 2.1250
vt 978.6250 0.0000
vt 976.6875 0.0000
vt 976.6875 2.1250
vt 978.6250 2.1250
vt 21.3750 0.0000
vt 23.3125 0.0000
vt 23.3125 2.1250
vt 21.3750 2.1250
vt 23.3125 0.0000
vt 21.3750 0.0000
vt 21.3750 2.1250
vt 23.3125 2.1250
vt 980.1250 21.3750
vt 980.1250 23.3125
vt 982.0625 23.3125
vt 982.0625 21.3750
vt 980.1250 21.3750
vt 982.0625 21.3750
vt 982.0625 23.3125
vt 980.1250 23.3125
vt 980.1250 0.0000
vt 982.0625 0.0000
vt 982.0625 2.1250
vt 980.1250 2.1250
vt 982.0625 0.0000
vt 980.1250 0.0000
vt 980.1250 2.1250
vt 982.0625 2.1250
vt 21.3750 0.0000
vt 23.3125 0.0000
vt 23.3125 2.1250
vt 21.3750 2.1250
vt 23.3125 0.0000
vt 21.3750 0.0000
vt 21.3750 2.1250
vt 23.3125 2.1250
vt 983.5625 21.3750
vt 983.5625 23.3125
vt 985.5000 23.3125
vt 985.5000 21.3750
vt 983.5625 21.3750
vt 985.5000 21.3750
vt 985.5000 23.3125
vt 983.5625 23.3125
vt 983.5625 0.0000
vt 985.5000 0.0000
vt 985.5000 2.1250
vt 983.5625 2.1250
vt 985.5000 0.0000
vt 983.5625 0.0000
vt 983.5625 2.1250
vt 985.5000 2.1250
vt 21.3750 0.0000
vt 23.3125 0.0000
vt 23.3125 2.1250
vt 21.3750 2.1250
vt 23.3125 0.0000
vt 21.3750 0.0000
vt 21.3750 2.1250
vt 23.3125 2.1250
vt 985.2812 21.3750
vt 985.2812 23.3125
vt 987.2187 23.3125
vt 987.2187 21.3750
vt 985.2812 21.3750
vt 987.2187 21.3750
vt 987.2187 23.3125
vt 985.2812 23.3125
vt 985.2812 0.0000
vt 987.2187 0.0000
vt 987.2187 2.1250
vt 985.2812 2.1250
vt 987.2187 0.0000
vt 985.2812 0.0000
vt 985.2812 2.1250
vt 987.2187 2.1250
vt 21.3750 0.0000
vt 23.3125 0.0000
vt 23.3125 2.1250
vt 21.3750 2.1250
vt 23.3125 0.0000
vt 21.3750 0.0000
vt 21.3750 2.1250
vt 23.3125 2.1250
vt 976.6875 23.0938
vt 976.6875 25.0312
vt 978.6250 25.0312
vt 978.6250 23.0938
vt 976.6875 23.0938
vt 978.6250 23.0938
vt 978.6250 25.0312
vt 976.6875 25.0312
vt 976.6875 0.0000
vt 978.6250 0.0000
vt 978.6250 2.1250
vt 976.6875 2.1250
vt 978.6250 0.0000
vt 976.6875 0.0000
vt 976.6875 2.1250
vt 978.6250 2.1250
vt 23.0938 0.0000
vt 25.0312 0.0000
vt 25.0312 2.1250
vt 23.0938 2.1250
vt 25.0312 0.0000
vt 23.0938 0.0000
vt 23.0938 2.1250
vt 25.0312 2.1250
usemtl hotel_paper_alt
f 121 124 123 122
f 125 126 127 128
f 121 122 126 125
f 123 124 128 127
f 122 123 127 126
f 124 121 125 128
f 129 132 131 130
f 133 134 135 136
f 129 130 134 133
f 131 132 136 135
f 130 131 135 134
f 132 129 133 136
f 161 164 163 162
f 165 166 167 168
f 161 162 166 165
f 163 164 168 167
f 162 163 167 166
f 164 161 165 168
f 361 364 363 362
f 365 366 367 368
f 361 362 366 365
f 363 364 368 367
f 362 363 367 366
f 364 361 365 368
f 417 420 419 418
f 421 422 423 424
f 417 418 422 421
f 419 420 424 423
f 418 419 423 422
f 420 417 421 424
usemtl lamp_warm
f 449 452 451 450
f 453 454 455 456
f 449 450 454 453
f 451 452 456 455
f 450 451 455 454
f 452 449 453 456
usemtl hotel_trim
f 457 460 459 458
f 461 462 463 464
f 457 458 462 461
f 459 460 464 463
f 458 459 463 462
f 460 457 461 464
usemtl lamp_warm
f 465 468 467 466
f 469 470 471 472
f 465 466 470 469
f 467 468 472 471
f 466 467 471 470
f 468 465 469 472
usemtl hotel_trim
f 473 476 475 474
f 477 478 479 480
f 473 474 478 477
f 475 476 480 479
f 474 475 479 478
f 476 473 477 480
usemtl lamp_warm
f 481 484 483 482
f 485 486 487 488
f 481 482 486 485
f 483 484 488 487
f 482 483 487 486
f 484 481 485 488
usemtl hotel_trim
f 489 492 491 490
f 493 494 495 496
f 489 490 494 493
f 491 492 496 495
f 490 491 495 494
f 492 489 493 496
usemtl lamp_warm
f 497 500 499 498
f 501 502 503 504
f 497 498 502 501
f 499 500 504 503
f 498 499 503 502
f 500 497 501 504
usemtl hotel_trim
f 505 508 507 506
f 509 510 511 512
f 505 506 510 509
f 507 508 512 511
f 506 507 511 510
f 508 505 509 512
usemtl lamp_warm
f 513 516 515 514
f 517 518 519 520
f 513 514 518 517
f 515 516 520 519
f 514 515 519 518
f 516 513 517 520
usemtl hotel_trim
f 521 524 523 522
f 525 526 527 528
f 521 522 526 525
f 523 524 528 527
f 522 523 527 526
f 524 521 525 528
usemtl lamp_warm
f 529 532 531 530
f 533 534 535 536
f 529 530 534 533
f 531 532 536 535
f 530 531 535 534
f 532 529 533 536
usemtl hotel_trim
f 537 540 539 538
f 541 542 543 544
f 537 538 542 541
f 539 540 544 543
f 538 539 543 542
f 540 537 541 544
usemtl lamp_warm
f 545 548 547 546
f 549 550 551 552
f 545 546 550 549
f 547 548 552 551
f 546 547 551 550
f 548 545 549 552
usemtl hotel_trim
f 553 556 555 554
f 557 558 559 560
f 553 554 558 557
f 555 556 560 559
f 554 555 559 558
f 556 553 557 560
usemtl lamp_warm
f 561 564 563 562
f 565 566 567 568
f 561 562 566 565
f 563 564 568 567
f 562 563 567 566
f 564 561 565 568
usemtl hotel_trim
f 569 572 571 570
f 573 574 575 576
f 569 570 574 573
f 571 572 576 575
f 570 571 575 574
f 572 569 573 576
usemtl lamp_warm
f 577 580 579 578
f 581 582 583 584
f 577 578 582 581
f 579 580 584 583
f 578 579 583 582
f 580 577 581 584
usemtl hotel_trim
f 585 588 587 586
f 589 590 591 592
f 585 586 590 589
f 587 588 592 591
f 586 587 591 590
f 588 585 589 592
usemtl lamp_warm
f 593 596 595 594
f 597 598 599 600
f 593 594 598 597
f 595 596 600 599
f 594 595 599 598
f 596 593 597 600
usemtl hotel_trim
f 601 604 603 602
f 605 606 607 608
f 601 602 606 605
f 603 604 608 607
f 602 603 607 606
f 604 601 605 608
usemtl lamp_warm
f 609 612 611 610
f 613 614 615 616
f 609 610 614 613
f 611 612 616 615
f 610 611 615 614
f 612 609 613 616
usemtl hotel_trim
f 617 620 619 618
f 621 622 623 624
f 617 618 622 621
f 619 620 624 623
f 618 619 623 622
f 620 617 621 624
usemtl door_wood
f 625 628 627 626
f 629 630 631 632
f 625 626 630 629
f 627 628 632 631
f 626 627 631 630
f 628 625 629 632
usemtl door_brass
f 633 636 635 634
f 637 638 639 640
f 633 634 638 637
f 635 636 640 639
f 634 635 639 638
f 636 633 637 640
usemtl door_wood
f 641 644 643 642
f 645 646 647 648
f 641 642 646 645
f 643 644 648 647
f 642 643 647 646
f 644 641 645 648
usemtl door_brass
f 649 652 651 650
f 653 654 655 656
f 649 650 654 653
f 651 652 656 655
f 650 651 655 654
f 652 649 653 656
usemtl door_wood
f 657 660 659 658
f 661 662 663 664
f 657 658 662 661
f 659 660 664 663
f 658 659 663 662
f 660 657 661 664
usemtl door_brass
f 665 668 667 666
f 669 670 671 672
f 665 666 670 669
f 667 668 672 671
f 666 667 671 670
f 668 665 669 672
usemtl door_wood
f 673 676 675 674
f 677 678 679 680
f 673 674 678 677
f 675 676 680 679
f 674 675 679 678
f 676 673 677 680
usemtl door_brass
f 681 684 683 682
f 685 686 687 688
f 681 682 686 685
f 683 684 688 687
f 682 683 687 686
f 684 681 685 688
usemtl door_wood
f 689 692 691 690
f 693 694 695 696
f 689 690 694 693
f 691 692 696 695
f 690 691 695 694
f 692 689 693 696
usemtl door_brass
f 697 700 699 698
f 701 702 703 704
f 697 698 702 701
f 699 700 704 703
f 698 699 703 702
f 700 697 701 704
usemtl door_wood
f 705 708 707 706
f 709 710 711 712
f 705 706 710 709
f 707 708 712 711
f 706 707 711 710
f 708 705 709 712
usemtl door_brass
f 713 716 715 714
f 717 718 719 720
f 713 714 718 717
f 715 716 720 719
f 714 715 719 718
f 716 713 717 720
usemtl door_wood
f 721 724 723 722
f 725 726 727 728
f 721 722 726 725
f 723 724 728 727
f 722 723 727 726
f 724 721 725 728
usemtl door_brass
f 729 732 731 730
f 733 734 735 736
f 729 730 734 733
f 731 732 736 735
f 730 731 735 734
f 732 729 733 736
usemtl door_wood
f 737 740 739 738
f 741 742 743 744
f 737 738 742 741
f 739 740 744 743
f 738 739 743 742
f 740 737 741 744
usemtl door_brass
f 745 748 747 746
f 749 750 751 752
f 745 746 750 749
f 747 748 752 751
f 746 747 751 750
f 748 745 749 752
usemtl door_wood
f 753 756 755 754
f 757 758 759 760
f 753 754 758 757
f 755 756 760 759
f 754 755 759 758
f 756 753 757 760
usemtl door_brass
f 761 764 763 762
f 765 766 767 768
f 761 762 766 765
f 763 764 768 767
f 762 763 767 766
f 764 761 765 768
usemtl door_wood
f 769 772 771 770
f 773 774 775 776
f 769 770 774 773
f 771 772 776 775
f 770 771 775 774
f 772 769 773 776
usemtl door_brass
f 777 780 779 778
f 781 782 783 784
f 777 778 782 781
f 779 780 784 783
f 778 779 783 782
f 780 777 781 784
usemtl door_wood
f 785 788 787 786
f 789 790 791 792
f 785 786 790 789
f 787 788 792 791
f 786 787 791 790
f 788 785 789 792
usemtl door_brass
f 793 796 795 794
f 797 798 799 800
f 793 794 798 797
f 795 796 800 799
f 794 795 799 798
f 796 793 797 800
usemtl door_wood
f 801 804 803 802
f 805 806 807 808
f 801 802 806 805
f 803 804 808 807
f 802 803 807 806
f 804 801 805 808
usemtl door_brass
f 809 812 811 810
f 813 814 815 816
f 809 810 814 813
f 811 812 816 815
f 810 811 815 814
f 812 809 813 816
usemtl door_wood
f 817 820 819 818
f 821 822 823 824
f 817 818 822 821
f 819 820 824 823
f 818 819 823 822
f 820 817 821 824
usemtl door_brass
f 825 828 827 826
f 829 830 831 832
f 825 826 830 829
f 827 828 832 831
f 826 827 831 830
f 828 825 829 832
usemtl hotel_paper
f 1/1 2/2 3/3 4/4
f 5/5 6/6 7/7 8/8
f 9/9 10/10 11/11 12/12
f 13/13 14/14 15/15 16/16
f 17/17 18/18 19/19 20/20
f 21/21 22/22 23/23 24/24
f 25/25 26/26 27/27 28/28
f 29/29 30/30 31/31 32/32
f 33/33 34/34 35/35 36/36
f 37/37 38/38 39/39 40/40
f 41/41 42/42 43/43 44/44
f 45/45 46/46 47/47 48/48
f 49/49 50/50 51/51 52/52
f 53/53 54/54 55/55 56/56
f 57/57 58/58 59/59 60/60
f 61/61 62/62 63/63 64/64
f 65/65 66/66 67/67 68/68
f 69/69 70/70 71/71 72/72
f 73/73 74/74 75/75 76/76
f 77/77 78/78 79/79 80/80
f 81/81 82/82 83/83 84/84
f 85/85 86/86 87/87 88/88
f 89/89 90/90 91/91 92/92
f 93/93 94/94 95/95 96/96
f 97/97 98/98 99/99 100/100
f 101/101 102/102 103/103 104/104
f 105/105 106/106 107/107 108/108
f 109/109 110/110 111/111 112/112
f 113/113 114/114 115/115 116/116
f 117/117 118/118 119/119 120/120
f 137/121 138/122 139/123 140/124
f 141/125 142/126 143/127 144/128
f 145/129 146/130 147/131 148/132
f 149/133 150/134 151/135 152/136
f 153/137 154/138 155/139 156/140
f 157/141 158/142 159/143 160/144
f 169/145 170/146 171/147 172/148
f 173/149 174/150 175/151 176/152
f 177/153 178/154 179/155 180/156
f 181/157 182/158 183/159 184/160
f 185/161 186/162 187/163 188/164
f 189/165 190/166 191/167 192/168
f 193/169 194/170 195/171 196/172
f 197/173 198/174 199/175 200/176
f 201/177 202/178 203/179 204/180
f 205/181 206/182 207/183 208/184
f 209/185 210/186 211/187 212/188
f 213/189 214/190 215/191 216/192
f 217/193 218/194 219/195 220/196
f 221/197 222/198 223/199 224/200
f 225/201 226/202 227/203 228/204
f 229/205 230/206 231/207 232/208
f 233/209 234/210 235/211 236/212
f 237/213 238/214 239/215 240/216
f 241/217 242/218 243/219 244/220
f 245/221 246/222 247/223 248/224
f 249/225 250/226 251/227 252/228
f 253/229 254/230 255/231 256/232
f 257/233 258/234 259/235 260/236
f 261/237 262/238 263/239 264/240
f 265/241 266/242 267/243 268/244
f 269/245 270/246 271/247 272/248
f 273/249 274/250 275/251 276/252
f 277/253 278/254 279/255 280/256
f 281/257 282/258 283/259 284/260
f 285/261 286/262 287/263 288/264
f 289/265 290/266 291/267 292/268
f 293/269 294/270 295/271 296/272
f 297/273 298/274 299/275 300/276
f 301/277 302/278 303/279 304/280
f 305/281 306/282 307/283 308/284
f 309/285 310/286 311/287 312/288
f 313/289 314/290 315/291 316/292
f 317/293 318/294 319/295 320/296
f 321/297 322/298 323/299 324/300
f 325/301 326/302 327/303 328/304
f 329/305 330/306 331/307 332/308
f 333/309 334/310 335/311 336/312
f 337/313 338/314 339/315 340/316
f 341/317 342/318 343/319 344/320
f 345/321 346/322 347/323 348/324
f 349/325 350/326 351/327 352/328
f 353/329 354/330 355/331 356/332
f 357/333 358/334 359/335 360/336
f 369/337 370/338 371/339 372/340
f 373/341 374/342 375/343 376/344
f 377/345 378/346 379/347 380/348
f 381/349 382/350 383/351 384/352
f 385/353 386/354 387/355 388/356
f 389/357 390/358 391/359 392/360
f 393/361 394/362 395/363 396/364
f 397/365 398/366 399/367 400/368
f 401/369 402/370 403/371 404/372
f 405/373 406/374 407/375 408/376
f 409/377 410/378 411/379 412/380
f 413/381 414/382 415/383 416/384
f 425/385 426/386 427/387 428/388
f 429/389 430/390 431/391 432/392
f 433/393 434/394 435/395 436/396
f 437/397 438/398 439/399 440/400
f 441/401 442/402 443/403 444/404
f 445/405 446/406 447/407 448/408
