# RoastEngine Backrooms level
mtllib backrooms.mtl
v 1590.2000 0.0000 -37.3000
v 1590.2000 0.0000 -34.2000
v 1593.3000 0.0000 -34.2000
v 1593.3000 0.0000 -37.3000
v 1590.2000 3.4000 -37.3000
v 1593.3000 3.4000 -37.3000
v 1593.3000 3.4000 -34.2000
v 1590.2000 3.4000 -34.2000
v 1590.2000 0.0000 -37.3000
v 1593.3000 0.0000 -37.3000
v 1593.3000 3.4000 -37.3000
v 1590.2000 3.4000 -37.3000
v 1593.3000 0.0000 -34.2000
v 1590.2000 0.0000 -34.2000
v 1590.2000 3.4000 -34.2000
v 1593.3000 3.4000 -34.2000
v 1593.3000 0.0000 -37.3000
v 1593.3000 0.0000 -34.2000
v 1593.3000 3.4000 -34.2000
v 1593.3000 3.4000 -37.3000
v 1590.2000 0.0000 -34.2000
v 1590.2000 0.0000 -37.3000
v 1590.2000 3.4000 -37.3000
v 1590.2000 3.4000 -34.2000
v 1592.9500 0.0000 -37.3000
v 1592.9500 0.0000 -34.2000
v 1596.0500 0.0000 -34.2000
v 1596.0500 0.0000 -37.3000
v 1592.9500 3.4000 -37.3000
v 1596.0500 3.4000 -37.3000
v 1596.0500 3.4000 -34.2000
v 1592.9500 3.4000 -34.2000
v 1592.9500 0.0000 -37.3000
v 1596.0500 0.0000 -37.3000
v 1596.0500 3.4000 -37.3000
v 1592.9500 3.4000 -37.3000
v 1596.0500 0.0000 -34.2000
v 1592.9500 0.0000 -34.2000
v 1592.9500 3.4000 -34.2000
v 1596.0500 3.4000 -34.2000
v 1596.0500 0.0000 -37.3000
v 1596.0500 0.0000 -34.2000
v 1596.0500 3.4000 -34.2000
v 1596.0500 3.4000 -37.3000
v 1592.9500 0.0000 -34.2000
v 1592.9500 0.0000 -37.3000
v 1592.9500 3.4000 -37.3000
v 1592.9500 3.4000 -34.2000
v 1595.7000 0.0000 -37.3000
v 1598.8000 0.0000 -37.3000
v 1598.8000 0.0000 -34.2000
v 1595.7000 0.0000 -34.2000
v 1595.7000 3.4000 -37.3000
v 1598.8000 3.4000 -37.3000
v 1598.8000 3.4000 -34.2000
v 1595.7000 3.4000 -34.2000
v 1598.4500 0.0000 -37.3000
v 1598.4500 0.0000 -34.2000
v 1601.5500 0.0000 -34.2000
v 1601.5500 0.0000 -37.3000
v 1598.4500 3.4000 -37.3000
v 1601.5500 3.4000 -37.3000
v 1601.5500 3.4000 -34.2000
v 1598.4500 3.4000 -34.2000
v 1598.4500 0.0000 -37.3000
v 1601.5500 0.0000 -37.3000
v 1601.5500 3.4000 -37.3000
v 1598.4500 3.4000 -37.3000
v 1601.5500 0.0000 -34.2000
v 1598.4500 0.0000 -34.2000
v 1598.4500 3.4000 -34.2000
v 1601.5500 3.4000 -34.2000
v 1601.5500 0.0000 -37.3000
v 1601.5500 0.0000 -34.2000
v 1601.5500 3.4000 -34.2000
v 1601.5500 3.4000 -37.3000
v 1598.4500 0.0000 -34.2000
v 1598.4500 0.0000 -37.3000
v 1598.4500 3.4000 -37.3000
v 1598.4500 3.4000 -34.2000
v 1601.2000 0.0000 -37.3000
v 1604.3000 0.0000 -37.3000
v 1604.3000 0.0000 -34.2000
v 1601.2000 0.0000 -34.2000
v 1601.2000 3.4000 -37.3000
v 1604.3000 3.4000 -37.3000
v 1604.3000 3.4000 -34.2000
v 1601.2000 3.4000 -34.2000
v 1612.2000 0.0000 -37.3000
v 1612.2000 0.0000 -34.2000
v 1615.3000 0.0000 -34.2000
v 1615.3000 0.0000 -37.3000
v 1612.2000 3.4000 -37.3000
v 1615.3000 3.4000 -37.3000
v 1615.3000 3.4000 -34.2000
v 1612.2000 3.4000 -34.2000
v 1612.2000 0.0000 -37.3000
v 1615.3000 0.0000 -37.3000
v 1615.3000 3.4000 -37.3000
v 1612.2000 3.4000 -37.3000
v 1615.3000 0.0000 -34.2000
v 1612.2000 0.0000 -34.2000
v 1612.2000 3.4000 -34.2000
v 1615.3000 3.4000 -34.2000
v 1615.3000 0.0000 -37.3000
v 1615.3000 0.0000 -34.2000
v 1615.3000 3.4000 -34.2000
v 1615.3000 3.4000 -37.3000
v 1612.2000 0.0000 -34.2000
v 1612.2000 0.0000 -37.3000
v 1612.2000 3.4000 -37.3000
v 1612.2000 3.4000 -34.2000
v 1601.2000 0.0000 -34.5500
v 1601.2000 0.0000 -31.4500
v 1604.3000 0.0000 -31.4500
v 1604.3000 0.0000 -34.5500
v 1601.2000 3.4000 -34.5500
v 1604.3000 3.4000 -34.5500
v 1604.3000 3.4000 -31.4500
v 1601.2000 3.4000 -31.4500
v 1601.2000 0.0000 -34.5500
v 1604.3000 0.0000 -34.5500
v 1604.3000 3.4000 -34.5500
v 1601.2000 3.4000 -34.5500
v 1604.3000 0.0000 -31.4500
v 1601.2000 0.0000 -31.4500
v 1601.2000 3.4000 -31.4500
v 1604.3000 3.4000 -31.4500
v 1604.3000 0.0000 -34.5500
v 1604.3000 0.0000 -31.4500
v 1604.3000 3.4000 -31.4500
v 1604.3000 3.4000 -34.5500
v 1601.2000 0.0000 -31.4500
v 1601.2000 0.0000 -34.5500
v 1601.2000 3.4000 -34.5500
v 1601.2000 3.4000 -31.4500
v 1612.2000 0.0000 -34.5500
v 1615.3000 0.0000 -34.5500
v 1615.3000 0.0000 -31.4500
v 1612.2000 0.0000 -31.4500
v 1612.2000 3.4000 -34.5500
v 1615.3000 3.4000 -34.5500
v 1615.3000 3.4000 -31.4500
v 1612.2000 3.4000 -31.4500
v 1590.2000 0.0000 -31.8000
v 1590.2000 0.0000 -28.7000
v 1593.3000 0.0000 -28.7000
v 1593.3000 0.0000 -31.8000
v 1590.2000 3.4000 -31.8000
v 1593.3000 3.4000 -31.8000
v 1593.3000 3.4000 -28.7000
v 1590.2000 3.4000 -28.7000
v 1590.2000 0.0000 -31.8000
v 1593.3000 0.0000 -31.8000
v 1593.3000 3.4000 -31.8000
v 1590.2000 3.4000 -31.8000
v 1593.3000 0.0000 -28.7000
v 1590.2000 0.0000 -28.7000
v 1590.2000 3.4000 -28.7000
v 1593.3000 3.4000 -28.7000
v 1593.3000 0.0000 -31.8000
v 1593.3000 0.0000 -28.7000
v 1593.3000 3.4000 -28.7000
v 1593.3000 3.4000 -31.8000
v 1590.2000 0.0000 -28.7000
v 1590.2000 0.0000 -31.8000
v 1590.2000 3.4000 -31.8000
v 1590.2000 3.4000 -28.7000
v 1595.7000 0.0000 -31.8000
v 1595.7000 0.0000 -28.7000
v 1598.8000 0.0000 -28.7000
v 1598.8000 0.0000 -31.8000
v 1595.7000 3.4000 -31.8000
v 1598.8000 3.4000 -31.8000
v 1598.8000 3.4000 -28.7000
v 1595.7000 3.4000 -28.7000
v 1595.7000 0.0000 -31.8000
v 1598.8000 0.0000 -31.8000
v 1598.8000 3.4000 -31.8000
v 1595.7000 3.4000 -31.8000
v 1598.8000 0.0000 -28.7000
v 1595.7000 0.0000 -28.7000
v 1595.7000 3.4000 -28.7000
v 1598.8000 3.4000 -28.7000
v 1598.8000 0.0000 -31.8000
v 1598.8000 0.0000 -28.7000
v 1598.8000 3.4000 -28.7000
v 1598.8000 3.4000 -31.8000
v 1595.7000 0.0000 -28.7000
v 1595.7000 0.0000 -31.8000
v 1595.7000 3.4000 -31.8000
v 1595.7000 3.4000 -28.7000
v 1598.4500 0.0000 -31.8000
v 1598.4500 0.0000 -28.7000
v 1601.5500 0.0000 -28.7000
v 1601.5500 0.0000 -31.8000
v 1598.4500 3.4000 -31.8000
v 1601.5500 3.4000 -31.8000
v 1601.5500 3.4000 -28.7000
v 1598.4500 3.4000 -28.7000
v 1598.4500 0.0000 -31.8000
v 1601.5500 0.0000 -31.8000
v 1601.5500 3.4000 -31.8000
v 1598.4500 3.4000 -31.8000
v 1601.5500 0.0000 -28.7000
v 1598.4500 0.0000 -28.7000
v 1598.4500 3.4000 -28.7000
v 1601.5500 3.4000 -28.7000
v 1601.5500 0.0000 -31.8000
v 1601.5500 0.0000 -28.7000
v 1601.5500 3.4000 -28.7000
v 1601.5500 3.4000 -31.8000
v 1598.4500 0.0000 -28.7000
v 1598.4500 0.0000 -31.8000
v 1598.4500 3.4000 -31.8000
v 1598.4500 3.4000 -28.7000
v 1601.2000 0.0000 -31.8000
v 1601.2000 0.0000 -28.7000
v 1604.3000 0.0000 -28.7000
v 1604.3000 0.0000 -31.8000
v 1601.2000 3.4000 -31.8000
v 1604.3000 3.4000 -31.8000
v 1604.3000 3.4000 -28.7000
v 1601.2000 3.4000 -28.7000
v 1601.2000 0.0000 -31.8000
v 1604.3000 0.0000 -31.8000
v 1604.3000 3.4000 -31.8000
v 1601.2000 3.4000 -31.8000
v 1604.3000 0.0000 -28.7000
v 1601.2000 0.0000 -28.7000
v 1601.2000 3.4000 -28.7000
v 1604.3000 3.4000 -28.7000
v 1604.3000 0.0000 -31.8000
v 1604.3000 0.0000 -28.7000
v 1604.3000 3.4000 -28.7000
v 1604.3000 3.4000 -31.8000
v 1601.2000 0.0000 -28.7000
v 1601.2000 0.0000 -31.8000
v 1601.2000 3.4000 -31.8000
v 1601.2000 3.4000 -28.7000
v 1603.9500 0.0000 -31.8000
v 1603.9500 0.0000 -28.7000
v 1607.0500 0.0000 -28.7000
v 1607.0500 0.0000 -31.8000
v 1603.9500 3.4000 -31.8000
v 1607.0500 3.4000 -31.8000
v 1607.0500 3.4000 -28.7000
v 1603.9500 3.4000 -28.7000
v 1603.9500 0.0000 -31.8000
v 1607.0500 0.0000 -31.8000
v 1607.0500 3.4000 -31.8000
v 1603.9500 3.4000 -31.8000
v 1607.0500 0.0000 -28.7000
v 1603.9500 0.0000 -28.7000
v 1603.9500 3.4000 -28.7000
v 1607.0500 3.4000 -28.7000
v 1607.0500 0.0000 -31.8000
v 1607.0500 0.0000 -28.7000
v 1607.0500 3.4000 -28.7000
v 1607.0500 3.4000 -31.8000
v 1603.9500 0.0000 -28.7000
v 1603.9500 0.0000 -31.8000
v 1603.9500 3.4000 -31.8000
v 1603.9500 3.4000 -28.7000
v 1606.7000 0.0000 -31.8000
v 1606.7000 0.0000 -28.7000
v 1609.8000 0.0000 -28.7000
v 1609.8000 0.0000 -31.8000
v 1606.7000 3.4000 -31.8000
v 1609.8000 3.4000 -31.8000
v 1609.8000 3.4000 -28.7000
v 1606.7000 3.4000 -28.7000
v 1606.7000 0.0000 -31.8000
v 1609.8000 0.0000 -31.8000
v 1609.8000 3.4000 -31.8000
v 1606.7000 3.4000 -31.8000
v 1609.8000 0.0000 -28.7000
v 1606.7000 0.0000 -28.7000
v 1606.7000 3.4000 -28.7000
v 1609.8000 3.4000 -28.7000
v 1609.8000 0.0000 -31.8000
v 1609.8000 0.0000 -28.7000
v 1609.8000 3.4000 -28.7000
v 1609.8000 3.4000 -31.8000
v 1606.7000 0.0000 -28.7000
v 1606.7000 0.0000 -31.8000
v 1606.7000 3.4000 -31.8000
v 1606.7000 3.4000 -28.7000
v 1612.2000 0.0000 -31.8000
v 1612.2000 0.0000 -28.7000
v 1615.3000 0.0000 -28.7000
v 1615.3000 0.0000 -31.8000
v 1612.2000 3.4000 -31.8000
v 1615.3000 3.4000 -31.8000
v 1615.3000 3.4000 -28.7000
v 1612.2000 3.4000 -28.7000
v 1612.2000 0.0000 -31.8000
v 1615.3000 0.0000 -31.8000
v 1615.3000 3.4000 -31.8000
v 1612.2000 3.4000 -31.8000
v 1615.3000 0.0000 -28.7000
v 1612.2000 0.0000 -28.7000
v 1612.2000 3.4000 -28.7000
v 1615.3000 3.4000 -28.7000
v 1615.3000 0.0000 -31.8000
v 1615.3000 0.0000 -28.7000
v 1615.3000 3.4000 -28.7000
v 1615.3000 3.4000 -31.8000
v 1612.2000 0.0000 -28.7000
v 1612.2000 0.0000 -31.8000
v 1612.2000 3.4000 -31.8000
v 1612.2000 3.4000 -28.7000
v 1617.7000 0.0000 -31.8000
v 1620.8000 0.0000 -31.8000
v 1620.8000 0.0000 -28.7000
v 1617.7000 0.0000 -28.7000
v 1617.7000 3.4000 -31.8000
v 1620.8000 3.4000 -31.8000
v 1620.8000 3.4000 -28.7000
v 1617.7000 3.4000 -28.7000
v 1590.2000 0.0000 -29.0500
v 1590.2000 0.0000 -25.9500
v 1593.3000 0.0000 -25.9500
v 1593.3000 0.0000 -29.0500
v 1590.2000 3.4000 -29.0500
v 1593.3000 3.4000 -29.0500
v 1593.3000 3.4000 -25.9500
v 1590.2000 3.4000 -25.9500
v 1590.2000 0.0000 -29.0500
v 1593.3000 0.0000 -29.0500
v 1593.3000 3.4000 -29.0500
v 1590.2000 3.4000 -29.0500
v 1593.3000 0.0000 -25.9500
v 1590.2000 0.0000 -25.9500
v 1590.2000 3.4000 -25.9500
v 1593.3000 3.4000 -25.9500
v 1593.3000 0.0000 -29.0500
v 1593.3000 0.0000 -25.9500
v 1593.3000 3.4000 -25.9500
v 1593.3000 3.4000 -29.0500
v 1590.2000 0.0000 -25.9500
v 1590.2000 0.0000 -29.0500
v 1590.2000 3.4000 -29.0500
v 1590.2000 3.4000 -25.9500
v 1606.7000 0.0000 -29.0500
v 1606.7000 0.0000 -25.9500
v 1609.8000 0.0000 -25.9500
v 1609.8000 0.0000 -29.0500
v 1606.7000 3.4000 -29.0500
v 1609.8000 3.4000 -29.0500
v 1609.8000 3.4000 -25.9500
v 1606.7000 3.4000 -25.9500
v 1606.7000 0.0000 -29.0500
v 1609.8000 0.0000 -29.0500
v 1609.8000 3.4000 -29.0500
v 1606.7000 3.4000 -29.0500
v 1609.8000 0.0000 -25.9500
v 1606.7000 0.0000 -25.9500
v 1606.7000 3.4000 -25.9500
v 1609.8000 3.4000 -25.9500
v 1609.8000 0.0000 -29.0500
v 1609.8000 0.0000 -25.9500
v 1609.8000 3.4000 -25.9500
v 1609.8000 3.4000 -29.0500
v 1606.7000 0.0000 -25.9500
v 1606.7000 0.0000 -29.0500
v 1606.7000 3.4000 -29.0500
v 1606.7000 3.4000 -25.9500
v 1617.7000 0.0000 -29.0500
v 1617.7000 0.0000 -25.9500
v 1620.8000 0.0000 -25.9500
v 1620.8000 0.0000 -29.0500
v 1617.7000 3.4000 -29.0500
v 1620.8000 3.4000 -29.0500
v 1620.8000 3.4000 -25.9500
v 1617.7000 3.4000 -25.9500
v 1617.7000 0.0000 -29.0500
v 1620.8000 0.0000 -29.0500
v 1620.8000 3.4000 -29.0500
v 1617.7000 3.4000 -29.0500
v 1620.8000 0.0000 -25.9500
v 1617.7000 0.0000 -25.9500
v 1617.7000 3.4000 -25.9500
v 1620.8000 3.4000 -25.9500
v 1620.8000 0.0000 -29.0500
v 1620.8000 0.0000 -25.9500
v 1620.8000 3.4000 -25.9500
v 1620.8000 3.4000 -29.0500
v 1617.7000 0.0000 -25.9500
v 1617.7000 0.0000 -29.0500
v 1617.7000 3.4000 -29.0500
v 1617.7000 3.4000 -25.9500
v 1590.2000 0.0000 -26.3000
v 1593.3000 0.0000 -26.3000
v 1593.3000 0.0000 -23.2000
v 1590.2000 0.0000 -23.2000
v 1590.2000 3.4000 -26.3000
v 1593.3000 3.4000 -26.3000
v 1593.3000 3.4000 -23.2000
v 1590.2000 3.4000 -23.2000
v 1595.7000 0.0000 -26.3000
v 1595.7000 0.0000 -23.2000
v 1598.8000 0.0000 -23.2000
v 1598.8000 0.0000 -26.3000
v 1595.7000 3.4000 -26.3000
v 1598.8000 3.4000 -26.3000
v 1598.8000 3.4000 -23.2000
v 1595.7000 3.4000 -23.2000
v 1595.7000 0.0000 -26.3000
v 1598.8000 0.0000 -26.3000
v 1598.8000 3.4000 -26.3000
v 1595.7000 3.4000 -26.3000
v 1598.8000 0.0000 -23.2000
v 1595.7000 0.0000 -23.2000
v 1595.7000 3.4000 -23.2000
v 1598.8000 3.4000 -23.2000
v 1598.8000 0.0000 -26.3000
v 1598.8000 0.0000 -23.2000
v 1598.8000 3.4000 -23.2000
v 1598.8000 3.4000 -26.3000
v 1595.7000 0.0000 -23.2000
v 1595.7000 0.0000 -26.3000
v 1595.7000 3.4000 -26.3000
v 1595.7000 3.4000 -23.2000
v 1601.2000 0.0000 -26.3000
v 1601.2000 0.0000 -23.2000
v 1604.3000 0.0000 -23.2000
v 1604.3000 0.0000 -26.3000
v 1601.2000 3.4000 -26.3000
v 1604.3000 3.4000 -26.3000
v 1604.3000 3.4000 -23.2000
v 1601.2000 3.4000 -23.2000
v 1601.2000 0.0000 -26.3000
v 1604.3000 0.0000 -26.3000
v 1604.3000 3.4000 -26.3000
v 1601.2000 3.4000 -26.3000
v 1604.3000 0.0000 -23.2000
v 1601.2000 0.0000 -23.2000
v 1601.2000 3.4000 -23.2000
v 1604.3000 3.4000 -23.2000
v 1604.3000 0.0000 -26.3000
v 1604.3000 0.0000 -23.2000
v 1604.3000 3.4000 -23.2000
v 1604.3000 3.4000 -26.3000
v 1601.2000 0.0000 -23.2000
v 1601.2000 0.0000 -26.3000
v 1601.2000 3.4000 -26.3000
v 1601.2000 3.4000 -23.2000
v 1606.7000 0.0000 -26.3000
v 1606.7000 0.0000 -23.2000
v 1609.8000 0.0000 -23.2000
v 1609.8000 0.0000 -26.3000
v 1606.7000 3.4000 -26.3000
v 1609.8000 3.4000 -26.3000
v 1609.8000 3.4000 -23.2000
v 1606.7000 3.4000 -23.2000
v 1606.7000 0.0000 -26.3000
v 1609.8000 0.0000 -26.3000
v 1609.8000 3.4000 -26.3000
v 1606.7000 3.4000 -26.3000
v 1609.8000 0.0000 -23.2000
v 1606.7000 0.0000 -23.2000
v 1606.7000 3.4000 -23.2000
v 1609.8000 3.4000 -23.2000
v 1609.8000 0.0000 -26.3000
v 1609.8000 0.0000 -23.2000
v 1609.8000 3.4000 -23.2000
v 1609.8000 3.4000 -26.3000
v 1606.7000 0.0000 -23.2000
v 1606.7000 0.0000 -26.3000
v 1606.7000 3.4000 -26.3000
v 1606.7000 3.4000 -23.2000
v 1609.4500 0.0000 -26.3000
v 1609.4500 0.0000 -23.2000
v 1612.5500 0.0000 -23.2000
v 1612.5500 0.0000 -26.3000
v 1609.4500 3.4000 -26.3000
v 1612.5500 3.4000 -26.3000
v 1612.5500 3.4000 -23.2000
v 1609.4500 3.4000 -23.2000
v 1609.4500 0.0000 -26.3000
v 1612.5500 0.0000 -26.3000
v 1612.5500 3.4000 -26.3000
v 1609.4500 3.4000 -26.3000
v 1612.5500 0.0000 -23.2000
v 1609.4500 0.0000 -23.2000
v 1609.4500 3.4000 -23.2000
v 1612.5500 3.4000 -23.2000
v 1612.5500 0.0000 -26.3000
v 1612.5500 0.0000 -23.2000
v 1612.5500 3.4000 -23.2000
v 1612.5500 3.4000 -26.3000
v 1609.4500 0.0000 -23.2000
v 1609.4500 0.0000 -26.3000
v 1609.4500 3.4000 -26.3000
v 1609.4500 3.4000 -23.2000
v 1612.2000 0.0000 -26.3000
v 1612.2000 0.0000 -23.2000
v 1615.3000 0.0000 -23.2000
v 1615.3000 0.0000 -26.3000
v 1612.2000 3.4000 -26.3000
v 1615.3000 3.4000 -26.3000
v 1615.3000 3.4000 -23.2000
v 1612.2000 3.4000 -23.2000
v 1612.2000 0.0000 -26.3000
v 1615.3000 0.0000 -26.3000
v 1615.3000 3.4000 -26.3000
v 1612.2000 3.4000 -26.3000
v 1615.3000 0.0000 -23.2000
v 1612.2000 0.0000 -23.2000
v 1612.2000 3.4000 -23.2000
v 1615.3000 3.4000 -23.2000
v 1615.3000 0.0000 -26.3000
v 1615.3000 0.0000 -23.2000
v 1615.3000 3.4000 -23.2000
v 1615.3000 3.4000 -26.3000
v 1612.2000 0.0000 -23.2000
v 1612.2000 0.0000 -26.3000
v 1612.2000 3.4000 -26.3000
v 1612.2000 3.4000 -23.2000
v 1617.7000 0.0000 -26.3000
v 1617.7000 0.0000 -23.2000
v 1620.8000 0.0000 -23.2000
v 1620.8000 0.0000 -26.3000
v 1617.7000 3.4000 -26.3000
v 1620.8000 3.4000 -26.3000
v 1620.8000 3.4000 -23.2000
v 1617.7000 3.4000 -23.2000
v 1617.7000 0.0000 -26.3000
v 1620.8000 0.0000 -26.3000
v 1620.8000 3.4000 -26.3000
v 1617.7000 3.4000 -26.3000
v 1620.8000 0.0000 -23.2000
v 1617.7000 0.0000 -23.2000
v 1617.7000 3.4000 -23.2000
v 1620.8000 3.4000 -23.2000
v 1620.8000 0.0000 -26.3000
v 1620.8000 0.0000 -23.2000
v 1620.8000 3.4000 -23.2000
v 1620.8000 3.4000 -26.3000
v 1617.7000 0.0000 -23.2000
v 1617.7000 0.0000 -26.3000
v 1617.7000 3.4000 -26.3000
v 1617.7000 3.4000 -23.2000
v 1595.7000 0.0000 -23.5500
v 1595.7000 0.0000 -20.4500
v 1598.8000 0.0000 -20.4500
v 1598.8000 0.0000 -23.5500
v 1595.7000 3.4000 -23.5500
v 1598.8000 3.4000 -23.5500
v 1598.8000 3.4000 -20.4500
v 1595.7000 3.4000 -20.4500
v 1595.7000 0.0000 -23.5500
v 1598.8000 0.0000 -23.5500
v 1598.8000 3.4000 -23.5500
v 1595.7000 3.4000 -23.5500
v 1598.8000 0.0000 -20.4500
v 1595.7000 0.0000 -20.4500
v 1595.7000 3.4000 -20.4500
v 1598.8000 3.4000 -20.4500
v 1598.8000 0.0000 -23.5500
v 1598.8000 0.0000 -20.4500
v 1598.8000 3.4000 -20.4500
v 1598.8000 3.4000 -23.5500
v 1595.7000 0.0000 -20.4500
v 1595.7000 0.0000 -23.5500
v 1595.7000 3.4000 -23.5500
v 1595.7000 3.4000 -20.4500
v 1617.7000 0.0000 -23.5500
v 1617.7000 0.0000 -20.4500
v 1620.8000 0.0000 -20.4500
v 1620.8000 0.0000 -23.5500
v 1617.7000 3.4000 -23.5500
v 1620.8000 3.4000 -23.5500
v 1620.8000 3.4000 -20.4500
v 1617.7000 3.4000 -20.4500
v 1617.7000 0.0000 -23.5500
v 1620.8000 0.0000 -23.5500
v 1620.8000 3.4000 -23.5500
v 1617.7000 3.4000 -23.5500
v 1620.8000 0.0000 -20.4500
v 1617.7000 0.0000 -20.4500
v 1617.7000 3.4000 -20.4500
v 1620.8000 3.4000 -20.4500
v 1620.8000 0.0000 -23.5500
v 1620.8000 0.0000 -20.4500
v 1620.8000 3.4000 -20.4500
v 1620.8000 3.4000 -23.5500
v 1617.7000 0.0000 -20.4500
v 1617.7000 0.0000 -23.5500
v 1617.7000 3.4000 -23.5500
v 1617.7000 3.4000 -20.4500
v 1590.2000 0.0000 -20.8000
v 1590.2000 0.0000 -17.7000
v 1593.3000 0.0000 -17.7000
v 1593.3000 0.0000 -20.8000
v 1590.2000 3.4000 -20.8000
v 1593.3000 3.4000 -20.8000
v 1593.3000 3.4000 -17.7000
v 1590.2000 3.4000 -17.7000
v 1590.2000 0.0000 -20.8000
v 1593.3000 0.0000 -20.8000
v 1593.3000 3.4000 -20.8000
v 1590.2000 3.4000 -20.8000
v 1593.3000 0.0000 -17.7000
v 1590.2000 0.0000 -17.7000
v 1590.2000 3.4000 -17.7000
v 1593.3000 3.4000 -17.7000
v 1593.3000 0.0000 -20.8000
v 1593.3000 0.0000 -17.7000
v 1593.3000 3.4000 -17.7000
v 1593.3000 3.4000 -20.8000
v 1590.2000 0.0000 -17.7000
v 1590.2000 0.0000 -20.8000
v 1590.2000 3.4000 -20.8000
v 1590.2000 3.4000 -17.7000
v 1595.7000 0.0000 -20.8000
v 1598.8000 0.0000 -20.8000
v 1598.8000 0.0000 -17.7000
v 1595.7000 0.0000 -17.7000
v 1595.7000 3.4000 -20.8000
v 1598.8000 3.4000 -20.8000
v 1598.8000 3.4000 -17.7000
v 1595.7000 3.4000 -17.7000
v 1601.2000 0.0000 -20.8000
v 1601.2000 0.0000 -17.7000
v 1604.3000 0.0000 -17.7000
v 1604.3000 0.0000 -20.8000
v 1601.2000 3.4000 -20.8000
v 1604.3000 3.4000 -20.8000
v 1604.3000 3.4000 -17.7000
v 1601.2000 3.4000 -17.7000
v 1601.2000 0.0000 -20.8000
v 1604.3000 0.0000 -20.8000
v 1604.3000 3.4000 -20.8000
v 1601.2000 3.4000 -20.8000
v 1604.3000 0.0000 -17.7000
v 1601.2000 0.0000 -17.7000
v 1601.2000 3.4000 -17.7000
v 1604.3000 3.4000 -17.7000
v 1604.3000 0.0000 -20.8000
v 1604.3000 0.0000 -17.7000
v 1604.3000 3.4000 -17.7000
v 1604.3000 3.4000 -20.8000
v 1601.2000 0.0000 -17.7000
v 1601.2000 0.0000 -20.8000
v 1601.2000 3.4000 -20.8000
v 1601.2000 3.4000 -17.7000
v 1603.9500 0.0000 -20.8000
v 1603.9500 0.0000 -17.7000
v 1607.0500 0.0000 -17.7000
v 1607.0500 0.0000 -20.8000
v 1603.9500 3.4000 -20.8000
v 1607.0500 3.4000 -20.8000
v 1607.0500 3.4000 -17.7000
v 1603.9500 3.4000 -17.7000
v 1603.9500 0.0000 -20.8000
v 1607.0500 0.0000 -20.8000
v 1607.0500 3.4000 -20.8000
v 1603.9500 3.4000 -20.8000
v 1607.0500 0.0000 -17.7000
v 1603.9500 0.0000 -17.7000
v 1603.9500 3.4000 -17.7000
v 1607.0500 3.4000 -17.7000
v 1607.0500 0.0000 -20.8000
v 1607.0500 0.0000 -17.7000
v 1607.0500 3.4000 -17.7000
v 1607.0500 3.4000 -20.8000
v 1603.9500 0.0000 -17.7000
v 1603.9500 0.0000 -20.8000
v 1603.9500 3.4000 -20.8000
v 1603.9500 3.4000 -17.7000
v 1606.7000 0.0000 -20.8000
v 1606.7000 0.0000 -17.7000
v 1609.8000 0.0000 -17.7000
v 1609.8000 0.0000 -20.8000
v 1606.7000 3.4000 -20.8000
v 1609.8000 3.4000 -20.8000
v 1609.8000 3.4000 -17.7000
v 1606.7000 3.4000 -17.7000
v 1606.7000 0.0000 -20.8000
v 1609.8000 0.0000 -20.8000
v 1609.8000 3.4000 -20.8000
v 1606.7000 3.4000 -20.8000
v 1609.8000 0.0000 -17.7000
v 1606.7000 0.0000 -17.7000
v 1606.7000 3.4000 -17.7000
v 1609.8000 3.4000 -17.7000
v 1609.8000 0.0000 -20.8000
v 1609.8000 0.0000 -17.7000
v 1609.8000 3.4000 -17.7000
v 1609.8000 3.4000 -20.8000
v 1606.7000 0.0000 -17.7000
v 1606.7000 0.0000 -20.8000
v 1606.7000 3.4000 -20.8000
v 1606.7000 3.4000 -17.7000
v 1609.4500 0.0000 -20.8000
v 1609.4500 0.0000 -17.7000
v 1612.5500 0.0000 -17.7000
v 1612.5500 0.0000 -20.8000
v 1609.4500 3.4000 -20.8000
v 1612.5500 3.4000 -20.8000
v 1612.5500 3.4000 -17.7000
v 1609.4500 3.4000 -17.7000
v 1609.4500 0.0000 -20.8000
v 1612.5500 0.0000 -20.8000
v 1612.5500 3.4000 -20.8000
v 1609.4500 3.4000 -20.8000
v 1612.5500 0.0000 -17.7000
v 1609.4500 0.0000 -17.7000
v 1609.4500 3.4000 -17.7000
v 1612.5500 3.4000 -17.7000
v 1612.5500 0.0000 -20.8000
v 1612.5500 0.0000 -17.7000
v 1612.5500 3.4000 -17.7000
v 1612.5500 3.4000 -20.8000
v 1609.4500 0.0000 -17.7000
v 1609.4500 0.0000 -20.8000
v 1609.4500 3.4000 -20.8000
v 1609.4500 3.4000 -17.7000
v 1612.2000 0.0000 -20.8000
v 1612.2000 0.0000 -17.7000
v 1615.3000 0.0000 -17.7000
v 1615.3000 0.0000 -20.8000
v 1612.2000 3.4000 -20.8000
v 1615.3000 3.4000 -20.8000
v 1615.3000 3.4000 -17.7000
v 1612.2000 3.4000 -17.7000
v 1612.2000 0.0000 -20.8000
v 1615.3000 0.0000 -20.8000
v 1615.3000 3.4000 -20.8000
v 1612.2000 3.4000 -20.8000
v 1615.3000 0.0000 -17.7000
v 1612.2000 0.0000 -17.7000
v 1612.2000 3.4000 -17.7000
v 1615.3000 3.4000 -17.7000
v 1615.3000 0.0000 -20.8000
v 1615.3000 0.0000 -17.7000
v 1615.3000 3.4000 -17.7000
v 1615.3000 3.4000 -20.8000
v 1612.2000 0.0000 -17.7000
v 1612.2000 0.0000 -20.8000
v 1612.2000 3.4000 -20.8000
v 1612.2000 3.4000 -17.7000
v 1617.7000 0.0000 -20.8000
v 1617.7000 0.0000 -17.7000
v 1620.8000 0.0000 -17.7000
v 1620.8000 0.0000 -20.8000
v 1617.7000 3.4000 -20.8000
v 1620.8000 3.4000 -20.8000
v 1620.8000 3.4000 -17.7000
v 1617.7000 3.4000 -17.7000
v 1617.7000 0.0000 -20.8000
v 1620.8000 0.0000 -20.8000
v 1620.8000 3.4000 -20.8000
v 1617.7000 3.4000 -20.8000
v 1620.8000 0.0000 -17.7000
v 1617.7000 0.0000 -17.7000
v 1617.7000 3.4000 -17.7000
v 1620.8000 3.4000 -17.7000
v 1620.8000 0.0000 -20.8000
v 1620.8000 0.0000 -17.7000
v 1620.8000 3.4000 -17.7000
v 1620.8000 3.4000 -20.8000
v 1617.7000 0.0000 -17.7000
v 1617.7000 0.0000 -20.8000
v 1617.7000 3.4000 -20.8000
v 1617.7000 3.4000 -17.7000
v 1620.4500 0.0000 -20.8000
v 1620.4500 0.0000 -17.7000
v 1623.5500 0.0000 -17.7000
v 1623.5500 0.0000 -20.8000
v 1620.4500 3.4000 -20.8000
v 1623.5500 3.4000 -20.8000
v 1623.5500 3.4000 -17.7000
v 1620.4500 3.4000 -17.7000
v 1620.4500 0.0000 -20.8000
v 1623.5500 0.0000 -20.8000
v 1623.5500 3.4000 -20.8000
v 1620.4500 3.4000 -20.8000
v 1623.5500 0.0000 -17.7000
v 1620.4500 0.0000 -17.7000
v 1620.4500 3.4000 -17.7000
v 1623.5500 3.4000 -17.7000
v 1623.5500 0.0000 -20.8000
v 1623.5500 0.0000 -17.7000
v 1623.5500 3.4000 -17.7000
v 1623.5500 3.4000 -20.8000
v 1620.4500 0.0000 -17.7000
v 1620.4500 0.0000 -20.8000
v 1620.4500 3.4000 -20.8000
v 1620.4500 3.4000 -17.7000
v 1606.7000 0.0000 -18.0500
v 1606.7000 0.0000 -14.9500
v 1609.8000 0.0000 -14.9500
v 1609.8000 0.0000 -18.0500
v 1606.7000 3.4000 -18.0500
v 1609.8000 3.4000 -18.0500
v 1609.8000 3.4000 -14.9500
v 1606.7000 3.4000 -14.9500
v 1606.7000 0.0000 -18.0500
v 1609.8000 0.0000 -18.0500
v 1609.8000 3.4000 -18.0500
v 1606.7000 3.4000 -18.0500
v 1609.8000 0.0000 -14.9500
v 1606.7000 0.0000 -14.9500
v 1606.7000 3.4000 -14.9500
v 1609.8000 3.4000 -14.9500
v 1609.8000 0.0000 -18.0500
v 1609.8000 0.0000 -14.9500
v 1609.8000 3.4000 -14.9500
v 1609.8000 3.4000 -18.0500
v 1606.7000 0.0000 -14.9500
v 1606.7000 0.0000 -18.0500
v 1606.7000 3.4000 -18.0500
v 1606.7000 3.4000 -14.9500
v 1590.2000 0.0000 -15.3000
v 1590.2000 0.0000 -12.2000
v 1593.3000 0.0000 -12.2000
v 1593.3000 0.0000 -15.3000
v 1590.2000 3.4000 -15.3000
v 1593.3000 3.4000 -15.3000
v 1593.3000 3.4000 -12.2000
v 1590.2000 3.4000 -12.2000
v 1590.2000 0.0000 -15.3000
v 1593.3000 0.0000 -15.3000
v 1593.3000 3.4000 -15.3000
v 1590.2000 3.4000 -15.3000
v 1593.3000 0.0000 -12.2000
v 1590.2000 0.0000 -12.2000
v 1590.2000 3.4000 -12.2000
v 1593.3000 3.4000 -12.2000
v 1593.3000 0.0000 -15.3000
v 1593.3000 0.0000 -12.2000
v 1593.3000 3.4000 -12.2000
v 1593.3000 3.4000 -15.3000
v 1590.2000 0.0000 -12.2000
v 1590.2000 0.0000 -15.3000
v 1590.2000 3.4000 -15.3000
v 1590.2000 3.4000 -12.2000
v 1601.2000 0.0000 -15.3000
v 1601.2000 0.0000 -12.2000
v 1604.3000 0.0000 -12.2000
v 1604.3000 0.0000 -15.3000
v 1601.2000 3.4000 -15.3000
v 1604.3000 3.4000 -15.3000
v 1604.3000 3.4000 -12.2000
v 1601.2000 3.4000 -12.2000
v 1601.2000 0.0000 -15.3000
v 1604.3000 0.0000 -15.3000
v 1604.3000 3.4000 -15.3000
v 1601.2000 3.4000 -15.3000
v 1604.3000 0.0000 -12.2000
v 1601.2000 0.0000 -12.2000
v 1601.2000 3.4000 -12.2000
v 1604.3000 3.4000 -12.2000
v 1604.3000 0.0000 -15.3000
v 1604.3000 0.0000 -12.2000
v 1604.3000 3.4000 -12.2000
v 1604.3000 3.4000 -15.3000
v 1601.2000 0.0000 -12.2000
v 1601.2000 0.0000 -15.3000
v 1601.2000 3.4000 -15.3000
v 1601.2000 3.4000 -12.2000
v 1606.7000 0.0000 -15.3000
v 1606.7000 0.0000 -12.2000
v 1609.8000 0.0000 -12.2000
v 1609.8000 0.0000 -15.3000
v 1606.7000 3.4000 -15.3000
v 1609.8000 3.4000 -15.3000
v 1609.8000 3.4000 -12.2000
v 1606.7000 3.4000 -12.2000
v 1606.7000 0.0000 -15.3000
v 1609.8000 0.0000 -15.3000
v 1609.8000 3.4000 -15.3000
v 1606.7000 3.4000 -15.3000
v 1609.8000 0.0000 -12.2000
v 1606.7000 0.0000 -12.2000
v 1606.7000 3.4000 -12.2000
v 1609.8000 3.4000 -12.2000
v 1609.8000 0.0000 -15.3000
v 1609.8000 0.0000 -12.2000
v 1609.8000 3.4000 -12.2000
v 1609.8000 3.4000 -15.3000
v 1606.7000 0.0000 -12.2000
v 1606.7000 0.0000 -15.3000
v 1606.7000 3.4000 -15.3000
v 1606.7000 3.4000 -12.2000
v 1612.2000 0.0000 -15.3000
v 1612.2000 0.0000 -12.2000
v 1615.3000 0.0000 -12.2000
v 1615.3000 0.0000 -15.3000
v 1612.2000 3.4000 -15.3000
v 1615.3000 3.4000 -15.3000
v 1615.3000 3.4000 -12.2000
v 1612.2000 3.4000 -12.2000
v 1612.2000 0.0000 -15.3000
v 1615.3000 0.0000 -15.3000
v 1615.3000 3.4000 -15.3000
v 1612.2000 3.4000 -15.3000
v 1615.3000 0.0000 -12.2000
v 1612.2000 0.0000 -12.2000
v 1612.2000 3.4000 -12.2000
v 1615.3000 3.4000 -12.2000
v 1615.3000 0.0000 -15.3000
v 1615.3000 0.0000 -12.2000
v 1615.3000 3.4000 -12.2000
v 1615.3000 3.4000 -15.3000
v 1612.2000 0.0000 -12.2000
v 1612.2000 0.0000 -15.3000
v 1612.2000 3.4000 -15.3000
v 1612.2000 3.4000 -12.2000
v 1614.9500 0.0000 -15.3000
v 1614.9500 0.0000 -12.2000
v 1618.0500 0.0000 -12.2000
v 1618.0500 0.0000 -15.3000
v 1614.9500 3.4000 -15.3000
v 1618.0500 3.4000 -15.3000
v 1618.0500 3.4000 -12.2000
v 1614.9500 3.4000 -12.2000
v 1614.9500 0.0000 -15.3000
v 1618.0500 0.0000 -15.3000
v 1618.0500 3.4000 -15.3000
v 1614.9500 3.4000 -15.3000
v 1618.0500 0.0000 -12.2000
v 1614.9500 0.0000 -12.2000
v 1614.9500 3.4000 -12.2000
v 1618.0500 3.4000 -12.2000
v 1618.0500 0.0000 -15.3000
v 1618.0500 0.0000 -12.2000
v 1618.0500 3.4000 -12.2000
v 1618.0500 3.4000 -15.3000
v 1614.9500 0.0000 -12.2000
v 1614.9500 0.0000 -15.3000
v 1614.9500 3.4000 -15.3000
v 1614.9500 3.4000 -12.2000
v 1617.7000 0.0000 -15.3000
v 1617.7000 0.0000 -12.2000
v 1620.8000 0.0000 -12.2000
v 1620.8000 0.0000 -15.3000
v 1617.7000 3.4000 -15.3000
v 1620.8000 3.4000 -15.3000
v 1620.8000 3.4000 -12.2000
v 1617.7000 3.4000 -12.2000
v 1617.7000 0.0000 -15.3000
v 1620.8000 0.0000 -15.3000
v 1620.8000 3.4000 -15.3000
v 1617.7000 3.4000 -15.3000
v 1620.8000 0.0000 -12.2000
v 1617.7000 0.0000 -12.2000
v 1617.7000 3.4000 -12.2000
v 1620.8000 3.4000 -12.2000
v 1620.8000 0.0000 -15.3000
v 1620.8000 0.0000 -12.2000
v 1620.8000 3.4000 -12.2000
v 1620.8000 3.4000 -15.3000
v 1617.7000 0.0000 -12.2000
v 1617.7000 0.0000 -15.3000
v 1617.7000 3.4000 -15.3000
v 1617.7000 3.4000 -12.2000
v 1620.4500 0.0000 -15.3000
v 1620.4500 0.0000 -12.2000
v 1623.5500 0.0000 -12.2000
v 1623.5500 0.0000 -15.3000
v 1620.4500 3.4000 -15.3000
v 1623.5500 3.4000 -15.3000
v 1623.5500 3.4000 -12.2000
v 1620.4500 3.4000 -12.2000
v 1620.4500 0.0000 -15.3000
v 1623.5500 0.0000 -15.3000
v 1623.5500 3.4000 -15.3000
v 1620.4500 3.4000 -15.3000
v 1623.5500 0.0000 -12.2000
v 1620.4500 0.0000 -12.2000
v 1620.4500 3.4000 -12.2000
v 1623.5500 3.4000 -12.2000
v 1623.5500 0.0000 -15.3000
v 1623.5500 0.0000 -12.2000
v 1623.5500 3.4000 -12.2000
v 1623.5500 3.4000 -15.3000
v 1620.4500 0.0000 -12.2000
v 1620.4500 0.0000 -15.3000
v 1620.4500 3.4000 -15.3000
v 1620.4500 3.4000 -12.2000
v 1590.2000 0.0000 -12.5500
v 1590.2000 0.0000 -9.4500
v 1593.3000 0.0000 -9.4500
v 1593.3000 0.0000 -12.5500
v 1590.2000 3.4000 -12.5500
v 1593.3000 3.4000 -12.5500
v 1593.3000 3.4000 -9.4500
v 1590.2000 3.4000 -9.4500
v 1590.2000 0.0000 -12.5500
v 1593.3000 0.0000 -12.5500
v 1593.3000 3.4000 -12.5500
v 1590.2000 3.4000 -12.5500
v 1593.3000 0.0000 -9.4500
v 1590.2000 0.0000 -9.4500
v 1590.2000 3.4000 -9.4500
v 1593.3000 3.4000 -9.4500
v 1593.3000 0.0000 -12.5500
v 1593.3000 0.0000 -9.4500
v 1593.3000 3.4000 -9.4500
v 1593.3000 3.4000 -12.5500
v 1590.2000 0.0000 -9.4500
v 1590.2000 0.0000 -12.5500
v 1590.2000 3.4000 -12.5500
v 1590.2000 3.4000 -9.4500
v 1601.2000 0.0000 -12.5500
v 1604.3000 0.0000 -12.5500
v 1604.3000 0.0000 -9.4500
v 1601.2000 0.0000 -9.4500
v 1601.2000 3.4000 -12.5500
v 1604.3000 3.4000 -12.5500
v 1604.3000 3.4000 -9.4500
v 1601.2000 3.4000 -9.4500
v 1594.3700 1.9000 -38.5800
v 1594.6300 1.9000 -38.5800
v 1594.6300 1.9000 -38.4200
v 1594.3700 1.9000 -38.4200
v 1594.3700 2.2000 -38.5800
v 1594.6300 2.2000 -38.5800
v 1594.6300 2.2000 -38.4200
v 1594.3700 2.2000 -38.4200
v 1594.3300 2.2100 -38.6100
v 1594.6700 2.2100 -38.6100
v 1594.6700 2.2100 -38.3900
v 1594.3300 2.2100 -38.3900
v 1594.3300 2.2700 -38.6100
v 1594.6700 2.2700 -38.6100
v 1594.6700 2.2700 -38.3900
v 1594.3300 2.2700 -38.3900
v 1610.8700 1.9000 -38.5800
v 1611.1300 1.9000 -38.5800
v 1611.1300 1.9000 -38.4200
v 1610.8700 1.9000 -38.4200
v 1610.8700 2.2000 -38.5800
v 1611.1300 2.2000 -38.5800
v 1611.1300 2.2000 -38.4200
v 1610.8700 2.2000 -38.4200
v 1610.8300 2.2100 -38.6100
v 1611.1700 2.2100 -38.6100
v 1611.1700 2.2100 -38.3900
v 1610.8300 2.2100 -38.3900
v 1610.8300 2.2700 -38.6100
v 1611.1700 2.2700 -38.6100
v 1611.1700 2.2700 -38.3900
v 1610.8300 2.2700 -38.3900
v 1621.8700 1.9000 -33.0800
v 1622.1300 1.9000 -33.0800
v 1622.1300 1.9000 -32.9200
v 1621.8700 1.9000 -32.9200
v 1621.8700 2.2000 -33.0800
v 1622.1300 2.2000 -33.0800
v 1622.1300 2.2000 -32.9200
v 1621.8700 2.2000 -32.9200
v 1621.8300 2.2100 -33.1100
v 1622.1700 2.2100 -33.1100
v 1622.1700 2.2100 -32.8900
v 1621.8300 2.2100 -32.8900
v 1621.8300 2.2700 -33.1100
v 1622.1700 2.2700 -33.1100
v 1622.1700 2.2700 -32.8900
v 1621.8300 2.2700 -32.8900
v 1594.3700 1.9000 -27.5800
v 1594.6300 1.9000 -27.5800
v 1594.6300 1.9000 -27.4200
v 1594.3700 1.9000 -27.4200
v 1594.3700 2.2000 -27.5800
v 1594.6300 2.2000 -27.5800
v 1594.6300 2.2000 -27.4200
v 1594.3700 2.2000 -27.4200
v 1594.3300 2.2100 -27.6100
v 1594.6700 2.2100 -27.6100
v 1594.6700 2.2100 -27.3900
v 1594.3300 2.2100 -27.3900
v 1594.3300 2.2700 -27.6100
v 1594.6700 2.2700 -27.6100
v 1594.6700 2.2700 -27.3900
v 1594.3300 2.2700 -27.3900
v 1599.8700 1.9000 -27.5800
v 1600.1300 1.9000 -27.5800
v 1600.1300 1.9000 -27.4200
v 1599.8700 1.9000 -27.4200
v 1599.8700 2.2000 -27.5800
v 1600.1300 2.2000 -27.5800
v 1600.1300 2.2000 -27.4200
v 1599.8700 2.2000 -27.4200
v 1599.8300 2.2100 -27.6100
v 1600.1700 2.2100 -27.6100
v 1600.1700 2.2100 -27.3900
v 1599.8300 2.2100 -27.3900
v 1599.8300 2.2700 -27.6100
v 1600.1700 2.2700 -27.6100
v 1600.1700 2.2700 -27.3900
v 1599.8300 2.2700 -27.3900
v 1621.8700 1.9000 -27.5800
v 1622.1300 1.9000 -27.5800
v 1622.1300 1.9000 -27.4200
v 1621.8700 1.9000 -27.4200
v 1621.8700 2.2000 -27.5800
v 1622.1300 2.2000 -27.5800
v 1622.1300 2.2000 -27.4200
v 1621.8700 2.2000 -27.4200
v 1621.8300 2.2100 -27.6100
v 1622.1700 2.2100 -27.6100
v 1622.1700 2.2100 -27.3900
v 1621.8300 2.2100 -27.3900
v 1621.8300 2.2700 -27.6100
v 1622.1700 2.2700 -27.6100
v 1622.1700 2.2700 -27.3900
v 1621.8300 2.2700 -27.3900
v 1610.8700 1.9000 -22.0800
v 1611.1300 1.9000 -22.0800
v 1611.1300 1.9000 -21.9200
v 1610.8700 1.9000 -21.9200
v 1610.8700 2.2000 -22.0800
v 1611.1300 2.2000 -22.0800
v 1611.1300 2.2000 -21.9200
v 1610.8700 2.2000 -21.9200
v 1610.8300 2.2100 -22.1100
v 1611.1700 2.2100 -22.1100
v 1611.1700 2.2100 -21.8900
v 1610.8300 2.2100 -21.8900
v 1610.8300 2.2700 -22.1100
v 1611.1700 2.2700 -22.1100
v 1611.1700 2.2700 -21.8900
v 1610.8300 2.2700 -21.8900
v 1610.8700 1.9000 -16.5800
v 1611.1300 1.9000 -16.5800
v 1611.1300 1.9000 -16.4200
v 1610.8700 1.9000 -16.4200
v 1610.8700 2.2000 -16.5800
v 1611.1300 2.2000 -16.5800
v 1611.1300 2.2000 -16.4200
v 1610.8700 2.2000 -16.4200
v 1610.8300 2.2100 -16.6100
v 1611.1700 2.2100 -16.6100
v 1611.1700 2.2100 -16.3900
v 1610.8300 2.2100 -16.3900
v 1610.8300 2.2700 -16.6100
v 1611.1700 2.2700 -16.6100
v 1611.1700 2.2700 -16.3900
v 1610.8300 2.2700 -16.3900
v 1605.3700 1.9000 -11.0800
v 1605.6300 1.9000 -11.0800
v 1605.6300 1.9000 -10.9200
v 1605.3700 1.9000 -10.9200
v 1605.3700 2.2000 -11.0800
v 1605.6300 2.2000 -11.0800
v 1605.6300 2.2000 -10.9200
v 1605.3700 2.2000 -10.9200
v 1605.3300 2.2100 -11.1100
v 1605.6700 2.2100 -11.1100
v 1605.6700 2.2100 -10.8900
v 1605.3300 2.2100 -10.8900
v 1605.3300 2.2700 -11.1100
v 1605.6700 2.2700 -11.1100
v 1605.6700 2.2700 -10.8900
v 1605.3300 2.2700 -10.8900
v 1610.8700 1.9000 -11.0800
v 1611.1300 1.9000 -11.0800
v 1611.1300 1.9000 -10.9200
v 1610.8700 1.9000 -10.9200
v 1610.8700 2.2000 -11.0800
v 1611.1300 2.2000 -11.0800
v 1611.1300 2.2000 -10.9200
v 1610.8700 2.2000 -10.9200
v 1610.8300 2.2100 -11.1100
v 1611.1700 2.2100 -11.1100
v 1611.1700 2.2100 -10.8900
v 1610.8300 2.2100 -10.8900
v 1610.8300 2.2700 -11.1100
v 1611.1700 2.2700 -11.1100
v 1611.1700 2.2700 -10.8900
v 1610.8300 2.2700 -10.8900
v 1616.3700 1.9000 -11.0800
v 1616.6300 1.9000 -11.0800
v 1616.6300 1.9000 -10.9200
v 1616.3700 1.9000 -10.9200
v 1616.3700 2.2000 -11.0800
v 1616.6300 2.2000 -11.0800
v 1616.6300 2.2000 -10.9200
v 1616.3700 2.2000 -10.9200
v 1616.3300 2.2100 -11.1100
v 1616.6700 2.2100 -11.1100
v 1616.6700 2.2100 -10.8900
v 1616.3300 2.2100 -10.8900
v 1616.3300 2.2700 -11.1100
v 1616.6700 2.2700 -11.1100
v 1616.6700 2.2700 -10.8900
v 1616.3300 2.2700 -10.8900
v 1621.8700 1.9000 -11.0800
v 1622.1300 1.9000 -11.0800
v 1622.1300 1.9000 -10.9200
v 1621.8700 1.9000 -10.9200
v 1621.8700 2.2000 -11.0800
v 1622.1300 2.2000 -11.0800
v 1622.1300 2.2000 -10.9200
v 1621.8700 2.2000 -10.9200
v 1621.8300 2.2100 -11.1100
v 1622.1700 2.2100 -11.1100
v 1622.1700 2.2100 -10.8900
v 1621.8300 2.2100 -10.8900
v 1621.8300 2.2700 -11.1100
v 1622.1700 2.2700 -11.1100
v 1622.1700 2.2700 -10.8900
v 1621.8300 2.2700 -10.8900
v 1594.0250 0.0050 -39.7300
v 1594.9750 0.0050 -39.7300
v 1594.9750 0.0050 -39.6700
v 1594.0250 0.0050 -39.6700
v 1594.0250 2.0550 -39.7300
v 1594.9750 2.0550 -39.7300
v 1594.9750 2.0550 -39.6700
v 1594.0250 2.0550 -39.6700
v 1593.9380 0.9450 -39.6950
v 1594.0080 0.9450 -39.6950
v 1594.0080 0.9450 -39.6250
v 1593.9380 0.9450 -39.6250
v 1593.9380 1.0150 -39.6950
v 1594.0080 1.0150 -39.6950
v 1594.0080 1.0150 -39.6250
v 1593.9380 1.0150 -39.6250
v 1596.7750 0.0050 -39.7300
v 1597.7250 0.0050 -39.7300
v 1597.7250 0.0050 -39.6700
v 1596.7750 0.0050 -39.6700
v 1596.7750 2.0550 -39.7300
v 1597.7250 2.0550 -39.7300
v 1597.7250 2.0550 -39.6700
v 1596.7750 2.0550 -39.6700
v 1596.6880 0.9450 -39.6950
v 1596.7580 0.9450 -39.6950
v 1596.7580 0.9450 -39.6250
v 1596.6880 0.9450 -39.6250
v 1596.6880 1.0150 -39.6950
v 1596.7580 1.0150 -39.6950
v 1596.7580 1.0150 -39.6250
v 1596.6880 1.0150 -39.6250
v 1616.0250 0.0050 -39.7300
v 1616.9750 0.0050 -39.7300
v 1616.9750 0.0050 -39.6700
v 1616.0250 0.0050 -39.6700
v 1616.0250 2.0550 -39.7300
v 1616.9750 2.0550 -39.7300
v 1616.9750 2.0550 -39.6700
v 1616.0250 2.0550 -39.6700
v 1615.9380 0.9450 -39.6950
v 1616.0080 0.9450 -39.6950
v 1616.0080 0.9450 -39.6250
v 1615.9380 0.9450 -39.6250
v 1615.9380 1.0150 -39.6950
v 1616.0080 1.0150 -39.6950
v 1616.0080 1.0150 -39.6250
v 1615.9380 1.0150 -39.6250
v 1602.2750 0.0050 -37.3300
v 1603.2250 0.0050 -37.3300
v 1603.2250 0.0050 -37.2700
v 1602.2750 0.0050 -37.2700
v 1602.2750 2.0550 -37.3300
v 1603.2250 2.0550 -37.3300
v 1603.2250 2.0550 -37.2700
v 1602.2750 2.0550 -37.2700
v 1603.2420 0.9450 -37.3750
v 1603.3120 0.9450 -37.3750
v 1603.3120 0.9450 -37.3050
v 1603.2420 0.9450 -37.3050
v 1603.2420 1.0150 -37.3750
v 1603.3120 1.0150 -37.3750
v 1603.3120 1.0150 -37.3050
v 1603.2420 1.0150 -37.3050
v 1612.1700 0.0050 -33.4750
v 1612.2300 0.0050 -33.4750
v 1612.2300 0.0050 -32.5250
v 1612.1700 0.0050 -32.5250
v 1612.1700 2.0550 -33.4750
v 1612.2300 2.0550 -33.4750
v 1612.2300 2.0550 -32.5250
v 1612.1700 2.0550 -32.5250
v 1612.1250 0.9450 -33.5620
v 1612.1950 0.9450 -33.5620
v 1612.1950 0.9450 -33.4920
v 1612.1250 0.9450 -33.4920
v 1612.1250 1.0150 -33.5620
v 1612.1950 1.0150 -33.5620
v 1612.1950 1.0150 -33.4920
v 1612.1250 1.0150 -33.4920
v 1599.5250 0.0050 -31.8300
v 1600.4750 0.0050 -31.8300
v 1600.4750 0.0050 -31.7700
v 1599.5250 0.0050 -31.7700
v 1599.5250 2.0550 -31.8300
v 1600.4750 2.0550 -31.8300
v 1600.4750 2.0550 -31.7700
v 1599.5250 2.0550 -31.7700
v 1600.4920 0.9450 -31.8750
v 1600.5620 0.9450 -31.8750
v 1600.5620 0.9450 -31.8050
v 1600.4920 0.9450 -31.8050
v 1600.4920 1.0150 -31.8750
v 1600.5620 1.0150 -31.8750
v 1600.5620 1.0150 -31.8050
v 1600.4920 1.0150 -31.8050
v 1602.2750 0.0050 -28.7300
v 1603.2250 0.0050 -28.7300
v 1603.2250 0.0050 -28.6700
v 1602.2750 0.0050 -28.6700
v 1602.2750 2.0550 -28.7300
v 1603.2250 2.0550 -28.7300
v 1603.2250 2.0550 -28.6700
v 1602.2750 2.0550 -28.6700
v 1602.1880 0.9450 -28.6950
v 1602.2580 0.9450 -28.6950
v 1602.2580 0.9450 -28.6250
v 1602.1880 0.9450 -28.6250
v 1602.1880 1.0150 -28.6950
v 1602.2580 1.0150 -28.6950
v 1602.2580 1.0150 -28.6250
v 1602.1880 1.0150 -28.6250
v 1605.0250 0.0050 -31.8300
v 1605.9750 0.0050 -31.8300
v 1605.9750 0.0050 -31.7700
v 1605.0250 0.0050 -31.7700
v 1605.0250 2.0550 -31.8300
v 1605.9750 2.0550 -31.8300
v 1605.9750 2.0550 -31.7700
v 1605.0250 2.0550 -31.7700
v 1605.9920 0.9450 -31.8750
v 1606.0620 0.9450 -31.8750
v 1606.0620 0.9450 -31.8050
v 1605.9920 0.9450 -31.8050
v 1605.9920 1.0150 -31.8750
v 1606.0620 1.0150 -31.8750
v 1606.0620 1.0150 -31.8050
v 1605.9920 1.0150 -31.8050
v 1609.7700 0.0050 -27.9750
v 1609.8300 0.0050 -27.9750
v 1609.8300 0.0050 -27.0250
v 1609.7700 0.0050 -27.0250
v 1609.7700 2.0550 -27.9750
v 1609.8300 2.0550 -27.9750
v 1609.8300 2.0550 -27.0250
v 1609.7700 2.0550 -27.0250
v 1609.8050 0.9450 -27.0080
v 1609.8750 0.9450 -27.0080
v 1609.8750 0.9450 -26.9380
v 1609.8050 0.9450 -26.9380
v 1609.8050 1.0150 -27.0080
v 1609.8750 1.0150 -27.0080
v 1609.8750 1.0150 -26.9380
v 1609.8050 1.0150 -26.9380
v 1617.6700 0.0050 -27.9750
v 1617.7300 0.0050 -27.9750
v 1617.7300 0.0050 -27.0250
v 1617.6700 0.0050 -27.0250
v 1617.6700 2.0550 -27.9750
v 1617.7300 2.0550 -27.9750
v 1617.7300 2.0550 -27.0250
v 1617.6700 2.0550 -27.0250
v 1617.6250 0.9450 -28.0620
v 1617.6950 0.9450 -28.0620
v 1617.6950 0.9450 -27.9920
v 1617.6250 0.9450 -27.9920
v 1617.6250 1.0150 -28.0620
v 1617.6950 1.0150 -28.0620
v 1617.6950 1.0150 -27.9920
v 1617.6250 1.0150 -27.9920
v 1595.6700 0.0050 -25.2250
v 1595.7300 0.0050 -25.2250
v 1595.7300 0.0050 -24.2750
v 1595.6700 0.0050 -24.2750
v 1595.6700 2.0550 -25.2250
v 1595.7300 2.0550 -25.2250
v 1595.7300 2.0550 -24.2750
v 1595.6700 2.0550 -24.2750
v 1595.6250 0.9450 -25.3120
v 1595.6950 0.9450 -25.3120
v 1595.6950 0.9450 -25.2420
v 1595.6250 0.9450 -25.2420
v 1595.6250 1.0150 -25.3120
v 1595.6950 1.0150 -25.3120
v 1595.6950 1.0150 -25.2420
v 1595.6250 1.0150 -25.2420
v 1604.2700 0.0050 -25.2250
v 1604.3300 0.0050 -25.2250
v 1604.3300 0.0050 -24.2750
v 1604.2700 0.0050 -24.2750
v 1604.2700 2.0550 -25.2250
v 1604.3300 2.0550 -25.2250
v 1604.3300 2.0550 -24.2750
v 1604.2700 2.0550 -24.2750
v 1604.3050 0.9450 -24.2580
v 1604.3750 0.9450 -24.2580
v 1604.3750 0.9450 -24.1880
v 1604.3050 0.9450 -24.1880
v 1604.3050 1.0150 -24.2580
v 1604.3750 1.0150 -24.2580
v 1604.3750 1.0150 -24.1880
v 1604.3050 1.0150 -24.1880
v 1617.6700 0.0050 -25.2250
v 1617.7300 0.0050 -25.2250
v 1617.7300 0.0050 -24.2750
v 1617.6700 0.0050 -24.2750
v 1617.6700 2.0550 -25.2250
v 1617.7300 2.0550 -25.2250
v 1617.7300 2.0550 -24.2750
v 1617.6700 2.0550 -24.2750
v 1617.6250 0.9450 -25.3120
v 1617.6950 0.9450 -25.3120
v 1617.6950 0.9450 -25.2420
v 1617.6250 0.9450 -25.2420
v 1617.6250 1.0150 -25.3120
v 1617.6950 1.0150 -25.3120
v 1617.6950 1.0150 -25.2420
v 1617.6250 1.0150 -25.2420
v 1602.2750 0.0050 -20.8300
v 1603.2250 0.0050 -20.8300
v 1603.2250 0.0050 -20.7700
v 1602.2750 0.0050 -20.7700
v 1602.2750 2.0550 -20.8300
v 1603.2250 2.0550 -20.8300
v 1603.2250 2.0550 -20.7700
v 1602.2750 2.0550 -20.7700
v 1603.2420 0.9450 -20.8750
v 1603.3120 0.9450 -20.8750
v 1603.3120 0.9450 -20.8050
v 1603.2420 0.9450 -20.8050
v 1603.2420 1.0150 -20.8750
v 1603.3120 1.0150 -20.8750
v 1603.3120 1.0150 -20.8050
v 1603.2420 1.0150 -20.8050
v 1607.7750 0.0050 -20.8300
v 1608.7250 0.0050 -20.8300
v 1608.7250 0.0050 -20.7700
v 1607.7750 0.0050 -20.7700
v 1607.7750 2.0550 -20.8300
v 1608.7250 2.0550 -20.8300
v 1608.7250 2.0550 -20.7700
v 1607.7750 2.0550 -20.7700
v 1608.7420 0.9450 -20.8750
v 1608.8120 0.9450 -20.8750
v 1608.8120 0.9450 -20.8050
v 1608.7420 0.9450 -20.8050
v 1608.7420 1.0150 -20.8750
v 1608.8120 1.0150 -20.8750
v 1608.8120 1.0150 -20.8050
v 1608.7420 1.0150 -20.8050
v 1616.0250 0.0050 -12.2300
v 1616.9750 0.0050 -12.2300
v 1616.9750 0.0050 -12.1700
v 1616.0250 0.0050 -12.1700
v 1616.0250 2.0550 -12.2300
v 1616.9750 2.0550 -12.2300
v 1616.9750 2.0550 -12.1700
v 1616.0250 2.0550 -12.1700
v 1615.9380 0.9450 -12.1950
v 1616.0080 0.9450 -12.1950
v 1616.0080 0.9450 -12.1250
v 1615.9380 0.9450 -12.1250
v 1615.9380 1.0150 -12.1950
v 1616.0080 1.0150 -12.1950
v 1616.0080 1.0150 -12.1250
v 1615.9380 1.0150 -12.1250
v 1618.7750 0.0050 -12.2300
v 1619.7250 0.0050 -12.2300
v 1619.7250 0.0050 -12.1700
v 1618.7750 0.0050 -12.1700
v 1618.7750 2.0550 -12.2300
v 1619.7250 2.0550 -12.2300
v 1619.7250 2.0550 -12.1700
v 1618.7750 2.0550 -12.1700
v 1618.6880 0.9450 -12.1950
v 1618.7580 0.9450 -12.1950
v 1618.7580 0.9450 -12.1250
v 1618.6880 0.9450 -12.1250
v 1618.6880 1.0150 -12.1950
v 1618.7580 1.0150 -12.1950
v 1618.7580 1.0150 -12.1250
v 1618.6880 1.0150 -12.1250
v 1621.5250 0.0050 -12.2300
v 1622.4750 0.0050 -12.2300
v 1622.4750 0.0050 -12.1700
v 1621.5250 0.0050 -12.1700
v 1621.5250 2.0550 -12.2300
v 1622.4750 2.0550 -12.2300
v 1622.4750 2.0550 -12.1700
v 1621.5250 2.0550 -12.1700
v 1621.4380 0.9450 -12.1950
v 1621.5080 0.9450 -12.1950
v 1621.5080 0.9450 -12.1250
v 1621.4380 0.9450 -12.1250
v 1621.4380 1.0150 -12.1950
v 1621.5080 1.0150 -12.1950
v 1621.5080 1.0150 -12.1250
v 1621.4380 1.0150 -12.1250
vt 993.8750 -23.3125
vt 993.8750 -21.3750
vt 995.8125 -21.3750
vt 995.8125 -23.3125
vt 993.8750 -23.3125
vt 995.8125 -23.3125
vt 995.8125 -21.3750
vt 993.8750 -21.3750
vt 993.8750 0.0000
vt 995.8125 0.0000
vt 995.8125 2.1250
vt 993.8750 2.1250
vt 995.8125 0.0000
vt 993.8750 0.0000
vt 993.8750 2.1250
vt 995.8125 2.1250
vt -23.3125 0.0000
vt -21.3750 0.0000
vt -21.3750 2.1250
vt -23.3125 2.1250
vt -21.3750 0.0000
vt -23.3125 0.0000
vt -23.3125 2.1250
vt -21.3750 2.1250
vt 995.5938 -23.3125
vt 995.5938 -21.3750
vt 997.5312 -21.3750
vt 997.5312 -23.3125
vt 995.5938 -23.3125
vt 997.5312 -23.3125
vt 997.5312 -21.3750
vt 995.5938 -21.3750
vt 995.5938 0.0000
vt 997.5312 0.0000
vt 997.5312 2.1250
vt 995.5938 2.1250
vt 997.5312 0.0000
vt 995.5938 0.0000
vt 995.5938 2.1250
vt 997.5312 2.1250
vt -23.3125 0.0000
vt -21.3750 0.0000
vt -21.3750 2.1250
vt -23.3125 2.1250
vt -21.3750 0.0000
vt -23.3125 0.0000
vt -23.3125 2.1250
vt -21.3750 2.1250
vt 999.0312 -23.3125
vt 999.0312 -21.3750
vt 1000.9687 -21.3750
vt 1000.9687 -23.3125
vt 999.0312 -23.3125
vt 1000.9687 -23.3125
vt 1000.9687 -21.3750
vt 999.0312 -21.3750
vt 999.0312 0.0000
vt 1000.9687 0.0000
vt 1000.9687 2.1250
vt 999.0312 2.1250
vt 1000.9687 0.0000
vt 999.0312 0.0000
vt 999.0312 2.1250
vt 1000.9687 2.1250
vt -23.3125 0.0000
vt -21.3750 0.0000
vt -21.3750 2.1250
vt -23.3125 2.1250
vt -21.3750 0.0000
vt -23.3125 0.0000
vt -23.3125 2.1250
vt -21.3750 2.1250
vt 1007.6250 -23.3125
vt 1007.6250 -21.3750
vt 1009.5625 -21.3750
vt 1009.5625 -23.3125
vt 1007.6250 -23.3125
vt 1009.5625 -23.3125
vt 1009.5625 -21.3750
vt 1007.6250 -21.3750
vt 1007.6250 0.0000
vt 1009.5625 0.0000
vt 1009.5625 2.1250
vt 1007.6250 2.1250
vt 1009.5625 0.0000
vt 1007.6250 0.0000
vt 1007.6250 2.1250
vt 1009.5625 2.1250
vt -23.3125 0.0000
vt -21.3750 0.0000
vt -21.3750 2.1250
vt -23.3125 2.1250
vt -21.3750 0.0000
vt -23.3125 0.0000
vt -23.3125 2.1250
vt -21.3750 2.1250
vt 1000.7500 -21.5937
vt 1000.7500 -19.6562
vt 1002.6875 -19.6562
vt 1002.6875 -21.5937
vt 1000.7500 -21.5937
vt 1002.6875 -21.5937
vt 1002.6875 -19.6562
vt 1000.7500 -19.6562
vt 1000.7500 0.0000
vt 1002.6875 0.0000
vt 1002.6875 2.1250
vt 1000.7500 2.1250
vt 1002.6875 0.0000
vt 1000.7500 0.0000
vt 1000.7500 2.1250
vt 1002.6875 2.1250
vt -21.5937 0.0000
vt -19.6562 0.0000
vt -19.6562 2.1250
vt -21.5937 2.1250
vt -19.6562 0.0000
vt -21.5937 0.0000
vt -21.5937 2.1250
vt -19.6562 2.1250
vt 993.8750 -19.8750
vt 993.8750 -17.9375
vt 995.8125 -17.9375
vt 995.8125 -19.8750
vt 993.8750 -19.8750
vt 995.8125 -19.8750
vt 995.8125 -17.9375
vt 993.8750 -17.9375
vt 993.8750 0.0000
vt 995.8125 0.0000
vt 995.8125 2.1250
vt 993.8750 2.1250
vt 995.8125 0.0000
vt 993.8750 0.0000
vt 993.8750 2.1250
vt 995.8125 2.1250
vt -19.8750 0.0000
vt -17.9375 0.0000
vt -17.9375 2.1250
vt -19.8750 2.1250
vt -17.9375 0.0000
vt -19.8750 0.0000
vt -19.8750 2.1250
vt -17.9375 2.1250
vt 997.3125 -19.8750
vt 997.3125 -17.9375
vt 999.2500 -17.9375
vt 999.2500 -19.8750
vt 997.3125 -19.8750
vt 999.2500 -19.8750
vt 999.2500 -17.9375
vt 997.3125 -17.9375
vt 997.3125 0.0000
vt 999.2500 0.0000
vt 999.2500 2.1250
vt 997.3125 2.1250
vt 999.2500 0.0000
vt 997.3125 0.0000
vt 997.3125 2.1250
vt 999.2500 2.1250
vt -19.8750 0.0000
vt -17.9375 0.0000
vt -17.9375 2.1250
vt -19.8750 2.1250
vt -17.9375 0.0000
vt -19.8750 0.0000
vt -19.8750 2.1250
vt -17.9375 2.1250
vt 999.0312 -19.8750
vt 999.0312 -17.9375
vt 1000.9687 -17.9375
vt 1000.9687 -19.8750
vt 999.0312 -19.8750
vt 1000.9687 -19.8750
vt 1000.9687 -17.9375
vt 999.0312 -17.9375
vt 999.0312 0.0000
vt 1000.9687 0.0000
vt 1000.9687 2.1250
vt 999.0312 2.1250
vt 1000.9687 0.0000
vt 999.0312 0.0000
vt 999.0312 2.1250
vt 1000.9687 2.1250
vt -19.8750 0.0000
vt -17.9375 0.0000
vt -17.9375 2.1250
vt -19.8750 2.1250
vt -17.9375 0.0000
vt -19.8750 0.0000
vt -19.8750 2.1250
vt -17.9375 2.1250
vt 1000.7500 -19.8750
vt 1000.7500 -17.9375
vt 1002.6875 -17.9375
vt 1002.6875 -19.8750
vt 1000.7500 -19.8750
vt 1002.6875 -19.8750
vt 1002.6875 -17.9375
vt 1000.7500 -17.9375
vt 1000.7500 0.0000
vt 1002.6875 0.0000
vt 1002.6875 2.1250
vt 1000.7500 2.1250
vt 1002.6875 0.0000
vt 1000.7500 0.0000
vt 1000.7500 2.1250
vt 1002.6875 2.1250
vt -19.8750 0.0000
vt -17.9375 0.0000
vt -17.9375 2.1250
vt -19.8750 2.1250
vt -17.9375 0.0000
vt -19.8750 0.0000
vt -19.8750 2.1250
vt -17.9375 2.1250
vt 1002.4688 -19.8750
vt 1002.4688 -17.9375
vt 1004.4062 -17.9375
vt 1004.4062 -19.8750
vt 1002.4688 -19.8750
vt 1004.4062 -19.8750
vt 1004.4062 -17.9375
vt 1002.4688 -17.9375
vt 1002.4688 0.0000
vt 1004.4062 0.0000
vt 1004.4062 2.1250
vt 1002.4688 2.1250
vt 1004.4062 0.0000
vt 1002.4688 0.0000
vt 1002.4688 2.1250
vt 1004.4062 2.1250
vt -19.8750 0.0000
vt -17.9375 0.0000
vt -17.9375 2.1250
vt -19.8750 2.1250
vt -17.9375 0.0000
vt -19.8750 0.0000
vt -19.8750 2.1250
vt -17.9375 2.1250
vt 1004.1875 -19.8750
vt 1004.1875 -17.9375
vt 1006.1250 -17.9375
vt 1006.1250 -19.8750
vt 1004.1875 -19.8750
vt 1006.1250 -19.8750
vt 1006.1250 -17.9375
vt 1004.1875 -17.9375
vt 1004.1875 0.0000
vt 1006.1250 0.0000
vt 1006.1250 2.1250
vt 1004.1875 2.1250
vt 1006.1250 0.0000
vt 1004.1875 0.0000
vt 1004.1875 2.1250
vt 1006.1250 2.1250
vt -19.8750 0.0000
vt -17.9375 0.0000
vt -17.9375 2.1250
vt -19.8750 2.1250
vt -17.9375 0.0000
vt -19.8750 0.0000
vt -19.8750 2.1250
vt -17.9375 2.1250
vt 1007.6250 -19.8750
vt 1007.6250 -17.9375
vt 1009.5625 -17.9375
vt 1009.5625 -19.8750
vt 1007.6250 -19.8750
vt 1009.5625 -19.8750
vt 1009.5625 -17.9375
vt 1007.6250 -17.9375
vt 1007.6250 0.0000
vt 1009.5625 0.0000
vt 1009.5625 2.1250
vt 1007.6250 2.1250
vt 1009.5625 0.0000
vt 1007.6250 0.0000
vt 1007.6250 2.1250
vt 1009.5625 2.1250
vt -19.8750 0.0000
vt -17.9375 0.0000
vt -17.9375 2.1250
vt -19.8750 2.1250
vt -17.9375 0.0000
vt -19.8750 0.0000
vt -19.8750 2.1250
vt -17.9375 2.1250
vt 993.8750 -18.1562
vt 993.8750 -16.2188
vt 995.8125 -16.2188
vt 995.8125 -18.1562
vt 993.8750 -18.1562
vt 995.8125 -18.1562
vt 995.8125 -16.2188
vt 993.8750 -16.2188
vt 993.8750 0.0000
vt 995.8125 0.0000
vt 995.8125 2.1250
vt 993.8750 2.1250
vt 995.8125 0.0000
vt 993.8750 0.0000
vt 993.8750 2.1250
vt 995.8125 2.1250
vt -18.1562 0.0000
vt -16.2188 0.0000
vt -16.2188 2.1250
vt -18.1562 2.1250
vt -16.2188 0.0000
vt -18.1562 0.0000
vt -18.1562 2.1250
vt -16.2188 2.1250
vt 1004.1875 -18.1562
vt 1004.1875 -16.2188
vt 1006.1250 -16.2188
vt 1006.1250 -18.1562
vt 1004.1875 -18.1562
vt 1006.1250 -18.1562
vt 1006.1250 -16.2188
vt 1004.1875 -16.2188
vt 1004.1875 0.0000
vt 1006.1250 0.0000
vt 1006.1250 2.1250
vt 1004.1875 2.1250
vt 1006.1250 0.0000
vt 1004.1875 0.0000
vt 1004.1875 2.1250
vt 1006.1250 2.1250
vt -18.1562 0.0000
vt -16.2188 0.0000
vt -16.2188 2.1250
vt -18.1562 2.1250
vt -16.2188 0.0000
vt -18.1562 0.0000
vt -18.1562 2.1250
vt -16.2188 2.1250
vt 1011.0625 -18.1562
vt 1011.0625 -16.2188
vt 1013.0000 -16.2188
vt 1013.0000 -18.1562
vt 1011.0625 -18.1562
vt 1013.0000 -18.1562
vt 1013.0000 -16.2188
vt 1011.0625 -16.2188
vt 1011.0625 0.0000
vt 1013.0000 0.0000
vt 1013.0000 2.1250
vt 1011.0625 2.1250
vt 1013.0000 0.0000
vt 1011.0625 0.0000
vt 1011.0625 2.1250
vt 1013.0000 2.1250
vt -18.1562 0.0000
vt -16.2188 0.0000
vt -16.2188 2.1250
vt -18.1562 2.1250
vt -16.2188 0.0000
vt -18.1562 0.0000
vt -18.1562 2.1250
vt -16.2188 2.1250
vt 997.3125 -16.4375
vt 997.3125 -14.5000
vt 999.2500 -14.5000
vt 999.2500 -16.4375
vt 997.3125 -16.4375
vt 999.2500 -16.4375
vt 999.2500 -14.5000
vt 997.3125 -14.5000
vt 997.3125 0.0000
vt 999.2500 0.0000
vt 999.2500 2.1250
vt 997.3125 2.1250
vt 999.2500 0.0000
vt 997.3125 0.0000
vt 997.3125 2.1250
vt 999.2500 2.1250
vt -16.4375 0.0000
vt -14.5000 0.0000
vt -14.5000 2.1250
vt -16.4375 2.1250
vt -14.5000 0.0000
vt -16.4375 0.0000
vt -16.4375 2.1250
vt -14.5000 2.1250
vt 1000.7500 -16.4375
vt 1000.7500 -14.5000
vt 1002.6875 -14.5000
vt 1002.6875 -16.4375
vt 1000.7500 -16.4375
vt 1002.6875 -16.4375
vt 1002.6875 -14.5000
vt 1000.7500 -14.5000
vt 1000.7500 0.0000
vt 1002.6875 0.0000
vt 1002.6875 2.1250
vt 1000.7500 2.1250
vt 1002.6875 0.0000
vt 1000.7500 0.0000
vt 1000.7500 2.1250
vt 1002.6875 2.1250
vt -16.4375 0.0000
vt -14.5000 0.0000
vt -14.5000 2.1250
vt -16.4375 2.1250
vt -14.5000 0.0000
vt -16.4375 0.0000
vt -16.4375 2.1250
vt -14.5000 2.1250
vt 1004.1875 -16.4375
vt 1004.1875 -14.5000
vt 1006.1250 -14.5000
vt 1006.1250 -16.4375
vt 1004.1875 -16.4375
vt 1006.1250 -16.4375
vt 1006.1250 -14.5000
vt 1004.1875 -14.5000
vt 1004.1875 0.0000
vt 1006.1250 0.0000
vt 1006.1250 2.1250
vt 1004.1875 2.1250
vt 1006.1250 0.0000
vt 1004.1875 0.0000
vt 1004.1875 2.1250
vt 1006.1250 2.1250
vt -16.4375 0.0000
vt -14.5000 0.0000
vt -14.5000 2.1250
vt -16.4375 2.1250
vt -14.5000 0.0000
vt -16.4375 0.0000
vt -16.4375 2.1250
vt -14.5000 2.1250
vt 1005.9062 -16.4375
vt 1005.9062 -14.5000
vt 1007.8437 -14.5000
vt 1007.8437 -16.4375
vt 1005.9062 -16.4375
vt 1007.8437 -16.4375
vt 1007.8437 -14.5000
vt 1005.9062 -14.5000
vt 1005.9062 0.0000
vt 1007.8437 0.0000
vt 1007.8437 2.1250
vt 1005.9062 2.1250
vt 1007.8437 0.0000
vt 1005.9062 0.0000
vt 1005.9062 2.1250
vt 1007.8437 2.1250
vt -16.4375 0.0000
vt -14.5000 0.0000
vt -14.5000 2.1250
vt -16.4375 2.1250
vt -14.5000 0.0000
vt -16.4375 0.0000
vt -16.4375 2.1250
vt -14.5000 2.1250
vt 1007.6250 -16.4375
vt 1007.6250 -14.5000
vt 1009.5625 -14.5000
vt 1009.5625 -16.4375
vt 1007.6250 -16.4375
vt 1009.5625 -16.4375
vt 1009.5625 -14.5000
vt 1007.6250 -14.5000
vt 1007.6250 0.0000
vt 1009.5625 0.0000
vt 1009.5625 2.1250
vt 1007.6250 2.1250
vt 1009.5625 0.0000
vt 1007.6250 0.0000
vt 1007.6250 2.1250
vt 1009.5625 2.1250
vt -16.4375 0.0000
vt -14.5000 0.0000
vt -14.5000 2.1250
vt -16.4375 2.1250
vt -14.5000 0.0000
vt -16.4375 0.0000
vt -16.4375 2.1250
vt -14.5000 2.1250
vt 1011.0625 -16.4375
vt 1011.0625 -14.5000
vt 1013.0000 -14.5000
vt 1013.0000 -16.4375
vt 1011.0625 -16.4375
vt 1013.0000 -16.4375
vt 1013.0000 -14.5000
vt 1011.0625 -14.5000
vt 1011.0625 0.0000
vt 1013.0000 0.0000
vt 1013.0000 2.1250
vt 1011.0625 2.1250
vt 1013.0000 0.0000
vt 1011.0625 0.0000
vt 1011.0625 2.1250
vt 1013.0000 2.1250
vt -16.4375 0.0000
vt -14.5000 0.0000
vt -14.5000 2.1250
vt -16.4375 2.1250
vt -14.5000 0.0000
vt -16.4375 0.0000
vt -16.4375 2.1250
vt -14.5000 2.1250
vt 997.3125 -14.7188
vt 997.3125 -12.7812
vt 999.2500 -12.7812
vt 999.2500 -14.7188
vt 997.3125 -14.7188
vt 999.2500 -14.7188
vt 999.2500 -12.7812
vt 997.3125 -12.7812
vt 997.3125 0.0000
vt 999.2500 0.0000
vt 999.2500 2.1250
vt 997.3125 2.1250
vt 999.2500 0.0000
vt 997.3125 0.0000
vt 997.3125 2.1250
vt 999.2500 2.1250
vt -14.7188 0.0000
vt -12.7812 0.0000
vt -12.7812 2.1250
vt -14.7188 2.1250
vt -12.7812 0.0000
vt -14.7188 0.0000
vt -14.7188 2.1250
vt -12.7812 2.1250
vt 1011.0625 -14.7188
vt 1011.0625 -12.7812
vt 1013.0000 -12.7812
vt 1013.0000 -14.7188
vt 1011.0625 -14.7188
vt 1013.0000 -14.7188
vt 1013.0000 -12.7812
vt 1011.0625 -12.7812
vt 1011.0625 0.0000
vt 1013.0000 0.0000
vt 1013.0000 2.1250
vt 1011.0625 2.1250
vt 1013.0000 0.0000
vt 1011.0625 0.0000
vt 1011.0625 2.1250
vt 1013.0000 2.1250
vt -14.7188 0.0000
vt -12.7812 0.0000
vt -12.7812 2.1250
vt -14.7188 2.1250
vt -12.7812 0.0000
vt -14.7188 0.0000
vt -14.7188 2.1250
vt -12.7812 2.1250
vt 993.8750 -13.0000
vt 993.8750 -11.0625
vt 995.8125 -11.0625
vt 995.8125 -13.0000
vt 993.8750 -13.0000
vt 995.8125 -13.0000
vt 995.8125 -11.0625
vt 993.8750 -11.0625
vt 993.8750 0.0000
vt 995.8125 0.0000
vt 995.8125 2.1250
vt 993.8750 2.1250
vt 995.8125 0.0000
vt 993.8750 0.0000
vt 993.8750 2.1250
vt 995.8125 2.1250
vt -13.0000 0.0000
vt -11.0625 0.0000
vt -11.0625 2.1250
vt -13.0000 2.1250
vt -11.0625 0.0000
vt -13.0000 0.0000
vt -13.0000 2.1250
vt -11.0625 2.1250
vt 1000.7500 -13.0000
vt 1000.7500 -11.0625
vt 1002.6875 -11.0625
vt 1002.6875 -13.0000
vt 1000.7500 -13.0000
vt 1002.6875 -13.0000
vt 1002.6875 -11.0625
vt 1000.7500 -11.0625
vt 1000.7500 0.0000
vt 1002.6875 0.0000
vt 1002.6875 2.1250
vt 1000.7500 2.1250
vt 1002.6875 0.0000
vt 1000.7500 0.0000
vt 1000.7500 2.1250
vt 1002.6875 2.1250
vt -13.0000 0.0000
vt -11.0625 0.0000
vt -11.0625 2.1250
vt -13.0000 2.1250
vt -11.0625 0.0000
vt -13.0000 0.0000
vt -13.0000 2.1250
vt -11.0625 2.1250
vt 1002.4688 -13.0000
vt 1002.4688 -11.0625
vt 1004.4062 -11.0625
vt 1004.4062 -13.0000
vt 1002.4688 -13.0000
vt 1004.4062 -13.0000
vt 1004.4062 -11.0625
vt 1002.4688 -11.0625
vt 1002.4688 0.0000
vt 1004.4062 0.0000
vt 1004.4062 2.1250
vt 1002.4688 2.1250
vt 1004.4062 0.0000
vt 1002.4688 0.0000
vt 1002.4688 2.1250
vt 1004.4062 2.1250
vt -13.0000 0.0000
vt -11.0625 0.0000
vt -11.0625 2.1250
vt -13.0000 2.1250
vt -11.0625 0.0000
vt -13.0000 0.0000
vt -13.0000 2.1250
vt -11.0625 2.1250
vt 1004.1875 -13.0000
vt 1004.1875 -11.0625
vt 1006.1250 -11.0625
vt 1006.1250 -13.0000
vt 1004.1875 -13.0000
vt 1006.1250 -13.0000
vt 1006.1250 -11.0625
vt 1004.1875 -11.0625
vt 1004.1875 0.0000
vt 1006.1250 0.0000
vt 1006.1250 2.1250
vt 1004.1875 2.1250
vt 1006.1250 0.0000
vt 1004.1875 0.0000
vt 1004.1875 2.1250
vt 1006.1250 2.1250
vt -13.0000 0.0000
vt -11.0625 0.0000
vt -11.0625 2.1250
vt -13.0000 2.1250
vt -11.0625 0.0000
vt -13.0000 0.0000
vt -13.0000 2.1250
vt -11.0625 2.1250
vt 1005.9062 -13.0000
vt 1005.9062 -11.0625
vt 1007.8437 -11.0625
vt 1007.8437 -13.0000
vt 1005.9062 -13.0000
vt 1007.8437 -13.0000
vt 1007.8437 -11.0625
vt 1005.9062 -11.0625
vt 1005.9062 0.0000
vt 1007.8437 0.0000
vt 1007.8437 2.1250
vt 1005.9062 2.1250
vt 1007.8437 0.0000
vt 1005.9062 0.0000
vt 1005.9062 2.1250
vt 1007.8437 2.1250
vt -13.0000 0.0000
vt -11.0625 0.0000
vt -11.0625 2.1250
vt -13.0000 2.1250
vt -11.0625 0.0000
vt -13.0000 0.0000
vt -13.0000 2.1250
vt -11.0625 2.1250
vt 1007.6250 -13.0000
vt 1007.6250 -11.0625
vt 1009.5625 -11.0625
vt 1009.5625 -13.0000
vt 1007.6250 -13.0000
vt 1009.5625 -13.0000
vt 1009.5625 -11.0625
vt 1007.6250 -11.0625
vt 1007.6250 0.0000
vt 1009.5625 0.0000
vt 1009.5625 2.1250
vt 1007.6250 2.1250
vt 1009.5625 0.0000
vt 1007.6250 0.0000
vt 1007.6250 2.1250
vt 1009.5625 2.1250
vt -13.0000 0.0000
vt -11.0625 0.0000
vt -11.0625 2.1250
vt -13.0000 2.1250
vt -11.0625 0.0000
vt -13.0000 0.0000
vt -13.0000 2.1250
vt -11.0625 2.1250
vt 1011.0625 -13.0000
vt 1011.0625 -11.0625
vt 1013.0000 -11.0625
vt 1013.0000 -13.0000
vt 1011.0625 -13.0000
vt 1013.0000 -13.0000
vt 1013.0000 -11.0625
vt 1011.0625 -11.0625
vt 1011.0625 0.0000
vt 1013.0000 0.0000
vt 1013.0000 2.1250
vt 1011.0625 2.1250
vt 1013.0000 0.0000
vt 1011.0625 0.0000
vt 1011.0625 2.1250
vt 1013.0000 2.1250
vt -13.0000 0.0000
vt -11.0625 0.0000
vt -11.0625 2.1250
vt -13.0000 2.1250
vt -11.0625 0.0000
vt -13.0000 0.0000
vt -13.0000 2.1250
vt -11.0625 2.1250
vt 1012.7812 -13.0000
vt 1012.7812 -11.0625
vt 1014.7187 -11.0625
vt 1014.7187 -13.0000
vt 1012.7812 -13.0000
vt 1014.7187 -13.0000
vt 1014.7187 -11.0625
vt 1012.7812 -11.0625
vt 1012.7812 0.0000
vt 1014.7187 0.0000
vt 1014.7187 2.1250
vt 1012.7812 2.1250
vt 1014.7187 0.0000
vt 1012.7812 0.0000
vt 1012.7812 2.1250
vt 1014.7187 2.1250
vt -13.0000 0.0000
vt -11.0625 0.0000
vt -11.0625 2.1250
vt -13.0000 2.1250
vt -11.0625 0.0000
vt -13.0000 0.0000
vt -13.0000 2.1250
vt -11.0625 2.1250
vt 1004.1875 -11.2812
vt 1004.1875 -9.3437
vt 1006.1250 -9.3437
vt 1006.1250 -11.2812
vt 1004.1875 -11.2812
vt 1006.1250 -11.2812
vt 1006.1250 -9.3437
vt 1004.1875 -9.3437
vt 1004.1875 0.0000
vt 1006.1250 0.0000
vt 1006.1250 2.1250
vt 1004.1875 2.1250
vt 1006.1250 0.0000
vt 1004.1875 0.0000
vt 1004.1875 2.1250
vt 1006.1250 2.1250
vt -11.2812 0.0000
vt -9.3437 0.0000
vt -9.3437 2.1250
vt -11.2812 2.1250
vt -9.3437 0.0000
vt -11.2812 0.0000
vt -11.2812 2.1250
vt -9.3437 2.1250
vt 993.8750 -9.5625
vt 993.8750 -7.6250
vt 995.8125 -7.6250
vt 995.8125 -9.5625
vt 993.8750 -9.5625
vt 995.8125 -9.5625
vt 995.8125 -7.6250
vt 993.8750 -7.6250
vt 993.8750 0.0000
vt 995.8125 0.0000
vt 995.8125 2.1250
vt 993.8750 2.1250
vt 995.8125 0.0000
vt 993.8750 0.0000
vt 993.8750 2.1250
vt 995.8125 2.1250
vt -9.5625 0.0000
vt -7.6250 0.0000
vt -7.6250 2.1250
vt -9.5625 2.1250
vt -7.6250 0.0000
vt -9.5625 0.0000
vt -9.5625 2.1250
vt -7.6250 2.1250
vt 1000.7500 -9.5625
vt 1000.7500 -7.6250
vt 1002.6875 -7.6250
vt 1002.6875 -9.5625
vt 1000.7500 -9.5625
vt 1002.6875 -9.5625
vt 1002.6875 -7.6250
vt 1000.7500 -7.6250
vt 1000.7500 0.0000
vt 1002.6875 0.0000
vt 1002.6875 2.1250
vt 1000.7500 2.1250
vt 1002.6875 0.0000
vt 1000.7500 0.0000
vt 1000.7500 2.1250
vt 1002.6875 2.1250
vt -9.5625 0.0000
vt -7.6250 0.0000
vt -7.6250 2.1250
vt -9.5625 2.1250
vt -7.6250 0.0000
vt -9.5625 0.0000
vt -9.5625 2.1250
vt -7.6250 2.1250
vt 1004.1875 -9.5625
vt 1004.1875 -7.6250
vt 1006.1250 -7.6250
vt 1006.1250 -9.5625
vt 1004.1875 -9.5625
vt 1006.1250 -9.5625
vt 1006.1250 -7.6250
vt 1004.1875 -7.6250
vt 1004.1875 0.0000
vt 1006.1250 0.0000
vt 1006.1250 2.1250
vt 1004.1875 2.1250
vt 1006.1250 0.0000
vt 1004.1875 0.0000
vt 1004.1875 2.1250
vt 1006.1250 2.1250
vt -9.5625 0.0000
vt -7.6250 0.0000
vt -7.6250 2.1250
vt -9.5625 2.1250
vt -7.6250 0.0000
vt -9.5625 0.0000
vt -9.5625 2.1250
vt -7.6250 2.1250
vt 1007.6250 -9.5625
vt 1007.6250 -7.6250
vt 1009.5625 -7.6250
vt 1009.5625 -9.5625
vt 1007.6250 -9.5625
vt 1009.5625 -9.5625
vt 1009.5625 -7.6250
vt 1007.6250 -7.6250
vt 1007.6250 0.0000
vt 1009.5625 0.0000
vt 1009.5625 2.1250
vt 1007.6250 2.1250
vt 1009.5625 0.0000
vt 1007.6250 0.0000
vt 1007.6250 2.1250
vt 1009.5625 2.1250
vt -9.5625 0.0000
vt -7.6250 0.0000
vt -7.6250 2.1250
vt -9.5625 2.1250
vt -7.6250 0.0000
vt -9.5625 0.0000
vt -9.5625 2.1250
vt -7.6250 2.1250
vt 1009.3438 -9.5625
vt 1009.3438 -7.6250
vt 1011.2812 -7.6250
vt 1011.2812 -9.5625
vt 1009.3438 -9.5625
vt 1011.2812 -9.5625
vt 1011.2812 -7.6250
vt 1009.3438 -7.6250
vt 1009.3438 0.0000
vt 1011.2812 0.0000
vt 1011.2812 2.1250
vt 1009.3438 2.1250
vt 1011.2812 0.0000
vt 1009.3438 0.0000
vt 1009.3438 2.1250
vt 1011.2812 2.1250
vt -9.5625 0.0000
vt -7.6250 0.0000
vt -7.6250 2.1250
vt -9.5625 2.1250
vt -7.6250 0.0000
vt -9.5625 0.0000
vt -9.5625 2.1250
vt -7.6250 2.1250
vt 1011.0625 -9.5625
vt 1011.0625 -7.6250
vt 1013.0000 -7.6250
vt 1013.0000 -9.5625
vt 1011.0625 -9.5625
vt 1013.0000 -9.5625
vt 1013.0000 -7.6250
vt 1011.0625 -7.6250
vt 1011.0625 0.0000
vt 1013.0000 0.0000
vt 1013.0000 2.1250
vt 1011.0625 2.1250
vt 1013.0000 0.0000
vt 1011.0625 0.0000
vt 1011.0625 2.1250
vt 1013.0000 2.1250
vt -9.5625 0.0000
vt -7.6250 0.0000
vt -7.6250 2.1250
vt -9.5625 2.1250
vt -7.6250 0.0000
vt -9.5625 0.0000
vt -9.5625 2.1250
vt -7.6250 2.1250
vt 1012.7812 -9.5625
vt 1012.7812 -7.6250
vt 1014.7187 -7.6250
vt 1014.7187 -9.5625
vt 1012.7812 -9.5625
vt 1014.7187 -9.5625
vt 1014.7187 -7.6250
vt 1012.7812 -7.6250
vt 1012.7812 0.0000
vt 1014.7187 0.0000
vt 1014.7187 2.1250
vt 1012.7812 2.1250
vt 1014.7187 0.0000
vt 1012.7812 0.0000
vt 1012.7812 2.1250
vt 1014.7187 2.1250
vt -9.5625 0.0000
vt -7.6250 0.0000
vt -7.6250 2.1250
vt -9.5625 2.1250
vt -7.6250 0.0000
vt -9.5625 0.0000
vt -9.5625 2.1250
vt -7.6250 2.1250
vt 993.8750 -7.8438
vt 993.8750 -5.9062
vt 995.8125 -5.9062
vt 995.8125 -7.8438
vt 993.8750 -7.8438
vt 995.8125 -7.8438
vt 995.8125 -5.9062
vt 993.8750 -5.9062
vt 993.8750 0.0000
vt 995.8125 0.0000
vt 995.8125 2.1250
vt 993.8750 2.1250
vt 995.8125 0.0000
vt 993.8750 0.0000
vt 993.8750 2.1250
vt 995.8125 2.1250
vt -7.8438 0.0000
vt -5.9062 0.0000
vt -5.9062 2.1250
vt -7.8438 2.1250
vt -5.9062 0.0000
vt -7.8438 0.0000
vt -7.8438 2.1250
vt -5.9062 2.1250
usemtl hotel_paper_alt
f 49 52 51 50
f 53 54 55 56
f 49 50 54 53
f 51 52 56 55
f 50 51 55 54
f 52 49 53 56
f 81 84 83 82
f 85 86 87 88
f 81 82 86 85
f 83 84 88 87
f 82 83 87 86
f 84 81 85 88
f 137 140 139 138
f 141 142 143 144
f 137 138 142 141
f 139 140 144 143
f 138 139 143 142
f 140 137 141 144
f 313 316 315 314
f 317 318 319 320
f 313 314 318 317
f 315 316 320 319
f 314 315 319 318
f 316 313 317 320
f 393 396 395 394
f 397 398 399 400
f 393 394 398 397
f 395 396 400 399
f 394 395 399 398
f 396 393 397 400
f 617 620 619 618
f 621 622 623 624
f 617 618 622 621
f 619 620 624 623
f 618 619 623 622
f 620 617 621 624
f 1009 1012 1011 1010
f 1013 1014 1015 1016
f 1009 1010 1014 1013
f 1011 1012 1016 1015
f 1010 1011 1015 1014
f 1012 1009 1013 1016
usemtl lamp_warm
f 1017 1020 1019 1018
f 1021 1022 1023 1024
f 1017 1018 1022 1021
f 1019 1020 1024 1023
f 1018 1019 1023 1022
f 1020 1017 1021 1024
usemtl hotel_trim
f 1025 1028 1027 1026
f 1029 1030 1031 1032
f 1025 1026 1030 1029
f 1027 1028 1032 1031
f 1026 1027 1031 1030
f 1028 1025 1029 1032
usemtl lamp_warm
f 1033 1036 1035 1034
f 1037 1038 1039 1040
f 1033 1034 1038 1037
f 1035 1036 1040 1039
f 1034 1035 1039 1038
f 1036 1033 1037 1040
usemtl hotel_trim
f 1041 1044 1043 1042
f 1045 1046 1047 1048
f 1041 1042 1046 1045
f 1043 1044 1048 1047
f 1042 1043 1047 1046
f 1044 1041 1045 1048
usemtl lamp_warm
f 1049 1052 1051 1050
f 1053 1054 1055 1056
f 1049 1050 1054 1053
f 1051 1052 1056 1055
f 1050 1051 1055 1054
f 1052 1049 1053 1056
usemtl hotel_trim
f 1057 1060 1059 1058
f 1061 1062 1063 1064
f 1057 1058 1062 1061
f 1059 1060 1064 1063
f 1058 1059 1063 1062
f 1060 1057 1061 1064
usemtl lamp_warm
f 1065 1068 1067 1066
f 1069 1070 1071 1072
f 1065 1066 1070 1069
f 1067 1068 1072 1071
f 1066 1067 1071 1070
f 1068 1065 1069 1072
usemtl hotel_trim
f 1073 1076 1075 1074
f 1077 1078 1079 1080
f 1073 1074 1078 1077
f 1075 1076 1080 1079
f 1074 1075 1079 1078
f 1076 1073 1077 1080
usemtl lamp_warm
f 1081 1084 1083 1082
f 1085 1086 1087 1088
f 1081 1082 1086 1085
f 1083 1084 1088 1087
f 1082 1083 1087 1086
f 1084 1081 1085 1088
usemtl hotel_trim
f 1089 1092 1091 1090
f 1093 1094 1095 1096
f 1089 1090 1094 1093
f 1091 1092 1096 1095
f 1090 1091 1095 1094
f 1092 1089 1093 1096
usemtl lamp_warm
f 1097 1100 1099 1098
f 1101 1102 1103 1104
f 1097 1098 1102 1101
f 1099 1100 1104 1103
f 1098 1099 1103 1102
f 1100 1097 1101 1104
usemtl hotel_trim
f 1105 1108 1107 1106
f 1109 1110 1111 1112
f 1105 1106 1110 1109
f 1107 1108 1112 1111
f 1106 1107 1111 1110
f 1108 1105 1109 1112
usemtl lamp_warm
f 1113 1116 1115 1114
f 1117 1118 1119 1120
f 1113 1114 1118 1117
f 1115 1116 1120 1119
f 1114 1115 1119 1118
f 1116 1113 1117 1120
usemtl hotel_trim
f 1121 1124 1123 1122
f 1125 1126 1127 1128
f 1121 1122 1126 1125
f 1123 1124 1128 1127
f 1122 1123 1127 1126
f 1124 1121 1125 1128
usemtl lamp_warm
f 1129 1132 1131 1130
f 1133 1134 1135 1136
f 1129 1130 1134 1133
f 1131 1132 1136 1135
f 1130 1131 1135 1134
f 1132 1129 1133 1136
usemtl hotel_trim
f 1137 1140 1139 1138
f 1141 1142 1143 1144
f 1137 1138 1142 1141
f 1139 1140 1144 1143
f 1138 1139 1143 1142
f 1140 1137 1141 1144
usemtl lamp_warm
f 1145 1148 1147 1146
f 1149 1150 1151 1152
f 1145 1146 1150 1149
f 1147 1148 1152 1151
f 1146 1147 1151 1150
f 1148 1145 1149 1152
usemtl hotel_trim
f 1153 1156 1155 1154
f 1157 1158 1159 1160
f 1153 1154 1158 1157
f 1155 1156 1160 1159
f 1154 1155 1159 1158
f 1156 1153 1157 1160
usemtl lamp_warm
f 1161 1164 1163 1162
f 1165 1166 1167 1168
f 1161 1162 1166 1165
f 1163 1164 1168 1167
f 1162 1163 1167 1166
f 1164 1161 1165 1168
usemtl hotel_trim
f 1169 1172 1171 1170
f 1173 1174 1175 1176
f 1169 1170 1174 1173
f 1171 1172 1176 1175
f 1170 1171 1175 1174
f 1172 1169 1173 1176
usemtl lamp_warm
f 1177 1180 1179 1178
f 1181 1182 1183 1184
f 1177 1178 1182 1181
f 1179 1180 1184 1183
f 1178 1179 1183 1182
f 1180 1177 1181 1184
usemtl hotel_trim
f 1185 1188 1187 1186
f 1189 1190 1191 1192
f 1185 1186 1190 1189
f 1187 1188 1192 1191
f 1186 1187 1191 1190
f 1188 1185 1189 1192
usemtl lamp_warm
f 1193 1196 1195 1194
f 1197 1198 1199 1200
f 1193 1194 1198 1197
f 1195 1196 1200 1199
f 1194 1195 1199 1198
f 1196 1193 1197 1200
usemtl hotel_trim
f 1201 1204 1203 1202
f 1205 1206 1207 1208
f 1201 1202 1206 1205
f 1203 1204 1208 1207
f 1202 1203 1207 1206
f 1204 1201 1205 1208
usemtl door_wood
f 1209 1212 1211 1210
f 1213 1214 1215 1216
f 1209 1210 1214 1213
f 1211 1212 1216 1215
f 1210 1211 1215 1214
f 1212 1209 1213 1216
usemtl door_brass
f 1217 1220 1219 1218
f 1221 1222 1223 1224
f 1217 1218 1222 1221
f 1219 1220 1224 1223
f 1218 1219 1223 1222
f 1220 1217 1221 1224
usemtl door_wood
f 1225 1228 1227 1226
f 1229 1230 1231 1232
f 1225 1226 1230 1229
f 1227 1228 1232 1231
f 1226 1227 1231 1230
f 1228 1225 1229 1232
usemtl door_brass
f 1233 1236 1235 1234
f 1237 1238 1239 1240
f 1233 1234 1238 1237
f 1235 1236 1240 1239
f 1234 1235 1239 1238
f 1236 1233 1237 1240
usemtl door_wood
f 1241 1244 1243 1242
f 1245 1246 1247 1248
f 1241 1242 1246 1245
f 1243 1244 1248 1247
f 1242 1243 1247 1246
f 1244 1241 1245 1248
usemtl door_brass
f 1249 1252 1251 1250
f 1253 1254 1255 1256
f 1249 1250 1254 1253
f 1251 1252 1256 1255
f 1250 1251 1255 1254
f 1252 1249 1253 1256
usemtl door_wood
f 1257 1260 1259 1258
f 1261 1262 1263 1264
f 1257 1258 1262 1261
f 1259 1260 1264 1263
f 1258 1259 1263 1262
f 1260 1257 1261 1264
usemtl door_brass
f 1265 1268 1267 1266
f 1269 1270 1271 1272
f 1265 1266 1270 1269
f 1267 1268 1272 1271
f 1266 1267 1271 1270
f 1268 1265 1269 1272
usemtl door_wood
f 1273 1276 1275 1274
f 1277 1278 1279 1280
f 1273 1274 1278 1277
f 1275 1276 1280 1279
f 1274 1275 1279 1278
f 1276 1273 1277 1280
usemtl door_brass
f 1281 1284 1283 1282
f 1285 1286 1287 1288
f 1281 1282 1286 1285
f 1283 1284 1288 1287
f 1282 1283 1287 1286
f 1284 1281 1285 1288
usemtl door_wood
f 1289 1292 1291 1290
f 1293 1294 1295 1296
f 1289 1290 1294 1293
f 1291 1292 1296 1295
f 1290 1291 1295 1294
f 1292 1289 1293 1296
usemtl door_brass
f 1297 1300 1299 1298
f 1301 1302 1303 1304
f 1297 1298 1302 1301
f 1299 1300 1304 1303
f 1298 1299 1303 1302
f 1300 1297 1301 1304
usemtl door_wood
f 1305 1308 1307 1306
f 1309 1310 1311 1312
f 1305 1306 1310 1309
f 1307 1308 1312 1311
f 1306 1307 1311 1310
f 1308 1305 1309 1312
usemtl door_brass
f 1313 1316 1315 1314
f 1317 1318 1319 1320
f 1313 1314 1318 1317
f 1315 1316 1320 1319
f 1314 1315 1319 1318
f 1316 1313 1317 1320
usemtl door_wood
f 1321 1324 1323 1322
f 1325 1326 1327 1328
f 1321 1322 1326 1325
f 1323 1324 1328 1327
f 1322 1323 1327 1326
f 1324 1321 1325 1328
usemtl door_brass
f 1329 1332 1331 1330
f 1333 1334 1335 1336
f 1329 1330 1334 1333
f 1331 1332 1336 1335
f 1330 1331 1335 1334
f 1332 1329 1333 1336
usemtl door_wood
f 1337 1340 1339 1338
f 1341 1342 1343 1344
f 1337 1338 1342 1341
f 1339 1340 1344 1343
f 1338 1339 1343 1342
f 1340 1337 1341 1344
usemtl door_brass
f 1345 1348 1347 1346
f 1349 1350 1351 1352
f 1345 1346 1350 1349
f 1347 1348 1352 1351
f 1346 1347 1351 1350
f 1348 1345 1349 1352
usemtl door_wood
f 1353 1356 1355 1354
f 1357 1358 1359 1360
f 1353 1354 1358 1357
f 1355 1356 1360 1359
f 1354 1355 1359 1358
f 1356 1353 1357 1360
usemtl door_brass
f 1361 1364 1363 1362
f 1365 1366 1367 1368
f 1361 1362 1366 1365
f 1363 1364 1368 1367
f 1362 1363 1367 1366
f 1364 1361 1365 1368
usemtl door_wood
f 1369 1372 1371 1370
f 1373 1374 1375 1376
f 1369 1370 1374 1373
f 1371 1372 1376 1375
f 1370 1371 1375 1374
f 1372 1369 1373 1376
usemtl door_brass
f 1377 1380 1379 1378
f 1381 1382 1383 1384
f 1377 1378 1382 1381
f 1379 1380 1384 1383
f 1378 1379 1383 1382
f 1380 1377 1381 1384
usemtl door_wood
f 1385 1388 1387 1386
f 1389 1390 1391 1392
f 1385 1386 1390 1389
f 1387 1388 1392 1391
f 1386 1387 1391 1390
f 1388 1385 1389 1392
usemtl door_brass
f 1393 1396 1395 1394
f 1397 1398 1399 1400
f 1393 1394 1398 1397
f 1395 1396 1400 1399
f 1394 1395 1399 1398
f 1396 1393 1397 1400
usemtl door_wood
f 1401 1404 1403 1402
f 1405 1406 1407 1408
f 1401 1402 1406 1405
f 1403 1404 1408 1407
f 1402 1403 1407 1406
f 1404 1401 1405 1408
usemtl door_brass
f 1409 1412 1411 1410
f 1413 1414 1415 1416
f 1409 1410 1414 1413
f 1411 1412 1416 1415
f 1410 1411 1415 1414
f 1412 1409 1413 1416
usemtl door_wood
f 1417 1420 1419 1418
f 1421 1422 1423 1424
f 1417 1418 1422 1421
f 1419 1420 1424 1423
f 1418 1419 1423 1422
f 1420 1417 1421 1424
usemtl door_brass
f 1425 1428 1427 1426
f 1429 1430 1431 1432
f 1425 1426 1430 1429
f 1427 1428 1432 1431
f 1426 1427 1431 1430
f 1428 1425 1429 1432
usemtl door_wood
f 1433 1436 1435 1434
f 1437 1438 1439 1440
f 1433 1434 1438 1437
f 1435 1436 1440 1439
f 1434 1435 1439 1438
f 1436 1433 1437 1440
usemtl door_brass
f 1441 1444 1443 1442
f 1445 1446 1447 1448
f 1441 1442 1446 1445
f 1443 1444 1448 1447
f 1442 1443 1447 1446
f 1444 1441 1445 1448
usemtl door_wood
f 1449 1452 1451 1450
f 1453 1454 1455 1456
f 1449 1450 1454 1453
f 1451 1452 1456 1455
f 1450 1451 1455 1454
f 1452 1449 1453 1456
usemtl door_brass
f 1457 1460 1459 1458
f 1461 1462 1463 1464
f 1457 1458 1462 1461
f 1459 1460 1464 1463
f 1458 1459 1463 1462
f 1460 1457 1461 1464
usemtl door_wood
f 1465 1468 1467 1466
f 1469 1470 1471 1472
f 1465 1466 1470 1469
f 1467 1468 1472 1471
f 1466 1467 1471 1470
f 1468 1465 1469 1472
usemtl door_brass
f 1473 1476 1475 1474
f 1477 1478 1479 1480
f 1473 1474 1478 1477
f 1475 1476 1480 1479
f 1474 1475 1479 1478
f 1476 1473 1477 1480
usemtl door_wood
f 1481 1484 1483 1482
f 1485 1486 1487 1488
f 1481 1482 1486 1485
f 1483 1484 1488 1487
f 1482 1483 1487 1486
f 1484 1481 1485 1488
usemtl door_brass
f 1489 1492 1491 1490
f 1493 1494 1495 1496
f 1489 1490 1494 1493
f 1491 1492 1496 1495
f 1490 1491 1495 1494
f 1492 1489 1493 1496
usemtl hotel_paper
f 1/1 2/2 3/3 4/4
f 5/5 6/6 7/7 8/8
f 9/9 10/10 11/11 12/12
f 13/13 14/14 15/15 16/16
f 17/17 18/18 19/19 20/20
f 21/21 22/22 23/23 24/24
f 25/25 26/26 27/27 28/28
f 29/29 30/30 31/31 32/32
f 33/33 34/34 35/35 36/36
f 37/37 38/38 39/39 40/40
f 41/41 42/42 43/43 44/44
f 45/45 46/46 47/47 48/48
f 57/49 58/50 59/51 60/52
f 61/53 62/54 63/55 64/56
f 65/57 66/58 67/59 68/60
f 69/61 70/62 71/63 72/64
f 73/65 74/66 75/67 76/68
f 77/69 78/70 79/71 80/72
f 89/73 90/74 91/75 92/76
f 93/77 94/78 95/79 96/80
f 97/81 98/82 99/83 100/84
f 101/85 102/86 103/87 104/88
f 105/89 106/90 107/91 108/92
f 109/93 110/94 111/95 112/96
f 113/97 114/98 115/99 116/100
f 117/101 118/102 119/103 120/104
f 121/105 122/106 123/107 124/108
f 125/109 126/110 127/111 128/112
f 129/113 130/114 131/115 132/116
f 133/117 134/118 135/119 136/120
f 145/121 146/122 147/123 148/124
f 149/125 150/126 151/127 152/128
f 153/129 154/130 155/131 156/132
f 157/133 158/134 159/135 160/136
f 161/137 162/138 163/139 164/140
f 165/141 166/142 167/143 168/144
f 169/145 170/146 171/147 172/148
f 173/149 174/150 175/151 176/152
f 177/153 178/154 179/155 180/156
f 181/157 182/158 183/159 184/160
f 185/161 186/162 187/163 188/164
f 189/165 190/166 191/167 192/168
f 193/169 194/170 195/171 196/172
f 197/173 198/174 199/175 200/176
f 201/177 202/178 203/179 204/180
f 205/181 206/182 207/183 208/184
f 209/185 210/186 211/187 212/188
f 213/189 214/190 215/191 216/192
f 217/193 218/194 219/195 220/196
f 221/197 222/198 223/199 224/200
f 225/201 226/202 227/203 228/204
f 229/205 230/206 231/207 232/208
f 233/209 234/210 235/211 236/212
f 237/213 238/214 239/215 240/216
f 241/217 242/218 243/219 244/220
f 245/221 246/222 247/223 248/224
f 249/225 250/226 251/227 252/228
f 253/229 254/230 255/231 256/232
f 257/233 258/234 259/235 260/236
f 261/237 262/238 263/239 264/240
f 265/241 266/242 267/243 268/244
f 269/245 270/246 271/247 272/248
f 273/249 274/250 275/251 276/252
f 277/253 278/254 279/255 280/256
f 281/257 282/258 283/259 284/260
f 285/261 286/262 287/263 288/264
f 289/265 290/266 291/267 292/268
f 293/269 294/270 295/271 296/272
f 297/273 298/274 299/275 300/276
f 301/277 302/278 303/279 304/280
f 305/281 306/282 307/283 308/284
f 309/285 310/286 311/287 312/288
f 321/289 322/290 323/291 324/292
f 325/293 326/294 327/295 328/296
f 329/297 330/298 331/299 332/300
f 333/301 334/302 335/303 336/304
f 337/305 338/306 339/307 340/308
f 341/309 342/310 343/311 344/312
f 345/313 346/314 347/315 348/316
f 349/317 350/318 351/319 352/320
f 353/321 354/322 355/323 356/324
f 357/325 358/326 359/327 360/328
f 361/329 362/330 363/331 364/332
f 365/333 366/334 367/335 368/336
f 369/337 370/338 371/339 372/340
f 373/341 374/342 375/343 376/344
f 377/345 378/346 379/347 380/348
f 381/349 382/350 383/351 384/352
f 385/353 386/354 387/355 388/356
f 389/357 390/358 391/359 392/360
f 401/361 402/362 403/363 404/364
f 405/365 406/366 407/367 408/368
f 409/369 410/370 411/371 412/372
f 413/373 414/374 415/375 416/376
f 417/377 418/378 419/379 420/380
f 421/381 422/382 423/383 424/384
f 425/385 426/386 427/387 428/388
f 429/389 430/390 431/391 432/392
f 433/393 434/394 435/395 436/396
f 437/397 438/398 439/399 440/400
f 441/401 442/402 443/403 444/404
f 445/405 446/406 447/407 448/408
f 449/409 450/410 451/411 452/412
f 453/413 454/414 455/415 456/416
f 457/417 458/418 459/419 460/420
f 461/421 462/422 463/423 464/424
f 465/425 466/426 467/427 468/428
f 469/429 470/430 471/431 472/432
f 473/433 474/434 475/435 476/436
f 477/437 478/438 479/439 480/440
f 481/441 482/442 483/443 484/444
f 485/445 486/446 487/447 488/448
f 489/449 490/450 491/451 492/452
f 493/453 494/454 495/455 496/456
f 497/457 498/458 499/459 500/460
f 501/461 502/462 503/463 504/464
f 505/465 506/466 507/467 508/468
f 509/469 510/470 511/471 512/472
f 513/473 514/474 515/475 516/476
f 517/477 518/478 519/479 520/480
f 521/481 522/482 523/483 524/484
f 525/485 526/486 527/487 528/488
f 529/489 530/490 531/491 532/492
f 533/493 534/494 535/495 536/496
f 537/497 538/498 539/499 540/500
f 541/501 542/502 543/503 544/504
f 545/505 546/506 547/507 548/508
f 549/509 550/510 551/511 552/512
f 553/513 554/514 555/515 556/516
f 557/517 558/518 559/519 560/520
f 561/521 562/522 563/523 564/524
f 565/525 566/526 567/527 568/528
f 569/529 570/530 571/531 572/532
f 573/533 574/534 575/535 576/536
f 577/537 578/538 579/539 580/540
f 581/541 582/542 583/543 584/544
f 585/545 586/546 587/547 588/548
f 589/549 590/550 591/551 592/552
f 593/553 594/554 595/555 596/556
f 597/557 598/558 599/559 600/560
f 601/561 602/562 603/563 604/564
f 605/565 606/566 607/567 608/568
f 609/569 610/570 611/571 612/572
f 613/573 614/574 615/575 616/576
f 625/577 626/578 627/579 628/580
f 629/581 630/582 631/583 632/584
f 633/585 634/586 635/587 636/588
f 637/589 638/590 639/591 640/592
f 641/593 642/594 643/595 644/596
f 645/597 646/598 647/599 648/600
f 649/601 650/602 651/603 652/604
f 653/605 654/606 655/607 656/608
f 657/609 658/610 659/611 660/612
f 661/613 662/614 663/615 664/616
f 665/617 666/618 667/619 668/620
f 669/621 670/622 671/623 672/624
f 673/625 674/626 675/627 676/628
f 677/629 678/630 679/631 680/632
f 681/633 682/634 683/635 684/636
f 685/637 686/638 687/639 688/640
f 689/641 690/642 691/643 692/644
f 693/645 694/646 695/647 696/648
f 697/649 698/650 699/651 700/652
f 701/653 702/654 703/655 704/656
f 705/657 706/658 707/659 708/660
f 709/661 710/662 711/663 712/664
f 713/665 714/666 715/667 716/668
f 717/669 718/670 719/671 720/672
f 721/673 722/674 723/675 724/676
f 725/677 726/678 727/679 728/680
f 729/681 730/682 731/683 732/684
f 733/685 734/686 735/687 736/688
f 737/689 738/690 739/691 740/692
f 741/693 742/694 743/695 744/696
f 745/697 746/698 747/699 748/700
f 749/701 750/702 751/703 752/704
f 753/705 754/706 755/707 756/708
f 757/709 758/710 759/711 760/712
f 761/713 762/714 763/715 764/716
f 765/717 766/718 767/719 768/720
f 769/721 770/722 771/723 772/724
f 773/725 774/726 775/727 776/728
f 777/729 778/730 779/731 780/732
f 781/733 782/734 783/735 784/736
f 785/737 786/738 787/739 788/740
f 789/741 790/742 791/743 792/744
f 793/745 794/746 795/747 796/748
f 797/749 798/750 799/751 800/752
f 801/753 802/754 803/755 804/756
f 805/757 806/758 807/759 808/760
f 809/761 810/762 811/763 812/764
f 813/765 814/766 815/767 816/768
f 817/769 818/770 819/771 820/772
f 821/773 822/774 823/775 824/776
f 825/777 826/778 827/779 828/780
f 829/781 830/782 831/783 832/784
f 833/785 834/786 835/787 836/788
f 837/789 838/790 839/791 840/792
f 841/793 842/794 843/795 844/796
f 845/797 846/798 847/799 848/800
f 849/801 850/802 851/803 852/804
f 853/805 854/806 855/807 856/808
f 857/809 858/810 859/811 860/812
f 861/813 862/814 863/815 864/816
f 865/817 866/818 867/819 868/820
f 869/821 870/822 871/823 872/824
f 873/825 874/826 875/827 876/828
f 877/829 878/830 879/831 880/832
f 881/833 882/834 883/835 884/836
f 885/837 886/838 887/839 888/840
f 889/841 890/842 891/843 892/844
f 893/845 894/846 895/847 896/848
f 897/849 898/850 899/851 900/852
f 901/853 902/854 903/855 904/856
f 905/857 906/858 907/859 908/860
f 909/861 910/862 911/863 912/864
f 913/865 914/866 915/867 916/868
f 917/869 918/870 919/871 920/872
f 921/873 922/874 923/875 924/876
f 925/877 926/878 927/879 928/880
f 929/881 930/882 931/883 932/884
f 933/885 934/886 935/887 936/888
f 937/889 938/890 939/891 940/892
f 941/893 942/894 943/895 944/896
f 945/897 946/898 947/899 948/900
f 949/901 950/902 951/903 952/904
f 953/905 954/906 955/907 956/908
f 957/909 958/910 959/911 960/912
f 961/913 962/914 963/915 964/916
f 965/917 966/918 967/919 968/920
f 969/921 970/922 971/923 972/924
f 973/925 974/926 975/927 976/928
f 977/929 978/930 979/931 980/932
f 981/933 982/934 983/935 984/936
f 985/937 986/938 987/939 988/940
f 989/941 990/942 991/943 992/944
f 993/945 994/946 995/947 996/948
f 997/949 998/950 999/951 1000/952
f 1001/953 1002/954 1003/955 1004/956
f 1005/957 1006/958 1007/959 1008/960
