# RoastEngine Backrooms level
mtllib backrooms.mtl
v 1952.0000 -0.5000 -48.0000
v 2048.0000 -0.5000 -48.0000
v 2048.0000 -0.5000 48.0000
v 1952.0000 -0.5000 48.0000
v 1952.0000 0.0000 -48.0000
v 2048.0000 0.0000 -48.0000
v 2048.0000 0.0000 48.0000
v 1952.0000 0.0000 48.0000
v 1952.0000 3.0000 -48.0000
v 2048.0000 3.0000 -48.0000
v 2048.0000 3.0000 48.0000
v 1952.0000 3.0000 48.0000
v 1952.0000 3.5000 -48.0000
v 2048.0000 3.5000 -48.0000
v 2048.0000 3.5000 48.0000
v 1952.0000 3.5000 48.0000
v 1952.0000 0.0000 -48.0000
v 1952.5000 0.0000 -48.0000
v 1952.5000 0.0000 48.0000
v 1952.0000 0.0000 48.0000
v 1952.0000 3.0000 -48.0000
v 1952.5000 3.0000 -48.0000
v 1952.5000 3.0000 48.0000
v 1952.0000 3.0000 48.0000
v 1952.0000 0.0000 -48.0000
v 2048.0000 0.0000 -48.0000
v 2048.0000 0.0000 -47.5000
v 1952.0000 0.0000 -47.5000
v 1952.0000 3.0000 -48.0000
v 2048.0000 3.0000 -48.0000
v 2048.0000 3.0000 -47.5000
v 1952.0000 3.0000 -47.5000
v 2047.5000 0.0000 -48.0000
v 2048.0000 0.0000 -48.0000
v 2048.0000 0.0000 48.0000
v 2047.5000 0.0000 48.0000
v 2047.5000 3.0000 -48.0000
v 2048.0000 3.0000 -48.0000
v 2048.0000 3.0000 48.0000
v 2047.5000 3.0000 48.0000
v 1952.0000 0.0000 47.5000
v 2048.0000 0.0000 47.5000
v 2048.0000 0.0000 48.0000
v 1952.0000 0.0000 48.0000
v 1952.0000 3.0000 47.5000
v 2048.0000 3.0000 47.5000
v 2048.0000 3.0000 48.0000
v 1952.0000 3.0000 48.0000
v 2045.6023 0.0000 28.5136
v 2048.2595 0.0000 28.5136
v 2048.2595 0.0000 31.9771
v 2045.6023 0.0000 31.9771
v 2045.6023 0.0100 28.5136
v 2048.2595 0.0100 28.5136
v 2048.2595 0.0100 31.9771
v 2045.6023 0.0100 31.9771
v 1957.9985 0.0000 4.0169
v 1961.3867 0.0000 4.0169
v 1961.3867 0.0000 7.0392
v 1957.9985 0.0000 7.0392
v 1957.9985 0.0100 4.0169
v 1961.3867 0.0100 4.0169
v 1961.3867 0.0100 7.0392
v 1957.9985 0.0100 7.0392
v 2022.3354 0.0000 -31.2658
v 2025.2617 0.0000 -31.2658
v 2025.2617 0.0000 -29.4916
v 2022.3354 0.0000 -29.4916
v 2022.3354 0.0100 -31.2658
v 2025.2617 0.0100 -31.2658
v 2025.2617 0.0100 -29.4916
v 2022.3354 0.0100 -29.4916
v 2026.7291 0.0000 6.4754
v 2028.9617 0.0000 6.4754
v 2028.9617 0.0000 8.6769
v 2026.7291 0.0000 8.6769
v 2026.7291 0.0100 6.4754
v 2028.9617 0.0100 6.4754
v 2028.9617 0.0100 8.6769
v 2026.7291 0.0100 8.6769
v 2013.2252 0.0000 -35.8257
v 2014.4071 0.0000 -35.8257
v 2014.4071 0.0000 -34.9344
v 2013.2252 0.0000 -34.9344
v 2013.2252 0.0100 -35.8257
v 2014.4071 0.0100 -35.8257
v 2014.4071 0.0100 -34.9344
v 2013.2252 0.0100 -34.9344
v 2003.1956 0.0000 -13.5371
v 2006.0559 0.0000 -13.5371
v 2006.0559 0.0000 -11.0544
v 2003.1956 0.0000 -11.0544
v 2003.1956 0.0100 -13.5371
v 2006.0559 0.0100 -13.5371
v 2006.0559 0.0100 -11.0544
v 2003.1956 0.0100 -11.0544
v 2009.6155 0.0000 21.5368
v 2011.2521 0.0000 21.5368
v 2011.2521 0.0000 22.9000
v 2009.6155 0.0000 22.9000
v 2009.6155 0.0100 21.5368
v 2011.2521 0.0100 21.5368
v 2011.2521 0.0100 22.9000
v 2009.6155 0.0100 22.9000
v 2031.1234 0.0000 25.0117
v 2032.5794 0.0000 25.0117
v 2032.5794 0.0000 26.9316
v 2031.1234 0.0000 26.9316
v 2031.1234 0.0100 25.0117
v 2032.5794 0.0100 25.0117
v 2032.5794 0.0100 26.9316
v 2031.1234 0.0100 26.9316
v 1985.3333 0.0000 15.1559
v 1987.9389 0.0000 15.1559
v 1987.9389 0.0000 18.3589
v 1985.3333 0.0000 18.3589
v 1985.3333 0.0100 15.1559
v 1987.9389 0.0100 15.1559
v 1987.9389 0.0100 18.3589
v 1985.3333 0.0100 18.3589
v 1988.8538 0.0000 33.2642
v 1991.1936 0.0000 33.2642
v 1991.1936 0.0000 36.3410
v 1988.8538 0.0000 36.3410
v 1988.8538 0.0100 33.2642
v 1991.1936 0.0100 33.2642
v 1991.1936 0.0100 36.3410
v 1988.8538 0.0100 36.3410
v 2018.6536 0.0000 37.1971
v 2020.3738 0.0000 37.1971
v 2020.3738 0.0000 39.1451
v 2018.6536 0.0000 39.1451
v 2018.6536 0.0100 37.1971
v 2020.3738 0.0100 37.1971
v 2020.3738 0.0100 39.1451
v 2018.6536 0.0100 39.1451
v 1969.6613 0.0000 3.8658
v 1971.8499 0.0000 3.8658
v 1971.8499 0.0000 5.6062
v 1969.6613 0.0000 5.6062
v 1969.6613 0.0100 3.8658
v 1971.8499 0.0100 3.8658
v 1971.8499 0.0100 5.6062
v 1969.6613 0.0100 5.6062
v 1963.4919 0.0000 -34.8979
v 1965.9082 0.0000 -34.8979
v 1965.9082 0.0000 -31.7283
v 1963.4919 0.0000 -31.7283
v 1963.4919 0.0100 -34.8979
v 1965.9082 0.0100 -34.8979
v 1965.9082 0.0100 -31.7283
v 1963.4919 0.0100 -31.7283
v 2028.7948 0.0000 -37.9741
v 2032.2458 0.0000 -37.9741
v 2032.2458 0.0000 -35.9015
v 2028.7948 0.0000 -35.9015
v 2028.7948 0.0100 -37.9741
v 2032.2458 0.0100 -37.9741
v 2032.2458 0.0100 -35.9015
v 2028.7948 0.0100 -35.9015
v 2004.0367 0.0000 -1.1454
v 2005.3024 0.0000 -1.1454
v 2005.3024 0.0000 -0.1659
v 2004.0367 0.0000 -0.1659
v 2004.0367 0.0100 -1.1454
v 2005.3024 0.0100 -1.1454
v 2005.3024 0.0100 -0.1659
v 2004.0367 0.0100 -0.1659
v 1997.5838 0.0000 -3.1280
v 2000.1469 0.0000 -3.1280
v 2000.1469 0.0000 -1.3486
v 1997.5838 0.0000 -1.3486
v 1997.5838 0.0100 -3.1280
v 2000.1469 0.0100 -3.1280
v 2000.1469 0.0100 -1.3486
v 1997.5838 0.0100 -1.3486
v 1975.7085 0.0000 14.1122
v 1978.7508 0.0000 14.1122
v 1978.7508 0.0000 16.6367
v 1975.7085 0.0000 16.6367
v 1975.7085 0.0100 14.1122
v 1978.7508 0.0100 14.1122
v 1978.7508 0.0100 16.6367
v 1975.7085 0.0100 16.6367
v 1970.1051 0.0000 44.9555
v 1972.0622 0.0000 44.9555
v 1972.0622 0.0000 46.8008
v 1970.1051 0.0000 46.8008
v 1970.1051 0.0100 44.9555
v 1972.0622 0.0100 44.9555
v 1972.0622 0.0100 46.8008
v 1970.1051 0.0100 46.8008
v 1996.1999 0.0000 -34.8410
v 1997.5009 0.0000 -34.8410
v 1997.5009 0.0000 -33.2969
v 1996.1999 0.0000 -33.2969
v 1996.1999 0.0100 -34.8410
v 1997.5009 0.0100 -34.8410
v 1997.5009 0.0100 -33.2969
v 1996.1999 0.0100 -33.2969
v 2028.4507 0.0000 6.7053
v 2031.8006 0.0000 6.7053
v 2031.8006 0.0000 10.3480
v 2028.4507 0.0000 10.3480
v 2028.4507 0.0100 6.7053
v 2031.8006 0.0100 6.7053
v 2031.8006 0.0100 10.3480
v 2028.4507 0.0100 10.3480
v 1974.7778 0.0000 -19.9557
v 1977.3934 0.0000 -19.9557
v 1977.3934 0.0000 -16.9593
v 1974.7778 0.0000 -16.9593
v 1974.7778 0.0100 -19.9557
v 1977.3934 0.0100 -19.9557
v 1977.3934 0.0100 -16.9593
v 1974.7778 0.0100 -16.9593
v 2028.3239 0.0000 -6.0175
v 2030.2980 0.0000 -6.0175
v 2030.2980 0.0000 -4.1817
v 2028.3239 0.0000 -4.1817
v 2028.3239 0.0100 -6.0175
v 2030.2980 0.0100 -6.0175
v 2030.2980 0.0100 -4.1817
v 2028.3239 0.0100 -4.1817
v 2000.2060 0.0000 22.6611
v 2003.6127 0.0000 22.6611
v 2003.6127 0.0000 25.1408
v 2000.2060 0.0000 25.1408
v 2000.2060 0.0100 22.6611
v 2003.6127 0.0100 22.6611
v 2003.6127 0.0100 25.1408
v 2000.2060 0.0100 25.1408
v 1959.3865 0.0000 -17.5527
v 1961.4197 0.0000 -17.5527
v 1961.4197 0.0000 -15.0142
v 1959.3865 0.0000 -15.0142
v 1959.3865 0.0100 -17.5527
v 1961.4197 0.0100 -17.5527
v 1961.4197 0.0100 -15.0142
v 1959.3865 0.0100 -15.0142
v 1983.5149 0.0000 -27.7847
v 1986.8066 0.0000 -27.7847
v 1986.8066 0.0000 -25.2154
v 1983.5149 0.0000 -25.2154
v 1983.5149 0.0100 -27.7847
v 1986.8066 0.0100 -27.7847
v 1986.8066 0.0100 -25.2154
v 1983.5149 0.0100 -25.2154
v 2042.8870 0.0000 -47.8067
v 2046.1988 0.0000 -47.8067
v 2046.1988 0.0000 -44.3164
v 2042.8870 0.0000 -44.3164
v 2042.8870 0.0100 -47.8067
v 2046.1988 0.0100 -47.8067
v 2046.1988 0.0100 -44.3164
v 2042.8870 0.0100 -44.3164
v 1969.7827 0.0000 21.2061
v 1971.1749 0.0000 21.2061
v 1971.1749 0.0000 22.1529
v 1969.7827 0.0000 22.1529
v 1969.7827 0.0100 21.2061
v 1971.1749 0.0100 21.2061
v 1971.1749 0.0100 22.1529
v 1969.7827 0.0100 22.1529
v 1985.6069 0.0000 7.1238
v 1987.5104 0.0000 7.1238
v 1987.5104 0.0000 9.1371
v 1985.6069 0.0000 9.1371
v 1985.6069 0.0100 7.1238
v 1987.5104 0.0100 7.1238
v 1987.5104 0.0100 9.1371
v 1985.6069 0.0100 9.1371
v 2006.8567 0.0000 30.1660
v 2009.1125 0.0000 30.1660
v 2009.1125 0.0000 32.1434
v 2006.8567 0.0000 32.1434
v 2006.8567 0.0100 30.1660
v 2009.1125 0.0100 30.1660
v 2009.1125 0.0100 32.1434
v 2006.8567 0.0100 32.1434
v 2014.1804 0.0000 -38.5739
v 2016.0090 0.0000 -38.5739
v 2016.0090 0.0000 -36.2747
v 2014.1804 0.0000 -36.2747
v 2014.1804 0.0100 -38.5739
v 2016.0090 0.0100 -38.5739
v 2016.0090 0.0100 -36.2747
v 2014.1804 0.0100 -36.2747
v 2000.1744 0.0000 5.5117
v 2003.1998 0.0000 5.5117
v 2003.1998 0.0000 8.6997
v 2000.1744 0.0000 8.6997
v 2000.1744 0.0100 5.5117
v 2003.1998 0.0100 5.5117
v 2003.1998 0.0100 8.6997
v 2000.1744 0.0100 8.6997
v 1998.6604 0.0000 6.6502
v 2001.4383 0.0000 6.6502
v 2001.4383 0.0000 8.9506
v 1998.6604 0.0000 8.9506
v 1998.6604 0.0100 6.6502
v 2001.4383 0.0100 6.6502
v 2001.4383 0.0100 8.9506
v 1998.6604 0.0100 8.9506
v 1974.2520 0.0000 -19.7966
v 1975.3770 0.0000 -19.7966
v 1975.3770 0.0000 -18.3227
v 1974.2520 0.0000 -18.3227
v 1974.2520 0.0100 -19.7966
v 1975.3770 0.0100 -19.7966
v 1975.3770 0.0100 -18.3227
v 1974.2520 0.0100 -18.3227
v 1990.9117 0.0000 -47.8813
v 1992.0192 0.0000 -47.8813
v 1992.0192 0.0000 -46.7251
v 1990.9117 0.0000 -46.7251
v 1990.9117 0.0100 -47.8813
v 1992.0192 0.0100 -47.8813
v 1992.0192 0.0100 -46.7251
v 1990.9117 0.0100 -46.7251
v 2010.6870 0.0000 -39.5165
v 2012.6329 0.0000 -39.5165
v 2012.6329 0.0000 -37.9591
v 2010.6870 0.0000 -37.9591
v 2010.6870 0.0100 -39.5165
v 2012.6329 0.0100 -39.5165
v 2012.6329 0.0100 -37.9591
v 2010.6870 0.0100 -37.9591
v 1988.2301 0.0000 -1.5414
v 1990.2624 0.0000 -1.5414
v 1990.2624 0.0000 1.0843
v 1988.2301 0.0000 1.0843
v 1988.2301 0.0100 -1.5414
v 1990.2624 0.0100 -1.5414
v 1990.2624 0.0100 1.0843
v 1988.2301 0.0100 1.0843
v 1984.0629 0.0000 -4.0697
v 1986.2061 0.0000 -4.0697
v 1986.2061 0.0000 -1.8763
v 1984.0629 0.0000 -1.8763
v 1984.0629 0.0100 -4.0697
v 1986.2061 0.0100 -4.0697
v 1986.2061 0.0100 -1.8763
v 1984.0629 0.0100 -1.8763
v 1988.9534 0.0000 -8.7423
v 1990.2705 0.0000 -8.7423
v 1990.2705 0.0000 -7.5233
v 1988.9534 0.0000 -7.5233
v 1988.9534 0.0100 -8.7423
v 1990.2705 0.0100 -8.7423
v 1990.2705 0.0100 -7.5233
v 1988.9534 0.0100 -7.5233
v 2042.8257 0.0000 7.7125
v 2045.0258 0.0000 7.7125
v 2045.0258 0.0000 10.2508
v 2042.8257 0.0000 10.2508
v 2042.8257 0.0100 7.7125
v 2045.0258 0.0100 7.7125
v 2045.0258 0.0100 10.2508
v 2042.8257 0.0100 10.2508
v 1953.2760 0.0000 7.6702
v 1955.0350 0.0000 7.6702
v 1955.0350 0.0000 9.4834
v 1953.2760 0.0000 9.4834
v 1953.2760 0.0100 7.6702
v 1955.0350 0.0100 7.6702
v 1955.0350 0.0100 9.4834
v 1953.2760 0.0100 9.4834
v 1993.9232 0.0000 -22.8000
v 1995.1979 0.0000 -22.8000
v 1995.1979 0.0000 -21.8147
v 1993.9232 0.0000 -21.8147
v 1993.9232 0.0100 -22.8000
v 1995.1979 0.0100 -22.8000
v 1995.1979 0.0100 -21.8147
v 1993.9232 0.0100 -21.8147
v 2021.9980 0.0000 28.3376
v 2023.0258 0.0000 28.3376
v 2023.0258 0.0000 28.9956
v 2021.9980 0.0000 28.9956
v 2021.9980 0.0100 28.3376
v 2023.0258 0.0100 28.3376
v 2023.0258 0.0100 28.9956
v 2021.9980 0.0100 28.9956
v 1981.4812 0.0000 -33.1390
v 1982.7954 0.0000 -33.1390
v 1982.7954 0.0000 -32.3487
v 1981.4812 0.0000 -32.3487
v 1981.4812 0.0100 -33.1390
v 1982.7954 0.0100 -33.1390
v 1982.7954 0.0100 -32.3487
v 1981.4812 0.0100 -32.3487
v 1951.3936 0.0000 38.7710
v 1954.7628 0.0000 38.7710
v 1954.7628 0.0000 41.2768
v 1951.3936 0.0000 41.2768
v 1951.3936 0.0100 38.7710
v 1954.7628 0.0100 38.7710
v 1954.7628 0.0100 41.2768
v 1951.3936 0.0100 41.2768
v 2006.8323 0.0000 20.5725
v 2009.5126 0.0000 20.5725
v 2009.5126 0.0000 22.7265
v 2006.8323 0.0000 22.7265
v 2006.8323 0.0100 20.5725
v 2009.5126 0.0100 20.5725
v 2009.5126 0.0100 22.7265
v 2006.8323 0.0100 22.7265
v 2011.3024 0.0000 -40.1649
v 2013.7659 0.0000 -40.1649
v 2013.7659 0.0000 -37.7733
v 2011.3024 0.0000 -37.7733
v 2011.3024 0.0100 -40.1649
v 2013.7659 0.0100 -40.1649
v 2013.7659 0.0100 -37.7733
v 2011.3024 0.0100 -37.7733
v 1956.7841 0.0000 36.8781
v 1959.5795 0.0000 36.8781
v 1959.5795 0.0000 40.2858
v 1956.7841 0.0000 40.2858
v 1956.7841 0.0100 36.8781
v 1959.5795 0.0100 36.8781
v 1959.5795 0.0100 40.2858
v 1956.7841 0.0100 40.2858
usemtl black_floor
f 1 4 3 2
f 5 6 7 8
f 1 2 6 5
f 3 4 8 7
f 2 3 7 6
f 4 1 5 8
f 9 12 11 10
f 13 14 15 16
f 9 10 14 13
f 11 12 16 15
f 10 11 15 14
f 12 9 13 16
usemtl black_wall
f 17 20 19 18
f 21 22 23 24
f 17 18 22 21
f 19 20 24 23
f 18 19 23 22
f 20 17 21 24
f 25 28 27 26
f 29 30 31 32
f 25 26 30 29
f 27 28 32 31
f 26 27 31 30
f 28 25 29 32
f 33 36 35 34
f 37 38 39 40
f 33 34 38 37
f 35 36 40 39
f 34 35 39 38
f 36 33 37 40
f 41 44 43 42
f 45 46 47 48
f 41 42 46 45
f 43 44 48 47
f 42 43 47 46
f 44 41 45 48
usemtl black_floor
f 49 52 51 50
f 53 54 55 56
f 49 50 54 53
f 51 52 56 55
f 50 51 55 54
f 52 49 53 56
f 57 60 59 58
f 61 62 63 64
f 57 58 62 61
f 59 60 64 63
f 58 59 63 62
f 60 57 61 64
f 65 68 67 66
f 69 70 71 72
f 65 66 70 69
f 67 68 72 71
f 66 67 71 70
f 68 65 69 72
f 73 76 75 74
f 77 78 79 80
f 73 74 78 77
f 75 76 80 79
f 74 75 79 78
f 76 73 77 80
f 81 84 83 82
f 85 86 87 88
f 81 82 86 85
f 83 84 88 87
f 82 83 87 86
f 84 81 85 88
f 89 92 91 90
f 93 94 95 96
f 89 90 94 93
f 91 92 96 95
f 90 91 95 94
f 92 89 93 96
f 97 100 99 98
f 101 102 103 104
f 97 98 102 101
f 99 100 104 103
f 98 99 103 102
f 100 97 101 104
f 105 108 107 106
f 109 110 111 112
f 105 106 110 109
f 107 108 112 111
f 106 107 111 110
f 108 105 109 112
f 113 116 115 114
f 117 118 119 120
f 113 114 118 117
f 115 116 120 119
f 114 115 119 118
f 116 113 117 120
f 121 124 123 122
f 125 126 127 128
f 121 122 126 125
f 123 124 128 127
f 122 123 127 126
f 124 121 125 128
f 129 132 131 130
f 133 134 135 136
f 129 130 134 133
f 131 132 136 135
f 130 131 135 134
f 132 129 133 136
f 137 140 139 138
f 141 142 143 144
f 137 138 142 141
f 139 140 144 143
f 138 139 143 142
f 140 137 141 144
f 145 148 147 146
f 149 150 151 152
f 145 146 150 149
f 147 148 152 151
f 146 147 151 150
f 148 145 149 152
f 153 156 155 154
f 157 158 159 160
f 153 154 158 157
f 155 156 160 159
f 154 155 159 158
f 156 153 157 160
f 161 164 163 162
f 165 166 167 168
f 161 162 166 165
f 163 164 168 167
f 162 163 167 166
f 164 161 165 168
f 169 172 171 170
f 173 174 175 176
f 169 170 174 173
f 171 172 176 175
f 170 171 175 174
f 172 169 173 176
f 177 180 179 178
f 181 182 183 184
f 177 178 182 181
f 179 180 184 183
f 178 179 183 182
f 180 177 181 184
f 185 188 187 186
f 189 190 191 192
f 185 186 190 189
f 187 188 192 191
f 186 187 191 190
f 188 185 189 192
f 193 196 195 194
f 197 198 199 200
f 193 194 198 197
f 195 196 200 199
f 194 195 199 198
f 196 193 197 200
f 201 204 203 202
f 205 206 207 208
f 201 202 206 205
f 203 204 208 207
f 202 203 207 206
f 204 201 205 208
f 209 212 211 210
f 213 214 215 216
f 209 210 214 213
f 211 212 216 215
f 210 211 215 214
f 212 209 213 216
f 217 220 219 218
f 221 222 223 224
f 217 218 222 221
f 219 220 224 223
f 218 219 223 222
f 220 217 221 224
f 225 228 227 226
f 229 230 231 232
f 225 226 230 229
f 227 228 232 231
f 226 227 231 230
f 228 225 229 232
f 233 236 235 234
f 237 238 239 240
f 233 234 238 237
f 235 236 240 239
f 234 235 239 238
f 236 233 237 240
f 241 244 243 242
f 245 246 247 248
f 241 242 246 245
f 243 244 248 247
f 242 243 247 246
f 244 241 245 248
f 249 252 251 250
f 253 254 255 256
f 249 250 254 253
f 251 252 256 255
f 250 251 255 254
f 252 249 253 256
f 257 260 259 258
f 261 262 263 264
f 257 258 262 261
f 259 260 264 263
f 258 259 263 262
f 260 257 261 264
f 265 268 267 266
f 269 270 271 272
f 265 266 270 269
f 267 268 272 271
f 266 267 271 270
f 268 265 269 272
f 273 276 275 274
f 277 278 279 280
f 273 274 278 277
f 275 276 280 279
f 274 275 279 278
f 276 273 277 280
f 281 284 283 282
f 285 286 287 288
f 281 282 286 285
f 283 284 288 287
f 282 283 287 286
f 284 281 285 288
f 289 292 291 290
f 293 294 295 296
f 289 290 294 293
f 291 292 296 295
f 290 291 295 294
f 292 289 293 296
f 297 300 299 298
f 301 302 303 304
f 297 298 302 301
f 299 300 304 303
f 298 299 303 302
f 300 297 301 304
f 305 308 307 306
f 309 310 311 312
f 305 306 310 309
f 307 308 312 311
f 306 307 311 310
f 308 305 309 312
f 313 316 315 314
f 317 318 319 320
f 313 314 318 317
f 315 316 320 319
f 314 315 319 318
f 316 313 317 320
f 321 324 323 322
f 325 326 327 328
f 321 322 326 325
f 323 324 328 327
f 322 323 327 326
f 324 321 325 328
f 329 332 331 330
f 333 334 335 336
f 329 330 334 333
f 331 332 336 335
f 330 331 335 334
f 332 329 333 336
f 337 340 339 338
f 341 342 343 344
f 337 338 342 341
f 339 340 344 343
f 338 339 343 342
f 340 337 341 344
f 345 348 347 346
f 349 350 351 352
f 345 346 350 349
f 347 348 352 351
f 346 347 351 350
f 348 345 349 352
f 353 356 355 354
f 357 358 359 360
f 353 354 358 357
f 355 356 360 359
f 354 355 359 358
f 356 353 357 360
f 361 364 363 362
f 365 366 367 368
f 361 362 366 365
f 363 364 368 367
f 362 363 367 366
f 364 361 365 368
f 369 372 371 370
f 373 374 375 376
f 369 370 374 373
f 371 372 376 375
f 370 371 375 374
f 372 369 373 376
f 377 380 379 378
f 381 382 383 384
f 377 378 382 381
f 379 380 384 383
f 378 379 383 382
f 380 377 381 384
f 385 388 387 386
f 389 390 391 392
f 385 386 390 389
f 387 388 392 391
f 386 387 391 390
f 388 385 389 392
f 393 396 395 394
f 397 398 399 400
f 393 394 398 397
f 395 396 400 399
f 394 395 399 398
f 396 393 397 400
f 401 404 403 402
f 405 406 407 408
f 401 402 406 405
f 403 404 408 407
f 402 403 407 406
f 404 401 405 408
f 409 412 411 410
f 413 414 415 416
f 409 410 414 413
f 411 412 416 415
f 410 411 415 414
f 412 409 413 416
f 417 420 419 418
f 421 422 423 424
f 417 418 422 421
f 419 420 424 423
f 418 419 423 422
f 420 417 421 424
