# RoastEngine Backrooms level
mtllib backrooms.mtl
v -19.4250 0.0000 -19.4250
v -19.4250 0.0000 -15.5750
v -15.5750 0.0000 -15.5750
v -15.5750 0.0000 -19.4250
v -19.4250 4.0000 -19.4250
v -15.5750 4.0000 -19.4250
v -15.5750 4.0000 -15.5750
v -19.4250 4.0000 -15.5750
v -19.4250 0.0000 -19.4250
v -15.5750 0.0000 -19.4250
v -15.5750 4.0000 -19.4250
v -19.4250 4.0000 -19.4250
v -15.5750 0.0000 -15.5750
v -19.4250 0.0000 -15.5750
v -19.4250 4.0000 -15.5750
v -15.5750 4.0000 -15.5750
v -15.5750 0.0000 -19.4250
v -15.5750 0.0000 -15.5750
v -15.5750 4.0000 -15.5750
v -15.5750 4.0000 -19.4250
v -19.4250 0.0000 -15.5750
v -19.4250 0.0000 -19.4250
v -19.4250 4.0000 -19.4250
v -19.4250 4.0000 -15.5750
v -12.4250 0.0000 -19.4250
v -12.4250 0.0000 -15.5750
v -8.5750 0.0000 -15.5750
v -8.5750 0.0000 -19.4250
v -12.4250 4.0000 -19.4250
v -8.5750 4.0000 -19.4250
v -8.5750 4.0000 -15.5750
v -12.4250 4.0000 -15.5750
v -12.4250 0.0000 -19.4250
v -8.5750 0.0000 -19.4250
v -8.5750 4.0000 -19.4250
v -12.4250 4.0000 -19.4250
v -8.5750 0.0000 -15.5750
v -12.4250 0.0000 -15.5750
v -12.4250 4.0000 -15.5750
v -8.5750 4.0000 -15.5750
v -8.5750 0.0000 -19.4250
v -8.5750 0.0000 -15.5750
v -8.5750 4.0000 -15.5750
v -8.5750 4.0000 -19.4250
v -12.4250 0.0000 -15.5750
v -12.4250 0.0000 -19.4250
v -12.4250 4.0000 -19.4250
v -12.4250 4.0000 -15.5750
v -5.4250 0.0000 -19.4250
v -5.4250 0.0000 -15.5750
v -1.5750 0.0000 -15.5750
v -1.5750 0.0000 -19.4250
v -5.4250 4.0000 -19.4250
v -1.5750 4.0000 -19.4250
v -1.5750 4.0000 -15.5750
v -5.4250 4.0000 -15.5750
v -5.4250 0.0000 -19.4250
v -1.5750 0.0000 -19.4250
v -1.5750 4.0000 -19.4250
v -5.4250 4.0000 -19.4250
v -1.5750 0.0000 -15.5750
v -5.4250 0.0000 -15.5750
v -5.4250 4.0000 -15.5750
v -1.5750 4.0000 -15.5750
v -1.5750 0.0000 -19.4250
v -1.5750 0.0000 -15.5750
v -1.5750 4.0000 -15.5750
v -1.5750 4.0000 -19.4250
v -5.4250 0.0000 -15.5750
v -5.4250 0.0000 -19.4250
v -5.4250 4.0000 -19.4250
v -5.4250 4.0000 -15.5750
v 1.5750 0.0000 -19.4250
v 1.5750 0.0000 -15.5750
v 5.4250 0.0000 -15.5750
v 5.4250 0.0000 -19.4250
v 1.5750 4.0000 -19.4250
v 5.4250 4.0000 -19.4250
v 5.4250 4.0000 -15.5750
v 1.5750 4.0000 -15.5750
v 1.5750 0.0000 -19.4250
v 5.4250 0.0000 -19.4250
v 5.4250 4.0000 -19.4250
v 1.5750 4.0000 -19.4250
v 5.4250 0.0000 -15.5750
v 1.5750 0.0000 -15.5750
v 1.5750 4.0000 -15.5750
v 5.4250 4.0000 -15.5750
v 5.4250 0.0000 -19.4250
v 5.4250 0.0000 -15.5750
v 5.4250 4.0000 -15.5750
v 5.4250 4.0000 -19.4250
v 1.5750 0.0000 -15.5750
v 1.5750 0.0000 -19.4250
v 1.5750 4.0000 -19.4250
v 1.5750 4.0000 -15.5750
v 8.5750 0.0000 -19.4250
v 8.5750 0.0000 -15.5750
v 12.4250 0.0000 -15.5750
v 12.4250 0.0000 -19.4250
v 8.5750 4.0000 -19.4250
v 12.4250 4.0000 -19.4250
v 12.4250 4.0000 -15.5750
v 8.5750 4.0000 -15.5750
v 8.5750 0.0000 -19.4250
v 12.4250 0.0000 -19.4250
v 12.4250 4.0000 -19.4250
v 8.5750 4.0000 -19.4250
v 12.4250 0.0000 -15.5750
v 8.5750 0.0000 -15.5750
v 8.5750 4.0000 -15.5750
v 12.4250 4.0000 -15.5750
v 12.4250 0.0000 -19.4250
v 12.4250 0.0000 -15.5750
v 12.4250 4.0000 -15.5750
v 12.4250 4.0000 -19.4250
v 8.5750 0.0000 -15.5750
v 8.5750 0.0000 -19.4250
v 8.5750 4.0000 -19.4250
v 8.5750 4.0000 -15.5750
v 15.5750 0.0000 -19.4250
v 15.5750 0.0000 -15.5750
v 19.4250 0.0000 -15.5750
v 19.4250 0.0000 -19.4250
v 15.5750 4.0000 -19.4250
v 19.4250 4.0000 -19.4250
v 19.4250 4.0000 -15.5750
v 15.5750 4.0000 -15.5750
v 15.5750 0.0000 -19.4250
v 19.4250 0.0000 -19.4250
v 19.4250 4.0000 -19.4250
v 15.5750 4.0000 -19.4250
v 19.4250 0.0000 -15.5750
v 15.5750 0.0000 -15.5750
v 15.5750 4.0000 -15.5750
v 19.4250 4.0000 -15.5750
v 19.4250 0.0000 -19.4250
v 19.4250 0.0000 -15.5750
v 19.4250 4.0000 -15.5750
v 19.4250 4.0000 -19.4250
v 15.5750 0.0000 -15.5750
v 15.5750 0.0000 -19.4250
v 15.5750 4.0000 -19.4250
v 15.5750 4.0000 -15.5750
v -12.4250 0.0000 -15.9250
v -12.4250 0.0000 -12.0750
v -8.5750 0.0000 -12.0750
v -8.5750 0.0000 -15.9250
v -12.4250 4.0000 -15.9250
v -8.5750 4.0000 -15.9250
v -8.5750 4.0000 -12.0750
v -12.4250 4.0000 -12.0750
v -12.4250 0.0000 -15.9250
v -8.5750 0.0000 -15.9250
v -8.5750 4.0000 -15.9250
v -12.4250 4.0000 -15.9250
v -8.5750 0.0000 -12.0750
v -12.4250 0.0000 -12.0750
v -12.4250 4.0000 -12.0750
v -8.5750 4.0000 -12.0750
v -8.5750 0.0000 -15.9250
v -8.5750 0.0000 -12.0750
v -8.5750 4.0000 -12.0750
v -8.5750 4.0000 -15.9250
v -12.4250 0.0000 -12.0750
v -12.4250 0.0000 -15.9250
v -12.4250 4.0000 -15.9250
v -12.4250 4.0000 -12.0750
v -19.4250 0.0000 -12.4250
v -19.4250 0.0000 -8.5750
v -15.5750 0.0000 -8.5750
v -15.5750 0.0000 -12.4250
v -19.4250 4.0000 -12.4250
v -15.5750 4.0000 -12.4250
v -15.5750 4.0000 -8.5750
v -19.4250 4.0000 -8.5750
v -19.4250 0.0000 -12.4250
v -15.5750 0.0000 -12.4250
v -15.5750 4.0000 -12.4250
v -19.4250 4.0000 -12.4250
v -15.5750 0.0000 -8.5750
v -19.4250 0.0000 -8.5750
v -19.4250 4.0000 -8.5750
v -15.5750 4.0000 -8.5750
v -15.5750 0.0000 -12.4250
v -15.5750 0.0000 -8.5750
v -15.5750 4.0000 -8.5750
v -15.5750 4.0000 -12.4250
v -19.4250 0.0000 -8.5750
v -19.4250 0.0000 -12.4250
v -19.4250 4.0000 -12.4250
v -19.4250 4.0000 -8.5750
v -12.4250 0.0000 -12.4250
v -12.4250 0.0000 -8.5750
v -8.5750 0.0000 -8.5750
v -8.5750 0.0000 -12.4250
v -12.4250 4.0000 -12.4250
v -8.5750 4.0000 -12.4250
v -8.5750 4.0000 -8.5750
v -12.4250 4.0000 -8.5750
v -12.4250 0.0000 -12.4250
v -8.5750 0.0000 -12.4250
v -8.5750 4.0000 -12.4250
v -12.4250 4.0000 -12.4250
v -8.5750 0.0000 -8.5750
v -12.4250 0.0000 -8.5750
v -12.4250 4.0000 -8.5750
v -8.5750 4.0000 -8.5750
v -8.5750 0.0000 -12.4250
v -8.5750 0.0000 -8.5750
v -8.5750 4.0000 -8.5750
v -8.5750 4.0000 -12.4250
v -12.4250 0.0000 -8.5750
v -12.4250 0.0000 -12.4250
v -12.4250 4.0000 -12.4250
v -12.4250 4.0000 -8.5750
v -5.4250 0.0000 -12.4250
v -5.4250 0.0000 -8.5750
v -1.5750 0.0000 -8.5750
v -1.5750 0.0000 -12.4250
v -5.4250 4.0000 -12.4250
v -1.5750 4.0000 -12.4250
v -1.5750 4.0000 -8.5750
v -5.4250 4.0000 -8.5750
v -5.4250 0.0000 -12.4250
v -1.5750 0.0000 -12.4250
v -1.5750 4.0000 -12.4250
v -5.4250 4.0000 -12.4250
v -1.5750 0.0000 -8.5750
v -5.4250 0.0000 -8.5750
v -5.4250 4.0000 -8.5750
v -1.5750 4.0000 -8.5750
v -1.5750 0.0000 -12.4250
v -1.5750 0.0000 -8.5750
v -1.5750 4.0000 -8.5750
v -1.5750 4.0000 -12.4250
v -5.4250 0.0000 -8.5750
v -5.4250 0.0000 -12.4250
v -5.4250 4.0000 -12.4250
v -5.4250 4.0000 -8.5750
v -1.9250 0.0000 -12.4250
v -1.9250 0.0000 -8.5750
v 1.9250 0.0000 -8.5750
v 1.9250 0.0000 -12.4250
v -1.9250 4.0000 -12.4250
v 1.9250 4.0000 -12.4250
v 1.9250 4.0000 -8.5750
v -1.9250 4.0000 -8.5750
v -1.9250 0.0000 -12.4250
v 1.9250 0.0000 -12.4250
v 1.9250 4.0000 -12.4250
v -1.9250 4.0000 -12.4250
v 1.9250 0.0000 -8.5750
v -1.9250 0.0000 -8.5750
v -1.9250 4.0000 -8.5750
v 1.9250 4.0000 -8.5750
v 1.9250 0.0000 -12.4250
v 1.9250 0.0000 -8.5750
v 1.9250 4.0000 -8.5750
v 1.9250 4.0000 -12.4250
v -1.9250 0.0000 -8.5750
v -1.9250 0.0000 -12.4250
v -1.9250 4.0000 -12.4250
v -1.9250 4.0000 -8.5750
v 1.5750 0.0000 -12.4250
v 1.5750 0.0000 -8.5750
v 5.4250 0.0000 -8.5750
v 5.4250 0.0000 -12.4250
v 1.5750 4.0000 -12.4250
v 5.4250 4.0000 -12.4250
v 5.4250 4.0000 -8.5750
v 1.5750 4.0000 -8.5750
v 1.5750 0.0000 -12.4250
v 5.4250 0.0000 -12.4250
v 5.4250 4.0000 -12.4250
v 1.5750 4.0000 -12.4250
v 5.4250 0.0000 -8.5750
v 1.5750 0.0000 -8.5750
v 1.5750 4.0000 -8.5750
v 5.4250 4.0000 -8.5750
v 5.4250 0.0000 -12.4250
v 5.4250 0.0000 -8.5750
v 5.4250 4.0000 -8.5750
v 5.4250 4.0000 -12.4250
v 1.5750 0.0000 -8.5750
v 1.5750 0.0000 -12.4250
v 1.5750 4.0000 -12.4250
v 1.5750 4.0000 -8.5750
v 8.5750 0.0000 -12.4250
v 8.5750 0.0000 -8.5750
v 12.4250 0.0000 -8.5750
v 12.4250 0.0000 -12.4250
v 8.5750 4.0000 -12.4250
v 12.4250 4.0000 -12.4250
v 12.4250 4.0000 -8.5750
v 8.5750 4.0000 -8.5750
v 8.5750 0.0000 -12.4250
v 12.4250 0.0000 -12.4250
v 12.4250 4.0000 -12.4250
v 8.5750 4.0000 -12.4250
v 12.4250 0.0000 -8.5750
v 8.5750 0.0000 -8.5750
v 8.5750 4.0000 -8.5750
v 12.4250 4.0000 -8.5750
v 12.4250 0.0000 -12.4250
v 12.4250 0.0000 -8.5750
v 12.4250 4.0000 -8.5750
v 12.4250 4.0000 -12.4250
v 8.5750 0.0000 -8.5750
v 8.5750 0.0000 -12.4250
v 8.5750 4.0000 -12.4250
v 8.5750 4.0000 -8.5750
v 15.5750 0.0000 -12.4250
v 15.5750 0.0000 -8.5750
v 19.4250 0.0000 -8.5750
v 19.4250 0.0000 -12.4250
v 15.5750 4.0000 -12.4250
v 19.4250 4.0000 -12.4250
v 19.4250 4.0000 -8.5750
v 15.5750 4.0000 -8.5750
v 15.5750 0.0000 -12.4250
v 19.4250 0.0000 -12.4250
v 19.4250 4.0000 -12.4250
v 15.5750 4.0000 -12.4250
v 19.4250 0.0000 -8.5750
v 15.5750 0.0000 -8.5750
v 15.5750 4.0000 -8.5750
v 19.4250 4.0000 -8.5750
v 19.4250 0.0000 -12.4250
v 19.4250 0.0000 -8.5750
v 19.4250 4.0000 -8.5750
v 19.4250 4.0000 -12.4250
v 15.5750 0.0000 -8.5750
v 15.5750 0.0000 -12.4250
v 15.5750 4.0000 -12.4250
v 15.5750 4.0000 -8.5750
v -19.4250 0.0000 -8.9250
v -19.4250 0.0000 -5.0750
v -15.5750 0.0000 -5.0750
v -15.5750 0.0000 -8.9250
v -19.4250 4.0000 -8.9250
v -15.5750 4.0000 -8.9250
v -15.5750 4.0000 -5.0750
v -19.4250 4.0000 -5.0750
v -19.4250 0.0000 -8.9250
v -15.5750 0.0000 -8.9250
v -15.5750 4.0000 -8.9250
v -19.4250 4.0000 -8.9250
v -15.5750 0.0000 -5.0750
v -19.4250 0.0000 -5.0750
v -19.4250 4.0000 -5.0750
v -15.5750 4.0000 -5.0750
v -15.5750 0.0000 -8.9250
v -15.5750 0.0000 -5.0750
v -15.5750 4.0000 -5.0750
v -15.5750 4.0000 -8.9250
v -19.4250 0.0000 -5.0750
v -19.4250 0.0000 -8.9250
v -19.4250 4.0000 -8.9250
v -19.4250 4.0000 -5.0750
v -12.4250 0.0000 -8.9250
v -12.4250 0.0000 -5.0750
v -8.5750 0.0000 -5.0750
v -8.5750 0.0000 -8.9250
v -12.4250 4.0000 -8.9250
v -8.5750 4.0000 -8.9250
v -8.5750 4.0000 -5.0750
v -12.4250 4.0000 -5.0750
v -12.4250 0.0000 -8.9250
v -8.5750 0.0000 -8.9250
v -8.5750 4.0000 -8.9250
v -12.4250 4.0000 -8.9250
v -8.5750 0.0000 -5.0750
v -12.4250 0.0000 -5.0750
v -12.4250 4.0000 -5.0750
v -8.5750 4.0000 -5.0750
v -8.5750 0.0000 -8.9250
v -8.5750 0.0000 -5.0750
v -8.5750 4.0000 -5.0750
v -8.5750 4.0000 -8.9250
v -12.4250 0.0000 -5.0750
v -12.4250 0.0000 -8.9250
v -12.4250 4.0000 -8.9250
v -12.4250 4.0000 -5.0750
v -19.4250 0.0000 -5.4250
v -19.4250 0.0000 -1.5750
v -15.5750 0.0000 -1.5750
v -15.5750 0.0000 -5.4250
v -19.4250 4.0000 -5.4250
v -15.5750 4.0000 -5.4250
v -15.5750 4.0000 -1.5750
v -19.4250 4.0000 -1.5750
v -19.4250 0.0000 -5.4250
v -15.5750 0.0000 -5.4250
v -15.5750 4.0000 -5.4250
v -19.4250 4.0000 -5.4250
v -15.5750 0.0000 -1.5750
v -19.4250 0.0000 -1.5750
v -19.4250 4.0000 -1.5750
v -15.5750 4.0000 -1.5750
v -15.5750 0.0000 -5.4250
v -15.5750 0.0000 -1.5750
v -15.5750 4.0000 -1.5750
v -15.5750 4.0000 -5.4250
v -19.4250 0.0000 -1.5750
v -19.4250 0.0000 -5.4250
v -19.4250 4.0000 -5.4250
v -19.4250 4.0000 -1.5750
v -12.4250 0.0000 -5.4250
v -12.4250 0.0000 -1.5750
v -8.5750 0.0000 -1.5750
v -8.5750 0.0000 -5.4250
v -12.4250 4.0000 -5.4250
v -8.5750 4.0000 -5.4250
v -8.5750 4.0000 -1.5750
v -12.4250 4.0000 -1.5750
v -12.4250 0.0000 -5.4250
v -8.5750 0.0000 -5.4250
v -8.5750 4.0000 -5.4250
v -12.4250 4.0000 -5.4250
v -8.5750 0.0000 -1.5750
v -12.4250 0.0000 -1.5750
v -12.4250 4.0000 -1.5750
v -8.5750 4.0000 -1.5750
v -8.5750 0.0000 -5.4250
v -8.5750 0.0000 -1.5750
v -8.5750 4.0000 -1.5750
v -8.5750 4.0000 -5.4250
v -12.4250 0.0000 -1.5750
v -12.4250 0.0000 -5.4250
v -12.4250 4.0000 -5.4250
v -12.4250 4.0000 -1.5750
v -5.4250 0.0000 -5.4250
v -5.4250 0.0000 -1.5750
v -1.5750 0.0000 -1.5750
v -1.5750 0.0000 -5.4250
v -5.4250 4.0000 -5.4250
v -1.5750 4.0000 -5.4250
v -1.5750 4.0000 -1.5750
v -5.4250 4.0000 -1.5750
v -5.4250 0.0000 -5.4250
v -1.5750 0.0000 -5.4250
v -1.5750 4.0000 -5.4250
v -5.4250 4.0000 -5.4250
v -1.5750 0.0000 -1.5750
v -5.4250 0.0000 -1.5750
v -5.4250 4.0000 -1.5750
v -1.5750 4.0000 -1.5750
v -1.5750 0.0000 -5.4250
v -1.5750 0.0000 -1.5750
v -1.5750 4.0000 -1.5750
v -1.5750 4.0000 -5.4250
v -5.4250 0.0000 -1.5750
v -5.4250 0.0000 -5.4250
v -5.4250 4.0000 -5.4250
v -5.4250 4.0000 -1.5750
v 1.5750 0.0000 -5.4250
v 1.5750 0.0000 -1.5750
v 5.4250 0.0000 -1.5750
v 5.4250 0.0000 -5.4250
v 1.5750 4.0000 -5.4250
v 5.4250 4.0000 -5.4250
v 5.4250 4.0000 -1.5750
v 1.5750 4.0000 -1.5750
v 1.5750 0.0000 -5.4250
v 5.4250 0.0000 -5.4250
v 5.4250 4.0000 -5.4250
v 1.5750 4.0000 -5.4250
v 5.4250 0.0000 -1.5750
v 1.5750 0.0000 -1.5750
v 1.5750 4.0000 -1.5750
v 5.4250 4.0000 -1.5750
v 5.4250 0.0000 -5.4250
v 5.4250 0.0000 -1.5750
v 5.4250 4.0000 -1.5750
v 5.4250 4.0000 -5.4250
v 1.5750 0.0000 -1.5750
v 1.5750 0.0000 -5.4250
v 1.5750 4.0000 -5.4250
v 1.5750 4.0000 -1.5750
v 5.0750 0.0000 -5.4250
v 5.0750 0.0000 -1.5750
v 8.9250 0.0000 -1.5750
v 8.9250 0.0000 -5.4250
v 5.0750 4.0000 -5.4250
v 8.9250 4.0000 -5.4250
v 8.9250 4.0000 -1.5750
v 5.0750 4.0000 -1.5750
v 5.0750 0.0000 -5.4250
v 8.9250 0.0000 -5.4250
v 8.9250 4.0000 -5.4250
v 5.0750 4.0000 -5.4250
v 8.9250 0.0000 -1.5750
v 5.0750 0.0000 -1.5750
v 5.0750 4.0000 -1.5750
v 8.9250 4.0000 -1.5750
v 8.9250 0.0000 -5.4250
v 8.9250 0.0000 -1.5750
v 8.9250 4.0000 -1.5750
v 8.9250 4.0000 -5.4250
v 5.0750 0.0000 -1.5750
v 5.0750 0.0000 -5.4250
v 5.0750 4.0000 -5.4250
v 5.0750 4.0000 -1.5750
v 8.5750 0.0000 -5.4250
v 8.5750 0.0000 -1.5750
v 12.4250 0.0000 -1.5750
v 12.4250 0.0000 -5.4250
v 8.5750 4.0000 -5.4250
v 12.4250 4.0000 -5.4250
v 12.4250 4.0000 -1.5750
v 8.5750 4.0000 -1.5750
v 8.5750 0.0000 -5.4250
v 12.4250 0.0000 -5.4250
v 12.4250 4.0000 -5.4250
v 8.5750 4.0000 -5.4250
v 12.4250 0.0000 -1.5750
v 8.5750 0.0000 -1.5750
v 8.5750 4.0000 -1.5750
v 12.4250 4.0000 -1.5750
v 12.4250 0.0000 -5.4250
v 12.4250 0.0000 -1.5750
v 12.4250 4.0000 -1.5750
v 12.4250 4.0000 -5.4250
v 8.5750 0.0000 -1.5750
v 8.5750 0.0000 -5.4250
v 8.5750 4.0000 -5.4250
v 8.5750 4.0000 -1.5750
v 15.5750 0.0000 -5.4250
v 15.5750 0.0000 -1.5750
v 19.4250 0.0000 -1.5750
v 19.4250 0.0000 -5.4250
v 15.5750 4.0000 -5.4250
v 19.4250 4.0000 -5.4250
v 19.4250 4.0000 -1.5750
v 15.5750 4.0000 -1.5750
v 15.5750 0.0000 -5.4250
v 19.4250 0.0000 -5.4250
v 19.4250 4.0000 -5.4250
v 15.5750 4.0000 -5.4250
v 19.4250 0.0000 -1.5750
v 15.5750 0.0000 -1.5750
v 15.5750 4.0000 -1.5750
v 19.4250 4.0000 -1.5750
v 19.4250 0.0000 -5.4250
v 19.4250 0.0000 -1.5750
v 19.4250 4.0000 -1.5750
v 19.4250 4.0000 -5.4250
v 15.5750 0.0000 -1.5750
v 15.5750 0.0000 -5.4250
v 15.5750 4.0000 -5.4250
v 15.5750 4.0000 -1.5750
v 8.5750 0.0000 -1.9250
v 8.5750 0.0000 1.9250
v 12.4250 0.0000 1.9250
v 12.4250 0.0000 -1.9250
v 8.5750 4.0000 -1.9250
v 12.4250 4.0000 -1.9250
v 12.4250 4.0000 1.9250
v 8.5750 4.0000 1.9250
v 8.5750 0.0000 -1.9250
v 12.4250 0.0000 -1.9250
v 12.4250 4.0000 -1.9250
v 8.5750 4.0000 -1.9250
v 12.4250 0.0000 1.9250
v 8.5750 0.0000 1.9250
v 8.5750 4.0000 1.9250
v 12.4250 4.0000 1.9250
v 12.4250 0.0000 -1.9250
v 12.4250 0.0000 1.9250
v 12.4250 4.0000 1.9250
v 12.4250 4.0000 -1.9250
v 8.5750 0.0000 1.9250
v 8.5750 0.0000 -1.9250
v 8.5750 4.0000 -1.9250
v 8.5750 4.0000 1.9250
v -19.4250 0.0000 1.5750
v -19.4250 0.0000 5.4250
v -15.5750 0.0000 5.4250
v -15.5750 0.0000 1.5750
v -19.4250 4.0000 1.5750
v -15.5750 4.0000 1.5750
v -15.5750 4.0000 5.4250
v -19.4250 4.0000 5.4250
v -19.4250 0.0000 1.5750
v -15.5750 0.0000 1.5750
v -15.5750 4.0000 1.5750
v -19.4250 4.0000 1.5750
v -15.5750 0.0000 5.4250
v -19.4250 0.0000 5.4250
v -19.4250 4.0000 5.4250
v -15.5750 4.0000 5.4250
v -15.5750 0.0000 1.5750
v -15.5750 0.0000 5.4250
v -15.5750 4.0000 5.4250
v -15.5750 4.0000 1.5750
v -19.4250 0.0000 5.4250
v -19.4250 0.0000 1.5750
v -19.4250 4.0000 1.5750
v -19.4250 4.0000 5.4250
v -15.9250 0.0000 1.5750
v -15.9250 0.0000 5.4250
v -12.0750 0.0000 5.4250
v -12.0750 0.0000 1.5750
v -15.9250 4.0000 1.5750
v -12.0750 4.0000 1.5750
v -12.0750 4.0000 5.4250
v -15.9250 4.0000 5.4250
v -15.9250 0.0000 1.5750
v -12.0750 0.0000 1.5750
v -12.0750 4.0000 1.5750
v -15.9250 4.0000 1.5750
v -12.0750 0.0000 5.4250
v -15.9250 0.0000 5.4250
v -15.9250 4.0000 5.4250
v -12.0750 4.0000 5.4250
v -12.0750 0.0000 1.5750
v -12.0750 0.0000 5.4250
v -12.0750 4.0000 5.4250
v -12.0750 4.0000 1.5750
v -15.9250 0.0000 5.4250
v -15.9250 0.0000 1.5750
v -15.9250 4.0000 1.5750
v -15.9250 4.0000 5.4250
v -12.4250 0.0000 1.5750
v -12.4250 0.0000 5.4250
v -8.5750 0.0000 5.4250
v -8.5750 0.0000 1.5750
v -12.4250 4.0000 1.5750
v -8.5750 4.0000 1.5750
v -8.5750 4.0000 5.4250
v -12.4250 4.0000 5.4250
v -12.4250 0.0000 1.5750
v -8.5750 0.0000 1.5750
v -8.5750 4.0000 1.5750
v -12.4250 4.0000 1.5750
v -8.5750 0.0000 5.4250
v -12.4250 0.0000 5.4250
v -12.4250 4.0000 5.4250
v -8.5750 4.0000 5.4250
v -8.5750 0.0000 1.5750
v -8.5750 0.0000 5.4250
v -8.5750 4.0000 5.4250
v -8.5750 4.0000 1.5750
v -12.4250 0.0000 5.4250
v -12.4250 0.0000 1.5750
v -12.4250 4.0000 1.5750
v -12.4250 4.0000 5.4250
v -5.4250 0.0000 1.5750
v -5.4250 0.0000 5.4250
v -1.5750 0.0000 5.4250
v -1.5750 0.0000 1.5750
v -5.4250 4.0000 1.5750
v -1.5750 4.0000 1.5750
v -1.5750 4.0000 5.4250
v -5.4250 4.0000 5.4250
v -5.4250 0.0000 1.5750
v -1.5750 0.0000 1.5750
v -1.5750 4.0000 1.5750
v -5.4250 4.0000 1.5750
v -1.5750 0.0000 5.4250
v -5.4250 0.0000 5.4250
v -5.4250 4.0000 5.4250
v -1.5750 4.0000 5.4250
v -1.5750 0.0000 1.5750
v -1.5750 0.0000 5.4250
v -1.5750 4.0000 5.4250
v -1.5750 4.0000 1.5750
v -5.4250 0.0000 5.4250
v -5.4250 0.0000 1.5750
v -5.4250 4.0000 1.5750
v -5.4250 4.0000 5.4250
v 1.5750 0.0000 1.5750
v 1.5750 0.0000 5.4250
v 5.4250 0.0000 5.4250
v 5.4250 0.0000 1.5750
v 1.5750 4.0000 1.5750
v 5.4250 4.0000 1.5750
v 5.4250 4.0000 5.4250
v 1.5750 4.0000 5.4250
v 1.5750 0.0000 1.5750
v 5.4250 0.0000 1.5750
v 5.4250 4.0000 1.5750
v 1.5750 4.0000 1.5750
v 5.4250 0.0000 5.4250
v 1.5750 0.0000 5.4250
v 1.5750 4.0000 5.4250
v 5.4250 4.0000 5.4250
v 5.4250 0.0000 1.5750
v 5.4250 0.0000 5.4250
v 5.4250 4.0000 5.4250
v 5.4250 4.0000 1.5750
v 1.5750 0.0000 5.4250
v 1.5750 0.0000 1.5750
v 1.5750 4.0000 1.5750
v 1.5750 4.0000 5.4250
v 8.5750 0.0000 1.5750
v 8.5750 0.0000 5.4250
v 12.4250 0.0000 5.4250
v 12.4250 0.0000 1.5750
v 8.5750 4.0000 1.5750
v 12.4250 4.0000 1.5750
v 12.4250 4.0000 5.4250
v 8.5750 4.0000 5.4250
v 8.5750 0.0000 1.5750
v 12.4250 0.0000 1.5750
v 12.4250 4.0000 1.5750
v 8.5750 4.0000 1.5750
v 12.4250 0.0000 5.4250
v 8.5750 0.0000 5.4250
v 8.5750 4.0000 5.4250
v 12.4250 4.0000 5.4250
v 12.4250 0.0000 1.5750
v 12.4250 0.0000 5.4250
v 12.4250 4.0000 5.4250
v 12.4250 4.0000 1.5750
v 8.5750 0.0000 5.4250
v 8.5750 0.0000 1.5750
v 8.5750 4.0000 1.5750
v 8.5750 4.0000 5.4250
v 15.5750 0.0000 1.5750
v 15.5750 0.0000 5.4250
v 19.4250 0.0000 5.4250
v 19.4250 0.0000 1.5750
v 15.5750 4.0000 1.5750
v 19.4250 4.0000 1.5750
v 19.4250 4.0000 5.4250
v 15.5750 4.0000 5.4250
v 15.5750 0.0000 1.5750
v 19.4250 0.0000 1.5750
v 19.4250 4.0000 1.5750
v 15.5750 4.0000 1.5750
v 19.4250 0.0000 5.4250
v 15.5750 0.0000 5.4250
v 15.5750 4.0000 5.4250
v 19.4250 4.0000 5.4250
v 19.4250 0.0000 1.5750
v 19.4250 0.0000 5.4250
v 19.4250 4.0000 5.4250
v 19.4250 4.0000 1.5750
v 15.5750 0.0000 5.4250
v 15.5750 0.0000 1.5750
v 15.5750 4.0000 1.5750
v 15.5750 4.0000 5.4250
v -19.4250 0.0000 5.0750
v -19.4250 0.0000 8.9250
v -15.5750 0.0000 8.9250
v -15.5750 0.0000 5.0750
v -19.4250 4.0000 5.0750
v -15.5750 4.0000 5.0750
v -15.5750 4.0000 8.9250
v -19.4250 4.0000 8.9250
v -19.4250 0.0000 5.0750
v -15.5750 0.0000 5.0750
v -15.5750 4.0000 5.0750
v -19.4250 4.0000 5.0750
v -15.5750 0.0000 8.9250
v -19.4250 0.0000 8.9250
v -19.4250 4.0000 8.9250
v -15.5750 4.0000 8.9250
v -15.5750 0.0000 5.0750
v -15.5750 0.0000 8.9250
v -15.5750 4.0000 8.9250
v -15.5750 4.0000 5.0750
v -19.4250 0.0000 8.9250
v -19.4250 0.0000 5.0750
v -19.4250 4.0000 5.0750
v -19.4250 4.0000 8.9250
v 1.5750 0.0000 5.0750
v 1.5750 0.0000 8.9250
v 5.4250 0.0000 8.9250
v 5.4250 0.0000 5.0750
v 1.5750 4.0000 5.0750
v 5.4250 4.0000 5.0750
v 5.4250 4.0000 8.9250
v 1.5750 4.0000 8.9250
v 1.5750 0.0000 5.0750
v 5.4250 0.0000 5.0750
v 5.4250 4.0000 5.0750
v 1.5750 4.0000 5.0750
v 5.4250 0.0000 8.9250
v 1.5750 0.0000 8.9250
v 1.5750 4.0000 8.9250
v 5.4250 4.0000 8.9250
v 5.4250 0.0000 5.0750
v 5.4250 0.0000 8.9250
v 5.4250 4.0000 8.9250
v 5.4250 4.0000 5.0750
v 1.5750 0.0000 8.9250
v 1.5750 0.0000 5.0750
v 1.5750 4.0000 5.0750
v 1.5750 4.0000 8.9250
v -19.4250 0.0000 8.5750
v -19.4250 0.0000 12.4250
v -15.5750 0.0000 12.4250
v -15.5750 0.0000 8.5750
v -19.4250 4.0000 8.5750
v -15.5750 4.0000 8.5750
v -15.5750 4.0000 12.4250
v -19.4250 4.0000 12.4250
v -19.4250 0.0000 8.5750
v -15.5750 0.0000 8.5750
v -15.5750 4.0000 8.5750
v -19.4250 4.0000 8.5750
v -15.5750 0.0000 12.4250
v -19.4250 0.0000 12.4250
v -19.4250 4.0000 12.4250
v -15.5750 4.0000 12.4250
v -15.5750 0.0000 8.5750
v -15.5750 0.0000 12.4250
v -15.5750 4.0000 12.4250
v -15.5750 4.0000 8.5750
v -19.4250 0.0000 12.4250
v -19.4250 0.0000 8.5750
v -19.4250 4.0000 8.5750
v -19.4250 4.0000 12.4250
v -12.4250 0.0000 8.5750
v -12.4250 0.0000 12.4250
v -8.5750 0.0000 12.4250
v -8.5750 0.0000 8.5750
v -12.4250 4.0000 8.5750
v -8.5750 4.0000 8.5750
v -8.5750 4.0000 12.4250
v -12.4250 4.0000 12.4250
v -12.4250 0.0000 8.5750
v -8.5750 0.0000 8.5750
v -8.5750 4.0000 8.5750
v -12.4250 4.0000 8.5750
v -8.5750 0.0000 12.4250
v -12.4250 0.0000 12.4250
v -12.4250 4.0000 12.4250
v -8.5750 4.0000 12.4250
v -8.5750 0.0000 8.5750
v -8.5750 0.0000 12.4250
v -8.5750 4.0000 12.4250
v -8.5750 4.0000 8.5750
v -12.4250 0.0000 12.4250
v -12.4250 0.0000 8.5750
v -12.4250 4.0000 8.5750
v -12.4250 4.0000 12.4250
v -5.4250 0.0000 8.5750
v -5.4250 0.0000 12.4250
v -1.5750 0.0000 12.4250
v -1.5750 0.0000 8.5750
v -5.4250 4.0000 8.5750
v -1.5750 4.0000 8.5750
v -1.5750 4.0000 12.4250
v -5.4250 4.0000 12.4250
v -5.4250 0.0000 8.5750
v -1.5750 0.0000 8.5750
v -1.5750 4.0000 8.5750
v -5.4250 4.0000 8.5750
v -1.5750 0.0000 12.4250
v -5.4250 0.0000 12.4250
v -5.4250 4.0000 12.4250
v -1.5750 4.0000 12.4250
v -1.5750 0.0000 8.5750
v -1.5750 0.0000 12.4250
v -1.5750 4.0000 12.4250
v -1.5750 4.0000 8.5750
v -5.4250 0.0000 12.4250
v -5.4250 0.0000 8.5750
v -5.4250 4.0000 8.5750
v -5.4250 4.0000 12.4250
v 1.5750 0.0000 8.5750
v 1.5750 0.0000 12.4250
v 5.4250 0.0000 12.4250
v 5.4250 0.0000 8.5750
v 1.5750 4.0000 8.5750
v 5.4250 4.0000 8.5750
v 5.4250 4.0000 12.4250
v 1.5750 4.0000 12.4250
v 1.5750 0.0000 8.5750
v 5.4250 0.0000 8.5750
v 5.4250 4.0000 8.5750
v 1.5750 4.0000 8.5750
v 5.4250 0.0000 12.4250
v 1.5750 0.0000 12.4250
v 1.5750 4.0000 12.4250
v 5.4250 4.0000 12.4250
v 5.4250 0.0000 8.5750
v 5.4250 0.0000 12.4250
v 5.4250 4.0000 12.4250
v 5.4250 4.0000 8.5750
v 1.5750 0.0000 12.4250
v 1.5750 0.0000 8.5750
v 1.5750 4.0000 8.5750
v 1.5750 4.0000 12.4250
v 5.0750 0.0000 8.5750
v 5.0750 0.0000 12.4250
v 8.9250 0.0000 12.4250
v 8.9250 0.0000 8.5750
v 5.0750 4.0000 8.5750
v 8.9250 4.0000 8.5750
v 8.9250 4.0000 12.4250
v 5.0750 4.0000 12.4250
v 5.0750 0.0000 8.5750
v 8.9250 0.0000 8.5750
v 8.9250 4.0000 8.5750
v 5.0750 4.0000 8.5750
v 8.9250 0.0000 12.4250
v 5.0750 0.0000 12.4250
v 5.0750 4.0000 12.4250
v 8.9250 4.0000 12.4250
v 8.9250 0.0000 8.5750
v 8.9250 0.0000 12.4250
v 8.9250 4.0000 12.4250
v 8.9250 4.0000 8.5750
v 5.0750 0.0000 12.4250
v 5.0750 0.0000 8.5750
v 5.0750 4.0000 8.5750
v 5.0750 4.0000 12.4250
v 8.5750 0.0000 8.5750
v 8.5750 0.0000 12.4250
v 12.4250 0.0000 12.4250
v 12.4250 0.0000 8.5750
v 8.5750 4.0000 8.5750
v 12.4250 4.0000 8.5750
v 12.4250 4.0000 12.4250
v 8.5750 4.0000 12.4250
v 8.5750 0.0000 8.5750
v 12.4250 0.0000 8.5750
v 12.4250 4.0000 8.5750
v 8.5750 4.0000 8.5750
v 12.4250 0.0000 12.4250
v 8.5750 0.0000 12.4250
v 8.5750 4.0000 12.4250
v 12.4250 4.0000 12.4250
v 12.4250 0.0000 8.5750
v 12.4250 0.0000 12.4250
v 12.4250 4.0000 12.4250
v 12.4250 4.0000 8.5750
v 8.5750 0.0000 12.4250
v 8.5750 0.0000 8.5750
v 8.5750 4.0000 8.5750
v 8.5750 4.0000 12.4250
v 15.5750 0.0000 8.5750
v 15.5750 0.0000 12.4250
v 19.4250 0.0000 12.4250
v 19.4250 0.0000 8.5750
v 15.5750 4.0000 8.5750
v 19.4250 4.0000 8.5750
v 19.4250 4.0000 12.4250
v 15.5750 4.0000 12.4250
v 15.5750 0.0000 8.5750
v 19.4250 0.0000 8.5750
v 19.4250 4.0000 8.5750
v 15.5750 4.0000 8.5750
v 19.4250 0.0000 12.4250
v 15.5750 0.0000 12.4250
v 15.5750 4.0000 12.4250
v 19.4250 4.0000 12.4250
v 19.4250 0.0000 8.5750
v 19.4250 0.0000 12.4250
v 19.4250 4.0000 12.4250
v 19.4250 4.0000 8.5750
v 15.5750 0.0000 12.4250
v 15.5750 0.0000 8.5750
v 15.5750 4.0000 8.5750
v 15.5750 4.0000 12.4250
v -19.4250 0.0000 15.5750
v -19.4250 0.0000 19.4250
v -15.5750 0.0000 19.4250
v -15.5750 0.0000 15.5750
v -19.4250 4.0000 15.5750
v -15.5750 4.0000 15.5750
v -15.5750 4.0000 19.4250
v -19.4250 4.0000 19.4250
v -19.4250 0.0000 15.5750
v -15.5750 0.0000 15.5750
v -15.5750 4.0000 15.5750
v -19.4250 4.0000 15.5750
v -15.5750 0.0000 19.4250
v -19.4250 0.0000 19.4250
v -19.4250 4.0000 19.4250
v -15.5750 4.0000 19.4250
v -15.5750 0.0000 15.5750
v -15.5750 0.0000 19.4250
v -15.5750 4.0000 19.4250
v -15.5750 4.0000 15.5750
v -19.4250 0.0000 19.4250
v -19.4250 0.0000 15.5750
v -19.4250 4.0000 15.5750
v -19.4250 4.0000 19.4250
v -12.4250 0.0000 15.5750
v -12.4250 0.0000 19.4250
v -8.5750 0.0000 19.4250
v -8.5750 0.0000 15.5750
v -12.4250 4.0000 15.5750
v -8.5750 4.0000 15.5750
v -8.5750 4.0000 19.4250
v -12.4250 4.0000 19.4250
v -12.4250 0.0000 15.5750
v -8.5750 0.0000 15.5750
v -8.5750 4.0000 15.5750
v -12.4250 4.0000 15.5750
v -8.5750 0.0000 19.4250
v -12.4250 0.0000 19.4250
v -12.4250 4.0000 19.4250
v -8.5750 4.0000 19.4250
v -8.5750 0.0000 15.5750
v -8.5750 0.0000 19.4250
v -8.5750 4.0000 19.4250
v -8.5750 4.0000 15.5750
v -12.4250 0.0000 19.4250
v -12.4250 0.0000 15.5750
v -12.4250 4.0000 15.5750
v -12.4250 4.0000 19.4250
v -5.4250 0.0000 15.5750
v -5.4250 0.0000 19.4250
v -1.5750 0.0000 19.4250
v -1.5750 0.0000 15.5750
v -5.4250 4.0000 15.5750
v -1.5750 4.0000 15.5750
v -1.5750 4.0000 19.4250
v -5.4250 4.0000 19.4250
v -5.4250 0.0000 15.5750
v -1.5750 0.0000 15.5750
v -1.5750 4.0000 15.5750
v -5.4250 4.0000 15.5750
v -1.5750 0.0000 19.4250
v -5.4250 0.0000 19.4250
v -5.4250 4.0000 19.4250
v -1.5750 4.0000 19.4250
v -1.5750 0.0000 15.5750
v -1.5750 0.0000 19.4250
v -1.5750 4.0000 19.4250
v -1.5750 4.0000 15.5750
v -5.4250 0.0000 19.4250
v -5.4250 0.0000 15.5750
v -5.4250 4.0000 15.5750
v -5.4250 4.0000 19.4250
v 1.5750 0.0000 15.5750
v 1.5750 0.0000 19.4250
v 5.4250 0.0000 19.4250
v 5.4250 0.0000 15.5750
v 1.5750 4.0000 15.5750
v 5.4250 4.0000 15.5750
v 5.4250 4.0000 19.4250
v 1.5750 4.0000 19.4250
v 1.5750 0.0000 15.5750
v 5.4250 0.0000 15.5750
v 5.4250 4.0000 15.5750
v 1.5750 4.0000 15.5750
v 5.4250 0.0000 19.4250
v 1.5750 0.0000 19.4250
v 1.5750 4.0000 19.4250
v 5.4250 4.0000 19.4250
v 5.4250 0.0000 15.5750
v 5.4250 0.0000 19.4250
v 5.4250 4.0000 19.4250
v 5.4250 4.0000 15.5750
v 1.5750 0.0000 19.4250
v 1.5750 0.0000 15.5750
v 1.5750 4.0000 15.5750
v 1.5750 4.0000 19.4250
v 8.5750 0.0000 15.5750
v 8.5750 0.0000 19.4250
v 12.4250 0.0000 19.4250
v 12.4250 0.0000 15.5750
v 8.5750 4.0000 15.5750
v 12.4250 4.0000 15.5750
v 12.4250 4.0000 19.4250
v 8.5750 4.0000 19.4250
v 8.5750 0.0000 15.5750
v 12.4250 0.0000 15.5750
v 12.4250 4.0000 15.5750
v 8.5750 4.0000 15.5750
v 12.4250 0.0000 19.4250
v 8.5750 0.0000 19.4250
v 8.5750 4.0000 19.4250
v 12.4250 4.0000 19.4250
v 12.4250 0.0000 15.5750
v 12.4250 0.0000 19.4250
v 12.4250 4.0000 19.4250
v 12.4250 4.0000 15.5750
v 8.5750 0.0000 19.4250
v 8.5750 0.0000 15.5750
v 8.5750 4.0000 15.5750
v 8.5750 4.0000 19.4250
v 15.5750 0.0000 15.5750
v 15.5750 0.0000 19.4250
v 19.4250 0.0000 19.4250
v 19.4250 0.0000 15.5750
v 15.5750 4.0000 15.5750
v 19.4250 4.0000 15.5750
v 19.4250 4.0000 19.4250
v 15.5750 4.0000 19.4250
v 15.5750 0.0000 15.5750
v 19.4250 0.0000 15.5750
v 19.4250 4.0000 15.5750
v 15.5750 4.0000 15.5750
v 19.4250 0.0000 19.4250
v 15.5750 0.0000 19.4250
v 15.5750 4.0000 19.4250
v 19.4250 4.0000 19.4250
v 19.4250 0.0000 15.5750
v 19.4250 0.0000 19.4250
v 19.4250 4.0000 19.4250
v 19.4250 4.0000 15.5750
v 15.5750 0.0000 19.4250
v 15.5750 0.0000 15.5750
v 15.5750 4.0000 15.5750
v 15.5750 4.0000 19.4250
v -14.8000 3.8300 -14.1750
v -13.2000 3.8300 -14.1750
v -13.2000 3.8300 -13.8250
v -14.8000 3.8300 -13.8250
v -14.8000 3.9300 -14.1750
v -13.2000 3.9300 -14.1750
v -13.2000 3.9300 -13.8250
v -14.8000 3.9300 -13.8250
v -14.9500 3.9100 -14.3000
v -14.9500 3.9100 -13.7000
v -13.0500 3.9100 -13.7000
v -13.0500 3.9100 -14.3000
v -14.9500 3.9900 -14.3000
v -13.0500 3.9900 -14.3000
v -13.0500 3.9900 -13.7000
v -14.9500 3.9900 -13.7000
v -14.9500 3.9100 -14.3000
v -13.0500 3.9100 -14.3000
v -13.0500 3.9900 -14.3000
v -14.9500 3.9900 -14.3000
v -13.0500 3.9100 -13.7000
v -14.9500 3.9100 -13.7000
v -14.9500 3.9900 -13.7000
v -13.0500 3.9900 -13.7000
v -13.0500 3.9100 -14.3000
v -13.0500 3.9100 -13.7000
v -13.0500 3.9900 -13.7000
v -13.0500 3.9900 -14.3000
v -14.9500 3.9100 -13.7000
v -14.9500 3.9100 -14.3000
v -14.9500 3.9900 -14.3000
v -14.9500 3.9900 -13.7000
v -7.8000 3.8300 -14.1750
v -6.2000 3.8300 -14.1750
v -6.2000 3.8300 -13.8250
v -7.8000 3.8300 -13.8250
v -7.8000 3.9300 -14.1750
v -6.2000 3.9300 -14.1750
v -6.2000 3.9300 -13.8250
v -7.8000 3.9300 -13.8250
v -7.9500 3.9100 -14.3000
v -7.9500 3.9100 -13.7000
v -6.0500 3.9100 -13.7000
v -6.0500 3.9100 -14.3000
v -7.9500 3.9900 -14.3000
v -6.0500 3.9900 -14.3000
v -6.0500 3.9900 -13.7000
v -7.9500 3.9900 -13.7000
v -7.9500 3.9100 -14.3000
v -6.0500 3.9100 -14.3000
v -6.0500 3.9900 -14.3000
v -7.9500 3.9900 -14.3000
v -6.0500 3.9100 -13.7000
v -7.9500 3.9100 -13.7000
v -7.9500 3.9900 -13.7000
v -6.0500 3.9900 -13.7000
v -6.0500 3.9100 -14.3000
v -6.0500 3.9100 -13.7000
v -6.0500 3.9900 -13.7000
v -6.0500 3.9900 -14.3000
v -7.9500 3.9100 -13.7000
v -7.9500 3.9100 -14.3000
v -7.9500 3.9900 -14.3000
v -7.9500 3.9900 -13.7000
v -14.8000 3.8300 -7.1750
v -13.2000 3.8300 -7.1750
v -13.2000 3.8300 -6.8250
v -14.8000 3.8300 -6.8250
v -14.8000 3.9300 -7.1750
v -13.2000 3.9300 -7.1750
v -13.2000 3.9300 -6.8250
v -14.8000 3.9300 -6.8250
v -14.9500 3.9100 -7.3000
v -14.9500 3.9100 -6.7000
v -13.0500 3.9100 -6.7000
v -13.0500 3.9100 -7.3000
v -14.9500 3.9900 -7.3000
v -13.0500 3.9900 -7.3000
v -13.0500 3.9900 -6.7000
v -14.9500 3.9900 -6.7000
v -14.9500 3.9100 -7.3000
v -13.0500 3.9100 -7.3000
v -13.0500 3.9900 -7.3000
v -14.9500 3.9900 -7.3000
v -13.0500 3.9100 -6.7000
v -14.9500 3.9100 -6.7000
v -14.9500 3.9900 -6.7000
v -13.0500 3.9900 -6.7000
v -13.0500 3.9100 -7.3000
v -13.0500 3.9100 -6.7000
v -13.0500 3.9900 -6.7000
v -13.0500 3.9900 -7.3000
v -14.9500 3.9100 -6.7000
v -14.9500 3.9100 -7.3000
v -14.9500 3.9900 -7.3000
v -14.9500 3.9900 -6.7000
v 20.2000 3.8300 -7.1750
v 21.8000 3.8300 -7.1750
v 21.8000 3.8300 -6.8250
v 20.2000 3.8300 -6.8250
v 20.2000 3.9300 -7.1750
v 21.8000 3.9300 -7.1750
v 21.8000 3.9300 -6.8250
v 20.2000 3.9300 -6.8250
v 20.0500 3.9100 -7.3000
v 20.0500 3.9100 -6.7000
v 21.9500 3.9100 -6.7000
v 21.9500 3.9100 -7.3000
v 20.0500 3.9900 -7.3000
v 21.9500 3.9900 -7.3000
v 21.9500 3.9900 -6.7000
v 20.0500 3.9900 -6.7000
v 20.0500 3.9100 -7.3000
v 21.9500 3.9100 -7.3000
v 21.9500 3.9900 -7.3000
v 20.0500 3.9900 -7.3000
v 21.9500 3.9100 -6.7000
v 20.0500 3.9100 -6.7000
v 20.0500 3.9900 -6.7000
v 21.9500 3.9900 -6.7000
v 21.9500 3.9100 -7.3000
v 21.9500 3.9100 -6.7000
v 21.9500 3.9900 -6.7000
v 21.9500 3.9900 -7.3000
v 20.0500 3.9100 -6.7000
v 20.0500 3.9100 -7.3000
v 20.0500 3.9900 -7.3000
v 20.0500 3.9900 -6.7000
v -0.8000 3.8300 -0.1750
v 0.8000 3.8300 -0.1750
v 0.8000 3.8300 0.1750
v -0.8000 3.8300 0.1750
v -0.8000 3.9300 -0.1750
v 0.8000 3.9300 -0.1750
v 0.8000 3.9300 0.1750
v -0.8000 3.9300 0.1750
v -0.9500 3.9100 -0.3000
v -0.9500 3.9100 0.3000
v 0.9500 3.9100 0.3000
v 0.9500 3.9100 -0.3000
v -0.9500 3.9900 -0.3000
v 0.9500 3.9900 -0.3000
v 0.9500 3.9900 0.3000
v -0.9500 3.9900 0.3000
v -0.9500 3.9100 -0.3000
v 0.9500 3.9100 -0.3000
v 0.9500 3.9900 -0.3000
v -0.9500 3.9900 -0.3000
v 0.9500 3.9100 0.3000
v -0.9500 3.9100 0.3000
v -0.9500 3.9900 0.3000
v 0.9500 3.9900 0.3000
v 0.9500 3.9100 -0.3000
v 0.9500 3.9100 0.3000
v 0.9500 3.9900 0.3000
v 0.9500 3.9900 -0.3000
v -0.9500 3.9100 0.3000
v -0.9500 3.9100 -0.3000
v -0.9500 3.9900 -0.3000
v -0.9500 3.9900 0.3000
v 13.2000 3.8300 -0.1750
v 14.8000 3.8300 -0.1750
v 14.8000 3.8300 0.1750
v 13.2000 3.8300 0.1750
v 13.2000 3.9300 -0.1750
v 14.8000 3.9300 -0.1750
v 14.8000 3.9300 0.1750
v 13.2000 3.9300 0.1750
v 13.0500 3.9100 -0.3000
v 13.0500 3.9100 0.3000
v 14.9500 3.9100 0.3000
v 14.9500 3.9100 -0.3000
v 13.0500 3.9900 -0.3000
v 14.9500 3.9900 -0.3000
v 14.9500 3.9900 0.3000
v 13.0500 3.9900 0.3000
v 13.0500 3.9100 -0.3000
v 14.9500 3.9100 -0.3000
v 14.9500 3.9900 -0.3000
v 13.0500 3.9900 -0.3000
v 14.9500 3.9100 0.3000
v 13.0500 3.9100 0.3000
v 13.0500 3.9900 0.3000
v 14.9500 3.9900 0.3000
v 14.9500 3.9100 -0.3000
v 14.9500 3.9100 0.3000
v 14.9500 3.9900 0.3000
v 14.9500 3.9900 -0.3000
v 13.0500 3.9100 0.3000
v 13.0500 3.9100 -0.3000
v 13.0500 3.9900 -0.3000
v 13.0500 3.9900 0.3000
v -14.8000 3.8300 6.8250
v -13.2000 3.8300 6.8250
v -13.2000 3.8300 7.1750
v -14.8000 3.8300 7.1750
v -14.8000 3.9300 6.8250
v -13.2000 3.9300 6.8250
v -13.2000 3.9300 7.1750
v -14.8000 3.9300 7.1750
v -14.9500 3.9100 6.7000
v -14.9500 3.9100 7.3000
v -13.0500 3.9100 7.3000
v -13.0500 3.9100 6.7000
v -14.9500 3.9900 6.7000
v -13.0500 3.9900 6.7000
v -13.0500 3.9900 7.3000
v -14.9500 3.9900 7.3000
v -14.9500 3.9100 6.7000
v -13.0500 3.9100 6.7000
v -13.0500 3.9900 6.7000
v -14.9500 3.9900 6.7000
v -13.0500 3.9100 7.3000
v -14.9500 3.9100 7.3000
v -14.9500 3.9900 7.3000
v -13.0500 3.9900 7.3000
v -13.0500 3.9100 6.7000
v -13.0500 3.9100 7.3000
v -13.0500 3.9900 7.3000
v -13.0500 3.9900 6.7000
v -14.9500 3.9100 7.3000
v -14.9500 3.9100 6.7000
v -14.9500 3.9900 6.7000
v -14.9500 3.9900 7.3000
v -7.8000 3.8300 6.8250
v -6.2000 3.8300 6.8250
v -6.2000 3.8300 7.1750
v -7.8000 3.8300 7.1750
v -7.8000 3.9300 6.8250
v -6.2000 3.9300 6.8250
v -6.2000 3.9300 7.1750
v -7.8000 3.9300 7.1750
v -7.9500 3.9100 6.7000
v -7.9500 3.9100 7.3000
v -6.0500 3.9100 7.3000
v -6.0500 3.9100 6.7000
v -7.9500 3.9900 6.7000
v -6.0500 3.9900 6.7000
v -6.0500 3.9900 7.3000
v -7.9500 3.9900 7.3000
v -7.9500 3.9100 6.7000
v -6.0500 3.9100 6.7000
v -6.0500 3.9900 6.7000
v -7.9500 3.9900 6.7000
v -6.0500 3.9100 7.3000
v -7.9500 3.9100 7.3000
v -7.9500 3.9900 7.3000
v -6.0500 3.9900 7.3000
v -6.0500 3.9100 6.7000
v -6.0500 3.9100 7.3000
v -6.0500 3.9900 7.3000
v -6.0500 3.9900 6.7000
v -7.9500 3.9100 7.3000
v -7.9500 3.9100 6.7000
v -7.9500 3.9900 6.7000
v -7.9500 3.9900 7.3000
v 6.2000 3.8300 6.8250
v 7.8000 3.8300 6.8250
v 7.8000 3.8300 7.1750
v 6.2000 3.8300 7.1750
v 6.2000 3.9300 6.8250
v 7.8000 3.9300 6.8250
v 7.8000 3.9300 7.1750
v 6.2000 3.9300 7.1750
v 6.0500 3.9100 6.7000
v 6.0500 3.9100 7.3000
v 7.9500 3.9100 7.3000
v 7.9500 3.9100 6.7000
v 6.0500 3.9900 6.7000
v 7.9500 3.9900 6.7000
v 7.9500 3.9900 7.3000
v 6.0500 3.9900 7.3000
v 6.0500 3.9100 6.7000
v 7.9500 3.9100 6.7000
v 7.9500 3.9900 6.7000
v 6.0500 3.9900 6.7000
v 7.9500 3.9100 7.3000
v 6.0500 3.9100 7.3000
v 6.0500 3.9900 7.3000
v 7.9500 3.9900 7.3000
v 7.9500 3.9100 6.7000
v 7.9500 3.9100 7.3000
v 7.9500 3.9900 7.3000
v 7.9500 3.9900 6.7000
v 6.0500 3.9100 7.3000
v 6.0500 3.9100 6.7000
v 6.0500 3.9900 6.7000
v 6.0500 3.9900 7.3000
v -14.8000 3.8300 13.8250
v -13.2000 3.8300 13.8250
v -13.2000 3.8300 14.1750
v -14.8000 3.8300 14.1750
v -14.8000 3.9300 13.8250
v -13.2000 3.9300 13.8250
v -13.2000 3.9300 14.1750
v -14.8000 3.9300 14.1750
v -14.9500 3.9100 13.7000
v -14.9500 3.9100 14.3000
v -13.0500 3.9100 14.3000
v -13.0500 3.9100 13.7000
v -14.9500 3.9900 13.7000
v -13.0500 3.9900 13.7000
v -13.0500 3.9900 14.3000
v -14.9500 3.9900 14.3000
v -14.9500 3.9100 13.7000
v -13.0500 3.9100 13.7000
v -13.0500 3.9900 13.7000
v -14.9500 3.9900 13.7000
v -13.0500 3.9100 14.3000
v -14.9500 3.9100 14.3000
v -14.9500 3.9900 14.3000
v -13.0500 3.9900 14.3000
v -13.0500 3.9100 13.7000
v -13.0500 3.9100 14.3000
v -13.0500 3.9900 14.3000
v -13.0500 3.9900 13.7000
v -14.9500 3.9100 14.3000
v -14.9500 3.9100 13.7000
v -14.9500 3.9900 13.7000
v -14.9500 3.9900 14.3000
v -7.8000 3.8300 13.8250
v -6.2000 3.8300 13.8250
v -6.2000 3.8300 14.1750
v -7.8000 3.8300 14.1750
v -7.8000 3.9300 13.8250
v -6.2000 3.9300 13.8250
v -6.2000 3.9300 14.1750
v -7.8000 3.9300 14.1750
v -7.9500 3.9100 13.7000
v -7.9500 3.9100 14.3000
v -6.0500 3.9100 14.3000
v -6.0500 3.9100 13.7000
v -7.9500 3.9900 13.7000
v -6.0500 3.9900 13.7000
v -6.0500 3.9900 14.3000
v -7.9500 3.9900 14.3000
v -7.9500 3.9100 13.7000
v -6.0500 3.9100 13.7000
v -6.0500 3.9900 13.7000
v -7.9500 3.9900 13.7000
v -6.0500 3.9100 14.3000
v -7.9500 3.9100 14.3000
v -7.9500 3.9900 14.3000
v -6.0500 3.9900 14.3000
v -6.0500 3.9100 13.7000
v -6.0500 3.9100 14.3000
v -6.0500 3.9900 14.3000
v -6.0500 3.9900 13.7000
v -7.9500 3.9100 14.3000
v -7.9500 3.9100 13.7000
v -7.9500 3.9900 13.7000
v -7.9500 3.9900 14.3000
v -0.8000 3.8300 13.8250
v 0.8000 3.8300 13.8250
v 0.8000 3.8300 14.1750
v -0.8000 3.8300 14.1750
v -0.8000 3.9300 13.8250
v 0.8000 3.9300 13.8250
v 0.8000 3.9300 14.1750
v -0.8000 3.9300 14.1750
v -0.9500 3.9100 13.7000
v -0.9500 3.9100 14.3000
v 0.9500 3.9100 14.3000
v 0.9500 3.9100 13.7000
v -0.9500 3.9900 13.7000
v 0.9500 3.9900 13.7000
v 0.9500 3.9900 14.3000
v -0.9500 3.9900 14.3000
v -0.9500 3.9100 13.7000
v 0.9500 3.9100 13.7000
v 0.9500 3.9900 13.7000
v -0.9500 3.9900 13.7000
v 0.9500 3.9100 14.3000
v -0.9500 3.9100 14.3000
v -0.9500 3.9900 14.3000
v 0.9500 3.9900 14.3000
v 0.9500 3.9100 13.7000
v 0.9500 3.9100 14.3000
v 0.9500 3.9900 14.3000
v 0.9500 3.9900 13.7000
v -0.9500 3.9100 14.3000
v -0.9500 3.9100 13.7000
v -0.9500 3.9900 13.7000
v -0.9500 3.9900 14.3000
v -0.8000 3.8300 20.8250
v 0.8000 3.8300 20.8250
v 0.8000 3.8300 21.1750
v -0.8000 3.8300 21.1750
v -0.8000 3.9300 20.8250
v 0.8000 3.9300 20.8250
v 0.8000 3.9300 21.1750
v -0.8000 3.9300 21.1750
v -0.9500 3.9100 20.7000
v -0.9500 3.9100 21.3000
v 0.9500 3.9100 21.3000
v 0.9500 3.9100 20.7000
v -0.9500 3.9900 20.7000
v 0.9500 3.9900 20.7000
v 0.9500 3.9900 21.3000
v -0.9500 3.9900 21.3000
v -0.9500 3.9100 20.7000
v 0.9500 3.9100 20.7000
v 0.9500 3.9900 20.7000
v -0.9500 3.9900 20.7000
v 0.9500 3.9100 21.3000
v -0.9500 3.9100 21.3000
v -0.9500 3.9900 21.3000
v 0.9500 3.9900 21.3000
v 0.9500 3.9100 20.7000
v 0.9500 3.9100 21.3000
v 0.9500 3.9900 21.3000
v 0.9500 3.9900 20.7000
v -0.9500 3.9100 21.3000
v -0.9500 3.9100 20.7000
v -0.9500 3.9900 20.7000
v -0.9500 3.9900 21.3000
v 6.2000 3.8300 20.8250
v 7.8000 3.8300 20.8250
v 7.8000 3.8300 21.1750
v 6.2000 3.8300 21.1750
v 6.2000 3.9300 20.8250
v 7.8000 3.9300 20.8250
v 7.8000 3.9300 21.1750
v 6.2000 3.9300 21.1750
v 6.0500 3.9100 20.7000
v 6.0500 3.9100 21.3000
v 7.9500 3.9100 21.3000
v 7.9500 3.9100 20.7000
v 6.0500 3.9900 20.7000
v 7.9500 3.9900 20.7000
v 7.9500 3.9900 21.3000
v 6.0500 3.9900 21.3000
v 6.0500 3.9100 20.7000
v 7.9500 3.9100 20.7000
v 7.9500 3.9900 20.7000
v 6.0500 3.9900 20.7000
v 7.9500 3.9100 21.3000
v 6.0500 3.9100 21.3000
v 6.0500 3.9900 21.3000
v 7.9500 3.9900 21.3000
v 7.9500 3.9100 20.7000
v 7.9500 3.9100 21.3000
v 7.9500 3.9900 21.3000
v 7.9500 3.9900 20.7000
v 6.0500 3.9100 21.3000
v 6.0500 3.9100 20.7000
v 6.0500 3.9900 20.7000
v 6.0500 3.9900 21.3000
vt -7.7700 -7.7700
vt -7.7700 -6.2300
vt -6.2300 -6.2300
vt -6.2300 -7.7700
vt -7.7700 -7.7700
vt -6.2300 -7.7700
vt -6.2300 -6.2300
vt -7.7700 -6.2300
vt -7.7700 0.0000
vt -6.2300 0.0000
vt -6.2300 1.6000
vt -7.7700 1.6000
vt -6.2300 0.0000
vt -7.7700 0.0000
vt -7.7700 1.6000
vt -6.2300 1.6000
vt -7.7700 0.0000
vt -6.2300 0.0000
vt -6.2300 1.6000
vt -7.7700 1.6000
vt -6.2300 0.0000
vt -7.7700 0.0000
vt -7.7700 1.6000
vt -6.2300 1.6000
vt -4.9700 -7.7700
vt -4.9700 -6.2300
vt -3.4300 -6.2300
vt -3.4300 -7.7700
vt -4.9700 -7.7700
vt -3.4300 -7.7700
vt -3.4300 -6.2300
vt -4.9700 -6.2300
vt -4.9700 0.0000
vt -3.4300 0.0000
vt -3.4300 1.6000
vt -4.9700 1.6000
vt -3.4300 0.0000
vt -4.9700 0.0000
vt -4.9700 1.6000
vt -3.4300 1.6000
vt -7.7700 0.0000
vt -6.2300 0.0000
vt -6.2300 1.6000
vt -7.7700 1.6000
vt -6.2300 0.0000
vt -7.7700 0.0000
vt -7.7700 1.6000
vt -6.2300 1.6000
vt -2.1700 -7.7700
vt -2.1700 -6.2300
vt -0.6300 -6.2300
vt -0.6300 -7.7700
vt -2.1700 -7.7700
vt -0.6300 -7.7700
vt -0.6300 -6.2300
vt -2.1700 -6.2300
vt -2.1700 0.0000
vt -0.6300 0.0000
vt -0.6300 1.6000
vt -2.1700 1.6000
vt -0.6300 0.0000
vt -2.1700 0.0000
vt -2.1700 1.6000
vt -0.6300 1.6000
vt -7.7700 0.0000
vt -6.2300 0.0000
vt -6.2300 1.6000
vt -7.7700 1.6000
vt -6.2300 0.0000
vt -7.7700 0.0000
vt -7.7700 1.6000
vt -6.2300 1.6000
vt 0.6300 -7.7700
vt 0.6300 -6.2300
vt 2.1700 -6.2300
vt 2.1700 -7.7700
vt 0.6300 -7.7700
vt 2.1700 -7.7700
vt 2.1700 -6.2300
vt 0.6300 -6.2300
vt 0.6300 0.0000
vt 2.1700 0.0000
vt 2.1700 1.6000
vt 0.6300 1.6000
vt 2.1700 0.0000
vt 0.6300 0.0000
vt 0.6300 1.6000
vt 2.1700 1.6000
vt -7.7700 0.0000
vt -6.2300 0.0000
vt -6.2300 1.6000
vt -7.7700 1.6000
vt -6.2300 0.0000
vt -7.7700 0.0000
vt -7.7700 1.6000
vt -6.2300 1.6000
vt 3.4300 -7.7700
vt 3.4300 -6.2300
vt 4.9700 -6.2300
vt 4.9700 -7.7700
vt 3.4300 -7.7700
vt 4.9700 -7.7700
vt 4.9700 -6.2300
vt 3.4300 -6.2300
vt 3.4300 0.0000
vt 4.9700 0.0000
vt 4.9700 1.6000
vt 3.4300 1.6000
vt 4.9700 0.0000
vt 3.4300 0.0000
vt 3.4300 1.6000
vt 4.9700 1.6000
vt -7.7700 0.0000
vt -6.2300 0.0000
vt -6.2300 1.6000
vt -7.7700 1.6000
vt -6.2300 0.0000
vt -7.7700 0.0000
vt -7.7700 1.6000
vt -6.2300 1.6000
vt 6.2300 -7.7700
vt 6.2300 -6.2300
vt 7.7700 -6.2300
vt 7.7700 -7.7700
vt 6.2300 -7.7700
vt 7.7700 -7.7700
vt 7.7700 -6.2300
vt 6.2300 -6.2300
vt 6.2300 0.0000
vt 7.7700 0.0000
vt 7.7700 1.6000
vt 6.2300 1.6000
vt 7.7700 0.0000
vt 6.2300 0.0000
vt 6.2300 1.6000
vt 7.7700 1.6000
vt -7.7700 0.0000
vt -6.2300 0.0000
vt -6.2300 1.6000
vt -7.7700 1.6000
vt -6.2300 0.0000
vt -7.7700 0.0000
vt -7.7700 1.6000
vt -6.2300 1.6000
vt -4.9700 -6.3700
vt -4.9700 -4.8300
vt -3.4300 -4.8300
vt -3.4300 -6.3700
vt -4.9700 -6.3700
vt -3.4300 -6.3700
vt -3.4300 -4.8300
vt -4.9700 -4.8300
vt -4.9700 0.0000
vt -3.4300 0.0000
vt -3.4300 1.6000
vt -4.9700 1.6000
vt -3.4300 0.0000
vt -4.9700 0.0000
vt -4.9700 1.6000
vt -3.4300 1.6000
vt -6.3700 0.0000
vt -4.8300 0.0000
vt -4.8300 1.6000
vt -6.3700 1.6000
vt -4.8300 0.0000
vt -6.3700 0.0000
vt -6.3700 1.6000
vt -4.8300 1.6000
vt -7.7700 -4.9700
vt -7.7700 -3.4300
vt -6.2300 -3.4300
vt -6.2300 -4.9700
vt -7.7700 -4.9700
vt -6.2300 -4.9700
vt -6.2300 -3.4300
vt -7.7700 -3.4300
vt -7.7700 0.0000
vt -6.2300 0.0000
vt -6.2300 1.6000
vt -7.7700 1.6000
vt -6.2300 0.0000
vt -7.7700 0.0000
vt -7.7700 1.6000
vt -6.2300 1.6000
vt -4.9700 0.0000
vt -3.4300 0.0000
vt -3.4300 1.6000
vt -4.9700 1.6000
vt -3.4300 0.0000
vt -4.9700 0.0000
vt -4.9700 1.6000
vt -3.4300 1.6000
vt -4.9700 -4.9700
vt -4.9700 -3.4300
vt -3.4300 -3.4300
vt -3.4300 -4.9700
vt -4.9700 -4.9700
vt -3.4300 -4.9700
vt -3.4300 -3.4300
vt -4.9700 -3.4300
vt -4.9700 0.0000
vt -3.4300 0.0000
vt -3.4300 1.6000
vt -4.9700 1.6000
vt -3.4300 0.0000
vt -4.9700 0.0000
vt -4.9700 1.6000
vt -3.4300 1.6000
vt -4.9700 0.0000
vt -3.4300 0.0000
vt -3.4300 1.6000
vt -4.9700 1.6000
vt -3.4300 0.0000
vt -4.9700 0.0000
vt -4.9700 1.6000
vt -3.4300 1.6000
vt -2.1700 -4.9700
vt -2.1700 -3.4300
vt -0.6300 -3.4300
vt -0.6300 -4.9700
vt -2.1700 -4.9700
vt -0.6300 -4.9700
vt -0.6300 -3.4300
vt -2.1700 -3.4300
vt -2.1700 0.0000
vt -0.6300 0.0000
vt -0.6300 1.6000
vt -2.1700 1.6000
vt -0.6300 0.0000
vt -2.1700 0.0000
vt -2.1700 1.6000
vt -0.6300 1.6000
vt -4.9700 0.0000
vt -3.4300 0.0000
vt -3.4300 1.6000
vt -4.9700 1.6000
vt -3.4300 0.0000
vt -4.9700 0.0000
vt -4.9700 1.6000
vt -3.4300 1.6000
vt -0.7700 -4.9700
vt -0.7700 -3.4300
vt 0.7700 -3.4300
vt 0.7700 -4.9700
vt -0.7700 -4.9700
vt 0.7700 -4.9700
vt 0.7700 -3.4300
vt -0.7700 -3.4300
vt -0.7700 0.0000
vt 0.7700 0.0000
vt 0.7700 1.6000
vt -0.7700 1.6000
vt 0.7700 0.0000
vt -0.7700 0.0000
vt -0.7700 1.6000
vt 0.7700 1.6000
vt -4.9700 0.0000
vt -3.4300 0.0000
vt -3.4300 1.6000
vt -4.9700 1.6000
vt -3.4300 0.0000
vt -4.9700 0.0000
vt -4.9700 1.6000
vt -3.4300 1.6000
vt 0.6300 -4.9700
vt 0.6300 -3.4300
vt 2.1700 -3.4300
vt 2.1700 -4.9700
vt 0.6300 -4.9700
vt 2.1700 -4.9700
vt 2.1700 -3.4300
vt 0.6300 -3.4300
vt 0.6300 0.0000
vt 2.1700 0.0000
vt 2.1700 1.6000
vt 0.6300 1.6000
vt 2.1700 0.0000
vt 0.6300 0.0000
vt 0.6300 1.6000
vt 2.1700 1.6000
vt -4.9700 0.0000
vt -3.4300 0.0000
vt -3.4300 1.6000
vt -4.9700 1.6000
vt -3.4300 0.0000
vt -4.9700 0.0000
vt -4.9700 1.6000
vt -3.4300 1.6000
vt 3.4300 -4.9700
vt 3.4300 -3.4300
vt 4.9700 -3.4300
vt 4.9700 -4.9700
vt 3.4300 -4.9700
vt 4.9700 -4.9700
vt 4.9700 -3.4300
vt 3.4300 -3.4300
vt 3.4300 0.0000
vt 4.9700 0.0000
vt 4.9700 1.6000
vt 3.4300 1.6000
vt 4.9700 0.0000
vt 3.4300 0.0000
vt 3.4300 1.6000
vt 4.9700 1.6000
vt -4.9700 0.0000
vt -3.4300 0.0000
vt -3.4300 1.6000
vt -4.9700 1.6000
vt -3.4300 0.0000
vt -4.9700 0.0000
vt -4.9700 1.6000
vt -3.4300 1.6000
vt 6.2300 -4.9700
vt 6.2300 -3.4300
vt 7.7700 -3.4300
vt 7.7700 -4.9700
vt 6.2300 -4.9700
vt 7.7700 -4.9700
vt 7.7700 -3.4300
vt 6.2300 -3.4300
vt 6.2300 0.0000
vt 7.7700 0.0000
vt 7.7700 1.6000
vt 6.2300 1.6000
vt 7.7700 0.0000
vt 6.2300 0.0000
vt 6.2300 1.6000
vt 7.7700 1.6000
vt -4.9700 0.0000
vt -3.4300 0.0000
vt -3.4300 1.6000
vt -4.9700 1.6000
vt -3.4300 0.0000
vt -4.9700 0.0000
vt -4.9700 1.6000
vt -3.4300 1.6000
vt -7.7700 -3.5700
vt -7.7700 -2.0300
vt -6.2300 -2.0300
vt -6.2300 -3.5700
vt -7.7700 -3.5700
vt -6.2300 -3.5700
vt -6.2300 -2.0300
vt -7.7700 -2.0300
vt -7.7700 0.0000
vt -6.2300 0.0000
vt -6.2300 1.6000
vt -7.7700 1.6000
vt -6.2300 0.0000
vt -7.7700 0.0000
vt -7.7700 1.6000
vt -6.2300 1.6000
vt -3.5700 0.0000
vt -2.0300 0.0000
vt -2.0300 1.6000
vt -3.5700 1.6000
vt -2.0300 0.0000
vt -3.5700 0.0000
vt -3.5700 1.6000
vt -2.0300 1.6000
vt -4.9700 -3.5700
vt -4.9700 -2.0300
vt -3.4300 -2.0300
vt -3.4300 -3.5700
vt -4.9700 -3.5700
vt -3.4300 -3.5700
vt -3.4300 -2.0300
vt -4.9700 -2.0300
vt -4.9700 0.0000
vt -3.4300 0.0000
vt -3.4300 1.6000
vt -4.9700 1.6000
vt -3.4300 0.0000
vt -4.9700 0.0000
vt -4.9700 1.6000
vt -3.4300 1.6000
vt -3.5700 0.0000
vt -2.0300 0.0000
vt -2.0300 1.6000
vt -3.5700 1.6000
vt -2.0300 0.0000
vt -3.5700 0.0000
vt -3.5700 1.6000
vt -2.0300 1.6000
vt -7.7700 -2.1700
vt -7.7700 -0.6300
vt -6.2300 -0.6300
vt -6.2300 -2.1700
vt -7.7700 -2.1700
vt -6.2300 -2.1700
vt -6.2300 -0.6300
vt -7.7700 -0.6300
vt -7.7700 0.0000
vt -6.2300 0.0000
vt -6.2300 1.6000
vt -7.7700 1.6000
vt -6.2300 0.0000
vt -7.7700 0.0000
vt -7.7700 1.6000
vt -6.2300 1.6000
vt -2.1700 0.0000
vt -0.6300 0.0000
vt -0.6300 1.6000
vt -2.1700 1.6000
vt -0.6300 0.0000
vt -2.1700 0.0000
vt -2.1700 1.6000
vt -0.6300 1.6000
vt -4.9700 -2.1700
vt -4.9700 -0.6300
vt -3.4300 -0.6300
vt -3.4300 -2.1700
vt -4.9700 -2.1700
vt -3.4300 -2.1700
vt -3.4300 -0.6300
vt -4.9700 -0.6300
vt -4.9700 0.0000
vt -3.4300 0.0000
vt -3.4300 1.6000
vt -4.9700 1.6000
vt -3.4300 0.0000
vt -4.9700 0.0000
vt -4.9700 1.6000
vt -3.4300 1.6000
vt -2.1700 0.0000
vt -0.6300 0.0000
vt -0.6300 1.6000
vt -2.1700 1.6000
vt -0.6300 0.0000
vt -2.1700 0.0000
vt -2.1700 1.6000
vt -0.6300 1.6000
vt -2.1700 -2.1700
vt -2.1700 -0.6300
vt -0.6300 -0.6300
vt -0.6300 -2.1700
vt -2.1700 -2.1700
vt -0.6300 -2.1700
vt -0.6300 -0.6300
vt -2.1700 -0.6300
vt -2.1700 0.0000
vt -0.6300 0.0000
vt -0.6300 1.6000
vt -2.1700 1.6000
vt -0.6300 0.0000
vt -2.1700 0.0000
vt -2.1700 1.6000
vt -0.6300 1.6000
vt -2.1700 0.0000
vt -0.6300 0.0000
vt -0.6300 1.6000
vt -2.1700 1.6000
vt -0.6300 0.0000
vt -2.1700 0.0000
vt -2.1700 1.6000
vt -0.6300 1.6000
vt 0.6300 -2.1700
vt 0.6300 -0.6300
vt 2.1700 -0.6300
vt 2.1700 -2.1700
vt 0.6300 -2.1700
vt 2.1700 -2.1700
vt 2.1700 -0.6300
vt 0.6300 -0.6300
vt 0.6300 0.0000
vt 2.1700 0.0000
vt 2.1700 1.6000
vt 0.6300 1.6000
vt 2.1700 0.0000
vt 0.6300 0.0000
vt 0.6300 1.6000
vt 2.1700 1.6000
vt -2.1700 0.0000
vt -0.6300 0.0000
vt -0.6300 1.6000
vt -2.1700 1.6000
vt -0.6300 0.0000
vt -2.1700 0.0000
vt -2.1700 1.6000
vt -0.6300 1.6000
vt 2.0300 -2.1700
vt 2.0300 -0.6300
vt 3.5700 -0.6300
vt 3.5700 -2.1700
vt 2.0300 -2.1700
vt 3.5700 -2.1700
vt 3.5700 -0.6300
vt 2.0300 -0.6300
vt 2.0300 0.0000
vt 3.5700 0.0000
vt 3.5700 1.6000
vt 2.0300 1.6000
vt 3.5700 0.0000
vt 2.0300 0.0000
vt 2.0300 1.6000
vt 3.5700 1.6000
vt -2.1700 0.0000
vt -0.6300 0.0000
vt -0.6300 1.6000
vt -2.1700 1.6000
vt -0.6300 0.0000
vt -2.1700 0.0000
vt -2.1700 1.6000
vt -0.6300 1.6000
vt 3.4300 -2.1700
vt 3.4300 -0.6300
vt 4.9700 -0.6300
vt 4.9700 -2.1700
vt 3.4300 -2.1700
vt 4.9700 -2.1700
vt 4.9700 -0.6300
vt 3.4300 -0.6300
vt 3.4300 0.0000
vt 4.9700 0.0000
vt 4.9700 1.6000
vt 3.4300 1.6000
vt 4.9700 0.0000
vt 3.4300 0.0000
vt 3.4300 1.6000
vt 4.9700 1.6000
vt -2.1700 0.0000
vt -0.6300 0.0000
vt -0.6300 1.6000
vt -2.1700 1.6000
vt -0.6300 0.0000
vt -2.1700 0.0000
vt -2.1700 1.6000
vt -0.6300 1.6000
vt 6.2300 -2.1700
vt 6.2300 -0.6300
vt 7.7700 -0.6300
vt 7.7700 -2.1700
vt 6.2300 -2.1700
vt 7.7700 -2.1700
vt 7.7700 -0.6300
vt 6.2300 -0.6300
vt 6.2300 0.0000
vt 7.7700 0.0000
vt 7.7700 1.6000
vt 6.2300 1.6000
vt 7.7700 0.0000
vt 6.2300 0.0000
vt 6.2300 1.6000
vt 7.7700 1.6000
vt -2.1700 0.0000
vt -0.6300 0.0000
vt -0.6300 1.6000
vt -2.1700 1.6000
vt -0.6300 0.0000
vt -2.1700 0.0000
vt -2.1700 1.6000
vt -0.6300 1.6000
vt 3.4300 -0.7700
vt 3.4300 0.7700
vt 4.9700 0.7700
vt 4.9700 -0.7700
vt 3.4300 -0.7700
vt 4.9700 -0.7700
vt 4.9700 0.7700
vt 3.4300 0.7700
vt 3.4300 0.0000
vt 4.9700 0.0000
vt 4.9700 1.6000
vt 3.4300 1.6000
vt 4.9700 0.0000
vt 3.4300 0.0000
vt 3.4300 1.6000
vt 4.9700 1.6000
vt -0.7700 0.0000
vt 0.7700 0.0000
vt 0.7700 1.6000
vt -0.7700 1.6000
vt 0.7700 0.0000
vt -0.7700 0.0000
vt -0.7700 1.6000
vt 0.7700 1.6000
vt -7.7700 0.6300
vt -7.7700 2.1700
vt -6.2300 2.1700
vt -6.2300 0.6300
vt -7.7700 0.6300
vt -6.2300 0.6300
vt -6.2300 2.1700
vt -7.7700 2.1700
vt -7.7700 0.0000
vt -6.2300 0.0000
vt -6.2300 1.6000
vt -7.7700 1.6000
vt -6.2300 0.0000
vt -7.7700 0.0000
vt -7.7700 1.6000
vt -6.2300 1.6000
vt 0.6300 0.0000
vt 2.1700 0.0000
vt 2.1700 1.6000
vt 0.6300 1.6000
vt 2.1700 0.0000
vt 0.6300 0.0000
vt 0.6300 1.6000
vt 2.1700 1.6000
vt -6.3700 0.6300
vt -6.3700 2.1700
vt -4.8300 2.1700
vt -4.8300 0.6300
vt -6.3700 0.6300
vt -4.8300 0.6300
vt -4.8300 2.1700
vt -6.3700 2.1700
vt -6.3700 0.0000
vt -4.8300 0.0000
vt -4.8300 1.6000
vt -6.3700 1.6000
vt -4.8300 0.0000
vt -6.3700 0.0000
vt -6.3700 1.6000
vt -4.8300 1.6000
vt 0.6300 0.0000
vt 2.1700 0.0000
vt 2.1700 1.6000
vt 0.6300 1.6000
vt 2.1700 0.0000
vt 0.6300 0.0000
vt 0.6300 1.6000
vt 2.1700 1.6000
vt -4.9700 0.6300
vt -4.9700 2.1700
vt -3.4300 2.1700
vt -3.4300 0.6300
vt -4.9700 0.6300
vt -3.4300 0.6300
vt -3.4300 2.1700
vt -4.9700 2.1700
vt -4.9700 0.0000
vt -3.4300 0.0000
vt -3.4300 1.6000
vt -4.9700 1.6000
vt -3.4300 0.0000
vt -4.9700 0.0000
vt -4.9700 1.6000
vt -3.4300 1.6000
vt 0.6300 0.0000
vt 2.1700 0.0000
vt 2.1700 1.6000
vt 0.6300 1.6000
vt 2.1700 0.0000
vt 0.6300 0.0000
vt 0.6300 1.6000
vt 2.1700 1.6000
vt -2.1700 0.6300
vt -2.1700 2.1700
vt -0.6300 2.1700
vt -0.6300 0.6300
vt -2.1700 0.6300
vt -0.6300 0.6300
vt -0.6300 2.1700
vt -2.1700 2.1700
vt -2.1700 0.0000
vt -0.6300 0.0000
vt -0.6300 1.6000
vt -2.1700 1.6000
vt -0.6300 0.0000
vt -2.1700 0.0000
vt -2.1700 1.6000
vt -0.6300 1.6000
vt 0.6300 0.0000
vt 2.1700 0.0000
vt 2.1700 1.6000
vt 0.6300 1.6000
vt 2.1700 0.0000
vt 0.6300 0.0000
vt 0.6300 1.6000
vt 2.1700 1.6000
vt 0.6300 0.6300
vt 0.6300 2.1700
vt 2.1700 2.1700
vt 2.1700 0.6300
vt 0.6300 0.6300
vt 2.1700 0.6300
vt 2.1700 2.1700
vt 0.6300 2.1700
vt 0.6300 0.0000
vt 2.1700 0.0000
vt 2.1700 1.6000
vt 0.6300 1.6000
vt 2.1700 0.0000
vt 0.6300 0.0000
vt 0.6300 1.6000
vt 2.1700 1.6000
vt 0.6300 0.0000
vt 2.1700 0.0000
vt 2.1700 1.6000
vt 0.6300 1.6000
vt 2.1700 0.0000
vt 0.6300 0.0000
vt 0.6300 1.6000
vt 2.1700 1.6000
vt 3.4300 0.6300
vt 3.4300 2.1700
vt 4.9700 2.1700
vt 4.9700 0.6300
vt 3.4300 0.6300
vt 4.9700 0.6300
vt 4.9700 2.1700
vt 3.4300 2.1700
vt 3.4300 0.0000
vt 4.9700 0.0000
vt 4.9700 1.6000
vt 3.4300 1.6000
vt 4.9700 0.0000
vt 3.4300 0.0000
vt 3.4300 1.6000
vt 4.9700 1.6000
vt 0.6300 0.0000
vt 2.1700 0.0000
vt 2.1700 1.6000
vt 0.6300 1.6000
vt 2.1700 0.0000
vt 0.6300 0.0000
vt 0.6300 1.6000
vt 2.1700 1.6000
vt 6.2300 0.6300
vt 6.2300 2.1700
vt 7.7700 2.1700
vt 7.7700 0.6300
vt 6.2300 0.6300
vt 7.7700 0.6300
vt 7.7700 2.1700
vt 6.2300 2.1700
vt 6.2300 0.0000
vt 7.7700 0.0000
vt 7.7700 1.6000
vt 6.2300 1.6000
vt 7.7700 0.0000
vt 6.2300 0.0000
vt 6.2300 1.6000
vt 7.7700 1.6000
vt 0.6300 0.0000
vt 2.1700 0.0000
vt 2.1700 1.6000
vt 0.6300 1.6000
vt 2.1700 0.0000
vt 0.6300 0.0000
vt 0.6300 1.6000
vt 2.1700 1.6000
vt -7.7700 2.0300
vt -7.7700 3.5700
vt -6.2300 3.5700
vt -6.2300 2.0300
vt -7.7700 2.0300
vt -6.2300 2.0300
vt -6.2300 3.5700
vt -7.7700 3.5700
vt -7.7700 0.0000
vt -6.2300 0.0000
vt -6.2300 1.6000
vt -7.7700 1.6000
vt -6.2300 0.0000
vt -7.7700 0.0000
vt -7.7700 1.6000
vt -6.2300 1.6000
vt 2.0300 0.0000
vt 3.5700 0.0000
vt 3.5700 1.6000
vt 2.0300 1.6000
vt 3.5700 0.0000
vt 2.0300 0.0000
vt 2.0300 1.6000
vt 3.5700 1.6000
vt 0.6300 2.0300
vt 0.6300 3.5700
vt 2.1700 3.5700
vt 2.1700 2.0300
vt 0.6300 2.0300
vt 2.1700 2.0300
vt 2.1700 3.5700
vt 0.6300 3.5700
vt 0.6300 0.0000
vt 2.1700 0.0000
vt 2.1700 1.6000
vt 0.6300 1.6000
vt 2.1700 0.0000
vt 0.6300 0.0000
vt 0.6300 1.6000
vt 2.1700 1.6000
vt 2.0300 0.0000
vt 3.5700 0.0000
vt 3.5700 1.6000
vt 2.0300 1.6000
vt 3.5700 0.0000
vt 2.0300 0.0000
vt 2.0300 1.6000
vt 3.5700 1.6000
vt -7.7700 3.4300
vt -7.7700 4.9700
vt -6.2300 4.9700
vt -6.2300 3.4300
vt -7.7700 3.4300
vt -6.2300 3.4300
vt -6.2300 4.9700
vt -7.7700 4.9700
vt -7.7700 0.0000
vt -6.2300 0.0000
vt -6.2300 1.6000
vt -7.7700 1.6000
vt -6.2300 0.0000
vt -7.7700 0.0000
vt -7.7700 1.6000
vt -6.2300 1.6000
vt 3.4300 0.0000
vt 4.9700 0.0000
vt 4.9700 1.6000
vt 3.4300 1.6000
vt 4.9700 0.0000
vt 3.4300 0.0000
vt 3.4300 1.6000
vt 4.9700 1.6000
vt -4.9700 3.4300
vt -4.9700 4.9700
vt -3.4300 4.9700
vt -3.4300 3.4300
vt -4.9700 3.4300
vt -3.4300 3.4300
vt -3.4300 4.9700
vt -4.9700 4.9700
vt -4.9700 0.0000
vt -3.4300 0.0000
vt -3.4300 1.6000
vt -4.9700 1.6000
vt -3.4300 0.0000
vt -4.9700 0.0000
vt -4.9700 1.6000
vt -3.4300 1.6000
vt 3.4300 0.0000
vt 4.9700 0.0000
vt 4.9700 1.6000
vt 3.4300 1.6000
vt 4.9700 0.0000
vt 3.4300 0.0000
vt 3.4300 1.6000
vt 4.9700 1.6000
vt -2.1700 3.4300
vt -2.1700 4.9700
vt -0.6300 4.9700
vt -0.6300 3.4300
vt -2.1700 3.4300
vt -0.6300 3.4300
vt -0.6300 4.9700
vt -2.1700 4.9700
vt -2.1700 0.0000
vt -0.6300 0.0000
vt -0.6300 1.6000
vt -2.1700 1.6000
vt -0.6300 0.0000
vt -2.1700 0.0000
vt -2.1700 1.6000
vt -0.6300 1.6000
vt 3.4300 0.0000
vt 4.9700 0.0000
vt 4.9700 1.6000
vt 3.4300 1.6000
vt 4.9700 0.0000
vt 3.4300 0.0000
vt 3.4300 1.6000
vt 4.9700 1.6000
vt 0.6300 3.4300
vt 0.6300 4.9700
vt 2.1700 4.9700
vt 2.1700 3.4300
vt 0.6300 3.4300
vt 2.1700 3.4300
vt 2.1700 4.9700
vt 0.6300 4.9700
vt 0.6300 0.0000
vt 2.1700 0.0000
vt 2.1700 1.6000
vt 0.6300 1.6000
vt 2.1700 0.0000
vt 0.6300 0.0000
vt 0.6300 1.6000
vt 2.1700 1.6000
vt 3.4300 0.0000
vt 4.9700 0.0000
vt 4.9700 1.6000
vt 3.4300 1.6000
vt 4.9700 0.0000
vt 3.4300 0.0000
vt 3.4300 1.6000
vt 4.9700 1.6000
vt 2.0300 3.4300
vt 2.0300 4.9700
vt 3.5700 4.9700
vt 3.5700 3.4300
vt 2.0300 3.4300
vt 3.5700 3.4300
vt 3.5700 4.9700
vt 2.0300 4.9700
vt 2.0300 0.0000
vt 3.5700 0.0000
vt 3.5700 1.6000
vt 2.0300 1.6000
vt 3.5700 0.0000
vt 2.0300 0.0000
vt 2.0300 1.6000
vt 3.5700 1.6000
vt 3.4300 0.0000
vt 4.9700 0.0000
vt 4.9700 1.6000
vt 3.4300 1.6000
vt 4.9700 0.0000
vt 3.4300 0.0000
vt 3.4300 1.6000
vt 4.9700 1.6000
vt 3.4300 3.4300
vt 3.4300 4.9700
vt 4.9700 4.9700
vt 4.9700 3.4300
vt 3.4300 3.4300
vt 4.9700 3.4300
vt 4.9700 4.9700
vt 3.4300 4.9700
vt 3.4300 0.0000
vt 4.9700 0.0000
vt 4.9700 1.6000
vt 3.4300 1.6000
vt 4.9700 0.0000
vt 3.4300 0.0000
vt 3.4300 1.6000
vt 4.9700 1.6000
vt 3.4300 0.0000
vt 4.9700 0.0000
vt 4.9700 1.6000
vt 3.4300 1.6000
vt 4.9700 0.0000
vt 3.4300 0.0000
vt 3.4300 1.6000
vt 4.9700 1.6000
vt 6.2300 3.4300
vt 6.2300 4.9700
vt 7.7700 4.9700
vt 7.7700 3.4300
vt 6.2300 3.4300
vt 7.7700 3.4300
vt 7.7700 4.9700
vt 6.2300 4.9700
vt 6.2300 0.0000
vt 7.7700 0.0000
vt 7.7700 1.6000
vt 6.2300 1.6000
vt 7.7700 0.0000
vt 6.2300 0.0000
vt 6.2300 1.6000
vt 7.7700 1.6000
vt 3.4300 0.0000
vt 4.9700 0.0000
vt 4.9700 1.6000
vt 3.4300 1.6000
vt 4.9700 0.0000
vt 3.4300 0.0000
vt 3.4300 1.6000
vt 4.9700 1.6000
vt -7.7700 6.2300
vt -7.7700 7.7700
vt -6.2300 7.7700
vt -6.2300 6.2300
vt -7.7700 6.2300
vt -6.2300 6.2300
vt -6.2300 7.7700
vt -7.7700 7.7700
vt -7.7700 0.0000
vt -6.2300 0.0000
vt -6.2300 1.6000
vt -7.7700 1.6000
vt -6.2300 0.0000
vt -7.7700 0.0000
vt -7.7700 1.6000
vt -6.2300 1.6000
vt 6.2300 0.0000
vt 7.7700 0.0000
vt 7.7700 1.6000
vt 6.2300 1.6000
vt 7.7700 0.0000
vt 6.2300 0.0000
vt 6.2300 1.6000
vt 7.7700 1.6000
vt -4.9700 6.2300
vt -4.9700 7.7700
vt -3.4300 7.7700
vt -3.4300 6.2300
vt -4.9700 6.2300
vt -3.4300 6.2300
vt -3.4300 7.7700
vt -4.9700 7.7700
vt -4.9700 0.0000
vt -3.4300 0.0000
vt -3.4300 1.6000
vt -4.9700 1.6000
vt -3.4300 0.0000
vt -4.9700 0.0000
vt -4.9700 1.6000
vt -3.4300 1.6000
vt 6.2300 0.0000
vt 7.7700 0.0000
vt 7.7700 1.6000
vt 6.2300 1.6000
vt 7.7700 0.0000
vt 6.2300 0.0000
vt 6.2300 1.6000
vt 7.7700 1.6000
vt -2.1700 6.2300
vt -2.1700 7.7700
vt -0.6300 7.7700
vt -0.6300 6.2300
vt -2.1700 6.2300
vt -0.6300 6.2300
vt -0.6300 7.7700
vt -2.1700 7.7700
vt -2.1700 0.0000
vt -0.6300 0.0000
vt -0.6300 1.6000
vt -2.1700 1.6000
vt -0.6300 0.0000
vt -2.1700 0.0000
vt -2.1700 1.6000
vt -0.6300 1.6000
vt 6.2300 0.0000
vt 7.7700 0.0000
vt 7.7700 1.6000
vt 6.2300 1.6000
vt 7.7700 0.0000
vt 6.2300 0.0000
vt 6.2300 1.6000
vt 7.7700 1.6000
vt 0.6300 6.2300
vt 0.6300 7.7700
vt 2.1700 7.7700
vt 2.1700 6.2300
vt 0.6300 6.2300
vt 2.1700 6.2300
vt 2.1700 7.7700
vt 0.6300 7.7700
vt 0.6300 0.0000
vt 2.1700 0.0000
vt 2.1700 1.6000
vt 0.6300 1.6000
vt 2.1700 0.0000
vt 0.6300 0.0000
vt 0.6300 1.6000
vt 2.1700 1.6000
vt 6.2300 0.0000
vt 7.7700 0.0000
vt 7.7700 1.6000
vt 6.2300 1.6000
vt 7.7700 0.0000
vt 6.2300 0.0000
vt 6.2300 1.6000
vt 7.7700 1.6000
vt 3.4300 6.2300
vt 3.4300 7.7700
vt 4.9700 7.7700
vt 4.9700 6.2300
vt 3.4300 6.2300
vt 4.9700 6.2300
vt 4.9700 7.7700
vt 3.4300 7.7700
vt 3.4300 0.0000
vt 4.9700 0.0000
vt 4.9700 1.6000
vt 3.4300 1.6000
vt 4.9700 0.0000
vt 3.4300 0.0000
vt 3.4300 1.6000
vt 4.9700 1.6000
vt 6.2300 0.0000
vt 7.7700 0.0000
vt 7.7700 1.6000
vt 6.2300 1.6000
vt 7.7700 0.0000
vt 6.2300 0.0000
vt 6.2300 1.6000
vt 7.7700 1.6000
vt 6.2300 6.2300
vt 6.2300 7.7700
vt 7.7700 7.7700
vt 7.7700 6.2300
vt 6.2300 6.2300
vt 7.7700 6.2300
vt 7.7700 7.7700
vt 6.2300 7.7700
vt 6.2300 0.0000
vt 7.7700 0.0000
vt 7.7700 1.6000
vt 6.2300 1.6000
vt 7.7700 0.0000
vt 6.2300 0.0000
vt 6.2300 1.6000
vt 7.7700 1.6000
vt 6.2300 0.0000
vt 7.7700 0.0000
vt 7.7700 1.6000
vt 6.2300 1.6000
vt 7.7700 0.0000
vt 6.2300 0.0000
vt 6.2300 1.6000
vt 7.7700 1.6000
vt -5.9800 -5.7200
vt -5.9800 -5.4800
vt -5.2200 -5.4800
vt -5.2200 -5.7200
vt -5.9800 -5.7200
vt -5.2200 -5.7200
vt -5.2200 -5.4800
vt -5.9800 -5.4800
vt -5.9800 1.5640
vt -5.2200 1.5640
vt -5.2200 1.5960
vt -5.9800 1.5960
vt -5.2200 1.5640
vt -5.9800 1.5640
vt -5.9800 1.5960
vt -5.2200 1.5960
vt -5.7200 1.5640
vt -5.4800 1.5640
vt -5.4800 1.5960
vt -5.7200 1.5960
vt -5.4800 1.5640
vt -5.7200 1.5640
vt -5.7200 1.5960
vt -5.4800 1.5960
vt -3.1800 -5.7200
vt -3.1800 -5.4800
vt -2.4200 -5.4800
vt -2.4200 -5.7200
vt -3.1800 -5.7200
vt -2.4200 -5.7200
vt -2.4200 -5.4800
vt -3.1800 -5.4800
vt -3.1800 1.5640
vt -2.4200 1.5640
vt -2.4200 1.5960
vt -3.1800 1.5960
vt -2.4200 1.5640
vt -3.1800 1.5640
vt -3.1800 1.5960
vt -2.4200 1.5960
vt -5.7200 1.5640
vt -5.4800 1.5640
vt -5.4800 1.5960
vt -5.7200 1.5960
vt -5.4800 1.5640
vt -5.7200 1.5640
vt -5.7200 1.5960
vt -5.4800 1.5960
vt -5.9800 -2.9200
vt -5.9800 -2.6800
vt -5.2200 -2.6800
vt -5.2200 -2.9200
vt -5.9800 -2.9200
vt -5.2200 -2.9200
vt -5.2200 -2.6800
vt -5.9800 -2.6800
vt -5.9800 1.5640
vt -5.2200 1.5640
vt -5.2200 1.5960
vt -5.9800 1.5960
vt -5.2200 1.5640
vt -5.9800 1.5640
vt -5.9800 1.5960
vt -5.2200 1.5960
vt -2.9200 1.5640
vt -2.6800 1.5640
vt -2.6800 1.5960
vt -2.9200 1.5960
vt -2.6800 1.5640
vt -2.9200 1.5640
vt -2.9200 1.5960
vt -2.6800 1.5960
vt 8.0200 -2.9200
vt 8.0200 -2.6800
vt 8.7800 -2.6800
vt 8.7800 -2.9200
vt 8.0200 -2.9200
vt 8.7800 -2.9200
vt 8.7800 -2.6800
vt 8.0200 -2.6800
vt 8.0200 1.5640
vt 8.7800 1.5640
vt 8.7800 1.5960
vt 8.0200 1.5960
vt 8.7800 1.5640
vt 8.0200 1.5640
vt 8.0200 1.5960
vt 8.7800 1.5960
vt -2.9200 1.5640
vt -2.6800 1.5640
vt -2.6800 1.5960
vt -2.9200 1.5960
vt -2.6800 1.5640
vt -2.9200 1.5640
vt -2.9200 1.5960
vt -2.6800 1.5960
vt -0.3800 -0.1200
vt -0.3800 0.1200
vt 0.3800 0.1200
vt 0.3800 -0.1200
vt -0.3800 -0.1200
vt 0.3800 -0.1200
vt 0.3800 0.1200
vt -0.3800 0.1200
vt -0.3800 1.5640
vt 0.3800 1.5640
vt 0.3800 1.5960
vt -0.3800 1.5960
vt 0.3800 1.5640
vt -0.3800 1.5640
vt -0.3800 1.5960
vt 0.3800 1.5960
vt -0.1200 1.5640
vt 0.1200 1.5640
vt 0.1200 1.5960
vt -0.1200 1.5960
vt 0.1200 1.5640
vt -0.1200 1.5640
vt -0.1200 1.5960
vt 0.1200 1.5960
vt 5.2200 -0.1200
vt 5.2200 0.1200
vt 5.9800 0.1200
vt 5.9800 -0.1200
vt 5.2200 -0.1200
vt 5.9800 -0.1200
vt 5.9800 0.1200
vt 5.2200 0.1200
vt 5.2200 1.5640
vt 5.9800 1.5640
vt 5.9800 1.5960
vt 5.2200 1.5960
vt 5.9800 1.5640
vt 5.2200 1.5640
vt 5.2200 1.5960
vt 5.9800 1.5960
vt -0.1200 1.5640
vt 0.1200 1.5640
vt 0.1200 1.5960
vt -0.1200 1.5960
vt 0.1200 1.5640
vt -0.1200 1.5640
vt -0.1200 1.5960
vt 0.1200 1.5960
vt -5.9800 2.6800
vt -5.9800 2.9200
vt -5.2200 2.9200
vt -5.2200 2.6800
vt -5.9800 2.6800
vt -5.2200 2.6800
vt -5.2200 2.9200
vt -5.9800 2.9200
vt -5.9800 1.5640
vt -5.2200 1.5640
vt -5.2200 1.5960
vt -5.9800 1.5960
vt -5.2200 1.5640
vt -5.9800 1.5640
vt -5.9800 1.5960
vt -5.2200 1.5960
vt 2.6800 1.5640
vt 2.9200 1.5640
vt 2.9200 1.5960
vt 2.6800 1.5960
vt 2.9200 1.5640
vt 2.6800 1.5640
vt 2.6800 1.5960
vt 2.9200 1.5960
vt -3.1800 2.6800
vt -3.1800 2.9200
vt -2.4200 2.9200
vt -2.4200 2.6800
vt -3.1800 2.6800
vt -2.4200 2.6800
vt -2.4200 2.9200
vt -3.1800 2.9200
vt -3.1800 1.5640
vt -2.4200 1.5640
vt -2.4200 1.5960
vt -3.1800 1.5960
vt -2.4200 1.5640
vt -3.1800 1.5640
vt -3.1800 1.5960
vt -2.4200 1.5960
vt 2.6800 1.5640
vt 2.9200 1.5640
vt 2.9200 1.5960
vt 2.6800 1.5960
vt 2.9200 1.5640
vt 2.6800 1.5640
vt 2.6800 1.5960
vt 2.9200 1.5960
vt 2.4200 2.6800
vt 2.4200 2.9200
vt 3.1800 2.9200
vt 3.1800 2.6800
vt 2.4200 2.6800
vt 3.1800 2.6800
vt 3.1800 2.9200
vt 2.4200 2.9200
vt 2.4200 1.5640
vt 3.1800 1.5640
vt 3.1800 1.5960
vt 2.4200 1.5960
vt 3.1800 1.5640
vt 2.4200 1.5640
vt 2.4200 1.5960
vt 3.1800 1.5960
vt 2.6800 1.5640
vt 2.9200 1.5640
vt 2.9200 1.5960
vt 2.6800 1.5960
vt 2.9200 1.5640
vt 2.6800 1.5640
vt 2.6800 1.5960
vt 2.9200 1.5960
vt -5.9800 5.4800
vt -5.9800 5.7200
vt -5.2200 5.7200
vt -5.2200 5.4800
vt -5.9800 5.4800
vt -5.2200 5.4800
vt -5.2200 5.7200
vt -5.9800 5.7200
vt -5.9800 1.5640
vt -5.2200 1.5640
vt -5.2200 1.5960
vt -5.9800 1.5960
vt -5.2200 1.5640
vt -5.9800 1.5640
vt -5.9800 1.5960
vt -5.2200 1.5960
vt 5.4800 1.5640
vt 5.7200 1.5640
vt 5.7200 1.5960
vt 5.4800 1.5960
vt 5.7200 1.5640
vt 5.4800 1.5640
vt 5.4800 1.5960
vt 5.7200 1.5960
vt -3.1800 5.4800
vt -3.1800 5.7200
vt -2.4200 5.7200
vt -2.4200 5.4800
vt -3.1800 5.4800
vt -2.4200 5.4800
vt -2.4200 5.7200
vt -3.1800 5.7200
vt -3.1800 1.5640
vt -2.4200 1.5640
vt -2.4200 1.5960
vt -3.1800 1.5960
vt -2.4200 1.5640
vt -3.1800 1.5640
vt -3.1800 1.5960
vt -2.4200 1.5960
vt 5.4800 1.5640
vt 5.7200 1.5640
vt 5.7200 1.5960
vt 5.4800 1.5960
vt 5.7200 1.5640
vt 5.4800 1.5640
vt 5.4800 1.5960
vt 5.7200 1.5960
vt -0.3800 5.4800
vt -0.3800 5.7200
vt 0.3800 5.7200
vt 0.3800 5.4800
vt -0.3800 5.4800
vt 0.3800 5.4800
vt 0.3800 5.7200
vt -0.3800 5.7200
vt -0.3800 1.5640
vt 0.3800 1.5640
vt 0.3800 1.5960
vt -0.3800 1.5960
vt 0.3800 1.5640
vt -0.3800 1.5640
vt -0.3800 1.5960
vt 0.3800 1.5960
vt 5.4800 1.5640
vt 5.7200 1.5640
vt 5.7200 1.5960
vt 5.4800 1.5960
vt 5.7200 1.5640
vt 5.4800 1.5640
vt 5.4800 1.5960
vt 5.7200 1.5960
vt -0.3800 8.2800
vt -0.3800 8.5200
vt 0.3800 8.5200
vt 0.3800 8.2800
vt -0.3800 8.2800
vt 0.3800 8.2800
vt 0.3800 8.5200
vt -0.3800 8.5200
vt -0.3800 1.5640
vt 0.3800 1.5640
vt 0.3800 1.5960
vt -0.3800 1.5960
vt 0.3800 1.5640
vt -0.3800 1.5640
vt -0.3800 1.5960
vt 0.3800 1.5960
vt 8.2800 1.5640
vt 8.5200 1.5640
vt 8.5200 1.5960
vt 8.2800 1.5960
vt 8.5200 1.5640
vt 8.2800 1.5640
vt 8.2800 1.5960
vt 8.5200 1.5960
vt 2.4200 8.2800
vt 2.4200 8.5200
vt 3.1800 8.5200
vt 3.1800 8.2800
vt 2.4200 8.2800
vt 3.1800 8.2800
vt 3.1800 8.5200
vt 2.4200 8.5200
vt 2.4200 1.5640
vt 3.1800 1.5640
vt 3.1800 1.5960
vt 2.4200 1.5960
vt 3.1800 1.5640
vt 2.4200 1.5640
vt 2.4200 1.5960
vt 3.1800 1.5960
vt 8.2800 1.5640
vt 8.5200 1.5640
vt 8.5200 1.5960
vt 8.2800 1.5960
vt 8.5200 1.5640
vt 8.2800 1.5640
vt 8.2800 1.5960
vt 8.5200 1.5960
usemtl lamp_cold
f 1105 1108 1107 1106
f 1109 1110 1111 1112
f 1105 1106 1110 1109
f 1107 1108 1112 1111
f 1106 1107 1111 1110
f 1108 1105 1109 1112
f 1137 1140 1139 1138
f 1141 1142 1143 1144
f 1137 1138 1142 1141
f 1139 1140 1144 1143
f 1138 1139 1143 1142
f 1140 1137 1141 1144
f 1169 1172 1171 1170
f 1173 1174 1175 1176
f 1169 1170 1174 1173
f 1171 1172 1176 1175
f 1170 1171 1175 1174
f 1172 1169 1173 1176
f 1201 1204 1203 1202
f 1205 1206 1207 1208
f 1201 1202 1206 1205
f 1203 1204 1208 1207
f 1202 1203 1207 1206
f 1204 1201 1205 1208
f 1233 1236 1235 1234
f 1237 1238 1239 1240
f 1233 1234 1238 1237
f 1235 1236 1240 1239
f 1234 1235 1239 1238
f 1236 1233 1237 1240
f 1265 1268 1267 1266
f 1269 1270 1271 1272
f 1265 1266 1270 1269
f 1267 1268 1272 1271
f 1266 1267 1271 1270
f 1268 1265 1269 1272
f 1297 1300 1299 1298
f 1301 1302 1303 1304
f 1297 1298 1302 1301
f 1299 1300 1304 1303
f 1298 1299 1303 1302
f 1300 1297 1301 1304
f 1329 1332 1331 1330
f 1333 1334 1335 1336
f 1329 1330 1334 1333
f 1331 1332 1336 1335
f 1330 1331 1335 1334
f 1332 1329 1333 1336
f 1361 1364 1363 1362
f 1365 1366 1367 1368
f 1361 1362 1366 1365
f 1363 1364 1368 1367
f 1362 1363 1367 1366
f 1364 1361 1365 1368
f 1393 1396 1395 1394
f 1397 1398 1399 1400
f 1393 1394 1398 1397
f 1395 1396 1400 1399
f 1394 1395 1399 1398
f 1396 1393 1397 1400
f 1425 1428 1427 1426
f 1429 1430 1431 1432
f 1425 1426 1430 1429
f 1427 1428 1432 1431
f 1426 1427 1431 1430
f 1428 1425 1429 1432
f 1457 1460 1459 1458
f 1461 1462 1463 1464
f 1457 1458 1462 1461
f 1459 1460 1464 1463
f 1458 1459 1463 1462
f 1460 1457 1461 1464
f 1489 1492 1491 1490
f 1493 1494 1495 1496
f 1489 1490 1494 1493
f 1491 1492 1496 1495
f 1490 1491 1495 1494
f 1492 1489 1493 1496
f 1521 1524 1523 1522
f 1525 1526 1527 1528
f 1521 1522 1526 1525
f 1523 1524 1528 1527
f 1522 1523 1527 1526
f 1524 1521 1525 1528
usemtl concrete
f 1/1 2/2 3/3 4/4
f 5/5 6/6 7/7 8/8
f 9/9 10/10 11/11 12/12
f 13/13 14/14 15/15 16/16
f 17/17 18/18 19/19 20/20
f 21/21 22/22 23/23 24/24
f 25/25 26/26 27/27 28/28
f 29/29 30/30 31/31 32/32
f 33/33 34/34 35/35 36/36
f 37/37 38/38 39/39 40/40
f 41/41 42/42 43/43 44/44
f 45/45 46/46 47/47 48/48
usemtl concrete_dark
f 49/49 50/50 51/51 52/52
f 53/53 54/54 55/55 56/56
f 57/57 58/58 59/59 60/60
f 61/61 62/62 63/63 64/64
f 65/65 66/66 67/67 68/68
f 69/69 70/70 71/71 72/72
usemtl concrete
f 73/73 74/74 75/75 76/76
f 77/77 78/78 79/79 80/80
f 81/81 82/82 83/83 84/84
f 85/85 86/86 87/87 88/88
f 89/89 90/90 91/91 92/92
f 93/93 94/94 95/95 96/96
f 97/97 98/98 99/99 100/100
f 101/101 102/102 103/103 104/104
f 105/105 106/106 107/107 108/108
f 109/109 110/110 111/111 112/112
f 113/113 114/114 115/115 116/116
f 117/117 118/118 119/119 120/120
f 121/121 122/122 123/123 124/124
f 125/125 126/126 127/127 128/128
f 129/129 130/130 131/131 132/132
f 133/133 134/134 135/135 136/136
f 137/137 138/138 139/139 140/140
f 141/141 142/142 143/143 144/144
f 145/145 146/146 147/147 148/148
f 149/149 150/150 151/151 152/152
f 153/153 154/154 155/155 156/156
f 157/157 158/158 159/159 160/160
f 161/161 162/162 163/163 164/164
f 165/165 166/166 167/167 168/168
usemtl concrete_dark
f 169/169 170/170 171/171 172/172
f 173/173 174/174 175/175 176/176
f 177/177 178/178 179/179 180/180
f 181/181 182/182 183/183 184/184
f 185/185 186/186 187/187 188/188
f 189/189 190/190 191/191 192/192
f 193/193 194/194 195/195 196/196
f 197/197 198/198 199/199 200/200
f 201/201 202/202 203/203 204/204
f 205/205 206/206 207/207 208/208
f 209/209 210/210 211/211 212/212
f 213/213 214/214 215/215 216/216
usemtl concrete
f 217/217 218/218 219/219 220/220
f 221/221 222/222 223/223 224/224
f 225/225 226/226 227/227 228/228
f 229/229 230/230 231/231 232/232
f 233/233 234/234 235/235 236/236
f 237/237 238/238 239/239 240/240
usemtl concrete_dark
f 241/241 242/242 243/243 244/244
f 245/245 246/246 247/247 248/248
f 249/249 250/250 251/251 252/252
f 253/253 254/254 255/255 256/256
f 257/257 258/258 259/259 260/260
f 261/261 262/262 263/263 264/264
usemtl concrete
f 265/265 266/266 267/267 268/268
f 269/269 270/270 271/271 272/272
f 273/273 274/274 275/275 276/276
f 277/277 278/278 279/279 280/280
f 281/281 282/282 283/283 284/284
f 285/285 286/286 287/287 288/288
f 289/289 290/290 291/291 292/292
f 293/293 294/294 295/295 296/296
f 297/297 298/298 299/299 300/300
f 301/301 302/302 303/303 304/304
f 305/305 306/306 307/307 308/308
f 309/309 310/310 311/311 312/312
f 313/313 314/314 315/315 316/316
f 317/317 318/318 319/319 320/320
f 321/321 322/322 323/323 324/324
f 325/325 326/326 327/327 328/328
f 329/329 330/330 331/331 332/332
f 333/333 334/334 335/335 336/336
f 337/337 338/338 339/339 340/340
f 341/341 342/342 343/343 344/344
f 345/345 346/346 347/347 348/348
f 349/349 350/350 351/351 352/352
f 353/353 354/354 355/355 356/356
f 357/357 358/358 359/359 360/360
f 361/361 362/362 363/363 364/364
f 365/365 366/366 367/367 368/368
f 369/369 370/370 371/371 372/372
f 373/373 374/374 375/375 376/376
f 377/377 378/378 379/379 380/380
f 381/381 382/382 383/383 384/384
f 385/385 386/386 387/387 388/388
f 389/389 390/390 391/391 392/392
f 393/393 394/394 395/395 396/396
f 397/397 398/398 399/399 400/400
f 401/401 402/402 403/403 404/404
f 405/405 406/406 407/407 408/408
f 409/409 410/410 411/411 412/412
f 413/413 414/414 415/415 416/416
f 417/417 418/418 419/419 420/420
f 421/421 422/422 423/423 424/424
f 425/425 426/426 427/427 428/428
f 429/429 430/430 431/431 432/432
usemtl concrete_dark
f 433/433 434/434 435/435 436/436
f 437/437 438/438 439/439 440/440
f 441/441 442/442 443/443 444/444
f 445/445 446/446 447/447 448/448
f 449/449 450/450 451/451 452/452
f 453/453 454/454 455/455 456/456
usemtl concrete
f 457/457 458/458 459/459 460/460
f 461/461 462/462 463/463 464/464
f 465/465 466/466 467/467 468/468
f 469/469 470/470 471/471 472/472
f 473/473 474/474 475/475 476/476
f 477/477 478/478 479/479 480/480
f 481/481 482/482 483/483 484/484
f 485/485 486/486 487/487 488/488
f 489/489 490/490 491/491 492/492
f 493/493 494/494 495/495 496/496
f 497/497 498/498 499/499 500/500
f 501/501 502/502 503/503 504/504
f 505/505 506/506 507/507 508/508
f 509/509 510/510 511/511 512/512
f 513/513 514/514 515/515 516/516
f 517/517 518/518 519/519 520/520
f 521/521 522/522 523/523 524/524
f 525/525 526/526 527/527 528/528
f 529/529 530/530 531/531 532/532
f 533/533 534/534 535/535 536/536
f 537/537 538/538 539/539 540/540
f 541/541 542/542 543/543 544/544
f 545/545 546/546 547/547 548/548
f 549/549 550/550 551/551 552/552
f 553/553 554/554 555/555 556/556
f 557/557 558/558 559/559 560/560
f 561/561 562/562 563/563 564/564
f 565/565 566/566 567/567 568/568
f 569/569 570/570 571/571 572/572
f 573/573 574/574 575/575 576/576
f 577/577 578/578 579/579 580/580
f 581/581 582/582 583/583 584/584
f 585/585 586/586 587/587 588/588
f 589/589 590/590 591/591 592/592
f 593/593 594/594 595/595 596/596
f 597/597 598/598 599/599 600/600
f 601/601 602/602 603/603 604/604
f 605/605 606/606 607/607 608/608
f 609/609 610/610 611/611 612/612
f 613/613 614/614 615/615 616/616
f 617/617 618/618 619/619 620/620
f 621/621 622/622 623/623 624/624
f 625/625 626/626 627/627 628/628
f 629/629 630/630 631/631 632/632
f 633/633 634/634 635/635 636/636
f 637/637 638/638 639/639 640/640
f 641/641 642/642 643/643 644/644
f 645/645 646/646 647/647 648/648
f 649/649 650/650 651/651 652/652
f 653/653 654/654 655/655 656/656
f 657/657 658/658 659/659 660/660
f 661/661 662/662 663/663 664/664
f 665/665 666/666 667/667 668/668
f 669/669 670/670 671/671 672/672
f 673/673 674/674 675/675 676/676
f 677/677 678/678 679/679 680/680
f 681/681 682/682 683/683 684/684
f 685/685 686/686 687/687 688/688
f 689/689 690/690 691/691 692/692
f 693/693 694/694 695/695 696/696
f 697/697 698/698 699/699 700/700
f 701/701 702/702 703/703 704/704
f 705/705 706/706 707/707 708/708
f 709/709 710/710 711/711 712/712
f 713/713 714/714 715/715 716/716
f 717/717 718/718 719/719 720/720
f 721/721 722/722 723/723 724/724
f 725/725 726/726 727/727 728/728
f 729/729 730/730 731/731 732/732
f 733/733 734/734 735/735 736/736
f 737/737 738/738 739/739 740/740
f 741/741 742/742 743/743 744/744
f 745/745 746/746 747/747 748/748
f 749/749 750/750 751/751 752/752
f 753/753 754/754 755/755 756/756
f 757/757 758/758 759/759 760/760
f 761/761 762/762 763/763 764/764
f 765/765 766/766 767/767 768/768
usemtl concrete_dark
f 769/769 770/770 771/771 772/772
f 773/773 774/774 775/775 776/776
f 777/777 778/778 779/779 780/780
f 781/781 782/782 783/783 784/784
f 785/785 786/786 787/787 788/788
f 789/789 790/790 791/791 792/792
usemtl concrete
f 793/793 794/794 795/795 796/796
f 797/797 798/798 799/799 800/800
f 801/801 802/802 803/803 804/804
f 805/805 806/806 807/807 808/808
f 809/809 810/810 811/811 812/812
f 813/813 814/814 815/815 816/816
f 817/817 818/818 819/819 820/820
f 821/821 822/822 823/823 824/824
f 825/825 826/826 827/827 828/828
f 829/829 830/830 831/831 832/832
f 833/833 834/834 835/835 836/836
f 837/837 838/838 839/839 840/840
usemtl concrete_dark
f 841/841 842/842 843/843 844/844
f 845/845 846/846 847/847 848/848
f 849/849 850/850 851/851 852/852
f 853/853 854/854 855/855 856/856
f 857/857 858/858 859/859 860/860
f 861/861 862/862 863/863 864/864
usemtl concrete
f 865/865 866/866 867/867 868/868
f 869/869 870/870 871/871 872/872
f 873/873 874/874 875/875 876/876
f 877/877 878/878 879/879 880/880
f 881/881 882/882 883/883 884/884
f 885/885 886/886 887/887 888/888
f 889/889 890/890 891/891 892/892
f 893/893 894/894 895/895 896/896
f 897/897 898/898 899/899 900/900
f 901/901 902/902 903/903 904/904
f 905/905 906/906 907/907 908/908
f 909/909 910/910 911/911 912/912
f 913/913 914/914 915/915 916/916
f 917/917 918/918 919/919 920/920
f 921/921 922/922 923/923 924/924
f 925/925 926/926 927/927 928/928
f 929/929 930/930 931/931 932/932
f 933/933 934/934 935/935 936/936
f 937/937 938/938 939/939 940/940
f 941/941 942/942 943/943 944/944
f 945/945 946/946 947/947 948/948
f 949/949 950/950 951/951 952/952
f 953/953 954/954 955/955 956/956
f 957/957 958/958 959/959 960/960
f 961/961 962/962 963/963 964/964
f 965/965 966/966 967/967 968/968
f 969/969 970/970 971/971 972/972
f 973/973 974/974 975/975 976/976
f 977/977 978/978 979/979 980/980
f 981/981 982/982 983/983 984/984
f 985/985 986/986 987/987 988/988
f 989/989 990/990 991/991 992/992
f 993/993 994/994 995/995 996/996
f 997/997 998/998 999/999 1000/1000
f 1001/1001 1002/1002 1003/1003 1004/1004
f 1005/1005 1006/1006 1007/1007 1008/1008
f 1009/1009 1010/1010 1011/1011 1012/1012
f 1013/1013 1014/1014 1015/1015 1016/1016
f 1017/1017 1018/1018 1019/1019 1020/1020
f 1021/1021 1022/1022 1023/1023 1024/1024
f 1025/1025 1026/1026 1027/1027 1028/1028
f 1029/1029 1030/1030 1031/1031 1032/1032
usemtl concrete_dark
f 1033/1033 1034/1034 1035/1035 1036/1036
f 1037/1037 1038/1038 1039/1039 1040/1040
f 1041/1041 1042/1042 1043/1043 1044/1044
f 1045/1045 1046/1046 1047/1047 1048/1048
f 1049/1049 1050/1050 1051/1051 1052/1052
f 1053/1053 1054/1054 1055/1055 1056/1056
f 1057/1057 1058/1058 1059/1059 1060/1060
f 1061/1061 1062/1062 1063/1063 1064/1064
f 1065/1065 1066/1066 1067/1067 1068/1068
f 1069/1069 1070/1070 1071/1071 1072/1072
f 1073/1073 1074/1074 1075/1075 1076/1076
f 1077/1077 1078/1078 1079/1079 1080/1080
usemtl concrete
f 1081/1081 1082/1082 1083/1083 1084/1084
f 1085/1085 1086/1086 1087/1087 1088/1088
f 1089/1089 1090/1090 1091/1091 1092/1092
f 1093/1093 1094/1094 1095/1095 1096/1096
f 1097/1097 1098/1098 1099/1099 1100/1100
f 1101/1101 1102/1102 1103/1103 1104/1104
usemtl concrete_dark
f 1113/1105 1114/1106 1115/1107 1116/1108
f 1117/1109 1118/1110 1119/1111 1120/1112
f 1121/1113 1122/1114 1123/1115 1124/1116
f 1125/1117 1126/1118 1127/1119 1128/1120
f 1129/1121 1130/1122 1131/1123 1132/1124
f 1133/1125 1134/1126 1135/1127 1136/1128
f 1145/1129 1146/1130 1147/1131 1148/1132
f 1149/1133 1150/1134 1151/1135 1152/1136
f 1153/1137 1154/1138 1155/1139 1156/1140
f 1157/1141 1158/1142 1159/1143 1160/1144
f 1161/1145 1162/1146 1163/1147 1164/1148
f 1165/1149 1166/1150 1167/1151 1168/1152
f 1177/1153 1178/1154 1179/1155 1180/1156
f 1181/1157 1182/1158 1183/1159 1184/1160
f 1185/1161 1186/1162 1187/1163 1188/1164
f 1189/1165 1190/1166 1191/1167 1192/1168
f 1193/1169 1194/1170 1195/1171 1196/1172
f 1197/1173 1198/1174 1199/1175 1200/1176
f 1209/1177 1210/1178 1211/1179 1212/1180
f 1213/1181 1214/1182 1215/1183 1216/1184
f 1217/1185 1218/1186 1219/1187 1220/1188
f 1221/1189 1222/1190 1223/1191 1224/1192
f 1225/1193 1226/1194 1227/1195 1228/1196
f 1229/1197 1230/1198 1231/1199 1232/1200
f 1241/1201 1242/1202 1243/1203 1244/1204
f 1245/1205 1246/1206 1247/1207 1248/1208
f 1249/1209 1250/1210 1251/1211 1252/1212
f 1253/1213 1254/1214 1255/1215 1256/1216
f 1257/1217 1258/1218 1259/1219 1260/1220
f 1261/1221 1262/1222 1263/1223 1264/1224
f 1273/1225 1274/1226 1275/1227 1276/1228
f 1277/1229 1278/1230 1279/1231 1280/1232
f 1281/1233 1282/1234 1283/1235 1284/1236
f 1285/1237 1286/1238 1287/1239 1288/1240
f 1289/1241 1290/1242 1291/1243 1292/1244
f 1293/1245 1294/1246 1295/1247 1296/1248
f 1305/1249 1306/1250 1307/1251 1308/1252
f 1309/1253 1310/1254 1311/1255 1312/1256
f 1313/1257 1314/1258 1315/1259 1316/1260
f 1317/1261 1318/1262 1319/1263 1320/1264
f 1321/1265 1322/1266 1323/1267 1324/1268
f 1325/1269 1326/1270 1327/1271 1328/1272
f 1337/1273 1338/1274 1339/1275 1340/1276
f 1341/1277 1342/1278 1343/1279 1344/1280
f 1345/1281 1346/1282 1347/1283 1348/1284
f 1349/1285 1350/1286 1351/1287 1352/1288
f 1353/1289 1354/1290 1355/1291 1356/1292
f 1357/1293 1358/1294 1359/1295 1360/1296
f 1369/1297 1370/1298 1371/1299 1372/1300
f 1373/1301 1374/1302 1375/1303 1376/1304
f 1377/1305 1378/1306 1379/1307 1380/1308
f 1381/1309 1382/1310 1383/1311 1384/1312
f 1385/1313 1386/1314 1387/1315 1388/1316
f 1389/1317 1390/1318 1391/1319 1392/1320
f 1401/1321 1402/1322 1403/1323 1404/1324
f 1405/1325 1406/1326 1407/1327 1408/1328
f 1409/1329 1410/1330 1411/1331 1412/1332
f 1413/1333 1414/1334 1415/1335 1416/1336
f 1417/1337 1418/1338 1419/1339 1420/1340
f 1421/1341 1422/1342 1423/1343 1424/1344
f 1433/1345 1434/1346 1435/1347 1436/1348
f 1437/1349 1438/1350 1439/1351 1440/1352
f 1441/1353 1442/1354 1443/1355 1444/1356
f 1445/1357 1446/1358 1447/1359 1448/1360
f 1449/1361 1450/1362 1451/1363 1452/1364
f 1453/1365 1454/1366 1455/1367 1456/1368
f 1465/1369 1466/1370 1467/1371 1468/1372
f 1469/1373 1470/1374 1471/1375 1472/1376
f 1473/1377 1474/1378 1475/1379 1476/1380
f 1477/1381 1478/1382 1479/1383 1480/1384
f 1481/1385 1482/1386 1483/1387 1484/1388
f 1485/1389 1486/1390 1487/1391 1488/1392
f 1497/1393 1498/1394 1499/1395 1500/1396
f 1501/1397 1502/1398 1503/1399 1504/1400
f 1505/1401 1506/1402 1507/1403 1508/1404
f 1509/1405 1510/1406 1511/1407 1512/1408
f 1513/1409 1514/1410 1515/1411 1516/1412
f 1517/1413 1518/1414 1519/1415 1520/1416
f 1529/1417 1530/1418 1531/1419 1532/1420
f 1533/1421 1534/1422 1535/1423 1536/1424
f 1537/1425 1538/1426 1539/1427 1540/1428
f 1541/1429 1542/1430 1543/1431 1544/1432
f 1545/1433 1546/1434 1547/1435 1548/1436
f 1549/1437 1550/1438 1551/1439 1552/1440
