# RoastEngine Backrooms level
mtllib backrooms.mtl
v -434.6750 0.0000 31.3250
v -434.6750 0.0000 34.6750
v -431.3250 0.0000 34.6750
v -431.3250 0.0000 31.3250
v -434.6750 3.2000 31.3250
v -431.3250 3.2000 31.3250
v -431.3250 3.2000 34.6750
v -434.6750 3.2000 34.6750
v -434.6750 0.0000 31.3250
v -431.3250 0.0000 31.3250
v -431.3250 3.2000 31.3250
v -434.6750 3.2000 31.3250
v -431.3250 0.0000 34.6750
v -434.6750 0.0000 34.6750
v -434.6750 3.2000 34.6750
v -431.3250 3.2000 34.6750
v -431.3250 0.0000 31.3250
v -431.3250 0.0000 34.6750
v -431.3250 3.2000 34.6750
v -431.3250 3.2000 31.3250
v -434.6750 0.0000 34.6750
v -434.6750 0.0000 31.3250
v -434.6750 3.2000 31.3250
v -434.6750 3.2000 34.6750
v -422.6750 0.0000 31.3250
v -422.6750 0.0000 34.6750
v -419.3250 0.0000 34.6750
v -419.3250 0.0000 31.3250
v -422.6750 3.2000 31.3250
v -419.3250 3.2000 31.3250
v -419.3250 3.2000 34.6750
v -422.6750 3.2000 34.6750
v -422.6750 0.0000 31.3250
v -419.3250 0.0000 31.3250
v -419.3250 3.2000 31.3250
v -422.6750 3.2000 31.3250
v -419.3250 0.0000 34.6750
v -422.6750 0.0000 34.6750
v -422.6750 3.2000 34.6750
v -419.3250 3.2000 34.6750
v -419.3250 0.0000 31.3250
v -419.3250 0.0000 34.6750
v -419.3250 3.2000 34.6750
v -419.3250 3.2000 31.3250
v -422.6750 0.0000 34.6750
v -422.6750 0.0000 31.3250
v -422.6750 3.2000 31.3250
v -422.6750 3.2000 34.6750
v -419.6750 0.0000 31.3250
v -419.6750 0.0000 34.6750
v -416.3250 0.0000 34.6750
v -416.3250 0.0000 31.3250
v -419.6750 3.2000 31.3250
v -416.3250 3.2000 31.3250
v -416.3250 3.2000 34.6750
v -419.6750 3.2000 34.6750
v -419.6750 0.0000 31.3250
v -416.3250 0.0000 31.3250
v -416.3250 3.2000 31.3250
v -419.6750 3.2000 31.3250
v -416.3250 0.0000 34.6750
v -419.6750 0.0000 34.6750
v -419.6750 3.2000 34.6750
v -416.3250 3.2000 34.6750
v -416.3250 0.0000 31.3250
v -416.3250 0.0000 34.6750
v -416.3250 3.2000 34.6750
v -416.3250 3.2000 31.3250
v -419.6750 0.0000 34.6750
v -419.6750 0.0000 31.3250
v -419.6750 3.2000 31.3250
v -419.6750 3.2000 34.6750
v -416.6750 0.0000 31.3250
v -416.6750 0.0000 34.6750
v -413.3250 0.0000 34.6750
v -413.3250 0.0000 31.3250
v -416.6750 3.2000 31.3250
v -413.3250 3.2000 31.3250
v -413.3250 3.2000 34.6750
v -416.6750 3.2000 34.6750
v -416.6750 0.0000 31.3250
v -413.3250 0.0000 31.3250
v -413.3250 3.2000 31.3250
v -416.6750 3.2000 31.3250
v -413.3250 0.0000 34.6750
v -416.6750 0.0000 34.6750
v -416.6750 3.2000 34.6750
v -413.3250 3.2000 34.6750
v -413.3250 0.0000 31.3250
v -413.3250 0.0000 34.6750
v -413.3250 3.2000 34.6750
v -413.3250 3.2000 31.3250
v -416.6750 0.0000 34.6750
v -416.6750 0.0000 31.3250
v -416.6750 3.2000 31.3250
v -416.6750 3.2000 34.6750
v -436.8000 3.0300 35.8250
v -435.2000 3.0300 35.8250
v -435.2000 3.0300 36.1750
v -436.8000 3.0300 36.1750
v -436.8000 3.1300 35.8250
v -435.2000 3.1300 35.8250
v -435.2000 3.1300 36.1750
v -436.8000 3.1300 36.1750
v -436.9500 3.1100 35.7000
v -436.9500 3.1100 36.3000
v -435.0500 3.1100 36.3000
v -435.0500 3.1100 35.7000
v -436.9500 3.1900 35.7000
v -435.0500 3.1900 35.7000
v -435.0500 3.1900 36.3000
v -436.9500 3.1900 36.3000
v -436.9500 3.1100 35.7000
v -435.0500 3.1100 35.7000
v -435.0500 3.1900 35.7000
v -436.9500 3.1900 35.7000
v -435.0500 3.1100 36.3000
v -436.9500 3.1100 36.3000
v -436.9500 3.1900 36.3000
v -435.0500 3.1900 36.3000
v -435.0500 3.1100 35.7000
v -435.0500 3.1100 36.3000
v -435.0500 3.1900 36.3000
v -435.0500 3.1900 35.7000
v -436.9500 3.1100 36.3000
v -436.9500 3.1100 35.7000
v -436.9500 3.1900 35.7000
v -436.9500 3.1900 36.3000
vt -289.7833 20.8833
vt -289.7833 23.1167
vt -287.5500 23.1167
vt -287.5500 20.8833
vt -289.7833 20.8833
vt -287.5500 20.8833
vt -287.5500 23.1167
vt -289.7833 23.1167
vt -289.7833 0.0000
vt -287.5500 0.0000
vt -287.5500 2.1333
vt -289.7833 2.1333
vt -287.5500 0.0000
vt -289.7833 0.0000
vt -289.7833 2.1333
vt -287.5500 2.1333
vt 20.8833 0.0000
vt 23.1167 0.0000
vt 23.1167 2.1333
vt 20.8833 2.1333
vt 23.1167 0.0000
vt 20.8833 0.0000
vt 20.8833 2.1333
vt 23.1167 2.1333
vt -281.7833 20.8833
vt -281.7833 23.1167
vt -279.5500 23.1167
vt -279.5500 20.8833
vt -281.7833 20.8833
vt -279.5500 20.8833
vt -279.5500 23.1167
vt -281.7833 23.1167
vt -281.7833 0.0000
vt -279.5500 0.0000
vt -279.5500 2.1333
vt -281.7833 2.1333
vt -279.5500 0.0000
vt -281.7833 0.0000
vt -281.7833 2.1333
vt -279.5500 2.1333
vt 20.8833 0.0000
vt 23.1167 0.0000
vt 23.1167 2.1333
vt 20.8833 2.1333
vt 23.1167 0.0000
vt 20.8833 0.0000
vt 20.8833 2.1333
vt 23.1167 2.1333
vt -279.7833 20.8833
vt -279.7833 23.1167
vt -277.5500 23.1167
vt -277.5500 20.8833
vt -279.7833 20.8833
vt -277.5500 20.8833
vt -277.5500 23.1167
vt -279.7833 23.1167
vt -279.7833 0.0000
vt -277.5500 0.0000
vt -277.5500 2.1333
vt -279.7833 2.1333
vt -277.5500 0.0000
vt -279.7833 0.0000
vt -279.7833 2.1333
vt -277.5500 2.1333
vt 20.8833 0.0000
vt 23.1167 0.0000
vt 23.1167 2.1333
vt 20.8833 2.1333
vt 23.1167 0.0000
vt 20.8833 0.0000
vt 20.8833 2.1333
vt 23.1167 2.1333
vt -277.7833 20.8833
vt -277.7833 23.1167
vt -275.5500 23.1167
vt -275.5500 20.8833
vt -277.7833 20.8833
vt -275.5500 20.8833
vt -275.5500 23.1167
vt -277.7833 23.1167
vt -277.7833 0.0000
vt -275.5500 0.0000
vt -275.5500 2.1333
vt -277.7833 2.1333
vt -275.5500 0.0000
vt -277.7833 0.0000
vt -277.7833 2.1333
vt -275.5500 2.1333
vt 20.8833 0.0000
vt 23.1167 0.0000
vt 23.1167 2.1333
vt 20.8833 2.1333
vt 23.1167 0.0000
vt 20.8833 0.0000
vt 20.8833 2.1333
vt 23.1167 2.1333
vt -358.1557 29.2623
vt -358.1557 29.7541
vt -356.5984 29.7541
vt -356.5984 29.2623
vt -358.1557 29.2623
vt -356.5984 29.2623
vt -356.5984 29.7541
vt -358.1557 29.7541
vt -358.1557 2.5492
vt -356.5984 2.5492
vt -356.5984 2.6148
vt -358.1557 2.6148
vt -356.5984 2.5492
vt -358.1557 2.5492
vt -358.1557 2.6148
vt -356.5984 2.6148
vt 29.2623 2.5492
vt 29.7541 2.5492
vt 29.7541 2.6148
vt 29.2623 2.6148
vt 29.7541 2.5492
vt 29.2623 2.5492
vt 29.2623 2.6148
vt 29.7541 2.6148
usemtl fluorescent
f 97 100 99 98
f 101 102 103 104
f 97 98 102 101
f 99 100 104 103
f 98 99 103 102
f 100 97 101 104
usemtl wallpaper
f 1/1 2/2 3/3 4/4
f 5/5 6/6 7/7 8/8
f 9/9 10/10 11/11 12/12
f 13/13 14/14 15/15 16/16
f 17/17 18/18 19/19 20/20
f 21/21 22/22 23/23 24/24
f 25/25 26/26 27/27 28/28
f 29/29 30/30 31/31 32/32
f 33/33 34/34 35/35 36/36
f 37/37 38/38 39/39 40/40
f 41/41 42/42 43/43 44/44
f 45/45 46/46 47/47 48/48
usemtl wallpaper_damp
f 49/49 50/50 51/51 52/52
f 53/53 54/54 55/55 56/56
f 57/57 58/58 59/59 60/60
f 61/61 62/62 63/63 64/64
f 65/65 66/66 67/67 68/68
f 69/69 70/70 71/71 72/72
usemtl wallpaper
f 73/73 74/74 75/75 76/76
f 77/77 78/78 79/79 80/80
f 81/81 82/82 83/83 84/84
f 85/85 86/86 87/87 88/88
f 89/89 90/90 91/91 92/92
f 93/93 94/94 95/95 96/96
usemtl ceiling_tile
f 105/97 106/98 107/99 108/100
f 109/101 110/102 111/103 112/104
f 113/105 114/106 115/107 116/108
f 117/109 118/110 119/111 120/112
f 121/113 122/114 123/115 124/116
f 125/117 126/118 127/119 128/120
