# RoastEngine Backrooms level
mtllib backrooms.mtl
v -404.6750 0.0000 -34.6750
v -404.6750 0.0000 -31.3250
v -401.3250 0.0000 -31.3250
v -401.3250 0.0000 -34.6750
v -404.6750 3.2000 -34.6750
v -401.3250 3.2000 -34.6750
v -401.3250 3.2000 -31.3250
v -404.6750 3.2000 -31.3250
v -404.6750 0.0000 -34.6750
v -401.3250 0.0000 -34.6750
v -401.3250 3.2000 -34.6750
v -404.6750 3.2000 -34.6750
v -401.3250 0.0000 -31.3250
v -404.6750 0.0000 -31.3250
v -404.6750 3.2000 -31.3250
v -401.3250 3.2000 -31.3250
v -401.3250 0.0000 -34.6750
v -401.3250 0.0000 -31.3250
v -401.3250 3.2000 -31.3250
v -401.3250 3.2000 -34.6750
v -404.6750 0.0000 -31.3250
v -404.6750 0.0000 -34.6750
v -404.6750 3.2000 -34.6750
v -404.6750 3.2000 -31.3250
v -401.6750 0.0000 -34.6750
v -401.6750 0.0000 -31.3250
v -398.3250 0.0000 -31.3250
v -398.3250 0.0000 -34.6750
v -401.6750 3.2000 -34.6750
v -398.3250 3.2000 -34.6750
v -398.3250 3.2000 -31.3250
v -401.6750 3.2000 -31.3250
v -401.6750 0.0000 -34.6750
v -398.3250 0.0000 -34.6750
v -398.3250 3.2000 -34.6750
v -401.6750 3.2000 -34.6750
v -398.3250 0.0000 -31.3250
v -401.6750 0.0000 -31.3250
v -401.6750 3.2000 -31.3250
v -398.3250 3.2000 -31.3250
v -398.3250 0.0000 -34.6750
v -398.3250 0.0000 -31.3250
v -398.3250 3.2000 -31.3250
v -398.3250 3.2000 -34.6750
v -401.6750 0.0000 -31.3250
v -401.6750 0.0000 -34.6750
v -401.6750 3.2000 -34.6750
v -401.6750 3.2000 -31.3250
v -398.6750 0.0000 -34.6750
v -398.6750 0.0000 -31.3250
v -395.3250 0.0000 -31.3250
v -395.3250 0.0000 -34.6750
v -398.6750 3.2000 -34.6750
v -395.3250 3.2000 -34.6750
v -395.3250 3.2000 -31.3250
v -398.6750 3.2000 -31.3250
v -398.6750 0.0000 -34.6750
v -395.3250 0.0000 -34.6750
v -395.3250 3.2000 -34.6750
v -398.6750 3.2000 -34.6750
v -395.3250 0.0000 -31.3250
v -398.6750 0.0000 -31.3250
v -398.6750 3.2000 -31.3250
v -395.3250 3.2000 -31.3250
v -395.3250 0.0000 -34.6750
v -395.3250 0.0000 -31.3250
v -395.3250 3.2000 -31.3250
v -395.3250 3.2000 -34.6750
v -398.6750 0.0000 -31.3250
v -398.6750 0.0000 -34.6750
v -398.6750 3.2000 -34.6750
v -398.6750 3.2000 -31.3250
v -395.6750 0.0000 -34.6750
v -395.6750 0.0000 -31.3250
v -392.3250 0.0000 -31.3250
v -392.3250 0.0000 -34.6750
v -395.6750 3.2000 -34.6750
v -392.3250 3.2000 -34.6750
v -392.3250 3.2000 -31.3250
v -395.6750 3.2000 -31.3250
v -395.6750 0.0000 -34.6750
v -392.3250 0.0000 -34.6750
v -392.3250 3.2000 -34.6750
v -395.6750 3.2000 -34.6750
v -392.3250 0.0000 -31.3250
v -395.6750 0.0000 -31.3250
v -395.6750 3.2000 -31.3250
v -392.3250 3.2000 -31.3250
v -392.3250 0.0000 -34.6750
v -392.3250 0.0000 -31.3250
v -392.3250 3.2000 -31.3250
v -392.3250 3.2000 -34.6750
v -395.6750 0.0000 -31.3250
v -395.6750 0.0000 -34.6750
v -395.6750 3.2000 -34.6750
v -395.6750 3.2000 -31.3250
v -392.6750 0.0000 -34.6750
v -392.6750 0.0000 -31.3250
v -389.3250 0.0000 -31.3250
v -389.3250 0.0000 -34.6750
v -392.6750 3.2000 -34.6750
v -389.3250 3.2000 -34.6750
v -389.3250 3.2000 -31.3250
v -392.6750 3.2000 -31.3250
v -392.6750 0.0000 -34.6750
v -389.3250 0.0000 -34.6750
v -389.3250 3.2000 -34.6750
v -392.6750 3.2000 -34.6750
v -389.3250 0.0000 -31.3250
v -392.6750 0.0000 -31.3250
v -392.6750 3.2000 -31.3250
v -389.3250 3.2000 -31.3250
v -389.3250 0.0000 -34.6750
v -389.3250 0.0000 -31.3250
v -389.3250 3.2000 -31.3250
v -389.3250 3.2000 -34.6750
v -392.6750 0.0000 -31.3250
v -392.6750 0.0000 -34.6750
v -392.6750 3.2000 -34.6750
v -392.6750 3.2000 -31.3250
v -386.6750 0.0000 -34.6750
v -386.6750 0.0000 -31.3250
v -383.3250 0.0000 -31.3250
v -383.3250 0.0000 -34.6750
v -386.6750 3.2000 -34.6750
v -383.3250 3.2000 -34.6750
v -383.3250 3.2000 -31.3250
v -386.6750 3.2000 -31.3250
v -386.6750 0.0000 -34.6750
v -383.3250 0.0000 -34.6750
v -383.3250 3.2000 -34.6750
v -386.6750 3.2000 -34.6750
v -383.3250 0.0000 -31.3250
v -386.6750 0.0000 -31.3250
v -386.6750 3.2000 -31.3250
v -383.3250 3.2000 -31.3250
v -383.3250 0.0000 -34.6750
v -383.3250 0.0000 -31.3250
v -383.3250 3.2000 -31.3250
v -383.3250 3.2000 -34.6750
v -386.6750 0.0000 -31.3250
v -386.6750 0.0000 -34.6750
v -386.6750 3.2000 -34.6750
v -386.6750 3.2000 -31.3250
v -383.6750 0.0000 -34.6750
v -383.6750 0.0000 -31.3250
v -380.3250 0.0000 -31.3250
v -380.3250 0.0000 -34.6750
v -383.6750 3.2000 -34.6750
v -380.3250 3.2000 -34.6750
v -380.3250 3.2000 -31.3250
v -383.6750 3.2000 -31.3250
v -383.6750 0.0000 -34.6750
v -380.3250 0.0000 -34.6750
v -380.3250 3.2000 -34.6750
v -383.6750 3.2000 -34.6750
v -380.3250 0.0000 -31.3250
v -383.6750 0.0000 -31.3250
v -383.6750 3.2000 -31.3250
v -380.3250 3.2000 -31.3250
v -380.3250 0.0000 -34.6750
v -380.3250 0.0000 -31.3250
v -380.3250 3.2000 -31.3250
v -380.3250 3.2000 -34.6750
v -383.6750 0.0000 -31.3250
v -383.6750 0.0000 -34.6750
v -383.6750 3.2000 -34.6750
v -383.6750 3.2000 -31.3250
v -380.6750 0.0000 -34.6750
v -380.6750 0.0000 -31.3250
v -377.3250 0.0000 -31.3250
v -377.3250 0.0000 -34.6750
v -380.6750 3.2000 -34.6750
v -377.3250 3.2000 -34.6750
v -377.3250 3.2000 -31.3250
v -380.6750 3.2000 -31.3250
v -380.6750 0.0000 -34.6750
v -377.3250 0.0000 -34.6750
v -377.3250 3.2000 -34.6750
v -380.6750 3.2000 -34.6750
v -377.3250 0.0000 -31.3250
v -380.6750 0.0000 -31.3250
v -380.6750 3.2000 -31.3250
v -377.3250 3.2000 -31.3250
v -377.3250 0.0000 -34.6750
v -377.3250 0.0000 -31.3250
v -377.3250 3.2000 -31.3250
v -377.3250 3.2000 -34.6750
v -380.6750 0.0000 -31.3250
v -380.6750 0.0000 -34.6750
v -380.6750 3.2000 -34.6750
v -380.6750 3.2000 -31.3250
v -377.6750 0.0000 -34.6750
v -377.6750 0.0000 -31.3250
v -374.3250 0.0000 -31.3250
v -374.3250 0.0000 -34.6750
v -377.6750 3.2000 -34.6750
v -374.3250 3.2000 -34.6750
v -374.3250 3.2000 -31.3250
v -377.6750 3.2000 -31.3250
v -377.6750 0.0000 -34.6750
v -374.3250 0.0000 -34.6750
v -374.3250 3.2000 -34.6750
v -377.6750 3.2000 -34.6750
v -374.3250 0.0000 -31.3250
v -377.6750 0.0000 -31.3250
v -377.6750 3.2000 -31.3250
v -374.3250 3.2000 -31.3250
v -374.3250 0.0000 -34.6750
v -374.3250 0.0000 -31.3250
v -374.3250 3.2000 -31.3250
v -374.3250 3.2000 -34.6750
v -377.6750 0.0000 -31.3250
v -377.6750 0.0000 -34.6750
v -377.6750 3.2000 -34.6750
v -377.6750 3.2000 -31.3250
v -374.6750 0.0000 -34.6750
v -374.6750 0.0000 -31.3250
v -371.3250 0.0000 -31.3250
v -371.3250 0.0000 -34.6750
v -374.6750 3.2000 -34.6750
v -371.3250 3.2000 -34.6750
v -371.3250 3.2000 -31.3250
v -374.6750 3.2000 -31.3250
v -374.6750 0.0000 -34.6750
v -371.3250 0.0000 -34.6750
v -371.3250 3.2000 -34.6750
v -374.6750 3.2000 -34.6750
v -371.3250 0.0000 -31.3250
v -374.6750 0.0000 -31.3250
v -374.6750 3.2000 -31.3250
v -371.3250 3.2000 -31.3250
v -371.3250 0.0000 -34.6750
v -371.3250 0.0000 -31.3250
v -371.3250 3.2000 -31.3250
v -371.3250 3.2000 -34.6750
v -374.6750 0.0000 -31.3250
v -374.6750 0.0000 -34.6750
v -374.6750 3.2000 -34.6750
v -374.6750 3.2000 -31.3250
v -374.6750 0.0000 -31.6750
v -374.6750 0.0000 -28.3250
v -371.3250 0.0000 -28.3250
v -371.3250 0.0000 -31.6750
v -374.6750 3.2000 -31.6750
v -371.3250 3.2000 -31.6750
v -371.3250 3.2000 -28.3250
v -374.6750 3.2000 -28.3250
v -374.6750 0.0000 -31.6750
v -371.3250 0.0000 -31.6750
v -371.3250 3.2000 -31.6750
v -374.6750 3.2000 -31.6750
v -371.3250 0.0000 -28.3250
v -374.6750 0.0000 -28.3250
v -374.6750 3.2000 -28.3250
v -371.3250 3.2000 -28.3250
v -371.3250 0.0000 -31.6750
v -371.3250 0.0000 -28.3250
v -371.3250 3.2000 -28.3250
v -371.3250 3.2000 -31.6750
v -374.6750 0.0000 -28.3250
v -374.6750 0.0000 -31.6750
v -374.6750 3.2000 -31.6750
v -374.6750 3.2000 -28.3250
v -398.6750 0.0000 -28.6750
v -398.6750 0.0000 -25.3250
v -395.3250 0.0000 -25.3250
v -395.3250 0.0000 -28.6750
v -398.6750 3.2000 -28.6750
v -395.3250 3.2000 -28.6750
v -395.3250 3.2000 -25.3250
v -398.6750 3.2000 -25.3250
v -398.6750 0.0000 -28.6750
v -395.3250 0.0000 -28.6750
v -395.3250 3.2000 -28.6750
v -398.6750 3.2000 -28.6750
v -395.3250 0.0000 -25.3250
v -398.6750 0.0000 -25.3250
v -398.6750 3.2000 -25.3250
v -395.3250 3.2000 -25.3250
v -395.3250 0.0000 -28.6750
v -395.3250 0.0000 -25.3250
v -395.3250 3.2000 -25.3250
v -395.3250 3.2000 -28.6750
v -398.6750 0.0000 -25.3250
v -398.6750 0.0000 -28.6750
v -398.6750 3.2000 -28.6750
v -398.6750 3.2000 -25.3250
v -392.6750 0.0000 -28.6750
v -392.6750 0.0000 -25.3250
v -389.3250 0.0000 -25.3250
v -389.3250 0.0000 -28.6750
v -392.6750 3.2000 -28.6750
v -389.3250 3.2000 -28.6750
v -389.3250 3.2000 -25.3250
v -392.6750 3.2000 -25.3250
v -392.6750 0.0000 -28.6750
v -389.3250 0.0000 -28.6750
v -389.3250 3.2000 -28.6750
v -392.6750 3.2000 -28.6750
v -389.3250 0.0000 -25.3250
v -392.6750 0.0000 -25.3250
v -392.6750 3.2000 -25.3250
v -389.3250 3.2000 -25.3250
v -389.3250 0.0000 -28.6750
v -389.3250 0.0000 -25.3250
v -389.3250 3.2000 -25.3250
v -389.3250 3.2000 -28.6750
v -392.6750 0.0000 -25.3250
v -392.6750 0.0000 -28.6750
v -392.6750 3.2000 -28.6750
v -392.6750 3.2000 -25.3250
v -386.6750 0.0000 -28.6750
v -386.6750 0.0000 -25.3250
v -383.3250 0.0000 -25.3250
v -383.3250 0.0000 -28.6750
v -386.6750 3.2000 -28.6750
v -383.3250 3.2000 -28.6750
v -383.3250 3.2000 -25.3250
v -386.6750 3.2000 -25.3250
v -386.6750 0.0000 -28.6750
v -383.3250 0.0000 -28.6750
v -383.3250 3.2000 -28.6750
v -386.6750 3.2000 -28.6750
v -383.3250 0.0000 -25.3250
v -386.6750 0.0000 -25.3250
v -386.6750 3.2000 -25.3250
v -383.3250 3.2000 -25.3250
v -383.3250 0.0000 -28.6750
v -383.3250 0.0000 -25.3250
v -383.3250 3.2000 -25.3250
v -383.3250 3.2000 -28.6750
v -386.6750 0.0000 -25.3250
v -386.6750 0.0000 -28.6750
v -386.6750 3.2000 -28.6750
v -386.6750 3.2000 -25.3250
v -380.6750 0.0000 -28.6750
v -380.6750 0.0000 -25.3250
v -377.3250 0.0000 -25.3250
v -377.3250 0.0000 -28.6750
v -380.6750 3.2000 -28.6750
v -377.3250 3.2000 -28.6750
v -377.3250 3.2000 -25.3250
v -380.6750 3.2000 -25.3250
v -380.6750 0.0000 -28.6750
v -377.3250 0.0000 -28.6750
v -377.3250 3.2000 -28.6750
v -380.6750 3.2000 -28.6750
v -377.3250 0.0000 -25.3250
v -380.6750 0.0000 -25.3250
v -380.6750 3.2000 -25.3250
v -377.3250 3.2000 -25.3250
v -377.3250 0.0000 -28.6750
v -377.3250 0.0000 -25.3250
v -377.3250 3.2000 -25.3250
v -377.3250 3.2000 -28.6750
v -380.6750 0.0000 -25.3250
v -380.6750 0.0000 -28.6750
v -380.6750 3.2000 -28.6750
v -380.6750 3.2000 -25.3250
v -374.6750 0.0000 -28.6750
v -374.6750 0.0000 -25.3250
v -371.3250 0.0000 -25.3250
v -371.3250 0.0000 -28.6750
v -374.6750 3.2000 -28.6750
v -371.3250 3.2000 -28.6750
v -371.3250 3.2000 -25.3250
v -374.6750 3.2000 -25.3250
v -374.6750 0.0000 -28.6750
v -371.3250 0.0000 -28.6750
v -371.3250 3.2000 -28.6750
v -374.6750 3.2000 -28.6750
v -371.3250 0.0000 -25.3250
v -374.6750 0.0000 -25.3250
v -374.6750 3.2000 -25.3250
v -371.3250 3.2000 -25.3250
v -371.3250 0.0000 -28.6750
v -371.3250 0.0000 -25.3250
v -371.3250 3.2000 -25.3250
v -371.3250 3.2000 -28.6750
v -374.6750 0.0000 -25.3250
v -374.6750 0.0000 -28.6750
v -374.6750 3.2000 -28.6750
v -374.6750 3.2000 -25.3250
v -380.6750 0.0000 -25.6750
v -380.6750 0.0000 -22.3250
v -377.3250 0.0000 -22.3250
v -377.3250 0.0000 -25.6750
v -380.6750 3.2000 -25.6750
v -377.3250 3.2000 -25.6750
v -377.3250 3.2000 -22.3250
v -380.6750 3.2000 -22.3250
v -380.6750 0.0000 -25.6750
v -377.3250 0.0000 -25.6750
v -377.3250 3.2000 -25.6750
v -380.6750 3.2000 -25.6750
v -377.3250 0.0000 -22.3250
v -380.6750 0.0000 -22.3250
v -380.6750 3.2000 -22.3250
v -377.3250 3.2000 -22.3250
v -377.3250 0.0000 -25.6750
v -377.3250 0.0000 -22.3250
v -377.3250 3.2000 -22.3250
v -377.3250 3.2000 -25.6750
v -380.6750 0.0000 -22.3250
v -380.6750 0.0000 -25.6750
v -380.6750 3.2000 -25.6750
v -380.6750 3.2000 -22.3250
v -398.6750 0.0000 -22.6750
v -398.6750 0.0000 -19.3250
v -395.3250 0.0000 -19.3250
v -395.3250 0.0000 -22.6750
v -398.6750 3.2000 -22.6750
v -395.3250 3.2000 -22.6750
v -395.3250 3.2000 -19.3250
v -398.6750 3.2000 -19.3250
v -398.6750 0.0000 -22.6750
v -395.3250 0.0000 -22.6750
v -395.3250 3.2000 -22.6750
v -398.6750 3.2000 -22.6750
v -395.3250 0.0000 -19.3250
v -398.6750 0.0000 -19.3250
v -398.6750 3.2000 -19.3250
v -395.3250 3.2000 -19.3250
v -395.3250 0.0000 -22.6750
v -395.3250 0.0000 -19.3250
v -395.3250 3.2000 -19.3250
v -395.3250 3.2000 -22.6750
v -398.6750 0.0000 -19.3250
v -398.6750 0.0000 -22.6750
v -398.6750 3.2000 -22.6750
v -398.6750 3.2000 -19.3250
v -395.6750 0.0000 -22.6750
v -395.6750 0.0000 -19.3250
v -392.3250 0.0000 -19.3250
v -392.3250 0.0000 -22.6750
v -395.6750 3.2000 -22.6750
v -392.3250 3.2000 -22.6750
v -392.3250 3.2000 -19.3250
v -395.6750 3.2000 -19.3250
v -395.6750 0.0000 -22.6750
v -392.3250 0.0000 -22.6750
v -392.3250 3.2000 -22.6750
v -395.6750 3.2000 -22.6750
v -392.3250 0.0000 -19.3250
v -395.6750 0.0000 -19.3250
v -395.6750 3.2000 -19.3250
v -392.3250 3.2000 -19.3250
v -392.3250 0.0000 -22.6750
v -392.3250 0.0000 -19.3250
v -392.3250 3.2000 -19.3250
v -392.3250 3.2000 -22.6750
v -395.6750 0.0000 -19.3250
v -395.6750 0.0000 -22.6750
v -395.6750 3.2000 -22.6750
v -395.6750 3.2000 -19.3250
v -392.6750 0.0000 -22.6750
v -392.6750 0.0000 -19.3250
v -389.3250 0.0000 -19.3250
v -389.3250 0.0000 -22.6750
v -392.6750 3.2000 -22.6750
v -389.3250 3.2000 -22.6750
v -389.3250 3.2000 -19.3250
v -392.6750 3.2000 -19.3250
v -392.6750 0.0000 -22.6750
v -389.3250 0.0000 -22.6750
v -389.3250 3.2000 -22.6750
v -392.6750 3.2000 -22.6750
v -389.3250 0.0000 -19.3250
v -392.6750 0.0000 -19.3250
v -392.6750 3.2000 -19.3250
v -389.3250 3.2000 -19.3250
v -389.3250 0.0000 -22.6750
v -389.3250 0.0000 -19.3250
v -389.3250 3.2000 -19.3250
v -389.3250 3.2000 -22.6750
v -392.6750 0.0000 -19.3250
v -392.6750 0.0000 -22.6750
v -392.6750 3.2000 -22.6750
v -392.6750 3.2000 -19.3250
v -386.6750 0.0000 -22.6750
v -386.6750 0.0000 -19.3250
v -383.3250 0.0000 -19.3250
v -383.3250 0.0000 -22.6750
v -386.6750 3.2000 -22.6750
v -383.3250 3.2000 -22.6750
v -383.3250 3.2000 -19.3250
v -386.6750 3.2000 -19.3250
v -386.6750 0.0000 -22.6750
v -383.3250 0.0000 -22.6750
v -383.3250 3.2000 -22.6750
v -386.6750 3.2000 -22.6750
v -383.3250 0.0000 -19.3250
v -386.6750 0.0000 -19.3250
v -386.6750 3.2000 -19.3250
v -383.3250 3.2000 -19.3250
v -383.3250 0.0000 -22.6750
v -383.3250 0.0000 -19.3250
v -383.3250 3.2000 -19.3250
v -383.3250 3.2000 -22.6750
v -386.6750 0.0000 -19.3250
v -386.6750 0.0000 -22.6750
v -386.6750 3.2000 -22.6750
v -386.6750 3.2000 -19.3250
v -380.6750 0.0000 -22.6750
v -380.6750 0.0000 -19.3250
v -377.3250 0.0000 -19.3250
v -377.3250 0.0000 -22.6750
v -380.6750 3.2000 -22.6750
v -377.3250 3.2000 -22.6750
v -377.3250 3.2000 -19.3250
v -380.6750 3.2000 -19.3250
v -380.6750 0.0000 -22.6750
v -377.3250 0.0000 -22.6750
v -377.3250 3.2000 -22.6750
v -380.6750 3.2000 -22.6750
v -377.3250 0.0000 -19.3250
v -380.6750 0.0000 -19.3250
v -380.6750 3.2000 -19.3250
v -377.3250 3.2000 -19.3250
v -377.3250 0.0000 -22.6750
v -377.3250 0.0000 -19.3250
v -377.3250 3.2000 -19.3250
v -377.3250 3.2000 -22.6750
v -380.6750 0.0000 -19.3250
v -380.6750 0.0000 -22.6750
v -380.6750 3.2000 -22.6750
v -380.6750 3.2000 -19.3250
v -377.6750 0.0000 -22.6750
v -377.6750 0.0000 -19.3250
v -374.3250 0.0000 -19.3250
v -374.3250 0.0000 -22.6750
v -377.6750 3.2000 -22.6750
v -374.3250 3.2000 -22.6750
v -374.3250 3.2000 -19.3250
v -377.6750 3.2000 -19.3250
v -377.6750 0.0000 -22.6750
v -374.3250 0.0000 -22.6750
v -374.3250 3.2000 -22.6750
v -377.6750 3.2000 -22.6750
v -374.3250 0.0000 -19.3250
v -377.6750 0.0000 -19.3250
v -377.6750 3.2000 -19.3250
v -374.3250 3.2000 -19.3250
v -374.3250 0.0000 -22.6750
v -374.3250 0.0000 -19.3250
v -374.3250 3.2000 -19.3250
v -374.3250 3.2000 -22.6750
v -377.6750 0.0000 -19.3250
v -377.6750 0.0000 -22.6750
v -377.6750 3.2000 -22.6750
v -377.6750 3.2000 -19.3250
v -374.6750 0.0000 -22.6750
v -374.6750 0.0000 -19.3250
v -371.3250 0.0000 -19.3250
v -371.3250 0.0000 -22.6750
v -374.6750 3.2000 -22.6750
v -371.3250 3.2000 -22.6750
v -371.3250 3.2000 -19.3250
v -374.6750 3.2000 -19.3250
v -374.6750 0.0000 -22.6750
v -371.3250 0.0000 -22.6750
v -371.3250 3.2000 -22.6750
v -374.6750 3.2000 -22.6750
v -371.3250 0.0000 -19.3250
v -374.6750 0.0000 -19.3250
v -374.6750 3.2000 -19.3250
v -371.3250 3.2000 -19.3250
v -371.3250 0.0000 -22.6750
v -371.3250 0.0000 -19.3250
v -371.3250 3.2000 -19.3250
v -371.3250 3.2000 -22.6750
v -374.6750 0.0000 -19.3250
v -374.6750 0.0000 -22.6750
v -374.6750 3.2000 -22.6750
v -374.6750 3.2000 -19.3250
v -371.6750 0.0000 -22.6750
v -371.6750 0.0000 -19.3250
v -368.3250 0.0000 -19.3250
v -368.3250 0.0000 -22.6750
v -371.6750 3.2000 -22.6750
v -368.3250 3.2000 -22.6750
v -368.3250 3.2000 -19.3250
v -371.6750 3.2000 -19.3250
v -371.6750 0.0000 -22.6750
v -368.3250 0.0000 -22.6750
v -368.3250 3.2000 -22.6750
v -371.6750 3.2000 -22.6750
v -368.3250 0.0000 -19.3250
v -371.6750 0.0000 -19.3250
v -371.6750 3.2000 -19.3250
v -368.3250 3.2000 -19.3250
v -368.3250 0.0000 -22.6750
v -368.3250 0.0000 -19.3250
v -368.3250 3.2000 -19.3250
v -368.3250 3.2000 -22.6750
v -371.6750 0.0000 -19.3250
v -371.6750 0.0000 -22.6750
v -371.6750 3.2000 -22.6750
v -371.6750 3.2000 -19.3250
v -386.6750 0.0000 -19.6750
v -386.6750 0.0000 -16.3250
v -383.3250 0.0000 -16.3250
v -383.3250 0.0000 -19.6750
v -386.6750 3.2000 -19.6750
v -383.3250 3.2000 -19.6750
v -383.3250 3.2000 -16.3250
v -386.6750 3.2000 -16.3250
v -386.6750 0.0000 -19.6750
v -383.3250 0.0000 -19.6750
v -383.3250 3.2000 -19.6750
v -386.6750 3.2000 -19.6750
v -383.3250 0.0000 -16.3250
v -386.6750 0.0000 -16.3250
v -386.6750 3.2000 -16.3250
v -383.3250 3.2000 -16.3250
v -383.3250 0.0000 -19.6750
v -383.3250 0.0000 -16.3250
v -383.3250 3.2000 -16.3250
v -383.3250 3.2000 -19.6750
v -386.6750 0.0000 -16.3250
v -386.6750 0.0000 -19.6750
v -386.6750 3.2000 -19.6750
v -386.6750 3.2000 -16.3250
v -404.6750 0.0000 -16.6750
v -404.6750 0.0000 -13.3250
v -401.3250 0.0000 -13.3250
v -401.3250 0.0000 -16.6750
v -404.6750 3.2000 -16.6750
v -401.3250 3.2000 -16.6750
v -401.3250 3.2000 -13.3250
v -404.6750 3.2000 -13.3250
v -404.6750 0.0000 -16.6750
v -401.3250 0.0000 -16.6750
v -401.3250 3.2000 -16.6750
v -404.6750 3.2000 -16.6750
v -401.3250 0.0000 -13.3250
v -404.6750 0.0000 -13.3250
v -404.6750 3.2000 -13.3250
v -401.3250 3.2000 -13.3250
v -401.3250 0.0000 -16.6750
v -401.3250 0.0000 -13.3250
v -401.3250 3.2000 -13.3250
v -401.3250 3.2000 -16.6750
v -404.6750 0.0000 -13.3250
v -404.6750 0.0000 -16.6750
v -404.6750 3.2000 -16.6750
v -404.6750 3.2000 -13.3250
v -401.6750 0.0000 -16.6750
v -401.6750 0.0000 -13.3250
v -398.3250 0.0000 -13.3250
v -398.3250 0.0000 -16.6750
v -401.6750 3.2000 -16.6750
v -398.3250 3.2000 -16.6750
v -398.3250 3.2000 -13.3250
v -401.6750 3.2000 -13.3250
v -401.6750 0.0000 -16.6750
v -398.3250 0.0000 -16.6750
v -398.3250 3.2000 -16.6750
v -401.6750 3.2000 -16.6750
v -398.3250 0.0000 -13.3250
v -401.6750 0.0000 -13.3250
v -401.6750 3.2000 -13.3250
v -398.3250 3.2000 -13.3250
v -398.3250 0.0000 -16.6750
v -398.3250 0.0000 -13.3250
v -398.3250 3.2000 -13.3250
v -398.3250 3.2000 -16.6750
v -401.6750 0.0000 -13.3250
v -401.6750 0.0000 -16.6750
v -401.6750 3.2000 -16.6750
v -401.6750 3.2000 -13.3250
v -398.6750 0.0000 -16.6750
v -398.6750 0.0000 -13.3250
v -395.3250 0.0000 -13.3250
v -395.3250 0.0000 -16.6750
v -398.6750 3.2000 -16.6750
v -395.3250 3.2000 -16.6750
v -395.3250 3.2000 -13.3250
v -398.6750 3.2000 -13.3250
v -398.6750 0.0000 -16.6750
v -395.3250 0.0000 -16.6750
v -395.3250 3.2000 -16.6750
v -398.6750 3.2000 -16.6750
v -395.3250 0.0000 -13.3250
v -398.6750 0.0000 -13.3250
v -398.6750 3.2000 -13.3250
v -395.3250 3.2000 -13.3250
v -395.3250 0.0000 -16.6750
v -395.3250 0.0000 -13.3250
v -395.3250 3.2000 -13.3250
v -395.3250 3.2000 -16.6750
v -398.6750 0.0000 -13.3250
v -398.6750 0.0000 -16.6750
v -398.6750 3.2000 -16.6750
v -398.6750 3.2000 -13.3250
v -386.6750 0.0000 -16.6750
v -386.6750 0.0000 -13.3250
v -383.3250 0.0000 -13.3250
v -383.3250 0.0000 -16.6750
v -386.6750 3.2000 -16.6750
v -383.3250 3.2000 -16.6750
v -383.3250 3.2000 -13.3250
v -386.6750 3.2000 -13.3250
v -386.6750 0.0000 -16.6750
v -383.3250 0.0000 -16.6750
v -383.3250 3.2000 -16.6750
v -386.6750 3.2000 -16.6750
v -383.3250 0.0000 -13.3250
v -386.6750 0.0000 -13.3250
v -386.6750 3.2000 -13.3250
v -383.3250 3.2000 -13.3250
v -383.3250 0.0000 -16.6750
v -383.3250 0.0000 -13.3250
v -383.3250 3.2000 -13.3250
v -383.3250 3.2000 -16.6750
v -386.6750 0.0000 -13.3250
v -386.6750 0.0000 -16.6750
v -386.6750 3.2000 -16.6750
v -386.6750 3.2000 -13.3250
v -380.6750 0.0000 -16.6750
v -380.6750 0.0000 -13.3250
v -377.3250 0.0000 -13.3250
v -377.3250 0.0000 -16.6750
v -380.6750 3.2000 -16.6750
v -377.3250 3.2000 -16.6750
v -377.3250 3.2000 -13.3250
v -380.6750 3.2000 -13.3250
v -380.6750 0.0000 -16.6750
v -377.3250 0.0000 -16.6750
v -377.3250 3.2000 -16.6750
v -380.6750 3.2000 -16.6750
v -377.3250 0.0000 -13.3250
v -380.6750 0.0000 -13.3250
v -380.6750 3.2000 -13.3250
v -377.3250 3.2000 -13.3250
v -377.3250 0.0000 -16.6750
v -377.3250 0.0000 -13.3250
v -377.3250 3.2000 -13.3250
v -377.3250 3.2000 -16.6750
v -380.6750 0.0000 -13.3250
v -380.6750 0.0000 -16.6750
v -380.6750 3.2000 -16.6750
v -380.6750 3.2000 -13.3250
v -377.6750 0.0000 -16.6750
v -377.6750 0.0000 -13.3250
v -374.3250 0.0000 -13.3250
v -374.3250 0.0000 -16.6750
v -377.6750 3.2000 -16.6750
v -374.3250 3.2000 -16.6750
v -374.3250 3.2000 -13.3250
v -377.6750 3.2000 -13.3250
v -377.6750 0.0000 -16.6750
v -374.3250 0.0000 -16.6750
v -374.3250 3.2000 -16.6750
v -377.6750 3.2000 -16.6750
v -374.3250 0.0000 -13.3250
v -377.6750 0.0000 -13.3250
v -377.6750 3.2000 -13.3250
v -374.3250 3.2000 -13.3250
v -374.3250 0.0000 -16.6750
v -374.3250 0.0000 -13.3250
v -374.3250 3.2000 -13.3250
v -374.3250 3.2000 -16.6750
v -377.6750 0.0000 -13.3250
v -377.6750 0.0000 -16.6750
v -377.6750 3.2000 -16.6750
v -377.6750 3.2000 -13.3250
v -374.6750 0.0000 -16.6750
v -374.6750 0.0000 -13.3250
v -371.3250 0.0000 -13.3250
v -371.3250 0.0000 -16.6750
v -374.6750 3.2000 -16.6750
v -371.3250 3.2000 -16.6750
v -371.3250 3.2000 -13.3250
v -374.6750 3.2000 -13.3250
v -374.6750 0.0000 -16.6750
v -371.3250 0.0000 -16.6750
v -371.3250 3.2000 -16.6750
v -374.6750 3.2000 -16.6750
v -371.3250 0.0000 -13.3250
v -374.6750 0.0000 -13.3250
v -374.6750 3.2000 -13.3250
v -371.3250 3.2000 -13.3250
v -371.3250 0.0000 -16.6750
v -371.3250 0.0000 -13.3250
v -371.3250 3.2000 -13.3250
v -371.3250 3.2000 -16.6750
v -374.6750 0.0000 -13.3250
v -374.6750 0.0000 -16.6750
v -374.6750 3.2000 -16.6750
v -374.6750 3.2000 -13.3250
v -371.6750 0.0000 -16.6750
v -371.6750 0.0000 -13.3250
v -368.3250 0.0000 -13.3250
v -368.3250 0.0000 -16.6750
v -371.6750 3.2000 -16.6750
v -368.3250 3.2000 -16.6750
v -368.3250 3.2000 -13.3250
v -371.6750 3.2000 -13.3250
v -371.6750 0.0000 -16.6750
v -368.3250 0.0000 -16.6750
v -368.3250 3.2000 -16.6750
v -371.6750 3.2000 -16.6750
v -368.3250 0.0000 -13.3250
v -371.6750 0.0000 -13.3250
v -371.6750 3.2000 -13.3250
v -368.3250 3.2000 -13.3250
v -368.3250 0.0000 -16.6750
v -368.3250 0.0000 -13.3250
v -368.3250 3.2000 -13.3250
v -368.3250 3.2000 -16.6750
v -371.6750 0.0000 -13.3250
v -371.6750 0.0000 -16.6750
v -371.6750 3.2000 -16.6750
v -371.6750 3.2000 -13.3250
v -376.8000 3.0300 -36.1750
v -375.2000 3.0300 -36.1750
v -375.2000 3.0300 -35.8250
v -376.8000 3.0300 -35.8250
v -376.8000 3.1300 -36.1750
v -375.2000 3.1300 -36.1750
v -375.2000 3.1300 -35.8250
v -376.8000 3.1300 -35.8250
v -376.9500 3.1100 -36.3000
v -376.9500 3.1100 -35.7000
v -375.0500 3.1100 -35.7000
v -375.0500 3.1100 -36.3000
v -376.9500 3.1900 -36.3000
v -375.0500 3.1900 -36.3000
v -375.0500 3.1900 -35.7000
v -376.9500 3.1900 -35.7000
v -376.9500 3.1100 -36.3000
v -375.0500 3.1100 -36.3000
v -375.0500 3.1900 -36.3000
v -376.9500 3.1900 -36.3000
v -375.0500 3.1100 -35.7000
v -376.9500 3.1100 -35.7000
v -376.9500 3.1900 -35.7000
v -375.0500 3.1900 -35.7000
v -375.0500 3.1100 -36.3000
v -375.0500 3.1100 -35.7000
v -375.0500 3.1900 -35.7000
v -375.0500 3.1900 -36.3000
v -376.9500 3.1100 -35.7000
v -376.9500 3.1100 -36.3000
v -376.9500 3.1900 -36.3000
v -376.9500 3.1900 -35.7000
v -370.8000 3.0300 -36.1750
v -369.2000 3.0300 -36.1750
v -369.2000 3.0300 -35.8250
v -370.8000 3.0300 -35.8250
v -370.8000 3.1300 -36.1750
v -369.2000 3.1300 -36.1750
v -369.2000 3.1300 -35.8250
v -370.8000 3.1300 -35.8250
v -370.9500 3.1100 -36.3000
v -370.9500 3.1100 -35.7000
v -369.0500 3.1100 -35.7000
v -369.0500 3.1100 -36.3000
v -370.9500 3.1900 -36.3000
v -369.0500 3.1900 -36.3000
v -369.0500 3.1900 -35.7000
v -370.9500 3.1900 -35.7000
v -370.9500 3.1100 -36.3000
v -369.0500 3.1100 -36.3000
v -369.0500 3.1900 -36.3000
v -370.9500 3.1900 -36.3000
v -369.0500 3.1100 -35.7000
v -370.9500 3.1100 -35.7000
v -370.9500 3.1900 -35.7000
v -369.0500 3.1900 -35.7000
v -369.0500 3.1100 -36.3000
v -369.0500 3.1100 -35.7000
v -369.0500 3.1900 -35.7000
v -369.0500 3.1900 -36.3000
v -370.9500 3.1100 -35.7000
v -370.9500 3.1100 -36.3000
v -370.9500 3.1900 -36.3000
v -370.9500 3.1900 -35.7000
v -388.8000 3.0300 -30.1750
v -387.2000 3.0300 -30.1750
v -387.2000 3.0300 -29.8250
v -388.8000 3.0300 -29.8250
v -388.8000 3.1300 -30.1750
v -387.2000 3.1300 -30.1750
v -387.2000 3.1300 -29.8250
v -388.8000 3.1300 -29.8250
v -388.9500 3.1100 -30.3000
v -388.9500 3.1100 -29.7000
v -387.0500 3.1100 -29.7000
v -387.0500 3.1100 -30.3000
v -388.9500 3.1900 -30.3000
v -387.0500 3.1900 -30.3000
v -387.0500 3.1900 -29.7000
v -388.9500 3.1900 -29.7000
v -388.9500 3.1100 -30.3000
v -387.0500 3.1100 -30.3000
v -387.0500 3.1900 -30.3000
v -388.9500 3.1900 -30.3000
v -387.0500 3.1100 -29.7000
v -388.9500 3.1100 -29.7000
v -388.9500 3.1900 -29.7000
v -387.0500 3.1900 -29.7000
v -387.0500 3.1100 -30.3000
v -387.0500 3.1100 -29.7000
v -387.0500 3.1900 -29.7000
v -387.0500 3.1900 -30.3000
v -388.9500 3.1100 -29.7000
v -388.9500 3.1100 -30.3000
v -388.9500 3.1900 -30.3000
v -388.9500 3.1900 -29.7000
v -394.8000 3.0300 -24.1750
v -393.2000 3.0300 -24.1750
v -393.2000 3.0300 -23.8250
v -394.8000 3.0300 -23.8250
v -394.8000 3.1300 -24.1750
v -393.2000 3.1300 -24.1750
v -393.2000 3.1300 -23.8250
v -394.8000 3.1300 -23.8250
v -394.9500 3.1100 -24.3000
v -394.9500 3.1100 -23.7000
v -393.0500 3.1100 -23.7000
v -393.0500 3.1100 -24.3000
v -394.9500 3.1900 -24.3000
v -393.0500 3.1900 -24.3000
v -393.0500 3.1900 -23.7000
v -394.9500 3.1900 -23.7000
v -394.9500 3.1100 -24.3000
v -393.0500 3.1100 -24.3000
v -393.0500 3.1900 -24.3000
v -394.9500 3.1900 -24.3000
v -393.0500 3.1100 -23.7000
v -394.9500 3.1100 -23.7000
v -394.9500 3.1900 -23.7000
v -393.0500 3.1900 -23.7000
v -393.0500 3.1100 -24.3000
v -393.0500 3.1100 -23.7000
v -393.0500 3.1900 -23.7000
v -393.0500 3.1900 -24.3000
v -394.9500 3.1100 -23.7000
v -394.9500 3.1100 -24.3000
v -394.9500 3.1900 -24.3000
v -394.9500 3.1900 -23.7000
v -370.8000 3.0300 -24.1750
v -369.2000 3.0300 -24.1750
v -369.2000 3.0300 -23.8250
v -370.8000 3.0300 -23.8250
v -370.8000 3.1300 -24.1750
v -369.2000 3.1300 -24.1750
v -369.2000 3.1300 -23.8250
v -370.8000 3.1300 -23.8250
v -370.9500 3.1100 -24.3000
v -370.9500 3.1100 -23.7000
v -369.0500 3.1100 -23.7000
v -369.0500 3.1100 -24.3000
v -370.9500 3.1900 -24.3000
v -369.0500 3.1900 -24.3000
v -369.0500 3.1900 -23.7000
v -370.9500 3.1900 -23.7000
v -370.9500 3.1100 -24.3000
v -369.0500 3.1100 -24.3000
v -369.0500 3.1900 -24.3000
v -370.9500 3.1900 -24.3000
v -369.0500 3.1100 -23.7000
v -370.9500 3.1100 -23.7000
v -370.9500 3.1900 -23.7000
v -369.0500 3.1900 -23.7000
v -369.0500 3.1100 -24.3000
v -369.0500 3.1100 -23.7000
v -369.0500 3.1900 -23.7000
v -369.0500 3.1900 -24.3000
v -370.9500 3.1100 -23.7000
v -370.9500 3.1100 -24.3000
v -370.9500 3.1900 -24.3000
v -370.9500 3.1900 -23.7000
v -400.8000 3.0300 -18.1750
v -399.2000 3.0300 -18.1750
v -399.2000 3.0300 -17.8250
v -400.8000 3.0300 -17.8250
v -400.8000 3.1300 -18.1750
v -399.2000 3.1300 -18.1750
v -399.2000 3.1300 -17.8250
v -400.8000 3.1300 -17.8250
v -400.9500 3.1100 -18.3000
v -400.9500 3.1100 -17.7000
v -399.0500 3.1100 -17.7000
v -399.0500 3.1100 -18.3000
v -400.9500 3.1900 -18.3000
v -399.0500 3.1900 -18.3000
v -399.0500 3.1900 -17.7000
v -400.9500 3.1900 -17.7000
v -400.9500 3.1100 -18.3000
v -399.0500 3.1100 -18.3000
v -399.0500 3.1900 -18.3000
v -400.9500 3.1900 -18.3000
v -399.0500 3.1100 -17.7000
v -400.9500 3.1100 -17.7000
v -400.9500 3.1900 -17.7000
v -399.0500 3.1900 -17.7000
v -399.0500 3.1100 -18.3000
v -399.0500 3.1100 -17.7000
v -399.0500 3.1900 -17.7000
v -399.0500 3.1900 -18.3000
v -400.9500 3.1100 -17.7000
v -400.9500 3.1100 -18.3000
v -400.9500 3.1900 -18.3000
v -400.9500 3.1900 -17.7000
v -388.8000 3.0300 -18.1750
v -387.2000 3.0300 -18.1750
v -387.2000 3.0300 -17.8250
v -388.8000 3.0300 -17.8250
v -388.8000 3.1300 -18.1750
v -387.2000 3.1300 -18.1750
v -387.2000 3.1300 -17.8250
v -388.8000 3.1300 -17.8250
v -388.9500 3.1100 -18.3000
v -388.9500 3.1100 -17.7000
v -387.0500 3.1100 -17.7000
v -387.0500 3.1100 -18.3000
v -388.9500 3.1900 -18.3000
v -387.0500 3.1900 -18.3000
v -387.0500 3.1900 -17.7000
v -388.9500 3.1900 -17.7000
v -388.9500 3.1100 -18.3000
v -387.0500 3.1100 -18.3000
v -387.0500 3.1900 -18.3000
v -388.9500 3.1900 -18.3000
v -387.0500 3.1100 -17.7000
v -388.9500 3.1100 -17.7000
v -388.9500 3.1900 -17.7000
v -387.0500 3.1900 -17.7000
v -387.0500 3.1100 -18.3000
v -387.0500 3.1100 -17.7000
v -387.0500 3.1900 -17.7000
v -387.0500 3.1900 -18.3000
v -388.9500 3.1100 -17.7000
v -388.9500 3.1100 -18.3000
v -388.9500 3.1900 -18.3000
v -388.9500 3.1900 -17.7000
v -382.8000 3.0300 -18.1750
v -381.2000 3.0300 -18.1750
v -381.2000 3.0300 -17.8250
v -382.8000 3.0300 -17.8250
v -382.8000 3.1300 -18.1750
v -381.2000 3.1300 -18.1750
v -381.2000 3.1300 -17.8250
v -382.8000 3.1300 -17.8250
v -382.9500 3.1100 -18.3000
v -382.9500 3.1100 -17.7000
v -381.0500 3.1100 -17.7000
v -381.0500 3.1100 -18.3000
v -382.9500 3.1900 -18.3000
v -381.0500 3.1900 -18.3000
v -381.0500 3.1900 -17.7000
v -382.9500 3.1900 -17.7000
v -382.9500 3.1100 -18.3000
v -381.0500 3.1100 -18.3000
v -381.0500 3.1900 -18.3000
v -382.9500 3.1900 -18.3000
v -381.0500 3.1100 -17.7000
v -382.9500 3.1100 -17.7000
v -382.9500 3.1900 -17.7000
v -381.0500 3.1900 -17.7000
v -381.0500 3.1100 -18.3000
v -381.0500 3.1100 -17.7000
v -381.0500 3.1900 -17.7000
v -381.0500 3.1900 -18.3000
v -382.9500 3.1100 -17.7000
v -382.9500 3.1100 -18.3000
v -382.9500 3.1900 -18.3000
v -382.9500 3.1900 -17.7000
v -370.8000 3.0300 -18.1750
v -369.2000 3.0300 -18.1750
v -369.2000 3.0300 -17.8250
v -370.8000 3.0300 -17.8250
v -370.8000 3.1300 -18.1750
v -369.2000 3.1300 -18.1750
v -369.2000 3.1300 -17.8250
v -370.8000 3.1300 -17.8250
v -370.9500 3.1100 -18.3000
v -370.9500 3.1100 -17.7000
v -369.0500 3.1100 -17.7000
v -369.0500 3.1100 -18.3000
v -370.9500 3.1900 -18.3000
v -369.0500 3.1900 -18.3000
v -369.0500 3.1900 -17.7000
v -370.9500 3.1900 -17.7000
v -370.9500 3.1100 -18.3000
v -369.0500 3.1100 -18.3000
v -369.0500 3.1900 -18.3000
v -370.9500 3.1900 -18.3000
v -369.0500 3.1100 -17.7000
v -370.9500 3.1100 -17.7000
v -370.9500 3.1900 -17.7000
v -369.0500 3.1900 -17.7000
v -369.0500 3.1100 -18.3000
v -369.0500 3.1100 -17.7000
v -369.0500 3.1900 -17.7000
v -369.0500 3.1900 -18.3000
v -370.9500 3.1100 -17.7000
v -370.9500 3.1100 -18.3000
v -370.9500 3.1900 -18.3000
v -370.9500 3.1900 -17.7000
v -400.8000 3.0300 -12.1750
v -399.2000 3.0300 -12.1750
v -399.2000 3.0300 -11.8250
v -400.8000 3.0300 -11.8250
v -400.8000 3.1300 -12.1750
v -399.2000 3.1300 -12.1750
v -399.2000 3.1300 -11.8250
v -400.8000 3.1300 -11.8250
v -400.9500 3.1100 -12.3000
v -400.9500 3.1100 -11.7000
v -399.0500 3.1100 -11.7000
v -399.0500 3.1100 -12.3000
v -400.9500 3.1900 -12.3000
v -399.0500 3.1900 -12.3000
v -399.0500 3.1900 -11.7000
v -400.9500 3.1900 -11.7000
v -400.9500 3.1100 -12.3000
v -399.0500 3.1100 -12.3000
v -399.0500 3.1900 -12.3000
v -400.9500 3.1900 -12.3000
v -399.0500 3.1100 -11.7000
v -400.9500 3.1100 -11.7000
v -400.9500 3.1900 -11.7000
v -399.0500 3.1900 -11.7000
v -399.0500 3.1100 -12.3000
v -399.0500 3.1100 -11.7000
v -399.0500 3.1900 -11.7000
v -399.0500 3.1900 -12.3000
v -400.9500 3.1100 -11.7000
v -400.9500 3.1100 -12.3000
v -400.9500 3.1900 -12.3000
v -400.9500 3.1900 -11.7000
v -388.8000 3.0300 -12.1750
v -387.2000 3.0300 -12.1750
v -387.2000 3.0300 -11.8250
v -388.8000 3.0300 -11.8250
v -388.8000 3.1300 -12.1750
v -387.2000 3.1300 -12.1750
v -387.2000 3.1300 -11.8250
v -388.8000 3.1300 -11.8250
v -388.9500 3.1100 -12.3000
v -388.9500 3.1100 -11.7000
v -387.0500 3.1100 -11.7000
v -387.0500 3.1100 -12.3000
v -388.9500 3.1900 -12.3000
v -387.0500 3.1900 -12.3000
v -387.0500 3.1900 -11.7000
v -388.9500 3.1900 -11.7000
v -388.9500 3.1100 -12.3000
v -387.0500 3.1100 -12.3000
v -387.0500 3.1900 -12.3000
v -388.9500 3.1900 -12.3000
v -387.0500 3.1100 -11.7000
v -388.9500 3.1100 -11.7000
v -388.9500 3.1900 -11.7000
v -387.0500 3.1900 -11.7000
v -387.0500 3.1100 -12.3000
v -387.0500 3.1100 -11.7000
v -387.0500 3.1900 -11.7000
v -387.0500 3.1900 -12.3000
v -388.9500 3.1100 -11.7000
v -388.9500 3.1100 -12.3000
v -388.9500 3.1900 -12.3000
v -388.9500 3.1900 -11.7000
v -376.8000 3.0300 -12.1750
v -375.2000 3.0300 -12.1750
v -375.2000 3.0300 -11.8250
v -376.8000 3.0300 -11.8250
v -376.8000 3.1300 -12.1750
v -375.2000 3.1300 -12.1750
v -375.2000 3.1300 -11.8250
v -376.8000 3.1300 -11.8250
v -376.9500 3.1100 -12.3000
v -376.9500 3.1100 -11.7000
v -375.0500 3.1100 -11.7000
v -375.0500 3.1100 -12.3000
v -376.9500 3.1900 -12.3000
v -375.0500 3.1900 -12.3000
v -375.0500 3.1900 -11.7000
v -376.9500 3.1900 -11.7000
v -376.9500 3.1100 -12.3000
v -375.0500 3.1100 -12.3000
v -375.0500 3.1900 -12.3000
v -376.9500 3.1900 -12.3000
v -375.0500 3.1100 -11.7000
v -376.9500 3.1100 -11.7000
v -376.9500 3.1900 -11.7000
v -375.0500 3.1900 -11.7000
v -375.0500 3.1100 -12.3000
v -375.0500 3.1100 -11.7000
v -375.0500 3.1900 -11.7000
v -375.0500 3.1900 -12.3000
v -376.9500 3.1100 -11.7000
v -376.9500 3.1100 -12.3000
v -376.9500 3.1900 -12.3000
v -376.9500 3.1900 -11.7000
v -400.8000 3.0300 -6.1750
v -399.2000 3.0300 -6.1750
v -399.2000 3.0300 -5.8250
v -400.8000 3.0300 -5.8250
v -400.8000 3.1300 -6.1750
v -399.2000 3.1300 -6.1750
v -399.2000 3.1300 -5.8250
v -400.8000 3.1300 -5.8250
v -400.9500 3.1100 -6.3000
v -400.9500 3.1100 -5.7000
v -399.0500 3.1100 -5.7000
v -399.0500 3.1100 -6.3000
v -400.9500 3.1900 -6.3000
v -399.0500 3.1900 -6.3000
v -399.0500 3.1900 -5.7000
v -400.9500 3.1900 -5.7000
v -400.9500 3.1100 -6.3000
v -399.0500 3.1100 -6.3000
v -399.0500 3.1900 -6.3000
v -400.9500 3.1900 -6.3000
v -399.0500 3.1100 -5.7000
v -400.9500 3.1100 -5.7000
v -400.9500 3.1900 -5.7000
v -399.0500 3.1900 -5.7000
v -399.0500 3.1100 -6.3000
v -399.0500 3.1100 -5.7000
v -399.0500 3.1900 -5.7000
v -399.0500 3.1900 -6.3000
v -400.9500 3.1100 -5.7000
v -400.9500 3.1100 -6.3000
v -400.9500 3.1900 -6.3000
v -400.9500 3.1900 -5.7000
v -394.8000 3.0300 -6.1750
v -393.2000 3.0300 -6.1750
v -393.2000 3.0300 -5.8250
v -394.8000 3.0300 -5.8250
v -394.8000 3.1300 -6.1750
v -393.2000 3.1300 -6.1750
v -393.2000 3.1300 -5.8250
v -394.8000 3.1300 -5.8250
v -394.9500 3.1100 -6.3000
v -394.9500 3.1100 -5.7000
v -393.0500 3.1100 -5.7000
v -393.0500 3.1100 -6.3000
v -394.9500 3.1900 -6.3000
v -393.0500 3.1900 -6.3000
v -393.0500 3.1900 -5.7000
v -394.9500 3.1900 -5.7000
v -394.9500 3.1100 -6.3000
v -393.0500 3.1100 -6.3000
v -393.0500 3.1900 -6.3000
v -394.9500 3.1900 -6.3000
v -393.0500 3.1100 -5.7000
v -394.9500 3.1100 -5.7000
v -394.9500 3.1900 -5.7000
v -393.0500 3.1900 -5.7000
v -393.0500 3.1100 -6.3000
v -393.0500 3.1100 -5.7000
v -393.0500 3.1900 -5.7000
v -393.0500 3.1900 -6.3000
v -394.9500 3.1100 -5.7000
v -394.9500 3.1100 -6.3000
v -394.9500 3.1900 -6.3000
v -394.9500 3.1900 -5.7000
v -376.8000 3.0300 -6.1750
v -375.2000 3.0300 -6.1750
v -375.2000 3.0300 -5.8250
v -376.8000 3.0300 -5.8250
v -376.8000 3.1300 -6.1750
v -375.2000 3.1300 -6.1750
v -375.2000 3.1300 -5.8250
v -376.8000 3.1300 -5.8250
v -376.9500 3.1100 -6.3000
v -376.9500 3.1100 -5.7000
v -375.0500 3.1100 -5.7000
v -375.0500 3.1100 -6.3000
v -376.9500 3.1900 -6.3000
v -375.0500 3.1900 -6.3000
v -375.0500 3.1900 -5.7000
v -376.9500 3.1900 -5.7000
v -376.9500 3.1100 -6.3000
v -375.0500 3.1100 -6.3000
v -375.0500 3.1900 -6.3000
v -376.9500 3.1900 -6.3000
v -375.0500 3.1100 -5.7000
v -376.9500 3.1100 -5.7000
v -376.9500 3.1900 -5.7000
v -375.0500 3.1900 -5.7000
v -375.0500 3.1100 -6.3000
v -375.0500 3.1100 -5.7000
v -375.0500 3.1900 -5.7000
v -375.0500 3.1900 -6.3000
v -376.9500 3.1100 -5.7000
v -376.9500 3.1100 -6.3000
v -376.9500 3.1900 -6.3000
v -376.9500 3.1900 -5.7000
v -370.8000 3.0300 -6.1750
v -369.2000 3.0300 -6.1750
v -369.2000 3.0300 -5.8250
v -370.8000 3.0300 -5.8250
v -370.8000 3.1300 -6.1750
v -369.2000 3.1300 -6.1750
v -369.2000 3.1300 -5.8250
v -370.8000 3.1300 -5.8250
v -370.9500 3.1100 -6.3000
v -370.9500 3.1100 -5.7000
v -369.0500 3.1100 -5.7000
v -369.0500 3.1100 -6.3000
v -370.9500 3.1900 -6.3000
v -369.0500 3.1900 -6.3000
v -369.0500 3.1900 -5.7000
v -370.9500 3.1900 -5.7000
v -370.9500 3.1100 -6.3000
v -369.0500 3.1100 -6.3000
v -369.0500 3.1900 -6.3000
v -370.9500 3.1900 -6.3000
v -369.0500 3.1100 -5.7000
v -370.9500 3.1100 -5.7000
v -370.9500 3.1900 -5.7000
v -369.0500 3.1900 -5.7000
v -369.0500 3.1100 -6.3000
v -369.0500 3.1100 -5.7000
v -369.0500 3.1900 -5.7000
v -369.0500 3.1900 -6.3000
v -370.9500 3.1100 -5.7000
v -370.9500 3.1100 -6.3000
v -370.9500 3.1900 -6.3000
v -370.9500 3.1900 -5.7000
vt -269.7833 -23.1167
vt -269.7833 -20.8833
vt -267.5500 -20.8833
vt -267.5500 -23.1167
vt -269.7833 -23.1167
vt -267.5500 -23.1167
vt -267.5500 -20.8833
vt -269.7833 -20.8833
vt -269.7833 0.0000
vt -267.5500 0.0000
vt -267.5500 2.1333
vt -269.7833 2.1333
vt -267.5500 0.0000
vt -269.7833 0.0000
vt -269.7833 2.1333
vt -267.5500 2.1333
vt -23.1167 0.0000
vt -20.8833 0.0000
vt -20.8833 2.1333
vt -23.1167 2.1333
vt -20.8833 0.0000
vt -23.1167 0.0000
vt -23.1167 2.1333
vt -20.8833 2.1333
vt -267.7833 -23.1167
vt -267.7833 -20.8833
vt -265.5500 -20.8833
vt -265.5500 -23.1167
vt -267.7833 -23.1167
vt -265.5500 -23.1167
vt -265.5500 -20.8833
vt -267.7833 -20.8833
vt -267.7833 0.0000
vt -265.5500 0.0000
vt -265.5500 2.1333
vt -267.7833 2.1333
vt -265.5500 0.0000
vt -267.7833 0.0000
vt -267.7833 2.1333
vt -265.5500 2.1333
vt -23.1167 0.0000
vt -20.8833 0.0000
vt -20.8833 2.1333
vt -23.1167 2.1333
vt -20.8833 0.0000
vt -23.1167 0.0000
vt -23.1167 2.1333
vt -20.8833 2.1333
vt -265.7833 -23.1167
vt -265.7833 -20.8833
vt -263.5500 -20.8833
vt -263.5500 -23.1167
vt -265.7833 -23.1167
vt -263.5500 -23.1167
vt -263.5500 -20.8833
vt -265.7833 -20.8833
vt -265.7833 0.0000
vt -263.5500 0.0000
vt -263.5500 2.1333
vt -265.7833 2.1333
vt -263.5500 0.0000
vt -265.7833 0.0000
vt -265.7833 2.1333
vt -263.5500 2.1333
vt -23.1167 0.0000
vt -20.8833 0.0000
vt -20.8833 2.1333
vt -23.1167 2.1333
vt -20.8833 0.0000
vt -23.1167 0.0000
vt -23.1167 2.1333
vt -20.8833 2.1333
vt -263.7833 -23.1167
vt -263.7833 -20.8833
vt -261.5500 -20.8833
vt -261.5500 -23.1167
vt -263.7833 -23.1167
vt -261.5500 -23.1167
vt -261.5500 -20.8833
vt -263.7833 -20.8833
vt -263.7833 0.0000
vt -261.5500 0.0000
vt -261.5500 2.1333
vt -263.7833 2.1333
vt -261.5500 0.0000
vt -263.7833 0.0000
vt -263.7833 2.1333
vt -261.5500 2.1333
vt -23.1167 0.0000
vt -20.8833 0.0000
vt -20.8833 2.1333
vt -23.1167 2.1333
vt -20.8833 0.0000
vt -23.1167 0.0000
vt -23.1167 2.1333
vt -20.8833 2.1333
vt -261.7833 -23.1167
vt -261.7833 -20.8833
vt -259.5500 -20.8833
vt -259.5500 -23.1167
vt -261.7833 -23.1167
vt -259.5500 -23.1167
vt -259.5500 -20.8833
vt -261.7833 -20.8833
vt -261.7833 0.0000
vt -259.5500 0.0000
vt -259.5500 2.1333
vt -261.7833 2.1333
vt -259.5500 0.0000
vt -261.7833 0.0000
vt -261.7833 2.1333
vt -259.5500 2.1333
vt -23.1167 0.0000
vt -20.8833 0.0000
vt -20.8833 2.1333
vt -23.1167 2.1333
vt -20.8833 0.0000
vt -23.1167 0.0000
vt -23.1167 2.1333
vt -20.8833 2.1333
vt -257.7833 -23.1167
vt -257.7833 -20.8833
vt -255.5500 -20.8833
vt -255.5500 -23.1167
vt -257.7833 -23.1167
vt -255.5500 -23.1167
vt -255.5500 -20.8833
vt -257.7833 -20.8833
vt -257.7833 0.0000
vt -255.5500 0.0000
vt -255.5500 2.1333
vt -257.7833 2.1333
vt -255.5500 0.0000
vt -257.7833 0.0000
vt -257.7833 2.1333
vt -255.5500 2.1333
vt -23.1167 0.0000
vt -20.8833 0.0000
vt -20.8833 2.1333
vt -23.1167 2.1333
vt -20.8833 0.0000
vt -23.1167 0.0000
vt -23.1167 2.1333
vt -20.8833 2.1333
vt -255.7833 -23.1167
vt -255.7833 -20.8833
vt -253.5500 -20.8833
vt -253.5500 -23.1167
vt -255.7833 -23.1167
vt -253.5500 -23.1167
vt -253.5500 -20.8833
vt -255.7833 -20.8833
vt -255.7833 0.0000
vt -253.5500 0.0000
vt -253.5500 2.1333
vt -255.7833 2.1333
vt -253.5500 0.0000
vt -255.7833 0.0000
vt -255.7833 2.1333
vt -253.5500 2.1333
vt -23.1167 0.0000
vt -20.8833 0.0000
vt -20.8833 2.1333
vt -23.1167 2.1333
vt -20.8833 0.0000
vt -23.1167 0.0000
vt -23.1167 2.1333
vt -20.8833 2.1333
vt -253.7833 -23.1167
vt -253.7833 -20.8833
vt -251.5500 -20.8833
vt -251.5500 -23.1167
vt -253.7833 -23.1167
vt -251.5500 -23.1167
vt -251.5500 -20.8833
vt -253.7833 -20.8833
vt -253.7833 0.0000
vt -251.5500 0.0000
vt -251.5500 2.1333
vt -253.7833 2.1333
vt -251.5500 0.0000
vt -253.7833 0.0000
vt -253.7833 2.1333
vt -251.5500 2.1333
vt -23.1167 0.0000
vt -20.8833 0.0000
vt -20.8833 2.1333
vt -23.1167 2.1333
vt -20.8833 0.0000
vt -23.1167 0.0000
vt -23.1167 2.1333
vt -20.8833 2.1333
vt -251.7833 -23.1167
vt -251.7833 -20.8833
vt -249.5500 -20.8833
vt -249.5500 -23.1167
vt -251.7833 -23.1167
vt -249.5500 -23.1167
vt -249.5500 -20.8833
vt -251.7833 -20.8833
vt -251.7833 0.0000
vt -249.5500 0.0000
vt -249.5500 2.1333
vt -251.7833 2.1333
vt -249.5500 0.0000
vt -251.7833 0.0000
vt -251.7833 2.1333
vt -249.5500 2.1333
vt -23.1167 0.0000
vt -20.8833 0.0000
vt -20.8833 2.1333
vt -23.1167 2.1333
vt -20.8833 0.0000
vt -23.1167 0.0000
vt -23.1167 2.1333
vt -20.8833 2.1333
vt -249.7833 -23.1167
vt -249.7833 -20.8833
vt -247.5500 -20.8833
vt -247.5500 -23.1167
vt -249.7833 -23.1167
vt -247.5500 -23.1167
vt -247.5500 -20.8833
vt -249.7833 -20.8833
vt -249.7833 0.0000
vt -247.5500 0.0000
vt -247.5500 2.1333
vt -249.7833 2.1333
vt -247.5500 0.0000
vt -249.7833 0.0000
vt -249.7833 2.1333
vt -247.5500 2.1333
vt -23.1167 0.0000
vt -20.8833 0.0000
vt -20.8833 2.1333
vt -23.1167 2.1333
vt -20.8833 0.0000
vt -23.1167 0.0000
vt -23.1167 2.1333
vt -20.8833 2.1333
vt -249.7833 -21.1167
vt -249.7833 -18.8833
vt -247.5500 -18.8833
vt -247.5500 -21.1167
vt -249.7833 -21.1167
vt -247.5500 -21.1167
vt -247.5500 -18.8833
vt -249.7833 -18.8833
vt -249.7833 0.0000
vt -247.5500 0.0000
vt -247.5500 2.1333
vt -249.7833 2.1333
vt -247.5500 0.0000
vt -249.7833 0.0000
vt -249.7833 2.1333
vt -247.5500 2.1333
vt -21.1167 0.0000
vt -18.8833 0.0000
vt -18.8833 2.1333
vt -21.1167 2.1333
vt -18.8833 0.0000
vt -21.1167 0.0000
vt -21.1167 2.1333
vt -18.8833 2.1333
vt -265.7833 -19.1167
vt -265.7833 -16.8833
vt -263.5500 -16.8833
vt -263.5500 -19.1167
vt -265.7833 -19.1167
vt -263.5500 -19.1167
vt -263.5500 -16.8833
vt -265.7833 -16.8833
vt -265.7833 0.0000
vt -263.5500 0.0000
vt -263.5500 2.1333
vt -265.7833 2.1333
vt -263.5500 0.0000
vt -265.7833 0.0000
vt -265.7833 2.1333
vt -263.5500 2.1333
vt -19.1167 0.0000
vt -16.8833 0.0000
vt -16.8833 2.1333
vt -19.1167 2.1333
vt -16.8833 0.0000
vt -19.1167 0.0000
vt -19.1167 2.1333
vt -16.8833 2.1333
vt -261.7833 -19.1167
vt -261.7833 -16.8833
vt -259.5500 -16.8833
vt -259.5500 -19.1167
vt -261.7833 -19.1167
vt -259.5500 -19.1167
vt -259.5500 -16.8833
vt -261.7833 -16.8833
vt -261.7833 0.0000
vt -259.5500 0.0000
vt -259.5500 2.1333
vt -261.7833 2.1333
vt -259.5500 0.0000
vt -261.7833 0.0000
vt -261.7833 2.1333
vt -259.5500 2.1333
vt -19.1167 0.0000
vt -16.8833 0.0000
vt -16.8833 2.1333
vt -19.1167 2.1333
vt -16.8833 0.0000
vt -19.1167 0.0000
vt -19.1167 2.1333
vt -16.8833 2.1333
vt -257.7833 -19.1167
vt -257.7833 -16.8833
vt -255.5500 -16.8833
vt -255.5500 -19.1167
vt -257.7833 -19.1167
vt -255.5500 -19.1167
vt -255.5500 -16.8833
vt -257.7833 -16.8833
vt -257.7833 0.0000
vt -255.5500 0.0000
vt -255.5500 2.1333
vt -257.7833 2.1333
vt -255.5500 0.0000
vt -257.7833 0.0000
vt -257.7833 2.1333
vt -255.5500 2.1333
vt -19.1167 0.0000
vt -16.8833 0.0000
vt -16.8833 2.1333
vt -19.1167 2.1333
vt -16.8833 0.0000
vt -19.1167 0.0000
vt -19.1167 2.1333
vt -16.8833 2.1333
vt -253.7833 -19.1167
vt -253.7833 -16.8833
vt -251.5500 -16.8833
vt -251.5500 -19.1167
vt -253.7833 -19.1167
vt -251.5500 -19.1167
vt -251.5500 -16.8833
vt -253.7833 -16.8833
vt -253.7833 0.0000
vt -251.5500 0.0000
vt -251.5500 2.1333
vt -253.7833 2.1333
vt -251.5500 0.0000
vt -253.7833 0.0000
vt -253.7833 2.1333
vt -251.5500 2.1333
vt -19.1167 0.0000
vt -16.8833 0.0000
vt -16.8833 2.1333
vt -19.1167 2.1333
vt -16.8833 0.0000
vt -19.1167 0.0000
vt -19.1167 2.1333
vt -16.8833 2.1333
vt -249.7833 -19.1167
vt -249.7833 -16.8833
vt -247.5500 -16.8833
vt -247.5500 -19.1167
vt -249.7833 -19.1167
vt -247.5500 -19.1167
vt -247.5500 -16.8833
vt -249.7833 -16.8833
vt -249.7833 0.0000
vt -247.5500 0.0000
vt -247.5500 2.1333
vt -249.7833 2.1333
vt -247.5500 0.0000
vt -249.7833 0.0000
vt -249.7833 2.1333
vt -247.5500 2.1333
vt -19.1167 0.0000
vt -16.8833 0.0000
vt -16.8833 2.1333
vt -19.1167 2.1333
vt -16.8833 0.0000
vt -19.1167 0.0000
vt -19.1167 2.1333
vt -16.8833 2.1333
vt -253.7833 -17.1167
vt -253.7833 -14.8833
vt -251.5500 -14.8833
vt -251.5500 -17.1167
vt -253.7833 -17.1167
vt -251.5500 -17.1167
vt -251.5500 -14.8833
vt -253.7833 -14.8833
vt -253.7833 0.0000
vt -251.5500 0.0000
vt -251.5500 2.1333
vt -253.7833 2.1333
vt -251.5500 0.0000
vt -253.7833 0.0000
vt -253.7833 2.1333
vt -251.5500 2.1333
vt -17.1167 0.0000
vt -14.8833 0.0000
vt -14.8833 2.1333
vt -17.1167 2.1333
vt -14.8833 0.0000
vt -17.1167 0.0000
vt -17.1167 2.1333
vt -14.8833 2.1333
vt -265.7833 -15.1167
vt -265.7833 -12.8833
vt -263.5500 -12.8833
vt -263.5500 -15.1167
vt -265.7833 -15.1167
vt -263.5500 -15.1167
vt -263.5500 -12.8833
vt -265.7833 -12.8833
vt -265.7833 0.0000
vt -263.5500 0.0000
vt -263.5500 2.1333
vt -265.7833 2.1333
vt -263.5500 0.0000
vt -265.7833 0.0000
vt -265.7833 2.1333
vt -263.5500 2.1333
vt -15.1167 0.0000
vt -12.8833 0.0000
vt -12.8833 2.1333
vt -15.1167 2.1333
vt -12.8833 0.0000
vt -15.1167 0.0000
vt -15.1167 2.1333
vt -12.8833 2.1333
vt -263.7833 -15.1167
vt -263.7833 -12.8833
vt -261.5500 -12.8833
vt -261.5500 -15.1167
vt -263.7833 -15.1167
vt -261.5500 -15.1167
vt -261.5500 -12.8833
vt -263.7833 -12.8833
vt -263.7833 0.0000
vt -261.5500 0.0000
vt -261.5500 2.1333
vt -263.7833 2.1333
vt -261.5500 0.0000
vt -263.7833 0.0000
vt -263.7833 2.1333
vt -261.5500 2.1333
vt -15.1167 0.0000
vt -12.8833 0.0000
vt -12.8833 2.1333
vt -15.1167 2.1333
vt -12.8833 0.0000
vt -15.1167 0.0000
vt -15.1167 2.1333
vt -12.8833 2.1333
vt -261.7833 -15.1167
vt -261.7833 -12.8833
vt -259.5500 -12.8833
vt -259.5500 -15.1167
vt -261.7833 -15.1167
vt -259.5500 -15.1167
vt -259.5500 -12.8833
vt -261.7833 -12.8833
vt -261.7833 0.0000
vt -259.5500 0.0000
vt -259.5500 2.1333
vt -261.7833 2.1333
vt -259.5500 0.0000
vt -261.7833 0.0000
vt -261.7833 2.1333
vt -259.5500 2.1333
vt -15.1167 0.0000
vt -12.8833 0.0000
vt -12.8833 2.1333
vt -15.1167 2.1333
vt -12.8833 0.0000
vt -15.1167 0.0000
vt -15.1167 2.1333
vt -12.8833 2.1333
vt -257.7833 -15.1167
vt -257.7833 -12.8833
vt -255.5500 -12.8833
vt -255.5500 -15.1167
vt -257.7833 -15.1167
vt -255.5500 -15.1167
vt -255.5500 -12.8833
vt -257.7833 -12.8833
vt -257.7833 0.0000
vt -255.5500 0.0000
vt -255.5500 2.1333
vt -257.7833 2.1333
vt -255.5500 0.0000
vt -257.7833 0.0000
vt -257.7833 2.1333
vt -255.5500 2.1333
vt -15.1167 0.0000
vt -12.8833 0.0000
vt -12.8833 2.1333
vt -15.1167 2.1333
vt -12.8833 0.0000
vt -15.1167 0.0000
vt -15.1167 2.1333
vt -12.8833 2.1333
vt -253.7833 -15.1167
vt -253.7833 -12.8833
vt -251.5500 -12.8833
vt -251.5500 -15.1167
vt -253.7833 -15.1167
vt -251.5500 -15.1167
vt -251.5500 -12.8833
vt -253.7833 -12.8833
vt -253.7833 0.0000
vt -251.5500 0.0000
vt -251.5500 2.1333
vt -253.7833 2.1333
vt -251.5500 0.0000
vt -253.7833 0.0000
vt -253.7833 2.1333
vt -251.5500 2.1333
vt -15.1167 0.0000
vt -12.8833 0.0000
vt -12.8833 2.1333
vt -15.1167 2.1333
vt -12.8833 0.0000
vt -15.1167 0.0000
vt -15.1167 2.1333
vt -12.8833 2.1333
vt -251.7833 -15.1167
vt -251.7833 -12.8833
vt -249.5500 -12.8833
vt -249.5500 -15.1167
vt -251.7833 -15.1167
vt -249.5500 -15.1167
vt -249.5500 -12.8833
vt -251.7833 -12.8833
vt -251.7833 0.0000
vt -249.5500 0.0000
vt -249.5500 2.1333
vt -251.7833 2.1333
vt -249.5500 0.0000
vt -251.7833 0.0000
vt -251.7833 2.1333
vt -249.5500 2.1333
vt -15.1167 0.0000
vt -12.8833 0.0000
vt -12.8833 2.1333
vt -15.1167 2.1333
vt -12.8833 0.0000
vt -15.1167 0.0000
vt -15.1167 2.1333
vt -12.8833 2.1333
vt -249.7833 -15.1167
vt -249.7833 -12.8833
vt -247.5500 -12.8833
vt -247.5500 -15.1167
vt -249.7833 -15.1167
vt -247.5500 -15.1167
vt -247.5500 -12.8833
vt -249.7833 -12.8833
vt -249.7833 0.0000
vt -247.5500 0.0000
vt -247.5500 2.1333
vt -249.7833 2.1333
vt -247.5500 0.0000
vt -249.7833 0.0000
vt -249.7833 2.1333
vt -247.5500 2.1333
vt -15.1167 0.0000
vt -12.8833 0.0000
vt -12.8833 2.1333
vt -15.1167 2.1333
vt -12.8833 0.0000
vt -15.1167 0.0000
vt -15.1167 2.1333
vt -12.8833 2.1333
vt -247.7833 -15.1167
vt -247.7833 -12.8833
vt -245.5500 -12.8833
vt -245.5500 -15.1167
vt -247.7833 -15.1167
vt -245.5500 -15.1167
vt -245.5500 -12.8833
vt -247.7833 -12.8833
vt -247.7833 0.0000
vt -245.5500 0.0000
vt -245.5500 2.1333
vt -247.7833 2.1333
vt -245.5500 0.0000
vt -247.7833 0.0000
vt -247.7833 2.1333
vt -245.5500 2.1333
vt -15.1167 0.0000
vt -12.8833 0.0000
vt -12.8833 2.1333
vt -15.1167 2.1333
vt -12.8833 0.0000
vt -15.1167 0.0000
vt -15.1167 2.1333
vt -12.8833 2.1333
vt -257.7833 -13.1167
vt -257.7833 -10.8833
vt -255.5500 -10.8833
vt -255.5500 -13.1167
vt -257.7833 -13.1167
vt -255.5500 -13.1167
vt -255.5500 -10.8833
vt -257.7833 -10.8833
vt -257.7833 0.0000
vt -255.5500 0.0000
vt -255.5500 2.1333
vt -257.7833 2.1333
vt -255.5500 0.0000
vt -257.7833 0.0000
vt -257.7833 2.1333
vt -255.5500 2.1333
vt -13.1167 0.0000
vt -10.8833 0.0000
vt -10.8833 2.1333
vt -13.1167 2.1333
vt -10.8833 0.0000
vt -13.1167 0.0000
vt -13.1167 2.1333
vt -10.8833 2.1333
vt -269.7833 -11.1167
vt -269.7833 -8.8833
vt -267.5500 -8.8833
vt -267.5500 -11.1167
vt -269.7833 -11.1167
vt -267.5500 -11.1167
vt -267.5500 -8.8833
vt -269.7833 -8.8833
vt -269.7833 0.0000
vt -267.5500 0.0000
vt -267.5500 2.1333
vt -269.7833 2.1333
vt -267.5500 0.0000
vt -269.7833 0.0000
vt -269.7833 2.1333
vt -267.5500 2.1333
vt -11.1167 0.0000
vt -8.8833 0.0000
vt -8.8833 2.1333
vt -11.1167 2.1333
vt -8.8833 0.0000
vt -11.1167 0.0000
vt -11.1167 2.1333
vt -8.8833 2.1333
vt -267.7833 -11.1167
vt -267.7833 -8.8833
vt -265.5500 -8.8833
vt -265.5500 -11.1167
vt -267.7833 -11.1167
vt -265.5500 -11.1167
vt -265.5500 -8.8833
vt -267.7833 -8.8833
vt -267.7833 0.0000
vt -265.5500 0.0000
vt -265.5500 2.1333
vt -267.7833 2.1333
vt -265.5500 0.0000
vt -267.7833 0.0000
vt -267.7833 2.1333
vt -265.5500 2.1333
vt -11.1167 0.0000
vt -8.8833 0.0000
vt -8.8833 2.1333
vt -11.1167 2.1333
vt -8.8833 0.0000
vt -11.1167 0.0000
vt -11.1167 2.1333
vt -8.8833 2.1333
vt -265.7833 -11.1167
vt -265.7833 -8.8833
vt -263.5500 -8.8833
vt -263.5500 -11.1167
vt -265.7833 -11.1167
vt -263.5500 -11.1167
vt -263.5500 -8.8833
vt -265.7833 -8.8833
vt -265.7833 0.0000
vt -263.5500 0.0000
vt -263.5500 2.1333
vt -265.7833 2.1333
vt -263.5500 0.0000
vt -265.7833 0.0000
vt -265.7833 2.1333
vt -263.5500 2.1333
vt -11.1167 0.0000
vt -8.8833 0.0000
vt -8.8833 2.1333
vt -11.1167 2.1333
vt -8.8833 0.0000
vt -11.1167 0.0000
vt -11.1167 2.1333
vt -8.8833 2.1333
vt -257.7833 -11.1167
vt -257.7833 -8.8833
vt -255.5500 -8.8833
vt -255.5500 -11.1167
vt -257.7833 -11.1167
vt -255.5500 -11.1167
vt -255.5500 -8.8833
vt -257.7833 -8.8833
vt -257.7833 0.0000
vt -255.5500 0.0000
vt -255.5500 2.1333
vt -257.7833 2.1333
vt -255.5500 0.0000
vt -257.7833 0.0000
vt -257.7833 2.1333
vt -255.5500 2.1333
vt -11.1167 0.0000
vt -8.8833 0.0000
vt -8.8833 2.1333
vt -11.1167 2.1333
vt -8.8833 0.0000
vt -11.1167 0.0000
vt -11.1167 2.1333
vt -8.8833 2.1333
vt -253.7833 -11.1167
vt -253.7833 -8.8833
vt -251.5500 -8.8833
vt -251.5500 -11.1167
vt -253.7833 -11.1167
vt -251.5500 -11.1167
vt -251.5500 -8.8833
vt -253.7833 -8.8833
vt -253.7833 0.0000
vt -251.5500 0.0000
vt -251.5500 2.1333
vt -253.7833 2.1333
vt -251.5500 0.0000
vt -253.7833 0.0000
vt -253.7833 2.1333
vt -251.5500 2.1333
vt -11.1167 0.0000
vt -8.8833 0.0000
vt -8.8833 2.1333
vt -11.1167 2.1333
vt -8.8833 0.0000
vt -11.1167 0.0000
vt -11.1167 2.1333
vt -8.8833 2.1333
vt -251.7833 -11.1167
vt -251.7833 -8.8833
vt -249.5500 -8.8833
vt -249.5500 -11.1167
vt -251.7833 -11.1167
vt -249.5500 -11.1167
vt -249.5500 -8.8833
vt -251.7833 -8.8833
vt -251.7833 0.0000
vt -249.5500 0.0000
vt -249.5500 2.1333
vt -251.7833 2.1333
vt -249.5500 0.0000
vt -251.7833 0.0000
vt -251.7833 2.1333
vt -249.5500 2.1333
vt -11.1167 0.0000
vt -8.8833 0.0000
vt -8.8833 2.1333
vt -11.1167 2.1333
vt -8.8833 0.0000
vt -11.1167 0.0000
vt -11.1167 2.1333
vt -8.8833 2.1333
vt -249.7833 -11.1167
vt -249.7833 -8.8833
vt -247.5500 -8.8833
vt -247.5500 -11.1167
vt -249.7833 -11.1167
vt -247.5500 -11.1167
vt -247.5500 -8.8833
vt -249.7833 -8.8833
vt -249.7833 0.0000
vt -247.5500 0.0000
vt -247.5500 2.1333
vt -249.7833 2.1333
vt -247.5500 0.0000
vt -249.7833 0.0000
vt -249.7833 2.1333
vt -247.5500 2.1333
vt -11.1167 0.0000
vt -8.8833 0.0000
vt -8.8833 2.1333
vt -11.1167 2.1333
vt -8.8833 0.0000
vt -11.1167 0.0000
vt -11.1167 2.1333
vt -8.8833 2.1333
vt -247.7833 -11.1167
vt -247.7833 -8.8833
vt -245.5500 -8.8833
vt -245.5500 -11.1167
vt -247.7833 -11.1167
vt -245.5500 -11.1167
vt -245.5500 -8.8833
vt -247.7833 -8.8833
vt -247.7833 0.0000
vt -245.5500 0.0000
vt -245.5500 2.1333
vt -247.7833 2.1333
vt -245.5500 0.0000
vt -247.7833 0.0000
vt -247.7833 2.1333
vt -245.5500 2.1333
vt -11.1167 0.0000
vt -8.8833 0.0000
vt -8.8833 2.1333
vt -11.1167 2.1333
vt -8.8833 0.0000
vt -11.1167 0.0000
vt -11.1167 2.1333
vt -8.8833 2.1333
vt -308.9754 -29.7541
vt -308.9754 -29.2623
vt -307.4180 -29.2623
vt -307.4180 -29.7541
vt -308.9754 -29.7541
vt -307.4180 -29.7541
vt -307.4180 -29.2623
vt -308.9754 -29.2623
vt -308.9754 2.5492
vt -307.4180 2.5492
vt -307.4180 2.6148
vt -308.9754 2.6148
vt -307.4180 2.5492
vt -308.9754 2.5492
vt -308.9754 2.6148
vt -307.4180 2.6148
vt -29.7541 2.5492
vt -29.2623 2.5492
vt -29.2623 2.6148
vt -29.7541 2.6148
vt -29.2623 2.5492
vt -29.7541 2.5492
vt -29.7541 2.6148
vt -29.2623 2.6148
vt -304.0574 -29.7541
vt -304.0574 -29.2623
vt -302.5000 -29.2623
vt -302.5000 -29.7541
vt -304.0574 -29.7541
vt -302.5000 -29.7541
vt -302.5000 -29.2623
vt -304.0574 -29.2623
vt -304.0574 2.5492
vt -302.5000 2.5492
vt -302.5000 2.6148
vt -304.0574 2.6148
vt -302.5000 2.5492
vt -304.0574 2.5492
vt -304.0574 2.6148
vt -302.5000 2.6148
vt -29.7541 2.5492
vt -29.2623 2.5492
vt -29.2623 2.6148
vt -29.7541 2.6148
vt -29.2623 2.5492
vt -29.7541 2.5492
vt -29.7541 2.6148
vt -29.2623 2.6148
vt -318.8115 -24.8361
vt -318.8115 -24.3443
vt -317.2541 -24.3443
vt -317.2541 -24.8361
vt -318.8115 -24.8361
vt -317.2541 -24.8361
vt -317.2541 -24.3443
vt -318.8115 -24.3443
vt -318.8115 2.5492
vt -317.2541 2.5492
vt -317.2541 2.6148
vt -318.8115 2.6148
vt -317.2541 2.5492
vt -318.8115 2.5492
vt -318.8115 2.6148
vt -317.2541 2.6148
vt -24.8361 2.5492
vt -24.3443 2.5492
vt -24.3443 2.6148
vt -24.8361 2.6148
vt -24.3443 2.5492
vt -24.8361 2.5492
vt -24.8361 2.6148
vt -24.3443 2.6148
vt -323.7295 -19.9180
vt -323.7295 -19.4262
vt -322.1721 -19.4262
vt -322.1721 -19.9180
vt -323.7295 -19.9180
vt -322.1721 -19.9180
vt -322.1721 -19.4262
vt -323.7295 -19.4262
vt -323.7295 2.5492
vt -322.1721 2.5492
vt -322.1721 2.6148
vt -323.7295 2.6148
vt -322.1721 2.5492
vt -323.7295 2.5492
vt -323.7295 2.6148
vt -322.1721 2.6148
vt -19.9180 2.5492
vt -19.4262 2.5492
vt -19.4262 2.6148
vt -19.9180 2.6148
vt -19.4262 2.5492
vt -19.9180 2.5492
vt -19.9180 2.6148
vt -19.4262 2.6148
vt -304.0574 -19.9180
vt -304.0574 -19.4262
vt -302.5000 -19.4262
vt -302.5000 -19.9180
vt -304.0574 -19.9180
vt -302.5000 -19.9180
vt -302.5000 -19.4262
vt -304.0574 -19.4262
vt -304.0574 2.5492
vt -302.5000 2.5492
vt -302.5000 2.6148
vt -304.0574 2.6148
vt -302.5000 2.5492
vt -304.0574 2.5492
vt -304.0574 2.6148
vt -302.5000 2.6148
vt -19.9180 2.5492
vt -19.4262 2.5492
vt -19.4262 2.6148
vt -19.9180 2.6148
vt -19.4262 2.5492
vt -19.9180 2.5492
vt -19.9180 2.6148
vt -19.4262 2.6148
vt -328.6475 -15.0000
vt -328.6475 -14.5082
vt -327.0902 -14.5082
vt -327.0902 -15.0000
vt -328.6475 -15.0000
vt -327.0902 -15.0000
vt -327.0902 -14.5082
vt -328.6475 -14.5082
vt -328.6475 2.5492
vt -327.0902 2.5492
vt -327.0902 2.6148
vt -328.6475 2.6148
vt -327.0902 2.5492
vt -328.6475 2.5492
vt -328.6475 2.6148
vt -327.0902 2.6148
vt -15.0000 2.5492
vt -14.5082 2.5492
vt -14.5082 2.6148
vt -15.0000 2.6148
vt -14.5082 2.5492
vt -15.0000 2.5492
vt -15.0000 2.6148
vt -14.5082 2.6148
vt -318.8115 -15.0000
vt -318.8115 -14.5082
vt -317.2541 -14.5082
vt -317.2541 -15.0000
vt -318.8115 -15.0000
vt -317.2541 -15.0000
vt -317.2541 -14.5082
vt -318.8115 -14.5082
vt -318.8115 2.5492
vt -317.2541 2.5492
vt -317.2541 2.6148
vt -318.8115 2.6148
vt -317.2541 2.5492
vt -318.8115 2.5492
vt -318.8115 2.6148
vt -317.2541 2.6148
vt -15.0000 2.5492
vt -14.5082 2.5492
vt -14.5082 2.6148
vt -15.0000 2.6148
vt -14.5082 2.5492
vt -15.0000 2.5492
vt -15.0000 2.6148
vt -14.5082 2.6148
vt -313.8934 -15.0000
vt -313.8934 -14.5082
vt -312.3361 -14.5082
vt -312.3361 -15.0000
vt -313.8934 -15.0000
vt -312.3361 -15.0000
vt -312.3361 -14.5082
vt -313.8934 -14.5082
vt -313.8934 2.5492
vt -312.3361 2.5492
vt -312.3361 2.6148
vt -313.8934 2.6148
vt -312.3361 2.5492
vt -313.8934 2.5492
vt -313.8934 2.6148
vt -312.3361 2.6148
vt -15.0000 2.5492
vt -14.5082 2.5492
vt -14.5082 2.6148
vt -15.0000 2.6148
vt -14.5082 2.5492
vt -15.0000 2.5492
vt -15.0000 2.6148
vt -14.5082 2.6148
vt -304.0574 -15.0000
vt -304.0574 -14.5082
vt -302.5000 -14.5082
vt -302.5000 -15.0000
vt -304.0574 -15.0000
vt -302.5000 -15.0000
vt -302.5000 -14.5082
vt -304.0574 -14.5082
vt -304.0574 2.5492
vt -302.5000 2.5492
vt -302.5000 2.6148
vt -304.0574 2.6148
vt -302.5000 2.5492
vt -304.0574 2.5492
vt -304.0574 2.6148
vt -302.5000 2.6148
vt -15.0000 2.5492
vt -14.5082 2.5492
vt -14.5082 2.6148
vt -15.0000 2.6148
vt -14.5082 2.5492
vt -15.0000 2.5492
vt -15.0000 2.6148
vt -14.5082 2.6148
vt -328.6475 -10.0820
vt -328.6475 -9.5902
vt -327.0902 -9.5902
vt -327.0902 -10.0820
vt -328.6475 -10.0820
vt -327.0902 -10.0820
vt -327.0902 -9.5902
vt -328.6475 -9.5902
vt -328.6475 2.5492
vt -327.0902 2.5492
vt -327.0902 2.6148
vt -328.6475 2.6148
vt -327.0902 2.5492
vt -328.6475 2.5492
vt -328.6475 2.6148
vt -327.0902 2.6148
vt -10.0820 2.5492
vt -9.5902 2.5492
vt -9.5902 2.6148
vt -10.0820 2.6148
vt -9.5902 2.5492
vt -10.0820 2.5492
vt -10.0820 2.6148
vt -9.5902 2.6148
vt -318.8115 -10.0820
vt -318.8115 -9.5902
vt -317.2541 -9.5902
vt -317.2541 -10.0820
vt -318.8115 -10.0820
vt -317.2541 -10.0820
vt -317.2541 -9.5902
vt -318.8115 -9.5902
vt -318.8115 2.5492
vt -317.2541 2.5492
vt -317.2541 2.6148
vt -318.8115 2.6148
vt -317.2541 2.5492
vt -318.8115 2.5492
vt -318.8115 2.6148
vt -317.2541 2.6148
vt -10.0820 2.5492
vt -9.5902 2.5492
vt -9.5902 2.6148
vt -10.0820 2.6148
vt -9.5902 2.5492
vt -10.0820 2.5492
vt -10.0820 2.6148
vt -9.5902 2.6148
vt -308.9754 -10.0820
vt -308.9754 -9.5902
vt -307.4180 -9.5902
vt -307.4180 -10.0820
vt -308.9754 -10.0820
vt -307.4180 -10.0820
vt -307.4180 -9.5902
vt -308.9754 -9.5902
vt -308.9754 2.5492
vt -307.4180 2.5492
vt -307.4180 2.6148
vt -308.9754 2.6148
vt -307.4180 2.5492
vt -308.9754 2.5492
vt -308.9754 2.6148
vt -307.4180 2.6148
vt -10.0820 2.5492
vt -9.5902 2.5492
vt -9.5902 2.6148
vt -10.0820 2.6148
vt -9.5902 2.5492
vt -10.0820 2.5492
vt -10.0820 2.6148
vt -9.5902 2.6148
vt -328.6475 -5.1639
vt -328.6475 -4.6721
vt -327.0902 -4.6721
vt -327.0902 -5.1639
vt -328.6475 -5.1639
vt -327.0902 -5.1639
vt -327.0902 -4.6721
vt -328.6475 -4.6721
vt -328.6475 2.5492
vt -327.0902 2.5492
vt -327.0902 2.6148
vt -328.6475 2.6148
vt -327.0902 2.5492
vt -328.6475 2.5492
vt -328.6475 2.6148
vt -327.0902 2.6148
vt -5.1639 2.5492
vt -4.6721 2.5492
vt -4.6721 2.6148
vt -5.1639 2.6148
vt -4.6721 2.5492
vt -5.1639 2.5492
vt -5.1639 2.6148
vt -4.6721 2.6148
vt -323.7295 -5.1639
vt -323.7295 -4.6721
vt -322.1721 -4.6721
vt -322.1721 -5.1639
vt -323.7295 -5.1639
vt -322.1721 -5.1639
vt -322.1721 -4.6721
vt -323.7295 -4.6721
vt -323.7295 2.5492
vt -322.1721 2.5492
vt -322.1721 2.6148
vt -323.7295 2.6148
vt -322.1721 2.5492
vt -323.7295 2.5492
vt -323.7295 2.6148
vt -322.1721 2.6148
vt -5.1639 2.5492
vt -4.6721 2.5492
vt -4.6721 2.6148
vt -5.1639 2.6148
vt -4.6721 2.5492
vt -5.1639 2.5492
vt -5.1639 2.6148
vt -4.6721 2.6148
vt -308.9754 -5.1639
vt -308.9754 -4.6721
vt -307.4180 -4.6721
vt -307.4180 -5.1639
vt -308.9754 -5.1639
vt -307.4180 -5.1639
vt -307.4180 -4.6721
vt -308.9754 -4.6721
vt -308.9754 2.5492
vt -307.4180 2.5492
vt -307.4180 2.6148
vt -308.9754 2.6148
vt -307.4180 2.5492
vt -308.9754 2.5492
vt -308.9754 2.6148
vt -307.4180 2.6148
vt -5.1639 2.5492
vt -4.6721 2.5492
vt -4.6721 2.6148
vt -5.1639 2.6148
vt -4.6721 2.5492
vt -5.1639 2.5492
vt -5.1639 2.6148
vt -4.6721 2.6148
vt -304.0574 -5.1639
vt -304.0574 -4.6721
vt -302.5000 -4.6721
vt -302.5000 -5.1639
vt -304.0574 -5.1639
vt -302.5000 -5.1639
vt -302.5000 -4.6721
vt -304.0574 -4.6721
vt -304.0574 2.5492
vt -302.5000 2.5492
vt -302.5000 2.6148
vt -304.0574 2.6148
vt -302.5000 2.5492
vt -304.0574 2.5492
vt -304.0574 2.6148
vt -302.5000 2.6148
vt -5.1639 2.5492
vt -4.6721 2.5492
vt -4.6721 2.6148
vt -5.1639 2.6148
vt -4.6721 2.5492
vt -5.1639 2.5492
vt -5.1639 2.6148
vt -4.6721 2.6148
usemtl fluorescent
f 817 820 819 818
f 821 822 823 824
f 817 818 822 821
f 819 820 824 823
f 818 819 823 822
f 820 817 821 824
f 849 852 851 850
f 853 854 855 856
f 849 850 854 853
f 851 852 856 855
f 850 851 855 854
f 852 849 853 856
f 881 884 883 882
f 885 886 887 888
f 881 882 886 885
f 883 884 888 887
f 882 883 887 886
f 884 881 885 888
f 913 916 915 914
f 917 918 919 920
f 913 914 918 917
f 915 916 920 919
f 914 915 919 918
f 916 913 917 920
f 945 948 947 946
f 949 950 951 952
f 945 946 950 949
f 947 948 952 951
f 946 947 951 950
f 948 945 949 952
f 977 980 979 978
f 981 982 983 984
f 977 978 982 981
f 979 980 984 983
f 978 979 983 982
f 980 977 981 984
f 1009 1012 1011 1010
f 1013 1014 1015 1016
f 1009 1010 1014 1013
f 1011 1012 1016 1015
f 1010 1011 1015 1014
f 1012 1009 1013 1016
f 1041 1044 1043 1042
f 1045 1046 1047 1048
f 1041 1042 1046 1045
f 1043 1044 1048 1047
f 1042 1043 1047 1046
f 1044 1041 1045 1048
f 1073 1076 1075 1074
f 1077 1078 1079 1080
f 1073 1074 1078 1077
f 1075 1076 1080 1079
f 1074 1075 1079 1078
f 1076 1073 1077 1080
f 1105 1108 1107 1106
f 1109 1110 1111 1112
f 1105 1106 1110 1109
f 1107 1108 1112 1111
f 1106 1107 1111 1110
f 1108 1105 1109 1112
f 1137 1140 1139 1138
f 1141 1142 1143 1144
f 1137 1138 1142 1141
f 1139 1140 1144 1143
f 1138 1139 1143 1142
f 1140 1137 1141 1144
f 1169 1172 1171 1170
f 1173 1174 1175 1176
f 1169 1170 1174 1173
f 1171 1172 1176 1175
f 1170 1171 1175 1174
f 1172 1169 1173 1176
f 1201 1204 1203 1202
f 1205 1206 1207 1208
f 1201 1202 1206 1205
f 1203 1204 1208 1207
f 1202 1203 1207 1206
f 1204 1201 1205 1208
f 1233 1236 1235 1234
f 1237 1238 1239 1240
f 1233 1234 1238 1237
f 1235 1236 1240 1239
f 1234 1235 1239 1238
f 1236 1233 1237 1240
f 1265 1268 1267 1266
f 1269 1270 1271 1272
f 1265 1266 1270 1269
f 1267 1268 1272 1271
f 1266 1267 1271 1270
f 1268 1265 1269 1272
f 1297 1300 1299 1298
f 1301 1302 1303 1304
f 1297 1298 1302 1301
f 1299 1300 1304 1303
f 1298 1299 1303 1302
f 1300 1297 1301 1304
usemtl wallpaper
f 1/1 2/2 3/3 4/4
f 5/5 6/6 7/7 8/8
f 9/9 10/10 11/11 12/12
f 13/13 14/14 15/15 16/16
f 17/17 18/18 19/19 20/20
f 21/21 22/22 23/23 24/24
f 25/25 26/26 27/27 28/28
f 29/29 30/30 31/31 32/32
f 33/33 34/34 35/35 36/36
f 37/37 38/38 39/39 40/40
f 41/41 42/42 43/43 44/44
f 45/45 46/46 47/47 48/48
f 49/49 50/50 51/51 52/52
f 53/53 54/54 55/55 56/56
f 57/57 58/58 59/59 60/60
f 61/61 62/62 63/63 64/64
f 65/65 66/66 67/67 68/68
f 69/69 70/70 71/71 72/72
f 73/73 74/74 75/75 76/76
f 77/77 78/78 79/79 80/80
f 81/81 82/82 83/83 84/84
f 85/85 86/86 87/87 88/88
f 89/89 90/90 91/91 92/92
f 93/93 94/94 95/95 96/96
f 97/97 98/98 99/99 100/100
f 101/101 102/102 103/103 104/104
f 105/105 106/106 107/107 108/108
f 109/109 110/110 111/111 112/112
f 113/113 114/114 115/115 116/116
f 117/117 118/118 119/119 120/120
f 121/121 122/122 123/123 124/124
f 125/125 126/126 127/127 128/128
f 129/129 130/130 131/131 132/132
f 133/133 134/134 135/135 136/136
f 137/137 138/138 139/139 140/140
f 141/141 142/142 143/143 144/144
f 145/145 146/146 147/147 148/148
f 149/149 150/150 151/151 152/152
f 153/153 154/154 155/155 156/156
f 157/157 158/158 159/159 160/160
f 161/161 162/162 163/163 164/164
f 165/165 166/166 167/167 168/168
f 169/169 170/170 171/171 172/172
f 173/173 174/174 175/175 176/176
f 177/177 178/178 179/179 180/180
f 181/181 182/182 183/183 184/184
f 185/185 186/186 187/187 188/188
f 189/189 190/190 191/191 192/192
f 193/193 194/194 195/195 196/196
f 197/197 198/198 199/199 200/200
f 201/201 202/202 203/203 204/204
f 205/205 206/206 207/207 208/208
f 209/209 210/210 211/211 212/212
f 213/213 214/214 215/215 216/216
f 217/217 218/218 219/219 220/220
f 221/221 222/222 223/223 224/224
f 225/225 226/226 227/227 228/228
f 229/229 230/230 231/231 232/232
f 233/233 234/234 235/235 236/236
f 237/237 238/238 239/239 240/240
f 241/241 242/242 243/243 244/244
f 245/245 246/246 247/247 248/248
f 249/249 250/250 251/251 252/252
f 253/253 254/254 255/255 256/256
f 257/257 258/258 259/259 260/260
f 261/261 262/262 263/263 264/264
f 265/265 266/266 267/267 268/268
f 269/269 270/270 271/271 272/272
f 273/273 274/274 275/275 276/276
f 277/277 278/278 279/279 280/280
f 281/281 282/282 283/283 284/284
f 285/285 286/286 287/287 288/288
usemtl wallpaper_damp
f 289/289 290/290 291/291 292/292
f 293/293 294/294 295/295 296/296
f 297/297 298/298 299/299 300/300
f 301/301 302/302 303/303 304/304
f 305/305 306/306 307/307 308/308
f 309/309 310/310 311/311 312/312
usemtl wallpaper
f 313/313 314/314 315/315 316/316
f 317/317 318/318 319/319 320/320
f 321/321 322/322 323/323 324/324
f 325/325 326/326 327/327 328/328
f 329/329 330/330 331/331 332/332
f 333/333 334/334 335/335 336/336
usemtl wallpaper_damp
f 337/337 338/338 339/339 340/340
f 341/341 342/342 343/343 344/344
f 345/345 346/346 347/347 348/348
f 349/349 350/350 351/351 352/352
f 353/353 354/354 355/355 356/356
f 357/357 358/358 359/359 360/360
usemtl wallpaper
f 361/361 362/362 363/363 364/364
f 365/365 366/366 367/367 368/368
f 369/369 370/370 371/371 372/372
f 373/373 374/374 375/375 376/376
f 377/377 378/378 379/379 380/380
f 381/381 382/382 383/383 384/384
usemtl wallpaper_damp
f 385/385 386/386 387/387 388/388
f 389/389 390/390 391/391 392/392
f 393/393 394/394 395/395 396/396
f 397/397 398/398 399/399 400/400
f 401/401 402/402 403/403 404/404
f 405/405 406/406 407/407 408/408
usemtl wallpaper
f 409/409 410/410 411/411 412/412
f 413/413 414/414 415/415 416/416
f 417/417 418/418 419/419 420/420
f 421/421 422/422 423/423 424/424
f 425/425 426/426 427/427 428/428
f 429/429 430/430 431/431 432/432
f 433/433 434/434 435/435 436/436
f 437/437 438/438 439/439 440/440
f 441/441 442/442 443/443 444/444
f 445/445 446/446 447/447 448/448
f 449/449 450/450 451/451 452/452
f 453/453 454/454 455/455 456/456
usemtl wallpaper_damp
f 457/457 458/458 459/459 460/460
f 461/461 462/462 463/463 464/464
f 465/465 466/466 467/467 468/468
f 469/469 470/470 471/471 472/472
f 473/473 474/474 475/475 476/476
f 477/477 478/478 479/479 480/480
f 481/481 482/482 483/483 484/484
f 485/485 486/486 487/487 488/488
f 489/489 490/490 491/491 492/492
f 493/493 494/494 495/495 496/496
f 497/497 498/498 499/499 500/500
f 501/501 502/502 503/503 504/504
usemtl wallpaper
f 505/505 506/506 507/507 508/508
f 509/509 510/510 511/511 512/512
f 513/513 514/514 515/515 516/516
f 517/517 518/518 519/519 520/520
f 521/521 522/522 523/523 524/524
f 525/525 526/526 527/527 528/528
f 529/529 530/530 531/531 532/532
f 533/533 534/534 535/535 536/536
f 537/537 538/538 539/539 540/540
f 541/541 542/542 543/543 544/544
f 545/545 546/546 547/547 548/548
f 549/549 550/550 551/551 552/552
f 553/553 554/554 555/555 556/556
f 557/557 558/558 559/559 560/560
f 561/561 562/562 563/563 564/564
f 565/565 566/566 567/567 568/568
f 569/569 570/570 571/571 572/572
f 573/573 574/574 575/575 576/576
usemtl wallpaper_damp
f 577/577 578/578 579/579 580/580
f 581/581 582/582 583/583 584/584
f 585/585 586/586 587/587 588/588
f 589/589 590/590 591/591 592/592
f 593/593 594/594 595/595 596/596
f 597/597 598/598 599/599 600/600
usemtl wallpaper
f 601/601 602/602 603/603 604/604
f 605/605 606/606 607/607 608/608
f 609/609 610/610 611/611 612/612
f 613/613 614/614 615/615 616/616
f 617/617 618/618 619/619 620/620
f 621/621 622/622 623/623 624/624
f 625/625 626/626 627/627 628/628
f 629/629 630/630 631/631 632/632
f 633/633 634/634 635/635 636/636
f 637/637 638/638 639/639 640/640
f 641/641 642/642 643/643 644/644
f 645/645 646/646 647/647 648/648
f 649/649 650/650 651/651 652/652
f 653/653 654/654 655/655 656/656
f 657/657 658/658 659/659 660/660
f 661/661 662/662 663/663 664/664
f 665/665 666/666 667/667 668/668
f 669/669 670/670 671/671 672/672
usemtl wallpaper_damp
f 673/673 674/674 675/675 676/676
f 677/677 678/678 679/679 680/680
f 681/681 682/682 683/683 684/684
f 685/685 686/686 687/687 688/688
f 689/689 690/690 691/691 692/692
f 693/693 694/694 695/695 696/696
f 697/697 698/698 699/699 700/700
f 701/701 702/702 703/703 704/704
f 705/705 706/706 707/707 708/708
f 709/709 710/710 711/711 712/712
f 713/713 714/714 715/715 716/716
f 717/717 718/718 719/719 720/720
usemtl wallpaper
f 721/721 722/722 723/723 724/724
f 725/725 726/726 727/727 728/728
f 729/729 730/730 731/731 732/732
f 733/733 734/734 735/735 736/736
f 737/737 738/738 739/739 740/740
f 741/741 742/742 743/743 744/744
f 745/745 746/746 747/747 748/748
f 749/749 750/750 751/751 752/752
f 753/753 754/754 755/755 756/756
f 757/757 758/758 759/759 760/760
f 761/761 762/762 763/763 764/764
f 765/765 766/766 767/767 768/768
f 769/769 770/770 771/771 772/772
f 773/773 774/774 775/775 776/776
f 777/777 778/778 779/779 780/780
f 781/781 782/782 783/783 784/784
f 785/785 786/786 787/787 788/788
f 789/789 790/790 791/791 792/792
f 793/793 794/794 795/795 796/796
f 797/797 798/798 799/799 800/800
f 801/801 802/802 803/803 804/804
f 805/805 806/806 807/807 808/808
f 809/809 810/810 811/811 812/812
f 813/813 814/814 815/815 816/816
usemtl ceiling_tile
f 825/817 826/818 827/819 828/820
f 829/821 830/822 831/823 832/824
f 833/825 834/826 835/827 836/828
f 837/829 838/830 839/831 840/832
f 841/833 842/834 843/835 844/836
f 845/837 846/838 847/839 848/840
f 857/841 858/842 859/843 860/844
f 861/845 862/846 863/847 864/848
f 865/849 866/850 867/851 868/852
f 869/853 870/854 871/855 872/856
f 873/857 874/858 875/859 876/860
f 877/861 878/862 879/863 880/864
f 889/865 890/866 891/867 892/868
f 893/869 894/870 895/871 896/872
f 897/873 898/874 899/875 900/876
f 901/877 902/878 903/879 904/880
f 905/881 906/882 907/883 908/884
f 909/885 910/886 911/887 912/888
f 921/889 922/890 923/891 924/892
f 925/893 926/894 927/895 928/896
f 929/897 930/898 931/899 932/900
f 933/901 934/902 935/903 936/904
f 937/905 938/906 939/907 940/908
f 941/909 942/910 943/911 944/912
f 953/913 954/914 955/915 956/916
f 957/917 958/918 959/919 960/920
f 961/921 962/922 963/923 964/924
f 965/925 966/926 967/927 968/928
f 969/929 970/930 971/931 972/932
f 973/933 974/934 975/935 976/936
f 985/937 986/938 987/939 988/940
f 989/941 990/942 991/943 992/944
f 993/945 994/946 995/947 996/948
f 997/949 998/950 999/951 1000/952
f 1001/953 1002/954 1003/955 1004/956
f 1005/957 1006/958 1007/959 1008/960
f 1017/961 1018/962 1019/963 1020/964
f 1021/965 1022/966 1023/967 1024/968
f 1025/969 1026/970 1027/971 1028/972
f 1029/973 1030/974 1031/975 1032/976
f 1033/977 1034/978 1035/979 1036/980
f 1037/981 1038/982 1039/983 1040/984
f 1049/985 1050/986 1051/987 1052/988
f 1053/989 1054/990 1055/991 1056/992
f 1057/993 1058/994 1059/995 1060/996
f 1061/997 1062/998 1063/999 1064/1000
f 1065/1001 1066/1002 1067/1003 1068/1004
f 1069/1005 1070/1006 1071/1007 1072/1008
f 1081/1009 1082/1010 1083/1011 1084/1012
f 1085/1013 1086/1014 1087/1015 1088/1016
f 1089/1017 1090/1018 1091/1019 1092/1020
f 1093/1021 1094/1022 1095/1023 1096/1024
f 1097/1025 1098/1026 1099/1027 1100/1028
f 1101/1029 1102/1030 1103/1031 1104/1032
f 1113/1033 1114/1034 1115/1035 1116/1036
f 1117/1037 1118/1038 1119/1039 1120/1040
f 1121/1041 1122/1042 1123/1043 1124/1044
f 1125/1045 1126/1046 1127/1047 1128/1048
f 1129/1049 1130/1050 1131/1051 1132/1052
f 1133/1053 1134/1054 1135/1055 1136/1056
f 1145/1057 1146/1058 1147/1059 1148/1060
f 1149/1061 1150/1062 1151/1063 1152/1064
f 1153/1065 1154/1066 1155/1067 1156/1068
f 1157/1069 1158/1070 1159/1071 1160/1072
f 1161/1073 1162/1074 1163/1075 1164/1076
f 1165/1077 1166/1078 1167/1079 1168/1080
f 1177/1081 1178/1082 1179/1083 1180/1084
f 1181/1085 1182/1086 1183/1087 1184/1088
f 1185/1089 1186/1090 1187/1091 1188/1092
f 1189/1093 1190/1094 1191/1095 1192/1096
f 1193/1097 1194/1098 1195/1099 1196/1100
f 1197/1101 1198/1102 1199/1103 1200/1104
f 1209/1105 1210/1106 1211/1107 1212/1108
f 1213/1109 1214/1110 1215/1111 1216/1112
f 1217/1113 1218/1114 1219/1115 1220/1116
f 1221/1117 1222/1118 1223/1119 1224/1120
f 1225/1121 1226/1122 1227/1123 1228/1124
f 1229/1125 1230/1126 1231/1127 1232/1128
f 1241/1129 1242/1130 1243/1131 1244/1132
f 1245/1133 1246/1134 1247/1135 1248/1136
f 1249/1137 1250/1138 1251/1139 1252/1140
f 1253/1141 1254/1142 1255/1143 1256/1144
f 1257/1145 1258/1146 1259/1147 1260/1148
f 1261/1149 1262/1150 1263/1151 1264/1152
f 1273/1153 1274/1154 1275/1155 1276/1156
f 1277/1157 1278/1158 1279/1159 1280/1160
f 1281/1161 1282/1162 1283/1163 1284/1164
f 1285/1165 1286/1166 1287/1167 1288/1168
f 1289/1169 1290/1170 1291/1171 1292/1172
f 1293/1173 1294/1174 1295/1175 1296/1176
f 1305/1177 1306/1178 1307/1179 1308/1180
f 1309/1181 1310/1182 1311/1183 1312/1184
f 1313/1185 1314/1186 1315/1187 1316/1188
f 1317/1189 1318/1190 1319/1191 1320/1192
f 1321/1193 1322/1194 1323/1195 1324/1196
f 1325/1197 1326/1198 1327/1199 1328/1200
