# RoastEngine Backrooms level
mtllib backrooms.mtl
v -0.0300 0.0000 0.0000
v -0.0300 1.0500 0.0000
v -0.0505 0.0000 0.0495
v -0.0505 1.0500 0.0495
v -0.1000 0.0000 0.0700
v -0.1000 1.0500 0.0700
v -0.1495 0.0000 0.0495
v -0.1495 1.0500 0.0495
v -0.1700 0.0000 0.0000
v -0.1700 1.0500 0.0000
v -0.1495 0.0000 -0.0495
v -0.1495 1.0500 -0.0495
v -0.1000 0.0000 -0.0700
v -0.1000 1.0500 -0.0700
v -0.0505 0.0000 -0.0495
v -0.0505 1.0500 -0.0495
v -0.1000 1.0500 0.0000
v -0.1000 0.0000 0.0000
v 0.1700 0.0000 0.0000
v 0.1700 1.0500 0.0000
v 0.1495 0.0000 0.0495
v 0.1495 1.0500 0.0495
v 0.1000 0.0000 0.0700
v 0.1000 1.0500 0.0700
v 0.0505 0.0000 0.0495
v 0.0505 1.0500 0.0495
v 0.0300 0.0000 0.0000
v 0.0300 1.0500 0.0000
v 0.0505 0.0000 -0.0495
v 0.0505 1.0500 -0.0495
v 0.1000 0.0000 -0.0700
v 0.1000 1.0500 -0.0700
v 0.1495 0.0000 -0.0495
v 0.1495 1.0500 -0.0495
v 0.1000 1.0500 0.0000
v 0.1000 0.0000 0.0000
v -0.1700 1.0500 -0.1000
v 0.1700 1.0500 -0.1000
v 0.1700 1.0500 0.1000
v -0.1700 1.0500 0.1000
v -0.1700 1.9500 -0.1000
v 0.1700 1.9500 -0.1000
v 0.1700 1.9500 0.1000
v -0.1700 1.9500 0.1000
v -0.1700 0.9500 0.0000
v -0.1700 1.9500 0.0000
v -0.1846 0.9500 0.0354
v -0.1846 1.9500 0.0354
v -0.2200 0.9500 0.0500
v -0.2200 1.9500 0.0500
v -0.2554 0.9500 0.0354
v -0.2554 1.9500 0.0354
v -0.2700 0.9500 0.0000
v -0.2700 1.9500 0.0000
v -0.2554 0.9500 -0.0354
v -0.2554 1.9500 -0.0354
v -0.2200 0.9500 -0.0500
v -0.2200 1.9500 -0.0500
v -0.1846 0.9500 -0.0354
v -0.1846 1.9500 -0.0354
v -0.2200 1.9500 0.0000
v -0.2200 0.9500 0.0000
v 0.2700 0.9500 0.0000
v 0.2700 1.9500 0.0000
v 0.2554 0.9500 0.0354
v 0.2554 1.9500 0.0354
v 0.2200 0.9500 0.0500
v 0.2200 1.9500 0.0500
v 0.1846 0.9500 0.0354
v 0.1846 1.9500 0.0354
v 0.1700 0.9500 0.0000
v 0.1700 1.9500 0.0000
v 0.1846 0.9500 -0.0354
v 0.1846 1.9500 -0.0354
v 0.2200 0.9500 -0.0500
v 0.2200 1.9500 -0.0500
v 0.2554 0.9500 -0.0354
v 0.2554 1.9500 -0.0354
v 0.2200 1.9500 0.0000
v 0.2200 0.9500 0.0000
v -0.1500 1.9400 -0.1100
v 0.1500 1.9400 -0.1100
v 0.1500 1.9400 0.1100
v -0.1500 1.9400 0.1100
v -0.1500 2.2600 -0.1100
v 0.1500 2.2600 -0.1100
v 0.1500 2.2600 0.1100
v -0.1500 2.2600 0.1100
v -0.1255 2.0290 -0.1180
v -0.1045 2.0290 -0.1180
v -0.1045 2.0290 -0.1060
v -0.1255 2.0290 -0.1060
v -0.1255 2.0810 -0.1180
v -0.1045 2.0810 -0.1180
v -0.1045 2.0810 -0.1060
v -0.1255 2.0810 -0.1060
v -0.0968 2.0137 -0.1180
v -0.0758 2.0137 -0.1180
v -0.0758 2.0137 -0.1060
v -0.0968 2.0137 -0.1060
v -0.0968 2.0657 -0.1180
v -0.0758 2.0657 -0.1180
v -0.0758 2.0657 -0.1060
v -0.0968 2.0657 -0.1060
v -0.0680 2.0028 -0.1180
v -0.0470 2.0028 -0.1180
v -0.0470 2.0028 -0.1060
v -0.0680 2.0028 -0.1060
v -0.0680 2.0547 -0.1180
v -0.0470 2.0547 -0.1180
v -0.0470 2.0547 -0.1060
v -0.0680 2.0547 -0.1060
v -0.0393 1.9962 -0.1180
v -0.0183 1.9962 -0.1180
v -0.0183 1.9962 -0.1060
v -0.0393 1.9962 -0.1060
v -0.0393 2.0482 -0.1180
v -0.0183 2.0482 -0.1180
v -0.0183 2.0482 -0.1060
v -0.0393 2.0482 -0.1060
v -0.0105 1.9940 -0.1180
v 0.0105 1.9940 -0.1180
v 0.0105 1.9940 -0.1060
v -0.0105 1.9940 -0.1060
v -0.0105 2.0460 -0.1180
v 0.0105 2.0460 -0.1180
v 0.0105 2.0460 -0.1060
v -0.0105 2.0460 -0.1060
v 0.0183 1.9962 -0.1180
v 0.0393 1.9962 -0.1180
v 0.0393 1.9962 -0.1060
v 0.0183 1.9962 -0.1060
v 0.0183 2.0482 -0.1180
v 0.0393 2.0482 -0.1180
v 0.0393 2.0482 -0.1060
v 0.0183 2.0482 -0.1060
v 0.0470 2.0028 -0.1180
v 0.0680 2.0028 -0.1180
v 0.0680 2.0028 -0.1060
v 0.0470 2.0028 -0.1060
v 0.0470 2.0547 -0.1180
v 0.0680 2.0547 -0.1180
v 0.0680 2.0547 -0.1060
v 0.0470 2.0547 -0.1060
v 0.0758 2.0137 -0.1180
v 0.0968 2.0137 -0.1180
v 0.0968 2.0137 -0.1060
v 0.0758 2.0137 -0.1060
v 0.0758 2.0657 -0.1180
v 0.0968 2.0657 -0.1180
v 0.0968 2.0657 -0.1060
v 0.0758 2.0657 -0.1060
v 0.1045 2.0290 -0.1180
v 0.1255 2.0290 -0.1180
v 0.1255 2.0290 -0.1060
v 0.1045 2.0290 -0.1060
v 0.1045 2.0810 -0.1180
v 0.1255 2.0810 -0.1180
v 0.1255 2.0810 -0.1060
v 0.1045 2.0810 -0.1060
v -0.1025 2.1690 -0.1180
v -0.0475 2.1690 -0.1180
v -0.0475 2.1690 -0.1060
v -0.1025 2.1690 -0.1060
v -0.1025 2.1910 -0.1180
v -0.0475 2.1910 -0.1180
v -0.0475 2.1910 -0.1060
v -0.1025 2.1910 -0.1060
v 0.0475 2.1690 -0.1180
v 0.1025 2.1690 -0.1180
v 0.1025 2.1690 -0.1060
v 0.0475 2.1690 -0.1060
v 0.0475 2.1910 -0.1180
v 0.1025 2.1910 -0.1180
v 0.1025 2.1910 -0.1060
v 0.0475 2.1910 -0.1060
usemtl smiler_body
f 1 3 4 2
f 3 5 6 4
f 5 7 8 6
f 7 9 10 8
f 9 11 12 10
f 11 13 14 12
f 13 15 16 14
f 15 1 2 16
f 17 2 4
f 18 3 1
f 17 4 6
f 18 5 3
f 17 6 8
f 18 7 5
f 17 8 10
f 18 9 7
f 17 10 12
f 18 11 9
f 17 12 14
f 18 13 11
f 17 14 16
f 18 15 13
f 17 16 2
f 18 1 15
f 19 21 22 20
f 21 23 24 22
f 23 25 26 24
f 25 27 28 26
f 27 29 30 28
f 29 31 32 30
f 31 33 34 32
f 33 19 20 34
f 35 20 22
f 36 21 19
f 35 22 24
f 36 23 21
f 35 24 26
f 36 25 23
f 35 26 28
f 36 27 25
f 35 28 30
f 36 29 27
f 35 30 32
f 36 31 29
f 35 32 34
f 36 33 31
f 35 34 20
f 36 19 33
f 37 40 39 38
f 41 42 43 44
f 37 38 42 41
f 39 40 44 43
f 38 39 43 42
f 40 37 41 44
f 45 47 48 46
f 47 49 50 48
f 49 51 52 50
f 51 53 54 52
f 53 55 56 54
f 55 57 58 56
f 57 59 60 58
f 59 45 46 60
f 61 46 48
f 62 47 45
f 61 48 50
f 62 49 47
f 61 50 52
f 62 51 49
f 61 52 54
f 62 53 51
f 61 54 56
f 62 55 53
f 61 56 58
f 62 57 55
f 61 58 60
f 62 59 57
f 61 60 46
f 62 45 59
f 63 65 66 64
f 65 67 68 66
f 67 69 70 68
f 69 71 72 70
f 71 73 74 72
f 73 75 76 74
f 75 77 78 76
f 77 63 64 78
f 79 64 66
f 80 65 63
f 79 66 68
f 80 67 65
f 79 68 70
f 80 69 67
f 79 70 72
f 80 71 69
f 79 72 74
f 80 73 71
f 79 74 76
f 80 75 73
f 79 76 78
f 80 77 75
f 79 78 64
f 80 63 77
f 81 84 83 82
f 85 86 87 88
f 81 82 86 85
f 83 84 88 87
f 82 83 87 86
f 84 81 85 88
usemtl smiler_teeth
f 89 92 91 90
f 93 94 95 96
f 89 90 94 93
f 91 92 96 95
f 90 91 95 94
f 92 89 93 96
f 97 100 99 98
f 101 102 103 104
f 97 98 102 101
f 99 100 104 103
f 98 99 103 102
f 100 97 101 104
f 105 108 107 106
f 109 110 111 112
f 105 106 110 109
f 107 108 112 111
f 106 107 111 110
f 108 105 109 112
f 113 116 115 114
f 117 118 119 120
f 113 114 118 117
f 115 116 120 119
f 114 115 119 118
f 116 113 117 120
f 121 124 123 122
f 125 126 127 128
f 121 122 126 125
f 123 124 128 127
f 122 123 127 126
f 124 121 125 128
f 129 132 131 130
f 133 134 135 136
f 129 130 134 133
f 131 132 136 135
f 130 131 135 134
f 132 129 133 136
f 137 140 139 138
f 141 142 143 144
f 137 138 142 141
f 139 140 144 143
f 138 139 143 142
f 140 137 141 144
f 145 148 147 146
f 149 150 151 152
f 145 146 150 149
f 147 148 152 151
f 146 147 151 150
f 148 145 149 152
f 153 156 155 154
f 157 158 159 160
f 153 154 158 157
f 155 156 160 159
f 154 155 159 158
f 156 153 157 160
usemtl smiler_eye
f 161 164 163 162
f 165 166 167 168
f 161 162 166 165
f 163 164 168 167
f 162 163 167 166
f 164 161 165 168
f 169 172 171 170
f 173 174 175 176
f 169 170 174 173
f 171 172 176 175
f 170 171 175 174
f 172 169 173 176
