# RoastEngine Backrooms level
mtllib backrooms.mtl
v 351.0750 0.0000 36.0750
v 353.9250 0.0000 36.0750
v 353.9250 0.0000 38.9250
v 351.0750 0.0000 38.9250
v 351.0750 3.0000 36.0750
v 353.9250 3.0000 36.0750
v 353.9250 3.0000 38.9250
v 351.0750 3.0000 38.9250
v 356.0750 0.0000 36.0750
v 356.0750 0.0000 38.9250
v 358.9250 0.0000 38.9250
v 358.9250 0.0000 36.0750
v 356.0750 3.0000 36.0750
v 358.9250 3.0000 36.0750
v 358.9250 3.0000 38.9250
v 356.0750 3.0000 38.9250
v 356.0750 0.0000 36.0750
v 358.9250 0.0000 36.0750
v 358.9250 3.0000 36.0750
v 356.0750 3.0000 36.0750
v 358.9250 0.0000 38.9250
v 356.0750 0.0000 38.9250
v 356.0750 3.0000 38.9250
v 358.9250 3.0000 38.9250
v 358.9250 0.0000 36.0750
v 358.9250 0.0000 38.9250
v 358.9250 3.0000 38.9250
v 358.9250 3.0000 36.0750
v 356.0750 0.0000 38.9250
v 356.0750 0.0000 36.0750
v 356.0750 3.0000 36.0750
v 356.0750 3.0000 38.9250
v 366.0750 0.0000 36.0750
v 366.0750 0.0000 38.9250
v 368.9250 0.0000 38.9250
v 368.9250 0.0000 36.0750
v 366.0750 3.0000 36.0750
v 368.9250 3.0000 36.0750
v 368.9250 3.0000 38.9250
v 366.0750 3.0000 38.9250
v 366.0750 0.0000 36.0750
v 368.9250 0.0000 36.0750
v 368.9250 3.0000 36.0750
v 366.0750 3.0000 36.0750
v 368.9250 0.0000 38.9250
v 366.0750 0.0000 38.9250
v 366.0750 3.0000 38.9250
v 368.9250 3.0000 38.9250
v 368.9250 0.0000 36.0750
v 368.9250 0.0000 38.9250
v 368.9250 3.0000 38.9250
v 368.9250 3.0000 36.0750
v 366.0750 0.0000 38.9250
v 366.0750 0.0000 36.0750
v 366.0750 3.0000 36.0750
v 366.0750 3.0000 38.9250
v 366.0750 0.0000 38.5750
v 366.0750 0.0000 41.4250
v 368.9250 0.0000 41.4250
v 368.9250 0.0000 38.5750
v 366.0750 3.0000 38.5750
v 368.9250 3.0000 38.5750
v 368.9250 3.0000 41.4250
v 366.0750 3.0000 41.4250
v 366.0750 0.0000 38.5750
v 368.9250 0.0000 38.5750
v 368.9250 3.0000 38.5750
v 366.0750 3.0000 38.5750
v 368.9250 0.0000 41.4250
v 366.0750 0.0000 41.4250
v 366.0750 3.0000 41.4250
v 368.9250 3.0000 41.4250
v 368.9250 0.0000 38.5750
v 368.9250 0.0000 41.4250
v 368.9250 3.0000 41.4250
v 368.9250 3.0000 38.5750
v 366.0750 0.0000 41.4250
v 366.0750 0.0000 38.5750
v 366.0750 3.0000 38.5750
v 366.0750 3.0000 41.4250
v 348.5750 0.0000 41.0750
v 348.5750 0.0000 43.9250
v 351.4250 0.0000 43.9250
v 351.4250 0.0000 41.0750
v 348.5750 3.0000 41.0750
v 351.4250 3.0000 41.0750
v 351.4250 3.0000 43.9250
v 348.5750 3.0000 43.9250
v 348.5750 0.0000 41.0750
v 351.4250 0.0000 41.0750
v 351.4250 3.0000 41.0750
v 348.5750 3.0000 41.0750
v 351.4250 0.0000 43.9250
v 348.5750 0.0000 43.9250
v 348.5750 3.0000 43.9250
v 351.4250 3.0000 43.9250
v 351.4250 0.0000 41.0750
v 351.4250 0.0000 43.9250
v 351.4250 3.0000 43.9250
v 351.4250 3.0000 41.0750
v 348.5750 0.0000 43.9250
v 348.5750 0.0000 41.0750
v 348.5750 3.0000 41.0750
v 348.5750 3.0000 43.9250
v 351.0750 0.0000 41.0750
v 351.0750 0.0000 43.9250
v 353.9250 0.0000 43.9250
v 353.9250 0.0000 41.0750
v 351.0750 3.0000 41.0750
v 353.9250 3.0000 41.0750
v 353.9250 3.0000 43.9250
v 351.0750 3.0000 43.9250
v 351.0750 0.0000 41.0750
v 353.9250 0.0000 41.0750
v 353.9250 3.0000 41.0750
v 351.0750 3.0000 41.0750
v 353.9250 0.0000 43.9250
v 351.0750 0.0000 43.9250
v 351.0750 3.0000 43.9250
v 353.9250 3.0000 43.9250
v 353.9250 0.0000 41.0750
v 353.9250 0.0000 43.9250
v 353.9250 3.0000 43.9250
v 353.9250 3.0000 41.0750
v 351.0750 0.0000 43.9250
v 351.0750 0.0000 41.0750
v 351.0750 3.0000 41.0750
v 351.0750 3.0000 43.9250
v 356.0750 0.0000 41.0750
v 356.0750 0.0000 43.9250
v 358.9250 0.0000 43.9250
v 358.9250 0.0000 41.0750
v 356.0750 3.0000 41.0750
v 358.9250 3.0000 41.0750
v 358.9250 3.0000 43.9250
v 356.0750 3.0000 43.9250
v 356.0750 0.0000 41.0750
v 358.9250 0.0000 41.0750
v 358.9250 3.0000 41.0750
v 356.0750 3.0000 41.0750
v 358.9250 0.0000 43.9250
v 356.0750 0.0000 43.9250
v 356.0750 3.0000 43.9250
v 358.9250 3.0000 43.9250
v 358.9250 0.0000 41.0750
v 358.9250 0.0000 43.9250
v 358.9250 3.0000 43.9250
v 358.9250 3.0000 41.0750
v 356.0750 0.0000 43.9250
v 356.0750 0.0000 41.0750
v 356.0750 3.0000 41.0750
v 356.0750 3.0000 43.9250
v 358.5750 0.0000 41.0750
v 358.5750 0.0000 43.9250
v 361.4250 0.0000 43.9250
v 361.4250 0.0000 41.0750
v 358.5750 3.0000 41.0750
v 361.4250 3.0000 41.0750
v 361.4250 3.0000 43.9250
v 358.5750 3.0000 43.9250
v 358.5750 0.0000 41.0750
v 361.4250 0.0000 41.0750
v 361.4250 3.0000 41.0750
v 358.5750 3.0000 41.0750
v 361.4250 0.0000 43.9250
v 358.5750 0.0000 43.9250
v 358.5750 3.0000 43.9250
v 361.4250 3.0000 43.9250
v 361.4250 0.0000 41.0750
v 361.4250 0.0000 43.9250
v 361.4250 3.0000 43.9250
v 361.4250 3.0000 41.0750
v 358.5750 0.0000 43.9250
v 358.5750 0.0000 41.0750
v 358.5750 3.0000 41.0750
v 358.5750 3.0000 43.9250
v 361.0750 0.0000 41.0750
v 361.0750 0.0000 43.9250
v 363.9250 0.0000 43.9250
v 363.9250 0.0000 41.0750
v 361.0750 3.0000 41.0750
v 363.9250 3.0000 41.0750
v 363.9250 3.0000 43.9250
v 361.0750 3.0000 43.9250
v 361.0750 0.0000 41.0750
v 363.9250 0.0000 41.0750
v 363.9250 3.0000 41.0750
v 361.0750 3.0000 41.0750
v 363.9250 0.0000 43.9250
v 361.0750 0.0000 43.9250
v 361.0750 3.0000 43.9250
v 363.9250 3.0000 43.9250
v 363.9250 0.0000 41.0750
v 363.9250 0.0000 43.9250
v 363.9250 3.0000 43.9250
v 363.9250 3.0000 41.0750
v 361.0750 0.0000 43.9250
v 361.0750 0.0000 41.0750
v 361.0750 3.0000 41.0750
v 361.0750 3.0000 43.9250
v 366.0750 0.0000 41.0750
v 366.0750 0.0000 43.9250
v 368.9250 0.0000 43.9250
v 368.9250 0.0000 41.0750
v 366.0750 3.0000 41.0750
v 368.9250 3.0000 41.0750
v 368.9250 3.0000 43.9250
v 366.0750 3.0000 43.9250
v 366.0750 0.0000 41.0750
v 368.9250 0.0000 41.0750
v 368.9250 3.0000 41.0750
v 366.0750 3.0000 41.0750
v 368.9250 0.0000 43.9250
v 366.0750 0.0000 43.9250
v 366.0750 3.0000 43.9250
v 368.9250 3.0000 43.9250
v 368.9250 0.0000 41.0750
v 368.9250 0.0000 43.9250
v 368.9250 3.0000 43.9250
v 368.9250 3.0000 41.0750
v 366.0750 0.0000 43.9250
v 366.0750 0.0000 41.0750
v 366.0750 3.0000 41.0750
v 366.0750 3.0000 43.9250
v 371.0750 0.0000 41.0750
v 371.0750 0.0000 43.9250
v 373.9250 0.0000 43.9250
v 373.9250 0.0000 41.0750
v 371.0750 3.0000 41.0750
v 373.9250 3.0000 41.0750
v 373.9250 3.0000 43.9250
v 371.0750 3.0000 43.9250
v 371.0750 0.0000 41.0750
v 373.9250 0.0000 41.0750
v 373.9250 3.0000 41.0750
v 371.0750 3.0000 41.0750
v 373.9250 0.0000 43.9250
v 371.0750 0.0000 43.9250
v 371.0750 3.0000 43.9250
v 373.9250 3.0000 43.9250
v 373.9250 0.0000 41.0750
v 373.9250 0.0000 43.9250
v 373.9250 3.0000 43.9250
v 373.9250 3.0000 41.0750
v 371.0750 0.0000 43.9250
v 371.0750 0.0000 41.0750
v 371.0750 3.0000 41.0750
v 371.0750 3.0000 43.9250
v 366.0750 0.0000 43.5750
v 366.0750 0.0000 46.4250
v 368.9250 0.0000 46.4250
v 368.9250 0.0000 43.5750
v 366.0750 3.0000 43.5750
v 368.9250 3.0000 43.5750
v 368.9250 3.0000 46.4250
v 366.0750 3.0000 46.4250
v 366.0750 0.0000 43.5750
v 368.9250 0.0000 43.5750
v 368.9250 3.0000 43.5750
v 366.0750 3.0000 43.5750
v 368.9250 0.0000 46.4250
v 366.0750 0.0000 46.4250
v 366.0750 3.0000 46.4250
v 368.9250 3.0000 46.4250
v 368.9250 0.0000 43.5750
v 368.9250 0.0000 46.4250
v 368.9250 3.0000 46.4250
v 368.9250 3.0000 43.5750
v 366.0750 0.0000 46.4250
v 366.0750 0.0000 43.5750
v 366.0750 3.0000 43.5750
v 366.0750 3.0000 46.4250
v 371.0750 0.0000 43.5750
v 371.0750 0.0000 46.4250
v 373.9250 0.0000 46.4250
v 373.9250 0.0000 43.5750
v 371.0750 3.0000 43.5750
v 373.9250 3.0000 43.5750
v 373.9250 3.0000 46.4250
v 371.0750 3.0000 46.4250
v 371.0750 0.0000 43.5750
v 373.9250 0.0000 43.5750
v 373.9250 3.0000 43.5750
v 371.0750 3.0000 43.5750
v 373.9250 0.0000 46.4250
v 371.0750 0.0000 46.4250
v 371.0750 3.0000 46.4250
v 373.9250 3.0000 46.4250
v 373.9250 0.0000 43.5750
v 373.9250 0.0000 46.4250
v 373.9250 3.0000 46.4250
v 373.9250 3.0000 43.5750
v 371.0750 0.0000 46.4250
v 371.0750 0.0000 43.5750
v 371.0750 3.0000 43.5750
v 371.0750 3.0000 46.4250
v 351.0750 0.0000 46.0750
v 353.9250 0.0000 46.0750
v 353.9250 0.0000 48.9250
v 351.0750 0.0000 48.9250
v 351.0750 3.0000 46.0750
v 353.9250 3.0000 46.0750
v 353.9250 3.0000 48.9250
v 351.0750 3.0000 48.9250
v 353.5750 0.0000 46.0750
v 353.5750 0.0000 48.9250
v 356.4250 0.0000 48.9250
v 356.4250 0.0000 46.0750
v 353.5750 3.0000 46.0750
v 356.4250 3.0000 46.0750
v 356.4250 3.0000 48.9250
v 353.5750 3.0000 48.9250
v 353.5750 0.0000 46.0750
v 356.4250 0.0000 46.0750
v 356.4250 3.0000 46.0750
v 353.5750 3.0000 46.0750
v 356.4250 0.0000 48.9250
v 353.5750 0.0000 48.9250
v 353.5750 3.0000 48.9250
v 356.4250 3.0000 48.9250
v 356.4250 0.0000 46.0750
v 356.4250 0.0000 48.9250
v 356.4250 3.0000 48.9250
v 356.4250 3.0000 46.0750
v 353.5750 0.0000 48.9250
v 353.5750 0.0000 46.0750
v 353.5750 3.0000 46.0750
v 353.5750 3.0000 48.9250
v 356.0750 0.0000 46.0750
v 356.0750 0.0000 48.9250
v 358.9250 0.0000 48.9250
v 358.9250 0.0000 46.0750
v 356.0750 3.0000 46.0750
v 358.9250 3.0000 46.0750
v 358.9250 3.0000 48.9250
v 356.0750 3.0000 48.9250
v 356.0750 0.0000 46.0750
v 358.9250 0.0000 46.0750
v 358.9250 3.0000 46.0750
v 356.0750 3.0000 46.0750
v 358.9250 0.0000 48.9250
v 356.0750 0.0000 48.9250
v 356.0750 3.0000 48.9250
v 358.9250 3.0000 48.9250
v 358.9250 0.0000 46.0750
v 358.9250 0.0000 48.9250
v 358.9250 3.0000 48.9250
v 358.9250 3.0000 46.0750
v 356.0750 0.0000 48.9250
v 356.0750 0.0000 46.0750
v 356.0750 3.0000 46.0750
v 356.0750 3.0000 48.9250
v 361.0750 0.0000 46.0750
v 363.9250 0.0000 46.0750
v 363.9250 0.0000 48.9250
v 361.0750 0.0000 48.9250
v 361.0750 3.0000 46.0750
v 363.9250 3.0000 46.0750
v 363.9250 3.0000 48.9250
v 361.0750 3.0000 48.9250
v 366.0750 0.0000 46.0750
v 366.0750 0.0000 48.9250
v 368.9250 0.0000 48.9250
v 368.9250 0.0000 46.0750
v 366.0750 3.0000 46.0750
v 368.9250 3.0000 46.0750
v 368.9250 3.0000 48.9250
v 366.0750 3.0000 48.9250
v 366.0750 0.0000 46.0750
v 368.9250 0.0000 46.0750
v 368.9250 3.0000 46.0750
v 366.0750 3.0000 46.0750
v 368.9250 0.0000 48.9250
v 366.0750 0.0000 48.9250
v 366.0750 3.0000 48.9250
v 368.9250 3.0000 48.9250
v 368.9250 0.0000 46.0750
v 368.9250 0.0000 48.9250
v 368.9250 3.0000 48.9250
v 368.9250 3.0000 46.0750
v 366.0750 0.0000 48.9250
v 366.0750 0.0000 46.0750
v 366.0750 3.0000 46.0750
v 366.0750 3.0000 48.9250
v 371.0750 0.0000 46.0750
v 371.0750 0.0000 48.9250
v 373.9250 0.0000 48.9250
v 373.9250 0.0000 46.0750
v 371.0750 3.0000 46.0750
v 373.9250 3.0000 46.0750
v 373.9250 3.0000 48.9250
v 371.0750 3.0000 48.9250
v 371.0750 0.0000 46.0750
v 373.9250 0.0000 46.0750
v 373.9250 3.0000 46.0750
v 371.0750 3.0000 46.0750
v 373.9250 0.0000 48.9250
v 371.0750 0.0000 48.9250
v 371.0750 3.0000 48.9250
v 373.9250 3.0000 48.9250
v 373.9250 0.0000 46.0750
v 373.9250 0.0000 48.9250
v 373.9250 3.0000 48.9250
v 373.9250 3.0000 46.0750
v 371.0750 0.0000 48.9250
v 371.0750 0.0000 46.0750
v 371.0750 3.0000 46.0750
v 371.0750 3.0000 48.9250
v 361.0750 0.0000 48.5750
v 363.9250 0.0000 48.5750
v 363.9250 0.0000 51.4250
v 361.0750 0.0000 51.4250
v 361.0750 3.0000 48.5750
v 363.9250 3.0000 48.5750
v 363.9250 3.0000 51.4250
v 361.0750 3.0000 51.4250
v 366.0750 0.0000 48.5750
v 366.0750 0.0000 51.4250
v 368.9250 0.0000 51.4250
v 368.9250 0.0000 48.5750
v 366.0750 3.0000 48.5750
v 368.9250 3.0000 48.5750
v 368.9250 3.0000 51.4250
v 366.0750 3.0000 51.4250
v 366.0750 0.0000 48.5750
v 368.9250 0.0000 48.5750
v 368.9250 3.0000 48.5750
v 366.0750 3.0000 48.5750
v 368.9250 0.0000 51.4250
v 366.0750 0.0000 51.4250
v 366.0750 3.0000 51.4250
v 368.9250 3.0000 51.4250
v 368.9250 0.0000 48.5750
v 368.9250 0.0000 51.4250
v 368.9250 3.0000 51.4250
v 368.9250 3.0000 48.5750
v 366.0750 0.0000 51.4250
v 366.0750 0.0000 48.5750
v 366.0750 3.0000 48.5750
v 366.0750 3.0000 51.4250
v 359.8250 2.7600 39.8250
v 360.1750 2.7600 39.8250
v 360.1750 2.7600 40.1750
v 359.8250 2.7600 40.1750
v 359.8250 2.8800 39.8250
v 360.1750 2.8800 39.8250
v 360.1750 2.8800 40.1750
v 359.8250 2.8800 40.1750
v 369.8250 2.7600 39.8250
v 370.1750 2.7600 39.8250
v 370.1750 2.7600 40.1750
v 369.8250 2.7600 40.1750
v 369.8250 2.8800 39.8250
v 370.1750 2.8800 39.8250
v 370.1750 2.8800 40.1750
v 369.8250 2.8800 40.1750
v 369.8250 2.7600 44.8250
v 370.1750 2.7600 44.8250
v 370.1750 2.7600 45.1750
v 369.8250 2.7600 45.1750
v 369.8250 2.8800 44.8250
v 370.1750 2.8800 44.8250
v 370.1750 2.8800 45.1750
v 369.8250 2.8800 45.1750
v 349.8250 2.7600 49.8250
v 350.1750 2.7600 49.8250
v 350.1750 2.7600 50.1750
v 349.8250 2.7600 50.1750
v 349.8250 2.8800 49.8250
v 350.1750 2.8800 49.8250
v 350.1750 2.8800 50.1750
v 349.8250 2.8800 50.1750
v 364.8250 2.7600 49.8250
v 365.1750 2.7600 49.8250
v 365.1750 2.7600 50.1750
v 364.8250 2.7600 50.1750
v 364.8250 2.8800 49.8250
v 365.1750 2.8800 49.8250
v 365.1750 2.8800 50.1750
v 364.8250 2.8800 50.1750
v 374.8250 2.7600 49.8250
v 375.1750 2.7600 49.8250
v 375.1750 2.7600 50.1750
v 374.8250 2.7600 50.1750
v 374.8250 2.8800 49.8250
v 375.1750 2.8800 49.8250
v 375.1750 2.8800 50.1750
v 374.8250 2.8800 50.1750
v 347.6200 2.6000 37.5000
v 347.6200 2.6000 37.5000
v 347.5849 2.6000 37.5849
v 347.5849 2.6000 37.5849
v 347.5000 2.6000 37.6200
v 347.5000 2.6000 37.6200
v 347.4151 2.6000 37.5849
v 347.4151 2.6000 37.5849
v 347.3800 2.6000 37.5000
v 347.3800 2.6000 37.5000
v 347.4151 2.6000 37.4151
v 347.4151 2.6000 37.4151
v 347.5000 2.6000 37.3800
v 347.5000 2.6000 37.3800
v 347.5849 2.6000 37.4151
v 347.5849 2.6000 37.4151
v 347.5000 2.6000 37.5000
v 347.5000 2.6000 37.5000
v 347.5000 2.4800 37.3800
v 375.0000 2.4800 37.3800
v 375.0000 2.4800 37.6200
v 347.5000 2.4800 37.6200
v 347.5000 2.7200 37.3800
v 375.0000 2.7200 37.3800
v 375.0000 2.7200 37.6200
v 347.5000 2.7200 37.6200
v 347.6200 2.6000 47.5000
v 347.6200 2.6000 47.5000
v 347.5849 2.6000 47.5849
v 347.5849 2.6000 47.5849
v 347.5000 2.6000 47.6200
v 347.5000 2.6000 47.6200
v 347.4151 2.6000 47.5849
v 347.4151 2.6000 47.5849
v 347.3800 2.6000 47.5000
v 347.3800 2.6000 47.5000
v 347.4151 2.6000 47.4151
v 347.4151 2.6000 47.4151
v 347.5000 2.6000 47.3800
v 347.5000 2.6000 47.3800
v 347.5849 2.6000 47.4151
v 347.5849 2.6000 47.4151
v 347.5000 2.6000 47.5000
v 347.5000 2.6000 47.5000
v 347.5000 2.4800 47.3800
v 375.0000 2.4800 47.3800
v 375.0000 2.4800 47.6200
v 347.5000 2.4800 47.6200
v 347.5000 2.7200 47.3800
v 375.0000 2.7200 47.3800
v 375.0000 2.7200 47.6200
v 347.5000 2.7200 47.6200
vt 178.0375 18.0375
vt 178.0375 19.4625
vt 179.4625 19.4625
vt 179.4625 18.0375
vt 178.0375 18.0375
vt 179.4625 18.0375
vt 179.4625 19.4625
vt 178.0375 19.4625
vt 178.0375 0.0000
vt 179.4625 0.0000
vt 179.4625 1.5000
vt 178.0375 1.5000
vt 179.4625 0.0000
vt 178.0375 0.0000
vt 178.0375 1.5000
vt 179.4625 1.5000
vt 18.0375 0.0000
vt 19.4625 0.0000
vt 19.4625 1.5000
vt 18.0375 1.5000
vt 19.4625 0.0000
vt 18.0375 0.0000
vt 18.0375 1.5000
vt 19.4625 1.5000
vt 183.0375 18.0375
vt 183.0375 19.4625
vt 184.4625 19.4625
vt 184.4625 18.0375
vt 183.0375 18.0375
vt 184.4625 18.0375
vt 184.4625 19.4625
vt 183.0375 19.4625
vt 183.0375 0.0000
vt 184.4625 0.0000
vt 184.4625 1.5000
vt 183.0375 1.5000
vt 184.4625 0.0000
vt 183.0375 0.0000
vt 183.0375 1.5000
vt 184.4625 1.5000
vt 18.0375 0.0000
vt 19.4625 0.0000
vt 19.4625 1.5000
vt 18.0375 1.5000
vt 19.4625 0.0000
vt 18.0375 0.0000
vt 18.0375 1.5000
vt 19.4625 1.5000
vt 183.0375 19.2875
vt 183.0375 20.7125
vt 184.4625 20.7125
vt 184.4625 19.2875
vt 183.0375 19.2875
vt 184.4625 19.2875
vt 184.4625 20.7125
vt 183.0375 20.7125
vt 183.0375 0.0000
vt 184.4625 0.0000
vt 184.4625 1.5000
vt 183.0375 1.5000
vt 184.4625 0.0000
vt 183.0375 0.0000
vt 183.0375 1.5000
vt 184.4625 1.5000
vt 19.2875 0.0000
vt 20.7125 0.0000
vt 20.7125 1.5000
vt 19.2875 1.5000
vt 20.7125 0.0000
vt 19.2875 0.0000
vt 19.2875 1.5000
vt 20.7125 1.5000
vt 174.2875 20.5375
vt 174.2875 21.9625
vt 175.7125 21.9625
vt 175.7125 20.5375
vt 174.2875 20.5375
vt 175.7125 20.5375
vt 175.7125 21.9625
vt 174.2875 21.9625
vt 174.2875 0.0000
vt 175.7125 0.0000
vt 175.7125 1.5000
vt 174.2875 1.5000
vt 175.7125 0.0000
vt 174.2875 0.0000
vt 174.2875 1.5000
vt 175.7125 1.5000
vt 20.5375 0.0000
vt 21.9625 0.0000
vt 21.9625 1.5000
vt 20.5375 1.5000
vt 21.9625 0.0000
vt 20.5375 0.0000
vt 20.5375 1.5000
vt 21.9625 1.5000
vt 175.5375 20.5375
vt 175.5375 21.9625
vt 176.9625 21.9625
vt 176.9625 20.5375
vt 175.5375 20.5375
vt 176.9625 20.5375
vt 176.9625 21.9625
vt 175.5375 21.9625
vt 175.5375 0.0000
vt 176.9625 0.0000
vt 176.9625 1.5000
vt 175.5375 1.5000
vt 176.9625 0.0000
vt 175.5375 0.0000
vt 175.5375 1.5000
vt 176.9625 1.5000
vt 20.5375 0.0000
vt 21.9625 0.0000
vt 21.9625 1.5000
vt 20.5375 1.5000
vt 21.9625 0.0000
vt 20.5375 0.0000
vt 20.5375 1.5000
vt 21.9625 1.5000
vt 178.0375 20.5375
vt 178.0375 21.9625
vt 179.4625 21.9625
vt 179.4625 20.5375
vt 178.0375 20.5375
vt 179.4625 20.5375
vt 179.4625 21.9625
vt 178.0375 21.9625
vt 178.0375 0.0000
vt 179.4625 0.0000
vt 179.4625 1.5000
vt 178.0375 1.5000
vt 179.4625 0.0000
vt 178.0375 0.0000
vt 178.0375 1.5000
vt 179.4625 1.5000
vt 20.5375 0.0000
vt 21.9625 0.0000
vt 21.9625 1.5000
vt 20.5375 1.5000
vt 21.9625 0.0000
vt 20.5375 0.0000
vt 20.5375 1.5000
vt 21.9625 1.5000
vt 179.2875 20.5375
vt 179.2875 21.9625
vt 180.7125 21.9625
vt 180.7125 20.5375
vt 179.2875 20.5375
vt 180.7125 20.5375
vt 180.7125 21.9625
vt 179.2875 21.9625
vt 179.2875 0.0000
vt 180.7125 0.0000
vt 180.7125 1.5000
vt 179.2875 1.5000
vt 180.7125 0.0000
vt 179.2875 0.0000
vt 179.2875 1.5000
vt 180.7125 1.5000
vt 20.5375 0.0000
vt 21.9625 0.0000
vt 21.9625 1.5000
vt 20.5375 1.5000
vt 21.9625 0.0000
vt 20.5375 0.0000
vt 20.5375 1.5000
vt 21.9625 1.5000
vt 180.5375 20.5375
vt 180.5375 21.9625
vt 181.9625 21.9625
vt 181.9625 20.5375
vt 180.5375 20.5375
vt 181.9625 20.5375
vt 181.9625 21.9625
vt 180.5375 21.9625
vt 180.5375 0.0000
vt 181.9625 0.0000
vt 181.9625 1.5000
vt 180.5375 1.5000
vt 181.9625 0.0000
vt 180.5375 0.0000
vt 180.5375 1.5000
vt 181.9625 1.5000
vt 20.5375 0.0000
vt 21.9625 0.0000
vt 21.9625 1.5000
vt 20.5375 1.5000
vt 21.9625 0.0000
vt 20.5375 0.0000
vt 20.5375 1.5000
vt 21.9625 1.5000
vt 183.0375 20.5375
vt 183.0375 21.9625
vt 184.4625 21.9625
vt 184.4625 20.5375
vt 183.0375 20.5375
vt 184.4625 20.5375
vt 184.4625 21.9625
vt 183.0375 21.9625
vt 183.0375 0.0000
vt 184.4625 0.0000
vt 184.4625 1.5000
vt 183.0375 1.5000
vt 184.4625 0.0000
vt 183.0375 0.0000
vt 183.0375 1.5000
vt 184.4625 1.5000
vt 20.5375 0.0000
vt 21.9625 0.0000
vt 21.9625 1.5000
vt 20.5375 1.5000
vt 21.9625 0.0000
vt 20.5375 0.0000
vt 20.5375 1.5000
vt 21.9625 1.5000
vt 185.5375 20.5375
vt 185.5375 21.9625
vt 186.9625 21.9625
vt 186.9625 20.5375
vt 185.5375 20.5375
vt 186.9625 20.5375
vt 186.9625 21.9625
vt 185.5375 21.9625
vt 185.5375 0.0000
vt 186.9625 0.0000
vt 186.9625 1.5000
vt 185.5375 1.5000
vt 186.9625 0.0000
vt 185.5375 0.0000
vt 185.5375 1.5000
vt 186.9625 1.5000
vt 20.5375 0.0000
vt 21.9625 0.0000
vt 21.9625 1.5000
vt 20.5375 1.5000
vt 21.9625 0.0000
vt 20.5375 0.0000
vt 20.5375 1.5000
vt 21.9625 1.5000
vt 183.0375 21.7875
vt 183.0375 23.2125
vt 184.4625 23.2125
vt 184.4625 21.7875
vt 183.0375 21.7875
vt 184.4625 21.7875
vt 184.4625 23.2125
vt 183.0375 23.2125
vt 183.0375 0.0000
vt 184.4625 0.0000
vt 184.4625 1.5000
vt 183.0375 1.5000
vt 184.4625 0.0000
vt 183.0375 0.0000
vt 183.0375 1.5000
vt 184.4625 1.5000
vt 21.7875 0.0000
vt 23.2125 0.0000
vt 23.2125 1.5000
vt 21.7875 1.5000
vt 23.2125 0.0000
vt 21.7875 0.0000
vt 21.7875 1.5000
vt 23.2125 1.5000
vt 185.5375 21.7875
vt 185.5375 23.2125
vt 186.9625 23.2125
vt 186.9625 21.7875
vt 185.5375 21.7875
vt 186.9625 21.7875
vt 186.9625 23.2125
vt 185.5375 23.2125
vt 185.5375 0.0000
vt 186.9625 0.0000
vt 186.9625 1.5000
vt 185.5375 1.5000
vt 186.9625 0.0000
vt 185.5375 0.0000
vt 185.5375 1.5000
vt 186.9625 1.5000
vt 21.7875 0.0000
vt 23.2125 0.0000
vt 23.2125 1.5000
vt 21.7875 1.5000
vt 23.2125 0.0000
vt 21.7875 0.0000
vt 21.7875 1.5000
vt 23.2125 1.5000
vt 176.7875 23.0375
vt 176.7875 24.4625
vt 178.2125 24.4625
vt 178.2125 23.0375
vt 176.7875 23.0375
vt 178.2125 23.0375
vt 178.2125 24.4625
vt 176.7875 24.4625
vt 176.7875 0.0000
vt 178.2125 0.0000
vt 178.2125 1.5000
vt 176.7875 1.5000
vt 178.2125 0.0000
vt 176.7875 0.0000
vt 176.7875 1.5000
vt 178.2125 1.5000
vt 23.0375 0.0000
vt 24.4625 0.0000
vt 24.4625 1.5000
vt 23.0375 1.5000
vt 24.4625 0.0000
vt 23.0375 0.0000
vt 23.0375 1.5000
vt 24.4625 1.5000
vt 178.0375 23.0375
vt 178.0375 24.4625
vt 179.4625 24.4625
vt 179.4625 23.0375
vt 178.0375 23.0375
vt 179.4625 23.0375
vt 179.4625 24.4625
vt 178.0375 24.4625
vt 178.0375 0.0000
vt 179.4625 0.0000
vt 179.4625 1.5000
vt 178.0375 1.5000
vt 179.4625 0.0000
vt 178.0375 0.0000
vt 178.0375 1.5000
vt 179.4625 1.5000
vt 23.0375 0.0000
vt 24.4625 0.0000
vt 24.4625 1.5000
vt 23.0375 1.5000
vt 24.4625 0.0000
vt 23.0375 0.0000
vt 23.0375 1.5000
vt 24.4625 1.5000
vt 183.0375 23.0375
vt 183.0375 24.4625
vt 184.4625 24.4625
vt 184.4625 23.0375
vt 183.0375 23.0375
vt 184.4625 23.0375
vt 184.4625 24.4625
vt 183.0375 24.4625
vt 183.0375 0.0000
vt 184.4625 0.0000
vt 184.4625 1.5000
vt 183.0375 1.5000
vt 184.4625 0.0000
vt 183.0375 0.0000
vt 183.0375 1.5000
vt 184.4625 1.5000
vt 23.0375 0.0000
vt 24.4625 0.0000
vt 24.4625 1.5000
vt 23.0375 1.5000
vt 24.4625 0.0000
vt 23.0375 0.0000
vt 23.0375 1.5000
vt 24.4625 1.5000
vt 185.5375 23.0375
vt 185.5375 24.4625
vt 186.9625 24.4625
vt 186.9625 23.0375
vt 185.5375 23.0375
vt 186.9625 23.0375
vt 186.9625 24.4625
vt 185.5375 24.4625
vt 185.5375 0.0000
vt 186.9625 0.0000
vt 186.9625 1.5000
vt 185.5375 1.5000
vt 186.9625 0.0000
vt 185.5375 0.0000
vt 185.5375 1.5000
vt 186.9625 1.5000
vt 23.0375 0.0000
vt 24.4625 0.0000
vt 24.4625 1.5000
vt 23.0375 1.5000
vt 24.4625 0.0000
vt 23.0375 0.0000
vt 23.0375 1.5000
vt 24.4625 1.5000
vt 183.0375 24.2875
vt 183.0375 25.7125
vt 184.4625 25.7125
vt 184.4625 24.2875
vt 183.0375 24.2875
vt 184.4625 24.2875
vt 184.4625 25.7125
vt 183.0375 25.7125
vt 183.0375 0.0000
vt 184.4625 0.0000
vt 184.4625 1.5000
vt 183.0375 1.5000
vt 184.4625 0.0000
vt 183.0375 0.0000
vt 183.0375 1.5000
vt 184.4625 1.5000
vt 24.2875 0.0000
vt 25.7125 0.0000
vt 25.7125 1.5000
vt 24.2875 1.5000
vt 25.7125 0.0000
vt 24.2875 0.0000
vt 24.2875 1.5000
vt 25.7125 1.5000
usemtl rust
f 1 4 3 2
f 5 6 7 8
f 1 2 6 5
f 3 4 8 7
f 2 3 7 6
f 4 1 5 8
f 297 300 299 298
f 301 302 303 304
f 297 298 302 301
f 299 300 304 303
f 298 299 303 302
f 300 297 301 304
f 353 356 355 354
f 357 358 359 360
f 353 354 358 357
f 355 356 360 359
f 354 355 359 358
f 356 353 357 360
f 409 412 411 410
f 413 414 415 416
f 409 410 414 413
f 411 412 416 415
f 410 411 415 414
f 412 409 413 416
usemtl lamp_sick
f 441 444 443 442
f 445 446 447 448
f 441 442 446 445
f 443 444 448 447
f 442 443 447 446
f 444 441 445 448
f 449 452 451 450
f 453 454 455 456
f 449 450 454 453
f 451 452 456 455
f 450 451 455 454
f 452 449 453 456
f 457 460 459 458
f 461 462 463 464
f 457 458 462 461
f 459 460 464 463
f 458 459 463 462
f 460 457 461 464
f 465 468 467 466
f 469 470 471 472
f 465 466 470 469
f 467 468 472 471
f 466 467 471 470
f 468 465 469 472
f 473 476 475 474
f 477 478 479 480
f 473 474 478 477
f 475 476 480 479
f 474 475 479 478
f 476 473 477 480
f 481 484 483 482
f 485 486 487 488
f 481 482 486 485
f 483 484 488 487
f 482 483 487 486
f 484 481 485 488
usemtl pipe
f 489 491 492 490
f 491 493 494 492
f 493 495 496 494
f 495 497 498 496
f 497 499 500 498
f 499 501 502 500
f 501 503 504 502
f 503 489 490 504
f 505 490 492
f 506 491 489
f 505 492 494
f 506 493 491
f 505 494 496
f 506 495 493
f 505 496 498
f 506 497 495
f 505 498 500
f 506 499 497
f 505 500 502
f 506 501 499
f 505 502 504
f 506 503 501
f 505 504 490
f 506 489 503
f 507 510 509 508
f 511 512 513 514
f 507 508 512 511
f 509 510 514 513
f 508 509 513 512
f 510 507 511 514
f 515 517 518 516
f 517 519 520 518
f 519 521 522 520
f 521 523 524 522
f 523 525 526 524
f 525 527 528 526
f 527 529 530 528
f 529 515 516 530
f 531 516 518
f 532 517 515
f 531 518 520
f 532 519 517
f 531 520 522
f 532 521 519
f 531 522 524
f 532 523 521
f 531 524 526
f 532 525 523
f 531 526 528
f 532 527 525
f 531 528 530
f 532 529 527
f 531 530 516
f 532 515 529
f 533 536 535 534
f 537 538 539 540
f 533 534 538 537
f 535 536 540 539
f 534 535 539 538
f 536 533 537 540
usemtl grime_wall
f 9/1 10/2 11/3 12/4
f 13/5 14/6 15/7 16/8
f 17/9 18/10 19/11 20/12
f 21/13 22/14 23/15 24/16
f 25/17 26/18 27/19 28/20
f 29/21 30/22 31/23 32/24
f 33/25 34/26 35/27 36/28
f 37/29 38/30 39/31 40/32
f 41/33 42/34 43/35 44/36
f 45/37 46/38 47/39 48/40
f 49/41 50/42 51/43 52/44
f 53/45 54/46 55/47 56/48
f 57/49 58/50 59/51 60/52
f 61/53 62/54 63/55 64/56
f 65/57 66/58 67/59 68/60
f 69/61 70/62 71/63 72/64
f 73/65 74/66 75/67 76/68
f 77/69 78/70 79/71 80/72
f 81/73 82/74 83/75 84/76
f 85/77 86/78 87/79 88/80
f 89/81 90/82 91/83 92/84
f 93/85 94/86 95/87 96/88
f 97/89 98/90 99/91 100/92
f 101/93 102/94 103/95 104/96
f 105/97 106/98 107/99 108/100
f 109/101 110/102 111/103 112/104
f 113/105 114/106 115/107 116/108
f 117/109 118/110 119/111 120/112
f 121/113 122/114 123/115 124/116
f 125/117 126/118 127/119 128/120
f 129/121 130/122 131/123 132/124
f 133/125 134/126 135/127 136/128
f 137/129 138/130 139/131 140/132
f 141/133 142/134 143/135 144/136
f 145/137 146/138 147/139 148/140
f 149/141 150/142 151/143 152/144
f 153/145 154/146 155/147 156/148
f 157/149 158/150 159/151 160/152
f 161/153 162/154 163/155 164/156
f 165/157 166/158 167/159 168/160
f 169/161 170/162 171/163 172/164
f 173/165 174/166 175/167 176/168
f 177/169 178/170 179/171 180/172
f 181/173 182/174 183/175 184/176
f 185/177 186/178 187/179 188/180
f 189/181 190/182 191/183 192/184
f 193/185 194/186 195/187 196/188
f 197/189 198/190 199/191 200/192
f 201/193 202/194 203/195 204/196
f 205/197 206/198 207/199 208/200
f 209/201 210/202 211/203 212/204
f 213/205 214/206 215/207 216/208
f 217/209 218/210 219/211 220/212
f 221/213 222/214 223/215 224/216
f 225/217 226/218 227/219 228/220
f 229/221 230/222 231/223 232/224
f 233/225 234/226 235/227 236/228
f 237/229 238/230 239/231 240/232
f 241/233 242/234 243/235 244/236
f 245/237 246/238 247/239 248/240
f 249/241 250/242 251/243 252/244
f 253/245 254/246 255/247 256/248
f 257/249 258/250 259/251 260/252
f 261/253 262/254 263/255 264/256
f 265/257 266/258 267/259 268/260
f 269/261 270/262 271/263 272/264
f 273/265 274/266 275/267 276/268
f 277/269 278/270 279/271 280/272
f 281/273 282/274 283/275 284/276
f 285/277 286/278 287/279 288/280
f 289/281 290/282 291/283 292/284
f 293/285 294/286 295/287 296/288
f 305/289 306/290 307/291 308/292
f 309/293 310/294 311/295 312/296
f 313/297 314/298 315/299 316/300
f 317/301 318/302 319/303 320/304
f 321/305 322/306 323/307 324/308
f 325/309 326/310 327/311 328/312
f 329/313 330/314 331/315 332/316
f 333/317 334/318 335/319 336/320
f 337/321 338/322 339/323 340/324
f 341/325 342/326 343/327 344/328
f 345/329 346/330 347/331 348/332
f 349/333 350/334 351/335 352/336
f 361/337 362/338 363/339 364/340
f 365/341 366/342 367/343 368/344
f 369/345 370/346 371/347 372/348
f 373/349 374/350 375/351 376/352
f 377/353 378/354 379/355 380/356
f 381/357 382/358 383/359 384/360
f 385/361 386/362 387/363 388/364
f 389/365 390/366 391/367 392/368
f 393/369 394/370 395/371 396/372
f 397/373 398/374 399/375 400/376
f 401/377 402/378 403/379 404/380
f 405/381 406/382 407/383 408/384
f 417/385 418/386 419/387 420/388
f 421/389 422/390 423/391 424/392
f 425/393 426/394 427/395 428/396
f 429/397 430/398 431/399 432/400
f 433/401 434/402 435/403 436/404
f 437/405 438/406 439/407 440/408
