# RoastEngine Backrooms level
mtllib backrooms.mtl
v 1623.2000 0.0000 23.2000
v 1623.2000 0.0000 26.3000
v 1626.3000 0.0000 26.3000
v 1626.3000 0.0000 23.2000
v 1623.2000 3.4000 23.2000
v 1626.3000 3.4000 23.2000
v 1626.3000 3.4000 26.3000
v 1623.2000 3.4000 26.3000
v 1623.2000 0.0000 23.2000
v 1626.3000 0.0000 23.2000
v 1626.3000 3.4000 23.2000
v 1623.2000 3.4000 23.2000
v 1626.3000 0.0000 26.3000
v 1623.2000 0.0000 26.3000
v 1623.2000 3.4000 26.3000
v 1626.3000 3.4000 26.3000
v 1626.3000 0.0000 23.2000
v 1626.3000 0.0000 26.3000
v 1626.3000 3.4000 26.3000
v 1626.3000 3.4000 23.2000
v 1623.2000 0.0000 26.3000
v 1623.2000 0.0000 23.2000
v 1623.2000 3.4000 23.2000
v 1623.2000 3.4000 26.3000
v 1628.7000 0.0000 23.2000
v 1628.7000 0.0000 26.3000
v 1631.8000 0.0000 26.3000
v 1631.8000 0.0000 23.2000
v 1628.7000 3.4000 23.2000
v 1631.8000 3.4000 23.2000
v 1631.8000 3.4000 26.3000
v 1628.7000 3.4000 26.3000
v 1628.7000 0.0000 23.2000
v 1631.8000 0.0000 23.2000
v 1631.8000 3.4000 23.2000
v 1628.7000 3.4000 23.2000
v 1631.8000 0.0000 26.3000
v 1628.7000 0.0000 26.3000
v 1628.7000 3.4000 26.3000
v 1631.8000 3.4000 26.3000
v 1631.8000 0.0000 23.2000
v 1631.8000 0.0000 26.3000
v 1631.8000 3.4000 26.3000
v 1631.8000 3.4000 23.2000
v 1628.7000 0.0000 26.3000
v 1628.7000 0.0000 23.2000
v 1628.7000 3.4000 23.2000
v 1628.7000 3.4000 26.3000
v 1631.4500 0.0000 23.2000
v 1631.4500 0.0000 26.3000
v 1634.5500 0.0000 26.3000
v 1634.5500 0.0000 23.2000
v 1631.4500 3.4000 23.2000
v 1634.5500 3.4000 23.2000
v 1634.5500 3.4000 26.3000
v 1631.4500 3.4000 26.3000
v 1631.4500 0.0000 23.2000
v 1634.5500 0.0000 23.2000
v 1634.5500 3.4000 23.2000
v 1631.4500 3.4000 23.2000
v 1634.5500 0.0000 26.3000
v 1631.4500 0.0000 26.3000
v 1631.4500 3.4000 26.3000
v 1634.5500 3.4000 26.3000
v 1634.5500 0.0000 23.2000
v 1634.5500 0.0000 26.3000
v 1634.5500 3.4000 26.3000
v 1634.5500 3.4000 23.2000
v 1631.4500 0.0000 26.3000
v 1631.4500 0.0000 23.2000
v 1631.4500 3.4000 23.2000
v 1631.4500 3.4000 26.3000
v 1634.2000 0.0000 23.2000
v 1634.2000 0.0000 26.3000
v 1637.3000 0.0000 26.3000
v 1637.3000 0.0000 23.2000
v 1634.2000 3.4000 23.2000
v 1637.3000 3.4000 23.2000
v 1637.3000 3.4000 26.3000
v 1634.2000 3.4000 26.3000
v 1634.2000 0.0000 23.2000
v 1637.3000 0.0000 23.2000
v 1637.3000 3.4000 23.2000
v 1634.2000 3.4000 23.2000
v 1637.3000 0.0000 26.3000
v 1634.2000 0.0000 26.3000
v 1634.2000 3.4000 26.3000
v 1637.3000 3.4000 26.3000
v 1637.3000 0.0000 23.2000
v 1637.3000 0.0000 26.3000
v 1637.3000 3.4000 26.3000
v 1637.3000 3.4000 23.2000
v 1634.2000 0.0000 26.3000
v 1634.2000 0.0000 23.2000
v 1634.2000 3.4000 23.2000
v 1634.2000 3.4000 26.3000
v 1636.9500 0.0000 23.2000
v 1640.0500 0.0000 23.2000
v 1640.0500 0.0000 26.3000
v 1636.9500 0.0000 26.3000
v 1636.9500 3.4000 23.2000
v 1640.0500 3.4000 23.2000
v 1640.0500 3.4000 26.3000
v 1636.9500 3.4000 26.3000
v 1623.2000 0.0000 28.7000
v 1626.3000 0.0000 28.7000
v 1626.3000 0.0000 31.8000
v 1623.2000 0.0000 31.8000
v 1623.2000 3.4000 28.7000
v 1626.3000 3.4000 28.7000
v 1626.3000 3.4000 31.8000
v 1623.2000 3.4000 31.8000
v 1625.9500 0.0000 28.7000
v 1625.9500 0.0000 31.8000
v 1629.0500 0.0000 31.8000
v 1629.0500 0.0000 28.7000
v 1625.9500 3.4000 28.7000
v 1629.0500 3.4000 28.7000
v 1629.0500 3.4000 31.8000
v 1625.9500 3.4000 31.8000
v 1625.9500 0.0000 28.7000
v 1629.0500 0.0000 28.7000
v 1629.0500 3.4000 28.7000
v 1625.9500 3.4000 28.7000
v 1629.0500 0.0000 31.8000
v 1625.9500 0.0000 31.8000
v 1625.9500 3.4000 31.8000
v 1629.0500 3.4000 31.8000
v 1629.0500 0.0000 28.7000
v 1629.0500 0.0000 31.8000
v 1629.0500 3.4000 31.8000
v 1629.0500 3.4000 28.7000
v 1625.9500 0.0000 31.8000
v 1625.9500 0.0000 28.7000
v 1625.9500 3.4000 28.7000
v 1625.9500 3.4000 31.8000
v 1628.7000 0.0000 28.7000
v 1628.7000 0.0000 31.8000
v 1631.8000 0.0000 31.8000
v 1631.8000 0.0000 28.7000
v 1628.7000 3.4000 28.7000
v 1631.8000 3.4000 28.7000
v 1631.8000 3.4000 31.8000
v 1628.7000 3.4000 31.8000
v 1628.7000 0.0000 28.7000
v 1631.8000 0.0000 28.7000
v 1631.8000 3.4000 28.7000
v 1628.7000 3.4000 28.7000
v 1631.8000 0.0000 31.8000
v 1628.7000 0.0000 31.8000
v 1628.7000 3.4000 31.8000
v 1631.8000 3.4000 31.8000
v 1631.8000 0.0000 28.7000
v 1631.8000 0.0000 31.8000
v 1631.8000 3.4000 31.8000
v 1631.8000 3.4000 28.7000
v 1628.7000 0.0000 31.8000
v 1628.7000 0.0000 28.7000
v 1628.7000 3.4000 28.7000
v 1628.7000 3.4000 31.8000
v 1631.4500 0.0000 28.7000
v 1631.4500 0.0000 31.8000
v 1634.5500 0.0000 31.8000
v 1634.5500 0.0000 28.7000
v 1631.4500 3.4000 28.7000
v 1634.5500 3.4000 28.7000
v 1634.5500 3.4000 31.8000
v 1631.4500 3.4000 31.8000
v 1631.4500 0.0000 28.7000
v 1634.5500 0.0000 28.7000
v 1634.5500 3.4000 28.7000
v 1631.4500 3.4000 28.7000
v 1634.5500 0.0000 31.8000
v 1631.4500 0.0000 31.8000
v 1631.4500 3.4000 31.8000
v 1634.5500 3.4000 31.8000
v 1634.5500 0.0000 28.7000
v 1634.5500 0.0000 31.8000
v 1634.5500 3.4000 31.8000
v 1634.5500 3.4000 28.7000
v 1631.4500 0.0000 31.8000
v 1631.4500 0.0000 28.7000
v 1631.4500 3.4000 28.7000
v 1631.4500 3.4000 31.8000
v 1634.2000 0.0000 28.7000
v 1634.2000 0.0000 31.8000
v 1637.3000 0.0000 31.8000
v 1637.3000 0.0000 28.7000
v 1634.2000 3.4000 28.7000
v 1637.3000 3.4000 28.7000
v 1637.3000 3.4000 31.8000
v 1634.2000 3.4000 31.8000
v 1634.2000 0.0000 28.7000
v 1637.3000 0.0000 28.7000
v 1637.3000 3.4000 28.7000
v 1634.2000 3.4000 28.7000
v 1637.3000 0.0000 31.8000
v 1634.2000 0.0000 31.8000
v 1634.2000 3.4000 31.8000
v 1637.3000 3.4000 31.8000
v 1637.3000 0.0000 28.7000
v 1637.3000 0.0000 31.8000
v 1637.3000 3.4000 31.8000
v 1637.3000 3.4000 28.7000
v 1634.2000 0.0000 31.8000
v 1634.2000 0.0000 28.7000
v 1634.2000 3.4000 28.7000
v 1634.2000 3.4000 31.8000
v 1623.2000 0.0000 34.2000
v 1623.2000 0.0000 37.3000
v 1626.3000 0.0000 37.3000
v 1626.3000 0.0000 34.2000
v 1623.2000 3.4000 34.2000
v 1626.3000 3.4000 34.2000
v 1626.3000 3.4000 37.3000
v 1623.2000 3.4000 37.3000
v 1623.2000 0.0000 34.2000
v 1626.3000 0.0000 34.2000
v 1626.3000 3.4000 34.2000
v 1623.2000 3.4000 34.2000
v 1626.3000 0.0000 37.3000
v 1623.2000 0.0000 37.3000
v 1623.2000 3.4000 37.3000
v 1626.3000 3.4000 37.3000
v 1626.3000 0.0000 34.2000
v 1626.3000 0.0000 37.3000
v 1626.3000 3.4000 37.3000
v 1626.3000 3.4000 34.2000
v 1623.2000 0.0000 37.3000
v 1623.2000 0.0000 34.2000
v 1623.2000 3.4000 34.2000
v 1623.2000 3.4000 37.3000
v 1625.9500 0.0000 34.2000
v 1625.9500 0.0000 37.3000
v 1629.0500 0.0000 37.3000
v 1629.0500 0.0000 34.2000
v 1625.9500 3.4000 34.2000
v 1629.0500 3.4000 34.2000
v 1629.0500 3.4000 37.3000
v 1625.9500 3.4000 37.3000
v 1625.9500 0.0000 34.2000
v 1629.0500 0.0000 34.2000
v 1629.0500 3.4000 34.2000
v 1625.9500 3.4000 34.2000
v 1629.0500 0.0000 37.3000
v 1625.9500 0.0000 37.3000
v 1625.9500 3.4000 37.3000
v 1629.0500 3.4000 37.3000
v 1629.0500 0.0000 34.2000
v 1629.0500 0.0000 37.3000
v 1629.0500 3.4000 37.3000
v 1629.0500 3.4000 34.2000
v 1625.9500 0.0000 37.3000
v 1625.9500 0.0000 34.2000
v 1625.9500 3.4000 34.2000
v 1625.9500 3.4000 37.3000
v 1628.7000 0.0000 34.2000
v 1628.7000 0.0000 37.3000
v 1631.8000 0.0000 37.3000
v 1631.8000 0.0000 34.2000
v 1628.7000 3.4000 34.2000
v 1631.8000 3.4000 34.2000
v 1631.8000 3.4000 37.3000
v 1628.7000 3.4000 37.3000
v 1628.7000 0.0000 34.2000
v 1631.8000 0.0000 34.2000
v 1631.8000 3.4000 34.2000
v 1628.7000 3.4000 34.2000
v 1631.8000 0.0000 37.3000
v 1628.7000 0.0000 37.3000
v 1628.7000 3.4000 37.3000
v 1631.8000 3.4000 37.3000
v 1631.8000 0.0000 34.2000
v 1631.8000 0.0000 37.3000
v 1631.8000 3.4000 37.3000
v 1631.8000 3.4000 34.2000
v 1628.7000 0.0000 37.3000
v 1628.7000 0.0000 34.2000
v 1628.7000 3.4000 34.2000
v 1628.7000 3.4000 37.3000
v 1631.4500 0.0000 34.2000
v 1631.4500 0.0000 37.3000
v 1634.5500 0.0000 37.3000
v 1634.5500 0.0000 34.2000
v 1631.4500 3.4000 34.2000
v 1634.5500 3.4000 34.2000
v 1634.5500 3.4000 37.3000
v 1631.4500 3.4000 37.3000
v 1631.4500 0.0000 34.2000
v 1634.5500 0.0000 34.2000
v 1634.5500 3.4000 34.2000
v 1631.4500 3.4000 34.2000
v 1634.5500 0.0000 37.3000
v 1631.4500 0.0000 37.3000
v 1631.4500 3.4000 37.3000
v 1634.5500 3.4000 37.3000
v 1634.5500 0.0000 34.2000
v 1634.5500 0.0000 37.3000
v 1634.5500 3.4000 37.3000
v 1634.5500 3.4000 34.2000
v 1631.4500 0.0000 37.3000
v 1631.4500 0.0000 34.2000
v 1631.4500 3.4000 34.2000
v 1631.4500 3.4000 37.3000
v 1634.2000 0.0000 34.2000
v 1634.2000 0.0000 37.3000
v 1637.3000 0.0000 37.3000
v 1637.3000 0.0000 34.2000
v 1634.2000 3.4000 34.2000
v 1637.3000 3.4000 34.2000
v 1637.3000 3.4000 37.3000
v 1634.2000 3.4000 37.3000
v 1634.2000 0.0000 34.2000
v 1637.3000 0.0000 34.2000
v 1637.3000 3.4000 34.2000
v 1634.2000 3.4000 34.2000
v 1637.3000 0.0000 37.3000
v 1634.2000 0.0000 37.3000
v 1634.2000 3.4000 37.3000
v 1637.3000 3.4000 37.3000
v 1637.3000 0.0000 34.2000
v 1637.3000 0.0000 37.3000
v 1637.3000 3.4000 37.3000
v 1637.3000 3.4000 34.2000
v 1634.2000 0.0000 37.3000
v 1634.2000 0.0000 34.2000
v 1634.2000 3.4000 34.2000
v 1634.2000 3.4000 37.3000
v 1627.3700 1.9000 27.4200
v 1627.6300 1.9000 27.4200
v 1627.6300 1.9000 27.5800
v 1627.3700 1.9000 27.5800
v 1627.3700 2.2000 27.4200
v 1627.6300 2.2000 27.4200
v 1627.6300 2.2000 27.5800
v 1627.3700 2.2000 27.5800
v 1627.3300 2.2100 27.3900
v 1627.6700 2.2100 27.3900
v 1627.6700 2.2100 27.6100
v 1627.3300 2.2100 27.6100
v 1627.3300 2.2700 27.3900
v 1627.6700 2.2700 27.3900
v 1627.6700 2.2700 27.6100
v 1627.3300 2.2700 27.6100
v 1627.3700 1.9000 38.4200
v 1627.6300 1.9000 38.4200
v 1627.6300 1.9000 38.5800
v 1627.3700 1.9000 38.5800
v 1627.3700 2.2000 38.4200
v 1627.6300 2.2000 38.4200
v 1627.6300 2.2000 38.5800
v 1627.3700 2.2000 38.5800
v 1627.3300 2.2100 38.3900
v 1627.6700 2.2100 38.3900
v 1627.6700 2.2100 38.6100
v 1627.3300 2.2100 38.6100
v 1627.3300 2.2700 38.3900
v 1627.6700 2.2700 38.3900
v 1627.6700 2.2700 38.6100
v 1627.3300 2.2700 38.6100
v 1638.3700 1.9000 38.4200
v 1638.6300 1.9000 38.4200
v 1638.6300 1.9000 38.5800
v 1638.3700 1.9000 38.5800
v 1638.3700 2.2000 38.4200
v 1638.6300 2.2000 38.4200
v 1638.6300 2.2000 38.5800
v 1638.3700 2.2000 38.5800
v 1638.3300 2.2100 38.3900
v 1638.6700 2.2100 38.3900
v 1638.6700 2.2100 38.6100
v 1638.3300 2.2100 38.6100
v 1638.3300 2.2700 38.3900
v 1638.6700 2.2700 38.3900
v 1638.6700 2.2700 38.6100
v 1638.3300 2.2700 38.6100
v 1629.7750 0.0050 26.2700
v 1630.7250 0.0050 26.2700
v 1630.7250 0.0050 26.3300
v 1629.7750 0.0050 26.3300
v 1629.7750 2.0550 26.2700
v 1630.7250 2.0550 26.2700
v 1630.7250 2.0550 26.3300
v 1629.7750 2.0550 26.3300
v 1629.6880 0.9450 26.3050
v 1629.7580 0.9450 26.3050
v 1629.7580 0.9450 26.3750
v 1629.6880 0.9450 26.3750
v 1629.6880 1.0150 26.3050
v 1629.7580 1.0150 26.3050
v 1629.7580 1.0150 26.3750
v 1629.6880 1.0150 26.3750
v 1632.5250 0.0050 26.2700
v 1633.4750 0.0050 26.2700
v 1633.4750 0.0050 26.3300
v 1632.5250 0.0050 26.3300
v 1632.5250 2.0550 26.2700
v 1633.4750 2.0550 26.2700
v 1633.4750 2.0550 26.3300
v 1632.5250 2.0550 26.3300
v 1632.4380 0.9450 26.3050
v 1632.5080 0.9450 26.3050
v 1632.5080 0.9450 26.3750
v 1632.4380 0.9450 26.3750
v 1632.4380 1.0150 26.3050
v 1632.5080 1.0150 26.3050
v 1632.5080 1.0150 26.3750
v 1632.4380 1.0150 26.3750
v 1627.0250 0.0050 31.7700
v 1627.9750 0.0050 31.7700
v 1627.9750 0.0050 31.8300
v 1627.0250 0.0050 31.8300
v 1627.0250 2.0550 31.7700
v 1627.9750 2.0550 31.7700
v 1627.9750 2.0550 31.8300
v 1627.0250 2.0550 31.8300
v 1626.9380 0.9450 31.8050
v 1627.0080 0.9450 31.8050
v 1627.0080 0.9450 31.8750
v 1626.9380 0.9450 31.8750
v 1626.9380 1.0150 31.8050
v 1627.0080 1.0150 31.8050
v 1627.0080 1.0150 31.8750
v 1626.9380 1.0150 31.8750
v 1639.6700 0.0050 32.5250
v 1639.7300 0.0050 32.5250
v 1639.7300 0.0050 33.4750
v 1639.6700 0.0050 33.4750
v 1639.6700 2.0550 32.5250
v 1639.7300 2.0550 32.5250
v 1639.7300 2.0550 33.4750
v 1639.6700 2.0550 33.4750
v 1639.6250 0.9450 32.4380
v 1639.6950 0.9450 32.4380
v 1639.6950 0.9450 32.5080
v 1639.6250 0.9450 32.5080
v 1639.6250 1.0150 32.4380
v 1639.6950 1.0150 32.4380
v 1639.6950 1.0150 32.5080
v 1639.6250 1.0150 32.5080
v 1629.7750 0.0050 34.1700
v 1630.7250 0.0050 34.1700
v 1630.7250 0.0050 34.2300
v 1629.7750 0.0050 34.2300
v 1629.7750 2.0550 34.1700
v 1630.7250 2.0550 34.1700
v 1630.7250 2.0550 34.2300
v 1629.7750 2.0550 34.2300
v 1630.7420 0.9450 34.1250
v 1630.8120 0.9450 34.1250
v 1630.8120 0.9450 34.1950
v 1630.7420 0.9450 34.1950
v 1630.7420 1.0150 34.1250
v 1630.8120 1.0150 34.1250
v 1630.8120 1.0150 34.1950
v 1630.7420 1.0150 34.1950
v 1639.6700 0.0050 35.2750
v 1639.7300 0.0050 35.2750
v 1639.7300 0.0050 36.2250
v 1639.6700 0.0050 36.2250
v 1639.6700 2.0550 35.2750
v 1639.7300 2.0550 35.2750
v 1639.7300 2.0550 36.2250
v 1639.6700 2.0550 36.2250
v 1639.6250 0.9450 35.1880
v 1639.6950 0.9450 35.1880
v 1639.6950 0.9450 35.2580
v 1639.6250 0.9450 35.2580
v 1639.6250 1.0150 35.1880
v 1639.6950 1.0150 35.1880
v 1639.6950 1.0150 35.2580
v 1639.6250 1.0150 35.2580
v 1639.6700 0.0050 38.0250
v 1639.7300 0.0050 38.0250
v 1639.7300 0.0050 38.9750
v 1639.6700 0.0050 38.9750
v 1639.6700 2.0550 38.0250
v 1639.7300 2.0550 38.0250
v 1639.7300 2.0550 38.9750
v 1639.6700 2.0550 38.9750
v 1639.6250 0.9450 37.9380
v 1639.6950 0.9450 37.9380
v 1639.6950 0.9450 38.0080
v 1639.6250 0.9450 38.0080
v 1639.6250 1.0150 37.9380
v 1639.6950 1.0150 37.9380
v 1639.6950 1.0150 38.0080
v 1639.6250 1.0150 38.0080
v 1638.0250 0.0050 39.6700
v 1638.9750 0.0050 39.6700
v 1638.9750 0.0050 39.7300
v 1638.0250 0.0050 39.7300
v 1638.0250 2.0550 39.6700
v 1638.9750 2.0550 39.6700
v 1638.9750 2.0550 39.7300
v 1638.0250 2.0550 39.7300
v 1638.9920 0.9450 39.6250
v 1639.0620 0.9450 39.6250
v 1639.0620 0.9450 39.6950
v 1638.9920 0.9450 39.6950
v 1638.9920 1.0150 39.6250
v 1639.0620 1.0150 39.6250
v 1639.0620 1.0150 39.6950
v 1638.9920 1.0150 39.6950
vt 1014.5000 14.5000
vt 1014.5000 16.4375
vt 1016.4375 16.4375
vt 1016.4375 14.5000
vt 1014.5000 14.5000
vt 1016.4375 14.5000
vt 1016.4375 16.4375
vt 1014.5000 16.4375
vt 1014.5000 0.0000
vt 1016.4375 0.0000
vt 1016.4375 2.1250
vt 1014.5000 2.1250
vt 1016.4375 0.0000
vt 1014.5000 0.0000
vt 1014.5000 2.1250
vt 1016.4375 2.1250
vt 14.5000 0.0000
vt 16.4375 0.0000
vt 16.4375 2.1250
vt 14.5000 2.1250
vt 16.4375 0.0000
vt 14.5000 0.0000
vt 14.5000 2.1250
vt 16.4375 2.1250
vt 1017.9375 14.5000
vt 1017.9375 16.4375
vt 1019.8750 16.4375
vt 1019.8750 14.5000
vt 1017.9375 14.5000
vt 1019.8750 14.5000
vt 1019.8750 16.4375
vt 1017.9375 16.4375
vt 1017.9375 0.0000
vt 1019.8750 0.0000
vt 1019.8750 2.1250
vt 1017.9375 2.1250
vt 1019.8750 0.0000
vt 1017.9375 0.0000
vt 1017.9375 2.1250
vt 1019.8750 2.1250
vt 14.5000 0.0000
vt 16.4375 0.0000
vt 16.4375 2.1250
vt 14.5000 2.1250
vt 16.4375 0.0000
vt 14.5000 0.0000
vt 14.5000 2.1250
vt 16.4375 2.1250
vt 1019.6562 14.5000
vt 1019.6562 16.4375
vt 1021.5937 16.4375
vt 1021.5937 14.5000
vt 1019.6562 14.5000
vt 1021.5937 14.5000
vt 1021.5937 16.4375
vt 1019.6562 16.4375
vt 1019.6562 0.0000
vt 1021.5937 0.0000
vt 1021.5937 2.1250
vt 1019.6562 2.1250
vt 1021.5937 0.0000
vt 1019.6562 0.0000
vt 1019.6562 2.1250
vt 1021.5937 2.1250
vt 14.5000 0.0000
vt 16.4375 0.0000
vt 16.4375 2.1250
vt 14.5000 2.1250
vt 16.4375 0.0000
vt 14.5000 0.0000
vt 14.5000 2.1250
vt 16.4375 2.1250
vt 1021.3750 14.5000
vt 1021.3750 16.4375
vt 1023.3125 16.4375
vt 1023.3125 14.5000
vt 1021.3750 14.5000
vt 1023.3125 14.5000
vt 1023.3125 16.4375
vt 1021.3750 16.4375
vt 1021.3750 0.0000
vt 1023.3125 0.0000
vt 1023.3125 2.1250
vt 1021.3750 2.1250
vt 1023.3125 0.0000
vt 1021.3750 0.0000
vt 1021.3750 2.1250
vt 1023.3125 2.1250
vt 14.5000 0.0000
vt 16.4375 0.0000
vt 16.4375 2.1250
vt 14.5000 2.1250
vt 16.4375 0.0000
vt 14.5000 0.0000
vt 14.5000 2.1250
vt 16.4375 2.1250
vt 1016.2188 17.9375
vt 1016.2188 19.8750
vt 1018.1562 19.8750
vt 1018.1562 17.9375
vt 1016.2188 17.9375
vt 1018.1562 17.9375
vt 1018.1562 19.8750
vt 1016.2188 19.8750
vt 1016.2188 0.0000
vt 1018.1562 0.0000
vt 1018.1562 2.1250
vt 1016.2188 2.1250
vt 1018.1562 0.0000
vt 1016.2188 0.0000
vt 1016.2188 2.1250
vt 1018.1562 2.1250
vt 17.9375 0.0000
vt 19.8750 0.0000
vt 19.8750 2.1250
vt 17.9375 2.1250
vt 19.8750 0.0000
vt 17.9375 0.0000
vt 17.9375 2.1250
vt 19.8750 2.1250
vt 1017.9375 17.9375
vt 1017.9375 19.8750
vt 1019.8750 19.8750
vt 1019.8750 17.9375
vt 1017.9375 17.9375
vt 1019.8750 17.9375
vt 1019.8750 19.8750
vt 1017.9375 19.8750
vt 1017.9375 0.0000
vt 1019.8750 0.0000
vt 1019.8750 2.1250
vt 1017.9375 2.1250
vt 1019.8750 0.0000
vt 1017.9375 0.0000
vt 1017.9375 2.1250
vt 1019.8750 2.1250
vt 17.9375 0.0000
vt 19.8750 0.0000
vt 19.8750 2.1250
vt 17.9375 2.1250
vt 19.8750 0.0000
vt 17.9375 0.0000
vt 17.9375 2.1250
vt 19.8750 2.1250
vt 1019.6562 17.9375
vt 1019.6562 19.8750
vt 1021.5937 19.8750
vt 1021.5937 17.9375
vt 1019.6562 17.9375
vt 1021.5937 17.9375
vt 1021.5937 19.8750
vt 1019.6562 19.8750
vt 1019.6562 0.0000
vt 1021.5937 0.0000
vt 1021.5937 2.1250
vt 1019.6562 2.1250
vt 1021.5937 0.0000
vt 1019.6562 0.0000
vt 1019.6562 2.1250
vt 1021.5937 2.1250
vt 17.9375 0.0000
vt 19.8750 0.0000
vt 19.8750 2.1250
vt 17.9375 2.1250
vt 19.8750 0.0000
vt 17.9375 0.0000
vt 17.9375 2.1250
vt 19.8750 2.1250
vt 1021.3750 17.9375
vt 1021.3750 19.8750
vt 1023.3125 19.8750
vt 1023.3125 17.9375
vt 1021.3750 17.9375
vt 1023.3125 17.9375
vt 1023.3125 19.8750
vt 1021.3750 19.8750
vt 1021.3750 0.0000
vt 1023.3125 0.0000
vt 1023.3125 2.1250
vt 1021.3750 2.1250
vt 1023.3125 0.0000
vt 1021.3750 0.0000
vt 1021.3750 2.1250
vt 1023.3125 2.1250
vt 17.9375 0.0000
vt 19.8750 0.0000
vt 19.8750 2.1250
vt 17.9375 2.1250
vt 19.8750 0.0000
vt 17.9375 0.0000
vt 17.9375 2.1250
vt 19.8750 2.1250
vt 1014.5000 21.3750
vt 1014.5000 23.3125
vt 1016.4375 23.3125
vt 1016.4375 21.3750
vt 1014.5000 21.3750
vt 1016.4375 21.3750
vt 1016.4375 23.3125
vt 1014.5000 23.3125
vt 1014.5000 0.0000
vt 1016.4375 0.0000
vt 1016.4375 2.1250
vt 1014.5000 2.1250
vt 1016.4375 0.0000
vt 1014.5000 0.0000
vt 1014.5000 2.1250
vt 1016.4375 2.1250
vt 21.3750 0.0000
vt 23.3125 0.0000
vt 23.3125 2.1250
vt 21.3750 2.1250
vt 23.3125 0.0000
vt 21.3750 0.0000
vt 21.3750 2.1250
vt 23.3125 2.1250
vt 1016.2188 21.3750
vt 1016.2188 23.3125
vt 1018.1562 23.3125
vt 1018.1562 21.3750
vt 1016.2188 21.3750
vt 1018.1562 21.3750
vt 1018.1562 23.3125
vt 1016.2188 23.3125
vt 1016.2188 0.0000
vt 1018.1562 0.0000
vt 1018.1562 2.1250
vt 1016.2188 2.1250
vt 1018.1562 0.0000
vt 1016.2188 0.0000
vt 1016.2188 2.1250
vt 1018.1562 2.1250
vt 21.3750 0.0000
vt 23.3125 0.0000
vt 23.3125 2.1250
vt 21.3750 2.1250
vt 23.3125 0.0000
vt 21.3750 0.0000
vt 21.3750 2.1250
vt 23.3125 2.1250
vt 1017.9375 21.3750
vt 1017.9375 23.3125
vt 1019.8750 23.3125
vt 1019.8750 21.3750
vt 1017.9375 21.3750
vt 1019.8750 21.3750
vt 1019.8750 23.3125
vt 1017.9375 23.3125
vt 1017.9375 0.0000
vt 1019.8750 0.0000
vt 1019.8750 2.1250
vt 1017.9375 2.1250
vt 1019.8750 0.0000
vt 1017.9375 0.0000
vt 1017.9375 2.1250
vt 1019.8750 2.1250
vt 21.3750 0.0000
vt 23.3125 0.0000
vt 23.3125 2.1250
vt 21.3750 2.1250
vt 23.3125 0.0000
vt 21.3750 0.0000
vt 21.3750 2.1250
vt 23.3125 2.1250
vt 1019.6562 21.3750
vt 1019.6562 23.3125
vt 1021.5937 23.3125
vt 1021.5937 21.3750
vt 1019.6562 21.3750
vt 1021.5937 21.3750
vt 1021.5937 23.3125
vt 1019.6562 23.3125
vt 1019.6562 0.0000
vt 1021.5937 0.0000
vt 1021.5937 2.1250
vt 1019.6562 2.1250
vt 1021.5937 0.0000
vt 1019.6562 0.0000
vt 1019.6562 2.1250
vt 1021.5937 2.1250
vt 21.3750 0.0000
vt 23.3125 0.0000
vt 23.3125 2.1250
vt 21.3750 2.1250
vt 23.3125 0.0000
vt 21.3750 0.0000
vt 21.3750 2.1250
vt 23.3125 2.1250
vt 1021.3750 21.3750
vt 1021.3750 23.3125
vt 1023.3125 23.3125
vt 1023.3125 21.3750
vt 1021.3750 21.3750
vt 1023.3125 21.3750
vt 1023.3125 23.3125
vt 1021.3750 23.3125
vt 1021.3750 0.0000
vt 1023.3125 0.0000
vt 1023.3125 2.1250
vt 1021.3750 2.1250
vt 1023.3125 0.0000
vt 1021.3750 0.0000
vt 1021.3750 2.1250
vt 1023.3125 2.1250
vt 21.3750 0.0000
vt 23.3125 0.0000
vt 23.3125 2.1250
vt 21.3750 2.1250
vt 23.3125 0.0000
vt 21.3750 0.0000
vt 21.3750 2.1250
vt 23.3125 2.1250
usemtl hotel_paper_alt
f 97 100 99 98
f 101 102 103 104
f 97 98 102 101
f 99 100 104 103
f 98 99 103 102
f 100 97 101 104
f 105 108 107 106
f 109 110 111 112
f 105 106 110 109
f 107 108 112 111
f 106 107 111 110
f 108 105 109 112
usemtl lamp_warm
f 329 332 331 330
f 333 334 335 336
f 329 330 334 333
f 331 332 336 335
f 330 331 335 334
f 332 329 333 336
usemtl hotel_trim
f 337 340 339 338
f 341 342 343 344
f 337 338 342 341
f 339 340 344 343
f 338 339 343 342
f 340 337 341 344
usemtl lamp_warm
f 345 348 347 346
f 349 350 351 352
f 345 346 350 349
f 347 348 352 351
f 346 347 351 350
f 348 345 349 352
usemtl hotel_trim
f 353 356 355 354
f 357 358 359 360
f 353 354 358 357
f 355 356 360 359
f 354 355 359 358
f 356 353 357 360
usemtl lamp_warm
f 361 364 363 362
f 365 366 367 368
f 361 362 366 365
f 363 364 368 367
f 362 363 367 366
f 364 361 365 368
usemtl hotel_trim
f 369 372 371 370
f 373 374 375 376
f 369 370 374 373
f 371 372 376 375
f 370 371 375 374
f 372 369 373 376
usemtl door_wood
f 377 380 379 378
f 381 382 383 384
f 377 378 382 381
f 379 380 384 383
f 378 379 383 382
f 380 377 381 384
usemtl door_brass
f 385 388 387 386
f 389 390 391 392
f 385 386 390 389
f 387 388 392 391
f 386 387 391 390
f 388 385 389 392
usemtl door_wood
f 393 396 395 394
f 397 398 399 400
f 393 394 398 397
f 395 396 400 399
f 394 395 399 398
f 396 393 397 400
usemtl door_brass
f 401 404 403 402
f 405 406 407 408
f 401 402 406 405
f 403 404 408 407
f 402 403 407 406
f 404 401 405 408
usemtl door_wood
f 409 412 411 410
f 413 414 415 416
f 409 410 414 413
f 411 412 416 415
f 410 411 415 414
f 412 409 413 416
usemtl door_brass
f 417 420 419 418
f 421 422 423 424
f 417 418 422 421
f 419 420 424 423
f 418 419 423 422
f 420 417 421 424
usemtl door_wood
f 425 428 427 426
f 429 430 431 432
f 425 426 430 429
f 427 428 432 431
f 426 427 431 430
f 428 425 429 432
usemtl door_brass
f 433 436 435 434
f 437 438 439 440
f 433 434 438 437
f 435 436 440 439
f 434 435 439 438
f 436 433 437 440
usemtl door_wood
f 441 444 443 442
f 445 446 447 448
f 441 442 446 445
f 443 444 448 447
f 442 443 447 446
f 444 441 445 448
usemtl door_brass
f 449 452 451 450
f 453 454 455 456
f 449 450 454 453
f 451 452 456 455
f 450 451 455 454
f 452 449 453 456
usemtl door_wood
f 457 460 459 458
f 461 462 463 464
f 457 458 462 461
f 459 460 464 463
f 458 459 463 462
f 460 457 461 464
usemtl door_brass
f 465 468 467 466
f 469 470 471 472
f 465 466 470 469
f 467 468 472 471
f 466 467 471 470
f 468 465 469 472
usemtl door_wood
f 473 476 475 474
f 477 478 479 480
f 473 474 478 477
f 475 476 480 479
f 474 475 479 478
f 476 473 477 480
usemtl door_brass
f 481 484 483 482
f 485 486 487 488
f 481 482 486 485
f 483 484 488 487
f 482 483 487 486
f 484 481 485 488
usemtl door_wood
f 489 492 491 490
f 493 494 495 496
f 489 490 494 493
f 491 492 496 495
f 490 491 495 494
f 492 489 493 496
usemtl door_brass
f 497 500 499 498
f 501 502 503 504
f 497 498 502 501
f 499 500 504 503
f 498 499 503 502
f 500 497 501 504
usemtl hotel_paper
f 1/1 2/2 3/3 4/4
f 5/5 6/6 7/7 8/8
f 9/9 10/10 11/11 12/12
f 13/13 14/14 15/15 16/16
f 17/17 18/18 19/19 20/20
f 21/21 22/22 23/23 24/24
f 25/25 26/26 27/27 28/28
f 29/29 30/30 31/31 32/32
f 33/33 34/34 35/35 36/36
f 37/37 38/38 39/39 40/40
f 41/41 42/42 43/43 44/44
f 45/45 46/46 47/47 48/48
f 49/49 50/50 51/51 52/52
f 53/53 54/54 55/55 56/56
f 57/57 58/58 59/59 60/60
f 61/61 62/62 63/63 64/64
f 65/65 66/66 67/67 68/68
f 69/69 70/70 71/71 72/72
f 73/73 74/74 75/75 76/76
f 77/77 78/78 79/79 80/80
f 81/81 82/82 83/83 84/84
f 85/85 86/86 87/87 88/88
f 89/89 90/90 91/91 92/92
f 93/93 94/94 95/95 96/96
f 113/97 114/98 115/99 116/100
f 117/101 118/102 119/103 120/104
f 121/105 122/106 123/107 124/108
f 125/109 126/110 127/111 128/112
f 129/113 130/114 131/115 132/116
f 133/117 134/118 135/119 136/120
f 137/121 138/122 139/123 140/124
f 141/125 142/126 143/127 144/128
f 145/129 146/130 147/131 148/132
f 149/133 150/134 151/135 152/136
f 153/137 154/138 155/139 156/140
f 157/141 158/142 159/143 160/144
f 161/145 162/146 163/147 164/148
f 165/149 166/150 167/151 168/152
f 169/153 170/154 171/155 172/156
f 173/157 174/158 175/159 176/160
f 177/161 178/162 179/163 180/164
f 181/165 182/166 183/167 184/168
f 185/169 186/170 187/171 188/172
f 189/173 190/174 191/175 192/176
f 193/177 194/178 195/179 196/180
f 197/181 198/182 199/183 200/184
f 201/185 202/186 203/187 204/188
f 205/189 206/190 207/191 208/192
f 209/193 210/194 211/195 212/196
f 213/197 214/198 215/199 216/200
f 217/201 218/202 219/203 220/204
f 221/205 222/206 223/207 224/208
f 225/209 226/210 227/211 228/212
f 229/213 230/214 231/215 232/216
f 233/217 234/218 235/219 236/220
f 237/221 238/222 239/223 240/224
f 241/225 242/226 243/227 244/228
f 245/229 246/230 247/231 248/232
f 249/233 250/234 251/235 252/236
f 253/237 254/238 255/239 256/240
f 257/241 258/242 259/243 260/244
f 261/245 262/246 263/247 264/248
f 265/249 266/250 267/251 268/252
f 269/253 270/254 271/255 272/256
f 273/257 274/258 275/259 276/260
f 277/261 278/262 279/263 280/264
f 281/265 282/266 283/267 284/268
f 285/269 286/270 287/271 288/272
f 289/273 290/274 291/275 292/276
f 293/277 294/278 295/279 296/280
f 297/281 298/282 299/283 300/284
f 301/285 302/286 303/287 304/288
f 305/289 306/290 307/291 308/292
f 309/293 310/294 311/295 312/296
f 313/297 314/298 315/299 316/300
f 317/301 318/302 319/303 320/304
f 321/305 322/306 323/307 324/308
f 325/309 326/310 327/311 328/312
