# RoastEngine Backrooms level
mtllib backrooms.mtl
v 1623.2000 0.0000 -9.8000
v 1623.2000 0.0000 -6.7000
v 1626.3000 0.0000 -6.7000
v 1626.3000 0.0000 -9.8000
v 1623.2000 3.4000 -9.8000
v 1626.3000 3.4000 -9.8000
v 1626.3000 3.4000 -6.7000
v 1623.2000 3.4000 -6.7000
v 1623.2000 0.0000 -9.8000
v 1626.3000 0.0000 -9.8000
v 1626.3000 3.4000 -9.8000
v 1623.2000 3.4000 -9.8000
v 1626.3000 0.0000 -6.7000
v 1623.2000 0.0000 -6.7000
v 1623.2000 3.4000 -6.7000
v 1626.3000 3.4000 -6.7000
v 1626.3000 0.0000 -9.8000
v 1626.3000 0.0000 -6.7000
v 1626.3000 3.4000 -6.7000
v 1626.3000 3.4000 -9.8000
v 1623.2000 0.0000 -6.7000
v 1623.2000 0.0000 -9.8000
v 1623.2000 3.4000 -9.8000
v 1623.2000 3.4000 -6.7000
v 1634.2000 0.0000 -9.8000
v 1634.2000 0.0000 -6.7000
v 1637.3000 0.0000 -6.7000
v 1637.3000 0.0000 -9.8000
v 1634.2000 3.4000 -9.8000
v 1637.3000 3.4000 -9.8000
v 1637.3000 3.4000 -6.7000
v 1634.2000 3.4000 -6.7000
v 1634.2000 0.0000 -9.8000
v 1637.3000 0.0000 -9.8000
v 1637.3000 3.4000 -9.8000
v 1634.2000 3.4000 -9.8000
v 1637.3000 0.0000 -6.7000
v 1634.2000 0.0000 -6.7000
v 1634.2000 3.4000 -6.7000
v 1637.3000 3.4000 -6.7000
v 1637.3000 0.0000 -9.8000
v 1637.3000 0.0000 -6.7000
v 1637.3000 3.4000 -6.7000
v 1637.3000 3.4000 -9.8000
v 1634.2000 0.0000 -6.7000
v 1634.2000 0.0000 -9.8000
v 1634.2000 3.4000 -9.8000
v 1634.2000 3.4000 -6.7000
v 1623.2000 0.0000 -7.0500
v 1623.2000 0.0000 -3.9500
v 1626.3000 0.0000 -3.9500
v 1626.3000 0.0000 -7.0500
v 1623.2000 3.4000 -7.0500
v 1626.3000 3.4000 -7.0500
v 1626.3000 3.4000 -3.9500
v 1623.2000 3.4000 -3.9500
v 1623.2000 0.0000 -7.0500
v 1626.3000 0.0000 -7.0500
v 1626.3000 3.4000 -7.0500
v 1623.2000 3.4000 -7.0500
v 1626.3000 0.0000 -3.9500
v 1623.2000 0.0000 -3.9500
v 1623.2000 3.4000 -3.9500
v 1626.3000 3.4000 -3.9500
v 1626.3000 0.0000 -7.0500
v 1626.3000 0.0000 -3.9500
v 1626.3000 3.4000 -3.9500
v 1626.3000 3.4000 -7.0500
v 1623.2000 0.0000 -3.9500
v 1623.2000 0.0000 -7.0500
v 1623.2000 3.4000 -7.0500
v 1623.2000 3.4000 -3.9500
v 1623.2000 0.0000 -4.3000
v 1623.2000 0.0000 -1.2000
v 1626.3000 0.0000 -1.2000
v 1626.3000 0.0000 -4.3000
v 1623.2000 3.4000 -4.3000
v 1626.3000 3.4000 -4.3000
v 1626.3000 3.4000 -1.2000
v 1623.2000 3.4000 -1.2000
v 1623.2000 0.0000 -4.3000
v 1626.3000 0.0000 -4.3000
v 1626.3000 3.4000 -4.3000
v 1623.2000 3.4000 -4.3000
v 1626.3000 0.0000 -1.2000
v 1623.2000 0.0000 -1.2000
v 1623.2000 3.4000 -1.2000
v 1626.3000 3.4000 -1.2000
v 1626.3000 0.0000 -4.3000
v 1626.3000 0.0000 -1.2000
v 1626.3000 3.4000 -1.2000
v 1626.3000 3.4000 -4.3000
v 1623.2000 0.0000 -1.2000
v 1623.2000 0.0000 -4.3000
v 1623.2000 3.4000 -4.3000
v 1623.2000 3.4000 -1.2000
v 1628.7000 0.0000 -4.3000
v 1628.7000 0.0000 -1.2000
v 1631.8000 0.0000 -1.2000
v 1631.8000 0.0000 -4.3000
v 1628.7000 3.4000 -4.3000
v 1631.8000 3.4000 -4.3000
v 1631.8000 3.4000 -1.2000
v 1628.7000 3.4000 -1.2000
v 1628.7000 0.0000 -4.3000
v 1631.8000 0.0000 -4.3000
v 1631.8000 3.4000 -4.3000
v 1628.7000 3.4000 -4.3000
v 1631.8000 0.0000 -1.2000
v 1628.7000 0.0000 -1.2000
v 1628.7000 3.4000 -1.2000
v 1631.8000 3.4000 -1.2000
v 1631.8000 0.0000 -4.3000
v 1631.8000 0.0000 -1.2000
v 1631.8000 3.4000 -1.2000
v 1631.8000 3.4000 -4.3000
v 1628.7000 0.0000 -1.2000
v 1628.7000 0.0000 -4.3000
v 1628.7000 3.4000 -4.3000
v 1628.7000 3.4000 -1.2000
v 1634.2000 0.0000 -4.3000
v 1634.2000 0.0000 -1.2000
v 1637.3000 0.0000 -1.2000
v 1637.3000 0.0000 -4.3000
v 1634.2000 3.4000 -4.3000
v 1637.3000 3.4000 -4.3000
v 1637.3000 3.4000 -1.2000
v 1634.2000 3.4000 -1.2000
v 1634.2000 0.0000 -4.3000
v 1637.3000 0.0000 -4.3000
v 1637.3000 3.4000 -4.3000
v 1634.2000 3.4000 -4.3000
v 1637.3000 0.0000 -1.2000
v 1634.2000 0.0000 -1.2000
v 1634.2000 3.4000 -1.2000
v 1637.3000 3.4000 -1.2000
v 1637.3000 0.0000 -4.3000
v 1637.3000 0.0000 -1.2000
v 1637.3000 3.4000 -1.2000
v 1637.3000 3.4000 -4.3000
v 1634.2000 0.0000 -1.2000
v 1634.2000 0.0000 -4.3000
v 1634.2000 3.4000 -4.3000
v 1634.2000 3.4000 -1.2000
v 1636.9500 0.0000 -4.3000
v 1636.9500 0.0000 -1.2000
v 1640.0500 0.0000 -1.2000
v 1640.0500 0.0000 -4.3000
v 1636.9500 3.4000 -4.3000
v 1640.0500 3.4000 -4.3000
v 1640.0500 3.4000 -1.2000
v 1636.9500 3.4000 -1.2000
v 1636.9500 0.0000 -4.3000
v 1640.0500 0.0000 -4.3000
v 1640.0500 3.4000 -4.3000
v 1636.9500 3.4000 -4.3000
v 1640.0500 0.0000 -1.2000
v 1636.9500 0.0000 -1.2000
v 1636.9500 3.4000 -1.2000
v 1640.0500 3.4000 -1.2000
v 1640.0500 0.0000 -4.3000
v 1640.0500 0.0000 -1.2000
v 1640.0500 3.4000 -1.2000
v 1640.0500 3.4000 -4.3000
v 1636.9500 0.0000 -1.2000
v 1636.9500 0.0000 -4.3000
v 1636.9500 3.4000 -4.3000
v 1636.9500 3.4000 -1.2000
v 1628.7000 0.0000 -1.5500
v 1628.7000 0.0000 1.5500
v 1631.8000 0.0000 1.5500
v 1631.8000 0.0000 -1.5500
v 1628.7000 3.4000 -1.5500
v 1631.8000 3.4000 -1.5500
v 1631.8000 3.4000 1.5500
v 1628.7000 3.4000 1.5500
v 1628.7000 0.0000 -1.5500
v 1631.8000 0.0000 -1.5500
v 1631.8000 3.4000 -1.5500
v 1628.7000 3.4000 -1.5500
v 1631.8000 0.0000 1.5500
v 1628.7000 0.0000 1.5500
v 1628.7000 3.4000 1.5500
v 1631.8000 3.4000 1.5500
v 1631.8000 0.0000 -1.5500
v 1631.8000 0.0000 1.5500
v 1631.8000 3.4000 1.5500
v 1631.8000 3.4000 -1.5500
v 1628.7000 0.0000 1.5500
v 1628.7000 0.0000 -1.5500
v 1628.7000 3.4000 -1.5500
v 1628.7000 3.4000 1.5500
v 1623.2000 0.0000 1.2000
v 1623.2000 0.0000 4.3000
v 1626.3000 0.0000 4.3000
v 1626.3000 0.0000 1.2000
v 1623.2000 3.4000 1.2000
v 1626.3000 3.4000 1.2000
v 1626.3000 3.4000 4.3000
v 1623.2000 3.4000 4.3000
v 1623.2000 0.0000 1.2000
v 1626.3000 0.0000 1.2000
v 1626.3000 3.4000 1.2000
v 1623.2000 3.4000 1.2000
v 1626.3000 0.0000 4.3000
v 1623.2000 0.0000 4.3000
v 1623.2000 3.4000 4.3000
v 1626.3000 3.4000 4.3000
v 1626.3000 0.0000 1.2000
v 1626.3000 0.0000 4.3000
v 1626.3000 3.4000 4.3000
v 1626.3000 3.4000 1.2000
v 1623.2000 0.0000 4.3000
v 1623.2000 0.0000 1.2000
v 1623.2000 3.4000 1.2000
v 1623.2000 3.4000 4.3000
v 1625.9500 0.0000 1.2000
v 1625.9500 0.0000 4.3000
v 1629.0500 0.0000 4.3000
v 1629.0500 0.0000 1.2000
v 1625.9500 3.4000 1.2000
v 1629.0500 3.4000 1.2000
v 1629.0500 3.4000 4.3000
v 1625.9500 3.4000 4.3000
v 1625.9500 0.0000 1.2000
v 1629.0500 0.0000 1.2000
v 1629.0500 3.4000 1.2000
v 1625.9500 3.4000 1.2000
v 1629.0500 0.0000 4.3000
v 1625.9500 0.0000 4.3000
v 1625.9500 3.4000 4.3000
v 1629.0500 3.4000 4.3000
v 1629.0500 0.0000 1.2000
v 1629.0500 0.0000 4.3000
v 1629.0500 3.4000 4.3000
v 1629.0500 3.4000 1.2000
v 1625.9500 0.0000 4.3000
v 1625.9500 0.0000 1.2000
v 1625.9500 3.4000 1.2000
v 1625.9500 3.4000 4.3000
v 1628.7000 0.0000 1.2000
v 1628.7000 0.0000 4.3000
v 1631.8000 0.0000 4.3000
v 1631.8000 0.0000 1.2000
v 1628.7000 3.4000 1.2000
v 1631.8000 3.4000 1.2000
v 1631.8000 3.4000 4.3000
v 1628.7000 3.4000 4.3000
v 1628.7000 0.0000 1.2000
v 1631.8000 0.0000 1.2000
v 1631.8000 3.4000 1.2000
v 1628.7000 3.4000 1.2000
v 1631.8000 0.0000 4.3000
v 1628.7000 0.0000 4.3000
v 1628.7000 3.4000 4.3000
v 1631.8000 3.4000 4.3000
v 1631.8000 0.0000 1.2000
v 1631.8000 0.0000 4.3000
v 1631.8000 3.4000 4.3000
v 1631.8000 3.4000 1.2000
v 1628.7000 0.0000 4.3000
v 1628.7000 0.0000 1.2000
v 1628.7000 3.4000 1.2000
v 1628.7000 3.4000 4.3000
v 1634.2000 0.0000 1.2000
v 1637.3000 0.0000 1.2000
v 1637.3000 0.0000 4.3000
v 1634.2000 0.0000 4.3000
v 1634.2000 3.4000 1.2000
v 1637.3000 3.4000 1.2000
v 1637.3000 3.4000 4.3000
v 1634.2000 3.4000 4.3000
v 1634.2000 0.0000 3.9500
v 1634.2000 0.0000 7.0500
v 1637.3000 0.0000 7.0500
v 1637.3000 0.0000 3.9500
v 1634.2000 3.4000 3.9500
v 1637.3000 3.4000 3.9500
v 1637.3000 3.4000 7.0500
v 1634.2000 3.4000 7.0500
v 1634.2000 0.0000 3.9500
v 1637.3000 0.0000 3.9500
v 1637.3000 3.4000 3.9500
v 1634.2000 3.4000 3.9500
v 1637.3000 0.0000 7.0500
v 1634.2000 0.0000 7.0500
v 1634.2000 3.4000 7.0500
v 1637.3000 3.4000 7.0500
v 1637.3000 0.0000 3.9500
v 1637.3000 0.0000 7.0500
v 1637.3000 3.4000 7.0500
v 1637.3000 3.4000 3.9500
v 1634.2000 0.0000 7.0500
v 1634.2000 0.0000 3.9500
v 1634.2000 3.4000 3.9500
v 1634.2000 3.4000 7.0500
v 1628.7000 0.0000 6.7000
v 1628.7000 0.0000 9.8000
v 1631.8000 0.0000 9.8000
v 1631.8000 0.0000 6.7000
v 1628.7000 3.4000 6.7000
v 1631.8000 3.4000 6.7000
v 1631.8000 3.4000 9.8000
v 1628.7000 3.4000 9.8000
v 1628.7000 0.0000 6.7000
v 1631.8000 0.0000 6.7000
v 1631.8000 3.4000 6.7000
v 1628.7000 3.4000 6.7000
v 1631.8000 0.0000 9.8000
v 1628.7000 0.0000 9.8000
v 1628.7000 3.4000 9.8000
v 1631.8000 3.4000 9.8000
v 1631.8000 0.0000 6.7000
v 1631.8000 0.0000 9.8000
v 1631.8000 3.4000 9.8000
v 1631.8000 3.4000 6.7000
v 1628.7000 0.0000 9.8000
v 1628.7000 0.0000 6.7000
v 1628.7000 3.4000 6.7000
v 1628.7000 3.4000 9.8000
v 1631.4500 0.0000 6.7000
v 1631.4500 0.0000 9.8000
v 1634.5500 0.0000 9.8000
v 1634.5500 0.0000 6.7000
v 1631.4500 3.4000 6.7000
v 1634.5500 3.4000 6.7000
v 1634.5500 3.4000 9.8000
v 1631.4500 3.4000 9.8000
v 1631.4500 0.0000 6.7000
v 1634.5500 0.0000 6.7000
v 1634.5500 3.4000 6.7000
v 1631.4500 3.4000 6.7000
v 1634.5500 0.0000 9.8000
v 1631.4500 0.0000 9.8000
v 1631.4500 3.4000 9.8000
v 1634.5500 3.4000 9.8000
v 1634.5500 0.0000 6.7000
v 1634.5500 0.0000 9.8000
v 1634.5500 3.4000 9.8000
v 1634.5500 3.4000 6.7000
v 1631.4500 0.0000 9.8000
v 1631.4500 0.0000 6.7000
v 1631.4500 3.4000 6.7000
v 1631.4500 3.4000 9.8000
v 1634.2000 0.0000 6.7000
v 1634.2000 0.0000 9.8000
v 1637.3000 0.0000 9.8000
v 1637.3000 0.0000 6.7000
v 1634.2000 3.4000 6.7000
v 1637.3000 3.4000 6.7000
v 1637.3000 3.4000 9.8000
v 1634.2000 3.4000 9.8000
v 1634.2000 0.0000 6.7000
v 1637.3000 0.0000 6.7000
v 1637.3000 3.4000 6.7000
v 1634.2000 3.4000 6.7000
v 1637.3000 0.0000 9.8000
v 1634.2000 0.0000 9.8000
v 1634.2000 3.4000 9.8000
v 1637.3000 3.4000 9.8000
v 1637.3000 0.0000 6.7000
v 1637.3000 0.0000 9.8000
v 1637.3000 3.4000 9.8000
v 1637.3000 3.4000 6.7000
v 1634.2000 0.0000 9.8000
v 1634.2000 0.0000 6.7000
v 1634.2000 3.4000 6.7000
v 1634.2000 3.4000 9.8000
v 1636.9500 0.0000 6.7000
v 1636.9500 0.0000 9.8000
v 1640.0500 0.0000 9.8000
v 1640.0500 0.0000 6.7000
v 1636.9500 3.4000 6.7000
v 1640.0500 3.4000 6.7000
v 1640.0500 3.4000 9.8000
v 1636.9500 3.4000 9.8000
v 1636.9500 0.0000 6.7000
v 1640.0500 0.0000 6.7000
v 1640.0500 3.4000 6.7000
v 1636.9500 3.4000 6.7000
v 1640.0500 0.0000 9.8000
v 1636.9500 0.0000 9.8000
v 1636.9500 3.4000 9.8000
v 1640.0500 3.4000 9.8000
v 1640.0500 0.0000 6.7000
v 1640.0500 0.0000 9.8000
v 1640.0500 3.4000 9.8000
v 1640.0500 3.4000 6.7000
v 1636.9500 0.0000 9.8000
v 1636.9500 0.0000 6.7000
v 1636.9500 3.4000 6.7000
v 1636.9500 3.4000 9.8000
v 1623.2000 0.0000 12.2000
v 1626.3000 0.0000 12.2000
v 1626.3000 0.0000 15.3000
v 1623.2000 0.0000 15.3000
v 1623.2000 3.4000 12.2000
v 1626.3000 3.4000 12.2000
v 1626.3000 3.4000 15.3000
v 1623.2000 3.4000 15.3000
v 1625.9500 0.0000 12.2000
v 1629.0500 0.0000 12.2000
v 1629.0500 0.0000 15.3000
v 1625.9500 0.0000 15.3000
v 1625.9500 3.4000 12.2000
v 1629.0500 3.4000 12.2000
v 1629.0500 3.4000 15.3000
v 1625.9500 3.4000 15.3000
v 1628.7000 0.0000 12.2000
v 1628.7000 0.0000 15.3000
v 1631.8000 0.0000 15.3000
v 1631.8000 0.0000 12.2000
v 1628.7000 3.4000 12.2000
v 1631.8000 3.4000 12.2000
v 1631.8000 3.4000 15.3000
v 1628.7000 3.4000 15.3000
v 1628.7000 0.0000 12.2000
v 1631.8000 0.0000 12.2000
v 1631.8000 3.4000 12.2000
v 1628.7000 3.4000 12.2000
v 1631.8000 0.0000 15.3000
v 1628.7000 0.0000 15.3000
v 1628.7000 3.4000 15.3000
v 1631.8000 3.4000 15.3000
v 1631.8000 0.0000 12.2000
v 1631.8000 0.0000 15.3000
v 1631.8000 3.4000 15.3000
v 1631.8000 3.4000 12.2000
v 1628.7000 0.0000 15.3000
v 1628.7000 0.0000 12.2000
v 1628.7000 3.4000 12.2000
v 1628.7000 3.4000 15.3000
v 1631.4500 0.0000 12.2000
v 1631.4500 0.0000 15.3000
v 1634.5500 0.0000 15.3000
v 1634.5500 0.0000 12.2000
v 1631.4500 3.4000 12.2000
v 1634.5500 3.4000 12.2000
v 1634.5500 3.4000 15.3000
v 1631.4500 3.4000 15.3000
v 1631.4500 0.0000 12.2000
v 1634.5500 0.0000 12.2000
v 1634.5500 3.4000 12.2000
v 1631.4500 3.4000 12.2000
v 1634.5500 0.0000 15.3000
v 1631.4500 0.0000 15.3000
v 1631.4500 3.4000 15.3000
v 1634.5500 3.4000 15.3000
v 1634.5500 0.0000 12.2000
v 1634.5500 0.0000 15.3000
v 1634.5500 3.4000 15.3000
v 1634.5500 3.4000 12.2000
v 1631.4500 0.0000 15.3000
v 1631.4500 0.0000 12.2000
v 1631.4500 3.4000 12.2000
v 1631.4500 3.4000 15.3000
v 1634.2000 0.0000 12.2000
v 1637.3000 0.0000 12.2000
v 1637.3000 0.0000 15.3000
v 1634.2000 0.0000 15.3000
v 1634.2000 3.4000 12.2000
v 1637.3000 3.4000 12.2000
v 1637.3000 3.4000 15.3000
v 1634.2000 3.4000 15.3000
v 1623.2000 0.0000 17.7000
v 1623.2000 0.0000 20.8000
v 1626.3000 0.0000 20.8000
v 1626.3000 0.0000 17.7000
v 1623.2000 3.4000 17.7000
v 1626.3000 3.4000 17.7000
v 1626.3000 3.4000 20.8000
v 1623.2000 3.4000 20.8000
v 1623.2000 0.0000 17.7000
v 1626.3000 0.0000 17.7000
v 1626.3000 3.4000 17.7000
v 1623.2000 3.4000 17.7000
v 1626.3000 0.0000 20.8000
v 1623.2000 0.0000 20.8000
v 1623.2000 3.4000 20.8000
v 1626.3000 3.4000 20.8000
v 1626.3000 0.0000 17.7000
v 1626.3000 0.0000 20.8000
v 1626.3000 3.4000 20.8000
v 1626.3000 3.4000 17.7000
v 1623.2000 0.0000 20.8000
v 1623.2000 0.0000 17.7000
v 1623.2000 3.4000 17.7000
v 1623.2000 3.4000 20.8000
v 1628.7000 0.0000 17.7000
v 1628.7000 0.0000 20.8000
v 1631.8000 0.0000 20.8000
v 1631.8000 0.0000 17.7000
v 1628.7000 3.4000 17.7000
v 1631.8000 3.4000 17.7000
v 1631.8000 3.4000 20.8000
v 1628.7000 3.4000 20.8000
v 1628.7000 0.0000 17.7000
v 1631.8000 0.0000 17.7000
v 1631.8000 3.4000 17.7000
v 1628.7000 3.4000 17.7000
v 1631.8000 0.0000 20.8000
v 1628.7000 0.0000 20.8000
v 1628.7000 3.4000 20.8000
v 1631.8000 3.4000 20.8000
v 1631.8000 0.0000 17.7000
v 1631.8000 0.0000 20.8000
v 1631.8000 3.4000 20.8000
v 1631.8000 3.4000 17.7000
v 1628.7000 0.0000 20.8000
v 1628.7000 0.0000 17.7000
v 1628.7000 3.4000 17.7000
v 1628.7000 3.4000 20.8000
v 1631.4500 0.0000 17.7000
v 1631.4500 0.0000 20.8000
v 1634.5500 0.0000 20.8000
v 1634.5500 0.0000 17.7000
v 1631.4500 3.4000 17.7000
v 1634.5500 3.4000 17.7000
v 1634.5500 3.4000 20.8000
v 1631.4500 3.4000 20.8000
v 1631.4500 0.0000 17.7000
v 1634.5500 0.0000 17.7000
v 1634.5500 3.4000 17.7000
v 1631.4500 3.4000 17.7000
v 1634.5500 0.0000 20.8000
v 1631.4500 0.0000 20.8000
v 1631.4500 3.4000 20.8000
v 1634.5500 3.4000 20.8000
v 1634.5500 0.0000 17.7000
v 1634.5500 0.0000 20.8000
v 1634.5500 3.4000 20.8000
v 1634.5500 3.4000 17.7000
v 1631.4500 0.0000 20.8000
v 1631.4500 0.0000 17.7000
v 1631.4500 3.4000 17.7000
v 1631.4500 3.4000 20.8000
v 1634.2000 0.0000 17.7000
v 1634.2000 0.0000 20.8000
v 1637.3000 0.0000 20.8000
v 1637.3000 0.0000 17.7000
v 1634.2000 3.4000 17.7000
v 1637.3000 3.4000 17.7000
v 1637.3000 3.4000 20.8000
v 1634.2000 3.4000 20.8000
v 1634.2000 0.0000 17.7000
v 1637.3000 0.0000 17.7000
v 1637.3000 3.4000 17.7000
v 1634.2000 3.4000 17.7000
v 1637.3000 0.0000 20.8000
v 1634.2000 0.0000 20.8000
v 1634.2000 3.4000 20.8000
v 1637.3000 3.4000 20.8000
v 1637.3000 0.0000 17.7000
v 1637.3000 0.0000 20.8000
v 1637.3000 3.4000 20.8000
v 1637.3000 3.4000 17.7000
v 1634.2000 0.0000 20.8000
v 1634.2000 0.0000 17.7000
v 1634.2000 3.4000 17.7000
v 1634.2000 3.4000 20.8000
v 1623.2000 0.0000 20.4500
v 1623.2000 0.0000 23.5500
v 1626.3000 0.0000 23.5500
v 1626.3000 0.0000 20.4500
v 1623.2000 3.4000 20.4500
v 1626.3000 3.4000 20.4500
v 1626.3000 3.4000 23.5500
v 1623.2000 3.4000 23.5500
v 1623.2000 0.0000 20.4500
v 1626.3000 0.0000 20.4500
v 1626.3000 3.4000 20.4500
v 1623.2000 3.4000 20.4500
v 1626.3000 0.0000 23.5500
v 1623.2000 0.0000 23.5500
v 1623.2000 3.4000 23.5500
v 1626.3000 3.4000 23.5500
v 1626.3000 0.0000 20.4500
v 1626.3000 0.0000 23.5500
v 1626.3000 3.4000 23.5500
v 1626.3000 3.4000 20.4500
v 1623.2000 0.0000 23.5500
v 1623.2000 0.0000 20.4500
v 1623.2000 3.4000 20.4500
v 1623.2000 3.4000 23.5500
v 1628.7000 0.0000 20.4500
v 1628.7000 0.0000 23.5500
v 1631.8000 0.0000 23.5500
v 1631.8000 0.0000 20.4500
v 1628.7000 3.4000 20.4500
v 1631.8000 3.4000 20.4500
v 1631.8000 3.4000 23.5500
v 1628.7000 3.4000 23.5500
v 1628.7000 0.0000 20.4500
v 1631.8000 0.0000 20.4500
v 1631.8000 3.4000 20.4500
v 1628.7000 3.4000 20.4500
v 1631.8000 0.0000 23.5500
v 1628.7000 0.0000 23.5500
v 1628.7000 3.4000 23.5500
v 1631.8000 3.4000 23.5500
v 1631.8000 0.0000 20.4500
v 1631.8000 0.0000 23.5500
v 1631.8000 3.4000 23.5500
v 1631.8000 3.4000 20.4500
v 1628.7000 0.0000 23.5500
v 1628.7000 0.0000 20.4500
v 1628.7000 3.4000 20.4500
v 1628.7000 3.4000 23.5500
v 1627.3700 1.9000 -5.5800
v 1627.6300 1.9000 -5.5800
v 1627.6300 1.9000 -5.4200
v 1627.3700 1.9000 -5.4200
v 1627.3700 2.2000 -5.5800
v 1627.6300 2.2000 -5.5800
v 1627.6300 2.2000 -5.4200
v 1627.3700 2.2000 -5.4200
v 1627.3300 2.2100 -5.6100
v 1627.6700 2.2100 -5.6100
v 1627.6700 2.2100 -5.3900
v 1627.3300 2.2100 -5.3900
v 1627.3300 2.2700 -5.6100
v 1627.6700 2.2700 -5.6100
v 1627.6700 2.2700 -5.3900
v 1627.3300 2.2700 -5.3900
v 1627.3700 1.9000 -0.0800
v 1627.6300 1.9000 -0.0800
v 1627.6300 1.9000 0.0800
v 1627.3700 1.9000 0.0800
v 1627.3700 2.2000 -0.0800
v 1627.6300 2.2000 -0.0800
v 1627.6300 2.2000 0.0800
v 1627.3700 2.2000 0.0800
v 1627.3300 2.2100 -0.1100
v 1627.6700 2.2100 -0.1100
v 1627.6700 2.2100 0.1100
v 1627.3300 2.2100 0.1100
v 1627.3300 2.2700 -0.1100
v 1627.6700 2.2700 -0.1100
v 1627.6700 2.2700 0.1100
v 1627.3300 2.2700 0.1100
v 1638.3700 1.9000 5.4200
v 1638.6300 1.9000 5.4200
v 1638.6300 1.9000 5.5800
v 1638.3700 1.9000 5.5800
v 1638.3700 2.2000 5.4200
v 1638.6300 2.2000 5.4200
v 1638.6300 2.2000 5.5800
v 1638.3700 2.2000 5.5800
v 1638.3300 2.2100 5.3900
v 1638.6700 2.2100 5.3900
v 1638.6700 2.2100 5.6100
v 1638.3300 2.2100 5.6100
v 1638.3300 2.2700 5.3900
v 1638.6700 2.2700 5.3900
v 1638.6700 2.2700 5.6100
v 1638.3300 2.2700 5.6100
v 1627.3700 1.9000 10.9200
v 1627.6300 1.9000 10.9200
v 1627.6300 1.9000 11.0800
v 1627.3700 1.9000 11.0800
v 1627.3700 2.2000 10.9200
v 1627.6300 2.2000 10.9200
v 1627.6300 2.2000 11.0800
v 1627.3700 2.2000 11.0800
v 1627.3300 2.2100 10.8900
v 1627.6700 2.2100 10.8900
v 1627.6700 2.2100 11.1100
v 1627.3300 2.2100 11.1100
v 1627.3300 2.2700 10.8900
v 1627.6700 2.2700 10.8900
v 1627.6700 2.2700 11.1100
v 1627.3300 2.2700 11.1100
v 1627.3700 1.9000 16.4200
v 1627.6300 1.9000 16.4200
v 1627.6300 1.9000 16.5800
v 1627.3700 1.9000 16.5800
v 1627.3700 2.2000 16.4200
v 1627.6300 2.2000 16.4200
v 1627.6300 2.2000 16.5800
v 1627.3700 2.2000 16.5800
v 1627.3300 2.2100 16.3900
v 1627.6700 2.2100 16.3900
v 1627.6700 2.2100 16.6100
v 1627.3300 2.2100 16.6100
v 1627.3300 2.2700 16.3900
v 1627.6700 2.2700 16.3900
v 1627.6700 2.2700 16.6100
v 1627.3300 2.2700 16.6100
v 1632.8700 1.9000 16.4200
v 1633.1300 1.9000 16.4200
v 1633.1300 1.9000 16.5800
v 1632.8700 1.9000 16.5800
v 1632.8700 2.2000 16.4200
v 1633.1300 2.2000 16.4200
v 1633.1300 2.2000 16.5800
v 1632.8700 2.2000 16.5800
v 1632.8300 2.2100 16.3900
v 1633.1700 2.2100 16.3900
v 1633.1700 2.2100 16.6100
v 1632.8300 2.2100 16.6100
v 1632.8300 2.2700 16.3900
v 1633.1700 2.2700 16.3900
v 1633.1700 2.2700 16.6100
v 1632.8300 2.2700 16.6100
v 1638.3700 1.9000 16.4200
v 1638.6300 1.9000 16.4200
v 1638.6300 1.9000 16.5800
v 1638.3700 1.9000 16.5800
v 1638.3700 2.2000 16.4200
v 1638.6300 2.2000 16.4200
v 1638.6300 2.2000 16.5800
v 1638.3700 2.2000 16.5800
v 1638.3300 2.2100 16.3900
v 1638.6700 2.2100 16.3900
v 1638.6700 2.2100 16.6100
v 1638.3300 2.2100 16.6100
v 1638.3300 2.2700 16.3900
v 1638.6700 2.2700 16.3900
v 1638.6700 2.2700 16.6100
v 1638.3300 2.2700 16.6100
v 1626.2700 0.0050 -8.7250
v 1626.3300 0.0050 -8.7250
v 1626.3300 0.0050 -7.7750
v 1626.2700 0.0050 -7.7750
v 1626.2700 2.0550 -8.7250
v 1626.3300 2.0550 -8.7250
v 1626.3300 2.0550 -7.7750
v 1626.2700 2.0550 -7.7750
v 1626.3050 0.9450 -7.7580
v 1626.3750 0.9450 -7.7580
v 1626.3750 0.9450 -7.6880
v 1626.3050 0.9450 -7.6880
v 1626.3050 1.0150 -7.7580
v 1626.3750 1.0150 -7.7580
v 1626.3750 1.0150 -7.6880
v 1626.3050 1.0150 -7.6880
v 1639.6700 0.0050 -8.7250
v 1639.7300 0.0050 -8.7250
v 1639.7300 0.0050 -7.7750
v 1639.6700 0.0050 -7.7750
v 1639.6700 2.0550 -8.7250
v 1639.7300 2.0550 -8.7250
v 1639.7300 2.0550 -7.7750
v 1639.6700 2.0550 -7.7750
v 1639.6250 0.9450 -8.8120
v 1639.6950 0.9450 -8.8120
v 1639.6950 0.9450 -8.7420
v 1639.6250 0.9450 -8.7420
v 1639.6250 1.0150 -8.8120
v 1639.6950 1.0150 -8.8120
v 1639.6950 1.0150 -8.7420
v 1639.6250 1.0150 -8.7420
v 1626.2700 0.0050 -3.2250
v 1626.3300 0.0050 -3.2250
v 1626.3300 0.0050 -2.2750
v 1626.2700 0.0050 -2.2750
v 1626.2700 2.0550 -3.2250
v 1626.3300 2.0550 -3.2250
v 1626.3300 2.0550 -2.2750
v 1626.2700 2.0550 -2.2750
v 1626.3050 0.9450 -2.2580
v 1626.3750 0.9450 -2.2580
v 1626.3750 0.9450 -2.1880
v 1626.3050 0.9450 -2.1880
v 1626.3050 1.0150 -2.2580
v 1626.3750 1.0150 -2.2580
v 1626.3750 1.0150 -2.1880
v 1626.3050 1.0150 -2.1880
v 1635.2750 0.0050 -4.3300
v 1636.2250 0.0050 -4.3300
v 1636.2250 0.0050 -4.2700
v 1635.2750 0.0050 -4.2700
v 1635.2750 2.0550 -4.3300
v 1636.2250 2.0550 -4.3300
v 1636.2250 2.0550 -4.2700
v 1635.2750 2.0550 -4.2700
v 1636.2420 0.9450 -4.3750
v 1636.3120 0.9450 -4.3750
v 1636.3120 0.9450 -4.3050
v 1636.2420 0.9450 -4.3050
v 1636.2420 1.0150 -4.3750
v 1636.3120 1.0150 -4.3750
v 1636.3120 1.0150 -4.3050
v 1636.2420 1.0150 -4.3050
v 1639.6700 0.0050 -0.4750
v 1639.7300 0.0050 -0.4750
v 1639.7300 0.0050 0.4750
v 1639.6700 0.0050 0.4750
v 1639.6700 2.0550 -0.4750
v 1639.7300 2.0550 -0.4750
v 1639.7300 2.0550 0.4750
v 1639.6700 2.0550 0.4750
v 1639.6250 0.9450 -0.5620
v 1639.6950 0.9450 -0.5620
v 1639.6950 0.9450 -0.4920
v 1639.6250 0.9450 -0.4920
v 1639.6250 1.0150 -0.5620
v 1639.6950 1.0150 -0.5620
v 1639.6950 1.0150 -0.4920
v 1639.6250 1.0150 -0.4920
v 1624.2750 0.0050 1.1700
v 1625.2250 0.0050 1.1700
v 1625.2250 0.0050 1.2300
v 1624.2750 0.0050 1.2300
v 1624.2750 2.0550 1.1700
v 1625.2250 2.0550 1.1700
v 1625.2250 2.0550 1.2300
v 1624.2750 2.0550 1.2300
v 1625.2420 0.9450 1.1250
v 1625.3120 0.9450 1.1250
v 1625.3120 0.9450 1.1950
v 1625.2420 0.9450 1.1950
v 1625.2420 1.0150 1.1250
v 1625.3120 1.0150 1.1250
v 1625.3120 1.0150 1.1950
v 1625.2420 1.0150 1.1950
v 1627.0250 0.0050 1.1700
v 1627.9750 0.0050 1.1700
v 1627.9750 0.0050 1.2300
v 1627.0250 0.0050 1.2300
v 1627.0250 2.0550 1.1700
v 1627.9750 2.0550 1.1700
v 1627.9750 2.0550 1.2300
v 1627.0250 2.0550 1.2300
v 1627.9920 0.9450 1.1250
v 1628.0620 0.9450 1.1250
v 1628.0620 0.9450 1.1950
v 1627.9920 0.9450 1.1950
v 1627.9920 1.0150 1.1250
v 1628.0620 1.0150 1.1250
v 1628.0620 1.0150 1.1950
v 1627.9920 1.0150 1.1950
v 1629.7750 0.0050 4.2700
v 1630.7250 0.0050 4.2700
v 1630.7250 0.0050 4.3300
v 1629.7750 0.0050 4.3300
v 1629.7750 2.0550 4.2700
v 1630.7250 2.0550 4.2700
v 1630.7250 2.0550 4.3300
v 1629.7750 2.0550 4.3300
v 1629.6880 0.9450 4.3050
v 1629.7580 0.9450 4.3050
v 1629.7580 0.9450 4.3750
v 1629.6880 0.9450 4.3750
v 1629.6880 1.0150 4.3050
v 1629.7580 1.0150 4.3050
v 1629.7580 1.0150 4.3750
v 1629.6880 1.0150 4.3750
v 1639.6700 0.0050 2.2750
v 1639.7300 0.0050 2.2750
v 1639.7300 0.0050 3.2250
v 1639.6700 0.0050 3.2250
v 1639.6700 2.0550 2.2750
v 1639.7300 2.0550 2.2750
v 1639.7300 2.0550 3.2250
v 1639.6700 2.0550 3.2250
v 1639.6250 0.9450 2.1880
v 1639.6950 0.9450 2.1880
v 1639.6950 0.9450 2.2580
v 1639.6250 0.9450 2.2580
v 1639.6250 1.0150 2.1880
v 1639.6950 1.0150 2.1880
v 1639.6950 1.0150 2.2580
v 1639.6250 1.0150 2.2580
v 1632.5250 0.0050 6.6700
v 1633.4750 0.0050 6.6700
v 1633.4750 0.0050 6.7300
v 1632.5250 0.0050 6.7300
v 1632.5250 2.0550 6.6700
v 1633.4750 2.0550 6.6700
v 1633.4750 2.0550 6.7300
v 1632.5250 2.0550 6.7300
v 1633.4920 0.9450 6.6250
v 1633.5620 0.9450 6.6250
v 1633.5620 0.9450 6.6950
v 1633.4920 0.9450 6.6950
v 1633.4920 1.0150 6.6250
v 1633.5620 1.0150 6.6250
v 1633.5620 1.0150 6.6950
v 1633.4920 1.0150 6.6950
v 1635.2750 0.0050 9.7700
v 1636.2250 0.0050 9.7700
v 1636.2250 0.0050 9.8300
v 1635.2750 0.0050 9.8300
v 1635.2750 2.0550 9.7700
v 1636.2250 2.0550 9.7700
v 1636.2250 2.0550 9.8300
v 1635.2750 2.0550 9.8300
v 1635.1880 0.9450 9.8050
v 1635.2580 0.9450 9.8050
v 1635.2580 0.9450 9.8750
v 1635.1880 0.9450 9.8750
v 1635.1880 1.0150 9.8050
v 1635.2580 1.0150 9.8050
v 1635.2580 1.0150 9.8750
v 1635.1880 1.0150 9.8750
v 1632.5250 0.0050 15.2700
v 1633.4750 0.0050 15.2700
v 1633.4750 0.0050 15.3300
v 1632.5250 0.0050 15.3300
v 1632.5250 2.0550 15.2700
v 1633.4750 2.0550 15.2700
v 1633.4750 2.0550 15.3300
v 1632.5250 2.0550 15.3300
v 1632.4380 0.9450 15.3050
v 1632.5080 0.9450 15.3050
v 1632.5080 0.9450 15.3750
v 1632.4380 0.9450 15.3750
v 1632.4380 1.0150 15.3050
v 1632.5080 1.0150 15.3050
v 1632.5080 1.0150 15.3750
v 1632.4380 1.0150 15.3750
v 1635.2750 0.0050 12.1700
v 1636.2250 0.0050 12.1700
v 1636.2250 0.0050 12.2300
v 1635.2750 0.0050 12.2300
v 1635.2750 2.0550 12.1700
v 1636.2250 2.0550 12.1700
v 1636.2250 2.0550 12.2300
v 1635.2750 2.0550 12.2300
v 1636.2420 0.9450 12.1250
v 1636.3120 0.9450 12.1250
v 1636.3120 0.9450 12.1950
v 1636.2420 0.9450 12.1950
v 1636.2420 1.0150 12.1250
v 1636.3120 1.0150 12.1250
v 1636.3120 1.0150 12.1950
v 1636.2420 1.0150 12.1950
v 1639.6700 0.0050 13.2750
v 1639.7300 0.0050 13.2750
v 1639.7300 0.0050 14.2250
v 1639.6700 0.0050 14.2250
v 1639.6700 2.0550 13.2750
v 1639.7300 2.0550 13.2750
v 1639.7300 2.0550 14.2250
v 1639.6700 2.0550 14.2250
v 1639.6250 0.9450 13.1880
v 1639.6950 0.9450 13.1880
v 1639.6950 0.9450 13.2580
v 1639.6250 0.9450 13.2580
v 1639.6250 1.0150 13.1880
v 1639.6950 1.0150 13.1880
v 1639.6950 1.0150 13.2580
v 1639.6250 1.0150 13.2580
v 1623.1700 0.0050 18.7750
v 1623.2300 0.0050 18.7750
v 1623.2300 0.0050 19.7250
v 1623.1700 0.0050 19.7250
v 1623.1700 2.0550 18.7750
v 1623.2300 2.0550 18.7750
v 1623.2300 2.0550 19.7250
v 1623.1700 2.0550 19.7250
v 1623.1250 0.9450 18.6880
v 1623.1950 0.9450 18.6880
v 1623.1950 0.9450 18.7580
v 1623.1250 0.9450 18.7580
v 1623.1250 1.0150 18.6880
v 1623.1950 1.0150 18.6880
v 1623.1950 1.0150 18.7580
v 1623.1250 1.0150 18.7580
v 1632.5250 0.0050 20.7700
v 1633.4750 0.0050 20.7700
v 1633.4750 0.0050 20.8300
v 1632.5250 0.0050 20.8300
v 1632.5250 2.0550 20.7700
v 1633.4750 2.0550 20.7700
v 1633.4750 2.0550 20.8300
v 1632.5250 2.0550 20.8300
v 1632.4380 0.9450 20.8050
v 1632.5080 0.9450 20.8050
v 1632.5080 0.9450 20.8750
v 1632.4380 0.9450 20.8750
v 1632.4380 1.0150 20.8050
v 1632.5080 1.0150 20.8050
v 1632.5080 1.0150 20.8750
v 1632.4380 1.0150 20.8750
vt 1014.5000 -6.1250
vt 1014.5000 -4.1875
vt 1016.4375 -4.1875
vt 1016.4375 -6.1250
vt 1014.5000 -6.1250
vt 1016.4375 -6.1250
vt 1016.4375 -4.1875
vt 1014.5000 -4.1875
vt 1014.5000 0.0000
vt 1016.4375 0.0000
vt 1016.4375 2.1250
vt 1014.5000 2.1250
vt 1016.4375 0.0000
vt 1014.5000 0.0000
vt 1014.5000 2.1250
vt 1016.4375 2.1250
vt -6.1250 0.0000
vt -4.1875 0.0000
vt -4.1875 2.1250
vt -6.1250 2.1250
vt -4.1875 0.0000
vt -6.1250 0.0000
vt -6.1250 2.1250
vt -4.1875 2.1250
vt 1021.3750 -6.1250
vt 1021.3750 -4.1875
vt 1023.3125 -4.1875
vt 1023.3125 -6.1250
vt 1021.3750 -6.1250
vt 1023.3125 -6.1250
vt 1023.3125 -4.1875
vt 1021.3750 -4.1875
vt 1021.3750 0.0000
vt 1023.3125 0.0000
vt 1023.3125 2.1250
vt 1021.3750 2.1250
vt 1023.3125 0.0000
vt 1021.3750 0.0000
vt 1021.3750 2.1250
vt 1023.3125 2.1250
vt -6.1250 0.0000
vt -4.1875 0.0000
vt -4.1875 2.1250
vt -6.1250 2.1250
vt -4.1875 0.0000
vt -6.1250 0.0000
vt -6.1250 2.1250
vt -4.1875 2.1250
vt 1014.5000 -4.4062
vt 1014.5000 -2.4688
vt 1016.4375 -2.4688
vt 1016.4375 -4.4062
vt 1014.5000 -4.4062
vt 1016.4375 -4.4062
vt 1016.4375 -2.4688
vt 1014.5000 -2.4688
vt 1014.5000 0.0000
vt 1016.4375 0.0000
vt 1016.4375 2.1250
vt 1014.5000 2.1250
vt 1016.4375 0.0000
vt 1014.5000 0.0000
vt 1014.5000 2.1250
vt 1016.4375 2.1250
vt -4.4062 0.0000
vt -2.4688 0.0000
vt -2.4688 2.1250
vt -4.4062 2.1250
vt -2.4688 0.0000
vt -4.4062 0.0000
vt -4.4062 2.1250
vt -2.4688 2.1250
vt 1014.5000 -2.6875
vt 1014.5000 -0.7500
vt 1016.4375 -0.7500
vt 1016.4375 -2.6875
vt 1014.5000 -2.6875
vt 1016.4375 -2.6875
vt 1016.4375 -0.7500
vt 1014.5000 -0.7500
vt 1014.5000 0.0000
vt 1016.4375 0.0000
vt 1016.4375 2.1250
vt 1014.5000 2.1250
vt 1016.4375 0.0000
vt 1014.5000 0.0000
vt 1014.5000 2.1250
vt 1016.4375 2.1250
vt -2.6875 0.0000
vt -0.7500 0.0000
vt -0.7500 2.1250
vt -2.6875 2.1250
vt -0.7500 0.0000
vt -2.6875 0.0000
vt -2.6875 2.1250
vt -0.7500 2.1250
vt 1017.9375 -2.6875
vt 1017.9375 -0.7500
vt 1019.8750 -0.7500
vt 1019.8750 -2.6875
vt 1017.9375 -2.6875
vt 1019.8750 -2.6875
vt 1019.8750 -0.7500
vt 1017.9375 -0.7500
vt 1017.9375 0.0000
vt 1019.8750 0.0000
vt 1019.8750 2.1250
vt 1017.9375 2.1250
vt 1019.8750 0.0000
vt 1017.9375 0.0000
vt 1017.9375 2.1250
vt 1019.8750 2.1250
vt -2.6875 0.0000
vt -0.7500 0.0000
vt -0.7500 2.1250
vt -2.6875 2.1250
vt -0.7500 0.0000
vt -2.6875 0.0000
vt -2.6875 2.1250
vt -0.7500 2.1250
vt 1021.3750 -2.6875
vt 1021.3750 -0.7500
vt 1023.3125 -0.7500
vt 1023.3125 -2.6875
vt 1021.3750 -2.6875
vt 1023.3125 -2.6875
vt 1023.3125 -0.7500
vt 1021.3750 -0.7500
vt 1021.3750 0.0000
vt 1023.3125 0.0000
vt 1023.3125 2.1250
vt 1021.3750 2.1250
vt 1023.3125 0.0000
vt 1021.3750 0.0000
vt 1021.3750 2.1250
vt 1023.3125 2.1250
vt -2.6875 0.0000
vt -0.7500 0.0000
vt -0.7500 2.1250
vt -2.6875 2.1250
vt -0.7500 0.0000
vt -2.6875 0.0000
vt -2.6875 2.1250
vt -0.7500 2.1250
vt 1023.0938 -2.6875
vt 1023.0938 -0.7500
vt 1025.0312 -0.7500
vt 1025.0312 -2.6875
vt 1023.0938 -2.6875
vt 1025.0312 -2.6875
vt 1025.0312 -0.7500
vt 1023.0938 -0.7500
vt 1023.0938 0.0000
vt 1025.0312 0.0000
vt 1025.0312 2.1250
vt 1023.0938 2.1250
vt 1025.0312 0.0000
vt 1023.0938 0.0000
vt 1023.0938 2.1250
vt 1025.0312 2.1250
vt -2.6875 0.0000
vt -0.7500 0.0000
vt -0.7500 2.1250
vt -2.6875 2.1250
vt -0.7500 0.0000
vt -2.6875 0.0000
vt -2.6875 2.1250
vt -0.7500 2.1250
vt 1017.9375 -0.9688
vt 1017.9375 0.9688
vt 1019.8750 0.9688
vt 1019.8750 -0.9688
vt 1017.9375 -0.9688
vt 1019.8750 -0.9688
vt 1019.8750 0.9688
vt 1017.9375 0.9688
vt 1017.9375 0.0000
vt 1019.8750 0.0000
vt 1019.8750 2.1250
vt 1017.9375 2.1250
vt 1019.8750 0.0000
vt 1017.9375 0.0000
vt 1017.9375 2.1250
vt 1019.8750 2.1250
vt -0.9688 0.0000
vt 0.9688 0.0000
vt 0.9688 2.1250
vt -0.9688 2.1250
vt 0.9688 0.0000
vt -0.9688 0.0000
vt -0.9688 2.1250
vt 0.9688 2.1250
vt 1014.5000 0.7500
vt 1014.5000 2.6875
vt 1016.4375 2.6875
vt 1016.4375 0.7500
vt 1014.5000 0.7500
vt 1016.4375 0.7500
vt 1016.4375 2.6875
vt 1014.5000 2.6875
vt 1014.5000 0.0000
vt 1016.4375 0.0000
vt 1016.4375 2.1250
vt 1014.5000 2.1250
vt 1016.4375 0.0000
vt 1014.5000 0.0000
vt 1014.5000 2.1250
vt 1016.4375 2.1250
vt 0.7500 0.0000
vt 2.6875 0.0000
vt 2.6875 2.1250
vt 0.7500 2.1250
vt 2.6875 0.0000
vt 0.7500 0.0000
vt 0.7500 2.1250
vt 2.6875 2.1250
vt 1016.2188 0.7500
vt 1016.2188 2.6875
vt 1018.1562 2.6875
vt 1018.1562 0.7500
vt 1016.2188 0.7500
vt 1018.1562 0.7500
vt 1018.1562 2.6875
vt 1016.2188 2.6875
vt 1016.2188 0.0000
vt 1018.1562 0.0000
vt 1018.1562 2.1250
vt 1016.2188 2.1250
vt 1018.1562 0.0000
vt 1016.2188 0.0000
vt 1016.2188 2.1250
vt 1018.1562 2.1250
vt 0.7500 0.0000
vt 2.6875 0.0000
vt 2.6875 2.1250
vt 0.7500 2.1250
vt 2.6875 0.0000
vt 0.7500 0.0000
vt 0.7500 2.1250
vt 2.6875 2.1250
vt 1017.9375 0.7500
vt 1017.9375 2.6875
vt 1019.8750 2.6875
vt 1019.8750 0.7500
vt 1017.9375 0.7500
vt 1019.8750 0.7500
vt 1019.8750 2.6875
vt 1017.9375 2.6875
vt 1017.9375 0.0000
vt 1019.8750 0.0000
vt 1019.8750 2.1250
vt 1017.9375 2.1250
vt 1019.8750 0.0000
vt 1017.9375 0.0000
vt 1017.9375 2.1250
vt 1019.8750 2.1250
vt 0.7500 0.0000
vt 2.6875 0.0000
vt 2.6875 2.1250
vt 0.7500 2.1250
vt 2.6875 0.0000
vt 0.7500 0.0000
vt 0.7500 2.1250
vt 2.6875 2.1250
vt 1021.3750 2.4688
vt 1021.3750 4.4062
vt 1023.3125 4.4062
vt 1023.3125 2.4688
vt 1021.3750 2.4688
vt 1023.3125 2.4688
vt 1023.3125 4.4062
vt 1021.3750 4.4062
vt 1021.3750 0.0000
vt 1023.3125 0.0000
vt 1023.3125 2.1250
vt 1021.3750 2.1250
vt 1023.3125 0.0000
vt 1021.3750 0.0000
vt 1021.3750 2.1250
vt 1023.3125 2.1250
vt 2.4688 0.0000
vt 4.4062 0.0000
vt 4.4062 2.1250
vt 2.4688 2.1250
vt 4.4062 0.0000
vt 2.4688 0.0000
vt 2.4688 2.1250
vt 4.4062 2.1250
vt 1017.9375 4.1875
vt 1017.9375 6.1250
vt 1019.8750 6.1250
vt 1019.8750 4.1875
vt 1017.9375 4.1875
vt 1019.8750 4.1875
vt 1019.8750 6.1250
vt 1017.9375 6.1250
vt 1017.9375 0.0000
vt 1019.8750 0.0000
vt 1019.8750 2.1250
vt 1017.9375 2.1250
vt 1019.8750 0.0000
vt 1017.9375 0.0000
vt 1017.9375 2.1250
vt 1019.8750 2.1250
vt 4.1875 0.0000
vt 6.1250 0.0000
vt 6.1250 2.1250
vt 4.1875 2.1250
vt 6.1250 0.0000
vt 4.1875 0.0000
vt 4.1875 2.1250
vt 6.1250 2.1250
vt 1019.6562 4.1875
vt 1019.6562 6.1250
vt 1021.5937 6.1250
vt 1021.5937 4.1875
vt 1019.6562 4.1875
vt 1021.5937 4.1875
vt 1021.5937 6.1250
vt 1019.6562 6.1250
vt 1019.6562 0.0000
vt 1021.5937 0.0000
vt 1021.5937 2.1250
vt 1019.6562 2.1250
vt 1021.5937 0.0000
vt 1019.6562 0.0000
vt 1019.6562 2.1250
vt 1021.5937 2.1250
vt 4.1875 0.0000
vt 6.1250 0.0000
vt 6.1250 2.1250
vt 4.1875 2.1250
vt 6.1250 0.0000
vt 4.1875 0.0000
vt 4.1875 2.1250
vt 6.1250 2.1250
vt 1021.3750 4.1875
vt 1021.3750 6.1250
vt 1023.3125 6.1250
vt 1023.3125 4.1875
vt 1021.3750 4.1875
vt 1023.3125 4.1875
vt 1023.3125 6.1250
vt 1021.3750 6.1250
vt 1021.3750 0.0000
vt 1023.3125 0.0000
vt 1023.3125 2.1250
vt 1021.3750 2.1250
vt 1023.3125 0.0000
vt 1021.3750 0.0000
vt 1021.3750 2.1250
vt 1023.3125 2.1250
vt 4.1875 0.0000
vt 6.1250 0.0000
vt 6.1250 2.1250
vt 4.1875 2.1250
vt 6.1250 0.0000
vt 4.1875 0.0000
vt 4.1875 2.1250
vt 6.1250 2.1250
vt 1023.0938 4.1875
vt 1023.0938 6.1250
vt 1025.0312 6.1250
vt 1025.0312 4.1875
vt 1023.0938 4.1875
vt 1025.0312 4.1875
vt 1025.0312 6.1250
vt 1023.0938 6.1250
vt 1023.0938 0.0000
vt 1025.0312 0.0000
vt 1025.0312 2.1250
vt 1023.0938 2.1250
vt 1025.0312 0.0000
vt 1023.0938 0.0000
vt 1023.0938 2.1250
vt 1025.0312 2.1250
vt 4.1875 0.0000
vt 6.1250 0.0000
vt 6.1250 2.1250
vt 4.1875 2.1250
vt 6.1250 0.0000
vt 4.1875 0.0000
vt 4.1875 2.1250
vt 6.1250 2.1250
vt 1017.9375 7.6250
vt 1017.9375 9.5625
vt 1019.8750 9.5625
vt 1019.8750 7.6250
vt 1017.9375 7.6250
vt 1019.8750 7.6250
vt 1019.8750 9.5625
vt 1017.9375 9.5625
vt 1017.9375 0.0000
vt 1019.8750 0.0000
vt 1019.8750 2.1250
vt 1017.9375 2.1250
vt 1019.8750 0.0000
vt 1017.9375 0.0000
vt 1017.9375 2.1250
vt 1019.8750 2.1250
vt 7.6250 0.0000
vt 9.5625 0.0000
vt 9.5625 2.1250
vt 7.6250 2.1250
vt 9.5625 0.0000
vt 7.6250 0.0000
vt 7.6250 2.1250
vt 9.5625 2.1250
vt 1019.6562 7.6250
vt 1019.6562 9.5625
vt 1021.5937 9.5625
vt 1021.5937 7.6250
vt 1019.6562 7.6250
vt 1021.5937 7.6250
vt 1021.5937 9.5625
vt 1019.6562 9.5625
vt 1019.6562 0.0000
vt 1021.5937 0.0000
vt 1021.5937 2.1250
vt 1019.6562 2.1250
vt 1021.5937 0.0000
vt 1019.6562 0.0000
vt 1019.6562 2.1250
vt 1021.5937 2.1250
vt 7.6250 0.0000
vt 9.5625 0.0000
vt 9.5625 2.1250
vt 7.6250 2.1250
vt 9.5625 0.0000
vt 7.6250 0.0000
vt 7.6250 2.1250
vt 9.5625 2.1250
vt 1014.5000 11.0625
vt 1014.5000 13.0000
vt 1016.4375 13.0000
vt 1016.4375 11.0625
vt 1014.5000 11.0625
vt 1016.4375 11.0625
vt 1016.4375 13.0000
vt 1014.5000 13.0000
vt 1014.5000 0.0000
vt 1016.4375 0.0000
vt 1016.4375 2.1250
vt 1014.5000 2.1250
vt 1016.4375 0.0000
vt 1014.5000 0.0000
vt 1014.5000 2.1250
vt 1016.4375 2.1250
vt 11.0625 0.0000
vt 13.0000 0.0000
vt 13.0000 2.1250
vt 11.0625 2.1250
vt 13.0000 0.0000
vt 11.0625 0.0000
vt 11.0625 2.1250
vt 13.0000 2.1250
vt 1017.9375 11.0625
vt 1017.9375 13.0000
vt 1019.8750 13.0000
vt 1019.8750 11.0625
vt 1017.9375 11.0625
vt 1019.8750 11.0625
vt 1019.8750 13.0000
vt 1017.9375 13.0000
vt 1017.9375 0.0000
vt 1019.8750 0.0000
vt 1019.8750 2.1250
vt 1017.9375 2.1250
vt 1019.8750 0.0000
vt 1017.9375 0.0000
vt 1017.9375 2.1250
vt 1019.8750 2.1250
vt 11.0625 0.0000
vt 13.0000 0.0000
vt 13.0000 2.1250
vt 11.0625 2.1250
vt 13.0000 0.0000
vt 11.0625 0.0000
vt 11.0625 2.1250
vt 13.0000 2.1250
vt 1019.6562 11.0625
vt 1019.6562 13.0000
vt 1021.5937 13.0000
vt 1021.5937 11.0625
vt 1019.6562 11.0625
vt 1021.5937 11.0625
vt 1021.5937 13.0000
vt 1019.6562 13.0000
vt 1019.6562 0.0000
vt 1021.5937 0.0000
vt 1021.5937 2.1250
vt 1019.6562 2.1250
vt 1021.5937 0.0000
vt 1019.6562 0.0000
vt 1019.6562 2.1250
vt 1021.5937 2.1250
vt 11.0625 0.0000
vt 13.0000 0.0000
vt 13.0000 2.1250
vt 11.0625 2.1250
vt 13.0000 0.0000
vt 11.0625 0.0000
vt 11.0625 2.1250
vt 13.0000 2.1250
vt 1021.3750 11.0625
vt 1021.3750 13.0000
vt 1023.3125 13.0000
vt 1023.3125 11.0625
vt 1021.3750 11.0625
vt 1023.3125 11.0625
vt 1023.3125 13.0000
vt 1021.3750 13.0000
vt 1021.3750 0.0000
vt 1023.3125 0.0000
vt 1023.3125 2.1250
vt 1021.3750 2.1250
vt 1023.3125 0.0000
vt 1021.3750 0.0000
vt 1021.3750 2.1250
vt 1023.3125 2.1250
vt 11.0625 0.0000
vt 13.0000 0.0000
vt 13.0000 2.1250
vt 11.0625 2.1250
vt 13.0000 0.0000
vt 11.0625 0.0000
vt 11.0625 2.1250
vt 13.0000 2.1250
vt 1014.5000 12.7812
vt 1014.5000 14.7188
vt 1016.4375 14.7188
vt 1016.4375 12.7812
vt 1014.5000 12.7812
vt 1016.4375 12.7812
vt 1016.4375 14.7188
vt 1014.5000 14.7188
vt 1014.5000 0.0000
vt 1016.4375 0.0000
vt 1016.4375 2.1250
vt 1014.5000 2.1250
vt 1016.4375 0.0000
vt 1014.5000 0.0000
vt 1014.5000 2.1250
vt 1016.4375 2.1250
vt 12.7812 0.0000
vt 14.7188 0.0000
vt 14.7188 2.1250
vt 12.7812 2.1250
vt 14.7188 0.0000
vt 12.7812 0.0000
vt 12.7812 2.1250
vt 14.7188 2.1250
vt 1017.9375 12.7812
vt 1017.9375 14.7188
vt 1019.8750 14.7188
vt 1019.8750 12.7812
vt 1017.9375 12.7812
vt 1019.8750 12.7812
vt 1019.8750 14.7188
vt 1017.9375 14.7188
vt 1017.9375 0.0000
vt 1019.8750 0.0000
vt 1019.8750 2.1250
vt 1017.9375 2.1250
vt 1019.8750 0.0000
vt 1017.9375 0.0000
vt 1017.9375 2.1250
vt 1019.8750 2.1250
vt 12.7812 0.0000
vt 14.7188 0.0000
vt 14.7188 2.1250
vt 12.7812 2.1250
vt 14.7188 0.0000
vt 12.7812 0.0000
vt 12.7812 2.1250
vt 14.7188 2.1250
usemtl hotel_paper_alt
f 265 268 267 266
f 269 270 271 272
f 265 266 270 269
f 267 268 272 271
f 266 267 271 270
f 268 265 269 272
f 393 396 395 394
f 397 398 399 400
f 393 394 398 397
f 395 396 400 399
f 394 395 399 398
f 396 393 397 400
f 401 404 403 402
f 405 406 407 408
f 401 402 406 405
f 403 404 408 407
f 402 403 407 406
f 404 401 405 408
f 457 460 459 458
f 461 462 463 464
f 457 458 462 461
f 459 460 464 463
f 458 459 463 462
f 460 457 461 464
usemtl lamp_warm
f 609 612 611 610
f 613 614 615 616
f 609 610 614 613
f 611 612 616 615
f 610 611 615 614
f 612 609 613 616
usemtl hotel_trim
f 617 620 619 618
f 621 622 623 624
f 617 618 622 621
f 619 620 624 623
f 618 619 623 622
f 620 617 621 624
usemtl lamp_warm
f 625 628 627 626
f 629 630 631 632
f 625 626 630 629
f 627 628 632 631
f 626 627 631 630
f 628 625 629 632
usemtl hotel_trim
f 633 636 635 634
f 637 638 639 640
f 633 634 638 637
f 635 636 640 639
f 634 635 639 638
f 636 633 637 640
usemtl lamp_warm
f 641 644 643 642
f 645 646 647 648
f 641 642 646 645
f 643 644 648 647
f 642 643 647 646
f 644 641 645 648
usemtl hotel_trim
f 649 652 651 650
f 653 654 655 656
f 649 650 654 653
f 651 652 656 655
f 650 651 655 654
f 652 649 653 656
usemtl lamp_warm
f 657 660 659 658
f 661 662 663 664
f 657 658 662 661
f 659 660 664 663
f 658 659 663 662
f 660 657 661 664
usemtl hotel_trim
f 665 668 667 666
f 669 670 671 672
f 665 666 670 669
f 667 668 672 671
f 666 667 671 670
f 668 665 669 672
usemtl lamp_warm
f 673 676 675 674
f 677 678 679 680
f 673 674 678 677
f 675 676 680 679
f 674 675 679 678
f 676 673 677 680
usemtl hotel_trim
f 681 684 683 682
f 685 686 687 688
f 681 682 686 685
f 683 684 688 687
f 682 683 687 686
f 684 681 685 688
usemtl lamp_warm
f 689 692 691 690
f 693 694 695 696
f 689 690 694 693
f 691 692 696 695
f 690 691 695 694
f 692 689 693 696
usemtl hotel_trim
f 697 700 699 698
f 701 702 703 704
f 697 698 702 701
f 699 700 704 703
f 698 699 703 702
f 700 697 701 704
usemtl lamp_warm
f 705 708 707 706
f 709 710 711 712
f 705 706 710 709
f 707 708 712 711
f 706 707 711 710
f 708 705 709 712
usemtl hotel_trim
f 713 716 715 714
f 717 718 719 720
f 713 714 718 717
f 715 716 720 719
f 714 715 719 718
f 716 713 717 720
usemtl door_wood
f 721 724 723 722
f 725 726 727 728
f 721 722 726 725
f 723 724 728 727
f 722 723 727 726
f 724 721 725 728
usemtl door_brass
f 729 732 731 730
f 733 734 735 736
f 729 730 734 733
f 731 732 736 735
f 730 731 735 734
f 732 729 733 736
usemtl door_wood
f 737 740 739 738
f 741 742 743 744
f 737 738 742 741
f 739 740 744 743
f 738 739 743 742
f 740 737 741 744
usemtl door_brass
f 745 748 747 746
f 749 750 751 752
f 745 746 750 749
f 747 748 752 751
f 746 747 751 750
f 748 745 749 752
usemtl door_wood
f 753 756 755 754
f 757 758 759 760
f 753 754 758 757
f 755 756 760 759
f 754 755 759 758
f 756 753 757 760
usemtl door_brass
f 761 764 763 762
f 765 766 767 768
f 761 762 766 765
f 763 764 768 767
f 762 763 767 766
f 764 761 765 768
usemtl door_wood
f 769 772 771 770
f 773 774 775 776
f 769 770 774 773
f 771 772 776 775
f 770 771 775 774
f 772 769 773 776
usemtl door_brass
f 777 780 779 778
f 781 782 783 784
f 777 778 782 781
f 779 780 784 783
f 778 779 783 782
f 780 777 781 784
usemtl door_wood
f 785 788 787 786
f 789 790 791 792
f 785 786 790 789
f 787 788 792 791
f 786 787 791 790
f 788 785 789 792
usemtl door_brass
f 793 796 795 794
f 797 798 799 800
f 793 794 798 797
f 795 796 800 799
f 794 795 799 798
f 796 793 797 800
usemtl door_wood
f 801 804 803 802
f 805 806 807 808
f 801 802 806 805
f 803 804 808 807
f 802 803 807 806
f 804 801 805 808
usemtl door_brass
f 809 812 811 810
f 813 814 815 816
f 809 810 814 813
f 811 812 816 815
f 810 811 815 814
f 812 809 813 816
usemtl door_wood
f 817 820 819 818
f 821 822 823 824
f 817 818 822 821
f 819 820 824 823
f 818 819 823 822
f 820 817 821 824
usemtl door_brass
f 825 828 827 826
f 829 830 831 832
f 825 826 830 829
f 827 828 832 831
f 826 827 831 830
f 828 825 829 832
usemtl door_wood
f 833 836 835 834
f 837 838 839 840
f 833 834 838 837
f 835 836 840 839
f 834 835 839 838
f 836 833 837 840
usemtl door_brass
f 841 844 843 842
f 845 846 847 848
f 841 842 846 845
f 843 844 848 847
f 842 843 847 846
f 844 841 845 848
usemtl door_wood
f 849 852 851 850
f 853 854 855 856
f 849 850 854 853
f 851 852 856 855
f 850 851 855 854
f 852 849 853 856
usemtl door_brass
f 857 860 859 858
f 861 862 863 864
f 857 858 862 861
f 859 860 864 863
f 858 859 863 862
f 860 857 861 864
usemtl door_wood
f 865 868 867 866
f 869 870 871 872
f 865 866 870 869
f 867 868 872 871
f 866 867 871 870
f 868 865 869 872
usemtl door_brass
f 873 876 875 874
f 877 878 879 880
f 873 874 878 877
f 875 876 880 879
f 874 875 879 878
f 876 873 877 880
usemtl door_wood
f 881 884 883 882
f 885 886 887 888
f 881 882 886 885
f 883 884 888 887
f 882 883 887 886
f 884 881 885 888
usemtl door_brass
f 889 892 891 890
f 893 894 895 896
f 889 890 894 893
f 891 892 896 895
f 890 891 895 894
f 892 889 893 896
usemtl door_wood
f 897 900 899 898
f 901 902 903 904
f 897 898 902 901
f 899 900 904 903
f 898 899 903 902
f 900 897 901 904
usemtl door_brass
f 905 908 907 906
f 909 910 911 912
f 905 906 910 909
f 907 908 912 911
f 906 907 911 910
f 908 905 909 912
usemtl door_wood
f 913 916 915 914
f 917 918 919 920
f 913 914 918 917
f 915 916 920 919
f 914 915 919 918
f 916 913 917 920
usemtl door_brass
f 921 924 923 922
f 925 926 927 928
f 921 922 926 925
f 923 924 928 927
f 922 923 927 926
f 924 921 925 928
usemtl door_wood
f 929 932 931 930
f 933 934 935 936
f 929 930 934 933
f 931 932 936 935
f 930 931 935 934
f 932 929 933 936
usemtl door_brass
f 937 940 939 938
f 941 942 943 944
f 937 938 942 941
f 939 940 944 943
f 938 939 943 942
f 940 937 941 944
usemtl door_wood
f 945 948 947 946
f 949 950 951 952
f 945 946 950 949
f 947 948 952 951
f 946 947 951 950
f 948 945 949 952
usemtl door_brass
f 953 956 955 954
f 957 958 959 960
f 953 954 958 957
f 955 956 960 959
f 954 955 959 958
f 956 953 957 960
usemtl door_wood
f 961 964 963 962
f 965 966 967 968
f 961 962 966 965
f 963 964 968 967
f 962 963 967 966
f 964 961 965 968
usemtl door_brass
f 969 972 971 970
f 973 974 975 976
f 969 970 974 973
f 971 972 976 975
f 970 971 975 974
f 972 969 973 976
usemtl hotel_paper
f 1/1 2/2 3/3 4/4
f 5/5 6/6 7/7 8/8
f 9/9 10/10 11/11 12/12
f 13/13 14/14 15/15 16/16
f 17/17 18/18 19/19 20/20
f 21/21 22/22 23/23 24/24
f 25/25 26/26 27/27 28/28
f 29/29 30/30 31/31 32/32
f 33/33 34/34 35/35 36/36
f 37/37 38/38 39/39 40/40
f 41/41 42/42 43/43 44/44
f 45/45 46/46 47/47 48/48
f 49/49 50/50 51/51 52/52
f 53/53 54/54 55/55 56/56
f 57/57 58/58 59/59 60/60
f 61/61 62/62 63/63 64/64
f 65/65 66/66 67/67 68/68
f 69/69 70/70 71/71 72/72
f 73/73 74/74 75/75 76/76
f 77/77 78/78 79/79 80/80
f 81/81 82/82 83/83 84/84
f 85/85 86/86 87/87 88/88
f 89/89 90/90 91/91 92/92
f 93/93 94/94 95/95 96/96
f 97/97 98/98 99/99 100/100
f 101/101 102/102 103/103 104/104
f 105/105 106/106 107/107 108/108
f 109/109 110/110 111/111 112/112
f 113/113 114/114 115/115 116/116
f 117/117 118/118 119/119 120/120
f 121/121 122/122 123/123 124/124
f 125/125 126/126 127/127 128/128
f 129/129 130/130 131/131 132/132
f 133/133 134/134 135/135 136/136
f 137/137 138/138 139/139 140/140
f 141/141 142/142 143/143 144/144
f 145/145 146/146 147/147 148/148
f 149/149 150/150 151/151 152/152
f 153/153 154/154 155/155 156/156
f 157/157 158/158 159/159 160/160
f 161/161 162/162 163/163 164/164
f 165/165 166/166 167/167 168/168
f 169/169 170/170 171/171 172/172
f 173/173 174/174 175/175 176/176
f 177/177 178/178 179/179 180/180
f 181/181 182/182 183/183 184/184
f 185/185 186/186 187/187 188/188
f 189/189 190/190 191/191 192/192
f 193/193 194/194 195/195 196/196
f 197/197 198/198 199/199 200/200
f 201/201 202/202 203/203 204/204
f 205/205 206/206 207/207 208/208
f 209/209 210/210 211/211 212/212
f 213/213 214/214 215/215 216/216
f 217/217 218/218 219/219 220/220
f 221/221 222/222 223/223 224/224
f 225/225 226/226 227/227 228/228
f 229/229 230/230 231/231 232/232
f 233/233 234/234 235/235 236/236
f 237/237 238/238 239/239 240/240
f 241/241 242/242 243/243 244/244
f 245/245 246/246 247/247 248/248
f 249/249 250/250 251/251 252/252
f 253/253 254/254 255/255 256/256
f 257/257 258/258 259/259 260/260
f 261/261 262/262 263/263 264/264
f 273/265 274/266 275/267 276/268
f 277/269 278/270 279/271 280/272
f 281/273 282/274 283/275 284/276
f 285/277 286/278 287/279 288/280
f 289/281 290/282 291/283 292/284
f 293/285 294/286 295/287 296/288
f 297/289 298/290 299/291 300/292
f 301/293 302/294 303/295 304/296
f 305/297 306/298 307/299 308/300
f 309/301 310/302 311/303 312/304
f 313/305 314/306 315/307 316/308
f 317/309 318/310 319/311 320/312
f 321/313 322/314 323/315 324/316
f 325/317 326/318 327/319 328/320
f 329/321 330/322 331/323 332/324
f 333/325 334/326 335/327 336/328
f 337/329 338/330 339/331 340/332
f 341/333 342/334 343/335 344/336
f 345/337 346/338 347/339 348/340
f 349/341 350/342 351/343 352/344
f 353/345 354/346 355/347 356/348
f 357/349 358/350 359/351 360/352
f 361/353 362/354 363/355 364/356
f 365/357 366/358 367/359 368/360
f 369/361 370/362 371/363 372/364
f 373/365 374/366 375/367 376/368
f 377/369 378/370 379/371 380/372
f 381/373 382/374 383/375 384/376
f 385/377 386/378 387/379 388/380
f 389/381 390/382 391/383 392/384
f 409/385 410/386 411/387 412/388
f 413/389 414/390 415/391 416/392
f 417/393 418/394 419/395 420/396
f 421/397 422/398 423/399 424/400
f 425/401 426/402 427/403 428/404
f 429/405 430/406 431/407 432/408
f 433/409 434/410 435/411 436/412
f 437/413 438/414 439/415 440/416
f 441/417 442/418 443/419 444/420
f 445/421 446/422 447/423 448/424
f 449/425 450/426 451/427 452/428
f 453/429 454/430 455/431 456/432
f 465/433 466/434 467/435 468/436
f 469/437 470/438 471/439 472/440
f 473/441 474/442 475/443 476/444
f 477/445 478/446 479/447 480/448
f 481/449 482/450 483/451 484/452
f 485/453 486/454 487/455 488/456
f 489/457 490/458 491/459 492/460
f 493/461 494/462 495/463 496/464
f 497/465 498/466 499/467 500/468
f 501/469 502/470 503/471 504/472
f 505/473 506/474 507/475 508/476
f 509/477 510/478 511/479 512/480
f 513/481 514/482 515/483 516/484
f 517/485 518/486 519/487 520/488
f 521/489 522/490 523/491 524/492
f 525/493 526/494 527/495 528/496
f 529/497 530/498 531/499 532/500
f 533/501 534/502 535/503 536/504
f 537/505 538/506 539/507 540/508
f 541/509 542/510 543/511 544/512
f 545/513 546/514 547/515 548/516
f 549/517 550/518 551/519 552/520
f 553/521 554/522 555/523 556/524
f 557/525 558/526 559/527 560/528
f 561/529 562/530 563/531 564/532
f 565/533 566/534 567/535 568/536
f 569/537 570/538 571/539 572/540
f 573/541 574/542 575/543 576/544
f 577/545 578/546 579/547 580/548
f 581/549 582/550 583/551 584/552
f 585/553 586/554 587/555 588/556
f 589/557 590/558 591/559 592/560
f 593/561 594/562 595/563 596/564
f 597/565 598/566 599/567 600/568
f 601/569 602/570 603/571 604/572
f 605/573 606/574 607/575 608/576
