# RoastEngine Backrooms level
mtllib backrooms.mtl
v 406.0750 0.0000 6.0750
v 406.0750 0.0000 8.9250
v 408.9250 0.0000 8.9250
v 408.9250 0.0000 6.0750
v 406.0750 3.0000 6.0750
v 408.9250 3.0000 6.0750
v 408.9250 3.0000 8.9250
v 406.0750 3.0000 8.9250
v 406.0750 0.0000 6.0750
v 408.9250 0.0000 6.0750
v 408.9250 3.0000 6.0750
v 406.0750 3.0000 6.0750
v 408.9250 0.0000 8.9250
v 406.0750 0.0000 8.9250
v 406.0750 3.0000 8.9250
v 408.9250 3.0000 8.9250
v 408.9250 0.0000 6.0750
v 408.9250 0.0000 8.9250
v 408.9250 3.0000 8.9250
v 408.9250 3.0000 6.0750
v 406.0750 0.0000 8.9250
v 406.0750 0.0000 6.0750
v 406.0750 3.0000 6.0750
v 406.0750 3.0000 8.9250
v 411.0750 0.0000 6.0750
v 411.0750 0.0000 8.9250
v 413.9250 0.0000 8.9250
v 413.9250 0.0000 6.0750
v 411.0750 3.0000 6.0750
v 413.9250 3.0000 6.0750
v 413.9250 3.0000 8.9250
v 411.0750 3.0000 8.9250
v 411.0750 0.0000 6.0750
v 413.9250 0.0000 6.0750
v 413.9250 3.0000 6.0750
v 411.0750 3.0000 6.0750
v 413.9250 0.0000 8.9250
v 411.0750 0.0000 8.9250
v 411.0750 3.0000 8.9250
v 413.9250 3.0000 8.9250
v 413.9250 0.0000 6.0750
v 413.9250 0.0000 8.9250
v 413.9250 3.0000 8.9250
v 413.9250 3.0000 6.0750
v 411.0750 0.0000 8.9250
v 411.0750 0.0000 6.0750
v 411.0750 3.0000 6.0750
v 411.0750 3.0000 8.9250
v 413.5750 0.0000 6.0750
v 413.5750 0.0000 8.9250
v 416.4250 0.0000 8.9250
v 416.4250 0.0000 6.0750
v 413.5750 3.0000 6.0750
v 416.4250 3.0000 6.0750
v 416.4250 3.0000 8.9250
v 413.5750 3.0000 8.9250
v 413.5750 0.0000 6.0750
v 416.4250 0.0000 6.0750
v 416.4250 3.0000 6.0750
v 413.5750 3.0000 6.0750
v 416.4250 0.0000 8.9250
v 413.5750 0.0000 8.9250
v 413.5750 3.0000 8.9250
v 416.4250 3.0000 8.9250
v 416.4250 0.0000 6.0750
v 416.4250 0.0000 8.9250
v 416.4250 3.0000 8.9250
v 416.4250 3.0000 6.0750
v 413.5750 0.0000 8.9250
v 413.5750 0.0000 6.0750
v 413.5750 3.0000 6.0750
v 413.5750 3.0000 8.9250
v 416.0750 0.0000 6.0750
v 418.9250 0.0000 6.0750
v 418.9250 0.0000 8.9250
v 416.0750 0.0000 8.9250
v 416.0750 3.0000 6.0750
v 418.9250 3.0000 6.0750
v 418.9250 3.0000 8.9250
v 416.0750 3.0000 8.9250
v 421.0750 0.0000 6.0750
v 421.0750 0.0000 8.9250
v 423.9250 0.0000 8.9250
v 423.9250 0.0000 6.0750
v 421.0750 3.0000 6.0750
v 423.9250 3.0000 6.0750
v 423.9250 3.0000 8.9250
v 421.0750 3.0000 8.9250
v 421.0750 0.0000 6.0750
v 423.9250 0.0000 6.0750
v 423.9250 3.0000 6.0750
v 421.0750 3.0000 6.0750
v 423.9250 0.0000 8.9250
v 421.0750 0.0000 8.9250
v 421.0750 3.0000 8.9250
v 423.9250 3.0000 8.9250
v 423.9250 0.0000 6.0750
v 423.9250 0.0000 8.9250
v 423.9250 3.0000 8.9250
v 423.9250 3.0000 6.0750
v 421.0750 0.0000 8.9250
v 421.0750 0.0000 6.0750
v 421.0750 3.0000 6.0750
v 421.0750 3.0000 8.9250
v 423.5750 0.0000 6.0750
v 423.5750 0.0000 8.9250
v 426.4250 0.0000 8.9250
v 426.4250 0.0000 6.0750
v 423.5750 3.0000 6.0750
v 426.4250 3.0000 6.0750
v 426.4250 3.0000 8.9250
v 423.5750 3.0000 8.9250
v 423.5750 0.0000 6.0750
v 426.4250 0.0000 6.0750
v 426.4250 3.0000 6.0750
v 423.5750 3.0000 6.0750
v 426.4250 0.0000 8.9250
v 423.5750 0.0000 8.9250
v 423.5750 3.0000 8.9250
v 426.4250 3.0000 8.9250
v 426.4250 0.0000 6.0750
v 426.4250 0.0000 8.9250
v 426.4250 3.0000 8.9250
v 426.4250 3.0000 6.0750
v 423.5750 0.0000 8.9250
v 423.5750 0.0000 6.0750
v 423.5750 3.0000 6.0750
v 423.5750 3.0000 8.9250
v 426.0750 0.0000 6.0750
v 426.0750 0.0000 8.9250
v 428.9250 0.0000 8.9250
v 428.9250 0.0000 6.0750
v 426.0750 3.0000 6.0750
v 428.9250 3.0000 6.0750
v 428.9250 3.0000 8.9250
v 426.0750 3.0000 8.9250
v 426.0750 0.0000 6.0750
v 428.9250 0.0000 6.0750
v 428.9250 3.0000 6.0750
v 426.0750 3.0000 6.0750
v 428.9250 0.0000 8.9250
v 426.0750 0.0000 8.9250
v 426.0750 3.0000 8.9250
v 428.9250 3.0000 8.9250
v 428.9250 0.0000 6.0750
v 428.9250 0.0000 8.9250
v 428.9250 3.0000 8.9250
v 428.9250 3.0000 6.0750
v 426.0750 0.0000 8.9250
v 426.0750 0.0000 6.0750
v 426.0750 3.0000 6.0750
v 426.0750 3.0000 8.9250
v 431.0750 0.0000 6.0750
v 431.0750 0.0000 8.9250
v 433.9250 0.0000 8.9250
v 433.9250 0.0000 6.0750
v 431.0750 3.0000 6.0750
v 433.9250 3.0000 6.0750
v 433.9250 3.0000 8.9250
v 431.0750 3.0000 8.9250
v 431.0750 0.0000 6.0750
v 433.9250 0.0000 6.0750
v 433.9250 3.0000 6.0750
v 431.0750 3.0000 6.0750
v 433.9250 0.0000 8.9250
v 431.0750 0.0000 8.9250
v 431.0750 3.0000 8.9250
v 433.9250 3.0000 8.9250
v 433.9250 0.0000 6.0750
v 433.9250 0.0000 8.9250
v 433.9250 3.0000 8.9250
v 433.9250 3.0000 6.0750
v 431.0750 0.0000 8.9250
v 431.0750 0.0000 6.0750
v 431.0750 3.0000 6.0750
v 431.0750 3.0000 8.9250
v 406.0750 0.0000 8.5750
v 406.0750 0.0000 11.4250
v 408.9250 0.0000 11.4250
v 408.9250 0.0000 8.5750
v 406.0750 3.0000 8.5750
v 408.9250 3.0000 8.5750
v 408.9250 3.0000 11.4250
v 406.0750 3.0000 11.4250
v 406.0750 0.0000 8.5750
v 408.9250 0.0000 8.5750
v 408.9250 3.0000 8.5750
v 406.0750 3.0000 8.5750
v 408.9250 0.0000 11.4250
v 406.0750 0.0000 11.4250
v 406.0750 3.0000 11.4250
v 408.9250 3.0000 11.4250
v 408.9250 0.0000 8.5750
v 408.9250 0.0000 11.4250
v 408.9250 3.0000 11.4250
v 408.9250 3.0000 8.5750
v 406.0750 0.0000 11.4250
v 406.0750 0.0000 8.5750
v 406.0750 3.0000 8.5750
v 406.0750 3.0000 11.4250
v 411.0750 0.0000 8.5750
v 411.0750 0.0000 11.4250
v 413.9250 0.0000 11.4250
v 413.9250 0.0000 8.5750
v 411.0750 3.0000 8.5750
v 413.9250 3.0000 8.5750
v 413.9250 3.0000 11.4250
v 411.0750 3.0000 11.4250
v 411.0750 0.0000 8.5750
v 413.9250 0.0000 8.5750
v 413.9250 3.0000 8.5750
v 411.0750 3.0000 8.5750
v 413.9250 0.0000 11.4250
v 411.0750 0.0000 11.4250
v 411.0750 3.0000 11.4250
v 413.9250 3.0000 11.4250
v 413.9250 0.0000 8.5750
v 413.9250 0.0000 11.4250
v 413.9250 3.0000 11.4250
v 413.9250 3.0000 8.5750
v 411.0750 0.0000 11.4250
v 411.0750 0.0000 8.5750
v 411.0750 3.0000 8.5750
v 411.0750 3.0000 11.4250
v 421.0750 0.0000 8.5750
v 421.0750 0.0000 11.4250
v 423.9250 0.0000 11.4250
v 423.9250 0.0000 8.5750
v 421.0750 3.0000 8.5750
v 423.9250 3.0000 8.5750
v 423.9250 3.0000 11.4250
v 421.0750 3.0000 11.4250
v 421.0750 0.0000 8.5750
v 423.9250 0.0000 8.5750
v 423.9250 3.0000 8.5750
v 421.0750 3.0000 8.5750
v 423.9250 0.0000 11.4250
v 421.0750 0.0000 11.4250
v 421.0750 3.0000 11.4250
v 423.9250 3.0000 11.4250
v 423.9250 0.0000 8.5750
v 423.9250 0.0000 11.4250
v 423.9250 3.0000 11.4250
v 423.9250 3.0000 8.5750
v 421.0750 0.0000 11.4250
v 421.0750 0.0000 8.5750
v 421.0750 3.0000 8.5750
v 421.0750 3.0000 11.4250
v 431.0750 0.0000 8.5750
v 431.0750 0.0000 11.4250
v 433.9250 0.0000 11.4250
v 433.9250 0.0000 8.5750
v 431.0750 3.0000 8.5750
v 433.9250 3.0000 8.5750
v 433.9250 3.0000 11.4250
v 431.0750 3.0000 11.4250
v 431.0750 0.0000 8.5750
v 433.9250 0.0000 8.5750
v 433.9250 3.0000 8.5750
v 431.0750 3.0000 8.5750
v 433.9250 0.0000 11.4250
v 431.0750 0.0000 11.4250
v 431.0750 3.0000 11.4250
v 433.9250 3.0000 11.4250
v 433.9250 0.0000 8.5750
v 433.9250 0.0000 11.4250
v 433.9250 3.0000 11.4250
v 433.9250 3.0000 8.5750
v 431.0750 0.0000 11.4250
v 431.0750 0.0000 8.5750
v 431.0750 3.0000 8.5750
v 431.0750 3.0000 11.4250
v 406.0750 0.0000 11.0750
v 406.0750 0.0000 13.9250
v 408.9250 0.0000 13.9250
v 408.9250 0.0000 11.0750
v 406.0750 3.0000 11.0750
v 408.9250 3.0000 11.0750
v 408.9250 3.0000 13.9250
v 406.0750 3.0000 13.9250
v 406.0750 0.0000 11.0750
v 408.9250 0.0000 11.0750
v 408.9250 3.0000 11.0750
v 406.0750 3.0000 11.0750
v 408.9250 0.0000 13.9250
v 406.0750 0.0000 13.9250
v 406.0750 3.0000 13.9250
v 408.9250 3.0000 13.9250
v 408.9250 0.0000 11.0750
v 408.9250 0.0000 13.9250
v 408.9250 3.0000 13.9250
v 408.9250 3.0000 11.0750
v 406.0750 0.0000 13.9250
v 406.0750 0.0000 11.0750
v 406.0750 3.0000 11.0750
v 406.0750 3.0000 13.9250
v 408.5750 0.0000 11.0750
v 408.5750 0.0000 13.9250
v 411.4250 0.0000 13.9250
v 411.4250 0.0000 11.0750
v 408.5750 3.0000 11.0750
v 411.4250 3.0000 11.0750
v 411.4250 3.0000 13.9250
v 408.5750 3.0000 13.9250
v 408.5750 0.0000 11.0750
v 411.4250 0.0000 11.0750
v 411.4250 3.0000 11.0750
v 408.5750 3.0000 11.0750
v 411.4250 0.0000 13.9250
v 408.5750 0.0000 13.9250
v 408.5750 3.0000 13.9250
v 411.4250 3.0000 13.9250
v 411.4250 0.0000 11.0750
v 411.4250 0.0000 13.9250
v 411.4250 3.0000 13.9250
v 411.4250 3.0000 11.0750
v 408.5750 0.0000 13.9250
v 408.5750 0.0000 11.0750
v 408.5750 3.0000 11.0750
v 408.5750 3.0000 13.9250
v 411.0750 0.0000 11.0750
v 411.0750 0.0000 13.9250
v 413.9250 0.0000 13.9250
v 413.9250 0.0000 11.0750
v 411.0750 3.0000 11.0750
v 413.9250 3.0000 11.0750
v 413.9250 3.0000 13.9250
v 411.0750 3.0000 13.9250
v 411.0750 0.0000 11.0750
v 413.9250 0.0000 11.0750
v 413.9250 3.0000 11.0750
v 411.0750 3.0000 11.0750
v 413.9250 0.0000 13.9250
v 411.0750 0.0000 13.9250
v 411.0750 3.0000 13.9250
v 413.9250 3.0000 13.9250
v 413.9250 0.0000 11.0750
v 413.9250 0.0000 13.9250
v 413.9250 3.0000 13.9250
v 413.9250 3.0000 11.0750
v 411.0750 0.0000 13.9250
v 411.0750 0.0000 11.0750
v 411.0750 3.0000 11.0750
v 411.0750 3.0000 13.9250
v 416.0750 0.0000 11.0750
v 416.0750 0.0000 13.9250
v 418.9250 0.0000 13.9250
v 418.9250 0.0000 11.0750
v 416.0750 3.0000 11.0750
v 418.9250 3.0000 11.0750
v 418.9250 3.0000 13.9250
v 416.0750 3.0000 13.9250
v 416.0750 0.0000 11.0750
v 418.9250 0.0000 11.0750
v 418.9250 3.0000 11.0750
v 416.0750 3.0000 11.0750
v 418.9250 0.0000 13.9250
v 416.0750 0.0000 13.9250
v 416.0750 3.0000 13.9250
v 418.9250 3.0000 13.9250
v 418.9250 0.0000 11.0750
v 418.9250 0.0000 13.9250
v 418.9250 3.0000 13.9250
v 418.9250 3.0000 11.0750
v 416.0750 0.0000 13.9250
v 416.0750 0.0000 11.0750
v 416.0750 3.0000 11.0750
v 416.0750 3.0000 13.9250
v 421.0750 0.0000 11.0750
v 423.9250 0.0000 11.0750
v 423.9250 0.0000 13.9250
v 421.0750 0.0000 13.9250
v 421.0750 3.0000 11.0750
v 423.9250 3.0000 11.0750
v 423.9250 3.0000 13.9250
v 421.0750 3.0000 13.9250
v 426.0750 0.0000 11.0750
v 426.0750 0.0000 13.9250
v 428.9250 0.0000 13.9250
v 428.9250 0.0000 11.0750
v 426.0750 3.0000 11.0750
v 428.9250 3.0000 11.0750
v 428.9250 3.0000 13.9250
v 426.0750 3.0000 13.9250
v 426.0750 0.0000 11.0750
v 428.9250 0.0000 11.0750
v 428.9250 3.0000 11.0750
v 426.0750 3.0000 11.0750
v 428.9250 0.0000 13.9250
v 426.0750 0.0000 13.9250
v 426.0750 3.0000 13.9250
v 428.9250 3.0000 13.9250
v 428.9250 0.0000 11.0750
v 428.9250 0.0000 13.9250
v 428.9250 3.0000 13.9250
v 428.9250 3.0000 11.0750
v 426.0750 0.0000 13.9250
v 426.0750 0.0000 11.0750
v 426.0750 3.0000 11.0750
v 426.0750 3.0000 13.9250
v 431.0750 0.0000 11.0750
v 431.0750 0.0000 13.9250
v 433.9250 0.0000 13.9250
v 433.9250 0.0000 11.0750
v 431.0750 3.0000 11.0750
v 433.9250 3.0000 11.0750
v 433.9250 3.0000 13.9250
v 431.0750 3.0000 13.9250
v 431.0750 0.0000 11.0750
v 433.9250 0.0000 11.0750
v 433.9250 3.0000 11.0750
v 431.0750 3.0000 11.0750
v 433.9250 0.0000 13.9250
v 431.0750 0.0000 13.9250
v 431.0750 3.0000 13.9250
v 433.9250 3.0000 13.9250
v 433.9250 0.0000 11.0750
v 433.9250 0.0000 13.9250
v 433.9250 3.0000 13.9250
v 433.9250 3.0000 11.0750
v 431.0750 0.0000 13.9250
v 431.0750 0.0000 11.0750
v 431.0750 3.0000 11.0750
v 431.0750 3.0000 13.9250
v 416.0750 0.0000 13.5750
v 416.0750 0.0000 16.4250
v 418.9250 0.0000 16.4250
v 418.9250 0.0000 13.5750
v 416.0750 3.0000 13.5750
v 418.9250 3.0000 13.5750
v 418.9250 3.0000 16.4250
v 416.0750 3.0000 16.4250
v 416.0750 0.0000 13.5750
v 418.9250 0.0000 13.5750
v 418.9250 3.0000 13.5750
v 416.0750 3.0000 13.5750
v 418.9250 0.0000 16.4250
v 416.0750 0.0000 16.4250
v 416.0750 3.0000 16.4250
v 418.9250 3.0000 16.4250
v 418.9250 0.0000 13.5750
v 418.9250 0.0000 16.4250
v 418.9250 3.0000 16.4250
v 418.9250 3.0000 13.5750
v 416.0750 0.0000 16.4250
v 416.0750 0.0000 13.5750
v 416.0750 3.0000 13.5750
v 416.0750 3.0000 16.4250
v 426.0750 0.0000 13.5750
v 426.0750 0.0000 16.4250
v 428.9250 0.0000 16.4250
v 428.9250 0.0000 13.5750
v 426.0750 3.0000 13.5750
v 428.9250 3.0000 13.5750
v 428.9250 3.0000 16.4250
v 426.0750 3.0000 16.4250
v 426.0750 0.0000 13.5750
v 428.9250 0.0000 13.5750
v 428.9250 3.0000 13.5750
v 426.0750 3.0000 13.5750
v 428.9250 0.0000 16.4250
v 426.0750 0.0000 16.4250
v 426.0750 3.0000 16.4250
v 428.9250 3.0000 16.4250
v 428.9250 0.0000 13.5750
v 428.9250 0.0000 16.4250
v 428.9250 3.0000 16.4250
v 428.9250 3.0000 13.5750
v 426.0750 0.0000 16.4250
v 426.0750 0.0000 13.5750
v 426.0750 3.0000 13.5750
v 426.0750 3.0000 16.4250
v 406.0750 0.0000 16.0750
v 406.0750 0.0000 18.9250
v 408.9250 0.0000 18.9250
v 408.9250 0.0000 16.0750
v 406.0750 3.0000 16.0750
v 408.9250 3.0000 16.0750
v 408.9250 3.0000 18.9250
v 406.0750 3.0000 18.9250
v 406.0750 0.0000 16.0750
v 408.9250 0.0000 16.0750
v 408.9250 3.0000 16.0750
v 406.0750 3.0000 16.0750
v 408.9250 0.0000 18.9250
v 406.0750 0.0000 18.9250
v 406.0750 3.0000 18.9250
v 408.9250 3.0000 18.9250
v 408.9250 0.0000 16.0750
v 408.9250 0.0000 18.9250
v 408.9250 3.0000 18.9250
v 408.9250 3.0000 16.0750
v 406.0750 0.0000 18.9250
v 406.0750 0.0000 16.0750
v 406.0750 3.0000 16.0750
v 406.0750 3.0000 18.9250
v 411.0750 0.0000 16.0750
v 411.0750 0.0000 18.9250
v 413.9250 0.0000 18.9250
v 413.9250 0.0000 16.0750
v 411.0750 3.0000 16.0750
v 413.9250 3.0000 16.0750
v 413.9250 3.0000 18.9250
v 411.0750 3.0000 18.9250
v 411.0750 0.0000 16.0750
v 413.9250 0.0000 16.0750
v 413.9250 3.0000 16.0750
v 411.0750 3.0000 16.0750
v 413.9250 0.0000 18.9250
v 411.0750 0.0000 18.9250
v 411.0750 3.0000 18.9250
v 413.9250 3.0000 18.9250
v 413.9250 0.0000 16.0750
v 413.9250 0.0000 18.9250
v 413.9250 3.0000 18.9250
v 413.9250 3.0000 16.0750
v 411.0750 0.0000 18.9250
v 411.0750 0.0000 16.0750
v 411.0750 3.0000 16.0750
v 411.0750 3.0000 18.9250
v 413.5750 0.0000 16.0750
v 416.4250 0.0000 16.0750
v 416.4250 0.0000 18.9250
v 413.5750 0.0000 18.9250
v 413.5750 3.0000 16.0750
v 416.4250 3.0000 16.0750
v 416.4250 3.0000 18.9250
v 413.5750 3.0000 18.9250
v 416.0750 0.0000 16.0750
v 416.0750 0.0000 18.9250
v 418.9250 0.0000 18.9250
v 418.9250 0.0000 16.0750
v 416.0750 3.0000 16.0750
v 418.9250 3.0000 16.0750
v 418.9250 3.0000 18.9250
v 416.0750 3.0000 18.9250
v 416.0750 0.0000 16.0750
v 418.9250 0.0000 16.0750
v 418.9250 3.0000 16.0750
v 416.0750 3.0000 16.0750
v 418.9250 0.0000 18.9250
v 416.0750 0.0000 18.9250
v 416.0750 3.0000 18.9250
v 418.9250 3.0000 18.9250
v 418.9250 0.0000 16.0750
v 418.9250 0.0000 18.9250
v 418.9250 3.0000 18.9250
v 418.9250 3.0000 16.0750
v 416.0750 0.0000 18.9250
v 416.0750 0.0000 16.0750
v 416.0750 3.0000 16.0750
v 416.0750 3.0000 18.9250
v 421.0750 0.0000 16.0750
v 421.0750 0.0000 18.9250
v 423.9250 0.0000 18.9250
v 423.9250 0.0000 16.0750
v 421.0750 3.0000 16.0750
v 423.9250 3.0000 16.0750
v 423.9250 3.0000 18.9250
v 421.0750 3.0000 18.9250
v 421.0750 0.0000 16.0750
v 423.9250 0.0000 16.0750
v 423.9250 3.0000 16.0750
v 421.0750 3.0000 16.0750
v 423.9250 0.0000 18.9250
v 421.0750 0.0000 18.9250
v 421.0750 3.0000 18.9250
v 423.9250 3.0000 18.9250
v 423.9250 0.0000 16.0750
v 423.9250 0.0000 18.9250
v 423.9250 3.0000 18.9250
v 423.9250 3.0000 16.0750
v 421.0750 0.0000 18.9250
v 421.0750 0.0000 16.0750
v 421.0750 3.0000 16.0750
v 421.0750 3.0000 18.9250
v 426.0750 0.0000 16.0750
v 428.9250 0.0000 16.0750
v 428.9250 0.0000 18.9250
v 426.0750 0.0000 18.9250
v 426.0750 3.0000 16.0750
v 428.9250 3.0000 16.0750
v 428.9250 3.0000 18.9250
v 426.0750 3.0000 18.9250
v 431.0750 0.0000 16.0750
v 431.0750 0.0000 18.9250
v 433.9250 0.0000 18.9250
v 433.9250 0.0000 16.0750
v 431.0750 3.0000 16.0750
v 433.9250 3.0000 16.0750
v 433.9250 3.0000 18.9250
v 431.0750 3.0000 18.9250
v 431.0750 0.0000 16.0750
v 433.9250 0.0000 16.0750
v 433.9250 3.0000 16.0750
v 431.0750 3.0000 16.0750
v 433.9250 0.0000 18.9250
v 431.0750 0.0000 18.9250
v 431.0750 3.0000 18.9250
v 433.9250 3.0000 18.9250
v 433.9250 0.0000 16.0750
v 433.9250 0.0000 18.9250
v 433.9250 3.0000 18.9250
v 433.9250 3.0000 16.0750
v 431.0750 0.0000 18.9250
v 431.0750 0.0000 16.0750
v 431.0750 3.0000 16.0750
v 431.0750 3.0000 18.9250
v 421.0750 0.0000 18.5750
v 421.0750 0.0000 21.4250
v 423.9250 0.0000 21.4250
v 423.9250 0.0000 18.5750
v 421.0750 3.0000 18.5750
v 423.9250 3.0000 18.5750
v 423.9250 3.0000 21.4250
v 421.0750 3.0000 21.4250
v 421.0750 0.0000 18.5750
v 423.9250 0.0000 18.5750
v 423.9250 3.0000 18.5750
v 421.0750 3.0000 18.5750
v 423.9250 0.0000 21.4250
v 421.0750 0.0000 21.4250
v 421.0750 3.0000 21.4250
v 423.9250 3.0000 21.4250
v 423.9250 0.0000 18.5750
v 423.9250 0.0000 21.4250
v 423.9250 3.0000 21.4250
v 423.9250 3.0000 18.5750
v 421.0750 0.0000 21.4250
v 421.0750 0.0000 18.5750
v 421.0750 3.0000 18.5750
v 421.0750 3.0000 21.4250
v 431.0750 0.0000 18.5750
v 431.0750 0.0000 21.4250
v 433.9250 0.0000 21.4250
v 433.9250 0.0000 18.5750
v 431.0750 3.0000 18.5750
v 433.9250 3.0000 18.5750
v 433.9250 3.0000 21.4250
v 431.0750 3.0000 21.4250
v 431.0750 0.0000 18.5750
v 433.9250 0.0000 18.5750
v 433.9250 3.0000 18.5750
v 431.0750 3.0000 18.5750
v 433.9250 0.0000 21.4250
v 431.0750 0.0000 21.4250
v 431.0750 3.0000 21.4250
v 433.9250 3.0000 21.4250
v 433.9250 0.0000 18.5750
v 433.9250 0.0000 21.4250
v 433.9250 3.0000 21.4250
v 433.9250 3.0000 18.5750
v 431.0750 0.0000 21.4250
v 431.0750 0.0000 18.5750
v 431.0750 3.0000 18.5750
v 431.0750 3.0000 21.4250
v 406.0750 0.0000 21.0750
v 406.0750 0.0000 23.9250
v 408.9250 0.0000 23.9250
v 408.9250 0.0000 21.0750
v 406.0750 3.0000 21.0750
v 408.9250 3.0000 21.0750
v 408.9250 3.0000 23.9250
v 406.0750 3.0000 23.9250
v 406.0750 0.0000 21.0750
v 408.9250 0.0000 21.0750
v 408.9250 3.0000 21.0750
v 406.0750 3.0000 21.0750
v 408.9250 0.0000 23.9250
v 406.0750 0.0000 23.9250
v 406.0750 3.0000 23.9250
v 408.9250 3.0000 23.9250
v 408.9250 0.0000 21.0750
v 408.9250 0.0000 23.9250
v 408.9250 3.0000 23.9250
v 408.9250 3.0000 21.0750
v 406.0750 0.0000 23.9250
v 406.0750 0.0000 21.0750
v 406.0750 3.0000 21.0750
v 406.0750 3.0000 23.9250
v 408.5750 0.0000 21.0750
v 408.5750 0.0000 23.9250
v 411.4250 0.0000 23.9250
v 411.4250 0.0000 21.0750
v 408.5750 3.0000 21.0750
v 411.4250 3.0000 21.0750
v 411.4250 3.0000 23.9250
v 408.5750 3.0000 23.9250
v 408.5750 0.0000 21.0750
v 411.4250 0.0000 21.0750
v 411.4250 3.0000 21.0750
v 408.5750 3.0000 21.0750
v 411.4250 0.0000 23.9250
v 408.5750 0.0000 23.9250
v 408.5750 3.0000 23.9250
v 411.4250 3.0000 23.9250
v 411.4250 0.0000 21.0750
v 411.4250 0.0000 23.9250
v 411.4250 3.0000 23.9250
v 411.4250 3.0000 21.0750
v 408.5750 0.0000 23.9250
v 408.5750 0.0000 21.0750
v 408.5750 3.0000 21.0750
v 408.5750 3.0000 23.9250
v 411.0750 0.0000 21.0750
v 413.9250 0.0000 21.0750
v 413.9250 0.0000 23.9250
v 411.0750 0.0000 23.9250
v 411.0750 3.0000 21.0750
v 413.9250 3.0000 21.0750
v 413.9250 3.0000 23.9250
v 411.0750 3.0000 23.9250
v 413.5750 0.0000 21.0750
v 413.5750 0.0000 23.9250
v 416.4250 0.0000 23.9250
v 416.4250 0.0000 21.0750
v 413.5750 3.0000 21.0750
v 416.4250 3.0000 21.0750
v 416.4250 3.0000 23.9250
v 413.5750 3.0000 23.9250
v 413.5750 0.0000 21.0750
v 416.4250 0.0000 21.0750
v 416.4250 3.0000 21.0750
v 413.5750 3.0000 21.0750
v 416.4250 0.0000 23.9250
v 413.5750 0.0000 23.9250
v 413.5750 3.0000 23.9250
v 416.4250 3.0000 23.9250
v 416.4250 0.0000 21.0750
v 416.4250 0.0000 23.9250
v 416.4250 3.0000 23.9250
v 416.4250 3.0000 21.0750
v 413.5750 0.0000 23.9250
v 413.5750 0.0000 21.0750
v 413.5750 3.0000 21.0750
v 413.5750 3.0000 23.9250
v 416.0750 0.0000 21.0750
v 416.0750 0.0000 23.9250
v 418.9250 0.0000 23.9250
v 418.9250 0.0000 21.0750
v 416.0750 3.0000 21.0750
v 418.9250 3.0000 21.0750
v 418.9250 3.0000 23.9250
v 416.0750 3.0000 23.9250
v 416.0750 0.0000 21.0750
v 418.9250 0.0000 21.0750
v 418.9250 3.0000 21.0750
v 416.0750 3.0000 21.0750
v 418.9250 0.0000 23.9250
v 416.0750 0.0000 23.9250
v 416.0750 3.0000 23.9250
v 418.9250 3.0000 23.9250
v 418.9250 0.0000 21.0750
v 418.9250 0.0000 23.9250
v 418.9250 3.0000 23.9250
v 418.9250 3.0000 21.0750
v 416.0750 0.0000 23.9250
v 416.0750 0.0000 21.0750
v 416.0750 3.0000 21.0750
v 416.0750 3.0000 23.9250
v 418.5750 0.0000 21.0750
v 418.5750 0.0000 23.9250
v 421.4250 0.0000 23.9250
v 421.4250 0.0000 21.0750
v 418.5750 3.0000 21.0750
v 421.4250 3.0000 21.0750
v 421.4250 3.0000 23.9250
v 418.5750 3.0000 23.9250
v 418.5750 0.0000 21.0750
v 421.4250 0.0000 21.0750
v 421.4250 3.0000 21.0750
v 418.5750 3.0000 21.0750
v 421.4250 0.0000 23.9250
v 418.5750 0.0000 23.9250
v 418.5750 3.0000 23.9250
v 421.4250 3.0000 23.9250
v 421.4250 0.0000 21.0750
v 421.4250 0.0000 23.9250
v 421.4250 3.0000 23.9250
v 421.4250 3.0000 21.0750
v 418.5750 0.0000 23.9250
v 418.5750 0.0000 21.0750
v 418.5750 3.0000 21.0750
v 418.5750 3.0000 23.9250
v 421.0750 0.0000 21.0750
v 421.0750 0.0000 23.9250
v 423.9250 0.0000 23.9250
v 423.9250 0.0000 21.0750
v 421.0750 3.0000 21.0750
v 423.9250 3.0000 21.0750
v 423.9250 3.0000 23.9250
v 421.0750 3.0000 23.9250
v 421.0750 0.0000 21.0750
v 423.9250 0.0000 21.0750
v 423.9250 3.0000 21.0750
v 421.0750 3.0000 21.0750
v 423.9250 0.0000 23.9250
v 421.0750 0.0000 23.9250
v 421.0750 3.0000 23.9250
v 423.9250 3.0000 23.9250
v 423.9250 0.0000 21.0750
v 423.9250 0.0000 23.9250
v 423.9250 3.0000 23.9250
v 423.9250 3.0000 21.0750
v 421.0750 0.0000 23.9250
v 421.0750 0.0000 21.0750
v 421.0750 3.0000 21.0750
v 421.0750 3.0000 23.9250
v 426.0750 0.0000 21.0750
v 426.0750 0.0000 23.9250
v 428.9250 0.0000 23.9250
v 428.9250 0.0000 21.0750
v 426.0750 3.0000 21.0750
v 428.9250 3.0000 21.0750
v 428.9250 3.0000 23.9250
v 426.0750 3.0000 23.9250
v 426.0750 0.0000 21.0750
v 428.9250 0.0000 21.0750
v 428.9250 3.0000 21.0750
v 426.0750 3.0000 21.0750
v 428.9250 0.0000 23.9250
v 426.0750 0.0000 23.9250
v 426.0750 3.0000 23.9250
v 428.9250 3.0000 23.9250
v 428.9250 0.0000 21.0750
v 428.9250 0.0000 23.9250
v 428.9250 3.0000 23.9250
v 428.9250 3.0000 21.0750
v 426.0750 0.0000 23.9250
v 426.0750 0.0000 21.0750
v 426.0750 3.0000 21.0750
v 426.0750 3.0000 23.9250
v 431.0750 0.0000 21.0750
v 431.0750 0.0000 23.9250
v 433.9250 0.0000 23.9250
v 433.9250 0.0000 21.0750
v 431.0750 3.0000 21.0750
v 433.9250 3.0000 21.0750
v 433.9250 3.0000 23.9250
v 431.0750 3.0000 23.9250
v 431.0750 0.0000 21.0750
v 433.9250 0.0000 21.0750
v 433.9250 3.0000 21.0750
v 431.0750 3.0000 21.0750
v 433.9250 0.0000 23.9250
v 431.0750 0.0000 23.9250
v 431.0750 3.0000 23.9250
v 433.9250 3.0000 23.9250
v 433.9250 0.0000 21.0750
v 433.9250 0.0000 23.9250
v 433.9250 3.0000 23.9250
v 433.9250 3.0000 21.0750
v 431.0750 0.0000 23.9250
v 431.0750 0.0000 21.0750
v 431.0750 3.0000 21.0750
v 431.0750 3.0000 23.9250
v 433.5750 0.0000 21.0750
v 433.5750 0.0000 23.9250
v 436.4250 0.0000 23.9250
v 436.4250 0.0000 21.0750
v 433.5750 3.0000 21.0750
v 436.4250 3.0000 21.0750
v 436.4250 3.0000 23.9250
v 433.5750 3.0000 23.9250
v 433.5750 0.0000 21.0750
v 436.4250 0.0000 21.0750
v 436.4250 3.0000 21.0750
v 433.5750 3.0000 21.0750
v 436.4250 0.0000 23.9250
v 433.5750 0.0000 23.9250
v 433.5750 3.0000 23.9250
v 436.4250 3.0000 23.9250
v 436.4250 0.0000 21.0750
v 436.4250 0.0000 23.9250
v 436.4250 3.0000 23.9250
v 436.4250 3.0000 21.0750
v 433.5750 0.0000 23.9250
v 433.5750 0.0000 21.0750
v 433.5750 3.0000 21.0750
v 433.5750 3.0000 23.9250
v 406.0750 0.0000 26.0750
v 406.0750 0.0000 28.9250
v 408.9250 0.0000 28.9250
v 408.9250 0.0000 26.0750
v 406.0750 3.0000 26.0750
v 408.9250 3.0000 26.0750
v 408.9250 3.0000 28.9250
v 406.0750 3.0000 28.9250
v 406.0750 0.0000 26.0750
v 408.9250 0.0000 26.0750
v 408.9250 3.0000 26.0750
v 406.0750 3.0000 26.0750
v 408.9250 0.0000 28.9250
v 406.0750 0.0000 28.9250
v 406.0750 3.0000 28.9250
v 408.9250 3.0000 28.9250
v 408.9250 0.0000 26.0750
v 408.9250 0.0000 28.9250
v 408.9250 3.0000 28.9250
v 408.9250 3.0000 26.0750
v 406.0750 0.0000 28.9250
v 406.0750 0.0000 26.0750
v 406.0750 3.0000 26.0750
v 406.0750 3.0000 28.9250
v 408.5750 0.0000 26.0750
v 408.5750 0.0000 28.9250
v 411.4250 0.0000 28.9250
v 411.4250 0.0000 26.0750
v 408.5750 3.0000 26.0750
v 411.4250 3.0000 26.0750
v 411.4250 3.0000 28.9250
v 408.5750 3.0000 28.9250
v 408.5750 0.0000 26.0750
v 411.4250 0.0000 26.0750
v 411.4250 3.0000 26.0750
v 408.5750 3.0000 26.0750
v 411.4250 0.0000 28.9250
v 408.5750 0.0000 28.9250
v 408.5750 3.0000 28.9250
v 411.4250 3.0000 28.9250
v 411.4250 0.0000 26.0750
v 411.4250 0.0000 28.9250
v 411.4250 3.0000 28.9250
v 411.4250 3.0000 26.0750
v 408.5750 0.0000 28.9250
v 408.5750 0.0000 26.0750
v 408.5750 3.0000 26.0750
v 408.5750 3.0000 28.9250
v 411.0750 0.0000 26.0750
v 411.0750 0.0000 28.9250
v 413.9250 0.0000 28.9250
v 413.9250 0.0000 26.0750
v 411.0750 3.0000 26.0750
v 413.9250 3.0000 26.0750
v 413.9250 3.0000 28.9250
v 411.0750 3.0000 28.9250
v 411.0750 0.0000 26.0750
v 413.9250 0.0000 26.0750
v 413.9250 3.0000 26.0750
v 411.0750 3.0000 26.0750
v 413.9250 0.0000 28.9250
v 411.0750 0.0000 28.9250
v 411.0750 3.0000 28.9250
v 413.9250 3.0000 28.9250
v 413.9250 0.0000 26.0750
v 413.9250 0.0000 28.9250
v 413.9250 3.0000 28.9250
v 413.9250 3.0000 26.0750
v 411.0750 0.0000 28.9250
v 411.0750 0.0000 26.0750
v 411.0750 3.0000 26.0750
v 411.0750 3.0000 28.9250
v 421.0750 0.0000 26.0750
v 421.0750 0.0000 28.9250
v 423.9250 0.0000 28.9250
v 423.9250 0.0000 26.0750
v 421.0750 3.0000 26.0750
v 423.9250 3.0000 26.0750
v 423.9250 3.0000 28.9250
v 421.0750 3.0000 28.9250
v 421.0750 0.0000 26.0750
v 423.9250 0.0000 26.0750
v 423.9250 3.0000 26.0750
v 421.0750 3.0000 26.0750
v 423.9250 0.0000 28.9250
v 421.0750 0.0000 28.9250
v 421.0750 3.0000 28.9250
v 423.9250 3.0000 28.9250
v 423.9250 0.0000 26.0750
v 423.9250 0.0000 28.9250
v 423.9250 3.0000 28.9250
v 423.9250 3.0000 26.0750
v 421.0750 0.0000 28.9250
v 421.0750 0.0000 26.0750
v 421.0750 3.0000 26.0750
v 421.0750 3.0000 28.9250
v 423.5750 0.0000 26.0750
v 423.5750 0.0000 28.9250
v 426.4250 0.0000 28.9250
v 426.4250 0.0000 26.0750
v 423.5750 3.0000 26.0750
v 426.4250 3.0000 26.0750
v 426.4250 3.0000 28.9250
v 423.5750 3.0000 28.9250
v 423.5750 0.0000 26.0750
v 426.4250 0.0000 26.0750
v 426.4250 3.0000 26.0750
v 423.5750 3.0000 26.0750
v 426.4250 0.0000 28.9250
v 423.5750 0.0000 28.9250
v 423.5750 3.0000 28.9250
v 426.4250 3.0000 28.9250
v 426.4250 0.0000 26.0750
v 426.4250 0.0000 28.9250
v 426.4250 3.0000 28.9250
v 426.4250 3.0000 26.0750
v 423.5750 0.0000 28.9250
v 423.5750 0.0000 26.0750
v 423.5750 3.0000 26.0750
v 423.5750 3.0000 28.9250
v 426.0750 0.0000 26.0750
v 426.0750 0.0000 28.9250
v 428.9250 0.0000 28.9250
v 428.9250 0.0000 26.0750
v 426.0750 3.0000 26.0750
v 428.9250 3.0000 26.0750
v 428.9250 3.0000 28.9250
v 426.0750 3.0000 28.9250
v 426.0750 0.0000 26.0750
v 428.9250 0.0000 26.0750
v 428.9250 3.0000 26.0750
v 426.0750 3.0000 26.0750
v 428.9250 0.0000 28.9250
v 426.0750 0.0000 28.9250
v 426.0750 3.0000 28.9250
v 428.9250 3.0000 28.9250
v 428.9250 0.0000 26.0750
v 428.9250 0.0000 28.9250
v 428.9250 3.0000 28.9250
v 428.9250 3.0000 26.0750
v 426.0750 0.0000 28.9250
v 426.0750 0.0000 26.0750
v 426.0750 3.0000 26.0750
v 426.0750 3.0000 28.9250
v 428.5750 0.0000 26.0750
v 428.5750 0.0000 28.9250
v 431.4250 0.0000 28.9250
v 431.4250 0.0000 26.0750
v 428.5750 3.0000 26.0750
v 431.4250 3.0000 26.0750
v 431.4250 3.0000 28.9250
v 428.5750 3.0000 28.9250
v 428.5750 0.0000 26.0750
v 431.4250 0.0000 26.0750
v 431.4250 3.0000 26.0750
v 428.5750 3.0000 26.0750
v 431.4250 0.0000 28.9250
v 428.5750 0.0000 28.9250
v 428.5750 3.0000 28.9250
v 431.4250 3.0000 28.9250
v 431.4250 0.0000 26.0750
v 431.4250 0.0000 28.9250
v 431.4250 3.0000 28.9250
v 431.4250 3.0000 26.0750
v 428.5750 0.0000 28.9250
v 428.5750 0.0000 26.0750
v 428.5750 3.0000 26.0750
v 428.5750 3.0000 28.9250
v 431.0750 0.0000 26.0750
v 431.0750 0.0000 28.9250
v 433.9250 0.0000 28.9250
v 433.9250 0.0000 26.0750
v 431.0750 3.0000 26.0750
v 433.9250 3.0000 26.0750
v 433.9250 3.0000 28.9250
v 431.0750 3.0000 28.9250
v 431.0750 0.0000 26.0750
v 433.9250 0.0000 26.0750
v 433.9250 3.0000 26.0750
v 431.0750 3.0000 26.0750
v 433.9250 0.0000 28.9250
v 431.0750 0.0000 28.9250
v 431.0750 3.0000 28.9250
v 433.9250 3.0000 28.9250
v 433.9250 0.0000 26.0750
v 433.9250 0.0000 28.9250
v 433.9250 3.0000 28.9250
v 433.9250 3.0000 26.0750
v 431.0750 0.0000 28.9250
v 431.0750 0.0000 26.0750
v 431.0750 3.0000 26.0750
v 431.0750 3.0000 28.9250
v 421.0750 0.0000 28.5750
v 421.0750 0.0000 31.4250
v 423.9250 0.0000 31.4250
v 423.9250 0.0000 28.5750
v 421.0750 3.0000 28.5750
v 423.9250 3.0000 28.5750
v 423.9250 3.0000 31.4250
v 421.0750 3.0000 31.4250
v 421.0750 0.0000 28.5750
v 423.9250 0.0000 28.5750
v 423.9250 3.0000 28.5750
v 421.0750 3.0000 28.5750
v 423.9250 0.0000 31.4250
v 421.0750 0.0000 31.4250
v 421.0750 3.0000 31.4250
v 423.9250 3.0000 31.4250
v 423.9250 0.0000 28.5750
v 423.9250 0.0000 31.4250
v 423.9250 3.0000 31.4250
v 423.9250 3.0000 28.5750
v 421.0750 0.0000 31.4250
v 421.0750 0.0000 28.5750
v 421.0750 3.0000 28.5750
v 421.0750 3.0000 31.4250
v 406.0750 0.0000 31.0750
v 406.0750 0.0000 33.9250
v 408.9250 0.0000 33.9250
v 408.9250 0.0000 31.0750
v 406.0750 3.0000 31.0750
v 408.9250 3.0000 31.0750
v 408.9250 3.0000 33.9250
v 406.0750 3.0000 33.9250
v 406.0750 0.0000 31.0750
v 408.9250 0.0000 31.0750
v 408.9250 3.0000 31.0750
v 406.0750 3.0000 31.0750
v 408.9250 0.0000 33.9250
v 406.0750 0.0000 33.9250
v 406.0750 3.0000 33.9250
v 408.9250 3.0000 33.9250
v 408.9250 0.0000 31.0750
v 408.9250 0.0000 33.9250
v 408.9250 3.0000 33.9250
v 408.9250 3.0000 31.0750
v 406.0750 0.0000 33.9250
v 406.0750 0.0000 31.0750
v 406.0750 3.0000 31.0750
v 406.0750 3.0000 33.9250
v 416.0750 0.0000 31.0750
v 416.0750 0.0000 33.9250
v 418.9250 0.0000 33.9250
v 418.9250 0.0000 31.0750
v 416.0750 3.0000 31.0750
v 418.9250 3.0000 31.0750
v 418.9250 3.0000 33.9250
v 416.0750 3.0000 33.9250
v 416.0750 0.0000 31.0750
v 418.9250 0.0000 31.0750
v 418.9250 3.0000 31.0750
v 416.0750 3.0000 31.0750
v 418.9250 0.0000 33.9250
v 416.0750 0.0000 33.9250
v 416.0750 3.0000 33.9250
v 418.9250 3.0000 33.9250
v 418.9250 0.0000 31.0750
v 418.9250 0.0000 33.9250
v 418.9250 3.0000 33.9250
v 418.9250 3.0000 31.0750
v 416.0750 0.0000 33.9250
v 416.0750 0.0000 31.0750
v 416.0750 3.0000 31.0750
v 416.0750 3.0000 33.9250
v 421.0750 0.0000 31.0750
v 421.0750 0.0000 33.9250
v 423.9250 0.0000 33.9250
v 423.9250 0.0000 31.0750
v 421.0750 3.0000 31.0750
v 423.9250 3.0000 31.0750
v 423.9250 3.0000 33.9250
v 421.0750 3.0000 33.9250
v 421.0750 0.0000 31.0750
v 423.9250 0.0000 31.0750
v 423.9250 3.0000 31.0750
v 421.0750 3.0000 31.0750
v 423.9250 0.0000 33.9250
v 421.0750 0.0000 33.9250
v 421.0750 3.0000 33.9250
v 423.9250 3.0000 33.9250
v 423.9250 0.0000 31.0750
v 423.9250 0.0000 33.9250
v 423.9250 3.0000 33.9250
v 423.9250 3.0000 31.0750
v 421.0750 0.0000 33.9250
v 421.0750 0.0000 31.0750
v 421.0750 3.0000 31.0750
v 421.0750 3.0000 33.9250
v 423.5750 0.0000 31.0750
v 423.5750 0.0000 33.9250
v 426.4250 0.0000 33.9250
v 426.4250 0.0000 31.0750
v 423.5750 3.0000 31.0750
v 426.4250 3.0000 31.0750
v 426.4250 3.0000 33.9250
v 423.5750 3.0000 33.9250
v 423.5750 0.0000 31.0750
v 426.4250 0.0000 31.0750
v 426.4250 3.0000 31.0750
v 423.5750 3.0000 31.0750
v 426.4250 0.0000 33.9250
v 423.5750 0.0000 33.9250
v 423.5750 3.0000 33.9250
v 426.4250 3.0000 33.9250
v 426.4250 0.0000 31.0750
v 426.4250 0.0000 33.9250
v 426.4250 3.0000 33.9250
v 426.4250 3.0000 31.0750
v 423.5750 0.0000 33.9250
v 423.5750 0.0000 31.0750
v 423.5750 3.0000 31.0750
v 423.5750 3.0000 33.9250
v 426.0750 0.0000 31.0750
v 426.0750 0.0000 33.9250
v 428.9250 0.0000 33.9250
v 428.9250 0.0000 31.0750
v 426.0750 3.0000 31.0750
v 428.9250 3.0000 31.0750
v 428.9250 3.0000 33.9250
v 426.0750 3.0000 33.9250
v 426.0750 0.0000 31.0750
v 428.9250 0.0000 31.0750
v 428.9250 3.0000 31.0750
v 426.0750 3.0000 31.0750
v 428.9250 0.0000 33.9250
v 426.0750 0.0000 33.9250
v 426.0750 3.0000 33.9250
v 428.9250 3.0000 33.9250
v 428.9250 0.0000 31.0750
v 428.9250 0.0000 33.9250
v 428.9250 3.0000 33.9250
v 428.9250 3.0000 31.0750
v 426.0750 0.0000 33.9250
v 426.0750 0.0000 31.0750
v 426.0750 3.0000 31.0750
v 426.0750 3.0000 33.9250
v 428.5750 0.0000 31.0750
v 431.4250 0.0000 31.0750
v 431.4250 0.0000 33.9250
v 428.5750 0.0000 33.9250
v 428.5750 3.0000 31.0750
v 431.4250 3.0000 31.0750
v 431.4250 3.0000 33.9250
v 428.5750 3.0000 33.9250
v 431.0750 0.0000 31.0750
v 431.0750 0.0000 33.9250
v 433.9250 0.0000 33.9250
v 433.9250 0.0000 31.0750
v 431.0750 3.0000 31.0750
v 433.9250 3.0000 31.0750
v 433.9250 3.0000 33.9250
v 431.0750 3.0000 33.9250
v 431.0750 0.0000 31.0750
v 433.9250 0.0000 31.0750
v 433.9250 3.0000 31.0750
v 431.0750 3.0000 31.0750
v 433.9250 0.0000 33.9250
v 431.0750 0.0000 33.9250
v 431.0750 3.0000 33.9250
v 433.9250 3.0000 33.9250
v 433.9250 0.0000 31.0750
v 433.9250 0.0000 33.9250
v 433.9250 3.0000 33.9250
v 433.9250 3.0000 31.0750
v 431.0750 0.0000 33.9250
v 431.0750 0.0000 31.0750
v 431.0750 3.0000 31.0750
v 431.0750 3.0000 33.9250
v 433.5750 0.0000 31.0750
v 433.5750 0.0000 33.9250
v 436.4250 0.0000 33.9250
v 436.4250 0.0000 31.0750
v 433.5750 3.0000 31.0750
v 436.4250 3.0000 31.0750
v 436.4250 3.0000 33.9250
v 433.5750 3.0000 33.9250
v 433.5750 0.0000 31.0750
v 436.4250 0.0000 31.0750
v 436.4250 3.0000 31.0750
v 433.5750 3.0000 31.0750
v 436.4250 0.0000 33.9250
v 433.5750 0.0000 33.9250
v 433.5750 3.0000 33.9250
v 436.4250 3.0000 33.9250
v 436.4250 0.0000 31.0750
v 436.4250 0.0000 33.9250
v 436.4250 3.0000 33.9250
v 436.4250 3.0000 31.0750
v 433.5750 0.0000 33.9250
v 433.5750 0.0000 31.0750
v 433.5750 3.0000 31.0750
v 433.5750 3.0000 33.9250
v 406.0750 0.0000 33.5750
v 408.9250 0.0000 33.5750
v 408.9250 0.0000 36.4250
v 406.0750 0.0000 36.4250
v 406.0750 3.0000 33.5750
v 408.9250 3.0000 33.5750
v 408.9250 3.0000 36.4250
v 406.0750 3.0000 36.4250
v 416.0750 0.0000 33.5750
v 416.0750 0.0000 36.4250
v 418.9250 0.0000 36.4250
v 418.9250 0.0000 33.5750
v 416.0750 3.0000 33.5750
v 418.9250 3.0000 33.5750
v 418.9250 3.0000 36.4250
v 416.0750 3.0000 36.4250
v 416.0750 0.0000 33.5750
v 418.9250 0.0000 33.5750
v 418.9250 3.0000 33.5750
v 416.0750 3.0000 33.5750
v 418.9250 0.0000 36.4250
v 416.0750 0.0000 36.4250
v 416.0750 3.0000 36.4250
v 418.9250 3.0000 36.4250
v 418.9250 0.0000 33.5750
v 418.9250 0.0000 36.4250
v 418.9250 3.0000 36.4250
v 418.9250 3.0000 33.5750
v 416.0750 0.0000 36.4250
v 416.0750 0.0000 33.5750
v 416.0750 3.0000 33.5750
v 416.0750 3.0000 36.4250
v 421.0750 0.0000 33.5750
v 421.0750 0.0000 36.4250
v 423.9250 0.0000 36.4250
v 423.9250 0.0000 33.5750
v 421.0750 3.0000 33.5750
v 423.9250 3.0000 33.5750
v 423.9250 3.0000 36.4250
v 421.0750 3.0000 36.4250
v 421.0750 0.0000 33.5750
v 423.9250 0.0000 33.5750
v 423.9250 3.0000 33.5750
v 421.0750 3.0000 33.5750
v 423.9250 0.0000 36.4250
v 421.0750 0.0000 36.4250
v 421.0750 3.0000 36.4250
v 423.9250 3.0000 36.4250
v 423.9250 0.0000 33.5750
v 423.9250 0.0000 36.4250
v 423.9250 3.0000 36.4250
v 423.9250 3.0000 33.5750
v 421.0750 0.0000 36.4250
v 421.0750 0.0000 33.5750
v 421.0750 3.0000 33.5750
v 421.0750 3.0000 36.4250
v 429.8250 2.7600 9.8250
v 430.1750 2.7600 9.8250
v 430.1750 2.7600 10.1750
v 429.8250 2.7600 10.1750
v 429.8250 2.8800 9.8250
v 430.1750 2.8800 9.8250
v 430.1750 2.8800 10.1750
v 429.8250 2.8800 10.1750
v 419.8250 2.7600 14.8250
v 420.1750 2.7600 14.8250
v 420.1750 2.7600 15.1750
v 419.8250 2.7600 15.1750
v 419.8250 2.8800 14.8250
v 420.1750 2.8800 14.8250
v 420.1750 2.8800 15.1750
v 419.8250 2.8800 15.1750
v 434.8250 2.7600 14.8250
v 435.1750 2.7600 14.8250
v 435.1750 2.7600 15.1750
v 434.8250 2.7600 15.1750
v 434.8250 2.8800 14.8250
v 435.1750 2.8800 14.8250
v 435.1750 2.8800 15.1750
v 434.8250 2.8800 15.1750
v 409.8250 2.7600 19.8250
v 410.1750 2.7600 19.8250
v 410.1750 2.7600 20.1750
v 409.8250 2.7600 20.1750
v 409.8250 2.8800 19.8250
v 410.1750 2.8800 19.8250
v 410.1750 2.8800 20.1750
v 409.8250 2.8800 20.1750
v 429.8250 2.7600 19.8250
v 430.1750 2.7600 19.8250
v 430.1750 2.7600 20.1750
v 429.8250 2.7600 20.1750
v 429.8250 2.8800 19.8250
v 430.1750 2.8800 19.8250
v 430.1750 2.8800 20.1750
v 429.8250 2.8800 20.1750
v 434.8250 2.7600 24.8250
v 435.1750 2.7600 24.8250
v 435.1750 2.7600 25.1750
v 434.8250 2.7600 25.1750
v 434.8250 2.8800 24.8250
v 435.1750 2.8800 24.8250
v 435.1750 2.8800 25.1750
v 434.8250 2.8800 25.1750
v 414.8250 2.7600 29.8250
v 415.1750 2.7600 29.8250
v 415.1750 2.7600 30.1750
v 414.8250 2.7600 30.1750
v 414.8250 2.8800 29.8250
v 415.1750 2.8800 29.8250
v 415.1750 2.8800 30.1750
v 414.8250 2.8800 30.1750
v 424.8250 2.7600 29.8250
v 425.1750 2.7600 29.8250
v 425.1750 2.7600 30.1750
v 424.8250 2.7600 30.1750
v 424.8250 2.8800 29.8250
v 425.1750 2.8800 29.8250
v 425.1750 2.8800 30.1750
v 424.8250 2.8800 30.1750
v 434.8250 2.7600 29.8250
v 435.1750 2.7600 29.8250
v 435.1750 2.7600 30.1750
v 434.8250 2.7600 30.1750
v 434.8250 2.8800 29.8250
v 435.1750 2.8800 29.8250
v 435.1750 2.8800 30.1750
v 434.8250 2.8800 30.1750
v 419.8250 2.7600 34.8250
v 420.1750 2.7600 34.8250
v 420.1750 2.7600 35.1750
v 419.8250 2.7600 35.1750
v 419.8250 2.8800 34.8250
v 420.1750 2.8800 34.8250
v 420.1750 2.8800 35.1750
v 419.8250 2.8800 35.1750
v 407.6200 2.6000 7.5000
v 407.6200 2.6000 7.5000
v 407.5849 2.6000 7.5849
v 407.5849 2.6000 7.5849
v 407.5000 2.6000 7.6200
v 407.5000 2.6000 7.6200
v 407.4151 2.6000 7.5849
v 407.4151 2.6000 7.5849
v 407.3800 2.6000 7.5000
v 407.3800 2.6000 7.5000
v 407.4151 2.6000 7.4151
v 407.4151 2.6000 7.4151
v 407.5000 2.6000 7.3800
v 407.5000 2.6000 7.3800
v 407.5849 2.6000 7.4151
v 407.5849 2.6000 7.4151
v 407.5000 2.6000 7.5000
v 407.5000 2.6000 7.5000
v 407.5000 2.4800 7.3800
v 435.0000 2.4800 7.3800
v 435.0000 2.4800 7.6200
v 407.5000 2.4800 7.6200
v 407.5000 2.7200 7.3800
v 435.0000 2.7200 7.3800
v 435.0000 2.7200 7.6200
v 407.5000 2.7200 7.6200
v 407.6200 2.6000 17.5000
v 407.6200 2.6000 17.5000
v 407.5849 2.6000 17.5849
v 407.5849 2.6000 17.5849
v 407.5000 2.6000 17.6200
v 407.5000 2.6000 17.6200
v 407.4151 2.6000 17.5849
v 407.4151 2.6000 17.5849
v 407.3800 2.6000 17.5000
v 407.3800 2.6000 17.5000
v 407.4151 2.6000 17.4151
v 407.4151 2.6000 17.4151
v 407.5000 2.6000 17.3800
v 407.5000 2.6000 17.3800
v 407.5849 2.6000 17.4151
v 407.5849 2.6000 17.4151
v 407.5000 2.6000 17.5000
v 407.5000 2.6000 17.5000
v 407.5000 2.4800 17.3800
v 435.0000 2.4800 17.3800
v 435.0000 2.4800 17.6200
v 407.5000 2.4800 17.6200
v 407.5000 2.7200 17.3800
v 435.0000 2.7200 17.3800
v 435.0000 2.7200 17.6200
v 407.5000 2.7200 17.6200
v 407.6200 2.6000 22.5000
v 407.6200 2.6000 22.5000
v 407.5849 2.6000 22.5849
v 407.5849 2.6000 22.5849
v 407.5000 2.6000 22.6200
v 407.5000 2.6000 22.6200
v 407.4151 2.6000 22.5849
v 407.4151 2.6000 22.5849
v 407.3800 2.6000 22.5000
v 407.3800 2.6000 22.5000
v 407.4151 2.6000 22.4151
v 407.4151 2.6000 22.4151
v 407.5000 2.6000 22.3800
v 407.5000 2.6000 22.3800
v 407.5849 2.6000 22.4151
v 407.5849 2.6000 22.4151
v 407.5000 2.6000 22.5000
v 407.5000 2.6000 22.5000
v 407.5000 2.4800 22.3800
v 435.0000 2.4800 22.3800
v 435.0000 2.4800 22.6200
v 407.5000 2.4800 22.6200
v 407.5000 2.7200 22.3800
v 435.0000 2.7200 22.3800
v 435.0000 2.7200 22.6200
v 407.5000 2.7200 22.6200
v 407.6200 2.6000 32.5000
v 407.6200 2.6000 32.5000
v 407.5849 2.6000 32.5849
v 407.5849 2.6000 32.5849
v 407.5000 2.6000 32.6200
v 407.5000 2.6000 32.6200
v 407.4151 2.6000 32.5849
v 407.4151 2.6000 32.5849
v 407.3800 2.6000 32.5000
v 407.3800 2.6000 32.5000
v 407.4151 2.6000 32.4151
v 407.4151 2.6000 32.4151
v 407.5000 2.6000 32.3800
v 407.5000 2.6000 32.3800
v 407.5849 2.6000 32.4151
v 407.5849 2.6000 32.4151
v 407.5000 2.6000 32.5000
v 407.5000 2.6000 32.5000
v 407.5000 2.4800 32.3800
v 435.0000 2.4800 32.3800
v 435.0000 2.4800 32.6200
v 407.5000 2.4800 32.6200
v 407.5000 2.7200 32.3800
v 435.0000 2.7200 32.3800
v 435.0000 2.7200 32.6200
v 407.5000 2.7200 32.6200
vt 203.0375 3.0375
vt 203.0375 4.4625
vt 204.4625 4.4625
vt 204.4625 3.0375
vt 203.0375 3.0375
vt 204.4625 3.0375
vt 204.4625 4.4625
vt 203.0375 4.4625
vt 203.0375 0.0000
vt 204.4625 0.0000
vt 204.4625 1.5000
vt 203.0375 1.5000
vt 204.4625 0.0000
vt 203.0375 0.0000
vt 203.0375 1.5000
vt 204.4625 1.5000
vt 3.0375 0.0000
vt 4.4625 0.0000
vt 4.4625 1.5000
vt 3.0375 1.5000
vt 4.4625 0.0000
vt 3.0375 0.0000
vt 3.0375 1.5000
vt 4.4625 1.5000
vt 205.5375 3.0375
vt 205.5375 4.4625
vt 206.9625 4.4625
vt 206.9625 3.0375
vt 205.5375 3.0375
vt 206.9625 3.0375
vt 206.9625 4.4625
vt 205.5375 4.4625
vt 205.5375 0.0000
vt 206.9625 0.0000
vt 206.9625 1.5000
vt 205.5375 1.5000
vt 206.9625 0.0000
vt 205.5375 0.0000
vt 205.5375 1.5000
vt 206.9625 1.5000
vt 3.0375 0.0000
vt 4.4625 0.0000
vt 4.4625 1.5000
vt 3.0375 1.5000
vt 4.4625 0.0000
vt 3.0375 0.0000
vt 3.0375 1.5000
vt 4.4625 1.5000
vt 206.7875 3.0375
vt 206.7875 4.4625
vt 208.2125 4.4625
vt 208.2125 3.0375
vt 206.7875 3.0375
vt 208.2125 3.0375
vt 208.2125 4.4625
vt 206.7875 4.4625
vt 206.7875 0.0000
vt 208.2125 0.0000
vt 208.2125 1.5000
vt 206.7875 1.5000
vt 208.2125 0.0000
vt 206.7875 0.0000
vt 206.7875 1.5000
vt 208.2125 1.5000
vt 3.0375 0.0000
vt 4.4625 0.0000
vt 4.4625 1.5000
vt 3.0375 1.5000
vt 4.4625 0.0000
vt 3.0375 0.0000
vt 3.0375 1.5000
vt 4.4625 1.5000
vt 210.5375 3.0375
vt 210.5375 4.4625
vt 211.9625 4.4625
vt 211.9625 3.0375
vt 210.5375 3.0375
vt 211.9625 3.0375
vt 211.9625 4.4625
vt 210.5375 4.4625
vt 210.5375 0.0000
vt 211.9625 0.0000
vt 211.9625 1.5000
vt 210.5375 1.5000
vt 211.9625 0.0000
vt 210.5375 0.0000
vt 210.5375 1.5000
vt 211.9625 1.5000
vt 3.0375 0.0000
vt 4.4625 0.0000
vt 4.4625 1.5000
vt 3.0375 1.5000
vt 4.4625 0.0000
vt 3.0375 0.0000
vt 3.0375 1.5000
vt 4.4625 1.5000
vt 211.7875 3.0375
vt 211.7875 4.4625
vt 213.2125 4.4625
vt 213.2125 3.0375
vt 211.7875 3.0375
vt 213.2125 3.0375
vt 213.2125 4.4625
vt 211.7875 4.4625
vt 211.7875 0.0000
vt 213.2125 0.0000
vt 213.2125 1.5000
vt 211.7875 1.5000
vt 213.2125 0.0000
vt 211.7875 0.0000
vt 211.7875 1.5000
vt 213.2125 1.5000
vt 3.0375 0.0000
vt 4.4625 0.0000
vt 4.4625 1.5000
vt 3.0375 1.5000
vt 4.4625 0.0000
vt 3.0375 0.0000
vt 3.0375 1.5000
vt 4.4625 1.5000
vt 213.0375 3.0375
vt 213.0375 4.4625
vt 214.4625 4.4625
vt 214.4625 3.0375
vt 213.0375 3.0375
vt 214.4625 3.0375
vt 214.4625 4.4625
vt 213.0375 4.4625
vt 213.0375 0.0000
vt 214.4625 0.0000
vt 214.4625 1.5000
vt 213.0375 1.5000
vt 214.4625 0.0000
vt 213.0375 0.0000
vt 213.0375 1.5000
vt 214.4625 1.5000
vt 3.0375 0.0000
vt 4.4625 0.0000
vt 4.4625 1.5000
vt 3.0375 1.5000
vt 4.4625 0.0000
vt 3.0375 0.0000
vt 3.0375 1.5000
vt 4.4625 1.5000
vt 215.5375 3.0375
vt 215.5375 4.4625
vt 216.9625 4.4625
vt 216.9625 3.0375
vt 215.5375 3.0375
vt 216.9625 3.0375
vt 216.9625 4.4625
vt 215.5375 4.4625
vt 215.5375 0.0000
vt 216.9625 0.0000
vt 216.9625 1.5000
vt 215.5375 1.5000
vt 216.9625 0.0000
vt 215.5375 0.0000
vt 215.5375 1.5000
vt 216.9625 1.5000
vt 3.0375 0.0000
vt 4.4625 0.0000
vt 4.4625 1.5000
vt 3.0375 1.5000
vt 4.4625 0.0000
vt 3.0375 0.0000
vt 3.0375 1.5000
vt 4.4625 1.5000
vt 203.0375 4.2875
vt 203.0375 5.7125
vt 204.4625 5.7125
vt 204.4625 4.2875
vt 203.0375 4.2875
vt 204.4625 4.2875
vt 204.4625 5.7125
vt 203.0375 5.7125
vt 203.0375 0.0000
vt 204.4625 0.0000
vt 204.4625 1.5000
vt 203.0375 1.5000
vt 204.4625 0.0000
vt 203.0375 0.0000
vt 203.0375 1.5000
vt 204.4625 1.5000
vt 4.2875 0.0000
vt 5.7125 0.0000
vt 5.7125 1.5000
vt 4.2875 1.5000
vt 5.7125 0.0000
vt 4.2875 0.0000
vt 4.2875 1.5000
vt 5.7125 1.5000
vt 205.5375 4.2875
vt 205.5375 5.7125
vt 206.9625 5.7125
vt 206.9625 4.2875
vt 205.5375 4.2875
vt 206.9625 4.2875
vt 206.9625 5.7125
vt 205.5375 5.7125
vt 205.5375 0.0000
vt 206.9625 0.0000
vt 206.9625 1.5000
vt 205.5375 1.5000
vt 206.9625 0.0000
vt 205.5375 0.0000
vt 205.5375 1.5000
vt 206.9625 1.5000
vt 4.2875 0.0000
vt 5.7125 0.0000
vt 5.7125 1.5000
vt 4.2875 1.5000
vt 5.7125 0.0000
vt 4.2875 0.0000
vt 4.2875 1.5000
vt 5.7125 1.5000
vt 210.5375 4.2875
vt 210.5375 5.7125
vt 211.9625 5.7125
vt 211.9625 4.2875
vt 210.5375 4.2875
vt 211.9625 4.2875
vt 211.9625 5.7125
vt 210.5375 5.7125
vt 210.5375 0.0000
vt 211.9625 0.0000
vt 211.9625 1.5000
vt 210.5375 1.5000
vt 211.9625 0.0000
vt 210.5375 0.0000
vt 210.5375 1.5000
vt 211.9625 1.5000
vt 4.2875 0.0000
vt 5.7125 0.0000
vt 5.7125 1.5000
vt 4.2875 1.5000
vt 5.7125 0.0000
vt 4.2875 0.0000
vt 4.2875 1.5000
vt 5.7125 1.5000
vt 215.5375 4.2875
vt 215.5375 5.7125
vt 216.9625 5.7125
vt 216.9625 4.2875
vt 215.5375 4.2875
vt 216.9625 4.2875
vt 216.9625 5.7125
vt 215.5375 5.7125
vt 215.5375 0.0000
vt 216.9625 0.0000
vt 216.9625 1.5000
vt 215.5375 1.5000
vt 216.9625 0.0000
vt 215.5375 0.0000
vt 215.5375 1.5000
vt 216.9625 1.5000
vt 4.2875 0.0000
vt 5.7125 0.0000
vt 5.7125 1.5000
vt 4.2875 1.5000
vt 5.7125 0.0000
vt 4.2875 0.0000
vt 4.2875 1.5000
vt 5.7125 1.5000
vt 203.0375 5.5375
vt 203.0375 6.9625
vt 204.4625 6.9625
vt 204.4625 5.5375
vt 203.0375 5.5375
vt 204.4625 5.5375
vt 204.4625 6.9625
vt 203.0375 6.9625
vt 203.0375 0.0000
vt 204.4625 0.0000
vt 204.4625 1.5000
vt 203.0375 1.5000
vt 204.4625 0.0000
vt 203.0375 0.0000
vt 203.0375 1.5000
vt 204.4625 1.5000
vt 5.5375 0.0000
vt 6.9625 0.0000
vt 6.9625 1.5000
vt 5.5375 1.5000
vt 6.9625 0.0000
vt 5.5375 0.0000
vt 5.5375 1.5000
vt 6.9625 1.5000
vt 204.2875 5.5375
vt 204.2875 6.9625
vt 205.7125 6.9625
vt 205.7125 5.5375
vt 204.2875 5.5375
vt 205.7125 5.5375
vt 205.7125 6.9625
vt 204.2875 6.9625
vt 204.2875 0.0000
vt 205.7125 0.0000
vt 205.7125 1.5000
vt 204.2875 1.5000
vt 205.7125 0.0000
vt 204.2875 0.0000
vt 204.2875 1.5000
vt 205.7125 1.5000
vt 5.5375 0.0000
vt 6.9625 0.0000
vt 6.9625 1.5000
vt 5.5375 1.5000
vt 6.9625 0.0000
vt 5.5375 0.0000
vt 5.5375 1.5000
vt 6.9625 1.5000
vt 205.5375 5.5375
vt 205.5375 6.9625
vt 206.9625 6.9625
vt 206.9625 5.5375
vt 205.5375 5.5375
vt 206.9625 5.5375
vt 206.9625 6.9625
vt 205.5375 6.9625
vt 205.5375 0.0000
vt 206.9625 0.0000
vt 206.9625 1.5000
vt 205.5375 1.5000
vt 206.9625 0.0000
vt 205.5375 0.0000
vt 205.5375 1.5000
vt 206.9625 1.5000
vt 5.5375 0.0000
vt 6.9625 0.0000
vt 6.9625 1.5000
vt 5.5375 1.5000
vt 6.9625 0.0000
vt 5.5375 0.0000
vt 5.5375 1.5000
vt 6.9625 1.5000
vt 208.0375 5.5375
vt 208.0375 6.9625
vt 209.4625 6.9625
vt 209.4625 5.5375
vt 208.0375 5.5375
vt 209.4625 5.5375
vt 209.4625 6.9625
vt 208.0375 6.9625
vt 208.0375 0.0000
vt 209.4625 0.0000
vt 209.4625 1.5000
vt 208.0375 1.5000
vt 209.4625 0.0000
vt 208.0375 0.0000
vt 208.0375 1.5000
vt 209.4625 1.5000
vt 5.5375 0.0000
vt 6.9625 0.0000
vt 6.9625 1.5000
vt 5.5375 1.5000
vt 6.9625 0.0000
vt 5.5375 0.0000
vt 5.5375 1.5000
vt 6.9625 1.5000
vt 213.0375 5.5375
vt 213.0375 6.9625
vt 214.4625 6.9625
vt 214.4625 5.5375
vt 213.0375 5.5375
vt 214.4625 5.5375
vt 214.4625 6.9625
vt 213.0375 6.9625
vt 213.0375 0.0000
vt 214.4625 0.0000
vt 214.4625 1.5000
vt 213.0375 1.5000
vt 214.4625 0.0000
vt 213.0375 0.0000
vt 213.0375 1.5000
vt 214.4625 1.5000
vt 5.5375 0.0000
vt 6.9625 0.0000
vt 6.9625 1.5000
vt 5.5375 1.5000
vt 6.9625 0.0000
vt 5.5375 0.0000
vt 5.5375 1.5000
vt 6.9625 1.5000
vt 215.5375 5.5375
vt 215.5375 6.9625
vt 216.9625 6.9625
vt 216.9625 5.5375
vt 215.5375 5.5375
vt 216.9625 5.5375
vt 216.9625 6.9625
vt 215.5375 6.9625
vt 215.5375 0.0000
vt 216.9625 0.0000
vt 216.9625 1.5000
vt 215.5375 1.5000
vt 216.9625 0.0000
vt 215.5375 0.0000
vt 215.5375 1.5000
vt 216.9625 1.5000
vt 5.5375 0.0000
vt 6.9625 0.0000
vt 6.9625 1.5000
vt 5.5375 1.5000
vt 6.9625 0.0000
vt 5.5375 0.0000
vt 5.5375 1.5000
vt 6.9625 1.5000
vt 208.0375 6.7875
vt 208.0375 8.2125
vt 209.4625 8.2125
vt 209.4625 6.7875
vt 208.0375 6.7875
vt 209.4625 6.7875
vt 209.4625 8.2125
vt 208.0375 8.2125
vt 208.0375 0.0000
vt 209.4625 0.0000
vt 209.4625 1.5000
vt 208.0375 1.5000
vt 209.4625 0.0000
vt 208.0375 0.0000
vt 208.0375 1.5000
vt 209.4625 1.5000
vt 6.7875 0.0000
vt 8.2125 0.0000
vt 8.2125 1.5000
vt 6.7875 1.5000
vt 8.2125 0.0000
vt 6.7875 0.0000
vt 6.7875 1.5000
vt 8.2125 1.5000
vt 213.0375 6.7875
vt 213.0375 8.2125
vt 214.4625 8.2125
vt 214.4625 6.7875
vt 213.0375 6.7875
vt 214.4625 6.7875
vt 214.4625 8.2125
vt 213.0375 8.2125
vt 213.0375 0.0000
vt 214.4625 0.0000
vt 214.4625 1.5000
vt 213.0375 1.5000
vt 214.4625 0.0000
vt 213.0375 0.0000
vt 213.0375 1.5000
vt 214.4625 1.5000
vt 6.7875 0.0000
vt 8.2125 0.0000
vt 8.2125 1.5000
vt 6.7875 1.5000
vt 8.2125 0.0000
vt 6.7875 0.0000
vt 6.7875 1.5000
vt 8.2125 1.5000
vt 203.0375 8.0375
vt 203.0375 9.4625
vt 204.4625 9.4625
vt 204.4625 8.0375
vt 203.0375 8.0375
vt 204.4625 8.0375
vt 204.4625 9.4625
vt 203.0375 9.4625
vt 203.0375 0.0000
vt 204.4625 0.0000
vt 204.4625 1.5000
vt 203.0375 1.5000
vt 204.4625 0.0000
vt 203.0375 0.0000
vt 203.0375 1.5000
vt 204.4625 1.5000
vt 8.0375 0.0000
vt 9.4625 0.0000
vt 9.4625 1.5000
vt 8.0375 1.5000
vt 9.4625 0.0000
vt 8.0375 0.0000
vt 8.0375 1.5000
vt 9.4625 1.5000
vt 205.5375 8.0375
vt 205.5375 9.4625
vt 206.9625 9.4625
vt 206.9625 8.0375
vt 205.5375 8.0375
vt 206.9625 8.0375
vt 206.9625 9.4625
vt 205.5375 9.4625
vt 205.5375 0.0000
vt 206.9625 0.0000
vt 206.9625 1.5000
vt 205.5375 1.5000
vt 206.9625 0.0000
vt 205.5375 0.0000
vt 205.5375 1.5000
vt 206.9625 1.5000
vt 8.0375 0.0000
vt 9.4625 0.0000
vt 9.4625 1.5000
vt 8.0375 1.5000
vt 9.4625 0.0000
vt 8.0375 0.0000
vt 8.0375 1.5000
vt 9.4625 1.5000
vt 208.0375 8.0375
vt 208.0375 9.4625
vt 209.4625 9.4625
vt 209.4625 8.0375
vt 208.0375 8.0375
vt 209.4625 8.0375
vt 209.4625 9.4625
vt 208.0375 9.4625
vt 208.0375 0.0000
vt 209.4625 0.0000
vt 209.4625 1.5000
vt 208.0375 1.5000
vt 209.4625 0.0000
vt 208.0375 0.0000
vt 208.0375 1.5000
vt 209.4625 1.5000
vt 8.0375 0.0000
vt 9.4625 0.0000
vt 9.4625 1.5000
vt 8.0375 1.5000
vt 9.4625 0.0000
vt 8.0375 0.0000
vt 8.0375 1.5000
vt 9.4625 1.5000
vt 210.5375 8.0375
vt 210.5375 9.4625
vt 211.9625 9.4625
vt 211.9625 8.0375
vt 210.5375 8.0375
vt 211.9625 8.0375
vt 211.9625 9.4625
vt 210.5375 9.4625
vt 210.5375 0.0000
vt 211.9625 0.0000
vt 211.9625 1.5000
vt 210.5375 1.5000
vt 211.9625 0.0000
vt 210.5375 0.0000
vt 210.5375 1.5000
vt 211.9625 1.5000
vt 8.0375 0.0000
vt 9.4625 0.0000
vt 9.4625 1.5000
vt 8.0375 1.5000
vt 9.4625 0.0000
vt 8.0375 0.0000
vt 8.0375 1.5000
vt 9.4625 1.5000
vt 215.5375 8.0375
vt 215.5375 9.4625
vt 216.9625 9.4625
vt 216.9625 8.0375
vt 215.5375 8.0375
vt 216.9625 8.0375
vt 216.9625 9.4625
vt 215.5375 9.4625
vt 215.5375 0.0000
vt 216.9625 0.0000
vt 216.9625 1.5000
vt 215.5375 1.5000
vt 216.9625 0.0000
vt 215.5375 0.0000
vt 215.5375 1.5000
vt 216.9625 1.5000
vt 8.0375 0.0000
vt 9.4625 0.0000
vt 9.4625 1.5000
vt 8.0375 1.5000
vt 9.4625 0.0000
vt 8.0375 0.0000
vt 8.0375 1.5000
vt 9.4625 1.5000
vt 210.5375 9.2875
vt 210.5375 10.7125
vt 211.9625 10.7125
vt 211.9625 9.2875
vt 210.5375 9.2875
vt 211.9625 9.2875
vt 211.9625 10.7125
vt 210.5375 10.7125
vt 210.5375 0.0000
vt 211.9625 0.0000
vt 211.9625 1.5000
vt 210.5375 1.5000
vt 211.9625 0.0000
vt 210.5375 0.0000
vt 210.5375 1.5000
vt 211.9625 1.5000
vt 9.2875 0.0000
vt 10.7125 0.0000
vt 10.7125 1.5000
vt 9.2875 1.5000
vt 10.7125 0.0000
vt 9.2875 0.0000
vt 9.2875 1.5000
vt 10.7125 1.5000
vt 215.5375 9.2875
vt 215.5375 10.7125
vt 216.9625 10.7125
vt 216.9625 9.2875
vt 215.5375 9.2875
vt 216.9625 9.2875
vt 216.9625 10.7125
vt 215.5375 10.7125
vt 215.5375 0.0000
vt 216.9625 0.0000
vt 216.9625 1.5000
vt 215.5375 1.5000
vt 216.9625 0.0000
vt 215.5375 0.0000
vt 215.5375 1.5000
vt 216.9625 1.5000
vt 9.2875 0.0000
vt 10.7125 0.0000
vt 10.7125 1.5000
vt 9.2875 1.5000
vt 10.7125 0.0000
vt 9.2875 0.0000
vt 9.2875 1.5000
vt 10.7125 1.5000
vt 203.0375 10.5375
vt 203.0375 11.9625
vt 204.4625 11.9625
vt 204.4625 10.5375
vt 203.0375 10.5375
vt 204.4625 10.5375
vt 204.4625 11.9625
vt 203.0375 11.9625
vt 203.0375 0.0000
vt 204.4625 0.0000
vt 204.4625 1.5000
vt 203.0375 1.5000
vt 204.4625 0.0000
vt 203.0375 0.0000
vt 203.0375 1.5000
vt 204.4625 1.5000
vt 10.5375 0.0000
vt 11.9625 0.0000
vt 11.9625 1.5000
vt 10.5375 1.5000
vt 11.9625 0.0000
vt 10.5375 0.0000
vt 10.5375 1.5000
vt 11.9625 1.5000
vt 204.2875 10.5375
vt 204.2875 11.9625
vt 205.7125 11.9625
vt 205.7125 10.5375
vt 204.2875 10.5375
vt 205.7125 10.5375
vt 205.7125 11.9625
vt 204.2875 11.9625
vt 204.2875 0.0000
vt 205.7125 0.0000
vt 205.7125 1.5000
vt 204.2875 1.5000
vt 205.7125 0.0000
vt 204.2875 0.0000
vt 204.2875 1.5000
vt 205.7125 1.5000
vt 10.5375 0.0000
vt 11.9625 0.0000
vt 11.9625 1.5000
vt 10.5375 1.5000
vt 11.9625 0.0000
vt 10.5375 0.0000
vt 10.5375 1.5000
vt 11.9625 1.5000
vt 206.7875 10.5375
vt 206.7875 11.9625
vt 208.2125 11.9625
vt 208.2125 10.5375
vt 206.7875 10.5375
vt 208.2125 10.5375
vt 208.2125 11.9625
vt 206.7875 11.9625
vt 206.7875 0.0000
vt 208.2125 0.0000
vt 208.2125 1.5000
vt 206.7875 1.5000
vt 208.2125 0.0000
vt 206.7875 0.0000
vt 206.7875 1.5000
vt 208.2125 1.5000
vt 10.5375 0.0000
vt 11.9625 0.0000
vt 11.9625 1.5000
vt 10.5375 1.5000
vt 11.9625 0.0000
vt 10.5375 0.0000
vt 10.5375 1.5000
vt 11.9625 1.5000
vt 208.0375 10.5375
vt 208.0375 11.9625
vt 209.4625 11.9625
vt 209.4625 10.5375
vt 208.0375 10.5375
vt 209.4625 10.5375
vt 209.4625 11.9625
vt 208.0375 11.9625
vt 208.0375 0.0000
vt 209.4625 0.0000
vt 209.4625 1.5000
vt 208.0375 1.5000
vt 209.4625 0.0000
vt 208.0375 0.0000
vt 208.0375 1.5000
vt 209.4625 1.5000
vt 10.5375 0.0000
vt 11.9625 0.0000
vt 11.9625 1.5000
vt 10.5375 1.5000
vt 11.9625 0.0000
vt 10.5375 0.0000
vt 10.5375 1.5000
vt 11.9625 1.5000
vt 209.2875 10.5375
vt 209.2875 11.9625
vt 210.7125 11.9625
vt 210.7125 10.5375
vt 209.2875 10.5375
vt 210.7125 10.5375
vt 210.7125 11.9625
vt 209.2875 11.9625
vt 209.2875 0.0000
vt 210.7125 0.0000
vt 210.7125 1.5000
vt 209.2875 1.5000
vt 210.7125 0.0000
vt 209.2875 0.0000
vt 209.2875 1.5000
vt 210.7125 1.5000
vt 10.5375 0.0000
vt 11.9625 0.0000
vt 11.9625 1.5000
vt 10.5375 1.5000
vt 11.9625 0.0000
vt 10.5375 0.0000
vt 10.5375 1.5000
vt 11.9625 1.5000
vt 210.5375 10.5375
vt 210.5375 11.9625
vt 211.9625 11.9625
vt 211.9625 10.5375
vt 210.5375 10.5375
vt 211.9625 10.5375
vt 211.9625 11.9625
vt 210.5375 11.9625
vt 210.5375 0.0000
vt 211.9625 0.0000
vt 211.9625 1.5000
vt 210.5375 1.5000
vt 211.9625 0.0000
vt 210.5375 0.0000
vt 210.5375 1.5000
vt 211.9625 1.5000
vt 10.5375 0.0000
vt 11.9625 0.0000
vt 11.9625 1.5000
vt 10.5375 1.5000
vt 11.9625 0.0000
vt 10.5375 0.0000
vt 10.5375 1.5000
vt 11.9625 1.5000
vt 213.0375 10.5375
vt 213.0375 11.9625
vt 214.4625 11.9625
vt 214.4625 10.5375
vt 213.0375 10.5375
vt 214.4625 10.5375
vt 214.4625 11.9625
vt 213.0375 11.9625
vt 213.0375 0.0000
vt 214.4625 0.0000
vt 214.4625 1.5000
vt 213.0375 1.5000
vt 214.4625 0.0000
vt 213.0375 0.0000
vt 213.0375 1.5000
vt 214.4625 1.5000
vt 10.5375 0.0000
vt 11.9625 0.0000
vt 11.9625 1.5000
vt 10.5375 1.5000
vt 11.9625 0.0000
vt 10.5375 0.0000
vt 10.5375 1.5000
vt 11.9625 1.5000
vt 215.5375 10.5375
vt 215.5375 11.9625
vt 216.9625 11.9625
vt 216.9625 10.5375
vt 215.5375 10.5375
vt 216.9625 10.5375
vt 216.9625 11.9625
vt 215.5375 11.9625
vt 215.5375 0.0000
vt 216.9625 0.0000
vt 216.9625 1.5000
vt 215.5375 1.5000
vt 216.9625 0.0000
vt 215.5375 0.0000
vt 215.5375 1.5000
vt 216.9625 1.5000
vt 10.5375 0.0000
vt 11.9625 0.0000
vt 11.9625 1.5000
vt 10.5375 1.5000
vt 11.9625 0.0000
vt 10.5375 0.0000
vt 10.5375 1.5000
vt 11.9625 1.5000
vt 216.7875 10.5375
vt 216.7875 11.9625
vt 218.2125 11.9625
vt 218.2125 10.5375
vt 216.7875 10.5375
vt 218.2125 10.5375
vt 218.2125 11.9625
vt 216.7875 11.9625
vt 216.7875 0.0000
vt 218.2125 0.0000
vt 218.2125 1.5000
vt 216.7875 1.5000
vt 218.2125 0.0000
vt 216.7875 0.0000
vt 216.7875 1.5000
vt 218.2125 1.5000
vt 10.5375 0.0000
vt 11.9625 0.0000
vt 11.9625 1.5000
vt 10.5375 1.5000
vt 11.9625 0.0000
vt 10.5375 0.0000
vt 10.5375 1.5000
vt 11.9625 1.5000
vt 203.0375 13.0375
vt 203.0375 14.4625
vt 204.4625 14.4625
vt 204.4625 13.0375
vt 203.0375 13.0375
vt 204.4625 13.0375
vt 204.4625 14.4625
vt 203.0375 14.4625
vt 203.0375 0.0000
vt 204.4625 0.0000
vt 204.4625 1.5000
vt 203.0375 1.5000
vt 204.4625 0.0000
vt 203.0375 0.0000
vt 203.0375 1.5000
vt 204.4625 1.5000
vt 13.0375 0.0000
vt 14.4625 0.0000
vt 14.4625 1.5000
vt 13.0375 1.5000
vt 14.4625 0.0000
vt 13.0375 0.0000
vt 13.0375 1.5000
vt 14.4625 1.5000
vt 204.2875 13.0375
vt 204.2875 14.4625
vt 205.7125 14.4625
vt 205.7125 13.0375
vt 204.2875 13.0375
vt 205.7125 13.0375
vt 205.7125 14.4625
vt 204.2875 14.4625
vt 204.2875 0.0000
vt 205.7125 0.0000
vt 205.7125 1.5000
vt 204.2875 1.5000
vt 205.7125 0.0000
vt 204.2875 0.0000
vt 204.2875 1.5000
vt 205.7125 1.5000
vt 13.0375 0.0000
vt 14.4625 0.0000
vt 14.4625 1.5000
vt 13.0375 1.5000
vt 14.4625 0.0000
vt 13.0375 0.0000
vt 13.0375 1.5000
vt 14.4625 1.5000
vt 205.5375 13.0375
vt 205.5375 14.4625
vt 206.9625 14.4625
vt 206.9625 13.0375
vt 205.5375 13.0375
vt 206.9625 13.0375
vt 206.9625 14.4625
vt 205.5375 14.4625
vt 205.5375 0.0000
vt 206.9625 0.0000
vt 206.9625 1.5000
vt 205.5375 1.5000
vt 206.9625 0.0000
vt 205.5375 0.0000
vt 205.5375 1.5000
vt 206.9625 1.5000
vt 13.0375 0.0000
vt 14.4625 0.0000
vt 14.4625 1.5000
vt 13.0375 1.5000
vt 14.4625 0.0000
vt 13.0375 0.0000
vt 13.0375 1.5000
vt 14.4625 1.5000
vt 210.5375 13.0375
vt 210.5375 14.4625
vt 211.9625 14.4625
vt 211.9625 13.0375
vt 210.5375 13.0375
vt 211.9625 13.0375
vt 211.9625 14.4625
vt 210.5375 14.4625
vt 210.5375 0.0000
vt 211.9625 0.0000
vt 211.9625 1.5000
vt 210.5375 1.5000
vt 211.9625 0.0000
vt 210.5375 0.0000
vt 210.5375 1.5000
vt 211.9625 1.5000
vt 13.0375 0.0000
vt 14.4625 0.0000
vt 14.4625 1.5000
vt 13.0375 1.5000
vt 14.4625 0.0000
vt 13.0375 0.0000
vt 13.0375 1.5000
vt 14.4625 1.5000
vt 211.7875 13.0375
vt 211.7875 14.4625
vt 213.2125 14.4625
vt 213.2125 13.0375
vt 211.7875 13.0375
vt 213.2125 13.0375
vt 213.2125 14.4625
vt 211.7875 14.4625
vt 211.7875 0.0000
vt 213.2125 0.0000
vt 213.2125 1.5000
vt 211.7875 1.5000
vt 213.2125 0.0000
vt 211.7875 0.0000
vt 211.7875 1.5000
vt 213.2125 1.5000
vt 13.0375 0.0000
vt 14.4625 0.0000
vt 14.4625 1.5000
vt 13.0375 1.5000
vt 14.4625 0.0000
vt 13.0375 0.0000
vt 13.0375 1.5000
vt 14.4625 1.5000
vt 213.0375 13.0375
vt 213.0375 14.4625
vt 214.4625 14.4625
vt 214.4625 13.0375
vt 213.0375 13.0375
vt 214.4625 13.0375
vt 214.4625 14.4625
vt 213.0375 14.4625
vt 213.0375 0.0000
vt 214.4625 0.0000
vt 214.4625 1.5000
vt 213.0375 1.5000
vt 214.4625 0.0000
vt 213.0375 0.0000
vt 213.0375 1.5000
vt 214.4625 1.5000
vt 13.0375 0.0000
vt 14.4625 0.0000
vt 14.4625 1.5000
vt 13.0375 1.5000
vt 14.4625 0.0000
vt 13.0375 0.0000
vt 13.0375 1.5000
vt 14.4625 1.5000
vt 214.2875 13.0375
vt 214.2875 14.4625
vt 215.7125 14.4625
vt 215.7125 13.0375
vt 214.2875 13.0375
vt 215.7125 13.0375
vt 215.7125 14.4625
vt 214.2875 14.4625
vt 214.2875 0.0000
vt 215.7125 0.0000
vt 215.7125 1.5000
vt 214.2875 1.5000
vt 215.7125 0.0000
vt 214.2875 0.0000
vt 214.2875 1.5000
vt 215.7125 1.5000
vt 13.0375 0.0000
vt 14.4625 0.0000
vt 14.4625 1.5000
vt 13.0375 1.5000
vt 14.4625 0.0000
vt 13.0375 0.0000
vt 13.0375 1.5000
vt 14.4625 1.5000
vt 215.5375 13.0375
vt 215.5375 14.4625
vt 216.9625 14.4625
vt 216.9625 13.0375
vt 215.5375 13.0375
vt 216.9625 13.0375
vt 216.9625 14.4625
vt 215.5375 14.4625
vt 215.5375 0.0000
vt 216.9625 0.0000
vt 216.9625 1.5000
vt 215.5375 1.5000
vt 216.9625 0.0000
vt 215.5375 0.0000
vt 215.5375 1.5000
vt 216.9625 1.5000
vt 13.0375 0.0000
vt 14.4625 0.0000
vt 14.4625 1.5000
vt 13.0375 1.5000
vt 14.4625 0.0000
vt 13.0375 0.0000
vt 13.0375 1.5000
vt 14.4625 1.5000
vt 210.5375 14.2875
vt 210.5375 15.7125
vt 211.9625 15.7125
vt 211.9625 14.2875
vt 210.5375 14.2875
vt 211.9625 14.2875
vt 211.9625 15.7125
vt 210.5375 15.7125
vt 210.5375 0.0000
vt 211.9625 0.0000
vt 211.9625 1.5000
vt 210.5375 1.5000
vt 211.9625 0.0000
vt 210.5375 0.0000
vt 210.5375 1.5000
vt 211.9625 1.5000
vt 14.2875 0.0000
vt 15.7125 0.0000
vt 15.7125 1.5000
vt 14.2875 1.5000
vt 15.7125 0.0000
vt 14.2875 0.0000
vt 14.2875 1.5000
vt 15.7125 1.5000
vt 203.0375 15.5375
vt 203.0375 16.9625
vt 204.4625 16.9625
vt 204.4625 15.5375
vt 203.0375 15.5375
vt 204.4625 15.5375
vt 204.4625 16.9625
vt 203.0375 16.9625
vt 203.0375 0.0000
vt 204.4625 0.0000
vt 204.4625 1.5000
vt 203.0375 1.5000
vt 204.4625 0.0000
vt 203.0375 0.0000
vt 203.0375 1.5000
vt 204.4625 1.5000
vt 15.5375 0.0000
vt 16.9625 0.0000
vt 16.9625 1.5000
vt 15.5375 1.5000
vt 16.9625 0.0000
vt 15.5375 0.0000
vt 15.5375 1.5000
vt 16.9625 1.5000
vt 208.0375 15.5375
vt 208.0375 16.9625
vt 209.4625 16.9625
vt 209.4625 15.5375
vt 208.0375 15.5375
vt 209.4625 15.5375
vt 209.4625 16.9625
vt 208.0375 16.9625
vt 208.0375 0.0000
vt 209.4625 0.0000
vt 209.4625 1.5000
vt 208.0375 1.5000
vt 209.4625 0.0000
vt 208.0375 0.0000
vt 208.0375 1.5000
vt 209.4625 1.5000
vt 15.5375 0.0000
vt 16.9625 0.0000
vt 16.9625 1.5000
vt 15.5375 1.5000
vt 16.9625 0.0000
vt 15.5375 0.0000
vt 15.5375 1.5000
vt 16.9625 1.5000
vt 210.5375 15.5375
vt 210.5375 16.9625
vt 211.9625 16.9625
vt 211.9625 15.5375
vt 210.5375 15.5375
vt 211.9625 15.5375
vt 211.9625 16.9625
vt 210.5375 16.9625
vt 210.5375 0.0000
vt 211.9625 0.0000
vt 211.9625 1.5000
vt 210.5375 1.5000
vt 211.9625 0.0000
vt 210.5375 0.0000
vt 210.5375 1.5000
vt 211.9625 1.5000
vt 15.5375 0.0000
vt 16.9625 0.0000
vt 16.9625 1.5000
vt 15.5375 1.5000
vt 16.9625 0.0000
vt 15.5375 0.0000
vt 15.5375 1.5000
vt 16.9625 1.5000
vt 211.7875 15.5375
vt 211.7875 16.9625
vt 213.2125 16.9625
vt 213.2125 15.5375
vt 211.7875 15.5375
vt 213.2125 15.5375
vt 213.2125 16.9625
vt 211.7875 16.9625
vt 211.7875 0.0000
vt 213.2125 0.0000
vt 213.2125 1.5000
vt 211.7875 1.5000
vt 213.2125 0.0000
vt 211.7875 0.0000
vt 211.7875 1.5000
vt 213.2125 1.5000
vt 15.5375 0.0000
vt 16.9625 0.0000
vt 16.9625 1.5000
vt 15.5375 1.5000
vt 16.9625 0.0000
vt 15.5375 0.0000
vt 15.5375 1.5000
vt 16.9625 1.5000
vt 213.0375 15.5375
vt 213.0375 16.9625
vt 214.4625 16.9625
vt 214.4625 15.5375
vt 213.0375 15.5375
vt 214.4625 15.5375
vt 214.4625 16.9625
vt 213.0375 16.9625
vt 213.0375 0.0000
vt 214.4625 0.0000
vt 214.4625 1.5000
vt 213.0375 1.5000
vt 214.4625 0.0000
vt 213.0375 0.0000
vt 213.0375 1.5000
vt 214.4625 1.5000
vt 15.5375 0.0000
vt 16.9625 0.0000
vt 16.9625 1.5000
vt 15.5375 1.5000
vt 16.9625 0.0000
vt 15.5375 0.0000
vt 15.5375 1.5000
vt 16.9625 1.5000
vt 215.5375 15.5375
vt 215.5375 16.9625
vt 216.9625 16.9625
vt 216.9625 15.5375
vt 215.5375 15.5375
vt 216.9625 15.5375
vt 216.9625 16.9625
vt 215.5375 16.9625
vt 215.5375 0.0000
vt 216.9625 0.0000
vt 216.9625 1.5000
vt 215.5375 1.5000
vt 216.9625 0.0000
vt 215.5375 0.0000
vt 215.5375 1.5000
vt 216.9625 1.5000
vt 15.5375 0.0000
vt 16.9625 0.0000
vt 16.9625 1.5000
vt 15.5375 1.5000
vt 16.9625 0.0000
vt 15.5375 0.0000
vt 15.5375 1.5000
vt 16.9625 1.5000
vt 216.7875 15.5375
vt 216.7875 16.9625
vt 218.2125 16.9625
vt 218.2125 15.5375
vt 216.7875 15.5375
vt 218.2125 15.5375
vt 218.2125 16.9625
vt 216.7875 16.9625
vt 216.7875 0.0000
vt 218.2125 0.0000
vt 218.2125 1.5000
vt 216.7875 1.5000
vt 218.2125 0.0000
vt 216.7875 0.0000
vt 216.7875 1.5000
vt 218.2125 1.5000
vt 15.5375 0.0000
vt 16.9625 0.0000
vt 16.9625 1.5000
vt 15.5375 1.5000
vt 16.9625 0.0000
vt 15.5375 0.0000
vt 15.5375 1.5000
vt 16.9625 1.5000
vt 208.0375 16.7875
vt 208.0375 18.2125
vt 209.4625 18.2125
vt 209.4625 16.7875
vt 208.0375 16.7875
vt 209.4625 16.7875
vt 209.4625 18.2125
vt 208.0375 18.2125
vt 208.0375 0.0000
vt 209.4625 0.0000
vt 209.4625 1.5000
vt 208.0375 1.5000
vt 209.4625 0.0000
vt 208.0375 0.0000
vt 208.0375 1.5000
vt 209.4625 1.5000
vt 16.7875 0.0000
vt 18.2125 0.0000
vt 18.2125 1.5000
vt 16.7875 1.5000
vt 18.2125 0.0000
vt 16.7875 0.0000
vt 16.7875 1.5000
vt 18.2125 1.5000
vt 210.5375 16.7875
vt 210.5375 18.2125
vt 211.9625 18.2125
vt 211.9625 16.7875
vt 210.5375 16.7875
vt 211.9625 16.7875
vt 211.9625 18.2125
vt 210.5375 18.2125
vt 210.5375 0.0000
vt 211.9625 0.0000
vt 211.9625 1.5000
vt 210.5375 1.5000
vt 211.9625 0.0000
vt 210.5375 0.0000
vt 210.5375 1.5000
vt 211.9625 1.5000
vt 16.7875 0.0000
vt 18.2125 0.0000
vt 18.2125 1.5000
vt 16.7875 1.5000
vt 18.2125 0.0000
vt 16.7875 0.0000
vt 16.7875 1.5000
vt 18.2125 1.5000
usemtl rust
f 73 76 75 74
f 77 78 79 80
f 73 74 78 77
f 75 76 80 79
f 74 75 79 78
f 76 73 77 80
f 369 372 371 370
f 373 374 375 376
f 369 370 374 373
f 371 372 376 375
f 370 371 375 374
f 372 369 373 376
f 521 524 523 522
f 525 526 527 528
f 521 522 526 525
f 523 524 528 527
f 522 523 527 526
f 524 521 525 528
f 577 580 579 578
f 581 582 583 584
f 577 578 582 581
f 579 580 584 583
f 578 579 583 582
f 580 577 581 584
f 705 708 707 706
f 709 710 711 712
f 705 706 710 709
f 707 708 712 711
f 706 707 711 710
f 708 705 709 712
f 1217 1220 1219 1218
f 1221 1222 1223 1224
f 1217 1218 1222 1221
f 1219 1220 1224 1223
f 1218 1219 1223 1222
f 1220 1217 1221 1224
f 1273 1276 1275 1274
f 1277 1278 1279 1280
f 1273 1274 1278 1277
f 1275 1276 1280 1279
f 1274 1275 1279 1278
f 1276 1273 1277 1280
usemtl lamp_sick
f 1329 1332 1331 1330
f 1333 1334 1335 1336
f 1329 1330 1334 1333
f 1331 1332 1336 1335
f 1330 1331 1335 1334
f 1332 1329 1333 1336
f 1337 1340 1339 1338
f 1341 1342 1343 1344
f 1337 1338 1342 1341
f 1339 1340 1344 1343
f 1338 1339 1343 1342
f 1340 1337 1341 1344
f 1345 1348 1347 1346
f 1349 1350 1351 1352
f 1345 1346 1350 1349
f 1347 1348 1352 1351
f 1346 1347 1351 1350
f 1348 1345 1349 1352
f 1353 1356 1355 1354
f 1357 1358 1359 1360
f 1353 1354 1358 1357
f 1355 1356 1360 1359
f 1354 1355 1359 1358
f 1356 1353 1357 1360
f 1361 1364 1363 1362
f 1365 1366 1367 1368
f 1361 1362 1366 1365
f 1363 1364 1368 1367
f 1362 1363 1367 1366
f 1364 1361 1365 1368
f 1369 1372 1371 1370
f 1373 1374 1375 1376
f 1369 1370 1374 1373
f 1371 1372 1376 1375
f 1370 1371 1375 1374
f 1372 1369 1373 1376
f 1377 1380 1379 1378
f 1381 1382 1383 1384
f 1377 1378 1382 1381
f 1379 1380 1384 1383
f 1378 1379 1383 1382
f 1380 1377 1381 1384
f 1385 1388 1387 1386
f 1389 1390 1391 1392
f 1385 1386 1390 1389
f 1387 1388 1392 1391
f 1386 1387 1391 1390
f 1388 1385 1389 1392
f 1393 1396 1395 1394
f 1397 1398 1399 1400
f 1393 1394 1398 1397
f 1395 1396 1400 1399
f 1394 1395 1399 1398
f 1396 1393 1397 1400
f 1401 1404 1403 1402
f 1405 1406 1407 1408
f 1401 1402 1406 1405
f 1403 1404 1408 1407
f 1402 1403 1407 1406
f 1404 1401 1405 1408
usemtl rust
f 1409 1411 1412 1410
f 1411 1413 1414 1412
f 1413 1415 1416 1414
f 1415 1417 1418 1416
f 1417 1419 1420 1418
f 1419 1421 1422 1420
f 1421 1423 1424 1422
f 1423 1409 1410 1424
f 1425 1410 1412
f 1426 1411 1409
f 1425 1412 1414
f 1426 1413 1411
f 1425 1414 1416
f 1426 1415 1413
f 1425 1416 1418
f 1426 1417 1415
f 1425 1418 1420
f 1426 1419 1417
f 1425 1420 1422
f 1426 1421 1419
f 1425 1422 1424
f 1426 1423 1421
f 1425 1424 1410
f 1426 1409 1423
f 1427 1430 1429 1428
f 1431 1432 1433 1434
f 1427 1428 1432 1431
f 1429 1430 1434 1433
f 1428 1429 1433 1432
f 1430 1427 1431 1434
f 1435 1437 1438 1436
f 1437 1439 1440 1438
f 1439 1441 1442 1440
f 1441 1443 1444 1442
f 1443 1445 1446 1444
f 1445 1447 1448 1446
f 1447 1449 1450 1448
f 1449 1435 1436 1450
f 1451 1436 1438
f 1452 1437 1435
f 1451 1438 1440
f 1452 1439 1437
f 1451 1440 1442
f 1452 1441 1439
f 1451 1442 1444
f 1452 1443 1441
f 1451 1444 1446
f 1452 1445 1443
f 1451 1446 1448
f 1452 1447 1445
f 1451 1448 1450
f 1452 1449 1447
f 1451 1450 1436
f 1452 1435 1449
f 1453 1456 1455 1454
f 1457 1458 1459 1460
f 1453 1454 1458 1457
f 1455 1456 1460 1459
f 1454 1455 1459 1458
f 1456 1453 1457 1460
usemtl pipe
f 1461 1463 1464 1462
f 1463 1465 1466 1464
f 1465 1467 1468 1466
f 1467 1469 1470 1468
f 1469 1471 1472 1470
f 1471 1473 1474 1472
f 1473 1475 1476 1474
f 1475 1461 1462 1476
f 1477 1462 1464
f 1478 1463 1461
f 1477 1464 1466
f 1478 1465 1463
f 1477 1466 1468
f 1478 1467 1465
f 1477 1468 1470
f 1478 1469 1467
f 1477 1470 1472
f 1478 1471 1469
f 1477 1472 1474
f 1478 1473 1471
f 1477 1474 1476
f 1478 1475 1473
f 1477 1476 1462
f 1478 1461 1475
f 1479 1482 1481 1480
f 1483 1484 1485 1486
f 1479 1480 1484 1483
f 1481 1482 1486 1485
f 1480 1481 1485 1484
f 1482 1479 1483 1486
f 1487 1489 1490 1488
f 1489 1491 1492 1490
f 1491 1493 1494 1492
f 1493 1495 1496 1494
f 1495 1497 1498 1496
f 1497 1499 1500 1498
f 1499 1501 1502 1500
f 1501 1487 1488 1502
f 1503 1488 1490
f 1504 1489 1487
f 1503 1490 1492
f 1504 1491 1489
f 1503 1492 1494
f 1504 1493 1491
f 1503 1494 1496
f 1504 1495 1493
f 1503 1496 1498
f 1504 1497 1495
f 1503 1498 1500
f 1504 1499 1497
f 1503 1500 1502
f 1504 1501 1499
f 1503 1502 1488
f 1504 1487 1501
f 1505 1508 1507 1506
f 1509 1510 1511 1512
f 1505 1506 1510 1509
f 1507 1508 1512 1511
f 1506 1507 1511 1510
f 1508 1505 1509 1512
usemtl grime_wall
f 1/1 2/2 3/3 4/4
f 5/5 6/6 7/7 8/8
f 9/9 10/10 11/11 12/12
f 13/13 14/14 15/15 16/16
f 17/17 18/18 19/19 20/20
f 21/21 22/22 23/23 24/24
f 25/25 26/26 27/27 28/28
f 29/29 30/30 31/31 32/32
f 33/33 34/34 35/35 36/36
f 37/37 38/38 39/39 40/40
f 41/41 42/42 43/43 44/44
f 45/45 46/46 47/47 48/48
f 49/49 50/50 51/51 52/52
f 53/53 54/54 55/55 56/56
f 57/57 58/58 59/59 60/60
f 61/61 62/62 63/63 64/64
f 65/65 66/66 67/67 68/68
f 69/69 70/70 71/71 72/72
f 81/73 82/74 83/75 84/76
f 85/77 86/78 87/79 88/80
f 89/81 90/82 91/83 92/84
f 93/85 94/86 95/87 96/88
f 97/89 98/90 99/91 100/92
f 101/93 102/94 103/95 104/96
f 105/97 106/98 107/99 108/100
f 109/101 110/102 111/103 112/104
f 113/105 114/106 115/107 116/108
f 117/109 118/110 119/111 120/112
f 121/113 122/114 123/115 124/116
f 125/117 126/118 127/119 128/120
f 129/121 130/122 131/123 132/124
f 133/125 134/126 135/127 136/128
f 137/129 138/130 139/131 140/132
f 141/133 142/134 143/135 144/136
f 145/137 146/138 147/139 148/140
f 149/141 150/142 151/143 152/144
f 153/145 154/146 155/147 156/148
f 157/149 158/150 159/151 160/152
f 161/153 162/154 163/155 164/156
f 165/157 166/158 167/159 168/160
f 169/161 170/162 171/163 172/164
f 173/165 174/166 175/167 176/168
f 177/169 178/170 179/171 180/172
f 181/173 182/174 183/175 184/176
f 185/177 186/178 187/179 188/180
f 189/181 190/182 191/183 192/184
f 193/185 194/186 195/187 196/188
f 197/189 198/190 199/191 200/192
f 201/193 202/194 203/195 204/196
f 205/197 206/198 207/199 208/200
f 209/201 210/202 211/203 212/204
f 213/205 214/206 215/207 216/208
f 217/209 218/210 219/211 220/212
f 221/213 222/214 223/215 224/216
f 225/217 226/218 227/219 228/220
f 229/221 230/222 231/223 232/224
f 233/225 234/226 235/227 236/228
f 237/229 238/230 239/231 240/232
f 241/233 242/234 243/235 244/236
f 245/237 246/238 247/239 248/240
f 249/241 250/242 251/243 252/244
f 253/245 254/246 255/247 256/248
f 257/249 258/250 259/251 260/252
f 261/253 262/254 263/255 264/256
f 265/257 266/258 267/259 268/260
f 269/261 270/262 271/263 272/264
f 273/265 274/266 275/267 276/268
f 277/269 278/270 279/271 280/272
f 281/273 282/274 283/275 284/276
f 285/277 286/278 287/279 288/280
f 289/281 290/282 291/283 292/284
f 293/285 294/286 295/287 296/288
f 297/289 298/290 299/291 300/292
f 301/293 302/294 303/295 304/296
f 305/297 306/298 307/299 308/300
f 309/301 310/302 311/303 312/304
f 313/305 314/306 315/307 316/308
f 317/309 318/310 319/311 320/312
f 321/313 322/314 323/315 324/316
f 325/317 326/318 327/319 328/320
f 329/321 330/322 331/323 332/324
f 333/325 334/326 335/327 336/328
f 337/329 338/330 339/331 340/332
f 341/333 342/334 343/335 344/336
f 345/337 346/338 347/339 348/340
f 349/341 350/342 351/343 352/344
f 353/345 354/346 355/347 356/348
f 357/349 358/350 359/351 360/352
f 361/353 362/354 363/355 364/356
f 365/357 366/358 367/359 368/360
f 377/361 378/362 379/363 380/364
f 381/365 382/366 383/367 384/368
f 385/369 386/370 387/371 388/372
f 389/373 390/374 391/375 392/376
f 393/377 394/378 395/379 396/380
f 397/381 398/382 399/383 400/384
f 401/385 402/386 403/387 404/388
f 405/389 406/390 407/391 408/392
f 409/393 410/394 411/395 412/396
f 413/397 414/398 415/399 416/400
f 417/401 418/402 419/403 420/404
f 421/405 422/406 423/407 424/408
f 425/409 426/410 427/411 428/412
f 429/413 430/414 431/415 432/416
f 433/417 434/418 435/419 436/420
f 437/421 438/422 439/423 440/424
f 441/425 442/426 443/427 444/428
f 445/429 446/430 447/431 448/432
f 449/433 450/434 451/435 452/436
f 453/437 454/438 455/439 456/440
f 457/441 458/442 459/443 460/444
f 461/445 462/446 463/447 464/448
f 465/449 466/450 467/451 468/452
f 469/453 470/454 471/455 472/456
f 473/457 474/458 475/459 476/460
f 477/461 478/462 479/463 480/464
f 481/465 482/466 483/467 484/468
f 485/469 486/470 487/471 488/472
f 489/473 490/474 491/475 492/476
f 493/477 494/478 495/479 496/480
f 497/481 498/482 499/483 500/484
f 501/485 502/486 503/487 504/488
f 505/489 506/490 507/491 508/492
f 509/493 510/494 511/495 512/496
f 513/497 514/498 515/499 516/500
f 517/501 518/502 519/503 520/504
f 529/505 530/506 531/507 532/508
f 533/509 534/510 535/511 536/512
f 537/513 538/514 539/515 540/516
f 541/517 542/518 543/519 544/520
f 545/521 546/522 547/523 548/524
f 549/525 550/526 551/527 552/528
f 553/529 554/530 555/531 556/532
f 557/533 558/534 559/535 560/536
f 561/537 562/538 563/539 564/540
f 565/541 566/542 567/543 568/544
f 569/545 570/546 571/547 572/548
f 573/549 574/550 575/551 576/552
f 585/553 586/554 587/555 588/556
f 589/557 590/558 591/559 592/560
f 593/561 594/562 595/563 596/564
f 597/565 598/566 599/567 600/568
f 601/569 602/570 603/571 604/572
f 605/573 606/574 607/575 608/576
f 609/577 610/578 611/579 612/580
f 613/581 614/582 615/583 616/584
f 617/585 618/586 619/587 620/588
f 621/589 622/590 623/591 624/592
f 625/593 626/594 627/595 628/596
f 629/597 630/598 631/599 632/600
f 633/601 634/602 635/603 636/604
f 637/605 638/606 639/607 640/608
f 641/609 642/610 643/611 644/612
f 645/613 646/614 647/615 648/616
f 649/617 650/618 651/619 652/620
f 653/621 654/622 655/623 656/624
f 657/625 658/626 659/627 660/628
f 661/629 662/630 663/631 664/632
f 665/633 666/634 667/635 668/636
f 669/637 670/638 671/639 672/640
f 673/641 674/642 675/643 676/644
f 677/645 678/646 679/647 680/648
f 681/649 682/650 683/651 684/652
f 685/653 686/654 687/655 688/656
f 689/657 690/658 691/659 692/660
f 693/661 694/662 695/663 696/664
f 697/665 698/666 699/667 700/668
f 701/669 702/670 703/671 704/672
f 713/673 714/674 715/675 716/676
f 717/677 718/678 719/679 720/680
f 721/681 722/682 723/683 724/684
f 725/685 726/686 727/687 728/688
f 729/689 730/690 731/691 732/692
f 733/693 734/694 735/695 736/696
f 737/697 738/698 739/699 740/700
f 741/701 742/702 743/703 744/704
f 745/705 746/706 747/707 748/708
f 749/709 750/710 751/711 752/712
f 753/713 754/714 755/715 756/716
f 757/717 758/718 759/719 760/720
f 761/721 762/722 763/723 764/724
f 765/725 766/726 767/727 768/728
f 769/729 770/730 771/731 772/732
f 773/733 774/734 775/735 776/736
f 777/737 778/738 779/739 780/740
f 781/741 782/742 783/743 784/744
f 785/745 786/746 787/747 788/748
f 789/749 790/750 791/751 792/752
f 793/753 794/754 795/755 796/756
f 797/757 798/758 799/759 800/760
f 801/761 802/762 803/763 804/764
f 805/765 806/766 807/767 808/768
f 809/769 810/770 811/771 812/772
f 813/773 814/774 815/775 816/776
f 817/777 818/778 819/779 820/780
f 821/781 822/782 823/783 824/784
f 825/785 826/786 827/787 828/788
f 829/789 830/790 831/791 832/792
f 833/793 834/794 835/795 836/796
f 837/797 838/798 839/799 840/800
f 841/801 842/802 843/803 844/804
f 845/805 846/806 847/807 848/808
f 849/809 850/810 851/811 852/812
f 853/813 854/814 855/815 856/816
f 857/817 858/818 859/819 860/820
f 861/821 862/822 863/823 864/824
f 865/825 866/826 867/827 868/828
f 869/829 870/830 871/831 872/832
f 873/833 874/834 875/835 876/836
f 877/837 878/838 879/839 880/840
f 881/841 882/842 883/843 884/844
f 885/845 886/846 887/847 888/848
f 889/849 890/850 891/851 892/852
f 893/853 894/854 895/855 896/856
f 897/857 898/858 899/859 900/860
f 901/861 902/862 903/863 904/864
f 905/865 906/866 907/867 908/868
f 909/869 910/870 911/871 912/872
f 913/873 914/874 915/875 916/876
f 917/877 918/878 919/879 920/880
f 921/881 922/882 923/883 924/884
f 925/885 926/886 927/887 928/888
f 929/889 930/890 931/891 932/892
f 933/893 934/894 935/895 936/896
f 937/897 938/898 939/899 940/900
f 941/901 942/902 943/903 944/904
f 945/905 946/906 947/907 948/908
f 949/909 950/910 951/911 952/912
f 953/913 954/914 955/915 956/916
f 957/917 958/918 959/919 960/920
f 961/921 962/922 963/923 964/924
f 965/925 966/926 967/927 968/928
f 969/929 970/930 971/931 972/932
f 973/933 974/934 975/935 976/936
f 977/937 978/938 979/939 980/940
f 981/941 982/942 983/943 984/944
f 985/945 986/946 987/947 988/948
f 989/949 990/950 991/951 992/952
f 993/953 994/954 995/955 996/956
f 997/957 998/958 999/959 1000/960
f 1001/961 1002/962 1003/963 1004/964
f 1005/965 1006/966 1007/967 1008/968
f 1009/969 1010/970 1011/971 1012/972
f 1013/973 1014/974 1015/975 1016/976
f 1017/977 1018/978 1019/979 1020/980
f 1021/981 1022/982 1023/983 1024/984
f 1025/985 1026/986 1027/987 1028/988
f 1029/989 1030/990 1031/991 1032/992
f 1033/993 1034/994 1035/995 1036/996
f 1037/997 1038/998 1039/999 1040/1000
f 1041/1001 1042/1002 1043/1003 1044/1004
f 1045/1005 1046/1006 1047/1007 1048/1008
f 1049/1009 1050/1010 1051/1011 1052/1012
f 1053/1013 1054/1014 1055/1015 1056/1016
f 1057/1017 1058/1018 1059/1019 1060/1020
f 1061/1021 1062/1022 1063/1023 1064/1024
f 1065/1025 1066/1026 1067/1027 1068/1028
f 1069/1029 1070/1030 1071/1031 1072/1032
f 1073/1033 1074/1034 1075/1035 1076/1036
f 1077/1037 1078/1038 1079/1039 1080/1040
f 1081/1041 1082/1042 1083/1043 1084/1044
f 1085/1045 1086/1046 1087/1047 1088/1048
f 1089/1049 1090/1050 1091/1051 1092/1052
f 1093/1053 1094/1054 1095/1055 1096/1056
f 1097/1057 1098/1058 1099/1059 1100/1060
f 1101/1061 1102/1062 1103/1063 1104/1064
f 1105/1065 1106/1066 1107/1067 1108/1068
f 1109/1069 1110/1070 1111/1071 1112/1072
f 1113/1073 1114/1074 1115/1075 1116/1076
f 1117/1077 1118/1078 1119/1079 1120/1080
f 1121/1081 1122/1082 1123/1083 1124/1084
f 1125/1085 1126/1086 1127/1087 1128/1088
f 1129/1089 1130/1090 1131/1091 1132/1092
f 1133/1093 1134/1094 1135/1095 1136/1096
f 1137/1097 1138/1098 1139/1099 1140/1100
f 1141/1101 1142/1102 1143/1103 1144/1104
f 1145/1105 1146/1106 1147/1107 1148/1108
f 1149/1109 1150/1110 1151/1111 1152/1112
f 1153/1113 1154/1114 1155/1115 1156/1116
f 1157/1117 1158/1118 1159/1119 1160/1120
f 1161/1121 1162/1122 1163/1123 1164/1124
f 1165/1125 1166/1126 1167/1127 1168/1128
f 1169/1129 1170/1130 1171/1131 1172/1132
f 1173/1133 1174/1134 1175/1135 1176/1136
f 1177/1137 1178/1138 1179/1139 1180/1140
f 1181/1141 1182/1142 1183/1143 1184/1144
f 1185/1145 1186/1146 1187/1147 1188/1148
f 1189/1149 1190/1150 1191/1151 1192/1152
f 1193/1153 1194/1154 1195/1155 1196/1156
f 1197/1157 1198/1158 1199/1159 1200/1160
f 1201/1161 1202/1162 1203/1163 1204/1164
f 1205/1165 1206/1166 1207/1167 1208/1168
f 1209/1169 1210/1170 1211/1171 1212/1172
f 1213/1173 1214/1174 1215/1175 1216/1176
f 1225/1177 1226/1178 1227/1179 1228/1180
f 1229/1181 1230/1182 1231/1183 1232/1184
f 1233/1185 1234/1186 1235/1187 1236/1188
f 1237/1189 1238/1190 1239/1191 1240/1192
f 1241/1193 1242/1194 1243/1195 1244/1196
f 1245/1197 1246/1198 1247/1199 1248/1200
f 1249/1201 1250/1202 1251/1203 1252/1204
f 1253/1205 1254/1206 1255/1207 1256/1208
f 1257/1209 1258/1210 1259/1211 1260/1212
f 1261/1213 1262/1214 1263/1215 1264/1216
f 1265/1217 1266/1218 1267/1219 1268/1220
f 1269/1221 1270/1222 1271/1223 1272/1224
f 1281/1225 1282/1226 1283/1227 1284/1228
f 1285/1229 1286/1230 1287/1231 1288/1232
f 1289/1233 1290/1234 1291/1235 1292/1236
f 1293/1237 1294/1238 1295/1239 1296/1240
f 1297/1241 1298/1242 1299/1243 1300/1244
f 1301/1245 1302/1246 1303/1247 1304/1248
f 1305/1249 1306/1250 1307/1251 1308/1252
f 1309/1253 1310/1254 1311/1255 1312/1256
f 1313/1257 1314/1258 1315/1259 1316/1260
f 1317/1261 1318/1262 1319/1263 1320/1264
f 1321/1265 1322/1266 1323/1267 1324/1268
f 1325/1269 1326/1270 1327/1271 1328/1272
