# RoastEngine Backrooms level
mtllib backrooms.mtl
v 1220.9500 0.0000 20.9500
v 1224.5500 0.0000 20.9500
v 1224.5500 0.0000 24.5500
v 1220.9500 0.0000 24.5500
v 1220.9500 1.6000 20.9500
v 1224.5500 1.6000 20.9500
v 1224.5500 1.6000 24.5500
v 1220.9500 1.6000 24.5500
v 1224.2000 0.0000 20.9500
v 1224.2000 0.0000 24.5500
v 1227.8000 0.0000 24.5500
v 1227.8000 0.0000 20.9500
v 1224.2000 3.1000 20.9500
v 1227.8000 3.1000 20.9500
v 1227.8000 3.1000 24.5500
v 1224.2000 3.1000 24.5500
v 1224.2000 0.0000 20.9500
v 1227.8000 0.0000 20.9500
v 1227.8000 3.1000 20.9500
v 1224.2000 3.1000 20.9500
v 1227.8000 0.0000 24.5500
v 1224.2000 0.0000 24.5500
v 1224.2000 3.1000 24.5500
v 1227.8000 3.1000 24.5500
v 1227.8000 0.0000 20.9500
v 1227.8000 0.0000 24.5500
v 1227.8000 3.1000 24.5500
v 1227.8000 3.1000 20.9500
v 1224.2000 0.0000 24.5500
v 1224.2000 0.0000 20.9500
v 1224.2000 3.1000 20.9500
v 1224.2000 3.1000 24.5500
v 1227.4500 0.0000 20.9500
v 1231.0500 0.0000 20.9500
v 1231.0500 0.0000 24.5500
v 1227.4500 0.0000 24.5500
v 1227.4500 1.6000 20.9500
v 1231.0500 1.6000 20.9500
v 1231.0500 1.6000 24.5500
v 1227.4500 1.6000 24.5500
v 1233.9500 0.0000 20.9500
v 1233.9500 0.0000 24.5500
v 1237.5500 0.0000 24.5500
v 1237.5500 0.0000 20.9500
v 1233.9500 3.1000 20.9500
v 1237.5500 3.1000 20.9500
v 1237.5500 3.1000 24.5500
v 1233.9500 3.1000 24.5500
v 1233.9500 0.0000 20.9500
v 1237.5500 0.0000 20.9500
v 1237.5500 3.1000 20.9500
v 1233.9500 3.1000 20.9500
v 1237.5500 0.0000 24.5500
v 1233.9500 0.0000 24.5500
v 1233.9500 3.1000 24.5500
v 1237.5500 3.1000 24.5500
v 1237.5500 0.0000 20.9500
v 1237.5500 0.0000 24.5500
v 1237.5500 3.1000 24.5500
v 1237.5500 3.1000 20.9500
v 1233.9500 0.0000 24.5500
v 1233.9500 0.0000 20.9500
v 1233.9500 3.1000 20.9500
v 1233.9500 3.1000 24.5500
v 1237.2000 0.0000 20.9500
v 1237.2000 0.0000 24.5500
v 1240.8000 0.0000 24.5500
v 1240.8000 0.0000 20.9500
v 1237.2000 3.1000 20.9500
v 1240.8000 3.1000 20.9500
v 1240.8000 3.1000 24.5500
v 1237.2000 3.1000 24.5500
v 1237.2000 0.0000 20.9500
v 1240.8000 0.0000 20.9500
v 1240.8000 3.1000 20.9500
v 1237.2000 3.1000 20.9500
v 1240.8000 0.0000 24.5500
v 1237.2000 0.0000 24.5500
v 1237.2000 3.1000 24.5500
v 1240.8000 3.1000 24.5500
v 1240.8000 0.0000 20.9500
v 1240.8000 0.0000 24.5500
v 1240.8000 3.1000 24.5500
v 1240.8000 3.1000 20.9500
v 1237.2000 0.0000 24.5500
v 1237.2000 0.0000 20.9500
v 1237.2000 3.1000 20.9500
v 1237.2000 3.1000 24.5500
v 1240.4500 0.0000 20.9500
v 1240.4500 0.0000 24.5500
v 1244.0500 0.0000 24.5500
v 1244.0500 0.0000 20.9500
v 1240.4500 3.1000 20.9500
v 1244.0500 3.1000 20.9500
v 1244.0500 3.1000 24.5500
v 1240.4500 3.1000 24.5500
v 1240.4500 0.0000 20.9500
v 1244.0500 0.0000 20.9500
v 1244.0500 3.1000 20.9500
v 1240.4500 3.1000 20.9500
v 1244.0500 0.0000 24.5500
v 1240.4500 0.0000 24.5500
v 1240.4500 3.1000 24.5500
v 1244.0500 3.1000 24.5500
v 1244.0500 0.0000 20.9500
v 1244.0500 0.0000 24.5500
v 1244.0500 3.1000 24.5500
v 1244.0500 3.1000 20.9500
v 1240.4500 0.0000 24.5500
v 1240.4500 0.0000 20.9500
v 1240.4500 3.1000 20.9500
v 1240.4500 3.1000 24.5500
v 1246.9500 0.0000 20.9500
v 1250.5500 0.0000 20.9500
v 1250.5500 0.0000 24.5500
v 1246.9500 0.0000 24.5500
v 1246.9500 1.6000 20.9500
v 1250.5500 1.6000 20.9500
v 1250.5500 1.6000 24.5500
v 1246.9500 1.6000 24.5500
v 1250.2000 0.0000 20.9500
v 1250.2000 0.0000 24.5500
v 1253.8000 0.0000 24.5500
v 1253.8000 0.0000 20.9500
v 1250.2000 3.1000 20.9500
v 1253.8000 3.1000 20.9500
v 1253.8000 3.1000 24.5500
v 1250.2000 3.1000 24.5500
v 1250.2000 0.0000 20.9500
v 1253.8000 0.0000 20.9500
v 1253.8000 3.1000 20.9500
v 1250.2000 3.1000 20.9500
v 1253.8000 0.0000 24.5500
v 1250.2000 0.0000 24.5500
v 1250.2000 3.1000 24.5500
v 1253.8000 3.1000 24.5500
v 1253.8000 0.0000 20.9500
v 1253.8000 0.0000 24.5500
v 1253.8000 3.1000 24.5500
v 1253.8000 3.1000 20.9500
v 1250.2000 0.0000 24.5500
v 1250.2000 0.0000 20.9500
v 1250.2000 3.1000 20.9500
v 1250.2000 3.1000 24.5500
v 1240.4500 0.0000 27.4500
v 1244.0500 0.0000 27.4500
v 1244.0500 0.0000 31.0500
v 1240.4500 0.0000 31.0500
v 1240.4500 1.6000 27.4500
v 1244.0500 1.6000 27.4500
v 1244.0500 1.6000 31.0500
v 1240.4500 1.6000 31.0500
v 1243.7000 0.0000 27.4500
v 1247.3000 0.0000 27.4500
v 1247.3000 0.0000 31.0500
v 1243.7000 0.0000 31.0500
v 1243.7000 1.6000 27.4500
v 1247.3000 1.6000 27.4500
v 1247.3000 1.6000 31.0500
v 1243.7000 1.6000 31.0500
v 1246.9500 0.0000 27.4500
v 1250.5500 0.0000 27.4500
v 1250.5500 0.0000 31.0500
v 1246.9500 0.0000 31.0500
v 1246.9500 1.6000 27.4500
v 1250.5500 1.6000 27.4500
v 1250.5500 1.6000 31.0500
v 1246.9500 1.6000 31.0500
v 1233.9500 0.0000 33.9500
v 1233.9500 0.0000 37.5500
v 1237.5500 0.0000 37.5500
v 1237.5500 0.0000 33.9500
v 1233.9500 3.1000 33.9500
v 1237.5500 3.1000 33.9500
v 1237.5500 3.1000 37.5500
v 1233.9500 3.1000 37.5500
v 1233.9500 0.0000 33.9500
v 1237.5500 0.0000 33.9500
v 1237.5500 3.1000 33.9500
v 1233.9500 3.1000 33.9500
v 1237.5500 0.0000 37.5500
v 1233.9500 0.0000 37.5500
v 1233.9500 3.1000 37.5500
v 1237.5500 3.1000 37.5500
v 1237.5500 0.0000 33.9500
v 1237.5500 0.0000 37.5500
v 1237.5500 3.1000 37.5500
v 1237.5500 3.1000 33.9500
v 1233.9500 0.0000 37.5500
v 1233.9500 0.0000 33.9500
v 1233.9500 3.1000 33.9500
v 1233.9500 3.1000 37.5500
v 1246.9500 0.0000 33.9500
v 1250.5500 0.0000 33.9500
v 1250.5500 0.0000 37.5500
v 1246.9500 0.0000 37.5500
v 1246.9500 1.6000 33.9500
v 1250.5500 1.6000 33.9500
v 1250.5500 1.6000 37.5500
v 1246.9500 1.6000 37.5500
v 1246.9500 0.0000 37.2000
v 1246.9500 0.0000 40.8000
v 1250.5500 0.0000 40.8000
v 1250.5500 0.0000 37.2000
v 1246.9500 3.1000 37.2000
v 1250.5500 3.1000 37.2000
v 1250.5500 3.1000 40.8000
v 1246.9500 3.1000 40.8000
v 1246.9500 0.0000 37.2000
v 1250.5500 0.0000 37.2000
v 1250.5500 3.1000 37.2000
v 1246.9500 3.1000 37.2000
v 1250.5500 0.0000 40.8000
v 1246.9500 0.0000 40.8000
v 1246.9500 3.1000 40.8000
v 1250.5500 3.1000 40.8000
v 1250.5500 0.0000 37.2000
v 1250.5500 0.0000 40.8000
v 1250.5500 3.1000 40.8000
v 1250.5500 3.1000 37.2000
v 1246.9500 0.0000 40.8000
v 1246.9500 0.0000 37.2000
v 1246.9500 3.1000 37.2000
v 1246.9500 3.1000 40.8000
v 1220.9500 0.0000 40.4500
v 1224.5500 0.0000 40.4500
v 1224.5500 0.0000 44.0500
v 1220.9500 0.0000 44.0500
v 1220.9500 1.6000 40.4500
v 1224.5500 1.6000 40.4500
v 1224.5500 1.6000 44.0500
v 1220.9500 1.6000 44.0500
v 1227.4500 0.0000 40.4500
v 1227.4500 0.0000 44.0500
v 1231.0500 0.0000 44.0500
v 1231.0500 0.0000 40.4500
v 1227.4500 3.1000 40.4500
v 1231.0500 3.1000 40.4500
v 1231.0500 3.1000 44.0500
v 1227.4500 3.1000 44.0500
v 1227.4500 0.0000 40.4500
v 1231.0500 0.0000 40.4500
v 1231.0500 3.1000 40.4500
v 1227.4500 3.1000 40.4500
v 1231.0500 0.0000 44.0500
v 1227.4500 0.0000 44.0500
v 1227.4500 3.1000 44.0500
v 1231.0500 3.1000 44.0500
v 1231.0500 0.0000 40.4500
v 1231.0500 0.0000 44.0500
v 1231.0500 3.1000 44.0500
v 1231.0500 3.1000 40.4500
v 1227.4500 0.0000 44.0500
v 1227.4500 0.0000 40.4500
v 1227.4500 3.1000 40.4500
v 1227.4500 3.1000 44.0500
v 1230.7000 0.0000 40.4500
v 1234.3000 0.0000 40.4500
v 1234.3000 0.0000 44.0500
v 1230.7000 0.0000 44.0500
v 1230.7000 1.6000 40.4500
v 1234.3000 1.6000 40.4500
v 1234.3000 1.6000 44.0500
v 1230.7000 1.6000 44.0500
v 1233.9500 0.0000 40.4500
v 1233.9500 0.0000 44.0500
v 1237.5500 0.0000 44.0500
v 1237.5500 0.0000 40.4500
v 1233.9500 3.1000 40.4500
v 1237.5500 3.1000 40.4500
v 1237.5500 3.1000 44.0500
v 1233.9500 3.1000 44.0500
v 1233.9500 0.0000 40.4500
v 1237.5500 0.0000 40.4500
v 1237.5500 3.1000 40.4500
v 1233.9500 3.1000 40.4500
v 1237.5500 0.0000 44.0500
v 1233.9500 0.0000 44.0500
v 1233.9500 3.1000 44.0500
v 1237.5500 3.1000 44.0500
v 1237.5500 0.0000 40.4500
v 1237.5500 0.0000 44.0500
v 1237.5500 3.1000 44.0500
v 1237.5500 3.1000 40.4500
v 1233.9500 0.0000 44.0500
v 1233.9500 0.0000 40.4500
v 1233.9500 3.1000 40.4500
v 1233.9500 3.1000 44.0500
v 1246.9500 0.0000 40.4500
v 1246.9500 0.0000 44.0500
v 1250.5500 0.0000 44.0500
v 1250.5500 0.0000 40.4500
v 1246.9500 3.1000 40.4500
v 1250.5500 3.1000 40.4500
v 1250.5500 3.1000 44.0500
v 1246.9500 3.1000 44.0500
v 1246.9500 0.0000 40.4500
v 1250.5500 0.0000 40.4500
v 1250.5500 3.1000 40.4500
v 1246.9500 3.1000 40.4500
v 1250.5500 0.0000 44.0500
v 1246.9500 0.0000 44.0500
v 1246.9500 3.1000 44.0500
v 1250.5500 3.1000 44.0500
v 1250.5500 0.0000 40.4500
v 1250.5500 0.0000 44.0500
v 1250.5500 3.1000 44.0500
v 1250.5500 3.1000 40.4500
v 1246.9500 0.0000 44.0500
v 1246.9500 0.0000 40.4500
v 1246.9500 3.1000 40.4500
v 1246.9500 3.1000 44.0500
v 1233.9500 0.0000 43.7000
v 1233.9500 0.0000 47.3000
v 1237.5500 0.0000 47.3000
v 1237.5500 0.0000 43.7000
v 1233.9500 3.1000 43.7000
v 1237.5500 3.1000 43.7000
v 1237.5500 3.1000 47.3000
v 1233.9500 3.1000 47.3000
v 1233.9500 0.0000 43.7000
v 1237.5500 0.0000 43.7000
v 1237.5500 3.1000 43.7000
v 1233.9500 3.1000 43.7000
v 1237.5500 0.0000 47.3000
v 1233.9500 0.0000 47.3000
v 1233.9500 3.1000 47.3000
v 1237.5500 3.1000 47.3000
v 1237.5500 0.0000 43.7000
v 1237.5500 0.0000 47.3000
v 1237.5500 3.1000 47.3000
v 1237.5500 3.1000 43.7000
v 1233.9500 0.0000 47.3000
v 1233.9500 0.0000 43.7000
v 1233.9500 3.1000 43.7000
v 1233.9500 3.1000 47.3000
v 1246.9500 0.0000 43.7000
v 1250.5500 0.0000 43.7000
v 1250.5500 0.0000 47.3000
v 1246.9500 0.0000 47.3000
v 1246.9500 1.6000 43.7000
v 1250.5500 1.6000 43.7000
v 1250.5500 1.6000 47.3000
v 1246.9500 1.6000 47.3000
v 1233.9500 0.0000 46.9500
v 1233.9500 0.0000 50.5500
v 1237.5500 0.0000 50.5500
v 1237.5500 0.0000 46.9500
v 1233.9500 3.1000 46.9500
v 1237.5500 3.1000 46.9500
v 1237.5500 3.1000 50.5500
v 1233.9500 3.1000 50.5500
v 1233.9500 0.0000 46.9500
v 1237.5500 0.0000 46.9500
v 1237.5500 3.1000 46.9500
v 1233.9500 3.1000 46.9500
v 1237.5500 0.0000 50.5500
v 1233.9500 0.0000 50.5500
v 1233.9500 3.1000 50.5500
v 1237.5500 3.1000 50.5500
v 1237.5500 0.0000 46.9500
v 1237.5500 0.0000 50.5500
v 1237.5500 3.1000 50.5500
v 1237.5500 3.1000 46.9500
v 1233.9500 0.0000 50.5500
v 1233.9500 0.0000 46.9500
v 1233.9500 3.1000 46.9500
v 1233.9500 3.1000 50.5500
v 1246.9500 0.0000 46.9500
v 1250.5500 0.0000 46.9500
v 1250.5500 0.0000 50.5500
v 1246.9500 0.0000 50.5500
v 1246.9500 1.6000 46.9500
v 1250.5500 1.6000 46.9500
v 1250.5500 1.6000 50.5500
v 1246.9500 1.6000 50.5500
v 1238.2000 2.9300 25.8250
v 1239.8000 2.9300 25.8250
v 1239.8000 2.9300 26.1750
v 1238.2000 2.9300 26.1750
v 1238.2000 3.0300 25.8250
v 1239.8000 3.0300 25.8250
v 1239.8000 3.0300 26.1750
v 1238.2000 3.0300 26.1750
v 1238.0500 3.0100 25.7000
v 1238.0500 3.0100 26.3000
v 1239.9500 3.0100 26.3000
v 1239.9500 3.0100 25.7000
v 1238.0500 3.0900 25.7000
v 1239.9500 3.0900 25.7000
v 1239.9500 3.0900 26.3000
v 1238.0500 3.0900 26.3000
v 1238.0500 3.0100 25.7000
v 1239.9500 3.0100 25.7000
v 1239.9500 3.0900 25.7000
v 1238.0500 3.0900 25.7000
v 1239.9500 3.0100 26.3000
v 1238.0500 3.0100 26.3000
v 1238.0500 3.0900 26.3000
v 1239.9500 3.0900 26.3000
v 1239.9500 3.0100 25.7000
v 1239.9500 3.0100 26.3000
v 1239.9500 3.0900 26.3000
v 1239.9500 3.0900 25.7000
v 1238.0500 3.0100 26.3000
v 1238.0500 3.0100 25.7000
v 1238.0500 3.0900 25.7000
v 1238.0500 3.0900 26.3000
v 1244.7000 2.9300 25.8250
v 1246.3000 2.9300 25.8250
v 1246.3000 2.9300 26.1750
v 1244.7000 2.9300 26.1750
v 1244.7000 3.0300 25.8250
v 1246.3000 3.0300 25.8250
v 1246.3000 3.0300 26.1750
v 1244.7000 3.0300 26.1750
v 1244.5500 3.0100 25.7000
v 1244.5500 3.0100 26.3000
v 1246.4500 3.0100 26.3000
v 1246.4500 3.0100 25.7000
v 1244.5500 3.0900 25.7000
v 1246.4500 3.0900 25.7000
v 1246.4500 3.0900 26.3000
v 1244.5500 3.0900 26.3000
v 1244.5500 3.0100 25.7000
v 1246.4500 3.0100 25.7000
v 1246.4500 3.0900 25.7000
v 1244.5500 3.0900 25.7000
v 1246.4500 3.0100 26.3000
v 1244.5500 3.0100 26.3000
v 1244.5500 3.0900 26.3000
v 1246.4500 3.0900 26.3000
v 1246.4500 3.0100 25.7000
v 1246.4500 3.0100 26.3000
v 1246.4500 3.0900 26.3000
v 1246.4500 3.0900 25.7000
v 1244.5500 3.0100 26.3000
v 1244.5500 3.0100 25.7000
v 1244.5500 3.0900 25.7000
v 1244.5500 3.0900 26.3000
v 1251.2000 2.9300 25.8250
v 1252.8000 2.9300 25.8250
v 1252.8000 2.9300 26.1750
v 1251.2000 2.9300 26.1750
v 1251.2000 3.0300 25.8250
v 1252.8000 3.0300 25.8250
v 1252.8000 3.0300 26.1750
v 1251.2000 3.0300 26.1750
v 1251.0500 3.0100 25.7000
v 1251.0500 3.0100 26.3000
v 1252.9500 3.0100 26.3000
v 1252.9500 3.0100 25.7000
v 1251.0500 3.0900 25.7000
v 1252.9500 3.0900 25.7000
v 1252.9500 3.0900 26.3000
v 1251.0500 3.0900 26.3000
v 1251.0500 3.0100 25.7000
v 1252.9500 3.0100 25.7000
v 1252.9500 3.0900 25.7000
v 1251.0500 3.0900 25.7000
v 1252.9500 3.0100 26.3000
v 1251.0500 3.0100 26.3000
v 1251.0500 3.0900 26.3000
v 1252.9500 3.0900 26.3000
v 1252.9500 3.0100 25.7000
v 1252.9500 3.0100 26.3000
v 1252.9500 3.0900 26.3000
v 1252.9500 3.0900 25.7000
v 1251.0500 3.0100 26.3000
v 1251.0500 3.0100 25.7000
v 1251.0500 3.0900 25.7000
v 1251.0500 3.0900 26.3000
v 1238.2000 2.9300 32.3250
v 1239.8000 2.9300 32.3250
v 1239.8000 2.9300 32.6750
v 1238.2000 2.9300 32.6750
v 1238.2000 3.0300 32.3250
v 1239.8000 3.0300 32.3250
v 1239.8000 3.0300 32.6750
v 1238.2000 3.0300 32.6750
v 1238.0500 3.0100 32.2000
v 1238.0500 3.0100 32.8000
v 1239.9500 3.0100 32.8000
v 1239.9500 3.0100 32.2000
v 1238.0500 3.0900 32.2000
v 1239.9500 3.0900 32.2000
v 1239.9500 3.0900 32.8000
v 1238.0500 3.0900 32.8000
v 1238.0500 3.0100 32.2000
v 1239.9500 3.0100 32.2000
v 1239.9500 3.0900 32.2000
v 1238.0500 3.0900 32.2000
v 1239.9500 3.0100 32.8000
v 1238.0500 3.0100 32.8000
v 1238.0500 3.0900 32.8000
v 1239.9500 3.0900 32.8000
v 1239.9500 3.0100 32.2000
v 1239.9500 3.0100 32.8000
v 1239.9500 3.0900 32.8000
v 1239.9500 3.0900 32.2000
v 1238.0500 3.0100 32.8000
v 1238.0500 3.0100 32.2000
v 1238.0500 3.0900 32.2000
v 1238.0500 3.0900 32.8000
v 1244.7000 2.9300 32.3250
v 1246.3000 2.9300 32.3250
v 1246.3000 2.9300 32.6750
v 1244.7000 2.9300 32.6750
v 1244.7000 3.0300 32.3250
v 1246.3000 3.0300 32.3250
v 1246.3000 3.0300 32.6750
v 1244.7000 3.0300 32.6750
v 1244.5500 3.0100 32.2000
v 1244.5500 3.0100 32.8000
v 1246.4500 3.0100 32.8000
v 1246.4500 3.0100 32.2000
v 1244.5500 3.0900 32.2000
v 1246.4500 3.0900 32.2000
v 1246.4500 3.0900 32.8000
v 1244.5500 3.0900 32.8000
v 1244.5500 3.0100 32.2000
v 1246.4500 3.0100 32.2000
v 1246.4500 3.0900 32.2000
v 1244.5500 3.0900 32.2000
v 1246.4500 3.0100 32.8000
v 1244.5500 3.0100 32.8000
v 1244.5500 3.0900 32.8000
v 1246.4500 3.0900 32.8000
v 1246.4500 3.0100 32.2000
v 1246.4500 3.0100 32.8000
v 1246.4500 3.0900 32.8000
v 1246.4500 3.0900 32.2000
v 1244.5500 3.0100 32.8000
v 1244.5500 3.0100 32.2000
v 1244.5500 3.0900 32.2000
v 1244.5500 3.0900 32.8000
v 1225.2000 2.9300 38.8250
v 1226.8000 2.9300 38.8250
v 1226.8000 2.9300 39.1750
v 1225.2000 2.9300 39.1750
v 1225.2000 3.0300 38.8250
v 1226.8000 3.0300 38.8250
v 1226.8000 3.0300 39.1750
v 1225.2000 3.0300 39.1750
v 1225.0500 3.0100 38.7000
v 1225.0500 3.0100 39.3000
v 1226.9500 3.0100 39.3000
v 1226.9500 3.0100 38.7000
v 1225.0500 3.0900 38.7000
v 1226.9500 3.0900 38.7000
v 1226.9500 3.0900 39.3000
v 1225.0500 3.0900 39.3000
v 1225.0500 3.0100 38.7000
v 1226.9500 3.0100 38.7000
v 1226.9500 3.0900 38.7000
v 1225.0500 3.0900 38.7000
v 1226.9500 3.0100 39.3000
v 1225.0500 3.0100 39.3000
v 1225.0500 3.0900 39.3000
v 1226.9500 3.0900 39.3000
v 1226.9500 3.0100 38.7000
v 1226.9500 3.0100 39.3000
v 1226.9500 3.0900 39.3000
v 1226.9500 3.0900 38.7000
v 1225.0500 3.0100 39.3000
v 1225.0500 3.0100 38.7000
v 1225.0500 3.0900 38.7000
v 1225.0500 3.0900 39.3000
v 1231.7000 2.9300 38.8250
v 1233.3000 2.9300 38.8250
v 1233.3000 2.9300 39.1750
v 1231.7000 2.9300 39.1750
v 1231.7000 3.0300 38.8250
v 1233.3000 3.0300 38.8250
v 1233.3000 3.0300 39.1750
v 1231.7000 3.0300 39.1750
v 1231.5500 3.0100 38.7000
v 1231.5500 3.0100 39.3000
v 1233.4500 3.0100 39.3000
v 1233.4500 3.0100 38.7000
v 1231.5500 3.0900 38.7000
v 1233.4500 3.0900 38.7000
v 1233.4500 3.0900 39.3000
v 1231.5500 3.0900 39.3000
v 1231.5500 3.0100 38.7000
v 1233.4500 3.0100 38.7000
v 1233.4500 3.0900 38.7000
v 1231.5500 3.0900 38.7000
v 1233.4500 3.0100 39.3000
v 1231.5500 3.0100 39.3000
v 1231.5500 3.0900 39.3000
v 1233.4500 3.0900 39.3000
v 1233.4500 3.0100 38.7000
v 1233.4500 3.0100 39.3000
v 1233.4500 3.0900 39.3000
v 1233.4500 3.0900 38.7000
v 1231.5500 3.0100 39.3000
v 1231.5500 3.0100 38.7000
v 1231.5500 3.0900 38.7000
v 1231.5500 3.0900 39.3000
v 1238.2000 2.9300 38.8250
v 1239.8000 2.9300 38.8250
v 1239.8000 2.9300 39.1750
v 1238.2000 2.9300 39.1750
v 1238.2000 3.0300 38.8250
v 1239.8000 3.0300 38.8250
v 1239.8000 3.0300 39.1750
v 1238.2000 3.0300 39.1750
v 1238.0500 3.0100 38.7000
v 1238.0500 3.0100 39.3000
v 1239.9500 3.0100 39.3000
v 1239.9500 3.0100 38.7000
v 1238.0500 3.0900 38.7000
v 1239.9500 3.0900 38.7000
v 1239.9500 3.0900 39.3000
v 1238.0500 3.0900 39.3000
v 1238.0500 3.0100 38.7000
v 1239.9500 3.0100 38.7000
v 1239.9500 3.0900 38.7000
v 1238.0500 3.0900 38.7000
v 1239.9500 3.0100 39.3000
v 1238.0500 3.0100 39.3000
v 1238.0500 3.0900 39.3000
v 1239.9500 3.0900 39.3000
v 1239.9500 3.0100 38.7000
v 1239.9500 3.0100 39.3000
v 1239.9500 3.0900 39.3000
v 1239.9500 3.0900 38.7000
v 1238.0500 3.0100 39.3000
v 1238.0500 3.0100 38.7000
v 1238.0500 3.0900 38.7000
v 1238.0500 3.0900 39.3000
v 1225.2000 2.9300 45.3250
v 1226.8000 2.9300 45.3250
v 1226.8000 2.9300 45.6750
v 1225.2000 2.9300 45.6750
v 1225.2000 3.0300 45.3250
v 1226.8000 3.0300 45.3250
v 1226.8000 3.0300 45.6750
v 1225.2000 3.0300 45.6750
v 1225.0500 3.0100 45.2000
v 1225.0500 3.0100 45.8000
v 1226.9500 3.0100 45.8000
v 1226.9500 3.0100 45.2000
v 1225.0500 3.0900 45.2000
v 1226.9500 3.0900 45.2000
v 1226.9500 3.0900 45.8000
v 1225.0500 3.0900 45.8000
v 1225.0500 3.0100 45.2000
v 1226.9500 3.0100 45.2000
v 1226.9500 3.0900 45.2000
v 1225.0500 3.0900 45.2000
v 1226.9500 3.0100 45.8000
v 1225.0500 3.0100 45.8000
v 1225.0500 3.0900 45.8000
v 1226.9500 3.0900 45.8000
v 1226.9500 3.0100 45.2000
v 1226.9500 3.0100 45.8000
v 1226.9500 3.0900 45.8000
v 1226.9500 3.0900 45.2000
v 1225.0500 3.0100 45.8000
v 1225.0500 3.0100 45.2000
v 1225.0500 3.0900 45.2000
v 1225.0500 3.0900 45.8000
v 1244.7000 2.9300 45.3250
v 1246.3000 2.9300 45.3250
v 1246.3000 2.9300 45.6750
v 1244.7000 2.9300 45.6750
v 1244.7000 3.0300 45.3250
v 1246.3000 3.0300 45.3250
v 1246.3000 3.0300 45.6750
v 1244.7000 3.0300 45.6750
v 1244.5500 3.0100 45.2000
v 1244.5500 3.0100 45.8000
v 1246.4500 3.0100 45.8000
v 1246.4500 3.0100 45.2000
v 1244.5500 3.0900 45.2000
v 1246.4500 3.0900 45.2000
v 1246.4500 3.0900 45.8000
v 1244.5500 3.0900 45.8000
v 1244.5500 3.0100 45.2000
v 1246.4500 3.0100 45.2000
v 1246.4500 3.0900 45.2000
v 1244.5500 3.0900 45.2000
v 1246.4500 3.0100 45.8000
v 1244.5500 3.0100 45.8000
v 1244.5500 3.0900 45.8000
v 1246.4500 3.0900 45.8000
v 1246.4500 3.0100 45.2000
v 1246.4500 3.0100 45.8000
v 1246.4500 3.0900 45.8000
v 1246.4500 3.0900 45.2000
v 1244.5500 3.0100 45.8000
v 1244.5500 3.0100 45.2000
v 1244.5500 3.0900 45.2000
v 1244.5500 3.0900 45.8000
v 1251.2000 2.9300 45.3250
v 1252.8000 2.9300 45.3250
v 1252.8000 2.9300 45.6750
v 1251.2000 2.9300 45.6750
v 1251.2000 3.0300 45.3250
v 1252.8000 3.0300 45.3250
v 1252.8000 3.0300 45.6750
v 1251.2000 3.0300 45.6750
v 1251.0500 3.0100 45.2000
v 1251.0500 3.0100 45.8000
v 1252.9500 3.0100 45.8000
v 1252.9500 3.0100 45.2000
v 1251.0500 3.0900 45.2000
v 1252.9500 3.0900 45.2000
v 1252.9500 3.0900 45.8000
v 1251.0500 3.0900 45.8000
v 1251.0500 3.0100 45.2000
v 1252.9500 3.0100 45.2000
v 1252.9500 3.0900 45.2000
v 1251.0500 3.0900 45.2000
v 1252.9500 3.0100 45.8000
v 1251.0500 3.0100 45.8000
v 1251.0500 3.0900 45.8000
v 1252.9500 3.0900 45.8000
v 1252.9500 3.0100 45.2000
v 1252.9500 3.0100 45.8000
v 1252.9500 3.0900 45.8000
v 1252.9500 3.0900 45.2000
v 1251.0500 3.0100 45.8000
v 1251.0500 3.0100 45.2000
v 1251.0500 3.0900 45.2000
v 1251.0500 3.0900 45.8000
v 1225.2000 2.9300 51.8250
v 1226.8000 2.9300 51.8250
v 1226.8000 2.9300 52.1750
v 1225.2000 2.9300 52.1750
v 1225.2000 3.0300 51.8250
v 1226.8000 3.0300 51.8250
v 1226.8000 3.0300 52.1750
v 1225.2000 3.0300 52.1750
v 1225.0500 3.0100 51.7000
v 1225.0500 3.0100 52.3000
v 1226.9500 3.0100 52.3000
v 1226.9500 3.0100 51.7000
v 1225.0500 3.0900 51.7000
v 1226.9500 3.0900 51.7000
v 1226.9500 3.0900 52.3000
v 1225.0500 3.0900 52.3000
v 1225.0500 3.0100 51.7000
v 1226.9500 3.0100 51.7000
v 1226.9500 3.0900 51.7000
v 1225.0500 3.0900 51.7000
v 1226.9500 3.0100 52.3000
v 1225.0500 3.0100 52.3000
v 1225.0500 3.0900 52.3000
v 1226.9500 3.0900 52.3000
v 1226.9500 3.0100 51.7000
v 1226.9500 3.0100 52.3000
v 1226.9500 3.0900 52.3000
v 1226.9500 3.0900 51.7000
v 1225.0500 3.0100 52.3000
v 1225.0500 3.0100 51.7000
v 1225.0500 3.0900 51.7000
v 1225.0500 3.0900 52.3000
v 1238.2000 2.9300 51.8250
v 1239.8000 2.9300 51.8250
v 1239.8000 2.9300 52.1750
v 1238.2000 2.9300 52.1750
v 1238.2000 3.0300 51.8250
v 1239.8000 3.0300 51.8250
v 1239.8000 3.0300 52.1750
v 1238.2000 3.0300 52.1750
v 1238.0500 3.0100 51.7000
v 1238.0500 3.0100 52.3000
v 1239.9500 3.0100 52.3000
v 1239.9500 3.0100 51.7000
v 1238.0500 3.0900 51.7000
v 1239.9500 3.0900 51.7000
v 1239.9500 3.0900 52.3000
v 1238.0500 3.0900 52.3000
v 1238.0500 3.0100 51.7000
v 1239.9500 3.0100 51.7000
v 1239.9500 3.0900 51.7000
v 1238.0500 3.0900 51.7000
v 1239.9500 3.0100 52.3000
v 1238.0500 3.0100 52.3000
v 1238.0500 3.0900 52.3000
v 1239.9500 3.0900 52.3000
v 1239.9500 3.0100 51.7000
v 1239.9500 3.0100 52.3000
v 1239.9500 3.0900 52.3000
v 1239.9500 3.0900 51.7000
v 1238.0500 3.0100 52.3000
v 1238.0500 3.0100 51.7000
v 1238.0500 3.0900 51.7000
v 1238.0500 3.0900 52.3000
v 1244.7000 2.9300 51.8250
v 1246.3000 2.9300 51.8250
v 1246.3000 2.9300 52.1750
v 1244.7000 2.9300 52.1750
v 1244.7000 3.0300 51.8250
v 1246.3000 3.0300 51.8250
v 1246.3000 3.0300 52.1750
v 1244.7000 3.0300 52.1750
v 1244.5500 3.0100 51.7000
v 1244.5500 3.0100 52.3000
v 1246.4500 3.0100 52.3000
v 1246.4500 3.0100 51.7000
v 1244.5500 3.0900 51.7000
v 1246.4500 3.0900 51.7000
v 1246.4500 3.0900 52.3000
v 1244.5500 3.0900 52.3000
v 1244.5500 3.0100 51.7000
v 1246.4500 3.0100 51.7000
v 1246.4500 3.0900 51.7000
v 1244.5500 3.0900 51.7000
v 1246.4500 3.0100 52.3000
v 1244.5500 3.0100 52.3000
v 1244.5500 3.0900 52.3000
v 1246.4500 3.0900 52.3000
v 1246.4500 3.0100 51.7000
v 1246.4500 3.0100 52.3000
v 1246.4500 3.0900 52.3000
v 1246.4500 3.0900 51.7000
v 1244.5500 3.0100 52.3000
v 1244.5500 3.0100 51.7000
v 1244.5500 3.0900 51.7000
v 1244.5500 3.0900 52.3000
v 1251.2000 2.9300 51.8250
v 1252.8000 2.9300 51.8250
v 1252.8000 2.9300 52.1750
v 1251.2000 2.9300 52.1750
v 1251.2000 3.0300 51.8250
v 1252.8000 3.0300 51.8250
v 1252.8000 3.0300 52.1750
v 1251.2000 3.0300 52.1750
v 1251.0500 3.0100 51.7000
v 1251.0500 3.0100 52.3000
v 1252.9500 3.0100 52.3000
v 1252.9500 3.0100 51.7000
v 1251.0500 3.0900 51.7000
v 1252.9500 3.0900 51.7000
v 1252.9500 3.0900 52.3000
v 1251.0500 3.0900 52.3000
v 1251.0500 3.0100 51.7000
v 1252.9500 3.0100 51.7000
v 1252.9500 3.0900 51.7000
v 1251.0500 3.0900 51.7000
v 1252.9500 3.0100 52.3000
v 1251.0500 3.0100 52.3000
v 1251.0500 3.0900 52.3000
v 1252.9500 3.0900 52.3000
v 1252.9500 3.0100 51.7000
v 1252.9500 3.0100 52.3000
v 1252.9500 3.0900 52.3000
v 1252.9500 3.0900 51.7000
v 1251.0500 3.0100 52.3000
v 1251.0500 3.0100 51.7000
v 1251.0500 3.0900 51.7000
v 1251.0500 3.0900 52.3000
v 1231.7500 0.3300 25.6250
v 1233.2500 0.3300 25.6250
v 1233.2500 0.3300 26.3750
v 1231.7500 0.3300 26.3750
v 1231.7500 0.3900 25.6250
v 1233.2500 0.3900 25.6250
v 1233.2500 0.3900 26.3750
v 1231.7500 0.3900 26.3750
v 1231.8100 0.0000 25.6500
v 1231.8900 0.0000 25.6500
v 1231.8900 0.0000 26.3500
v 1231.8100 0.0000 26.3500
v 1231.8100 0.3600 25.6500
v 1231.8900 0.3600 25.6500
v 1231.8900 0.3600 26.3500
v 1231.8100 0.3600 26.3500
v 1233.1100 0.0000 25.6500
v 1233.1900 0.0000 25.6500
v 1233.1900 0.0000 26.3500
v 1233.1100 0.0000 26.3500
v 1233.1100 0.3600 25.6500
v 1233.1900 0.3600 25.6500
v 1233.1900 0.3600 26.3500
v 1233.1100 0.3600 26.3500
v 1232.2700 0.3900 26.0400
v 1232.7300 0.3900 26.0400
v 1232.7300 0.3900 26.2000
v 1232.2700 0.3900 26.2000
v 1232.2700 0.7700 26.0400
v 1232.7300 0.7700 26.0400
v 1232.7300 0.7700 26.2000
v 1232.2700 0.7700 26.2000
v 1244.7500 0.3300 25.6250
v 1246.2500 0.3300 25.6250
v 1246.2500 0.3300 26.3750
v 1244.7500 0.3300 26.3750
v 1244.7500 0.3900 25.6250
v 1246.2500 0.3900 25.6250
v 1246.2500 0.3900 26.3750
v 1244.7500 0.3900 26.3750
v 1244.8100 0.0000 25.6500
v 1244.8900 0.0000 25.6500
v 1244.8900 0.0000 26.3500
v 1244.8100 0.0000 26.3500
v 1244.8100 0.3600 25.6500
v 1244.8900 0.3600 25.6500
v 1244.8900 0.3600 26.3500
v 1244.8100 0.3600 26.3500
v 1246.1100 0.0000 25.6500
v 1246.1900 0.0000 25.6500
v 1246.1900 0.0000 26.3500
v 1246.1100 0.0000 26.3500
v 1246.1100 0.3600 25.6500
v 1246.1900 0.3600 25.6500
v 1246.1900 0.3600 26.3500
v 1246.1100 0.3600 26.3500
v 1245.2700 0.3900 26.0400
v 1245.7300 0.3900 26.0400
v 1245.7300 0.3900 26.2000
v 1245.2700 0.3900 26.2000
v 1245.2700 0.7700 26.0400
v 1245.7300 0.7700 26.0400
v 1245.7300 0.7700 26.2000
v 1245.2700 0.7700 26.2000
v 1244.7500 0.3300 32.1250
v 1246.2500 0.3300 32.1250
v 1246.2500 0.3300 32.8750
v 1244.7500 0.3300 32.8750
v 1244.7500 0.3900 32.1250
v 1246.2500 0.3900 32.1250
v 1246.2500 0.3900 32.8750
v 1244.7500 0.3900 32.8750
v 1244.8100 0.0000 32.1500
v 1244.8900 0.0000 32.1500
v 1244.8900 0.0000 32.8500
v 1244.8100 0.0000 32.8500
v 1244.8100 0.3600 32.1500
v 1244.8900 0.3600 32.1500
v 1244.8900 0.3600 32.8500
v 1244.8100 0.3600 32.8500
v 1246.1100 0.0000 32.1500
v 1246.1900 0.0000 32.1500
v 1246.1900 0.0000 32.8500
v 1246.1100 0.0000 32.8500
v 1246.1100 0.3600 32.1500
v 1246.1900 0.3600 32.1500
v 1246.1900 0.3600 32.8500
v 1246.1100 0.3600 32.8500
v 1245.2700 0.3900 32.5400
v 1245.7300 0.3900 32.5400
v 1245.7300 0.3900 32.7000
v 1245.2700 0.3900 32.7000
v 1245.2700 0.7700 32.5400
v 1245.7300 0.7700 32.5400
v 1245.7300 0.7700 32.7000
v 1245.2700 0.7700 32.7000
v 1225.2500 0.3300 38.6250
v 1226.7500 0.3300 38.6250
v 1226.7500 0.3300 39.3750
v 1225.2500 0.3300 39.3750
v 1225.2500 0.3900 38.6250
v 1226.7500 0.3900 38.6250
v 1226.7500 0.3900 39.3750
v 1225.2500 0.3900 39.3750
v 1225.3100 0.0000 38.6500
v 1225.3900 0.0000 38.6500
v 1225.3900 0.0000 39.3500
v 1225.3100 0.0000 39.3500
v 1225.3100 0.3600 38.6500
v 1225.3900 0.3600 38.6500
v 1225.3900 0.3600 39.3500
v 1225.3100 0.3600 39.3500
v 1226.6100 0.0000 38.6500
v 1226.6900 0.0000 38.6500
v 1226.6900 0.0000 39.3500
v 1226.6100 0.0000 39.3500
v 1226.6100 0.3600 38.6500
v 1226.6900 0.3600 38.6500
v 1226.6900 0.3600 39.3500
v 1226.6100 0.3600 39.3500
v 1225.7700 0.3900 39.0400
v 1226.2300 0.3900 39.0400
v 1226.2300 0.3900 39.2000
v 1225.7700 0.3900 39.2000
v 1225.7700 0.7700 39.0400
v 1226.2300 0.7700 39.0400
v 1226.2300 0.7700 39.2000
v 1225.7700 0.7700 39.2000
v 1244.7500 0.3300 38.6250
v 1246.2500 0.3300 38.6250
v 1246.2500 0.3300 39.3750
v 1244.7500 0.3300 39.3750
v 1244.7500 0.3900 38.6250
v 1246.2500 0.3900 38.6250
v 1246.2500 0.3900 39.3750
v 1244.7500 0.3900 39.3750
v 1244.8100 0.0000 38.6500
v 1244.8900 0.0000 38.6500
v 1244.8900 0.0000 39.3500
v 1244.8100 0.0000 39.3500
v 1244.8100 0.3600 38.6500
v 1244.8900 0.3600 38.6500
v 1244.8900 0.3600 39.3500
v 1244.8100 0.3600 39.3500
v 1246.1100 0.0000 38.6500
v 1246.1900 0.0000 38.6500
v 1246.1900 0.0000 39.3500
v 1246.1100 0.0000 39.3500
v 1246.1100 0.3600 38.6500
v 1246.1900 0.3600 38.6500
v 1246.1900 0.3600 39.3500
v 1246.1100 0.3600 39.3500
v 1245.2700 0.3900 39.0400
v 1245.7300 0.3900 39.0400
v 1245.7300 0.3900 39.2000
v 1245.2700 0.3900 39.2000
v 1245.2700 0.7700 39.0400
v 1245.7300 0.7700 39.0400
v 1245.7300 0.7700 39.2000
v 1245.2700 0.7700 39.2000
v 1225.2500 0.3300 45.1250
v 1226.7500 0.3300 45.1250
v 1226.7500 0.3300 45.8750
v 1225.2500 0.3300 45.8750
v 1225.2500 0.3900 45.1250
v 1226.7500 0.3900 45.1250
v 1226.7500 0.3900 45.8750
v 1225.2500 0.3900 45.8750
v 1225.3100 0.0000 45.1500
v 1225.3900 0.0000 45.1500
v 1225.3900 0.0000 45.8500
v 1225.3100 0.0000 45.8500
v 1225.3100 0.3600 45.1500
v 1225.3900 0.3600 45.1500
v 1225.3900 0.3600 45.8500
v 1225.3100 0.3600 45.8500
v 1226.6100 0.0000 45.1500
v 1226.6900 0.0000 45.1500
v 1226.6900 0.0000 45.8500
v 1226.6100 0.0000 45.8500
v 1226.6100 0.3600 45.1500
v 1226.6900 0.3600 45.1500
v 1226.6900 0.3600 45.8500
v 1226.6100 0.3600 45.8500
v 1225.7700 0.3900 45.5400
v 1226.2300 0.3900 45.5400
v 1226.2300 0.3900 45.7000
v 1225.7700 0.3900 45.7000
v 1225.7700 0.7700 45.5400
v 1226.2300 0.7700 45.5400
v 1226.2300 0.7700 45.7000
v 1225.7700 0.7700 45.7000
v 1238.2500 0.3300 45.1250
v 1239.7500 0.3300 45.1250
v 1239.7500 0.3300 45.8750
v 1238.2500 0.3300 45.8750
v 1238.2500 0.3900 45.1250
v 1239.7500 0.3900 45.1250
v 1239.7500 0.3900 45.8750
v 1238.2500 0.3900 45.8750
v 1238.3100 0.0000 45.1500
v 1238.3900 0.0000 45.1500
v 1238.3900 0.0000 45.8500
v 1238.3100 0.0000 45.8500
v 1238.3100 0.3600 45.1500
v 1238.3900 0.3600 45.1500
v 1238.3900 0.3600 45.8500
v 1238.3100 0.3600 45.8500
v 1239.6100 0.0000 45.1500
v 1239.6900 0.0000 45.1500
v 1239.6900 0.0000 45.8500
v 1239.6100 0.0000 45.8500
v 1239.6100 0.3600 45.1500
v 1239.6900 0.3600 45.1500
v 1239.6900 0.3600 45.8500
v 1239.6100 0.3600 45.8500
v 1238.7700 0.3900 45.5400
v 1239.2300 0.3900 45.5400
v 1239.2300 0.3900 45.7000
v 1238.7700 0.3900 45.7000
v 1238.7700 0.7700 45.5400
v 1239.2300 0.7700 45.5400
v 1239.2300 0.7700 45.7000
v 1238.7700 0.7700 45.7000
v 1251.2500 0.3300 45.1250
v 1252.7500 0.3300 45.1250
v 1252.7500 0.3300 45.8750
v 1251.2500 0.3300 45.8750
v 1251.2500 0.3900 45.1250
v 1252.7500 0.3900 45.1250
v 1252.7500 0.3900 45.8750
v 1251.2500 0.3900 45.8750
v 1251.3100 0.0000 45.1500
v 1251.3900 0.0000 45.1500
v 1251.3900 0.0000 45.8500
v 1251.3100 0.0000 45.8500
v 1251.3100 0.3600 45.1500
v 1251.3900 0.3600 45.1500
v 1251.3900 0.3600 45.8500
v 1251.3100 0.3600 45.8500
v 1252.6100 0.0000 45.1500
v 1252.6900 0.0000 45.1500
v 1252.6900 0.0000 45.8500
v 1252.6100 0.0000 45.8500
v 1252.6100 0.3600 45.1500
v 1252.6900 0.3600 45.1500
v 1252.6900 0.3600 45.8500
v 1252.6100 0.3600 45.8500
v 1251.7700 0.3900 45.5400
v 1252.2300 0.3900 45.5400
v 1252.2300 0.3900 45.7000
v 1251.7700 0.3900 45.7000
v 1251.7700 0.7700 45.5400
v 1252.2300 0.7700 45.5400
v 1252.2300 0.7700 45.7000
v 1251.7700 0.7700 45.7000
v 1225.2500 0.3300 51.6250
v 1226.7500 0.3300 51.6250
v 1226.7500 0.3300 52.3750
v 1225.2500 0.3300 52.3750
v 1225.2500 0.3900 51.6250
v 1226.7500 0.3900 51.6250
v 1226.7500 0.3900 52.3750
v 1225.2500 0.3900 52.3750
v 1225.3100 0.0000 51.6500
v 1225.3900 0.0000 51.6500
v 1225.3900 0.0000 52.3500
v 1225.3100 0.0000 52.3500
v 1225.3100 0.3600 51.6500
v 1225.3900 0.3600 51.6500
v 1225.3900 0.3600 52.3500
v 1225.3100 0.3600 52.3500
v 1226.6100 0.0000 51.6500
v 1226.6900 0.0000 51.6500
v 1226.6900 0.0000 52.3500
v 1226.6100 0.0000 52.3500
v 1226.6100 0.3600 51.6500
v 1226.6900 0.3600 51.6500
v 1226.6900 0.3600 52.3500
v 1226.6100 0.3600 52.3500
v 1225.7700 0.3900 52.0400
v 1226.2300 0.3900 52.0400
v 1226.2300 0.3900 52.2000
v 1225.7700 0.3900 52.2000
v 1225.7700 0.7700 52.0400
v 1226.2300 0.7700 52.0400
v 1226.2300 0.7700 52.2000
v 1225.7700 0.7700 52.2000
v 1244.7500 0.3300 51.6250
v 1246.2500 0.3300 51.6250
v 1246.2500 0.3300 52.3750
v 1244.7500 0.3300 52.3750
v 1244.7500 0.3900 51.6250
v 1246.2500 0.3900 51.6250
v 1246.2500 0.3900 52.3750
v 1244.7500 0.3900 52.3750
v 1244.8100 0.0000 51.6500
v 1244.8900 0.0000 51.6500
v 1244.8900 0.0000 52.3500
v 1244.8100 0.0000 52.3500
v 1244.8100 0.3600 51.6500
v 1244.8900 0.3600 51.6500
v 1244.8900 0.3600 52.3500
v 1244.8100 0.3600 52.3500
v 1246.1100 0.0000 51.6500
v 1246.1900 0.0000 51.6500
v 1246.1900 0.0000 52.3500
v 1246.1100 0.0000 52.3500
v 1246.1100 0.3600 51.6500
v 1246.1900 0.3600 51.6500
v 1246.1900 0.3600 52.3500
v 1246.1100 0.3600 52.3500
v 1245.2700 0.3900 52.0400
v 1245.7300 0.3900 52.0400
v 1245.7300 0.3900 52.2000
v 1245.2700 0.3900 52.2000
v 1245.2700 0.7700 52.0400
v 1245.7300 0.7700 52.0400
v 1245.7300 0.7700 52.2000
v 1245.2700 0.7700 52.2000
vt 556.4545 9.5227
vt 556.4545 11.1591
vt 558.0909 11.1591
vt 558.0909 9.5227
vt 556.4545 9.5227
vt 558.0909 9.5227
vt 558.0909 11.1591
vt 556.4545 11.1591
vt 556.4545 0.0000
vt 558.0909 0.0000
vt 558.0909 1.4091
vt 556.4545 1.4091
vt 558.0909 0.0000
vt 556.4545 0.0000
vt 556.4545 1.4091
vt 558.0909 1.4091
vt 9.5227 0.0000
vt 11.1591 0.0000
vt 11.1591 1.4091
vt 9.5227 1.4091
vt 11.1591 0.0000
vt 9.5227 0.0000
vt 9.5227 1.4091
vt 11.1591 1.4091
vt 560.8864 9.5227
vt 560.8864 11.1591
vt 562.5227 11.1591
vt 562.5227 9.5227
vt 560.8864 9.5227
vt 562.5227 9.5227
vt 562.5227 11.1591
vt 560.8864 11.1591
vt 560.8864 0.0000
vt 562.5227 0.0000
vt 562.5227 1.4091
vt 560.8864 1.4091
vt 562.5227 0.0000
vt 560.8864 0.0000
vt 560.8864 1.4091
vt 562.5227 1.4091
vt 9.5227 0.0000
vt 11.1591 0.0000
vt 11.1591 1.4091
vt 9.5227 1.4091
vt 11.1591 0.0000
vt 9.5227 0.0000
vt 9.5227 1.4091
vt 11.1591 1.4091
vt 562.3636 9.5227
vt 562.3636 11.1591
vt 564.0000 11.1591
vt 564.0000 9.5227
vt 562.3636 9.5227
vt 564.0000 9.5227
vt 564.0000 11.1591
vt 562.3636 11.1591
vt 562.3636 0.0000
vt 564.0000 0.0000
vt 564.0000 1.4091
vt 562.3636 1.4091
vt 564.0000 0.0000
vt 562.3636 0.0000
vt 562.3636 1.4091
vt 564.0000 1.4091
vt 9.5227 0.0000
vt 11.1591 0.0000
vt 11.1591 1.4091
vt 9.5227 1.4091
vt 11.1591 0.0000
vt 9.5227 0.0000
vt 9.5227 1.4091
vt 11.1591 1.4091
vt 563.8409 9.5227
vt 563.8409 11.1591
vt 565.4773 11.1591
vt 565.4773 9.5227
vt 563.8409 9.5227
vt 565.4773 9.5227
vt 565.4773 11.1591
vt 563.8409 11.1591
vt 563.8409 0.0000
vt 565.4773 0.0000
vt 565.4773 1.4091
vt 563.8409 1.4091
vt 565.4773 0.0000
vt 563.8409 0.0000
vt 563.8409 1.4091
vt 565.4773 1.4091
vt 9.5227 0.0000
vt 11.1591 0.0000
vt 11.1591 1.4091
vt 9.5227 1.4091
vt 11.1591 0.0000
vt 9.5227 0.0000
vt 9.5227 1.4091
vt 11.1591 1.4091
vt 568.2727 9.5227
vt 568.2727 11.1591
vt 569.9091 11.1591
vt 569.9091 9.5227
vt 568.2727 9.5227
vt 569.9091 9.5227
vt 569.9091 11.1591
vt 568.2727 11.1591
vt 568.2727 0.0000
vt 569.9091 0.0000
vt 569.9091 1.4091
vt 568.2727 1.4091
vt 569.9091 0.0000
vt 568.2727 0.0000
vt 568.2727 1.4091
vt 569.9091 1.4091
vt 9.5227 0.0000
vt 11.1591 0.0000
vt 11.1591 1.4091
vt 9.5227 1.4091
vt 11.1591 0.0000
vt 9.5227 0.0000
vt 9.5227 1.4091
vt 11.1591 1.4091
vt 560.8864 15.4318
vt 560.8864 17.0682
vt 562.5227 17.0682
vt 562.5227 15.4318
vt 560.8864 15.4318
vt 562.5227 15.4318
vt 562.5227 17.0682
vt 560.8864 17.0682
vt 560.8864 0.0000
vt 562.5227 0.0000
vt 562.5227 1.4091
vt 560.8864 1.4091
vt 562.5227 0.0000
vt 560.8864 0.0000
vt 560.8864 1.4091
vt 562.5227 1.4091
vt 15.4318 0.0000
vt 17.0682 0.0000
vt 17.0682 1.4091
vt 15.4318 1.4091
vt 17.0682 0.0000
vt 15.4318 0.0000
vt 15.4318 1.4091
vt 17.0682 1.4091
vt 566.7955 16.9091
vt 566.7955 18.5455
vt 568.4318 18.5455
vt 568.4318 16.9091
vt 566.7955 16.9091
vt 568.4318 16.9091
vt 568.4318 18.5455
vt 566.7955 18.5455
vt 566.7955 0.0000
vt 568.4318 0.0000
vt 568.4318 1.4091
vt 566.7955 1.4091
vt 568.4318 0.0000
vt 566.7955 0.0000
vt 566.7955 1.4091
vt 568.4318 1.4091
vt 16.9091 0.0000
vt 18.5455 0.0000
vt 18.5455 1.4091
vt 16.9091 1.4091
vt 18.5455 0.0000
vt 16.9091 0.0000
vt 16.9091 1.4091
vt 18.5455 1.4091
vt 557.9318 18.3864
vt 557.9318 20.0227
vt 559.5682 20.0227
vt 559.5682 18.3864
vt 557.9318 18.3864
vt 559.5682 18.3864
vt 559.5682 20.0227
vt 557.9318 20.0227
vt 557.9318 0.0000
vt 559.5682 0.0000
vt 559.5682 1.4091
vt 557.9318 1.4091
vt 559.5682 0.0000
vt 557.9318 0.0000
vt 557.9318 1.4091
vt 559.5682 1.4091
vt 18.3864 0.0000
vt 20.0227 0.0000
vt 20.0227 1.4091
vt 18.3864 1.4091
vt 20.0227 0.0000
vt 18.3864 0.0000
vt 18.3864 1.4091
vt 20.0227 1.4091
vt 560.8864 18.3864
vt 560.8864 20.0227
vt 562.5227 20.0227
vt 562.5227 18.3864
vt 560.8864 18.3864
vt 562.5227 18.3864
vt 562.5227 20.0227
vt 560.8864 20.0227
vt 560.8864 0.0000
vt 562.5227 0.0000
vt 562.5227 1.4091
vt 560.8864 1.4091
vt 562.5227 0.0000
vt 560.8864 0.0000
vt 560.8864 1.4091
vt 562.5227 1.4091
vt 18.3864 0.0000
vt 20.0227 0.0000
vt 20.0227 1.4091
vt 18.3864 1.4091
vt 20.0227 0.0000
vt 18.3864 0.0000
vt 18.3864 1.4091
vt 20.0227 1.4091
vt 566.7955 18.3864
vt 566.7955 20.0227
vt 568.4318 20.0227
vt 568.4318 18.3864
vt 566.7955 18.3864
vt 568.4318 18.3864
vt 568.4318 20.0227
vt 566.7955 20.0227
vt 566.7955 0.0000
vt 568.4318 0.0000
vt 568.4318 1.4091
vt 566.7955 1.4091
vt 568.4318 0.0000
vt 566.7955 0.0000
vt 566.7955 1.4091
vt 568.4318 1.4091
vt 18.3864 0.0000
vt 20.0227 0.0000
vt 20.0227 1.4091
vt 18.3864 1.4091
vt 20.0227 0.0000
vt 18.3864 0.0000
vt 18.3864 1.4091
vt 20.0227 1.4091
vt 560.8864 19.8636
vt 560.8864 21.5000
vt 562.5227 21.5000
vt 562.5227 19.8636
vt 560.8864 19.8636
vt 562.5227 19.8636
vt 562.5227 21.5000
vt 560.8864 21.5000
vt 560.8864 0.0000
vt 562.5227 0.0000
vt 562.5227 1.4091
vt 560.8864 1.4091
vt 562.5227 0.0000
vt 560.8864 0.0000
vt 560.8864 1.4091
vt 562.5227 1.4091
vt 19.8636 0.0000
vt 21.5000 0.0000
vt 21.5000 1.4091
vt 19.8636 1.4091
vt 21.5000 0.0000
vt 19.8636 0.0000
vt 19.8636 1.4091
vt 21.5000 1.4091
vt 560.8864 21.3409
vt 560.8864 22.9773
vt 562.5227 22.9773
vt 562.5227 21.3409
vt 560.8864 21.3409
vt 562.5227 21.3409
vt 562.5227 22.9773
vt 560.8864 22.9773
vt 560.8864 0.0000
vt 562.5227 0.0000
vt 562.5227 1.4091
vt 560.8864 1.4091
vt 562.5227 0.0000
vt 560.8864 0.0000
vt 560.8864 1.4091
vt 562.5227 1.4091
vt 21.3409 0.0000
vt 22.9773 0.0000
vt 22.9773 1.4091
vt 21.3409 1.4091
vt 22.9773 0.0000
vt 21.3409 0.0000
vt 21.3409 1.4091
vt 22.9773 1.4091
vt 1014.7951 21.0656
vt 1014.7951 21.5574
vt 1016.3525 21.5574
vt 1016.3525 21.0656
vt 1014.7951 21.0656
vt 1016.3525 21.0656
vt 1016.3525 21.5574
vt 1014.7951 21.5574
vt 1014.7951 2.4672
vt 1016.3525 2.4672
vt 1016.3525 2.5328
vt 1014.7951 2.5328
vt 1016.3525 2.4672
vt 1014.7951 2.4672
vt 1014.7951 2.5328
vt 1016.3525 2.5328
vt 21.0656 2.4672
vt 21.5574 2.4672
vt 21.5574 2.5328
vt 21.0656 2.5328
vt 21.5574 2.4672
vt 21.0656 2.4672
vt 21.0656 2.5328
vt 21.5574 2.5328
vt 1020.1230 21.0656
vt 1020.1230 21.5574
vt 1021.6803 21.5574
vt 1021.6803 21.0656
vt 1020.1230 21.0656
vt 1021.6803 21.0656
vt 1021.6803 21.5574
vt 1020.1230 21.5574
vt 1020.1230 2.4672
vt 1021.6803 2.4672
vt 1021.6803 2.5328
vt 1020.1230 2.5328
vt 1021.6803 2.4672
vt 1020.1230 2.4672
vt 1020.1230 2.5328
vt 1021.6803 2.5328
vt 21.0656 2.4672
vt 21.5574 2.4672
vt 21.5574 2.5328
vt 21.0656 2.5328
vt 21.5574 2.4672
vt 21.0656 2.4672
vt 21.0656 2.5328
vt 21.5574 2.5328
vt 1025.4508 21.0656
vt 1025.4508 21.5574
vt 1027.0082 21.5574
vt 1027.0082 21.0656
vt 1025.4508 21.0656
vt 1027.0082 21.0656
vt 1027.0082 21.5574
vt 1025.4508 21.5574
vt 1025.4508 2.4672
vt 1027.0082 2.4672
vt 1027.0082 2.5328
vt 1025.4508 2.5328
vt 1027.0082 2.4672
vt 1025.4508 2.4672
vt 1025.4508 2.5328
vt 1027.0082 2.5328
vt 21.0656 2.4672
vt 21.5574 2.4672
vt 21.5574 2.5328
vt 21.0656 2.5328
vt 21.5574 2.4672
vt 21.0656 2.4672
vt 21.0656 2.5328
vt 21.5574 2.5328
vt 1014.7951 26.3934
vt 1014.7951 26.8852
vt 1016.3525 26.8852
vt 1016.3525 26.3934
vt 1014.7951 26.3934
vt 1016.3525 26.3934
vt 1016.3525 26.8852
vt 1014.7951 26.8852
vt 1014.7951 2.4672
vt 1016.3525 2.4672
vt 1016.3525 2.5328
vt 1014.7951 2.5328
vt 1016.3525 2.4672
vt 1014.7951 2.4672
vt 1014.7951 2.5328
vt 1016.3525 2.5328
vt 26.3934 2.4672
vt 26.8852 2.4672
vt 26.8852 2.5328
vt 26.3934 2.5328
vt 26.8852 2.4672
vt 26.3934 2.4672
vt 26.3934 2.5328
vt 26.8852 2.5328
vt 1020.1230 26.3934
vt 1020.1230 26.8852
vt 1021.6803 26.8852
vt 1021.6803 26.3934
vt 1020.1230 26.3934
vt 1021.6803 26.3934
vt 1021.6803 26.8852
vt 1020.1230 26.8852
vt 1020.1230 2.4672
vt 1021.6803 2.4672
vt 1021.6803 2.5328
vt 1020.1230 2.5328
vt 1021.6803 2.4672
vt 1020.1230 2.4672
vt 1020.1230 2.5328
vt 1021.6803 2.5328
vt 26.3934 2.4672
vt 26.8852 2.4672
vt 26.8852 2.5328
vt 26.3934 2.5328
vt 26.8852 2.4672
vt 26.3934 2.4672
vt 26.3934 2.5328
vt 26.8852 2.5328
vt 1004.1393 31.7213
vt 1004.1393 32.2131
vt 1005.6967 32.2131
vt 1005.6967 31.7213
vt 1004.1393 31.7213
vt 1005.6967 31.7213
vt 1005.6967 32.2131
vt 1004.1393 32.2131
vt 1004.1393 2.4672
vt 1005.6967 2.4672
vt 1005.6967 2.5328
vt 1004.1393 2.5328
vt 1005.6967 2.4672
vt 1004.1393 2.4672
vt 1004.1393 2.5328
vt 1005.6967 2.5328
vt 31.7213 2.4672
vt 32.2131 2.4672
vt 32.2131 2.5328
vt 31.7213 2.5328
vt 32.2131 2.4672
vt 31.7213 2.4672
vt 31.7213 2.5328
vt 32.2131 2.5328
vt 1009.4672 31.7213
vt 1009.4672 32.2131
vt 1011.0246 32.2131
vt 1011.0246 31.7213
vt 1009.4672 31.7213
vt 1011.0246 31.7213
vt 1011.0246 32.2131
vt 1009.4672 32.2131
vt 1009.4672 2.4672
vt 1011.0246 2.4672
vt 1011.0246 2.5328
vt 1009.4672 2.5328
vt 1011.0246 2.4672
vt 1009.4672 2.4672
vt 1009.4672 2.5328
vt 1011.0246 2.5328
vt 31.7213 2.4672
vt 32.2131 2.4672
vt 32.2131 2.5328
vt 31.7213 2.5328
vt 32.2131 2.4672
vt 31.7213 2.4672
vt 31.7213 2.5328
vt 32.2131 2.5328
vt 1014.7951 31.7213
vt 1014.7951 32.2131
vt 1016.3525 32.2131
vt 1016.3525 31.7213
vt 1014.7951 31.7213
vt 1016.3525 31.7213
vt 1016.3525 32.2131
vt 1014.7951 32.2131
vt 1014.7951 2.4672
vt 1016.3525 2.4672
vt 1016.3525 2.5328
vt 1014.7951 2.5328
vt 1016.3525 2.4672
vt 1014.7951 2.4672
vt 1014.7951 2.5328
vt 1016.3525 2.5328
vt 31.7213 2.4672
vt 32.2131 2.4672
vt 32.2131 2.5328
vt 31.7213 2.5328
vt 32.2131 2.4672
vt 31.7213 2.4672
vt 31.7213 2.5328
vt 32.2131 2.5328
vt 1004.1393 37.0492
vt 1004.1393 37.5410
vt 1005.6967 37.5410
vt 1005.6967 37.0492
vt 1004.1393 37.0492
vt 1005.6967 37.0492
vt 1005.6967 37.5410
vt 1004.1393 37.5410
vt 1004.1393 2.4672
vt 1005.6967 2.4672
vt 1005.6967 2.5328
vt 1004.1393 2.5328
vt 1005.6967 2.4672
vt 1004.1393 2.4672
vt 1004.1393 2.5328
vt 1005.6967 2.5328
vt 37.0492 2.4672
vt 37.5410 2.4672
vt 37.5410 2.5328
vt 37.0492 2.5328
vt 37.5410 2.4672
vt 37.0492 2.4672
vt 37.0492 2.5328
vt 37.5410 2.5328
vt 1020.1230 37.0492
vt 1020.1230 37.5410
vt 1021.6803 37.5410
vt 1021.6803 37.0492
vt 1020.1230 37.0492
vt 1021.6803 37.0492
vt 1021.6803 37.5410
vt 1020.1230 37.5410
vt 1020.1230 2.4672
vt 1021.6803 2.4672
vt 1021.6803 2.5328
vt 1020.1230 2.5328
vt 1021.6803 2.4672
vt 1020.1230 2.4672
vt 1020.1230 2.5328
vt 1021.6803 2.5328
vt 37.0492 2.4672
vt 37.5410 2.4672
vt 37.5410 2.5328
vt 37.0492 2.5328
vt 37.5410 2.4672
vt 37.0492 2.4672
vt 37.0492 2.5328
vt 37.5410 2.5328
vt 1025.4508 37.0492
vt 1025.4508 37.5410
vt 1027.0082 37.5410
vt 1027.0082 37.0492
vt 1025.4508 37.0492
vt 1027.0082 37.0492
vt 1027.0082 37.5410
vt 1025.4508 37.5410
vt 1025.4508 2.4672
vt 1027.0082 2.4672
vt 1027.0082 2.5328
vt 1025.4508 2.5328
vt 1027.0082 2.4672
vt 1025.4508 2.4672
vt 1025.4508 2.5328
vt 1027.0082 2.5328
vt 37.0492 2.4672
vt 37.5410 2.4672
vt 37.5410 2.5328
vt 37.0492 2.5328
vt 37.5410 2.4672
vt 37.0492 2.4672
vt 37.0492 2.5328
vt 37.5410 2.5328
vt 1004.1393 42.3770
vt 1004.1393 42.8689
vt 1005.6967 42.8689
vt 1005.6967 42.3770
vt 1004.1393 42.3770
vt 1005.6967 42.3770
vt 1005.6967 42.8689
vt 1004.1393 42.8689
vt 1004.1393 2.4672
vt 1005.6967 2.4672
vt 1005.6967 2.5328
vt 1004.1393 2.5328
vt 1005.6967 2.4672
vt 1004.1393 2.4672
vt 1004.1393 2.5328
vt 1005.6967 2.5328
vt 42.3770 2.4672
vt 42.8689 2.4672
vt 42.8689 2.5328
vt 42.3770 2.5328
vt 42.8689 2.4672
vt 42.3770 2.4672
vt 42.3770 2.5328
vt 42.8689 2.5328
vt 1014.7951 42.3770
vt 1014.7951 42.8689
vt 1016.3525 42.8689
vt 1016.3525 42.3770
vt 1014.7951 42.3770
vt 1016.3525 42.3770
vt 1016.3525 42.8689
vt 1014.7951 42.8689
vt 1014.7951 2.4672
vt 1016.3525 2.4672
vt 1016.3525 2.5328
vt 1014.7951 2.5328
vt 1016.3525 2.4672
vt 1014.7951 2.4672
vt 1014.7951 2.5328
vt 1016.3525 2.5328
vt 42.3770 2.4672
vt 42.8689 2.4672
vt 42.8689 2.5328
vt 42.3770 2.5328
vt 42.8689 2.4672
vt 42.3770 2.4672
vt 42.3770 2.5328
vt 42.8689 2.5328
vt 1020.1230 42.3770
vt 1020.1230 42.8689
vt 1021.6803 42.8689
vt 1021.6803 42.3770
vt 1020.1230 42.3770
vt 1021.6803 42.3770
vt 1021.6803 42.8689
vt 1020.1230 42.8689
vt 1020.1230 2.4672
vt 1021.6803 2.4672
vt 1021.6803 2.5328
vt 1020.1230 2.5328
vt 1021.6803 2.4672
vt 1020.1230 2.4672
vt 1020.1230 2.5328
vt 1021.6803 2.5328
vt 42.3770 2.4672
vt 42.8689 2.4672
vt 42.8689 2.5328
vt 42.3770 2.5328
vt 42.8689 2.4672
vt 42.3770 2.4672
vt 42.3770 2.5328
vt 42.8689 2.5328
vt 1025.4508 42.3770
vt 1025.4508 42.8689
vt 1027.0082 42.8689
vt 1027.0082 42.3770
vt 1025.4508 42.3770
vt 1027.0082 42.3770
vt 1027.0082 42.8689
vt 1025.4508 42.8689
vt 1025.4508 2.4672
vt 1027.0082 2.4672
vt 1027.0082 2.5328
vt 1025.4508 2.5328
vt 1027.0082 2.4672
vt 1025.4508 2.4672
vt 1025.4508 2.5328
vt 1027.0082 2.5328
vt 42.3770 2.4672
vt 42.8689 2.4672
vt 42.8689 2.5328
vt 42.3770 2.5328
vt 42.8689 2.4672
vt 42.3770 2.4672
vt 42.3770 2.5328
vt 42.8689 2.5328
usemtl cubicle
f 1 4 3 2
f 5 6 7 8
f 1 2 6 5
f 3 4 8 7
f 2 3 7 6
f 4 1 5 8
f 33 36 35 34
f 37 38 39 40
f 33 34 38 37
f 35 36 40 39
f 34 35 39 38
f 36 33 37 40
f 113 116 115 114
f 117 118 119 120
f 113 114 118 117
f 115 116 120 119
f 114 115 119 118
f 116 113 117 120
f 145 148 147 146
f 149 150 151 152
f 145 146 150 149
f 147 148 152 151
f 146 147 151 150
f 148 145 149 152
f 153 156 155 154
f 157 158 159 160
f 153 154 158 157
f 155 156 160 159
f 154 155 159 158
f 156 153 157 160
f 161 164 163 162
f 165 166 167 168
f 161 162 166 165
f 163 164 168 167
f 162 163 167 166
f 164 161 165 168
f 193 196 195 194
f 197 198 199 200
f 193 194 198 197
f 195 196 200 199
f 194 195 199 198
f 196 193 197 200
f 225 228 227 226
f 229 230 231 232
f 225 226 230 229
f 227 228 232 231
f 226 227 231 230
f 228 225 229 232
f 257 260 259 258
f 261 262 263 264
f 257 258 262 261
f 259 260 264 263
f 258 259 263 262
f 260 257 261 264
f 337 340 339 338
f 341 342 343 344
f 337 338 342 341
f 339 340 344 343
f 338 339 343 342
f 340 337 341 344
f 369 372 371 370
f 373 374 375 376
f 369 370 374 373
f 371 372 376 375
f 370 371 375 374
f 372 369 373 376
usemtl fluorescent
f 377 380 379 378
f 381 382 383 384
f 377 378 382 381
f 379 380 384 383
f 378 379 383 382
f 380 377 381 384
f 409 412 411 410
f 413 414 415 416
f 409 410 414 413
f 411 412 416 415
f 410 411 415 414
f 412 409 413 416
f 441 444 443 442
f 445 446 447 448
f 441 442 446 445
f 443 444 448 447
f 442 443 447 446
f 444 441 445 448
f 473 476 475 474
f 477 478 479 480
f 473 474 478 477
f 475 476 480 479
f 474 475 479 478
f 476 473 477 480
f 505 508 507 506
f 509 510 511 512
f 505 506 510 509
f 507 508 512 511
f 506 507 511 510
f 508 505 509 512
f 537 540 539 538
f 541 542 543 544
f 537 538 542 541
f 539 540 544 543
f 538 539 543 542
f 540 537 541 544
f 569 572 571 570
f 573 574 575 576
f 569 570 574 573
f 571 572 576 575
f 570 571 575 574
f 572 569 573 576
f 601 604 603 602
f 605 606 607 608
f 601 602 606 605
f 603 604 608 607
f 602 603 607 606
f 604 601 605 608
f 633 636 635 634
f 637 638 639 640
f 633 634 638 637
f 635 636 640 639
f 634 635 639 638
f 636 633 637 640
f 665 668 667 666
f 669 670 671 672
f 665 666 670 669
f 667 668 672 671
f 666 667 671 670
f 668 665 669 672
f 697 700 699 698
f 701 702 703 704
f 697 698 702 701
f 699 700 704 703
f 698 699 703 702
f 700 697 701 704
f 729 732 731 730
f 733 734 735 736
f 729 730 734 733
f 731 732 736 735
f 730 731 735 734
f 732 729 733 736
f 761 764 763 762
f 765 766 767 768
f 761 762 766 765
f 763 764 768 767
f 762 763 767 766
f 764 761 765 768
f 793 796 795 794
f 797 798 799 800
f 793 794 798 797
f 795 796 800 799
f 794 795 799 798
f 796 793 797 800
f 825 828 827 826
f 829 830 831 832
f 825 826 830 829
f 827 828 832 831
f 826 827 831 830
f 828 825 829 832
usemtl desk
f 857 860 859 858
f 861 862 863 864
f 857 858 862 861
f 859 860 864 863
f 858 859 863 862
f 860 857 861 864
f 865 868 867 866
f 869 870 871 872
f 865 866 870 869
f 867 868 872 871
f 866 867 871 870
f 868 865 869 872
f 873 876 875 874
f 877 878 879 880
f 873 874 878 877
f 875 876 880 879
f 874 875 879 878
f 876 873 877 880
usemtl monitor
f 881 884 883 882
f 885 886 887 888
f 881 882 886 885
f 883 884 888 887
f 882 883 887 886
f 884 881 885 888
usemtl desk
f 889 892 891 890
f 893 894 895 896
f 889 890 894 893
f 891 892 896 895
f 890 891 895 894
f 892 889 893 896
f 897 900 899 898
f 901 902 903 904
f 897 898 902 901
f 899 900 904 903
f 898 899 903 902
f 900 897 901 904
f 905 908 907 906
f 909 910 911 912
f 905 906 910 909
f 907 908 912 911
f 906 907 911 910
f 908 905 909 912
usemtl monitor
f 913 916 915 914
f 917 918 919 920
f 913 914 918 917
f 915 916 920 919
f 914 915 919 918
f 916 913 917 920
usemtl desk
f 921 924 923 922
f 925 926 927 928
f 921 922 926 925
f 923 924 928 927
f 922 923 927 926
f 924 921 925 928
f 929 932 931 930
f 933 934 935 936
f 929 930 934 933
f 931 932 936 935
f 930 931 935 934
f 932 929 933 936
f 937 940 939 938
f 941 942 943 944
f 937 938 942 941
f 939 940 944 943
f 938 939 943 942
f 940 937 941 944
usemtl monitor
f 945 948 947 946
f 949 950 951 952
f 945 946 950 949
f 947 948 952 951
f 946 947 951 950
f 948 945 949 952
usemtl desk
f 953 956 955 954
f 957 958 959 960
f 953 954 958 957
f 955 956 960 959
f 954 955 959 958
f 956 953 957 960
f 961 964 963 962
f 965 966 967 968
f 961 962 966 965
f 963 964 968 967
f 962 963 967 966
f 964 961 965 968
f 969 972 971 970
f 973 974 975 976
f 969 970 974 973
f 971 972 976 975
f 970 971 975 974
f 972 969 973 976
usemtl monitor
f 977 980 979 978
f 981 982 983 984
f 977 978 982 981
f 979 980 984 983
f 978 979 983 982
f 980 977 981 984
usemtl desk
f 985 988 987 986
f 989 990 991 992
f 985 986 990 989
f 987 988 992 991
f 986 987 991 990
f 988 985 989 992
f 993 996 995 994
f 997 998 999 1000
f 993 994 998 997
f 995 996 1000 999
f 994 995 999 998
f 996 993 997 1000
f 1001 1004 1003 1002
f 1005 1006 1007 1008
f 1001 1002 1006 1005
f 1003 1004 1008 1007
f 1002 1003 1007 1006
f 1004 1001 1005 1008
usemtl monitor
f 1009 1012 1011 1010
f 1013 1014 1015 1016
f 1009 1010 1014 1013
f 1011 1012 1016 1015
f 1010 1011 1015 1014
f 1012 1009 1013 1016
usemtl desk
f 1017 1020 1019 1018
f 1021 1022 1023 1024
f 1017 1018 1022 1021
f 1019 1020 1024 1023
f 1018 1019 1023 1022
f 1020 1017 1021 1024
f 1025 1028 1027 1026
f 1029 1030 1031 1032
f 1025 1026 1030 1029
f 1027 1028 1032 1031
f 1026 1027 1031 1030
f 1028 1025 1029 1032
f 1033 1036 1035 1034
f 1037 1038 1039 1040
f 1033 1034 1038 1037
f 1035 1036 1040 1039
f 1034 1035 1039 1038
f 1036 1033 1037 1040
usemtl monitor
f 1041 1044 1043 1042
f 1045 1046 1047 1048
f 1041 1042 1046 1045
f 1043 1044 1048 1047
f 1042 1043 1047 1046
f 1044 1041 1045 1048
usemtl desk
f 1049 1052 1051 1050
f 1053 1054 1055 1056
f 1049 1050 1054 1053
f 1051 1052 1056 1055
f 1050 1051 1055 1054
f 1052 1049 1053 1056
f 1057 1060 1059 1058
f 1061 1062 1063 1064
f 1057 1058 1062 1061
f 1059 1060 1064 1063
f 1058 1059 1063 1062
f 1060 1057 1061 1064
f 1065 1068 1067 1066
f 1069 1070 1071 1072
f 1065 1066 1070 1069
f 1067 1068 1072 1071
f 1066 1067 1071 1070
f 1068 1065 1069 1072
usemtl monitor
f 1073 1076 1075 1074
f 1077 1078 1079 1080
f 1073 1074 1078 1077
f 1075 1076 1080 1079
f 1074 1075 1079 1078
f 1076 1073 1077 1080
usemtl desk
f 1081 1084 1083 1082
f 1085 1086 1087 1088
f 1081 1082 1086 1085
f 1083 1084 1088 1087
f 1082 1083 1087 1086
f 1084 1081 1085 1088
f 1089 1092 1091 1090
f 1093 1094 1095 1096
f 1089 1090 1094 1093
f 1091 1092 1096 1095
f 1090 1091 1095 1094
f 1092 1089 1093 1096
f 1097 1100 1099 1098
f 1101 1102 1103 1104
f 1097 1098 1102 1101
f 1099 1100 1104 1103
f 1098 1099 1103 1102
f 1100 1097 1101 1104
usemtl monitor
f 1105 1108 1107 1106
f 1109 1110 1111 1112
f 1105 1106 1110 1109
f 1107 1108 1112 1111
f 1106 1107 1111 1110
f 1108 1105 1109 1112
usemtl desk
f 1113 1116 1115 1114
f 1117 1118 1119 1120
f 1113 1114 1118 1117
f 1115 1116 1120 1119
f 1114 1115 1119 1118
f 1116 1113 1117 1120
f 1121 1124 1123 1122
f 1125 1126 1127 1128
f 1121 1122 1126 1125
f 1123 1124 1128 1127
f 1122 1123 1127 1126
f 1124 1121 1125 1128
f 1129 1132 1131 1130
f 1133 1134 1135 1136
f 1129 1130 1134 1133
f 1131 1132 1136 1135
f 1130 1131 1135 1134
f 1132 1129 1133 1136
usemtl monitor
f 1137 1140 1139 1138
f 1141 1142 1143 1144
f 1137 1138 1142 1141
f 1139 1140 1144 1143
f 1138 1139 1143 1142
f 1140 1137 1141 1144
usemtl desk
f 1145 1148 1147 1146
f 1149 1150 1151 1152
f 1145 1146 1150 1149
f 1147 1148 1152 1151
f 1146 1147 1151 1150
f 1148 1145 1149 1152
f 1153 1156 1155 1154
f 1157 1158 1159 1160
f 1153 1154 1158 1157
f 1155 1156 1160 1159
f 1154 1155 1159 1158
f 1156 1153 1157 1160
f 1161 1164 1163 1162
f 1165 1166 1167 1168
f 1161 1162 1166 1165
f 1163 1164 1168 1167
f 1162 1163 1167 1166
f 1164 1161 1165 1168
usemtl monitor
f 1169 1172 1171 1170
f 1173 1174 1175 1176
f 1169 1170 1174 1173
f 1171 1172 1176 1175
f 1170 1171 1175 1174
f 1172 1169 1173 1176
usemtl office_wall
f 9/1 10/2 11/3 12/4
f 13/5 14/6 15/7 16/8
f 17/9 18/10 19/11 20/12
f 21/13 22/14 23/15 24/16
f 25/17 26/18 27/19 28/20
f 29/21 30/22 31/23 32/24
f 41/25 42/26 43/27 44/28
f 45/29 46/30 47/31 48/32
f 49/33 50/34 51/35 52/36
f 53/37 54/38 55/39 56/40
f 57/41 58/42 59/43 60/44
f 61/45 62/46 63/47 64/48
f 65/49 66/50 67/51 68/52
f 69/53 70/54 71/55 72/56
f 73/57 74/58 75/59 76/60
f 77/61 78/62 79/63 80/64
f 81/65 82/66 83/67 84/68
f 85/69 86/70 87/71 88/72
f 89/73 90/74 91/75 92/76
f 93/77 94/78 95/79 96/80
f 97/81 98/82 99/83 100/84
f 101/85 102/86 103/87 104/88
f 105/89 106/90 107/91 108/92
f 109/93 110/94 111/95 112/96
f 121/97 122/98 123/99 124/100
f 125/101 126/102 127/103 128/104
f 129/105 130/106 131/107 132/108
f 133/109 134/110 135/111 136/112
f 137/113 138/114 139/115 140/116
f 141/117 142/118 143/119 144/120
f 169/121 170/122 171/123 172/124
f 173/125 174/126 175/127 176/128
f 177/129 178/130 179/131 180/132
f 181/133 182/134 183/135 184/136
f 185/137 186/138 187/139 188/140
f 189/141 190/142 191/143 192/144
f 201/145 202/146 203/147 204/148
f 205/149 206/150 207/151 208/152
f 209/153 210/154 211/155 212/156
f 213/157 214/158 215/159 216/160
f 217/161 218/162 219/163 220/164
f 221/165 222/166 223/167 224/168
f 233/169 234/170 235/171 236/172
f 237/173 238/174 239/175 240/176
f 241/177 242/178 243/179 244/180
f 245/181 246/182 247/183 248/184
f 249/185 250/186 251/187 252/188
f 253/189 254/190 255/191 256/192
f 265/193 266/194 267/195 268/196
f 269/197 270/198 271/199 272/200
f 273/201 274/202 275/203 276/204
f 277/205 278/206 279/207 280/208
f 281/209 282/210 283/211 284/212
f 285/213 286/214 287/215 288/216
f 289/217 290/218 291/219 292/220
f 293/221 294/222 295/223 296/224
f 297/225 298/226 299/227 300/228
f 301/229 302/230 303/231 304/232
f 305/233 306/234 307/235 308/236
f 309/237 310/238 311/239 312/240
f 313/241 314/242 315/243 316/244
f 317/245 318/246 319/247 320/248
f 321/249 322/250 323/251 324/252
f 325/253 326/254 327/255 328/256
f 329/257 330/258 331/259 332/260
f 333/261 334/262 335/263 336/264
f 345/265 346/266 347/267 348/268
f 349/269 350/270 351/271 352/272
f 353/273 354/274 355/275 356/276
f 357/277 358/278 359/279 360/280
f 361/281 362/282 363/283 364/284
f 365/285 366/286 367/287 368/288
usemtl ceiling_tile
f 385/289 386/290 387/291 388/292
f 389/293 390/294 391/295 392/296
f 393/297 394/298 395/299 396/300
f 397/301 398/302 399/303 400/304
f 401/305 402/306 403/307 404/308
f 405/309 406/310 407/311 408/312
f 417/313 418/314 419/315 420/316
f 421/317 422/318 423/319 424/320
f 425/321 426/322 427/323 428/324
f 429/325 430/326 431/327 432/328
f 433/329 434/330 435/331 436/332
f 437/333 438/334 439/335 440/336
f 449/337 450/338 451/339 452/340
f 453/341 454/342 455/343 456/344
f 457/345 458/346 459/347 460/348
f 461/349 462/350 463/351 464/352
f 465/353 466/354 467/355 468/356
f 469/357 470/358 471/359 472/360
f 481/361 482/362 483/363 484/364
f 485/365 486/366 487/367 488/368
f 489/369 490/370 491/371 492/372
f 493/373 494/374 495/375 496/376
f 497/377 498/378 499/379 500/380
f 501/381 502/382 503/383 504/384
f 513/385 514/386 515/387 516/388
f 517/389 518/390 519/391 520/392
f 521/393 522/394 523/395 524/396
f 525/397 526/398 527/399 528/400
f 529/401 530/402 531/403 532/404
f 533/405 534/406 535/407 536/408
f 545/409 546/410 547/411 548/412
f 549/413 550/414 551/415 552/416
f 553/417 554/418 555/419 556/420
f 557/421 558/422 559/423 560/424
f 561/425 562/426 563/427 564/428
f 565/429 566/430 567/431 568/432
f 577/433 578/434 579/435 580/436
f 581/437 582/438 583/439 584/440
f 585/441 586/442 587/443 588/444
f 589/445 590/446 591/447 592/448
f 593/449 594/450 595/451 596/452
f 597/453 598/454 599/455 600/456
f 609/457 610/458 611/459 612/460
f 613/461 614/462 615/463 616/464
f 617/465 618/466 619/467 620/468
f 621/469 622/470 623/471 624/472
f 625/473 626/474 627/475 628/476
f 629/477 630/478 631/479 632/480
f 641/481 642/482 643/483 644/484
f 645/485 646/486 647/487 648/488
f 649/489 650/490 651/491 652/492
f 653/493 654/494 655/495 656/496
f 657/497 658/498 659/499 660/500
f 661/501 662/502 663/503 664/504
f 673/505 674/506 675/507 676/508
f 677/509 678/510 679/511 680/512
f 681/513 682/514 683/515 684/516
f 685/517 686/518 687/519 688/520
f 689/521 690/522 691/523 692/524
f 693/525 694/526 695/527 696/528
f 705/529 706/530 707/531 708/532
f 709/533 710/534 711/535 712/536
f 713/537 714/538 715/539 716/540
f 717/541 718/542 719/543 720/544
f 721/545 722/546 723/547 724/548
f 725/549 726/550 727/551 728/552
f 737/553 738/554 739/555 740/556
f 741/557 742/558 743/559 744/560
f 745/561 746/562 747/563 748/564
f 749/565 750/566 751/567 752/568
f 753/569 754/570 755/571 756/572
f 757/573 758/574 759/575 760/576
f 769/577 770/578 771/579 772/580
f 773/581 774/582 775/583 776/584
f 777/585 778/586 779/587 780/588
f 781/589 782/590 783/591 784/592
f 785/593 786/594 787/595 788/596
f 789/597 790/598 791/599 792/600
f 801/601 802/602 803/603 804/604
f 805/605 806/606 807/607 808/608
f 809/609 810/610 811/611 812/612
f 813/613 814/614 815/615 816/616
f 817/617 818/618 819/619 820/620
f 821/621 822/622 823/623 824/624
f 833/625 834/626 835/627 836/628
f 837/629 838/630 839/631 840/632
f 841/633 842/634 843/635 844/636
f 845/637 846/638 847/639 848/640
f 849/641 850/642 851/643 852/644
f 853/645 854/646 855/647 856/648
