# RoastEngine Backrooms level
mtllib backrooms.mtl
v 1623.2000 0.0000 -37.3000
v 1623.2000 0.0000 -34.2000
v 1626.3000 0.0000 -34.2000
v 1626.3000 0.0000 -37.3000
v 1623.2000 3.4000 -37.3000
v 1626.3000 3.4000 -37.3000
v 1626.3000 3.4000 -34.2000
v 1623.2000 3.4000 -34.2000
v 1623.2000 0.0000 -37.3000
v 1626.3000 0.0000 -37.3000
v 1626.3000 3.4000 -37.3000
v 1623.2000 3.4000 -37.3000
v 1626.3000 0.0000 -34.2000
v 1623.2000 0.0000 -34.2000
v 1623.2000 3.4000 -34.2000
v 1626.3000 3.4000 -34.2000
v 1626.3000 0.0000 -37.3000
v 1626.3000 0.0000 -34.2000
v 1626.3000 3.4000 -34.2000
v 1626.3000 3.4000 -37.3000
v 1623.2000 0.0000 -34.2000
v 1623.2000 0.0000 -37.3000
v 1623.2000 3.4000 -37.3000
v 1623.2000 3.4000 -34.2000
v 1625.9500 0.0000 -37.3000
v 1629.0500 0.0000 -37.3000
v 1629.0500 0.0000 -34.2000
v 1625.9500 0.0000 -34.2000
v 1625.9500 3.4000 -37.3000
v 1629.0500 3.4000 -37.3000
v 1629.0500 3.4000 -34.2000
v 1625.9500 3.4000 -34.2000
v 1628.7000 0.0000 -37.3000
v 1628.7000 0.0000 -34.2000
v 1631.8000 0.0000 -34.2000
v 1631.8000 0.0000 -37.3000
v 1628.7000 3.4000 -37.3000
v 1631.8000 3.4000 -37.3000
v 1631.8000 3.4000 -34.2000
v 1628.7000 3.4000 -34.2000
v 1628.7000 0.0000 -37.3000
v 1631.8000 0.0000 -37.3000
v 1631.8000 3.4000 -37.3000
v 1628.7000 3.4000 -37.3000
v 1631.8000 0.0000 -34.2000
v 1628.7000 0.0000 -34.2000
v 1628.7000 3.4000 -34.2000
v 1631.8000 3.4000 -34.2000
v 1631.8000 0.0000 -37.3000
v 1631.8000 0.0000 -34.2000
v 1631.8000 3.4000 -34.2000
v 1631.8000 3.4000 -37.3000
v 1628.7000 0.0000 -34.2000
v 1628.7000 0.0000 -37.3000
v 1628.7000 3.4000 -37.3000
v 1628.7000 3.4000 -34.2000
v 1628.7000 0.0000 -31.8000
v 1628.7000 0.0000 -28.7000
v 1631.8000 0.0000 -28.7000
v 1631.8000 0.0000 -31.8000
v 1628.7000 3.4000 -31.8000
v 1631.8000 3.4000 -31.8000
v 1631.8000 3.4000 -28.7000
v 1628.7000 3.4000 -28.7000
v 1628.7000 0.0000 -31.8000
v 1631.8000 0.0000 -31.8000
v 1631.8000 3.4000 -31.8000
v 1628.7000 3.4000 -31.8000
v 1631.8000 0.0000 -28.7000
v 1628.7000 0.0000 -28.7000
v 1628.7000 3.4000 -28.7000
v 1631.8000 3.4000 -28.7000
v 1631.8000 0.0000 -31.8000
v 1631.8000 0.0000 -28.7000
v 1631.8000 3.4000 -28.7000
v 1631.8000 3.4000 -31.8000
v 1628.7000 0.0000 -28.7000
v 1628.7000 0.0000 -31.8000
v 1628.7000 3.4000 -31.8000
v 1628.7000 3.4000 -28.7000
v 1634.2000 0.0000 -31.8000
v 1634.2000 0.0000 -28.7000
v 1637.3000 0.0000 -28.7000
v 1637.3000 0.0000 -31.8000
v 1634.2000 3.4000 -31.8000
v 1637.3000 3.4000 -31.8000
v 1637.3000 3.4000 -28.7000
v 1634.2000 3.4000 -28.7000
v 1634.2000 0.0000 -31.8000
v 1637.3000 0.0000 -31.8000
v 1637.3000 3.4000 -31.8000
v 1634.2000 3.4000 -31.8000
v 1637.3000 0.0000 -28.7000
v 1634.2000 0.0000 -28.7000
v 1634.2000 3.4000 -28.7000
v 1637.3000 3.4000 -28.7000
v 1637.3000 0.0000 -31.8000
v 1637.3000 0.0000 -28.7000
v 1637.3000 3.4000 -28.7000
v 1637.3000 3.4000 -31.8000
v 1634.2000 0.0000 -28.7000
v 1634.2000 0.0000 -31.8000
v 1634.2000 3.4000 -31.8000
v 1634.2000 3.4000 -28.7000
v 1628.7000 0.0000 -29.0500
v 1628.7000 0.0000 -25.9500
v 1631.8000 0.0000 -25.9500
v 1631.8000 0.0000 -29.0500
v 1628.7000 3.4000 -29.0500
v 1631.8000 3.4000 -29.0500
v 1631.8000 3.4000 -25.9500
v 1628.7000 3.4000 -25.9500
v 1628.7000 0.0000 -29.0500
v 1631.8000 0.0000 -29.0500
v 1631.8000 3.4000 -29.0500
v 1628.7000 3.4000 -29.0500
v 1631.8000 0.0000 -25.9500
v 1628.7000 0.0000 -25.9500
v 1628.7000 3.4000 -25.9500
v 1631.8000 3.4000 -25.9500
v 1631.8000 0.0000 -29.0500
v 1631.8000 0.0000 -25.9500
v 1631.8000 3.4000 -25.9500
v 1631.8000 3.4000 -29.0500
v 1628.7000 0.0000 -25.9500
v 1628.7000 0.0000 -29.0500
v 1628.7000 3.4000 -29.0500
v 1628.7000 3.4000 -25.9500
v 1634.2000 0.0000 -29.0500
v 1634.2000 0.0000 -25.9500
v 1637.3000 0.0000 -25.9500
v 1637.3000 0.0000 -29.0500
v 1634.2000 3.4000 -29.0500
v 1637.3000 3.4000 -29.0500
v 1637.3000 3.4000 -25.9500
v 1634.2000 3.4000 -25.9500
v 1634.2000 0.0000 -29.0500
v 1637.3000 0.0000 -29.0500
v 1637.3000 3.4000 -29.0500
v 1634.2000 3.4000 -29.0500
v 1637.3000 0.0000 -25.9500
v 1634.2000 0.0000 -25.9500
v 1634.2000 3.4000 -25.9500
v 1637.3000 3.4000 -25.9500
v 1637.3000 0.0000 -29.0500
v 1637.3000 0.0000 -25.9500
v 1637.3000 3.4000 -25.9500
v 1637.3000 3.4000 -29.0500
v 1634.2000 0.0000 -25.9500
v 1634.2000 0.0000 -29.0500
v 1634.2000 3.4000 -29.0500
v 1634.2000 3.4000 -25.9500
v 1628.7000 0.0000 -26.3000
v 1628.7000 0.0000 -23.2000
v 1631.8000 0.0000 -23.2000
v 1631.8000 0.0000 -26.3000
v 1628.7000 3.4000 -26.3000
v 1631.8000 3.4000 -26.3000
v 1631.8000 3.4000 -23.2000
v 1628.7000 3.4000 -23.2000
v 1628.7000 0.0000 -26.3000
v 1631.8000 0.0000 -26.3000
v 1631.8000 3.4000 -26.3000
v 1628.7000 3.4000 -26.3000
v 1631.8000 0.0000 -23.2000
v 1628.7000 0.0000 -23.2000
v 1628.7000 3.4000 -23.2000
v 1631.8000 3.4000 -23.2000
v 1631.8000 0.0000 -26.3000
v 1631.8000 0.0000 -23.2000
v 1631.8000 3.4000 -23.2000
v 1631.8000 3.4000 -26.3000
v 1628.7000 0.0000 -23.2000
v 1628.7000 0.0000 -26.3000
v 1628.7000 3.4000 -26.3000
v 1628.7000 3.4000 -23.2000
v 1634.2000 0.0000 -26.3000
v 1634.2000 0.0000 -23.2000
v 1637.3000 0.0000 -23.2000
v 1637.3000 0.0000 -26.3000
v 1634.2000 3.4000 -26.3000
v 1637.3000 3.4000 -26.3000
v 1637.3000 3.4000 -23.2000
v 1634.2000 3.4000 -23.2000
v 1634.2000 0.0000 -26.3000
v 1637.3000 0.0000 -26.3000
v 1637.3000 3.4000 -26.3000
v 1634.2000 3.4000 -26.3000
v 1637.3000 0.0000 -23.2000
v 1634.2000 0.0000 -23.2000
v 1634.2000 3.4000 -23.2000
v 1637.3000 3.4000 -23.2000
v 1637.3000 0.0000 -26.3000
v 1637.3000 0.0000 -23.2000
v 1637.3000 3.4000 -23.2000
v 1637.3000 3.4000 -26.3000
v 1634.2000 0.0000 -23.2000
v 1634.2000 0.0000 -26.3000
v 1634.2000 3.4000 -26.3000
v 1634.2000 3.4000 -23.2000
v 1628.7000 0.0000 -23.5500
v 1628.7000 0.0000 -20.4500
v 1631.8000 0.0000 -20.4500
v 1631.8000 0.0000 -23.5500
v 1628.7000 3.4000 -23.5500
v 1631.8000 3.4000 -23.5500
v 1631.8000 3.4000 -20.4500
v 1628.7000 3.4000 -20.4500
v 1628.7000 0.0000 -23.5500
v 1631.8000 0.0000 -23.5500
v 1631.8000 3.4000 -23.5500
v 1628.7000 3.4000 -23.5500
v 1631.8000 0.0000 -20.4500
v 1628.7000 0.0000 -20.4500
v 1628.7000 3.4000 -20.4500
v 1631.8000 3.4000 -20.4500
v 1631.8000 0.0000 -23.5500
v 1631.8000 0.0000 -20.4500
v 1631.8000 3.4000 -20.4500
v 1631.8000 3.4000 -23.5500
v 1628.7000 0.0000 -20.4500
v 1628.7000 0.0000 -23.5500
v 1628.7000 3.4000 -23.5500
v 1628.7000 3.4000 -20.4500
v 1623.2000 0.0000 -20.8000
v 1623.2000 0.0000 -17.7000
v 1626.3000 0.0000 -17.7000
v 1626.3000 0.0000 -20.8000
v 1623.2000 3.4000 -20.8000
v 1626.3000 3.4000 -20.8000
v 1626.3000 3.4000 -17.7000
v 1623.2000 3.4000 -17.7000
v 1623.2000 0.0000 -20.8000
v 1626.3000 0.0000 -20.8000
v 1626.3000 3.4000 -20.8000
v 1623.2000 3.4000 -20.8000
v 1626.3000 0.0000 -17.7000
v 1623.2000 0.0000 -17.7000
v 1623.2000 3.4000 -17.7000
v 1626.3000 3.4000 -17.7000
v 1626.3000 0.0000 -20.8000
v 1626.3000 0.0000 -17.7000
v 1626.3000 3.4000 -17.7000
v 1626.3000 3.4000 -20.8000
v 1623.2000 0.0000 -17.7000
v 1623.2000 0.0000 -20.8000
v 1623.2000 3.4000 -20.8000
v 1623.2000 3.4000 -17.7000
v 1625.9500 0.0000 -20.8000
v 1629.0500 0.0000 -20.8000
v 1629.0500 0.0000 -17.7000
v 1625.9500 0.0000 -17.7000
v 1625.9500 3.4000 -20.8000
v 1629.0500 3.4000 -20.8000
v 1629.0500 3.4000 -17.7000
v 1625.9500 3.4000 -17.7000
v 1628.7000 0.0000 -20.8000
v 1631.8000 0.0000 -20.8000
v 1631.8000 0.0000 -17.7000
v 1628.7000 0.0000 -17.7000
v 1628.7000 3.4000 -20.8000
v 1631.8000 3.4000 -20.8000
v 1631.8000 3.4000 -17.7000
v 1628.7000 3.4000 -17.7000
v 1631.4500 0.0000 -20.8000
v 1631.4500 0.0000 -17.7000
v 1634.5500 0.0000 -17.7000
v 1634.5500 0.0000 -20.8000
v 1631.4500 3.4000 -20.8000
v 1634.5500 3.4000 -20.8000
v 1634.5500 3.4000 -17.7000
v 1631.4500 3.4000 -17.7000
v 1631.4500 0.0000 -20.8000
v 1634.5500 0.0000 -20.8000
v 1634.5500 3.4000 -20.8000
v 1631.4500 3.4000 -20.8000
v 1634.5500 0.0000 -17.7000
v 1631.4500 0.0000 -17.7000
v 1631.4500 3.4000 -17.7000
v 1634.5500 3.4000 -17.7000
v 1634.5500 0.0000 -20.8000
v 1634.5500 0.0000 -17.7000
v 1634.5500 3.4000 -17.7000
v 1634.5500 3.4000 -20.8000
v 1631.4500 0.0000 -17.7000
v 1631.4500 0.0000 -20.8000
v 1631.4500 3.4000 -20.8000
v 1631.4500 3.4000 -17.7000
v 1634.2000 0.0000 -20.8000
v 1634.2000 0.0000 -17.7000
v 1637.3000 0.0000 -17.7000
v 1637.3000 0.0000 -20.8000
v 1634.2000 3.4000 -20.8000
v 1637.3000 3.4000 -20.8000
v 1637.3000 3.4000 -17.7000
v 1634.2000 3.4000 -17.7000
v 1634.2000 0.0000 -20.8000
v 1637.3000 0.0000 -20.8000
v 1637.3000 3.4000 -20.8000
v 1634.2000 3.4000 -20.8000
v 1637.3000 0.0000 -17.7000
v 1634.2000 0.0000 -17.7000
v 1634.2000 3.4000 -17.7000
v 1637.3000 3.4000 -17.7000
v 1637.3000 0.0000 -20.8000
v 1637.3000 0.0000 -17.7000
v 1637.3000 3.4000 -17.7000
v 1637.3000 3.4000 -20.8000
v 1634.2000 0.0000 -17.7000
v 1634.2000 0.0000 -20.8000
v 1634.2000 3.4000 -20.8000
v 1634.2000 3.4000 -17.7000
v 1628.7000 0.0000 -18.0500
v 1628.7000 0.0000 -14.9500
v 1631.8000 0.0000 -14.9500
v 1631.8000 0.0000 -18.0500
v 1628.7000 3.4000 -18.0500
v 1631.8000 3.4000 -18.0500
v 1631.8000 3.4000 -14.9500
v 1628.7000 3.4000 -14.9500
v 1628.7000 0.0000 -18.0500
v 1631.8000 0.0000 -18.0500
v 1631.8000 3.4000 -18.0500
v 1628.7000 3.4000 -18.0500
v 1631.8000 0.0000 -14.9500
v 1628.7000 0.0000 -14.9500
v 1628.7000 3.4000 -14.9500
v 1631.8000 3.4000 -14.9500
v 1631.8000 0.0000 -18.0500
v 1631.8000 0.0000 -14.9500
v 1631.8000 3.4000 -14.9500
v 1631.8000 3.4000 -18.0500
v 1628.7000 0.0000 -14.9500
v 1628.7000 0.0000 -18.0500
v 1628.7000 3.4000 -18.0500
v 1628.7000 3.4000 -14.9500
v 1634.2000 0.0000 -18.0500
v 1634.2000 0.0000 -14.9500
v 1637.3000 0.0000 -14.9500
v 1637.3000 0.0000 -18.0500
v 1634.2000 3.4000 -18.0500
v 1637.3000 3.4000 -18.0500
v 1637.3000 3.4000 -14.9500
v 1634.2000 3.4000 -14.9500
v 1634.2000 0.0000 -18.0500
v 1637.3000 0.0000 -18.0500
v 1637.3000 3.4000 -18.0500
v 1634.2000 3.4000 -18.0500
v 1637.3000 0.0000 -14.9500
v 1634.2000 0.0000 -14.9500
v 1634.2000 3.4000 -14.9500
v 1637.3000 3.4000 -14.9500
v 1637.3000 0.0000 -18.0500
v 1637.3000 0.0000 -14.9500
v 1637.3000 3.4000 -14.9500
v 1637.3000 3.4000 -18.0500
v 1634.2000 0.0000 -14.9500
v 1634.2000 0.0000 -18.0500
v 1634.2000 3.4000 -18.0500
v 1634.2000 3.4000 -14.9500
v 1623.2000 0.0000 -15.3000
v 1626.3000 0.0000 -15.3000
v 1626.3000 0.0000 -12.2000
v 1623.2000 0.0000 -12.2000
v 1623.2000 3.4000 -15.3000
v 1626.3000 3.4000 -15.3000
v 1626.3000 3.4000 -12.2000
v 1623.2000 3.4000 -12.2000
v 1628.7000 0.0000 -15.3000
v 1628.7000 0.0000 -12.2000
v 1631.8000 0.0000 -12.2000
v 1631.8000 0.0000 -15.3000
v 1628.7000 3.4000 -15.3000
v 1631.8000 3.4000 -15.3000
v 1631.8000 3.4000 -12.2000
v 1628.7000 3.4000 -12.2000
v 1628.7000 0.0000 -15.3000
v 1631.8000 0.0000 -15.3000
v 1631.8000 3.4000 -15.3000
v 1628.7000 3.4000 -15.3000
v 1631.8000 0.0000 -12.2000
v 1628.7000 0.0000 -12.2000
v 1628.7000 3.4000 -12.2000
v 1631.8000 3.4000 -12.2000
v 1631.8000 0.0000 -15.3000
v 1631.8000 0.0000 -12.2000
v 1631.8000 3.4000 -12.2000
v 1631.8000 3.4000 -15.3000
v 1628.7000 0.0000 -12.2000
v 1628.7000 0.0000 -15.3000
v 1628.7000 3.4000 -15.3000
v 1628.7000 3.4000 -12.2000
v 1634.2000 0.0000 -15.3000
v 1634.2000 0.0000 -12.2000
v 1637.3000 0.0000 -12.2000
v 1637.3000 0.0000 -15.3000
v 1634.2000 3.4000 -15.3000
v 1637.3000 3.4000 -15.3000
v 1637.3000 3.4000 -12.2000
v 1634.2000 3.4000 -12.2000
v 1634.2000 0.0000 -15.3000
v 1637.3000 0.0000 -15.3000
v 1637.3000 3.4000 -15.3000
v 1634.2000 3.4000 -15.3000
v 1637.3000 0.0000 -12.2000
v 1634.2000 0.0000 -12.2000
v 1634.2000 3.4000 -12.2000
v 1637.3000 3.4000 -12.2000
v 1637.3000 0.0000 -15.3000
v 1637.3000 0.0000 -12.2000
v 1637.3000 3.4000 -12.2000
v 1637.3000 3.4000 -15.3000
v 1634.2000 0.0000 -12.2000
v 1634.2000 0.0000 -15.3000
v 1634.2000 3.4000 -15.3000
v 1634.2000 3.4000 -12.2000
v 1634.2000 0.0000 -12.5500
v 1634.2000 0.0000 -9.4500
v 1637.3000 0.0000 -9.4500
v 1637.3000 0.0000 -12.5500
v 1634.2000 3.4000 -12.5500
v 1637.3000 3.4000 -12.5500
v 1637.3000 3.4000 -9.4500
v 1634.2000 3.4000 -9.4500
v 1634.2000 0.0000 -12.5500
v 1637.3000 0.0000 -12.5500
v 1637.3000 3.4000 -12.5500
v 1634.2000 3.4000 -12.5500
v 1637.3000 0.0000 -9.4500
v 1634.2000 0.0000 -9.4500
v 1634.2000 3.4000 -9.4500
v 1637.3000 3.4000 -9.4500
v 1637.3000 0.0000 -12.5500
v 1637.3000 0.0000 -9.4500
v 1637.3000 3.4000 -9.4500
v 1637.3000 3.4000 -12.5500
v 1634.2000 0.0000 -9.4500
v 1634.2000 0.0000 -12.5500
v 1634.2000 3.4000 -12.5500
v 1634.2000 3.4000 -9.4500
v 1627.3700 1.9000 -38.5800
v 1627.6300 1.9000 -38.5800
v 1627.6300 1.9000 -38.4200
v 1627.3700 1.9000 -38.4200
v 1627.3700 2.2000 -38.5800
v 1627.6300 2.2000 -38.5800
v 1627.6300 2.2000 -38.4200
v 1627.3700 2.2000 -38.4200
v 1627.3300 2.2100 -38.6100
v 1627.6700 2.2100 -38.6100
v 1627.6700 2.2100 -38.3900
v 1627.3300 2.2100 -38.3900
v 1627.3300 2.2700 -38.6100
v 1627.6700 2.2700 -38.6100
v 1627.6700 2.2700 -38.3900
v 1627.3300 2.2700 -38.3900
v 1632.8700 1.9000 -33.0800
v 1633.1300 1.9000 -33.0800
v 1633.1300 1.9000 -32.9200
v 1632.8700 1.9000 -32.9200
v 1632.8700 2.2000 -33.0800
v 1633.1300 2.2000 -33.0800
v 1633.1300 2.2000 -32.9200
v 1632.8700 2.2000 -32.9200
v 1632.8300 2.2100 -33.1100
v 1633.1700 2.2100 -33.1100
v 1633.1700 2.2100 -32.8900
v 1632.8300 2.2100 -32.8900
v 1632.8300 2.2700 -33.1100
v 1633.1700 2.2700 -33.1100
v 1633.1700 2.2700 -32.8900
v 1632.8300 2.2700 -32.8900
v 1627.3700 1.9000 -27.5800
v 1627.6300 1.9000 -27.5800
v 1627.6300 1.9000 -27.4200
v 1627.3700 1.9000 -27.4200
v 1627.3700 2.2000 -27.5800
v 1627.6300 2.2000 -27.5800
v 1627.6300 2.2000 -27.4200
v 1627.3700 2.2000 -27.4200
v 1627.3300 2.2100 -27.6100
v 1627.6700 2.2100 -27.6100
v 1627.6700 2.2100 -27.3900
v 1627.3300 2.2100 -27.3900
v 1627.3300 2.2700 -27.6100
v 1627.6700 2.2700 -27.6100
v 1627.6700 2.2700 -27.3900
v 1627.3300 2.2700 -27.3900
v 1638.3700 1.9000 -27.5800
v 1638.6300 1.9000 -27.5800
v 1638.6300 1.9000 -27.4200
v 1638.3700 1.9000 -27.4200
v 1638.3700 2.2000 -27.5800
v 1638.6300 2.2000 -27.5800
v 1638.6300 2.2000 -27.4200
v 1638.3700 2.2000 -27.4200
v 1638.3300 2.2100 -27.6100
v 1638.6700 2.2100 -27.6100
v 1638.6700 2.2100 -27.3900
v 1638.3300 2.2100 -27.3900
v 1638.3300 2.2700 -27.6100
v 1638.6700 2.2700 -27.6100
v 1638.6700 2.2700 -27.3900
v 1638.3300 2.2700 -27.3900
v 1632.8700 1.9000 -16.5800
v 1633.1300 1.9000 -16.5800
v 1633.1300 1.9000 -16.4200
v 1632.8700 1.9000 -16.4200
v 1632.8700 2.2000 -16.5800
v 1633.1300 2.2000 -16.5800
v 1633.1300 2.2000 -16.4200
v 1632.8700 2.2000 -16.4200
v 1632.8300 2.2100 -16.6100
v 1633.1700 2.2100 -16.6100
v 1633.1700 2.2100 -16.3900
v 1632.8300 2.2100 -16.3900
v 1632.8300 2.2700 -16.6100
v 1633.1700 2.2700 -16.6100
v 1633.1700 2.2700 -16.3900
v 1632.8300 2.2700 -16.3900
v 1632.8700 1.9000 -11.0800
v 1633.1300 1.9000 -11.0800
v 1633.1300 1.9000 -10.9200
v 1632.8700 1.9000 -10.9200
v 1632.8700 2.2000 -11.0800
v 1633.1300 2.2000 -11.0800
v 1633.1300 2.2000 -10.9200
v 1632.8700 2.2000 -10.9200
v 1632.8300 2.2100 -11.1100
v 1633.1700 2.2100 -11.1100
v 1633.1700 2.2100 -10.8900
v 1632.8300 2.2100 -10.8900
v 1632.8300 2.2700 -11.1100
v 1633.1700 2.2700 -11.1100
v 1633.1700 2.2700 -10.8900
v 1632.8300 2.2700 -10.8900
v 1623.1700 0.0050 -36.2250
v 1623.2300 0.0050 -36.2250
v 1623.2300 0.0050 -35.2750
v 1623.1700 0.0050 -35.2750
v 1623.1700 2.0550 -36.2250
v 1623.2300 2.0550 -36.2250
v 1623.2300 2.0550 -35.2750
v 1623.1700 2.0550 -35.2750
v 1623.1250 0.9450 -36.3120
v 1623.1950 0.9450 -36.3120
v 1623.1950 0.9450 -36.2420
v 1623.1250 0.9450 -36.2420
v 1623.1250 1.0150 -36.3120
v 1623.1950 1.0150 -36.3120
v 1623.1950 1.0150 -36.2420
v 1623.1250 1.0150 -36.2420
v 1627.0250 0.0050 -37.3300
v 1627.9750 0.0050 -37.3300
v 1627.9750 0.0050 -37.2700
v 1627.0250 0.0050 -37.2700
v 1627.0250 2.0550 -37.3300
v 1627.9750 2.0550 -37.3300
v 1627.9750 2.0550 -37.2700
v 1627.0250 2.0550 -37.2700
v 1627.9920 0.9450 -37.3750
v 1628.0620 0.9450 -37.3750
v 1628.0620 0.9450 -37.3050
v 1627.9920 0.9450 -37.3050
v 1627.9920 1.0150 -37.3750
v 1628.0620 1.0150 -37.3750
v 1628.0620 1.0150 -37.3050
v 1627.9920 1.0150 -37.3050
v 1631.7700 0.0050 -30.7250
v 1631.8300 0.0050 -30.7250
v 1631.8300 0.0050 -29.7750
v 1631.7700 0.0050 -29.7750
v 1631.7700 2.0550 -30.7250
v 1631.8300 2.0550 -30.7250
v 1631.8300 2.0550 -29.7750
v 1631.7700 2.0550 -29.7750
v 1631.8050 0.9450 -29.7580
v 1631.8750 0.9450 -29.7580
v 1631.8750 0.9450 -29.6880
v 1631.8050 0.9450 -29.6880
v 1631.8050 1.0150 -29.7580
v 1631.8750 1.0150 -29.7580
v 1631.8750 1.0150 -29.6880
v 1631.8050 1.0150 -29.6880
v 1631.7700 0.0050 -27.9750
v 1631.8300 0.0050 -27.9750
v 1631.8300 0.0050 -27.0250
v 1631.7700 0.0050 -27.0250
v 1631.7700 2.0550 -27.9750
v 1631.8300 2.0550 -27.9750
v 1631.8300 2.0550 -27.0250
v 1631.7700 2.0550 -27.0250
v 1631.8050 0.9450 -27.0080
v 1631.8750 0.9450 -27.0080
v 1631.8750 0.9450 -26.9380
v 1631.8050 0.9450 -26.9380
v 1631.8050 1.0150 -27.0080
v 1631.8750 1.0150 -27.0080
v 1631.8750 1.0150 -26.9380
v 1631.8050 1.0150 -26.9380
v 1634.1700 0.0050 -27.9750
v 1634.2300 0.0050 -27.9750
v 1634.2300 0.0050 -27.0250
v 1634.1700 0.0050 -27.0250
v 1634.1700 2.0550 -27.9750
v 1634.2300 2.0550 -27.9750
v 1634.2300 2.0550 -27.0250
v 1634.1700 2.0550 -27.0250
v 1634.1250 0.9450 -28.0620
v 1634.1950 0.9450 -28.0620
v 1634.1950 0.9450 -27.9920
v 1634.1250 0.9450 -27.9920
v 1634.1250 1.0150 -28.0620
v 1634.1950 1.0150 -28.0620
v 1634.1950 1.0150 -27.9920
v 1634.1250 1.0150 -27.9920
v 1631.7700 0.0050 -22.4750
v 1631.8300 0.0050 -22.4750
v 1631.8300 0.0050 -21.5250
v 1631.7700 0.0050 -21.5250
v 1631.7700 2.0550 -22.4750
v 1631.8300 2.0550 -22.4750
v 1631.8300 2.0550 -21.5250
v 1631.7700 2.0550 -21.5250
v 1631.8050 0.9450 -21.5080
v 1631.8750 0.9450 -21.5080
v 1631.8750 0.9450 -21.4380
v 1631.8050 0.9450 -21.4380
v 1631.8050 1.0150 -21.5080
v 1631.8750 1.0150 -21.5080
v 1631.8750 1.0150 -21.4380
v 1631.8050 1.0150 -21.4380
v 1632.5250 0.0050 -20.8300
v 1633.4750 0.0050 -20.8300
v 1633.4750 0.0050 -20.7700
v 1632.5250 0.0050 -20.7700
v 1632.5250 2.0550 -20.8300
v 1633.4750 2.0550 -20.8300
v 1633.4750 2.0550 -20.7700
v 1632.5250 2.0550 -20.7700
v 1633.4920 0.9450 -20.8750
v 1633.5620 0.9450 -20.8750
v 1633.5620 0.9450 -20.8050
v 1633.4920 0.9450 -20.8050
v 1633.4920 1.0150 -20.8750
v 1633.5620 1.0150 -20.8750
v 1633.5620 1.0150 -20.8050
v 1633.4920 1.0150 -20.8050
v 1639.6700 0.0050 -14.2250
v 1639.7300 0.0050 -14.2250
v 1639.7300 0.0050 -13.2750
v 1639.6700 0.0050 -13.2750
v 1639.6700 2.0550 -14.2250
v 1639.7300 2.0550 -14.2250
v 1639.7300 2.0550 -13.2750
v 1639.6700 2.0550 -13.2750
v 1639.6250 0.9450 -14.3120
v 1639.6950 0.9450 -14.3120
v 1639.6950 0.9450 -14.2420
v 1639.6250 0.9450 -14.2420
v 1639.6250 1.0150 -14.3120
v 1639.6950 1.0150 -14.3120
v 1639.6950 1.0150 -14.2420
v 1639.6250 1.0150 -14.2420
vt 1014.5000 -23.3125
vt 1014.5000 -21.3750
vt 1016.4375 -21.3750
vt 1016.4375 -23.3125
vt 1014.5000 -23.3125
vt 1016.4375 -23.3125
vt 1016.4375 -21.3750
vt 1014.5000 -21.3750
vt 1014.5000 0.0000
vt 1016.4375 0.0000
vt 1016.4375 2.1250
vt 1014.5000 2.1250
vt 1016.4375 0.0000
vt 1014.5000 0.0000
vt 1014.5000 2.1250
vt 1016.4375 2.1250
vt -23.3125 0.0000
vt -21.3750 0.0000
vt -21.3750 2.1250
vt -23.3125 2.1250
vt -21.3750 0.0000
vt -23.3125 0.0000
vt -23.3125 2.1250
vt -21.3750 2.1250
vt 1017.9375 -23.3125
vt 1017.9375 -21.3750
vt 1019.8750 -21.3750
vt 1019.8750 -23.3125
vt 1017.9375 -23.3125
vt 1019.8750 -23.3125
vt 1019.8750 -21.3750
vt 1017.9375 -21.3750
vt 1017.9375 0.0000
vt 1019.8750 0.0000
vt 1019.8750 2.1250
vt 1017.9375 2.1250
vt 1019.8750 0.0000
vt 1017.9375 0.0000
vt 1017.9375 2.1250
vt 1019.8750 2.1250
vt -23.3125 0.0000
vt -21.3750 0.0000
vt -21.3750 2.1250
vt -23.3125 2.1250
vt -21.3750 0.0000
vt -23.3125 0.0000
vt -23.3125 2.1250
vt -21.3750 2.1250
vt 1017.9375 -19.8750
vt 1017.9375 -17.9375
vt 1019.8750 -17.9375
vt 1019.8750 -19.8750
vt 1017.9375 -19.8750
vt 1019.8750 -19.8750
vt 1019.8750 -17.9375
vt 1017.9375 -17.9375
vt 1017.9375 0.0000
vt 1019.8750 0.0000
vt 1019.8750 2.1250
vt 1017.9375 2.1250
vt 1019.8750 0.0000
vt 1017.9375 0.0000
vt 1017.9375 2.1250
vt 1019.8750 2.1250
vt -19.8750 0.0000
vt -17.9375 0.0000
vt -17.9375 2.1250
vt -19.8750 2.1250
vt -17.9375 0.0000
vt -19.8750 0.0000
vt -19.8750 2.1250
vt -17.9375 2.1250
vt 1021.3750 -19.8750
vt 1021.3750 -17.9375
vt 1023.3125 -17.9375
vt 1023.3125 -19.8750
vt 1021.3750 -19.8750
vt 1023.3125 -19.8750
vt 1023.3125 -17.9375
vt 1021.3750 -17.9375
vt 1021.3750 0.0000
vt 1023.3125 0.0000
vt 1023.3125 2.1250
vt 1021.3750 2.1250
vt 1023.3125 0.0000
vt 1021.3750 0.0000
vt 1021.3750 2.1250
vt 1023.3125 2.1250
vt -19.8750 0.0000
vt -17.9375 0.0000
vt -17.9375 2.1250
vt -19.8750 2.1250
vt -17.9375 0.0000
vt -19.8750 0.0000
vt -19.8750 2.1250
vt -17.9375 2.1250
vt 1017.9375 -18.1562
vt 1017.9375 -16.2188
vt 1019.8750 -16.2188
vt 1019.8750 -18.1562
vt 1017.9375 -18.1562
vt 1019.8750 -18.1562
vt 1019.8750 -16.2188
vt 1017.9375 -16.2188
vt 1017.9375 0.0000
vt 1019.8750 0.0000
vt 1019.8750 2.1250
vt 1017.9375 2.1250
vt 1019.8750 0.0000
vt 1017.9375 0.0000
vt 1017.9375 2.1250
vt 1019.8750 2.1250
vt -18.1562 0.0000
vt -16.2188 0.0000
vt -16.2188 2.1250
vt -18.1562 2.1250
vt -16.2188 0.0000
vt -18.1562 0.0000
vt -18.1562 2.1250
vt -16.2188 2.1250
vt 1021.3750 -18.1562
vt 1021.3750 -16.2188
vt 1023.3125 -16.2188
vt 1023.3125 -18.1562
vt 1021.3750 -18.1562
vt 1023.3125 -18.1562
vt 1023.3125 -16.2188
vt 1021.3750 -16.2188
vt 1021.3750 0.0000
vt 1023.3125 0.0000
vt 1023.3125 2.1250
vt 1021.3750 2.1250
vt 1023.3125 0.0000
vt 1021.3750 0.0000
vt 1021.3750 2.1250
vt 1023.3125 2.1250
vt -18.1562 0.0000
vt -16.2188 0.0000
vt -16.2188 2.1250
vt -18.1562 2.1250
vt -16.2188 0.0000
vt -18.1562 0.0000
vt -18.1562 2.1250
vt -16.2188 2.1250
vt 1017.9375 -16.4375
vt 1017.9375 -14.5000
vt 1019.8750 -14.5000
vt 1019.8750 -16.4375
vt 1017.9375 -16.4375
vt 1019.8750 -16.4375
vt 1019.8750 -14.5000
vt 1017.9375 -14.5000
vt 1017.9375 0.0000
vt 1019.8750 0.0000
vt 1019.8750 2.1250
vt 1017.9375 2.1250
vt 1019.8750 0.0000
vt 1017.9375 0.0000
vt 1017.9375 2.1250
vt 1019.8750 2.1250
vt -16.4375 0.0000
vt -14.5000 0.0000
vt -14.5000 2.1250
vt -16.4375 2.1250
vt -14.5000 0.0000
vt -16.4375 0.0000
vt -16.4375 2.1250
vt -14.5000 2.1250
vt 1021.3750 -16.4375
vt 1021.3750 -14.5000
vt 1023.3125 -14.5000
vt 1023.3125 -16.4375
vt 1021.3750 -16.4375
vt 1023.3125 -16.4375
vt 1023.3125 -14.5000
vt 1021.3750 -14.5000
vt 1021.3750 0.0000
vt 1023.3125 0.0000
vt 1023.3125 2.1250
vt 1021.3750 2.1250
vt 1023.3125 0.0000
vt 1021.3750 0.0000
vt 1021.3750 2.1250
vt 1023.3125 2.1250
vt -16.4375 0.0000
vt -14.5000 0.0000
vt -14.5000 2.1250
vt -16.4375 2.1250
vt -14.5000 0.0000
vt -16.4375 0.0000
vt -16.4375 2.1250
vt -14.5000 2.1250
vt 1017.9375 -14.7188
vt 1017.9375 -12.7812
vt 1019.8750 -12.7812
vt 1019.8750 -14.7188
vt 1017.9375 -14.7188
vt 1019.8750 -14.7188
vt 1019.8750 -12.7812
vt 1017.9375 -12.7812
vt 1017.9375 0.0000
vt 1019.8750 0.0000
vt 1019.8750 2.1250
vt 1017.9375 2.1250
vt 1019.8750 0.0000
vt 1017.9375 0.0000
vt 1017.9375 2.1250
vt 1019.8750 2.1250
vt -14.7188 0.0000
vt -12.7812 0.0000
vt -12.7812 2.1250
vt -14.7188 2.1250
vt -12.7812 0.0000
vt -14.7188 0.0000
vt -14.7188 2.1250
vt -12.7812 2.1250
vt 1014.5000 -13.0000
vt 1014.5000 -11.0625
vt 1016.4375 -11.0625
vt 1016.4375 -13.0000
vt 1014.5000 -13.0000
vt 1016.4375 -13.0000
vt 1016.4375 -11.0625
vt 1014.5000 -11.0625
vt 1014.5000 0.0000
vt 1016.4375 0.0000
vt 1016.4375 2.1250
vt 1014.5000 2.1250
vt 1016.4375 0.0000
vt 1014.5000 0.0000
vt 1014.5000 2.1250
vt 1016.4375 2.1250
vt -13.0000 0.0000
vt -11.0625 0.0000
vt -11.0625 2.1250
vt -13.0000 2.1250
vt -11.0625 0.0000
vt -13.0000 0.0000
vt -13.0000 2.1250
vt -11.0625 2.1250
vt 1019.6562 -13.0000
vt 1019.6562 -11.0625
vt 1021.5937 -11.0625
vt 1021.5937 -13.0000
vt 1019.6562 -13.0000
vt 1021.5937 -13.0000
vt 1021.5937 -11.0625
vt 1019.6562 -11.0625
vt 1019.6562 0.0000
vt 1021.5937 0.0000
vt 1021.5937 2.1250
vt 1019.6562 2.1250
vt 1021.5937 0.0000
vt 1019.6562 0.0000
vt 1019.6562 2.1250
vt 1021.5937 2.1250
vt -13.0000 0.0000
vt -11.0625 0.0000
vt -11.0625 2.1250
vt -13.0000 2.1250
vt -11.0625 0.0000
vt -13.0000 0.0000
vt -13.0000 2.1250
vt -11.0625 2.1250
vt 1021.3750 -13.0000
vt 1021.3750 -11.0625
vt 1023.3125 -11.0625
vt 1023.3125 -13.0000
vt 1021.3750 -13.0000
vt 1023.3125 -13.0000
vt 1023.3125 -11.0625
vt 1021.3750 -11.0625
vt 1021.3750 0.0000
vt 1023.3125 0.0000
vt 1023.3125 2.1250
vt 1021.3750 2.1250
vt 1023.3125 0.0000
vt 1021.3750 0.0000
vt 1021.3750 2.1250
vt 1023.3125 2.1250
vt -13.0000 0.0000
vt -11.0625 0.0000
vt -11.0625 2.1250
vt -13.0000 2.1250
vt -11.0625 0.0000
vt -13.0000 0.0000
vt -13.0000 2.1250
vt -11.0625 2.1250
vt 1017.9375 -11.2812
vt 1017.9375 -9.3437
vt 1019.8750 -9.3437
vt 1019.8750 -11.2812
vt 1017.9375 -11.2812
vt 1019.8750 -11.2812
vt 1019.8750 -9.3437
vt 1017.9375 -9.3437
vt 1017.9375 0.0000
vt 1019.8750 0.0000
vt 1019.8750 2.1250
vt 1017.9375 2.1250
vt 1019.8750 0.0000
vt 1017.9375 0.0000
vt 1017.9375 2.1250
vt 1019.8750 2.1250
vt -11.2812 0.0000
vt -9.3437 0.0000
vt -9.3437 2.1250
vt -11.2812 2.1250
vt -9.3437 0.0000
vt -11.2812 0.0000
vt -11.2812 2.1250
vt -9.3437 2.1250
vt 1021.3750 -11.2812
vt 1021.3750 -9.3437
vt 1023.3125 -9.3437
vt 1023.3125 -11.2812
vt 1021.3750 -11.2812
vt 1023.3125 -11.2812
vt 1023.3125 -9.3437
vt 1021.3750 -9.3437
vt 1021.3750 0.0000
vt 1023.3125 0.0000
vt 1023.3125 2.1250
vt 1021.3750 2.1250
vt 1023.3125 0.0000
vt 1021.3750 0.0000
vt 1021.3750 2.1250
vt 1023.3125 2.1250
vt -11.2812 0.0000
vt -9.3437 0.0000
vt -9.3437 2.1250
vt -11.2812 2.1250
vt -9.3437 0.0000
vt -11.2812 0.0000
vt -11.2812 2.1250
vt -9.3437 2.1250
vt 1017.9375 -9.5625
vt 1017.9375 -7.6250
vt 1019.8750 -7.6250
vt 1019.8750 -9.5625
vt 1017.9375 -9.5625
vt 1019.8750 -9.5625
vt 1019.8750 -7.6250
vt 1017.9375 -7.6250
vt 1017.9375 0.0000
vt 1019.8750 0.0000
vt 1019.8750 2.1250
vt 1017.9375 2.1250
vt 1019.8750 0.0000
vt 1017.9375 0.0000
vt 1017.9375 2.1250
vt 1019.8750 2.1250
vt -9.5625 0.0000
vt -7.6250 0.0000
vt -7.6250 2.1250
vt -9.5625 2.1250
vt -7.6250 0.0000
vt -9.5625 0.0000
vt -9.5625 2.1250
vt -7.6250 2.1250
vt 1021.3750 -9.5625
vt 1021.3750 -7.6250
vt 1023.3125 -7.6250
vt 1023.3125 -9.5625
vt 1021.3750 -9.5625
vt 1023.3125 -9.5625
vt 1023.3125 -7.6250
vt 1021.3750 -7.6250
vt 1021.3750 0.0000
vt 1023.3125 0.0000
vt 1023.3125 2.1250
vt 1021.3750 2.1250
vt 1023.3125 0.0000
vt 1021.3750 0.0000
vt 1021.3750 2.1250
vt 1023.3125 2.1250
vt -9.5625 0.0000
vt -7.6250 0.0000
vt -7.6250 2.1250
vt -9.5625 2.1250
vt -7.6250 0.0000
vt -9.5625 0.0000
vt -9.5625 2.1250
vt -7.6250 2.1250
vt 1021.3750 -7.8438
vt 1021.3750 -5.9062
vt 1023.3125 -5.9062
vt 1023.3125 -7.8438
vt 1021.3750 -7.8438
vt 1023.3125 -7.8438
vt 1023.3125 -5.9062
vt 1021.3750 -5.9062
vt 1021.3750 0.0000
vt 1023.3125 0.0000
vt 1023.3125 2.1250
vt 1021.3750 2.1250
vt 1023.3125 0.0000
vt 1021.3750 0.0000
vt 1021.3750 2.1250
vt 1023.3125 2.1250
vt -7.8438 0.0000
vt -5.9062 0.0000
vt -5.9062 2.1250
vt -7.8438 2.1250
vt -5.9062 0.0000
vt -7.8438 0.0000
vt -7.8438 2.1250
vt -5.9062 2.1250
usemtl hotel_paper_alt
f 25 28 27 26
f 29 30 31 32
f 25 26 30 29
f 27 28 32 31
f 26 27 31 30
f 28 25 29 32
f 249 252 251 250
f 253 254 255 256
f 249 250 254 253
f 251 252 256 255
f 250 251 255 254
f 252 249 253 256
f 257 260 259 258
f 261 262 263 264
f 257 258 262 261
f 259 260 264 263
f 258 259 263 262
f 260 257 261 264
f 361 364 363 362
f 365 366 367 368
f 361 362 366 365
f 363 364 368 367
f 362 363 367 366
f 364 361 365 368
usemtl lamp_warm
f 441 444 443 442
f 445 446 447 448
f 441 442 446 445
f 443 444 448 447
f 442 443 447 446
f 444 441 445 448
usemtl hotel_trim
f 449 452 451 450
f 453 454 455 456
f 449 450 454 453
f 451 452 456 455
f 450 451 455 454
f 452 449 453 456
usemtl lamp_warm
f 457 460 459 458
f 461 462 463 464
f 457 458 462 461
f 459 460 464 463
f 458 459 463 462
f 460 457 461 464
usemtl hotel_trim
f 465 468 467 466
f 469 470 471 472
f 465 466 470 469
f 467 468 472 471
f 466 467 471 470
f 468 465 469 472
usemtl lamp_warm
f 473 476 475 474
f 477 478 479 480
f 473 474 478 477
f 475 476 480 479
f 474 475 479 478
f 476 473 477 480
usemtl hotel_trim
f 481 484 483 482
f 485 486 487 488
f 481 482 486 485
f 483 484 488 487
f 482 483 487 486
f 484 481 485 488
usemtl lamp_warm
f 489 492 491 490
f 493 494 495 496
f 489 490 494 493
f 491 492 496 495
f 490 491 495 494
f 492 489 493 496
usemtl hotel_trim
f 497 500 499 498
f 501 502 503 504
f 497 498 502 501
f 499 500 504 503
f 498 499 503 502
f 500 497 501 504
usemtl lamp_warm
f 505 508 507 506
f 509 510 511 512
f 505 506 510 509
f 507 508 512 511
f 506 507 511 510
f 508 505 509 512
usemtl hotel_trim
f 513 516 515 514
f 517 518 519 520
f 513 514 518 517
f 515 516 520 519
f 514 515 519 518
f 516 513 517 520
usemtl lamp_warm
f 521 524 523 522
f 525 526 527 528
f 521 522 526 525
f 523 524 528 527
f 522 523 527 526
f 524 521 525 528
usemtl hotel_trim
f 529 532 531 530
f 533 534 535 536
f 529 530 534 533
f 531 532 536 535
f 530 531 535 534
f 532 529 533 536
usemtl door_wood
f 537 540 539 538
f 541 542 543 544
f 537 538 542 541
f 539 540 544 543
f 538 539 543 542
f 540 537 541 544
usemtl door_brass
f 545 548 547 546
f 549 550 551 552
f 545 546 550 549
f 547 548 552 551
f 546 547 551 550
f 548 545 549 552
usemtl door_wood
f 553 556 555 554
f 557 558 559 560
f 553 554 558 557
f 555 556 560 559
f 554 555 559 558
f 556 553 557 560
usemtl door_brass
f 561 564 563 562
f 565 566 567 568
f 561 562 566 565
f 563 564 568 567
f 562 563 567 566
f 564 561 565 568
usemtl door_wood
f 569 572 571 570
f 573 574 575 576
f 569 570 574 573
f 571 572 576 575
f 570 571 575 574
f 572 569 573 576
usemtl door_brass
f 577 580 579 578
f 581 582 583 584
f 577 578 582 581
f 579 580 584 583
f 578 579 583 582
f 580 577 581 584
usemtl door_wood
f 585 588 587 586
f 589 590 591 592
f 585 586 590 589
f 587 588 592 591
f 586 587 591 590
f 588 585 589 592
usemtl door_brass
f 593 596 595 594
f 597 598 599 600
f 593 594 598 597
f 595 596 600 599
f 594 595 599 598
f 596 593 597 600
usemtl door_wood
f 601 604 603 602
f 605 606 607 608
f 601 602 606 605
f 603 604 608 607
f 602 603 607 606
f 604 601 605 608
usemtl door_brass
f 609 612 611 610
f 613 614 615 616
f 609 610 614 613
f 611 612 616 615
f 610 611 615 614
f 612 609 613 616
usemtl door_wood
f 617 620 619 618
f 621 622 623 624
f 617 618 622 621
f 619 620 624 623
f 618 619 623 622
f 620 617 621 624
usemtl door_brass
f 625 628 627 626
f 629 630 631 632
f 625 626 630 629
f 627 628 632 631
f 626 627 631 630
f 628 625 629 632
usemtl door_wood
f 633 636 635 634
f 637 638 639 640
f 633 634 638 637
f 635 636 640 639
f 634 635 639 638
f 636 633 637 640
usemtl door_brass
f 641 644 643 642
f 645 646 647 648
f 641 642 646 645
f 643 644 648 647
f 642 643 647 646
f 644 641 645 648
usemtl door_wood
f 649 652 651 650
f 653 654 655 656
f 649 650 654 653
f 651 652 656 655
f 650 651 655 654
f 652 649 653 656
usemtl door_brass
f 657 660 659 658
f 661 662 663 664
f 657 658 662 661
f 659 660 664 663
f 658 659 663 662
f 660 657 661 664
usemtl hotel_paper
f 1/1 2/2 3/3 4/4
f 5/5 6/6 7/7 8/8
f 9/9 10/10 11/11 12/12
f 13/13 14/14 15/15 16/16
f 17/17 18/18 19/19 20/20
f 21/21 22/22 23/23 24/24
f 33/25 34/26 35/27 36/28
f 37/29 38/30 39/31 40/32
f 41/33 42/34 43/35 44/36
f 45/37 46/38 47/39 48/40
f 49/41 50/42 51/43 52/44
f 53/45 54/46 55/47 56/48
f 57/49 58/50 59/51 60/52
f 61/53 62/54 63/55 64/56
f 65/57 66/58 67/59 68/60
f 69/61 70/62 71/63 72/64
f 73/65 74/66 75/67 76/68
f 77/69 78/70 79/71 80/72
f 81/73 82/74 83/75 84/76
f 85/77 86/78 87/79 88/80
f 89/81 90/82 91/83 92/84
f 93/85 94/86 95/87 96/88
f 97/89 98/90 99/91 100/92
f 101/93 102/94 103/95 104/96
f 105/97 106/98 107/99 108/100
f 109/101 110/102 111/103 112/104
f 113/105 114/106 115/107 116/108
f 117/109 118/110 119/111 120/112
f 121/113 122/114 123/115 124/116
f 125/117 126/118 127/119 128/120
f 129/121 130/122 131/123 132/124
f 133/125 134/126 135/127 136/128
f 137/129 138/130 139/131 140/132
f 141/133 142/134 143/135 144/136
f 145/137 146/138 147/139 148/140
f 149/141 150/142 151/143 152/144
f 153/145 154/146 155/147 156/148
f 157/149 158/150 159/151 160/152
f 161/153 162/154 163/155 164/156
f 165/157 166/158 167/159 168/160
f 169/161 170/162 171/163 172/164
f 173/165 174/166 175/167 176/168
f 177/169 178/170 179/171 180/172
f 181/173 182/174 183/175 184/176
f 185/177 186/178 187/179 188/180
f 189/181 190/182 191/183 192/184
f 193/185 194/186 195/187 196/188
f 197/189 198/190 199/191 200/192
f 201/193 202/194 203/195 204/196
f 205/197 206/198 207/199 208/200
f 209/201 210/202 211/203 212/204
f 213/205 214/206 215/207 216/208
f 217/209 218/210 219/211 220/212
f 221/213 222/214 223/215 224/216
f 225/217 226/218 227/219 228/220
f 229/221 230/222 231/223 232/224
f 233/225 234/226 235/227 236/228
f 237/229 238/230 239/231 240/232
f 241/233 242/234 243/235 244/236
f 245/237 246/238 247/239 248/240
f 265/241 266/242 267/243 268/244
f 269/245 270/246 271/247 272/248
f 273/249 274/250 275/251 276/252
f 277/253 278/254 279/255 280/256
f 281/257 282/258 283/259 284/260
f 285/261 286/262 287/263 288/264
f 289/265 290/266 291/267 292/268
f 293/269 294/270 295/271 296/272
f 297/273 298/274 299/275 300/276
f 301/277 302/278 303/279 304/280
f 305/281 306/282 307/283 308/284
f 309/285 310/286 311/287 312/288
f 313/289 314/290 315/291 316/292
f 317/293 318/294 319/295 320/296
f 321/297 322/298 323/299 324/300
f 325/301 326/302 327/303 328/304
f 329/305 330/306 331/307 332/308
f 333/309 334/310 335/311 336/312
f 337/313 338/314 339/315 340/316
f 341/317 342/318 343/319 344/320
f 345/321 346/322 347/323 348/324
f 349/325 350/326 351/327 352/328
f 353/329 354/330 355/331 356/332
f 357/333 358/334 359/335 360/336
f 369/337 370/338 371/339 372/340
f 373/341 374/342 375/343 376/344
f 377/345 378/346 379/347 380/348
f 381/349 382/350 383/351 384/352
f 385/353 386/354 387/355 388/356
f 389/357 390/358 391/359 392/360
f 393/361 394/362 395/363 396/364
f 397/365 398/366 399/367 400/368
f 401/369 402/370 403/371 404/372
f 405/373 406/374 407/375 408/376
f 409/377 410/378 411/379 412/380
f 413/381 414/382 415/383 416/384
f 417/385 418/386 419/387 420/388
f 421/389 422/390 423/391 424/392
f 425/393 426/394 427/395 428/396
f 429/397 430/398 431/399 432/400
f 433/401 434/402 435/403 436/404
f 437/405 438/406 439/407 440/408
