# RoastEngine Backrooms level
mtllib backrooms.mtl
v 406.0750 0.0000 -48.9250
v 406.0750 0.0000 -46.0750
v 408.9250 0.0000 -46.0750
v 408.9250 0.0000 -48.9250
v 406.0750 3.0000 -48.9250
v 408.9250 3.0000 -48.9250
v 408.9250 3.0000 -46.0750
v 406.0750 3.0000 -46.0750
v 406.0750 0.0000 -48.9250
v 408.9250 0.0000 -48.9250
v 408.9250 3.0000 -48.9250
v 406.0750 3.0000 -48.9250
v 408.9250 0.0000 -46.0750
v 406.0750 0.0000 -46.0750
v 406.0750 3.0000 -46.0750
v 408.9250 3.0000 -46.0750
v 408.9250 0.0000 -48.9250
v 408.9250 0.0000 -46.0750
v 408.9250 3.0000 -46.0750
v 408.9250 3.0000 -48.9250
v 406.0750 0.0000 -46.0750
v 406.0750 0.0000 -48.9250
v 406.0750 3.0000 -48.9250
v 406.0750 3.0000 -46.0750
v 408.5750 0.0000 -48.9250
v 408.5750 0.0000 -46.0750
v 411.4250 0.0000 -46.0750
v 411.4250 0.0000 -48.9250
v 408.5750 3.0000 -48.9250
v 411.4250 3.0000 -48.9250
v 411.4250 3.0000 -46.0750
v 408.5750 3.0000 -46.0750
v 408.5750 0.0000 -48.9250
v 411.4250 0.0000 -48.9250
v 411.4250 3.0000 -48.9250
v 408.5750 3.0000 -48.9250
v 411.4250 0.0000 -46.0750
v 408.5750 0.0000 -46.0750
v 408.5750 3.0000 -46.0750
v 411.4250 3.0000 -46.0750
v 411.4250 0.0000 -48.9250
v 411.4250 0.0000 -46.0750
v 411.4250 3.0000 -46.0750
v 411.4250 3.0000 -48.9250
v 408.5750 0.0000 -46.0750
v 408.5750 0.0000 -48.9250
v 408.5750 3.0000 -48.9250
v 408.5750 3.0000 -46.0750
v 411.0750 0.0000 -48.9250
v 411.0750 0.0000 -46.0750
v 413.9250 0.0000 -46.0750
v 413.9250 0.0000 -48.9250
v 411.0750 3.0000 -48.9250
v 413.9250 3.0000 -48.9250
v 413.9250 3.0000 -46.0750
v 411.0750 3.0000 -46.0750
v 411.0750 0.0000 -48.9250
v 413.9250 0.0000 -48.9250
v 413.9250 3.0000 -48.9250
v 411.0750 3.0000 -48.9250
v 413.9250 0.0000 -46.0750
v 411.0750 0.0000 -46.0750
v 411.0750 3.0000 -46.0750
v 413.9250 3.0000 -46.0750
v 413.9250 0.0000 -48.9250
v 413.9250 0.0000 -46.0750
v 413.9250 3.0000 -46.0750
v 413.9250 3.0000 -48.9250
v 411.0750 0.0000 -46.0750
v 411.0750 0.0000 -48.9250
v 411.0750 3.0000 -48.9250
v 411.0750 3.0000 -46.0750
v 413.5750 0.0000 -48.9250
v 413.5750 0.0000 -46.0750
v 416.4250 0.0000 -46.0750
v 416.4250 0.0000 -48.9250
v 413.5750 3.0000 -48.9250
v 416.4250 3.0000 -48.9250
v 416.4250 3.0000 -46.0750
v 413.5750 3.0000 -46.0750
v 413.5750 0.0000 -48.9250
v 416.4250 0.0000 -48.9250
v 416.4250 3.0000 -48.9250
v 413.5750 3.0000 -48.9250
v 416.4250 0.0000 -46.0750
v 413.5750 0.0000 -46.0750
v 413.5750 3.0000 -46.0750
v 416.4250 3.0000 -46.0750
v 416.4250 0.0000 -48.9250
v 416.4250 0.0000 -46.0750
v 416.4250 3.0000 -46.0750
v 416.4250 3.0000 -48.9250
v 413.5750 0.0000 -46.0750
v 413.5750 0.0000 -48.9250
v 413.5750 3.0000 -48.9250
v 413.5750 3.0000 -46.0750
v 416.0750 0.0000 -48.9250
v 416.0750 0.0000 -46.0750
v 418.9250 0.0000 -46.0750
v 418.9250 0.0000 -48.9250
v 416.0750 3.0000 -48.9250
v 418.9250 3.0000 -48.9250
v 418.9250 3.0000 -46.0750
v 416.0750 3.0000 -46.0750
v 416.0750 0.0000 -48.9250
v 418.9250 0.0000 -48.9250
v 418.9250 3.0000 -48.9250
v 416.0750 3.0000 -48.9250
v 418.9250 0.0000 -46.0750
v 416.0750 0.0000 -46.0750
v 416.0750 3.0000 -46.0750
v 418.9250 3.0000 -46.0750
v 418.9250 0.0000 -48.9250
v 418.9250 0.0000 -46.0750
v 418.9250 3.0000 -46.0750
v 418.9250 3.0000 -48.9250
v 416.0750 0.0000 -46.0750
v 416.0750 0.0000 -48.9250
v 416.0750 3.0000 -48.9250
v 416.0750 3.0000 -46.0750
v 426.0750 0.0000 -48.9250
v 428.9250 0.0000 -48.9250
v 428.9250 0.0000 -46.0750
v 426.0750 0.0000 -46.0750
v 426.0750 3.0000 -48.9250
v 428.9250 3.0000 -48.9250
v 428.9250 3.0000 -46.0750
v 426.0750 3.0000 -46.0750
v 431.0750 0.0000 -48.9250
v 431.0750 0.0000 -46.0750
v 433.9250 0.0000 -46.0750
v 433.9250 0.0000 -48.9250
v 431.0750 3.0000 -48.9250
v 433.9250 3.0000 -48.9250
v 433.9250 3.0000 -46.0750
v 431.0750 3.0000 -46.0750
v 431.0750 0.0000 -48.9250
v 433.9250 0.0000 -48.9250
v 433.9250 3.0000 -48.9250
v 431.0750 3.0000 -48.9250
v 433.9250 0.0000 -46.0750
v 431.0750 0.0000 -46.0750
v 431.0750 3.0000 -46.0750
v 433.9250 3.0000 -46.0750
v 433.9250 0.0000 -48.9250
v 433.9250 0.0000 -46.0750
v 433.9250 3.0000 -46.0750
v 433.9250 3.0000 -48.9250
v 431.0750 0.0000 -46.0750
v 431.0750 0.0000 -48.9250
v 431.0750 3.0000 -48.9250
v 431.0750 3.0000 -46.0750
v 406.0750 0.0000 -46.4250
v 406.0750 0.0000 -43.5750
v 408.9250 0.0000 -43.5750
v 408.9250 0.0000 -46.4250
v 406.0750 3.0000 -46.4250
v 408.9250 3.0000 -46.4250
v 408.9250 3.0000 -43.5750
v 406.0750 3.0000 -43.5750
v 406.0750 0.0000 -46.4250
v 408.9250 0.0000 -46.4250
v 408.9250 3.0000 -46.4250
v 406.0750 3.0000 -46.4250
v 408.9250 0.0000 -43.5750
v 406.0750 0.0000 -43.5750
v 406.0750 3.0000 -43.5750
v 408.9250 3.0000 -43.5750
v 408.9250 0.0000 -46.4250
v 408.9250 0.0000 -43.5750
v 408.9250 3.0000 -43.5750
v 408.9250 3.0000 -46.4250
v 406.0750 0.0000 -43.5750
v 406.0750 0.0000 -46.4250
v 406.0750 3.0000 -46.4250
v 406.0750 3.0000 -43.5750
v 426.0750 0.0000 -46.4250
v 426.0750 0.0000 -43.5750
v 428.9250 0.0000 -43.5750
v 428.9250 0.0000 -46.4250
v 426.0750 3.0000 -46.4250
v 428.9250 3.0000 -46.4250
v 428.9250 3.0000 -43.5750
v 426.0750 3.0000 -43.5750
v 426.0750 0.0000 -46.4250
v 428.9250 0.0000 -46.4250
v 428.9250 3.0000 -46.4250
v 426.0750 3.0000 -46.4250
v 428.9250 0.0000 -43.5750
v 426.0750 0.0000 -43.5750
v 426.0750 3.0000 -43.5750
v 428.9250 3.0000 -43.5750
v 428.9250 0.0000 -46.4250
v 428.9250 0.0000 -43.5750
v 428.9250 3.0000 -43.5750
v 428.9250 3.0000 -46.4250
v 426.0750 0.0000 -43.5750
v 426.0750 0.0000 -46.4250
v 426.0750 3.0000 -46.4250
v 426.0750 3.0000 -43.5750
v 406.0750 0.0000 -43.9250
v 406.0750 0.0000 -41.0750
v 408.9250 0.0000 -41.0750
v 408.9250 0.0000 -43.9250
v 406.0750 3.0000 -43.9250
v 408.9250 3.0000 -43.9250
v 408.9250 3.0000 -41.0750
v 406.0750 3.0000 -41.0750
v 406.0750 0.0000 -43.9250
v 408.9250 0.0000 -43.9250
v 408.9250 3.0000 -43.9250
v 406.0750 3.0000 -43.9250
v 408.9250 0.0000 -41.0750
v 406.0750 0.0000 -41.0750
v 406.0750 3.0000 -41.0750
v 408.9250 3.0000 -41.0750
v 408.9250 0.0000 -43.9250
v 408.9250 0.0000 -41.0750
v 408.9250 3.0000 -41.0750
v 408.9250 3.0000 -43.9250
v 406.0750 0.0000 -41.0750
v 406.0750 0.0000 -43.9250
v 406.0750 3.0000 -43.9250
v 406.0750 3.0000 -41.0750
v 416.0750 0.0000 -43.9250
v 416.0750 0.0000 -41.0750
v 418.9250 0.0000 -41.0750
v 418.9250 0.0000 -43.9250
v 416.0750 3.0000 -43.9250
v 418.9250 3.0000 -43.9250
v 418.9250 3.0000 -41.0750
v 416.0750 3.0000 -41.0750
v 416.0750 0.0000 -43.9250
v 418.9250 0.0000 -43.9250
v 418.9250 3.0000 -43.9250
v 416.0750 3.0000 -43.9250
v 418.9250 0.0000 -41.0750
v 416.0750 0.0000 -41.0750
v 416.0750 3.0000 -41.0750
v 418.9250 3.0000 -41.0750
v 418.9250 0.0000 -43.9250
v 418.9250 0.0000 -41.0750
v 418.9250 3.0000 -41.0750
v 418.9250 3.0000 -43.9250
v 416.0750 0.0000 -41.0750
v 416.0750 0.0000 -43.9250
v 416.0750 3.0000 -43.9250
v 416.0750 3.0000 -41.0750
v 418.5750 0.0000 -43.9250
v 418.5750 0.0000 -41.0750
v 421.4250 0.0000 -41.0750
v 421.4250 0.0000 -43.9250
v 418.5750 3.0000 -43.9250
v 421.4250 3.0000 -43.9250
v 421.4250 3.0000 -41.0750
v 418.5750 3.0000 -41.0750
v 418.5750 0.0000 -43.9250
v 421.4250 0.0000 -43.9250
v 421.4250 3.0000 -43.9250
v 418.5750 3.0000 -43.9250
v 421.4250 0.0000 -41.0750
v 418.5750 0.0000 -41.0750
v 418.5750 3.0000 -41.0750
v 421.4250 3.0000 -41.0750
v 421.4250 0.0000 -43.9250
v 421.4250 0.0000 -41.0750
v 421.4250 3.0000 -41.0750
v 421.4250 3.0000 -43.9250
v 418.5750 0.0000 -41.0750
v 418.5750 0.0000 -43.9250
v 418.5750 3.0000 -43.9250
v 418.5750 3.0000 -41.0750
v 421.0750 0.0000 -43.9250
v 421.0750 0.0000 -41.0750
v 423.9250 0.0000 -41.0750
v 423.9250 0.0000 -43.9250
v 421.0750 3.0000 -43.9250
v 423.9250 3.0000 -43.9250
v 423.9250 3.0000 -41.0750
v 421.0750 3.0000 -41.0750
v 421.0750 0.0000 -43.9250
v 423.9250 0.0000 -43.9250
v 423.9250 3.0000 -43.9250
v 421.0750 3.0000 -43.9250
v 423.9250 0.0000 -41.0750
v 421.0750 0.0000 -41.0750
v 421.0750 3.0000 -41.0750
v 423.9250 3.0000 -41.0750
v 423.9250 0.0000 -43.9250
v 423.9250 0.0000 -41.0750
v 423.9250 3.0000 -41.0750
v 423.9250 3.0000 -43.9250
v 421.0750 0.0000 -41.0750
v 421.0750 0.0000 -43.9250
v 421.0750 3.0000 -43.9250
v 421.0750 3.0000 -41.0750
v 423.5750 0.0000 -43.9250
v 426.4250 0.0000 -43.9250
v 426.4250 0.0000 -41.0750
v 423.5750 0.0000 -41.0750
v 423.5750 3.0000 -43.9250
v 426.4250 3.0000 -43.9250
v 426.4250 3.0000 -41.0750
v 423.5750 3.0000 -41.0750
v 426.0750 0.0000 -43.9250
v 426.0750 0.0000 -41.0750
v 428.9250 0.0000 -41.0750
v 428.9250 0.0000 -43.9250
v 426.0750 3.0000 -43.9250
v 428.9250 3.0000 -43.9250
v 428.9250 3.0000 -41.0750
v 426.0750 3.0000 -41.0750
v 426.0750 0.0000 -43.9250
v 428.9250 0.0000 -43.9250
v 428.9250 3.0000 -43.9250
v 426.0750 3.0000 -43.9250
v 428.9250 0.0000 -41.0750
v 426.0750 0.0000 -41.0750
v 426.0750 3.0000 -41.0750
v 428.9250 3.0000 -41.0750
v 428.9250 0.0000 -43.9250
v 428.9250 0.0000 -41.0750
v 428.9250 3.0000 -41.0750
v 428.9250 3.0000 -43.9250
v 426.0750 0.0000 -41.0750
v 426.0750 0.0000 -43.9250
v 426.0750 3.0000 -43.9250
v 426.0750 3.0000 -41.0750
v 421.0750 0.0000 -41.4250
v 421.0750 0.0000 -38.5750
v 423.9250 0.0000 -38.5750
v 423.9250 0.0000 -41.4250
v 421.0750 3.0000 -41.4250
v 423.9250 3.0000 -41.4250
v 423.9250 3.0000 -38.5750
v 421.0750 3.0000 -38.5750
v 421.0750 0.0000 -41.4250
v 423.9250 0.0000 -41.4250
v 423.9250 3.0000 -41.4250
v 421.0750 3.0000 -41.4250
v 423.9250 0.0000 -38.5750
v 421.0750 0.0000 -38.5750
v 421.0750 3.0000 -38.5750
v 423.9250 3.0000 -38.5750
v 423.9250 0.0000 -41.4250
v 423.9250 0.0000 -38.5750
v 423.9250 3.0000 -38.5750
v 423.9250 3.0000 -41.4250
v 421.0750 0.0000 -38.5750
v 421.0750 0.0000 -41.4250
v 421.0750 3.0000 -41.4250
v 421.0750 3.0000 -38.5750
v 406.0750 0.0000 -38.9250
v 406.0750 0.0000 -36.0750
v 408.9250 0.0000 -36.0750
v 408.9250 0.0000 -38.9250
v 406.0750 3.0000 -38.9250
v 408.9250 3.0000 -38.9250
v 408.9250 3.0000 -36.0750
v 406.0750 3.0000 -36.0750
v 406.0750 0.0000 -38.9250
v 408.9250 0.0000 -38.9250
v 408.9250 3.0000 -38.9250
v 406.0750 3.0000 -38.9250
v 408.9250 0.0000 -36.0750
v 406.0750 0.0000 -36.0750
v 406.0750 3.0000 -36.0750
v 408.9250 3.0000 -36.0750
v 408.9250 0.0000 -38.9250
v 408.9250 0.0000 -36.0750
v 408.9250 3.0000 -36.0750
v 408.9250 3.0000 -38.9250
v 406.0750 0.0000 -36.0750
v 406.0750 0.0000 -38.9250
v 406.0750 3.0000 -38.9250
v 406.0750 3.0000 -36.0750
v 411.0750 0.0000 -38.9250
v 411.0750 0.0000 -36.0750
v 413.9250 0.0000 -36.0750
v 413.9250 0.0000 -38.9250
v 411.0750 3.0000 -38.9250
v 413.9250 3.0000 -38.9250
v 413.9250 3.0000 -36.0750
v 411.0750 3.0000 -36.0750
v 411.0750 0.0000 -38.9250
v 413.9250 0.0000 -38.9250
v 413.9250 3.0000 -38.9250
v 411.0750 3.0000 -38.9250
v 413.9250 0.0000 -36.0750
v 411.0750 0.0000 -36.0750
v 411.0750 3.0000 -36.0750
v 413.9250 3.0000 -36.0750
v 413.9250 0.0000 -38.9250
v 413.9250 0.0000 -36.0750
v 413.9250 3.0000 -36.0750
v 413.9250 3.0000 -38.9250
v 411.0750 0.0000 -36.0750
v 411.0750 0.0000 -38.9250
v 411.0750 3.0000 -38.9250
v 411.0750 3.0000 -36.0750
v 413.5750 0.0000 -38.9250
v 413.5750 0.0000 -36.0750
v 416.4250 0.0000 -36.0750
v 416.4250 0.0000 -38.9250
v 413.5750 3.0000 -38.9250
v 416.4250 3.0000 -38.9250
v 416.4250 3.0000 -36.0750
v 413.5750 3.0000 -36.0750
v 413.5750 0.0000 -38.9250
v 416.4250 0.0000 -38.9250
v 416.4250 3.0000 -38.9250
v 413.5750 3.0000 -38.9250
v 416.4250 0.0000 -36.0750
v 413.5750 0.0000 -36.0750
v 413.5750 3.0000 -36.0750
v 416.4250 3.0000 -36.0750
v 416.4250 0.0000 -38.9250
v 416.4250 0.0000 -36.0750
v 416.4250 3.0000 -36.0750
v 416.4250 3.0000 -38.9250
v 413.5750 0.0000 -36.0750
v 413.5750 0.0000 -38.9250
v 413.5750 3.0000 -38.9250
v 413.5750 3.0000 -36.0750
v 416.0750 0.0000 -38.9250
v 416.0750 0.0000 -36.0750
v 418.9250 0.0000 -36.0750
v 418.9250 0.0000 -38.9250
v 416.0750 3.0000 -38.9250
v 418.9250 3.0000 -38.9250
v 418.9250 3.0000 -36.0750
v 416.0750 3.0000 -36.0750
v 416.0750 0.0000 -38.9250
v 418.9250 0.0000 -38.9250
v 418.9250 3.0000 -38.9250
v 416.0750 3.0000 -38.9250
v 418.9250 0.0000 -36.0750
v 416.0750 0.0000 -36.0750
v 416.0750 3.0000 -36.0750
v 418.9250 3.0000 -36.0750
v 418.9250 0.0000 -38.9250
v 418.9250 0.0000 -36.0750
v 418.9250 3.0000 -36.0750
v 418.9250 3.0000 -38.9250
v 416.0750 0.0000 -36.0750
v 416.0750 0.0000 -38.9250
v 416.0750 3.0000 -38.9250
v 416.0750 3.0000 -36.0750
v 421.0750 0.0000 -38.9250
v 421.0750 0.0000 -36.0750
v 423.9250 0.0000 -36.0750
v 423.9250 0.0000 -38.9250
v 421.0750 3.0000 -38.9250
v 423.9250 3.0000 -38.9250
v 423.9250 3.0000 -36.0750
v 421.0750 3.0000 -36.0750
v 421.0750 0.0000 -38.9250
v 423.9250 0.0000 -38.9250
v 423.9250 3.0000 -38.9250
v 421.0750 3.0000 -38.9250
v 423.9250 0.0000 -36.0750
v 421.0750 0.0000 -36.0750
v 421.0750 3.0000 -36.0750
v 423.9250 3.0000 -36.0750
v 423.9250 0.0000 -38.9250
v 423.9250 0.0000 -36.0750
v 423.9250 3.0000 -36.0750
v 423.9250 3.0000 -38.9250
v 421.0750 0.0000 -36.0750
v 421.0750 0.0000 -38.9250
v 421.0750 3.0000 -38.9250
v 421.0750 3.0000 -36.0750
v 426.0750 0.0000 -38.9250
v 426.0750 0.0000 -36.0750
v 428.9250 0.0000 -36.0750
v 428.9250 0.0000 -38.9250
v 426.0750 3.0000 -38.9250
v 428.9250 3.0000 -38.9250
v 428.9250 3.0000 -36.0750
v 426.0750 3.0000 -36.0750
v 426.0750 0.0000 -38.9250
v 428.9250 0.0000 -38.9250
v 428.9250 3.0000 -38.9250
v 426.0750 3.0000 -38.9250
v 428.9250 0.0000 -36.0750
v 426.0750 0.0000 -36.0750
v 426.0750 3.0000 -36.0750
v 428.9250 3.0000 -36.0750
v 428.9250 0.0000 -38.9250
v 428.9250 0.0000 -36.0750
v 428.9250 3.0000 -36.0750
v 428.9250 3.0000 -38.9250
v 426.0750 0.0000 -36.0750
v 426.0750 0.0000 -38.9250
v 426.0750 3.0000 -38.9250
v 426.0750 3.0000 -36.0750
v 416.0750 0.0000 -36.4250
v 416.0750 0.0000 -33.5750
v 418.9250 0.0000 -33.5750
v 418.9250 0.0000 -36.4250
v 416.0750 3.0000 -36.4250
v 418.9250 3.0000 -36.4250
v 418.9250 3.0000 -33.5750
v 416.0750 3.0000 -33.5750
v 416.0750 0.0000 -36.4250
v 418.9250 0.0000 -36.4250
v 418.9250 3.0000 -36.4250
v 416.0750 3.0000 -36.4250
v 418.9250 0.0000 -33.5750
v 416.0750 0.0000 -33.5750
v 416.0750 3.0000 -33.5750
v 418.9250 3.0000 -33.5750
v 418.9250 0.0000 -36.4250
v 418.9250 0.0000 -33.5750
v 418.9250 3.0000 -33.5750
v 418.9250 3.0000 -36.4250
v 416.0750 0.0000 -33.5750
v 416.0750 0.0000 -36.4250
v 416.0750 3.0000 -36.4250
v 416.0750 3.0000 -33.5750
v 421.0750 0.0000 -36.4250
v 421.0750 0.0000 -33.5750
v 423.9250 0.0000 -33.5750
v 423.9250 0.0000 -36.4250
v 421.0750 3.0000 -36.4250
v 423.9250 3.0000 -36.4250
v 423.9250 3.0000 -33.5750
v 421.0750 3.0000 -33.5750
v 421.0750 0.0000 -36.4250
v 423.9250 0.0000 -36.4250
v 423.9250 3.0000 -36.4250
v 421.0750 3.0000 -36.4250
v 423.9250 0.0000 -33.5750
v 421.0750 0.0000 -33.5750
v 421.0750 3.0000 -33.5750
v 423.9250 3.0000 -33.5750
v 423.9250 0.0000 -36.4250
v 423.9250 0.0000 -33.5750
v 423.9250 3.0000 -33.5750
v 423.9250 3.0000 -36.4250
v 421.0750 0.0000 -33.5750
v 421.0750 0.0000 -36.4250
v 421.0750 3.0000 -36.4250
v 421.0750 3.0000 -33.5750
v 426.0750 0.0000 -36.4250
v 426.0750 0.0000 -33.5750
v 428.9250 0.0000 -33.5750
v 428.9250 0.0000 -36.4250
v 426.0750 3.0000 -36.4250
v 428.9250 3.0000 -36.4250
v 428.9250 3.0000 -33.5750
v 426.0750 3.0000 -33.5750
v 426.0750 0.0000 -36.4250
v 428.9250 0.0000 -36.4250
v 428.9250 3.0000 -36.4250
v 426.0750 3.0000 -36.4250
v 428.9250 0.0000 -33.5750
v 426.0750 0.0000 -33.5750
v 426.0750 3.0000 -33.5750
v 428.9250 3.0000 -33.5750
v 428.9250 0.0000 -36.4250
v 428.9250 0.0000 -33.5750
v 428.9250 3.0000 -33.5750
v 428.9250 3.0000 -36.4250
v 426.0750 0.0000 -33.5750
v 426.0750 0.0000 -36.4250
v 426.0750 3.0000 -36.4250
v 426.0750 3.0000 -33.5750
v 406.0750 0.0000 -33.9250
v 406.0750 0.0000 -31.0750
v 408.9250 0.0000 -31.0750
v 408.9250 0.0000 -33.9250
v 406.0750 3.0000 -33.9250
v 408.9250 3.0000 -33.9250
v 408.9250 3.0000 -31.0750
v 406.0750 3.0000 -31.0750
v 406.0750 0.0000 -33.9250
v 408.9250 0.0000 -33.9250
v 408.9250 3.0000 -33.9250
v 406.0750 3.0000 -33.9250
v 408.9250 0.0000 -31.0750
v 406.0750 0.0000 -31.0750
v 406.0750 3.0000 -31.0750
v 408.9250 3.0000 -31.0750
v 408.9250 0.0000 -33.9250
v 408.9250 0.0000 -31.0750
v 408.9250 3.0000 -31.0750
v 408.9250 3.0000 -33.9250
v 406.0750 0.0000 -31.0750
v 406.0750 0.0000 -33.9250
v 406.0750 3.0000 -33.9250
v 406.0750 3.0000 -31.0750
v 416.0750 0.0000 -33.9250
v 416.0750 0.0000 -31.0750
v 418.9250 0.0000 -31.0750
v 418.9250 0.0000 -33.9250
v 416.0750 3.0000 -33.9250
v 418.9250 3.0000 -33.9250
v 418.9250 3.0000 -31.0750
v 416.0750 3.0000 -31.0750
v 416.0750 0.0000 -33.9250
v 418.9250 0.0000 -33.9250
v 418.9250 3.0000 -33.9250
v 416.0750 3.0000 -33.9250
v 418.9250 0.0000 -31.0750
v 416.0750 0.0000 -31.0750
v 416.0750 3.0000 -31.0750
v 418.9250 3.0000 -31.0750
v 418.9250 0.0000 -33.9250
v 418.9250 0.0000 -31.0750
v 418.9250 3.0000 -31.0750
v 418.9250 3.0000 -33.9250
v 416.0750 0.0000 -31.0750
v 416.0750 0.0000 -33.9250
v 416.0750 3.0000 -33.9250
v 416.0750 3.0000 -31.0750
v 421.0750 0.0000 -33.9250
v 421.0750 0.0000 -31.0750
v 423.9250 0.0000 -31.0750
v 423.9250 0.0000 -33.9250
v 421.0750 3.0000 -33.9250
v 423.9250 3.0000 -33.9250
v 423.9250 3.0000 -31.0750
v 421.0750 3.0000 -31.0750
v 421.0750 0.0000 -33.9250
v 423.9250 0.0000 -33.9250
v 423.9250 3.0000 -33.9250
v 421.0750 3.0000 -33.9250
v 423.9250 0.0000 -31.0750
v 421.0750 0.0000 -31.0750
v 421.0750 3.0000 -31.0750
v 423.9250 3.0000 -31.0750
v 423.9250 0.0000 -33.9250
v 423.9250 0.0000 -31.0750
v 423.9250 3.0000 -31.0750
v 423.9250 3.0000 -33.9250
v 421.0750 0.0000 -31.0750
v 421.0750 0.0000 -33.9250
v 421.0750 3.0000 -33.9250
v 421.0750 3.0000 -31.0750
v 426.0750 0.0000 -33.9250
v 426.0750 0.0000 -31.0750
v 428.9250 0.0000 -31.0750
v 428.9250 0.0000 -33.9250
v 426.0750 3.0000 -33.9250
v 428.9250 3.0000 -33.9250
v 428.9250 3.0000 -31.0750
v 426.0750 3.0000 -31.0750
v 426.0750 0.0000 -33.9250
v 428.9250 0.0000 -33.9250
v 428.9250 3.0000 -33.9250
v 426.0750 3.0000 -33.9250
v 428.9250 0.0000 -31.0750
v 426.0750 0.0000 -31.0750
v 426.0750 3.0000 -31.0750
v 428.9250 3.0000 -31.0750
v 428.9250 0.0000 -33.9250
v 428.9250 0.0000 -31.0750
v 428.9250 3.0000 -31.0750
v 428.9250 3.0000 -33.9250
v 426.0750 0.0000 -31.0750
v 426.0750 0.0000 -33.9250
v 426.0750 3.0000 -33.9250
v 426.0750 3.0000 -31.0750
v 431.0750 0.0000 -33.9250
v 431.0750 0.0000 -31.0750
v 433.9250 0.0000 -31.0750
v 433.9250 0.0000 -33.9250
v 431.0750 3.0000 -33.9250
v 433.9250 3.0000 -33.9250
v 433.9250 3.0000 -31.0750
v 431.0750 3.0000 -31.0750
v 431.0750 0.0000 -33.9250
v 433.9250 0.0000 -33.9250
v 433.9250 3.0000 -33.9250
v 431.0750 3.0000 -33.9250
v 433.9250 0.0000 -31.0750
v 431.0750 0.0000 -31.0750
v 431.0750 3.0000 -31.0750
v 433.9250 3.0000 -31.0750
v 433.9250 0.0000 -33.9250
v 433.9250 0.0000 -31.0750
v 433.9250 3.0000 -31.0750
v 433.9250 3.0000 -33.9250
v 431.0750 0.0000 -31.0750
v 431.0750 0.0000 -33.9250
v 431.0750 3.0000 -33.9250
v 431.0750 3.0000 -31.0750
v 431.0750 0.0000 -31.4250
v 431.0750 0.0000 -28.5750
v 433.9250 0.0000 -28.5750
v 433.9250 0.0000 -31.4250
v 431.0750 3.0000 -31.4250
v 433.9250 3.0000 -31.4250
v 433.9250 3.0000 -28.5750
v 431.0750 3.0000 -28.5750
v 431.0750 0.0000 -31.4250
v 433.9250 0.0000 -31.4250
v 433.9250 3.0000 -31.4250
v 431.0750 3.0000 -31.4250
v 433.9250 0.0000 -28.5750
v 431.0750 0.0000 -28.5750
v 431.0750 3.0000 -28.5750
v 433.9250 3.0000 -28.5750
v 433.9250 0.0000 -31.4250
v 433.9250 0.0000 -28.5750
v 433.9250 3.0000 -28.5750
v 433.9250 3.0000 -31.4250
v 431.0750 0.0000 -28.5750
v 431.0750 0.0000 -31.4250
v 431.0750 3.0000 -31.4250
v 431.0750 3.0000 -28.5750
v 406.0750 0.0000 -28.9250
v 406.0750 0.0000 -26.0750
v 408.9250 0.0000 -26.0750
v 408.9250 0.0000 -28.9250
v 406.0750 3.0000 -28.9250
v 408.9250 3.0000 -28.9250
v 408.9250 3.0000 -26.0750
v 406.0750 3.0000 -26.0750
v 406.0750 0.0000 -28.9250
v 408.9250 0.0000 -28.9250
v 408.9250 3.0000 -28.9250
v 406.0750 3.0000 -28.9250
v 408.9250 0.0000 -26.0750
v 406.0750 0.0000 -26.0750
v 406.0750 3.0000 -26.0750
v 408.9250 3.0000 -26.0750
v 408.9250 0.0000 -28.9250
v 408.9250 0.0000 -26.0750
v 408.9250 3.0000 -26.0750
v 408.9250 3.0000 -28.9250
v 406.0750 0.0000 -26.0750
v 406.0750 0.0000 -28.9250
v 406.0750 3.0000 -28.9250
v 406.0750 3.0000 -26.0750
v 411.0750 0.0000 -28.9250
v 411.0750 0.0000 -26.0750
v 413.9250 0.0000 -26.0750
v 413.9250 0.0000 -28.9250
v 411.0750 3.0000 -28.9250
v 413.9250 3.0000 -28.9250
v 413.9250 3.0000 -26.0750
v 411.0750 3.0000 -26.0750
v 411.0750 0.0000 -28.9250
v 413.9250 0.0000 -28.9250
v 413.9250 3.0000 -28.9250
v 411.0750 3.0000 -28.9250
v 413.9250 0.0000 -26.0750
v 411.0750 0.0000 -26.0750
v 411.0750 3.0000 -26.0750
v 413.9250 3.0000 -26.0750
v 413.9250 0.0000 -28.9250
v 413.9250 0.0000 -26.0750
v 413.9250 3.0000 -26.0750
v 413.9250 3.0000 -28.9250
v 411.0750 0.0000 -26.0750
v 411.0750 0.0000 -28.9250
v 411.0750 3.0000 -28.9250
v 411.0750 3.0000 -26.0750
v 413.5750 0.0000 -28.9250
v 413.5750 0.0000 -26.0750
v 416.4250 0.0000 -26.0750
v 416.4250 0.0000 -28.9250
v 413.5750 3.0000 -28.9250
v 416.4250 3.0000 -28.9250
v 416.4250 3.0000 -26.0750
v 413.5750 3.0000 -26.0750
v 413.5750 0.0000 -28.9250
v 416.4250 0.0000 -28.9250
v 416.4250 3.0000 -28.9250
v 413.5750 3.0000 -28.9250
v 416.4250 0.0000 -26.0750
v 413.5750 0.0000 -26.0750
v 413.5750 3.0000 -26.0750
v 416.4250 3.0000 -26.0750
v 416.4250 0.0000 -28.9250
v 416.4250 0.0000 -26.0750
v 416.4250 3.0000 -26.0750
v 416.4250 3.0000 -28.9250
v 413.5750 0.0000 -26.0750
v 413.5750 0.0000 -28.9250
v 413.5750 3.0000 -28.9250
v 413.5750 3.0000 -26.0750
v 416.0750 0.0000 -28.9250
v 416.0750 0.0000 -26.0750
v 418.9250 0.0000 -26.0750
v 418.9250 0.0000 -28.9250
v 416.0750 3.0000 -28.9250
v 418.9250 3.0000 -28.9250
v 418.9250 3.0000 -26.0750
v 416.0750 3.0000 -26.0750
v 416.0750 0.0000 -28.9250
v 418.9250 0.0000 -28.9250
v 418.9250 3.0000 -28.9250
v 416.0750 3.0000 -28.9250
v 418.9250 0.0000 -26.0750
v 416.0750 0.0000 -26.0750
v 416.0750 3.0000 -26.0750
v 418.9250 3.0000 -26.0750
v 418.9250 0.0000 -28.9250
v 418.9250 0.0000 -26.0750
v 418.9250 3.0000 -26.0750
v 418.9250 3.0000 -28.9250
v 416.0750 0.0000 -26.0750
v 416.0750 0.0000 -28.9250
v 416.0750 3.0000 -28.9250
v 416.0750 3.0000 -26.0750
v 418.5750 0.0000 -28.9250
v 421.4250 0.0000 -28.9250
v 421.4250 0.0000 -26.0750
v 418.5750 0.0000 -26.0750
v 418.5750 3.0000 -28.9250
v 421.4250 3.0000 -28.9250
v 421.4250 3.0000 -26.0750
v 418.5750 3.0000 -26.0750
v 421.0750 0.0000 -28.9250
v 423.9250 0.0000 -28.9250
v 423.9250 0.0000 -26.0750
v 421.0750 0.0000 -26.0750
v 421.0750 3.0000 -28.9250
v 423.9250 3.0000 -28.9250
v 423.9250 3.0000 -26.0750
v 421.0750 3.0000 -26.0750
v 431.0750 0.0000 -28.9250
v 431.0750 0.0000 -26.0750
v 433.9250 0.0000 -26.0750
v 433.9250 0.0000 -28.9250
v 431.0750 3.0000 -28.9250
v 433.9250 3.0000 -28.9250
v 433.9250 3.0000 -26.0750
v 431.0750 3.0000 -26.0750
v 431.0750 0.0000 -28.9250
v 433.9250 0.0000 -28.9250
v 433.9250 3.0000 -28.9250
v 431.0750 3.0000 -28.9250
v 433.9250 0.0000 -26.0750
v 431.0750 0.0000 -26.0750
v 431.0750 3.0000 -26.0750
v 433.9250 3.0000 -26.0750
v 433.9250 0.0000 -28.9250
v 433.9250 0.0000 -26.0750
v 433.9250 3.0000 -26.0750
v 433.9250 3.0000 -28.9250
v 431.0750 0.0000 -26.0750
v 431.0750 0.0000 -28.9250
v 431.0750 3.0000 -28.9250
v 431.0750 3.0000 -26.0750
v 421.0750 0.0000 -26.4250
v 421.0750 0.0000 -23.5750
v 423.9250 0.0000 -23.5750
v 423.9250 0.0000 -26.4250
v 421.0750 3.0000 -26.4250
v 423.9250 3.0000 -26.4250
v 423.9250 3.0000 -23.5750
v 421.0750 3.0000 -23.5750
v 421.0750 0.0000 -26.4250
v 423.9250 0.0000 -26.4250
v 423.9250 3.0000 -26.4250
v 421.0750 3.0000 -26.4250
v 423.9250 0.0000 -23.5750
v 421.0750 0.0000 -23.5750
v 421.0750 3.0000 -23.5750
v 423.9250 3.0000 -23.5750
v 423.9250 0.0000 -26.4250
v 423.9250 0.0000 -23.5750
v 423.9250 3.0000 -23.5750
v 423.9250 3.0000 -26.4250
v 421.0750 0.0000 -23.5750
v 421.0750 0.0000 -26.4250
v 421.0750 3.0000 -26.4250
v 421.0750 3.0000 -23.5750
v 409.8250 2.7600 -50.1750
v 410.1750 2.7600 -50.1750
v 410.1750 2.7600 -49.8250
v 409.8250 2.7600 -49.8250
v 409.8250 2.8800 -50.1750
v 410.1750 2.8800 -50.1750
v 410.1750 2.8800 -49.8250
v 409.8250 2.8800 -49.8250
v 414.8250 2.7600 -50.1750
v 415.1750 2.7600 -50.1750
v 415.1750 2.7600 -49.8250
v 414.8250 2.7600 -49.8250
v 414.8250 2.8800 -50.1750
v 415.1750 2.8800 -50.1750
v 415.1750 2.8800 -49.8250
v 414.8250 2.8800 -49.8250
v 429.8250 2.7600 -50.1750
v 430.1750 2.7600 -50.1750
v 430.1750 2.7600 -49.8250
v 429.8250 2.7600 -49.8250
v 429.8250 2.8800 -50.1750
v 430.1750 2.8800 -50.1750
v 430.1750 2.8800 -49.8250
v 429.8250 2.8800 -49.8250
v 434.8250 2.7600 -50.1750
v 435.1750 2.7600 -50.1750
v 435.1750 2.7600 -49.8250
v 434.8250 2.7600 -49.8250
v 434.8250 2.8800 -50.1750
v 435.1750 2.8800 -50.1750
v 435.1750 2.8800 -49.8250
v 434.8250 2.8800 -49.8250
v 419.8250 2.7600 -45.1750
v 420.1750 2.7600 -45.1750
v 420.1750 2.7600 -44.8250
v 419.8250 2.7600 -44.8250
v 419.8250 2.8800 -45.1750
v 420.1750 2.8800 -45.1750
v 420.1750 2.8800 -44.8250
v 419.8250 2.8800 -44.8250
v 429.8250 2.7600 -45.1750
v 430.1750 2.7600 -45.1750
v 430.1750 2.7600 -44.8250
v 429.8250 2.7600 -44.8250
v 429.8250 2.8800 -45.1750
v 430.1750 2.8800 -45.1750
v 430.1750 2.8800 -44.8250
v 429.8250 2.8800 -44.8250
v 414.8250 2.7600 -40.1750
v 415.1750 2.7600 -40.1750
v 415.1750 2.7600 -39.8250
v 414.8250 2.7600 -39.8250
v 414.8250 2.8800 -40.1750
v 415.1750 2.8800 -40.1750
v 415.1750 2.8800 -39.8250
v 414.8250 2.8800 -39.8250
v 429.8250 2.7600 -40.1750
v 430.1750 2.7600 -40.1750
v 430.1750 2.7600 -39.8250
v 429.8250 2.7600 -39.8250
v 429.8250 2.8800 -40.1750
v 430.1750 2.8800 -40.1750
v 430.1750 2.8800 -39.8250
v 429.8250 2.8800 -39.8250
v 434.8250 2.7600 -40.1750
v 435.1750 2.7600 -40.1750
v 435.1750 2.7600 -39.8250
v 434.8250 2.7600 -39.8250
v 434.8250 2.8800 -40.1750
v 435.1750 2.8800 -40.1750
v 435.1750 2.8800 -39.8250
v 434.8250 2.8800 -39.8250
v 409.8250 2.7600 -35.1750
v 410.1750 2.7600 -35.1750
v 410.1750 2.7600 -34.8250
v 409.8250 2.7600 -34.8250
v 409.8250 2.8800 -35.1750
v 410.1750 2.8800 -35.1750
v 410.1750 2.8800 -34.8250
v 409.8250 2.8800 -34.8250
v 419.8250 2.7600 -35.1750
v 420.1750 2.7600 -35.1750
v 420.1750 2.7600 -34.8250
v 419.8250 2.7600 -34.8250
v 419.8250 2.8800 -35.1750
v 420.1750 2.8800 -35.1750
v 420.1750 2.8800 -34.8250
v 419.8250 2.8800 -34.8250
v 424.8250 2.7600 -35.1750
v 425.1750 2.7600 -35.1750
v 425.1750 2.7600 -34.8250
v 424.8250 2.7600 -34.8250
v 424.8250 2.8800 -35.1750
v 425.1750 2.8800 -35.1750
v 425.1750 2.8800 -34.8250
v 424.8250 2.8800 -34.8250
v 429.8250 2.7600 -35.1750
v 430.1750 2.7600 -35.1750
v 430.1750 2.7600 -34.8250
v 429.8250 2.7600 -34.8250
v 429.8250 2.8800 -35.1750
v 430.1750 2.8800 -35.1750
v 430.1750 2.8800 -34.8250
v 429.8250 2.8800 -34.8250
v 434.8250 2.7600 -35.1750
v 435.1750 2.7600 -35.1750
v 435.1750 2.7600 -34.8250
v 434.8250 2.7600 -34.8250
v 434.8250 2.8800 -35.1750
v 435.1750 2.8800 -35.1750
v 435.1750 2.8800 -34.8250
v 434.8250 2.8800 -34.8250
v 414.8250 2.7600 -30.1750
v 415.1750 2.7600 -30.1750
v 415.1750 2.7600 -29.8250
v 414.8250 2.7600 -29.8250
v 414.8250 2.8800 -30.1750
v 415.1750 2.8800 -30.1750
v 415.1750 2.8800 -29.8250
v 414.8250 2.8800 -29.8250
v 419.8250 2.7600 -30.1750
v 420.1750 2.7600 -30.1750
v 420.1750 2.7600 -29.8250
v 419.8250 2.7600 -29.8250
v 419.8250 2.8800 -30.1750
v 420.1750 2.8800 -30.1750
v 420.1750 2.8800 -29.8250
v 419.8250 2.8800 -29.8250
v 429.8250 2.7600 -30.1750
v 430.1750 2.7600 -30.1750
v 430.1750 2.7600 -29.8250
v 429.8250 2.7600 -29.8250
v 429.8250 2.8800 -30.1750
v 430.1750 2.8800 -30.1750
v 430.1750 2.8800 -29.8250
v 429.8250 2.8800 -29.8250
v 434.8250 2.7600 -25.1750
v 435.1750 2.7600 -25.1750
v 435.1750 2.7600 -24.8250
v 434.8250 2.7600 -24.8250
v 434.8250 2.8800 -25.1750
v 435.1750 2.8800 -25.1750
v 435.1750 2.8800 -24.8250
v 434.8250 2.8800 -24.8250
v 407.6200 2.6000 -52.5000
v 407.6200 2.6000 -52.5000
v 407.5849 2.6000 -52.4151
v 407.5849 2.6000 -52.4151
v 407.5000 2.6000 -52.3800
v 407.5000 2.6000 -52.3800
v 407.4151 2.6000 -52.4151
v 407.4151 2.6000 -52.4151
v 407.3800 2.6000 -52.5000
v 407.3800 2.6000 -52.5000
v 407.4151 2.6000 -52.5849
v 407.4151 2.6000 -52.5849
v 407.5000 2.6000 -52.6200
v 407.5000 2.6000 -52.6200
v 407.5849 2.6000 -52.5849
v 407.5849 2.6000 -52.5849
v 407.5000 2.6000 -52.5000
v 407.5000 2.6000 -52.5000
v 407.5000 2.4800 -52.6200
v 435.0000 2.4800 -52.6200
v 435.0000 2.4800 -52.3800
v 407.5000 2.4800 -52.3800
v 407.5000 2.7200 -52.6200
v 435.0000 2.7200 -52.6200
v 435.0000 2.7200 -52.3800
v 407.5000 2.7200 -52.3800
v 407.6200 2.6000 -47.5000
v 407.6200 2.6000 -47.5000
v 407.5849 2.6000 -47.4151
v 407.5849 2.6000 -47.4151
v 407.5000 2.6000 -47.3800
v 407.5000 2.6000 -47.3800
v 407.4151 2.6000 -47.4151
v 407.4151 2.6000 -47.4151
v 407.3800 2.6000 -47.5000
v 407.3800 2.6000 -47.5000
v 407.4151 2.6000 -47.5849
v 407.4151 2.6000 -47.5849
v 407.5000 2.6000 -47.6200
v 407.5000 2.6000 -47.6200
v 407.5849 2.6000 -47.5849
v 407.5849 2.6000 -47.5849
v 407.5000 2.6000 -47.5000
v 407.5000 2.6000 -47.5000
v 407.5000 2.4800 -47.6200
v 435.0000 2.4800 -47.6200
v 435.0000 2.4800 -47.3800
v 407.5000 2.4800 -47.3800
v 407.5000 2.7200 -47.6200
v 435.0000 2.7200 -47.6200
v 435.0000 2.7200 -47.3800
v 407.5000 2.7200 -47.3800
vt 203.0375 -24.4625
vt 203.0375 -23.0375
vt 204.4625 -23.0375
vt 204.4625 -24.4625
vt 203.0375 -24.4625
vt 204.4625 -24.4625
vt 204.4625 -23.0375
vt 203.0375 -23.0375
vt 203.0375 0.0000
vt 204.4625 0.0000
vt 204.4625 1.5000
vt 203.0375 1.5000
vt 204.4625 0.0000
vt 203.0375 0.0000
vt 203.0375 1.5000
vt 204.4625 1.5000
vt -24.4625 0.0000
vt -23.0375 0.0000
vt -23.0375 1.5000
vt -24.4625 1.5000
vt -23.0375 0.0000
vt -24.4625 0.0000
vt -24.4625 1.5000
vt -23.0375 1.5000
vt 204.2875 -24.4625
vt 204.2875 -23.0375
vt 205.7125 -23.0375
vt 205.7125 -24.4625
vt 204.2875 -24.4625
vt 205.7125 -24.4625
vt 205.7125 -23.0375
vt 204.2875 -23.0375
vt 204.2875 0.0000
vt 205.7125 0.0000
vt 205.7125 1.5000
vt 204.2875 1.5000
vt 205.7125 0.0000
vt 204.2875 0.0000
vt 204.2875 1.5000
vt 205.7125 1.5000
vt -24.4625 0.0000
vt -23.0375 0.0000
vt -23.0375 1.5000
vt -24.4625 1.5000
vt -23.0375 0.0000
vt -24.4625 0.0000
vt -24.4625 1.5000
vt -23.0375 1.5000
vt 205.5375 -24.4625
vt 205.5375 -23.0375
vt 206.9625 -23.0375
vt 206.9625 -24.4625
vt 205.5375 -24.4625
vt 206.9625 -24.4625
vt 206.9625 -23.0375
vt 205.5375 -23.0375
vt 205.5375 0.0000
vt 206.9625 0.0000
vt 206.9625 1.5000
vt 205.5375 1.5000
vt 206.9625 0.0000
vt 205.5375 0.0000
vt 205.5375 1.5000
vt 206.9625 1.5000
vt -24.4625 0.0000
vt -23.0375 0.0000
vt -23.0375 1.5000
vt -24.4625 1.5000
vt -23.0375 0.0000
vt -24.4625 0.0000
vt -24.4625 1.5000
vt -23.0375 1.5000
vt 206.7875 -24.4625
vt 206.7875 -23.0375
vt 208.2125 -23.0375
vt 208.2125 -24.4625
vt 206.7875 -24.4625
vt 208.2125 -24.4625
vt 208.2125 -23.0375
vt 206.7875 -23.0375
vt 206.7875 0.0000
vt 208.2125 0.0000
vt 208.2125 1.5000
vt 206.7875 1.5000
vt 208.2125 0.0000
vt 206.7875 0.0000
vt 206.7875 1.5000
vt 208.2125 1.5000
vt -24.4625 0.0000
vt -23.0375 0.0000
vt -23.0375 1.5000
vt -24.4625 1.5000
vt -23.0375 0.0000
vt -24.4625 0.0000
vt -24.4625 1.5000
vt -23.0375 1.5000
vt 208.0375 -24.4625
vt 208.0375 -23.0375
vt 209.4625 -23.0375
vt 209.4625 -24.4625
vt 208.0375 -24.4625
vt 209.4625 -24.4625
vt 209.4625 -23.0375
vt 208.0375 -23.0375
vt 208.0375 0.0000
vt 209.4625 0.0000
vt 209.4625 1.5000
vt 208.0375 1.5000
vt 209.4625 0.0000
vt 208.0375 0.0000
vt 208.0375 1.5000
vt 209.4625 1.5000
vt -24.4625 0.0000
vt -23.0375 0.0000
vt -23.0375 1.5000
vt -24.4625 1.5000
vt -23.0375 0.0000
vt -24.4625 0.0000
vt -24.4625 1.5000
vt -23.0375 1.5000
vt 215.5375 -24.4625
vt 215.5375 -23.0375
vt 216.9625 -23.0375
vt 216.9625 -24.4625
vt 215.5375 -24.4625
vt 216.9625 -24.4625
vt 216.9625 -23.0375
vt 215.5375 -23.0375
vt 215.5375 0.0000
vt 216.9625 0.0000
vt 216.9625 1.5000
vt 215.5375 1.5000
vt 216.9625 0.0000
vt 215.5375 0.0000
vt 215.5375 1.5000
vt 216.9625 1.5000
vt -24.4625 0.0000
vt -23.0375 0.0000
vt -23.0375 1.5000
vt -24.4625 1.5000
vt -23.0375 0.0000
vt -24.4625 0.0000
vt -24.4625 1.5000
vt -23.0375 1.5000
vt 203.0375 -23.2125
vt 203.0375 -21.7875
vt 204.4625 -21.7875
vt 204.4625 -23.2125
vt 203.0375 -23.2125
vt 204.4625 -23.2125
vt 204.4625 -21.7875
vt 203.0375 -21.7875
vt 203.0375 0.0000
vt 204.4625 0.0000
vt 204.4625 1.5000
vt 203.0375 1.5000
vt 204.4625 0.0000
vt 203.0375 0.0000
vt 203.0375 1.5000
vt 204.4625 1.5000
vt -23.2125 0.0000
vt -21.7875 0.0000
vt -21.7875 1.5000
vt -23.2125 1.5000
vt -21.7875 0.0000
vt -23.2125 0.0000
vt -23.2125 1.5000
vt -21.7875 1.5000
vt 213.0375 -23.2125
vt 213.0375 -21.7875
vt 214.4625 -21.7875
vt 214.4625 -23.2125
vt 213.0375 -23.2125
vt 214.4625 -23.2125
vt 214.4625 -21.7875
vt 213.0375 -21.7875
vt 213.0375 0.0000
vt 214.4625 0.0000
vt 214.4625 1.5000
vt 213.0375 1.5000
vt 214.4625 0.0000
vt 213.0375 0.0000
vt 213.0375 1.5000
vt 214.4625 1.5000
vt -23.2125 0.0000
vt -21.7875 0.0000
vt -21.7875 1.5000
vt -23.2125 1.5000
vt -21.7875 0.0000
vt -23.2125 0.0000
vt -23.2125 1.5000
vt -21.7875 1.5000
vt 203.0375 -21.9625
vt 203.0375 -20.5375
vt 204.4625 -20.5375
vt 204.4625 -21.9625
vt 203.0375 -21.9625
vt 204.4625 -21.9625
vt 204.4625 -20.5375
vt 203.0375 -20.5375
vt 203.0375 0.0000
vt 204.4625 0.0000
vt 204.4625 1.5000
vt 203.0375 1.5000
vt 204.4625 0.0000
vt 203.0375 0.0000
vt 203.0375 1.5000
vt 204.4625 1.5000
vt -21.9625 0.0000
vt -20.5375 0.0000
vt -20.5375 1.5000
vt -21.9625 1.5000
vt -20.5375 0.0000
vt -21.9625 0.0000
vt -21.9625 1.5000
vt -20.5375 1.5000
vt 208.0375 -21.9625
vt 208.0375 -20.5375
vt 209.4625 -20.5375
vt 209.4625 -21.9625
vt 208.0375 -21.9625
vt 209.4625 -21.9625
vt 209.4625 -20.5375
vt 208.0375 -20.5375
vt 208.0375 0.0000
vt 209.4625 0.0000
vt 209.4625 1.5000
vt 208.0375 1.5000
vt 209.4625 0.0000
vt 208.0375 0.0000
vt 208.0375 1.5000
vt 209.4625 1.5000
vt -21.9625 0.0000
vt -20.5375 0.0000
vt -20.5375 1.5000
vt -21.9625 1.5000
vt -20.5375 0.0000
vt -21.9625 0.0000
vt -21.9625 1.5000
vt -20.5375 1.5000
vt 209.2875 -21.9625
vt 209.2875 -20.5375
vt 210.7125 -20.5375
vt 210.7125 -21.9625
vt 209.2875 -21.9625
vt 210.7125 -21.9625
vt 210.7125 -20.5375
vt 209.2875 -20.5375
vt 209.2875 0.0000
vt 210.7125 0.0000
vt 210.7125 1.5000
vt 209.2875 1.5000
vt 210.7125 0.0000
vt 209.2875 0.0000
vt 209.2875 1.5000
vt 210.7125 1.5000
vt -21.9625 0.0000
vt -20.5375 0.0000
vt -20.5375 1.5000
vt -21.9625 1.5000
vt -20.5375 0.0000
vt -21.9625 0.0000
vt -21.9625 1.5000
vt -20.5375 1.5000
vt 210.5375 -21.9625
vt 210.5375 -20.5375
vt 211.9625 -20.5375
vt 211.9625 -21.9625
vt 210.5375 -21.9625
vt 211.9625 -21.9625
vt 211.9625 -20.5375
vt 210.5375 -20.5375
vt 210.5375 0.0000
vt 211.9625 0.0000
vt 211.9625 1.5000
vt 210.5375 1.5000
vt 211.9625 0.0000
vt 210.5375 0.0000
vt 210.5375 1.5000
vt 211.9625 1.5000
vt -21.9625 0.0000
vt -20.5375 0.0000
vt -20.5375 1.5000
vt -21.9625 1.5000
vt -20.5375 0.0000
vt -21.9625 0.0000
vt -21.9625 1.5000
vt -20.5375 1.5000
vt 213.0375 -21.9625
vt 213.0375 -20.5375
vt 214.4625 -20.5375
vt 214.4625 -21.9625
vt 213.0375 -21.9625
vt 214.4625 -21.9625
vt 214.4625 -20.5375
vt 213.0375 -20.5375
vt 213.0375 0.0000
vt 214.4625 0.0000
vt 214.4625 1.5000
vt 213.0375 1.5000
vt 214.4625 0.0000
vt 213.0375 0.0000
vt 213.0375 1.5000
vt 214.4625 1.5000
vt -21.9625 0.0000
vt -20.5375 0.0000
vt -20.5375 1.5000
vt -21.9625 1.5000
vt -20.5375 0.0000
vt -21.9625 0.0000
vt -21.9625 1.5000
vt -20.5375 1.5000
vt 210.5375 -20.7125
vt 210.5375 -19.2875
vt 211.9625 -19.2875
vt 211.9625 -20.7125
vt 210.5375 -20.7125
vt 211.9625 -20.7125
vt 211.9625 -19.2875
vt 210.5375 -19.2875
vt 210.5375 0.0000
vt 211.9625 0.0000
vt 211.9625 1.5000
vt 210.5375 1.5000
vt 211.9625 0.0000
vt 210.5375 0.0000
vt 210.5375 1.5000
vt 211.9625 1.5000
vt -20.7125 0.0000
vt -19.2875 0.0000
vt -19.2875 1.5000
vt -20.7125 1.5000
vt -19.2875 0.0000
vt -20.7125 0.0000
vt -20.7125 1.5000
vt -19.2875 1.5000
vt 203.0375 -19.4625
vt 203.0375 -18.0375
vt 204.4625 -18.0375
vt 204.4625 -19.4625
vt 203.0375 -19.4625
vt 204.4625 -19.4625
vt 204.4625 -18.0375
vt 203.0375 -18.0375
vt 203.0375 0.0000
vt 204.4625 0.0000
vt 204.4625 1.5000
vt 203.0375 1.5000
vt 204.4625 0.0000
vt 203.0375 0.0000
vt 203.0375 1.5000
vt 204.4625 1.5000
vt -19.4625 0.0000
vt -18.0375 0.0000
vt -18.0375 1.5000
vt -19.4625 1.5000
vt -18.0375 0.0000
vt -19.4625 0.0000
vt -19.4625 1.5000
vt -18.0375 1.5000
vt 205.5375 -19.4625
vt 205.5375 -18.0375
vt 206.9625 -18.0375
vt 206.9625 -19.4625
vt 205.5375 -19.4625
vt 206.9625 -19.4625
vt 206.9625 -18.0375
vt 205.5375 -18.0375
vt 205.5375 0.0000
vt 206.9625 0.0000
vt 206.9625 1.5000
vt 205.5375 1.5000
vt 206.9625 0.0000
vt 205.5375 0.0000
vt 205.5375 1.5000
vt 206.9625 1.5000
vt -19.4625 0.0000
vt -18.0375 0.0000
vt -18.0375 1.5000
vt -19.4625 1.5000
vt -18.0375 0.0000
vt -19.4625 0.0000
vt -19.4625 1.5000
vt -18.0375 1.5000
vt 206.7875 -19.4625
vt 206.7875 -18.0375
vt 208.2125 -18.0375
vt 208.2125 -19.4625
vt 206.7875 -19.4625
vt 208.2125 -19.4625
vt 208.2125 -18.0375
vt 206.7875 -18.0375
vt 206.7875 0.0000
vt 208.2125 0.0000
vt 208.2125 1.5000
vt 206.7875 1.5000
vt 208.2125 0.0000
vt 206.7875 0.0000
vt 206.7875 1.5000
vt 208.2125 1.5000
vt -19.4625 0.0000
vt -18.0375 0.0000
vt -18.0375 1.5000
vt -19.4625 1.5000
vt -18.0375 0.0000
vt -19.4625 0.0000
vt -19.4625 1.5000
vt -18.0375 1.5000
vt 208.0375 -19.4625
vt 208.0375 -18.0375
vt 209.4625 -18.0375
vt 209.4625 -19.4625
vt 208.0375 -19.4625
vt 209.4625 -19.4625
vt 209.4625 -18.0375
vt 208.0375 -18.0375
vt 208.0375 0.0000
vt 209.4625 0.0000
vt 209.4625 1.5000
vt 208.0375 1.5000
vt 209.4625 0.0000
vt 208.0375 0.0000
vt 208.0375 1.5000
vt 209.4625 1.5000
vt -19.4625 0.0000
vt -18.0375 0.0000
vt -18.0375 1.5000
vt -19.4625 1.5000
vt -18.0375 0.0000
vt -19.4625 0.0000
vt -19.4625 1.5000
vt -18.0375 1.5000
vt 210.5375 -19.4625
vt 210.5375 -18.0375
vt 211.9625 -18.0375
vt 211.9625 -19.4625
vt 210.5375 -19.4625
vt 211.9625 -19.4625
vt 211.9625 -18.0375
vt 210.5375 -18.0375
vt 210.5375 0.0000
vt 211.9625 0.0000
vt 211.9625 1.5000
vt 210.5375 1.5000
vt 211.9625 0.0000
vt 210.5375 0.0000
vt 210.5375 1.5000
vt 211.9625 1.5000
vt -19.4625 0.0000
vt -18.0375 0.0000
vt -18.0375 1.5000
vt -19.4625 1.5000
vt -18.0375 0.0000
vt -19.4625 0.0000
vt -19.4625 1.5000
vt -18.0375 1.5000
vt 213.0375 -19.4625
vt 213.0375 -18.0375
vt 214.4625 -18.0375
vt 214.4625 -19.4625
vt 213.0375 -19.4625
vt 214.4625 -19.4625
vt 214.4625 -18.0375
vt 213.0375 -18.0375
vt 213.0375 0.0000
vt 214.4625 0.0000
vt 214.4625 1.5000
vt 213.0375 1.5000
vt 214.4625 0.0000
vt 213.0375 0.0000
vt 213.0375 1.5000
vt 214.4625 1.5000
vt -19.4625 0.0000
vt -18.0375 0.0000
vt -18.0375 1.5000
vt -19.4625 1.5000
vt -18.0375 0.0000
vt -19.4625 0.0000
vt -19.4625 1.5000
vt -18.0375 1.5000
vt 208.0375 -18.2125
vt 208.0375 -16.7875
vt 209.4625 -16.7875
vt 209.4625 -18.2125
vt 208.0375 -18.2125
vt 209.4625 -18.2125
vt 209.4625 -16.7875
vt 208.0375 -16.7875
vt 208.0375 0.0000
vt 209.4625 0.0000
vt 209.4625 1.5000
vt 208.0375 1.5000
vt 209.4625 0.0000
vt 208.0375 0.0000
vt 208.0375 1.5000
vt 209.4625 1.5000
vt -18.2125 0.0000
vt -16.7875 0.0000
vt -16.7875 1.5000
vt -18.2125 1.5000
vt -16.7875 0.0000
vt -18.2125 0.0000
vt -18.2125 1.5000
vt -16.7875 1.5000
vt 210.5375 -18.2125
vt 210.5375 -16.7875
vt 211.9625 -16.7875
vt 211.9625 -18.2125
vt 210.5375 -18.2125
vt 211.9625 -18.2125
vt 211.9625 -16.7875
vt 210.5375 -16.7875
vt 210.5375 0.0000
vt 211.9625 0.0000
vt 211.9625 1.5000
vt 210.5375 1.5000
vt 211.9625 0.0000
vt 210.5375 0.0000
vt 210.5375 1.5000
vt 211.9625 1.5000
vt -18.2125 0.0000
vt -16.7875 0.0000
vt -16.7875 1.5000
vt -18.2125 1.5000
vt -16.7875 0.0000
vt -18.2125 0.0000
vt -18.2125 1.5000
vt -16.7875 1.5000
vt 213.0375 -18.2125
vt 213.0375 -16.7875
vt 214.4625 -16.7875
vt 214.4625 -18.2125
vt 213.0375 -18.2125
vt 214.4625 -18.2125
vt 214.4625 -16.7875
vt 213.0375 -16.7875
vt 213.0375 0.0000
vt 214.4625 0.0000
vt 214.4625 1.5000
vt 213.0375 1.5000
vt 214.4625 0.0000
vt 213.0375 0.0000
vt 213.0375 1.5000
vt 214.4625 1.5000
vt -18.2125 0.0000
vt -16.7875 0.0000
vt -16.7875 1.5000
vt -18.2125 1.5000
vt -16.7875 0.0000
vt -18.2125 0.0000
vt -18.2125 1.5000
vt -16.7875 1.5000
vt 203.0375 -16.9625
vt 203.0375 -15.5375
vt 204.4625 -15.5375
vt 204.4625 -16.9625
vt 203.0375 -16.9625
vt 204.4625 -16.9625
vt 204.4625 -15.5375
vt 203.0375 -15.5375
vt 203.0375 0.0000
vt 204.4625 0.0000
vt 204.4625 1.5000
vt 203.0375 1.5000
vt 204.4625 0.0000
vt 203.0375 0.0000
vt 203.0375 1.5000
vt 204.4625 1.5000
vt -16.9625 0.0000
vt -15.5375 0.0000
vt -15.5375 1.5000
vt -16.9625 1.5000
vt -15.5375 0.0000
vt -16.9625 0.0000
vt -16.9625 1.5000
vt -15.5375 1.5000
vt 208.0375 -16.9625
vt 208.0375 -15.5375
vt 209.4625 -15.5375
vt 209.4625 -16.9625
vt 208.0375 -16.9625
vt 209.4625 -16.9625
vt 209.4625 -15.5375
vt 208.0375 -15.5375
vt 208.0375 0.0000
vt 209.4625 0.0000
vt 209.4625 1.5000
vt 208.0375 1.5000
vt 209.4625 0.0000
vt 208.0375 0.0000
vt 208.0375 1.5000
vt 209.4625 1.5000
vt -16.9625 0.0000
vt -15.5375 0.0000
vt -15.5375 1.5000
vt -16.9625 1.5000
vt -15.5375 0.0000
vt -16.9625 0.0000
vt -16.9625 1.5000
vt -15.5375 1.5000
vt 210.5375 -16.9625
vt 210.5375 -15.5375
vt 211.9625 -15.5375
vt 211.9625 -16.9625
vt 210.5375 -16.9625
vt 211.9625 -16.9625
vt 211.9625 -15.5375
vt 210.5375 -15.5375
vt 210.5375 0.0000
vt 211.9625 0.0000
vt 211.9625 1.5000
vt 210.5375 1.5000
vt 211.9625 0.0000
vt 210.5375 0.0000
vt 210.5375 1.5000
vt 211.9625 1.5000
vt -16.9625 0.0000
vt -15.5375 0.0000
vt -15.5375 1.5000
vt -16.9625 1.5000
vt -15.5375 0.0000
vt -16.9625 0.0000
vt -16.9625 1.5000
vt -15.5375 1.5000
vt 213.0375 -16.9625
vt 213.0375 -15.5375
vt 214.4625 -15.5375
vt 214.4625 -16.9625
vt 213.0375 -16.9625
vt 214.4625 -16.9625
vt 214.4625 -15.5375
vt 213.0375 -15.5375
vt 213.0375 0.0000
vt 214.4625 0.0000
vt 214.4625 1.5000
vt 213.0375 1.5000
vt 214.4625 0.0000
vt 213.0375 0.0000
vt 213.0375 1.5000
vt 214.4625 1.5000
vt -16.9625 0.0000
vt -15.5375 0.0000
vt -15.5375 1.5000
vt -16.9625 1.5000
vt -15.5375 0.0000
vt -16.9625 0.0000
vt -16.9625 1.5000
vt -15.5375 1.5000
vt 215.5375 -16.9625
vt 215.5375 -15.5375
vt 216.9625 -15.5375
vt 216.9625 -16.9625
vt 215.5375 -16.9625
vt 216.9625 -16.9625
vt 216.9625 -15.5375
vt 215.5375 -15.5375
vt 215.5375 0.0000
vt 216.9625 0.0000
vt 216.9625 1.5000
vt 215.5375 1.5000
vt 216.9625 0.0000
vt 215.5375 0.0000
vt 215.5375 1.5000
vt 216.9625 1.5000
vt -16.9625 0.0000
vt -15.5375 0.0000
vt -15.5375 1.5000
vt -16.9625 1.5000
vt -15.5375 0.0000
vt -16.9625 0.0000
vt -16.9625 1.5000
vt -15.5375 1.5000
vt 215.5375 -15.7125
vt 215.5375 -14.2875
vt 216.9625 -14.2875
vt 216.9625 -15.7125
vt 215.5375 -15.7125
vt 216.9625 -15.7125
vt 216.9625 -14.2875
vt 215.5375 -14.2875
vt 215.5375 0.0000
vt 216.9625 0.0000
vt 216.9625 1.5000
vt 215.5375 1.5000
vt 216.9625 0.0000
vt 215.5375 0.0000
vt 215.5375 1.5000
vt 216.9625 1.5000
vt -15.7125 0.0000
vt -14.2875 0.0000
vt -14.2875 1.5000
vt -15.7125 1.5000
vt -14.2875 0.0000
vt -15.7125 0.0000
vt -15.7125 1.5000
vt -14.2875 1.5000
vt 203.0375 -14.4625
vt 203.0375 -13.0375
vt 204.4625 -13.0375
vt 204.4625 -14.4625
vt 203.0375 -14.4625
vt 204.4625 -14.4625
vt 204.4625 -13.0375
vt 203.0375 -13.0375
vt 203.0375 0.0000
vt 204.4625 0.0000
vt 204.4625 1.5000
vt 203.0375 1.5000
vt 204.4625 0.0000
vt 203.0375 0.0000
vt 203.0375 1.5000
vt 204.4625 1.5000
vt -14.4625 0.0000
vt -13.0375 0.0000
vt -13.0375 1.5000
vt -14.4625 1.5000
vt -13.0375 0.0000
vt -14.4625 0.0000
vt -14.4625 1.5000
vt -13.0375 1.5000
vt 205.5375 -14.4625
vt 205.5375 -13.0375
vt 206.9625 -13.0375
vt 206.9625 -14.4625
vt 205.5375 -14.4625
vt 206.9625 -14.4625
vt 206.9625 -13.0375
vt 205.5375 -13.0375
vt 205.5375 0.0000
vt 206.9625 0.0000
vt 206.9625 1.5000
vt 205.5375 1.5000
vt 206.9625 0.0000
vt 205.5375 0.0000
vt 205.5375 1.5000
vt 206.9625 1.5000
vt -14.4625 0.0000
vt -13.0375 0.0000
vt -13.0375 1.5000
vt -14.4625 1.5000
vt -13.0375 0.0000
vt -14.4625 0.0000
vt -14.4625 1.5000
vt -13.0375 1.5000
vt 206.7875 -14.4625
vt 206.7875 -13.0375
vt 208.2125 -13.0375
vt 208.2125 -14.4625
vt 206.7875 -14.4625
vt 208.2125 -14.4625
vt 208.2125 -13.0375
vt 206.7875 -13.0375
vt 206.7875 0.0000
vt 208.2125 0.0000
vt 208.2125 1.5000
vt 206.7875 1.5000
vt 208.2125 0.0000
vt 206.7875 0.0000
vt 206.7875 1.5000
vt 208.2125 1.5000
vt -14.4625 0.0000
vt -13.0375 0.0000
vt -13.0375 1.5000
vt -14.4625 1.5000
vt -13.0375 0.0000
vt -14.4625 0.0000
vt -14.4625 1.5000
vt -13.0375 1.5000
vt 208.0375 -14.4625
vt 208.0375 -13.0375
vt 209.4625 -13.0375
vt 209.4625 -14.4625
vt 208.0375 -14.4625
vt 209.4625 -14.4625
vt 209.4625 -13.0375
vt 208.0375 -13.0375
vt 208.0375 0.0000
vt 209.4625 0.0000
vt 209.4625 1.5000
vt 208.0375 1.5000
vt 209.4625 0.0000
vt 208.0375 0.0000
vt 208.0375 1.5000
vt 209.4625 1.5000
vt -14.4625 0.0000
vt -13.0375 0.0000
vt -13.0375 1.5000
vt -14.4625 1.5000
vt -13.0375 0.0000
vt -14.4625 0.0000
vt -14.4625 1.5000
vt -13.0375 1.5000
vt 215.5375 -14.4625
vt 215.5375 -13.0375
vt 216.9625 -13.0375
vt 216.9625 -14.4625
vt 215.5375 -14.4625
vt 216.9625 -14.4625
vt 216.9625 -13.0375
vt 215.5375 -13.0375
vt 215.5375 0.0000
vt 216.9625 0.0000
vt 216.9625 1.5000
vt 215.5375 1.5000
vt 216.9625 0.0000
vt 215.5375 0.0000
vt 215.5375 1.5000
vt 216.9625 1.5000
vt -14.4625 0.0000
vt -13.0375 0.0000
vt -13.0375 1.5000
vt -14.4625 1.5000
vt -13.0375 0.0000
vt -14.4625 0.0000
vt -14.4625 1.5000
vt -13.0375 1.5000
vt 210.5375 -13.2125
vt 210.5375 -11.7875
vt 211.9625 -11.7875
vt 211.9625 -13.2125
vt 210.5375 -13.2125
vt 211.9625 -13.2125
vt 211.9625 -11.7875
vt 210.5375 -11.7875
vt 210.5375 0.0000
vt 211.9625 0.0000
vt 211.9625 1.5000
vt 210.5375 1.5000
vt 211.9625 0.0000
vt 210.5375 0.0000
vt 210.5375 1.5000
vt 211.9625 1.5000
vt -13.2125 0.0000
vt -11.7875 0.0000
vt -11.7875 1.5000
vt -13.2125 1.5000
vt -11.7875 0.0000
vt -13.2125 0.0000
vt -13.2125 1.5000
vt -11.7875 1.5000
usemtl rust
f 121 124 123 122
f 125 126 127 128
f 121 122 126 125
f 123 124 128 127
f 122 123 127 126
f 124 121 125 128
f 297 300 299 298
f 301 302 303 304
f 297 298 302 301
f 299 300 304 303
f 298 299 303 302
f 300 297 301 304
f 809 812 811 810
f 813 814 815 816
f 809 810 814 813
f 811 812 816 815
f 810 811 815 814
f 812 809 813 816
f 817 820 819 818
f 821 822 823 824
f 817 818 822 821
f 819 820 824 823
f 818 819 823 822
f 820 817 821 824
usemtl lamp_sick
f 873 876 875 874
f 877 878 879 880
f 873 874 878 877
f 875 876 880 879
f 874 875 879 878
f 876 873 877 880
f 881 884 883 882
f 885 886 887 888
f 881 882 886 885
f 883 884 888 887
f 882 883 887 886
f 884 881 885 888
f 889 892 891 890
f 893 894 895 896
f 889 890 894 893
f 891 892 896 895
f 890 891 895 894
f 892 889 893 896
f 897 900 899 898
f 901 902 903 904
f 897 898 902 901
f 899 900 904 903
f 898 899 903 902
f 900 897 901 904
f 905 908 907 906
f 909 910 911 912
f 905 906 910 909
f 907 908 912 911
f 906 907 911 910
f 908 905 909 912
f 913 916 915 914
f 917 918 919 920
f 913 914 918 917
f 915 916 920 919
f 914 915 919 918
f 916 913 917 920
f 921 924 923 922
f 925 926 927 928
f 921 922 926 925
f 923 924 928 927
f 922 923 927 926
f 924 921 925 928
f 929 932 931 930
f 933 934 935 936
f 929 930 934 933
f 931 932 936 935
f 930 931 935 934
f 932 929 933 936
f 937 940 939 938
f 941 942 943 944
f 937 938 942 941
f 939 940 944 943
f 938 939 943 942
f 940 937 941 944
f 945 948 947 946
f 949 950 951 952
f 945 946 950 949
f 947 948 952 951
f 946 947 951 950
f 948 945 949 952
f 953 956 955 954
f 957 958 959 960
f 953 954 958 957
f 955 956 960 959
f 954 955 959 958
f 956 953 957 960
f 961 964 963 962
f 965 966 967 968
f 961 962 966 965
f 963 964 968 967
f 962 963 967 966
f 964 961 965 968
f 969 972 971 970
f 973 974 975 976
f 969 970 974 973
f 971 972 976 975
f 970 971 975 974
f 972 969 973 976
f 977 980 979 978
f 981 982 983 984
f 977 978 982 981
f 979 980 984 983
f 978 979 983 982
f 980 977 981 984
f 985 988 987 986
f 989 990 991 992
f 985 986 990 989
f 987 988 992 991
f 986 987 991 990
f 988 985 989 992
f 993 996 995 994
f 997 998 999 1000
f 993 994 998 997
f 995 996 1000 999
f 994 995 999 998
f 996 993 997 1000
f 1001 1004 1003 1002
f 1005 1006 1007 1008
f 1001 1002 1006 1005
f 1003 1004 1008 1007
f 1002 1003 1007 1006
f 1004 1001 1005 1008
f 1009 1012 1011 1010
f 1013 1014 1015 1016
f 1009 1010 1014 1013
f 1011 1012 1016 1015
f 1010 1011 1015 1014
f 1012 1009 1013 1016
usemtl rust
f 1017 1019 1020 1018
f 1019 1021 1022 1020
f 1021 1023 1024 1022
f 1023 1025 1026 1024
f 1025 1027 1028 1026
f 1027 1029 1030 1028
f 1029 1031 1032 1030
f 1031 1017 1018 1032
f 1033 1018 1020
f 1034 1019 1017
f 1033 1020 1022
f 1034 1021 1019
f 1033 1022 1024
f 1034 1023 1021
f 1033 1024 1026
f 1034 1025 1023
f 1033 1026 1028
f 1034 1027 1025
f 1033 1028 1030
f 1034 1029 1027
f 1033 1030 1032
f 1034 1031 1029
f 1033 1032 1018
f 1034 1017 1031
f 1035 1038 1037 1036
f 1039 1040 1041 1042
f 1035 1036 1040 1039
f 1037 1038 1042 1041
f 1036 1037 1041 1040
f 1038 1035 1039 1042
usemtl pipe
f 1043 1045 1046 1044
f 1045 1047 1048 1046
f 1047 1049 1050 1048
f 1049 1051 1052 1050
f 1051 1053 1054 1052
f 1053 1055 1056 1054
f 1055 1057 1058 1056
f 1057 1043 1044 1058
f 1059 1044 1046
f 1060 1045 1043
f 1059 1046 1048
f 1060 1047 1045
f 1059 1048 1050
f 1060 1049 1047
f 1059 1050 1052
f 1060 1051 1049
f 1059 1052 1054
f 1060 1053 1051
f 1059 1054 1056
f 1060 1055 1053
f 1059 1056 1058
f 1060 1057 1055
f 1059 1058 1044
f 1060 1043 1057
f 1061 1064 1063 1062
f 1065 1066 1067 1068
f 1061 1062 1066 1065
f 1063 1064 1068 1067
f 1062 1063 1067 1066
f 1064 1061 1065 1068
usemtl grime_wall
f 1/1 2/2 3/3 4/4
f 5/5 6/6 7/7 8/8
f 9/9 10/10 11/11 12/12
f 13/13 14/14 15/15 16/16
f 17/17 18/18 19/19 20/20
f 21/21 22/22 23/23 24/24
f 25/25 26/26 27/27 28/28
f 29/29 30/30 31/31 32/32
f 33/33 34/34 35/35 36/36
f 37/37 38/38 39/39 40/40
f 41/41 42/42 43/43 44/44
f 45/45 46/46 47/47 48/48
f 49/49 50/50 51/51 52/52
f 53/53 54/54 55/55 56/56
f 57/57 58/58 59/59 60/60
f 61/61 62/62 63/63 64/64
f 65/65 66/66 67/67 68/68
f 69/69 70/70 71/71 72/72
f 73/73 74/74 75/75 76/76
f 77/77 78/78 79/79 80/80
f 81/81 82/82 83/83 84/84
f 85/85 86/86 87/87 88/88
f 89/89 90/90 91/91 92/92
f 93/93 94/94 95/95 96/96
f 97/97 98/98 99/99 100/100
f 101/101 102/102 103/103 104/104
f 105/105 106/106 107/107 108/108
f 109/109 110/110 111/111 112/112
f 113/113 114/114 115/115 116/116
f 117/117 118/118 119/119 120/120
f 129/121 130/122 131/123 132/124
f 133/125 134/126 135/127 136/128
f 137/129 138/130 139/131 140/132
f 141/133 142/134 143/135 144/136
f 145/137 146/138 147/139 148/140
f 149/141 150/142 151/143 152/144
f 153/145 154/146 155/147 156/148
f 157/149 158/150 159/151 160/152
f 161/153 162/154 163/155 164/156
f 165/157 166/158 167/159 168/160
f 169/161 170/162 171/163 172/164
f 173/165 174/166 175/167 176/168
f 177/169 178/170 179/171 180/172
f 181/173 182/174 183/175 184/176
f 185/177 186/178 187/179 188/180
f 189/181 190/182 191/183 192/184
f 193/185 194/186 195/187 196/188
f 197/189 198/190 199/191 200/192
f 201/193 202/194 203/195 204/196
f 205/197 206/198 207/199 208/200
f 209/201 210/202 211/203 212/204
f 213/205 214/206 215/207 216/208
f 217/209 218/210 219/211 220/212
f 221/213 222/214 223/215 224/216
f 225/217 226/218 227/219 228/220
f 229/221 230/222 231/223 232/224
f 233/225 234/226 235/227 236/228
f 237/229 238/230 239/231 240/232
f 241/233 242/234 243/235 244/236
f 245/237 246/238 247/239 248/240
f 249/241 250/242 251/243 252/244
f 253/245 254/246 255/247 256/248
f 257/249 258/250 259/251 260/252
f 261/253 262/254 263/255 264/256
f 265/257 266/258 267/259 268/260
f 269/261 270/262 271/263 272/264
f 273/265 274/266 275/267 276/268
f 277/269 278/270 279/271 280/272
f 281/273 282/274 283/275 284/276
f 285/277 286/278 287/279 288/280
f 289/281 290/282 291/283 292/284
f 293/285 294/286 295/287 296/288
f 305/289 306/290 307/291 308/292
f 309/293 310/294 311/295 312/296
f 313/297 314/298 315/299 316/300
f 317/301 318/302 319/303 320/304
f 321/305 322/306 323/307 324/308
f 325/309 326/310 327/311 328/312
f 329/313 330/314 331/315 332/316
f 333/317 334/318 335/319 336/320
f 337/321 338/322 339/323 340/324
f 341/325 342/326 343/327 344/328
f 345/329 346/330 347/331 348/332
f 349/333 350/334 351/335 352/336
f 353/337 354/338 355/339 356/340
f 357/341 358/342 359/343 360/344
f 361/345 362/346 363/347 364/348
f 365/349 366/350 367/351 368/352
f 369/353 370/354 371/355 372/356
f 373/357 374/358 375/359 376/360
f 377/361 378/362 379/363 380/364
f 381/365 382/366 383/367 384/368
f 385/369 386/370 387/371 388/372
f 389/373 390/374 391/375 392/376
f 393/377 394/378 395/379 396/380
f 397/381 398/382 399/383 400/384
f 401/385 402/386 403/387 404/388
f 405/389 406/390 407/391 408/392
f 409/393 410/394 411/395 412/396
f 413/397 414/398 415/399 416/400
f 417/401 418/402 419/403 420/404
f 421/405 422/406 423/407 424/408
f 425/409 426/410 427/411 428/412
f 429/413 430/414 431/415 432/416
f 433/417 434/418 435/419 436/420
f 437/421 438/422 439/423 440/424
f 441/425 442/426 443/427 444/428
f 445/429 446/430 447/431 448/432
f 449/433 450/434 451/435 452/436
f 453/437 454/438 455/439 456/440
f 457/441 458/442 459/443 460/444
f 461/445 462/446 463/447 464/448
f 465/449 466/450 467/451 468/452
f 469/453 470/454 471/455 472/456
f 473/457 474/458 475/459 476/460
f 477/461 478/462 479/463 480/464
f 481/465 482/466 483/467 484/468
f 485/469 486/470 487/471 488/472
f 489/473 490/474 491/475 492/476
f 493/477 494/478 495/479 496/480
f 497/481 498/482 499/483 500/484
f 501/485 502/486 503/487 504/488
f 505/489 506/490 507/491 508/492
f 509/493 510/494 511/495 512/496
f 513/497 514/498 515/499 516/500
f 517/501 518/502 519/503 520/504
f 521/505 522/506 523/507 524/508
f 525/509 526/510 527/511 528/512
f 529/513 530/514 531/515 532/516
f 533/517 534/518 535/519 536/520
f 537/521 538/522 539/523 540/524
f 541/525 542/526 543/527 544/528
f 545/529 546/530 547/531 548/532
f 549/533 550/534 551/535 552/536
f 553/537 554/538 555/539 556/540
f 557/541 558/542 559/543 560/544
f 561/545 562/546 563/547 564/548
f 565/549 566/550 567/551 568/552
f 569/553 570/554 571/555 572/556
f 573/557 574/558 575/559 576/560
f 577/561 578/562 579/563 580/564
f 581/565 582/566 583/567 584/568
f 585/569 586/570 587/571 588/572
f 589/573 590/574 591/575 592/576
f 593/577 594/578 595/579 596/580
f 597/581 598/582 599/583 600/584
f 601/585 602/586 603/587 604/588
f 605/589 606/590 607/591 608/592
f 609/593 610/594 611/595 612/596
f 613/597 614/598 615/599 616/600
f 617/601 618/602 619/603 620/604
f 621/605 622/606 623/607 624/608
f 625/609 626/610 627/611 628/612
f 629/613 630/614 631/615 632/616
f 633/617 634/618 635/619 636/620
f 637/621 638/622 639/623 640/624
f 641/625 642/626 643/627 644/628
f 645/629 646/630 647/631 648/632
f 649/633 650/634 651/635 652/636
f 653/637 654/638 655/639 656/640
f 657/641 658/642 659/643 660/644
f 661/645 662/646 663/647 664/648
f 665/649 666/650 667/651 668/652
f 669/653 670/654 671/655 672/656
f 673/657 674/658 675/659 676/660
f 677/661 678/662 679/663 680/664
f 681/665 682/666 683/667 684/668
f 685/669 686/670 687/671 688/672
f 689/673 690/674 691/675 692/676
f 693/677 694/678 695/679 696/680
f 697/681 698/682 699/683 700/684
f 701/685 702/686 703/687 704/688
f 705/689 706/690 707/691 708/692
f 709/693 710/694 711/695 712/696
f 713/697 714/698 715/699 716/700
f 717/701 718/702 719/703 720/704
f 721/705 722/706 723/707 724/708
f 725/709 726/710 727/711 728/712
f 729/713 730/714 731/715 732/716
f 733/717 734/718 735/719 736/720
f 737/721 738/722 739/723 740/724
f 741/725 742/726 743/727 744/728
f 745/729 746/730 747/731 748/732
f 749/733 750/734 751/735 752/736
f 753/737 754/738 755/739 756/740
f 757/741 758/742 759/743 760/744
f 761/745 762/746 763/747 764/748
f 765/749 766/750 767/751 768/752
f 769/753 770/754 771/755 772/756
f 773/757 774/758 775/759 776/760
f 777/761 778/762 779/763 780/764
f 781/765 782/766 783/767 784/768
f 785/769 786/770 787/771 788/772
f 789/773 790/774 791/775 792/776
f 793/777 794/778 795/779 796/780
f 797/781 798/782 799/783 800/784
f 801/785 802/786 803/787 804/788
f 805/789 806/790 807/791 808/792
f 825/793 826/794 827/795 828/796
f 829/797 830/798 831/799 832/800
f 833/801 834/802 835/803 836/804
f 837/805 838/806 839/807 840/808
f 841/809 842/810 843/811 844/812
f 845/813 846/814 847/815 848/816
f 849/817 850/818 851/819 852/820
f 853/821 854/822 855/823 856/824
f 857/825 858/826 859/827 860/828
f 861/829 862/830 863/831 864/832
f 865/833 866/834 867/835 868/836
f 869/837 870/838 871/839 872/840
