# RoastEngine Backrooms level
mtllib backrooms.mtl
v -0.0250 0.0000 0.0000
v -0.0250 1.0200 0.0000
v -0.0532 0.0000 0.0586
v -0.0532 1.0200 0.0586
v -0.1167 0.0000 0.0731
v -0.1167 1.0200 0.0731
v -0.1676 0.0000 0.0325
v -0.1676 1.0200 0.0325
v -0.1676 0.0000 -0.0325
v -0.1676 1.0200 -0.0325
v -0.1167 0.0000 -0.0731
v -0.1167 1.0200 -0.0731
v -0.0532 0.0000 -0.0586
v -0.0532 1.0200 -0.0586
v -0.1000 1.0200 0.0000
v -0.1000 0.0000 0.0000
v 0.1750 0.0000 0.0000
v 0.1750 1.0200 0.0000
v 0.1468 0.0000 0.0586
v 0.1468 1.0200 0.0586
v 0.0833 0.0000 0.0731
v 0.0833 1.0200 0.0731
v 0.0324 0.0000 0.0325
v 0.0324 1.0200 0.0325
v 0.0324 0.0000 -0.0325
v 0.0324 1.0200 -0.0325
v 0.0833 0.0000 -0.0731
v 0.0833 1.0200 -0.0731
v 0.1468 0.0000 -0.0586
v 0.1468 1.0200 -0.0586
v 0.1000 1.0200 0.0000
v 0.1000 0.0000 0.0000
v -0.1500 1.0500 -0.0950
v 0.1500 1.0500 -0.0950
v 0.1500 1.0500 0.0950
v -0.1500 1.0500 0.0950
v -0.1500 1.3100 -0.0950
v 0.1500 1.3100 -0.0950
v 0.1500 1.3100 0.0950
v -0.1500 1.3100 0.0950
v -0.1800 1.2900 -0.1050
v 0.1800 1.2900 -0.1050
v 0.1800 1.2900 0.1050
v -0.1800 1.2900 0.1050
v -0.1800 1.9500 -0.1050
v 0.1800 1.9500 -0.1050
v 0.1800 1.9500 0.1050
v -0.1800 1.9500 0.1050
v -0.0500 1.3800 -0.1150
v 0.0500 1.3800 -0.1150
v 0.0500 1.3800 -0.0850
v -0.0500 1.3800 -0.0850
v -0.0500 1.7200 -0.1150
v 0.0500 1.7200 -0.1150
v 0.0500 1.7200 -0.0850
v -0.0500 1.7200 -0.0850
v -0.1850 0.9200 0.0000
v -0.1850 1.9400 0.0000
v -0.2057 0.9200 0.0430
v -0.2057 1.9400 0.0430
v -0.2522 0.9200 0.0536
v -0.2522 1.9400 0.0536
v -0.2896 0.9200 0.0239
v -0.2896 1.9400 0.0239
v -0.2896 0.9200 -0.0239
v -0.2896 1.9400 -0.0239
v -0.2522 0.9200 -0.0536
v -0.2522 1.9400 -0.0536
v -0.2057 0.9200 -0.0430
v -0.2057 1.9400 -0.0430
v -0.2400 1.9400 0.0000
v -0.2400 0.9200 0.0000
v 0.2950 0.9200 0.0000
v 0.2950 1.9400 0.0000
v 0.2743 0.9200 0.0430
v 0.2743 1.9400 0.0430
v 0.2278 0.9200 0.0536
v 0.2278 1.9400 0.0536
v 0.1904 0.9200 0.0239
v 0.1904 1.9400 0.0239
v 0.1904 0.9200 -0.0239
v 0.1904 1.9400 -0.0239
v 0.2278 0.9200 -0.0536
v 0.2278 1.9400 -0.0536
v 0.2743 0.9200 -0.0430
v 0.2743 1.9400 -0.0430
v 0.2400 1.9400 0.0000
v 0.2400 0.9200 0.0000
v -0.2860 0.6800 0.0090
v -0.2640 0.6800 0.0090
v -0.2640 0.6800 0.0310
v -0.2860 0.6800 0.0310
v -0.2860 0.9200 0.0090
v -0.2640 0.9200 0.0090
v -0.2640 0.9200 0.0310
v -0.2860 0.9200 0.0310
v -0.2510 0.6800 0.0090
v -0.2290 0.6800 0.0090
v -0.2290 0.6800 0.0310
v -0.2510 0.6800 0.0310
v -0.2510 0.9200 0.0090
v -0.2290 0.9200 0.0090
v -0.2290 0.9200 0.0310
v -0.2510 0.9200 0.0310
v -0.2160 0.6800 0.0090
v -0.1940 0.6800 0.0090
v -0.1940 0.6800 0.0310
v -0.2160 0.6800 0.0310
v -0.2160 0.9200 0.0090
v -0.1940 0.9200 0.0090
v -0.1940 0.9200 0.0310
v -0.2160 0.9200 0.0310
v 0.1940 0.6800 0.0090
v 0.2160 0.6800 0.0090
v 0.2160 0.6800 0.0310
v 0.1940 0.6800 0.0310
v 0.1940 0.9200 0.0090
v 0.2160 0.9200 0.0090
v 0.2160 0.9200 0.0310
v 0.1940 0.9200 0.0310
v 0.2290 0.6800 0.0090
v 0.2510 0.6800 0.0090
v 0.2510 0.6800 0.0310
v 0.2290 0.6800 0.0310
v 0.2290 0.9200 0.0090
v 0.2510 0.9200 0.0090
v 0.2510 0.9200 0.0310
v 0.2290 0.9200 0.0310
v 0.2640 0.6800 0.0090
v 0.2860 0.6800 0.0090
v 0.2860 0.6800 0.0310
v 0.2640 0.6800 0.0310
v 0.2640 0.9200 0.0090
v 0.2860 0.9200 0.0090
v 0.2860 0.9200 0.0310
v 0.2640 0.9200 0.0310
v -0.1300 1.9000 -0.1100
v 0.1300 1.9000 -0.1100
v 0.1300 1.9000 0.1100
v -0.1300 1.9000 0.1100
v -0.1300 2.2000 -0.1100
v 0.1300 2.2000 -0.1100
v 0.1300 2.2000 0.1100
v -0.1300 2.2000 0.1100
v -0.0850 1.9250 -0.1200
v 0.0850 1.9250 -0.1200
v 0.0850 1.9250 -0.1000
v -0.0850 1.9250 -0.1000
v -0.0850 2.0150 -0.1200
v 0.0850 2.0150 -0.1200
v 0.0850 2.0150 -0.1000
v -0.0850 2.0150 -0.1000
v -0.0825 2.1100 -0.1180
v -0.0375 2.1100 -0.1180
v -0.0375 2.1100 -0.1060
v -0.0825 2.1100 -0.1060
v -0.0825 2.1300 -0.1180
v -0.0375 2.1300 -0.1180
v -0.0375 2.1300 -0.1060
v -0.0825 2.1300 -0.1060
v 0.0375 2.1100 -0.1180
v 0.0825 2.1100 -0.1180
v 0.0825 2.1100 -0.1060
v 0.0375 2.1100 -0.1060
v 0.0375 2.1300 -0.1180
v 0.0825 2.1300 -0.1180
v 0.0825 2.1300 -0.1060
v 0.0375 2.1300 -0.1060
v 0.1600 1.4353 0.0648
v 0.3272 1.4353 0.0648
v 0.3272 1.4353 0.1121
v 0.1600 1.4353 0.1121
v 0.1600 1.5071 0.0648
v 0.3272 1.5071 0.0648
v 0.3272 1.5071 0.1121
v 0.1600 1.5071 0.1121
v -0.3509 0.3607 0.0203
v -0.1600 0.3607 0.0203
v -0.1600 0.3607 0.0393
v -0.3509 0.3607 0.0393
v -0.3509 0.4437 0.0203
v -0.1600 0.4437 0.0203
v -0.1600 0.4437 0.0393
v -0.3509 0.4437 0.0393
v -0.2870 1.1839 0.0035
v -0.1600 1.1839 0.0035
v -0.1600 1.1839 0.0261
v -0.2870 1.1839 0.0261
v -0.2870 1.2048 0.0035
v -0.1600 1.2048 0.0035
v -0.1600 1.2048 0.0261
v -0.2870 1.2048 0.0261
v 0.1600 0.8152 -0.0780
v 0.3225 0.8152 -0.0780
v 0.3225 0.8152 -0.0582
v 0.1600 0.8152 -0.0582
v 0.1600 0.8910 -0.0780
v 0.3225 0.8910 -0.0780
v 0.3225 0.8910 -0.0582
v 0.1600 0.8910 -0.0582
v -0.2003 1.4441 0.0630
v -0.1600 1.4441 0.0630
v -0.1600 1.4441 0.0856
v -0.2003 1.4441 0.0856
v -0.2003 1.4787 0.0630
v -0.1600 1.4787 0.0630
v -0.1600 1.4787 0.0856
v -0.2003 1.4787 0.0856
v 0.1600 2.0895 0.0729
v 0.2463 2.0895 0.0729
v 0.2463 2.0895 0.1117
v 0.1600 2.0895 0.1117
v 0.1600 2.1472 0.0729
v 0.2463 2.1472 0.0729
v 0.2463 2.1472 0.1117
v 0.1600 2.1472 0.1117
v 0.1600 0.6773 0.0806
v 0.3105 0.6773 0.0806
v 0.3105 0.6773 0.1060
v 0.1600 0.6773 0.1060
v 0.1600 0.7599 0.0806
v 0.3105 0.7599 0.0806
v 0.3105 0.7599 0.1060
v 0.1600 0.7599 0.1060
v -0.2233 0.9796 -0.1050
v -0.1600 0.9796 -0.1050
v -0.1600 0.9796 -0.0689
v -0.2233 0.9796 -0.0689
v -0.2233 1.0207 -0.1050
v -0.1600 1.0207 -0.1050
v -0.1600 1.0207 -0.0689
v -0.2233 1.0207 -0.0689
v 0.1600 0.3174 -0.0539
v 0.2541 0.3174 -0.0539
v 0.2541 0.3174 -0.0221
v 0.1600 0.3174 -0.0221
v 0.1600 0.3947 -0.0539
v 0.2541 0.3947 -0.0539
v 0.2541 0.3947 -0.0221
v 0.1600 0.3947 -0.0221
v -0.3127 0.8743 -0.0965
v -0.1600 0.8743 -0.0965
v -0.1600 0.8743 -0.0807
v -0.3127 0.8743 -0.0807
v -0.3127 0.9626 -0.0965
v -0.1600 0.9626 -0.0965
v -0.1600 0.9626 -0.0807
v -0.3127 0.9626 -0.0807
v 0.1600 1.6768 0.0399
v 0.2029 1.6768 0.0399
v 0.2029 1.6768 0.0752
v 0.1600 1.6768 0.0752
v 0.1600 1.7224 0.0399
v 0.2029 1.7224 0.0399
v 0.2029 1.7224 0.0752
v 0.1600 1.7224 0.0752
v -0.2289 0.3495 0.0703
v -0.1600 0.3495 0.0703
v -0.1600 0.3495 0.1118
v -0.2289 0.3495 0.1118
v -0.2289 0.3832 0.0703
v -0.1600 0.3832 0.0703
v -0.1600 0.3832 0.1118
v -0.2289 0.3832 0.1118
v 0.1600 1.9950 -0.0501
v 0.2551 1.9950 -0.0501
v 0.2551 1.9950 -0.0080
v 0.1600 1.9950 -0.0080
v 0.1600 2.0517 -0.0501
v 0.2551 2.0517 -0.0501
v 0.2551 2.0517 -0.0080
v 0.1600 2.0517 -0.0080
v 0.1600 0.5332 0.0479
v 0.3276 0.5332 0.0479
v 0.3276 0.5332 0.0960
v 0.1600 0.5332 0.0960
v 0.1600 0.5558 0.0479
v 0.3276 0.5558 0.0479
v 0.3276 0.5558 0.0960
v 0.1600 0.5558 0.0960
v -0.2977 0.4922 0.0599
v -0.1600 0.4922 0.0599
v -0.1600 0.4922 0.1073
v -0.2977 0.4922 0.1073
v -0.2977 0.5360 0.0599
v -0.1600 0.5360 0.0599
v -0.1600 0.5360 0.1073
v -0.2977 0.5360 0.1073
v -0.2507 1.3185 -0.0746
v -0.1600 1.3185 -0.0746
v -0.1600 1.3185 -0.0544
v -0.2507 1.3185 -0.0544
v -0.2507 1.3440 -0.0746
v -0.1600 1.3440 -0.0746
v -0.1600 1.3440 -0.0544
v -0.2507 1.3440 -0.0544
v 0.1600 1.5460 -0.1071
v 0.2258 1.5460 -0.1071
v 0.2258 1.5460 -0.0735
v 0.1600 1.5460 -0.0735
v 0.1600 1.6350 -0.1071
v 0.2258 1.6350 -0.1071
v 0.2258 1.6350 -0.0735
v 0.1600 1.6350 -0.0735
v -0.2950 1.0547 0.0504
v -0.1600 1.0547 0.0504
v -0.1600 1.0547 0.0801
v -0.2950 1.0547 0.0801
v -0.2950 1.1065 0.0504
v -0.1600 1.1065 0.0504
v -0.1600 1.1065 0.0801
v -0.2950 1.1065 0.0801
v 0.1600 0.4109 -0.0111
v 0.2052 0.4109 -0.0111
v 0.2052 0.4109 0.0085
v 0.1600 0.4109 0.0085
v 0.1600 0.4896 -0.0111
v 0.2052 0.4896 -0.0111
v 0.2052 0.4896 0.0085
v 0.1600 0.4896 0.0085
v 0.1600 1.6533 0.0425
v 0.3009 1.6533 0.0425
v 0.3009 1.6533 0.0727
v 0.1600 1.6533 0.0727
v 0.1600 1.6807 0.0425
v 0.3009 1.6807 0.0425
v 0.3009 1.6807 0.0727
v 0.1600 1.6807 0.0727
v 0.1600 0.5737 -0.0318
v 0.2472 0.5737 -0.0318
v 0.2472 0.5737 0.0130
v 0.1600 0.5737 0.0130
v 0.1600 0.6636 -0.0318
v 0.2472 0.6636 -0.0318
v 0.2472 0.6636 0.0130
v 0.1600 0.6636 0.0130
v -0.2781 2.0800 0.0333
v -0.1600 2.0800 0.0333
v -0.1600 2.0800 0.0585
v -0.2781 2.0800 0.0585
v -0.2781 2.1336 0.0333
v -0.1600 2.1336 0.0333
v -0.1600 2.1336 0.0585
v -0.2781 2.1336 0.0585
v -0.2603 1.0332 0.0792
v -0.1600 1.0332 0.0792
v -0.1600 1.0332 0.1161
v -0.2603 1.0332 0.1161
v -0.2603 1.1204 0.0792
v -0.1600 1.1204 0.0792
v -0.1600 1.1204 0.1161
v -0.2603 1.1204 0.1161
v -0.2143 1.2114 -0.0682
v -0.1600 1.2114 -0.0682
v -0.1600 1.2114 -0.0229
v -0.2143 1.2114 -0.0229
v -0.2143 1.2862 -0.0682
v -0.1600 1.2862 -0.0682
v -0.1600 1.2862 -0.0229
v -0.2143 1.2862 -0.0229
v 0.1600 0.9671 0.0181
v 0.3240 0.9671 0.0181
v 0.3240 0.9671 0.0597
v 0.1600 0.9671 0.0597
v 0.1600 1.0336 0.0181
v 0.3240 1.0336 0.0181
v 0.3240 1.0336 0.0597
v 0.1600 1.0336 0.0597
v 0.1600 0.9672 -0.0225
v 0.2449 0.9672 -0.0225
v 0.2449 0.9672 0.0167
v 0.1600 0.9672 0.0167
v 0.1600 1.0411 -0.0225
v 0.2449 1.0411 -0.0225
v 0.2449 1.0411 0.0167
v 0.1600 1.0411 0.0167
v 0.1600 0.8685 -0.0009
v 0.3040 0.8685 -0.0009
v 0.3040 0.8685 0.0332
v 0.1600 0.8685 0.0332
v 0.1600 0.8893 -0.0009
v 0.3040 0.8893 -0.0009
v 0.3040 0.8893 0.0332
v 0.1600 0.8893 0.0332
v 0.1600 0.7686 0.0419
v 0.2741 0.7686 0.0419
v 0.2741 0.7686 0.0848
v 0.1600 0.7686 0.0848
v 0.1600 0.8339 0.0419
v 0.2741 0.8339 0.0419
v 0.2741 0.8339 0.0848
v 0.1600 0.8339 0.0848
v 0.1600 0.9539 0.0434
v 0.3181 0.9539 0.0434
v 0.3181 0.9539 0.0879
v 0.1600 0.9539 0.0879
v 0.1600 0.9984 0.0434
v 0.3181 0.9984 0.0434
v 0.3181 0.9984 0.0879
v 0.1600 0.9984 0.0879
v 0.1600 1.8877 0.0745
v 0.3562 1.8877 0.0745
v 0.3562 1.8877 0.1081
v 0.1600 1.8877 0.1081
v 0.1600 1.9440 0.0745
v 0.3562 1.9440 0.0745
v 0.3562 1.9440 0.1081
v 0.1600 1.9440 0.1081
v 0.1600 0.6149 -0.0246
v 0.3500 0.6149 -0.0246
v 0.3500 0.6149 0.0155
v 0.1600 0.6149 0.0155
v 0.1600 0.6833 -0.0246
v 0.3500 0.6833 -0.0246
v 0.3500 0.6833 0.0155
v 0.1600 0.6833 0.0155
v -0.3249 1.6313 0.0013
v -0.1600 1.6313 0.0013
v -0.1600 1.6313 0.0310
v -0.3249 1.6313 0.0310
v -0.3249 1.6979 0.0013
v -0.1600 1.6979 0.0013
v -0.1600 1.6979 0.0310
v -0.3249 1.6979 0.0310
v 0.1600 1.4618 0.0338
v 0.3019 1.4618 0.0338
v 0.3019 1.4618 0.0544
v 0.1600 1.4618 0.0544
v 0.1600 1.4837 0.0338
v 0.3019 1.4837 0.0338
v 0.3019 1.4837 0.0544
v 0.1600 1.4837 0.0544
v 0.1600 1.1118 0.0290
v 0.2350 1.1118 0.0290
v 0.2350 1.1118 0.0454
v 0.1600 1.1118 0.0454
v 0.1600 1.1760 0.0290
v 0.2350 1.1760 0.0290
v 0.2350 1.1760 0.0454
v 0.1600 1.1760 0.0454
usemtl scrawl_body
f 1 3 4 2
f 3 5 6 4
f 5 7 8 6
f 7 9 10 8
f 9 11 12 10
f 11 13 14 12
f 13 1 2 14
f 15 2 4
f 16 3 1
f 15 4 6
f 16 5 3
f 15 6 8
f 16 7 5
f 15 8 10
f 16 9 7
f 15 10 12
f 16 11 9
f 15 12 14
f 16 13 11
f 15 14 2
f 16 1 13
f 17 19 20 18
f 19 21 22 20
f 21 23 24 22
f 23 25 26 24
f 25 27 28 26
f 27 29 30 28
f 29 17 18 30
f 31 18 20
f 32 19 17
f 31 20 22
f 32 21 19
f 31 22 24
f 32 23 21
f 31 24 26
f 32 25 23
f 31 26 28
f 32 27 25
f 31 28 30
f 32 29 27
f 31 30 18
f 32 17 29
f 33 36 35 34
f 37 38 39 40
f 33 34 38 37
f 35 36 40 39
f 34 35 39 38
f 36 33 37 40
f 41 44 43 42
f 45 46 47 48
f 41 42 46 45
f 43 44 48 47
f 42 43 47 46
f 44 41 45 48
usemtl scrawl_wound
f 49 52 51 50
f 53 54 55 56
f 49 50 54 53
f 51 52 56 55
f 50 51 55 54
f 52 49 53 56
usemtl scrawl_body
f 57 59 60 58
f 59 61 62 60
f 61 63 64 62
f 63 65 66 64
f 65 67 68 66
f 67 69 70 68
f 69 57 58 70
f 71 58 60
f 72 59 57
f 71 60 62
f 72 61 59
f 71 62 64
f 72 63 61
f 71 64 66
f 72 65 63
f 71 66 68
f 72 67 65
f 71 68 70
f 72 69 67
f 71 70 58
f 72 57 69
f 73 75 76 74
f 75 77 78 76
f 77 79 80 78
f 79 81 82 80
f 81 83 84 82
f 83 85 86 84
f 85 73 74 86
f 87 74 76
f 88 75 73
f 87 76 78
f 88 77 75
f 87 78 80
f 88 79 77
f 87 80 82
f 88 81 79
f 87 82 84
f 88 83 81
f 87 84 86
f 88 85 83
f 87 86 74
f 88 73 85
f 89 92 91 90
f 93 94 95 96
f 89 90 94 93
f 91 92 96 95
f 90 91 95 94
f 92 89 93 96
f 97 100 99 98
f 101 102 103 104
f 97 98 102 101
f 99 100 104 103
f 98 99 103 102
f 100 97 101 104
f 105 108 107 106
f 109 110 111 112
f 105 106 110 109
f 107 108 112 111
f 106 107 111 110
f 108 105 109 112
f 113 116 115 114
f 117 118 119 120
f 113 114 118 117
f 115 116 120 119
f 114 115 119 118
f 116 113 117 120
f 121 124 123 122
f 125 126 127 128
f 121 122 126 125
f 123 124 128 127
f 122 123 127 126
f 124 121 125 128
f 129 132 131 130
f 133 134 135 136
f 129 130 134 133
f 131 132 136 135
f 130 131 135 134
f 132 129 133 136
f 137 140 139 138
f 141 142 143 144
f 137 138 142 141
f 139 140 144 143
f 138 139 143 142
f 140 137 141 144
usemtl scrawl_wound
f 145 148 147 146
f 149 150 151 152
f 145 146 150 149
f 147 148 152 151
f 146 147 151 150
f 148 145 149 152
usemtl scrawl_eye
f 153 156 155 154
f 157 158 159 160
f 153 154 158 157
f 155 156 160 159
f 154 155 159 158
f 156 153 157 160
f 161 164 163 162
f 165 166 167 168
f 161 162 166 165
f 163 164 168 167
f 162 163 167 166
f 164 161 165 168
usemtl scrawl_body
f 169 172 171 170
f 173 174 175 176
f 169 170 174 173
f 171 172 176 175
f 170 171 175 174
f 172 169 173 176
f 177 180 179 178
f 181 182 183 184
f 177 178 182 181
f 179 180 184 183
f 178 179 183 182
f 180 177 181 184
f 185 188 187 186
f 189 190 191 192
f 185 186 190 189
f 187 188 192 191
f 186 187 191 190
f 188 185 189 192
f 193 196 195 194
f 197 198 199 200
f 193 194 198 197
f 195 196 200 199
f 194 195 199 198
f 196 193 197 200
f 201 204 203 202
f 205 206 207 208
f 201 202 206 205
f 203 204 208 207
f 202 203 207 206
f 204 201 205 208
f 209 212 211 210
f 213 214 215 216
f 209 210 214 213
f 211 212 216 215
f 210 211 215 214
f 212 209 213 216
f 217 220 219 218
f 221 222 223 224
f 217 218 222 221
f 219 220 224 223
f 218 219 223 222
f 220 217 221 224
f 225 228 227 226
f 229 230 231 232
f 225 226 230 229
f 227 228 232 231
f 226 227 231 230
f 228 225 229 232
f 233 236 235 234
f 237 238 239 240
f 233 234 238 237
f 235 236 240 239
f 234 235 239 238
f 236 233 237 240
f 241 244 243 242
f 245 246 247 248
f 241 242 246 245
f 243 244 248 247
f 242 243 247 246
f 244 241 245 248
f 249 252 251 250
f 253 254 255 256
f 249 250 254 253
f 251 252 256 255
f 250 251 255 254
f 252 249 253 256
f 257 260 259 258
f 261 262 263 264
f 257 258 262 261
f 259 260 264 263
f 258 259 263 262
f 260 257 261 264
f 265 268 267 266
f 269 270 271 272
f 265 266 270 269
f 267 268 272 271
f 266 267 271 270
f 268 265 269 272
f 273 276 275 274
f 277 278 279 280
f 273 274 278 277
f 275 276 280 279
f 274 275 279 278
f 276 273 277 280
f 281 284 283 282
f 285 286 287 288
f 281 282 286 285
f 283 284 288 287
f 282 283 287 286
f 284 281 285 288
f 289 292 291 290
f 293 294 295 296
f 289 290 294 293
f 291 292 296 295
f 290 291 295 294
f 292 289 293 296
f 297 300 299 298
f 301 302 303 304
f 297 298 302 301
f 299 300 304 303
f 298 299 303 302
f 300 297 301 304
f 305 308 307 306
f 309 310 311 312
f 305 306 310 309
f 307 308 312 311
f 306 307 311 310
f 308 305 309 312
f 313 316 315 314
f 317 318 319 320
f 313 314 318 317
f 315 316 320 319
f 314 315 319 318
f 316 313 317 320
f 321 324 323 322
f 325 326 327 328
f 321 322 326 325
f 323 324 328 327
f 322 323 327 326
f 324 321 325 328
f 329 332 331 330
f 333 334 335 336
f 329 330 334 333
f 331 332 336 335
f 330 331 335 334
f 332 329 333 336
f 337 340 339 338
f 341 342 343 344
f 337 338 342 341
f 339 340 344 343
f 338 339 343 342
f 340 337 341 344
f 345 348 347 346
f 349 350 351 352
f 345 346 350 349
f 347 348 352 351
f 346 347 351 350
f 348 345 349 352
f 353 356 355 354
f 357 358 359 360
f 353 354 358 357
f 355 356 360 359
f 354 355 359 358
f 356 353 357 360
f 361 364 363 362
f 365 366 367 368
f 361 362 366 365
f 363 364 368 367
f 362 363 367 366
f 364 361 365 368
f 369 372 371 370
f 373 374 375 376
f 369 370 374 373
f 371 372 376 375
f 370 371 375 374
f 372 369 373 376
f 377 380 379 378
f 381 382 383 384
f 377 378 382 381
f 379 380 384 383
f 378 379 383 382
f 380 377 381 384
f 385 388 387 386
f 389 390 391 392
f 385 386 390 389
f 387 388 392 391
f 386 387 391 390
f 388 385 389 392
f 393 396 395 394
f 397 398 399 400
f 393 394 398 397
f 395 396 400 399
f 394 395 399 398
f 396 393 397 400
f 401 404 403 402
f 405 406 407 408
f 401 402 406 405
f 403 404 408 407
f 402 403 407 406
f 404 401 405 408
f 409 412 411 410
f 413 414 415 416
f 409 410 414 413
f 411 412 416 415
f 410 411 415 414
f 412 409 413 416
f 417 420 419 418
f 421 422 423 424
f 417 418 422 421
f 419 420 424 423
f 418 419 423 422
f 420 417 421 424
f 425 428 427 426
f 429 430 431 432
f 425 426 430 429
f 427 428 432 431
f 426 427 431 430
f 428 425 429 432
f 433 436 435 434
f 437 438 439 440
f 433 434 438 437
f 435 436 440 439
f 434 435 439 438
f 436 433 437 440
