# RoastEngine club level
mtllib arena.mtl
v -218.4000 -0.2000 -14.4000
v -181.6000 -0.2000 -14.4000
v -181.6000 -0.2000 14.4000
v -218.4000 -0.2000 14.4000
v -218.4000 0.0000 -14.4000
v -181.6000 0.0000 -14.4000
v -181.6000 0.0000 14.4000
v -218.4000 0.0000 14.4000
v -218.4000 0.0000 -14.4000
v -181.6000 0.0000 -14.4000
v -181.6000 0.0000 -14.0000
v -218.4000 0.0000 -14.0000
v -218.4000 7.5000 -14.4000
v -181.6000 7.5000 -14.4000
v -181.6000 7.5000 -14.0000
v -218.4000 7.5000 -14.0000
v -218.4000 0.0000 14.0000
v -181.6000 0.0000 14.0000
v -181.6000 0.0000 14.4000
v -218.4000 0.0000 14.4000
v -218.4000 7.5000 14.0000
v -181.6000 7.5000 14.0000
v -181.6000 7.5000 14.4000
v -218.4000 7.5000 14.4000
v -218.4000 0.0000 -14.0000
v -218.0000 0.0000 -14.0000
v -218.0000 0.0000 14.0000
v -218.4000 0.0000 14.0000
v -218.4000 7.5000 -14.0000
v -218.0000 7.5000 -14.0000
v -218.0000 7.5000 14.0000
v -218.4000 7.5000 14.0000
v -182.0000 0.0000 -14.0000
v -181.6000 0.0000 -14.0000
v -181.6000 0.0000 14.0000
v -182.0000 0.0000 14.0000
v -182.0000 7.5000 -14.0000
v -181.6000 7.5000 -14.0000
v -181.6000 7.5000 14.0000
v -182.0000 7.5000 14.0000
v -216.0000 0.0000 -13.8000
v -184.0000 0.0000 -13.8000
v -184.0000 0.0000 -11.2000
v -216.0000 0.0000 -11.2000
v -216.0000 0.0400 -13.8000
v -184.0000 0.0400 -13.8000
v -184.0000 0.0400 -11.2000
v -216.0000 0.0400 -11.2000
v -216.0000 0.0000 11.2000
v -184.0000 0.0000 11.2000
v -184.0000 0.0000 13.8000
v -216.0000 0.0000 13.8000
v -216.0000 0.0400 11.2000
v -184.0000 0.0400 11.2000
v -184.0000 0.0400 13.8000
v -216.0000 0.0400 13.8000
v -217.8100 6.7000 -12.0000
v -217.7500 6.7000 -12.0000
v -217.7500 6.7000 12.0000
v -217.8100 6.7000 12.0000
v -217.8100 6.9000 -12.0000
v -217.7500 6.9000 -12.0000
v -217.7500 6.9000 12.0000
v -217.8100 6.9000 12.0000
v -182.2500 6.7000 -12.0000
v -182.1900 6.7000 -12.0000
v -182.1900 6.7000 12.0000
v -182.2500 6.7000 12.0000
v -182.2500 6.9000 -12.0000
v -182.1900 6.9000 -12.0000
v -182.1900 6.9000 12.0000
v -182.2500 6.9000 12.0000
v -196.8000 0.0000 0.0000
v -196.8000 0.9000 0.0000
v -196.9566 0.0000 0.9889
v -196.9566 0.9000 0.9889
v -197.4111 0.0000 1.8809
v -197.4111 0.9000 1.8809
v -198.1191 0.0000 2.5889
v -198.1191 0.9000 2.5889
v -199.0111 0.0000 3.0434
v -199.0111 0.9000 3.0434
v -200.0000 0.0000 3.2000
v -200.0000 0.9000 3.2000
v -200.9889 0.0000 3.0434
v -200.9889 0.9000 3.0434
v -201.8809 0.0000 2.5889
v -201.8809 0.9000 2.5889
v -202.5889 0.0000 1.8809
v -202.5889 0.9000 1.8809
v -203.0434 0.0000 0.9889
v -203.0434 0.9000 0.9889
v -203.2000 0.0000 0.0000
v -203.2000 0.9000 0.0000
v -203.0434 0.0000 -0.9889
v -203.0434 0.9000 -0.9889
v -202.5889 0.0000 -1.8809
v -202.5889 0.9000 -1.8809
v -201.8809 0.0000 -2.5889
v -201.8809 0.9000 -2.5889
v -200.9889 0.0000 -3.0434
v -200.9889 0.9000 -3.0434
v -200.0000 0.0000 -3.2000
v -200.0000 0.9000 -3.2000
v -199.0111 0.0000 -3.0434
v -199.0111 0.9000 -3.0434
v -198.1191 0.0000 -2.5889
v -198.1191 0.9000 -2.5889
v -197.4111 0.0000 -1.8809
v -197.4111 0.9000 -1.8809
v -196.9566 0.0000 -0.9889
v -196.9566 0.9000 -0.9889
v -200.0000 0.9000 0.0000
v -200.0000 0.0000 0.0000
v -197.1000 0.8500 0.0000
v -197.1000 0.9100 0.0000
v -197.2419 0.8500 0.8961
v -197.2419 0.9100 0.8961
v -197.6539 0.8500 1.7046
v -197.6539 0.9100 1.7046
v -198.2954 0.8500 2.3461
v -198.2954 0.9100 2.3461
v -199.1039 0.8500 2.7581
v -199.1039 0.9100 2.7581
v -200.0000 0.8500 2.9000
v -200.0000 0.9100 2.9000
v -200.8961 0.8500 2.7581
v -200.8961 0.9100 2.7581
v -201.7046 0.8500 2.3461
v -201.7046 0.9100 2.3461
v -202.3461 0.8500 1.7046
v -202.3461 0.9100 1.7046
v -202.7581 0.8500 0.8961
v -202.7581 0.9100 0.8961
v -202.9000 0.8500 0.0000
v -202.9000 0.9100 0.0000
v -202.7581 0.8500 -0.8961
v -202.7581 0.9100 -0.8961
v -202.3461 0.8500 -1.7046
v -202.3461 0.9100 -1.7046
v -201.7046 0.8500 -2.3461
v -201.7046 0.9100 -2.3461
v -200.8961 0.8500 -2.7581
v -200.8961 0.9100 -2.7581
v -200.0000 0.8500 -2.9000
v -200.0000 0.9100 -2.9000
v -199.1039 0.8500 -2.7581
v -199.1039 0.9100 -2.7581
v -198.2954 0.8500 -2.3461
v -198.2954 0.9100 -2.3461
v -197.6539 0.8500 -1.7046
v -197.6539 0.9100 -1.7046
v -197.2419 0.8500 -0.8961
v -197.2419 0.9100 -0.8961
v -200.0000 0.9100 0.0000
v -200.0000 0.8500 0.0000
v -199.5500 0.9000 0.0000
v -199.5500 3.1000 0.0000
v -199.6103 0.9000 0.2250
v -199.6103 3.1000 0.2250
v -199.7750 0.9000 0.3897
v -199.7750 3.1000 0.3897
v -200.0000 0.9000 0.4500
v -200.0000 3.1000 0.4500
v -200.2250 0.9000 0.3897
v -200.2250 3.1000 0.3897
v -200.3897 0.9000 0.2250
v -200.3897 3.1000 0.2250
v -200.4500 0.9000 0.0000
v -200.4500 3.1000 0.0000
v -200.3897 0.9000 -0.2250
v -200.3897 3.1000 -0.2250
v -200.2250 0.9000 -0.3897
v -200.2250 3.1000 -0.3897
v -200.0000 0.9000 -0.4500
v -200.0000 3.1000 -0.4500
v -199.7750 0.9000 -0.3897
v -199.7750 3.1000 -0.3897
v -199.6103 0.9000 -0.2250
v -199.6103 3.1000 -0.2250
v -200.0000 3.1000 0.0000
v -200.0000 0.9000 0.0000
v -199.0000 3.1000 0.0000
v -199.0000 3.3500 0.0000
v -199.0761 3.1000 0.3827
v -199.0761 3.3500 0.3827
v -199.2929 3.1000 0.7071
v -199.2929 3.3500 0.7071
v -199.6173 3.1000 0.9239
v -199.6173 3.3500 0.9239
v -200.0000 3.1000 1.0000
v -200.0000 3.3500 1.0000
v -200.3827 3.1000 0.9239
v -200.3827 3.3500 0.9239
v -200.7071 3.1000 0.7071
v -200.7071 3.3500 0.7071
v -200.9239 3.1000 0.3827
v -200.9239 3.3500 0.3827
v -201.0000 3.1000 0.0000
v -201.0000 3.3500 0.0000
v -200.9239 3.1000 -0.3827
v -200.9239 3.3500 -0.3827
v -200.7071 3.1000 -0.7071
v -200.7071 3.3500 -0.7071
v -200.3827 3.1000 -0.9239
v -200.3827 3.3500 -0.9239
v -200.0000 3.1000 -1.0000
v -200.0000 3.3500 -1.0000
v -199.6173 3.1000 -0.9239
v -199.6173 3.3500 -0.9239
v -199.2929 3.1000 -0.7071
v -199.2929 3.3500 -0.7071
v -199.0761 3.1000 -0.3827
v -199.0761 3.3500 -0.3827
v -200.0000 3.3500 0.0000
v -200.0000 3.1000 0.0000
v -193.5000 0.0000 4.5000
v -192.5000 0.0000 4.5000
v -192.5000 0.0000 5.5000
v -193.5000 0.0000 5.5000
v -193.5000 5.0000 4.5000
v -192.5000 5.0000 4.5000
v -192.5000 5.0000 5.5000
v -193.5000 5.0000 5.5000
v -193.6500 0.0000 4.3500
v -192.3500 0.0000 4.3500
v -192.3500 0.0000 5.6500
v -193.6500 0.0000 5.6500
v -193.6500 0.3000 4.3500
v -192.3500 0.3000 4.3500
v -192.3500 0.3000 5.6500
v -193.6500 0.3000 5.6500
v -193.6500 4.8500 4.3500
v -192.3500 4.8500 4.3500
v -192.3500 4.8500 5.6500
v -193.6500 4.8500 5.6500
v -193.6500 5.1500 4.3500
v -192.3500 5.1500 4.3500
v -192.3500 5.1500 5.6500
v -193.6500 5.1500 5.6500
v -207.5000 0.0000 4.5000
v -206.5000 0.0000 4.5000
v -206.5000 0.0000 5.5000
v -207.5000 0.0000 5.5000
v -207.5000 5.0000 4.5000
v -206.5000 5.0000 4.5000
v -206.5000 5.0000 5.5000
v -207.5000 5.0000 5.5000
v -207.6500 0.0000 4.3500
v -206.3500 0.0000 4.3500
v -206.3500 0.0000 5.6500
v -207.6500 0.0000 5.6500
v -207.6500 0.3000 4.3500
v -206.3500 0.3000 4.3500
v -206.3500 0.3000 5.6500
v -207.6500 0.3000 5.6500
v -207.6500 4.8500 4.3500
v -206.3500 4.8500 4.3500
v -206.3500 4.8500 5.6500
v -207.6500 4.8500 5.6500
v -207.6500 5.1500 4.3500
v -206.3500 5.1500 4.3500
v -206.3500 5.1500 5.6500
v -207.6500 5.1500 5.6500
v -193.5000 0.0000 -5.5000
v -192.5000 0.0000 -5.5000
v -192.5000 0.0000 -4.5000
v -193.5000 0.0000 -4.5000
v -193.5000 5.0000 -5.5000
v -192.5000 5.0000 -5.5000
v -192.5000 5.0000 -4.5000
v -193.5000 5.0000 -4.5000
v -193.6500 0.0000 -5.6500
v -192.3500 0.0000 -5.6500
v -192.3500 0.0000 -4.3500
v -193.6500 0.0000 -4.3500
v -193.6500 0.3000 -5.6500
v -192.3500 0.3000 -5.6500
v -192.3500 0.3000 -4.3500
v -193.6500 0.3000 -4.3500
v -193.6500 4.8500 -5.6500
v -192.3500 4.8500 -5.6500
v -192.3500 4.8500 -4.3500
v -193.6500 4.8500 -4.3500
v -193.6500 5.1500 -5.6500
v -192.3500 5.1500 -5.6500
v -192.3500 5.1500 -4.3500
v -193.6500 5.1500 -4.3500
v -207.5000 0.0000 -5.5000
v -206.5000 0.0000 -5.5000
v -206.5000 0.0000 -4.5000
v -207.5000 0.0000 -4.5000
v -207.5000 5.0000 -5.5000
v -206.5000 5.0000 -5.5000
v -206.5000 5.0000 -4.5000
v -207.5000 5.0000 -4.5000
v -207.6500 0.0000 -5.6500
v -206.3500 0.0000 -5.6500
v -206.3500 0.0000 -4.3500
v -207.6500 0.0000 -4.3500
v -207.6500 0.3000 -5.6500
v -206.3500 0.3000 -5.6500
v -206.3500 0.3000 -4.3500
v -207.6500 0.3000 -4.3500
v -207.6500 4.8500 -5.6500
v -206.3500 4.8500 -5.6500
v -206.3500 4.8500 -4.3500
v -207.6500 4.8500 -4.3500
v -207.6500 5.1500 -5.6500
v -206.3500 5.1500 -5.6500
v -206.3500 5.1500 -4.3500
v -207.6500 5.1500 -4.3500
v -188.5000 0.0000 8.5000
v -187.5000 0.0000 8.5000
v -187.5000 0.0000 9.5000
v -188.5000 0.0000 9.5000
v -188.5000 5.0000 8.5000
v -187.5000 5.0000 8.5000
v -187.5000 5.0000 9.5000
v -188.5000 5.0000 9.5000
v -188.6500 0.0000 8.3500
v -187.3500 0.0000 8.3500
v -187.3500 0.0000 9.6500
v -188.6500 0.0000 9.6500
v -188.6500 0.3000 8.3500
v -187.3500 0.3000 8.3500
v -187.3500 0.3000 9.6500
v -188.6500 0.3000 9.6500
v -188.6500 4.8500 8.3500
v -187.3500 4.8500 8.3500
v -187.3500 4.8500 9.6500
v -188.6500 4.8500 9.6500
v -188.6500 5.1500 8.3500
v -187.3500 5.1500 8.3500
v -187.3500 5.1500 9.6500
v -188.6500 5.1500 9.6500
v -212.5000 0.0000 8.5000
v -211.5000 0.0000 8.5000
v -211.5000 0.0000 9.5000
v -212.5000 0.0000 9.5000
v -212.5000 5.0000 8.5000
v -211.5000 5.0000 8.5000
v -211.5000 5.0000 9.5000
v -212.5000 5.0000 9.5000
v -212.6500 0.0000 8.3500
v -211.3500 0.0000 8.3500
v -211.3500 0.0000 9.6500
v -212.6500 0.0000 9.6500
v -212.6500 0.3000 8.3500
v -211.3500 0.3000 8.3500
v -211.3500 0.3000 9.6500
v -212.6500 0.3000 9.6500
v -212.6500 4.8500 8.3500
v -211.3500 4.8500 8.3500
v -211.3500 4.8500 9.6500
v -212.6500 4.8500 9.6500
v -212.6500 5.1500 8.3500
v -211.3500 5.1500 8.3500
v -211.3500 5.1500 9.6500
v -212.6500 5.1500 9.6500
v -188.5000 0.0000 -9.5000
v -187.5000 0.0000 -9.5000
v -187.5000 0.0000 -8.5000
v -188.5000 0.0000 -8.5000
v -188.5000 5.0000 -9.5000
v -187.5000 5.0000 -9.5000
v -187.5000 5.0000 -8.5000
v -188.5000 5.0000 -8.5000
v -188.6500 0.0000 -9.6500
v -187.3500 0.0000 -9.6500
v -187.3500 0.0000 -8.3500
v -188.6500 0.0000 -8.3500
v -188.6500 0.3000 -9.6500
v -187.3500 0.3000 -9.6500
v -187.3500 0.3000 -8.3500
v -188.6500 0.3000 -8.3500
v -188.6500 4.8500 -9.6500
v -187.3500 4.8500 -9.6500
v -187.3500 4.8500 -8.3500
v -188.6500 4.8500 -8.3500
v -188.6500 5.1500 -9.6500
v -187.3500 5.1500 -9.6500
v -187.3500 5.1500 -8.3500
v -188.6500 5.1500 -8.3500
v -212.5000 0.0000 -9.5000
v -211.5000 0.0000 -9.5000
v -211.5000 0.0000 -8.5000
v -212.5000 0.0000 -8.5000
v -212.5000 5.0000 -9.5000
v -211.5000 5.0000 -9.5000
v -211.5000 5.0000 -8.5000
v -212.5000 5.0000 -8.5000
v -212.6500 0.0000 -9.6500
v -211.3500 0.0000 -9.6500
v -211.3500 0.0000 -8.3500
v -212.6500 0.0000 -8.3500
v -212.6500 0.3000 -9.6500
v -211.3500 0.3000 -9.6500
v -211.3500 0.3000 -8.3500
v -212.6500 0.3000 -8.3500
v -212.6500 4.8500 -9.6500
v -211.3500 4.8500 -9.6500
v -211.3500 4.8500 -8.3500
v -212.6500 4.8500 -8.3500
v -212.6500 5.1500 -9.6500
v -211.3500 5.1500 -9.6500
v -211.3500 5.1500 -8.3500
v -212.6500 5.1500 -8.3500
v -196.5000 0.0000 10.0000
v -195.5000 0.0000 10.0000
v -195.5000 0.0000 11.0000
v -196.5000 0.0000 11.0000
v -196.5000 5.0000 10.0000
v -195.5000 5.0000 10.0000
v -195.5000 5.0000 11.0000
v -196.5000 5.0000 11.0000
v -196.6500 0.0000 9.8500
v -195.3500 0.0000 9.8500
v -195.3500 0.0000 11.1500
v -196.6500 0.0000 11.1500
v -196.6500 0.3000 9.8500
v -195.3500 0.3000 9.8500
v -195.3500 0.3000 11.1500
v -196.6500 0.3000 11.1500
v -196.6500 4.8500 9.8500
v -195.3500 4.8500 9.8500
v -195.3500 4.8500 11.1500
v -196.6500 4.8500 11.1500
v -196.6500 5.1500 9.8500
v -195.3500 5.1500 9.8500
v -195.3500 5.1500 11.1500
v -196.6500 5.1500 11.1500
v -204.5000 0.0000 10.0000
v -203.5000 0.0000 10.0000
v -203.5000 0.0000 11.0000
v -204.5000 0.0000 11.0000
v -204.5000 5.0000 10.0000
v -203.5000 5.0000 10.0000
v -203.5000 5.0000 11.0000
v -204.5000 5.0000 11.0000
v -204.6500 0.0000 9.8500
v -203.3500 0.0000 9.8500
v -203.3500 0.0000 11.1500
v -204.6500 0.0000 11.1500
v -204.6500 0.3000 9.8500
v -203.3500 0.3000 9.8500
v -203.3500 0.3000 11.1500
v -204.6500 0.3000 11.1500
v -204.6500 4.8500 9.8500
v -203.3500 4.8500 9.8500
v -203.3500 4.8500 11.1500
v -204.6500 4.8500 11.1500
v -204.6500 5.1500 9.8500
v -203.3500 5.1500 9.8500
v -203.3500 5.1500 11.1500
v -204.6500 5.1500 11.1500
v -196.5000 0.0000 -11.0000
v -195.5000 0.0000 -11.0000
v -195.5000 0.0000 -10.0000
v -196.5000 0.0000 -10.0000
v -196.5000 5.0000 -11.0000
v -195.5000 5.0000 -11.0000
v -195.5000 5.0000 -10.0000
v -196.5000 5.0000 -10.0000
v -196.6500 0.0000 -11.1500
v -195.3500 0.0000 -11.1500
v -195.3500 0.0000 -9.8500
v -196.6500 0.0000 -9.8500
v -196.6500 0.3000 -11.1500
v -195.3500 0.3000 -11.1500
v -195.3500 0.3000 -9.8500
v -196.6500 0.3000 -9.8500
v -196.6500 4.8500 -11.1500
v -195.3500 4.8500 -11.1500
v -195.3500 4.8500 -9.8500
v -196.6500 4.8500 -9.8500
v -196.6500 5.1500 -11.1500
v -195.3500 5.1500 -11.1500
v -195.3500 5.1500 -9.8500
v -196.6500 5.1500 -9.8500
v -204.5000 0.0000 -11.0000
v -203.5000 0.0000 -11.0000
v -203.5000 0.0000 -10.0000
v -204.5000 0.0000 -10.0000
v -204.5000 5.0000 -11.0000
v -203.5000 5.0000 -11.0000
v -203.5000 5.0000 -10.0000
v -204.5000 5.0000 -10.0000
v -204.6500 0.0000 -11.1500
v -203.3500 0.0000 -11.1500
v -203.3500 0.0000 -9.8500
v -204.6500 0.0000 -9.8500
v -204.6500 0.3000 -11.1500
v -203.3500 0.3000 -11.1500
v -203.3500 0.3000 -9.8500
v -204.6500 0.3000 -9.8500
v -204.6500 4.8500 -11.1500
v -203.3500 4.8500 -11.1500
v -203.3500 4.8500 -9.8500
v -204.6500 4.8500 -9.8500
v -204.6500 5.1500 -11.1500
v -203.3500 5.1500 -11.1500
v -203.3500 5.1500 -9.8500
v -204.6500 5.1500 -9.8500
v -191.1000 0.0000 -1.6000
v -189.9000 0.0000 -1.6000
v -189.9000 0.0000 1.6000
v -191.1000 0.0000 1.6000
v -191.1000 1.0000 -1.6000
v -189.9000 1.0000 -1.6000
v -189.9000 1.0000 1.6000
v -191.1000 1.0000 1.6000
v -191.0000 1.0000 -1.5000
v -190.0000 1.0000 -1.5000
v -190.0000 1.0000 1.5000
v -191.0000 1.0000 1.5000
v -191.0000 1.0400 -1.5000
v -190.0000 1.0400 -1.5000
v -190.0000 1.0400 1.5000
v -191.0000 1.0400 1.5000
v -210.1000 0.0000 -1.6000
v -208.9000 0.0000 -1.6000
v -208.9000 0.0000 1.6000
v -210.1000 0.0000 1.6000
v -210.1000 1.0000 -1.6000
v -208.9000 1.0000 -1.6000
v -208.9000 1.0000 1.6000
v -210.1000 1.0000 1.6000
v -210.0000 1.0000 -1.5000
v -209.0000 1.0000 -1.5000
v -209.0000 1.0000 1.5000
v -210.0000 1.0000 1.5000
v -210.0000 1.0400 -1.5000
v -209.0000 1.0400 -1.5000
v -209.0000 1.0400 1.5000
v -210.0000 1.0400 1.5000
v -186.1000 0.0000 2.4000
v -184.9000 0.0000 2.4000
v -184.9000 0.0000 5.6000
v -186.1000 0.0000 5.6000
v -186.1000 1.0000 2.4000
v -184.9000 1.0000 2.4000
v -184.9000 1.0000 5.6000
v -186.1000 1.0000 5.6000
v -186.0000 1.0000 2.5000
v -185.0000 1.0000 2.5000
v -185.0000 1.0000 5.5000
v -186.0000 1.0000 5.5000
v -186.0000 1.0400 2.5000
v -185.0000 1.0400 2.5000
v -185.0000 1.0400 5.5000
v -186.0000 1.0400 5.5000
v -215.1000 0.0000 2.4000
v -213.9000 0.0000 2.4000
v -213.9000 0.0000 5.6000
v -215.1000 0.0000 5.6000
v -215.1000 1.0000 2.4000
v -213.9000 1.0000 2.4000
v -213.9000 1.0000 5.6000
v -215.1000 1.0000 5.6000
v -215.0000 1.0000 2.5000
v -214.0000 1.0000 2.5000
v -214.0000 1.0000 5.5000
v -215.0000 1.0000 5.5000
v -215.0000 1.0400 2.5000
v -214.0000 1.0400 2.5000
v -214.0000 1.0400 5.5000
v -215.0000 1.0400 5.5000
v -186.1000 0.0000 -5.6000
v -184.9000 0.0000 -5.6000
v -184.9000 0.0000 -2.4000
v -186.1000 0.0000 -2.4000
v -186.1000 1.0000 -5.6000
v -184.9000 1.0000 -5.6000
v -184.9000 1.0000 -2.4000
v -186.1000 1.0000 -2.4000
v -186.0000 1.0000 -5.5000
v -185.0000 1.0000 -5.5000
v -185.0000 1.0000 -2.5000
v -186.0000 1.0000 -2.5000
v -186.0000 1.0400 -5.5000
v -185.0000 1.0400 -5.5000
v -185.0000 1.0400 -2.5000
v -186.0000 1.0400 -2.5000
v -215.1000 0.0000 -5.6000
v -213.9000 0.0000 -5.6000
v -213.9000 0.0000 -2.4000
v -215.1000 0.0000 -2.4000
v -215.1000 1.0000 -5.6000
v -213.9000 1.0000 -5.6000
v -213.9000 1.0000 -2.4000
v -215.1000 1.0000 -2.4000
v -215.0000 1.0000 -5.5000
v -214.0000 1.0000 -5.5000
v -214.0000 1.0000 -2.5000
v -215.0000 1.0000 -2.5000
v -215.0000 1.0400 -5.5000
v -214.0000 1.0400 -5.5000
v -214.0000 1.0400 -2.5000
v -215.0000 1.0400 -2.5000
v -215.9000 0.0000 -3.4000
v -215.1000 0.0000 -3.4000
v -215.1000 0.0000 -2.6000
v -215.9000 0.0000 -2.6000
v -215.9000 3.5000 -3.4000
v -215.1000 3.5000 -3.4000
v -215.1000 3.5000 -2.6000
v -215.9000 3.5000 -2.6000
v -215.9000 0.0000 2.6000
v -215.1000 0.0000 2.6000
v -215.1000 0.0000 3.4000
v -215.9000 0.0000 3.4000
v -215.9000 3.5000 2.6000
v -215.1000 3.5000 2.6000
v -215.1000 3.5000 3.4000
v -215.9000 3.5000 3.4000
v -215.9000 3.4500 -3.4000
v -215.1000 3.4500 -3.4000
v -215.1000 3.4500 3.4000
v -215.9000 3.4500 3.4000
v -215.9000 3.9500 -3.4000
v -215.1000 3.9500 -3.4000
v -215.1000 3.9500 3.4000
v -215.9000 3.9500 3.4000
v -184.9000 0.0000 -3.4000
v -184.1000 0.0000 -3.4000
v -184.1000 0.0000 -2.6000
v -184.9000 0.0000 -2.6000
v -184.9000 3.5000 -3.4000
v -184.1000 3.5000 -3.4000
v -184.1000 3.5000 -2.6000
v -184.9000 3.5000 -2.6000
v -184.9000 0.0000 2.6000
v -184.1000 0.0000 2.6000
v -184.1000 0.0000 3.4000
v -184.9000 0.0000 3.4000
v -184.9000 3.5000 2.6000
v -184.1000 3.5000 2.6000
v -184.1000 3.5000 3.4000
v -184.9000 3.5000 3.4000
v -184.9000 3.4500 -3.4000
v -184.1000 3.4500 -3.4000
v -184.1000 3.4500 3.4000
v -184.9000 3.4500 3.4000
v -184.9000 3.9500 -3.4000
v -184.1000 3.9500 -3.4000
v -184.1000 3.9500 3.4000
v -184.9000 3.9500 3.4000
usemtl stone
f 1 4 3 2
f 5 6 7 8
f 1 2 6 5
f 3 4 8 7
f 2 3 7 6
f 4 1 5 8
usemtl stone_dark
f 9 12 11 10
f 13 14 15 16
f 9 10 14 13
f 11 12 16 15
f 10 11 15 14
f 12 9 13 16
f 17 20 19 18
f 21 22 23 24
f 17 18 22 21
f 19 20 24 23
f 18 19 23 22
f 20 17 21 24
f 25 28 27 26
f 29 30 31 32
f 25 26 30 29
f 27 28 32 31
f 26 27 31 30
f 28 25 29 32
f 33 36 35 34
f 37 38 39 40
f 33 34 38 37
f 35 36 40 39
f 34 35 39 38
f 36 33 37 40
usemtl grass
f 41 44 43 42
f 45 46 47 48
f 41 42 46 45
f 43 44 48 47
f 42 43 47 46
f 44 41 45 48
f 49 52 51 50
f 53 54 55 56
f 49 50 54 53
f 51 52 56 55
f 50 51 55 54
f 52 49 53 56
usemtl neon_red
f 57 60 59 58
f 61 62 63 64
f 57 58 62 61
f 59 60 64 63
f 58 59 63 62
f 60 57 61 64
usemtl neon_blue
f 65 68 67 66
f 69 70 71 72
f 65 66 70 69
f 67 68 72 71
f 66 67 71 70
f 68 65 69 72
usemtl stone_dark
f 73 75 76 74
f 75 77 78 76
f 77 79 80 78
f 79 81 82 80
f 81 83 84 82
f 83 85 86 84
f 85 87 88 86
f 87 89 90 88
f 89 91 92 90
f 91 93 94 92
f 93 95 96 94
f 95 97 98 96
f 97 99 100 98
f 99 101 102 100
f 101 103 104 102
f 103 105 106 104
f 105 107 108 106
f 107 109 110 108
f 109 111 112 110
f 111 73 74 112
f 113 74 76
f 114 75 73
f 113 76 78
f 114 77 75
f 113 78 80
f 114 79 77
f 113 80 82
f 114 81 79
f 113 82 84
f 114 83 81
f 113 84 86
f 114 85 83
f 113 86 88
f 114 87 85
f 113 88 90
f 114 89 87
f 113 90 92
f 114 91 89
f 113 92 94
f 114 93 91
f 113 94 96
f 114 95 93
f 113 96 98
f 114 97 95
f 113 98 100
f 114 99 97
f 113 100 102
f 114 101 99
f 113 102 104
f 114 103 101
f 113 104 106
f 114 105 103
f 113 106 108
f 114 107 105
f 113 108 110
f 114 109 107
f 113 110 112
f 114 111 109
f 113 112 74
f 114 73 111
usemtl water
f 115 117 118 116
f 117 119 120 118
f 119 121 122 120
f 121 123 124 122
f 123 125 126 124
f 125 127 128 126
f 127 129 130 128
f 129 131 132 130
f 131 133 134 132
f 133 135 136 134
f 135 137 138 136
f 137 139 140 138
f 139 141 142 140
f 141 143 144 142
f 143 145 146 144
f 145 147 148 146
f 147 149 150 148
f 149 151 152 150
f 151 153 154 152
f 153 115 116 154
f 155 116 118
f 156 117 115
f 155 118 120
f 156 119 117
f 155 120 122
f 156 121 119
f 155 122 124
f 156 123 121
f 155 124 126
f 156 125 123
f 155 126 128
f 156 127 125
f 155 128 130
f 156 129 127
f 155 130 132
f 156 131 129
f 155 132 134
f 156 133 131
f 155 134 136
f 156 135 133
f 155 136 138
f 156 137 135
f 155 138 140
f 156 139 137
f 155 140 142
f 156 141 139
f 155 142 144
f 156 143 141
f 155 144 146
f 156 145 143
f 155 146 148
f 156 147 145
f 155 148 150
f 156 149 147
f 155 150 152
f 156 151 149
f 155 152 154
f 156 153 151
f 155 154 116
f 156 115 153
usemtl stone
f 157 159 160 158
f 159 161 162 160
f 161 163 164 162
f 163 165 166 164
f 165 167 168 166
f 167 169 170 168
f 169 171 172 170
f 171 173 174 172
f 173 175 176 174
f 175 177 178 176
f 177 179 180 178
f 179 157 158 180
f 181 158 160
f 182 159 157
f 181 160 162
f 182 161 159
f 181 162 164
f 182 163 161
f 181 164 166
f 182 165 163
f 181 166 168
f 182 167 165
f 181 168 170
f 182 169 167
f 181 170 172
f 182 171 169
f 181 172 174
f 182 173 171
f 181 174 176
f 182 175 173
f 181 176 178
f 182 177 175
f 181 178 180
f 182 179 177
f 181 180 158
f 182 157 179
f 183 185 186 184
f 185 187 188 186
f 187 189 190 188
f 189 191 192 190
f 191 193 194 192
f 193 195 196 194
f 195 197 198 196
f 197 199 200 198
f 199 201 202 200
f 201 203 204 202
f 203 205 206 204
f 205 207 208 206
f 207 209 210 208
f 209 211 212 210
f 211 213 214 212
f 213 183 184 214
f 215 184 186
f 216 185 183
f 215 186 188
f 216 187 185
f 215 188 190
f 216 189 187
f 215 190 192
f 216 191 189
f 215 192 194
f 216 193 191
f 215 194 196
f 216 195 193
f 215 196 198
f 216 197 195
f 215 198 200
f 216 199 197
f 215 200 202
f 216 201 199
f 215 202 204
f 216 203 201
f 215 204 206
f 216 205 203
f 215 206 208
f 216 207 205
f 215 208 210
f 216 209 207
f 215 210 212
f 216 211 209
f 215 212 214
f 216 213 211
f 215 214 184
f 216 183 213
f 217 220 219 218
f 221 222 223 224
f 217 218 222 221
f 219 220 224 223
f 218 219 223 222
f 220 217 221 224
usemtl stone_dark
f 225 228 227 226
f 229 230 231 232
f 225 226 230 229
f 227 228 232 231
f 226 227 231 230
f 228 225 229 232
f 233 236 235 234
f 237 238 239 240
f 233 234 238 237
f 235 236 240 239
f 234 235 239 238
f 236 233 237 240
usemtl stone
f 241 244 243 242
f 245 246 247 248
f 241 242 246 245
f 243 244 248 247
f 242 243 247 246
f 244 241 245 248
usemtl stone_dark
f 249 252 251 250
f 253 254 255 256
f 249 250 254 253
f 251 252 256 255
f 250 251 255 254
f 252 249 253 256
f 257 260 259 258
f 261 262 263 264
f 257 258 262 261
f 259 260 264 263
f 258 259 263 262
f 260 257 261 264
usemtl stone
f 265 268 267 266
f 269 270 271 272
f 265 266 270 269
f 267 268 272 271
f 266 267 271 270
f 268 265 269 272
usemtl stone_dark
f 273 276 275 274
f 277 278 279 280
f 273 274 278 277
f 275 276 280 279
f 274 275 279 278
f 276 273 277 280
f 281 284 283 282
f 285 286 287 288
f 281 282 286 285
f 283 284 288 287
f 282 283 287 286
f 284 281 285 288
usemtl stone
f 289 292 291 290
f 293 294 295 296
f 289 290 294 293
f 291 292 296 295
f 290 291 295 294
f 292 289 293 296
usemtl stone_dark
f 297 300 299 298
f 301 302 303 304
f 297 298 302 301
f 299 300 304 303
f 298 299 303 302
f 300 297 301 304
f 305 308 307 306
f 309 310 311 312
f 305 306 310 309
f 307 308 312 311
f 306 307 311 310
f 308 305 309 312
usemtl stone
f 313 316 315 314
f 317 318 319 320
f 313 314 318 317
f 315 316 320 319
f 314 315 319 318
f 316 313 317 320
usemtl stone_dark
f 321 324 323 322
f 325 326 327 328
f 321 322 326 325
f 323 324 328 327
f 322 323 327 326
f 324 321 325 328
f 329 332 331 330
f 333 334 335 336
f 329 330 334 333
f 331 332 336 335
f 330 331 335 334
f 332 329 333 336
usemtl stone
f 337 340 339 338
f 341 342 343 344
f 337 338 342 341
f 339 340 344 343
f 338 339 343 342
f 340 337 341 344
usemtl stone_dark
f 345 348 347 346
f 349 350 351 352
f 345 346 350 349
f 347 348 352 351
f 346 347 351 350
f 348 345 349 352
f 353 356 355 354
f 357 358 359 360
f 353 354 358 357
f 355 356 360 359
f 354 355 359 358
f 356 353 357 360
usemtl stone
f 361 364 363 362
f 365 366 367 368
f 361 362 366 365
f 363 364 368 367
f 362 363 367 366
f 364 361 365 368
usemtl stone_dark
f 369 372 371 370
f 373 374 375 376
f 369 370 374 373
f 371 372 376 375
f 370 371 375 374
f 372 369 373 376
f 377 380 379 378
f 381 382 383 384
f 377 378 382 381
f 379 380 384 383
f 378 379 383 382
f 380 377 381 384
usemtl stone
f 385 388 387 386
f 389 390 391 392
f 385 386 390 389
f 387 388 392 391
f 386 387 391 390
f 388 385 389 392
usemtl stone_dark
f 393 396 395 394
f 397 398 399 400
f 393 394 398 397
f 395 396 400 399
f 394 395 399 398
f 396 393 397 400
f 401 404 403 402
f 405 406 407 408
f 401 402 406 405
f 403 404 408 407
f 402 403 407 406
f 404 401 405 408
usemtl stone
f 409 412 411 410
f 413 414 415 416
f 409 410 414 413
f 411 412 416 415
f 410 411 415 414
f 412 409 413 416
usemtl stone_dark
f 417 420 419 418
f 421 422 423 424
f 417 418 422 421
f 419 420 424 423
f 418 419 423 422
f 420 417 421 424
f 425 428 427 426
f 429 430 431 432
f 425 426 430 429
f 427 428 432 431
f 426 427 431 430
f 428 425 429 432
usemtl stone
f 433 436 435 434
f 437 438 439 440
f 433 434 438 437
f 435 436 440 439
f 434 435 439 438
f 436 433 437 440
usemtl stone_dark
f 441 444 443 442
f 445 446 447 448
f 441 442 446 445
f 443 444 448 447
f 442 443 447 446
f 444 441 445 448
f 449 452 451 450
f 453 454 455 456
f 449 450 454 453
f 451 452 456 455
f 450 451 455 454
f 452 449 453 456
usemtl stone
f 457 460 459 458
f 461 462 463 464
f 457 458 462 461
f 459 460 464 463
f 458 459 463 462
f 460 457 461 464
usemtl stone_dark
f 465 468 467 466
f 469 470 471 472
f 465 466 470 469
f 467 468 472 471
f 466 467 471 470
f 468 465 469 472
f 473 476 475 474
f 477 478 479 480
f 473 474 478 477
f 475 476 480 479
f 474 475 479 478
f 476 473 477 480
usemtl stone
f 481 484 483 482
f 485 486 487 488
f 481 482 486 485
f 483 484 488 487
f 482 483 487 486
f 484 481 485 488
usemtl stone_dark
f 489 492 491 490
f 493 494 495 496
f 489 490 494 493
f 491 492 496 495
f 490 491 495 494
f 492 489 493 496
f 497 500 499 498
f 501 502 503 504
f 497 498 502 501
f 499 500 504 503
f 498 499 503 502
f 500 497 501 504
f 505 508 507 506
f 509 510 511 512
f 505 506 510 509
f 507 508 512 511
f 506 507 511 510
f 508 505 509 512
usemtl grass
f 513 516 515 514
f 517 518 519 520
f 513 514 518 517
f 515 516 520 519
f 514 515 519 518
f 516 513 517 520
usemtl stone_dark
f 521 524 523 522
f 525 526 527 528
f 521 522 526 525
f 523 524 528 527
f 522 523 527 526
f 524 521 525 528
usemtl grass
f 529 532 531 530
f 533 534 535 536
f 529 530 534 533
f 531 532 536 535
f 530 531 535 534
f 532 529 533 536
usemtl stone_dark
f 537 540 539 538
f 541 542 543 544
f 537 538 542 541
f 539 540 544 543
f 538 539 543 542
f 540 537 541 544
usemtl grass
f 545 548 547 546
f 549 550 551 552
f 545 546 550 549
f 547 548 552 551
f 546 547 551 550
f 548 545 549 552
usemtl stone_dark
f 553 556 555 554
f 557 558 559 560
f 553 554 558 557
f 555 556 560 559
f 554 555 559 558
f 556 553 557 560
usemtl grass
f 561 564 563 562
f 565 566 567 568
f 561 562 566 565
f 563 564 568 567
f 562 563 567 566
f 564 561 565 568
usemtl stone_dark
f 569 572 571 570
f 573 574 575 576
f 569 570 574 573
f 571 572 576 575
f 570 571 575 574
f 572 569 573 576
usemtl grass
f 577 580 579 578
f 581 582 583 584
f 577 578 582 581
f 579 580 584 583
f 578 579 583 582
f 580 577 581 584
usemtl stone_dark
f 585 588 587 586
f 589 590 591 592
f 585 586 590 589
f 587 588 592 591
f 586 587 591 590
f 588 585 589 592
usemtl grass
f 593 596 595 594
f 597 598 599 600
f 593 594 598 597
f 595 596 600 599
f 594 595 599 598
f 596 593 597 600
usemtl stone
f 601 604 603 602
f 605 606 607 608
f 601 602 606 605
f 603 604 608 607
f 602 603 607 606
f 604 601 605 608
f 609 612 611 610
f 613 614 615 616
f 609 610 614 613
f 611 612 616 615
f 610 611 615 614
f 612 609 613 616
f 617 620 619 618
f 621 622 623 624
f 617 618 622 621
f 619 620 624 623
f 618 619 623 622
f 620 617 621 624
f 625 628 627 626
f 629 630 631 632
f 625 626 630 629
f 627 628 632 631
f 626 627 631 630
f 628 625 629 632
f 633 636 635 634
f 637 638 639 640
f 633 634 638 637
f 635 636 640 639
f 634 635 639 638
f 636 633 637 640
f 641 644 643 642
f 645 646 647 648
f 641 642 646 645
f 643 644 648 647
f 642 643 647 646
f 644 641 645 648
