# RoastEngine club level
mtllib arena.mtl
v -0.0160 0.0000 -0.0025
v 0.0160 0.0000 -0.0025
v 0.0160 0.0000 0.0425
v -0.0160 0.0000 0.0425
v -0.0160 0.1200 -0.0025
v 0.0160 0.1200 -0.0025
v 0.0160 0.1200 0.0425
v -0.0160 0.1200 0.0425
v -0.0170 0.1000 -0.0800
v 0.0170 0.1000 -0.0800
v 0.0170 0.1000 0.0200
v -0.0170 0.1000 0.0200
v -0.0170 0.1600 -0.0800
v 0.0170 0.1600 -0.0800
v 0.0170 0.1600 0.0200
v -0.0170 0.1600 0.0200
v -0.0250 0.1050 -0.0700
v 0.0250 0.1050 -0.0700
v 0.0250 0.1050 -0.0200
v -0.0250 0.1050 -0.0200
v -0.0250 0.1550 -0.0700
v 0.0250 0.1550 -0.0700
v 0.0250 0.1550 -0.0200
v -0.0250 0.1550 -0.0200
v -0.0110 0.1330 -0.2600
v 0.0110 0.1330 -0.2600
v 0.0110 0.1330 -0.0800
v -0.0110 0.1330 -0.0800
v -0.0110 0.1570 -0.2600
v 0.0110 0.1570 -0.2600
v 0.0110 0.1570 -0.0800
v -0.0110 0.1570 -0.0800
v -0.0030 0.1540 -0.2560
v 0.0030 0.1540 -0.2560
v 0.0030 0.1540 -0.2440
v -0.0030 0.1540 -0.2440
v -0.0030 0.1660 -0.2560
v 0.0030 0.1660 -0.2560
v 0.0030 0.1660 -0.2440
v -0.0030 0.1660 -0.2440
usemtl gun_wood
f 1 4 3 2
f 5 6 7 8
f 1 2 6 5
f 3 4 8 7
f 2 3 7 6
f 4 1 5 8
usemtl gun_steel
f 9 12 11 10
f 13 14 15 16
f 9 10 14 13
f 11 12 16 15
f 10 11 15 14
f 12 9 13 16
f 17 20 19 18
f 21 22 23 24
f 17 18 22 21
f 19 20 24 23
f 18 19 23 22
f 20 17 21 24
f 25 28 27 26
f 29 30 31 32
f 25 26 30 29
f 27 28 32 31
f 26 27 31 30
f 28 25 29 32
usemtl gun_metal
f 33 36 35 34
f 37 38 39 40
f 33 34 38 37
f 35 36 40 39
f 34 35 39 38
f 36 33 37 40
