# RoastEngine club level
mtllib arena.mtl
v -0.0160 0.0000 -0.0125
v 0.0160 0.0000 -0.0125
v 0.0160 0.0000 0.0325
v -0.0160 0.0000 0.0325
v -0.0160 0.1200 -0.0125
v 0.0160 0.1200 -0.0125
v 0.0160 0.1200 0.0325
v -0.0160 0.1200 0.0325
v -0.0300 0.0950 -0.4000
v 0.0300 0.0950 -0.4000
v 0.0300 0.0950 0.1600
v -0.0300 0.0950 0.1600
v -0.0300 0.1850 -0.4000
v 0.0300 0.1850 -0.4000
v 0.0300 0.1850 0.1600
v -0.0300 0.1850 0.1600
v -0.0110 0.1440 -0.8700
v 0.0110 0.1440 -0.8700
v 0.0110 0.1440 -0.3700
v -0.0110 0.1440 -0.3700
v -0.0110 0.1660 -0.8700
v 0.0110 0.1660 -0.8700
v 0.0110 0.1660 -0.3700
v -0.0110 0.1660 -0.3700
v -0.0180 0.1370 -0.9100
v 0.0180 0.1370 -0.9100
v 0.0180 0.1370 -0.8500
v -0.0180 0.1370 -0.8500
v -0.0180 0.1730 -0.9100
v 0.0180 0.1730 -0.9100
v 0.0180 0.1730 -0.8500
v -0.0180 0.1730 -0.8500
v -0.0225 0.2025 -0.2700
v 0.0225 0.2025 -0.2700
v 0.0225 0.2025 0.0300
v -0.0225 0.2025 0.0300
v -0.0225 0.2475 -0.2700
v 0.0225 0.2475 -0.2700
v 0.0225 0.2475 0.0300
v -0.0225 0.2475 0.0300
v -0.0275 0.1975 -0.3000
v 0.0275 0.1975 -0.3000
v 0.0275 0.1975 -0.2600
v -0.0275 0.1975 -0.2600
v -0.0275 0.2525 -0.3000
v 0.0275 0.2525 -0.3000
v 0.0275 0.2525 -0.2600
v -0.0275 0.2525 -0.2600
v -0.0150 0.2100 -0.3025
v 0.0150 0.2100 -0.3025
v 0.0150 0.2100 -0.2975
v -0.0150 0.2100 -0.2975
v -0.0150 0.2400 -0.3025
v 0.0150 0.2400 -0.3025
v 0.0150 0.2400 -0.2975
v -0.0150 0.2400 -0.2975
v -0.0150 -0.0200 -0.1650
v 0.0150 -0.0200 -0.1650
v 0.0150 -0.0200 -0.0950
v -0.0150 -0.0200 -0.0950
v -0.0150 0.1000 -0.1650
v 0.0150 0.1000 -0.1650
v 0.0150 0.1000 -0.0950
v -0.0150 0.1000 -0.0950
v -0.0225 0.0650 0.1000
v 0.0225 0.0650 0.1000
v 0.0225 0.0650 0.4000
v -0.0225 0.0650 0.4000
v -0.0225 0.1750 0.1000
v 0.0225 0.1750 0.1000
v 0.0225 0.1750 0.4000
v -0.0225 0.1750 0.4000
usemtl gun_polymer
f 1 4 3 2
f 5 6 7 8
f 1 2 6 5
f 3 4 8 7
f 2 3 7 6
f 4 1 5 8
f 9 12 11 10
f 13 14 15 16
f 9 10 14 13
f 11 12 16 15
f 10 11 15 14
f 12 9 13 16
usemtl gun_steel
f 17 20 19 18
f 21 22 23 24
f 17 18 22 21
f 19 20 24 23
f 18 19 23 22
f 20 17 21 24
usemtl gun_metal
f 25 28 27 26
f 29 30 31 32
f 25 26 30 29
f 27 28 32 31
f 26 27 31 30
f 28 25 29 32
f 33 36 35 34
f 37 38 39 40
f 33 34 38 37
f 35 36 40 39
f 34 35 39 38
f 36 33 37 40
f 41 44 43 42
f 45 46 47 48
f 41 42 46 45
f 43 44 48 47
f 42 43 47 46
f 44 41 45 48
usemtl gun_sight
f 49 52 51 50
f 53 54 55 56
f 49 50 54 53
f 51 52 56 55
f 50 51 55 54
f 52 49 53 56
usemtl gun_metal
f 57 60 59 58
f 61 62 63 64
f 57 58 62 61
f 59 60 64 63
f 58 59 63 62
f 60 57 61 64
usemtl gun_polymer
f 65 68 67 66
f 69 70 71 72
f 65 66 70 69
f 67 68 72 71
f 66 67 71 70
f 68 65 69 72
