# RoastEngine club level
mtllib arena.mtl
v -0.0160 0.0000 -0.0125
v 0.0160 0.0000 -0.0125
v 0.0160 0.0000 0.0325
v -0.0160 0.0000 0.0325
v -0.0160 0.1200 -0.0125
v 0.0160 0.1200 -0.0125
v 0.0160 0.1200 0.0325
v -0.0160 0.1200 0.0325
v -0.0250 0.1075 -0.2400
v 0.0250 0.1075 -0.2400
v 0.0250 0.1075 0.0400
v -0.0250 0.1075 0.0400
v -0.0250 0.1825 -0.2400
v 0.0250 0.1825 -0.2400
v 0.0250 0.1825 0.0400
v -0.0250 0.1825 0.0400
v -0.0140 0.1460 -0.6900
v 0.0140 0.1460 -0.6900
v 0.0140 0.1460 -0.2300
v -0.0140 0.1460 -0.2300
v -0.0140 0.1740 -0.6900
v 0.0140 0.1740 -0.6900
v 0.0140 0.1740 -0.2300
v -0.0140 0.1740 -0.2300
v -0.0225 0.1000 -0.4600
v 0.0225 0.1000 -0.4600
v 0.0225 0.1000 -0.2600
v -0.0225 0.1000 -0.2600
v -0.0225 0.1400 -0.4600
v 0.0225 0.1400 -0.4600
v 0.0225 0.1400 -0.2600
v -0.0225 0.1400 -0.2600
v -0.0100 0.1150 -0.6700
v 0.0100 0.1150 -0.6700
v 0.0100 0.1150 -0.3700
v -0.0100 0.1150 -0.3700
v -0.0100 0.1350 -0.6700
v 0.0100 0.1350 -0.6700
v 0.0100 0.1350 -0.3700
v -0.0100 0.1350 -0.3700
v -0.0210 0.0700 0.0600
v 0.0210 0.0700 0.0600
v 0.0210 0.0700 0.3400
v -0.0210 0.0700 0.3400
v -0.0210 0.1700 0.0600
v 0.0210 0.1700 0.0600
v 0.0210 0.1700 0.3400
v -0.0210 0.1700 0.3400
usemtl gun_wood
f 1 4 3 2
f 5 6 7 8
f 1 2 6 5
f 3 4 8 7
f 2 3 7 6
f 4 1 5 8
usemtl gun_metal
f 9 12 11 10
f 13 14 15 16
f 9 10 14 13
f 11 12 16 15
f 10 11 15 14
f 12 9 13 16
usemtl gun_steel
f 17 20 19 18
f 21 22 23 24
f 17 18 22 21
f 19 20 24 23
f 18 19 23 22
f 20 17 21 24
usemtl gun_wood
f 25 28 27 26
f 29 30 31 32
f 25 26 30 29
f 27 28 32 31
f 26 27 31 30
f 28 25 29 32
usemtl gun_steel
f 33 36 35 34
f 37 38 39 40
f 33 34 38 37
f 35 36 40 39
f 34 35 39 38
f 36 33 37 40
usemtl gun_wood
f 41 44 43 42
f 45 46 47 48
f 41 42 46 45
f 43 44 48 47
f 42 43 47 46
f 44 41 45 48
