# RoastEngine club level
mtllib club.mtl
v 0.0000 0.0000 -0.0600
v 2.0000 0.0000 -0.0600
v 2.0000 0.0000 0.0600
v 0.0000 0.0000 0.0600
v 0.0000 2.7000 -0.0600
v 2.0000 2.7000 -0.0600
v 2.0000 2.7000 0.0600
v 0.0000 2.7000 0.0600
v 1.7500 1.2000 0.0400
v 1.8500 1.2000 0.0400
v 1.8500 1.2000 0.1600
v 1.7500 1.2000 0.1600
v 1.7500 1.3000 0.0400
v 1.8500 1.3000 0.0400
v 1.8500 1.3000 0.1600
v 1.7500 1.3000 0.1600
usemtl door
f 1 4 3 2
f 5 6 7 8
f 1 2 6 5
f 3 4 8 7
f 2 3 7 6
f 4 1 5 8
usemtl door_metal
f 9 12 11 10
f 13 14 15 16
f 9 10 14 13
f 11 12 16 15
f 10 11 15 14
f 12 9 13 16
