# RoastEngine club level
mtllib club.mtl
v 0.0450 0.0000 0.0000
v 0.0450 1.0000 0.0000
v 0.0390 0.0000 0.0225
v 0.0390 1.0000 0.0225
v 0.0225 0.0000 0.0390
v 0.0225 1.0000 0.0390
v 0.0000 0.0000 0.0450
v 0.0000 1.0000 0.0450
v -0.0225 0.0000 0.0390
v -0.0225 1.0000 0.0390
v -0.0390 0.0000 0.0225
v -0.0390 1.0000 0.0225
v -0.0450 0.0000 0.0000
v -0.0450 1.0000 0.0000
v -0.0390 0.0000 -0.0225
v -0.0390 1.0000 -0.0225
v -0.0225 0.0000 -0.0390
v -0.0225 1.0000 -0.0390
v -0.0000 0.0000 -0.0450
v -0.0000 1.0000 -0.0450
v 0.0225 0.0000 -0.0390
v 0.0225 1.0000 -0.0390
v 0.0390 0.0000 -0.0225
v 0.0390 1.0000 -0.0225
v 0.0000 1.0000 0.0000
v 0.0000 0.0000 0.0000
usemtl beer
f 1 3 4 2
f 3 5 6 4
f 5 7 8 6
f 7 9 10 8
f 9 11 12 10
f 11 13 14 12
f 13 15 16 14
f 15 17 18 16
f 17 19 20 18
f 19 21 22 20
f 21 23 24 22
f 23 1 2 24
f 25 2 4
f 26 3 1
f 25 4 6
f 26 5 3
f 25 6 8
f 26 7 5
f 25 8 10
f 26 9 7
f 25 10 12
f 26 11 9
f 25 12 14
f 26 13 11
f 25 14 16
f 26 15 13
f 25 16 18
f 26 17 15
f 25 18 20
f 26 19 17
f 25 20 22
f 26 21 19
f 25 22 24
f 26 23 21
f 25 24 2
f 26 1 23
